<?xml version="1.0" encoding="UTF-8" standalone="no"?>
<!DOCTYPE svg PUBLIC "-//W3C//DTD SVG 1.1//EN"
 "http://www.w3.org/Graphics/SVG/1.1/DTD/svg11.dtd">
<!-- Generated by graphviz version 2.43.0 (0)
 -->
<!-- Title: Cpl/Memory/Allocator.h Pages: 1 -->
<svg width="536pt" height="203pt"
 viewBox="0.00 0.00 535.50 203.00" xmlns="http://www.w3.org/2000/svg" xmlns:xlink="http://www.w3.org/1999/xlink">
<g id="graph0" class="graph" transform="scale(1 1) rotate(0) translate(4 199)">
<title>Cpl/Memory/Allocator.h</title>
<!-- Node1 -->
<g id="Node000001" class="node">
<title>Node1</title>
<g id="a_Node000001"><a xlink:title=" ">
<polygon fill="#999999" stroke="#666666" points="242,-195 111,-195 111,-176 242,-176 242,-195"/>
<text text-anchor="middle" x="176.5" y="-183" font-family="Helvetica,sans-Serif" font-size="10.00">Cpl/Memory/Allocator.h</text>
</a>
</g>
</g>
<!-- Node2 -->
<g id="Node000002" class="node">
<title>Node2</title>
<g id="a_Node000002"><a xlink:href="_contiguous_allocator_8h.html" target="_top" xlink:title=" ">
<polygon fill="white" stroke="#666666" points="185,-140 0,-140 0,-121 185,-121 185,-140"/>
<text text-anchor="middle" x="92.5" y="-128" font-family="Helvetica,sans-Serif" font-size="10.00">Cpl/Memory/ContiguousAllocator.h</text>
</a>
</g>
</g>
<!-- Node1&#45;&gt;Node2 -->
<g id="edge1_Node000001_Node000002" class="edge">
<title>Node1&#45;&gt;Node2</title>
<g id="a_edge1_Node000001_Node000002"><a xlink:title=" ">
<path fill="none" stroke="#63b8ff" d="M154.19,-170.42C138.95,-160.81 119.23,-148.37 106.24,-140.17"/>
<polygon fill="#63b8ff" stroke="#63b8ff" points="152.68,-173.61 163,-175.98 156.41,-167.69 152.68,-173.61"/>
</a>
</g>
</g>
<!-- Node4 -->
<g id="Node000004" class="node">
<title>Node4</title>
<g id="a_Node000004"><a xlink:href="_pool___8h.html" target="_top" xlink:title=" ">
<polygon fill="white" stroke="#666666" points="317.5,-140 203.5,-140 203.5,-121 317.5,-121 317.5,-140"/>
<text text-anchor="middle" x="260.5" y="-128" font-family="Helvetica,sans-Serif" font-size="10.00">Cpl/Memory/Pool_.h</text>
</a>
</g>
</g>
<!-- Node1&#45;&gt;Node4 -->
<g id="edge3_Node000001_Node000004" class="edge">
<title>Node1&#45;&gt;Node4</title>
<g id="a_edge3_Node000001_Node000004"><a xlink:title=" ">
<path fill="none" stroke="#63b8ff" d="M198.81,-170.42C214.05,-160.81 233.77,-148.37 246.76,-140.17"/>
<polygon fill="#63b8ff" stroke="#63b8ff" points="196.59,-167.69 190,-175.98 200.32,-173.61 196.59,-167.69"/>
</a>
</g>
</g>
<!-- Node3 -->
<g id="Node000003" class="node">
<title>Node3</title>
<g id="a_Node000003"><a xlink:href="_lean_heap_8h.html" target="_top" xlink:title=" ">
<polygon fill="white" stroke="#666666" points="161,-85 24,-85 24,-66 161,-66 161,-85"/>
<text text-anchor="middle" x="92.5" y="-73" font-family="Helvetica,sans-Serif" font-size="10.00">Cpl/Memory/LeanHeap.h</text>
</a>
</g>
</g>
<!-- Node2&#45;&gt;Node3 -->
<g id="edge2_Node000002_Node000003" class="edge">
<title>Node2&#45;&gt;Node3</title>
<g id="a_edge2_Node000002_Node000003"><a xlink:title=" ">
<path fill="none" stroke="#63b8ff" d="M92.5,-110.66C92.5,-101.93 92.5,-91.99 92.5,-85.09"/>
<polygon fill="#63b8ff" stroke="#63b8ff" points="89,-110.75 92.5,-120.75 96,-110.75 89,-110.75"/>
</a>
</g>
</g>
<!-- Node5 -->
<g id="Node000005" class="node">
<title>Node5</title>
<g id="a_Node000005"><a xlink:href="_h_pool_8h.html" target="_top" xlink:title=" ">
<polygon fill="white" stroke="#666666" points="306.5,-85 190.5,-85 190.5,-66 306.5,-66 306.5,-85"/>
<text text-anchor="middle" x="248.5" y="-73" font-family="Helvetica,sans-Serif" font-size="10.00">Cpl/Memory/HPool.h</text>
</a>
</g>
</g>
<!-- Node4&#45;&gt;Node5 -->
<g id="edge4_Node000004_Node000005" class="edge">
<title>Node4&#45;&gt;Node5</title>
<g id="a_edge4_Node000004_Node000005"><a xlink:title=" ">
<path fill="none" stroke="#63b8ff" d="M256.3,-110.95C254.31,-102.15 252.02,-92.06 250.44,-85.09"/>
<polygon fill="#63b8ff" stroke="#63b8ff" points="252.9,-111.77 258.52,-120.75 259.72,-110.22 252.9,-111.77"/>
</a>
</g>
</g>
<!-- Node6 -->
<g id="Node000006" class="node">
<title>Node6</title>
<g id="a_Node000006"><a xlink:href="_s_pool_8h.html" target="_top" xlink:title=" ">
<polygon fill="white" stroke="#666666" points="440,-85 325,-85 325,-66 440,-66 440,-85"/>
<text text-anchor="middle" x="382.5" y="-73" font-family="Helvetica,sans-Serif" font-size="10.00">Cpl/Memory/SPool.h</text>
</a>
</g>
</g>
<!-- Node4&#45;&gt;Node6 -->
<g id="edge5_Node000004_Node000006" class="edge">
<title>Node4&#45;&gt;Node6</title>
<g id="a_edge5_Node000004_Node000006"><a xlink:title=" ">
<path fill="none" stroke="#63b8ff" d="M289.51,-116.9C312.04,-107.11 342.7,-93.79 362.54,-85.17"/>
<polygon fill="#63b8ff" stroke="#63b8ff" points="287.88,-113.79 280.1,-120.98 290.67,-120.21 287.88,-113.79"/>
</a>
</g>
</g>
<!-- Node7 -->
<g id="Node000007" class="node">
<title>Node7</title>
<g id="a_Node000007"><a xlink:href="_io_2_file_2_littlefs_2_private___8h.html" target="_top" xlink:title=" ">
<polygon fill="white" stroke="#666666" points="361,-30 260,-30 260,0 361,0 361,-30"/>
<text text-anchor="start" x="268" y="-18" font-family="Helvetica,sans-Serif" font-size="10.00">Cpl/Io/File/Littlefs</text>
<text text-anchor="middle" x="310.5" y="-7" font-family="Helvetica,sans-Serif" font-size="10.00">/Private_.h</text>
</a>
</g>
</g>
<!-- Node6&#45;&gt;Node7 -->
<g id="edge6_Node000006_Node000007" class="edge">
<title>Node6&#45;&gt;Node7</title>
<g id="a_edge6_Node000006_Node000007"><a xlink:title=" ">
<path fill="none" stroke="#63b8ff" d="M364.04,-59.5C352.9,-50.45 338.81,-39 327.87,-30.11"/>
<polygon fill="#63b8ff" stroke="#63b8ff" points="361.91,-62.28 371.88,-65.87 366.32,-56.85 361.91,-62.28"/>
</a>
</g>
</g>
<!-- Node8 -->
<g id="Node000008" class="node">
<title>Node8</title>
<g id="a_Node000008"><a xlink:href="_stream_pool_8h.html" target="_top" xlink:title=" ">
<polygon fill="white" stroke="#666666" points="527.5,-24.5 379.5,-24.5 379.5,-5.5 527.5,-5.5 527.5,-24.5"/>
<text text-anchor="middle" x="453.5" y="-12.5" font-family="Helvetica,sans-Serif" font-size="10.00">Cpl/Io/Socket/StreamPool.h</text>
</a>
</g>
</g>
<!-- Node6&#45;&gt;Node8 -->
<g id="edge7_Node000006_Node000008" class="edge">
<title>Node6&#45;&gt;Node8</title>
<g id="a_edge7_Node000006_Node000008"><a xlink:title=" ">
<path fill="none" stroke="#63b8ff" d="M401.04,-59.22C414.4,-48.21 431.95,-33.75 442.98,-24.67"/>
<polygon fill="#63b8ff" stroke="#63b8ff" points="398.47,-56.81 392.98,-65.87 402.92,-62.21 398.47,-56.81"/>
</a>
</g>
</g>
</g>
</svg>
