<?xml version="1.0" encoding="UTF-8" standalone="no"?>
<!DOCTYPE svg PUBLIC "-//W3C//DTD SVG 1.1//EN"
 "http://www.w3.org/Graphics/SVG/1.1/DTD/svg11.dtd">
<!-- Generated by graphviz version 2.43.0 (0)
 -->
<!-- Title: Cpl/Checksum/Api16.h Pages: 1 -->
<svg width="344pt" height="82pt"
 viewBox="0.00 0.00 344.00 82.00" xmlns="http://www.w3.org/2000/svg" xmlns:xlink="http://www.w3.org/1999/xlink">
<g id="graph0" class="graph" transform="scale(1 1) rotate(0) translate(4 78)">
<title>Cpl/Checksum/Api16.h</title>
<!-- Node1 -->
<g id="Node000001" class="node">
<title>Node1</title>
<g id="a_Node000001"><a xlink:title=" ">
<polygon fill="#999999" stroke="#666666" points="235,-74 109,-74 109,-55 235,-55 235,-74"/>
<text text-anchor="middle" x="172" y="-62" font-family="Helvetica,sans-Serif" font-size="10.00">Cpl/Checksum/Api16.h</text>
</a>
</g>
</g>
<!-- Node2 -->
<g id="Node000002" class="node">
<title>Node2</title>
<g id="a_Node000002"><a xlink:href="_crc16_ccitt_fast_8h.html" target="_top" xlink:title=" ">
<polygon fill="white" stroke="#666666" points="168,-19 0,-19 0,0 168,0 168,-19"/>
<text text-anchor="middle" x="84" y="-7" font-family="Helvetica,sans-Serif" font-size="10.00">Cpl/Checksum/Crc16CcittFast.h</text>
</a>
</g>
</g>
<!-- Node1&#45;&gt;Node2 -->
<g id="edge1_Node000001_Node000002" class="edge">
<title>Node1&#45;&gt;Node2</title>
<g id="a_edge1_Node000001_Node000002"><a xlink:title=" ">
<path fill="none" stroke="#63b8ff" d="M149.08,-49.7C133.05,-40.04 112.13,-27.44 98.4,-19.17"/>
<polygon fill="#63b8ff" stroke="#63b8ff" points="147.49,-52.82 157.86,-54.98 151.1,-46.83 147.49,-52.82"/>
</a>
</g>
</g>
<!-- Node3 -->
<g id="Node000003" class="node">
<title>Node3</title>
<g id="a_Node000003"><a xlink:href="_fletcher16_8h.html" target="_top" xlink:title=" ">
<polygon fill="white" stroke="#666666" points="336,-19 186,-19 186,0 336,0 336,-19"/>
<text text-anchor="middle" x="261" y="-7" font-family="Helvetica,sans-Serif" font-size="10.00">Cpl/Checksum/Fletcher16.h</text>
</a>
</g>
</g>
<!-- Node1&#45;&gt;Node3 -->
<g id="edge2_Node000001_Node000003" class="edge">
<title>Node1&#45;&gt;Node3</title>
<g id="a_edge2_Node000001_Node000003"><a xlink:title=" ">
<path fill="none" stroke="#63b8ff" d="M195.18,-49.7C211.39,-40.04 232.55,-27.44 246.44,-19.17"/>
<polygon fill="#63b8ff" stroke="#63b8ff" points="193.1,-46.86 186.3,-54.98 196.68,-52.88 193.1,-46.86"/>
</a>
</g>
</g>
</g>
</svg>
