<?xml version="1.0" encoding="UTF-8" standalone="no"?>
<!DOCTYPE svg PUBLIC "-//W3C//DTD SVG 1.1//EN"
 "http://www.w3.org/Graphics/SVG/1.1/DTD/svg11.dtd">
<!-- Generated by graphviz version 2.43.0 (0)
 -->
<!-- Title: Cpl/Itc/AsyncReturnHandler.h Pages: 1 -->
<svg width="923pt" height="390pt"
 viewBox="0.00 0.00 923.00 390.00" xmlns="http://www.w3.org/2000/svg" xmlns:xlink="http://www.w3.org/1999/xlink">
<g id="graph0" class="graph" transform="scale(1 1) rotate(0) translate(4 386)">
<title>Cpl/Itc/AsyncReturnHandler.h</title>
<!-- Node1 -->
<g id="Node000001" class="node">
<title>Node1</title>
<g id="a_Node000001"><a xlink:title=" ">
<polygon fill="#999999" stroke="#666666" points="588.5,-382 430.5,-382 430.5,-363 588.5,-363 588.5,-382"/>
<text text-anchor="middle" x="509.5" y="-370" font-family="Helvetica,sans-Serif" font-size="10.00">Cpl/Itc/AsyncReturnHandler.h</text>
</a>
</g>
</g>
<!-- Node2 -->
<g id="Node000002" class="node">
<title>Node2</title>
<g id="a_Node000002"><a xlink:href="_response_message_8h.html" target="_top" xlink:title=" ">
<polygon fill="white" stroke="#666666" points="584.5,-327 434.5,-327 434.5,-308 584.5,-308 584.5,-327"/>
<text text-anchor="middle" x="509.5" y="-315" font-family="Helvetica,sans-Serif" font-size="10.00">Cpl/Itc/ResponseMessage.h</text>
</a>
</g>
</g>
<!-- Node1&#45;&gt;Node2 -->
<g id="edge1_Node000001_Node000002" class="edge">
<title>Node1&#45;&gt;Node2</title>
<g id="a_edge1_Node000001_Node000002"><a xlink:title=" ">
<path fill="none" stroke="#63b8ff" d="M509.5,-352.66C509.5,-343.93 509.5,-333.99 509.5,-327.09"/>
<polygon fill="#63b8ff" stroke="#63b8ff" points="506,-352.75 509.5,-362.75 513,-352.75 506,-352.75"/>
</a>
</g>
</g>
<!-- Node3 -->
<g id="Node000003" class="node">
<title>Node3</title>
<g id="a_Node000003"><a xlink:href="_erase_request_8h.html" target="_top" xlink:title=" ">
<polygon fill="white" stroke="#666666" points="183,-151 0,-151 0,-132 183,-132 183,-151"/>
<text text-anchor="middle" x="91.5" y="-139" font-family="Helvetica,sans-Serif" font-size="10.00">Cpl/Dm/Persistent/EraseRequest.h</text>
</a>
</g>
</g>
<!-- Node2&#45;&gt;Node3 -->
<g id="edge2_Node000002_Node000003" class="edge">
<title>Node2&#45;&gt;Node3</title>
<g id="a_edge2_Node000002_Node000003"><a xlink:title=" ">
<path fill="none" stroke="#63b8ff" d="M432.01,-306.49C383.58,-299.23 320.23,-287.88 265.5,-272 202.88,-253.83 177.57,-261.05 129.5,-217 109.16,-198.36 98.08,-166.35 93.72,-151.09"/>
<polygon fill="#63b8ff" stroke="#63b8ff" points="431.71,-309.99 442.11,-307.98 432.73,-303.06 431.71,-309.99"/>
</a>
</g>
</g>
<!-- Node5 -->
<g id="Node000005" class="node">
<title>Node5</title>
<g id="a_Node000005"><a xlink:href="_flush_request_8h.html" target="_top" xlink:title=" ">
<polygon fill="white" stroke="#666666" points="320.5,-211.5 138.5,-211.5 138.5,-192.5 320.5,-192.5 320.5,-211.5"/>
<text text-anchor="middle" x="229.5" y="-199.5" font-family="Helvetica,sans-Serif" font-size="10.00">Cpl/Dm/Persistent/FlushRequest.h</text>
</a>
</g>
</g>
<!-- Node2&#45;&gt;Node5 -->
<g id="edge4_Node000002_Node000005" class="edge">
<title>Node2&#45;&gt;Node5</title>
<g id="a_edge4_Node000002_Node000005"><a xlink:title=" ">
<path fill="none" stroke="#63b8ff" d="M424.17,-311.11C382.61,-305.54 333.18,-294.35 293.5,-272 266.74,-256.92 244.77,-226.78 234.98,-211.83"/>
<polygon fill="#63b8ff" stroke="#63b8ff" points="423.93,-314.61 434.28,-312.38 424.8,-307.66 423.93,-314.61"/>
</a>
</g>
</g>
<!-- Node6 -->
<g id="Node000006" class="node">
<title>Node6</title>
<g id="a_Node000006"><a xlink:href="_atomic_request_8h.html" target="_top" xlink:title=" ">
<polygon fill="white" stroke="#666666" points="878.5,-272 744.5,-272 744.5,-253 878.5,-253 878.5,-272"/>
<text text-anchor="middle" x="811.5" y="-260" font-family="Helvetica,sans-Serif" font-size="10.00">Cpl/Itc/AtomicRequest.h</text>
</a>
</g>
</g>
<!-- Node2&#45;&gt;Node6 -->
<g id="edge6_Node000002_Node000006" class="edge">
<title>Node2&#45;&gt;Node6</title>
<g id="a_edge6_Node000002_Node000006"><a xlink:title=" ">
<path fill="none" stroke="#63b8ff" d="M567.92,-306.25C624.63,-296.3 709.71,-281.36 762.85,-272.04"/>
<polygon fill="#63b8ff" stroke="#63b8ff" points="567.27,-302.81 558.02,-307.98 568.48,-309.7 567.27,-302.81"/>
</a>
</g>
</g>
<!-- Node8 -->
<g id="Node000008" class="node">
<title>Node8</title>
<g id="a_Node000008"><a xlink:href="_close_request_8h.html" target="_top" xlink:title=" ">
<polygon fill="white" stroke="#666666" points="572.5,-272 446.5,-272 446.5,-253 572.5,-253 572.5,-272"/>
<text text-anchor="middle" x="509.5" y="-260" font-family="Helvetica,sans-Serif" font-size="10.00">Cpl/Itc/CloseRequest.h</text>
</a>
</g>
</g>
<!-- Node2&#45;&gt;Node8 -->
<g id="edge8_Node000002_Node000008" class="edge">
<title>Node2&#45;&gt;Node8</title>
<g id="a_edge8_Node000002_Node000008"><a xlink:title=" ">
<path fill="none" stroke="#63b8ff" d="M509.5,-297.66C509.5,-288.93 509.5,-278.99 509.5,-272.09"/>
<polygon fill="#63b8ff" stroke="#63b8ff" points="506,-297.75 509.5,-307.75 513,-297.75 506,-297.75"/>
</a>
</g>
</g>
<!-- Node15 -->
<g id="Node000015" class="node">
<title>Node15</title>
<g id="a_Node000015"><a xlink:href="_open_request_8h.html" target="_top" xlink:title=" ">
<polygon fill="white" stroke="#666666" points="428,-272 303,-272 303,-253 428,-253 428,-272"/>
<text text-anchor="middle" x="365.5" y="-260" font-family="Helvetica,sans-Serif" font-size="10.00">Cpl/Itc/OpenRequest.h</text>
</a>
</g>
</g>
<!-- Node2&#45;&gt;Node15 -->
<g id="edge16_Node000002_Node000015" class="edge">
<title>Node2&#45;&gt;Node15</title>
<g id="a_edge16_Node000002_Node000015"><a xlink:title=" ">
<path fill="none" stroke="#63b8ff" d="M476.68,-304.42C449.97,-294.59 412.9,-280.95 389.06,-272.17"/>
<polygon fill="#63b8ff" stroke="#63b8ff" points="475.77,-307.82 486.36,-307.98 478.19,-301.25 475.77,-307.82"/>
</a>
</g>
</g>
<!-- Node17 -->
<g id="Node000017" class="node">
<title>Node17</title>
<g id="a_Node000017"><a xlink:href="_requests_8h.html" target="_top" xlink:title=" ">
<polygon fill="white" stroke="#666666" points="678.5,-151 558.5,-151 558.5,-132 678.5,-132 678.5,-151"/>
<text text-anchor="middle" x="618.5" y="-139" font-family="Helvetica,sans-Serif" font-size="10.00">Cpl/MApp/Requests.h</text>
</a>
</g>
</g>
<!-- Node2&#45;&gt;Node17 -->
<g id="edge19_Node000002_Node000017" class="edge">
<title>Node2&#45;&gt;Node17</title>
<g id="a_edge19_Node000002_Node000017"><a xlink:title=" ">
<path fill="none" stroke="#63b8ff" d="M540.84,-303.57C555.11,-296.24 571.1,-285.75 581.5,-272 610.42,-233.78 616.75,-173.73 618.12,-151.32"/>
<polygon fill="#63b8ff" stroke="#63b8ff" points="539.28,-300.44 531.79,-307.94 542.32,-306.75 539.28,-300.44"/>
</a>
</g>
</g>
<!-- Node18 -->
<g id="Node000018" class="node">
<title>Node18</title>
<g id="a_Node000018"><a xlink:href="_indexed_entry_requests_8h.html" target="_top" xlink:title=" ">
<polygon fill="white" stroke="#666666" points="780,-217 629,-217 629,-187 780,-187 780,-217"/>
<text text-anchor="start" x="637" y="-205" font-family="Helvetica,sans-Serif" font-size="10.00">Cpl/Persistent/IndexedEntry</text>
<text text-anchor="middle" x="704.5" y="-194" font-family="Helvetica,sans-Serif" font-size="10.00">Requests.h</text>
</a>
</g>
</g>
<!-- Node2&#45;&gt;Node18 -->
<g id="edge21_Node000002_Node000018" class="edge">
<title>Node2&#45;&gt;Node18</title>
<g id="a_edge21_Node000002_Node000018"><a xlink:title=" ">
<path fill="none" stroke="#63b8ff" d="M544.02,-304.41C565.03,-296.44 592.05,-285.08 614.5,-272 642.4,-255.75 671.49,-232 688.79,-217.03"/>
<polygon fill="#63b8ff" stroke="#63b8ff" points="542.69,-301.17 534.53,-307.93 545.13,-307.73 542.69,-301.17"/>
</a>
</g>
</g>
<!-- Node4 -->
<g id="Node000004" class="node">
<title>Node4</title>
<g id="a_Node000004"><a xlink:href="_dm_2_persistent_2_record_8h.html" target="_top" xlink:title=" ">
<polygon fill="white" stroke="#666666" points="286.5,-24.5 136.5,-24.5 136.5,-5.5 286.5,-5.5 286.5,-24.5"/>
<text text-anchor="middle" x="211.5" y="-12.5" font-family="Helvetica,sans-Serif" font-size="10.00">Cpl/Dm/Persistent/Record.h</text>
</a>
</g>
</g>
<!-- Node3&#45;&gt;Node4 -->
<g id="edge3_Node000003_Node000004" class="edge">
<title>Node3&#45;&gt;Node4</title>
<g id="a_edge3_Node000003_Node000004"><a xlink:title=" ">
<path fill="none" stroke="#63b8ff" d="M106.84,-124.58C132.5,-97.96 183.27,-45.29 203.19,-24.62"/>
<polygon fill="#63b8ff" stroke="#63b8ff" points="104.17,-122.31 99.75,-131.94 109.21,-127.17 104.17,-122.31"/>
</a>
</g>
</g>
<!-- Node5&#45;&gt;Node4 -->
<g id="edge5_Node000005_Node000004" class="edge">
<title>Node5&#45;&gt;Node4</title>
<g id="a_edge5_Node000005_Node000004"><a xlink:title=" ">
<path fill="none" stroke="#63b8ff" d="M227.65,-181.96C223.81,-142.53 215.12,-53.22 212.36,-24.83"/>
<polygon fill="#63b8ff" stroke="#63b8ff" points="224.18,-182.46 228.63,-192.08 231.15,-181.79 224.18,-182.46"/>
</a>
</g>
</g>
<!-- Node7 -->
<g id="Node000007" class="node">
<title>Node7</title>
<g id="a_Node000007"><a xlink:href="_atomic_sync_8h.html" target="_top" xlink:title=" ">
<polygon fill="white" stroke="#666666" points="915,-211.5 798,-211.5 798,-192.5 915,-192.5 915,-211.5"/>
<text text-anchor="middle" x="856.5" y="-199.5" font-family="Helvetica,sans-Serif" font-size="10.00">Cpl/Itc/AtomicSync.h</text>
</a>
</g>
</g>
<!-- Node6&#45;&gt;Node7 -->
<g id="edge7_Node000006_Node000007" class="edge">
<title>Node6&#45;&gt;Node7</title>
<g id="a_edge7_Node000006_Node000007"><a xlink:title=" ">
<path fill="none" stroke="#63b8ff" d="M824.48,-244.63C832.77,-233.85 843.18,-220.32 849.83,-211.67"/>
<polygon fill="#63b8ff" stroke="#63b8ff" points="821.46,-242.81 818.14,-252.87 827.01,-247.08 821.46,-242.81"/>
</a>
</g>
</g>
<!-- Node9 -->
<g id="Node000009" class="node">
<title>Node9</title>
<g id="a_Node000009"><a xlink:href="_close_sync_8h.html" target="_top" xlink:title=" ">
<polygon fill="white" stroke="#666666" points="537.5,-151 427.5,-151 427.5,-132 537.5,-132 537.5,-151"/>
<text text-anchor="middle" x="482.5" y="-139" font-family="Helvetica,sans-Serif" font-size="10.00">Cpl/Itc/CloseSync.h</text>
</a>
</g>
</g>
<!-- Node8&#45;&gt;Node9 -->
<g id="edge9_Node000008_Node000009" class="edge">
<title>Node8&#45;&gt;Node9</title>
<g id="a_edge9_Node000008_Node000009"><a xlink:title=" ">
<path fill="none" stroke="#63b8ff" d="M505.27,-242.86C499.36,-216.81 488.87,-170.56 484.5,-151.3"/>
<polygon fill="#63b8ff" stroke="#63b8ff" points="501.93,-243.96 507.56,-252.94 508.76,-242.42 501.93,-243.96"/>
</a>
</g>
</g>
<!-- Node10 -->
<g id="Node000010" class="node">
<title>Node10</title>
<g id="a_Node000010"><a xlink:href="_log_sink_8h.html" target="_top" xlink:title=" ">
<polygon fill="white" stroke="#666666" points="543.5,-90.5 419.5,-90.5 419.5,-71.5 543.5,-71.5 543.5,-90.5"/>
<text text-anchor="middle" x="481.5" y="-78.5" font-family="Helvetica,sans-Serif" font-size="10.00">Cpl/Logging/LogSink.h</text>
</a>
</g>
</g>
<!-- Node9&#45;&gt;Node10 -->
<g id="edge10_Node000009_Node000010" class="edge">
<title>Node9&#45;&gt;Node10</title>
<g id="a_edge10_Node000009_Node000010"><a xlink:title=" ">
<path fill="none" stroke="#63b8ff" d="M482.18,-121.66C482,-111.24 481.79,-98.8 481.65,-90.67"/>
<polygon fill="#63b8ff" stroke="#63b8ff" points="478.68,-121.93 482.35,-131.87 485.68,-121.81 478.68,-121.93"/>
</a>
</g>
</g>
<!-- Node11 -->
<g id="Node000011" class="node">
<title>Node11</title>
<g id="a_Node000011"><a xlink:href="_manager_8h.html" target="_top" xlink:title=" ">
<polygon fill="white" stroke="#666666" points="679,-90.5 562,-90.5 562,-71.5 679,-71.5 679,-90.5"/>
<text text-anchor="middle" x="620.5" y="-78.5" font-family="Helvetica,sans-Serif" font-size="10.00">Cpl/MApp/Manager.h</text>
</a>
</g>
</g>
<!-- Node9&#45;&gt;Node11 -->
<g id="edge11_Node000009_Node000011" class="edge">
<title>Node9&#45;&gt;Node11</title>
<g id="a_edge11_Node000009_Node000011"><a xlink:title=" ">
<path fill="none" stroke="#63b8ff" d="M511.79,-128.08C538.45,-116.78 577.1,-100.4 600.41,-90.52"/>
<polygon fill="#63b8ff" stroke="#63b8ff" points="510.41,-124.87 502.57,-131.99 513.14,-131.31 510.41,-124.87"/>
</a>
</g>
</g>
<!-- Node12 -->
<g id="Node000012" class="node">
<title>Node12</title>
<g id="a_Node000012"><a xlink:href="_indexed_entry_server_8h.html" target="_top" xlink:title=" ">
<polygon fill="white" stroke="#666666" points="848,-96 697,-96 697,-66 848,-66 848,-96"/>
<text text-anchor="start" x="705" y="-84" font-family="Helvetica,sans-Serif" font-size="10.00">Cpl/Persistent/IndexedEntry</text>
<text text-anchor="middle" x="772.5" y="-73" font-family="Helvetica,sans-Serif" font-size="10.00">Server.h</text>
</a>
</g>
</g>
<!-- Node9&#45;&gt;Node12 -->
<g id="edge12_Node000009_Node000012" class="edge">
<title>Node9&#45;&gt;Node12</title>
<g id="a_edge12_Node000009_Node000012"><a xlink:title=" ">
<path fill="none" stroke="#63b8ff" d="M534.65,-129.98C581.71,-120.49 651.3,-106.45 703.06,-96.01"/>
<polygon fill="#63b8ff" stroke="#63b8ff" points="533.78,-126.59 524.67,-131.99 535.16,-133.45 533.78,-126.59"/>
</a>
</g>
</g>
<!-- Node14 -->
<g id="Node000014" class="node">
<title>Node14</title>
<g id="a_Node000014"><a xlink:href="_record_server_8h.html" target="_top" xlink:title=" ">
<polygon fill="white" stroke="#666666" points="401,-90.5 240,-90.5 240,-71.5 401,-71.5 401,-90.5"/>
<text text-anchor="middle" x="320.5" y="-78.5" font-family="Helvetica,sans-Serif" font-size="10.00">Cpl/Persistent/RecordServer.h</text>
</a>
</g>
</g>
<!-- Node9&#45;&gt;Node14 -->
<g id="edge14_Node000009_Node000014" class="edge">
<title>Node9&#45;&gt;Node14</title>
<g id="a_edge14_Node000009_Node000014"><a xlink:title=" ">
<path fill="none" stroke="#63b8ff" d="M449.34,-128.52C418.01,-117.21 371.81,-100.53 344.08,-90.52"/>
<polygon fill="#63b8ff" stroke="#63b8ff" points="448.35,-131.89 458.94,-131.99 450.73,-125.31 448.35,-131.89"/>
</a>
</g>
</g>
<!-- Node13 -->
<g id="Node000013" class="node">
<title>Node13</title>
<g id="a_Node000013"><a xlink:href="_log_8h.html" target="_top" xlink:title=" ">
<polygon fill="white" stroke="#666666" points="826,-30 719,-30 719,0 826,0 826,-30"/>
<text text-anchor="start" x="727" y="-18" font-family="Helvetica,sans-Serif" font-size="10.00">Cpl/Logging/TShell</text>
<text text-anchor="middle" x="772.5" y="-7" font-family="Helvetica,sans-Serif" font-size="10.00">/Log.h</text>
</a>
</g>
</g>
<!-- Node12&#45;&gt;Node13 -->
<g id="edge13_Node000012_Node000013" class="edge">
<title>Node12&#45;&gt;Node13</title>
<g id="a_edge13_Node000012_Node000013"><a xlink:title=" ">
<path fill="none" stroke="#63b8ff" d="M772.5,-55.54C772.5,-46.96 772.5,-37.61 772.5,-30.16"/>
<polygon fill="#63b8ff" stroke="#63b8ff" points="769,-55.8 772.5,-65.8 776,-55.8 769,-55.8"/>
</a>
</g>
</g>
<!-- Node14&#45;&gt;Node4 -->
<g id="edge15_Node000014_Node000004" class="edge">
<title>Node14&#45;&gt;Node4</title>
<g id="a_edge15_Node000014_Node000004"><a xlink:title=" ">
<path fill="none" stroke="#63b8ff" d="M296.98,-66.19C275.53,-53.59 244.49,-35.37 226.32,-24.7"/>
<polygon fill="#63b8ff" stroke="#63b8ff" points="295.4,-69.32 305.8,-71.37 298.95,-63.29 295.4,-69.32"/>
</a>
</g>
</g>
<!-- Node16 -->
<g id="Node000016" class="node">
<title>Node16</title>
<g id="a_Node000016"><a xlink:href="_open_sync_8h.html" target="_top" xlink:title=" ">
<polygon fill="white" stroke="#666666" points="451.5,-211.5 343.5,-211.5 343.5,-192.5 451.5,-192.5 451.5,-211.5"/>
<text text-anchor="middle" x="397.5" y="-199.5" font-family="Helvetica,sans-Serif" font-size="10.00">Cpl/Itc/OpenSync.h</text>
</a>
</g>
</g>
<!-- Node15&#45;&gt;Node16 -->
<g id="edge17_Node000015_Node000016" class="edge">
<title>Node15&#45;&gt;Node16</title>
<g id="a_edge17_Node000015_Node000016"><a xlink:title=" ">
<path fill="none" stroke="#63b8ff" d="M375.08,-243.98C380.92,-233.31 388.12,-220.15 392.76,-211.67"/>
<polygon fill="#63b8ff" stroke="#63b8ff" points="371.95,-242.42 370.22,-252.87 378.09,-245.77 371.95,-242.42"/>
</a>
</g>
</g>
<!-- Node16&#45;&gt;Node9 -->
<g id="edge18_Node000016_Node000009" class="edge">
<title>Node16&#45;&gt;Node9</title>
<g id="a_edge18_Node000016_Node000009"><a xlink:title=" ">
<path fill="none" stroke="#63b8ff" d="M418.34,-186.66C434.49,-175.55 456.33,-160.51 469.91,-151.17"/>
<polygon fill="#63b8ff" stroke="#63b8ff" points="416.3,-183.82 410.04,-192.37 420.26,-189.58 416.3,-183.82"/>
</a>
</g>
</g>
<!-- Node17&#45;&gt;Node11 -->
<g id="edge20_Node000017_Node000011" class="edge">
<title>Node17&#45;&gt;Node11</title>
<g id="a_edge20_Node000017_Node000011"><a xlink:title=" ">
<path fill="none" stroke="#63b8ff" d="M619.14,-121.66C619.5,-111.24 619.93,-98.8 620.2,-90.67"/>
<polygon fill="#63b8ff" stroke="#63b8ff" points="615.64,-121.75 618.8,-131.87 622.63,-121.99 615.64,-121.75"/>
</a>
</g>
</g>
<!-- Node18&#45;&gt;Node12 -->
<g id="edge22_Node000018_Node000012" class="edge">
<title>Node18&#45;&gt;Node12</title>
<g id="a_edge22_Node000018_Node000012"><a xlink:title=" ">
<path fill="none" stroke="#63b8ff" d="M717.65,-177.99C731.51,-153.74 752.9,-116.31 764.44,-96.1"/>
<polygon fill="#63b8ff" stroke="#63b8ff" points="714.49,-176.46 712.57,-186.88 720.57,-179.94 714.49,-176.46"/>
</a>
</g>
</g>
</g>
</svg>
