<?xml version="1.0" encoding="UTF-8" standalone="no"?>
<!DOCTYPE svg PUBLIC "-//W3C//DTD SVG 1.1//EN"
 "http://www.w3.org/Graphics/SVG/1.1/DTD/svg11.dtd">
<!-- Generated by graphviz version 2.43.0 (0)
 -->
<!-- Title: Cpl/Itc/AtomicSync.h Pages: 1 -->
<svg width="593pt" height="412pt"
 viewBox="0.00 0.00 593.00 412.00" xmlns="http://www.w3.org/2000/svg" xmlns:xlink="http://www.w3.org/1999/xlink">
<g id="graph0" class="graph" transform="scale(1 1) rotate(0) translate(4 408)">
<title>Cpl/Itc/AtomicSync.h</title>
<!-- Node1 -->
<g id="Node000001" class="node">
<title>Node1</title>
<g id="a_Node000001"><a xlink:title=" ">
<polygon fill="#999999" stroke="#666666" points="325.5,-404 208.5,-404 208.5,-385 325.5,-385 325.5,-404"/>
<text text-anchor="middle" x="267" y="-392" font-family="Helvetica,sans-Serif" font-size="10.00">Cpl/Itc/AtomicSync.h</text>
</a>
</g>
</g>
<!-- Node2 -->
<g id="Node000002" class="node">
<title>Node2</title>
<g id="a_Node000002"><a xlink:href="_atomic_api_8h.html" target="_top" xlink:title=" ">
<polygon fill="white" stroke="#666666" points="153,-349 43,-349 43,-330 153,-330 153,-349"/>
<text text-anchor="middle" x="98" y="-337" font-family="Helvetica,sans-Serif" font-size="10.00">Cpl/Itc/AtomicApi.h</text>
</a>
</g>
</g>
<!-- Node1&#45;&gt;Node2 -->
<g id="edge1_Node000001_Node000002" class="edge">
<title>Node1&#45;&gt;Node2</title>
<g id="a_edge1_Node000001_Node000002"><a xlink:title=" ">
<path fill="none" stroke="#63b8ff" d="M239.85,-384.98C211.47,-376.09 166.77,-362.07 135.14,-352.15"/>
<polygon fill="#63b8ff" stroke="#63b8ff" points="135.95,-348.73 125.37,-349.08 133.86,-355.41 135.95,-348.73"/>
</a>
</g>
</g>
<!-- Node4 -->
<g id="Node000004" class="node">
<title>Node4</title>
<g id="a_Node000004"><a xlink:href="_atomic_request_8h.html" target="_top" xlink:title=" ">
<polygon fill="white" stroke="#666666" points="334,-349 200,-349 200,-330 334,-330 334,-349"/>
<text text-anchor="middle" x="267" y="-337" font-family="Helvetica,sans-Serif" font-size="10.00">Cpl/Itc/AtomicRequest.h</text>
</a>
</g>
</g>
<!-- Node1&#45;&gt;Node4 -->
<g id="edge3_Node000001_Node000004" class="edge">
<title>Node1&#45;&gt;Node4</title>
<g id="a_edge3_Node000001_Node000004"><a xlink:title=" ">
<path fill="none" stroke="#63b8ff" d="M267,-384.75C267,-377.8 267,-367.85 267,-359.13"/>
<polygon fill="#63b8ff" stroke="#63b8ff" points="270.5,-359.09 267,-349.09 263.5,-359.09 270.5,-359.09"/>
</a>
</g>
</g>
<!-- Node14 -->
<g id="Node000014" class="node">
<title>Node14</title>
<g id="a_Node000014"><a xlink:href="_sync_return_handler_8h.html" target="_top" xlink:title=" ">
<polygon fill="white" stroke="#666666" points="558,-294 406,-294 406,-275 558,-275 558,-294"/>
<text text-anchor="middle" x="482" y="-282" font-family="Helvetica,sans-Serif" font-size="10.00">Cpl/Itc/SyncReturnHandler.h</text>
</a>
</g>
</g>
<!-- Node1&#45;&gt;Node14 -->
<g id="edge23_Node000001_Node000014" class="edge">
<title>Node1&#45;&gt;Node14</title>
<g id="a_edge23_Node000001_Node000014"><a xlink:title=" ">
<path fill="none" stroke="#63b8ff" d="M284.23,-384.84C321.83,-365.96 411.42,-320.96 455.95,-298.59"/>
<polygon fill="#63b8ff" stroke="#63b8ff" points="457.62,-301.66 464.99,-294.05 454.48,-295.41 457.62,-301.66"/>
</a>
</g>
</g>
<!-- Node3 -->
<g id="Node000003" class="node">
<title>Node3</title>
<g id="a_Node000003"><a xlink:href="_atomic_callback_8h.html" target="_top" xlink:title=" ">
<polygon fill="white" stroke="#666666" points="136,-294 0,-294 0,-275 136,-275 136,-294"/>
<text text-anchor="middle" x="68" y="-282" font-family="Helvetica,sans-Serif" font-size="10.00">Cpl/Itc/AtomicCallback.h</text>
</a>
</g>
</g>
<!-- Node2&#45;&gt;Node3 -->
<g id="edge2_Node000002_Node000003" class="edge">
<title>Node2&#45;&gt;Node3</title>
<g id="a_edge2_Node000002_Node000003"><a xlink:title=" ">
<path fill="none" stroke="#63b8ff" d="M93.05,-329.75C88.94,-322.49 82.97,-311.95 77.9,-302.98"/>
<polygon fill="#63b8ff" stroke="#63b8ff" points="80.83,-301.07 72.86,-294.09 74.74,-304.52 80.83,-301.07"/>
</a>
</g>
</g>
<!-- Node4&#45;&gt;Node3 -->
<g id="edge18_Node000004_Node000003" class="edge">
<title>Node4&#45;&gt;Node3</title>
<g id="a_edge18_Node000004_Node000003"><a xlink:title=" ">
<path fill="none" stroke="#63b8ff" d="M235.03,-329.98C201.18,-320.97 147.6,-306.7 110.29,-296.76"/>
<polygon fill="#63b8ff" stroke="#63b8ff" points="110.79,-293.27 100.22,-294.08 108.99,-300.04 110.79,-293.27"/>
</a>
</g>
</g>
<!-- Node5 -->
<g id="Node000005" class="node">
<title>Node5</title>
<g id="a_Node000005"><a xlink:href="_request_message_8h.html" target="_top" xlink:title=" ">
<polygon fill="white" stroke="#666666" points="440.5,-239 297.5,-239 297.5,-220 440.5,-220 440.5,-239"/>
<text text-anchor="middle" x="369" y="-227" font-family="Helvetica,sans-Serif" font-size="10.00">Cpl/Itc/RequestMessage.h</text>
</a>
</g>
</g>
<!-- Node4&#45;&gt;Node5 -->
<g id="edge4_Node000004_Node000005" class="edge">
<title>Node4&#45;&gt;Node5</title>
<g id="a_edge4_Node000004_Node000005"><a xlink:title=" ">
<path fill="none" stroke="#63b8ff" d="M295.36,-329.99C313.73,-323.09 336.78,-311.58 351,-294 361.24,-281.33 365.66,-263.15 367.56,-249.48"/>
<polygon fill="#63b8ff" stroke="#63b8ff" points="371.07,-249.6 368.64,-239.29 364.11,-248.86 371.07,-249.6"/>
</a>
</g>
</g>
<!-- Node10 -->
<g id="Node000010" class="node">
<title>Node10</title>
<g id="a_Node000010"><a xlink:href="_s_a_p_8h.html" target="_top" xlink:title=" ">
<polygon fill="white" stroke="#666666" points="148.5,-184 71.5,-184 71.5,-165 148.5,-165 148.5,-184"/>
<text text-anchor="middle" x="110" y="-172" font-family="Helvetica,sans-Serif" font-size="10.00">Cpl/Itc/SAP.h</text>
</a>
</g>
</g>
<!-- Node4&#45;&gt;Node10 -->
<g id="edge17_Node000004_Node000010" class="edge">
<title>Node4&#45;&gt;Node10</title>
<g id="a_edge17_Node000004_Node000010"><a xlink:title=" ">
<path fill="none" stroke="#63b8ff" d="M243.17,-329.89C225.09,-322.47 200.46,-310.36 183,-294 151.53,-264.51 128.45,-218.53 117.37,-193.4"/>
<polygon fill="#63b8ff" stroke="#63b8ff" points="120.5,-191.83 113.36,-184.01 114.07,-194.58 120.5,-191.83"/>
</a>
</g>
</g>
<!-- Node12 -->
<g id="Node000012" class="node">
<title>Node12</title>
<g id="a_Node000012"><a xlink:href="_response_message_8h.html" target="_top" xlink:title=" ">
<polygon fill="white" stroke="#666666" points="342,-294 192,-294 192,-275 342,-275 342,-294"/>
<text text-anchor="middle" x="267" y="-282" font-family="Helvetica,sans-Serif" font-size="10.00">Cpl/Itc/ResponseMessage.h</text>
</a>
</g>
</g>
<!-- Node4&#45;&gt;Node12 -->
<g id="edge12_Node000004_Node000012" class="edge">
<title>Node4&#45;&gt;Node12</title>
<g id="a_edge12_Node000004_Node000012"><a xlink:title=" ">
<path fill="none" stroke="#63b8ff" d="M267,-329.75C267,-322.8 267,-312.85 267,-304.13"/>
<polygon fill="#63b8ff" stroke="#63b8ff" points="270.5,-304.09 267,-294.09 263.5,-304.09 270.5,-304.09"/>
</a>
</g>
</g>
<!-- Node4&#45;&gt;Node14 -->
<g id="edge19_Node000004_Node000014" class="edge">
<title>Node4&#45;&gt;Node14</title>
<g id="a_edge19_Node000004_Node000014"><a xlink:title=" ">
<path fill="none" stroke="#63b8ff" d="M301.54,-329.98C338.42,-320.89 396.99,-306.46 437.34,-296.51"/>
<polygon fill="#63b8ff" stroke="#63b8ff" points="438.31,-299.87 447.19,-294.08 436.64,-293.08 438.31,-299.87"/>
</a>
</g>
</g>
<!-- Node6 -->
<g id="Node000006" class="node">
<title>Node6</title>
<g id="a_Node000006"><a xlink:href="_service_message_8h.html" target="_top" xlink:title=" ">
<polygon fill="white" stroke="#666666" points="482.5,-184 343.5,-184 343.5,-165 482.5,-165 482.5,-184"/>
<text text-anchor="middle" x="413" y="-172" font-family="Helvetica,sans-Serif" font-size="10.00">Cpl/Itc/ServiceMessage.h</text>
</a>
</g>
</g>
<!-- Node5&#45;&gt;Node6 -->
<g id="edge5_Node000005_Node000006" class="edge">
<title>Node5&#45;&gt;Node6</title>
<g id="a_edge5_Node000005_Node000006"><a xlink:title=" ">
<path fill="none" stroke="#63b8ff" d="M376.27,-219.75C382.54,-212.18 391.79,-201.05 399.43,-191.84"/>
<polygon fill="#63b8ff" stroke="#63b8ff" points="402.17,-194.02 405.87,-184.09 396.79,-189.55 402.17,-194.02"/>
</a>
</g>
</g>
<!-- Node5&#45;&gt;Node10 -->
<g id="edge9_Node000005_Node000010" class="edge">
<title>Node5&#45;&gt;Node10</title>
<g id="a_edge9_Node000005_Node000010"><a xlink:title=" ">
<path fill="none" stroke="#63b8ff" d="M327.39,-219.98C281.33,-210.56 207.19,-195.39 158.53,-185.43"/>
<polygon fill="#63b8ff" stroke="#63b8ff" points="159.05,-181.96 148.55,-183.39 157.65,-188.82 159.05,-181.96"/>
</a>
</g>
</g>
<!-- Node7 -->
<g id="Node000007" class="node">
<title>Node7</title>
<g id="a_Node000007"><a xlink:href="_message_8h.html" target="_top" xlink:title=" ">
<polygon fill="white" stroke="#666666" points="393.5,-74 290.5,-74 290.5,-55 393.5,-55 393.5,-74"/>
<text text-anchor="middle" x="342" y="-62" font-family="Helvetica,sans-Serif" font-size="10.00">Cpl/Itc/Message.h</text>
</a>
</g>
</g>
<!-- Node6&#45;&gt;Node7 -->
<g id="edge6_Node000006_Node000007" class="edge">
<title>Node6&#45;&gt;Node7</title>
<g id="a_edge6_Node000006_Node000007"><a xlink:title=" ">
<path fill="none" stroke="#63b8ff" d="M399.43,-164.84C387.92,-156.83 371.78,-143.95 362,-129 353.1,-115.4 347.95,-97.58 345.1,-84.28"/>
<polygon fill="#63b8ff" stroke="#63b8ff" points="348.53,-83.54 343.23,-74.36 341.65,-84.84 348.53,-83.54"/>
</a>
</g>
</g>
<!-- Node9 -->
<g id="Node000009" class="node">
<title>Node9</title>
<g id="a_Node000009"><a xlink:href="_return_handler_8h.html" target="_top" xlink:title=" ">
<polygon fill="white" stroke="#666666" points="499.5,-129 370.5,-129 370.5,-110 499.5,-110 499.5,-129"/>
<text text-anchor="middle" x="435" y="-117" font-family="Helvetica,sans-Serif" font-size="10.00">Cpl/Itc/ReturnHandler.h</text>
</a>
</g>
</g>
<!-- Node6&#45;&gt;Node9 -->
<g id="edge8_Node000006_Node000009" class="edge">
<title>Node6&#45;&gt;Node9</title>
<g id="a_edge8_Node000006_Node000009"><a xlink:title=" ">
<path fill="none" stroke="#63b8ff" d="M416.63,-164.75C419.58,-157.65 423.83,-147.4 427.51,-138.56"/>
<polygon fill="#63b8ff" stroke="#63b8ff" points="430.83,-139.67 431.43,-129.09 424.37,-136.98 430.83,-139.67"/>
</a>
</g>
</g>
<!-- Node8 -->
<g id="Node000008" class="node">
<title>Node8</title>
<g id="a_Node000008"><a xlink:href="_item_8h.html" target="_top" xlink:title=" ">
<polygon fill="white" stroke="#666666" points="466.5,-19 349.5,-19 349.5,0 466.5,0 466.5,-19"/>
<text text-anchor="middle" x="408" y="-7" font-family="Helvetica,sans-Serif" font-size="10.00">Cpl/Container/Item.h</text>
</a>
</g>
</g>
<!-- Node7&#45;&gt;Node8 -->
<g id="edge7_Node000007_Node000008" class="edge">
<title>Node7&#45;&gt;Node8</title>
<g id="a_edge7_Node000007_Node000008"><a xlink:title=" ">
<path fill="none" stroke="#63b8ff" d="M352.6,-54.98C362.46,-47.07 377.35,-35.11 389.22,-25.58"/>
<polygon fill="#63b8ff" stroke="#63b8ff" points="391.6,-28.16 397.2,-19.17 387.21,-22.7 391.6,-28.16"/>
</a>
</g>
</g>
<!-- Node11 -->
<g id="Node000011" class="node">
<title>Node11</title>
<g id="a_Node000011"><a xlink:href="_post_api_8h.html" target="_top" xlink:title=" ">
<polygon fill="white" stroke="#666666" points="294,-129 198,-129 198,-110 294,-110 294,-129"/>
<text text-anchor="middle" x="246" y="-117" font-family="Helvetica,sans-Serif" font-size="10.00">Cpl/Itc/PostApi.h</text>
</a>
</g>
</g>
<!-- Node10&#45;&gt;Node11 -->
<g id="edge10_Node000010_Node000011" class="edge">
<title>Node10&#45;&gt;Node11</title>
<g id="a_edge10_Node000010_Node000011"><a xlink:title=" ">
<path fill="none" stroke="#63b8ff" d="M131.85,-164.98C154.12,-156.3 188.9,-142.75 214.22,-132.88"/>
<polygon fill="#63b8ff" stroke="#63b8ff" points="215.71,-136.06 223.75,-129.17 213.16,-129.54 215.71,-136.06"/>
</a>
</g>
</g>
<!-- Node11&#45;&gt;Node7 -->
<g id="edge11_Node000011_Node000007" class="edge">
<title>Node11&#45;&gt;Node7</title>
<g id="a_edge11_Node000011_Node000007"><a xlink:title=" ">
<path fill="none" stroke="#63b8ff" d="M261.42,-109.98C276.45,-101.69 299.54,-88.94 317.16,-79.22"/>
<polygon fill="#63b8ff" stroke="#63b8ff" points="319.23,-82.07 326.3,-74.17 315.85,-75.94 319.23,-82.07"/>
</a>
</g>
</g>
<!-- Node12&#45;&gt;Node5 -->
<g id="edge16_Node000012_Node000005" class="edge">
<title>Node12&#45;&gt;Node5</title>
<g id="a_edge16_Node000012_Node000005"><a xlink:title=" ">
<path fill="none" stroke="#63b8ff" d="M283.39,-274.98C299.57,-266.57 324.57,-253.59 343.38,-243.81"/>
<polygon fill="#63b8ff" stroke="#63b8ff" points="345.05,-246.89 352.31,-239.17 341.83,-240.68 345.05,-246.89"/>
</a>
</g>
</g>
<!-- Node13 -->
<g id="Node000013" class="node">
<title>Node13</title>
<g id="a_Node000013"><a xlink:href="_async_return_handler_8h.html" target="_top" xlink:title=" ">
<polygon fill="white" stroke="#666666" points="325,-184 167,-184 167,-165 325,-165 325,-184"/>
<text text-anchor="middle" x="246" y="-172" font-family="Helvetica,sans-Serif" font-size="10.00">Cpl/Itc/AsyncReturnHandler.h</text>
</a>
</g>
</g>
<!-- Node12&#45;&gt;Node13 -->
<g id="edge13_Node000012_Node000013" class="edge">
<title>Node12&#45;&gt;Node13</title>
<g id="a_edge13_Node000012_Node000013"><a xlink:title=" ">
<path fill="none" stroke="#63b8ff" d="M265.28,-274.66C261.88,-257.17 254.23,-217.8 249.65,-194.27"/>
<polygon fill="#63b8ff" stroke="#63b8ff" points="253.03,-193.31 247.68,-184.16 246.16,-194.64 253.03,-193.31"/>
</a>
</g>
</g>
<!-- Node13&#45;&gt;Node9 -->
<g id="edge14_Node000013_Node000009" class="edge">
<title>Node13&#45;&gt;Node9</title>
<g id="a_edge14_Node000013_Node000009"><a xlink:title=" ">
<path fill="none" stroke="#63b8ff" d="M276.37,-164.98C308.37,-156.01 358.96,-141.82 394.38,-131.89"/>
<polygon fill="#63b8ff" stroke="#63b8ff" points="395.71,-135.15 404.4,-129.08 393.82,-128.41 395.71,-135.15"/>
</a>
</g>
</g>
<!-- Node13&#45;&gt;Node11 -->
<g id="edge15_Node000013_Node000011" class="edge">
<title>Node13&#45;&gt;Node11</title>
<g id="a_edge15_Node000013_Node000011"><a xlink:title=" ">
<path fill="none" stroke="#63b8ff" d="M246,-164.75C246,-157.8 246,-147.85 246,-139.13"/>
<polygon fill="#63b8ff" stroke="#63b8ff" points="249.5,-139.09 246,-129.09 242.5,-139.09 249.5,-139.09"/>
</a>
</g>
</g>
<!-- Node14&#45;&gt;Node9 -->
<g id="edge20_Node000014_Node000009" class="edge">
<title>Node14&#45;&gt;Node9</title>
<g id="a_edge20_Node000014_Node000009"><a xlink:title=" ">
<path fill="none" stroke="#63b8ff" d="M485.59,-274.91C493.49,-254.59 510.29,-202.48 492,-165 485.7,-152.09 473.65,-141.83 462.24,-134.43"/>
<polygon fill="#63b8ff" stroke="#63b8ff" points="463.73,-131.25 453.35,-129.12 460.14,-137.25 463.73,-131.25"/>
</a>
</g>
</g>
<!-- Node15 -->
<g id="Node000015" class="node">
<title>Node15</title>
<g id="a_Node000015"><a xlink:href="_signable_8h.html" target="_top" xlink:title=" ">
<polygon fill="white" stroke="#666666" points="585,-74 459,-74 459,-55 585,-55 585,-74"/>
<text text-anchor="middle" x="522" y="-62" font-family="Helvetica,sans-Serif" font-size="10.00">Cpl/System/Signable.h</text>
</a>
</g>
</g>
<!-- Node14&#45;&gt;Node15 -->
<g id="edge21_Node000014_Node000015" class="edge">
<title>Node14&#45;&gt;Node15</title>
<g id="a_edge21_Node000014_Node000015"><a xlink:title=" ">
<path fill="none" stroke="#63b8ff" d="M489.74,-274.68C496.69,-266.19 506.47,-252.65 511,-239 528.87,-185.17 526.43,-116.88 523.87,-84.36"/>
<polygon fill="#63b8ff" stroke="#63b8ff" points="527.33,-83.75 522.96,-74.1 520.36,-84.37 527.33,-83.75"/>
</a>
</g>
</g>
<!-- Node15&#45;&gt;Node8 -->
<g id="edge22_Node000015_Node000008" class="edge">
<title>Node15&#45;&gt;Node8</title>
<g id="a_edge22_Node000015_Node000008"><a xlink:title=" ">
<path fill="none" stroke="#63b8ff" d="M503.68,-54.98C485.34,-46.46 456.89,-33.23 435.77,-23.41"/>
<polygon fill="#63b8ff" stroke="#63b8ff" points="437.19,-20.21 426.65,-19.17 434.24,-26.56 437.19,-20.21"/>
</a>
</g>
</g>
</g>
</svg>
