<?xml version="1.0" encoding="UTF-8" standalone="no"?>
<!DOCTYPE svg PUBLIC "-//W3C//DTD SVG 1.1//EN"
 "http://www.w3.org/Graphics/SVG/1.1/DTD/svg11.dtd">
<!-- Generated by graphviz version 2.43.0 (0)
 -->
<!-- Title: Cpl/System/BareMetal/Thread.h Pages: 1 -->
<svg width="978pt" height="423pt"
 viewBox="0.00 0.00 978.00 423.00" xmlns="http://www.w3.org/2000/svg" xmlns:xlink="http://www.w3.org/1999/xlink">
<g id="graph0" class="graph" transform="scale(1 1) rotate(0) translate(4 419)">
<title>Cpl/System/BareMetal/Thread.h</title>
<!-- Node1 -->
<g id="Node000001" class="node">
<title>Node1</title>
<g id="a_Node000001"><a xlink:title=" ">
<polygon fill="#999999" stroke="#666666" points="522,-415 397,-415 397,-385 522,-385 522,-415"/>
<text text-anchor="start" x="405" y="-403" font-family="Helvetica,sans-Serif" font-size="10.00">Cpl/System/BareMetal</text>
<text text-anchor="middle" x="459.5" y="-392" font-family="Helvetica,sans-Serif" font-size="10.00">/Thread.h</text>
</a>
</g>
</g>
<!-- Node2 -->
<g id="Node000002" class="node">
<title>Node2</title>
<g id="a_Node000002"><a xlink:href="_thread_8h.html" target="_top" xlink:title=" ">
<polygon fill="white" stroke="#666666" points="713.5,-349 595.5,-349 595.5,-330 713.5,-330 713.5,-349"/>
<text text-anchor="middle" x="654.5" y="-337" font-family="Helvetica,sans-Serif" font-size="10.00">Cpl/System/Thread.h</text>
</a>
</g>
</g>
<!-- Node1&#45;&gt;Node2 -->
<g id="edge1_Node000001_Node000002" class="edge">
<title>Node1&#45;&gt;Node2</title>
<g id="a_edge1_Node000001_Node000002"><a xlink:title=" ">
<path fill="none" stroke="#63b8ff" d="M506.21,-384.99C539.86,-374.89 584.71,-361.44 616.25,-351.98"/>
<polygon fill="#63b8ff" stroke="#63b8ff" points="617.42,-355.28 625.99,-349.05 615.4,-348.57 617.42,-355.28"/>
</a>
</g>
</g>
<!-- Node9 -->
<g id="Node000009" class="node">
<title>Node9</title>
<g id="a_Node000009"><a xlink:href="_semaphore_8h.html" target="_top" xlink:title=" ">
<polygon fill="white" stroke="#666666" points="529.5,-349 389.5,-349 389.5,-330 529.5,-330 529.5,-349"/>
<text text-anchor="middle" x="459.5" y="-337" font-family="Helvetica,sans-Serif" font-size="10.00">Cpl/System/Semaphore.h</text>
</a>
</g>
</g>
<!-- Node1&#45;&gt;Node9 -->
<g id="edge8_Node000001_Node000009" class="edge">
<title>Node1&#45;&gt;Node9</title>
<g id="a_edge8_Node000001_Node000009"><a xlink:title=" ">
<path fill="none" stroke="#63b8ff" d="M459.5,-384.84C459.5,-377.21 459.5,-367.7 459.5,-359.45"/>
<polygon fill="#63b8ff" stroke="#63b8ff" points="463,-359.27 459.5,-349.27 456,-359.27 463,-359.27"/>
</a>
</g>
</g>
<!-- Node10 -->
<g id="Node000010" class="node">
<title>Node10</title>
<g id="a_Node000010"><a xlink:href="_f_string_8h.html" target="_top" xlink:title=" ">
<polygon fill="white" stroke="#666666" points="361,-349 260,-349 260,-330 361,-330 361,-349"/>
<text text-anchor="middle" x="310.5" y="-337" font-family="Helvetica,sans-Serif" font-size="10.00">Cpl/Text/FString.h</text>
</a>
</g>
</g>
<!-- Node1&#45;&gt;Node10 -->
<g id="edge11_Node000001_Node000010" class="edge">
<title>Node1&#45;&gt;Node10</title>
<g id="a_edge11_Node000001_Node000010"><a xlink:title=" ">
<path fill="none" stroke="#63b8ff" d="M423.81,-384.99C398.84,-375.18 365.8,-362.21 341.84,-352.81"/>
<polygon fill="#63b8ff" stroke="#63b8ff" points="343.09,-349.54 332.5,-349.14 340.53,-356.05 343.09,-349.54"/>
</a>
</g>
</g>
<!-- Node3 -->
<g id="Node000003" class="node">
<title>Node3</title>
<g id="a_Node000003"><a xlink:title=" ">
<polygon fill="#e0e0e0" stroke="#999999" points="379,-74 294,-74 294,-55 379,-55 379,-74"/>
<text text-anchor="middle" x="336.5" y="-62" font-family="Helvetica,sans-Serif" font-size="10.00">colony_map.h</text>
</a>
</g>
</g>
<!-- Node2&#45;&gt;Node3 -->
<g id="edge2_Node000002_Node000003" class="edge">
<title>Node2&#45;&gt;Node3</title>
<g id="a_edge2_Node000002_Node000003"><a xlink:title=" ">
<path fill="none" stroke="#63b8ff" d="M647.91,-329.8C635.19,-312.1 608.5,-270.24 608.5,-230.5 608.5,-230.5 608.5,-230.5 608.5,-173.5 608.5,-126.88 468.73,-91.6 389.58,-75.36"/>
<polygon fill="#63b8ff" stroke="#63b8ff" points="389.79,-71.83 379.3,-73.29 388.41,-78.7 389.79,-71.83"/>
</a>
</g>
</g>
<!-- Node4 -->
<g id="Node000004" class="node">
<title>Node4</title>
<g id="a_Node000004"><a xlink:href="_runnable_8h.html" target="_top" xlink:title=" ">
<polygon fill="white" stroke="#666666" points="766.5,-294 636.5,-294 636.5,-275 766.5,-275 766.5,-294"/>
<text text-anchor="middle" x="701.5" y="-282" font-family="Helvetica,sans-Serif" font-size="10.00">Cpl/System/Runnable.h</text>
</a>
</g>
</g>
<!-- Node2&#45;&gt;Node4 -->
<g id="edge3_Node000002_Node000004" class="edge">
<title>Node2&#45;&gt;Node4</title>
<g id="a_edge3_Node000002_Node000004"><a xlink:title=" ">
<path fill="none" stroke="#63b8ff" d="M662.26,-329.75C668.97,-322.18 678.84,-311.05 687.01,-301.84"/>
<polygon fill="#63b8ff" stroke="#63b8ff" points="689.87,-303.89 693.88,-294.09 684.63,-299.25 689.87,-303.89"/>
</a>
</g>
</g>
<!-- Node5 -->
<g id="Node000005" class="node">
<title>Node5</title>
<g id="a_Node000005"><a xlink:href="_signable_8h.html" target="_top" xlink:title=" ">
<polygon fill="white" stroke="#666666" points="580.5,-294 454.5,-294 454.5,-275 580.5,-275 580.5,-294"/>
<text text-anchor="middle" x="517.5" y="-282" font-family="Helvetica,sans-Serif" font-size="10.00">Cpl/System/Signable.h</text>
</a>
</g>
</g>
<!-- Node2&#45;&gt;Node5 -->
<g id="edge4_Node000002_Node000005" class="edge">
<title>Node2&#45;&gt;Node5</title>
<g id="a_edge4_Node000002_Node000005"><a xlink:title=" ">
<path fill="none" stroke="#63b8ff" d="M632.49,-329.98C610.05,-321.3 575.02,-307.75 549.51,-297.88"/>
<polygon fill="#63b8ff" stroke="#63b8ff" points="550.5,-294.51 539.91,-294.17 547.98,-301.04 550.5,-294.51"/>
</a>
</g>
</g>
<!-- Node7 -->
<g id="Node000007" class="node">
<title>Node7</title>
<g id="a_Node000007"><a xlink:href="_traverser_8h.html" target="_top" xlink:title=" ">
<polygon fill="white" stroke="#666666" points="898.5,-294 784.5,-294 784.5,-275 898.5,-275 898.5,-294"/>
<text text-anchor="middle" x="841.5" y="-282" font-family="Helvetica,sans-Serif" font-size="10.00">Cpl/Type/Traverser.h</text>
</a>
</g>
</g>
<!-- Node2&#45;&gt;Node7 -->
<g id="edge6_Node000002_Node000007" class="edge">
<title>Node2&#45;&gt;Node7</title>
<g id="a_edge6_Node000002_Node000007"><a xlink:title=" ">
<path fill="none" stroke="#63b8ff" d="M684.54,-329.98C716.21,-321.01 766.27,-306.82 801.31,-296.89"/>
<polygon fill="#63b8ff" stroke="#63b8ff" points="802.55,-300.18 811.22,-294.08 800.64,-293.44 802.55,-300.18"/>
</a>
</g>
</g>
<!-- Node8 -->
<g id="Node000008" class="node">
<title>Node8</title>
<g id="a_Node000008"><a xlink:title=" ">
<polygon fill="#e0e0e0" stroke="#999999" points="970,-294 917,-294 917,-275 970,-275 970,-294"/>
<text text-anchor="middle" x="943.5" y="-282" font-family="Helvetica,sans-Serif" font-size="10.00">stdlib.h</text>
</a>
</g>
</g>
<!-- Node2&#45;&gt;Node8 -->
<g id="edge7_Node000002_Node000008" class="edge">
<title>Node2&#45;&gt;Node8</title>
<g id="a_edge7_Node000002_Node000008"><a xlink:title=" ">
<path fill="none" stroke="#63b8ff" d="M708.47,-329.94C757.6,-321.93 832.37,-309.22 906.78,-294.04"/>
<polygon fill="#63b8ff" stroke="#63b8ff" points="907.71,-297.43 916.8,-291.98 906.3,-290.57 907.71,-297.43"/>
</a>
</g>
</g>
<!-- Node6 -->
<g id="Node000006" class="node">
<title>Node6</title>
<g id="a_Node000006"><a xlink:href="_item_8h.html" target="_top" xlink:title=" ">
<polygon fill="white" stroke="#666666" points="576,-239 459,-239 459,-220 576,-220 576,-239"/>
<text text-anchor="middle" x="517.5" y="-227" font-family="Helvetica,sans-Serif" font-size="10.00">Cpl/Container/Item.h</text>
</a>
</g>
</g>
<!-- Node5&#45;&gt;Node6 -->
<g id="edge5_Node000005_Node000006" class="edge">
<title>Node5&#45;&gt;Node6</title>
<g id="a_edge5_Node000005_Node000006"><a xlink:title=" ">
<path fill="none" stroke="#63b8ff" d="M517.5,-274.75C517.5,-267.8 517.5,-257.85 517.5,-249.13"/>
<polygon fill="#63b8ff" stroke="#63b8ff" points="521,-249.09 517.5,-239.09 514,-249.09 521,-249.09"/>
</a>
</g>
</g>
<!-- Node9&#45;&gt;Node3 -->
<g id="edge9_Node000009_Node000003" class="edge">
<title>Node9&#45;&gt;Node3</title>
<g id="a_edge9_Node000009_Node000003"><a xlink:title=" ">
<path fill="none" stroke="#63b8ff" d="M454.91,-329.82C445.84,-311.82 426.5,-268.93 426.5,-230.5 426.5,-230.5 426.5,-230.5 426.5,-173.5 426.5,-131.84 386.48,-97.72 359.82,-79.6"/>
<polygon fill="#63b8ff" stroke="#63b8ff" points="361.65,-76.62 351.36,-74.09 357.82,-82.48 361.65,-76.62"/>
</a>
</g>
</g>
<!-- Node9&#45;&gt;Node5 -->
<g id="edge10_Node000009_Node000005" class="edge">
<title>Node9&#45;&gt;Node5</title>
<g id="a_edge10_Node000009_Node000005"><a xlink:title=" ">
<path fill="none" stroke="#63b8ff" d="M468.82,-329.98C477.31,-322.23 490.06,-310.58 500.38,-301.14"/>
<polygon fill="#63b8ff" stroke="#63b8ff" points="502.99,-303.5 508.01,-294.17 498.27,-298.33 502.99,-303.5"/>
</a>
</g>
</g>
<!-- Node11 -->
<g id="Node000011" class="node">
<title>Node11</title>
<g id="a_Node000011"><a xlink:href="_f_string___8h.html" target="_top" xlink:title=" ">
<polygon fill="white" stroke="#666666" points="364,-294 257,-294 257,-275 364,-275 364,-294"/>
<text text-anchor="middle" x="310.5" y="-282" font-family="Helvetica,sans-Serif" font-size="10.00">Cpl/Text/FString_.h</text>
</a>
</g>
</g>
<!-- Node10&#45;&gt;Node11 -->
<g id="edge12_Node000010_Node000011" class="edge">
<title>Node10&#45;&gt;Node11</title>
<g id="a_edge12_Node000010_Node000011"><a xlink:title=" ">
<path fill="none" stroke="#63b8ff" d="M310.5,-329.75C310.5,-322.8 310.5,-312.85 310.5,-304.13"/>
<polygon fill="#63b8ff" stroke="#63b8ff" points="314,-304.09 310.5,-294.09 307,-304.09 314,-304.09"/>
</a>
</g>
</g>
<!-- Node19 -->
<g id="Node000019" class="node">
<title>Node19</title>
<g id="a_Node000019"><a xlink:title=" ">
<polygon fill="#e0e0e0" stroke="#999999" points="53,-74 0,-74 0,-55 53,-55 53,-74"/>
<text text-anchor="middle" x="26.5" y="-62" font-family="Helvetica,sans-Serif" font-size="10.00">string.h</text>
</a>
</g>
</g>
<!-- Node10&#45;&gt;Node19 -->
<g id="edge26_Node000010_Node000019" class="edge">
<title>Node10&#45;&gt;Node19</title>
<g id="a_edge26_Node000010_Node000019"><a xlink:title=" ">
<path fill="none" stroke="#63b8ff" d="M259.99,-330.38C176.9,-315.57 20.5,-281 20.5,-230.5 20.5,-230.5 20.5,-230.5 20.5,-173.5 20.5,-142.14 23.05,-105.74 24.83,-84.22"/>
<polygon fill="#63b8ff" stroke="#63b8ff" points="28.32,-84.43 25.69,-74.17 21.35,-83.83 28.32,-84.43"/>
</a>
</g>
</g>
<!-- Node12 -->
<g id="Node000012" class="node">
<title>Node12</title>
<g id="a_Node000012"><a xlink:title=" ">
<polygon fill="#e0e0e0" stroke="#999999" points="365.5,-19 273.5,-19 273.5,0 365.5,0 365.5,-19"/>
<text text-anchor="middle" x="319.5" y="-7" font-family="Helvetica,sans-Serif" font-size="10.00">colony_config.h</text>
</a>
</g>
</g>
<!-- Node11&#45;&gt;Node12 -->
<g id="edge13_Node000011_Node000012" class="edge">
<title>Node11&#45;&gt;Node12</title>
<g id="a_edge13_Node000011_Node000012"><a xlink:title=" ">
<path fill="none" stroke="#63b8ff" d="M315.12,-274.64C329.58,-246.36 373.85,-155.36 388.5,-74 390,-65.69 392.54,-62.41 388.5,-55 380.85,-40.97 366.67,-30.69 353.14,-23.57"/>
<polygon fill="#63b8ff" stroke="#63b8ff" points="354.49,-20.34 343.97,-19.14 351.45,-26.64 354.49,-20.34"/>
</a>
</g>
</g>
<!-- Node13 -->
<g id="Node000013" class="node">
<title>Node13</title>
<g id="a_Node000013"><a xlink:href="_string___8h.html" target="_top" xlink:title=" ">
<polygon fill="white" stroke="#666666" points="312,-239 211,-239 211,-220 312,-220 312,-239"/>
<text text-anchor="middle" x="261.5" y="-227" font-family="Helvetica,sans-Serif" font-size="10.00">Cpl/Text/String_.h</text>
</a>
</g>
</g>
<!-- Node11&#45;&gt;Node13 -->
<g id="edge14_Node000011_Node000013" class="edge">
<title>Node11&#45;&gt;Node13</title>
<g id="a_edge14_Node000011_Node000013"><a xlink:title=" ">
<path fill="none" stroke="#63b8ff" d="M302.41,-274.75C295.34,-267.11 284.91,-255.82 276.35,-246.56"/>
<polygon fill="#63b8ff" stroke="#63b8ff" points="278.8,-244.06 269.44,-239.09 273.66,-248.81 278.8,-244.06"/>
</a>
</g>
</g>
<!-- Node14 -->
<g id="Node000014" class="node">
<title>Node14</title>
<g id="a_Node000014"><a xlink:href="_text_2_string_8h.html" target="_top" xlink:title=" ">
<polygon fill="white" stroke="#666666" points="304.5,-184 208.5,-184 208.5,-165 304.5,-165 304.5,-184"/>
<text text-anchor="middle" x="256.5" y="-172" font-family="Helvetica,sans-Serif" font-size="10.00">Cpl/Text/String.h</text>
</a>
</g>
</g>
<!-- Node13&#45;&gt;Node14 -->
<g id="edge15_Node000013_Node000014" class="edge">
<title>Node13&#45;&gt;Node14</title>
<g id="a_edge15_Node000013_Node000014"><a xlink:title=" ">
<path fill="none" stroke="#63b8ff" d="M260.67,-219.75C260.02,-212.8 259.08,-202.85 258.26,-194.13"/>
<polygon fill="#63b8ff" stroke="#63b8ff" points="261.73,-193.72 257.31,-184.09 254.77,-194.37 261.73,-193.72"/>
</a>
</g>
</g>
<!-- Node14&#45;&gt;Node3 -->
<g id="edge16_Node000014_Node000003" class="edge">
<title>Node14&#45;&gt;Node3</title>
<g id="a_edge16_Node000014_Node000003"><a xlink:title=" ">
<path fill="none" stroke="#63b8ff" d="M276.24,-164.88C290.92,-157.46 310.28,-145.35 321.5,-129 330.61,-115.72 334.23,-97.6 335.64,-84.12"/>
<polygon fill="#63b8ff" stroke="#63b8ff" points="339.14,-84.32 336.39,-74.09 332.16,-83.8 339.14,-84.32"/>
</a>
</g>
</g>
<!-- Node15 -->
<g id="Node000015" class="node">
<title>Node15</title>
<g id="a_Node000015"><a xlink:href="_key_8h.html" target="_top" xlink:title=" ">
<polygon fill="white" stroke="#666666" points="312,-129 201,-129 201,-110 312,-110 312,-129"/>
<text text-anchor="middle" x="256.5" y="-117" font-family="Helvetica,sans-Serif" font-size="10.00">Cpl/Container/Key.h</text>
</a>
</g>
</g>
<!-- Node14&#45;&gt;Node15 -->
<g id="edge17_Node000014_Node000015" class="edge">
<title>Node14&#45;&gt;Node15</title>
<g id="a_edge17_Node000014_Node000015"><a xlink:title=" ">
<path fill="none" stroke="#63b8ff" d="M256.5,-164.75C256.5,-157.8 256.5,-147.85 256.5,-139.13"/>
<polygon fill="#63b8ff" stroke="#63b8ff" points="260,-139.09 256.5,-129.09 253,-139.09 260,-139.09"/>
</a>
</g>
</g>
<!-- Node20 -->
<g id="Node000020" class="node">
<title>Node20</title>
<g id="a_Node000020"><a xlink:title=" ">
<polygon fill="#e0e0e0" stroke="#999999" points="104.5,-129 48.5,-129 48.5,-110 104.5,-110 104.5,-129"/>
<text text-anchor="middle" x="76.5" y="-117" font-family="Helvetica,sans-Serif" font-size="10.00">stdarg.h</text>
</a>
</g>
</g>
<!-- Node14&#45;&gt;Node20 -->
<g id="edge24_Node000014_Node000020" class="edge">
<title>Node14&#45;&gt;Node20</title>
<g id="a_edge24_Node000014_Node000020"><a xlink:title=" ">
<path fill="none" stroke="#63b8ff" d="M227.58,-164.98C196.96,-155.97 148.48,-141.69 114.72,-131.75"/>
<polygon fill="#63b8ff" stroke="#63b8ff" points="115.34,-128.29 104.75,-128.82 113.36,-135 115.34,-128.29"/>
</a>
</g>
</g>
<!-- Node21 -->
<g id="Node000021" class="node">
<title>Node21</title>
<g id="a_Node000021"><a xlink:title=" ">
<polygon fill="#e0e0e0" stroke="#999999" points="182.5,-129 122.5,-129 122.5,-110 182.5,-110 182.5,-129"/>
<text text-anchor="middle" x="152.5" y="-117" font-family="Helvetica,sans-Serif" font-size="10.00">iostream</text>
</a>
</g>
</g>
<!-- Node14&#45;&gt;Node21 -->
<g id="edge25_Node000014_Node000021" class="edge">
<title>Node14&#45;&gt;Node21</title>
<g id="a_edge25_Node000014_Node000021"><a xlink:title=" ">
<path fill="none" stroke="#63b8ff" d="M239.79,-164.98C223.29,-156.57 197.8,-143.59 178.62,-133.81"/>
<polygon fill="#63b8ff" stroke="#63b8ff" points="180.01,-130.59 169.51,-129.17 176.83,-136.83 180.01,-130.59"/>
</a>
</g>
</g>
<!-- Node15&#45;&gt;Node3 -->
<g id="edge23_Node000015_Node000003" class="edge">
<title>Node15&#45;&gt;Node3</title>
<g id="a_edge23_Node000015_Node000003"><a xlink:title=" ">
<path fill="none" stroke="#63b8ff" d="M269.35,-109.98C281.64,-101.84 300.41,-89.41 314.98,-79.76"/>
<polygon fill="#63b8ff" stroke="#63b8ff" points="317.01,-82.61 323.41,-74.17 313.14,-76.78 317.01,-82.61"/>
</a>
</g>
</g>
<!-- Node16 -->
<g id="Node000016" class="node">
<title>Node16</title>
<g id="a_Node000016"><a xlink:href="_fatal_error_8h.html" target="_top" xlink:title=" ">
<polygon fill="white" stroke="#666666" points="204.5,-74 74.5,-74 74.5,-55 204.5,-55 204.5,-74"/>
<text text-anchor="middle" x="139.5" y="-62" font-family="Helvetica,sans-Serif" font-size="10.00">Cpl/System/FatalError.h</text>
</a>
</g>
</g>
<!-- Node15&#45;&gt;Node16 -->
<g id="edge18_Node000015_Node000016" class="edge">
<title>Node15&#45;&gt;Node16</title>
<g id="a_edge18_Node000015_Node000016"><a xlink:title=" ">
<path fill="none" stroke="#63b8ff" d="M237.7,-109.98C218.88,-101.46 189.68,-88.23 168,-78.41"/>
<polygon fill="#63b8ff" stroke="#63b8ff" points="169.19,-75.11 158.64,-74.17 166.3,-81.48 169.19,-75.11"/>
</a>
</g>
</g>
<!-- Node18 -->
<g id="Node000018" class="node">
<title>Node18</title>
<g id="a_Node000018"><a xlink:title=" ">
<polygon fill="#e0e0e0" stroke="#999999" points="276,-74 223,-74 223,-55 276,-55 276,-74"/>
<text text-anchor="middle" x="249.5" y="-62" font-family="Helvetica,sans-Serif" font-size="10.00">stdint.h</text>
</a>
</g>
</g>
<!-- Node15&#45;&gt;Node18 -->
<g id="edge21_Node000015_Node000018" class="edge">
<title>Node15&#45;&gt;Node18</title>
<g id="a_edge21_Node000015_Node000018"><a xlink:title=" ">
<path fill="none" stroke="#63b8ff" d="M255.34,-109.75C254.43,-102.8 253.11,-92.85 251.96,-84.13"/>
<polygon fill="#63b8ff" stroke="#63b8ff" points="255.41,-83.54 250.63,-74.09 248.47,-84.46 255.41,-83.54"/>
</a>
</g>
</g>
<!-- Node15&#45;&gt;Node19 -->
<g id="edge22_Node000015_Node000019" class="edge">
<title>Node15&#45;&gt;Node19</title>
<g id="a_edge22_Node000015_Node000019"><a xlink:title=" ">
<path fill="none" stroke="#63b8ff" d="M219.55,-109.98C176.61,-100.09 106.19,-83.86 63.32,-73.98"/>
<polygon fill="#63b8ff" stroke="#63b8ff" points="63.83,-70.51 53.3,-71.68 62.26,-77.33 63.83,-70.51"/>
</a>
</g>
</g>
<!-- Node16&#45;&gt;Node12 -->
<g id="edge20_Node000016_Node000012" class="edge">
<title>Node16&#45;&gt;Node12</title>
<g id="a_edge20_Node000016_Node000012"><a xlink:title=" ">
<path fill="none" stroke="#63b8ff" d="M168.42,-54.98C198.77,-46.05 246.67,-31.94 280.38,-22.02"/>
<polygon fill="#63b8ff" stroke="#63b8ff" points="281.75,-25.26 290.35,-19.08 279.77,-18.55 281.75,-25.26"/>
</a>
</g>
</g>
<!-- Node17 -->
<g id="Node000017" class="node">
<title>Node17</title>
<g id="a_Node000017"><a xlink:title=" ">
<polygon fill="#e0e0e0" stroke="#999999" points="167.5,-19 111.5,-19 111.5,0 167.5,0 167.5,-19"/>
<text text-anchor="middle" x="139.5" y="-7" font-family="Helvetica,sans-Serif" font-size="10.00">stddef.h</text>
</a>
</g>
</g>
<!-- Node16&#45;&gt;Node17 -->
<g id="edge19_Node000016_Node000017" class="edge">
<title>Node16&#45;&gt;Node17</title>
<g id="a_edge19_Node000016_Node000017"><a xlink:title=" ">
<path fill="none" stroke="#63b8ff" d="M139.5,-54.75C139.5,-47.8 139.5,-37.85 139.5,-29.13"/>
<polygon fill="#63b8ff" stroke="#63b8ff" points="143,-29.09 139.5,-19.09 136,-29.09 143,-29.09"/>
</a>
</g>
</g>
</g>
</svg>
