<?xml version="1.0" encoding="UTF-8" standalone="no"?>
<!DOCTYPE svg PUBLIC "-//W3C//DTD SVG 1.1//EN"
 "http://www.w3.org/Graphics/SVG/1.1/DTD/svg11.dtd">
<!-- Generated by graphviz version 2.43.0 (0)
 -->
<!-- Title: Cpl/Persistent/Chunk.h Pages: 1 -->
<svg width="1493pt" height="357pt"
 viewBox="0.00 0.00 1493.00 357.00" xmlns="http://www.w3.org/2000/svg" xmlns:xlink="http://www.w3.org/1999/xlink">
<g id="graph0" class="graph" transform="scale(1 1) rotate(0) translate(4 353)">
<title>Cpl/Persistent/Chunk.h</title>
<!-- Node1 -->
<g id="Node000001" class="node">
<title>Node1</title>
<g id="a_Node000001"><a xlink:title=" ">
<polygon fill="#999999" stroke="#666666" points="366.5,-349 239.5,-349 239.5,-330 366.5,-330 366.5,-349"/>
<text text-anchor="middle" x="303" y="-337" font-family="Helvetica,sans-Serif" font-size="10.00">Cpl/Persistent/Chunk.h</text>
</a>
</g>
</g>
<!-- Node2 -->
<g id="Node000002" class="node">
<title>Node2</title>
<g id="a_Node000002"><a xlink:href="_payload_8h.html" target="_top" xlink:title=" ">
<polygon fill="white" stroke="#666666" points="323,-239 189,-239 189,-220 323,-220 323,-239"/>
<text text-anchor="middle" x="256" y="-227" font-family="Helvetica,sans-Serif" font-size="10.00">Cpl/Persistent/Payload.h</text>
</a>
</g>
</g>
<!-- Node1&#45;&gt;Node2 -->
<g id="edge1_Node000001_Node000002" class="edge">
<title>Node1&#45;&gt;Node2</title>
<g id="a_edge1_Node000001_Node000002"><a xlink:title=" ">
<path fill="none" stroke="#63b8ff" d="M296.45,-329.7C290.23,-321.01 280.96,-307.13 275,-294 268.45,-279.57 263.45,-262.3 260.23,-249.41"/>
<polygon fill="#63b8ff" stroke="#63b8ff" points="263.57,-248.32 257.86,-239.4 256.75,-249.94 263.57,-248.32"/>
</a>
</g>
</g>
<!-- Node4 -->
<g id="Node000004" class="node">
<title>Node4</title>
<g id="a_Node000004"><a xlink:href="_dm_2_mailbox_server_8h.html" target="_top" xlink:title=" ">
<polygon fill="white" stroke="#666666" points="418,-294 284,-294 284,-275 418,-275 418,-294"/>
<text text-anchor="middle" x="351" y="-282" font-family="Helvetica,sans-Serif" font-size="10.00">Cpl/Dm/MailboxServer.h</text>
</a>
</g>
</g>
<!-- Node1&#45;&gt;Node4 -->
<g id="edge3_Node000001_Node000004" class="edge">
<title>Node1&#45;&gt;Node4</title>
<g id="a_edge3_Node000001_Node000004"><a xlink:title=" ">
<path fill="none" stroke="#63b8ff" d="M310.93,-329.75C317.85,-322.11 328.07,-310.82 336.45,-301.56"/>
<polygon fill="#63b8ff" stroke="#63b8ff" points="339.1,-303.85 343.22,-294.09 333.91,-299.15 339.1,-303.85"/>
</a>
</g>
</g>
<!-- Node3 -->
<g id="Node000003" class="node">
<title>Node3</title>
<g id="a_Node000003"><a xlink:title=" ">
<polygon fill="#e0e0e0" stroke="#999999" points="282.5,-129 229.5,-129 229.5,-110 282.5,-110 282.5,-129"/>
<text text-anchor="middle" x="256" y="-117" font-family="Helvetica,sans-Serif" font-size="10.00">stdlib.h</text>
</a>
</g>
</g>
<!-- Node2&#45;&gt;Node3 -->
<g id="edge2_Node000002_Node000003" class="edge">
<title>Node2&#45;&gt;Node3</title>
<g id="a_edge2_Node000002_Node000003"><a xlink:title=" ">
<path fill="none" stroke="#63b8ff" d="M256,-219.66C256,-202.17 256,-162.8 256,-139.27"/>
<polygon fill="#63b8ff" stroke="#63b8ff" points="259.5,-139.16 256,-129.16 252.5,-139.16 259.5,-139.16"/>
</a>
</g>
</g>
<!-- Node5 -->
<g id="Node000005" class="node">
<title>Node5</title>
<g id="a_Node000005"><a xlink:href="_dm_2_event_loop_8h.html" target="_top" xlink:title=" ">
<polygon fill="white" stroke="#666666" points="1169,-239 1053,-239 1053,-220 1169,-220 1169,-239"/>
<text text-anchor="middle" x="1111" y="-227" font-family="Helvetica,sans-Serif" font-size="10.00">Cpl/Dm/EventLoop.h</text>
</a>
</g>
</g>
<!-- Node4&#45;&gt;Node5 -->
<g id="edge4_Node000004_Node000005" class="edge">
<title>Node4&#45;&gt;Node5</title>
<g id="a_edge4_Node000004_Node000005"><a xlink:title=" ">
<path fill="none" stroke="#63b8ff" d="M418.11,-278.82C561.85,-268.8 898.1,-245.35 1042.8,-235.26"/>
<polygon fill="#63b8ff" stroke="#63b8ff" points="1043.15,-238.74 1052.88,-234.55 1042.66,-231.76 1043.15,-238.74"/>
</a>
</g>
</g>
<!-- Node23 -->
<g id="Node000023" class="node">
<title>Node23</title>
<g id="a_Node000023"><a xlink:href="_mailbox_8h.html" target="_top" xlink:title=" ">
<polygon fill="white" stroke="#666666" points="183,-184 85,-184 85,-165 183,-165 183,-184"/>
<text text-anchor="middle" x="134" y="-172" font-family="Helvetica,sans-Serif" font-size="10.00">Cpl/Itc/Mailbox.h</text>
</a>
</g>
</g>
<!-- Node4&#45;&gt;Node23 -->
<g id="edge33_Node000004_Node000023" class="edge">
<title>Node4&#45;&gt;Node23</title>
<g id="a_edge33_Node000004_Node000023"><a xlink:title=" ">
<path fill="none" stroke="#63b8ff" d="M283.65,-276.82C250.2,-270.93 210.52,-259.85 180,-239 163.19,-227.52 150.33,-207.79 142.53,-193.37"/>
<polygon fill="#63b8ff" stroke="#63b8ff" points="145.62,-191.71 137.96,-184.39 139.38,-194.89 145.62,-191.71"/>
</a>
</g>
</g>
<!-- Node6 -->
<g id="Node000006" class="node">
<title>Node6</title>
<g id="a_Node000006"><a xlink:href="_system_2_event_loop_8h.html" target="_top" xlink:title=" ">
<polygon fill="white" stroke="#666666" points="1012.5,-184 877.5,-184 877.5,-165 1012.5,-165 1012.5,-184"/>
<text text-anchor="middle" x="945" y="-172" font-family="Helvetica,sans-Serif" font-size="10.00">Cpl/System/EventLoop.h</text>
</a>
</g>
</g>
<!-- Node5&#45;&gt;Node6 -->
<g id="edge5_Node000005_Node000006" class="edge">
<title>Node5&#45;&gt;Node6</title>
<g id="a_edge5_Node000005_Node000006"><a xlink:title=" ">
<path fill="none" stroke="#63b8ff" d="M1084.33,-219.98C1056.46,-211.09 1012.55,-197.07 981.48,-187.15"/>
<polygon fill="#63b8ff" stroke="#63b8ff" points="982.47,-183.79 971.88,-184.08 980.34,-190.46 982.47,-183.79"/>
</a>
</g>
</g>
<!-- Node18 -->
<g id="Node000018" class="node">
<title>Node18</title>
<g id="a_Node000018"><a xlink:href="_d_list_8h.html" target="_top" xlink:title=" ">
<polygon fill="white" stroke="#666666" points="1231.5,-74 1112.5,-74 1112.5,-55 1231.5,-55 1231.5,-74"/>
<text text-anchor="middle" x="1172" y="-62" font-family="Helvetica,sans-Serif" font-size="10.00">Cpl/Container/DList.h</text>
</a>
</g>
</g>
<!-- Node5&#45;&gt;Node18 -->
<g id="edge27_Node000005_Node000018" class="edge">
<title>Node5&#45;&gt;Node18</title>
<g id="a_edge27_Node000005_Node000018"><a xlink:title=" ">
<path fill="none" stroke="#63b8ff" d="M1136.46,-219.91C1171.26,-206.63 1232.29,-177.45 1258,-129 1270.65,-105.17 1241.2,-87.93 1213.39,-77.48"/>
<polygon fill="#63b8ff" stroke="#63b8ff" points="1214.29,-74.08 1203.69,-74.06 1211.96,-80.68 1214.29,-74.08"/>
</a>
</g>
</g>
<!-- Node19 -->
<g id="Node000019" class="node">
<title>Node19</title>
<g id="a_Node000019"><a xlink:href="_thread_8h.html" target="_top" xlink:title=" ">
<polygon fill="white" stroke="#666666" points="498,-184 380,-184 380,-165 498,-165 498,-184"/>
<text text-anchor="middle" x="439" y="-172" font-family="Helvetica,sans-Serif" font-size="10.00">Cpl/System/Thread.h</text>
</a>
</g>
</g>
<!-- Node5&#45;&gt;Node19 -->
<g id="edge21_Node000005_Node000019" class="edge">
<title>Node5&#45;&gt;Node19</title>
<g id="a_edge21_Node000005_Node000019"><a xlink:title=" ">
<path fill="none" stroke="#63b8ff" d="M1052.83,-223.91C929.31,-214.17 641.28,-191.45 508.41,-180.97"/>
<polygon fill="#63b8ff" stroke="#63b8ff" points="508.59,-177.48 498.35,-180.18 508.04,-184.46 508.59,-177.48"/>
</a>
</g>
</g>
<!-- Node21 -->
<g id="Node000021" class="node">
<title>Node21</title>
<g id="a_Node000021"><a xlink:href="_subscriber_api_8h.html" target="_top" xlink:title=" ">
<polygon fill="white" stroke="#666666" points="1380.5,-74 1249.5,-74 1249.5,-55 1380.5,-55 1380.5,-74"/>
<text text-anchor="middle" x="1315" y="-62" font-family="Helvetica,sans-Serif" font-size="10.00">Cpl/Dm/SubscriberApi.h</text>
</a>
</g>
</g>
<!-- Node5&#45;&gt;Node21 -->
<g id="edge28_Node000005_Node000021" class="edge">
<title>Node5&#45;&gt;Node21</title>
<g id="a_edge28_Node000005_Node000021"><a xlink:title=" ">
<path fill="none" stroke="#63b8ff" d="M1150.2,-219.95C1175.07,-213.15 1206.97,-201.77 1231,-184 1267.53,-156.98 1294.25,-109.3 1306.87,-83.42"/>
<polygon fill="#63b8ff" stroke="#63b8ff" points="1310.18,-84.61 1311.28,-74.07 1303.85,-81.63 1310.18,-84.61"/>
</a>
</g>
</g>
<!-- Node22 -->
<g id="Node000022" class="node">
<title>Node22</title>
<g id="a_Node000022"><a xlink:href="_notification_api___8h.html" target="_top" xlink:title=" ">
<polygon fill="white" stroke="#666666" points="1485,-184 1343,-184 1343,-165 1485,-165 1485,-184"/>
<text text-anchor="middle" x="1414" y="-172" font-family="Helvetica,sans-Serif" font-size="10.00">Cpl/Dm/NotificationApi_.h</text>
</a>
</g>
</g>
<!-- Node5&#45;&gt;Node22 -->
<g id="edge31_Node000005_Node000022" class="edge">
<title>Node5&#45;&gt;Node22</title>
<g id="a_edge31_Node000005_Node000022"><a xlink:title=" ">
<path fill="none" stroke="#63b8ff" d="M1159.68,-219.98C1212.94,-210.67 1298.31,-195.74 1355.25,-185.78"/>
<polygon fill="#63b8ff" stroke="#63b8ff" points="1355.94,-189.21 1365.19,-184.04 1354.73,-182.31 1355.94,-189.21"/>
</a>
</g>
</g>
<!-- Node7 -->
<g id="Node000007" class="node">
<title>Node7</title>
<g id="a_Node000007"><a xlink:href="_runnable_8h.html" target="_top" xlink:title=" ">
<polygon fill="white" stroke="#666666" points="639,-129 509,-129 509,-110 639,-110 639,-129"/>
<text text-anchor="middle" x="574" y="-117" font-family="Helvetica,sans-Serif" font-size="10.00">Cpl/System/Runnable.h</text>
</a>
</g>
</g>
<!-- Node6&#45;&gt;Node7 -->
<g id="edge6_Node000006_Node000007" class="edge">
<title>Node6&#45;&gt;Node7</title>
<g id="a_edge6_Node000006_Node000007"><a xlink:title=" ">
<path fill="none" stroke="#63b8ff" d="M885.39,-164.98C819.5,-155.57 713.49,-140.43 643.78,-130.47"/>
<polygon fill="#63b8ff" stroke="#63b8ff" points="644.16,-126.99 633.77,-129.04 643.17,-133.92 644.16,-126.99"/>
</a>
</g>
</g>
<!-- Node8 -->
<g id="Node000008" class="node">
<title>Node8</title>
<g id="a_Node000008"><a xlink:href="_semaphore_8h.html" target="_top" xlink:title=" ">
<polygon fill="white" stroke="#666666" points="835,-129 695,-129 695,-110 835,-110 835,-129"/>
<text text-anchor="middle" x="765" y="-117" font-family="Helvetica,sans-Serif" font-size="10.00">Cpl/System/Semaphore.h</text>
</a>
</g>
</g>
<!-- Node6&#45;&gt;Node8 -->
<g id="edge7_Node000006_Node000008" class="edge">
<title>Node6&#45;&gt;Node8</title>
<g id="a_edge7_Node000006_Node000008"><a xlink:title=" ">
<path fill="none" stroke="#63b8ff" d="M916.08,-164.98C885.73,-156.05 837.83,-141.94 804.12,-132.02"/>
<polygon fill="#63b8ff" stroke="#63b8ff" points="804.73,-128.55 794.15,-129.08 802.75,-135.26 804.73,-128.55"/>
</a>
</g>
</g>
<!-- Node10 -->
<g id="Node000010" class="node">
<title>Node10</title>
<g id="a_Node000010"><a xlink:href="_signable_8h.html" target="_top" xlink:title=" ">
<polygon fill="white" stroke="#666666" points="623,-74 497,-74 497,-55 623,-55 623,-74"/>
<text text-anchor="middle" x="560" y="-62" font-family="Helvetica,sans-Serif" font-size="10.00">Cpl/System/Signable.h</text>
</a>
</g>
</g>
<!-- Node6&#45;&gt;Node10 -->
<g id="edge11_Node000006_Node000010" class="edge">
<title>Node6&#45;&gt;Node10</title>
<g id="a_edge11_Node000006_Node000010"><a xlink:title=" ">
<path fill="none" stroke="#63b8ff" d="M877.4,-167.43C824.35,-161.36 749.15,-149.82 686,-129 684.69,-128.57 622.67,-97.22 586.14,-78.74"/>
<polygon fill="#63b8ff" stroke="#63b8ff" points="587.53,-75.51 577.02,-74.12 584.37,-81.76 587.53,-75.51"/>
</a>
</g>
</g>
<!-- Node12 -->
<g id="Node000012" class="node">
<title>Node12</title>
<g id="a_Node000012"><a xlink:href="_event_flag_8h.html" target="_top" xlink:title=" ">
<polygon fill="white" stroke="#666666" points="1094.5,-74 961.5,-74 961.5,-55 1094.5,-55 1094.5,-74"/>
<text text-anchor="middle" x="1028" y="-62" font-family="Helvetica,sans-Serif" font-size="10.00">Cpl/System/EventFlag.h</text>
</a>
</g>
</g>
<!-- Node6&#45;&gt;Node12 -->
<g id="edge12_Node000006_Node000012" class="edge">
<title>Node6&#45;&gt;Node12</title>
<g id="a_edge12_Node000006_Node000012"><a xlink:title=" ">
<path fill="none" stroke="#63b8ff" d="M991.16,-165C1011.6,-158.69 1033.75,-147.78 1046,-129 1055.07,-115.1 1048.11,-96.6 1040.36,-83.16"/>
<polygon fill="#63b8ff" stroke="#63b8ff" points="1043.11,-80.96 1034.8,-74.4 1037.21,-84.72 1043.11,-80.96"/>
</a>
</g>
</g>
<!-- Node15 -->
<g id="Node000015" class="node">
<title>Node15</title>
<g id="a_Node000015"><a xlink:href="_shared_event_handler_8h.html" target="_top" xlink:title=" ">
<polygon fill="white" stroke="#666666" points="1036.5,-129 853.5,-129 853.5,-110 1036.5,-110 1036.5,-129"/>
<text text-anchor="middle" x="945" y="-117" font-family="Helvetica,sans-Serif" font-size="10.00">Cpl/System/SharedEventHandler.h</text>
</a>
</g>
</g>
<!-- Node6&#45;&gt;Node15 -->
<g id="edge15_Node000006_Node000015" class="edge">
<title>Node6&#45;&gt;Node15</title>
<g id="a_edge15_Node000006_Node000015"><a xlink:title=" ">
<path fill="none" stroke="#63b8ff" d="M945,-164.75C945,-157.8 945,-147.85 945,-139.13"/>
<polygon fill="#63b8ff" stroke="#63b8ff" points="948.5,-139.09 945,-129.09 941.5,-139.09 948.5,-139.09"/>
</a>
</g>
</g>
<!-- Node16 -->
<g id="Node000016" class="node">
<title>Node16</title>
<g id="a_Node000016"><a xlink:href="_timer_manager_8h.html" target="_top" xlink:title=" ">
<polygon fill="white" stroke="#666666" points="1248.5,-129 1093.5,-129 1093.5,-110 1248.5,-110 1248.5,-129"/>
<text text-anchor="middle" x="1171" y="-117" font-family="Helvetica,sans-Serif" font-size="10.00">Cpl/System/TimerManager.h</text>
</a>
</g>
</g>
<!-- Node6&#45;&gt;Node16 -->
<g id="edge17_Node000006_Node000016" class="edge">
<title>Node6&#45;&gt;Node16</title>
<g id="a_edge17_Node000006_Node000016"><a xlink:title=" ">
<path fill="none" stroke="#63b8ff" d="M981.31,-164.98C1020.24,-155.86 1082.16,-141.33 1124.6,-131.38"/>
<polygon fill="#63b8ff" stroke="#63b8ff" points="1125.47,-134.77 1134.4,-129.08 1123.87,-127.96 1125.47,-134.77"/>
</a>
</g>
</g>
<!-- Node9 -->
<g id="Node000009" class="node">
<title>Node9</title>
<g id="a_Node000009"><a xlink:title=" ">
<polygon fill="#e0e0e0" stroke="#999999" points="766.5,-74 681.5,-74 681.5,-55 766.5,-55 766.5,-74"/>
<text text-anchor="middle" x="724" y="-62" font-family="Helvetica,sans-Serif" font-size="10.00">colony_map.h</text>
</a>
</g>
</g>
<!-- Node8&#45;&gt;Node9 -->
<g id="edge8_Node000008_Node000009" class="edge">
<title>Node8&#45;&gt;Node9</title>
<g id="a_edge8_Node000008_Node000009"><a xlink:title=" ">
<path fill="none" stroke="#63b8ff" d="M758.23,-109.75C752.44,-102.26 743.94,-91.28 736.86,-82.13"/>
<polygon fill="#63b8ff" stroke="#63b8ff" points="739.53,-79.86 730.64,-74.09 733.99,-84.14 739.53,-79.86"/>
</a>
</g>
</g>
<!-- Node8&#45;&gt;Node10 -->
<g id="edge9_Node000008_Node000010" class="edge">
<title>Node8&#45;&gt;Node10</title>
<g id="a_edge9_Node000008_Node000010"><a xlink:title=" ">
<path fill="none" stroke="#63b8ff" d="M732.06,-109.98C697.05,-100.93 641.53,-86.58 603.07,-76.64"/>
<polygon fill="#63b8ff" stroke="#63b8ff" points="603.75,-73.2 593.19,-74.08 602,-79.97 603.75,-73.2"/>
</a>
</g>
</g>
<!-- Node11 -->
<g id="Node000011" class="node">
<title>Node11</title>
<g id="a_Node000011"><a xlink:href="_item_8h.html" target="_top" xlink:title=" ">
<polygon fill="white" stroke="#666666" points="618.5,-19 501.5,-19 501.5,0 618.5,0 618.5,-19"/>
<text text-anchor="middle" x="560" y="-7" font-family="Helvetica,sans-Serif" font-size="10.00">Cpl/Container/Item.h</text>
</a>
</g>
</g>
<!-- Node10&#45;&gt;Node11 -->
<g id="edge10_Node000010_Node000011" class="edge">
<title>Node10&#45;&gt;Node11</title>
<g id="a_edge10_Node000010_Node000011"><a xlink:title=" ">
<path fill="none" stroke="#63b8ff" d="M560,-54.75C560,-47.8 560,-37.85 560,-29.13"/>
<polygon fill="#63b8ff" stroke="#63b8ff" points="563.5,-29.09 560,-19.09 556.5,-29.09 563.5,-29.09"/>
</a>
</g>
</g>
<!-- Node13 -->
<g id="Node000013" class="node">
<title>Node13</title>
<g id="a_Node000013"><a xlink:title=" ">
<polygon fill="#e0e0e0" stroke="#999999" points="1074,-19 982,-19 982,0 1074,0 1074,-19"/>
<text text-anchor="middle" x="1028" y="-7" font-family="Helvetica,sans-Serif" font-size="10.00">colony_config.h</text>
</a>
</g>
</g>
<!-- Node12&#45;&gt;Node13 -->
<g id="edge13_Node000012_Node000013" class="edge">
<title>Node12&#45;&gt;Node13</title>
<g id="a_edge13_Node000012_Node000013"><a xlink:title=" ">
<path fill="none" stroke="#63b8ff" d="M1028,-54.75C1028,-47.8 1028,-37.85 1028,-29.13"/>
<polygon fill="#63b8ff" stroke="#63b8ff" points="1031.5,-29.09 1028,-19.09 1024.5,-29.09 1031.5,-29.09"/>
</a>
</g>
</g>
<!-- Node14 -->
<g id="Node000014" class="node">
<title>Node14</title>
<g id="a_Node000014"><a xlink:title=" ">
<polygon fill="#e0e0e0" stroke="#999999" points="1243.5,-19 1190.5,-19 1190.5,0 1243.5,0 1243.5,-19"/>
<text text-anchor="middle" x="1217" y="-7" font-family="Helvetica,sans-Serif" font-size="10.00">stdint.h</text>
</a>
</g>
</g>
<!-- Node12&#45;&gt;Node14 -->
<g id="edge14_Node000012_Node000014" class="edge">
<title>Node12&#45;&gt;Node14</title>
<g id="a_edge14_Node000012_Node000014"><a xlink:title=" ">
<path fill="none" stroke="#63b8ff" d="M1058.37,-54.98C1091.61,-45.66 1144.89,-30.72 1180.41,-20.76"/>
<polygon fill="#63b8ff" stroke="#63b8ff" points="1181.69,-24.04 1190.37,-17.97 1179.8,-17.3 1181.69,-24.04"/>
</a>
</g>
</g>
<!-- Node15&#45;&gt;Node12 -->
<g id="edge16_Node000015_Node000012" class="edge">
<title>Node15&#45;&gt;Node12</title>
<g id="a_edge16_Node000015_Node000012"><a xlink:title=" ">
<path fill="none" stroke="#63b8ff" d="M958.34,-109.98C971.09,-101.84 990.55,-89.41 1005.67,-79.76"/>
<polygon fill="#63b8ff" stroke="#63b8ff" points="1007.88,-82.5 1014.42,-74.17 1004.11,-76.6 1007.88,-82.5"/>
</a>
</g>
</g>
<!-- Node17 -->
<g id="Node000017" class="node">
<title>Node17</title>
<g id="a_Node000017"><a xlink:href="_counter___8h.html" target="_top" xlink:title=" ">
<polygon fill="white" stroke="#666666" points="933,-74 805,-74 805,-55 933,-55 933,-74"/>
<text text-anchor="middle" x="869" y="-62" font-family="Helvetica,sans-Serif" font-size="10.00">Cpl/System/Counter_.h</text>
</a>
</g>
</g>
<!-- Node16&#45;&gt;Node17 -->
<g id="edge18_Node000016_Node000017" class="edge">
<title>Node16&#45;&gt;Node17</title>
<g id="a_edge18_Node000016_Node000017"><a xlink:title=" ">
<path fill="none" stroke="#63b8ff" d="M1122.48,-109.98C1069.39,-100.67 984.31,-85.74 927.56,-75.78"/>
<polygon fill="#63b8ff" stroke="#63b8ff" points="928.11,-72.32 917.65,-74.04 926.9,-79.21 928.11,-72.32"/>
</a>
</g>
</g>
<!-- Node16&#45;&gt;Node18 -->
<g id="edge20_Node000016_Node000018" class="edge">
<title>Node16&#45;&gt;Node18</title>
<g id="a_edge20_Node000016_Node000018"><a xlink:title=" ">
<path fill="none" stroke="#63b8ff" d="M1171.17,-109.75C1171.3,-102.8 1171.48,-92.85 1171.65,-84.13"/>
<polygon fill="#63b8ff" stroke="#63b8ff" points="1175.15,-84.15 1171.84,-74.09 1168.15,-84.02 1175.15,-84.15"/>
</a>
</g>
</g>
<!-- Node17&#45;&gt;Node11 -->
<g id="edge19_Node000017_Node000011" class="edge">
<title>Node17&#45;&gt;Node11</title>
<g id="a_edge19_Node000017_Node000011"><a xlink:title=" ">
<path fill="none" stroke="#63b8ff" d="M819.35,-54.98C765.04,-45.67 677.98,-30.74 619.91,-20.78"/>
<polygon fill="#63b8ff" stroke="#63b8ff" points="620.23,-17.28 609.78,-19.04 619.04,-24.18 620.23,-17.28"/>
</a>
</g>
</g>
<!-- Node19&#45;&gt;Node3 -->
<g id="edge26_Node000019_Node000003" class="edge">
<title>Node19&#45;&gt;Node3</title>
<g id="a_edge26_Node000019_Node000003"><a xlink:title=" ">
<path fill="none" stroke="#63b8ff" d="M409.6,-164.98C377.69,-155.74 326.7,-140.98 292.31,-131.02"/>
<polygon fill="#63b8ff" stroke="#63b8ff" points="293.23,-127.64 282.65,-128.22 291.28,-134.36 293.23,-127.64"/>
</a>
</g>
</g>
<!-- Node19&#45;&gt;Node7 -->
<g id="edge23_Node000019_Node000007" class="edge">
<title>Node19&#45;&gt;Node7</title>
<g id="a_edge23_Node000019_Node000007"><a xlink:title=" ">
<path fill="none" stroke="#63b8ff" d="M460.69,-164.98C482.8,-156.3 517.32,-142.75 542.45,-132.88"/>
<polygon fill="#63b8ff" stroke="#63b8ff" points="543.89,-136.08 551.92,-129.17 541.33,-129.57 543.89,-136.08"/>
</a>
</g>
</g>
<!-- Node19&#45;&gt;Node9 -->
<g id="edge22_Node000019_Node000009" class="edge">
<title>Node19&#45;&gt;Node9</title>
<g id="a_edge22_Node000019_Node000009"><a xlink:title=" ">
<path fill="none" stroke="#63b8ff" d="M444.59,-164.92C454.16,-150.99 475.06,-123.65 500,-110 528.89,-94.18 614.65,-80.15 671.28,-72.25"/>
<polygon fill="#63b8ff" stroke="#63b8ff" points="672.06,-75.68 681.49,-70.85 671.11,-68.74 672.06,-75.68"/>
</a>
</g>
</g>
<!-- Node19&#45;&gt;Node10 -->
<g id="edge24_Node000019_Node000010" class="edge">
<title>Node19&#45;&gt;Node10</title>
<g id="a_edge24_Node000019_Node000010"><a xlink:title=" ">
<path fill="none" stroke="#63b8ff" d="M395.84,-164.99C356.46,-155.3 307.56,-137.2 330,-110 349.67,-86.16 427.03,-74.95 486.66,-69.76"/>
<polygon fill="#63b8ff" stroke="#63b8ff" points="487.14,-73.24 496.81,-68.93 486.56,-66.26 487.14,-73.24"/>
</a>
</g>
</g>
<!-- Node20 -->
<g id="Node000020" class="node">
<title>Node20</title>
<g id="a_Node000020"><a xlink:href="_traverser_8h.html" target="_top" xlink:title=" ">
<polygon fill="white" stroke="#666666" points="453,-129 339,-129 339,-110 453,-110 453,-129"/>
<text text-anchor="middle" x="396" y="-117" font-family="Helvetica,sans-Serif" font-size="10.00">Cpl/Type/Traverser.h</text>
</a>
</g>
</g>
<!-- Node19&#45;&gt;Node20 -->
<g id="edge25_Node000019_Node000020" class="edge">
<title>Node19&#45;&gt;Node20</title>
<g id="a_edge25_Node000019_Node000020"><a xlink:title=" ">
<path fill="none" stroke="#63b8ff" d="M431.9,-164.75C425.83,-157.26 416.91,-146.28 409.49,-137.13"/>
<polygon fill="#63b8ff" stroke="#63b8ff" points="411.99,-134.65 402.97,-129.09 406.55,-139.06 411.99,-134.65"/>
</a>
</g>
</g>
<!-- Node21&#45;&gt;Node11 -->
<g id="edge29_Node000021_Node000011" class="edge">
<title>Node21&#45;&gt;Node11</title>
<g id="a_edge29_Node000021_Node000011"><a xlink:title=" ">
<path fill="none" stroke="#63b8ff" d="M1249.25,-55.78C1246.46,-55.5 1243.7,-55.24 1241,-55 1017.47,-34.87 751.88,-20.17 628.86,-13.88"/>
<polygon fill="#63b8ff" stroke="#63b8ff" points="628.99,-10.38 618.83,-13.37 628.64,-17.37 628.99,-10.38"/>
</a>
</g>
</g>
<!-- Node21&#45;&gt;Node14 -->
<g id="edge30_Node000021_Node000014" class="edge">
<title>Node21&#45;&gt;Node14</title>
<g id="a_edge30_Node000021_Node000014"><a xlink:title=" ">
<path fill="none" stroke="#63b8ff" d="M1299.25,-54.98C1283.77,-46.61 1259.91,-33.7 1241.86,-23.95"/>
<polygon fill="#63b8ff" stroke="#63b8ff" points="1243.49,-20.85 1233.03,-19.17 1240.16,-27.01 1243.49,-20.85"/>
</a>
</g>
</g>
<!-- Node22&#45;&gt;Node21 -->
<g id="edge32_Node000022_Node000021" class="edge">
<title>Node22&#45;&gt;Node21</title>
<g id="a_edge32_Node000022_Node000021"><a xlink:title=" ">
<path fill="none" stroke="#63b8ff" d="M1405.9,-164.66C1389.28,-146.54 1351.13,-104.91 1329.91,-81.77"/>
<polygon fill="#63b8ff" stroke="#63b8ff" points="1332.27,-79.16 1322.94,-74.16 1327.11,-83.89 1332.27,-79.16"/>
</a>
</g>
</g>
<!-- Node23&#45;&gt;Node10 -->
<g id="edge39_Node000023_Node000010" class="edge">
<title>Node23&#45;&gt;Node10</title>
<g id="a_edge39_Node000023_Node000010"><a xlink:title=" ">
<path fill="none" stroke="#63b8ff" d="M142.59,-164.75C157.09,-150.58 187.98,-122.9 220,-110 266.96,-91.08 401.6,-77.66 486.69,-70.78"/>
<polygon fill="#63b8ff" stroke="#63b8ff" points="487.12,-74.25 496.81,-69.97 486.56,-67.28 487.12,-74.25"/>
</a>
</g>
</g>
<!-- Node24 -->
<g id="Node000024" class="node">
<title>Node24</title>
<g id="a_Node000024"><a xlink:href="_post_api_8h.html" target="_top" xlink:title=" ">
<polygon fill="white" stroke="#666666" points="173,-129 77,-129 77,-110 173,-110 173,-129"/>
<text text-anchor="middle" x="125" y="-117" font-family="Helvetica,sans-Serif" font-size="10.00">Cpl/Itc/PostApi.h</text>
</a>
</g>
</g>
<!-- Node23&#45;&gt;Node24 -->
<g id="edge34_Node000023_Node000024" class="edge">
<title>Node23&#45;&gt;Node24</title>
<g id="a_edge34_Node000023_Node000024"><a xlink:title=" ">
<path fill="none" stroke="#63b8ff" d="M132.51,-164.75C131.33,-157.8 129.64,-147.85 128.16,-139.13"/>
<polygon fill="#63b8ff" stroke="#63b8ff" points="131.58,-138.36 126.46,-129.09 124.68,-139.53 131.58,-138.36"/>
</a>
</g>
</g>
<!-- Node26 -->
<g id="Node000026" class="node">
<title>Node26</title>
<g id="a_Node000026"><a xlink:href="_s_list_8h.html" target="_top" xlink:title=" ">
<polygon fill="white" stroke="#666666" points="118,-74 0,-74 0,-55 118,-55 118,-74"/>
<text text-anchor="middle" x="59" y="-62" font-family="Helvetica,sans-Serif" font-size="10.00">Cpl/Container/SList.h</text>
</a>
</g>
</g>
<!-- Node23&#45;&gt;Node26 -->
<g id="edge37_Node000023_Node000026" class="edge">
<title>Node23&#45;&gt;Node26</title>
<g id="a_edge37_Node000023_Node000026"><a xlink:title=" ">
<path fill="none" stroke="#63b8ff" d="M112.9,-164.94C97.85,-157.67 78.48,-145.75 68,-129 59.69,-115.71 57.79,-97.84 57.77,-84.44"/>
<polygon fill="#63b8ff" stroke="#63b8ff" points="61.29,-84.16 58.13,-74.04 54.29,-83.92 61.29,-84.16"/>
</a>
</g>
</g>
<!-- Node25 -->
<g id="Node000025" class="node">
<title>Node25</title>
<g id="a_Node000025"><a xlink:href="_message_8h.html" target="_top" xlink:title=" ">
<polygon fill="white" stroke="#666666" points="398.5,-74 295.5,-74 295.5,-55 398.5,-55 398.5,-74"/>
<text text-anchor="middle" x="347" y="-62" font-family="Helvetica,sans-Serif" font-size="10.00">Cpl/Itc/Message.h</text>
</a>
</g>
</g>
<!-- Node24&#45;&gt;Node25 -->
<g id="edge35_Node000024_Node000025" class="edge">
<title>Node24&#45;&gt;Node25</title>
<g id="a_edge35_Node000024_Node000025"><a xlink:title=" ">
<path fill="none" stroke="#63b8ff" d="M160.67,-109.98C198.83,-100.87 259.47,-86.4 301.15,-76.45"/>
<polygon fill="#63b8ff" stroke="#63b8ff" points="302.14,-79.81 311.05,-74.08 300.51,-73 302.14,-79.81"/>
</a>
</g>
</g>
<!-- Node25&#45;&gt;Node11 -->
<g id="edge36_Node000025_Node000011" class="edge">
<title>Node25&#45;&gt;Node11</title>
<g id="a_edge36_Node000025_Node000011"><a xlink:title=" ">
<path fill="none" stroke="#63b8ff" d="M381.22,-54.98C417.76,-45.89 475.78,-31.46 515.76,-21.51"/>
<polygon fill="#63b8ff" stroke="#63b8ff" points="516.65,-24.89 525.51,-19.08 514.96,-18.1 516.65,-24.89"/>
</a>
</g>
</g>
<!-- Node26&#45;&gt;Node11 -->
<g id="edge38_Node000026_Node000011" class="edge">
<title>Node26&#45;&gt;Node11</title>
<g id="a_edge38_Node000026_Node000011"><a xlink:title=" ">
<path fill="none" stroke="#63b8ff" d="M118.44,-57.21C211.82,-47.33 392.4,-28.23 491.23,-17.77"/>
<polygon fill="#63b8ff" stroke="#63b8ff" points="491.84,-21.23 501.41,-16.7 491.1,-14.27 491.84,-21.23"/>
</a>
</g>
</g>
</g>
</svg>
