<?xml version="1.0" encoding="UTF-8" standalone="no"?>
<!DOCTYPE svg PUBLIC "-//W3C//DTD SVG 1.1//EN"
 "http://www.w3.org/Graphics/SVG/1.1/DTD/svg11.dtd">
<!-- Generated by graphviz version 2.43.0 (0)
 -->
<!-- Title: Cpl/TShell/Cmd/Command.h Pages: 1 -->
<svg width="767pt" height="412pt"
 viewBox="0.00 0.00 766.50 412.00" xmlns="http://www.w3.org/2000/svg" xmlns:xlink="http://www.w3.org/1999/xlink">
<g id="graph0" class="graph" transform="scale(1 1) rotate(0) translate(4 408)">
<title>Cpl/TShell/Cmd/Command.h</title>
<!-- Node1 -->
<g id="Node000001" class="node">
<title>Node1</title>
<g id="a_Node000001"><a xlink:title=" ">
<polygon fill="#999999" stroke="#666666" points="251.5,-404 98.5,-404 98.5,-385 251.5,-385 251.5,-404"/>
<text text-anchor="middle" x="175" y="-392" font-family="Helvetica,sans-Serif" font-size="10.00">Cpl/TShell/Cmd/Command.h</text>
</a>
</g>
</g>
<!-- Node2 -->
<g id="Node000002" class="node">
<title>Node2</title>
<g id="a_Node000002"><a xlink:title=" ">
<polygon fill="#e0e0e0" stroke="#999999" points="339,-19 247,-19 247,0 339,0 339,-19"/>
<text text-anchor="middle" x="293" y="-7" font-family="Helvetica,sans-Serif" font-size="10.00">colony_config.h</text>
</a>
</g>
</g>
<!-- Node1&#45;&gt;Node2 -->
<g id="edge1_Node000001_Node000002" class="edge">
<title>Node1&#45;&gt;Node2</title>
<g id="a_edge1_Node000001_Node000002"><a xlink:title=" ">
<path fill="none" stroke="#63b8ff" d="M125.79,-384.93C74.03,-372.75 0,-344.94 0,-285.5 0,-285.5 0,-285.5 0,-118.5 0,-68.55 151.79,-34.56 236.87,-19.42"/>
<polygon fill="#63b8ff" stroke="#63b8ff" points="237.65,-22.84 246.9,-17.67 236.44,-15.94 237.65,-22.84"/>
</a>
</g>
</g>
<!-- Node3 -->
<g id="Node000003" class="node">
<title>Node3</title>
<g id="a_Node000003"><a xlink:href="_command_8h.html" target="_top" xlink:title=" ">
<polygon fill="white" stroke="#666666" points="330,-294 202,-294 202,-275 330,-275 330,-294"/>
<text text-anchor="middle" x="266" y="-282" font-family="Helvetica,sans-Serif" font-size="10.00">Cpl/TShell/Command.h</text>
</a>
</g>
</g>
<!-- Node1&#45;&gt;Node3 -->
<g id="edge2_Node000001_Node000003" class="edge">
<title>Node1&#45;&gt;Node3</title>
<g id="a_edge2_Node000001_Node000003"><a xlink:title=" ">
<path fill="none" stroke="#63b8ff" d="M195.83,-384.95C211.41,-377.56 232.17,-365.47 245,-349 255.15,-335.98 260.5,-317.83 263.26,-304.27"/>
<polygon fill="#63b8ff" stroke="#63b8ff" points="266.75,-304.62 265.01,-294.17 259.85,-303.43 266.75,-304.62"/>
</a>
</g>
</g>
<!-- Node18 -->
<g id="Node000018" class="node">
<title>Node18</title>
<g id="a_Node000018"><a xlink:href="_context___8h.html" target="_top" xlink:title=" ">
<polygon fill="white" stroke="#666666" points="235.5,-349 114.5,-349 114.5,-330 235.5,-330 235.5,-349"/>
<text text-anchor="middle" x="175" y="-337" font-family="Helvetica,sans-Serif" font-size="10.00">Cpl/TShell/Context_.h</text>
</a>
</g>
</g>
<!-- Node1&#45;&gt;Node18 -->
<g id="edge21_Node000001_Node000018" class="edge">
<title>Node1&#45;&gt;Node18</title>
<g id="a_edge21_Node000001_Node000018"><a xlink:title=" ">
<path fill="none" stroke="#63b8ff" d="M175,-384.75C175,-377.8 175,-367.85 175,-359.13"/>
<polygon fill="#63b8ff" stroke="#63b8ff" points="178.5,-359.09 175,-349.09 171.5,-359.09 178.5,-359.09"/>
</a>
</g>
</g>
<!-- Node4 -->
<g id="Node000004" class="node">
<title>Node4</title>
<g id="a_Node000004"><a xlink:href="_item_8h.html" target="_top" xlink:title=" ">
<polygon fill="white" stroke="#666666" points="317.5,-129 200.5,-129 200.5,-110 317.5,-110 317.5,-129"/>
<text text-anchor="middle" x="259" y="-117" font-family="Helvetica,sans-Serif" font-size="10.00">Cpl/Container/Item.h</text>
</a>
</g>
</g>
<!-- Node3&#45;&gt;Node4 -->
<g id="edge3_Node000003_Node000004" class="edge">
<title>Node3&#45;&gt;Node4</title>
<g id="a_edge3_Node000003_Node000004"><a xlink:title=" ">
<path fill="none" stroke="#63b8ff" d="M265.62,-274.74C264.53,-249.31 261.34,-175.08 259.82,-139.69"/>
<polygon fill="#63b8ff" stroke="#63b8ff" points="263.3,-139.15 259.38,-129.31 256.31,-139.45 263.3,-139.15"/>
</a>
</g>
</g>
<!-- Node5 -->
<g id="Node000005" class="node">
<title>Node5</title>
<g id="a_Node000005"><a xlink:href="_output_8h.html" target="_top" xlink:title=" ">
<polygon fill="white" stroke="#666666" points="426.5,-239 337.5,-239 337.5,-220 426.5,-220 426.5,-239"/>
<text text-anchor="middle" x="382" y="-227" font-family="Helvetica,sans-Serif" font-size="10.00">Cpl/Io/Output.h</text>
</a>
</g>
</g>
<!-- Node3&#45;&gt;Node5 -->
<g id="edge4_Node000003_Node000005" class="edge">
<title>Node3&#45;&gt;Node5</title>
<g id="a_edge4_Node000003_Node000005"><a xlink:title=" ">
<path fill="none" stroke="#63b8ff" d="M284.64,-274.98C303.3,-266.46 332.25,-253.23 353.74,-243.41"/>
<polygon fill="#63b8ff" stroke="#63b8ff" points="355.38,-246.51 363.02,-239.17 352.47,-240.14 355.38,-246.51"/>
</a>
</g>
</g>
<!-- Node17 -->
<g id="Node000017" class="node">
<title>Node17</title>
<g id="a_Node000017"><a xlink:href="_security_8h.html" target="_top" xlink:title=" ">
<polygon fill="white" stroke="#666666" points="231,-239 115,-239 115,-220 231,-220 231,-239"/>
<text text-anchor="middle" x="173" y="-227" font-family="Helvetica,sans-Serif" font-size="10.00">Cpl/TShell/Security.h</text>
</a>
</g>
</g>
<!-- Node3&#45;&gt;Node17 -->
<g id="edge20_Node000003_Node000017" class="edge">
<title>Node3&#45;&gt;Node17</title>
<g id="a_edge20_Node000003_Node000017"><a xlink:title=" ">
<path fill="none" stroke="#63b8ff" d="M251.06,-274.98C236.5,-266.69 214.13,-253.94 197.07,-244.22"/>
<polygon fill="#63b8ff" stroke="#63b8ff" points="198.64,-241.08 188.21,-239.17 195.17,-247.16 198.64,-241.08"/>
</a>
</g>
</g>
<!-- Node6 -->
<g id="Node000006" class="node">
<title>Node6</title>
<g id="a_Node000006"><a xlink:href="_text_2_string_8h.html" target="_top" xlink:title=" ">
<polygon fill="white" stroke="#666666" points="623,-184 527,-184 527,-165 623,-165 623,-184"/>
<text text-anchor="middle" x="575" y="-172" font-family="Helvetica,sans-Serif" font-size="10.00">Cpl/Text/String.h</text>
</a>
</g>
</g>
<!-- Node5&#45;&gt;Node6 -->
<g id="edge5_Node000005_Node000006" class="edge">
<title>Node5&#45;&gt;Node6</title>
<g id="a_edge5_Node000005_Node000006"><a xlink:title=" ">
<path fill="none" stroke="#63b8ff" d="M413.01,-219.98C445.83,-210.97 497.8,-196.7 533.99,-186.76"/>
<polygon fill="#63b8ff" stroke="#63b8ff" points="535.03,-190.11 543.75,-184.08 533.18,-183.36 535.03,-190.11"/>
</a>
</g>
</g>
<!-- Node13 -->
<g id="Node000013" class="node">
<title>Node13</title>
<g id="a_Node000013"><a xlink:title=" ">
<polygon fill="#e0e0e0" stroke="#999999" points="431,-129 375,-129 375,-110 431,-110 431,-129"/>
<text text-anchor="middle" x="403" y="-117" font-family="Helvetica,sans-Serif" font-size="10.00">stdarg.h</text>
</a>
</g>
</g>
<!-- Node5&#45;&gt;Node13 -->
<g id="edge19_Node000005_Node000013" class="edge">
<title>Node5&#45;&gt;Node13</title>
<g id="a_edge19_Node000005_Node000013"><a xlink:title=" ">
<path fill="none" stroke="#63b8ff" d="M383.72,-219.66C387.12,-202.17 394.77,-162.8 399.35,-139.27"/>
<polygon fill="#63b8ff" stroke="#63b8ff" points="402.84,-139.64 401.32,-129.16 395.97,-138.31 402.84,-139.64"/>
</a>
</g>
</g>
<!-- Node15 -->
<g id="Node000015" class="node">
<title>Node15</title>
<g id="a_Node000015"><a xlink:href="_close_8h.html" target="_top" xlink:title=" ">
<polygon fill="white" stroke="#666666" points="370.5,-184 287.5,-184 287.5,-165 370.5,-165 370.5,-184"/>
<text text-anchor="middle" x="329" y="-172" font-family="Helvetica,sans-Serif" font-size="10.00">Cpl/Io/Close.h</text>
</a>
</g>
</g>
<!-- Node5&#45;&gt;Node15 -->
<g id="edge16_Node000005_Node000015" class="edge">
<title>Node5&#45;&gt;Node15</title>
<g id="a_edge16_Node000005_Node000015"><a xlink:title=" ">
<path fill="none" stroke="#63b8ff" d="M373.25,-219.75C365.53,-212.03 354.1,-200.6 344.78,-191.28"/>
<polygon fill="#63b8ff" stroke="#63b8ff" points="347.14,-188.69 337.59,-184.09 342.19,-193.64 347.14,-188.69"/>
</a>
</g>
</g>
<!-- Node16 -->
<g id="Node000016" class="node">
<title>Node16</title>
<g id="a_Node000016"><a xlink:href="_is_eos_8h.html" target="_top" xlink:title=" ">
<polygon fill="white" stroke="#666666" points="509,-184 427,-184 427,-165 509,-165 509,-184"/>
<text text-anchor="middle" x="468" y="-172" font-family="Helvetica,sans-Serif" font-size="10.00">Cpl/Io/IsEos.h</text>
</a>
</g>
</g>
<!-- Node5&#45;&gt;Node16 -->
<g id="edge18_Node000005_Node000016" class="edge">
<title>Node5&#45;&gt;Node16</title>
<g id="a_edge18_Node000005_Node000016"><a xlink:title=" ">
<path fill="none" stroke="#63b8ff" d="M395.82,-219.98C409.15,-211.77 429.58,-199.18 445.31,-189.49"/>
<polygon fill="#63b8ff" stroke="#63b8ff" points="447.25,-192.4 453.93,-184.17 443.58,-186.44 447.25,-192.4"/>
</a>
</g>
</g>
<!-- Node7 -->
<g id="Node000007" class="node">
<title>Node7</title>
<g id="a_Node000007"><a xlink:title=" ">
<polygon fill="#e0e0e0" stroke="#999999" points="467.5,-74 382.5,-74 382.5,-55 467.5,-55 467.5,-74"/>
<text text-anchor="middle" x="425" y="-62" font-family="Helvetica,sans-Serif" font-size="10.00">colony_map.h</text>
</a>
</g>
</g>
<!-- Node6&#45;&gt;Node7 -->
<g id="edge6_Node000006_Node000007" class="edge">
<title>Node6&#45;&gt;Node7</title>
<g id="a_edge6_Node000006_Node000007"><a xlink:title=" ">
<path fill="none" stroke="#63b8ff" d="M560.74,-164.84C546.61,-156.13 524.46,-142.15 506,-129 483.89,-113.26 459.51,-93.84 443.33,-80.66"/>
<polygon fill="#63b8ff" stroke="#63b8ff" points="445.2,-77.67 435.25,-74.03 440.76,-83.08 445.2,-77.67"/>
</a>
</g>
</g>
<!-- Node8 -->
<g id="Node000008" class="node">
<title>Node8</title>
<g id="a_Node000008"><a xlink:href="_key_8h.html" target="_top" xlink:title=" ">
<polygon fill="white" stroke="#666666" points="625.5,-129 514.5,-129 514.5,-110 625.5,-110 625.5,-129"/>
<text text-anchor="middle" x="570" y="-117" font-family="Helvetica,sans-Serif" font-size="10.00">Cpl/Container/Key.h</text>
</a>
</g>
</g>
<!-- Node6&#45;&gt;Node8 -->
<g id="edge7_Node000006_Node000008" class="edge">
<title>Node6&#45;&gt;Node8</title>
<g id="a_edge7_Node000006_Node000008"><a xlink:title=" ">
<path fill="none" stroke="#63b8ff" d="M574.17,-164.75C573.52,-157.8 572.58,-147.85 571.76,-139.13"/>
<polygon fill="#63b8ff" stroke="#63b8ff" points="575.23,-138.72 570.81,-129.09 568.27,-139.37 575.23,-138.72"/>
</a>
</g>
</g>
<!-- Node6&#45;&gt;Node13 -->
<g id="edge14_Node000006_Node000013" class="edge">
<title>Node6&#45;&gt;Node13</title>
<g id="a_edge14_Node000006_Node000013"><a xlink:title=" ">
<path fill="none" stroke="#63b8ff" d="M547.37,-164.98C518.49,-156.09 472.99,-142.07 440.8,-132.15"/>
<polygon fill="#63b8ff" stroke="#63b8ff" points="441.44,-128.68 430.85,-129.08 439.38,-135.37 441.44,-128.68"/>
</a>
</g>
</g>
<!-- Node14 -->
<g id="Node000014" class="node">
<title>Node14</title>
<g id="a_Node000014"><a xlink:title=" ">
<polygon fill="#e0e0e0" stroke="#999999" points="704,-129 644,-129 644,-110 704,-110 704,-129"/>
<text text-anchor="middle" x="674" y="-117" font-family="Helvetica,sans-Serif" font-size="10.00">iostream</text>
</a>
</g>
</g>
<!-- Node6&#45;&gt;Node14 -->
<g id="edge15_Node000006_Node000014" class="edge">
<title>Node6&#45;&gt;Node14</title>
<g id="a_edge15_Node000006_Node000014"><a xlink:title=" ">
<path fill="none" stroke="#63b8ff" d="M590.91,-164.98C606.55,-156.61 630.66,-143.7 648.88,-133.95"/>
<polygon fill="#63b8ff" stroke="#63b8ff" points="650.64,-136.98 657.8,-129.17 647.34,-130.8 650.64,-136.98"/>
</a>
</g>
</g>
<!-- Node8&#45;&gt;Node7 -->
<g id="edge13_Node000008_Node000007" class="edge">
<title>Node8&#45;&gt;Node7</title>
<g id="a_edge13_Node000008_Node000007"><a xlink:title=" ">
<path fill="none" stroke="#63b8ff" d="M546.7,-109.98C522.75,-101.23 485.22,-87.51 458.17,-77.62"/>
<polygon fill="#63b8ff" stroke="#63b8ff" points="459.31,-74.32 448.72,-74.17 456.91,-80.89 459.31,-74.32"/>
</a>
</g>
</g>
<!-- Node9 -->
<g id="Node000009" class="node">
<title>Node9</title>
<g id="a_Node000009"><a xlink:href="_fatal_error_8h.html" target="_top" xlink:title=" ">
<polygon fill="white" stroke="#666666" points="687,-74 557,-74 557,-55 687,-55 687,-74"/>
<text text-anchor="middle" x="622" y="-62" font-family="Helvetica,sans-Serif" font-size="10.00">Cpl/System/FatalError.h</text>
</a>
</g>
</g>
<!-- Node8&#45;&gt;Node9 -->
<g id="edge8_Node000008_Node000009" class="edge">
<title>Node8&#45;&gt;Node9</title>
<g id="a_edge8_Node000008_Node000009"><a xlink:title=" ">
<path fill="none" stroke="#63b8ff" d="M578.59,-109.75C586.16,-102.03 597.38,-90.6 606.51,-81.28"/>
<polygon fill="#63b8ff" stroke="#63b8ff" points="609.07,-83.68 613.57,-74.09 604.07,-78.78 609.07,-83.68"/>
</a>
</g>
</g>
<!-- Node11 -->
<g id="Node000011" class="node">
<title>Node11</title>
<g id="a_Node000011"><a xlink:title=" ">
<polygon fill="#e0e0e0" stroke="#999999" points="758.5,-74 705.5,-74 705.5,-55 758.5,-55 758.5,-74"/>
<text text-anchor="middle" x="732" y="-62" font-family="Helvetica,sans-Serif" font-size="10.00">stdint.h</text>
</a>
</g>
</g>
<!-- Node8&#45;&gt;Node11 -->
<g id="edge11_Node000008_Node000011" class="edge">
<title>Node8&#45;&gt;Node11</title>
<g id="a_edge11_Node000008_Node000011"><a xlink:title=" ">
<path fill="none" stroke="#63b8ff" d="M596.03,-109.98C623.11,-101.13 665.71,-87.19 696.01,-77.28"/>
<polygon fill="#63b8ff" stroke="#63b8ff" points="697.35,-80.52 705.77,-74.08 695.18,-73.87 697.35,-80.52"/>
</a>
</g>
</g>
<!-- Node12 -->
<g id="Node000012" class="node">
<title>Node12</title>
<g id="a_Node000012"><a xlink:title=" ">
<polygon fill="#e0e0e0" stroke="#999999" points="538.5,-74 485.5,-74 485.5,-55 538.5,-55 538.5,-74"/>
<text text-anchor="middle" x="512" y="-62" font-family="Helvetica,sans-Serif" font-size="10.00">string.h</text>
</a>
</g>
</g>
<!-- Node8&#45;&gt;Node12 -->
<g id="edge12_Node000008_Node000012" class="edge">
<title>Node8&#45;&gt;Node12</title>
<g id="a_edge12_Node000008_Node000012"><a xlink:title=" ">
<path fill="none" stroke="#63b8ff" d="M560.68,-109.98C552.19,-102.23 539.44,-90.58 529.12,-81.14"/>
<polygon fill="#63b8ff" stroke="#63b8ff" points="531.23,-78.33 521.49,-74.17 526.51,-83.5 531.23,-78.33"/>
</a>
</g>
</g>
<!-- Node9&#45;&gt;Node2 -->
<g id="edge10_Node000009_Node000002" class="edge">
<title>Node9&#45;&gt;Node2</title>
<g id="a_edge10_Node000009_Node000002"><a xlink:title=" ">
<path fill="none" stroke="#63b8ff" d="M569.14,-54.98C508.83,-45.27 410.62,-29.45 349.02,-19.52"/>
<polygon fill="#63b8ff" stroke="#63b8ff" points="349.52,-16.06 339.09,-17.92 348.4,-22.97 349.52,-16.06"/>
</a>
</g>
</g>
<!-- Node10 -->
<g id="Node000010" class="node">
<title>Node10</title>
<g id="a_Node000010"><a xlink:title=" ">
<polygon fill="#e0e0e0" stroke="#999999" points="650,-19 594,-19 594,0 650,0 650,-19"/>
<text text-anchor="middle" x="622" y="-7" font-family="Helvetica,sans-Serif" font-size="10.00">stddef.h</text>
</a>
</g>
</g>
<!-- Node9&#45;&gt;Node10 -->
<g id="edge9_Node000009_Node000010" class="edge">
<title>Node9&#45;&gt;Node10</title>
<g id="a_edge9_Node000009_Node000010"><a xlink:title=" ">
<path fill="none" stroke="#63b8ff" d="M622,-54.75C622,-47.8 622,-37.85 622,-29.13"/>
<polygon fill="#63b8ff" stroke="#63b8ff" points="625.5,-29.09 622,-19.09 618.5,-29.09 625.5,-29.09"/>
</a>
</g>
</g>
<!-- Node15&#45;&gt;Node4 -->
<g id="edge17_Node000015_Node000004" class="edge">
<title>Node15&#45;&gt;Node4</title>
<g id="a_edge17_Node000015_Node000004"><a xlink:title=" ">
<path fill="none" stroke="#63b8ff" d="M317.75,-164.98C307.2,-157 291.2,-144.88 278.56,-135.31"/>
<polygon fill="#63b8ff" stroke="#63b8ff" points="280.54,-132.42 270.45,-129.17 276.31,-138 280.54,-132.42"/>
</a>
</g>
</g>
<!-- Node18&#45;&gt;Node3 -->
<g id="edge29_Node000018_Node000003" class="edge">
<title>Node18&#45;&gt;Node3</title>
<g id="a_edge29_Node000018_Node000003"><a xlink:title=" ">
<path fill="none" stroke="#63b8ff" d="M189.62,-329.98C203.86,-321.69 225.75,-308.94 242.45,-299.22"/>
<polygon fill="#63b8ff" stroke="#63b8ff" points="244.23,-302.23 251.11,-294.17 240.71,-296.18 244.23,-302.23"/>
</a>
</g>
</g>
<!-- Node18&#45;&gt;Node17 -->
<g id="edge28_Node000018_Node000017" class="edge">
<title>Node18&#45;&gt;Node17</title>
<g id="a_edge28_Node000018_Node000017"><a xlink:title=" ">
<path fill="none" stroke="#63b8ff" d="M174.84,-329.66C174.51,-312.17 173.78,-272.8 173.35,-249.27"/>
<polygon fill="#63b8ff" stroke="#63b8ff" points="176.84,-249.09 173.16,-239.16 169.85,-249.22 176.84,-249.09"/>
</a>
</g>
</g>
<!-- Node19 -->
<g id="Node000019" class="node">
<title>Node19</title>
<g id="a_Node000019"><a xlink:href="_processor_api_8h.html" target="_top" xlink:title=" ">
<polygon fill="white" stroke="#666666" points="488,-294 348,-294 348,-275 488,-275 488,-294"/>
<text text-anchor="middle" x="418" y="-282" font-family="Helvetica,sans-Serif" font-size="10.00">Cpl/TShell/ProcessorApi.h</text>
</a>
</g>
</g>
<!-- Node18&#45;&gt;Node19 -->
<g id="edge22_Node000018_Node000019" class="edge">
<title>Node18&#45;&gt;Node19</title>
<g id="a_edge22_Node000018_Node000019"><a xlink:title=" ">
<path fill="none" stroke="#63b8ff" d="M214.04,-329.98C256.08,-320.82 323.04,-306.21 368.68,-296.26"/>
<polygon fill="#63b8ff" stroke="#63b8ff" points="369.63,-299.63 378.65,-294.08 368.14,-292.79 369.63,-299.63"/>
</a>
</g>
</g>
<!-- Node21 -->
<g id="Node000021" class="node">
<title>Node21</title>
<g id="a_Node000021"><a xlink:href="_s_list_8h.html" target="_top" xlink:title=" ">
<polygon fill="white" stroke="#666666" points="146,-294 28,-294 28,-275 146,-275 146,-294"/>
<text text-anchor="middle" x="87" y="-282" font-family="Helvetica,sans-Serif" font-size="10.00">Cpl/Container/SList.h</text>
</a>
</g>
</g>
<!-- Node18&#45;&gt;Node21 -->
<g id="edge30_Node000018_Node000021" class="edge">
<title>Node18&#45;&gt;Node21</title>
<g id="a_edge30_Node000018_Node000021"><a xlink:title=" ">
<path fill="none" stroke="#63b8ff" d="M160.86,-329.98C147.21,-321.77 126.31,-309.18 110.22,-299.49"/>
<polygon fill="#63b8ff" stroke="#63b8ff" points="111.77,-296.33 101.4,-294.17 108.16,-302.33 111.77,-296.33"/>
</a>
</g>
</g>
<!-- Node19&#45;&gt;Node5 -->
<g id="edge27_Node000019_Node000005" class="edge">
<title>Node19&#45;&gt;Node5</title>
<g id="a_edge27_Node000019_Node000005"><a xlink:title=" ">
<path fill="none" stroke="#63b8ff" d="M412.06,-274.75C407.02,-267.34 399.66,-256.5 393.49,-247.41"/>
<polygon fill="#63b8ff" stroke="#63b8ff" points="396.35,-245.39 387.83,-239.09 390.56,-249.33 396.35,-245.39"/>
</a>
</g>
</g>
<!-- Node20 -->
<g id="Node000020" class="node">
<title>Node20</title>
<g id="a_Node000020"><a xlink:href="_input_8h.html" target="_top" xlink:title=" ">
<polygon fill="white" stroke="#666666" points="525.5,-239 444.5,-239 444.5,-220 525.5,-220 525.5,-239"/>
<text text-anchor="middle" x="485" y="-227" font-family="Helvetica,sans-Serif" font-size="10.00">Cpl/Io/Input.h</text>
</a>
</g>
</g>
<!-- Node19&#45;&gt;Node20 -->
<g id="edge23_Node000019_Node000020" class="edge">
<title>Node19&#45;&gt;Node20</title>
<g id="a_edge23_Node000019_Node000020"><a xlink:title=" ">
<path fill="none" stroke="#63b8ff" d="M428.76,-274.98C438.77,-267.07 453.89,-255.11 465.93,-245.58"/>
<polygon fill="#63b8ff" stroke="#63b8ff" points="468.37,-248.12 474.04,-239.17 464.03,-242.63 468.37,-248.12"/>
</a>
</g>
</g>
<!-- Node20&#45;&gt;Node6 -->
<g id="edge24_Node000020_Node000006" class="edge">
<title>Node20&#45;&gt;Node6</title>
<g id="a_edge24_Node000020_Node000006"><a xlink:title=" ">
<path fill="none" stroke="#63b8ff" d="M499.46,-219.98C513.42,-211.77 534.79,-199.18 551.25,-189.49"/>
<polygon fill="#63b8ff" stroke="#63b8ff" points="553.44,-192.26 560.28,-184.17 549.88,-186.23 553.44,-192.26"/>
</a>
</g>
</g>
<!-- Node20&#45;&gt;Node15 -->
<g id="edge25_Node000020_Node000015" class="edge">
<title>Node20&#45;&gt;Node15</title>
<g id="a_edge25_Node000020_Node000015"><a xlink:title=" ">
<path fill="none" stroke="#63b8ff" d="M459.94,-219.98C433.97,-211.16 393.19,-197.31 364.04,-187.41"/>
<polygon fill="#63b8ff" stroke="#63b8ff" points="364.85,-183.99 354.26,-184.08 362.6,-190.61 364.85,-183.99"/>
</a>
</g>
</g>
<!-- Node20&#45;&gt;Node16 -->
<g id="edge26_Node000020_Node000016" class="edge">
<title>Node20&#45;&gt;Node16</title>
<g id="a_edge26_Node000020_Node000016"><a xlink:title=" ">
<path fill="none" stroke="#63b8ff" d="M482.19,-219.75C479.94,-212.72 476.7,-202.62 473.88,-193.84"/>
<polygon fill="#63b8ff" stroke="#63b8ff" points="477.14,-192.54 470.75,-184.09 470.48,-194.68 477.14,-192.54"/>
</a>
</g>
</g>
<!-- Node21&#45;&gt;Node4 -->
<g id="edge31_Node000021_Node000004" class="edge">
<title>Node21&#45;&gt;Node4</title>
<g id="a_edge31_Node000021_Node000004"><a xlink:title=" ">
<path fill="none" stroke="#63b8ff" d="M87.7,-274.85C89.14,-261.79 93.45,-236.77 106,-220 137.58,-177.8 192.73,-148.43 227.48,-133.03"/>
<polygon fill="#63b8ff" stroke="#63b8ff" points="228.9,-136.23 236.7,-129.06 226.13,-129.8 228.9,-136.23"/>
</a>
</g>
</g>
</g>
</svg>
