<?xml version="1.0" encoding="UTF-8" standalone="no"?>
<!DOCTYPE svg PUBLIC "-//W3C//DTD SVG 1.1//EN"
 "http://www.w3.org/Graphics/SVG/1.1/DTD/svg11.dtd">
<!-- Generated by graphviz version 2.43.0 (0)
 -->
<!-- Title: Cpl/TShell/Cmd/Command.h Pages: 1 -->
<svg width="2326pt" height="159pt"
 viewBox="0.00 0.00 2325.50 159.00" xmlns="http://www.w3.org/2000/svg" xmlns:xlink="http://www.w3.org/1999/xlink">
<g id="graph0" class="graph" transform="scale(1 1) rotate(0) translate(4 155)">
<title>Cpl/TShell/Cmd/Command.h</title>
<!-- Node1 -->
<g id="Node000001" class="node">
<title>Node1</title>
<g id="a_Node000001"><a xlink:title=" ">
<polygon fill="#999999" stroke="#666666" points="1225,-151 1072,-151 1072,-132 1225,-132 1225,-151"/>
<text text-anchor="middle" x="1148.5" y="-139" font-family="Helvetica,sans-Serif" font-size="10.00">Cpl/TShell/Cmd/Command.h</text>
</a>
</g>
</g>
<!-- Node2 -->
<g id="Node000002" class="node">
<title>Node2</title>
<g id="a_Node000002"><a xlink:href="_dm_8h.html" target="_top" xlink:title=" ">
<polygon fill="white" stroke="#666666" points="115,-90.5 0,-90.5 0,-71.5 115,-71.5 115,-90.5"/>
<text text-anchor="middle" x="57.5" y="-78.5" font-family="Helvetica,sans-Serif" font-size="10.00">Cpl/Dm/TShell/Dm.h</text>
</a>
</g>
</g>
<!-- Node1&#45;&gt;Node2 -->
<g id="edge1_Node000001_Node000002" class="edge">
<title>Node1&#45;&gt;Node2</title>
<g id="a_edge1_Node000001_Node000002"><a xlink:title=" ">
<path fill="none" stroke="#63b8ff" d="M1061.61,-138.58C848.44,-133.57 303.87,-118.89 123.5,-96 113.39,-94.72 102.53,-92.69 92.6,-90.57"/>
<polygon fill="#63b8ff" stroke="#63b8ff" points="1061.73,-142.08 1071.81,-138.82 1061.9,-135.09 1061.73,-142.08"/>
</a>
</g>
</g>
<!-- Node3 -->
<g id="Node000003" class="node">
<title>Node3</title>
<g id="a_Node000003"><a xlink:href="_fs_8h.html" target="_top" xlink:title=" ">
<polygon fill="white" stroke="#666666" points="234,-96 133,-96 133,-66 234,-66 234,-96"/>
<text text-anchor="start" x="141" y="-84" font-family="Helvetica,sans-Serif" font-size="10.00">Cpl/Io/File/Littlefs</text>
<text text-anchor="middle" x="183.5" y="-73" font-family="Helvetica,sans-Serif" font-size="10.00">/TShell/Fs.h</text>
</a>
</g>
</g>
<!-- Node1&#45;&gt;Node3 -->
<g id="edge2_Node000001_Node000003" class="edge">
<title>Node1&#45;&gt;Node3</title>
<g id="a_edge2_Node000001_Node000003"><a xlink:title=" ">
<path fill="none" stroke="#63b8ff" d="M1061.72,-138.27C866.77,-132.94 398.93,-118.21 242.5,-96 239.79,-95.62 237.02,-95.16 234.24,-94.66"/>
<polygon fill="#63b8ff" stroke="#63b8ff" points="1061.83,-141.78 1071.92,-138.55 1062.02,-134.78 1061.83,-141.78"/>
</a>
</g>
</g>
<!-- Node4 -->
<g id="Node000004" class="node">
<title>Node4</title>
<g id="a_Node000004"><a xlink:href="_log_8h.html" target="_top" xlink:title=" ">
<polygon fill="white" stroke="#666666" points="359,-96 252,-96 252,-66 359,-66 359,-96"/>
<text text-anchor="start" x="260" y="-84" font-family="Helvetica,sans-Serif" font-size="10.00">Cpl/Logging/TShell</text>
<text text-anchor="middle" x="305.5" y="-73" font-family="Helvetica,sans-Serif" font-size="10.00">/Log.h</text>
</a>
</g>
</g>
<!-- Node1&#45;&gt;Node4 -->
<g id="edge3_Node000001_Node000004" class="edge">
<title>Node1&#45;&gt;Node4</title>
<g id="a_edge3_Node000001_Node000004"><a xlink:title=" ">
<path fill="none" stroke="#63b8ff" d="M1061.85,-140.12C917.42,-138.46 618.6,-130.69 368.5,-96 365.39,-95.57 362.21,-95.06 359.01,-94.51"/>
<polygon fill="#63b8ff" stroke="#63b8ff" points="1061.95,-143.62 1071.98,-140.23 1062.02,-136.62 1061.95,-143.62"/>
</a>
</g>
</g>
<!-- Node5 -->
<g id="Node000005" class="node">
<title>Node5</title>
<g id="a_Node000005"><a xlink:href="_cpl_2_m_app_2_cmd_8h.html" target="_top" xlink:title=" ">
<polygon fill="white" stroke="#666666" points="475.5,-90.5 377.5,-90.5 377.5,-71.5 475.5,-71.5 475.5,-90.5"/>
<text text-anchor="middle" x="426.5" y="-78.5" font-family="Helvetica,sans-Serif" font-size="10.00">Cpl/MApp/Cmd.h</text>
</a>
</g>
</g>
<!-- Node1&#45;&gt;Node5 -->
<g id="edge4_Node000001_Node000005" class="edge">
<title>Node1&#45;&gt;Node5</title>
<g id="a_edge4_Node000001_Node000005"><a xlink:title=" ">
<path fill="none" stroke="#63b8ff" d="M1061.78,-139.38C934.5,-136.67 689.93,-127.44 484.5,-96 475.69,-94.65 466.26,-92.63 457.61,-90.54"/>
<polygon fill="#63b8ff" stroke="#63b8ff" points="1061.79,-142.88 1071.86,-139.58 1061.93,-135.88 1061.79,-142.88"/>
</a>
</g>
</g>
<!-- Node6 -->
<g id="Node000006" class="node">
<title>Node6</title>
<g id="a_Node000006"><a xlink:href="_bye_8h.html" target="_top" xlink:title=" ">
<polygon fill="white" stroke="#666666" points="615.5,-90.5 493.5,-90.5 493.5,-71.5 615.5,-71.5 615.5,-90.5"/>
<text text-anchor="middle" x="554.5" y="-78.5" font-family="Helvetica,sans-Serif" font-size="10.00">Cpl/TShell/Cmd/Bye.h</text>
</a>
</g>
</g>
<!-- Node1&#45;&gt;Node6 -->
<g id="edge5_Node000001_Node000006" class="edge">
<title>Node1&#45;&gt;Node6</title>
<g id="a_edge5_Node000001_Node000006"><a xlink:title=" ">
<path fill="none" stroke="#63b8ff" d="M1061.67,-136.13C957.46,-130.19 777.59,-117.74 624.5,-96 614.32,-94.55 603.38,-92.57 593.24,-90.56"/>
<polygon fill="#63b8ff" stroke="#63b8ff" points="1061.65,-139.63 1071.83,-136.7 1062.04,-132.64 1061.65,-139.63"/>
</a>
</g>
</g>
<!-- Node7 -->
<g id="Node000007" class="node">
<title>Node7</title>
<g id="a_Node000007"><a xlink:href="_help_8h.html" target="_top" xlink:title=" ">
<polygon fill="white" stroke="#666666" points="759,-90.5 634,-90.5 634,-71.5 759,-71.5 759,-90.5"/>
<text text-anchor="middle" x="696.5" y="-78.5" font-family="Helvetica,sans-Serif" font-size="10.00">Cpl/TShell/Cmd/Help.h</text>
</a>
</g>
</g>
<!-- Node1&#45;&gt;Node7 -->
<g id="edge6_Node000001_Node000007" class="edge">
<title>Node1&#45;&gt;Node7</title>
<g id="a_edge6_Node000001_Node000007"><a xlink:title=" ">
<path fill="none" stroke="#63b8ff" d="M1061.81,-132.33C984.42,-124.57 868.09,-111.77 767.5,-96 757.57,-94.44 746.91,-92.49 736.95,-90.55"/>
<polygon fill="#63b8ff" stroke="#63b8ff" points="1061.7,-135.84 1072,-133.35 1062.39,-128.87 1061.7,-135.84"/>
</a>
</g>
</g>
<!-- Node8 -->
<g id="Node000008" class="node">
<title>Node8</title>
<g id="a_Node000008"><a xlink:href="_t_print_8h.html" target="_top" xlink:title=" ">
<polygon fill="white" stroke="#666666" points="908,-90.5 777,-90.5 777,-71.5 908,-71.5 908,-90.5"/>
<text text-anchor="middle" x="842.5" y="-78.5" font-family="Helvetica,sans-Serif" font-size="10.00">Cpl/TShell/Cmd/TPrint.h</text>
</a>
</g>
</g>
<!-- Node1&#45;&gt;Node8 -->
<g id="edge7_Node000001_Node000008" class="edge">
<title>Node1&#45;&gt;Node8</title>
<g id="a_edge7_Node000001_Node000008"><a xlink:title=" ">
<path fill="none" stroke="#63b8ff" d="M1094.12,-130.1C1035.08,-118.82 941.92,-101.01 887.05,-90.52"/>
<polygon fill="#63b8ff" stroke="#63b8ff" points="1093.53,-133.55 1104,-131.99 1094.84,-126.68 1093.53,-133.55"/>
</a>
</g>
</g>
<!-- Node9 -->
<g id="Node000009" class="node">
<title>Node9</title>
<g id="a_Node000009"><a xlink:href="_threads_8h.html" target="_top" xlink:title=" ">
<polygon fill="white" stroke="#666666" points="1068.5,-90.5 926.5,-90.5 926.5,-71.5 1068.5,-71.5 1068.5,-90.5"/>
<text text-anchor="middle" x="997.5" y="-78.5" font-family="Helvetica,sans-Serif" font-size="10.00">Cpl/TShell/Cmd/Threads.h</text>
</a>
</g>
</g>
<!-- Node1&#45;&gt;Node9 -->
<g id="edge8_Node000001_Node000009" class="edge">
<title>Node1&#45;&gt;Node9</title>
<g id="a_edge8_Node000001_Node000009"><a xlink:title=" ">
<path fill="none" stroke="#63b8ff" d="M1117.21,-128.38C1088.02,-117.07 1045.22,-100.49 1019.48,-90.52"/>
<polygon fill="#63b8ff" stroke="#63b8ff" points="1115.95,-131.64 1126.54,-131.99 1118.48,-125.12 1115.95,-131.64"/>
</a>
</g>
</g>
<!-- Node12 -->
<g id="Node000012" class="node">
<title>Node12</title>
<g id="a_Node000012"><a xlink:href="_tick_8h.html" target="_top" xlink:title=" ">
<polygon fill="white" stroke="#666666" points="1210,-90.5 1087,-90.5 1087,-71.5 1210,-71.5 1210,-90.5"/>
<text text-anchor="middle" x="1148.5" y="-78.5" font-family="Helvetica,sans-Serif" font-size="10.00">Cpl/TShell/Cmd/Tick.h</text>
</a>
</g>
</g>
<!-- Node1&#45;&gt;Node12 -->
<g id="edge11_Node000001_Node000012" class="edge">
<title>Node1&#45;&gt;Node12</title>
<g id="a_edge11_Node000001_Node000012"><a xlink:title=" ">
<path fill="none" stroke="#63b8ff" d="M1148.5,-121.66C1148.5,-111.24 1148.5,-98.8 1148.5,-90.67"/>
<polygon fill="#63b8ff" stroke="#63b8ff" points="1145,-121.87 1148.5,-131.87 1152,-121.87 1145,-121.87"/>
</a>
</g>
</g>
<!-- Node13 -->
<g id="Node000013" class="node">
<title>Node13</title>
<g id="a_Node000013"><a xlink:href="_t_shell_2_cmd_2_trace_8h.html" target="_top" xlink:title=" ">
<polygon fill="white" stroke="#666666" points="1356.5,-90.5 1228.5,-90.5 1228.5,-71.5 1356.5,-71.5 1356.5,-90.5"/>
<text text-anchor="middle" x="1292.5" y="-78.5" font-family="Helvetica,sans-Serif" font-size="10.00">Cpl/TShell/Cmd/Trace.h</text>
</a>
</g>
</g>
<!-- Node1&#45;&gt;Node13 -->
<g id="edge12_Node000001_Node000013" class="edge">
<title>Node1&#45;&gt;Node13</title>
<g id="a_edge12_Node000001_Node000013"><a xlink:title=" ">
<path fill="none" stroke="#63b8ff" d="M1179.07,-128.08C1206.89,-116.78 1247.21,-100.4 1271.54,-90.52"/>
<polygon fill="#63b8ff" stroke="#63b8ff" points="1177.39,-124.99 1169.44,-131.99 1180.02,-131.47 1177.39,-124.99"/>
</a>
</g>
</g>
<!-- Node14 -->
<g id="Node000014" class="node">
<title>Node14</title>
<g id="a_Node000014"><a xlink:href="_user_8h.html" target="_top" xlink:title=" ">
<polygon fill="white" stroke="#666666" points="1500,-90.5 1375,-90.5 1375,-71.5 1500,-71.5 1500,-90.5"/>
<text text-anchor="middle" x="1437.5" y="-78.5" font-family="Helvetica,sans-Serif" font-size="10.00">Cpl/TShell/Cmd/User.h</text>
</a>
</g>
</g>
<!-- Node1&#45;&gt;Node14 -->
<g id="edge13_Node000001_Node000014" class="edge">
<title>Node1&#45;&gt;Node14</title>
<g id="a_edge13_Node000001_Node000014"><a xlink:title=" ">
<path fill="none" stroke="#63b8ff" d="M1200.56,-129.96C1256.34,-118.67 1343.82,-100.96 1395.43,-90.52"/>
<polygon fill="#63b8ff" stroke="#63b8ff" points="1199.63,-126.58 1190.52,-131.99 1201.02,-133.44 1199.63,-126.58"/>
</a>
</g>
</g>
<!-- Node15 -->
<g id="Node000015" class="node">
<title>Node15</title>
<g id="a_Node000015"><a xlink:href="_wait_8h.html" target="_top" xlink:title=" ">
<polygon fill="white" stroke="#666666" points="1643,-90.5 1518,-90.5 1518,-71.5 1643,-71.5 1643,-90.5"/>
<text text-anchor="middle" x="1580.5" y="-78.5" font-family="Helvetica,sans-Serif" font-size="10.00">Cpl/TShell/Cmd/Wait.h</text>
</a>
</g>
</g>
<!-- Node1&#45;&gt;Node15 -->
<g id="edge14_Node000001_Node000015" class="edge">
<title>Node1&#45;&gt;Node15</title>
<g id="a_edge14_Node000001_Node000015"><a xlink:title=" ">
<path fill="none" stroke="#63b8ff" d="M1235.24,-131.58C1308.52,-123.62 1416.15,-110.94 1509.5,-96 1519.42,-94.41 1530.08,-92.45 1540.04,-90.5"/>
<polygon fill="#63b8ff" stroke="#63b8ff" points="1234.7,-128.12 1225.14,-132.67 1235.45,-135.08 1234.7,-128.12"/>
</a>
</g>
</g>
<!-- Node16 -->
<g id="Node000016" class="node">
<title>Node16</title>
<g id="a_Node000016"><a xlink:href="_t_shell_2_random_8h.html" target="_top" xlink:title=" ">
<polygon fill="white" stroke="#666666" points="1776,-96 1661,-96 1661,-66 1776,-66 1776,-96"/>
<text text-anchor="start" x="1669" y="-84" font-family="Helvetica,sans-Serif" font-size="10.00">Driver/Crypto/TShell</text>
<text text-anchor="middle" x="1718.5" y="-73" font-family="Helvetica,sans-Serif" font-size="10.00">/Random.h</text>
</a>
</g>
</g>
<!-- Node1&#45;&gt;Node16 -->
<g id="edge15_Node000001_Node000016" class="edge">
<title>Node1&#45;&gt;Node16</title>
<g id="a_edge15_Node000001_Node000016"><a xlink:title=" ">
<path fill="none" stroke="#63b8ff" d="M1235.39,-136.03C1336.13,-130.11 1506.99,-117.78 1652.5,-96 1655.28,-95.58 1658.12,-95.12 1660.98,-94.63"/>
<polygon fill="#63b8ff" stroke="#63b8ff" points="1235.04,-132.54 1225.26,-136.62 1235.45,-139.53 1235.04,-132.54"/>
</a>
</g>
</g>
<!-- Node17 -->
<g id="Node000017" class="node">
<title>Node17</title>
<g id="a_Node000017"><a xlink:href="_in_out_cmd_8h.html" target="_top" xlink:title=" ">
<polygon fill="white" stroke="#666666" points="1897,-96 1794,-96 1794,-66 1897,-66 1897,-96"/>
<text text-anchor="start" x="1802" y="-84" font-family="Helvetica,sans-Serif" font-size="10.00">Driver/DIO/_tshell</text>
<text text-anchor="middle" x="1845.5" y="-73" font-family="Helvetica,sans-Serif" font-size="10.00">/InOutCmd.h</text>
</a>
</g>
</g>
<!-- Node1&#45;&gt;Node17 -->
<g id="edge16_Node000001_Node000017" class="edge">
<title>Node1&#45;&gt;Node17</title>
<g id="a_edge16_Node000001_Node000017"><a xlink:title=" ">
<path fill="none" stroke="#63b8ff" d="M1235.53,-138.81C1358.64,-135.42 1590.37,-125.39 1785.5,-96 1788.25,-95.59 1791.06,-95.11 1793.89,-94.59"/>
<polygon fill="#63b8ff" stroke="#63b8ff" points="1235.32,-135.31 1225.41,-139.08 1235.5,-142.31 1235.32,-135.31"/>
</a>
</g>
</g>
<!-- Node18 -->
<g id="Node000018" class="node">
<title>Node18</title>
<g id="a_Node000018"><a xlink:href="_driver_2_n_v_2__tshell_2_cmd_8h.html" target="_top" xlink:title=" ">
<polygon fill="white" stroke="#666666" points="2049.5,-90.5 1915.5,-90.5 1915.5,-71.5 2049.5,-71.5 2049.5,-90.5"/>
<text text-anchor="middle" x="1982.5" y="-78.5" font-family="Helvetica,sans-Serif" font-size="10.00">Driver/NV/_tshell/Cmd.h</text>
</a>
</g>
</g>
<!-- Node1&#45;&gt;Node18 -->
<g id="edge17_Node000001_Node000018" class="edge">
<title>Node1&#45;&gt;Node18</title>
<g id="a_edge17_Node000001_Node000018"><a xlink:title=" ">
<path fill="none" stroke="#63b8ff" d="M1235.5,-138.88C1376.75,-135.47 1664.56,-125.27 1906.5,-96 1917.82,-94.63 1930,-92.63 1941.23,-90.56"/>
<polygon fill="#63b8ff" stroke="#63b8ff" points="1235.08,-135.39 1225.17,-139.13 1235.25,-142.39 1235.08,-135.39"/>
</a>
</g>
</g>
<!-- Node19 -->
<g id="Node000019" class="node">
<title>Node19</title>
<g id="a_Node000019"><a xlink:href="_driver_2_r_h_temp_2__tshell_2_cmd_8h.html" target="_top" xlink:title=" ">
<polygon fill="white" stroke="#666666" points="2193,-96 2068,-96 2068,-66 2193,-66 2193,-96"/>
<text text-anchor="start" x="2076" y="-84" font-family="Helvetica,sans-Serif" font-size="10.00">Driver/RHTemp/_tshell</text>
<text text-anchor="middle" x="2130.5" y="-73" font-family="Helvetica,sans-Serif" font-size="10.00">/Cmd.h</text>
</a>
</g>
</g>
<!-- Node1&#45;&gt;Node19 -->
<g id="edge18_Node000001_Node000019" class="edge">
<title>Node1&#45;&gt;Node19</title>
<g id="a_edge18_Node000001_Node000019"><a xlink:title=" ">
<path fill="none" stroke="#63b8ff" d="M1235.62,-140.38C1398.05,-139.24 1757.91,-132.38 2058.5,-96 2061.53,-95.63 2064.63,-95.21 2067.76,-94.75"/>
<polygon fill="#63b8ff" stroke="#63b8ff" points="1235.19,-136.88 1225.21,-140.45 1235.23,-143.88 1235.19,-136.88"/>
</a>
</g>
</g>
<!-- Node20 -->
<g id="Node000020" class="node">
<title>Node20</title>
<g id="a_Node000020"><a xlink:href="_wifi_8h.html" target="_top" xlink:title=" ">
<polygon fill="white" stroke="#666666" points="2317.5,-96 2211.5,-96 2211.5,-66 2317.5,-66 2317.5,-96"/>
<text text-anchor="start" x="2219.5" y="-84" font-family="Helvetica,sans-Serif" font-size="10.00">Driver/Wifi/Station</text>
<text text-anchor="middle" x="2264.5" y="-73" font-family="Helvetica,sans-Serif" font-size="10.00">/TShell/Wifi.h</text>
</a>
</g>
</g>
<!-- Node1&#45;&gt;Node20 -->
<g id="edge19_Node000001_Node000020" class="edge">
<title>Node1&#45;&gt;Node20</title>
<g id="a_edge19_Node000001_Node000020"><a xlink:title=" ">
<path fill="none" stroke="#63b8ff" d="M1235.18,-138.85C1452.5,-134.39 2016.41,-120.73 2202.5,-96 2205.34,-95.62 2208.25,-95.18 2211.18,-94.68"/>
<polygon fill="#63b8ff" stroke="#63b8ff" points="1235.03,-135.35 1225.1,-139.06 1235.17,-142.35 1235.03,-135.35"/>
</a>
</g>
</g>
<!-- Node10 -->
<g id="Node000010" class="node">
<title>Node10</title>
<g id="a_Node000010"><a xlink:href="_free_r_t_o_s_2_threads_8h.html" target="_top" xlink:title=" ">
<polygon fill="white" stroke="#666666" points="991.5,-30 851.5,-30 851.5,0 991.5,0 991.5,-30"/>
<text text-anchor="start" x="859.5" y="-18" font-family="Helvetica,sans-Serif" font-size="10.00">Cpl/TShell/Cmd/FreeRTOS</text>
<text text-anchor="middle" x="921.5" y="-7" font-family="Helvetica,sans-Serif" font-size="10.00">/Threads.h</text>
</a>
</g>
</g>
<!-- Node9&#45;&gt;Node10 -->
<g id="edge9_Node000009_Node000010" class="edge">
<title>Node9&#45;&gt;Node10</title>
<g id="a_edge9_Node000009_Node000010"><a xlink:title=" ">
<path fill="none" stroke="#63b8ff" d="M979.35,-64.71C966.87,-54.21 950.43,-40.36 938.26,-30.12"/>
<polygon fill="#63b8ff" stroke="#63b8ff" points="977.35,-67.6 987.25,-71.37 981.86,-62.25 977.35,-67.6"/>
</a>
</g>
</g>
<!-- Node11 -->
<g id="Node000011" class="node">
<title>Node11</title>
<g id="a_Node000011"><a xlink:href="_win32_2_threads_8h.html" target="_top" xlink:title=" ">
<polygon fill="white" stroke="#666666" points="1135,-30 1010,-30 1010,0 1135,0 1135,-30"/>
<text text-anchor="start" x="1018" y="-18" font-family="Helvetica,sans-Serif" font-size="10.00">Cpl/TShell/Cmd/Win32</text>
<text text-anchor="middle" x="1072.5" y="-7" font-family="Helvetica,sans-Serif" font-size="10.00">/Threads.h</text>
</a>
</g>
</g>
<!-- Node9&#45;&gt;Node11 -->
<g id="edge10_Node000009_Node000011" class="edge">
<title>Node9&#45;&gt;Node11</title>
<g id="a_edge10_Node000009_Node000011"><a xlink:title=" ">
<path fill="none" stroke="#63b8ff" d="M1015.41,-64.71C1027.72,-54.21 1043.95,-40.36 1055.96,-30.12"/>
<polygon fill="#63b8ff" stroke="#63b8ff" points="1012.95,-62.22 1007.61,-71.37 1017.49,-67.54 1012.95,-62.22"/>
</a>
</g>
</g>
</g>
</svg>
