<?xml version="1.0" encoding="UTF-8" standalone="no"?>
<!DOCTYPE svg PUBLIC "-//W3C//DTD SVG 1.1//EN"
 "http://www.w3.org/Graphics/SVG/1.1/DTD/svg11.dtd">
<!-- Generated by graphviz version 2.43.0 (0)
 -->
<!-- Title: Cpl/TShell/Context_.h Pages: 1 -->
<svg width="2624pt" height="214pt"
 viewBox="0.00 0.00 2623.50 214.00" xmlns="http://www.w3.org/2000/svg" xmlns:xlink="http://www.w3.org/1999/xlink">
<g id="graph0" class="graph" transform="scale(1 1) rotate(0) translate(4 210)">
<title>Cpl/TShell/Context_.h</title>
<!-- Node1 -->
<g id="Node000001" class="node">
<title>Node1</title>
<g id="a_Node000001"><a xlink:title=" ">
<polygon fill="#999999" stroke="#666666" points="1829,-206 1708,-206 1708,-187 1829,-187 1829,-206"/>
<text text-anchor="middle" x="1768.5" y="-194" font-family="Helvetica,sans-Serif" font-size="10.00">Cpl/TShell/Context_.h</text>
</a>
</g>
</g>
<!-- Node2 -->
<g id="Node000002" class="node">
<title>Node2</title>
<g id="a_Node000002"><a xlink:href="_cmd_2_command_8h.html" target="_top" xlink:title=" ">
<polygon fill="white" stroke="#666666" points="1297,-151 1144,-151 1144,-132 1297,-132 1297,-151"/>
<text text-anchor="middle" x="1220.5" y="-139" font-family="Helvetica,sans-Serif" font-size="10.00">Cpl/TShell/Cmd/Command.h</text>
</a>
</g>
</g>
<!-- Node1&#45;&gt;Node2 -->
<g id="edge1_Node000001_Node000002" class="edge">
<title>Node1&#45;&gt;Node2</title>
<g id="a_edge1_Node000001_Node000002"><a xlink:title=" ">
<path fill="none" stroke="#63b8ff" d="M1697.76,-188.66C1594.63,-178.68 1403.76,-160.22 1297.31,-149.93"/>
<polygon fill="#63b8ff" stroke="#63b8ff" points="1697.47,-192.15 1707.76,-189.63 1698.14,-185.18 1697.47,-192.15"/>
</a>
</g>
</g>
<!-- Node22 -->
<g id="Node000022" class="node">
<title>Node22</title>
<g id="a_Node000022"><a xlink:href="_processor_8h.html" target="_top" xlink:title=" ">
<polygon fill="white" stroke="#666666" points="2451.5,-151 2327.5,-151 2327.5,-132 2451.5,-132 2451.5,-151"/>
<text text-anchor="middle" x="2389.5" y="-139" font-family="Helvetica,sans-Serif" font-size="10.00">Cpl/TShell/Processor.h</text>
</a>
</g>
</g>
<!-- Node1&#45;&gt;Node22 -->
<g id="edge21_Node000001_Node000022" class="edge">
<title>Node1&#45;&gt;Node22</title>
<g id="a_edge21_Node000001_Node000022"><a xlink:title=" ">
<path fill="none" stroke="#63b8ff" d="M1839.19,-189.47C1961.56,-179.02 2210.91,-157.74 2327.2,-147.82"/>
<polygon fill="#63b8ff" stroke="#63b8ff" points="1838.84,-185.98 1829.17,-190.32 1839.44,-192.96 1838.84,-185.98"/>
</a>
</g>
</g>
<!-- Node3 -->
<g id="Node000003" class="node">
<title>Node3</title>
<g id="a_Node000003"><a xlink:href="_dm_8h.html" target="_top" xlink:title=" ">
<polygon fill="white" stroke="#666666" points="115,-90.5 0,-90.5 0,-71.5 115,-71.5 115,-90.5"/>
<text text-anchor="middle" x="57.5" y="-78.5" font-family="Helvetica,sans-Serif" font-size="10.00">Cpl/Dm/TShell/Dm.h</text>
</a>
</g>
</g>
<!-- Node2&#45;&gt;Node3 -->
<g id="edge2_Node000002_Node000003" class="edge">
<title>Node2&#45;&gt;Node3</title>
<g id="a_edge2_Node000002_Node000003"><a xlink:title=" ">
<path fill="none" stroke="#63b8ff" d="M1133.87,-138.87C910.4,-134.37 318.38,-120.44 123.5,-96 113.27,-94.72 102.28,-92.66 92.25,-90.52"/>
<polygon fill="#63b8ff" stroke="#63b8ff" points="1133.84,-142.37 1143.91,-139.07 1133.98,-135.37 1133.84,-142.37"/>
</a>
</g>
</g>
<!-- Node4 -->
<g id="Node000004" class="node">
<title>Node4</title>
<g id="a_Node000004"><a xlink:href="_fs_8h.html" target="_top" xlink:title=" ">
<polygon fill="white" stroke="#666666" points="234,-96 133,-96 133,-66 234,-66 234,-96"/>
<text text-anchor="start" x="141" y="-84" font-family="Helvetica,sans-Serif" font-size="10.00">Cpl/Io/File/Littlefs</text>
<text text-anchor="middle" x="183.5" y="-73" font-family="Helvetica,sans-Serif" font-size="10.00">/TShell/Fs.h</text>
</a>
</g>
</g>
<!-- Node2&#45;&gt;Node4 -->
<g id="edge3_Node000002_Node000004" class="edge">
<title>Node2&#45;&gt;Node4</title>
<g id="a_edge3_Node000002_Node000004"><a xlink:title=" ">
<path fill="none" stroke="#63b8ff" d="M1133.54,-138.63C927.32,-133.87 413.2,-119.92 242.5,-96 239.79,-95.62 237.02,-95.17 234.23,-94.68"/>
<polygon fill="#63b8ff" stroke="#63b8ff" points="1133.64,-142.14 1143.72,-138.87 1133.8,-135.14 1133.64,-142.14"/>
</a>
</g>
</g>
<!-- Node5 -->
<g id="Node000005" class="node">
<title>Node5</title>
<g id="a_Node000005"><a xlink:href="_log_8h.html" target="_top" xlink:title=" ">
<polygon fill="white" stroke="#666666" points="359,-96 252,-96 252,-66 359,-66 359,-96"/>
<text text-anchor="start" x="260" y="-84" font-family="Helvetica,sans-Serif" font-size="10.00">Cpl/Logging/TShell</text>
<text text-anchor="middle" x="305.5" y="-73" font-family="Helvetica,sans-Serif" font-size="10.00">/Log.h</text>
</a>
</g>
</g>
<!-- Node2&#45;&gt;Node5 -->
<g id="edge4_Node000002_Node000005" class="edge">
<title>Node2&#45;&gt;Node5</title>
<g id="a_edge4_Node000002_Node000005"><a xlink:title=" ">
<path fill="none" stroke="#63b8ff" d="M1133.35,-140.72C978.62,-140.05 646.11,-133.83 368.5,-96 365.39,-95.58 362.21,-95.08 359.01,-94.53"/>
<polygon fill="#63b8ff" stroke="#63b8ff" points="1133.71,-144.22 1143.73,-140.76 1133.74,-137.22 1133.71,-144.22"/>
</a>
</g>
</g>
<!-- Node6 -->
<g id="Node000006" class="node">
<title>Node6</title>
<g id="a_Node000006"><a xlink:href="_cpl_2_m_app_2_cmd_8h.html" target="_top" xlink:title=" ">
<polygon fill="white" stroke="#666666" points="475.5,-90.5 377.5,-90.5 377.5,-71.5 475.5,-71.5 475.5,-90.5"/>
<text text-anchor="middle" x="426.5" y="-78.5" font-family="Helvetica,sans-Serif" font-size="10.00">Cpl/MApp/Cmd.h</text>
</a>
</g>
</g>
<!-- Node2&#45;&gt;Node6 -->
<g id="edge5_Node000002_Node000006" class="edge">
<title>Node2&#45;&gt;Node6</title>
<g id="a_edge5_Node000002_Node000006"><a xlink:title=" ">
<path fill="none" stroke="#63b8ff" d="M1133.64,-140.19C995.44,-138.6 717.31,-130.86 484.5,-96 475.59,-94.67 466.03,-92.62 457.3,-90.5"/>
<polygon fill="#63b8ff" stroke="#63b8ff" points="1133.71,-143.69 1143.75,-140.3 1133.79,-136.7 1133.71,-143.69"/>
</a>
</g>
</g>
<!-- Node7 -->
<g id="Node000007" class="node">
<title>Node7</title>
<g id="a_Node000007"><a xlink:href="_bye_8h.html" target="_top" xlink:title=" ">
<polygon fill="white" stroke="#666666" points="615.5,-90.5 493.5,-90.5 493.5,-71.5 615.5,-71.5 615.5,-90.5"/>
<text text-anchor="middle" x="554.5" y="-78.5" font-family="Helvetica,sans-Serif" font-size="10.00">Cpl/TShell/Cmd/Bye.h</text>
</a>
</g>
</g>
<!-- Node2&#45;&gt;Node7 -->
<g id="edge6_Node000002_Node000007" class="edge">
<title>Node2&#45;&gt;Node7</title>
<g id="a_edge6_Node000002_Node000007"><a xlink:title=" ">
<path fill="none" stroke="#63b8ff" d="M1133.71,-137.36C1017.37,-132.4 804.62,-120.64 624.5,-96 614.19,-94.59 603.1,-92.6 592.87,-90.56"/>
<polygon fill="#63b8ff" stroke="#63b8ff" points="1133.84,-140.87 1143.98,-137.8 1134.13,-133.88 1133.84,-140.87"/>
</a>
</g>
</g>
<!-- Node8 -->
<g id="Node000008" class="node">
<title>Node8</title>
<g id="a_Node000008"><a xlink:href="_help_8h.html" target="_top" xlink:title=" ">
<polygon fill="white" stroke="#666666" points="759,-90.5 634,-90.5 634,-71.5 759,-71.5 759,-90.5"/>
<text text-anchor="middle" x="696.5" y="-78.5" font-family="Helvetica,sans-Serif" font-size="10.00">Cpl/TShell/Cmd/Help.h</text>
</a>
</g>
</g>
<!-- Node2&#45;&gt;Node8 -->
<g id="edge7_Node000002_Node000008" class="edge">
<title>Node2&#45;&gt;Node8</title>
<g id="a_edge7_Node000002_Node000008"><a xlink:title=" ">
<path fill="none" stroke="#63b8ff" d="M1133.64,-134.48C1042.23,-127.55 894.29,-114.68 767.5,-96 757.31,-94.5 746.36,-92.52 736.19,-90.53"/>
<polygon fill="#63b8ff" stroke="#63b8ff" points="1133.44,-137.97 1143.68,-135.23 1133.97,-130.99 1133.44,-137.97"/>
</a>
</g>
</g>
<!-- Node9 -->
<g id="Node000009" class="node">
<title>Node9</title>
<g id="a_Node000009"><a xlink:href="_t_print_8h.html" target="_top" xlink:title=" ">
<polygon fill="white" stroke="#666666" points="908,-90.5 777,-90.5 777,-71.5 908,-71.5 908,-90.5"/>
<text text-anchor="middle" x="842.5" y="-78.5" font-family="Helvetica,sans-Serif" font-size="10.00">Cpl/TShell/Cmd/TPrint.h</text>
</a>
</g>
</g>
<!-- Node2&#45;&gt;Node9 -->
<g id="edge8_Node000002_Node000009" class="edge">
<title>Node2&#45;&gt;Node9</title>
<g id="a_edge8_Node000002_Node000009"><a xlink:title=" ">
<path fill="none" stroke="#63b8ff" d="M1147.44,-130.58C1085.99,-122.04 995.87,-109.06 917.5,-96 907.44,-94.32 896.65,-92.39 886.47,-90.5"/>
<polygon fill="#63b8ff" stroke="#63b8ff" points="1147.04,-134.06 1157.42,-131.96 1148,-127.12 1147.04,-134.06"/>
</a>
</g>
</g>
<!-- Node10 -->
<g id="Node000010" class="node">
<title>Node10</title>
<g id="a_Node000010"><a xlink:href="_threads_8h.html" target="_top" xlink:title=" ">
<polygon fill="white" stroke="#666666" points="1068.5,-90.5 926.5,-90.5 926.5,-71.5 1068.5,-71.5 1068.5,-90.5"/>
<text text-anchor="middle" x="997.5" y="-78.5" font-family="Helvetica,sans-Serif" font-size="10.00">Cpl/TShell/Cmd/Threads.h</text>
</a>
</g>
</g>
<!-- Node2&#45;&gt;Node10 -->
<g id="edge9_Node000002_Node000010" class="edge">
<title>Node2&#45;&gt;Node10</title>
<g id="a_edge9_Node000002_Node000010"><a xlink:title=" ">
<path fill="none" stroke="#63b8ff" d="M1178.17,-129.4C1135.05,-118.08 1069.12,-100.79 1029.97,-90.52"/>
<polygon fill="#63b8ff" stroke="#63b8ff" points="1177.51,-132.84 1188.07,-131.99 1179.29,-126.07 1177.51,-132.84"/>
</a>
</g>
</g>
<!-- Node13 -->
<g id="Node000013" class="node">
<title>Node13</title>
<g id="a_Node000013"><a xlink:href="_tick_8h.html" target="_top" xlink:title=" ">
<polygon fill="white" stroke="#666666" points="1210,-90.5 1087,-90.5 1087,-71.5 1210,-71.5 1210,-90.5"/>
<text text-anchor="middle" x="1148.5" y="-78.5" font-family="Helvetica,sans-Serif" font-size="10.00">Cpl/TShell/Cmd/Tick.h</text>
</a>
</g>
</g>
<!-- Node2&#45;&gt;Node13 -->
<g id="edge12_Node000002_Node000013" class="edge">
<title>Node2&#45;&gt;Node13</title>
<g id="a_edge12_Node000002_Node000013"><a xlink:title=" ">
<path fill="none" stroke="#63b8ff" d="M1202.08,-125.54C1188.49,-114.49 1170.46,-99.84 1159.17,-90.67"/>
<polygon fill="#63b8ff" stroke="#63b8ff" points="1199.91,-128.28 1209.88,-131.87 1204.32,-122.85 1199.91,-128.28"/>
</a>
</g>
</g>
<!-- Node14 -->
<g id="Node000014" class="node">
<title>Node14</title>
<g id="a_Node000014"><a xlink:href="_t_shell_2_cmd_2_trace_8h.html" target="_top" xlink:title=" ">
<polygon fill="white" stroke="#666666" points="1356.5,-90.5 1228.5,-90.5 1228.5,-71.5 1356.5,-71.5 1356.5,-90.5"/>
<text text-anchor="middle" x="1292.5" y="-78.5" font-family="Helvetica,sans-Serif" font-size="10.00">Cpl/TShell/Cmd/Trace.h</text>
</a>
</g>
</g>
<!-- Node2&#45;&gt;Node14 -->
<g id="edge13_Node000002_Node000014" class="edge">
<title>Node2&#45;&gt;Node14</title>
<g id="a_edge13_Node000002_Node000014"><a xlink:title=" ">
<path fill="none" stroke="#63b8ff" d="M1238.92,-125.54C1252.51,-114.49 1270.54,-99.84 1281.83,-90.67"/>
<polygon fill="#63b8ff" stroke="#63b8ff" points="1236.68,-122.85 1231.12,-131.87 1241.09,-128.28 1236.68,-122.85"/>
</a>
</g>
</g>
<!-- Node15 -->
<g id="Node000015" class="node">
<title>Node15</title>
<g id="a_Node000015"><a xlink:href="_user_8h.html" target="_top" xlink:title=" ">
<polygon fill="white" stroke="#666666" points="1500,-90.5 1375,-90.5 1375,-71.5 1500,-71.5 1500,-90.5"/>
<text text-anchor="middle" x="1437.5" y="-78.5" font-family="Helvetica,sans-Serif" font-size="10.00">Cpl/TShell/Cmd/User.h</text>
</a>
</g>
</g>
<!-- Node2&#45;&gt;Node15 -->
<g id="edge14_Node000002_Node000015" class="edge">
<title>Node2&#45;&gt;Node15</title>
<g id="a_edge14_Node000002_Node000015"><a xlink:title=" ">
<path fill="none" stroke="#63b8ff" d="M1261.96,-129.32C1303.92,-118.01 1367.88,-100.77 1405.91,-90.52"/>
<polygon fill="#63b8ff" stroke="#63b8ff" points="1260.8,-126.01 1252.05,-131.99 1262.62,-132.77 1260.8,-126.01"/>
</a>
</g>
</g>
<!-- Node16 -->
<g id="Node000016" class="node">
<title>Node16</title>
<g id="a_Node000016"><a xlink:href="_wait_8h.html" target="_top" xlink:title=" ">
<polygon fill="white" stroke="#666666" points="1643,-90.5 1518,-90.5 1518,-71.5 1643,-71.5 1643,-90.5"/>
<text text-anchor="middle" x="1580.5" y="-78.5" font-family="Helvetica,sans-Serif" font-size="10.00">Cpl/TShell/Cmd/Wait.h</text>
</a>
</g>
</g>
<!-- Node2&#45;&gt;Node16 -->
<g id="edge15_Node000002_Node000016" class="edge">
<title>Node2&#45;&gt;Node16</title>
<g id="a_edge15_Node000002_Node000016"><a xlink:title=" ">
<path fill="none" stroke="#63b8ff" d="M1290.4,-130.47C1348.8,-121.91 1434.21,-108.96 1508.5,-96 1518.03,-94.34 1528.25,-92.43 1537.91,-90.56"/>
<polygon fill="#63b8ff" stroke="#63b8ff" points="1289.57,-127.06 1280.18,-131.97 1290.58,-133.98 1289.57,-127.06"/>
</a>
</g>
</g>
<!-- Node17 -->
<g id="Node000017" class="node">
<title>Node17</title>
<g id="a_Node000017"><a xlink:href="_t_shell_2_random_8h.html" target="_top" xlink:title=" ">
<polygon fill="white" stroke="#666666" points="1776,-96 1661,-96 1661,-66 1776,-66 1776,-96"/>
<text text-anchor="start" x="1669" y="-84" font-family="Helvetica,sans-Serif" font-size="10.00">Driver/Crypto/TShell</text>
<text text-anchor="middle" x="1718.5" y="-73" font-family="Helvetica,sans-Serif" font-size="10.00">/Random.h</text>
</a>
</g>
</g>
<!-- Node2&#45;&gt;Node17 -->
<g id="edge16_Node000002_Node000017" class="edge">
<title>Node2&#45;&gt;Node17</title>
<g id="a_edge16_Node000002_Node000017"><a xlink:title=" ">
<path fill="none" stroke="#63b8ff" d="M1307.23,-134.19C1394.5,-127.22 1532.81,-114.48 1651.5,-96 1654.55,-95.52 1657.68,-95 1660.83,-94.45"/>
<polygon fill="#63b8ff" stroke="#63b8ff" points="1306.8,-130.71 1297.1,-134.99 1307.35,-137.69 1306.8,-130.71"/>
</a>
</g>
</g>
<!-- Node18 -->
<g id="Node000018" class="node">
<title>Node18</title>
<g id="a_Node000018"><a xlink:href="_in_out_cmd_8h.html" target="_top" xlink:title=" ">
<polygon fill="white" stroke="#666666" points="1897,-96 1794,-96 1794,-66 1897,-66 1897,-96"/>
<text text-anchor="start" x="1802" y="-84" font-family="Helvetica,sans-Serif" font-size="10.00">Driver/DIO/_tshell</text>
<text text-anchor="middle" x="1845.5" y="-73" font-family="Helvetica,sans-Serif" font-size="10.00">/InOutCmd.h</text>
</a>
</g>
</g>
<!-- Node2&#45;&gt;Node18 -->
<g id="edge17_Node000002_Node000018" class="edge">
<title>Node2&#45;&gt;Node18</title>
<g id="a_edge17_Node000002_Node000018"><a xlink:title=" ">
<path fill="none" stroke="#63b8ff" d="M1307.4,-137.72C1418.74,-133.23 1617.43,-122.07 1785.5,-96 1788.25,-95.57 1791.06,-95.09 1793.89,-94.56"/>
<polygon fill="#63b8ff" stroke="#63b8ff" points="1307.09,-134.23 1297.23,-138.12 1307.36,-141.22 1307.09,-134.23"/>
</a>
</g>
</g>
<!-- Node19 -->
<g id="Node000019" class="node">
<title>Node19</title>
<g id="a_Node000019"><a xlink:href="_driver_2_n_v_2__tshell_2_cmd_8h.html" target="_top" xlink:title=" ">
<polygon fill="white" stroke="#666666" points="2049.5,-90.5 1915.5,-90.5 1915.5,-71.5 2049.5,-71.5 2049.5,-90.5"/>
<text text-anchor="middle" x="1982.5" y="-78.5" font-family="Helvetica,sans-Serif" font-size="10.00">Driver/NV/_tshell/Cmd.h</text>
</a>
</g>
</g>
<!-- Node2&#45;&gt;Node19 -->
<g id="edge18_Node000002_Node000019" class="edge">
<title>Node2&#45;&gt;Node19</title>
<g id="a_edge18_Node000002_Node000019"><a xlink:title=" ">
<path fill="none" stroke="#63b8ff" d="M1307.5,-138.13C1438.04,-133.83 1692.16,-122.6 1906.5,-96 1917.82,-94.6 1930,-92.58 1941.22,-90.51"/>
<polygon fill="#63b8ff" stroke="#63b8ff" points="1307.05,-134.64 1297.17,-138.46 1307.27,-141.64 1307.05,-134.64"/>
</a>
</g>
</g>
<!-- Node20 -->
<g id="Node000020" class="node">
<title>Node20</title>
<g id="a_Node000020"><a xlink:href="_driver_2_r_h_temp_2__tshell_2_cmd_8h.html" target="_top" xlink:title=" ">
<polygon fill="white" stroke="#666666" points="2193,-96 2068,-96 2068,-66 2193,-66 2193,-96"/>
<text text-anchor="start" x="2076" y="-84" font-family="Helvetica,sans-Serif" font-size="10.00">Driver/RHTemp/_tshell</text>
<text text-anchor="middle" x="2130.5" y="-73" font-family="Helvetica,sans-Serif" font-size="10.00">/Cmd.h</text>
</a>
</g>
</g>
<!-- Node2&#45;&gt;Node20 -->
<g id="edge19_Node000002_Node000020" class="edge">
<title>Node2&#45;&gt;Node20</title>
<g id="a_edge19_Node000002_Node000020"><a xlink:title=" ">
<path fill="none" stroke="#63b8ff" d="M1307.31,-139.86C1459.85,-137.85 1785.69,-129.6 2058.5,-96 2061.53,-95.63 2064.63,-95.2 2067.75,-94.73"/>
<polygon fill="#63b8ff" stroke="#63b8ff" points="1307.03,-136.36 1297.07,-139.99 1307.11,-143.36 1307.03,-136.36"/>
</a>
</g>
</g>
<!-- Node21 -->
<g id="Node000021" class="node">
<title>Node21</title>
<g id="a_Node000021"><a xlink:href="_wifi_8h.html" target="_top" xlink:title=" ">
<polygon fill="white" stroke="#666666" points="2317.5,-96 2211.5,-96 2211.5,-66 2317.5,-66 2317.5,-96"/>
<text text-anchor="start" x="2219.5" y="-84" font-family="Helvetica,sans-Serif" font-size="10.00">Driver/Wifi/Station</text>
<text text-anchor="middle" x="2264.5" y="-73" font-family="Helvetica,sans-Serif" font-size="10.00">/TShell/Wifi.h</text>
</a>
</g>
</g>
<!-- Node2&#45;&gt;Node21 -->
<g id="edge20_Node000002_Node000021" class="edge">
<title>Node2&#45;&gt;Node21</title>
<g id="a_edge20_Node000002_Node000021"><a xlink:title=" ">
<path fill="none" stroke="#63b8ff" d="M1307.42,-138.53C1514.2,-133.53 2030.87,-119.08 2202.5,-96 2205.34,-95.62 2208.25,-95.17 2211.17,-94.67"/>
<polygon fill="#63b8ff" stroke="#63b8ff" points="1307.13,-135.04 1297.22,-138.78 1307.3,-142.04 1307.13,-135.04"/>
</a>
</g>
</g>
<!-- Node11 -->
<g id="Node000011" class="node">
<title>Node11</title>
<g id="a_Node000011"><a xlink:href="_free_r_t_o_s_2_threads_8h.html" target="_top" xlink:title=" ">
<polygon fill="white" stroke="#666666" points="991.5,-30 851.5,-30 851.5,0 991.5,0 991.5,-30"/>
<text text-anchor="start" x="859.5" y="-18" font-family="Helvetica,sans-Serif" font-size="10.00">Cpl/TShell/Cmd/FreeRTOS</text>
<text text-anchor="middle" x="921.5" y="-7" font-family="Helvetica,sans-Serif" font-size="10.00">/Threads.h</text>
</a>
</g>
</g>
<!-- Node10&#45;&gt;Node11 -->
<g id="edge10_Node000010_Node000011" class="edge">
<title>Node10&#45;&gt;Node11</title>
<g id="a_edge10_Node000010_Node000011"><a xlink:title=" ">
<path fill="none" stroke="#63b8ff" d="M979.35,-64.71C966.87,-54.21 950.43,-40.36 938.26,-30.12"/>
<polygon fill="#63b8ff" stroke="#63b8ff" points="977.35,-67.6 987.25,-71.37 981.86,-62.25 977.35,-67.6"/>
</a>
</g>
</g>
<!-- Node12 -->
<g id="Node000012" class="node">
<title>Node12</title>
<g id="a_Node000012"><a xlink:href="_win32_2_threads_8h.html" target="_top" xlink:title=" ">
<polygon fill="white" stroke="#666666" points="1135,-30 1010,-30 1010,0 1135,0 1135,-30"/>
<text text-anchor="start" x="1018" y="-18" font-family="Helvetica,sans-Serif" font-size="10.00">Cpl/TShell/Cmd/Win32</text>
<text text-anchor="middle" x="1072.5" y="-7" font-family="Helvetica,sans-Serif" font-size="10.00">/Threads.h</text>
</a>
</g>
</g>
<!-- Node10&#45;&gt;Node12 -->
<g id="edge11_Node000010_Node000012" class="edge">
<title>Node10&#45;&gt;Node12</title>
<g id="a_edge11_Node000010_Node000012"><a xlink:title=" ">
<path fill="none" stroke="#63b8ff" d="M1015.41,-64.71C1027.72,-54.21 1043.95,-40.36 1055.96,-30.12"/>
<polygon fill="#63b8ff" stroke="#63b8ff" points="1012.95,-62.22 1007.61,-71.37 1017.49,-67.54 1012.95,-62.22"/>
</a>
</g>
</g>
<!-- Node23 -->
<g id="Node000023" class="node">
<title>Node23</title>
<g id="a_Node000023"><a xlink:href="_cpl_2_t_shell_2_maker_8h.html" target="_top" xlink:title=" ">
<polygon fill="white" stroke="#666666" points="2443,-90.5 2336,-90.5 2336,-71.5 2443,-71.5 2443,-90.5"/>
<text text-anchor="middle" x="2389.5" y="-78.5" font-family="Helvetica,sans-Serif" font-size="10.00">Cpl/TShell/Maker.h</text>
</a>
</g>
</g>
<!-- Node22&#45;&gt;Node23 -->
<g id="edge22_Node000022_Node000023" class="edge">
<title>Node22&#45;&gt;Node23</title>
<g id="a_edge22_Node000022_Node000023"><a xlink:title=" ">
<path fill="none" stroke="#63b8ff" d="M2389.5,-121.66C2389.5,-111.24 2389.5,-98.8 2389.5,-90.67"/>
<polygon fill="#63b8ff" stroke="#63b8ff" points="2386,-121.87 2389.5,-131.87 2393,-121.87 2386,-121.87"/>
</a>
</g>
</g>
<!-- Node24 -->
<g id="Node000024" class="node">
<title>Node24</title>
<g id="a_Node000024"><a xlink:href="_polled_processor_8h.html" target="_top" xlink:title=" ">
<polygon fill="white" stroke="#666666" points="2615.5,-90.5 2461.5,-90.5 2461.5,-71.5 2615.5,-71.5 2615.5,-90.5"/>
<text text-anchor="middle" x="2538.5" y="-78.5" font-family="Helvetica,sans-Serif" font-size="10.00">Cpl/TShell/PolledProcessor.h</text>
</a>
</g>
</g>
<!-- Node22&#45;&gt;Node24 -->
<g id="edge23_Node000022_Node000024" class="edge">
<title>Node22&#45;&gt;Node24</title>
<g id="a_edge23_Node000022_Node000024"><a xlink:title=" ">
<path fill="none" stroke="#63b8ff" d="M2420.75,-128.23C2449.55,-116.92 2491.53,-100.44 2516.81,-90.52"/>
<polygon fill="#63b8ff" stroke="#63b8ff" points="2419.2,-125.08 2411.17,-131.99 2421.75,-131.6 2419.2,-125.08"/>
</a>
</g>
</g>
<!-- Node25 -->
<g id="Node000025" class="node">
<title>Node25</title>
<g id="a_Node000025"><a xlink:href="_polled_maker_8h.html" target="_top" xlink:title=" ">
<polygon fill="white" stroke="#666666" points="2607,-24.5 2470,-24.5 2470,-5.5 2607,-5.5 2607,-24.5"/>
<text text-anchor="middle" x="2538.5" y="-12.5" font-family="Helvetica,sans-Serif" font-size="10.00">Cpl/TShell/PolledMaker.h</text>
</a>
</g>
</g>
<!-- Node24&#45;&gt;Node25 -->
<g id="edge24_Node000024_Node000025" class="edge">
<title>Node24&#45;&gt;Node25</title>
<g id="a_edge24_Node000024_Node000025"><a xlink:title=" ">
<path fill="none" stroke="#63b8ff" d="M2538.5,-61.08C2538.5,-49.13 2538.5,-34.22 2538.5,-24.91"/>
<polygon fill="#63b8ff" stroke="#63b8ff" points="2535,-61.37 2538.5,-71.37 2542,-61.37 2535,-61.37"/>
</a>
</g>
</g>
</g>
</svg>
