<?xml version="1.0" encoding="UTF-8" standalone="no"?>
<!DOCTYPE svg PUBLIC "-//W3C//DTD SVG 1.1//EN"
 "http://www.w3.org/Graphics/SVG/1.1/DTD/svg11.dtd">
<!-- Generated by graphviz version 2.43.0 (0)
 -->
<!-- Title: Cpl/TShell/Maker.h Pages: 1 -->
<svg width="1497pt" height="467pt"
 viewBox="0.00 0.00 1496.50 467.00" xmlns="http://www.w3.org/2000/svg" xmlns:xlink="http://www.w3.org/1999/xlink">
<g id="graph0" class="graph" transform="scale(1 1) rotate(0) translate(4 463)">
<title>Cpl/TShell/Maker.h</title>
<!-- Node1 -->
<g id="Node000001" class="node">
<title>Node1</title>
<g id="a_Node000001"><a xlink:title=" ">
<polygon fill="#999999" stroke="#666666" points="784.5,-459 677.5,-459 677.5,-440 784.5,-440 784.5,-459"/>
<text text-anchor="middle" x="731" y="-447" font-family="Helvetica,sans-Serif" font-size="10.00">Cpl/TShell/Maker.h</text>
</a>
</g>
</g>
<!-- Node2 -->
<g id="Node000002" class="node">
<title>Node2</title>
<g id="a_Node000002"><a xlink:href="_processor_8h.html" target="_top" xlink:title=" ">
<polygon fill="white" stroke="#666666" points="599,-404 475,-404 475,-385 599,-385 599,-404"/>
<text text-anchor="middle" x="537" y="-392" font-family="Helvetica,sans-Serif" font-size="10.00">Cpl/TShell/Processor.h</text>
</a>
</g>
</g>
<!-- Node1&#45;&gt;Node2 -->
<g id="edge1_Node000001_Node000002" class="edge">
<title>Node1&#45;&gt;Node2</title>
<g id="a_edge1_Node000001_Node000002"><a xlink:title=" ">
<path fill="none" stroke="#63b8ff" d="M699.83,-439.98C666.84,-430.97 614.6,-416.7 578.23,-406.76"/>
<polygon fill="#63b8ff" stroke="#63b8ff" points="578.98,-403.34 568.41,-404.08 577.14,-410.09 578.98,-403.34"/>
</a>
</g>
</g>
<!-- Node34 -->
<g id="Node000034" class="node">
<title>Node34</title>
<g id="a_Node000034"><a xlink:href="_line_decoder_8h.html" target="_top" xlink:title=" ">
<polygon fill="white" stroke="#666666" points="811.5,-404 650.5,-404 650.5,-385 811.5,-385 811.5,-404"/>
<text text-anchor="middle" x="731" y="-392" font-family="Helvetica,sans-Serif" font-size="10.00">Cpl/Text/Frame/LineDecoder.h</text>
</a>
</g>
</g>
<!-- Node1&#45;&gt;Node34 -->
<g id="edge50_Node000001_Node000034" class="edge">
<title>Node1&#45;&gt;Node34</title>
<g id="a_edge50_Node000001_Node000034"><a xlink:title=" ">
<path fill="none" stroke="#63b8ff" d="M731,-439.75C731,-432.8 731,-422.85 731,-414.13"/>
<polygon fill="#63b8ff" stroke="#63b8ff" points="734.5,-414.09 731,-404.09 727.5,-414.09 734.5,-414.09"/>
</a>
</g>
</g>
<!-- Node35 -->
<g id="Node000035" class="node">
<title>Node35</title>
<g id="a_Node000035"><a xlink:href="_system_2_private___8h.html" target="_top" xlink:title="This file contains a collection of classes, interfaces, etc.">
<polygon fill="white" stroke="#666666" points="961,-349 837,-349 837,-330 961,-330 961,-349"/>
<text text-anchor="middle" x="899" y="-337" font-family="Helvetica,sans-Serif" font-size="10.00">Cpl/System/Private_.h</text>
</a>
</g>
</g>
<!-- Node1&#45;&gt;Node35 -->
<g id="edge52_Node000001_Node000035" class="edge">
<title>Node1&#45;&gt;Node35</title>
<g id="a_edge52_Node000001_Node000035"><a xlink:title=" ">
<path fill="none" stroke="#63b8ff" d="M751.72,-439.85C770.44,-431.67 798.42,-418.51 821,-404 843.56,-389.5 867.12,-369.55 882.36,-355.9"/>
<polygon fill="#63b8ff" stroke="#63b8ff" points="884.87,-358.36 889.92,-349.04 880.16,-353.17 884.87,-358.36"/>
</a>
</g>
</g>
<!-- Node3 -->
<g id="Node000003" class="node">
<title>Node3</title>
<g id="a_Node000003"><a xlink:title=" ">
<polygon fill="#e0e0e0" stroke="#999999" points="434,-19 342,-19 342,0 434,0 434,-19"/>
<text text-anchor="middle" x="388" y="-7" font-family="Helvetica,sans-Serif" font-size="10.00">colony_config.h</text>
</a>
</g>
</g>
<!-- Node2&#45;&gt;Node3 -->
<g id="edge2_Node000002_Node000003" class="edge">
<title>Node2&#45;&gt;Node3</title>
<g id="a_edge2_Node000002_Node000003"><a xlink:title=" ">
<path fill="none" stroke="#63b8ff" d="M474.87,-393.93C333.52,-393.23 0,-381.43 0,-285.5 0,-285.5 0,-285.5 0,-118.5 0,-50.42 224.47,-23.43 331.94,-14.4"/>
<polygon fill="#63b8ff" stroke="#63b8ff" points="332.29,-17.88 341.97,-13.58 331.72,-10.91 332.29,-17.88"/>
</a>
</g>
</g>
<!-- Node4 -->
<g id="Node000004" class="node">
<title>Node4</title>
<g id="a_Node000004"><a xlink:href="_context___8h.html" target="_top" xlink:title=" ">
<polygon fill="white" stroke="#666666" points="431.5,-349 310.5,-349 310.5,-330 431.5,-330 431.5,-349"/>
<text text-anchor="middle" x="371" y="-337" font-family="Helvetica,sans-Serif" font-size="10.00">Cpl/TShell/Context_.h</text>
</a>
</g>
</g>
<!-- Node2&#45;&gt;Node4 -->
<g id="edge3_Node000002_Node000004" class="edge">
<title>Node2&#45;&gt;Node4</title>
<g id="a_edge3_Node000002_Node000004"><a xlink:title=" ">
<path fill="none" stroke="#63b8ff" d="M510.33,-384.98C482.46,-376.09 438.55,-362.07 407.48,-352.15"/>
<polygon fill="#63b8ff" stroke="#63b8ff" points="408.47,-348.79 397.88,-349.08 406.34,-355.46 408.47,-348.79"/>
</a>
</g>
</g>
<!-- Node23 -->
<g id="Node000023" class="node">
<title>Node23</title>
<g id="a_Node000023"><a xlink:href="_mutex_8h.html" target="_top" xlink:title=" ">
<polygon fill="white" stroke="#666666" points="1488.5,-294 1373.5,-294 1373.5,-275 1488.5,-275 1488.5,-294"/>
<text text-anchor="middle" x="1431" y="-282" font-family="Helvetica,sans-Serif" font-size="10.00">Cpl/System/Mutex.h</text>
</a>
</g>
</g>
<!-- Node2&#45;&gt;Node23 -->
<g id="edge32_Node000002_Node000023" class="edge">
<title>Node2&#45;&gt;Node23</title>
<g id="a_edge32_Node000002_Node000023"><a xlink:title=" ">
<path fill="none" stroke="#63b8ff" d="M599.1,-387.8C683.25,-379.91 838.14,-364.85 970,-349 1110.38,-332.12 1274.26,-308.65 1363.92,-295.48"/>
<polygon fill="#63b8ff" stroke="#63b8ff" points="1364.56,-298.92 1373.95,-294 1363.54,-292 1364.56,-298.92"/>
</a>
</g>
</g>
<!-- Node24 -->
<g id="Node000024" class="node">
<title>Node24</title>
<g id="a_Node000024"><a xlink:href="_f_string_8h.html" target="_top" xlink:title=" ">
<polygon fill="white" stroke="#666666" points="292.5,-349 191.5,-349 191.5,-330 292.5,-330 292.5,-349"/>
<text text-anchor="middle" x="242" y="-337" font-family="Helvetica,sans-Serif" font-size="10.00">Cpl/Text/FString.h</text>
</a>
</g>
</g>
<!-- Node2&#45;&gt;Node24 -->
<g id="edge34_Node000002_Node000024" class="edge">
<title>Node2&#45;&gt;Node24</title>
<g id="a_edge34_Node000002_Node000024"><a xlink:title=" ">
<path fill="none" stroke="#63b8ff" d="M489.6,-384.98C437.93,-375.7 355.23,-360.84 299.79,-350.88"/>
<polygon fill="#63b8ff" stroke="#63b8ff" points="300.23,-347.41 289.77,-349.08 298.99,-354.3 300.23,-347.41"/>
</a>
</g>
</g>
<!-- Node27 -->
<g id="Node000027" class="node">
<title>Node27</title>
<g id="a_Node000027"><a xlink:href="_stream_encoder_8h.html" target="_top" xlink:title=" ">
<polygon fill="white" stroke="#666666" points="624.5,-349 449.5,-349 449.5,-330 624.5,-330 624.5,-349"/>
<text text-anchor="middle" x="537" y="-337" font-family="Helvetica,sans-Serif" font-size="10.00">Cpl/Text/Frame/StreamEncoder.h</text>
</a>
</g>
</g>
<!-- Node2&#45;&gt;Node27 -->
<g id="edge40_Node000002_Node000027" class="edge">
<title>Node2&#45;&gt;Node27</title>
<g id="a_edge40_Node000002_Node000027"><a xlink:title=" ">
<path fill="none" stroke="#63b8ff" d="M537,-384.75C537,-377.8 537,-367.85 537,-359.13"/>
<polygon fill="#63b8ff" stroke="#63b8ff" points="540.5,-359.09 537,-349.09 533.5,-359.09 540.5,-359.09"/>
</a>
</g>
</g>
<!-- Node31 -->
<g id="Node000031" class="node">
<title>Node31</title>
<g id="a_Node000031"><a xlink:href="_stream_decoder_8h.html" target="_top" xlink:title=" ">
<polygon fill="white" stroke="#666666" points="819,-349 643,-349 643,-330 819,-330 819,-349"/>
<text text-anchor="middle" x="731" y="-337" font-family="Helvetica,sans-Serif" font-size="10.00">Cpl/Text/Frame/StreamDecoder.h</text>
</a>
</g>
</g>
<!-- Node2&#45;&gt;Node31 -->
<g id="edge45_Node000002_Node000031" class="edge">
<title>Node2&#45;&gt;Node31</title>
<g id="a_edge45_Node000002_Node000031"><a xlink:title=" ">
<path fill="none" stroke="#63b8ff" d="M568.17,-384.98C601.16,-375.97 653.4,-361.7 689.77,-351.76"/>
<polygon fill="#63b8ff" stroke="#63b8ff" points="690.86,-355.09 699.59,-349.08 689.02,-348.34 690.86,-355.09"/>
</a>
</g>
</g>
<!-- Node5 -->
<g id="Node000005" class="node">
<title>Node5</title>
<g id="a_Node000005"><a xlink:href="_processor_api_8h.html" target="_top" xlink:title=" ">
<polygon fill="white" stroke="#666666" points="592,-294 452,-294 452,-275 592,-275 592,-294"/>
<text text-anchor="middle" x="522" y="-282" font-family="Helvetica,sans-Serif" font-size="10.00">Cpl/TShell/ProcessorApi.h</text>
</a>
</g>
</g>
<!-- Node4&#45;&gt;Node5 -->
<g id="edge4_Node000004_Node000005" class="edge">
<title>Node4&#45;&gt;Node5</title>
<g id="a_edge4_Node000004_Node000005"><a xlink:title=" ">
<path fill="none" stroke="#63b8ff" d="M395.26,-329.98C420.32,-321.19 459.63,-307.39 487.83,-297.49"/>
<polygon fill="#63b8ff" stroke="#63b8ff" points="489.02,-300.78 497.3,-294.17 486.7,-294.18 489.02,-300.78"/>
</a>
</g>
</g>
<!-- Node20 -->
<g id="Node000020" class="node">
<title>Node20</title>
<g id="a_Node000020"><a xlink:href="_security_8h.html" target="_top" xlink:title=" ">
<polygon fill="white" stroke="#666666" points="182,-239 66,-239 66,-220 182,-220 182,-239"/>
<text text-anchor="middle" x="124" y="-227" font-family="Helvetica,sans-Serif" font-size="10.00">Cpl/TShell/Security.h</text>
</a>
</g>
</g>
<!-- Node4&#45;&gt;Node20 -->
<g id="edge25_Node000004_Node000020" class="edge">
<title>Node4&#45;&gt;Node20</title>
<g id="a_edge25_Node000004_Node000020"><a xlink:title=" ">
<path fill="none" stroke="#63b8ff" d="M310.36,-330.74C231.24,-320.32 101.96,-302.18 95,-294 83.04,-279.96 95.54,-260.18 107.65,-246.44"/>
<polygon fill="#63b8ff" stroke="#63b8ff" points="110.22,-248.81 114.55,-239.14 105.14,-244.01 110.22,-248.81"/>
</a>
</g>
</g>
<!-- Node21 -->
<g id="Node000021" class="node">
<title>Node21</title>
<g id="a_Node000021"><a xlink:href="_command_8h.html" target="_top" xlink:title=" ">
<polygon fill="white" stroke="#666666" points="232,-294 104,-294 104,-275 232,-275 232,-294"/>
<text text-anchor="middle" x="168" y="-282" font-family="Helvetica,sans-Serif" font-size="10.00">Cpl/TShell/Command.h</text>
</a>
</g>
</g>
<!-- Node4&#45;&gt;Node21 -->
<g id="edge26_Node000004_Node000021" class="edge">
<title>Node4&#45;&gt;Node21</title>
<g id="a_edge26_Node000004_Node000021"><a xlink:title=" ">
<path fill="none" stroke="#63b8ff" d="M338.38,-329.98C303.71,-320.93 248.74,-306.58 210.65,-296.64"/>
<polygon fill="#63b8ff" stroke="#63b8ff" points="211.43,-293.22 200.87,-294.08 209.66,-299.99 211.43,-293.22"/>
</a>
</g>
</g>
<!-- Node22 -->
<g id="Node000022" class="node">
<title>Node22</title>
<g id="a_Node000022"><a xlink:href="_s_list_8h.html" target="_top" xlink:title=" ">
<polygon fill="white" stroke="#666666" points="394,-184 276,-184 276,-165 394,-165 394,-184"/>
<text text-anchor="middle" x="335" y="-172" font-family="Helvetica,sans-Serif" font-size="10.00">Cpl/Container/SList.h</text>
</a>
</g>
</g>
<!-- Node4&#45;&gt;Node22 -->
<g id="edge30_Node000004_Node000022" class="edge">
<title>Node4&#45;&gt;Node22</title>
<g id="a_edge30_Node000004_Node000022"><a xlink:title=" ">
<path fill="none" stroke="#63b8ff" d="M371.13,-329.79C371.16,-317.47 370.66,-294.32 367,-275 361.48,-245.82 349.93,-213.27 342.33,-193.6"/>
<polygon fill="#63b8ff" stroke="#63b8ff" points="345.5,-192.11 338.57,-184.1 338.99,-194.68 345.5,-192.11"/>
</a>
</g>
</g>
<!-- Node6 -->
<g id="Node000006" class="node">
<title>Node6</title>
<g id="a_Node000006"><a xlink:href="_input_8h.html" target="_top" xlink:title=" ">
<polygon fill="white" stroke="#666666" points="564.5,-239 483.5,-239 483.5,-220 564.5,-220 564.5,-239"/>
<text text-anchor="middle" x="524" y="-227" font-family="Helvetica,sans-Serif" font-size="10.00">Cpl/Io/Input.h</text>
</a>
</g>
</g>
<!-- Node5&#45;&gt;Node6 -->
<g id="edge5_Node000005_Node000006" class="edge">
<title>Node5&#45;&gt;Node6</title>
<g id="a_edge5_Node000005_Node000006"><a xlink:title=" ">
<path fill="none" stroke="#63b8ff" d="M522.33,-274.75C522.59,-267.8 522.97,-257.85 523.3,-249.13"/>
<polygon fill="#63b8ff" stroke="#63b8ff" points="526.8,-249.21 523.68,-239.09 519.8,-248.95 526.8,-249.21"/>
</a>
</g>
</g>
<!-- Node19 -->
<g id="Node000019" class="node">
<title>Node19</title>
<g id="a_Node000019"><a xlink:href="_output_8h.html" target="_top" xlink:title=" ">
<polygon fill="white" stroke="#666666" points="465.5,-239 376.5,-239 376.5,-220 465.5,-220 465.5,-239"/>
<text text-anchor="middle" x="421" y="-227" font-family="Helvetica,sans-Serif" font-size="10.00">Cpl/Io/Output.h</text>
</a>
</g>
</g>
<!-- Node5&#45;&gt;Node19 -->
<g id="edge20_Node000005_Node000019" class="edge">
<title>Node5&#45;&gt;Node19</title>
<g id="a_edge20_Node000005_Node000019"><a xlink:title=" ">
<path fill="none" stroke="#63b8ff" d="M505.77,-274.98C489.82,-266.61 465.22,-253.7 446.62,-243.95"/>
<polygon fill="#63b8ff" stroke="#63b8ff" points="448,-240.72 437.52,-239.17 444.75,-246.92 448,-240.72"/>
</a>
</g>
</g>
<!-- Node7 -->
<g id="Node000007" class="node">
<title>Node7</title>
<g id="a_Node000007"><a xlink:href="_text_2_string_8h.html" target="_top" xlink:title=" ">
<polygon fill="white" stroke="#666666" points="786,-184 690,-184 690,-165 786,-165 786,-184"/>
<text text-anchor="middle" x="738" y="-172" font-family="Helvetica,sans-Serif" font-size="10.00">Cpl/Text/String.h</text>
</a>
</g>
</g>
<!-- Node6&#45;&gt;Node7 -->
<g id="edge6_Node000006_Node000007" class="edge">
<title>Node6&#45;&gt;Node7</title>
<g id="a_edge6_Node000006_Node000007"><a xlink:title=" ">
<path fill="none" stroke="#63b8ff" d="M558.38,-219.98C595.09,-210.89 653.38,-196.46 693.55,-186.51"/>
<polygon fill="#63b8ff" stroke="#63b8ff" points="694.48,-189.88 703.35,-184.08 692.8,-183.09 694.48,-189.88"/>
</a>
</g>
</g>
<!-- Node16 -->
<g id="Node000016" class="node">
<title>Node16</title>
<g id="a_Node000016"><a xlink:href="_close_8h.html" target="_top" xlink:title=" ">
<polygon fill="white" stroke="#666666" points="633.5,-184 550.5,-184 550.5,-165 633.5,-165 633.5,-184"/>
<text text-anchor="middle" x="592" y="-172" font-family="Helvetica,sans-Serif" font-size="10.00">Cpl/Io/Close.h</text>
</a>
</g>
</g>
<!-- Node6&#45;&gt;Node16 -->
<g id="edge17_Node000006_Node000016" class="edge">
<title>Node6&#45;&gt;Node16</title>
<g id="a_edge17_Node000006_Node000016"><a xlink:title=" ">
<path fill="none" stroke="#63b8ff" d="M534.93,-219.98C545.08,-212.07 560.42,-200.11 572.65,-190.58"/>
<polygon fill="#63b8ff" stroke="#63b8ff" points="575.14,-193.08 580.88,-184.17 570.84,-187.56 575.14,-193.08"/>
</a>
</g>
</g>
<!-- Node18 -->
<g id="Node000018" class="node">
<title>Node18</title>
<g id="a_Node000018"><a xlink:href="_is_eos_8h.html" target="_top" xlink:title=" ">
<polygon fill="white" stroke="#666666" points="532,-184 450,-184 450,-165 532,-165 532,-184"/>
<text text-anchor="middle" x="491" y="-172" font-family="Helvetica,sans-Serif" font-size="10.00">Cpl/Io/IsEos.h</text>
</a>
</g>
</g>
<!-- Node6&#45;&gt;Node18 -->
<g id="edge19_Node000006_Node000018" class="edge">
<title>Node6&#45;&gt;Node18</title>
<g id="a_edge19_Node000006_Node000018"><a xlink:title=" ">
<path fill="none" stroke="#63b8ff" d="M518.55,-219.75C513.99,-212.42 507.33,-201.73 501.71,-192.7"/>
<polygon fill="#63b8ff" stroke="#63b8ff" points="504.6,-190.73 496.35,-184.09 498.66,-194.43 504.6,-190.73"/>
</a>
</g>
</g>
<!-- Node8 -->
<g id="Node000008" class="node">
<title>Node8</title>
<g id="a_Node000008"><a xlink:title=" ">
<polygon fill="#e0e0e0" stroke="#999999" points="1194.5,-74 1109.5,-74 1109.5,-55 1194.5,-55 1194.5,-74"/>
<text text-anchor="middle" x="1152" y="-62" font-family="Helvetica,sans-Serif" font-size="10.00">colony_map.h</text>
</a>
</g>
</g>
<!-- Node7&#45;&gt;Node8 -->
<g id="edge7_Node000007_Node000008" class="edge">
<title>Node7&#45;&gt;Node8</title>
<g id="a_edge7_Node000007_Node000008"><a xlink:title=" ">
<path fill="none" stroke="#63b8ff" d="M770.83,-164.94C845.19,-145.54 1026.4,-98.26 1109.32,-76.63"/>
<polygon fill="#63b8ff" stroke="#63b8ff" points="1110.37,-79.98 1119.16,-74.07 1108.61,-73.2 1110.37,-79.98"/>
</a>
</g>
</g>
<!-- Node9 -->
<g id="Node000009" class="node">
<title>Node9</title>
<g id="a_Node000009"><a xlink:href="_key_8h.html" target="_top" xlink:title=" ">
<polygon fill="white" stroke="#666666" points="720.5,-129 609.5,-129 609.5,-110 720.5,-110 720.5,-129"/>
<text text-anchor="middle" x="665" y="-117" font-family="Helvetica,sans-Serif" font-size="10.00">Cpl/Container/Key.h</text>
</a>
</g>
</g>
<!-- Node7&#45;&gt;Node9 -->
<g id="edge8_Node000007_Node000009" class="edge">
<title>Node7&#45;&gt;Node9</title>
<g id="a_edge8_Node000007_Node000009"><a xlink:title=" ">
<path fill="none" stroke="#63b8ff" d="M726.27,-164.98C715.27,-157 698.58,-144.88 685.4,-135.31"/>
<polygon fill="#63b8ff" stroke="#63b8ff" points="687.09,-132.21 676.94,-129.17 682.98,-137.88 687.09,-132.21"/>
</a>
</g>
</g>
<!-- Node14 -->
<g id="Node000014" class="node">
<title>Node14</title>
<g id="a_Node000014"><a xlink:title=" ">
<polygon fill="#e0e0e0" stroke="#999999" points="591,-129 535,-129 535,-110 591,-110 591,-129"/>
<text text-anchor="middle" x="563" y="-117" font-family="Helvetica,sans-Serif" font-size="10.00">stdarg.h</text>
</a>
</g>
</g>
<!-- Node7&#45;&gt;Node14 -->
<g id="edge15_Node000007_Node000014" class="edge">
<title>Node7&#45;&gt;Node14</title>
<g id="a_edge15_Node000007_Node000014"><a xlink:title=" ">
<path fill="none" stroke="#63b8ff" d="M709.88,-164.98C680.29,-156.02 633.53,-141.86 600.74,-131.93"/>
<polygon fill="#63b8ff" stroke="#63b8ff" points="601.63,-128.54 591.05,-128.99 599.6,-135.24 601.63,-128.54"/>
</a>
</g>
</g>
<!-- Node15 -->
<g id="Node000015" class="node">
<title>Node15</title>
<g id="a_Node000015"><a xlink:title=" ">
<polygon fill="#e0e0e0" stroke="#999999" points="799,-129 739,-129 739,-110 799,-110 799,-129"/>
<text text-anchor="middle" x="769" y="-117" font-family="Helvetica,sans-Serif" font-size="10.00">iostream</text>
</a>
</g>
</g>
<!-- Node7&#45;&gt;Node15 -->
<g id="edge16_Node000007_Node000015" class="edge">
<title>Node7&#45;&gt;Node15</title>
<g id="a_edge16_Node000007_Node000015"><a xlink:title=" ">
<path fill="none" stroke="#63b8ff" d="M743.12,-164.75C747.36,-157.49 753.53,-146.95 758.78,-137.98"/>
<polygon fill="#63b8ff" stroke="#63b8ff" points="761.95,-139.49 763.98,-129.09 755.91,-135.95 761.95,-139.49"/>
</a>
</g>
</g>
<!-- Node9&#45;&gt;Node8 -->
<g id="edge14_Node000009_Node000008" class="edge">
<title>Node9&#45;&gt;Node8</title>
<g id="a_edge14_Node000009_Node000008"><a xlink:title=" ">
<path fill="none" stroke="#63b8ff" d="M720.66,-111.13C723.82,-110.74 726.95,-110.36 730,-110 862.68,-94.33 1019.16,-78.53 1099.13,-70.65"/>
<polygon fill="#63b8ff" stroke="#63b8ff" points="1099.82,-74.1 1109.43,-69.63 1099.14,-67.13 1099.82,-74.1"/>
</a>
</g>
</g>
<!-- Node10 -->
<g id="Node000010" class="node">
<title>Node10</title>
<g id="a_Node000010"><a xlink:href="_fatal_error_8h.html" target="_top" xlink:title=" ">
<polygon fill="white" stroke="#666666" points="730,-74 600,-74 600,-55 730,-55 730,-74"/>
<text text-anchor="middle" x="665" y="-62" font-family="Helvetica,sans-Serif" font-size="10.00">Cpl/System/FatalError.h</text>
</a>
</g>
</g>
<!-- Node9&#45;&gt;Node10 -->
<g id="edge9_Node000009_Node000010" class="edge">
<title>Node9&#45;&gt;Node10</title>
<g id="a_edge9_Node000009_Node000010"><a xlink:title=" ">
<path fill="none" stroke="#63b8ff" d="M665,-109.75C665,-102.8 665,-92.85 665,-84.13"/>
<polygon fill="#63b8ff" stroke="#63b8ff" points="668.5,-84.09 665,-74.09 661.5,-84.09 668.5,-84.09"/>
</a>
</g>
</g>
<!-- Node12 -->
<g id="Node000012" class="node">
<title>Node12</title>
<g id="a_Node000012"><a xlink:title=" ">
<polygon fill="#e0e0e0" stroke="#999999" points="581.5,-74 528.5,-74 528.5,-55 581.5,-55 581.5,-74"/>
<text text-anchor="middle" x="555" y="-62" font-family="Helvetica,sans-Serif" font-size="10.00">stdint.h</text>
</a>
</g>
</g>
<!-- Node9&#45;&gt;Node12 -->
<g id="edge12_Node000009_Node000012" class="edge">
<title>Node9&#45;&gt;Node12</title>
<g id="a_edge12_Node000009_Node000012"><a xlink:title=" ">
<path fill="none" stroke="#63b8ff" d="M647.33,-109.98C629.71,-101.5 602.42,-88.35 582.07,-78.54"/>
<polygon fill="#63b8ff" stroke="#63b8ff" points="583.52,-75.36 572.99,-74.17 580.48,-81.66 583.52,-75.36"/>
</a>
</g>
</g>
<!-- Node13 -->
<g id="Node000013" class="node">
<title>Node13</title>
<g id="a_Node000013"><a xlink:title=" ">
<polygon fill="#e0e0e0" stroke="#999999" points="397.5,-74 344.5,-74 344.5,-55 397.5,-55 397.5,-74"/>
<text text-anchor="middle" x="371" y="-62" font-family="Helvetica,sans-Serif" font-size="10.00">string.h</text>
</a>
</g>
</g>
<!-- Node9&#45;&gt;Node13 -->
<g id="edge13_Node000009_Node000013" class="edge">
<title>Node9&#45;&gt;Node13</title>
<g id="a_edge13_Node000009_Node000013"><a xlink:title=" ">
<path fill="none" stroke="#63b8ff" d="M617.76,-109.98C559.33,-99.45 461.07,-81.74 407.88,-72.15"/>
<polygon fill="#63b8ff" stroke="#63b8ff" points="408.33,-68.67 397.87,-70.34 407.09,-75.56 408.33,-68.67"/>
</a>
</g>
</g>
<!-- Node10&#45;&gt;Node3 -->
<g id="edge11_Node000010_Node000003" class="edge">
<title>Node10&#45;&gt;Node3</title>
<g id="a_edge11_Node000010_Node000003"><a xlink:title=" ">
<path fill="none" stroke="#63b8ff" d="M620.5,-54.98C572.18,-45.74 494.96,-30.97 442.91,-21.01"/>
<polygon fill="#63b8ff" stroke="#63b8ff" points="443.33,-17.52 432.85,-19.08 442.02,-24.4 443.33,-17.52"/>
</a>
</g>
</g>
<!-- Node11 -->
<g id="Node000011" class="node">
<title>Node11</title>
<g id="a_Node000011"><a xlink:title=" ">
<polygon fill="#e0e0e0" stroke="#999999" points="693,-19 637,-19 637,0 693,0 693,-19"/>
<text text-anchor="middle" x="665" y="-7" font-family="Helvetica,sans-Serif" font-size="10.00">stddef.h</text>
</a>
</g>
</g>
<!-- Node10&#45;&gt;Node11 -->
<g id="edge10_Node000010_Node000011" class="edge">
<title>Node10&#45;&gt;Node11</title>
<g id="a_edge10_Node000010_Node000011"><a xlink:title=" ">
<path fill="none" stroke="#63b8ff" d="M665,-54.75C665,-47.8 665,-37.85 665,-29.13"/>
<polygon fill="#63b8ff" stroke="#63b8ff" points="668.5,-29.09 665,-19.09 661.5,-29.09 668.5,-29.09"/>
</a>
</g>
</g>
<!-- Node17 -->
<g id="Node000017" class="node">
<title>Node17</title>
<g id="a_Node000017"><a xlink:href="_item_8h.html" target="_top" xlink:title=" ">
<polygon fill="white" stroke="#666666" points="516.5,-129 399.5,-129 399.5,-110 516.5,-110 516.5,-129"/>
<text text-anchor="middle" x="458" y="-117" font-family="Helvetica,sans-Serif" font-size="10.00">Cpl/Container/Item.h</text>
</a>
</g>
</g>
<!-- Node16&#45;&gt;Node17 -->
<g id="edge18_Node000016_Node000017" class="edge">
<title>Node16&#45;&gt;Node17</title>
<g id="a_edge18_Node000016_Node000017"><a xlink:title=" ">
<path fill="none" stroke="#63b8ff" d="M570.47,-164.98C548.53,-156.3 514.26,-142.75 489.31,-132.88"/>
<polygon fill="#63b8ff" stroke="#63b8ff" points="490.51,-129.59 479.92,-129.17 487.93,-136.1 490.51,-129.59"/>
</a>
</g>
</g>
<!-- Node19&#45;&gt;Node7 -->
<g id="edge21_Node000019_Node000007" class="edge">
<title>Node19&#45;&gt;Node7</title>
<g id="a_edge21_Node000019_Node000007"><a xlink:title=" ">
<path fill="none" stroke="#63b8ff" d="M465.75,-221.02C521.84,-211.64 618.12,-195.54 679.87,-185.22"/>
<polygon fill="#63b8ff" stroke="#63b8ff" points="680.56,-188.65 689.85,-183.55 679.41,-181.75 680.56,-188.65"/>
</a>
</g>
</g>
<!-- Node19&#45;&gt;Node14 -->
<g id="edge24_Node000019_Node000014" class="edge">
<title>Node19&#45;&gt;Node14</title>
<g id="a_edge24_Node000019_Node000014"><a xlink:title=" ">
<path fill="none" stroke="#63b8ff" d="M421.37,-219.9C422.4,-206.45 426.3,-180.37 441,-165 452.88,-152.58 493.9,-139.16 525.12,-130.35"/>
<polygon fill="#63b8ff" stroke="#63b8ff" points="526.16,-133.69 534.87,-127.65 524.3,-126.95 526.16,-133.69"/>
</a>
</g>
</g>
<!-- Node19&#45;&gt;Node16 -->
<g id="edge22_Node000019_Node000016" class="edge">
<title>Node19&#45;&gt;Node16</title>
<g id="a_edge22_Node000019_Node000016"><a xlink:title=" ">
<path fill="none" stroke="#63b8ff" d="M448.47,-219.98C477.18,-211.09 522.42,-197.07 554.42,-187.15"/>
<polygon fill="#63b8ff" stroke="#63b8ff" points="555.8,-190.39 564.31,-184.08 553.72,-183.7 555.8,-190.39"/>
</a>
</g>
</g>
<!-- Node19&#45;&gt;Node18 -->
<g id="edge23_Node000019_Node000018" class="edge">
<title>Node19&#45;&gt;Node18</title>
<g id="a_edge23_Node000019_Node000018"><a xlink:title=" ">
<path fill="none" stroke="#63b8ff" d="M432.25,-219.98C442.8,-212 458.8,-199.88 471.44,-190.31"/>
<polygon fill="#63b8ff" stroke="#63b8ff" points="473.69,-193 479.55,-184.17 469.46,-187.42 473.69,-193"/>
</a>
</g>
</g>
<!-- Node21&#45;&gt;Node17 -->
<g id="edge27_Node000021_Node000017" class="edge">
<title>Node21&#45;&gt;Node17</title>
<g id="a_edge27_Node000021_Node000017"><a xlink:title=" ">
<path fill="none" stroke="#63b8ff" d="M172.65,-274.7C184.87,-252.47 220.2,-193.81 267,-165 303.73,-142.39 350.88,-131.26 389.14,-125.78"/>
<polygon fill="#63b8ff" stroke="#63b8ff" points="389.72,-129.24 399.17,-124.45 388.8,-122.3 389.72,-129.24"/>
</a>
</g>
</g>
<!-- Node21&#45;&gt;Node19 -->
<g id="edge28_Node000021_Node000019" class="edge">
<title>Node21&#45;&gt;Node19</title>
<g id="a_edge28_Node000021_Node000019"><a xlink:title=" ">
<path fill="none" stroke="#63b8ff" d="M208.65,-274.98C252.5,-265.8 322.42,-251.15 369.95,-241.19"/>
<polygon fill="#63b8ff" stroke="#63b8ff" points="370.96,-244.56 380.03,-239.08 369.53,-237.71 370.96,-244.56"/>
</a>
</g>
</g>
<!-- Node21&#45;&gt;Node20 -->
<g id="edge29_Node000021_Node000020" class="edge">
<title>Node21&#45;&gt;Node20</title>
<g id="a_edge29_Node000021_Node000020"><a xlink:title=" ">
<path fill="none" stroke="#63b8ff" d="M160.73,-274.75C154.46,-267.18 145.21,-256.05 137.57,-246.84"/>
<polygon fill="#63b8ff" stroke="#63b8ff" points="140.21,-244.55 131.13,-239.09 134.83,-249.02 140.21,-244.55"/>
</a>
</g>
</g>
<!-- Node22&#45;&gt;Node17 -->
<g id="edge31_Node000022_Node000017" class="edge">
<title>Node22&#45;&gt;Node17</title>
<g id="a_edge31_Node000022_Node000017"><a xlink:title=" ">
<path fill="none" stroke="#63b8ff" d="M354.76,-164.98C374.73,-156.38 405.8,-142.99 428.65,-133.15"/>
<polygon fill="#63b8ff" stroke="#63b8ff" points="430.08,-136.34 437.88,-129.17 427.31,-129.91 430.08,-136.34"/>
</a>
</g>
</g>
<!-- Node23&#45;&gt;Node8 -->
<g id="edge33_Node000023_Node000008" class="edge">
<title>Node23&#45;&gt;Node8</title>
<g id="a_edge33_Node000023_Node000008"><a xlink:title=" ">
<path fill="none" stroke="#63b8ff" d="M1434.58,-274.77C1439.21,-262.04 1445.71,-237.93 1437,-220 1393.5,-130.5 1274.14,-90.93 1204.46,-75.01"/>
<polygon fill="#63b8ff" stroke="#63b8ff" points="1205.07,-71.57 1194.55,-72.83 1203.57,-78.4 1205.07,-71.57"/>
</a>
</g>
</g>
<!-- Node24&#45;&gt;Node13 -->
<g id="edge39_Node000024_Node000013" class="edge">
<title>Node24&#45;&gt;Node13</title>
<g id="a_edge39_Node000024_Node000013"><a xlink:title=" ">
<path fill="none" stroke="#63b8ff" d="M191.34,-334.03C158.6,-328.88 116.71,-317.81 87,-294 59.31,-271.81 38.25,-250.13 57,-220 88.96,-168.66 261.07,-103.75 336.05,-77.41"/>
<polygon fill="#63b8ff" stroke="#63b8ff" points="337.25,-80.7 345.54,-74.1 334.95,-74.09 337.25,-80.7"/>
</a>
</g>
</g>
<!-- Node25 -->
<g id="Node000025" class="node">
<title>Node25</title>
<g id="a_Node000025"><a xlink:href="_f_string___8h.html" target="_top" xlink:title=" ">
<polygon fill="white" stroke="#666666" points="357.5,-294 250.5,-294 250.5,-275 357.5,-275 357.5,-294"/>
<text text-anchor="middle" x="304" y="-282" font-family="Helvetica,sans-Serif" font-size="10.00">Cpl/Text/FString_.h</text>
</a>
</g>
</g>
<!-- Node24&#45;&gt;Node25 -->
<g id="edge35_Node000024_Node000025" class="edge">
<title>Node24&#45;&gt;Node25</title>
<g id="a_edge35_Node000024_Node000025"><a xlink:title=" ">
<path fill="none" stroke="#63b8ff" d="M251.96,-329.98C261.13,-322.15 274.94,-310.34 286.03,-300.86"/>
<polygon fill="#63b8ff" stroke="#63b8ff" points="288.53,-303.33 293.86,-294.17 283.98,-298.01 288.53,-303.33"/>
</a>
</g>
</g>
<!-- Node25&#45;&gt;Node3 -->
<g id="edge36_Node000025_Node000003" class="edge">
<title>Node25&#45;&gt;Node3</title>
<g id="a_edge36_Node000025_Node000003"><a xlink:title=" ">
<path fill="none" stroke="#63b8ff" d="M297.75,-274.92C284.37,-255.45 255.08,-206.42 267,-165 282.96,-109.54 298.31,-98.71 336,-55 345.46,-44.03 357.7,-33.42 367.92,-25.31"/>
<polygon fill="#63b8ff" stroke="#63b8ff" points="370.15,-28.02 375.94,-19.14 365.88,-22.47 370.15,-28.02"/>
</a>
</g>
</g>
<!-- Node26 -->
<g id="Node000026" class="node">
<title>Node26</title>
<g id="a_Node000026"><a xlink:href="_string___8h.html" target="_top" xlink:title=" ">
<polygon fill="white" stroke="#666666" points="683.5,-239 582.5,-239 582.5,-220 683.5,-220 683.5,-239"/>
<text text-anchor="middle" x="633" y="-227" font-family="Helvetica,sans-Serif" font-size="10.00">Cpl/Text/String_.h</text>
</a>
</g>
</g>
<!-- Node25&#45;&gt;Node26 -->
<g id="edge37_Node000025_Node000026" class="edge">
<title>Node25&#45;&gt;Node26</title>
<g id="a_edge37_Node000025_Node000026"><a xlink:title=" ">
<path fill="none" stroke="#63b8ff" d="M356.86,-274.98C415.71,-265.5 510.64,-250.21 572.43,-240.26"/>
<polygon fill="#63b8ff" stroke="#63b8ff" points="573.12,-243.69 582.43,-238.65 572,-236.78 573.12,-243.69"/>
</a>
</g>
</g>
<!-- Node26&#45;&gt;Node7 -->
<g id="edge38_Node000026_Node000007" class="edge">
<title>Node26&#45;&gt;Node7</title>
<g id="a_edge38_Node000026_Node000007"><a xlink:title=" ">
<path fill="none" stroke="#63b8ff" d="M649.87,-219.98C666.61,-211.54 692.5,-198.47 711.89,-188.68"/>
<polygon fill="#63b8ff" stroke="#63b8ff" points="713.47,-191.8 720.82,-184.17 710.32,-185.55 713.47,-191.8"/>
</a>
</g>
</g>
<!-- Node27&#45;&gt;Node19 -->
<g id="edge44_Node000027_Node000019" class="edge">
<title>Node27&#45;&gt;Node19</title>
<g id="a_edge44_Node000027_Node000019"><a xlink:title=" ">
<path fill="none" stroke="#63b8ff" d="M503.86,-329.93C483.78,-323.19 459.03,-311.88 443,-294 431.81,-281.53 426.25,-263.06 423.53,-249.26"/>
<polygon fill="#63b8ff" stroke="#63b8ff" points="426.98,-248.68 421.9,-239.39 420.08,-249.82 426.98,-248.68"/>
</a>
</g>
</g>
<!-- Node28 -->
<g id="Node000028" class="node">
<title>Node28</title>
<g id="a_Node000028"><a xlink:href="_encoder___8h.html" target="_top" xlink:title=" ">
<polygon fill="white" stroke="#666666" points="1190,-294 1044,-294 1044,-275 1190,-275 1190,-294"/>
<text text-anchor="middle" x="1117" y="-282" font-family="Helvetica,sans-Serif" font-size="10.00">Cpl/Text/Frame/Encoder_.h</text>
</a>
</g>
</g>
<!-- Node27&#45;&gt;Node28 -->
<g id="edge41_Node000027_Node000028" class="edge">
<title>Node27&#45;&gt;Node28</title>
<g id="a_edge41_Node000027_Node000028"><a xlink:title=" ">
<path fill="none" stroke="#63b8ff" d="M624.58,-330.82C741.11,-320.59 942.16,-302.83 1033.61,-294.12"/>
<polygon fill="#63b8ff" stroke="#63b8ff" points="1034.07,-297.59 1043.69,-293.15 1033.4,-290.62 1034.07,-297.59"/>
</a>
</g>
</g>
<!-- Node29 -->
<g id="Node000029" class="node">
<title>Node29</title>
<g id="a_Node000029"><a xlink:href="_encoder_8h.html" target="_top" xlink:title=" ">
<polygon fill="white" stroke="#666666" points="1268,-239 1128,-239 1128,-220 1268,-220 1268,-239"/>
<text text-anchor="middle" x="1198" y="-227" font-family="Helvetica,sans-Serif" font-size="10.00">Cpl/Text/Frame/Encoder.h</text>
</a>
</g>
</g>
<!-- Node28&#45;&gt;Node29 -->
<g id="edge42_Node000028_Node000029" class="edge">
<title>Node28&#45;&gt;Node29</title>
<g id="a_edge42_Node000028_Node000029"><a xlink:title=" ">
<path fill="none" stroke="#63b8ff" d="M1130.01,-274.98C1142.46,-266.84 1161.46,-254.41 1176.21,-244.76"/>
<polygon fill="#63b8ff" stroke="#63b8ff" points="1178.3,-247.57 1184.75,-239.17 1174.46,-241.72 1178.3,-247.57"/>
</a>
</g>
</g>
<!-- Node30 -->
<g id="Node000030" class="node">
<title>Node30</title>
<g id="a_Node000030"><a xlink:title=" ">
<polygon fill="#e0e0e0" stroke="#999999" points="1357.5,-184 1304.5,-184 1304.5,-165 1357.5,-165 1357.5,-184"/>
<text text-anchor="middle" x="1331" y="-172" font-family="Helvetica,sans-Serif" font-size="10.00">stdlib.h</text>
</a>
</g>
</g>
<!-- Node29&#45;&gt;Node30 -->
<g id="edge43_Node000029_Node000030" class="edge">
<title>Node29&#45;&gt;Node30</title>
<g id="a_edge43_Node000029_Node000030"><a xlink:title=" ">
<path fill="none" stroke="#63b8ff" d="M1219.37,-219.98C1241.15,-211.3 1275.16,-197.75 1299.92,-187.88"/>
<polygon fill="#63b8ff" stroke="#63b8ff" points="1301.25,-191.12 1309.24,-184.17 1298.66,-184.62 1301.25,-191.12"/>
</a>
</g>
</g>
<!-- Node31&#45;&gt;Node6 -->
<g id="edge49_Node000031_Node000006" class="edge">
<title>Node31&#45;&gt;Node6</title>
<g id="a_edge49_Node000031_Node000006"><a xlink:title=" ">
<path fill="none" stroke="#63b8ff" d="M714.41,-329.84C678.29,-311 592.32,-266.14 549.35,-243.73"/>
<polygon fill="#63b8ff" stroke="#63b8ff" points="550.87,-240.57 540.38,-239.05 547.63,-246.78 550.87,-240.57"/>
</a>
</g>
</g>
<!-- Node32 -->
<g id="Node000032" class="node">
<title>Node32</title>
<g id="a_Node000032"><a xlink:href="_decoder___8h.html" target="_top" xlink:title=" ">
<polygon fill="white" stroke="#666666" points="1355.5,-294 1208.5,-294 1208.5,-275 1355.5,-275 1355.5,-294"/>
<text text-anchor="middle" x="1282" y="-282" font-family="Helvetica,sans-Serif" font-size="10.00">Cpl/Text/Frame/Decoder_.h</text>
</a>
</g>
</g>
<!-- Node31&#45;&gt;Node32 -->
<g id="edge46_Node000031_Node000032" class="edge">
<title>Node31&#45;&gt;Node32</title>
<g id="a_edge46_Node000031_Node000032"><a xlink:title=" ">
<path fill="none" stroke="#63b8ff" d="M819.43,-330.28C911.34,-321.7 1059.66,-307.73 1198.27,-294.07"/>
<polygon fill="#63b8ff" stroke="#63b8ff" points="1198.63,-297.55 1208.24,-293.08 1197.94,-290.58 1198.63,-297.55"/>
</a>
</g>
</g>
<!-- Node33 -->
<g id="Node000033" class="node">
<title>Node33</title>
<g id="a_Node000033"><a xlink:href="_decoder_8h.html" target="_top" xlink:title=" ">
<polygon fill="white" stroke="#666666" points="1427.5,-239 1286.5,-239 1286.5,-220 1427.5,-220 1427.5,-239"/>
<text text-anchor="middle" x="1357" y="-227" font-family="Helvetica,sans-Serif" font-size="10.00">Cpl/Text/Frame/Decoder.h</text>
</a>
</g>
</g>
<!-- Node32&#45;&gt;Node33 -->
<g id="edge47_Node000032_Node000033" class="edge">
<title>Node32&#45;&gt;Node33</title>
<g id="a_edge47_Node000032_Node000033"><a xlink:title=" ">
<path fill="none" stroke="#63b8ff" d="M1294.05,-274.98C1305.46,-266.92 1322.83,-254.65 1336.43,-245.03"/>
<polygon fill="#63b8ff" stroke="#63b8ff" points="1338.58,-247.8 1344.73,-239.17 1334.54,-242.08 1338.58,-247.8"/>
</a>
</g>
</g>
<!-- Node33&#45;&gt;Node30 -->
<g id="edge48_Node000033_Node000030" class="edge">
<title>Node33&#45;&gt;Node30</title>
<g id="a_edge48_Node000033_Node000030"><a xlink:title=" ">
<path fill="none" stroke="#63b8ff" d="M1352.71,-219.75C1349.19,-212.57 1344.09,-202.18 1339.72,-193.27"/>
<polygon fill="#63b8ff" stroke="#63b8ff" points="1342.76,-191.53 1335.21,-184.09 1336.48,-194.61 1342.76,-191.53"/>
</a>
</g>
</g>
<!-- Node34&#45;&gt;Node31 -->
<g id="edge51_Node000034_Node000031" class="edge">
<title>Node34&#45;&gt;Node31</title>
<g id="a_edge51_Node000034_Node000031"><a xlink:title=" ">
<path fill="none" stroke="#63b8ff" d="M731,-384.75C731,-377.8 731,-367.85 731,-359.13"/>
<polygon fill="#63b8ff" stroke="#63b8ff" points="734.5,-359.09 731,-349.09 727.5,-359.09 734.5,-359.09"/>
</a>
</g>
</g>
<!-- Node35&#45;&gt;Node7 -->
<g id="edge53_Node000035_Node000007" class="edge">
<title>Node35&#45;&gt;Node7</title>
<g id="a_edge53_Node000035_Node000007"><a xlink:title=" ">
<path fill="none" stroke="#63b8ff" d="M899.51,-329.76C900.29,-308.18 899.22,-251.82 870,-220 858.36,-207.33 818.89,-195 786.11,-186.54"/>
<polygon fill="#63b8ff" stroke="#63b8ff" points="786.74,-183.09 776.19,-184.04 785.04,-189.88 786.74,-183.09"/>
</a>
</g>
</g>
<!-- Node35&#45;&gt;Node23 -->
<g id="edge54_Node000035_Node000023" class="edge">
<title>Node35&#45;&gt;Node23</title>
<g id="a_edge54_Node000035_Node000023"><a xlink:title=" ">
<path fill="none" stroke="#63b8ff" d="M961.25,-333.21C1048.67,-325.64 1213.04,-310.87 1363.1,-294.18"/>
<polygon fill="#63b8ff" stroke="#63b8ff" points="1363.87,-297.62 1373.42,-293.03 1363.09,-290.66 1363.87,-297.62"/>
</a>
</g>
</g>
<!-- Node36 -->
<g id="Node000036" class="node">
<title>Node36</title>
<g id="a_Node000036"><a xlink:href="_system_2_trace_8h.html" target="_top" xlink:title=" ">
<polygon fill="white" stroke="#666666" points="1026,-294 916,-294 916,-275 1026,-275 1026,-294"/>
<text text-anchor="middle" x="971" y="-282" font-family="Helvetica,sans-Serif" font-size="10.00">Cpl/System/Trace.h</text>
</a>
</g>
</g>
<!-- Node35&#45;&gt;Node36 -->
<g id="edge55_Node000035_Node000036" class="edge">
<title>Node35&#45;&gt;Node36</title>
<g id="a_edge55_Node000035_Node000036"><a xlink:title=" ">
<path fill="none" stroke="#63b8ff" d="M910.57,-329.98C921.42,-322 937.88,-309.88 950.88,-300.31"/>
<polygon fill="#63b8ff" stroke="#63b8ff" points="953.24,-302.92 959.22,-294.17 949.09,-297.28 953.24,-302.92"/>
</a>
</g>
</g>
<!-- Node41 -->
<g id="Node000041" class="node">
<title>Node41</title>
<g id="a_Node000041"><a xlink:href="_private_startup___8h.html" target="_top" xlink:title="This file contains a collection of classes, interfaces, etc.">
<polygon fill="white" stroke="#666666" points="860.5,-239 701.5,-239 701.5,-220 860.5,-220 860.5,-239"/>
<text text-anchor="middle" x="781" y="-227" font-family="Helvetica,sans-Serif" font-size="10.00">Cpl/System/PrivateStartup_.h</text>
</a>
</g>
</g>
<!-- Node35&#45;&gt;Node41 -->
<g id="edge66_Node000035_Node000041" class="edge">
<title>Node35&#45;&gt;Node41</title>
<g id="a_edge66_Node000035_Node000041"><a xlink:title=" ">
<path fill="none" stroke="#63b8ff" d="M889.34,-329.66C869.36,-311.38 823.26,-269.18 798.12,-246.17"/>
<polygon fill="#63b8ff" stroke="#63b8ff" points="800.2,-243.33 790.46,-239.16 795.47,-248.49 800.2,-243.33"/>
</a>
</g>
</g>
<!-- Node36&#45;&gt;Node3 -->
<g id="edge56_Node000036_Node000003" class="edge">
<title>Node36&#45;&gt;Node3</title>
<g id="a_edge56_Node000036_Node000003"><a xlink:title=" ">
<path fill="none" stroke="#63b8ff" d="M970.89,-274.74C970.19,-253.6 965.72,-199.02 939,-165 876.33,-85.22 835.47,-86.38 739,-55 638.51,-22.31 514.56,-13.46 444.07,-11.17"/>
<polygon fill="#63b8ff" stroke="#63b8ff" points="444.17,-7.67 434.07,-10.88 443.96,-14.67 444.17,-7.67"/>
</a>
</g>
</g>
<!-- Node36&#45;&gt;Node7 -->
<g id="edge57_Node000036_Node000007" class="edge">
<title>Node36&#45;&gt;Node7</title>
<g id="a_edge57_Node000036_Node000007"><a xlink:title=" ">
<path fill="none" stroke="#63b8ff" d="M963.92,-274.69C952.4,-260.95 928.22,-234.48 902,-220 869.23,-201.91 828.66,-190.82 796.07,-184.24"/>
<polygon fill="#63b8ff" stroke="#63b8ff" points="796.71,-180.8 786.23,-182.33 795.38,-187.67 796.71,-180.8"/>
</a>
</g>
</g>
<!-- Node36&#45;&gt;Node19 -->
<g id="edge65_Node000036_Node000019" class="edge">
<title>Node36&#45;&gt;Node19</title>
<g id="a_edge65_Node000036_Node000019"><a xlink:title=" ">
<path fill="none" stroke="#63b8ff" d="M915.82,-279.76C826,-273.4 642.33,-259.29 476.17,-239.06"/>
<polygon fill="#63b8ff" stroke="#63b8ff" points="476.11,-235.53 465.76,-237.78 475.26,-242.47 476.11,-235.53"/>
</a>
</g>
</g>
<!-- Node37 -->
<g id="Node000037" class="node">
<title>Node37</title>
<g id="a_Node000037"><a xlink:href="_thread_8h.html" target="_top" xlink:title=" ">
<polygon fill="white" stroke="#666666" points="1110,-239 992,-239 992,-220 1110,-220 1110,-239"/>
<text text-anchor="middle" x="1051" y="-227" font-family="Helvetica,sans-Serif" font-size="10.00">Cpl/System/Thread.h</text>
</a>
</g>
</g>
<!-- Node36&#45;&gt;Node37 -->
<g id="edge58_Node000036_Node000037" class="edge">
<title>Node36&#45;&gt;Node37</title>
<g id="a_edge58_Node000036_Node000037"><a xlink:title=" ">
<path fill="none" stroke="#63b8ff" d="M983.85,-274.98C996.14,-266.84 1014.91,-254.41 1029.48,-244.76"/>
<polygon fill="#63b8ff" stroke="#63b8ff" points="1031.51,-247.61 1037.91,-239.17 1027.64,-241.78 1031.51,-247.61"/>
</a>
</g>
</g>
<!-- Node37&#45;&gt;Node8 -->
<g id="edge59_Node000037_Node000008" class="edge">
<title>Node37&#45;&gt;Node8</title>
<g id="a_edge59_Node000037_Node000008"><a xlink:title=" ">
<path fill="none" stroke="#63b8ff" d="M1107.52,-220C1165.19,-210.74 1247.55,-195.71 1257,-184 1288.95,-144.41 1219.82,-100.13 1179.06,-78.63"/>
<polygon fill="#63b8ff" stroke="#63b8ff" points="1180.61,-75.49 1170.12,-74.03 1177.41,-81.72 1180.61,-75.49"/>
</a>
</g>
</g>
<!-- Node37&#45;&gt;Node30 -->
<g id="edge64_Node000037_Node000030" class="edge">
<title>Node37&#45;&gt;Node30</title>
<g id="a_edge64_Node000037_Node000030"><a xlink:title=" ">
<path fill="none" stroke="#63b8ff" d="M1098.67,-219.92C1146.95,-211.16 1223.74,-197.04 1290,-184 1291.28,-183.75 1292.59,-183.49 1293.91,-183.22"/>
<polygon fill="#63b8ff" stroke="#63b8ff" points="1295,-186.57 1304.11,-181.16 1293.61,-179.71 1295,-186.57"/>
</a>
</g>
</g>
<!-- Node38 -->
<g id="Node000038" class="node">
<title>Node38</title>
<g id="a_Node000038"><a xlink:href="_runnable_8h.html" target="_top" xlink:title=" ">
<polygon fill="white" stroke="#666666" points="1116,-184 986,-184 986,-165 1116,-165 1116,-184"/>
<text text-anchor="middle" x="1051" y="-172" font-family="Helvetica,sans-Serif" font-size="10.00">Cpl/System/Runnable.h</text>
</a>
</g>
</g>
<!-- Node37&#45;&gt;Node38 -->
<g id="edge60_Node000037_Node000038" class="edge">
<title>Node37&#45;&gt;Node38</title>
<g id="a_edge60_Node000037_Node000038"><a xlink:title=" ">
<path fill="none" stroke="#63b8ff" d="M1051,-219.75C1051,-212.8 1051,-202.85 1051,-194.13"/>
<polygon fill="#63b8ff" stroke="#63b8ff" points="1054.5,-194.09 1051,-184.09 1047.5,-194.09 1054.5,-194.09"/>
</a>
</g>
</g>
<!-- Node39 -->
<g id="Node000039" class="node">
<title>Node39</title>
<g id="a_Node000039"><a xlink:href="_signable_8h.html" target="_top" xlink:title=" ">
<polygon fill="white" stroke="#666666" points="930,-184 804,-184 804,-165 930,-165 930,-184"/>
<text text-anchor="middle" x="867" y="-172" font-family="Helvetica,sans-Serif" font-size="10.00">Cpl/System/Signable.h</text>
</a>
</g>
</g>
<!-- Node37&#45;&gt;Node39 -->
<g id="edge61_Node000037_Node000039" class="edge">
<title>Node37&#45;&gt;Node39</title>
<g id="a_edge61_Node000037_Node000039"><a xlink:title=" ">
<path fill="none" stroke="#63b8ff" d="M1021.44,-219.98C990.28,-211.01 941.03,-196.82 906.54,-186.89"/>
<polygon fill="#63b8ff" stroke="#63b8ff" points="907.37,-183.49 896.79,-184.08 905.43,-190.21 907.37,-183.49"/>
</a>
</g>
</g>
<!-- Node40 -->
<g id="Node000040" class="node">
<title>Node40</title>
<g id="a_Node000040"><a xlink:href="_traverser_8h.html" target="_top" xlink:title=" ">
<polygon fill="white" stroke="#666666" points="1248,-184 1134,-184 1134,-165 1248,-165 1248,-184"/>
<text text-anchor="middle" x="1191" y="-172" font-family="Helvetica,sans-Serif" font-size="10.00">Cpl/Type/Traverser.h</text>
</a>
</g>
</g>
<!-- Node37&#45;&gt;Node40 -->
<g id="edge63_Node000037_Node000040" class="edge">
<title>Node37&#45;&gt;Node40</title>
<g id="a_edge63_Node000037_Node000040"><a xlink:title=" ">
<path fill="none" stroke="#63b8ff" d="M1073.49,-219.98C1096.52,-211.27 1132.54,-197.63 1158.63,-187.75"/>
<polygon fill="#63b8ff" stroke="#63b8ff" points="1159.98,-190.98 1168.1,-184.17 1157.51,-184.44 1159.98,-190.98"/>
</a>
</g>
</g>
<!-- Node39&#45;&gt;Node17 -->
<g id="edge62_Node000039_Node000017" class="edge">
<title>Node39&#45;&gt;Node17</title>
<g id="a_edge62_Node000039_Node000017"><a xlink:title=" ">
<path fill="none" stroke="#63b8ff" d="M803.99,-165.33C729.04,-155.62 604.36,-139.47 526.9,-129.43"/>
<polygon fill="#63b8ff" stroke="#63b8ff" points="527.13,-125.93 516.77,-128.12 526.23,-132.87 527.13,-125.93"/>
</a>
</g>
</g>
<!-- Node41&#45;&gt;Node17 -->
<g id="edge67_Node000041_Node000017" class="edge">
<title>Node41&#45;&gt;Node17</title>
<g id="a_edge67_Node000041_Node000017"><a xlink:title=" ">
<path fill="none" stroke="#63b8ff" d="M760.96,-219.9C740.68,-211.12 708.49,-196.98 681,-184 663.93,-175.94 660.74,-171.47 643,-165 601.73,-149.94 553.41,-138.52 516.5,-131.02"/>
<polygon fill="#63b8ff" stroke="#63b8ff" points="516.9,-127.53 506.41,-129.01 515.53,-134.39 516.9,-127.53"/>
</a>
</g>
</g>
</g>
</svg>
