<?xml version="1.0" encoding="UTF-8" standalone="no"?>
<!DOCTYPE svg PUBLIC "-//W3C//DTD SVG 1.1//EN"
 "http://www.w3.org/Graphics/SVG/1.1/DTD/svg11.dtd">
<!-- Generated by graphviz version 2.43.0 (0)
 -->
<!-- Title: Cpl/Container/Hash.h Pages: 1 -->
<svg width="348pt" height="192pt"
 viewBox="0.00 0.00 348.00 192.00" xmlns="http://www.w3.org/2000/svg" xmlns:xlink="http://www.w3.org/1999/xlink">
<g id="graph0" class="graph" transform="scale(1 1) rotate(0) translate(4 188)">
<title>Cpl/Container/Hash.h</title>
<!-- Node1 -->
<g id="Node000001" class="node">
<title>Node1</title>
<g id="a_Node000001"><a xlink:title=" ">
<polygon fill="#999999" stroke="#666666" points="226.5,-184 107.5,-184 107.5,-165 226.5,-165 226.5,-184"/>
<text text-anchor="middle" x="167" y="-172" font-family="Helvetica,sans-Serif" font-size="10.00">Cpl/Container/Hash.h</text>
</a>
</g>
</g>
<!-- Node2 -->
<g id="Node000002" class="node">
<title>Node2</title>
<g id="a_Node000002"><a xlink:href="_d_hash_table___8h.html" target="_top" xlink:title=" ">
<polygon fill="white" stroke="#666666" points="158,-74 0,-74 0,-55 158,-55 158,-74"/>
<text text-anchor="middle" x="79" y="-62" font-family="Helvetica,sans-Serif" font-size="10.00">Cpl/Container/DHashTable_.h</text>
</a>
</g>
</g>
<!-- Node1&#45;&gt;Node2 -->
<g id="edge1_Node000001_Node000002" class="edge">
<title>Node1&#45;&gt;Node2</title>
<g id="a_edge1_Node000001_Node000002"><a xlink:title=" ">
<path fill="none" stroke="#63b8ff" d="M124.78,-161.03C109.02,-154.17 92.64,-143.93 83,-129 72.1,-112.11 74.67,-87.14 77.08,-74.12"/>
<polygon fill="#63b8ff" stroke="#63b8ff" points="123.86,-164.43 134.44,-164.87 126.44,-157.92 123.86,-164.43"/>
</a>
</g>
</g>
<!-- Node4 -->
<g id="Node000004" class="node">
<title>Node4</title>
<g id="a_Node000004"><a xlink:href="_f_hash_table___8h.html" target="_top" xlink:title=" ">
<polygon fill="white" stroke="#666666" points="340,-74 184,-74 184,-55 340,-55 340,-74"/>
<text text-anchor="middle" x="262" y="-62" font-family="Helvetica,sans-Serif" font-size="10.00">Cpl/Container/FHashTable_.h</text>
</a>
</g>
</g>
<!-- Node1&#45;&gt;Node4 -->
<g id="edge3_Node000001_Node000004" class="edge">
<title>Node1&#45;&gt;Node4</title>
<g id="a_edge3_Node000001_Node000004"><a xlink:title=" ">
<path fill="none" stroke="#63b8ff" d="M207.34,-160.95C223.29,-154 240.33,-143.71 251,-129 262.96,-112.52 263.47,-87.38 262.77,-74.22"/>
<polygon fill="#63b8ff" stroke="#63b8ff" points="205.59,-157.88 197.61,-164.86 208.2,-164.38 205.59,-157.88"/>
</a>
</g>
</g>
<!-- Node6 -->
<g id="Node000006" class="node">
<title>Node6</title>
<g id="a_Node000006"><a xlink:href="_hash_table___8h.html" target="_top" xlink:title=" ">
<polygon fill="white" stroke="#666666" points="242,-129 92,-129 92,-110 242,-110 242,-129"/>
<text text-anchor="middle" x="167" y="-117" font-family="Helvetica,sans-Serif" font-size="10.00">Cpl/Container/HashTable_.h</text>
</a>
</g>
</g>
<!-- Node1&#45;&gt;Node6 -->
<g id="edge5_Node000001_Node000006" class="edge">
<title>Node1&#45;&gt;Node6</title>
<g id="a_edge5_Node000001_Node000006"><a xlink:title=" ">
<path fill="none" stroke="#63b8ff" d="M167,-154.66C167,-145.93 167,-135.99 167,-129.09"/>
<polygon fill="#63b8ff" stroke="#63b8ff" points="163.5,-154.75 167,-164.75 170.5,-154.75 163.5,-154.75"/>
</a>
</g>
</g>
<!-- Node3 -->
<g id="Node000003" class="node">
<title>Node3</title>
<g id="a_Node000003"><a xlink:href="_dictionary_8h.html" target="_top" xlink:title=" ">
<polygon fill="white" stroke="#666666" points="150.5,-19 7.5,-19 7.5,0 150.5,0 150.5,-19"/>
<text text-anchor="middle" x="79" y="-7" font-family="Helvetica,sans-Serif" font-size="10.00">Cpl/Container/Dictionary.h</text>
</a>
</g>
</g>
<!-- Node2&#45;&gt;Node3 -->
<g id="edge2_Node000002_Node000003" class="edge">
<title>Node2&#45;&gt;Node3</title>
<g id="a_edge2_Node000002_Node000003"><a xlink:title=" ">
<path fill="none" stroke="#63b8ff" d="M79,-44.66C79,-35.93 79,-25.99 79,-19.09"/>
<polygon fill="#63b8ff" stroke="#63b8ff" points="75.5,-44.75 79,-54.75 82.5,-44.75 75.5,-44.75"/>
</a>
</g>
</g>
<!-- Node5 -->
<g id="Node000005" class="node">
<title>Node5</title>
<g id="a_Node000005"><a xlink:href="_f_dictionary_8h.html" target="_top" xlink:title=" ">
<polygon fill="white" stroke="#666666" points="336.5,-19 187.5,-19 187.5,0 336.5,0 336.5,-19"/>
<text text-anchor="middle" x="262" y="-7" font-family="Helvetica,sans-Serif" font-size="10.00">Cpl/Container/FDictionary.h</text>
</a>
</g>
</g>
<!-- Node4&#45;&gt;Node5 -->
<g id="edge4_Node000004_Node000005" class="edge">
<title>Node4&#45;&gt;Node5</title>
<g id="a_edge4_Node000004_Node000005"><a xlink:title=" ">
<path fill="none" stroke="#63b8ff" d="M262,-44.66C262,-35.93 262,-25.99 262,-19.09"/>
<polygon fill="#63b8ff" stroke="#63b8ff" points="258.5,-44.75 262,-54.75 265.5,-44.75 258.5,-44.75"/>
</a>
</g>
</g>
<!-- Node6&#45;&gt;Node2 -->
<g id="edge6_Node000006_Node000002" class="edge">
<title>Node6&#45;&gt;Node2</title>
<g id="a_edge6_Node000006_Node000002"><a xlink:title=" ">
<path fill="none" stroke="#63b8ff" d="M144.08,-104.7C128.05,-95.04 107.13,-82.44 93.4,-74.17"/>
<polygon fill="#63b8ff" stroke="#63b8ff" points="142.49,-107.82 152.86,-109.98 146.1,-101.83 142.49,-107.82"/>
</a>
</g>
</g>
<!-- Node6&#45;&gt;Node4 -->
<g id="edge7_Node000006_Node000004" class="edge">
<title>Node6&#45;&gt;Node4</title>
<g id="a_edge7_Node000006_Node000004"><a xlink:title=" ">
<path fill="none" stroke="#63b8ff" d="M191.26,-104.97C208.63,-95.28 231.49,-82.52 246.46,-74.17"/>
<polygon fill="#63b8ff" stroke="#63b8ff" points="189.29,-102.06 182.26,-109.98 192.7,-108.17 189.29,-102.06"/>
</a>
</g>
</g>
</g>
</svg>
