<?xml version="1.0" encoding="UTF-8" standalone="no"?>
<!DOCTYPE svg PUBLIC "-//W3C//DTD SVG 1.1//EN"
 "http://www.w3.org/Graphics/SVG/1.1/DTD/svg11.dtd">
<!-- Generated by graphviz version 2.43.0 (0)
 -->
<!-- Title: Cpl/Checksum/Crc32EthernetFast.h Pages: 1 -->
<svg width="166pt" height="148pt"
 viewBox="0.00 0.00 166.00 148.00" xmlns="http://www.w3.org/2000/svg" xmlns:xlink="http://www.w3.org/1999/xlink">
<g id="graph0" class="graph" transform="scale(1 1) rotate(0) translate(4 144)">
<title>Cpl/Checksum/Crc32EthernetFast.h</title>
<!-- Node1 -->
<g id="Node000001" class="node">
<title>Node1</title>
<g id="a_Node000001"><a xlink:title=" ">
<polygon fill="#999999" stroke="#666666" points="158,-140 0,-140 0,-110 158,-110 158,-140"/>
<text text-anchor="start" x="8" y="-128" font-family="Helvetica,sans-Serif" font-size="10.00">Cpl/Checksum/Crc32Ethernet</text>
<text text-anchor="middle" x="79" y="-117" font-family="Helvetica,sans-Serif" font-size="10.00">Fast.h</text>
</a>
</g>
</g>
<!-- Node2 -->
<g id="Node000002" class="node">
<title>Node2</title>
<g id="a_Node000002"><a xlink:href="_api32_8h.html" target="_top" xlink:title=" ">
<polygon fill="white" stroke="#666666" points="142,-74 16,-74 16,-55 142,-55 142,-74"/>
<text text-anchor="middle" x="79" y="-62" font-family="Helvetica,sans-Serif" font-size="10.00">Cpl/Checksum/Api32.h</text>
</a>
</g>
</g>
<!-- Node1&#45;&gt;Node2 -->
<g id="edge1_Node000001_Node000002" class="edge">
<title>Node1&#45;&gt;Node2</title>
<g id="a_edge1_Node000001_Node000002"><a xlink:title=" ">
<path fill="none" stroke="#63b8ff" d="M79,-109.84C79,-102.21 79,-92.7 79,-84.45"/>
<polygon fill="#63b8ff" stroke="#63b8ff" points="82.5,-84.27 79,-74.27 75.5,-84.27 82.5,-84.27"/>
</a>
</g>
</g>
<!-- Node3 -->
<g id="Node000003" class="node">
<title>Node3</title>
<g id="a_Node000003"><a xlink:title=" ">
<polygon fill="#e0e0e0" stroke="#999999" points="105.5,-19 52.5,-19 52.5,0 105.5,0 105.5,-19"/>
<text text-anchor="middle" x="79" y="-7" font-family="Helvetica,sans-Serif" font-size="10.00">stdint.h</text>
</a>
</g>
</g>
<!-- Node2&#45;&gt;Node3 -->
<g id="edge2_Node000002_Node000003" class="edge">
<title>Node2&#45;&gt;Node3</title>
<g id="a_edge2_Node000002_Node000003"><a xlink:title=" ">
<path fill="none" stroke="#63b8ff" d="M79,-54.75C79,-47.8 79,-37.85 79,-29.13"/>
<polygon fill="#63b8ff" stroke="#63b8ff" points="82.5,-29.09 79,-19.09 75.5,-29.09 82.5,-29.09"/>
</a>
</g>
</g>
</g>
</svg>
