<?xml version="1.0" encoding="UTF-8" standalone="no"?>
<!DOCTYPE svg PUBLIC "-//W3C//DTD SVG 1.1//EN"
 "http://www.w3.org/Graphics/SVG/1.1/DTD/svg11.dtd">
<!-- Generated by graphviz version 2.43.0 (0)
 -->
<!-- Title: Cpl/Text/DFStringItem.h Pages: 1 -->
<svg width="519pt" height="412pt"
 viewBox="0.00 0.00 518.50 412.00" xmlns="http://www.w3.org/2000/svg" xmlns:xlink="http://www.w3.org/1999/xlink">
<g id="graph0" class="graph" transform="scale(1 1) rotate(0) translate(4 408)">
<title>Cpl/Text/DFStringItem.h</title>
<!-- Node1 -->
<g id="Node000001" class="node">
<title>Node1</title>
<g id="a_Node000001"><a xlink:title=" ">
<polygon fill="#999999" stroke="#666666" points="420,-404 289,-404 289,-385 420,-385 420,-404"/>
<text text-anchor="middle" x="354.5" y="-392" font-family="Helvetica,sans-Serif" font-size="10.00">Cpl/Text/DFStringItem.h</text>
</a>
</g>
</g>
<!-- Node2 -->
<g id="Node000002" class="node">
<title>Node2</title>
<g id="a_Node000002"><a xlink:href="_string_item_8h.html" target="_top" xlink:title=" ">
<polygon fill="white" stroke="#666666" points="349,-294 230,-294 230,-275 349,-275 349,-294"/>
<text text-anchor="middle" x="289.5" y="-282" font-family="Helvetica,sans-Serif" font-size="10.00">Cpl/Text/StringItem.h</text>
</a>
</g>
</g>
<!-- Node1&#45;&gt;Node2 -->
<g id="edge1_Node000001_Node000002" class="edge">
<title>Node1&#45;&gt;Node2</title>
<g id="a_edge1_Node000001_Node000002"><a xlink:title=" ">
<path fill="none" stroke="#63b8ff" d="M349.18,-384.66C338.46,-366.85 314.1,-326.37 300.04,-303.01"/>
<polygon fill="#63b8ff" stroke="#63b8ff" points="302.87,-300.92 294.71,-294.16 296.87,-304.53 302.87,-300.92"/>
</a>
</g>
</g>
<!-- Node16 -->
<g id="Node000016" class="node">
<title>Node16</title>
<g id="a_Node000016"><a xlink:href="_d_f_string_8h.html" target="_top" xlink:title=" ">
<polygon fill="white" stroke="#666666" points="475,-349 366,-349 366,-330 475,-330 475,-349"/>
<text text-anchor="middle" x="420.5" y="-337" font-family="Helvetica,sans-Serif" font-size="10.00">Cpl/Text/DFString.h</text>
</a>
</g>
</g>
<!-- Node1&#45;&gt;Node16 -->
<g id="edge17_Node000001_Node000016" class="edge">
<title>Node1&#45;&gt;Node16</title>
<g id="a_edge17_Node000001_Node000016"><a xlink:title=" ">
<path fill="none" stroke="#63b8ff" d="M365.1,-384.98C374.96,-377.07 389.85,-365.11 401.72,-355.58"/>
<polygon fill="#63b8ff" stroke="#63b8ff" points="404.1,-358.16 409.7,-349.17 399.71,-352.7 404.1,-358.16"/>
</a>
</g>
</g>
<!-- Node3 -->
<g id="Node000003" class="node">
<title>Node3</title>
<g id="a_Node000003"><a xlink:href="_map_item_8h.html" target="_top" xlink:title=" ">
<polygon fill="white" stroke="#666666" points="262.5,-239 124.5,-239 124.5,-220 262.5,-220 262.5,-239"/>
<text text-anchor="middle" x="193.5" y="-227" font-family="Helvetica,sans-Serif" font-size="10.00">Cpl/Container/MapItem.h</text>
</a>
</g>
</g>
<!-- Node2&#45;&gt;Node3 -->
<g id="edge2_Node000002_Node000003" class="edge">
<title>Node2&#45;&gt;Node3</title>
<g id="a_edge2_Node000002_Node000003"><a xlink:title=" ">
<path fill="none" stroke="#63b8ff" d="M274.08,-274.98C259.05,-266.69 235.96,-253.94 218.34,-244.22"/>
<polygon fill="#63b8ff" stroke="#63b8ff" points="219.65,-240.94 209.2,-239.17 216.27,-247.07 219.65,-240.94"/>
</a>
</g>
</g>
<!-- Node13 -->
<g id="Node000013" class="node">
<title>Node13</title>
<g id="a_Node000013"><a xlink:href="_text_2_string_8h.html" target="_top" xlink:title=" ">
<polygon fill="white" stroke="#666666" points="394.5,-184 298.5,-184 298.5,-165 394.5,-165 394.5,-184"/>
<text text-anchor="middle" x="346.5" y="-172" font-family="Helvetica,sans-Serif" font-size="10.00">Cpl/Text/String.h</text>
</a>
</g>
</g>
<!-- Node2&#45;&gt;Node13 -->
<g id="edge12_Node000002_Node000013" class="edge">
<title>Node2&#45;&gt;Node13</title>
<g id="a_edge12_Node000002_Node000013"><a xlink:title=" ">
<path fill="none" stroke="#63b8ff" d="M294.16,-274.66C303.56,-256.85 324.93,-216.37 337.26,-193.01"/>
<polygon fill="#63b8ff" stroke="#63b8ff" points="340.36,-194.64 341.93,-184.16 334.17,-191.37 340.36,-194.64"/>
</a>
</g>
</g>
<!-- Node4 -->
<g id="Node000004" class="node">
<title>Node4</title>
<g id="a_Node000004"><a xlink:href="_dict_item_8h.html" target="_top" xlink:title=" ">
<polygon fill="white" stroke="#666666" points="259,-184 122,-184 122,-165 259,-165 259,-184"/>
<text text-anchor="middle" x="190.5" y="-172" font-family="Helvetica,sans-Serif" font-size="10.00">Cpl/Container/DictItem.h</text>
</a>
</g>
</g>
<!-- Node3&#45;&gt;Node4 -->
<g id="edge3_Node000003_Node000004" class="edge">
<title>Node3&#45;&gt;Node4</title>
<g id="a_edge3_Node000003_Node000004"><a xlink:title=" ">
<path fill="none" stroke="#63b8ff" d="M193,-219.75C192.61,-212.8 192.05,-202.85 191.55,-194.13"/>
<polygon fill="#63b8ff" stroke="#63b8ff" points="195.05,-193.88 190.99,-184.09 188.06,-194.27 195.05,-193.88"/>
</a>
</g>
</g>
<!-- Node5 -->
<g id="Node000005" class="node">
<title>Node5</title>
<g id="a_Node000005"><a xlink:href="_item_8h.html" target="_top" xlink:title=" ">
<polygon fill="white" stroke="#666666" points="117,-129 0,-129 0,-110 117,-110 117,-129"/>
<text text-anchor="middle" x="58.5" y="-117" font-family="Helvetica,sans-Serif" font-size="10.00">Cpl/Container/Item.h</text>
</a>
</g>
</g>
<!-- Node4&#45;&gt;Node5 -->
<g id="edge4_Node000004_Node000005" class="edge">
<title>Node4&#45;&gt;Node5</title>
<g id="a_edge4_Node000004_Node000005"><a xlink:title=" ">
<path fill="none" stroke="#63b8ff" d="M169.29,-164.98C147.77,-156.34 114.22,-142.87 89.67,-133.02"/>
<polygon fill="#63b8ff" stroke="#63b8ff" points="90.68,-129.65 80.09,-129.17 88.07,-136.14 90.68,-129.65"/>
</a>
</g>
</g>
<!-- Node6 -->
<g id="Node000006" class="node">
<title>Node6</title>
<g id="a_Node000006"><a xlink:href="_key_8h.html" target="_top" xlink:title=" ">
<polygon fill="white" stroke="#666666" points="246,-129 135,-129 135,-110 246,-110 246,-129"/>
<text text-anchor="middle" x="190.5" y="-117" font-family="Helvetica,sans-Serif" font-size="10.00">Cpl/Container/Key.h</text>
</a>
</g>
</g>
<!-- Node4&#45;&gt;Node6 -->
<g id="edge5_Node000004_Node000006" class="edge">
<title>Node4&#45;&gt;Node6</title>
<g id="a_edge5_Node000004_Node000006"><a xlink:title=" ">
<path fill="none" stroke="#63b8ff" d="M190.5,-164.75C190.5,-157.8 190.5,-147.85 190.5,-139.13"/>
<polygon fill="#63b8ff" stroke="#63b8ff" points="194,-139.09 190.5,-129.09 187,-139.09 194,-139.09"/>
</a>
</g>
</g>
<!-- Node7 -->
<g id="Node000007" class="node">
<title>Node7</title>
<g id="a_Node000007"><a xlink:href="_fatal_error_8h.html" target="_top" xlink:title=" ">
<polygon fill="white" stroke="#666666" points="157.5,-74 27.5,-74 27.5,-55 157.5,-55 157.5,-74"/>
<text text-anchor="middle" x="92.5" y="-62" font-family="Helvetica,sans-Serif" font-size="10.00">Cpl/System/FatalError.h</text>
</a>
</g>
</g>
<!-- Node6&#45;&gt;Node7 -->
<g id="edge6_Node000006_Node000007" class="edge">
<title>Node6&#45;&gt;Node7</title>
<g id="a_edge6_Node000006_Node000007"><a xlink:title=" ">
<path fill="none" stroke="#63b8ff" d="M174.75,-109.98C159.27,-101.61 135.41,-88.7 117.36,-78.95"/>
<polygon fill="#63b8ff" stroke="#63b8ff" points="118.99,-75.85 108.53,-74.17 115.66,-82.01 118.99,-75.85"/>
</a>
</g>
</g>
<!-- Node10 -->
<g id="Node000010" class="node">
<title>Node10</title>
<g id="a_Node000010"><a xlink:title=" ">
<polygon fill="#e0e0e0" stroke="#999999" points="229,-74 176,-74 176,-55 229,-55 229,-74"/>
<text text-anchor="middle" x="202.5" y="-62" font-family="Helvetica,sans-Serif" font-size="10.00">stdint.h</text>
</a>
</g>
</g>
<!-- Node6&#45;&gt;Node10 -->
<g id="edge9_Node000006_Node000010" class="edge">
<title>Node6&#45;&gt;Node10</title>
<g id="a_edge9_Node000006_Node000010"><a xlink:title=" ">
<path fill="none" stroke="#63b8ff" d="M192.48,-109.75C194.07,-102.72 196.36,-92.62 198.35,-83.84"/>
<polygon fill="#63b8ff" stroke="#63b8ff" points="201.76,-84.62 200.56,-74.09 194.93,-83.07 201.76,-84.62"/>
</a>
</g>
</g>
<!-- Node11 -->
<g id="Node000011" class="node">
<title>Node11</title>
<g id="a_Node000011"><a xlink:title=" ">
<polygon fill="#e0e0e0" stroke="#999999" points="300,-74 247,-74 247,-55 300,-55 300,-74"/>
<text text-anchor="middle" x="273.5" y="-62" font-family="Helvetica,sans-Serif" font-size="10.00">string.h</text>
</a>
</g>
</g>
<!-- Node6&#45;&gt;Node11 -->
<g id="edge10_Node000006_Node000011" class="edge">
<title>Node6&#45;&gt;Node11</title>
<g id="a_edge10_Node000006_Node000011"><a xlink:title=" ">
<path fill="none" stroke="#63b8ff" d="M203.84,-109.98C216.59,-101.84 236.05,-89.41 251.17,-79.76"/>
<polygon fill="#63b8ff" stroke="#63b8ff" points="253.38,-82.5 259.92,-74.17 249.61,-76.6 253.38,-82.5"/>
</a>
</g>
</g>
<!-- Node12 -->
<g id="Node000012" class="node">
<title>Node12</title>
<g id="a_Node000012"><a xlink:title=" ">
<polygon fill="#e0e0e0" stroke="#999999" points="425,-74 340,-74 340,-55 425,-55 425,-74"/>
<text text-anchor="middle" x="382.5" y="-62" font-family="Helvetica,sans-Serif" font-size="10.00">colony_map.h</text>
</a>
</g>
</g>
<!-- Node6&#45;&gt;Node12 -->
<g id="edge11_Node000006_Node000012" class="edge">
<title>Node6&#45;&gt;Node12</title>
<g id="a_edge11_Node000006_Node000012"><a xlink:title=" ">
<path fill="none" stroke="#63b8ff" d="M221.35,-109.98C254,-100.97 305.7,-86.7 341.7,-76.76"/>
<polygon fill="#63b8ff" stroke="#63b8ff" points="342.7,-80.12 351.41,-74.08 340.84,-73.37 342.7,-80.12"/>
</a>
</g>
</g>
<!-- Node8 -->
<g id="Node000008" class="node">
<title>Node8</title>
<g id="a_Node000008"><a xlink:title=" ">
<polygon fill="#e0e0e0" stroke="#999999" points="120.5,-19 64.5,-19 64.5,0 120.5,0 120.5,-19"/>
<text text-anchor="middle" x="92.5" y="-7" font-family="Helvetica,sans-Serif" font-size="10.00">stddef.h</text>
</a>
</g>
</g>
<!-- Node7&#45;&gt;Node8 -->
<g id="edge7_Node000007_Node000008" class="edge">
<title>Node7&#45;&gt;Node8</title>
<g id="a_edge7_Node000007_Node000008"><a xlink:title=" ">
<path fill="none" stroke="#63b8ff" d="M92.5,-54.75C92.5,-47.8 92.5,-37.85 92.5,-29.13"/>
<polygon fill="#63b8ff" stroke="#63b8ff" points="96,-29.09 92.5,-19.09 89,-29.09 96,-29.09"/>
</a>
</g>
</g>
<!-- Node9 -->
<g id="Node000009" class="node">
<title>Node9</title>
<g id="a_Node000009"><a xlink:title=" ">
<polygon fill="#e0e0e0" stroke="#999999" points="510.5,-19 418.5,-19 418.5,0 510.5,0 510.5,-19"/>
<text text-anchor="middle" x="464.5" y="-7" font-family="Helvetica,sans-Serif" font-size="10.00">colony_config.h</text>
</a>
</g>
</g>
<!-- Node7&#45;&gt;Node9 -->
<g id="edge8_Node000007_Node000009" class="edge">
<title>Node7&#45;&gt;Node9</title>
<g id="a_edge8_Node000007_Node000009"><a xlink:title=" ">
<path fill="none" stroke="#63b8ff" d="M152.27,-54.98C222.79,-44.94 339.15,-28.36 408.15,-18.53"/>
<polygon fill="#63b8ff" stroke="#63b8ff" points="408.99,-21.94 418.39,-17.07 408,-15.01 408.99,-21.94"/>
</a>
</g>
</g>
<!-- Node13&#45;&gt;Node6 -->
<g id="edge14_Node000013_Node000006" class="edge">
<title>Node13&#45;&gt;Node6</title>
<g id="a_edge14_Node000013_Node000006"><a xlink:title=" ">
<path fill="none" stroke="#63b8ff" d="M321.44,-164.98C295.47,-156.16 254.69,-142.31 225.54,-132.41"/>
<polygon fill="#63b8ff" stroke="#63b8ff" points="226.35,-128.99 215.76,-129.08 224.1,-135.61 226.35,-128.99"/>
</a>
</g>
</g>
<!-- Node13&#45;&gt;Node12 -->
<g id="edge13_Node000013_Node000012" class="edge">
<title>Node13&#45;&gt;Node12</title>
<g id="a_edge13_Node000013_Node000012"><a xlink:title=" ">
<path fill="none" stroke="#63b8ff" d="M366.7,-164.91C380.97,-157.64 399.01,-145.71 407.5,-129 415.26,-113.73 406.28,-95.44 396.99,-82.43"/>
<polygon fill="#63b8ff" stroke="#63b8ff" points="399.61,-80.1 390.71,-74.36 394.09,-84.4 399.61,-80.1"/>
</a>
</g>
</g>
<!-- Node14 -->
<g id="Node000014" class="node">
<title>Node14</title>
<g id="a_Node000014"><a xlink:title=" ">
<polygon fill="#e0e0e0" stroke="#999999" points="320.5,-129 264.5,-129 264.5,-110 320.5,-110 320.5,-129"/>
<text text-anchor="middle" x="292.5" y="-117" font-family="Helvetica,sans-Serif" font-size="10.00">stdarg.h</text>
</a>
</g>
</g>
<!-- Node13&#45;&gt;Node14 -->
<g id="edge15_Node000013_Node000014" class="edge">
<title>Node13&#45;&gt;Node14</title>
<g id="a_edge15_Node000013_Node000014"><a xlink:title=" ">
<path fill="none" stroke="#63b8ff" d="M337.58,-164.75C329.72,-157.03 318.07,-145.6 308.58,-136.28"/>
<polygon fill="#63b8ff" stroke="#63b8ff" points="310.84,-133.6 301.25,-129.09 305.94,-138.59 310.84,-133.6"/>
</a>
</g>
</g>
<!-- Node15 -->
<g id="Node000015" class="node">
<title>Node15</title>
<g id="a_Node000015"><a xlink:title=" ">
<polygon fill="#e0e0e0" stroke="#999999" points="398.5,-129 338.5,-129 338.5,-110 398.5,-110 398.5,-129"/>
<text text-anchor="middle" x="368.5" y="-117" font-family="Helvetica,sans-Serif" font-size="10.00">iostream</text>
</a>
</g>
</g>
<!-- Node13&#45;&gt;Node15 -->
<g id="edge16_Node000013_Node000015" class="edge">
<title>Node13&#45;&gt;Node15</title>
<g id="a_edge16_Node000013_Node000015"><a xlink:title=" ">
<path fill="none" stroke="#63b8ff" d="M350.13,-164.75C353.08,-157.65 357.33,-147.4 361.01,-138.56"/>
<polygon fill="#63b8ff" stroke="#63b8ff" points="364.33,-139.67 364.93,-129.09 357.87,-136.98 364.33,-139.67"/>
</a>
</g>
</g>
<!-- Node16&#45;&gt;Node9 -->
<g id="edge18_Node000016_Node000009" class="edge">
<title>Node16&#45;&gt;Node9</title>
<g id="a_edge18_Node000016_Node000009"><a xlink:title=" ">
<path fill="none" stroke="#63b8ff" d="M438.15,-329.9C452.07,-322.27 471,-309.88 482.5,-294 499.85,-270.03 502.5,-260.09 502.5,-230.5 502.5,-230.5 502.5,-230.5 502.5,-118.5 502.5,-85.02 486.05,-48.84 474.8,-28.01"/>
<polygon fill="#63b8ff" stroke="#63b8ff" points="477.74,-26.1 469.78,-19.1 471.63,-29.53 477.74,-26.1"/>
</a>
</g>
</g>
<!-- Node17 -->
<g id="Node000017" class="node">
<title>Node17</title>
<g id="a_Node000017"><a xlink:href="_f_string___8h.html" target="_top" xlink:title=" ">
<polygon fill="white" stroke="#666666" points="474,-294 367,-294 367,-275 474,-275 474,-294"/>
<text text-anchor="middle" x="420.5" y="-282" font-family="Helvetica,sans-Serif" font-size="10.00">Cpl/Text/FString_.h</text>
</a>
</g>
</g>
<!-- Node16&#45;&gt;Node17 -->
<g id="edge19_Node000016_Node000017" class="edge">
<title>Node16&#45;&gt;Node17</title>
<g id="a_edge19_Node000016_Node000017"><a xlink:title=" ">
<path fill="none" stroke="#63b8ff" d="M420.5,-329.75C420.5,-322.8 420.5,-312.85 420.5,-304.13"/>
<polygon fill="#63b8ff" stroke="#63b8ff" points="424,-304.09 420.5,-294.09 417,-304.09 424,-304.09"/>
</a>
</g>
</g>
<!-- Node17&#45;&gt;Node9 -->
<g id="edge20_Node000017_Node000009" class="edge">
<title>Node17&#45;&gt;Node9</title>
<g id="a_edge20_Node000017_Node000009"><a xlink:title=" ">
<path fill="none" stroke="#63b8ff" d="M426.8,-274.75C438.97,-256.98 464.5,-214.98 464.5,-175.5 464.5,-175.5 464.5,-175.5 464.5,-118.5 464.5,-87.19 464.5,-50.77 464.5,-29.23"/>
<polygon fill="#63b8ff" stroke="#63b8ff" points="468,-29.18 464.5,-19.18 461,-29.18 468,-29.18"/>
</a>
</g>
</g>
<!-- Node18 -->
<g id="Node000018" class="node">
<title>Node18</title>
<g id="a_Node000018"><a xlink:href="_string___8h.html" target="_top" xlink:title=" ">
<polygon fill="white" stroke="#666666" points="434,-239 333,-239 333,-220 434,-220 434,-239"/>
<text text-anchor="middle" x="383.5" y="-227" font-family="Helvetica,sans-Serif" font-size="10.00">Cpl/Text/String_.h</text>
</a>
</g>
</g>
<!-- Node17&#45;&gt;Node18 -->
<g id="edge21_Node000017_Node000018" class="edge">
<title>Node17&#45;&gt;Node18</title>
<g id="a_edge21_Node000017_Node000018"><a xlink:title=" ">
<path fill="none" stroke="#63b8ff" d="M414.39,-274.75C409.22,-267.34 401.65,-256.5 395.31,-247.41"/>
<polygon fill="#63b8ff" stroke="#63b8ff" points="398.09,-245.29 389.5,-239.09 392.35,-249.29 398.09,-245.29"/>
</a>
</g>
</g>
<!-- Node18&#45;&gt;Node13 -->
<g id="edge22_Node000018_Node000013" class="edge">
<title>Node18&#45;&gt;Node13</title>
<g id="a_edge22_Node000018_Node000013"><a xlink:title=" ">
<path fill="none" stroke="#63b8ff" d="M377.39,-219.75C372.22,-212.34 364.65,-201.5 358.31,-192.41"/>
<polygon fill="#63b8ff" stroke="#63b8ff" points="361.09,-190.29 352.5,-184.09 355.35,-194.29 361.09,-190.29"/>
</a>
</g>
</g>
</g>
</svg>
