<?xml version="1.0" encoding="UTF-8" standalone="no"?>
<!DOCTYPE svg PUBLIC "-//W3C//DTD SVG 1.1//EN"
 "http://www.w3.org/Graphics/SVG/1.1/DTD/svg11.dtd">
<!-- Generated by graphviz version 2.43.0 (0)
 -->
<!-- Title: Cpl/Container/DHashTable_.h Pages: 1 -->
<svg width="633pt" height="302pt"
 viewBox="0.00 0.00 633.00 302.00" xmlns="http://www.w3.org/2000/svg" xmlns:xlink="http://www.w3.org/1999/xlink">
<g id="graph0" class="graph" transform="scale(1 1) rotate(0) translate(4 298)">
<title>Cpl/Container/DHashTable_.h</title>
<!-- Node1 -->
<g id="Node000001" class="node">
<title>Node1</title>
<g id="a_Node000001"><a xlink:title=" ">
<polygon fill="#999999" stroke="#666666" points="395,-294 237,-294 237,-275 395,-275 395,-294"/>
<text text-anchor="middle" x="316" y="-282" font-family="Helvetica,sans-Serif" font-size="10.00">Cpl/Container/DHashTable_.h</text>
</a>
</g>
</g>
<!-- Node2 -->
<g id="Node000002" class="node">
<title>Node2</title>
<g id="a_Node000002"><a xlink:href="_dict_item_8h.html" target="_top" xlink:title=" ">
<polygon fill="white" stroke="#666666" points="221.5,-184 84.5,-184 84.5,-165 221.5,-165 221.5,-184"/>
<text text-anchor="middle" x="153" y="-172" font-family="Helvetica,sans-Serif" font-size="10.00">Cpl/Container/DictItem.h</text>
</a>
</g>
</g>
<!-- Node1&#45;&gt;Node2 -->
<g id="edge1_Node000001_Node000002" class="edge">
<title>Node1&#45;&gt;Node2</title>
<g id="a_edge1_Node000001_Node000002"><a xlink:title=" ">
<path fill="none" stroke="#63b8ff" d="M293.88,-274.86C274.64,-266.88 246.41,-254.01 224,-239 203.1,-225 181.96,-205.21 168.25,-191.46"/>
<polygon fill="#63b8ff" stroke="#63b8ff" points="170.6,-188.85 161.1,-184.15 165.59,-193.75 170.6,-188.85"/>
</a>
</g>
</g>
<!-- Node11 -->
<g id="Node000011" class="node">
<title>Node11</title>
<g id="a_Node000011"><a xlink:href="_cpl_2_container_2_hash_8h.html" target="_top" xlink:title=" ">
<polygon fill="white" stroke="#666666" points="358.5,-184 239.5,-184 239.5,-165 358.5,-165 358.5,-184"/>
<text text-anchor="middle" x="299" y="-172" font-family="Helvetica,sans-Serif" font-size="10.00">Cpl/Container/Hash.h</text>
</a>
</g>
</g>
<!-- Node1&#45;&gt;Node11 -->
<g id="edge10_Node000001_Node000011" class="edge">
<title>Node1&#45;&gt;Node11</title>
<g id="a_edge10_Node000001_Node000011"><a xlink:title=" ">
<path fill="none" stroke="#63b8ff" d="M282.6,-274.98C264.22,-268.4 242.98,-257.24 232,-239 219.58,-218.36 244.83,-200.07 267.81,-188.48"/>
<polygon fill="#63b8ff" stroke="#63b8ff" points="269.54,-191.54 277.07,-184.09 266.54,-185.21 269.54,-191.54"/>
</a>
</g>
</g>
<!-- Node12 -->
<g id="Node000012" class="node">
<title>Node12</title>
<g id="a_Node000012"><a xlink:href="_hash_table___8h.html" target="_top" xlink:title=" ">
<polygon fill="white" stroke="#666666" points="391,-239 241,-239 241,-220 391,-220 391,-239"/>
<text text-anchor="middle" x="316" y="-227" font-family="Helvetica,sans-Serif" font-size="10.00">Cpl/Container/HashTable_.h</text>
</a>
</g>
</g>
<!-- Node1&#45;&gt;Node12 -->
<g id="edge11_Node000001_Node000012" class="edge">
<title>Node1&#45;&gt;Node12</title>
<g id="a_edge11_Node000001_Node000012"><a xlink:title=" ">
<path fill="none" stroke="#63b8ff" d="M316,-274.75C316,-267.8 316,-257.85 316,-249.13"/>
<polygon fill="#63b8ff" stroke="#63b8ff" points="319.5,-249.09 316,-239.09 312.5,-249.09 319.5,-249.09"/>
</a>
</g>
</g>
<!-- Node13 -->
<g id="Node000013" class="node">
<title>Node13</title>
<g id="a_Node000013"><a xlink:href="_d_list_8h.html" target="_top" xlink:title=" ">
<polygon fill="white" stroke="#666666" points="495.5,-184 376.5,-184 376.5,-165 495.5,-165 495.5,-184"/>
<text text-anchor="middle" x="436" y="-172" font-family="Helvetica,sans-Serif" font-size="10.00">Cpl/Container/DList.h</text>
</a>
</g>
</g>
<!-- Node1&#45;&gt;Node13 -->
<g id="edge16_Node000001_Node000013" class="edge">
<title>Node1&#45;&gt;Node13</title>
<g id="a_edge16_Node000001_Node000013"><a xlink:title=" ">
<path fill="none" stroke="#63b8ff" d="M340.38,-274.91C358.51,-267.57 382.96,-255.56 400,-239 413.18,-226.19 422.98,-207.51 429,-193.73"/>
<polygon fill="#63b8ff" stroke="#63b8ff" points="432.3,-194.9 432.86,-184.32 425.83,-192.24 432.3,-194.9"/>
</a>
</g>
</g>
<!-- Node14 -->
<g id="Node000014" class="node">
<title>Node14</title>
<g id="a_Node000014"><a xlink:href="_hash_func_default_8h.html" target="_top" xlink:title=" ">
<polygon fill="white" stroke="#666666" points="625,-239 447,-239 447,-220 625,-220 625,-239"/>
<text text-anchor="middle" x="536" y="-227" font-family="Helvetica,sans-Serif" font-size="10.00">Cpl/Container/HashFuncDefault.h</text>
</a>
</g>
</g>
<!-- Node1&#45;&gt;Node14 -->
<g id="edge15_Node000001_Node000014" class="edge">
<title>Node1&#45;&gt;Node14</title>
<g id="a_edge15_Node000001_Node000014"><a xlink:title=" ">
<path fill="none" stroke="#63b8ff" d="M351.35,-274.98C389.16,-265.87 449.26,-251.4 490.57,-241.45"/>
<polygon fill="#63b8ff" stroke="#63b8ff" points="491.47,-244.83 500.38,-239.08 489.83,-238.02 491.47,-244.83"/>
</a>
</g>
</g>
<!-- Node3 -->
<g id="Node000003" class="node">
<title>Node3</title>
<g id="a_Node000003"><a xlink:href="_item_8h.html" target="_top" xlink:title=" ">
<polygon fill="white" stroke="#666666" points="145.5,-129 28.5,-129 28.5,-110 145.5,-110 145.5,-129"/>
<text text-anchor="middle" x="87" y="-117" font-family="Helvetica,sans-Serif" font-size="10.00">Cpl/Container/Item.h</text>
</a>
</g>
</g>
<!-- Node2&#45;&gt;Node3 -->
<g id="edge2_Node000002_Node000003" class="edge">
<title>Node2&#45;&gt;Node3</title>
<g id="a_edge2_Node000002_Node000003"><a xlink:title=" ">
<path fill="none" stroke="#63b8ff" d="M142.4,-164.98C132.54,-157.07 117.65,-145.11 105.78,-135.58"/>
<polygon fill="#63b8ff" stroke="#63b8ff" points="107.79,-132.7 97.8,-129.17 103.4,-138.16 107.79,-132.7"/>
</a>
</g>
</g>
<!-- Node4 -->
<g id="Node000004" class="node">
<title>Node4</title>
<g id="a_Node000004"><a xlink:href="_key_8h.html" target="_top" xlink:title=" ">
<polygon fill="white" stroke="#666666" points="274.5,-129 163.5,-129 163.5,-110 274.5,-110 274.5,-129"/>
<text text-anchor="middle" x="219" y="-117" font-family="Helvetica,sans-Serif" font-size="10.00">Cpl/Container/Key.h</text>
</a>
</g>
</g>
<!-- Node2&#45;&gt;Node4 -->
<g id="edge3_Node000002_Node000004" class="edge">
<title>Node2&#45;&gt;Node4</title>
<g id="a_edge3_Node000002_Node000004"><a xlink:title=" ">
<path fill="none" stroke="#63b8ff" d="M163.6,-164.98C173.46,-157.07 188.35,-145.11 200.22,-135.58"/>
<polygon fill="#63b8ff" stroke="#63b8ff" points="202.6,-138.16 208.2,-129.17 198.21,-132.7 202.6,-138.16"/>
</a>
</g>
</g>
<!-- Node5 -->
<g id="Node000005" class="node">
<title>Node5</title>
<g id="a_Node000005"><a xlink:href="_fatal_error_8h.html" target="_top" xlink:title=" ">
<polygon fill="white" stroke="#666666" points="139,-74 9,-74 9,-55 139,-55 139,-74"/>
<text text-anchor="middle" x="74" y="-62" font-family="Helvetica,sans-Serif" font-size="10.00">Cpl/System/FatalError.h</text>
</a>
</g>
</g>
<!-- Node4&#45;&gt;Node5 -->
<g id="edge4_Node000004_Node000005" class="edge">
<title>Node4&#45;&gt;Node5</title>
<g id="a_edge4_Node000004_Node000005"><a xlink:title=" ">
<path fill="none" stroke="#63b8ff" d="M195.7,-109.98C171.75,-101.23 134.22,-87.51 107.17,-77.62"/>
<polygon fill="#63b8ff" stroke="#63b8ff" points="108.31,-74.32 97.72,-74.17 105.91,-80.89 108.31,-74.32"/>
</a>
</g>
</g>
<!-- Node8 -->
<g id="Node000008" class="node">
<title>Node8</title>
<g id="a_Node000008"><a xlink:title=" ">
<polygon fill="#e0e0e0" stroke="#999999" points="210.5,-74 157.5,-74 157.5,-55 210.5,-55 210.5,-74"/>
<text text-anchor="middle" x="184" y="-62" font-family="Helvetica,sans-Serif" font-size="10.00">stdint.h</text>
</a>
</g>
</g>
<!-- Node4&#45;&gt;Node8 -->
<g id="edge7_Node000004_Node000008" class="edge">
<title>Node4&#45;&gt;Node8</title>
<g id="a_edge7_Node000004_Node000008"><a xlink:title=" ">
<path fill="none" stroke="#63b8ff" d="M213.22,-109.75C208.38,-102.42 201.32,-91.73 195.36,-82.7"/>
<polygon fill="#63b8ff" stroke="#63b8ff" points="198.1,-80.5 189.67,-74.09 192.26,-84.36 198.1,-80.5"/>
</a>
</g>
</g>
<!-- Node9 -->
<g id="Node000009" class="node">
<title>Node9</title>
<g id="a_Node000009"><a xlink:title=" ">
<polygon fill="#e0e0e0" stroke="#999999" points="281.5,-74 228.5,-74 228.5,-55 281.5,-55 281.5,-74"/>
<text text-anchor="middle" x="255" y="-62" font-family="Helvetica,sans-Serif" font-size="10.00">string.h</text>
</a>
</g>
</g>
<!-- Node4&#45;&gt;Node9 -->
<g id="edge8_Node000004_Node000009" class="edge">
<title>Node4&#45;&gt;Node9</title>
<g id="a_edge8_Node000004_Node000009"><a xlink:title=" ">
<path fill="none" stroke="#63b8ff" d="M224.94,-109.75C229.98,-102.34 237.34,-91.5 243.51,-82.41"/>
<polygon fill="#63b8ff" stroke="#63b8ff" points="246.44,-84.33 249.17,-74.09 240.65,-80.39 246.44,-84.33"/>
</a>
</g>
</g>
<!-- Node10 -->
<g id="Node000010" class="node">
<title>Node10</title>
<g id="a_Node000010"><a xlink:title=" ">
<polygon fill="#e0e0e0" stroke="#999999" points="384.5,-74 299.5,-74 299.5,-55 384.5,-55 384.5,-74"/>
<text text-anchor="middle" x="342" y="-62" font-family="Helvetica,sans-Serif" font-size="10.00">colony_map.h</text>
</a>
</g>
</g>
<!-- Node4&#45;&gt;Node10 -->
<g id="edge9_Node000004_Node000010" class="edge">
<title>Node4&#45;&gt;Node10</title>
<g id="a_edge9_Node000004_Node000010"><a xlink:title=" ">
<path fill="none" stroke="#63b8ff" d="M238.76,-109.98C258.73,-101.38 289.8,-87.99 312.65,-78.15"/>
<polygon fill="#63b8ff" stroke="#63b8ff" points="314.08,-81.34 321.88,-74.17 311.31,-74.91 314.08,-81.34"/>
</a>
</g>
</g>
<!-- Node6 -->
<g id="Node000006" class="node">
<title>Node6</title>
<g id="a_Node000006"><a xlink:title=" ">
<polygon fill="#e0e0e0" stroke="#999999" points="56,-19 0,-19 0,0 56,0 56,-19"/>
<text text-anchor="middle" x="28" y="-7" font-family="Helvetica,sans-Serif" font-size="10.00">stddef.h</text>
</a>
</g>
</g>
<!-- Node5&#45;&gt;Node6 -->
<g id="edge5_Node000005_Node000006" class="edge">
<title>Node5&#45;&gt;Node6</title>
<g id="a_edge5_Node000005_Node000006"><a xlink:title=" ">
<path fill="none" stroke="#63b8ff" d="M66.4,-54.75C59.84,-47.18 50.18,-36.05 42.19,-26.84"/>
<polygon fill="#63b8ff" stroke="#63b8ff" points="44.65,-24.35 35.45,-19.09 39.37,-28.94 44.65,-24.35"/>
</a>
</g>
</g>
<!-- Node7 -->
<g id="Node000007" class="node">
<title>Node7</title>
<g id="a_Node000007"><a xlink:title=" ">
<polygon fill="#e0e0e0" stroke="#999999" points="166,-19 74,-19 74,0 166,0 166,-19"/>
<text text-anchor="middle" x="120" y="-7" font-family="Helvetica,sans-Serif" font-size="10.00">colony_config.h</text>
</a>
</g>
</g>
<!-- Node5&#45;&gt;Node7 -->
<g id="edge6_Node000005_Node000007" class="edge">
<title>Node5&#45;&gt;Node7</title>
<g id="a_edge6_Node000005_Node000007"><a xlink:title=" ">
<path fill="none" stroke="#63b8ff" d="M81.6,-54.75C88.16,-47.18 97.82,-36.05 105.81,-26.84"/>
<polygon fill="#63b8ff" stroke="#63b8ff" points="108.63,-28.94 112.55,-19.09 103.35,-24.35 108.63,-28.94"/>
</a>
</g>
</g>
<!-- Node12&#45;&gt;Node2 -->
<g id="edge12_Node000012_Node000002" class="edge">
<title>Node12&#45;&gt;Node2</title>
<g id="a_edge12_Node000012_Node000002"><a xlink:title=" ">
<path fill="none" stroke="#63b8ff" d="M289.81,-219.98C262.56,-211.13 219.7,-197.19 189.22,-187.28"/>
<polygon fill="#63b8ff" stroke="#63b8ff" points="189.99,-183.85 179.39,-184.08 187.82,-190.5 189.99,-183.85"/>
</a>
</g>
</g>
<!-- Node12&#45;&gt;Node11 -->
<g id="edge13_Node000012_Node000011" class="edge">
<title>Node12&#45;&gt;Node11</title>
<g id="a_edge13_Node000012_Node000011"><a xlink:title=" ">
<path fill="none" stroke="#63b8ff" d="M313.19,-219.75C310.94,-212.72 307.7,-202.62 304.88,-193.84"/>
<polygon fill="#63b8ff" stroke="#63b8ff" points="308.14,-192.54 301.75,-184.09 301.48,-194.68 308.14,-192.54"/>
</a>
</g>
</g>
<!-- Node12&#45;&gt;Node13 -->
<g id="edge14_Node000012_Node000013" class="edge">
<title>Node12&#45;&gt;Node13</title>
<g id="a_edge14_Node000012_Node000013"><a xlink:title=" ">
<path fill="none" stroke="#63b8ff" d="M335.28,-219.98C354.67,-211.42 384.81,-198.11 407.07,-188.28"/>
<polygon fill="#63b8ff" stroke="#63b8ff" points="408.64,-191.41 416.37,-184.17 405.81,-185.01 408.64,-191.41"/>
</a>
</g>
</g>
</g>
</svg>
