<?xml version="1.0" encoding="UTF-8" standalone="no"?>
<!DOCTYPE svg PUBLIC "-//W3C//DTD SVG 1.1//EN"
 "http://www.w3.org/Graphics/SVG/1.1/DTD/svg11.dtd">
<!-- Generated by graphviz version 2.43.0 (0)
 -->
<!-- Title: Cpl/Container/DList.h Pages: 1 -->
<svg width="2289pt" height="511pt"
 viewBox="0.00 0.00 2289.00 511.00" xmlns="http://www.w3.org/2000/svg" xmlns:xlink="http://www.w3.org/1999/xlink">
<g id="graph0" class="graph" transform="scale(1 1) rotate(0) translate(4 507)">
<title>Cpl/Container/DList.h</title>
<!-- Node1 -->
<g id="Node000001" class="node">
<title>Node1</title>
<g id="a_Node000001"><a xlink:title=" ">
<polygon fill="#999999" stroke="#666666" points="819.5,-503 700.5,-503 700.5,-484 819.5,-484 819.5,-503"/>
<text text-anchor="middle" x="760" y="-491" font-family="Helvetica,sans-Serif" font-size="10.00">Cpl/Container/DList.h</text>
</a>
</g>
</g>
<!-- Node2 -->
<g id="Node000002" class="node">
<title>Node2</title>
<g id="a_Node000002"><a xlink:href="_d_hash_table___8h.html" target="_top" xlink:title=" ">
<polygon fill="white" stroke="#666666" points="542,-393 384,-393 384,-374 542,-374 542,-393"/>
<text text-anchor="middle" x="463" y="-381" font-family="Helvetica,sans-Serif" font-size="10.00">Cpl/Container/DHashTable_.h</text>
</a>
</g>
</g>
<!-- Node1&#45;&gt;Node2 -->
<g id="edge1_Node000001_Node000002" class="edge">
<title>Node1&#45;&gt;Node2</title>
<g id="a_edge1_Node000001_Node000002"><a xlink:title=" ">
<path fill="none" stroke="#63b8ff" d="M690.24,-488.17C644.19,-483.09 583.62,-472.03 535,-448 507.21,-434.27 481.79,-406.97 469.97,-393.07"/>
<polygon fill="#63b8ff" stroke="#63b8ff" points="690.12,-491.68 700.42,-489.23 690.84,-484.71 690.12,-491.68"/>
</a>
</g>
</g>
<!-- Node4 -->
<g id="Node000004" class="node">
<title>Node4</title>
<g id="a_Node000004"><a xlink:href="_f_hash_table___8h.html" target="_top" xlink:title=" ">
<polygon fill="white" stroke="#666666" points="716,-393 560,-393 560,-374 716,-374 716,-393"/>
<text text-anchor="middle" x="638" y="-381" font-family="Helvetica,sans-Serif" font-size="10.00">Cpl/Container/FHashTable_.h</text>
</a>
</g>
</g>
<!-- Node1&#45;&gt;Node4 -->
<g id="edge3_Node000001_Node000004" class="edge">
<title>Node1&#45;&gt;Node4</title>
<g id="a_edge3_Node000001_Node000004"><a xlink:title=" ">
<path fill="none" stroke="#63b8ff" d="M746.85,-475.75C735.88,-462.33 719.45,-443.42 703,-429 686.96,-414.94 666.33,-401.49 652.66,-393.13"/>
<polygon fill="#63b8ff" stroke="#63b8ff" points="744.22,-478.07 753.21,-483.68 749.68,-473.69 744.22,-478.07"/>
</a>
</g>
</g>
<!-- Node6 -->
<g id="Node000006" class="node">
<title>Node6</title>
<g id="a_Node000006"><a xlink:href="_hash_table___8h.html" target="_top" xlink:title=" ">
<polygon fill="white" stroke="#666666" points="694,-448 544,-448 544,-429 694,-429 694,-448"/>
<text text-anchor="middle" x="619" y="-436" font-family="Helvetica,sans-Serif" font-size="10.00">Cpl/Container/HashTable_.h</text>
</a>
</g>
</g>
<!-- Node1&#45;&gt;Node6 -->
<g id="edge5_Node000001_Node000006" class="edge">
<title>Node1&#45;&gt;Node6</title>
<g id="a_edge5_Node000001_Node000006"><a xlink:title=" ">
<path fill="none" stroke="#63b8ff" d="M727.86,-480.42C701.71,-470.59 665.41,-456.95 642.07,-448.17"/>
<polygon fill="#63b8ff" stroke="#63b8ff" points="726.75,-483.74 737.35,-483.98 729.22,-477.19 726.75,-483.74"/>
</a>
</g>
</g>
<!-- Node7 -->
<g id="Node000007" class="node">
<title>Node7</title>
<g id="a_Node000007"><a xlink:href="_dm_2_event_loop_8h.html" target="_top" xlink:title=" ">
<polygon fill="white" stroke="#666666" points="810,-332.5 694,-332.5 694,-313.5 810,-313.5 810,-332.5"/>
<text text-anchor="middle" x="752" y="-320.5" font-family="Helvetica,sans-Serif" font-size="10.00">Cpl/Dm/EventLoop.h</text>
</a>
</g>
</g>
<!-- Node1&#45;&gt;Node7 -->
<g id="edge8_Node000001_Node000007" class="edge">
<title>Node1&#45;&gt;Node7</title>
<g id="a_edge8_Node000001_Node000007"><a xlink:title=" ">
<path fill="none" stroke="#63b8ff" d="M759.11,-473.74C757.39,-437.48 753.66,-359.04 752.42,-332.77"/>
<polygon fill="#63b8ff" stroke="#63b8ff" points="755.62,-474.09 759.59,-483.91 762.61,-473.76 755.62,-474.09"/>
</a>
</g>
</g>
<!-- Node29 -->
<g id="Node000029" class="node">
<title>Node29</title>
<g id="a_Node000029"><a xlink:href="_model_point_common___8h.html" target="_top" xlink:title=" ">
<polygon fill="white" stroke="#666666" points="1716.5,-217 1547.5,-217 1547.5,-198 1716.5,-198 1716.5,-217"/>
<text text-anchor="middle" x="1632" y="-205" font-family="Helvetica,sans-Serif" font-size="10.00">Cpl/Dm/ModelPointCommon_.h</text>
</a>
</g>
</g>
<!-- Node1&#45;&gt;Node29 -->
<g id="edge54_Node000001_Node000029" class="edge">
<title>Node1&#45;&gt;Node29</title>
<g id="a_edge54_Node000001_Node000029"><a xlink:title=" ">
<path fill="none" stroke="#63b8ff" d="M829.87,-492.6C908.08,-488.6 1024,-468.5 1024,-384.5 1024,-384.5 1024,-384.5 1024,-322 1024,-269.38 1380.4,-230.8 1547.46,-215.61"/>
<polygon fill="#63b8ff" stroke="#63b8ff" points="829.42,-489.12 819.58,-493.05 829.72,-496.11 829.42,-489.12"/>
</a>
</g>
</g>
<!-- Node51 -->
<g id="Node000051" class="node">
<title>Node51</title>
<g id="a_Node000051"><a xlink:href="_pool___8h.html" target="_top" xlink:title=" ">
<polygon fill="white" stroke="#666666" points="1167,-448 1053,-448 1053,-429 1167,-429 1167,-448"/>
<text text-anchor="middle" x="1110" y="-436" font-family="Helvetica,sans-Serif" font-size="10.00">Cpl/Memory/Pool_.h</text>
</a>
</g>
</g>
<!-- Node1&#45;&gt;Node51 -->
<g id="edge55_Node000001_Node000051" class="edge">
<title>Node1&#45;&gt;Node51</title>
<g id="a_edge55_Node000001_Node000051"><a xlink:title=" ">
<path fill="none" stroke="#63b8ff" d="M826.48,-482.43C892.2,-472.48 991.65,-457.42 1053.62,-448.04"/>
<polygon fill="#63b8ff" stroke="#63b8ff" points="825.6,-479.03 816.23,-483.98 826.64,-485.95 825.6,-479.03"/>
</a>
</g>
</g>
<!-- Node56 -->
<g id="Node000056" class="node">
<title>Node56</title>
<g id="a_Node000056"><a xlink:href="_timer_manager_8h.html" target="_top" xlink:title=" ">
<polygon fill="white" stroke="#666666" points="951.5,-448 796.5,-448 796.5,-429 951.5,-429 951.5,-448"/>
<text text-anchor="middle" x="874" y="-436" font-family="Helvetica,sans-Serif" font-size="10.00">Cpl/System/TimerManager.h</text>
</a>
</g>
</g>
<!-- Node1&#45;&gt;Node56 -->
<g id="edge60_Node000001_Node000056" class="edge">
<title>Node1&#45;&gt;Node56</title>
<g id="a_edge60_Node000001_Node000056"><a xlink:title=" ">
<path fill="none" stroke="#63b8ff" d="M787.39,-479.77C808.42,-469.99 836.89,-456.75 855.35,-448.17"/>
<polygon fill="#63b8ff" stroke="#63b8ff" points="785.91,-476.6 778.32,-483.98 788.86,-482.94 785.91,-476.6"/>
</a>
</g>
</g>
<!-- Node3 -->
<g id="Node000003" class="node">
<title>Node3</title>
<g id="a_Node000003"><a xlink:href="_dictionary_8h.html" target="_top" xlink:title=" ">
<polygon fill="white" stroke="#666666" points="509.5,-332.5 366.5,-332.5 366.5,-313.5 509.5,-313.5 509.5,-332.5"/>
<text text-anchor="middle" x="438" y="-320.5" font-family="Helvetica,sans-Serif" font-size="10.00">Cpl/Container/Dictionary.h</text>
</a>
</g>
</g>
<!-- Node2&#45;&gt;Node3 -->
<g id="edge2_Node000002_Node000003" class="edge">
<title>Node2&#45;&gt;Node3</title>
<g id="a_edge2_Node000002_Node000003"><a xlink:title=" ">
<path fill="none" stroke="#63b8ff" d="M455.37,-364.65C450.84,-354.04 445.29,-341.06 441.7,-332.67"/>
<polygon fill="#63b8ff" stroke="#63b8ff" points="452.16,-366.05 459.31,-373.87 458.6,-363.3 452.16,-366.05"/>
</a>
</g>
</g>
<!-- Node5 -->
<g id="Node000005" class="node">
<title>Node5</title>
<g id="a_Node000005"><a xlink:href="_f_dictionary_8h.html" target="_top" xlink:title=" ">
<polygon fill="white" stroke="#666666" points="676.5,-332.5 527.5,-332.5 527.5,-313.5 676.5,-313.5 676.5,-332.5"/>
<text text-anchor="middle" x="602" y="-320.5" font-family="Helvetica,sans-Serif" font-size="10.00">Cpl/Container/FDictionary.h</text>
</a>
</g>
</g>
<!-- Node4&#45;&gt;Node5 -->
<g id="edge4_Node000004_Node000005" class="edge">
<title>Node4&#45;&gt;Node5</title>
<g id="a_edge4_Node000004_Node000005"><a xlink:title=" ">
<path fill="none" stroke="#63b8ff" d="M627.42,-365.3C620.82,-354.58 612.61,-341.23 607.33,-332.67"/>
<polygon fill="#63b8ff" stroke="#63b8ff" points="624.47,-367.19 632.69,-373.87 630.43,-363.52 624.47,-367.19"/>
</a>
</g>
</g>
<!-- Node6&#45;&gt;Node2 -->
<g id="edge6_Node000006_Node000002" class="edge">
<title>Node6&#45;&gt;Node2</title>
<g id="a_edge6_Node000006_Node000002"><a xlink:title=" ">
<path fill="none" stroke="#63b8ff" d="M584.18,-425.67C555.09,-415.79 514.3,-401.93 488.26,-393.08"/>
<polygon fill="#63b8ff" stroke="#63b8ff" points="583.34,-429.08 593.94,-428.98 585.59,-422.45 583.34,-429.08"/>
</a>
</g>
</g>
<!-- Node6&#45;&gt;Node4 -->
<g id="edge7_Node000006_Node000004" class="edge">
<title>Node6&#45;&gt;Node4</title>
<g id="a_edge7_Node000006_Node000004"><a xlink:title=" ">
<path fill="none" stroke="#63b8ff" d="M625.55,-419.24C628.72,-410.37 632.39,-400.14 634.92,-393.09"/>
<polygon fill="#63b8ff" stroke="#63b8ff" points="622.22,-418.15 622.14,-428.75 628.81,-420.52 622.22,-418.15"/>
</a>
</g>
</g>
<!-- Node8 -->
<g id="Node000008" class="node">
<title>Node8</title>
<g id="a_Node000008"><a xlink:href="_dm_2_mailbox_server_8h.html" target="_top" xlink:title=" ">
<polygon fill="white" stroke="#666666" points="619,-217 485,-217 485,-198 619,-198 619,-217"/>
<text text-anchor="middle" x="552" y="-205" font-family="Helvetica,sans-Serif" font-size="10.00">Cpl/Dm/MailboxServer.h</text>
</a>
</g>
</g>
<!-- Node7&#45;&gt;Node8 -->
<g id="edge9_Node000007_Node000008" class="edge">
<title>Node7&#45;&gt;Node8</title>
<g id="a_edge9_Node000007_Node000008"><a xlink:title=" ">
<path fill="none" stroke="#63b8ff" d="M728.06,-308.41C686.41,-284.78 601.76,-236.74 567.21,-217.13"/>
<polygon fill="#63b8ff" stroke="#63b8ff" points="726.54,-311.58 736.97,-313.47 730,-305.49 726.54,-311.58"/>
</a>
</g>
</g>
<!-- Node28 -->
<g id="Node000028" class="node">
<title>Node28</title>
<g id="a_Node000028"><a xlink:href="_subscriber_8h.html" target="_top" xlink:title=" ">
<polygon fill="white" stroke="#666666" points="809.5,-272 694.5,-272 694.5,-253 809.5,-253 809.5,-272"/>
<text text-anchor="middle" x="752" y="-260" font-family="Helvetica,sans-Serif" font-size="10.00">Cpl/Dm/Subscriber.h</text>
</a>
</g>
</g>
<!-- Node7&#45;&gt;Node28 -->
<g id="edge28_Node000007_Node000028" class="edge">
<title>Node7&#45;&gt;Node28</title>
<g id="a_edge28_Node000007_Node000028"><a xlink:title=" ">
<path fill="none" stroke="#63b8ff" d="M752,-303.16C752,-292.74 752,-280.3 752,-272.17"/>
<polygon fill="#63b8ff" stroke="#63b8ff" points="748.5,-303.37 752,-313.37 755.5,-303.37 748.5,-303.37"/>
</a>
</g>
</g>
<!-- Node9 -->
<g id="Node000009" class="node">
<title>Node9</title>
<g id="a_Node000009"><a xlink:href="_dm_2_periodic_scheduler_8h.html" target="_top" xlink:title=" ">
<polygon fill="white" stroke="#666666" points="779.5,-156.5 628.5,-156.5 628.5,-137.5 779.5,-137.5 779.5,-156.5"/>
<text text-anchor="middle" x="704" y="-144.5" font-family="Helvetica,sans-Serif" font-size="10.00">Cpl/Dm/PeriodicScheduler.h</text>
</a>
</g>
</g>
<!-- Node8&#45;&gt;Node9 -->
<g id="edge10_Node000008_Node000009" class="edge">
<title>Node8&#45;&gt;Node9</title>
<g id="a_edge10_Node000008_Node000009"><a xlink:title=" ">
<path fill="none" stroke="#63b8ff" d="M583.5,-194.38C612.88,-183.07 655.97,-166.49 681.87,-156.52"/>
<polygon fill="#63b8ff" stroke="#63b8ff" points="582.18,-191.14 574.1,-197.99 584.69,-197.67 582.18,-191.14"/>
</a>
</g>
</g>
<!-- Node10 -->
<g id="Node000010" class="node">
<title>Node10</title>
<g id="a_Node000010"><a xlink:href="_log_sink_8h.html" target="_top" xlink:title=" ">
<polygon fill="white" stroke="#666666" points="144,-156.5 20,-156.5 20,-137.5 144,-137.5 144,-156.5"/>
<text text-anchor="middle" x="82" y="-144.5" font-family="Helvetica,sans-Serif" font-size="10.00">Cpl/Logging/LogSink.h</text>
</a>
</g>
</g>
<!-- Node8&#45;&gt;Node10 -->
<g id="edge11_Node000008_Node000010" class="edge">
<title>Node8&#45;&gt;Node10</title>
<g id="a_edge11_Node000008_Node000010"><a xlink:title=" ">
<path fill="none" stroke="#63b8ff" d="M474.46,-199.35C394.85,-191.64 267.48,-178.25 158,-162 147.38,-160.42 135.98,-158.47 125.32,-156.52"/>
<polygon fill="#63b8ff" stroke="#63b8ff" points="474.6,-202.88 484.89,-200.36 475.27,-195.91 474.6,-202.88"/>
</a>
</g>
</g>
<!-- Node11 -->
<g id="Node000011" class="node">
<title>Node11</title>
<g id="a_Node000011"><a xlink:href="_manager_8h.html" target="_top" xlink:title=" ">
<polygon fill="white" stroke="#666666" points="610.5,-156.5 493.5,-156.5 493.5,-137.5 610.5,-137.5 610.5,-156.5"/>
<text text-anchor="middle" x="552" y="-144.5" font-family="Helvetica,sans-Serif" font-size="10.00">Cpl/MApp/Manager.h</text>
</a>
</g>
</g>
<!-- Node8&#45;&gt;Node11 -->
<g id="edge12_Node000008_Node000011" class="edge">
<title>Node8&#45;&gt;Node11</title>
<g id="a_edge12_Node000008_Node000011"><a xlink:title=" ">
<path fill="none" stroke="#63b8ff" d="M552,-187.66C552,-177.24 552,-164.8 552,-156.67"/>
<polygon fill="#63b8ff" stroke="#63b8ff" points="548.5,-187.87 552,-197.87 555.5,-187.87 548.5,-187.87"/>
</a>
</g>
</g>
<!-- Node12 -->
<g id="Node000012" class="node">
<title>Node12</title>
<g id="a_Node000012"><a xlink:href="_cpl_2_m_app_2_temperature_2_api_8h.html" target="_top" xlink:title=" ">
<polygon fill="white" stroke="#666666" points="1088,-30 960,-30 960,0 1088,0 1088,-30"/>
<text text-anchor="start" x="968" y="-18" font-family="Helvetica,sans-Serif" font-size="10.00">Cpl/MApp/Temperature</text>
<text text-anchor="middle" x="1024" y="-7" font-family="Helvetica,sans-Serif" font-size="10.00">/Api.h</text>
</a>
</g>
</g>
<!-- Node8&#45;&gt;Node12 -->
<g id="edge13_Node000008_Node000012" class="edge">
<title>Node8&#45;&gt;Node12</title>
<g id="a_edge13_Node000008_Node000012"><a xlink:title=" ">
<path fill="none" stroke="#63b8ff" d="M629.41,-206.51C733.91,-205.15 913.23,-197.49 967,-162 1012.19,-132.17 1021.57,-60.5 1023.5,-30.06"/>
<polygon fill="#63b8ff" stroke="#63b8ff" points="629.19,-203.02 619.23,-206.63 629.27,-210.01 629.19,-203.02"/>
</a>
</g>
</g>
<!-- Node13 -->
<g id="Node000013" class="node">
<title>Node13</title>
<g id="a_Node000013"><a xlink:href="_chunk_8h.html" target="_top" xlink:title=" ">
<polygon fill="#fff0f0" stroke="red" points="475.5,-156.5 348.5,-156.5 348.5,-137.5 475.5,-137.5 475.5,-156.5"/>
<text text-anchor="middle" x="412" y="-144.5" font-family="Helvetica,sans-Serif" font-size="10.00">Cpl/Persistent/Chunk.h</text>
</a>
</g>
</g>
<!-- Node8&#45;&gt;Node13 -->
<g id="edge14_Node000008_Node000013" class="edge">
<title>Node8&#45;&gt;Node13</title>
<g id="a_edge14_Node000008_Node000013"><a xlink:title=" ">
<path fill="none" stroke="#63b8ff" d="M522.28,-194.08C495.24,-182.78 456.03,-166.4 432.38,-156.52"/>
<polygon fill="#63b8ff" stroke="#63b8ff" points="521.07,-197.37 531.64,-197.99 523.77,-190.91 521.07,-197.37"/>
</a>
</g>
</g>
<!-- Node22 -->
<g id="Node000022" class="node">
<title>Node22</title>
<g id="a_Node000022"><a xlink:href="_persistent_2_record_8h.html" target="_top" xlink:title=" ">
<polygon fill="white" stroke="#666666" points="330,-156.5 200,-156.5 200,-137.5 330,-137.5 330,-156.5"/>
<text text-anchor="middle" x="265" y="-144.5" font-family="Helvetica,sans-Serif" font-size="10.00">Cpl/Persistent/Record.h</text>
</a>
</g>
</g>
<!-- Node8&#45;&gt;Node22 -->
<g id="edge19_Node000008_Node000022" class="edge">
<title>Node8&#45;&gt;Node22</title>
<g id="a_edge19_Node000008_Node000022"><a xlink:title=" ">
<path fill="none" stroke="#63b8ff" d="M500.3,-195.96C444.9,-184.67 358.03,-166.96 306.78,-156.52"/>
<polygon fill="#63b8ff" stroke="#63b8ff" points="499.77,-199.43 510.27,-197.99 501.17,-192.57 499.77,-199.43"/>
</a>
</g>
</g>
<!-- Node23 -->
<g id="Node000023" class="node">
<title>Node23</title>
<g id="a_Node000023"><a xlink:href="_record_server_8h.html" target="_top" xlink:title=" ">
<polygon fill="white" stroke="#666666" points="237.5,-90.5 76.5,-90.5 76.5,-71.5 237.5,-71.5 237.5,-90.5"/>
<text text-anchor="middle" x="157" y="-78.5" font-family="Helvetica,sans-Serif" font-size="10.00">Cpl/Persistent/RecordServer.h</text>
</a>
</g>
</g>
<!-- Node8&#45;&gt;Node23 -->
<g id="edge24_Node000008_Node000023" class="edge">
<title>Node8&#45;&gt;Node23</title>
<g id="a_edge24_Node000008_Node000023"><a xlink:title=" ">
<path fill="none" stroke="#63b8ff" d="M474.61,-205.82C382.1,-203.52 234.32,-194.65 191,-162 167.62,-144.38 160.15,-107.52 157.9,-90.7"/>
<polygon fill="#63b8ff" stroke="#63b8ff" points="474.69,-209.32 484.77,-206.05 474.85,-202.32 474.69,-209.32"/>
</a>
</g>
</g>
<!-- Node24 -->
<g id="Node000024" class="node">
<title>Node24</title>
<g id="a_Node000024"><a xlink:href="_region_media_8h.html" target="_top" xlink:title=" ">
<polygon fill="#fff0f0" stroke="red" points="958,-156.5 798,-156.5 798,-137.5 958,-137.5 958,-156.5"/>
<text text-anchor="middle" x="878" y="-144.5" font-family="Helvetica,sans-Serif" font-size="10.00">Cpl/Persistent/RegionMedia.h</text>
</a>
</g>
</g>
<!-- Node8&#45;&gt;Node24 -->
<g id="edge25_Node000008_Node000024" class="edge">
<title>Node8&#45;&gt;Node24</title>
<g id="a_edge25_Node000008_Node000024"><a xlink:title=" ">
<path fill="none" stroke="#63b8ff" d="M609.55,-196.17C672.42,-184.89 771.96,-167.03 830.54,-156.52"/>
<polygon fill="#63b8ff" stroke="#63b8ff" points="608.63,-192.78 599.4,-197.99 609.86,-199.67 608.63,-192.78"/>
</a>
</g>
</g>
<!-- Node14 -->
<g id="Node000014" class="node">
<title>Node14</title>
<g id="a_Node000014"><a xlink:href="_dm_2_persistent_2_record_8h.html" target="_top" xlink:title=" ">
<polygon fill="white" stroke="#666666" points="341,-24.5 191,-24.5 191,-5.5 341,-5.5 341,-24.5"/>
<text text-anchor="middle" x="266" y="-12.5" font-family="Helvetica,sans-Serif" font-size="10.00">Cpl/Dm/Persistent/Record.h</text>
</a>
</g>
</g>
<!-- Node13&#45;&gt;Node14 -->
<g id="edge15_Node000013_Node000014" class="edge">
<title>Node13&#45;&gt;Node14</title>
<g id="a_edge15_Node000013_Node000014"><a xlink:title=" ">
<path fill="none" stroke="#63b8ff" d="M431.15,-130.38C449.38,-113.6 471.86,-86.58 456,-66 440.59,-46.01 379.49,-32.42 330.69,-24.51"/>
<polygon fill="#63b8ff" stroke="#63b8ff" points="428.45,-128.09 423.22,-137.3 433.05,-133.36 428.45,-128.09"/>
</a>
</g>
</g>
<!-- Node15 -->
<g id="Node000015" class="node">
<title>Node15</title>
<g id="a_Node000015"><a xlink:href="_crc_chunk_8h.html" target="_top" xlink:title=" ">
<polygon fill="white" stroke="#666666" points="691.5,-90.5 548.5,-90.5 548.5,-71.5 691.5,-71.5 691.5,-90.5"/>
<text text-anchor="middle" x="620" y="-78.5" font-family="Helvetica,sans-Serif" font-size="10.00">Cpl/Persistent/CrcChunk.h</text>
</a>
</g>
</g>
<!-- Node13&#45;&gt;Node15 -->
<g id="edge16_Node000013_Node000015" class="edge">
<title>Node13&#45;&gt;Node15</title>
<g id="a_edge16_Node000013_Node000015"><a xlink:title=" ">
<path fill="none" stroke="#63b8ff" d="M449.69,-134.4C490.71,-121.78 555.34,-101.89 592.06,-90.6"/>
<polygon fill="#63b8ff" stroke="#63b8ff" points="448.58,-131.08 440.05,-137.37 450.64,-137.77 448.58,-131.08"/>
</a>
</g>
</g>
<!-- Node16 -->
<g id="Node000016" class="node">
<title>Node16</title>
<g id="a_Node000016"><a xlink:href="_data_record_8h.html" target="_top" xlink:title=" ">
<polygon fill="#fff0f0" stroke="red" points="447.5,-90.5 294.5,-90.5 294.5,-71.5 447.5,-71.5 447.5,-90.5"/>
<text text-anchor="middle" x="371" y="-78.5" font-family="Helvetica,sans-Serif" font-size="10.00">Cpl/Persistent/DataRecord.h</text>
</a>
</g>
</g>
<!-- Node13&#45;&gt;Node16 -->
<g id="edge17_Node000013_Node000016" class="edge">
<title>Node13&#45;&gt;Node16</title>
<g id="a_edge17_Node000013_Node000016"><a xlink:title=" ">
<path fill="none" stroke="#63b8ff" d="M401.05,-128.91C393.21,-116.68 382.98,-100.7 376.7,-90.91"/>
<polygon fill="#63b8ff" stroke="#63b8ff" points="398.13,-130.84 406.47,-137.37 404.02,-127.06 398.13,-130.84"/>
</a>
</g>
</g>
<!-- Node18 -->
<g id="Node000018" class="node">
<title>Node18</title>
<g id="a_Node000018"><a xlink:href="_indexed_entry_record_8h.html" target="_top" xlink:title=" ">
<polygon fill="#fff0f0" stroke="red" points="797.5,-30 646.5,-30 646.5,0 797.5,0 797.5,-30"/>
<text text-anchor="start" x="654.5" y="-18" font-family="Helvetica,sans-Serif" font-size="10.00">Cpl/Persistent/IndexedEntry</text>
<text text-anchor="middle" x="722" y="-7" font-family="Helvetica,sans-Serif" font-size="10.00">Record.h</text>
</a>
</g>
</g>
<!-- Node13&#45;&gt;Node18 -->
<g id="edge18_Node000013_Node000018" class="edge">
<title>Node13&#45;&gt;Node18</title>
<g id="a_edge18_Node000013_Node000018"><a xlink:title=" ">
<path fill="none" stroke="#63b8ff" d="M431.53,-131.1C455.63,-113.35 498.39,-83.86 539,-66 574.88,-50.22 616.94,-38.3 651.69,-30.07"/>
<polygon fill="#63b8ff" stroke="#63b8ff" points="429.18,-128.49 423.26,-137.28 433.36,-134.1 429.18,-128.49"/>
</a>
</g>
</g>
<!-- Node22&#45;&gt;Node14 -->
<g id="edge20_Node000022_Node000014" class="edge">
<title>Node22&#45;&gt;Node14</title>
<g id="a_edge20_Node000022_Node000014"><a xlink:title=" ">
<path fill="none" stroke="#63b8ff" d="M265.14,-127.23C265.36,-98.72 265.77,-45.59 265.93,-24.73"/>
<polygon fill="#63b8ff" stroke="#63b8ff" points="261.64,-127.44 265.07,-137.47 268.64,-127.5 261.64,-127.44"/>
</a>
</g>
</g>
<!-- Node22&#45;&gt;Node16 -->
<g id="edge21_Node000022_Node000016" class="edge">
<title>Node22&#45;&gt;Node16</title>
<g id="a_edge21_Node000022_Node000016"><a xlink:title=" ">
<path fill="none" stroke="#63b8ff" d="M287.87,-132.19C308.73,-119.59 338.92,-101.37 356.59,-90.7"/>
<polygon fill="#63b8ff" stroke="#63b8ff" points="286.05,-129.2 279.3,-137.37 289.67,-135.2 286.05,-129.2"/>
</a>
</g>
</g>
<!-- Node22&#45;&gt;Node23 -->
<g id="edge22_Node000022_Node000023" class="edge">
<title>Node22&#45;&gt;Node23</title>
<g id="a_edge22_Node000022_Node000023"><a xlink:title=" ">
<path fill="none" stroke="#63b8ff" d="M241.7,-132.19C220.44,-119.59 189.69,-101.37 171.68,-90.7"/>
<polygon fill="#63b8ff" stroke="#63b8ff" points="240.05,-135.28 250.43,-137.37 243.62,-129.26 240.05,-135.28"/>
</a>
</g>
</g>
<!-- Node23&#45;&gt;Node14 -->
<g id="edge23_Node000023_Node000014" class="edge">
<title>Node23&#45;&gt;Node14</title>
<g id="a_edge23_Node000023_Node000014"><a xlink:title=" ">
<path fill="none" stroke="#63b8ff" d="M180.52,-66.19C201.97,-53.59 233.01,-35.37 251.18,-24.7"/>
<polygon fill="#63b8ff" stroke="#63b8ff" points="178.55,-63.29 171.7,-71.37 182.1,-69.32 178.55,-63.29"/>
</a>
</g>
</g>
<!-- Node24&#45;&gt;Node15 -->
<g id="edge26_Node000024_Node000015" class="edge">
<title>Node24&#45;&gt;Node15</title>
<g id="a_edge26_Node000024_Node000015"><a xlink:title=" ">
<path fill="none" stroke="#63b8ff" d="M833.74,-135.02C782.9,-122.41 700.56,-101.98 654.32,-90.51"/>
<polygon fill="#63b8ff" stroke="#63b8ff" points="832.92,-138.42 843.47,-137.44 834.61,-131.63 832.92,-138.42"/>
</a>
</g>
</g>
<!-- Node24&#45;&gt;Node18 -->
<g id="edge27_Node000024_Node000018" class="edge">
<title>Node24&#45;&gt;Node18</title>
<g id="a_edge27_Node000024_Node000018"><a xlink:title=" ">
<path fill="none" stroke="#63b8ff" d="M808.78,-134.8C784.26,-127.55 758.46,-115.62 741,-96 724.68,-77.65 721.71,-47.85 721.52,-30.26"/>
<polygon fill="#63b8ff" stroke="#63b8ff" points="807.88,-138.19 818.45,-137.45 809.73,-131.43 807.88,-138.19"/>
</a>
</g>
</g>
<!-- Node28&#45;&gt;Node29 -->
<g id="edge29_Node000028_Node000029" class="edge">
<title>Node28&#45;&gt;Node29</title>
<g id="a_edge29_Node000028_Node000029"><a xlink:title=" ">
<path fill="none" stroke="#63b8ff" d="M819.84,-257.41C978.52,-247.86 1373.54,-224.07 1547.48,-213.59"/>
<polygon fill="#63b8ff" stroke="#63b8ff" points="819.51,-253.93 809.74,-258.02 819.93,-260.91 819.51,-253.93"/>
</a>
</g>
</g>
<!-- Node50 -->
<g id="Node000050" class="node">
<title>Node50</title>
<g id="a_Node000050"><a xlink:href="_subscriber_composer_8h.html" target="_top" xlink:title=" ">
<polygon fill="#fff0f0" stroke="red" points="164,-217 0,-217 0,-198 164,-198 164,-217"/>
<text text-anchor="middle" x="82" y="-205" font-family="Helvetica,sans-Serif" font-size="10.00">Cpl/Dm/SubscriberComposer.h</text>
</a>
</g>
</g>
<!-- Node28&#45;&gt;Node50 -->
<g id="edge51_Node000028_Node000050" class="edge">
<title>Node28&#45;&gt;Node50</title>
<g id="a_edge51_Node000028_Node000050"><a xlink:title=" ">
<path fill="none" stroke="#63b8ff" d="M684.19,-256.14C560.33,-246.34 298.01,-225.59 164.21,-215"/>
<polygon fill="#63b8ff" stroke="#63b8ff" points="684.05,-259.64 694.3,-256.94 684.6,-252.66 684.05,-259.64"/>
</a>
</g>
</g>
<!-- Node30 -->
<g id="Node000030" class="node">
<title>Node30</title>
<g id="a_Node000030"><a xlink:href="_array_8h.html" target="_top" xlink:title=" ">
<polygon fill="white" stroke="#666666" points="1809.5,-156.5 1702.5,-156.5 1702.5,-137.5 1809.5,-137.5 1809.5,-156.5"/>
<text text-anchor="middle" x="1756" y="-144.5" font-family="Helvetica,sans-Serif" font-size="10.00">Cpl/Dm/Mp/Array.h</text>
</a>
</g>
</g>
<!-- Node29&#45;&gt;Node30 -->
<g id="edge30_Node000029_Node000030" class="edge">
<title>Node29&#45;&gt;Node30</title>
<g id="a_edge30_Node000029_Node000030"><a xlink:title=" ">
<path fill="none" stroke="#63b8ff" d="M1659.27,-193.63C1683.19,-182.35 1717.28,-166.27 1737.95,-156.52"/>
<polygon fill="#63b8ff" stroke="#63b8ff" points="1657.58,-190.56 1650.03,-197.99 1660.57,-196.89 1657.58,-190.56"/>
</a>
</g>
</g>
<!-- Node31 -->
<g id="Node000031" class="node">
<title>Node31</title>
<g id="a_Node000031"><a xlink:href="_bool_8h.html" target="_top" xlink:title=" ">
<polygon fill="white" stroke="#666666" points="1684,-156.5 1580,-156.5 1580,-137.5 1684,-137.5 1684,-156.5"/>
<text text-anchor="middle" x="1632" y="-144.5" font-family="Helvetica,sans-Serif" font-size="10.00">Cpl/Dm/Mp/Bool.h</text>
</a>
</g>
</g>
<!-- Node29&#45;&gt;Node31 -->
<g id="edge31_Node000029_Node000031" class="edge">
<title>Node29&#45;&gt;Node31</title>
<g id="a_edge31_Node000029_Node000031"><a xlink:title=" ">
<path fill="none" stroke="#63b8ff" d="M1632,-187.66C1632,-177.24 1632,-164.8 1632,-156.67"/>
<polygon fill="#63b8ff" stroke="#63b8ff" points="1628.5,-187.87 1632,-197.87 1635.5,-187.87 1628.5,-187.87"/>
</a>
</g>
</g>
<!-- Node34 -->
<g id="Node000034" class="node">
<title>Node34</title>
<g id="a_Node000034"><a xlink:href="_elapsed_precision_time_8h.html" target="_top" xlink:title=" ">
<polygon fill="white" stroke="#666666" points="1984,-162 1828,-162 1828,-132 1984,-132 1984,-162"/>
<text text-anchor="start" x="1836" y="-150" font-family="Helvetica,sans-Serif" font-size="10.00">Cpl/Dm/Mp/ElapsedPrecision</text>
<text text-anchor="middle" x="1906" y="-139" font-family="Helvetica,sans-Serif" font-size="10.00">Time.h</text>
</a>
</g>
</g>
<!-- Node29&#45;&gt;Node34 -->
<g id="edge34_Node000029_Node000034" class="edge">
<title>Node29&#45;&gt;Node34</title>
<g id="a_edge34_Node000029_Node000034"><a xlink:title=" ">
<path fill="none" stroke="#63b8ff" d="M1681.83,-195.86C1726.29,-186.37 1791.69,-172.41 1840.39,-162.01"/>
<polygon fill="#63b8ff" stroke="#63b8ff" points="1680.89,-192.48 1671.84,-197.99 1682.35,-199.33 1680.89,-192.48"/>
</a>
</g>
</g>
<!-- Node35 -->
<g id="Node000035" class="node">
<title>Node35</title>
<g id="a_Node000035"><a xlink:href="_enum___8h.html" target="_top" xlink:title=" ">
<polygon fill="white" stroke="#666666" points="2118,-156.5 2002,-156.5 2002,-137.5 2118,-137.5 2118,-156.5"/>
<text text-anchor="middle" x="2060" y="-144.5" font-family="Helvetica,sans-Serif" font-size="10.00">Cpl/Dm/Mp/Enum_.h</text>
</a>
</g>
</g>
<!-- Node29&#45;&gt;Node35 -->
<g id="edge35_Node000029_Node000035" class="edge">
<title>Node29&#45;&gt;Node35</title>
<g id="a_edge35_Node000029_Node000035"><a xlink:title=" ">
<path fill="none" stroke="#63b8ff" d="M1726.63,-197.02C1799.63,-189.17 1903.01,-176.92 1993,-162 2002.38,-160.44 2012.44,-158.49 2021.84,-156.55"/>
<polygon fill="#63b8ff" stroke="#63b8ff" points="1726.11,-193.55 1716.53,-198.09 1726.85,-200.51 1726.11,-193.55"/>
</a>
</g>
</g>
<!-- Node36 -->
<g id="Node000036" class="node">
<title>Node36</title>
<g id="a_Node000036"><a xlink:href="_numeric_8h.html" target="_top" xlink:title=" ">
<polygon fill="white" stroke="#666666" points="1562,-156.5 1438,-156.5 1438,-137.5 1562,-137.5 1562,-156.5"/>
<text text-anchor="middle" x="1500" y="-144.5" font-family="Helvetica,sans-Serif" font-size="10.00">Cpl/Dm/Mp/Numeric.h</text>
</a>
</g>
</g>
<!-- Node29&#45;&gt;Node36 -->
<g id="edge36_Node000029_Node000036" class="edge">
<title>Node29&#45;&gt;Node36</title>
<g id="a_edge36_Node000029_Node000036"><a xlink:title=" ">
<path fill="none" stroke="#63b8ff" d="M1603.64,-193.93C1578.16,-182.64 1541.42,-166.36 1519.22,-156.52"/>
<polygon fill="#63b8ff" stroke="#63b8ff" points="1602.25,-197.14 1612.81,-197.99 1605.08,-190.74 1602.25,-197.14"/>
</a>
</g>
</g>
<!-- Node48 -->
<g id="Node000048" class="node">
<title>Node48</title>
<g id="a_Node000048"><a xlink:href="_ref_counter_8h.html" target="_top" xlink:title=" ">
<polygon fill="white" stroke="#666666" points="2273.5,-156.5 2136.5,-156.5 2136.5,-137.5 2273.5,-137.5 2273.5,-156.5"/>
<text text-anchor="middle" x="2205" y="-144.5" font-family="Helvetica,sans-Serif" font-size="10.00">Cpl/Dm/Mp/RefCounter.h</text>
</a>
</g>
</g>
<!-- Node29&#45;&gt;Node48 -->
<g id="edge49_Node000029_Node000048" class="edge">
<title>Node29&#45;&gt;Node48</title>
<g id="a_edge49_Node000029_Node000048"><a xlink:title=" ">
<path fill="none" stroke="#63b8ff" d="M1726.84,-200.46C1826.68,-193.52 1988.31,-180.64 2127,-162 2138.18,-160.5 2150.2,-158.52 2161.38,-156.53"/>
<polygon fill="#63b8ff" stroke="#63b8ff" points="1726.51,-196.98 1716.77,-201.16 1726.99,-203.96 1726.51,-196.98"/>
</a>
</g>
</g>
<!-- Node49 -->
<g id="Node000049" class="node">
<title>Node49</title>
<g id="a_Node000049"><a xlink:href="_dm_2_mp_2_string_8h.html" target="_top" xlink:title=" ">
<polygon fill="white" stroke="#666666" points="1419.5,-156.5 1308.5,-156.5 1308.5,-137.5 1419.5,-137.5 1419.5,-156.5"/>
<text text-anchor="middle" x="1364" y="-144.5" font-family="Helvetica,sans-Serif" font-size="10.00">Cpl/Dm/Mp/String.h</text>
</a>
</g>
</g>
<!-- Node29&#45;&gt;Node49 -->
<g id="edge50_Node000029_Node000049" class="edge">
<title>Node29&#45;&gt;Node49</title>
<g id="a_edge50_Node000029_Node000049"><a xlink:title=" ">
<path fill="none" stroke="#63b8ff" d="M1583.08,-195.82C1531.32,-184.52 1450.67,-166.92 1403.02,-156.52"/>
<polygon fill="#63b8ff" stroke="#63b8ff" points="1582.51,-199.28 1593.03,-197.99 1584.01,-192.44 1582.51,-199.28"/>
</a>
</g>
</g>
<!-- Node32 -->
<g id="Node000032" class="node">
<title>Node32</title>
<g id="a_Node000032"><a xlink:href="_in_out_model_points_8h.html" target="_top" xlink:title="This file defines all of the Model Points for the Simulated DIO InOut driver.">
<polygon fill="white" stroke="#666666" points="2281,-96 2161,-96 2161,-66 2281,-66 2281,-96"/>
<text text-anchor="start" x="2169" y="-84" font-family="Helvetica,sans-Serif" font-size="10.00">Driver/DIO/Simulated</text>
<text text-anchor="middle" x="2221" y="-73" font-family="Helvetica,sans-Serif" font-size="10.00">/InOutModelPoints.h</text>
</a>
</g>
</g>
<!-- Node31&#45;&gt;Node32 -->
<g id="edge32_Node000031_Node000032" class="edge">
<title>Node31&#45;&gt;Node32</title>
<g id="a_edge32_Node000031_Node000032"><a xlink:title=" ">
<path fill="none" stroke="#63b8ff" d="M1675.73,-135.31C1681.84,-134.05 1688.06,-132.9 1694,-132 1893.68,-101.68 1946.82,-122.81 2147,-96 2151.54,-95.39 2156.21,-94.69 2160.91,-93.93"/>
<polygon fill="#63b8ff" stroke="#63b8ff" points="1674.66,-131.96 1665.62,-137.49 1676.13,-138.8 1674.66,-131.96"/>
</a>
</g>
</g>
<!-- Node33 -->
<g id="Node000033" class="node">
<title>Node33</title>
<g id="a_Node000033"><a xlink:href="_driver_2_r_h_temp_2_simulated_2_api_8h.html" target="_top" xlink:title=" ">
<polygon fill="white" stroke="#666666" points="2033.5,-30 1890.5,-30 1890.5,0 2033.5,0 2033.5,-30"/>
<text text-anchor="start" x="1898.5" y="-18" font-family="Helvetica,sans-Serif" font-size="10.00">Driver/RHTemp/Simulated</text>
<text text-anchor="middle" x="1962" y="-7" font-family="Helvetica,sans-Serif" font-size="10.00">/Api.h</text>
</a>
</g>
</g>
<!-- Node31&#45;&gt;Node33 -->
<g id="edge33_Node000031_Node000033" class="edge">
<title>Node31&#45;&gt;Node33</title>
<g id="a_edge33_Node000031_Node000033"><a xlink:title=" ">
<path fill="none" stroke="#63b8ff" d="M1675.95,-135.3C1681.99,-134.06 1688.13,-132.91 1694,-132 1740.28,-124.83 2082.33,-130.5 2114,-96 2144.35,-62.94 2086.48,-41.1 2033.63,-28.72"/>
<polygon fill="#63b8ff" stroke="#63b8ff" points="1674.99,-131.93 1665.95,-137.46 1676.46,-138.77 1674.99,-131.93"/>
</a>
</g>
</g>
<!-- Node37 -->
<g id="Node000037" class="node">
<title>Node37</title>
<g id="a_Node000037"><a xlink:href="_bit_array16_8h.html" target="_top" xlink:title=" ">
<polygon fill="white" stroke="#666666" points="1567,-90.5 1433,-90.5 1433,-71.5 1567,-71.5 1567,-90.5"/>
<text text-anchor="middle" x="1500" y="-78.5" font-family="Helvetica,sans-Serif" font-size="10.00">Cpl/Dm/Mp/BitArray16.h</text>
</a>
</g>
</g>
<!-- Node36&#45;&gt;Node37 -->
<g id="edge37_Node000036_Node000037" class="edge">
<title>Node36&#45;&gt;Node37</title>
<g id="a_edge37_Node000036_Node000037"><a xlink:title=" ">
<path fill="none" stroke="#63b8ff" d="M1500,-127.08C1500,-115.13 1500,-100.22 1500,-90.91"/>
<polygon fill="#63b8ff" stroke="#63b8ff" points="1496.5,-127.37 1500,-137.37 1503.5,-127.37 1496.5,-127.37"/>
</a>
</g>
</g>
<!-- Node38 -->
<g id="Node000038" class="node">
<title>Node38</title>
<g id="a_Node000038"><a xlink:href="_bit_array32_8h.html" target="_top" xlink:title=" ">
<polygon fill="white" stroke="#666666" points="1719,-90.5 1585,-90.5 1585,-71.5 1719,-71.5 1719,-90.5"/>
<text text-anchor="middle" x="1652" y="-78.5" font-family="Helvetica,sans-Serif" font-size="10.00">Cpl/Dm/Mp/BitArray32.h</text>
</a>
</g>
</g>
<!-- Node36&#45;&gt;Node38 -->
<g id="edge38_Node000036_Node000038" class="edge">
<title>Node36&#45;&gt;Node38</title>
<g id="a_edge38_Node000036_Node000038"><a xlink:title=" ">
<path fill="none" stroke="#63b8ff" d="M1530.02,-133.36C1559.98,-120.75 1605.2,-101.71 1631.34,-90.7"/>
<polygon fill="#63b8ff" stroke="#63b8ff" points="1528.36,-130.26 1520.5,-137.37 1531.07,-136.71 1528.36,-130.26"/>
</a>
</g>
</g>
<!-- Node39 -->
<g id="Node000039" class="node">
<title>Node39</title>
<g id="a_Node000039"><a xlink:href="_double_8h.html" target="_top" xlink:title=" ">
<polygon fill="white" stroke="#666666" points="1979.5,-90.5 1862.5,-90.5 1862.5,-71.5 1979.5,-71.5 1979.5,-90.5"/>
<text text-anchor="middle" x="1921" y="-78.5" font-family="Helvetica,sans-Serif" font-size="10.00">Cpl/Dm/Mp/Double.h</text>
</a>
</g>
</g>
<!-- Node36&#45;&gt;Node39 -->
<g id="edge39_Node000036_Node000039" class="edge">
<title>Node36&#45;&gt;Node39</title>
<g id="a_edge39_Node000036_Node000039"><a xlink:title=" ">
<path fill="none" stroke="#63b8ff" d="M1550.7,-135.57C1557.51,-134.29 1564.42,-133.07 1571,-132 1696.16,-111.72 1728.96,-116.98 1854,-96 1863.38,-94.43 1873.43,-92.47 1882.83,-90.52"/>
<polygon fill="#63b8ff" stroke="#63b8ff" points="1550,-132.14 1540.84,-137.45 1551.32,-139.01 1550,-132.14"/>
</a>
</g>
</g>
<!-- Node40 -->
<g id="Node000040" class="node">
<title>Node40</title>
<g id="a_Node000040"><a xlink:href="_float_8h.html" target="_top" xlink:title=" ">
<polygon fill="white" stroke="#666666" points="1844.5,-90.5 1737.5,-90.5 1737.5,-71.5 1844.5,-71.5 1844.5,-90.5"/>
<text text-anchor="middle" x="1791" y="-78.5" font-family="Helvetica,sans-Serif" font-size="10.00">Cpl/Dm/Mp/Float.h</text>
</a>
</g>
</g>
<!-- Node36&#45;&gt;Node40 -->
<g id="edge40_Node000036_Node000040" class="edge">
<title>Node36&#45;&gt;Node40</title>
<g id="a_edge40_Node000036_Node000040"><a xlink:title=" ">
<path fill="none" stroke="#63b8ff" d="M1549.18,-135.26C1595.36,-125.16 1666.38,-109.6 1728,-96 1735.99,-94.24 1744.54,-92.34 1752.69,-90.53"/>
<polygon fill="#63b8ff" stroke="#63b8ff" points="1548.16,-131.9 1539.14,-137.45 1549.66,-138.73 1548.16,-131.9"/>
</a>
</g>
</g>
<!-- Node41 -->
<g id="Node000041" class="node">
<title>Node41</title>
<g id="a_Node000041"><a xlink:href="_int32_8h.html" target="_top" xlink:title=" ">
<polygon fill="white" stroke="#666666" points="2104.5,-90.5 1997.5,-90.5 1997.5,-71.5 2104.5,-71.5 2104.5,-90.5"/>
<text text-anchor="middle" x="2051" y="-78.5" font-family="Helvetica,sans-Serif" font-size="10.00">Cpl/Dm/Mp/Int32.h</text>
</a>
</g>
</g>
<!-- Node36&#45;&gt;Node41 -->
<g id="edge43_Node000036_Node000041" class="edge">
<title>Node36&#45;&gt;Node41</title>
<g id="a_edge43_Node000036_Node000041"><a xlink:title=" ">
<path fill="none" stroke="#63b8ff" d="M1549.13,-135.59C1556.44,-134.25 1563.9,-133 1571,-132 1755.63,-105.92 1804.74,-124.6 1989,-96 1998.16,-94.58 2007.98,-92.58 2017.05,-90.54"/>
<polygon fill="#63b8ff" stroke="#63b8ff" points="1548.47,-132.15 1539.3,-137.46 1549.78,-139.03 1548.47,-132.15"/>
</a>
</g>
</g>
<!-- Node42 -->
<g id="Node000042" class="node">
<title>Node42</title>
<g id="a_Node000042"><a xlink:href="_int64_8h.html" target="_top" xlink:title=" ">
<polygon fill="white" stroke="#666666" points="1159.5,-90.5 1052.5,-90.5 1052.5,-71.5 1159.5,-71.5 1159.5,-90.5"/>
<text text-anchor="middle" x="1106" y="-78.5" font-family="Helvetica,sans-Serif" font-size="10.00">Cpl/Dm/Mp/Int64.h</text>
</a>
</g>
</g>
<!-- Node36&#45;&gt;Node42 -->
<g id="edge44_Node000036_Node000042" class="edge">
<title>Node36&#45;&gt;Node42</title>
<g id="a_edge44_Node000036_Node000042"><a xlink:title=" ">
<path fill="none" stroke="#63b8ff" d="M1448.56,-135.5C1441.99,-134.26 1435.34,-133.06 1429,-132 1313.95,-112.71 1283.81,-116.67 1169,-96 1160.18,-94.41 1150.72,-92.45 1141.88,-90.5"/>
<polygon fill="#63b8ff" stroke="#63b8ff" points="1448.29,-139.01 1458.77,-137.46 1449.61,-132.14 1448.29,-139.01"/>
</a>
</g>
</g>
<!-- Node43 -->
<g id="Node000043" class="node">
<title>Node43</title>
<g id="a_Node000043"><a xlink:href="_uint32_8h.html" target="_top" xlink:title=" ">
<polygon fill="#fff0f0" stroke="red" points="1292.5,-90.5 1177.5,-90.5 1177.5,-71.5 1292.5,-71.5 1292.5,-90.5"/>
<text text-anchor="middle" x="1235" y="-78.5" font-family="Helvetica,sans-Serif" font-size="10.00">Cpl/Dm/Mp/Uint32.h</text>
</a>
</g>
</g>
<!-- Node36&#45;&gt;Node43 -->
<g id="edge45_Node000036_Node000043" class="edge">
<title>Node36&#45;&gt;Node43</title>
<g id="a_edge45_Node000036_Node000043"><a xlink:title=" ">
<path fill="none" stroke="#63b8ff" d="M1454.54,-135.02C1402.32,-122.41 1317.74,-101.98 1270.25,-90.51"/>
<polygon fill="#63b8ff" stroke="#63b8ff" points="1453.99,-138.49 1464.54,-137.44 1455.64,-131.69 1453.99,-138.49"/>
</a>
</g>
</g>
<!-- Node46 -->
<g id="Node000046" class="node">
<title>Node46</title>
<g id="a_Node000046"><a xlink:href="_uint64_8h.html" target="_top" xlink:title=" ">
<polygon fill="white" stroke="#666666" points="995.5,-90.5 880.5,-90.5 880.5,-71.5 995.5,-71.5 995.5,-90.5"/>
<text text-anchor="middle" x="938" y="-78.5" font-family="Helvetica,sans-Serif" font-size="10.00">Cpl/Dm/Mp/Uint64.h</text>
</a>
</g>
</g>
<!-- Node36&#45;&gt;Node46 -->
<g id="edge46_Node000036_Node000046" class="edge">
<title>Node36&#45;&gt;Node46</title>
<g id="a_edge46_Node000036_Node000046"><a xlink:title=" ">
<path fill="none" stroke="#63b8ff" d="M1450.11,-135.5C1443.04,-134.21 1435.85,-132.99 1429,-132 1258.48,-107.3 1214.21,-115.39 1043,-96 1027.65,-94.26 1011.07,-92.16 995.72,-90.11"/>
<polygon fill="#63b8ff" stroke="#63b8ff" points="1449.84,-139.01 1460.32,-137.44 1451.15,-132.13 1449.84,-139.01"/>
</a>
</g>
</g>
<!-- Node47 -->
<g id="Node000047" class="node">
<title>Node47</title>
<g id="a_Node000047"><a xlink:href="_void_8h.html" target="_top" xlink:title=" ">
<polygon fill="white" stroke="#666666" points="1415,-90.5 1311,-90.5 1311,-71.5 1415,-71.5 1415,-90.5"/>
<text text-anchor="middle" x="1363" y="-78.5" font-family="Helvetica,sans-Serif" font-size="10.00">Cpl/Dm/Mp/Void.h</text>
</a>
</g>
</g>
<!-- Node36&#45;&gt;Node47 -->
<g id="edge48_Node000036_Node000047" class="edge">
<title>Node36&#45;&gt;Node47</title>
<g id="a_edge48_Node000036_Node000047"><a xlink:title=" ">
<path fill="none" stroke="#63b8ff" d="M1472.23,-133.03C1445.23,-120.42 1404.98,-101.61 1381.62,-90.7"/>
<polygon fill="#63b8ff" stroke="#63b8ff" points="1470.98,-136.31 1481.52,-137.37 1473.94,-129.97 1470.98,-136.31"/>
</a>
</g>
</g>
<!-- Node40&#45;&gt;Node12 -->
<g id="edge41_Node000040_Node000012" class="edge">
<title>Node40&#45;&gt;Node12</title>
<g id="a_edge41_Node000040_Node000012"><a xlink:title=" ">
<path fill="none" stroke="#63b8ff" d="M1747.02,-69.36C1740.67,-68.08 1734.18,-66.9 1728,-66 1493.99,-31.88 1212.69,-20.79 1088.41,-17.39"/>
<polygon fill="#63b8ff" stroke="#63b8ff" points="1746.33,-72.79 1756.84,-71.44 1747.78,-65.94 1746.33,-72.79"/>
</a>
</g>
</g>
<!-- Node40&#45;&gt;Node33 -->
<g id="edge42_Node000040_Node000033" class="edge">
<title>Node40&#45;&gt;Node33</title>
<g id="a_edge42_Node000040_Node000033"><a xlink:title=" ">
<path fill="none" stroke="#63b8ff" d="M1823.63,-67.79C1852.34,-57.04 1894.15,-41.4 1924.28,-30.12"/>
<polygon fill="#63b8ff" stroke="#63b8ff" points="1822.2,-64.59 1814.06,-71.37 1824.65,-71.14 1822.2,-64.59"/>
</a>
</g>
</g>
<!-- Node46&#45;&gt;Node18 -->
<g id="edge47_Node000046_Node000018" class="edge">
<title>Node46&#45;&gt;Node18</title>
<g id="a_edge47_Node000046_Node000018"><a xlink:title=" ">
<path fill="none" stroke="#63b8ff" d="M899.13,-68.48C862.83,-57.73 808.54,-41.64 769.64,-30.12"/>
<polygon fill="#63b8ff" stroke="#63b8ff" points="898.29,-71.88 908.87,-71.37 900.28,-65.17 898.29,-71.88"/>
</a>
</g>
</g>
<!-- Node50&#45;&gt;Node10 -->
<g id="edge53_Node000050_Node000010" class="edge">
<title>Node50&#45;&gt;Node10</title>
<g id="a_edge53_Node000050_Node000010"><a xlink:title=" ">
<path fill="none" stroke="#63b8ff" d="M82,-187.66C82,-177.24 82,-164.8 82,-156.67"/>
<polygon fill="#63b8ff" stroke="#63b8ff" points="78.5,-187.87 82,-197.87 85.5,-187.87 78.5,-187.87"/>
</a>
</g>
</g>
<!-- Node50&#45;&gt;Node14 -->
<g id="edge52_Node000050_Node000014" class="edge">
<title>Node50&#45;&gt;Node14</title>
<g id="a_edge52_Node000050_Node000014"><a xlink:title=" ">
<path fill="none" stroke="#63b8ff" d="M47.11,-193.5C33.29,-186.43 18.84,-176.17 11,-162 -12.92,-118.78 25.06,-92.1 67,-66 104.2,-42.85 151.59,-30.4 190.8,-23.72"/>
<polygon fill="#63b8ff" stroke="#63b8ff" points="45.95,-196.82 56.49,-197.9 48.92,-190.48 45.95,-196.82"/>
</a>
</g>
</g>
<!-- Node52 -->
<g id="Node000052" class="node">
<title>Node52</title>
<g id="a_Node000052"><a xlink:href="_h_pool_8h.html" target="_top" xlink:title=" ">
<polygon fill="white" stroke="#666666" points="1168,-393 1052,-393 1052,-374 1168,-374 1168,-393"/>
<text text-anchor="middle" x="1110" y="-381" font-family="Helvetica,sans-Serif" font-size="10.00">Cpl/Memory/HPool.h</text>
</a>
</g>
</g>
<!-- Node51&#45;&gt;Node52 -->
<g id="edge56_Node000051_Node000052" class="edge">
<title>Node51&#45;&gt;Node52</title>
<g id="a_edge56_Node000051_Node000052"><a xlink:title=" ">
<path fill="none" stroke="#63b8ff" d="M1110,-418.66C1110,-409.93 1110,-399.99 1110,-393.09"/>
<polygon fill="#63b8ff" stroke="#63b8ff" points="1106.5,-418.75 1110,-428.75 1113.5,-418.75 1106.5,-418.75"/>
</a>
</g>
</g>
<!-- Node53 -->
<g id="Node000053" class="node">
<title>Node53</title>
<g id="a_Node000053"><a xlink:href="_s_pool_8h.html" target="_top" xlink:title=" ">
<polygon fill="white" stroke="#666666" points="1301.5,-393 1186.5,-393 1186.5,-374 1301.5,-374 1301.5,-393"/>
<text text-anchor="middle" x="1244" y="-381" font-family="Helvetica,sans-Serif" font-size="10.00">Cpl/Memory/SPool.h</text>
</a>
</g>
</g>
<!-- Node51&#45;&gt;Node53 -->
<g id="edge57_Node000051_Node000053" class="edge">
<title>Node51&#45;&gt;Node53</title>
<g id="a_edge57_Node000051_Node000053"><a xlink:title=" ">
<path fill="none" stroke="#63b8ff" d="M1140.87,-425.29C1165.7,-415.47 1199.99,-401.91 1222.08,-393.17"/>
<polygon fill="#63b8ff" stroke="#63b8ff" points="1139.54,-422.05 1131.53,-428.98 1142.12,-428.56 1139.54,-422.05"/>
</a>
</g>
</g>
<!-- Node54 -->
<g id="Node000054" class="node">
<title>Node54</title>
<g id="a_Node000054"><a xlink:href="_io_2_file_2_littlefs_2_private___8h.html" target="_top" xlink:title=" ">
<polygon fill="white" stroke="#666666" points="1223.5,-338 1122.5,-338 1122.5,-308 1223.5,-308 1223.5,-338"/>
<text text-anchor="start" x="1130.5" y="-326" font-family="Helvetica,sans-Serif" font-size="10.00">Cpl/Io/File/Littlefs</text>
<text text-anchor="middle" x="1173" y="-315" font-family="Helvetica,sans-Serif" font-size="10.00">/Private_.h</text>
</a>
</g>
</g>
<!-- Node53&#45;&gt;Node54 -->
<g id="edge58_Node000053_Node000054" class="edge">
<title>Node53&#45;&gt;Node54</title>
<g id="a_edge58_Node000053_Node000054"><a xlink:title=" ">
<path fill="none" stroke="#63b8ff" d="M1225.8,-367.5C1214.82,-358.45 1200.91,-347 1190.13,-338.11"/>
<polygon fill="#63b8ff" stroke="#63b8ff" points="1223.58,-370.21 1233.52,-373.87 1228.03,-364.81 1223.58,-370.21"/>
</a>
</g>
</g>
<!-- Node55 -->
<g id="Node000055" class="node">
<title>Node55</title>
<g id="a_Node000055"><a xlink:href="_stream_pool_8h.html" target="_top" xlink:title=" ">
<polygon fill="white" stroke="#666666" points="1390,-332.5 1242,-332.5 1242,-313.5 1390,-313.5 1390,-332.5"/>
<text text-anchor="middle" x="1316" y="-320.5" font-family="Helvetica,sans-Serif" font-size="10.00">Cpl/Io/Socket/StreamPool.h</text>
</a>
</g>
</g>
<!-- Node53&#45;&gt;Node55 -->
<g id="edge59_Node000053_Node000055" class="edge">
<title>Node53&#45;&gt;Node55</title>
<g id="a_edge59_Node000053_Node000055"><a xlink:title=" ">
<path fill="none" stroke="#63b8ff" d="M1262.42,-367.54C1276.01,-356.49 1294.04,-341.84 1305.33,-332.67"/>
<polygon fill="#63b8ff" stroke="#63b8ff" points="1260.18,-364.85 1254.62,-373.87 1264.59,-370.28 1260.18,-364.85"/>
</a>
</g>
</g>
<!-- Node57 -->
<g id="Node000057" class="node">
<title>Node57</title>
<g id="a_Node000057"><a xlink:href="_system_2_event_loop_8h.html" target="_top" xlink:title=" ">
<polygon fill="white" stroke="#666666" points="941.5,-393 806.5,-393 806.5,-374 941.5,-374 941.5,-393"/>
<text text-anchor="middle" x="874" y="-381" font-family="Helvetica,sans-Serif" font-size="10.00">Cpl/System/EventLoop.h</text>
</a>
</g>
</g>
<!-- Node56&#45;&gt;Node57 -->
<g id="edge61_Node000056_Node000057" class="edge">
<title>Node56&#45;&gt;Node57</title>
<g id="a_edge61_Node000056_Node000057"><a xlink:title=" ">
<path fill="none" stroke="#63b8ff" d="M874,-418.66C874,-409.93 874,-399.99 874,-393.09"/>
<polygon fill="#63b8ff" stroke="#63b8ff" points="870.5,-418.75 874,-428.75 877.5,-418.75 870.5,-418.75"/>
</a>
</g>
</g>
<!-- Node60 -->
<g id="Node000060" class="node">
<title>Node60</title>
<g id="a_Node000060"><a xlink:href="_timer_8h.html" target="_top" xlink:title=" ">
<polygon fill="white" stroke="#666666" points="862,-90.5 750,-90.5 750,-71.5 862,-71.5 862,-90.5"/>
<text text-anchor="middle" x="806" y="-78.5" font-family="Helvetica,sans-Serif" font-size="10.00">Cpl/System/Timer.h</text>
</a>
</g>
</g>
<!-- Node56&#45;&gt;Node60 -->
<g id="edge64_Node000056_Node000060" class="edge">
<title>Node56&#45;&gt;Node60</title>
<g id="a_edge64_Node000056_Node000060"><a xlink:title=" ">
<path fill="none" stroke="#63b8ff" d="M904.93,-424.37C919.92,-416.85 937.37,-406.26 950,-393 973.85,-367.95 986,-358.59 986,-324 986,-324 986,-324 986,-206.5 986,-172.33 990.53,-156.78 967,-132 958.06,-122.58 884.11,-102.19 839.61,-90.56"/>
<polygon fill="#63b8ff" stroke="#63b8ff" points="903.03,-421.4 895.51,-428.87 906.04,-427.72 903.03,-421.4"/>
</a>
</g>
</g>
<!-- Node57&#45;&gt;Node7 -->
<g id="edge62_Node000057_Node000007" class="edge">
<title>Node57&#45;&gt;Node7</title>
<g id="a_edge62_Node000057_Node000007"><a xlink:title=" ">
<path fill="none" stroke="#63b8ff" d="M847.17,-369.63C823.64,-358.35 790.1,-342.27 769.76,-332.52"/>
<polygon fill="#63b8ff" stroke="#63b8ff" points="845.73,-372.83 856.26,-373.99 848.76,-366.51 845.73,-372.83"/>
</a>
</g>
</g>
<!-- Node58 -->
<g id="Node000058" class="node">
<title>Node58</title>
<g id="a_Node000058"><a xlink:href="_itc_2_mailbox_server_8h.html" target="_top" xlink:title=" ">
<polygon fill="#fff0f0" stroke="red" points="957.5,-332.5 828.5,-332.5 828.5,-313.5 957.5,-313.5 957.5,-332.5"/>
<text text-anchor="middle" x="893" y="-320.5" font-family="Helvetica,sans-Serif" font-size="10.00">Cpl/Itc/MailboxServer.h</text>
</a>
</g>
</g>
<!-- Node57&#45;&gt;Node58 -->
<g id="edge63_Node000057_Node000058" class="edge">
<title>Node57&#45;&gt;Node58</title>
<g id="a_edge63_Node000057_Node000058"><a xlink:title=" ">
<path fill="none" stroke="#63b8ff" d="M879.9,-364.32C883.33,-353.78 887.49,-340.98 890.18,-332.67"/>
<polygon fill="#63b8ff" stroke="#63b8ff" points="876.56,-363.28 876.8,-373.87 883.22,-365.44 876.56,-363.28"/>
</a>
</g>
</g>
<!-- Node60&#45;&gt;Node12 -->
<g id="edge66_Node000060_Node000012" class="edge">
<title>Node60&#45;&gt;Node12</title>
<g id="a_edge66_Node000060_Node000012"><a xlink:title=" ">
<path fill="none" stroke="#63b8ff" d="M845.23,-68.48C881.87,-57.73 936.66,-41.64 975.92,-30.12"/>
<polygon fill="#63b8ff" stroke="#63b8ff" points="844.01,-65.19 835.4,-71.37 845.98,-71.91 844.01,-65.19"/>
</a>
</g>
</g>
<!-- Node60&#45;&gt;Node14 -->
<g id="edge65_Node000060_Node000014" class="edge">
<title>Node60&#45;&gt;Node14</title>
<g id="a_edge65_Node000060_Node000014"><a xlink:title=" ">
<path fill="none" stroke="#63b8ff" d="M739.94,-71.1C726.71,-69.37 712.92,-67.6 700,-66 574.29,-50.46 427.91,-33.92 341.31,-24.29"/>
<polygon fill="#63b8ff" stroke="#63b8ff" points="739.54,-74.58 749.91,-72.42 740.45,-67.64 739.54,-74.58"/>
</a>
</g>
</g>
</g>
</svg>
