<?xml version="1.0" encoding="UTF-8" standalone="no"?>
<!DOCTYPE svg PUBLIC "-//W3C//DTD SVG 1.1//EN"
 "http://www.w3.org/Graphics/SVG/1.1/DTD/svg11.dtd">
<!-- Generated by graphviz version 2.43.0 (0)
 -->
<!-- Title: Cpl/Text/Frame/Decoder.h Pages: 1 -->
<svg width="659pt" height="313pt"
 viewBox="0.00 0.00 659.00 313.00" xmlns="http://www.w3.org/2000/svg" xmlns:xlink="http://www.w3.org/1999/xlink">
<g id="graph0" class="graph" transform="scale(1 1) rotate(0) translate(4 309)">
<title>Cpl/Text/Frame/Decoder.h</title>
<!-- Node1 -->
<g id="Node000001" class="node">
<title>Node1</title>
<g id="a_Node000001"><a xlink:title=" ">
<polygon fill="#999999" stroke="#666666" points="479.5,-305 338.5,-305 338.5,-286 479.5,-286 479.5,-305"/>
<text text-anchor="middle" x="409" y="-293" font-family="Helvetica,sans-Serif" font-size="10.00">Cpl/Text/Frame/Decoder.h</text>
</a>
</g>
</g>
<!-- Node2 -->
<g id="Node000002" class="node">
<title>Node2</title>
<g id="a_Node000002"><a xlink:href="_decoder___8h.html" target="_top" xlink:title=" ">
<polygon fill="white" stroke="#666666" points="482.5,-250 335.5,-250 335.5,-231 482.5,-231 482.5,-250"/>
<text text-anchor="middle" x="409" y="-238" font-family="Helvetica,sans-Serif" font-size="10.00">Cpl/Text/Frame/Decoder_.h</text>
</a>
</g>
</g>
<!-- Node1&#45;&gt;Node2 -->
<g id="edge1_Node000001_Node000002" class="edge">
<title>Node1&#45;&gt;Node2</title>
<g id="a_edge1_Node000001_Node000002"><a xlink:title=" ">
<path fill="none" stroke="#63b8ff" d="M409,-275.66C409,-266.93 409,-256.99 409,-250.09"/>
<polygon fill="#63b8ff" stroke="#63b8ff" points="405.5,-275.75 409,-285.75 412.5,-275.75 405.5,-275.75"/>
</a>
</g>
</g>
<!-- Node3 -->
<g id="Node000003" class="node">
<title>Node3</title>
<g id="a_Node000003"><a xlink:href="_stream_decoder_8h.html" target="_top" xlink:title=" ">
<polygon fill="white" stroke="#666666" points="402,-195 226,-195 226,-176 402,-176 402,-195"/>
<text text-anchor="middle" x="314" y="-183" font-family="Helvetica,sans-Serif" font-size="10.00">Cpl/Text/Frame/StreamDecoder.h</text>
</a>
</g>
</g>
<!-- Node2&#45;&gt;Node3 -->
<g id="edge2_Node000002_Node000003" class="edge">
<title>Node2&#45;&gt;Node3</title>
<g id="a_edge2_Node000002_Node000003"><a xlink:title=" ">
<path fill="none" stroke="#63b8ff" d="M384.74,-225.97C367.37,-216.28 344.51,-203.52 329.54,-195.17"/>
<polygon fill="#63b8ff" stroke="#63b8ff" points="383.3,-229.17 393.74,-230.98 386.71,-223.06 383.3,-229.17"/>
</a>
</g>
</g>
<!-- Node13 -->
<g id="Node000013" class="node">
<title>Node13</title>
<g id="a_Node000013"><a xlink:href="_string_decoder_8h.html" target="_top" xlink:title=" ">
<polygon fill="white" stroke="#666666" points="590,-195 420,-195 420,-176 590,-176 590,-195"/>
<text text-anchor="middle" x="505" y="-183" font-family="Helvetica,sans-Serif" font-size="10.00">Cpl/Text/Frame/StringDecoder.h</text>
</a>
</g>
</g>
<!-- Node2&#45;&gt;Node13 -->
<g id="edge14_Node000002_Node000013" class="edge">
<title>Node2&#45;&gt;Node13</title>
<g id="a_edge14_Node000002_Node000013"><a xlink:title=" ">
<path fill="none" stroke="#63b8ff" d="M433.52,-225.97C451.06,-216.28 474.17,-203.52 489.3,-195.17"/>
<polygon fill="#63b8ff" stroke="#63b8ff" points="431.49,-223.09 424.42,-230.98 434.87,-229.22 431.49,-223.09"/>
</a>
</g>
</g>
<!-- Node4 -->
<g id="Node000004" class="node">
<title>Node4</title>
<g id="a_Node000004"><a xlink:href="_processor_8h.html" target="_top" xlink:title=" ">
<polygon fill="white" stroke="#666666" points="124,-140 0,-140 0,-121 124,-121 124,-140"/>
<text text-anchor="middle" x="62" y="-128" font-family="Helvetica,sans-Serif" font-size="10.00">Cpl/TShell/Processor.h</text>
</a>
</g>
</g>
<!-- Node3&#45;&gt;Node4 -->
<g id="edge3_Node000003_Node000004" class="edge">
<title>Node3&#45;&gt;Node4</title>
<g id="a_edge3_Node000003_Node000004"><a xlink:title=" ">
<path fill="none" stroke="#63b8ff" d="M263.5,-173.88C216.26,-163.94 146.61,-149.3 102.81,-140.08"/>
<polygon fill="#63b8ff" stroke="#63b8ff" points="263.01,-177.35 273.51,-175.98 264.45,-170.5 263.01,-177.35"/>
</a>
</g>
</g>
<!-- Node8 -->
<g id="Node000008" class="node">
<title>Node8</title>
<g id="a_Node000008"><a xlink:href="_ascii_decoder_8h.html" target="_top" xlink:title=" ">
<polygon fill="white" stroke="#666666" points="306,-140 142,-140 142,-121 306,-121 306,-140"/>
<text text-anchor="middle" x="224" y="-128" font-family="Helvetica,sans-Serif" font-size="10.00">Cpl/Text/Frame/AsciiDecoder.h</text>
</a>
</g>
</g>
<!-- Node3&#45;&gt;Node8 -->
<g id="edge7_Node000003_Node000008" class="edge">
<title>Node3&#45;&gt;Node8</title>
<g id="a_edge7_Node000003_Node000008"><a xlink:title=" ">
<path fill="none" stroke="#63b8ff" d="M290.56,-170.7C274.16,-161.04 252.77,-148.44 238.72,-140.17"/>
<polygon fill="#63b8ff" stroke="#63b8ff" points="289.15,-173.93 299.54,-175.98 292.7,-167.89 289.15,-173.93"/>
</a>
</g>
</g>
<!-- Node9 -->
<g id="Node000009" class="node">
<title>Node9</title>
<g id="a_Node000009"><a xlink:href="_line_decoder_8h.html" target="_top" xlink:title=" ">
<polygon fill="white" stroke="#666666" points="485.5,-140 324.5,-140 324.5,-121 485.5,-121 485.5,-140"/>
<text text-anchor="middle" x="405" y="-128" font-family="Helvetica,sans-Serif" font-size="10.00">Cpl/Text/Frame/LineDecoder.h</text>
</a>
</g>
</g>
<!-- Node3&#45;&gt;Node9 -->
<g id="edge8_Node000003_Node000009" class="edge">
<title>Node3&#45;&gt;Node9</title>
<g id="a_edge8_Node000003_Node000009"><a xlink:title=" ">
<path fill="none" stroke="#63b8ff" d="M337.7,-170.7C354.28,-161.04 375.91,-148.44 390.11,-140.17"/>
<polygon fill="#63b8ff" stroke="#63b8ff" points="335.5,-167.93 328.62,-175.98 339.02,-173.98 335.5,-167.93"/>
</a>
</g>
</g>
<!-- Node10 -->
<g id="Node000010" class="node">
<title>Node10</title>
<g id="a_Node000010"><a xlink:href="_pipe_8h.html" target="_top" xlink:title=" ">
<polygon fill="white" stroke="#666666" points="614,-140 504,-140 504,-121 614,-121 614,-140"/>
<text text-anchor="middle" x="559" y="-128" font-family="Helvetica,sans-Serif" font-size="10.00">Driver/TPipe/Pipe.h</text>
</a>
</g>
</g>
<!-- Node3&#45;&gt;Node10 -->
<g id="edge11_Node000003_Node000010" class="edge">
<title>Node3&#45;&gt;Node10</title>
<g id="a_edge11_Node000003_Node000010"><a xlink:title=" ">
<path fill="none" stroke="#63b8ff" d="M363.39,-173.82C409.3,-163.88 476.83,-149.28 519.33,-140.08"/>
<polygon fill="#63b8ff" stroke="#63b8ff" points="362.4,-170.45 353.36,-175.98 363.88,-177.29 362.4,-170.45"/>
</a>
</g>
</g>
<!-- Node5 -->
<g id="Node000005" class="node">
<title>Node5</title>
<g id="a_Node000005"><a xlink:href="_cpl_2_t_shell_2_maker_8h.html" target="_top" xlink:title=" ">
<polygon fill="white" stroke="#666666" points="330.5,-79.5 223.5,-79.5 223.5,-60.5 330.5,-60.5 330.5,-79.5"/>
<text text-anchor="middle" x="277" y="-67.5" font-family="Helvetica,sans-Serif" font-size="10.00">Cpl/TShell/Maker.h</text>
</a>
</g>
</g>
<!-- Node4&#45;&gt;Node5 -->
<g id="edge4_Node000004_Node000005" class="edge">
<title>Node4&#45;&gt;Node5</title>
<g id="a_edge4_Node000004_Node000005"><a xlink:title=" ">
<path fill="none" stroke="#63b8ff" d="M103.08,-118.32C144.65,-107.01 208.02,-89.77 245.7,-79.52"/>
<polygon fill="#63b8ff" stroke="#63b8ff" points="101.99,-114.99 93.26,-120.99 103.83,-121.75 101.99,-114.99"/>
</a>
</g>
</g>
<!-- Node6 -->
<g id="Node000006" class="node">
<title>Node6</title>
<g id="a_Node000006"><a xlink:href="_polled_processor_8h.html" target="_top" xlink:title=" ">
<polygon fill="white" stroke="#666666" points="179,-79.5 25,-79.5 25,-60.5 179,-60.5 179,-79.5"/>
<text text-anchor="middle" x="102" y="-67.5" font-family="Helvetica,sans-Serif" font-size="10.00">Cpl/TShell/PolledProcessor.h</text>
</a>
</g>
</g>
<!-- Node4&#45;&gt;Node6 -->
<g id="edge5_Node000004_Node000006" class="edge">
<title>Node4&#45;&gt;Node6</title>
<g id="a_edge5_Node000004_Node000006"><a xlink:title=" ">
<path fill="none" stroke="#63b8ff" d="M73.76,-112.3C81.09,-101.58 90.22,-88.23 96.07,-79.67"/>
<polygon fill="#63b8ff" stroke="#63b8ff" points="70.66,-110.64 67.9,-120.87 76.44,-114.59 70.66,-110.64"/>
</a>
</g>
</g>
<!-- Node7 -->
<g id="Node000007" class="node">
<title>Node7</title>
<g id="a_Node000007"><a xlink:href="_polled_maker_8h.html" target="_top" xlink:title=" ">
<polygon fill="white" stroke="#666666" points="305.5,-19 168.5,-19 168.5,0 305.5,0 305.5,-19"/>
<text text-anchor="middle" x="237" y="-7" font-family="Helvetica,sans-Serif" font-size="10.00">Cpl/TShell/PolledMaker.h</text>
</a>
</g>
</g>
<!-- Node6&#45;&gt;Node7 -->
<g id="edge6_Node000006_Node000007" class="edge">
<title>Node6&#45;&gt;Node7</title>
<g id="a_edge6_Node000006_Node000007"><a xlink:title=" ">
<path fill="none" stroke="#63b8ff" d="M131,-56.43C157.07,-45.14 194.64,-28.86 217.35,-19.02"/>
<polygon fill="#63b8ff" stroke="#63b8ff" points="129.41,-53.31 121.63,-60.49 132.2,-59.73 129.41,-53.31"/>
</a>
</g>
</g>
<!-- Node9&#45;&gt;Node5 -->
<g id="edge9_Node000009_Node000005" class="edge">
<title>Node9&#45;&gt;Node5</title>
<g id="a_edge9_Node000009_Node000005"><a xlink:title=" ">
<path fill="none" stroke="#63b8ff" d="M377.17,-116.78C352.47,-105.49 317.07,-89.31 295.63,-79.52"/>
<polygon fill="#63b8ff" stroke="#63b8ff" points="375.84,-120.02 386.39,-120.99 378.75,-113.65 375.84,-120.02"/>
</a>
</g>
</g>
<!-- Node9&#45;&gt;Node7 -->
<g id="edge10_Node000009_Node000007" class="edge">
<title>Node9&#45;&gt;Node7</title>
<g id="a_edge10_Node000009_Node000007"><a xlink:title=" ">
<path fill="none" stroke="#63b8ff" d="M393.24,-112.36C381.21,-95.86 361.17,-71.12 339,-55 316.34,-38.53 286.63,-26.44 265.12,-19.05"/>
<polygon fill="#63b8ff" stroke="#63b8ff" points="390.42,-114.44 399.07,-120.57 396.13,-110.39 390.42,-114.44"/>
</a>
</g>
</g>
<!-- Node11 -->
<g id="Node000011" class="node">
<title>Node11</title>
<g id="a_Node000011"><a xlink:href="_driver_2_pico_display_2_t_pipe_2_api_8h.html" target="_top" xlink:title="This file defines the interface for initializing the concrete implementation of the PicoDisplay drive...">
<polygon fill="white" stroke="#666666" points="514.5,-85 407.5,-85 407.5,-55 514.5,-55 514.5,-85"/>
<text text-anchor="start" x="415.5" y="-73" font-family="Helvetica,sans-Serif" font-size="10.00">Driver/PicoDisplay</text>
<text text-anchor="middle" x="461" y="-62" font-family="Helvetica,sans-Serif" font-size="10.00">/TPipe/Api.h</text>
</a>
</g>
</g>
<!-- Node10&#45;&gt;Node11 -->
<g id="edge12_Node000010_Node000011" class="edge">
<title>Node10&#45;&gt;Node11</title>
<g id="a_edge12_Node000010_Node000011"><a xlink:title=" ">
<path fill="none" stroke="#63b8ff" d="M535.64,-115.55C520.23,-106.36 500.11,-94.35 484.64,-85.11"/>
<polygon fill="#63b8ff" stroke="#63b8ff" points="534.16,-118.75 544.54,-120.87 537.75,-112.74 534.16,-118.75"/>
</a>
</g>
</g>
<!-- Node12 -->
<g id="Node000012" class="node">
<title>Node12</title>
<g id="a_Node000012"><a xlink:href="_driver_2_t_pipe_2_maker_8h.html" target="_top" xlink:title=" ">
<polygon fill="white" stroke="#666666" points="651,-79.5 533,-79.5 533,-60.5 651,-60.5 651,-79.5"/>
<text text-anchor="middle" x="592" y="-67.5" font-family="Helvetica,sans-Serif" font-size="10.00">Driver/TPipe/Maker.h</text>
</a>
</g>
</g>
<!-- Node10&#45;&gt;Node12 -->
<g id="edge13_Node000010_Node000012" class="edge">
<title>Node10&#45;&gt;Node12</title>
<g id="a_edge13_Node000010_Node000012"><a xlink:title=" ">
<path fill="none" stroke="#63b8ff" d="M568.88,-111.98C574.9,-101.31 582.33,-88.15 587.11,-79.67"/>
<polygon fill="#63b8ff" stroke="#63b8ff" points="565.73,-110.44 563.87,-120.87 571.83,-113.88 565.73,-110.44"/>
</a>
</g>
</g>
</g>
</svg>
