<?xml version="1.0" encoding="UTF-8" standalone="no"?>
<!DOCTYPE svg PUBLIC "-//W3C//DTD SVG 1.1//EN"
 "http://www.w3.org/Graphics/SVG/1.1/DTD/svg11.dtd">
<!-- Generated by graphviz version 2.43.0 (0)
 -->
<!-- Title: Cpl/Io/Descriptor.h Pages: 1 -->
<svg width="2097pt" height="214pt"
 viewBox="0.00 0.00 2096.50 214.00" xmlns="http://www.w3.org/2000/svg" xmlns:xlink="http://www.w3.org/1999/xlink">
<g id="graph0" class="graph" transform="scale(1 1) rotate(0) translate(4 210)">
<title>Cpl/Io/Descriptor.h</title>
<!-- Node1 -->
<g id="Node000001" class="node">
<title>Node1</title>
<g id="a_Node000001"><a xlink:title=" ">
<polygon fill="#999999" stroke="#666666" points="615.5,-206 509.5,-206 509.5,-187 615.5,-187 615.5,-206"/>
<text text-anchor="middle" x="562.5" y="-194" font-family="Helvetica,sans-Serif" font-size="10.00">Cpl/Io/Descriptor.h</text>
</a>
</g>
</g>
<!-- Node2 -->
<g id="Node000002" class="node">
<title>Node2</title>
<g id="a_Node000002"><a xlink:href="_common___8h.html" target="_top" xlink:title=" ">
<polygon fill="white" stroke="#666666" points="130.5,-151 4.5,-151 4.5,-132 130.5,-132 130.5,-151"/>
<text text-anchor="middle" x="67.5" y="-139" font-family="Helvetica,sans-Serif" font-size="10.00">Cpl/Io/File/Common_.h</text>
</a>
</g>
</g>
<!-- Node1&#45;&gt;Node2 -->
<g id="edge1_Node000001_Node000002" class="edge">
<title>Node1&#45;&gt;Node2</title>
<g id="a_edge1_Node000001_Node000002"><a xlink:title=" ">
<path fill="none" stroke="#63b8ff" d="M499.4,-189.11C416.71,-180.69 267.19,-165.25 139.5,-151 136.62,-150.68 133.68,-150.35 130.71,-150.01"/>
<polygon fill="#63b8ff" stroke="#63b8ff" points="499.09,-192.6 509.39,-190.13 499.8,-185.64 499.09,-192.6"/>
</a>
</g>
</g>
<!-- Node3 -->
<g id="Node000003" class="node">
<title>Node3</title>
<g id="a_Node000003"><a xlink:href="_connector_8h.html" target="_top" xlink:title=" ">
<polygon fill="white" stroke="#666666" points="288.5,-151 148.5,-151 148.5,-132 288.5,-132 288.5,-151"/>
<text text-anchor="middle" x="218.5" y="-139" font-family="Helvetica,sans-Serif" font-size="10.00">Cpl/Io/Socket/Connector.h</text>
</a>
</g>
</g>
<!-- Node1&#45;&gt;Node3 -->
<g id="edge2_Node000001_Node000003" class="edge">
<title>Node1&#45;&gt;Node3</title>
<g id="a_edge2_Node000001_Node000003"><a xlink:title=" ">
<path fill="none" stroke="#63b8ff" d="M499.06,-185.73C434.43,-175.77 335.2,-160.48 273.71,-151.01"/>
<polygon fill="#63b8ff" stroke="#63b8ff" points="498.71,-189.21 509.13,-187.28 499.78,-182.29 498.71,-189.21"/>
</a>
</g>
</g>
<!-- Node6 -->
<g id="Node000006" class="node">
<title>Node6</title>
<g id="a_Node000006"><a xlink:href="_factory_8h.html" target="_top" xlink:title=" ">
<polygon fill="white" stroke="#666666" points="383,-90.5 258,-90.5 258,-71.5 383,-71.5 383,-90.5"/>
<text text-anchor="middle" x="320.5" y="-78.5" font-family="Helvetica,sans-Serif" font-size="10.00">Cpl/Io/Socket/Factory.h</text>
</a>
</g>
</g>
<!-- Node1&#45;&gt;Node6 -->
<g id="edge5_Node000001_Node000006" class="edge">
<title>Node1&#45;&gt;Node6</title>
<g id="a_edge5_Node000001_Node000006"><a xlink:title=" ">
<path fill="none" stroke="#63b8ff" d="M498.96,-188.67C463.38,-182.7 419.31,-171.58 384.5,-151 358.06,-135.37 335.94,-105.48 326.05,-90.71"/>
<polygon fill="#63b8ff" stroke="#63b8ff" points="498.8,-192.19 509.23,-190.29 499.89,-185.27 498.8,-192.19"/>
</a>
</g>
</g>
<!-- Node8 -->
<g id="Node000008" class="node">
<title>Node8</title>
<g id="a_Node000008"><a xlink:href="_socket_2_input_output_8h.html" target="_top" xlink:title=" ">
<polygon fill="white" stroke="#666666" points="543,-151 394,-151 394,-132 543,-132 543,-151"/>
<text text-anchor="middle" x="468.5" y="-139" font-family="Helvetica,sans-Serif" font-size="10.00">Cpl/Io/Socket/InputOutput.h</text>
</a>
</g>
</g>
<!-- Node1&#45;&gt;Node8 -->
<g id="edge7_Node000001_Node000008" class="edge">
<title>Node1&#45;&gt;Node8</title>
<g id="a_edge7_Node000001_Node000008"><a xlink:title=" ">
<path fill="none" stroke="#63b8ff" d="M538.5,-181.97C521.31,-172.28 498.69,-159.52 483.88,-151.17"/>
<polygon fill="#63b8ff" stroke="#63b8ff" points="536.97,-185.12 547.4,-186.98 540.41,-179.02 536.97,-185.12"/>
</a>
</g>
</g>
<!-- Node10 -->
<g id="Node000010" class="node">
<title>Node10</title>
<g id="a_Node000010"><a xlink:href="_listener_8h.html" target="_top" xlink:title=" ">
<polygon fill="white" stroke="#666666" points="707.5,-151 577.5,-151 577.5,-132 707.5,-132 707.5,-151"/>
<text text-anchor="middle" x="642.5" y="-139" font-family="Helvetica,sans-Serif" font-size="10.00">Cpl/Io/Socket/Listener.h</text>
</a>
</g>
</g>
<!-- Node1&#45;&gt;Node10 -->
<g id="edge11_Node000001_Node000010" class="edge">
<title>Node1&#45;&gt;Node10</title>
<g id="a_edge11_Node000001_Node000010"><a xlink:title=" ">
<path fill="none" stroke="#63b8ff" d="M583.75,-181.42C598.26,-171.81 617.04,-159.37 629.41,-151.17"/>
<polygon fill="#63b8ff" stroke="#63b8ff" points="581.76,-178.54 575.35,-186.98 585.62,-184.38 581.76,-178.54"/>
</a>
</g>
</g>
<!-- Node16 -->
<g id="Node000016" class="node">
<title>Node16</title>
<g id="a_Node000016"><a xlink:href="_input___8h.html" target="_top" xlink:title=" ">
<polygon fill="white" stroke="#666666" points="1096.5,-151 982.5,-151 982.5,-132 1096.5,-132 1096.5,-151"/>
<text text-anchor="middle" x="1039.5" y="-139" font-family="Helvetica,sans-Serif" font-size="10.00">Cpl/Io/Stdio/Input_.h</text>
</a>
</g>
</g>
<!-- Node1&#45;&gt;Node16 -->
<g id="edge19_Node000001_Node000016" class="edge">
<title>Node1&#45;&gt;Node16</title>
<g id="a_edge19_Node000001_Node000016"><a xlink:title=" ">
<path fill="none" stroke="#63b8ff" d="M626,-188.44C719.5,-178.06 892.79,-158.8 982.45,-148.84"/>
<polygon fill="#63b8ff" stroke="#63b8ff" points="625.38,-184.99 615.83,-189.57 626.15,-191.95 625.38,-184.99"/>
</a>
</g>
</g>
<!-- Node21 -->
<g id="Node000021" class="node">
<title>Node21</title>
<g id="a_Node000021"><a xlink:href="_output___8h.html" target="_top" xlink:title=" ">
<polygon fill="white" stroke="#666666" points="1455.5,-151 1333.5,-151 1333.5,-132 1455.5,-132 1455.5,-151"/>
<text text-anchor="middle" x="1394.5" y="-139" font-family="Helvetica,sans-Serif" font-size="10.00">Cpl/Io/Stdio/Output_.h</text>
</a>
</g>
</g>
<!-- Node1&#45;&gt;Node21 -->
<g id="edge24_Node000001_Node000021" class="edge">
<title>Node1&#45;&gt;Node21</title>
<g id="a_edge24_Node000001_Node000021"><a xlink:title=" ">
<path fill="none" stroke="#63b8ff" d="M626.15,-191.45C781.84,-181.53 1180.26,-156.15 1333.33,-146.4"/>
<polygon fill="#63b8ff" stroke="#63b8ff" points="625.57,-187.98 615.81,-192.1 626.01,-194.96 625.57,-187.98"/>
</a>
</g>
</g>
<!-- Node25 -->
<g id="Node000025" class="node">
<title>Node25</title>
<g id="a_Node000025"><a xlink:href="_tcp_2_input_output_8h.html" target="_top" xlink:title=" ">
<polygon fill="white" stroke="#666666" points="1877,-151 1744,-151 1744,-132 1877,-132 1877,-151"/>
<text text-anchor="middle" x="1810.5" y="-139" font-family="Helvetica,sans-Serif" font-size="10.00">Cpl/Io/Tcp/InputOutput.h</text>
</a>
</g>
</g>
<!-- Node1&#45;&gt;Node25 -->
<g id="edge29_Node000001_Node000025" class="edge">
<title>Node1&#45;&gt;Node25</title>
<g id="a_edge29_Node000001_Node000025"><a xlink:title=" ">
<path fill="none" stroke="#63b8ff" d="M625.79,-192.81C838.43,-183.78 1526.09,-154.58 1743.77,-145.33"/>
<polygon fill="#63b8ff" stroke="#63b8ff" points="625.57,-189.32 615.73,-193.24 625.87,-196.31 625.57,-189.32"/>
</a>
</g>
</g>
<!-- Node4 -->
<g id="Node000004" class="node">
<title>Node4</title>
<g id="a_Node000004"><a xlink:href="_posix_2_connector_8h.html" target="_top" xlink:title=" ">
<polygon fill="white" stroke="#666666" points="109,-96 0,-96 0,-66 109,-66 109,-96"/>
<text text-anchor="start" x="8" y="-84" font-family="Helvetica,sans-Serif" font-size="10.00">Cpl/Io/Socket/Posix</text>
<text text-anchor="middle" x="54.5" y="-73" font-family="Helvetica,sans-Serif" font-size="10.00">/Connector.h</text>
</a>
</g>
</g>
<!-- Node3&#45;&gt;Node4 -->
<g id="edge3_Node000003_Node000004" class="edge">
<title>Node3&#45;&gt;Node4</title>
<g id="a_edge3_Node000003_Node000004"><a xlink:title=" ">
<path fill="none" stroke="#63b8ff" d="M185.09,-128.58C158.69,-119.16 121.78,-106 93.93,-96.06"/>
<polygon fill="#63b8ff" stroke="#63b8ff" points="184.06,-131.93 194.65,-131.99 186.41,-125.34 184.06,-131.93"/>
</a>
</g>
</g>
<!-- Node5 -->
<g id="Node000005" class="node">
<title>Node5</title>
<g id="a_Node000005"><a xlink:href="_win32_2_connector_8h.html" target="_top" xlink:title=" ">
<polygon fill="white" stroke="#666666" points="240,-96 127,-96 127,-66 240,-66 240,-96"/>
<text text-anchor="start" x="135" y="-84" font-family="Helvetica,sans-Serif" font-size="10.00">Cpl/Io/Socket/Win32</text>
<text text-anchor="middle" x="183.5" y="-73" font-family="Helvetica,sans-Serif" font-size="10.00">/Connector.h</text>
</a>
</g>
</g>
<!-- Node3&#45;&gt;Node5 -->
<g id="edge4_Node000003_Node000005" class="edge">
<title>Node3&#45;&gt;Node5</title>
<g id="a_edge4_Node000003_Node000005"><a xlink:title=" ">
<path fill="none" stroke="#63b8ff" d="M208.06,-123.05C202.92,-114.45 196.79,-104.21 191.94,-96.11"/>
<polygon fill="#63b8ff" stroke="#63b8ff" points="205.2,-125.08 213.34,-131.87 211.2,-121.49 205.2,-125.08"/>
</a>
</g>
</g>
<!-- Node7 -->
<g id="Node000007" class="node">
<title>Node7</title>
<g id="a_Node000007"><a xlink:href="_stream_pool_8h.html" target="_top" xlink:title=" ">
<polygon fill="white" stroke="#666666" points="440.5,-24.5 292.5,-24.5 292.5,-5.5 440.5,-5.5 440.5,-24.5"/>
<text text-anchor="middle" x="366.5" y="-12.5" font-family="Helvetica,sans-Serif" font-size="10.00">Cpl/Io/Socket/StreamPool.h</text>
</a>
</g>
</g>
<!-- Node6&#45;&gt;Node7 -->
<g id="edge6_Node000006_Node000007" class="edge">
<title>Node6&#45;&gt;Node7</title>
<g id="a_edge6_Node000006_Node000007"><a xlink:title=" ">
<path fill="none" stroke="#63b8ff" d="M332.78,-62.91C341.58,-50.68 353.06,-34.7 360.1,-24.91"/>
<polygon fill="#63b8ff" stroke="#63b8ff" points="329.7,-61.21 326.7,-71.37 335.38,-65.29 329.7,-61.21"/>
</a>
</g>
</g>
<!-- Node8&#45;&gt;Node6 -->
<g id="edge8_Node000008_Node000006" class="edge">
<title>Node8&#45;&gt;Node6</title>
<g id="a_edge8_Node000008_Node000006"><a xlink:title=" ">
<path fill="none" stroke="#63b8ff" d="M437.46,-128.23C408.86,-116.92 367.16,-100.44 342.05,-90.52"/>
<polygon fill="#63b8ff" stroke="#63b8ff" points="436.39,-131.57 446.98,-131.99 438.97,-125.06 436.39,-131.57"/>
</a>
</g>
</g>
<!-- Node8&#45;&gt;Node7 -->
<g id="edge9_Node000008_Node000007" class="edge">
<title>Node8&#45;&gt;Node7</title>
<g id="a_edge9_Node000008_Node000007"><a xlink:title=" ">
<path fill="none" stroke="#63b8ff" d="M454.3,-124.12C447.1,-115.76 438.27,-105.4 430.5,-96 409.42,-70.5 385.19,-39.82 373.51,-24.95"/>
<polygon fill="#63b8ff" stroke="#63b8ff" points="451.66,-126.42 460.85,-131.71 456.96,-121.85 451.66,-126.42"/>
</a>
</g>
</g>
<!-- Node9 -->
<g id="Node000009" class="node">
<title>Node9</title>
<g id="a_Node000009"><a xlink:href="_socket_8h.html" target="_top" xlink:title=" ">
<polygon fill="white" stroke="#666666" points="549.5,-90.5 439.5,-90.5 439.5,-71.5 549.5,-71.5 549.5,-90.5"/>
<text text-anchor="middle" x="494.5" y="-78.5" font-family="Helvetica,sans-Serif" font-size="10.00">Cpl/TShell/Socket.h</text>
</a>
</g>
</g>
<!-- Node8&#45;&gt;Node9 -->
<g id="edge10_Node000008_Node000009" class="edge">
<title>Node8&#45;&gt;Node9</title>
<g id="a_edge10_Node000008_Node000009"><a xlink:title=" ">
<path fill="none" stroke="#63b8ff" d="M476.43,-122.65C481.15,-112.04 486.92,-99.06 490.65,-90.67"/>
<polygon fill="#63b8ff" stroke="#63b8ff" points="473.2,-121.31 472.34,-131.87 479.6,-124.15 473.2,-121.31"/>
</a>
</g>
</g>
<!-- Node10&#45;&gt;Node9 -->
<g id="edge18_Node000010_Node000009" class="edge">
<title>Node10&#45;&gt;Node9</title>
<g id="a_edge18_Node000010_Node000009"><a xlink:title=" ">
<path fill="none" stroke="#63b8ff" d="M611.46,-128.23C582.86,-116.92 541.16,-100.44 516.05,-90.52"/>
<polygon fill="#63b8ff" stroke="#63b8ff" points="610.39,-131.57 620.98,-131.99 612.97,-125.06 610.39,-131.57"/>
</a>
</g>
</g>
<!-- Node11 -->
<g id="Node000011" class="node">
<title>Node11</title>
<g id="a_Node000011"><a xlink:href="_listener_client_request_8h.html" target="_top" xlink:title=" ">
<polygon fill="white" stroke="#666666" points="717.5,-96 567.5,-96 567.5,-66 717.5,-66 717.5,-96"/>
<text text-anchor="start" x="575.5" y="-84" font-family="Helvetica,sans-Serif" font-size="10.00">Cpl/Io/Socket/ListenerClient</text>
<text text-anchor="middle" x="642.5" y="-73" font-family="Helvetica,sans-Serif" font-size="10.00">Request.h</text>
</a>
</g>
</g>
<!-- Node10&#45;&gt;Node11 -->
<g id="edge12_Node000010_Node000011" class="edge">
<title>Node10&#45;&gt;Node11</title>
<g id="a_edge12_Node000010_Node000011"><a xlink:title=" ">
<path fill="none" stroke="#63b8ff" d="M642.5,-121.65C642.5,-113.36 642.5,-103.78 642.5,-96.11"/>
<polygon fill="#63b8ff" stroke="#63b8ff" points="639,-121.87 642.5,-131.87 646,-121.87 639,-121.87"/>
</a>
</g>
</g>
<!-- Node12 -->
<g id="Node000012" class="node">
<title>Node12</title>
<g id="a_Node000012"><a xlink:href="_listener_client_sync_8h.html" target="_top" xlink:title=" ">
<polygon fill="white" stroke="#666666" points="730.5,-30 580.5,-30 580.5,0 730.5,0 730.5,-30"/>
<text text-anchor="start" x="588.5" y="-18" font-family="Helvetica,sans-Serif" font-size="10.00">Cpl/Io/Socket/ListenerClient</text>
<text text-anchor="middle" x="655.5" y="-7" font-family="Helvetica,sans-Serif" font-size="10.00">Sync.h</text>
</a>
</g>
</g>
<!-- Node10&#45;&gt;Node12 -->
<g id="edge14_Node000010_Node000012" class="edge">
<title>Node10&#45;&gt;Node12</title>
<g id="a_edge14_Node000010_Node000012"><a xlink:title=" ">
<path fill="none" stroke="#63b8ff" d="M685.56,-128.17C701.28,-121.35 717.41,-111.11 726.5,-96 733.38,-84.58 732.64,-77.84 726.5,-66 718.31,-50.21 702.58,-38.35 688.01,-30.16"/>
<polygon fill="#63b8ff" stroke="#63b8ff" points="683.92,-125.05 675.9,-131.98 686.49,-131.56 683.92,-125.05"/>
</a>
</g>
</g>
<!-- Node13 -->
<g id="Node000013" class="node">
<title>Node13</title>
<g id="a_Node000013"><a xlink:href="_listener___8h.html" target="_top" xlink:title=" ">
<polygon fill="white" stroke="#666666" points="909.5,-90.5 773.5,-90.5 773.5,-71.5 909.5,-71.5 909.5,-90.5"/>
<text text-anchor="middle" x="841.5" y="-78.5" font-family="Helvetica,sans-Serif" font-size="10.00">Cpl/Io/Socket/Listener_.h</text>
</a>
</g>
</g>
<!-- Node10&#45;&gt;Node13 -->
<g id="edge15_Node000010_Node000013" class="edge">
<title>Node10&#45;&gt;Node13</title>
<g id="a_edge15_Node000010_Node000013"><a xlink:title=" ">
<path fill="none" stroke="#63b8ff" d="M681.25,-129.11C719.74,-117.79 777.88,-100.7 812.53,-90.52"/>
<polygon fill="#63b8ff" stroke="#63b8ff" points="680.04,-125.82 671.44,-131.99 682.02,-132.53 680.04,-125.82"/>
</a>
</g>
</g>
<!-- Node11&#45;&gt;Node12 -->
<g id="edge13_Node000011_Node000012" class="edge">
<title>Node11&#45;&gt;Node12</title>
<g id="a_edge13_Node000011_Node000012"><a xlink:title=" ">
<path fill="none" stroke="#63b8ff" d="M647.41,-55.83C649.17,-47.17 651.09,-37.7 652.62,-30.16"/>
<polygon fill="#63b8ff" stroke="#63b8ff" points="643.95,-55.3 645.39,-65.8 650.81,-56.69 643.95,-55.3"/>
</a>
</g>
</g>
<!-- Node14 -->
<g id="Node000014" class="node">
<title>Node14</title>
<g id="a_Node000014"><a xlink:href="_posix_2_listener_8h.html" target="_top" xlink:title=" ">
<polygon fill="white" stroke="#666666" points="871,-30 762,-30 762,0 871,0 871,-30"/>
<text text-anchor="start" x="770" y="-18" font-family="Helvetica,sans-Serif" font-size="10.00">Cpl/Io/Socket/Posix</text>
<text text-anchor="middle" x="816.5" y="-7" font-family="Helvetica,sans-Serif" font-size="10.00">/Listener.h</text>
</a>
</g>
</g>
<!-- Node13&#45;&gt;Node14 -->
<g id="edge16_Node000013_Node000014" class="edge">
<title>Node13&#45;&gt;Node14</title>
<g id="a_edge16_Node000013_Node000014"><a xlink:title=" ">
<path fill="none" stroke="#63b8ff" d="M834.46,-61.98C830.56,-51.98 825.76,-39.71 822.11,-30.36"/>
<polygon fill="#63b8ff" stroke="#63b8ff" points="831.23,-63.33 838.13,-71.37 837.75,-60.78 831.23,-63.33"/>
</a>
</g>
</g>
<!-- Node15 -->
<g id="Node000015" class="node">
<title>Node15</title>
<g id="a_Node000015"><a xlink:href="_win32_2_listener_8h.html" target="_top" xlink:title=" ">
<polygon fill="white" stroke="#666666" points="1002,-30 889,-30 889,0 1002,0 1002,-30"/>
<text text-anchor="start" x="897" y="-18" font-family="Helvetica,sans-Serif" font-size="10.00">Cpl/Io/Socket/Win32</text>
<text text-anchor="middle" x="945.5" y="-7" font-family="Helvetica,sans-Serif" font-size="10.00">/Listener.h</text>
</a>
</g>
</g>
<!-- Node13&#45;&gt;Node15 -->
<g id="edge17_Node000013_Node000015" class="edge">
<title>Node13&#45;&gt;Node15</title>
<g id="a_edge17_Node000013_Node000015"><a xlink:title=" ">
<path fill="none" stroke="#63b8ff" d="M864.39,-65.91C881.67,-55.28 905.27,-40.75 922.56,-30.12"/>
<polygon fill="#63b8ff" stroke="#63b8ff" points="862.21,-63.15 855.53,-71.37 865.88,-69.11 862.21,-63.15"/>
</a>
</g>
</g>
<!-- Node17 -->
<g id="Node000017" class="node">
<title>Node17</title>
<g id="a_Node000017"><a xlink:href="_file_2_input_8h.html" target="_top" xlink:title=" ">
<polygon fill="white" stroke="#666666" points="1029,-90.5 928,-90.5 928,-71.5 1029,-71.5 1029,-90.5"/>
<text text-anchor="middle" x="978.5" y="-78.5" font-family="Helvetica,sans-Serif" font-size="10.00">Cpl/Io/File/Input.h</text>
</a>
</g>
</g>
<!-- Node16&#45;&gt;Node17 -->
<g id="edge20_Node000016_Node000017" class="edge">
<title>Node16&#45;&gt;Node17</title>
<g id="a_edge20_Node000016_Node000017"><a xlink:title=" ">
<path fill="none" stroke="#63b8ff" d="M1023.24,-124.91C1011.8,-113.94 996.92,-99.67 987.54,-90.67"/>
<polygon fill="#63b8ff" stroke="#63b8ff" points="1020.86,-127.47 1030.5,-131.87 1025.7,-122.42 1020.86,-127.47"/>
</a>
</g>
</g>
<!-- Node18 -->
<g id="Node000018" class="node">
<title>Node18</title>
<g id="a_Node000018"><a xlink:href="_input_output___8h.html" target="_top" xlink:title=" ">
<polygon fill="white" stroke="#666666" points="1321,-90.5 1174,-90.5 1174,-71.5 1321,-71.5 1321,-90.5"/>
<text text-anchor="middle" x="1247.5" y="-78.5" font-family="Helvetica,sans-Serif" font-size="10.00">Cpl/Io/Stdio/InputOutput_.h</text>
</a>
</g>
</g>
<!-- Node16&#45;&gt;Node18 -->
<g id="edge21_Node000016_Node000018" class="edge">
<title>Node16&#45;&gt;Node18</title>
<g id="a_edge21_Node000016_Node000018"><a xlink:title=" ">
<path fill="none" stroke="#63b8ff" d="M1079.49,-129.25C1119.72,-117.94 1180.85,-100.75 1217.22,-90.52"/>
<polygon fill="#63b8ff" stroke="#63b8ff" points="1078.42,-125.92 1069.74,-131.99 1080.32,-132.66 1078.42,-125.92"/>
</a>
</g>
</g>
<!-- Node20 -->
<g id="Node000020" class="node">
<title>Node20</title>
<g id="a_Node000020"><a xlink:href="_std_in_8h.html" target="_top" xlink:title=" ">
<polygon fill="white" stroke="#666666" points="1156,-90.5 1047,-90.5 1047,-71.5 1156,-71.5 1156,-90.5"/>
<text text-anchor="middle" x="1101.5" y="-78.5" font-family="Helvetica,sans-Serif" font-size="10.00">Cpl/Io/Stdio/StdIn.h</text>
</a>
</g>
</g>
<!-- Node16&#45;&gt;Node20 -->
<g id="edge23_Node000016_Node000020" class="edge">
<title>Node16&#45;&gt;Node20</title>
<g id="a_edge23_Node000016_Node000020"><a xlink:title=" ">
<path fill="none" stroke="#63b8ff" d="M1056.02,-124.91C1067.65,-113.94 1082.78,-99.67 1092.31,-90.67"/>
<polygon fill="#63b8ff" stroke="#63b8ff" points="1053.52,-122.46 1048.65,-131.87 1058.32,-127.55 1053.52,-122.46"/>
</a>
</g>
</g>
<!-- Node19 -->
<g id="Node000019" class="node">
<title>Node19</title>
<g id="a_Node000019"><a xlink:href="_file_2_input_output_8h.html" target="_top" xlink:title=" ">
<polygon fill="white" stroke="#666666" points="1314.5,-24.5 1180.5,-24.5 1180.5,-5.5 1314.5,-5.5 1314.5,-24.5"/>
<text text-anchor="middle" x="1247.5" y="-12.5" font-family="Helvetica,sans-Serif" font-size="10.00">Cpl/Io/File/InputOutput.h</text>
</a>
</g>
</g>
<!-- Node18&#45;&gt;Node19 -->
<g id="edge22_Node000018_Node000019" class="edge">
<title>Node18&#45;&gt;Node19</title>
<g id="a_edge22_Node000018_Node000019"><a xlink:title=" ">
<path fill="none" stroke="#63b8ff" d="M1247.5,-61.08C1247.5,-49.13 1247.5,-34.22 1247.5,-24.91"/>
<polygon fill="#63b8ff" stroke="#63b8ff" points="1244,-61.37 1247.5,-71.37 1251,-61.37 1244,-61.37"/>
</a>
</g>
</g>
<!-- Node21&#45;&gt;Node18 -->
<g id="edge26_Node000021_Node000018" class="edge">
<title>Node21&#45;&gt;Node18</title>
<g id="a_edge26_Node000021_Node000018"><a xlink:title=" ">
<path fill="none" stroke="#63b8ff" d="M1363.67,-128.23C1335.26,-116.92 1293.84,-100.44 1268.9,-90.52"/>
<polygon fill="#63b8ff" stroke="#63b8ff" points="1362.54,-131.55 1373.12,-131.99 1365.13,-125.04 1362.54,-131.55"/>
</a>
</g>
</g>
<!-- Node22 -->
<g id="Node000022" class="node">
<title>Node22</title>
<g id="a_Node000022"><a xlink:href="_file_2_output_8h.html" target="_top" xlink:title=" ">
<polygon fill="white" stroke="#666666" points="1449.5,-90.5 1339.5,-90.5 1339.5,-71.5 1449.5,-71.5 1449.5,-90.5"/>
<text text-anchor="middle" x="1394.5" y="-78.5" font-family="Helvetica,sans-Serif" font-size="10.00">Cpl/Io/File/Output.h</text>
</a>
</g>
</g>
<!-- Node21&#45;&gt;Node22 -->
<g id="edge25_Node000021_Node000022" class="edge">
<title>Node21&#45;&gt;Node22</title>
<g id="a_edge25_Node000021_Node000022"><a xlink:title=" ">
<path fill="none" stroke="#63b8ff" d="M1394.5,-121.66C1394.5,-111.24 1394.5,-98.8 1394.5,-90.67"/>
<polygon fill="#63b8ff" stroke="#63b8ff" points="1391,-121.87 1394.5,-131.87 1398,-121.87 1391,-121.87"/>
</a>
</g>
</g>
<!-- Node23 -->
<g id="Node000023" class="node">
<title>Node23</title>
<g id="a_Node000023"><a xlink:href="_std_err_8h.html" target="_top" xlink:title=" ">
<polygon fill="white" stroke="#666666" points="1581,-90.5 1468,-90.5 1468,-71.5 1581,-71.5 1581,-90.5"/>
<text text-anchor="middle" x="1524.5" y="-78.5" font-family="Helvetica,sans-Serif" font-size="10.00">Cpl/Io/Stdio/StdErr.h</text>
</a>
</g>
</g>
<!-- Node21&#45;&gt;Node23 -->
<g id="edge27_Node000021_Node000023" class="edge">
<title>Node21&#45;&gt;Node23</title>
<g id="a_edge27_Node000021_Node000023"><a xlink:title=" ">
<path fill="none" stroke="#63b8ff" d="M1422.76,-127.78C1447.85,-116.49 1483.81,-100.31 1505.57,-90.52"/>
<polygon fill="#63b8ff" stroke="#63b8ff" points="1421.09,-124.7 1413.4,-131.99 1423.96,-131.08 1421.09,-124.7"/>
</a>
</g>
</g>
<!-- Node24 -->
<g id="Node000024" class="node">
<title>Node24</title>
<g id="a_Node000024"><a xlink:href="_std_out_8h.html" target="_top" xlink:title=" ">
<polygon fill="white" stroke="#666666" points="1716,-90.5 1599,-90.5 1599,-71.5 1716,-71.5 1716,-90.5"/>
<text text-anchor="middle" x="1657.5" y="-78.5" font-family="Helvetica,sans-Serif" font-size="10.00">Cpl/Io/Stdio/StdOut.h</text>
</a>
</g>
</g>
<!-- Node21&#45;&gt;Node24 -->
<g id="edge28_Node000021_Node000024" class="edge">
<title>Node21&#45;&gt;Node24</title>
<g id="a_edge28_Node000021_Node000024"><a xlink:title=" ">
<path fill="none" stroke="#63b8ff" d="M1442.51,-129.82C1493.3,-118.52 1572.44,-100.92 1619.21,-90.52"/>
<polygon fill="#63b8ff" stroke="#63b8ff" points="1441.74,-126.41 1432.74,-131.99 1443.26,-133.24 1441.74,-126.41"/>
</a>
</g>
</g>
<!-- Node26 -->
<g id="Node000026" class="node">
<title>Node26</title>
<g id="a_Node000026"><a xlink:href="_async_connector_8h.html" target="_top" xlink:title=" ">
<polygon fill="white" stroke="#666666" points="1887,-90.5 1734,-90.5 1734,-71.5 1887,-71.5 1887,-90.5"/>
<text text-anchor="middle" x="1810.5" y="-78.5" font-family="Helvetica,sans-Serif" font-size="10.00">Cpl/Io/Tcp/AsyncConnector.h</text>
</a>
</g>
</g>
<!-- Node25&#45;&gt;Node26 -->
<g id="edge30_Node000025_Node000026" class="edge">
<title>Node25&#45;&gt;Node26</title>
<g id="a_edge30_Node000025_Node000026"><a xlink:title=" ">
<path fill="none" stroke="#63b8ff" d="M1810.5,-121.66C1810.5,-111.24 1810.5,-98.8 1810.5,-90.67"/>
<polygon fill="#63b8ff" stroke="#63b8ff" points="1807,-121.87 1810.5,-131.87 1814,-121.87 1807,-121.87"/>
</a>
</g>
</g>
<!-- Node28 -->
<g id="Node000028" class="node">
<title>Node28</title>
<g id="a_Node000028"><a xlink:href="_async_listener_8h.html" target="_top" xlink:title=" ">
<polygon fill="white" stroke="#666666" points="2064,-90.5 1921,-90.5 1921,-71.5 2064,-71.5 2064,-90.5"/>
<text text-anchor="middle" x="1992.5" y="-78.5" font-family="Helvetica,sans-Serif" font-size="10.00">Cpl/Io/Tcp/AsyncListener.h</text>
</a>
</g>
</g>
<!-- Node25&#45;&gt;Node28 -->
<g id="edge32_Node000025_Node000028" class="edge">
<title>Node25&#45;&gt;Node28</title>
<g id="a_edge32_Node000025_Node000028"><a xlink:title=" ">
<path fill="none" stroke="#63b8ff" d="M1846.85,-128.82C1882.05,-117.5 1934.58,-100.62 1966,-90.52"/>
<polygon fill="#63b8ff" stroke="#63b8ff" points="1845.41,-125.6 1836.96,-131.99 1847.56,-132.27 1845.41,-125.6"/>
</a>
</g>
</g>
<!-- Node27 -->
<g id="Node000027" class="node">
<title>Node27</title>
<g id="a_Node000027"><a xlink:href="_win32_2_async_connector_8h.html" target="_top" xlink:title=" ">
<polygon fill="white" stroke="#666666" points="1895,-24.5 1708,-24.5 1708,-5.5 1895,-5.5 1895,-24.5"/>
<text text-anchor="middle" x="1801.5" y="-12.5" font-family="Helvetica,sans-Serif" font-size="10.00">Cpl/Io/Tcp/Win32/AsyncConnector.h</text>
</a>
</g>
</g>
<!-- Node26&#45;&gt;Node27 -->
<g id="edge31_Node000026_Node000027" class="edge">
<title>Node26&#45;&gt;Node27</title>
<g id="a_edge31_Node000026_Node000027"><a xlink:title=" ">
<path fill="none" stroke="#63b8ff" d="M1807.89,-61.45C1806.2,-49.43 1804.08,-34.32 1802.75,-24.91"/>
<polygon fill="#63b8ff" stroke="#63b8ff" points="1804.43,-61.95 1809.29,-71.37 1811.36,-60.98 1804.43,-61.95"/>
</a>
</g>
</g>
<!-- Node29 -->
<g id="Node000029" class="node">
<title>Node29</title>
<g id="a_Node000029"><a xlink:href="_win32_2_async_listener_8h.html" target="_top" xlink:title=" ">
<polygon fill="white" stroke="#666666" points="2088.5,-24.5 1912.5,-24.5 1912.5,-5.5 2088.5,-5.5 2088.5,-24.5"/>
<text text-anchor="middle" x="2000.5" y="-12.5" font-family="Helvetica,sans-Serif" font-size="10.00">Cpl/Io/Tcp/Win32/AsyncListener.h</text>
</a>
</g>
</g>
<!-- Node28&#45;&gt;Node29 -->
<g id="edge33_Node000028_Node000029" class="edge">
<title>Node28&#45;&gt;Node29</title>
<g id="a_edge33_Node000028_Node000029"><a xlink:title=" ">
<path fill="none" stroke="#63b8ff" d="M1994.86,-61.08C1996.36,-49.13 1998.22,-34.22 1999.39,-24.91"/>
<polygon fill="#63b8ff" stroke="#63b8ff" points="1991.35,-61.01 1993.58,-71.37 1998.29,-61.88 1991.35,-61.01"/>
</a>
</g>
</g>
</g>
</svg>
