<?xml version="1.0" encoding="UTF-8" standalone="no"?>
<!DOCTYPE svg PUBLIC "-//W3C//DTD SVG 1.1//EN"
 "http://www.w3.org/Graphics/SVG/1.1/DTD/svg11.dtd">
<!-- Generated by graphviz version 2.43.0 (0)
 -->
<!-- Title: Cpl/Container/DictItem.h Pages: 1 -->
<svg width="1080pt" height="335pt"
 viewBox="0.00 0.00 1079.50 335.00" xmlns="http://www.w3.org/2000/svg" xmlns:xlink="http://www.w3.org/1999/xlink">
<g id="graph0" class="graph" transform="scale(1 1) rotate(0) translate(4 331)">
<title>Cpl/Container/DictItem.h</title>
<!-- Node1 -->
<g id="Node000001" class="node">
<title>Node1</title>
<g id="a_Node000001"><a xlink:title=" ">
<polygon fill="#999999" stroke="#666666" points="301.5,-327 164.5,-327 164.5,-308 301.5,-308 301.5,-327"/>
<text text-anchor="middle" x="233" y="-315" font-family="Helvetica,sans-Serif" font-size="10.00">Cpl/Container/DictItem.h</text>
</a>
</g>
</g>
<!-- Node2 -->
<g id="Node000002" class="node">
<title>Node2</title>
<g id="a_Node000002"><a xlink:href="_d_hash_table___8h.html" target="_top" xlink:title=" ">
<polygon fill="white" stroke="#666666" points="158,-217 0,-217 0,-198 158,-198 158,-217"/>
<text text-anchor="middle" x="79" y="-205" font-family="Helvetica,sans-Serif" font-size="10.00">Cpl/Container/DHashTable_.h</text>
</a>
</g>
</g>
<!-- Node1&#45;&gt;Node2 -->
<g id="edge1_Node000001_Node000002" class="edge">
<title>Node1&#45;&gt;Node2</title>
<g id="a_edge1_Node000001_Node000002"><a xlink:title=" ">
<path fill="none" stroke="#63b8ff" d="M157.51,-305.22C135.89,-298.68 113.89,-288.34 98,-272 83.24,-256.82 79.88,-230.66 79.16,-217.14"/>
<polygon fill="#63b8ff" stroke="#63b8ff" points="156.83,-308.67 167.4,-307.97 158.7,-301.92 156.83,-308.67"/>
</a>
</g>
</g>
<!-- Node4 -->
<g id="Node000004" class="node">
<title>Node4</title>
<g id="a_Node000004"><a xlink:href="_f_hash_table___8h.html" target="_top" xlink:title=" ">
<polygon fill="white" stroke="#666666" points="332,-217 176,-217 176,-198 332,-198 332,-217"/>
<text text-anchor="middle" x="254" y="-205" font-family="Helvetica,sans-Serif" font-size="10.00">Cpl/Container/FHashTable_.h</text>
</a>
</g>
</g>
<!-- Node1&#45;&gt;Node4 -->
<g id="edge3_Node000001_Node000004" class="edge">
<title>Node1&#45;&gt;Node4</title>
<g id="a_edge3_Node000001_Node000004"><a xlink:title=" ">
<path fill="none" stroke="#63b8ff" d="M248.92,-300.34C255.57,-292.47 262.54,-282.46 266,-272 272.26,-253.04 264.02,-229.74 258.41,-217.31"/>
<polygon fill="#63b8ff" stroke="#63b8ff" points="246.14,-298.2 242.02,-307.96 251.33,-302.9 246.14,-298.2"/>
</a>
</g>
</g>
<!-- Node6 -->
<g id="Node000006" class="node">
<title>Node6</title>
<g id="a_Node000006"><a xlink:href="_hash_table___8h.html" target="_top" xlink:title=" ">
<polygon fill="white" stroke="#666666" points="257,-272 107,-272 107,-253 257,-253 257,-272"/>
<text text-anchor="middle" x="182" y="-260" font-family="Helvetica,sans-Serif" font-size="10.00">Cpl/Container/HashTable_.h</text>
</a>
</g>
</g>
<!-- Node1&#45;&gt;Node6 -->
<g id="edge5_Node000001_Node000006" class="edge">
<title>Node1&#45;&gt;Node6</title>
<g id="a_edge5_Node000001_Node000006"><a xlink:title=" ">
<path fill="none" stroke="#63b8ff" d="M217.62,-300.52C208.63,-291.18 197.64,-279.75 190.26,-272.09"/>
<polygon fill="#63b8ff" stroke="#63b8ff" points="215.12,-302.97 224.58,-307.75 220.17,-298.12 215.12,-302.97"/>
</a>
</g>
</g>
<!-- Node7 -->
<g id="Node000007" class="node">
<title>Node7</title>
<g id="a_Node000007"><a xlink:href="_map_item_8h.html" target="_top" xlink:title=" ">
<polygon fill="white" stroke="#666666" points="579,-272 441,-272 441,-253 579,-253 579,-272"/>
<text text-anchor="middle" x="510" y="-260" font-family="Helvetica,sans-Serif" font-size="10.00">Cpl/Container/MapItem.h</text>
</a>
</g>
</g>
<!-- Node1&#45;&gt;Node7 -->
<g id="edge8_Node000001_Node000007" class="edge">
<title>Node1&#45;&gt;Node7</title>
<g id="a_edge8_Node000001_Node000007"><a xlink:title=" ">
<path fill="none" stroke="#63b8ff" d="M287.54,-306.07C339.47,-296.13 416.69,-281.35 465.15,-272.08"/>
<polygon fill="#63b8ff" stroke="#63b8ff" points="286.67,-302.67 277.5,-307.98 287.98,-309.54 286.67,-302.67"/>
</a>
</g>
</g>
<!-- Node3 -->
<g id="Node000003" class="node">
<title>Node3</title>
<g id="a_Node000003"><a xlink:href="_dictionary_8h.html" target="_top" xlink:title=" ">
<polygon fill="white" stroke="#666666" points="150.5,-156.5 7.5,-156.5 7.5,-137.5 150.5,-137.5 150.5,-156.5"/>
<text text-anchor="middle" x="79" y="-144.5" font-family="Helvetica,sans-Serif" font-size="10.00">Cpl/Container/Dictionary.h</text>
</a>
</g>
</g>
<!-- Node2&#45;&gt;Node3 -->
<g id="edge2_Node000002_Node000003" class="edge">
<title>Node2&#45;&gt;Node3</title>
<g id="a_edge2_Node000002_Node000003"><a xlink:title=" ">
<path fill="none" stroke="#63b8ff" d="M79,-187.66C79,-177.24 79,-164.8 79,-156.67"/>
<polygon fill="#63b8ff" stroke="#63b8ff" points="75.5,-187.87 79,-197.87 82.5,-187.87 75.5,-187.87"/>
</a>
</g>
</g>
<!-- Node5 -->
<g id="Node000005" class="node">
<title>Node5</title>
<g id="a_Node000005"><a xlink:href="_f_dictionary_8h.html" target="_top" xlink:title=" ">
<polygon fill="white" stroke="#666666" points="322.5,-156.5 173.5,-156.5 173.5,-137.5 322.5,-137.5 322.5,-156.5"/>
<text text-anchor="middle" x="248" y="-144.5" font-family="Helvetica,sans-Serif" font-size="10.00">Cpl/Container/FDictionary.h</text>
</a>
</g>
</g>
<!-- Node4&#45;&gt;Node5 -->
<g id="edge4_Node000004_Node000005" class="edge">
<title>Node4&#45;&gt;Node5</title>
<g id="a_edge4_Node000004_Node000005"><a xlink:title=" ">
<path fill="none" stroke="#63b8ff" d="M252.07,-187.66C251,-177.24 249.72,-164.8 248.89,-156.67"/>
<polygon fill="#63b8ff" stroke="#63b8ff" points="248.61,-188.28 253.11,-197.87 255.58,-187.56 248.61,-188.28"/>
</a>
</g>
</g>
<!-- Node6&#45;&gt;Node2 -->
<g id="edge6_Node000006_Node000002" class="edge">
<title>Node6&#45;&gt;Node2</title>
<g id="a_edge6_Node000006_Node000002"><a xlink:title=" ">
<path fill="none" stroke="#63b8ff" d="M156.48,-248.37C137.56,-238.63 112.3,-225.64 95.85,-217.17"/>
<polygon fill="#63b8ff" stroke="#63b8ff" points="154.96,-251.52 165.45,-252.98 158.16,-245.3 154.96,-251.52"/>
</a>
</g>
</g>
<!-- Node6&#45;&gt;Node4 -->
<g id="edge7_Node000006_Node000004" class="edge">
<title>Node6&#45;&gt;Node4</title>
<g id="a_edge7_Node000006_Node000004"><a xlink:title=" ">
<path fill="none" stroke="#63b8ff" d="M201.87,-246.88C214.82,-237.34 231.3,-225.21 242.22,-217.17"/>
<polygon fill="#63b8ff" stroke="#63b8ff" points="199.55,-244.24 193.57,-252.98 203.7,-249.88 199.55,-244.24"/>
</a>
</g>
</g>
<!-- Node8 -->
<g id="Node000008" class="node">
<title>Node8</title>
<g id="a_Node000008"><a xlink:href="_avl_tree___8h.html" target="_top" xlink:title=" ">
<polygon fill="white" stroke="#666666" points="628.5,-217 493.5,-217 493.5,-198 628.5,-198 628.5,-217"/>
<text text-anchor="middle" x="561" y="-205" font-family="Helvetica,sans-Serif" font-size="10.00">Cpl/Container/AvlTree_.h</text>
</a>
</g>
</g>
<!-- Node7&#45;&gt;Node8 -->
<g id="edge9_Node000007_Node000008" class="edge">
<title>Node7&#45;&gt;Node8</title>
<g id="a_edge9_Node000007_Node000008"><a xlink:title=" ">
<path fill="none" stroke="#63b8ff" d="M525.38,-245.52C534.37,-236.18 545.36,-224.75 552.74,-217.09"/>
<polygon fill="#63b8ff" stroke="#63b8ff" points="522.83,-243.12 518.42,-252.75 527.88,-247.97 522.83,-243.12"/>
</a>
</g>
</g>
<!-- Node15 -->
<g id="Node000015" class="node">
<title>Node15</title>
<g id="a_Node000015"><a xlink:href="_string_item_8h.html" target="_top" xlink:title=" ">
<polygon fill="white" stroke="#666666" points="792.5,-217 673.5,-217 673.5,-198 792.5,-198 792.5,-217"/>
<text text-anchor="middle" x="733" y="-205" font-family="Helvetica,sans-Serif" font-size="10.00">Cpl/Text/StringItem.h</text>
</a>
</g>
</g>
<!-- Node7&#45;&gt;Node15 -->
<g id="edge16_Node000007_Node000015" class="edge">
<title>Node7&#45;&gt;Node15</title>
<g id="a_edge16_Node000007_Node000015"><a xlink:title=" ">
<path fill="none" stroke="#63b8ff" d="M555.75,-250.63C597.52,-240.7 658.45,-226.22 696.89,-217.08"/>
<polygon fill="#63b8ff" stroke="#63b8ff" points="554.75,-247.27 545.83,-252.98 556.37,-254.08 554.75,-247.27"/>
</a>
</g>
</g>
<!-- Node19 -->
<g id="Node000019" class="node">
<title>Node19</title>
<g id="a_Node000019"><a xlink:href="_rx_frame_handler_api_8h.html" target="_top" xlink:title=" ">
<polygon fill="white" stroke="#666666" points="501.5,-162 340.5,-162 340.5,-132 501.5,-132 501.5,-162"/>
<text text-anchor="start" x="348.5" y="-150" font-family="Helvetica,sans-Serif" font-size="10.00">Driver/TPipe/RxFrameHandler</text>
<text text-anchor="middle" x="421" y="-139" font-family="Helvetica,sans-Serif" font-size="10.00">Api.h</text>
</a>
</g>
</g>
<!-- Node7&#45;&gt;Node19 -->
<g id="edge20_Node000007_Node000019" class="edge">
<title>Node7&#45;&gt;Node19</title>
<g id="a_edge20_Node000007_Node000019"><a xlink:title=" ">
<path fill="none" stroke="#63b8ff" d="M497.12,-245.08C479.63,-222.77 448.65,-183.26 432.12,-162.18"/>
<polygon fill="#63b8ff" stroke="#63b8ff" points="494.39,-247.26 503.31,-252.97 499.89,-242.94 494.39,-247.26"/>
</a>
</g>
</g>
<!-- Node9 -->
<g id="Node000009" class="node">
<title>Node9</title>
<g id="a_Node000009"><a xlink:href="_map_8h.html" target="_top" xlink:title=" ">
<polygon fill="white" stroke="#666666" points="636,-156.5 520,-156.5 520,-137.5 636,-137.5 636,-156.5"/>
<text text-anchor="middle" x="578" y="-144.5" font-family="Helvetica,sans-Serif" font-size="10.00">Cpl/Container/Map.h</text>
</a>
</g>
</g>
<!-- Node8&#45;&gt;Node9 -->
<g id="edge10_Node000008_Node000009" class="edge">
<title>Node8&#45;&gt;Node9</title>
<g id="a_edge10_Node000008_Node000009"><a xlink:title=" ">
<path fill="none" stroke="#63b8ff" d="M566.38,-187.99C569.42,-177.51 573.09,-164.89 575.48,-156.67"/>
<polygon fill="#63b8ff" stroke="#63b8ff" points="562.94,-187.29 563.51,-197.87 569.66,-189.24 562.94,-187.29"/>
</a>
</g>
</g>
<!-- Node10 -->
<g id="Node000010" class="node">
<title>Node10</title>
<g id="a_Node000010"><a xlink:href="_t_pipe_2_hal_8h.html" target="_top" xlink:title="This file defines the concrete implementation for the Button HAL that gets its raw inputs via a Drive...">
<polygon fill="white" stroke="#666666" points="413,-96 301,-96 301,-66 413,-66 413,-96"/>
<text text-anchor="start" x="309" y="-84" font-family="Helvetica,sans-Serif" font-size="10.00">Driver/Button/TPipe</text>
<text text-anchor="middle" x="357" y="-73" font-family="Helvetica,sans-Serif" font-size="10.00">/Hal.h</text>
</a>
</g>
</g>
<!-- Node9&#45;&gt;Node10 -->
<g id="edge11_Node000009_Node000010" class="edge">
<title>Node9&#45;&gt;Node10</title>
<g id="a_edge11_Node000009_Node000010"><a xlink:title=" ">
<path fill="none" stroke="#63b8ff" d="M538.23,-134.48C501.09,-123.73 445.54,-107.64 405.74,-96.12"/>
<polygon fill="#63b8ff" stroke="#63b8ff" points="537.62,-137.95 548.19,-137.37 539.56,-131.23 537.62,-137.95"/>
</a>
</g>
</g>
<!-- Node11 -->
<g id="Node000011" class="node">
<title>Node11</title>
<g id="a_Node000011"><a xlink:href="_pipe_8h.html" target="_top" xlink:title=" ">
<polygon fill="white" stroke="#666666" points="541,-90.5 431,-90.5 431,-71.5 541,-71.5 541,-90.5"/>
<text text-anchor="middle" x="486" y="-78.5" font-family="Helvetica,sans-Serif" font-size="10.00">Driver/TPipe/Pipe.h</text>
</a>
</g>
</g>
<!-- Node9&#45;&gt;Node11 -->
<g id="edge12_Node000009_Node000011" class="edge">
<title>Node9&#45;&gt;Node11</title>
<g id="a_edge12_Node000009_Node000011"><a xlink:title=" ">
<path fill="none" stroke="#63b8ff" d="M556.92,-131.33C538.87,-118.78 513.5,-101.13 498.5,-90.7"/>
<polygon fill="#63b8ff" stroke="#63b8ff" points="555.38,-134.53 565.59,-137.37 559.38,-128.78 555.38,-134.53"/>
</a>
</g>
</g>
<!-- Node14 -->
<g id="Node000014" class="node">
<title>Node14</title>
<g id="a_Node000014"><a xlink:href="_rx_frame_handler_8h.html" target="_top" xlink:title=" ">
<polygon fill="white" stroke="#666666" points="729,-90.5 559,-90.5 559,-71.5 729,-71.5 729,-90.5"/>
<text text-anchor="middle" x="644" y="-78.5" font-family="Helvetica,sans-Serif" font-size="10.00">Driver/TPipe/RxFrameHandler.h</text>
</a>
</g>
</g>
<!-- Node9&#45;&gt;Node14 -->
<g id="edge15_Node000009_Node000014" class="edge">
<title>Node9&#45;&gt;Node14</title>
<g id="a_edge15_Node000009_Node000014"><a xlink:title=" ">
<path fill="none" stroke="#63b8ff" d="M594.16,-130.33C606.94,-117.94 624.32,-101.09 634.82,-90.91"/>
<polygon fill="#63b8ff" stroke="#63b8ff" points="591.64,-127.89 586.9,-137.37 596.52,-132.92 591.64,-127.89"/>
</a>
</g>
</g>
<!-- Node12 -->
<g id="Node000012" class="node">
<title>Node12</title>
<g id="a_Node000012"><a xlink:href="_driver_2_pico_display_2_t_pipe_2_api_8h.html" target="_top" xlink:title="This file defines the interface for initializing the concrete implementation of the PicoDisplay drive...">
<polygon fill="white" stroke="#666666" points="473.5,-30 366.5,-30 366.5,0 473.5,0 473.5,-30"/>
<text text-anchor="start" x="374.5" y="-18" font-family="Helvetica,sans-Serif" font-size="10.00">Driver/PicoDisplay</text>
<text text-anchor="middle" x="420" y="-7" font-family="Helvetica,sans-Serif" font-size="10.00">/TPipe/Api.h</text>
</a>
</g>
</g>
<!-- Node11&#45;&gt;Node12 -->
<g id="edge13_Node000011_Node000012" class="edge">
<title>Node11&#45;&gt;Node12</title>
<g id="a_edge13_Node000011_Node000012"><a xlink:title=" ">
<path fill="none" stroke="#63b8ff" d="M469.61,-64.1C458.85,-53.68 444.92,-40.16 434.56,-30.12"/>
<polygon fill="#63b8ff" stroke="#63b8ff" points="467.48,-66.92 477.1,-71.37 472.36,-61.89 467.48,-66.92"/>
</a>
</g>
</g>
<!-- Node13 -->
<g id="Node000013" class="node">
<title>Node13</title>
<g id="a_Node000013"><a xlink:href="_driver_2_t_pipe_2_maker_8h.html" target="_top" xlink:title=" ">
<polygon fill="white" stroke="#666666" points="610,-24.5 492,-24.5 492,-5.5 610,-5.5 610,-24.5"/>
<text text-anchor="middle" x="551" y="-12.5" font-family="Helvetica,sans-Serif" font-size="10.00">Driver/TPipe/Maker.h</text>
</a>
</g>
</g>
<!-- Node11&#45;&gt;Node13 -->
<g id="edge14_Node000011_Node000013" class="edge">
<title>Node11&#45;&gt;Node13</title>
<g id="a_edge14_Node000011_Node000013"><a xlink:title=" ">
<path fill="none" stroke="#63b8ff" d="M501.92,-64.33C514.5,-51.94 531.62,-35.09 541.96,-24.91"/>
<polygon fill="#63b8ff" stroke="#63b8ff" points="499.44,-61.86 494.77,-71.37 504.35,-66.85 499.44,-61.86"/>
</a>
</g>
</g>
<!-- Node16 -->
<g id="Node000016" class="node">
<title>Node16</title>
<g id="a_Node000016"><a xlink:href="_d_f_string_item_8h.html" target="_top" xlink:title=" ">
<polygon fill="white" stroke="#666666" points="1071.5,-156.5 940.5,-156.5 940.5,-137.5 1071.5,-137.5 1071.5,-156.5"/>
<text text-anchor="middle" x="1006" y="-144.5" font-family="Helvetica,sans-Serif" font-size="10.00">Cpl/Text/DFStringItem.h</text>
</a>
</g>
</g>
<!-- Node15&#45;&gt;Node16 -->
<g id="edge17_Node000015_Node000016" class="edge">
<title>Node15&#45;&gt;Node16</title>
<g id="a_edge17_Node000015_Node000016"><a xlink:title=" ">
<path fill="none" stroke="#63b8ff" d="M782.5,-195.89C835.22,-184.6 917.61,-166.94 966.26,-156.52"/>
<polygon fill="#63b8ff" stroke="#63b8ff" points="781.74,-192.48 772.7,-197.99 783.21,-199.32 781.74,-192.48"/>
</a>
</g>
</g>
<!-- Node17 -->
<g id="Node000017" class="node">
<title>Node17</title>
<g id="a_Node000017"><a xlink:href="_d_string_item_8h.html" target="_top" xlink:title=" ">
<polygon fill="white" stroke="#666666" points="780,-156.5 654,-156.5 654,-137.5 780,-137.5 780,-156.5"/>
<text text-anchor="middle" x="717" y="-144.5" font-family="Helvetica,sans-Serif" font-size="10.00">Cpl/Text/DStringItem.h</text>
</a>
</g>
</g>
<!-- Node15&#45;&gt;Node17 -->
<g id="edge18_Node000015_Node000017" class="edge">
<title>Node15&#45;&gt;Node17</title>
<g id="a_edge18_Node000015_Node000017"><a xlink:title=" ">
<path fill="none" stroke="#63b8ff" d="M727.94,-187.99C725.07,-177.51 721.62,-164.89 719.37,-156.67"/>
<polygon fill="#63b8ff" stroke="#63b8ff" points="724.62,-189.15 730.64,-197.87 731.38,-187.3 724.62,-189.15"/>
</a>
</g>
</g>
<!-- Node18 -->
<g id="Node000018" class="node">
<title>Node18</title>
<g id="a_Node000018"><a xlink:href="_f_string_item_8h.html" target="_top" xlink:title=" ">
<polygon fill="white" stroke="#666666" points="922,-156.5 798,-156.5 798,-137.5 922,-137.5 922,-156.5"/>
<text text-anchor="middle" x="860" y="-144.5" font-family="Helvetica,sans-Serif" font-size="10.00">Cpl/Text/FStringItem.h</text>
</a>
</g>
</g>
<!-- Node15&#45;&gt;Node18 -->
<g id="edge19_Node000015_Node000018" class="edge">
<title>Node15&#45;&gt;Node18</title>
<g id="a_edge19_Node000015_Node000018"><a xlink:title=" ">
<path fill="none" stroke="#63b8ff" d="M760.61,-193.78C785.12,-182.49 820.24,-166.31 841.51,-156.52"/>
<polygon fill="#63b8ff" stroke="#63b8ff" points="759.09,-190.63 751.47,-197.99 762.01,-196.99 759.09,-190.63"/>
</a>
</g>
</g>
<!-- Node19&#45;&gt;Node10 -->
<g id="edge21_Node000019_Node000010" class="edge">
<title>Node19&#45;&gt;Node10</title>
<g id="a_edge21_Node000019_Node000010"><a xlink:title=" ">
<path fill="none" stroke="#63b8ff" d="M399.65,-124.65C390.27,-115.27 379.53,-104.53 371.16,-96.16"/>
<polygon fill="#63b8ff" stroke="#63b8ff" points="397.25,-127.2 406.8,-131.8 402.2,-122.25 397.25,-127.2"/>
</a>
</g>
</g>
<!-- Node19&#45;&gt;Node11 -->
<g id="edge22_Node000019_Node000011" class="edge">
<title>Node19&#45;&gt;Node11</title>
<g id="a_edge22_Node000019_Node000011"><a xlink:title=" ">
<path fill="none" stroke="#63b8ff" d="M442.73,-124.6C454.42,-113.1 468.2,-99.52 477.02,-90.84"/>
<polygon fill="#63b8ff" stroke="#63b8ff" points="440.1,-122.29 435.43,-131.8 445.01,-127.27 440.1,-122.29"/>
</a>
</g>
</g>
<!-- Node19&#45;&gt;Node14 -->
<g id="edge23_Node000019_Node000014" class="edge">
<title>Node19&#45;&gt;Node14</title>
<g id="a_edge23_Node000019_Node000014"><a xlink:title=" ">
<path fill="none" stroke="#63b8ff" d="M479.79,-129.13C523.07,-116.71 580.12,-100.33 614.32,-90.52"/>
<polygon fill="#63b8ff" stroke="#63b8ff" points="478.58,-125.83 469.94,-131.95 480.52,-132.56 478.58,-125.83"/>
</a>
</g>
</g>
</g>
</svg>
