<?xml version="1.0" encoding="UTF-8" standalone="no"?>
<!DOCTYPE svg PUBLIC "-//W3C//DTD SVG 1.1//EN"
 "http://www.w3.org/Graphics/SVG/1.1/DTD/svg11.dtd">
<!-- Generated by graphviz version 2.43.0 (0)
 -->
<!-- Title: Driver/NV/Api.h Pages: 1 -->
<svg width="842pt" height="93pt"
 viewBox="0.00 0.00 841.50 93.00" xmlns="http://www.w3.org/2000/svg" xmlns:xlink="http://www.w3.org/1999/xlink">
<g id="graph0" class="graph" transform="scale(1 1) rotate(0) translate(4 89)">
<title>Driver/NV/Api.h</title>
<!-- Node1 -->
<g id="Node000001" class="node">
<title>Node1</title>
<g id="a_Node000001"><a xlink:title=" ">
<polygon fill="#999999" stroke="#666666" points="440.5,-85 348.5,-85 348.5,-66 440.5,-66 440.5,-85"/>
<text text-anchor="middle" x="394.5" y="-73" font-family="Helvetica,sans-Serif" font-size="10.00">Driver/NV/Api.h</text>
</a>
</g>
</g>
<!-- Node2 -->
<g id="Node000002" class="node">
<title>Node2</title>
<g id="a_Node000002"><a xlink:href="_n_v_adapter_8h.html" target="_top" xlink:title=" ">
<polygon fill="white" stroke="#666666" points="147,-24.5 0,-24.5 0,-5.5 147,-5.5 147,-24.5"/>
<text text-anchor="middle" x="73.5" y="-12.5" font-family="Helvetica,sans-Serif" font-size="10.00">Cpl/Persistent/NVAdapter.h</text>
</a>
</g>
</g>
<!-- Node1&#45;&gt;Node2 -->
<g id="edge1_Node000001_Node000002" class="edge">
<title>Node1&#45;&gt;Node2</title>
<g id="a_edge1_Node000001_Node000002"><a xlink:title=" ">
<path fill="none" stroke="#63b8ff" d="M338.19,-64.24C276.34,-52.97 178.14,-35.07 120.34,-24.54"/>
<polygon fill="#63b8ff" stroke="#63b8ff" points="337.7,-67.71 348.17,-66.06 338.96,-60.82 337.7,-67.71"/>
</a>
</g>
</g>
<!-- Node3 -->
<g id="Node000003" class="node">
<title>Node3</title>
<g id="a_Node000003"><a xlink:href="_driver_2_n_v_2_file_2_cpl_2_api_8h.html" target="_top" xlink:title=" ">
<polygon fill="white" stroke="#666666" points="268,-30 165,-30 165,0 268,0 268,-30"/>
<text text-anchor="start" x="173" y="-18" font-family="Helvetica,sans-Serif" font-size="10.00">Driver/NV/File/Cpl</text>
<text text-anchor="middle" x="216.5" y="-7" font-family="Helvetica,sans-Serif" font-size="10.00">/Api.h</text>
</a>
</g>
</g>
<!-- Node1&#45;&gt;Node3 -->
<g id="edge2_Node000001_Node000003" class="edge">
<title>Node1&#45;&gt;Node3</title>
<g id="a_edge2_Node000001_Node000003"><a xlink:title=" ">
<path fill="none" stroke="#63b8ff" d="M358.99,-62.83C330.29,-53.4 289.79,-40.09 259.29,-30.06"/>
<polygon fill="#63b8ff" stroke="#63b8ff" points="358.02,-66.2 368.62,-65.99 360.21,-59.55 358.02,-66.2"/>
</a>
</g>
</g>
<!-- Node4 -->
<g id="Node000004" class="node">
<title>Node4</title>
<g id="a_Node000004"><a xlink:href="_gang_8h.html" target="_top" xlink:title=" ">
<polygon fill="white" stroke="#666666" points="387,-24.5 286,-24.5 286,-5.5 387,-5.5 387,-24.5"/>
<text text-anchor="middle" x="336.5" y="-12.5" font-family="Helvetica,sans-Serif" font-size="10.00">Driver/NV/Gang.h</text>
</a>
</g>
</g>
<!-- Node1&#45;&gt;Node4 -->
<g id="edge3_Node000001_Node000004" class="edge">
<title>Node1&#45;&gt;Node4</title>
<g id="a_edge3_Node000001_Node000004"><a xlink:title=" ">
<path fill="none" stroke="#63b8ff" d="M378.73,-58.59C367.9,-47.67 353.93,-33.58 345.09,-24.67"/>
<polygon fill="#63b8ff" stroke="#63b8ff" points="376.42,-61.23 385.94,-65.87 381.39,-56.3 376.42,-61.23"/>
</a>
</g>
</g>
<!-- Node5 -->
<g id="Node000005" class="node">
<title>Node5</title>
<g id="a_Node000005"><a xlink:href="_driver_2_n_v_2_null_8h.html" target="_top" xlink:title=" ">
<polygon fill="white" stroke="#666666" points="500,-24.5 405,-24.5 405,-5.5 500,-5.5 500,-24.5"/>
<text text-anchor="middle" x="452.5" y="-12.5" font-family="Helvetica,sans-Serif" font-size="10.00">Driver/NV/Null.h</text>
</a>
</g>
</g>
<!-- Node1&#45;&gt;Node5 -->
<g id="edge4_Node000001_Node000005" class="edge">
<title>Node1&#45;&gt;Node5</title>
<g id="a_edge4_Node000001_Node000005"><a xlink:title=" ">
<path fill="none" stroke="#63b8ff" d="M410.27,-58.59C421.1,-47.67 435.07,-33.58 443.91,-24.67"/>
<polygon fill="#63b8ff" stroke="#63b8ff" points="407.61,-56.3 403.06,-65.87 412.58,-61.23 407.61,-56.3"/>
</a>
</g>
</g>
<!-- Node6 -->
<g id="Node000006" class="node">
<title>Node6</title>
<g id="a_Node000006"><a xlink:href="_driver_2_n_v_2_onsemi_2_c_a_t24_c512_2_api_8h.html" target="_top" xlink:title=" ">
<polygon fill="white" stroke="#666666" points="681,-30 518,-30 518,0 681,0 681,-30"/>
<text text-anchor="start" x="526" y="-18" font-family="Helvetica,sans-Serif" font-size="10.00">Driver/NV/Onsemi/CAT24C512</text>
<text text-anchor="middle" x="599.5" y="-7" font-family="Helvetica,sans-Serif" font-size="10.00">/Api.h</text>
</a>
</g>
</g>
<!-- Node1&#45;&gt;Node6 -->
<g id="edge5_Node000001_Node000006" class="edge">
<title>Node1&#45;&gt;Node6</title>
<g id="a_edge5_Node000001_Node000006"><a xlink:title=" ">
<path fill="none" stroke="#63b8ff" d="M434.1,-63.2C467.23,-53.75 514.64,-40.22 550.22,-30.06"/>
<polygon fill="#63b8ff" stroke="#63b8ff" points="432.96,-59.88 424.31,-65.99 434.89,-66.62 432.96,-59.88"/>
</a>
</g>
</g>
<!-- Node7 -->
<g id="Node000007" class="node">
<title>Node7</title>
<g id="a_Node000007"><a xlink:href="_driver_2_n_v_2__tshell_2_cmd_8h.html" target="_top" xlink:title=" ">
<polygon fill="white" stroke="#666666" points="833.5,-24.5 699.5,-24.5 699.5,-5.5 833.5,-5.5 833.5,-24.5"/>
<text text-anchor="middle" x="766.5" y="-12.5" font-family="Helvetica,sans-Serif" font-size="10.00">Driver/NV/_tshell/Cmd.h</text>
</a>
</g>
</g>
<!-- Node1&#45;&gt;Node7 -->
<g id="edge6_Node000001_Node000007" class="edge">
<title>Node1&#45;&gt;Node7</title>
<g id="a_edge6_Node000001_Node000007"><a xlink:title=" ">
<path fill="none" stroke="#63b8ff" d="M450.68,-66.62C510.28,-58.12 607.16,-43.94 690.5,-30 700.56,-28.32 711.34,-26.4 721.53,-24.54"/>
<polygon fill="#63b8ff" stroke="#63b8ff" points="450.13,-63.16 440.72,-68.03 451.11,-70.09 450.13,-63.16"/>
</a>
</g>
</g>
</g>
</svg>
