<?xml version="1.0" encoding="UTF-8" standalone="no"?>
<!DOCTYPE svg PUBLIC "-//W3C//DTD SVG 1.1//EN"
 "http://www.w3.org/Graphics/SVG/1.1/DTD/svg11.dtd">
<!-- Generated by graphviz version 2.43.0 (0)
 -->
<!-- Title: Driver/NV/_tshell/Cmd.h Pages: 1 -->
<svg width="970pt" height="467pt"
 viewBox="0.00 0.00 970.00 467.00" xmlns="http://www.w3.org/2000/svg" xmlns:xlink="http://www.w3.org/1999/xlink">
<g id="graph0" class="graph" transform="scale(1 1) rotate(0) translate(4 463)">
<title>Driver/NV/_tshell/Cmd.h</title>
<!-- Node1 -->
<g id="Node000001" class="node">
<title>Node1</title>
<g id="a_Node000001"><a xlink:title=" ">
<polygon fill="#999999" stroke="#666666" points="909,-459 775,-459 775,-440 909,-440 909,-459"/>
<text text-anchor="middle" x="842" y="-447" font-family="Helvetica,sans-Serif" font-size="10.00">Driver/NV/_tshell/Cmd.h</text>
</a>
</g>
</g>
<!-- Node2 -->
<g id="Node000002" class="node">
<title>Node2</title>
<g id="a_Node000002"><a xlink:title=" ">
<polygon fill="#e0e0e0" stroke="#999999" points="204,-19 112,-19 112,0 204,0 204,-19"/>
<text text-anchor="middle" x="158" y="-7" font-family="Helvetica,sans-Serif" font-size="10.00">colony_config.h</text>
</a>
</g>
</g>
<!-- Node1&#45;&gt;Node2 -->
<g id="edge1_Node000001_Node000002" class="edge">
<title>Node1&#45;&gt;Node2</title>
<g id="a_edge1_Node000001_Node000002"><a xlink:title=" ">
<path fill="none" stroke="#63b8ff" d="M842,-439.82C842,-421.48 842,-377.44 842,-340.5 842,-340.5 842,-340.5 842,-118.5 842,-55.16 378.44,-22.91 214.56,-13.49"/>
<polygon fill="#63b8ff" stroke="#63b8ff" points="214.39,-9.98 204.21,-12.91 213.99,-16.97 214.39,-9.98"/>
</a>
</g>
</g>
<!-- Node3 -->
<g id="Node000003" class="node">
<title>Node3</title>
<g id="a_Node000003"><a xlink:href="_cmd_2_command_8h.html" target="_top" xlink:title=" ">
<polygon fill="white" stroke="#666666" points="697.5,-404 544.5,-404 544.5,-385 697.5,-385 697.5,-404"/>
<text text-anchor="middle" x="621" y="-392" font-family="Helvetica,sans-Serif" font-size="10.00">Cpl/TShell/Cmd/Command.h</text>
</a>
</g>
</g>
<!-- Node1&#45;&gt;Node3 -->
<g id="edge2_Node000001_Node000003" class="edge">
<title>Node1&#45;&gt;Node3</title>
<g id="a_edge2_Node000001_Node000003"><a xlink:title=" ">
<path fill="none" stroke="#63b8ff" d="M806.49,-439.98C768.51,-430.87 708.13,-416.4 666.64,-406.45"/>
<polygon fill="#63b8ff" stroke="#63b8ff" points="667.33,-403.01 656.79,-404.08 665.69,-409.82 667.33,-403.01"/>
</a>
</g>
</g>
<!-- Node23 -->
<g id="Node000023" class="node">
<title>Node23</title>
<g id="a_Node000023"><a xlink:href="_driver_2_n_v_2_api_8h.html" target="_top" xlink:title=" ">
<polygon fill="white" stroke="#666666" points="962,-404 870,-404 870,-385 962,-385 962,-404"/>
<text text-anchor="middle" x="916" y="-392" font-family="Helvetica,sans-Serif" font-size="10.00">Driver/NV/Api.h</text>
</a>
</g>
</g>
<!-- Node1&#45;&gt;Node23 -->
<g id="edge34_Node000001_Node000023" class="edge">
<title>Node1&#45;&gt;Node23</title>
<g id="a_edge34_Node000001_Node000023"><a xlink:title=" ">
<path fill="none" stroke="#63b8ff" d="M853.89,-439.98C865.15,-431.92 882.29,-419.65 895.71,-410.03"/>
<polygon fill="#63b8ff" stroke="#63b8ff" points="897.8,-412.84 903.89,-404.17 893.73,-407.15 897.8,-412.84"/>
</a>
</g>
</g>
<!-- Node3&#45;&gt;Node2 -->
<g id="edge3_Node000003_Node000002" class="edge">
<title>Node3&#45;&gt;Node2</title>
<g id="a_edge3_Node000003_Node000002"><a xlink:title=" ">
<path fill="none" stroke="#63b8ff" d="M544.29,-391.29C412.7,-385.39 158,-363.86 158,-285.5 158,-285.5 158,-285.5 158,-118.5 158,-87.19 158,-50.77 158,-29.23"/>
<polygon fill="#63b8ff" stroke="#63b8ff" points="161.5,-29.18 158,-19.18 154.5,-29.18 161.5,-29.18"/>
</a>
</g>
</g>
<!-- Node4 -->
<g id="Node000004" class="node">
<title>Node4</title>
<g id="a_Node000004"><a xlink:href="_command_8h.html" target="_top" xlink:title=" ">
<polygon fill="white" stroke="#666666" points="640,-294 512,-294 512,-275 640,-275 640,-294"/>
<text text-anchor="middle" x="576" y="-282" font-family="Helvetica,sans-Serif" font-size="10.00">Cpl/TShell/Command.h</text>
</a>
</g>
</g>
<!-- Node3&#45;&gt;Node4 -->
<g id="edge4_Node000003_Node000004" class="edge">
<title>Node3&#45;&gt;Node4</title>
<g id="a_edge4_Node000003_Node000004"><a xlink:title=" ">
<path fill="none" stroke="#63b8ff" d="M615.18,-384.96C609.43,-376.23 600.7,-362.13 595,-349 588.69,-334.47 583.67,-317.2 580.38,-304.34"/>
<polygon fill="#63b8ff" stroke="#63b8ff" points="583.71,-303.25 577.94,-294.36 576.91,-304.91 583.71,-303.25"/>
</a>
</g>
</g>
<!-- Node19 -->
<g id="Node000019" class="node">
<title>Node19</title>
<g id="a_Node000019"><a xlink:href="_context___8h.html" target="_top" xlink:title=" ">
<polygon fill="white" stroke="#666666" points="725.5,-349 604.5,-349 604.5,-330 725.5,-330 725.5,-349"/>
<text text-anchor="middle" x="665" y="-337" font-family="Helvetica,sans-Serif" font-size="10.00">Cpl/TShell/Context_.h</text>
</a>
</g>
</g>
<!-- Node3&#45;&gt;Node19 -->
<g id="edge23_Node000003_Node000019" class="edge">
<title>Node3&#45;&gt;Node19</title>
<g id="a_edge23_Node000003_Node000019"><a xlink:title=" ">
<path fill="none" stroke="#63b8ff" d="M628.27,-384.75C634.54,-377.18 643.79,-366.05 651.43,-356.84"/>
<polygon fill="#63b8ff" stroke="#63b8ff" points="654.17,-359.02 657.87,-349.09 648.79,-354.55 654.17,-359.02"/>
</a>
</g>
</g>
<!-- Node5 -->
<g id="Node000005" class="node">
<title>Node5</title>
<g id="a_Node000005"><a xlink:href="_item_8h.html" target="_top" xlink:title=" ">
<polygon fill="white" stroke="#666666" points="658.5,-129 541.5,-129 541.5,-110 658.5,-110 658.5,-129"/>
<text text-anchor="middle" x="600" y="-117" font-family="Helvetica,sans-Serif" font-size="10.00">Cpl/Container/Item.h</text>
</a>
</g>
</g>
<!-- Node4&#45;&gt;Node5 -->
<g id="edge5_Node000004_Node000005" class="edge">
<title>Node4&#45;&gt;Node5</title>
<g id="a_edge5_Node000004_Node000005"><a xlink:title=" ">
<path fill="none" stroke="#63b8ff" d="M577.29,-274.74C581.05,-249.2 592.06,-174.43 597.24,-139.23"/>
<polygon fill="#63b8ff" stroke="#63b8ff" points="600.71,-139.71 598.7,-129.31 593.78,-138.69 600.71,-139.71"/>
</a>
</g>
</g>
<!-- Node6 -->
<g id="Node000006" class="node">
<title>Node6</title>
<g id="a_Node000006"><a xlink:href="_output_8h.html" target="_top" xlink:title=" ">
<polygon fill="white" stroke="#666666" points="521.5,-239 432.5,-239 432.5,-220 521.5,-220 521.5,-239"/>
<text text-anchor="middle" x="477" y="-227" font-family="Helvetica,sans-Serif" font-size="10.00">Cpl/Io/Output.h</text>
</a>
</g>
</g>
<!-- Node4&#45;&gt;Node6 -->
<g id="edge6_Node000004_Node000006" class="edge">
<title>Node4&#45;&gt;Node6</title>
<g id="a_edge6_Node000004_Node000006"><a xlink:title=" ">
<path fill="none" stroke="#63b8ff" d="M560.09,-274.98C544.45,-266.61 520.34,-253.7 502.12,-243.95"/>
<polygon fill="#63b8ff" stroke="#63b8ff" points="503.66,-240.8 493.2,-239.17 500.36,-246.98 503.66,-240.8"/>
</a>
</g>
</g>
<!-- Node18 -->
<g id="Node000018" class="node">
<title>Node18</title>
<g id="a_Node000018"><a xlink:href="_security_8h.html" target="_top" xlink:title=" ">
<polygon fill="white" stroke="#666666" points="727,-239 611,-239 611,-220 727,-220 727,-239"/>
<text text-anchor="middle" x="669" y="-227" font-family="Helvetica,sans-Serif" font-size="10.00">Cpl/TShell/Security.h</text>
</a>
</g>
</g>
<!-- Node4&#45;&gt;Node18 -->
<g id="edge22_Node000004_Node000018" class="edge">
<title>Node4&#45;&gt;Node18</title>
<g id="a_edge22_Node000004_Node000018"><a xlink:title=" ">
<path fill="none" stroke="#63b8ff" d="M590.94,-274.98C605.5,-266.69 627.87,-253.94 644.93,-244.22"/>
<polygon fill="#63b8ff" stroke="#63b8ff" points="646.83,-247.16 653.79,-239.17 643.36,-241.08 646.83,-247.16"/>
</a>
</g>
</g>
<!-- Node7 -->
<g id="Node000007" class="node">
<title>Node7</title>
<g id="a_Node000007"><a xlink:href="_text_2_string_8h.html" target="_top" xlink:title=" ">
<polygon fill="white" stroke="#666666" points="332,-184 236,-184 236,-165 332,-165 332,-184"/>
<text text-anchor="middle" x="284" y="-172" font-family="Helvetica,sans-Serif" font-size="10.00">Cpl/Text/String.h</text>
</a>
</g>
</g>
<!-- Node6&#45;&gt;Node7 -->
<g id="edge7_Node000006_Node000007" class="edge">
<title>Node6&#45;&gt;Node7</title>
<g id="a_edge7_Node000006_Node000007"><a xlink:title=" ">
<path fill="none" stroke="#63b8ff" d="M445.99,-219.98C413.17,-210.97 361.2,-196.7 325.01,-186.76"/>
<polygon fill="#63b8ff" stroke="#63b8ff" points="325.82,-183.36 315.25,-184.08 323.97,-190.11 325.82,-183.36"/>
</a>
</g>
</g>
<!-- Node14 -->
<g id="Node000014" class="node">
<title>Node14</title>
<g id="a_Node000014"><a xlink:title=" ">
<polygon fill="#e0e0e0" stroke="#999999" points="488,-129 432,-129 432,-110 488,-110 488,-129"/>
<text text-anchor="middle" x="460" y="-117" font-family="Helvetica,sans-Serif" font-size="10.00">stdarg.h</text>
</a>
</g>
</g>
<!-- Node6&#45;&gt;Node14 -->
<g id="edge21_Node000006_Node000014" class="edge">
<title>Node6&#45;&gt;Node14</title>
<g id="a_edge21_Node000006_Node000014"><a xlink:title=" ">
<path fill="none" stroke="#63b8ff" d="M475.61,-219.66C472.86,-202.17 466.66,-162.8 462.96,-139.27"/>
<polygon fill="#63b8ff" stroke="#63b8ff" points="466.38,-138.49 461.36,-129.16 459.46,-139.58 466.38,-138.49"/>
</a>
</g>
</g>
<!-- Node16 -->
<g id="Node000016" class="node">
<title>Node16</title>
<g id="a_Node000016"><a xlink:href="_close_8h.html" target="_top" xlink:title=" ">
<polygon fill="white" stroke="#666666" points="571.5,-184 488.5,-184 488.5,-165 571.5,-165 571.5,-184"/>
<text text-anchor="middle" x="530" y="-172" font-family="Helvetica,sans-Serif" font-size="10.00">Cpl/Io/Close.h</text>
</a>
</g>
</g>
<!-- Node6&#45;&gt;Node16 -->
<g id="edge18_Node000006_Node000016" class="edge">
<title>Node6&#45;&gt;Node16</title>
<g id="a_edge18_Node000006_Node000016"><a xlink:title=" ">
<path fill="none" stroke="#63b8ff" d="M485.75,-219.75C493.47,-212.03 504.9,-200.6 514.22,-191.28"/>
<polygon fill="#63b8ff" stroke="#63b8ff" points="516.81,-193.64 521.41,-184.09 511.86,-188.69 516.81,-193.64"/>
</a>
</g>
</g>
<!-- Node17 -->
<g id="Node000017" class="node">
<title>Node17</title>
<g id="a_Node000017"><a xlink:href="_is_eos_8h.html" target="_top" xlink:title=" ">
<polygon fill="white" stroke="#666666" points="432,-184 350,-184 350,-165 432,-165 432,-184"/>
<text text-anchor="middle" x="391" y="-172" font-family="Helvetica,sans-Serif" font-size="10.00">Cpl/Io/IsEos.h</text>
</a>
</g>
</g>
<!-- Node6&#45;&gt;Node17 -->
<g id="edge20_Node000006_Node000017" class="edge">
<title>Node6&#45;&gt;Node17</title>
<g id="a_edge20_Node000006_Node000017"><a xlink:title=" ">
<path fill="none" stroke="#63b8ff" d="M463.18,-219.98C449.85,-211.77 429.42,-199.18 413.69,-189.49"/>
<polygon fill="#63b8ff" stroke="#63b8ff" points="415.42,-186.44 405.07,-184.17 411.75,-192.4 415.42,-186.44"/>
</a>
</g>
</g>
<!-- Node8 -->
<g id="Node000008" class="node">
<title>Node8</title>
<g id="a_Node000008"><a xlink:title=" ">
<polygon fill="#e0e0e0" stroke="#999999" points="444.5,-74 359.5,-74 359.5,-55 444.5,-55 444.5,-74"/>
<text text-anchor="middle" x="402" y="-62" font-family="Helvetica,sans-Serif" font-size="10.00">colony_map.h</text>
</a>
</g>
</g>
<!-- Node7&#45;&gt;Node8 -->
<g id="edge8_Node000007_Node000008" class="edge">
<title>Node7&#45;&gt;Node8</title>
<g id="a_edge8_Node000007_Node000008"><a xlink:title=" ">
<path fill="none" stroke="#63b8ff" d="M323.28,-164.99C344.38,-158.48 369.22,-147.4 385,-129 395.56,-116.68 399.64,-98.46 401.17,-84.69"/>
<polygon fill="#63b8ff" stroke="#63b8ff" points="404.68,-84.63 401.95,-74.4 397.7,-84.1 404.68,-84.63"/>
</a>
</g>
</g>
<!-- Node9 -->
<g id="Node000009" class="node">
<title>Node9</title>
<g id="a_Node000009"><a xlink:href="_key_8h.html" target="_top" xlink:title=" ">
<polygon fill="white" stroke="#666666" points="297.5,-129 186.5,-129 186.5,-110 297.5,-110 297.5,-129"/>
<text text-anchor="middle" x="242" y="-117" font-family="Helvetica,sans-Serif" font-size="10.00">Cpl/Container/Key.h</text>
</a>
</g>
</g>
<!-- Node7&#45;&gt;Node9 -->
<g id="edge9_Node000007_Node000009" class="edge">
<title>Node7&#45;&gt;Node9</title>
<g id="a_edge9_Node000007_Node000009"><a xlink:title=" ">
<path fill="none" stroke="#63b8ff" d="M277.06,-164.75C271.13,-157.26 262.43,-146.28 255.18,-137.13"/>
<polygon fill="#63b8ff" stroke="#63b8ff" points="257.76,-134.75 248.81,-129.09 252.27,-139.1 257.76,-134.75"/>
</a>
</g>
</g>
<!-- Node7&#45;&gt;Node14 -->
<g id="edge16_Node000007_Node000014" class="edge">
<title>Node7&#45;&gt;Node14</title>
<g id="a_edge16_Node000007_Node000014"><a xlink:title=" ">
<path fill="none" stroke="#63b8ff" d="M312.28,-164.98C342.04,-156.02 389.07,-141.86 422.04,-131.93"/>
<polygon fill="#63b8ff" stroke="#63b8ff" points="423.23,-135.23 431.79,-128.99 421.21,-128.53 423.23,-135.23"/>
</a>
</g>
</g>
<!-- Node15 -->
<g id="Node000015" class="node">
<title>Node15</title>
<g id="a_Node000015"><a xlink:title=" ">
<polygon fill="#e0e0e0" stroke="#999999" points="376,-129 316,-129 316,-110 376,-110 376,-129"/>
<text text-anchor="middle" x="346" y="-117" font-family="Helvetica,sans-Serif" font-size="10.00">iostream</text>
</a>
</g>
</g>
<!-- Node7&#45;&gt;Node15 -->
<g id="edge17_Node000007_Node000015" class="edge">
<title>Node7&#45;&gt;Node15</title>
<g id="a_edge17_Node000007_Node000015"><a xlink:title=" ">
<path fill="none" stroke="#63b8ff" d="M293.96,-164.98C303.13,-157.15 316.94,-145.34 328.03,-135.86"/>
<polygon fill="#63b8ff" stroke="#63b8ff" points="330.53,-138.33 335.86,-129.17 325.98,-133.01 330.53,-138.33"/>
</a>
</g>
</g>
<!-- Node9&#45;&gt;Node8 -->
<g id="edge15_Node000009_Node000008" class="edge">
<title>Node9&#45;&gt;Node8</title>
<g id="a_edge15_Node000009_Node000008"><a xlink:title=" ">
<path fill="none" stroke="#63b8ff" d="M267.71,-109.98C294.45,-101.13 336.53,-87.19 366.45,-77.28"/>
<polygon fill="#63b8ff" stroke="#63b8ff" points="367.7,-80.55 376.09,-74.08 365.5,-73.9 367.7,-80.55"/>
</a>
</g>
</g>
<!-- Node10 -->
<g id="Node000010" class="node">
<title>Node10</title>
<g id="a_Node000010"><a xlink:href="_fatal_error_8h.html" target="_top" xlink:title=" ">
<polygon fill="white" stroke="#666666" points="130,-74 0,-74 0,-55 130,-55 130,-74"/>
<text text-anchor="middle" x="65" y="-62" font-family="Helvetica,sans-Serif" font-size="10.00">Cpl/System/FatalError.h</text>
</a>
</g>
</g>
<!-- Node9&#45;&gt;Node10 -->
<g id="edge10_Node000009_Node000010" class="edge">
<title>Node9&#45;&gt;Node10</title>
<g id="a_edge10_Node000009_Node000010"><a xlink:title=" ">
<path fill="none" stroke="#63b8ff" d="M213.56,-109.98C183.72,-101.05 136.62,-86.94 103.47,-77.02"/>
<polygon fill="#63b8ff" stroke="#63b8ff" points="104.24,-73.6 93.66,-74.08 102.24,-80.3 104.24,-73.6"/>
</a>
</g>
</g>
<!-- Node12 -->
<g id="Node000012" class="node">
<title>Node12</title>
<g id="a_Node000012"><a xlink:title=" ">
<polygon fill="#e0e0e0" stroke="#999999" points="325.5,-74 272.5,-74 272.5,-55 325.5,-55 325.5,-74"/>
<text text-anchor="middle" x="299" y="-62" font-family="Helvetica,sans-Serif" font-size="10.00">stdint.h</text>
</a>
</g>
</g>
<!-- Node9&#45;&gt;Node12 -->
<g id="edge13_Node000009_Node000012" class="edge">
<title>Node9&#45;&gt;Node12</title>
<g id="a_edge13_Node000009_Node000012"><a xlink:title=" ">
<path fill="none" stroke="#63b8ff" d="M251.16,-109.98C259.5,-102.23 272.03,-90.58 282.18,-81.14"/>
<polygon fill="#63b8ff" stroke="#63b8ff" points="284.74,-83.54 289.68,-74.17 279.97,-78.42 284.74,-83.54"/>
</a>
</g>
</g>
<!-- Node13 -->
<g id="Node000013" class="node">
<title>Node13</title>
<g id="a_Node000013"><a xlink:title=" ">
<polygon fill="#e0e0e0" stroke="#999999" points="254.5,-74 201.5,-74 201.5,-55 254.5,-55 254.5,-74"/>
<text text-anchor="middle" x="228" y="-62" font-family="Helvetica,sans-Serif" font-size="10.00">string.h</text>
</a>
</g>
</g>
<!-- Node9&#45;&gt;Node13 -->
<g id="edge14_Node000009_Node000013" class="edge">
<title>Node9&#45;&gt;Node13</title>
<g id="a_edge14_Node000009_Node000013"><a xlink:title=" ">
<path fill="none" stroke="#63b8ff" d="M239.69,-109.75C237.83,-102.72 235.16,-92.62 232.85,-83.84"/>
<polygon fill="#63b8ff" stroke="#63b8ff" points="236.21,-82.86 230.27,-74.09 229.44,-84.65 236.21,-82.86"/>
</a>
</g>
</g>
<!-- Node10&#45;&gt;Node2 -->
<g id="edge12_Node000010_Node000002" class="edge">
<title>Node10&#45;&gt;Node2</title>
<g id="a_edge12_Node000010_Node000002"><a xlink:title=" ">
<path fill="none" stroke="#63b8ff" d="M79.94,-54.98C94.5,-46.69 116.87,-33.94 133.93,-24.22"/>
<polygon fill="#63b8ff" stroke="#63b8ff" points="135.83,-27.16 142.79,-19.17 132.36,-21.08 135.83,-27.16"/>
</a>
</g>
</g>
<!-- Node11 -->
<g id="Node000011" class="node">
<title>Node11</title>
<g id="a_Node000011"><a xlink:title=" ">
<polygon fill="#e0e0e0" stroke="#999999" points="93,-19 37,-19 37,0 93,0 93,-19"/>
<text text-anchor="middle" x="65" y="-7" font-family="Helvetica,sans-Serif" font-size="10.00">stddef.h</text>
</a>
</g>
</g>
<!-- Node10&#45;&gt;Node11 -->
<g id="edge11_Node000010_Node000011" class="edge">
<title>Node10&#45;&gt;Node11</title>
<g id="a_edge11_Node000010_Node000011"><a xlink:title=" ">
<path fill="none" stroke="#63b8ff" d="M65,-54.75C65,-47.8 65,-37.85 65,-29.13"/>
<polygon fill="#63b8ff" stroke="#63b8ff" points="68.5,-29.09 65,-19.09 61.5,-29.09 68.5,-29.09"/>
</a>
</g>
</g>
<!-- Node16&#45;&gt;Node5 -->
<g id="edge19_Node000016_Node000005" class="edge">
<title>Node16&#45;&gt;Node5</title>
<g id="a_edge19_Node000016_Node000005"><a xlink:title=" ">
<path fill="none" stroke="#63b8ff" d="M541.25,-164.98C551.8,-157 567.8,-144.88 580.44,-135.31"/>
<polygon fill="#63b8ff" stroke="#63b8ff" points="582.69,-138 588.55,-129.17 578.46,-132.42 582.69,-138"/>
</a>
</g>
</g>
<!-- Node19&#45;&gt;Node4 -->
<g id="edge31_Node000019_Node000004" class="edge">
<title>Node19&#45;&gt;Node4</title>
<g id="a_edge31_Node000019_Node000004"><a xlink:title=" ">
<path fill="none" stroke="#63b8ff" d="M650.7,-329.98C636.9,-321.77 615.76,-309.18 599.49,-299.49"/>
<polygon fill="#63b8ff" stroke="#63b8ff" points="600.94,-296.28 590.56,-294.17 597.36,-302.29 600.94,-296.28"/>
</a>
</g>
</g>
<!-- Node19&#45;&gt;Node18 -->
<g id="edge30_Node000019_Node000018" class="edge">
<title>Node19&#45;&gt;Node18</title>
<g id="a_edge30_Node000019_Node000018"><a xlink:title=" ">
<path fill="none" stroke="#63b8ff" d="M665.33,-329.66C665.98,-312.17 667.43,-272.8 668.3,-249.27"/>
<polygon fill="#63b8ff" stroke="#63b8ff" points="671.81,-249.28 668.68,-239.16 664.81,-249.02 671.81,-249.28"/>
</a>
</g>
</g>
<!-- Node20 -->
<g id="Node000020" class="node">
<title>Node20</title>
<g id="a_Node000020"><a xlink:href="_processor_api_8h.html" target="_top" xlink:title=" ">
<polygon fill="white" stroke="#666666" points="494,-294 354,-294 354,-275 494,-275 494,-294"/>
<text text-anchor="middle" x="424" y="-282" font-family="Helvetica,sans-Serif" font-size="10.00">Cpl/TShell/ProcessorApi.h</text>
</a>
</g>
</g>
<!-- Node19&#45;&gt;Node20 -->
<g id="edge24_Node000019_Node000020" class="edge">
<title>Node19&#45;&gt;Node20</title>
<g id="a_edge24_Node000019_Node000020"><a xlink:title=" ">
<path fill="none" stroke="#63b8ff" d="M626.28,-329.98C584.59,-320.82 518.18,-306.21 472.91,-296.26"/>
<polygon fill="#63b8ff" stroke="#63b8ff" points="473.54,-292.81 463.02,-294.08 472.04,-299.65 473.54,-292.81"/>
</a>
</g>
</g>
<!-- Node22 -->
<g id="Node000022" class="node">
<title>Node22</title>
<g id="a_Node000022"><a xlink:href="_s_list_8h.html" target="_top" xlink:title=" ">
<polygon fill="white" stroke="#666666" points="814,-294 696,-294 696,-275 814,-275 814,-294"/>
<text text-anchor="middle" x="755" y="-282" font-family="Helvetica,sans-Serif" font-size="10.00">Cpl/Container/SList.h</text>
</a>
</g>
</g>
<!-- Node19&#45;&gt;Node22 -->
<g id="edge32_Node000019_Node000022" class="edge">
<title>Node19&#45;&gt;Node22</title>
<g id="a_edge32_Node000019_Node000022"><a xlink:title=" ">
<path fill="none" stroke="#63b8ff" d="M679.46,-329.98C693.42,-321.77 714.79,-309.18 731.25,-299.49"/>
<polygon fill="#63b8ff" stroke="#63b8ff" points="733.44,-302.26 740.28,-294.17 729.88,-296.23 733.44,-302.26"/>
</a>
</g>
</g>
<!-- Node20&#45;&gt;Node6 -->
<g id="edge29_Node000020_Node000006" class="edge">
<title>Node20&#45;&gt;Node6</title>
<g id="a_edge29_Node000020_Node000006"><a xlink:title=" ">
<path fill="none" stroke="#63b8ff" d="M432.75,-274.75C440.47,-267.03 451.9,-255.6 461.22,-246.28"/>
<polygon fill="#63b8ff" stroke="#63b8ff" points="463.81,-248.64 468.41,-239.09 458.86,-243.69 463.81,-248.64"/>
</a>
</g>
</g>
<!-- Node21 -->
<g id="Node000021" class="node">
<title>Node21</title>
<g id="a_Node000021"><a xlink:href="_input_8h.html" target="_top" xlink:title=" ">
<polygon fill="white" stroke="#666666" points="414.5,-239 333.5,-239 333.5,-220 414.5,-220 414.5,-239"/>
<text text-anchor="middle" x="374" y="-227" font-family="Helvetica,sans-Serif" font-size="10.00">Cpl/Io/Input.h</text>
</a>
</g>
</g>
<!-- Node20&#45;&gt;Node21 -->
<g id="edge25_Node000020_Node000021" class="edge">
<title>Node20&#45;&gt;Node21</title>
<g id="a_edge25_Node000020_Node000021"><a xlink:title=" ">
<path fill="none" stroke="#63b8ff" d="M415.74,-274.75C408.54,-267.11 397.89,-255.82 389.15,-246.56"/>
<polygon fill="#63b8ff" stroke="#63b8ff" points="391.51,-243.96 382.1,-239.09 386.42,-248.76 391.51,-243.96"/>
</a>
</g>
</g>
<!-- Node21&#45;&gt;Node7 -->
<g id="edge26_Node000021_Node000007" class="edge">
<title>Node21&#45;&gt;Node7</title>
<g id="a_edge26_Node000021_Node000007"><a xlink:title=" ">
<path fill="none" stroke="#63b8ff" d="M359.54,-219.98C345.58,-211.77 324.21,-199.18 307.75,-189.49"/>
<polygon fill="#63b8ff" stroke="#63b8ff" points="309.12,-186.23 298.72,-184.17 305.56,-192.26 309.12,-186.23"/>
</a>
</g>
</g>
<!-- Node21&#45;&gt;Node16 -->
<g id="edge27_Node000021_Node000016" class="edge">
<title>Node21&#45;&gt;Node16</title>
<g id="a_edge27_Node000021_Node000016"><a xlink:title=" ">
<path fill="none" stroke="#63b8ff" d="M399.06,-219.98C425.03,-211.16 465.81,-197.31 494.96,-187.41"/>
<polygon fill="#63b8ff" stroke="#63b8ff" points="496.4,-190.61 504.74,-184.08 494.15,-183.99 496.4,-190.61"/>
</a>
</g>
</g>
<!-- Node21&#45;&gt;Node17 -->
<g id="edge28_Node000021_Node000017" class="edge">
<title>Node21&#45;&gt;Node17</title>
<g id="a_edge28_Node000021_Node000017"><a xlink:title=" ">
<path fill="none" stroke="#63b8ff" d="M376.81,-219.75C379.06,-212.72 382.3,-202.62 385.12,-193.84"/>
<polygon fill="#63b8ff" stroke="#63b8ff" points="388.52,-194.68 388.25,-184.09 381.86,-192.54 388.52,-194.68"/>
</a>
</g>
</g>
<!-- Node22&#45;&gt;Node5 -->
<g id="edge33_Node000022_Node000005" class="edge">
<title>Node22&#45;&gt;Node5</title>
<g id="a_edge33_Node000022_Node000005"><a xlink:title=" ">
<path fill="none" stroke="#63b8ff" d="M754.18,-274.94C752.59,-261.98 748.08,-237.11 736,-220 707.7,-179.94 658.14,-149.67 627.3,-133.56"/>
<polygon fill="#63b8ff" stroke="#63b8ff" points="628.87,-130.43 618.38,-129.01 625.7,-136.67 628.87,-130.43"/>
</a>
</g>
</g>
<!-- Node24 -->
<g id="Node000024" class="node">
<title>Node24</title>
<g id="a_Node000024"><a xlink:title=" ">
<polygon fill="#e0e0e0" stroke="#999999" points="942.5,-349 889.5,-349 889.5,-330 942.5,-330 942.5,-349"/>
<text text-anchor="middle" x="916" y="-337" font-family="Helvetica,sans-Serif" font-size="10.00">stdlib.h</text>
</a>
</g>
</g>
<!-- Node23&#45;&gt;Node24 -->
<g id="edge35_Node000023_Node000024" class="edge">
<title>Node23&#45;&gt;Node24</title>
<g id="a_edge35_Node000023_Node000024"><a xlink:title=" ">
<path fill="none" stroke="#63b8ff" d="M916,-384.75C916,-377.8 916,-367.85 916,-359.13"/>
<polygon fill="#63b8ff" stroke="#63b8ff" points="919.5,-359.09 916,-349.09 912.5,-359.09 919.5,-359.09"/>
</a>
</g>
</g>
</g>
</svg>
