<?xml version="1.0" encoding="UTF-8" standalone="no"?>
<!DOCTYPE svg PUBLIC "-//W3C//DTD SVG 1.1//EN"
 "http://www.w3.org/Graphics/SVG/1.1/DTD/svg11.dtd">
<!-- Generated by graphviz version 2.43.0 (0)
 -->
<!-- Title: Driver/PicoDisplay/TPipe/Api.h Pages: 1 -->
<svg width="1102pt" height="489pt"
 viewBox="0.00 0.00 1101.50 489.00" xmlns="http://www.w3.org/2000/svg" xmlns:xlink="http://www.w3.org/1999/xlink">
<g id="graph0" class="graph" transform="scale(1 1) rotate(0) translate(4 485)">
<title>Driver/PicoDisplay/TPipe/Api.h</title>
<!-- Node1 -->
<g id="Node000001" class="node">
<title>Node1</title>
<g id="a_Node000001"><a xlink:title="This file defines the interface for initializing the concrete implementation of the PicoDisplay drive...">
<polygon fill="#999999" stroke="#666666" points="668,-481 561,-481 561,-451 668,-451 668,-481"/>
<text text-anchor="start" x="569" y="-469" font-family="Helvetica,sans-Serif" font-size="10.00">Driver/PicoDisplay</text>
<text text-anchor="middle" x="614.5" y="-458" font-family="Helvetica,sans-Serif" font-size="10.00">/TPipe/Api.h</text>
</a>
</g>
</g>
<!-- Node2 -->
<g id="Node000002" class="node">
<title>Node2</title>
<g id="a_Node000002"><a xlink:title=" ">
<polygon fill="#e0e0e0" stroke="#999999" points="1093.5,-19 1001.5,-19 1001.5,0 1093.5,0 1093.5,-19"/>
<text text-anchor="middle" x="1047.5" y="-7" font-family="Helvetica,sans-Serif" font-size="10.00">colony_config.h</text>
</a>
</g>
</g>
<!-- Node1&#45;&gt;Node2 -->
<g id="edge1_Node000001_Node000002" class="edge">
<title>Node1&#45;&gt;Node2</title>
<g id="a_edge1_Node000001_Node000002"><a xlink:title=" ">
<path fill="none" stroke="#63b8ff" d="M668.18,-462.77C791.9,-456.16 1086.5,-431.46 1086.5,-346 1086.5,-346 1086.5,-346 1086.5,-118.5 1086.5,-84.92 1069.62,-48.78 1058.07,-27.98"/>
<polygon fill="#63b8ff" stroke="#63b8ff" points="1060.96,-25.98 1052.92,-19.08 1054.9,-29.49 1060.96,-25.98"/>
</a>
</g>
</g>
<!-- Node3 -->
<g id="Node000003" class="node">
<title>Node3</title>
<g id="a_Node000003"><a xlink:href="_input_8h.html" target="_top" xlink:title=" ">
<polygon fill="white" stroke="#666666" points="536,-294 455,-294 455,-275 536,-275 536,-294"/>
<text text-anchor="middle" x="495.5" y="-282" font-family="Helvetica,sans-Serif" font-size="10.00">Cpl/Io/Input.h</text>
</a>
</g>
</g>
<!-- Node1&#45;&gt;Node3 -->
<g id="edge2_Node000001_Node000003" class="edge">
<title>Node1&#45;&gt;Node3</title>
<g id="a_edge2_Node000001_Node000003"><a xlink:title=" ">
<path fill="none" stroke="#63b8ff" d="M637.73,-450.99C676.3,-426 746.05,-372.39 711.5,-330 706.24,-323.54 608.28,-305.29 546.1,-294.27"/>
<polygon fill="#63b8ff" stroke="#63b8ff" points="546.53,-290.8 536.08,-292.5 545.31,-297.69 546.53,-290.8"/>
</a>
</g>
</g>
<!-- Node16 -->
<g id="Node000016" class="node">
<title>Node16</title>
<g id="a_Node000016"><a xlink:href="_output_8h.html" target="_top" xlink:title=" ">
<polygon fill="white" stroke="#666666" points="378,-294 289,-294 289,-275 378,-275 378,-294"/>
<text text-anchor="middle" x="333.5" y="-282" font-family="Helvetica,sans-Serif" font-size="10.00">Cpl/Io/Output.h</text>
</a>
</g>
</g>
<!-- Node1&#45;&gt;Node16 -->
<g id="edge17_Node000001_Node000016" class="edge">
<title>Node1&#45;&gt;Node16</title>
<g id="a_edge17_Node000001_Node000016"><a xlink:title=" ">
<path fill="none" stroke="#63b8ff" d="M560.98,-456.37C474.35,-441.18 309.74,-406.77 276.5,-360 268.78,-349.13 270.65,-341.98 276.5,-330 282.8,-317.09 294.85,-306.83 306.26,-299.43"/>
<polygon fill="#63b8ff" stroke="#63b8ff" points="308.36,-302.25 315.15,-294.12 304.77,-296.25 308.36,-302.25"/>
</a>
</g>
</g>
<!-- Node17 -->
<g id="Node000017" class="node">
<title>Node17</title>
<g id="a_Node000017"><a xlink:href="_pipe_8h.html" target="_top" xlink:title=" ">
<polygon fill="white" stroke="#666666" points="553.5,-415 443.5,-415 443.5,-396 553.5,-396 553.5,-415"/>
<text text-anchor="middle" x="498.5" y="-403" font-family="Helvetica,sans-Serif" font-size="10.00">Driver/TPipe/Pipe.h</text>
</a>
</g>
</g>
<!-- Node1&#45;&gt;Node17 -->
<g id="edge22_Node000001_Node000017" class="edge">
<title>Node1&#45;&gt;Node17</title>
<g id="a_edge22_Node000001_Node000017"><a xlink:title=" ">
<path fill="none" stroke="#63b8ff" d="M586.72,-450.99C567.88,-441.49 543.15,-429.02 524.66,-419.69"/>
<polygon fill="#63b8ff" stroke="#63b8ff" points="526.14,-416.52 515.63,-415.14 522.98,-422.77 526.14,-416.52"/>
</a>
</g>
</g>
<!-- Node4 -->
<g id="Node000004" class="node">
<title>Node4</title>
<g id="a_Node000004"><a xlink:href="_text_2_string_8h.html" target="_top" xlink:title=" ">
<polygon fill="white" stroke="#666666" points="305.5,-239 209.5,-239 209.5,-220 305.5,-220 305.5,-239"/>
<text text-anchor="middle" x="257.5" y="-227" font-family="Helvetica,sans-Serif" font-size="10.00">Cpl/Text/String.h</text>
</a>
</g>
</g>
<!-- Node3&#45;&gt;Node4 -->
<g id="edge3_Node000003_Node000004" class="edge">
<title>Node3&#45;&gt;Node4</title>
<g id="a_edge3_Node000003_Node000004"><a xlink:title=" ">
<path fill="none" stroke="#63b8ff" d="M457.26,-274.98C416.09,-265.82 350.51,-251.21 305.8,-241.26"/>
<polygon fill="#63b8ff" stroke="#63b8ff" points="306.56,-237.84 296.04,-239.08 305.04,-244.67 306.56,-237.84"/>
</a>
</g>
</g>
<!-- Node13 -->
<g id="Node000013" class="node">
<title>Node13</title>
<g id="a_Node000013"><a xlink:href="_close_8h.html" target="_top" xlink:title=" ">
<polygon fill="white" stroke="#666666" points="545,-239 462,-239 462,-220 545,-220 545,-239"/>
<text text-anchor="middle" x="503.5" y="-227" font-family="Helvetica,sans-Serif" font-size="10.00">Cpl/Io/Close.h</text>
</a>
</g>
</g>
<!-- Node3&#45;&gt;Node13 -->
<g id="edge14_Node000003_Node000013" class="edge">
<title>Node3&#45;&gt;Node13</title>
<g id="a_edge14_Node000003_Node000013"><a xlink:title=" ">
<path fill="none" stroke="#63b8ff" d="M496.82,-274.75C497.87,-267.8 499.37,-257.85 500.69,-249.13"/>
<polygon fill="#63b8ff" stroke="#63b8ff" points="504.17,-249.5 502.2,-239.09 497.25,-248.45 504.17,-249.5"/>
</a>
</g>
</g>
<!-- Node15 -->
<g id="Node000015" class="node">
<title>Node15</title>
<g id="a_Node000015"><a xlink:href="_is_eos_8h.html" target="_top" xlink:title=" ">
<polygon fill="white" stroke="#666666" points="443.5,-239 361.5,-239 361.5,-220 443.5,-220 443.5,-239"/>
<text text-anchor="middle" x="402.5" y="-227" font-family="Helvetica,sans-Serif" font-size="10.00">Cpl/Io/IsEos.h</text>
</a>
</g>
</g>
<!-- Node3&#45;&gt;Node15 -->
<g id="edge16_Node000003_Node000015" class="edge">
<title>Node3&#45;&gt;Node15</title>
<g id="a_edge16_Node000003_Node000015"><a xlink:title=" ">
<path fill="none" stroke="#63b8ff" d="M480.56,-274.98C466,-266.69 443.63,-253.94 426.57,-244.22"/>
<polygon fill="#63b8ff" stroke="#63b8ff" points="428.14,-241.08 417.71,-239.17 424.67,-247.16 428.14,-241.08"/>
</a>
</g>
</g>
<!-- Node5 -->
<g id="Node000005" class="node">
<title>Node5</title>
<g id="a_Node000005"><a xlink:title=" ">
<polygon fill="#e0e0e0" stroke="#999999" points="175,-74 90,-74 90,-55 175,-55 175,-74"/>
<text text-anchor="middle" x="132.5" y="-62" font-family="Helvetica,sans-Serif" font-size="10.00">colony_map.h</text>
</a>
</g>
</g>
<!-- Node4&#45;&gt;Node5 -->
<g id="edge4_Node000004_Node000005" class="edge">
<title>Node4&#45;&gt;Node5</title>
<g id="a_edge4_Node000004_Node000005"><a xlink:title=" ">
<path fill="none" stroke="#63b8ff" d="M243.6,-219.89C231.22,-211.74 213.17,-198.61 200.5,-184 173.03,-152.33 151.08,-107.9 140.12,-83.43"/>
<polygon fill="#63b8ff" stroke="#63b8ff" points="143.32,-82.02 136.11,-74.26 136.91,-84.83 143.32,-82.02"/>
</a>
</g>
</g>
<!-- Node6 -->
<g id="Node000006" class="node">
<title>Node6</title>
<g id="a_Node000006"><a xlink:href="_key_8h.html" target="_top" xlink:title=" ">
<polygon fill="white" stroke="#666666" points="364,-129 253,-129 253,-110 364,-110 364,-129"/>
<text text-anchor="middle" x="308.5" y="-117" font-family="Helvetica,sans-Serif" font-size="10.00">Cpl/Container/Key.h</text>
</a>
</g>
</g>
<!-- Node4&#45;&gt;Node6 -->
<g id="edge5_Node000004_Node000006" class="edge">
<title>Node4&#45;&gt;Node6</title>
<g id="a_edge5_Node000004_Node000006"><a xlink:title=" ">
<path fill="none" stroke="#63b8ff" d="M261.67,-219.66C270.05,-201.93 289.03,-161.73 300.09,-138.32"/>
<polygon fill="#63b8ff" stroke="#63b8ff" points="303.31,-139.7 304.41,-129.16 296.98,-136.71 303.31,-139.7"/>
</a>
</g>
</g>
<!-- Node11 -->
<g id="Node000011" class="node">
<title>Node11</title>
<g id="a_Node000011"><a xlink:title=" ">
<polygon fill="#e0e0e0" stroke="#999999" points="381.5,-184 325.5,-184 325.5,-165 381.5,-165 381.5,-184"/>
<text text-anchor="middle" x="353.5" y="-172" font-family="Helvetica,sans-Serif" font-size="10.00">stdarg.h</text>
</a>
</g>
</g>
<!-- Node4&#45;&gt;Node11 -->
<g id="edge12_Node000004_Node000011" class="edge">
<title>Node4&#45;&gt;Node11</title>
<g id="a_edge12_Node000004_Node000011"><a xlink:title=" ">
<path fill="none" stroke="#63b8ff" d="M272.92,-219.98C287.95,-211.69 311.04,-198.94 328.66,-189.22"/>
<polygon fill="#63b8ff" stroke="#63b8ff" points="330.73,-192.07 337.8,-184.17 327.35,-185.94 330.73,-192.07"/>
</a>
</g>
</g>
<!-- Node12 -->
<g id="Node000012" class="node">
<title>Node12</title>
<g id="a_Node000012"><a xlink:title=" ">
<polygon fill="#e0e0e0" stroke="#999999" points="269.5,-184 209.5,-184 209.5,-165 269.5,-165 269.5,-184"/>
<text text-anchor="middle" x="239.5" y="-172" font-family="Helvetica,sans-Serif" font-size="10.00">iostream</text>
</a>
</g>
</g>
<!-- Node4&#45;&gt;Node12 -->
<g id="edge13_Node000004_Node000012" class="edge">
<title>Node4&#45;&gt;Node12</title>
<g id="a_edge13_Node000004_Node000012"><a xlink:title=" ">
<path fill="none" stroke="#63b8ff" d="M254.53,-219.75C252.14,-212.72 248.71,-202.62 245.73,-193.84"/>
<polygon fill="#63b8ff" stroke="#63b8ff" points="248.95,-192.43 242.42,-184.09 242.32,-194.68 248.95,-192.43"/>
</a>
</g>
</g>
<!-- Node6&#45;&gt;Node5 -->
<g id="edge11_Node000006_Node000005" class="edge">
<title>Node6&#45;&gt;Node5</title>
<g id="a_edge11_Node000006_Node000005"><a xlink:title=" ">
<path fill="none" stroke="#63b8ff" d="M280.22,-109.98C250.55,-101.05 203.71,-86.94 170.75,-77.02"/>
<polygon fill="#63b8ff" stroke="#63b8ff" points="171.58,-73.61 161,-74.08 169.57,-80.32 171.58,-73.61"/>
</a>
</g>
</g>
<!-- Node7 -->
<g id="Node000007" class="node">
<title>Node7</title>
<g id="a_Node000007"><a xlink:href="_fatal_error_8h.html" target="_top" xlink:title=" ">
<polygon fill="white" stroke="#666666" points="394.5,-74 264.5,-74 264.5,-55 394.5,-55 394.5,-74"/>
<text text-anchor="middle" x="329.5" y="-62" font-family="Helvetica,sans-Serif" font-size="10.00">Cpl/System/FatalError.h</text>
</a>
</g>
</g>
<!-- Node6&#45;&gt;Node7 -->
<g id="edge6_Node000006_Node000007" class="edge">
<title>Node6&#45;&gt;Node7</title>
<g id="a_edge6_Node000006_Node000007"><a xlink:title=" ">
<path fill="none" stroke="#63b8ff" d="M311.97,-109.75C314.78,-102.65 318.84,-92.4 322.35,-83.56"/>
<polygon fill="#63b8ff" stroke="#63b8ff" points="325.67,-84.68 326.1,-74.09 319.16,-82.1 325.67,-84.68"/>
</a>
</g>
</g>
<!-- Node9 -->
<g id="Node000009" class="node">
<title>Node9</title>
<g id="a_Node000009"><a xlink:title=" ">
<polygon fill="#e0e0e0" stroke="#999999" points="466,-74 413,-74 413,-55 466,-55 466,-74"/>
<text text-anchor="middle" x="439.5" y="-62" font-family="Helvetica,sans-Serif" font-size="10.00">stdint.h</text>
</a>
</g>
</g>
<!-- Node6&#45;&gt;Node9 -->
<g id="edge9_Node000006_Node000009" class="edge">
<title>Node6&#45;&gt;Node9</title>
<g id="a_edge9_Node000006_Node000009"><a xlink:title=" ">
<path fill="none" stroke="#63b8ff" d="M329.55,-109.98C350.91,-101.34 384.2,-87.87 408.56,-78.02"/>
<polygon fill="#63b8ff" stroke="#63b8ff" points="410.11,-81.17 418.07,-74.17 407.49,-74.68 410.11,-81.17"/>
</a>
</g>
</g>
<!-- Node10 -->
<g id="Node000010" class="node">
<title>Node10</title>
<g id="a_Node000010"><a xlink:title=" ">
<polygon fill="#e0e0e0" stroke="#999999" points="246,-74 193,-74 193,-55 246,-55 246,-74"/>
<text text-anchor="middle" x="219.5" y="-62" font-family="Helvetica,sans-Serif" font-size="10.00">string.h</text>
</a>
</g>
</g>
<!-- Node6&#45;&gt;Node10 -->
<g id="edge10_Node000006_Node000010" class="edge">
<title>Node6&#45;&gt;Node10</title>
<g id="a_edge10_Node000006_Node000010"><a xlink:title=" ">
<path fill="none" stroke="#63b8ff" d="M294.2,-109.98C280.4,-101.77 259.26,-89.18 242.99,-79.49"/>
<polygon fill="#63b8ff" stroke="#63b8ff" points="244.44,-76.28 234.06,-74.17 240.86,-82.29 244.44,-76.28"/>
</a>
</g>
</g>
<!-- Node7&#45;&gt;Node2 -->
<g id="edge8_Node000007_Node000002" class="edge">
<title>Node7&#45;&gt;Node2</title>
<g id="a_edge8_Node000007_Node000002"><a xlink:title=" ">
<path fill="none" stroke="#63b8ff" d="M394.52,-55.95C397.9,-55.62 401.24,-55.3 404.5,-55 621.17,-35.23 879.62,-19.82 991.41,-13.55"/>
<polygon fill="#63b8ff" stroke="#63b8ff" points="991.65,-17.05 1001.44,-12.99 991.26,-10.06 991.65,-17.05"/>
</a>
</g>
</g>
<!-- Node8 -->
<g id="Node000008" class="node">
<title>Node8</title>
<g id="a_Node000008"><a xlink:title=" ">
<polygon fill="#e0e0e0" stroke="#999999" points="357.5,-19 301.5,-19 301.5,0 357.5,0 357.5,-19"/>
<text text-anchor="middle" x="329.5" y="-7" font-family="Helvetica,sans-Serif" font-size="10.00">stddef.h</text>
</a>
</g>
</g>
<!-- Node7&#45;&gt;Node8 -->
<g id="edge7_Node000007_Node000008" class="edge">
<title>Node7&#45;&gt;Node8</title>
<g id="a_edge7_Node000007_Node000008"><a xlink:title=" ">
<path fill="none" stroke="#63b8ff" d="M329.5,-54.75C329.5,-47.8 329.5,-37.85 329.5,-29.13"/>
<polygon fill="#63b8ff" stroke="#63b8ff" points="333,-29.09 329.5,-19.09 326,-29.09 333,-29.09"/>
</a>
</g>
</g>
<!-- Node14 -->
<g id="Node000014" class="node">
<title>Node14</title>
<g id="a_Node000014"><a xlink:href="_item_8h.html" target="_top" xlink:title=" ">
<polygon fill="white" stroke="#666666" points="684,-129 567,-129 567,-110 684,-110 684,-129"/>
<text text-anchor="middle" x="625.5" y="-117" font-family="Helvetica,sans-Serif" font-size="10.00">Cpl/Container/Item.h</text>
</a>
</g>
</g>
<!-- Node13&#45;&gt;Node14 -->
<g id="edge15_Node000013_Node000014" class="edge">
<title>Node13&#45;&gt;Node14</title>
<g id="a_edge15_Node000013_Node000014"><a xlink:title=" ">
<path fill="none" stroke="#63b8ff" d="M513.48,-219.66C534.23,-201.3 582.22,-158.81 608.14,-135.87"/>
<polygon fill="#63b8ff" stroke="#63b8ff" points="610.55,-138.41 615.72,-129.16 605.91,-133.17 610.55,-138.41"/>
</a>
</g>
</g>
<!-- Node16&#45;&gt;Node4 -->
<g id="edge18_Node000016_Node000004" class="edge">
<title>Node16&#45;&gt;Node4</title>
<g id="a_edge18_Node000016_Node000004"><a xlink:title=" ">
<path fill="none" stroke="#63b8ff" d="M321.29,-274.98C309.72,-266.92 292.12,-254.65 278.34,-245.03"/>
<polygon fill="#63b8ff" stroke="#63b8ff" points="280.14,-242.02 269.93,-239.17 276.13,-247.76 280.14,-242.02"/>
</a>
</g>
</g>
<!-- Node16&#45;&gt;Node11 -->
<g id="edge21_Node000016_Node000011" class="edge">
<title>Node16&#45;&gt;Node11</title>
<g id="a_edge21_Node000016_Node000011"><a xlink:title=" ">
<path fill="none" stroke="#63b8ff" d="M335.14,-274.66C338.38,-257.17 345.67,-217.8 350.02,-194.27"/>
<polygon fill="#63b8ff" stroke="#63b8ff" points="353.52,-194.63 351.9,-184.16 346.63,-193.35 353.52,-194.63"/>
</a>
</g>
</g>
<!-- Node16&#45;&gt;Node13 -->
<g id="edge19_Node000016_Node000013" class="edge">
<title>Node16&#45;&gt;Node13</title>
<g id="a_edge19_Node000016_Node000013"><a xlink:title=" ">
<path fill="none" stroke="#63b8ff" d="M360.81,-274.98C389.35,-266.09 434.33,-252.07 466.14,-242.15"/>
<polygon fill="#63b8ff" stroke="#63b8ff" points="467.47,-245.4 475.97,-239.08 465.38,-238.72 467.47,-245.4"/>
</a>
</g>
</g>
<!-- Node16&#45;&gt;Node15 -->
<g id="edge20_Node000016_Node000015" class="edge">
<title>Node16&#45;&gt;Node15</title>
<g id="a_edge20_Node000016_Node000015"><a xlink:title=" ">
<path fill="none" stroke="#63b8ff" d="M344.59,-274.98C354.99,-267 370.76,-254.88 383.22,-245.31"/>
<polygon fill="#63b8ff" stroke="#63b8ff" points="385.41,-248.04 391.21,-239.17 381.15,-242.49 385.41,-248.04"/>
</a>
</g>
</g>
<!-- Node17&#45;&gt;Node3 -->
<g id="edge47_Node000017_Node000003" class="edge">
<title>Node17&#45;&gt;Node3</title>
<g id="a_edge47_Node000017_Node000003"><a xlink:title=" ">
<path fill="none" stroke="#63b8ff" d="M498.28,-395.94C497.8,-376.91 496.64,-330.69 495.98,-304.47"/>
<polygon fill="#63b8ff" stroke="#63b8ff" points="499.47,-304.21 495.72,-294.3 492.48,-304.39 499.47,-304.21"/>
</a>
</g>
</g>
<!-- Node17&#45;&gt;Node16 -->
<g id="edge48_Node000017_Node000016" class="edge">
<title>Node17&#45;&gt;Node16</title>
<g id="a_edge48_Node000017_Node000016"><a xlink:title=" ">
<path fill="none" stroke="#63b8ff" d="M443.31,-400.64C387.23,-395.44 305.91,-383.9 286.5,-360 270.88,-340.76 293.86,-316.03 312.84,-300.47"/>
<polygon fill="#63b8ff" stroke="#63b8ff" points="315.13,-303.12 320.86,-294.21 310.82,-297.6 315.13,-303.12"/>
</a>
</g>
</g>
<!-- Node18 -->
<g id="Node000018" class="node">
<title>Node18</title>
<g id="a_Node000018"><a xlink:href="_map_8h.html" target="_top" xlink:title=" ">
<polygon fill="white" stroke="#666666" points="1054.5,-354.5 938.5,-354.5 938.5,-335.5 1054.5,-335.5 1054.5,-354.5"/>
<text text-anchor="middle" x="996.5" y="-342.5" font-family="Helvetica,sans-Serif" font-size="10.00">Cpl/Container/Map.h</text>
</a>
</g>
</g>
<!-- Node17&#45;&gt;Node18 -->
<g id="edge23_Node000017_Node000018" class="edge">
<title>Node17&#45;&gt;Node18</title>
<g id="a_edge23_Node000017_Node000018"><a xlink:title=" ">
<path fill="none" stroke="#63b8ff" d="M553.5,-400.65C635.66,-394.48 795.15,-380.92 929.5,-360 935.82,-359.02 942.44,-357.83 948.96,-356.56"/>
<polygon fill="#63b8ff" stroke="#63b8ff" points="949.95,-359.94 959.06,-354.53 948.57,-353.07 949.95,-359.94"/>
</a>
</g>
</g>
<!-- Node22 -->
<g id="Node000022" class="node">
<title>Node22</title>
<g id="a_Node000022"><a xlink:href="_tx_8h.html" target="_top" xlink:title=" ">
<polygon fill="white" stroke="#666666" points="241,-294 140,-294 140,-275 241,-275 241,-294"/>
<text text-anchor="middle" x="190.5" y="-282" font-family="Helvetica,sans-Serif" font-size="10.00">Driver/TPipe/Tx.h</text>
</a>
</g>
</g>
<!-- Node17&#45;&gt;Node22 -->
<g id="edge30_Node000017_Node000022" class="edge">
<title>Node17&#45;&gt;Node22</title>
<g id="a_edge30_Node000017_Node000022"><a xlink:title=" ">
<path fill="none" stroke="#63b8ff" d="M443.07,-401.28C396.56,-396.77 329.44,-385.96 276.5,-360 247.23,-345.65 219.97,-318.85 204.28,-301.61"/>
<polygon fill="#63b8ff" stroke="#63b8ff" points="206.8,-299.18 197.55,-294.01 201.56,-303.82 206.8,-299.18"/>
</a>
</g>
</g>
<!-- Node23 -->
<g id="Node000023" class="node">
<title>Node23</title>
<g id="a_Node000023"><a xlink:href="_rx_frame_handler_api_8h.html" target="_top" xlink:title=" ">
<polygon fill="white" stroke="#666666" points="920,-360 759,-360 759,-330 920,-330 920,-360"/>
<text text-anchor="start" x="767" y="-348" font-family="Helvetica,sans-Serif" font-size="10.00">Driver/TPipe/RxFrameHandler</text>
<text text-anchor="middle" x="839.5" y="-337" font-family="Helvetica,sans-Serif" font-size="10.00">Api.h</text>
</a>
</g>
</g>
<!-- Node17&#45;&gt;Node23 -->
<g id="edge33_Node000017_Node000023" class="edge">
<title>Node17&#45;&gt;Node23</title>
<g id="a_edge33_Node000017_Node000023"><a xlink:title=" ">
<path fill="none" stroke="#63b8ff" d="M548.08,-395.99C600.51,-387 684.36,-372.61 748.69,-361.58"/>
<polygon fill="#63b8ff" stroke="#63b8ff" points="749.57,-364.98 758.83,-359.84 748.39,-358.08 749.57,-364.98"/>
</a>
</g>
</g>
<!-- Node24 -->
<g id="Node000024" class="node">
<title>Node24</title>
<g id="a_Node000024"><a xlink:href="_stream_decoder_8h.html" target="_top" xlink:title=" ">
<polygon fill="white" stroke="#666666" points="702.5,-354.5 526.5,-354.5 526.5,-335.5 702.5,-335.5 702.5,-354.5"/>
<text text-anchor="middle" x="614.5" y="-342.5" font-family="Helvetica,sans-Serif" font-size="10.00">Cpl/Text/Frame/StreamDecoder.h</text>
</a>
</g>
</g>
<!-- Node17&#45;&gt;Node24 -->
<g id="edge35_Node000017_Node000024" class="edge">
<title>Node17&#45;&gt;Node24</title>
<g id="a_edge35_Node000017_Node000024"><a xlink:title=" ">
<path fill="none" stroke="#63b8ff" d="M515.62,-395.87C534.72,-386.23 565.87,-370.53 588.1,-359.31"/>
<polygon fill="#63b8ff" stroke="#63b8ff" points="589.96,-362.3 597.31,-354.67 586.81,-356.05 589.96,-362.3"/>
</a>
</g>
</g>
<!-- Node28 -->
<g id="Node000028" class="node">
<title>Node28</title>
<g id="a_Node000028"><a xlink:href="_stream_encoder_8h.html" target="_top" xlink:title=" ">
<polygon fill="white" stroke="#666666" points="470,-354.5 295,-354.5 295,-335.5 470,-335.5 470,-354.5"/>
<text text-anchor="middle" x="382.5" y="-342.5" font-family="Helvetica,sans-Serif" font-size="10.00">Cpl/Text/Frame/StreamEncoder.h</text>
</a>
</g>
</g>
<!-- Node17&#45;&gt;Node28 -->
<g id="edge40_Node000017_Node000028" class="edge">
<title>Node17&#45;&gt;Node28</title>
<g id="a_edge40_Node000017_Node000028"><a xlink:title=" ">
<path fill="none" stroke="#63b8ff" d="M481.38,-395.87C462.28,-386.23 431.13,-370.53 408.9,-359.31"/>
<polygon fill="#63b8ff" stroke="#63b8ff" points="410.19,-356.05 399.69,-354.67 407.04,-362.3 410.19,-356.05"/>
</a>
</g>
</g>
<!-- Node31 -->
<g id="Node000031" class="node">
<title>Node31</title>
<g id="a_Node000031"><a xlink:href="_mutex_8h.html" target="_top" xlink:title=" ">
<polygon fill="white" stroke="#666666" points="115,-129 0,-129 0,-110 115,-110 115,-129"/>
<text text-anchor="middle" x="57.5" y="-117" font-family="Helvetica,sans-Serif" font-size="10.00">Cpl/System/Mutex.h</text>
</a>
</g>
</g>
<!-- Node17&#45;&gt;Node31 -->
<g id="edge45_Node000017_Node000031" class="edge">
<title>Node17&#45;&gt;Node31</title>
<g id="a_edge45_Node000017_Node000031"><a xlink:title=" ">
<path fill="none" stroke="#63b8ff" d="M443.13,-400.34C329.69,-390.31 81.5,-359.84 81.5,-285.5 81.5,-285.5 81.5,-285.5 81.5,-228.5 81.5,-196.28 71.19,-159.91 64.09,-138.66"/>
<polygon fill="#63b8ff" stroke="#63b8ff" points="67.33,-137.33 60.74,-129.04 60.72,-139.63 67.33,-137.33"/>
</a>
</g>
</g>
<!-- Node19 -->
<g id="Node000019" class="node">
<title>Node19</title>
<g id="a_Node000019"><a xlink:href="_avl_tree___8h.html" target="_top" xlink:title=" ">
<polygon fill="white" stroke="#666666" points="1058,-294 923,-294 923,-275 1058,-275 1058,-294"/>
<text text-anchor="middle" x="990.5" y="-282" font-family="Helvetica,sans-Serif" font-size="10.00">Cpl/Container/AvlTree_.h</text>
</a>
</g>
</g>
<!-- Node18&#45;&gt;Node19 -->
<g id="edge24_Node000018_Node000019" class="edge">
<title>Node18&#45;&gt;Node19</title>
<g id="a_edge24_Node000018_Node000019"><a xlink:title=" ">
<path fill="none" stroke="#63b8ff" d="M995.61,-335.37C994.78,-327.25 993.51,-314.81 992.44,-304.39"/>
<polygon fill="#63b8ff" stroke="#63b8ff" points="995.89,-303.76 991.39,-294.17 988.93,-304.47 995.89,-303.76"/>
</a>
</g>
</g>
<!-- Node19&#45;&gt;Node2 -->
<g id="edge25_Node000019_Node000002" class="edge">
<title>Node19&#45;&gt;Node2</title>
<g id="a_edge25_Node000019_Node000002"><a xlink:title=" ">
<path fill="none" stroke="#63b8ff" d="M999.89,-274.81C1008.47,-266.4 1020.92,-252.92 1028.5,-239 1042.59,-213.13 1047.5,-204.96 1047.5,-175.5 1047.5,-175.5 1047.5,-175.5 1047.5,-118.5 1047.5,-87.19 1047.5,-50.77 1047.5,-29.23"/>
<polygon fill="#63b8ff" stroke="#63b8ff" points="1051,-29.18 1047.5,-19.18 1044,-29.18 1051,-29.18"/>
</a>
</g>
</g>
<!-- Node20 -->
<g id="Node000020" class="node">
<title>Node20</title>
<g id="a_Node000020"><a xlink:href="_map_item_8h.html" target="_top" xlink:title=" ">
<polygon fill="white" stroke="#666666" points="1019.5,-239 881.5,-239 881.5,-220 1019.5,-220 1019.5,-239"/>
<text text-anchor="middle" x="950.5" y="-227" font-family="Helvetica,sans-Serif" font-size="10.00">Cpl/Container/MapItem.h</text>
</a>
</g>
</g>
<!-- Node19&#45;&gt;Node20 -->
<g id="edge26_Node000019_Node000020" class="edge">
<title>Node19&#45;&gt;Node20</title>
<g id="a_edge26_Node000019_Node000020"><a xlink:title=" ">
<path fill="none" stroke="#63b8ff" d="M983.89,-274.75C978.24,-267.26 969.96,-256.28 963.05,-247.13"/>
<polygon fill="#63b8ff" stroke="#63b8ff" points="965.8,-244.96 956.98,-239.09 960.21,-249.18 965.8,-244.96"/>
</a>
</g>
</g>
<!-- Node21 -->
<g id="Node000021" class="node">
<title>Node21</title>
<g id="a_Node000021"><a xlink:href="_dict_item_8h.html" target="_top" xlink:title=" ">
<polygon fill="white" stroke="#666666" points="815,-184 678,-184 678,-165 815,-165 815,-184"/>
<text text-anchor="middle" x="746.5" y="-172" font-family="Helvetica,sans-Serif" font-size="10.00">Cpl/Container/DictItem.h</text>
</a>
</g>
</g>
<!-- Node20&#45;&gt;Node21 -->
<g id="edge27_Node000020_Node000021" class="edge">
<title>Node20&#45;&gt;Node21</title>
<g id="a_edge27_Node000020_Node000021"><a xlink:title=" ">
<path fill="none" stroke="#63b8ff" d="M917.72,-219.98C882.88,-210.93 827.63,-196.58 789.36,-186.64"/>
<polygon fill="#63b8ff" stroke="#63b8ff" points="790.09,-183.21 779.53,-184.08 788.33,-189.98 790.09,-183.21"/>
</a>
</g>
</g>
<!-- Node21&#45;&gt;Node6 -->
<g id="edge29_Node000021_Node000006" class="edge">
<title>Node21&#45;&gt;Node6</title>
<g id="a_edge29_Node000021_Node000006"><a xlink:title=" ">
<path fill="none" stroke="#63b8ff" d="M677.58,-165.16C594.53,-155.11 455.98,-138.35 374.33,-128.47"/>
<polygon fill="#63b8ff" stroke="#63b8ff" points="374.52,-124.96 364.17,-127.24 373.68,-131.91 374.52,-124.96"/>
</a>
</g>
</g>
<!-- Node21&#45;&gt;Node14 -->
<g id="edge28_Node000021_Node000014" class="edge">
<title>Node21&#45;&gt;Node14</title>
<g id="a_edge28_Node000021_Node000014"><a xlink:title=" ">
<path fill="none" stroke="#63b8ff" d="M727.06,-164.98C707.51,-156.42 677.12,-143.11 654.68,-133.28"/>
<polygon fill="#63b8ff" stroke="#63b8ff" points="655.86,-129.98 645.29,-129.17 653.05,-136.39 655.86,-129.98"/>
</a>
</g>
</g>
<!-- Node22&#45;&gt;Node4 -->
<g id="edge31_Node000022_Node000004" class="edge">
<title>Node22&#45;&gt;Node4</title>
<g id="a_edge31_Node000022_Node000004"><a xlink:title=" ">
<path fill="none" stroke="#63b8ff" d="M201.26,-274.98C211.27,-267.07 226.39,-255.11 238.43,-245.58"/>
<polygon fill="#63b8ff" stroke="#63b8ff" points="240.87,-248.12 246.54,-239.17 236.53,-242.63 240.87,-248.12"/>
</a>
</g>
</g>
<!-- Node22&#45;&gt;Node10 -->
<g id="edge32_Node000022_Node000010" class="edge">
<title>Node22&#45;&gt;Node10</title>
<g id="a_edge32_Node000022_Node000010"><a xlink:title=" ">
<path fill="none" stroke="#63b8ff" d="M190.92,-274.84C191.94,-255.22 194.88,-205.91 200.5,-165 204.4,-136.61 211.03,-104.06 215.34,-84.14"/>
<polygon fill="#63b8ff" stroke="#63b8ff" points="218.79,-84.75 217.51,-74.23 211.95,-83.25 218.79,-84.75"/>
</a>
</g>
</g>
<!-- Node23&#45;&gt;Node20 -->
<g id="edge34_Node000023_Node000020" class="edge">
<title>Node23&#45;&gt;Node20</title>
<g id="a_edge34_Node000023_Node000020"><a xlink:title=" ">
<path fill="none" stroke="#63b8ff" d="M853.56,-329.63C874.34,-308.37 913.14,-268.71 934.82,-246.54"/>
<polygon fill="#63b8ff" stroke="#63b8ff" points="937.47,-248.83 941.96,-239.23 932.47,-243.93 937.47,-248.83"/>
</a>
</g>
</g>
<!-- Node24&#45;&gt;Node3 -->
<g id="edge39_Node000024_Node000003" class="edge">
<title>Node24&#45;&gt;Node3</title>
<g id="a_edge39_Node000024_Node000003"><a xlink:title=" ">
<path fill="none" stroke="#63b8ff" d="M597.2,-335.49C577.45,-325.79 544.95,-309.81 522.01,-298.53"/>
<polygon fill="#63b8ff" stroke="#63b8ff" points="523.34,-295.29 512.82,-294.02 520.25,-301.57 523.34,-295.29"/>
</a>
</g>
</g>
<!-- Node25 -->
<g id="Node000025" class="node">
<title>Node25</title>
<g id="a_Node000025"><a xlink:href="_decoder___8h.html" target="_top" xlink:title=" ">
<polygon fill="white" stroke="#666666" points="866,-294 719,-294 719,-275 866,-275 866,-294"/>
<text text-anchor="middle" x="792.5" y="-282" font-family="Helvetica,sans-Serif" font-size="10.00">Cpl/Text/Frame/Decoder_.h</text>
</a>
</g>
</g>
<!-- Node24&#45;&gt;Node25 -->
<g id="edge36_Node000024_Node000025" class="edge">
<title>Node24&#45;&gt;Node25</title>
<g id="a_edge36_Node000024_Node000025"><a xlink:title=" ">
<path fill="none" stroke="#63b8ff" d="M640.38,-335.49C671.1,-325.4 722.48,-308.51 756.92,-297.19"/>
<polygon fill="#63b8ff" stroke="#63b8ff" points="758.18,-300.46 766.59,-294.02 755.99,-293.81 758.18,-300.46"/>
</a>
</g>
</g>
<!-- Node26 -->
<g id="Node000026" class="node">
<title>Node26</title>
<g id="a_Node000026"><a xlink:href="_decoder_8h.html" target="_top" xlink:title=" ">
<polygon fill="white" stroke="#666666" points="863,-239 722,-239 722,-220 863,-220 863,-239"/>
<text text-anchor="middle" x="792.5" y="-227" font-family="Helvetica,sans-Serif" font-size="10.00">Cpl/Text/Frame/Decoder.h</text>
</a>
</g>
</g>
<!-- Node25&#45;&gt;Node26 -->
<g id="edge37_Node000025_Node000026" class="edge">
<title>Node25&#45;&gt;Node26</title>
<g id="a_edge37_Node000025_Node000026"><a xlink:title=" ">
<path fill="none" stroke="#63b8ff" d="M792.5,-274.75C792.5,-267.8 792.5,-257.85 792.5,-249.13"/>
<polygon fill="#63b8ff" stroke="#63b8ff" points="796,-249.09 792.5,-239.09 789,-249.09 796,-249.09"/>
</a>
</g>
</g>
<!-- Node27 -->
<g id="Node000027" class="node">
<title>Node27</title>
<g id="a_Node000027"><a xlink:title=" ">
<polygon fill="#e0e0e0" stroke="#999999" points="660,-184 607,-184 607,-165 660,-165 660,-184"/>
<text text-anchor="middle" x="633.5" y="-172" font-family="Helvetica,sans-Serif" font-size="10.00">stdlib.h</text>
</a>
</g>
</g>
<!-- Node26&#45;&gt;Node27 -->
<g id="edge38_Node000026_Node000027" class="edge">
<title>Node26&#45;&gt;Node27</title>
<g id="a_edge38_Node000026_Node000027"><a xlink:title=" ">
<path fill="none" stroke="#63b8ff" d="M766.95,-219.98C740.38,-211.13 698.56,-197.19 668.83,-187.28"/>
<polygon fill="#63b8ff" stroke="#63b8ff" points="669.84,-183.92 659.25,-184.08 667.63,-190.56 669.84,-183.92"/>
</a>
</g>
</g>
<!-- Node28&#45;&gt;Node16 -->
<g id="edge44_Node000028_Node000016" class="edge">
<title>Node28&#45;&gt;Node16</title>
<g id="a_edge44_Node000028_Node000016"><a xlink:title=" ">
<path fill="none" stroke="#63b8ff" d="M375.27,-335.37C367.96,-326.64 356.48,-312.93 347.4,-302.09"/>
<polygon fill="#63b8ff" stroke="#63b8ff" points="349.86,-299.59 340.76,-294.17 344.5,-304.08 349.86,-299.59"/>
</a>
</g>
</g>
<!-- Node29 -->
<g id="Node000029" class="node">
<title>Node29</title>
<g id="a_Node000029"><a xlink:href="_encoder___8h.html" target="_top" xlink:title=" ">
<polygon fill="white" stroke="#666666" points="700.5,-294 554.5,-294 554.5,-275 700.5,-275 700.5,-294"/>
<text text-anchor="middle" x="627.5" y="-282" font-family="Helvetica,sans-Serif" font-size="10.00">Cpl/Text/Frame/Encoder_.h</text>
</a>
</g>
</g>
<!-- Node28&#45;&gt;Node29 -->
<g id="edge41_Node000028_Node000029" class="edge">
<title>Node28&#45;&gt;Node29</title>
<g id="a_edge41_Node000028_Node000029"><a xlink:title=" ">
<path fill="none" stroke="#63b8ff" d="M418.13,-335.49C461.4,-325.16 534.48,-307.71 581.84,-296.4"/>
<polygon fill="#63b8ff" stroke="#63b8ff" points="582.92,-299.74 591.83,-294.02 581.29,-292.93 582.92,-299.74"/>
</a>
</g>
</g>
<!-- Node30 -->
<g id="Node000030" class="node">
<title>Node30</title>
<g id="a_Node000030"><a xlink:href="_encoder_8h.html" target="_top" xlink:title=" ">
<polygon fill="white" stroke="#666666" points="703.5,-239 563.5,-239 563.5,-220 703.5,-220 703.5,-239"/>
<text text-anchor="middle" x="633.5" y="-227" font-family="Helvetica,sans-Serif" font-size="10.00">Cpl/Text/Frame/Encoder.h</text>
</a>
</g>
</g>
<!-- Node29&#45;&gt;Node30 -->
<g id="edge42_Node000029_Node000030" class="edge">
<title>Node29&#45;&gt;Node30</title>
<g id="a_edge42_Node000029_Node000030"><a xlink:title=" ">
<path fill="none" stroke="#63b8ff" d="M628.49,-274.75C629.28,-267.8 630.4,-257.85 631.39,-249.13"/>
<polygon fill="#63b8ff" stroke="#63b8ff" points="634.88,-249.42 632.53,-239.09 627.92,-248.63 634.88,-249.42"/>
</a>
</g>
</g>
<!-- Node30&#45;&gt;Node27 -->
<g id="edge43_Node000030_Node000027" class="edge">
<title>Node30&#45;&gt;Node27</title>
<g id="a_edge43_Node000030_Node000027"><a xlink:title=" ">
<path fill="none" stroke="#63b8ff" d="M633.5,-219.75C633.5,-212.8 633.5,-202.85 633.5,-194.13"/>
<polygon fill="#63b8ff" stroke="#63b8ff" points="637,-194.09 633.5,-184.09 630,-194.09 637,-194.09"/>
</a>
</g>
</g>
<!-- Node31&#45;&gt;Node5 -->
<g id="edge46_Node000031_Node000005" class="edge">
<title>Node31&#45;&gt;Node5</title>
<g id="a_edge46_Node000031_Node000005"><a xlink:title=" ">
<path fill="none" stroke="#63b8ff" d="M69.55,-109.98C80.96,-101.92 98.33,-89.65 111.93,-80.03"/>
<polygon fill="#63b8ff" stroke="#63b8ff" points="114.08,-82.8 120.23,-74.17 110.04,-77.08 114.08,-82.8"/>
</a>
</g>
</g>
</g>
</svg>
