<?xml version="1.0" encoding="UTF-8" standalone="no"?>
<!DOCTYPE svg PUBLIC "-//W3C//DTD SVG 1.1//EN"
 "http://www.w3.org/Graphics/SVG/1.1/DTD/svg11.dtd">
<!-- Generated by graphviz version 2.43.0 (0)
 -->
<!-- Title: Driver/TPipe/Maker.h Pages: 1 -->
<svg width="944pt" height="478pt"
 viewBox="0.00 0.00 944.13 478.00" xmlns="http://www.w3.org/2000/svg" xmlns:xlink="http://www.w3.org/1999/xlink">
<g id="graph0" class="graph" transform="scale(1 1) rotate(0) translate(4 474)">
<title>Driver/TPipe/Maker.h</title>
<!-- Node1 -->
<g id="Node000001" class="node">
<title>Node1</title>
<g id="a_Node000001"><a xlink:title=" ">
<polygon fill="#999999" stroke="#666666" points="709.13,-470 591.13,-470 591.13,-451 709.13,-451 709.13,-470"/>
<text text-anchor="middle" x="650.13" y="-458" font-family="Helvetica,sans-Serif" font-size="10.00">Driver/TPipe/Maker.h</text>
</a>
</g>
</g>
<!-- Node2 -->
<g id="Node000002" class="node">
<title>Node2</title>
<g id="a_Node000002"><a xlink:title=" ">
<polygon fill="#e0e0e0" stroke="#999999" points="936.13,-19 844.13,-19 844.13,0 936.13,0 936.13,-19"/>
<text text-anchor="middle" x="890.13" y="-7" font-family="Helvetica,sans-Serif" font-size="10.00">colony_config.h</text>
</a>
</g>
</g>
<!-- Node1&#45;&gt;Node2 -->
<g id="edge1_Node000001_Node000002" class="edge">
<title>Node1&#45;&gt;Node2</title>
<g id="a_edge1_Node000001_Node000002"><a xlink:title=" ">
<path fill="none" stroke="#63b8ff" d="M694.49,-450.96C772.97,-434.56 928.13,-395.85 928.13,-346 928.13,-346 928.13,-346 928.13,-118.5 928.13,-85.02 911.68,-48.84 900.43,-28.01"/>
<polygon fill="#63b8ff" stroke="#63b8ff" points="903.36,-26.1 895.41,-19.1 897.26,-29.53 903.36,-26.1"/>
</a>
</g>
</g>
<!-- Node3 -->
<g id="Node000003" class="node">
<title>Node3</title>
<g id="a_Node000003"><a xlink:href="_pipe_8h.html" target="_top" xlink:title=" ">
<polygon fill="white" stroke="#666666" points="428.13,-415 318.13,-415 318.13,-396 428.13,-396 428.13,-415"/>
<text text-anchor="middle" x="373.13" y="-403" font-family="Helvetica,sans-Serif" font-size="10.00">Driver/TPipe/Pipe.h</text>
</a>
</g>
</g>
<!-- Node1&#45;&gt;Node3 -->
<g id="edge2_Node000001_Node000003" class="edge">
<title>Node1&#45;&gt;Node3</title>
<g id="a_edge2_Node000001_Node000003"><a xlink:title=" ">
<path fill="none" stroke="#63b8ff" d="M605.62,-450.98C557.31,-441.74 480.09,-426.97 428.04,-417.01"/>
<polygon fill="#63b8ff" stroke="#63b8ff" points="428.46,-413.52 417.98,-415.08 427.15,-420.4 428.46,-413.52"/>
</a>
</g>
</g>
<!-- Node4 -->
<g id="Node000004" class="node">
<title>Node4</title>
<g id="a_Node000004"><a xlink:href="_map_8h.html" target="_top" xlink:title=" ">
<polygon fill="white" stroke="#666666" points="890.13,-354.5 774.13,-354.5 774.13,-335.5 890.13,-335.5 890.13,-354.5"/>
<text text-anchor="middle" x="832.13" y="-342.5" font-family="Helvetica,sans-Serif" font-size="10.00">Cpl/Container/Map.h</text>
</a>
</g>
</g>
<!-- Node3&#45;&gt;Node4 -->
<g id="edge3_Node000003_Node000004" class="edge">
<title>Node3&#45;&gt;Node4</title>
<g id="a_edge3_Node000003_Node000004"><a xlink:title=" ">
<path fill="none" stroke="#63b8ff" d="M428.21,-399.87C504.26,-393.12 645.61,-379.23 765.13,-360 771.37,-359 777.9,-357.81 784.34,-356.55"/>
<polygon fill="#63b8ff" stroke="#63b8ff" points="785.22,-359.94 794.33,-354.54 783.84,-353.08 785.22,-359.94"/>
</a>
</g>
</g>
<!-- Node15 -->
<g id="Node000015" class="node">
<title>Node15</title>
<g id="a_Node000015"><a xlink:href="_tx_8h.html" target="_top" xlink:title=" ">
<polygon fill="white" stroke="#666666" points="153.63,-294 52.63,-294 52.63,-275 153.63,-275 153.63,-294"/>
<text text-anchor="middle" x="103.13" y="-282" font-family="Helvetica,sans-Serif" font-size="10.00">Driver/TPipe/Tx.h</text>
</a>
</g>
</g>
<!-- Node3&#45;&gt;Node15 -->
<g id="edge16_Node000003_Node000015" class="edge">
<title>Node3&#45;&gt;Node15</title>
<g id="a_edge16_Node000003_Node000015"><a xlink:title=" ">
<path fill="none" stroke="#63b8ff" d="M318.02,-398.53C261.08,-391.49 176.84,-378.37 150.13,-360 130.09,-346.22 116.82,-320.82 109.63,-303.55"/>
<polygon fill="#63b8ff" stroke="#63b8ff" points="112.81,-302.08 105.94,-294.02 106.29,-304.61 112.81,-302.08"/>
</a>
</g>
</g>
<!-- Node19 -->
<g id="Node000019" class="node">
<title>Node19</title>
<g id="a_Node000019"><a xlink:href="_rx_frame_handler_api_8h.html" target="_top" xlink:title=" ">
<polygon fill="white" stroke="#666666" points="755.63,-360 594.63,-360 594.63,-330 755.63,-330 755.63,-360"/>
<text text-anchor="start" x="602.63" y="-348" font-family="Helvetica,sans-Serif" font-size="10.00">Driver/TPipe/RxFrameHandler</text>
<text text-anchor="middle" x="675.13" y="-337" font-family="Helvetica,sans-Serif" font-size="10.00">Api.h</text>
</a>
</g>
</g>
<!-- Node3&#45;&gt;Node19 -->
<g id="edge23_Node000003_Node000019" class="edge">
<title>Node3&#45;&gt;Node19</title>
<g id="a_edge23_Node000003_Node000019"><a xlink:title=" ">
<path fill="none" stroke="#63b8ff" d="M417.04,-395.99C462.95,-387.1 536.08,-372.94 592.79,-361.95"/>
<polygon fill="#63b8ff" stroke="#63b8ff" points="593.66,-365.35 602.82,-360.01 592.33,-358.47 593.66,-365.35"/>
</a>
</g>
</g>
<!-- Node20 -->
<g id="Node000020" class="node">
<title>Node20</title>
<g id="a_Node000020"><a xlink:href="_stream_decoder_8h.html" target="_top" xlink:title=" ">
<polygon fill="white" stroke="#666666" points="345.13,-354.5 169.13,-354.5 169.13,-335.5 345.13,-335.5 345.13,-354.5"/>
<text text-anchor="middle" x="257.13" y="-342.5" font-family="Helvetica,sans-Serif" font-size="10.00">Cpl/Text/Frame/StreamDecoder.h</text>
</a>
</g>
</g>
<!-- Node3&#45;&gt;Node20 -->
<g id="edge25_Node000003_Node000020" class="edge">
<title>Node3&#45;&gt;Node20</title>
<g id="a_edge25_Node000003_Node000020"><a xlink:title=" ">
<path fill="none" stroke="#63b8ff" d="M356.01,-395.87C336.91,-386.23 305.76,-370.53 283.53,-359.31"/>
<polygon fill="#63b8ff" stroke="#63b8ff" points="284.82,-356.05 274.32,-354.67 281.67,-362.3 284.82,-356.05"/>
</a>
</g>
</g>
<!-- Node24 -->
<g id="Node000024" class="node">
<title>Node24</title>
<g id="a_Node000024"><a xlink:href="_input_8h.html" target="_top" xlink:title=" ">
<polygon fill="white" stroke="#666666" points="252.63,-294 171.63,-294 171.63,-275 252.63,-275 252.63,-294"/>
<text text-anchor="middle" x="212.13" y="-282" font-family="Helvetica,sans-Serif" font-size="10.00">Cpl/Io/Input.h</text>
</a>
</g>
</g>
<!-- Node3&#45;&gt;Node24 -->
<g id="edge45_Node000003_Node000024" class="edge">
<title>Node3&#45;&gt;Node24</title>
<g id="a_edge45_Node000003_Node000024"><a xlink:title=" ">
<path fill="none" stroke="#63b8ff" d="M317.94,-400.7C261.59,-395.54 179.67,-384.04 160.13,-360 151.72,-349.65 154.55,-342.11 160.13,-330 165.88,-317.52 177.04,-307.24 187.55,-299.71"/>
<polygon fill="#63b8ff" stroke="#63b8ff" points="189.7,-302.49 196.1,-294.05 185.83,-296.65 189.7,-302.49"/>
</a>
</g>
</g>
<!-- Node27 -->
<g id="Node000027" class="node">
<title>Node27</title>
<g id="a_Node000027"><a xlink:href="_stream_encoder_8h.html" target="_top" xlink:title=" ">
<polygon fill="white" stroke="#666666" points="576.63,-354.5 401.63,-354.5 401.63,-335.5 576.63,-335.5 576.63,-354.5"/>
<text text-anchor="middle" x="489.13" y="-342.5" font-family="Helvetica,sans-Serif" font-size="10.00">Cpl/Text/Frame/StreamEncoder.h</text>
</a>
</g>
</g>
<!-- Node3&#45;&gt;Node27 -->
<g id="edge34_Node000003_Node000027" class="edge">
<title>Node3&#45;&gt;Node27</title>
<g id="a_edge34_Node000003_Node000027"><a xlink:title=" ">
<path fill="none" stroke="#63b8ff" d="M390.25,-395.87C409.35,-386.23 440.5,-370.53 462.73,-359.31"/>
<polygon fill="#63b8ff" stroke="#63b8ff" points="464.59,-362.3 471.94,-354.67 461.44,-356.05 464.59,-362.3"/>
</a>
</g>
</g>
<!-- Node30 -->
<g id="Node000030" class="node">
<title>Node30</title>
<g id="a_Node000030"><a xlink:href="_output_8h.html" target="_top" xlink:title=" ">
<polygon fill="white" stroke="#666666" points="361.63,-294 272.63,-294 272.63,-275 361.63,-275 361.63,-294"/>
<text text-anchor="middle" x="317.13" y="-282" font-family="Helvetica,sans-Serif" font-size="10.00">Cpl/Io/Output.h</text>
</a>
</g>
</g>
<!-- Node3&#45;&gt;Node30 -->
<g id="edge46_Node000003_Node000030" class="edge">
<title>Node3&#45;&gt;Node30</title>
<g id="a_edge46_Node000003_Node000030"><a xlink:title=" ">
<path fill="none" stroke="#63b8ff" d="M372.17,-395.8C370.33,-381.42 365.41,-352.12 354.13,-330 348.84,-319.64 340.77,-309.55 333.51,-301.6"/>
<polygon fill="#63b8ff" stroke="#63b8ff" points="335.84,-298.97 326.4,-294.17 330.79,-303.82 335.84,-298.97"/>
</a>
</g>
</g>
<!-- Node31 -->
<g id="Node000031" class="node">
<title>Node31</title>
<g id="a_Node000031"><a xlink:href="_mutex_8h.html" target="_top" xlink:title=" ">
<polygon fill="white" stroke="#666666" points="129.63,-129 14.63,-129 14.63,-110 129.63,-110 129.63,-129"/>
<text text-anchor="middle" x="72.13" y="-117" font-family="Helvetica,sans-Serif" font-size="10.00">Cpl/System/Mutex.h</text>
</a>
</g>
</g>
<!-- Node3&#45;&gt;Node31 -->
<g id="edge43_Node000003_Node000031" class="edge">
<title>Node3&#45;&gt;Node31</title>
<g id="a_edge43_Node000003_Node000031"><a xlink:title=" ">
<path fill="none" stroke="#63b8ff" d="M318.11,-402.57C265.09,-398.96 183.64,-388.75 119.13,-360 70.12,-338.16 24.13,-339.16 24.13,-285.5 24.13,-285.5 24.13,-285.5 24.13,-228.5 24.13,-193.8 45.07,-157.82 59.29,-137.39"/>
<polygon fill="#63b8ff" stroke="#63b8ff" points="62.22,-139.31 65.25,-129.16 56.55,-135.21 62.22,-139.31"/>
</a>
</g>
</g>
<!-- Node5 -->
<g id="Node000005" class="node">
<title>Node5</title>
<g id="a_Node000005"><a xlink:href="_avl_tree___8h.html" target="_top" xlink:title=" ">
<polygon fill="white" stroke="#666666" points="899.63,-294 764.63,-294 764.63,-275 899.63,-275 899.63,-294"/>
<text text-anchor="middle" x="832.13" y="-282" font-family="Helvetica,sans-Serif" font-size="10.00">Cpl/Container/AvlTree_.h</text>
</a>
</g>
</g>
<!-- Node4&#45;&gt;Node5 -->
<g id="edge4_Node000004_Node000005" class="edge">
<title>Node4&#45;&gt;Node5</title>
<g id="a_edge4_Node000004_Node000005"><a xlink:title=" ">
<path fill="none" stroke="#63b8ff" d="M832.13,-335.37C832.13,-327.25 832.13,-314.81 832.13,-304.39"/>
<polygon fill="#63b8ff" stroke="#63b8ff" points="835.63,-304.17 832.13,-294.17 828.63,-304.17 835.63,-304.17"/>
</a>
</g>
</g>
<!-- Node5&#45;&gt;Node2 -->
<g id="edge5_Node000005_Node000002" class="edge">
<title>Node5&#45;&gt;Node2</title>
<g id="a_edge5_Node000005_Node000002"><a xlink:title=" ">
<path fill="none" stroke="#63b8ff" d="M841.78,-274.85C850.59,-266.48 863.37,-253.02 871.13,-239 885.39,-213.22 890.13,-204.96 890.13,-175.5 890.13,-175.5 890.13,-175.5 890.13,-118.5 890.13,-87.19 890.13,-50.77 890.13,-29.23"/>
<polygon fill="#63b8ff" stroke="#63b8ff" points="893.63,-29.18 890.13,-19.18 886.63,-29.18 893.63,-29.18"/>
</a>
</g>
</g>
<!-- Node6 -->
<g id="Node000006" class="node">
<title>Node6</title>
<g id="a_Node000006"><a xlink:href="_map_item_8h.html" target="_top" xlink:title=" ">
<polygon fill="white" stroke="#666666" points="862.13,-239 724.13,-239 724.13,-220 862.13,-220 862.13,-239"/>
<text text-anchor="middle" x="793.13" y="-227" font-family="Helvetica,sans-Serif" font-size="10.00">Cpl/Container/MapItem.h</text>
</a>
</g>
</g>
<!-- Node5&#45;&gt;Node6 -->
<g id="edge6_Node000005_Node000006" class="edge">
<title>Node5&#45;&gt;Node6</title>
<g id="a_edge6_Node000005_Node000006"><a xlink:title=" ">
<path fill="none" stroke="#63b8ff" d="M825.69,-274.75C820.24,-267.34 812.26,-256.5 805.57,-247.41"/>
<polygon fill="#63b8ff" stroke="#63b8ff" points="808.2,-245.07 799.45,-239.09 802.56,-249.22 808.2,-245.07"/>
</a>
</g>
</g>
<!-- Node7 -->
<g id="Node000007" class="node">
<title>Node7</title>
<g id="a_Node000007"><a xlink:href="_dict_item_8h.html" target="_top" xlink:title=" ">
<polygon fill="white" stroke="#666666" points="658.63,-184 521.63,-184 521.63,-165 658.63,-165 658.63,-184"/>
<text text-anchor="middle" x="590.13" y="-172" font-family="Helvetica,sans-Serif" font-size="10.00">Cpl/Container/DictItem.h</text>
</a>
</g>
</g>
<!-- Node6&#45;&gt;Node7 -->
<g id="edge7_Node000006_Node000007" class="edge">
<title>Node6&#45;&gt;Node7</title>
<g id="a_edge7_Node000006_Node000007"><a xlink:title=" ">
<path fill="none" stroke="#63b8ff" d="M760.51,-219.98C725.84,-210.93 670.87,-196.58 632.78,-186.64"/>
<polygon fill="#63b8ff" stroke="#63b8ff" points="633.56,-183.22 623,-184.08 631.79,-189.99 633.56,-183.22"/>
</a>
</g>
</g>
<!-- Node8 -->
<g id="Node000008" class="node">
<title>Node8</title>
<g id="a_Node000008"><a xlink:href="_item_8h.html" target="_top" xlink:title=" ">
<polygon fill="white" stroke="#666666" points="541.63,-129 424.63,-129 424.63,-110 541.63,-110 541.63,-129"/>
<text text-anchor="middle" x="483.13" y="-117" font-family="Helvetica,sans-Serif" font-size="10.00">Cpl/Container/Item.h</text>
</a>
</g>
</g>
<!-- Node7&#45;&gt;Node8 -->
<g id="edge8_Node000007_Node000008" class="edge">
<title>Node7&#45;&gt;Node8</title>
<g id="a_edge8_Node000007_Node000008"><a xlink:title=" ">
<path fill="none" stroke="#63b8ff" d="M572.94,-164.98C555.88,-156.54 529.5,-143.47 509.73,-133.68"/>
<polygon fill="#63b8ff" stroke="#63b8ff" points="511.15,-130.47 500.63,-129.17 508.04,-136.75 511.15,-130.47"/>
</a>
</g>
</g>
<!-- Node9 -->
<g id="Node000009" class="node">
<title>Node9</title>
<g id="a_Node000009"><a xlink:href="_key_8h.html" target="_top" xlink:title=" ">
<polygon fill="white" stroke="#666666" points="298.63,-129 187.63,-129 187.63,-110 298.63,-110 298.63,-129"/>
<text text-anchor="middle" x="243.13" y="-117" font-family="Helvetica,sans-Serif" font-size="10.00">Cpl/Container/Key.h</text>
</a>
</g>
</g>
<!-- Node7&#45;&gt;Node9 -->
<g id="edge9_Node000007_Node000009" class="edge">
<title>Node7&#45;&gt;Node9</title>
<g id="a_edge9_Node000007_Node000009"><a xlink:title=" ">
<path fill="none" stroke="#63b8ff" d="M534.38,-164.98C472.91,-155.6 374.12,-140.51 308.91,-130.55"/>
<polygon fill="#63b8ff" stroke="#63b8ff" points="309.16,-127.04 298.74,-128.99 308.1,-133.96 309.16,-127.04"/>
</a>
</g>
</g>
<!-- Node10 -->
<g id="Node000010" class="node">
<title>Node10</title>
<g id="a_Node000010"><a xlink:href="_fatal_error_8h.html" target="_top" xlink:title=" ">
<polygon fill="white" stroke="#666666" points="641.13,-74 511.13,-74 511.13,-55 641.13,-55 641.13,-74"/>
<text text-anchor="middle" x="576.13" y="-62" font-family="Helvetica,sans-Serif" font-size="10.00">Cpl/System/FatalError.h</text>
</a>
</g>
</g>
<!-- Node9&#45;&gt;Node10 -->
<g id="edge10_Node000009_Node000010" class="edge">
<title>Node9&#45;&gt;Node10</title>
<g id="a_edge10_Node000009_Node000010"><a xlink:title=" ">
<path fill="none" stroke="#63b8ff" d="M296.63,-109.98C355.41,-100.63 449.76,-85.61 512.34,-75.65"/>
<polygon fill="#63b8ff" stroke="#63b8ff" points="513.16,-79.07 522.48,-74.04 512.06,-72.15 513.16,-79.07"/>
</a>
</g>
</g>
<!-- Node12 -->
<g id="Node000012" class="node">
<title>Node12</title>
<g id="a_Node000012"><a xlink:title=" ">
<polygon fill="#e0e0e0" stroke="#999999" points="270.63,-74 217.63,-74 217.63,-55 270.63,-55 270.63,-74"/>
<text text-anchor="middle" x="244.13" y="-62" font-family="Helvetica,sans-Serif" font-size="10.00">stdint.h</text>
</a>
</g>
</g>
<!-- Node9&#45;&gt;Node12 -->
<g id="edge13_Node000009_Node000012" class="edge">
<title>Node9&#45;&gt;Node12</title>
<g id="a_edge13_Node000009_Node000012"><a xlink:title=" ">
<path fill="none" stroke="#63b8ff" d="M243.29,-109.75C243.43,-102.8 243.61,-92.85 243.78,-84.13"/>
<polygon fill="#63b8ff" stroke="#63b8ff" points="247.28,-84.15 243.97,-74.09 240.28,-84.02 247.28,-84.15"/>
</a>
</g>
</g>
<!-- Node13 -->
<g id="Node000013" class="node">
<title>Node13</title>
<g id="a_Node000013"><a xlink:title=" ">
<polygon fill="#e0e0e0" stroke="#999999" points="54.63,-74 1.63,-74 1.63,-55 54.63,-55 54.63,-74"/>
<text text-anchor="middle" x="28.13" y="-62" font-family="Helvetica,sans-Serif" font-size="10.00">string.h</text>
</a>
</g>
</g>
<!-- Node9&#45;&gt;Node13 -->
<g id="edge14_Node000009_Node000013" class="edge">
<title>Node9&#45;&gt;Node13</title>
<g id="a_edge14_Node000009_Node000013"><a xlink:title=" ">
<path fill="none" stroke="#63b8ff" d="M208.59,-109.98C169.17,-100.27 104.96,-84.44 64.71,-74.52"/>
<polygon fill="#63b8ff" stroke="#63b8ff" points="65.32,-71.06 54.78,-72.07 63.65,-77.86 65.32,-71.06"/>
</a>
</g>
</g>
<!-- Node14 -->
<g id="Node000014" class="node">
<title>Node14</title>
<g id="a_Node000014"><a xlink:title=" ">
<polygon fill="#e0e0e0" stroke="#999999" points="199.63,-74 114.63,-74 114.63,-55 199.63,-55 199.63,-74"/>
<text text-anchor="middle" x="157.13" y="-62" font-family="Helvetica,sans-Serif" font-size="10.00">colony_map.h</text>
</a>
</g>
</g>
<!-- Node9&#45;&gt;Node14 -->
<g id="edge15_Node000009_Node000014" class="edge">
<title>Node9&#45;&gt;Node14</title>
<g id="a_edge15_Node000009_Node000014"><a xlink:title=" ">
<path fill="none" stroke="#63b8ff" d="M229.31,-109.98C215.98,-101.77 195.55,-89.18 179.82,-79.49"/>
<polygon fill="#63b8ff" stroke="#63b8ff" points="181.55,-76.44 171.2,-74.17 177.87,-82.4 181.55,-76.44"/>
</a>
</g>
</g>
<!-- Node10&#45;&gt;Node2 -->
<g id="edge12_Node000010_Node000002" class="edge">
<title>Node10&#45;&gt;Node2</title>
<g id="a_edge12_Node000010_Node000002"><a xlink:title=" ">
<path fill="none" stroke="#63b8ff" d="M626.58,-54.98C683.28,-45.41 775.09,-29.92 834.01,-19.97"/>
<polygon fill="#63b8ff" stroke="#63b8ff" points="834.62,-23.42 843.9,-18.3 833.45,-16.52 834.62,-23.42"/>
</a>
</g>
</g>
<!-- Node11 -->
<g id="Node000011" class="node">
<title>Node11</title>
<g id="a_Node000011"><a xlink:title=" ">
<polygon fill="#e0e0e0" stroke="#999999" points="604.13,-19 548.13,-19 548.13,0 604.13,0 604.13,-19"/>
<text text-anchor="middle" x="576.13" y="-7" font-family="Helvetica,sans-Serif" font-size="10.00">stddef.h</text>
</a>
</g>
</g>
<!-- Node10&#45;&gt;Node11 -->
<g id="edge11_Node000010_Node000011" class="edge">
<title>Node10&#45;&gt;Node11</title>
<g id="a_edge11_Node000010_Node000011"><a xlink:title=" ">
<path fill="none" stroke="#63b8ff" d="M576.13,-54.75C576.13,-47.8 576.13,-37.85 576.13,-29.13"/>
<polygon fill="#63b8ff" stroke="#63b8ff" points="579.63,-29.09 576.13,-19.09 572.63,-29.09 579.63,-29.09"/>
</a>
</g>
</g>
<!-- Node15&#45;&gt;Node13 -->
<g id="edge22_Node000015_Node000013" class="edge">
<title>Node15&#45;&gt;Node13</title>
<g id="a_edge22_Node000015_Node000013"><a xlink:title=" ">
<path fill="none" stroke="#63b8ff" d="M86.7,-275C73.25,-267.27 54.63,-254.69 43.13,-239 7.79,-190.8 -8.99,-168.08 5.13,-110 7.44,-100.51 12.15,-90.78 16.71,-82.85"/>
<polygon fill="#63b8ff" stroke="#63b8ff" points="19.77,-84.55 22.03,-74.2 13.81,-80.89 19.77,-84.55"/>
</a>
</g>
</g>
<!-- Node16 -->
<g id="Node000016" class="node">
<title>Node16</title>
<g id="a_Node000016"><a xlink:href="_text_2_string_8h.html" target="_top" xlink:title=" ">
<polygon fill="white" stroke="#666666" points="148.13,-239 52.13,-239 52.13,-220 148.13,-220 148.13,-239"/>
<text text-anchor="middle" x="100.13" y="-227" font-family="Helvetica,sans-Serif" font-size="10.00">Cpl/Text/String.h</text>
</a>
</g>
</g>
<!-- Node15&#45;&gt;Node16 -->
<g id="edge17_Node000015_Node000016" class="edge">
<title>Node15&#45;&gt;Node16</title>
<g id="a_edge17_Node000015_Node000016"><a xlink:title=" ">
<path fill="none" stroke="#63b8ff" d="M102.63,-274.75C102.24,-267.8 101.68,-257.85 101.18,-249.13"/>
<polygon fill="#63b8ff" stroke="#63b8ff" points="104.68,-248.88 100.62,-239.09 97.69,-249.27 104.68,-248.88"/>
</a>
</g>
</g>
<!-- Node16&#45;&gt;Node9 -->
<g id="edge19_Node000016_Node000009" class="edge">
<title>Node16&#45;&gt;Node9</title>
<g id="a_edge19_Node000016_Node000009"><a xlink:title=" ">
<path fill="none" stroke="#63b8ff" d="M115.81,-219.88C130.75,-211.42 153.65,-197.81 172.13,-184 192.06,-169.11 213.09,-149.78 227.04,-136.38"/>
<polygon fill="#63b8ff" stroke="#63b8ff" points="229.64,-138.74 234.38,-129.26 224.77,-133.72 229.64,-138.74"/>
</a>
</g>
</g>
<!-- Node16&#45;&gt;Node14 -->
<g id="edge18_Node000016_Node000014" class="edge">
<title>Node16&#45;&gt;Node14</title>
<g id="a_edge18_Node000016_Node000014"><a xlink:title=" ">
<path fill="none" stroke="#63b8ff" d="M110.59,-219.77C119.7,-211.54 132.46,-198.35 139.13,-184 154.36,-151.24 157.21,-108.42 157.47,-84.25"/>
<polygon fill="#63b8ff" stroke="#63b8ff" points="160.97,-83.99 157.43,-74.01 153.97,-84.02 160.97,-83.99"/>
</a>
</g>
</g>
<!-- Node17 -->
<g id="Node000017" class="node">
<title>Node17</title>
<g id="a_Node000017"><a xlink:title=" ">
<polygon fill="#e0e0e0" stroke="#999999" points="374.13,-184 318.13,-184 318.13,-165 374.13,-165 374.13,-184"/>
<text text-anchor="middle" x="346.13" y="-172" font-family="Helvetica,sans-Serif" font-size="10.00">stdarg.h</text>
</a>
</g>
</g>
<!-- Node16&#45;&gt;Node17 -->
<g id="edge20_Node000016_Node000017" class="edge">
<title>Node16&#45;&gt;Node17</title>
<g id="a_edge20_Node000016_Node000017"><a xlink:title=" ">
<path fill="none" stroke="#63b8ff" d="M139.65,-219.98C185.99,-210 262.26,-193.57 308,-183.72"/>
<polygon fill="#63b8ff" stroke="#63b8ff" points="308.78,-187.13 317.82,-181.6 307.31,-180.28 308.78,-187.13"/>
</a>
</g>
</g>
<!-- Node18 -->
<g id="Node000018" class="node">
<title>Node18</title>
<g id="a_Node000018"><a xlink:title=" ">
<polygon fill="#e0e0e0" stroke="#999999" points="130.13,-184 70.13,-184 70.13,-165 130.13,-165 130.13,-184"/>
<text text-anchor="middle" x="100.13" y="-172" font-family="Helvetica,sans-Serif" font-size="10.00">iostream</text>
</a>
</g>
</g>
<!-- Node16&#45;&gt;Node18 -->
<g id="edge21_Node000016_Node000018" class="edge">
<title>Node16&#45;&gt;Node18</title>
<g id="a_edge21_Node000016_Node000018"><a xlink:title=" ">
<path fill="none" stroke="#63b8ff" d="M100.13,-219.75C100.13,-212.8 100.13,-202.85 100.13,-194.13"/>
<polygon fill="#63b8ff" stroke="#63b8ff" points="103.63,-194.09 100.13,-184.09 96.63,-194.09 103.63,-194.09"/>
</a>
</g>
</g>
<!-- Node19&#45;&gt;Node6 -->
<g id="edge24_Node000019_Node000006" class="edge">
<title>Node19&#45;&gt;Node6</title>
<g id="a_edge24_Node000019_Node000006"><a xlink:title=" ">
<path fill="none" stroke="#63b8ff" d="M690.07,-329.63C712.26,-308.28 753.77,-268.36 776.76,-246.25"/>
<polygon fill="#63b8ff" stroke="#63b8ff" points="779.27,-248.68 784.05,-239.23 774.42,-243.64 779.27,-248.68"/>
</a>
</g>
</g>
<!-- Node21 -->
<g id="Node000021" class="node">
<title>Node21</title>
<g id="a_Node000021"><a xlink:href="_decoder___8h.html" target="_top" xlink:title=" ">
<polygon fill="white" stroke="#666666" points="535.63,-294 388.63,-294 388.63,-275 535.63,-275 535.63,-294"/>
<text text-anchor="middle" x="462.13" y="-282" font-family="Helvetica,sans-Serif" font-size="10.00">Cpl/Text/Frame/Decoder_.h</text>
</a>
</g>
</g>
<!-- Node20&#45;&gt;Node21 -->
<g id="edge26_Node000020_Node000021" class="edge">
<title>Node20&#45;&gt;Node21</title>
<g id="a_edge26_Node000020_Node000021"><a xlink:title=" ">
<path fill="none" stroke="#63b8ff" d="M286.94,-335.49C322.69,-325.29 382.76,-308.15 422.42,-296.83"/>
<polygon fill="#63b8ff" stroke="#63b8ff" points="423.63,-300.13 432.28,-294.02 421.71,-293.4 423.63,-300.13"/>
</a>
</g>
</g>
<!-- Node20&#45;&gt;Node24 -->
<g id="edge29_Node000020_Node000024" class="edge">
<title>Node20&#45;&gt;Node24</title>
<g id="a_edge29_Node000020_Node000024"><a xlink:title=" ">
<path fill="none" stroke="#63b8ff" d="M250.49,-335.37C243.84,-326.73 233.44,-313.2 225.14,-302.42"/>
<polygon fill="#63b8ff" stroke="#63b8ff" points="227.67,-299.96 218.8,-294.17 222.12,-304.23 227.67,-299.96"/>
</a>
</g>
</g>
<!-- Node22 -->
<g id="Node000022" class="node">
<title>Node22</title>
<g id="a_Node000022"><a xlink:href="_decoder_8h.html" target="_top" xlink:title=" ">
<polygon fill="white" stroke="#666666" points="547.63,-239 406.63,-239 406.63,-220 547.63,-220 547.63,-239"/>
<text text-anchor="middle" x="477.13" y="-227" font-family="Helvetica,sans-Serif" font-size="10.00">Cpl/Text/Frame/Decoder.h</text>
</a>
</g>
</g>
<!-- Node21&#45;&gt;Node22 -->
<g id="edge27_Node000021_Node000022" class="edge">
<title>Node21&#45;&gt;Node22</title>
<g id="a_edge27_Node000021_Node000022"><a xlink:title=" ">
<path fill="none" stroke="#63b8ff" d="M464.61,-274.75C466.59,-267.72 469.45,-257.62 471.94,-248.84"/>
<polygon fill="#63b8ff" stroke="#63b8ff" points="475.34,-249.66 474.7,-239.09 468.61,-247.76 475.34,-249.66"/>
</a>
</g>
</g>
<!-- Node23 -->
<g id="Node000023" class="node">
<title>Node23</title>
<g id="a_Node000023"><a xlink:title=" ">
<polygon fill="#e0e0e0" stroke="#999999" points="503.63,-184 450.63,-184 450.63,-165 503.63,-165 503.63,-184"/>
<text text-anchor="middle" x="477.13" y="-172" font-family="Helvetica,sans-Serif" font-size="10.00">stdlib.h</text>
</a>
</g>
</g>
<!-- Node22&#45;&gt;Node23 -->
<g id="edge28_Node000022_Node000023" class="edge">
<title>Node22&#45;&gt;Node23</title>
<g id="a_edge28_Node000022_Node000023"><a xlink:title=" ">
<path fill="none" stroke="#63b8ff" d="M477.13,-219.75C477.13,-212.8 477.13,-202.85 477.13,-194.13"/>
<polygon fill="#63b8ff" stroke="#63b8ff" points="480.63,-194.09 477.13,-184.09 473.63,-194.09 480.63,-194.09"/>
</a>
</g>
</g>
<!-- Node24&#45;&gt;Node16 -->
<g id="edge30_Node000024_Node000016" class="edge">
<title>Node24&#45;&gt;Node16</title>
<g id="a_edge30_Node000024_Node000016"><a xlink:title=" ">
<path fill="none" stroke="#63b8ff" d="M194.13,-274.98C176.2,-266.5 148.41,-253.35 127.7,-243.54"/>
<polygon fill="#63b8ff" stroke="#63b8ff" points="128.99,-240.28 118.45,-239.17 125.99,-246.61 128.99,-240.28"/>
</a>
</g>
</g>
<!-- Node25 -->
<g id="Node000025" class="node">
<title>Node25</title>
<g id="a_Node000025"><a xlink:href="_close_8h.html" target="_top" xlink:title=" ">
<polygon fill="white" stroke="#666666" points="249.63,-239 166.63,-239 166.63,-220 249.63,-220 249.63,-239"/>
<text text-anchor="middle" x="208.13" y="-227" font-family="Helvetica,sans-Serif" font-size="10.00">Cpl/Io/Close.h</text>
</a>
</g>
</g>
<!-- Node24&#45;&gt;Node25 -->
<g id="edge31_Node000024_Node000025" class="edge">
<title>Node24&#45;&gt;Node25</title>
<g id="a_edge31_Node000024_Node000025"><a xlink:title=" ">
<path fill="none" stroke="#63b8ff" d="M211.47,-274.75C210.94,-267.8 210.19,-257.85 209.54,-249.13"/>
<polygon fill="#63b8ff" stroke="#63b8ff" points="213.02,-248.8 208.78,-239.09 206.04,-249.32 213.02,-248.8"/>
</a>
</g>
</g>
<!-- Node26 -->
<g id="Node000026" class="node">
<title>Node26</title>
<g id="a_Node000026"><a xlink:href="_is_eos_8h.html" target="_top" xlink:title=" ">
<polygon fill="white" stroke="#666666" points="350.13,-239 268.13,-239 268.13,-220 350.13,-220 350.13,-239"/>
<text text-anchor="middle" x="309.13" y="-227" font-family="Helvetica,sans-Serif" font-size="10.00">Cpl/Io/IsEos.h</text>
</a>
</g>
</g>
<!-- Node24&#45;&gt;Node26 -->
<g id="edge33_Node000024_Node000026" class="edge">
<title>Node24&#45;&gt;Node26</title>
<g id="a_edge33_Node000024_Node000026"><a xlink:title=" ">
<path fill="none" stroke="#63b8ff" d="M227.71,-274.98C242.9,-266.69 266.23,-253.94 284.03,-244.22"/>
<polygon fill="#63b8ff" stroke="#63b8ff" points="286.16,-247.04 293.26,-239.17 282.81,-240.89 286.16,-247.04"/>
</a>
</g>
</g>
<!-- Node25&#45;&gt;Node8 -->
<g id="edge32_Node000025_Node000008" class="edge">
<title>Node25&#45;&gt;Node8</title>
<g id="a_edge32_Node000025_Node000008"><a xlink:title=" ">
<path fill="none" stroke="#63b8ff" d="M219.29,-219.83C237.26,-206.27 274.11,-180.05 309.13,-165 345.63,-149.32 388.91,-138.22 423.17,-131.03"/>
<polygon fill="#63b8ff" stroke="#63b8ff" points="423.94,-134.45 433.03,-129.02 422.53,-127.59 423.94,-134.45"/>
</a>
</g>
</g>
<!-- Node28 -->
<g id="Node000028" class="node">
<title>Node28</title>
<g id="a_Node000028"><a xlink:href="_encoder___8h.html" target="_top" xlink:title=" ">
<polygon fill="white" stroke="#666666" points="705.13,-294 559.13,-294 559.13,-275 705.13,-275 705.13,-294"/>
<text text-anchor="middle" x="632.13" y="-282" font-family="Helvetica,sans-Serif" font-size="10.00">Cpl/Text/Frame/Encoder_.h</text>
</a>
</g>
</g>
<!-- Node27&#45;&gt;Node28 -->
<g id="edge35_Node000027_Node000028" class="edge">
<title>Node27&#45;&gt;Node28</title>
<g id="a_edge35_Node000027_Node000028"><a xlink:title=" ">
<path fill="none" stroke="#63b8ff" d="M509.92,-335.49C534.07,-325.62 574.11,-309.23 601.74,-297.93"/>
<polygon fill="#63b8ff" stroke="#63b8ff" points="603.38,-301.04 611.31,-294.02 600.73,-294.56 603.38,-301.04"/>
</a>
</g>
</g>
<!-- Node27&#45;&gt;Node30 -->
<g id="edge38_Node000027_Node000030" class="edge">
<title>Node27&#45;&gt;Node30</title>
<g id="a_edge38_Node000027_Node000030"><a xlink:title=" ">
<path fill="none" stroke="#63b8ff" d="M464.12,-335.49C434.57,-325.44 385.22,-308.66 351.94,-297.34"/>
<polygon fill="#63b8ff" stroke="#63b8ff" points="352.76,-293.92 342.17,-294.02 350.51,-300.55 352.76,-293.92"/>
</a>
</g>
</g>
<!-- Node29 -->
<g id="Node000029" class="node">
<title>Node29</title>
<g id="a_Node000029"><a xlink:href="_encoder_8h.html" target="_top" xlink:title=" ">
<polygon fill="white" stroke="#666666" points="706.13,-239 566.13,-239 566.13,-220 706.13,-220 706.13,-239"/>
<text text-anchor="middle" x="636.13" y="-227" font-family="Helvetica,sans-Serif" font-size="10.00">Cpl/Text/Frame/Encoder.h</text>
</a>
</g>
</g>
<!-- Node28&#45;&gt;Node29 -->
<g id="edge36_Node000028_Node000029" class="edge">
<title>Node28&#45;&gt;Node29</title>
<g id="a_edge36_Node000028_Node000029"><a xlink:title=" ">
<path fill="none" stroke="#63b8ff" d="M632.79,-274.75C633.31,-267.8 634.07,-257.85 634.72,-249.13"/>
<polygon fill="#63b8ff" stroke="#63b8ff" points="638.22,-249.32 635.48,-239.09 631.24,-248.8 638.22,-249.32"/>
</a>
</g>
</g>
<!-- Node29&#45;&gt;Node23 -->
<g id="edge37_Node000029_Node000023" class="edge">
<title>Node29&#45;&gt;Node23</title>
<g id="a_edge37_Node000029_Node000023"><a xlink:title=" ">
<path fill="none" stroke="#63b8ff" d="M610.58,-219.98C584,-211.13 542.19,-197.19 512.46,-187.28"/>
<polygon fill="#63b8ff" stroke="#63b8ff" points="513.47,-183.92 502.88,-184.08 511.26,-190.56 513.47,-183.92"/>
</a>
</g>
</g>
<!-- Node30&#45;&gt;Node16 -->
<g id="edge39_Node000030_Node000016" class="edge">
<title>Node30&#45;&gt;Node16</title>
<g id="a_edge39_Node000030_Node000016"><a xlink:title=" ">
<path fill="none" stroke="#63b8ff" d="M282.26,-274.98C245.04,-265.89 185.93,-251.46 145.2,-241.51"/>
<polygon fill="#63b8ff" stroke="#63b8ff" points="145.81,-238.05 135.27,-239.08 144.15,-244.85 145.81,-238.05"/>
</a>
</g>
</g>
<!-- Node30&#45;&gt;Node17 -->
<g id="edge42_Node000030_Node000017" class="edge">
<title>Node30&#45;&gt;Node17</title>
<g id="a_edge42_Node000030_Node000017"><a xlink:title=" ">
<path fill="none" stroke="#63b8ff" d="M329.34,-274.86C339.48,-266.88 353.17,-254.01 359.13,-239 364.97,-224.31 360.49,-206.63 355.25,-193.65"/>
<polygon fill="#63b8ff" stroke="#63b8ff" points="358.38,-192.08 351.07,-184.41 352,-194.96 358.38,-192.08"/>
</a>
</g>
</g>
<!-- Node30&#45;&gt;Node25 -->
<g id="edge40_Node000030_Node000025" class="edge">
<title>Node30&#45;&gt;Node25</title>
<g id="a_edge40_Node000030_Node000025"><a xlink:title=" ">
<path fill="none" stroke="#63b8ff" d="M299.62,-274.98C282.16,-266.5 255.12,-253.35 234.96,-243.54"/>
<polygon fill="#63b8ff" stroke="#63b8ff" points="236.48,-240.4 225.96,-239.17 233.42,-246.69 236.48,-240.4"/>
</a>
</g>
</g>
<!-- Node30&#45;&gt;Node26 -->
<g id="edge41_Node000030_Node000026" class="edge">
<title>Node30&#45;&gt;Node26</title>
<g id="a_edge41_Node000030_Node000026"><a xlink:title=" ">
<path fill="none" stroke="#63b8ff" d="M315.81,-274.75C314.76,-267.8 313.26,-257.85 311.94,-249.13"/>
<polygon fill="#63b8ff" stroke="#63b8ff" points="315.38,-248.45 310.43,-239.09 308.46,-249.5 315.38,-248.45"/>
</a>
</g>
</g>
<!-- Node31&#45;&gt;Node14 -->
<g id="edge44_Node000031_Node000014" class="edge">
<title>Node31&#45;&gt;Node14</title>
<g id="a_edge44_Node000031_Node000014"><a xlink:title=" ">
<path fill="none" stroke="#63b8ff" d="M85.79,-109.98C98.97,-101.77 119.16,-89.18 134.7,-79.49"/>
<polygon fill="#63b8ff" stroke="#63b8ff" points="136.59,-82.43 143.22,-74.17 132.89,-76.49 136.59,-82.43"/>
</a>
</g>
</g>
</g>
</svg>
