<?xml version="1.0" encoding="UTF-8" standalone="no"?>
<!DOCTYPE svg PUBLIC "-//W3C//DTD SVG 1.1//EN"
 "http://www.w3.org/Graphics/SVG/1.1/DTD/svg11.dtd">
<!-- Generated by graphviz version 2.43.0 (0)
 -->
<!-- Title: Cpl/Dm/Mp/ElapsedPrecisionTime.h Pages: 1 -->
<svg width="2118pt" height="423pt"
 viewBox="0.00 0.00 2117.50 423.00" xmlns="http://www.w3.org/2000/svg" xmlns:xlink="http://www.w3.org/1999/xlink">
<g id="graph0" class="graph" transform="scale(1 1) rotate(0) translate(4 419)">
<title>Cpl/Dm/Mp/ElapsedPrecisionTime.h</title>
<!-- Node1 -->
<g id="Node000001" class="node">
<title>Node1</title>
<g id="a_Node000001"><a xlink:title=" ">
<polygon fill="#999999" stroke="#666666" points="1943,-415 1787,-415 1787,-385 1943,-385 1943,-415"/>
<text text-anchor="start" x="1795" y="-403" font-family="Helvetica,sans-Serif" font-size="10.00">Cpl/Dm/Mp/ElapsedPrecision</text>
<text text-anchor="middle" x="1865" y="-392" font-family="Helvetica,sans-Serif" font-size="10.00">Time.h</text>
</a>
</g>
</g>
<!-- Node2 -->
<g id="Node000002" class="node">
<title>Node2</title>
<g id="a_Node000002"><a xlink:href="_model_point_common___8h.html" target="_top" xlink:title=" ">
<polygon fill="white" stroke="#666666" points="1803.5,-349 1634.5,-349 1634.5,-330 1803.5,-330 1803.5,-349"/>
<text text-anchor="middle" x="1719" y="-337" font-family="Helvetica,sans-Serif" font-size="10.00">Cpl/Dm/ModelPointCommon_.h</text>
</a>
</g>
</g>
<!-- Node1&#45;&gt;Node2 -->
<g id="edge1_Node000001_Node000002" class="edge">
<title>Node1&#45;&gt;Node2</title>
<g id="a_edge1_Node000001_Node000002"><a xlink:title=" ">
<path fill="none" stroke="#63b8ff" d="M1830.03,-384.99C1805.67,-375.23 1773.47,-362.33 1750.03,-352.93"/>
<polygon fill="#63b8ff" stroke="#63b8ff" points="1751.15,-349.61 1740.56,-349.14 1748.54,-356.11 1751.15,-349.61"/>
</a>
</g>
</g>
<!-- Node36 -->
<g id="Node000036" class="node">
<title>Node36</title>
<g id="a_Node000036"><a xlink:href="_elapsed_time_8h.html" target="_top" xlink:title=" ">
<polygon fill="white" stroke="#666666" points="2089.5,-349 1942.5,-349 1942.5,-330 2089.5,-330 2089.5,-349"/>
<text text-anchor="middle" x="2016" y="-337" font-family="Helvetica,sans-Serif" font-size="10.00">Cpl/System/ElapsedTime.h</text>
</a>
</g>
</g>
<!-- Node1&#45;&gt;Node36 -->
<g id="edge65_Node000001_Node000036" class="edge">
<title>Node1&#45;&gt;Node36</title>
<g id="a_edge65_Node000001_Node000036"><a xlink:title=" ">
<path fill="none" stroke="#63b8ff" d="M1901.17,-384.99C1926.47,-375.18 1959.96,-362.21 1984.24,-352.81"/>
<polygon fill="#63b8ff" stroke="#63b8ff" points="1985.64,-356.02 1993.7,-349.14 1983.11,-349.49 1985.64,-356.02"/>
</a>
</g>
</g>
<!-- Node3 -->
<g id="Node000003" class="node">
<title>Node3</title>
<g id="a_Node000003"><a xlink:href="_model_point_8h.html" target="_top" xlink:title=" ">
<polygon fill="white" stroke="#666666" points="668.5,-239 549.5,-239 549.5,-220 668.5,-220 668.5,-239"/>
<text text-anchor="middle" x="609" y="-227" font-family="Helvetica,sans-Serif" font-size="10.00">Cpl/Dm/ModelPoint.h</text>
</a>
</g>
</g>
<!-- Node2&#45;&gt;Node3 -->
<g id="edge2_Node000002_Node000003" class="edge">
<title>Node2&#45;&gt;Node3</title>
<g id="a_edge2_Node000002_Node000003"><a xlink:title=" ">
<path fill="none" stroke="#63b8ff" d="M1634.2,-330.25C1422.48,-309.65 873.69,-256.25 678.87,-237.3"/>
<polygon fill="#63b8ff" stroke="#63b8ff" points="679.05,-233.8 668.76,-236.31 678.37,-240.77 679.05,-233.8"/>
</a>
</g>
</g>
<!-- Node11 -->
<g id="Node000011" class="node">
<title>Node11</title>
<g id="a_Node000011"><a xlink:title=" ">
<polygon fill="#e0e0e0" stroke="#999999" points="1782.5,-19 1729.5,-19 1729.5,0 1782.5,0 1782.5,-19"/>
<text text-anchor="middle" x="1756" y="-7" font-family="Helvetica,sans-Serif" font-size="10.00">stdint.h</text>
</a>
</g>
</g>
<!-- Node2&#45;&gt;Node11 -->
<g id="edge63_Node000002_Node000011" class="edge">
<title>Node2&#45;&gt;Node11</title>
<g id="a_edge63_Node000002_Node000011"><a xlink:title=" ">
<path fill="none" stroke="#63b8ff" d="M1803.81,-336.98C1879.34,-330.57 1978,-307.47 1978,-230.5 1978,-230.5 1978,-230.5 1978,-118.5 1978,-37.26 1856.31,-17.12 1793.12,-12.13"/>
<polygon fill="#63b8ff" stroke="#63b8ff" points="1793,-8.61 1782.78,-11.41 1792.51,-15.6 1793,-8.61"/>
</a>
</g>
</g>
<!-- Node17 -->
<g id="Node000017" class="node">
<title>Node17</title>
<g id="a_Node000017"><a xlink:href="_model_database_8h.html" target="_top" xlink:title=" ">
<polygon fill="white" stroke="#666666" points="414.5,-294 273.5,-294 273.5,-275 414.5,-275 414.5,-294"/>
<text text-anchor="middle" x="344" y="-282" font-family="Helvetica,sans-Serif" font-size="10.00">Cpl/Dm/ModelDatabase.h</text>
</a>
</g>
</g>
<!-- Node2&#45;&gt;Node17 -->
<g id="edge22_Node000002_Node000017" class="edge">
<title>Node2&#45;&gt;Node17</title>
<g id="a_edge22_Node000002_Node000017"><a xlink:title=" ">
<path fill="none" stroke="#63b8ff" d="M1634.28,-335.23C1386.77,-325.69 666.99,-297.95 424.69,-288.61"/>
<polygon fill="#63b8ff" stroke="#63b8ff" points="424.67,-285.11 414.54,-288.22 424.4,-292.1 424.67,-285.11"/>
</a>
</g>
</g>
<!-- Node21 -->
<g id="Node000021" class="node">
<title>Node21</title>
<g id="a_Node000021"><a xlink:href="_subscriber_8h.html" target="_top" xlink:title=" ">
<polygon fill="white" stroke="#666666" points="1862.5,-294 1747.5,-294 1747.5,-275 1862.5,-275 1862.5,-294"/>
<text text-anchor="middle" x="1805" y="-282" font-family="Helvetica,sans-Serif" font-size="10.00">Cpl/Dm/Subscriber.h</text>
</a>
</g>
</g>
<!-- Node2&#45;&gt;Node21 -->
<g id="edge31_Node000002_Node000021" class="edge">
<title>Node2&#45;&gt;Node21</title>
<g id="a_edge31_Node000002_Node000021"><a xlink:title=" ">
<path fill="none" stroke="#63b8ff" d="M1732.82,-329.98C1746.15,-321.77 1766.58,-309.18 1782.31,-299.49"/>
<polygon fill="#63b8ff" stroke="#63b8ff" points="1784.25,-302.4 1790.93,-294.17 1780.58,-296.44 1784.25,-302.4"/>
</a>
</g>
</g>
<!-- Node31 -->
<g id="Node000031" class="node">
<title>Node31</title>
<g id="a_Node000031"><a xlink:href="_d_list_8h.html" target="_top" xlink:title=" ">
<polygon fill="white" stroke="#666666" points="1661.5,-74 1542.5,-74 1542.5,-55 1661.5,-55 1661.5,-74"/>
<text text-anchor="middle" x="1602" y="-62" font-family="Helvetica,sans-Serif" font-size="10.00">Cpl/Container/DList.h</text>
</a>
</g>
</g>
<!-- Node2&#45;&gt;Node31 -->
<g id="edge62_Node000002_Node000031" class="edge">
<title>Node2&#45;&gt;Node31</title>
<g id="a_edge62_Node000002_Node000031"><a xlink:title=" ">
<path fill="none" stroke="#63b8ff" d="M1691.61,-329.89C1655.29,-316.83 1592.67,-288.16 1566,-239 1555.24,-219.17 1518.07,-270.67 1572,-110 1575.36,-99.99 1581.63,-90.12 1587.57,-82.23"/>
<polygon fill="#63b8ff" stroke="#63b8ff" points="1590.43,-84.25 1593.96,-74.26 1584.97,-79.87 1590.43,-84.25"/>
</a>
</g>
</g>
<!-- Node34 -->
<g id="Node000034" class="node">
<title>Node34</title>
<g id="a_Node000034"><a xlink:title=" ">
<polygon fill="#e0e0e0" stroke="#999999" points="1633.5,-129 1580.5,-129 1580.5,-110 1633.5,-110 1633.5,-129"/>
<text text-anchor="middle" x="1607" y="-117" font-family="Helvetica,sans-Serif" font-size="10.00">stdlib.h</text>
</a>
</g>
</g>
<!-- Node2&#45;&gt;Node34 -->
<g id="edge64_Node000002_Node000034" class="edge">
<title>Node2&#45;&gt;Node34</title>
<g id="a_edge64_Node000002_Node000034"><a xlink:title=" ">
<path fill="none" stroke="#63b8ff" d="M1719.29,-329.95C1719.64,-309.73 1718.51,-257.8 1700,-220 1682.65,-184.57 1648.41,-153.05 1626.67,-135.4"/>
<polygon fill="#63b8ff" stroke="#63b8ff" points="1628.75,-132.59 1618.74,-129.13 1624.41,-138.08 1628.75,-132.59"/>
</a>
</g>
</g>
<!-- Node4 -->
<g id="Node000004" class="node">
<title>Node4</title>
<g id="a_Node000004"><a xlink:title=" ">
<polygon fill="#e0e0e0" stroke="#999999" points="120,-19 28,-19 28,0 120,0 120,-19"/>
<text text-anchor="middle" x="74" y="-7" font-family="Helvetica,sans-Serif" font-size="10.00">colony_config.h</text>
</a>
</g>
</g>
<!-- Node3&#45;&gt;Node4 -->
<g id="edge3_Node000003_Node000004" class="edge">
<title>Node3&#45;&gt;Node4</title>
<g id="a_edge3_Node000003_Node000004"><a xlink:title=" ">
<path fill="none" stroke="#63b8ff" d="M549.35,-224.81C474.9,-219.42 343.97,-207.41 234,-184 153.43,-166.85 105.85,-195.33 57,-129 35.01,-99.14 51.93,-53.34 64.2,-28.33"/>
<polygon fill="#63b8ff" stroke="#63b8ff" points="67.41,-29.76 68.9,-19.27 61.19,-26.53 67.41,-29.76"/>
</a>
</g>
</g>
<!-- Node5 -->
<g id="Node000005" class="node">
<title>Node5</title>
<g id="a_Node000005"><a xlink:href="_item_8h.html" target="_top" xlink:title=" ">
<polygon fill="white" stroke="#666666" points="1041.5,-19 924.5,-19 924.5,0 1041.5,0 1041.5,-19"/>
<text text-anchor="middle" x="983" y="-7" font-family="Helvetica,sans-Serif" font-size="10.00">Cpl/Container/Item.h</text>
</a>
</g>
</g>
<!-- Node3&#45;&gt;Node5 -->
<g id="edge4_Node000003_Node000005" class="edge">
<title>Node3&#45;&gt;Node5</title>
<g id="a_edge4_Node000003_Node000005"><a xlink:title=" ">
<path fill="none" stroke="#63b8ff" d="M604.07,-219.95C590.62,-196.12 555.08,-129.45 567,-110 603,-51.27 805.28,-25.41 913.95,-15.62"/>
<polygon fill="#63b8ff" stroke="#63b8ff" points="914.5,-19.08 924.16,-14.72 913.89,-12.11 914.5,-19.08"/>
</a>
</g>
</g>
<!-- Node6 -->
<g id="Node000006" class="node">
<title>Node6</title>
<g id="a_Node000006"><a xlink:href="_text_2_string_8h.html" target="_top" xlink:title=" ">
<polygon fill="white" stroke="#666666" points="339,-184 243,-184 243,-165 339,-165 339,-184"/>
<text text-anchor="middle" x="291" y="-172" font-family="Helvetica,sans-Serif" font-size="10.00">Cpl/Text/String.h</text>
</a>
</g>
</g>
<!-- Node3&#45;&gt;Node6 -->
<g id="edge5_Node000003_Node000006" class="edge">
<title>Node3&#45;&gt;Node6</title>
<g id="a_edge5_Node000003_Node000006"><a xlink:title=" ">
<path fill="none" stroke="#63b8ff" d="M557.91,-219.98C500.9,-210.48 408.84,-195.14 349.13,-185.19"/>
<polygon fill="#63b8ff" stroke="#63b8ff" points="349.54,-181.71 339.1,-183.52 348.39,-188.61 349.54,-181.71"/>
</a>
</g>
</g>
<!-- Node10 -->
<g id="Node000010" class="node">
<title>Node10</title>
<g id="a_Node000010"><a xlink:title=" ">
<polygon fill="#e0e0e0" stroke="#999999" points="384,-19 328,-19 328,0 384,0 384,-19"/>
<text text-anchor="middle" x="356" y="-7" font-family="Helvetica,sans-Serif" font-size="10.00">stddef.h</text>
</a>
</g>
</g>
<!-- Node3&#45;&gt;Node10 -->
<g id="edge20_Node000003_Node000010" class="edge">
<title>Node3&#45;&gt;Node10</title>
<g id="a_edge20_Node000003_Node000010"><a xlink:title=" ">
<path fill="none" stroke="#63b8ff" d="M601.85,-219.93C591.23,-207.4 570.46,-183.53 551,-165 495.44,-112.11 478.75,-101.84 418,-55 404.62,-44.69 389.19,-33.61 377.07,-25.08"/>
<polygon fill="#63b8ff" stroke="#63b8ff" points="378.74,-21.98 368.53,-19.12 374.73,-27.72 378.74,-21.98"/>
</a>
</g>
</g>
<!-- Node3&#45;&gt;Node11 -->
<g id="edge21_Node000003_Node000011" class="edge">
<title>Node3&#45;&gt;Node11</title>
<g id="a_edge21_Node000003_Node000011"><a xlink:title=" ">
<path fill="none" stroke="#63b8ff" d="M668.74,-227.34C845.15,-223.63 1355.89,-210.69 1426,-184 1462.65,-170.05 1469.99,-159.21 1495,-129 1518.71,-100.36 1504.22,-77.26 1534,-55 1562.84,-33.45 1664.09,-19.95 1719.34,-14.02"/>
<polygon fill="#63b8ff" stroke="#63b8ff" points="1719.84,-17.49 1729.42,-12.97 1719.11,-10.53 1719.84,-17.49"/>
</a>
</g>
</g>
<!-- Node15 -->
<g id="Node000015" class="node">
<title>Node15</title>
<g id="a_Node000015"><a xlink:href="_subscriber_api_8h.html" target="_top" xlink:title=" ">
<polygon fill="white" stroke="#666666" points="1821.5,-129 1690.5,-129 1690.5,-110 1821.5,-110 1821.5,-129"/>
<text text-anchor="middle" x="1756" y="-117" font-family="Helvetica,sans-Serif" font-size="10.00">Cpl/Dm/SubscriberApi.h</text>
</a>
</g>
</g>
<!-- Node3&#45;&gt;Node15 -->
<g id="edge16_Node000003_Node000015" class="edge">
<title>Node3&#45;&gt;Node15</title>
<g id="a_edge16_Node000003_Node000015"><a xlink:title=" ">
<path fill="none" stroke="#63b8ff" d="M668.78,-227.35C845.2,-223.67 1361.63,-210.85 1528,-184 1598.56,-172.61 1678.5,-147.38 1722.5,-132.38"/>
<polygon fill="#63b8ff" stroke="#63b8ff" points="1723.79,-135.64 1732.1,-129.07 1721.51,-129.02 1723.79,-135.64"/>
</a>
</g>
</g>
<!-- Node16 -->
<g id="Node000016" class="node">
<title>Node16</title>
<g id="a_Node000016"><a xlink:href="_arduino_8h_source.html" target="_top" xlink:title=" ">
<polygon fill="white" stroke="#666666" points="542.5,-184 437.5,-184 437.5,-165 542.5,-165 542.5,-184"/>
<text text-anchor="middle" x="490" y="-172" font-family="Helvetica,sans-Serif" font-size="10.00">Cpl/Json/Arduino.h</text>
</a>
</g>
</g>
<!-- Node3&#45;&gt;Node16 -->
<g id="edge19_Node000003_Node000016" class="edge">
<title>Node3&#45;&gt;Node16</title>
<g id="a_edge19_Node000003_Node000016"><a xlink:title=" ">
<path fill="none" stroke="#63b8ff" d="M589.88,-219.98C570.65,-211.42 540.77,-198.11 518.69,-188.28"/>
<polygon fill="#63b8ff" stroke="#63b8ff" points="520.03,-185.04 509.47,-184.17 517.18,-191.44 520.03,-185.04"/>
</a>
</g>
</g>
<!-- Node7 -->
<g id="Node000007" class="node">
<title>Node7</title>
<g id="a_Node000007"><a xlink:title=" ">
<polygon fill="#e0e0e0" stroke="#999999" points="409.5,-74 324.5,-74 324.5,-55 409.5,-55 409.5,-74"/>
<text text-anchor="middle" x="367" y="-62" font-family="Helvetica,sans-Serif" font-size="10.00">colony_map.h</text>
</a>
</g>
</g>
<!-- Node6&#45;&gt;Node7 -->
<g id="edge6_Node000006_Node000007" class="edge">
<title>Node6&#45;&gt;Node7</title>
<g id="a_edge6_Node000006_Node000007"><a xlink:title=" ">
<path fill="none" stroke="#63b8ff" d="M281.9,-164.82C269.75,-152.14 251.06,-128.1 263,-110 274.66,-92.33 294.94,-81.65 314.51,-75.21"/>
<polygon fill="#63b8ff" stroke="#63b8ff" points="315.74,-78.5 324.32,-72.29 313.74,-71.79 315.74,-78.5"/>
</a>
</g>
</g>
<!-- Node8 -->
<g id="Node000008" class="node">
<title>Node8</title>
<g id="a_Node000008"><a xlink:href="_key_8h.html" target="_top" xlink:title=" ">
<polygon fill="white" stroke="#666666" points="177.5,-129 66.5,-129 66.5,-110 177.5,-110 177.5,-129"/>
<text text-anchor="middle" x="122" y="-117" font-family="Helvetica,sans-Serif" font-size="10.00">Cpl/Container/Key.h</text>
</a>
</g>
</g>
<!-- Node6&#45;&gt;Node8 -->
<g id="edge7_Node000006_Node000008" class="edge">
<title>Node6&#45;&gt;Node8</title>
<g id="a_edge7_Node000006_Node000008"><a xlink:title=" ">
<path fill="none" stroke="#63b8ff" d="M263.85,-164.98C235.47,-156.09 190.77,-142.07 159.14,-132.15"/>
<polygon fill="#63b8ff" stroke="#63b8ff" points="159.95,-128.73 149.37,-129.08 157.86,-135.41 159.95,-128.73"/>
</a>
</g>
</g>
<!-- Node13 -->
<g id="Node000013" class="node">
<title>Node13</title>
<g id="a_Node000013"><a xlink:title=" ">
<polygon fill="#e0e0e0" stroke="#999999" points="328,-129 272,-129 272,-110 328,-110 328,-129"/>
<text text-anchor="middle" x="300" y="-117" font-family="Helvetica,sans-Serif" font-size="10.00">stdarg.h</text>
</a>
</g>
</g>
<!-- Node6&#45;&gt;Node13 -->
<g id="edge14_Node000006_Node000013" class="edge">
<title>Node6&#45;&gt;Node13</title>
<g id="a_edge14_Node000006_Node000013"><a xlink:title=" ">
<path fill="none" stroke="#63b8ff" d="M292.49,-164.75C293.67,-157.8 295.36,-147.85 296.84,-139.13"/>
<polygon fill="#63b8ff" stroke="#63b8ff" points="300.32,-139.53 298.54,-129.09 293.42,-138.36 300.32,-139.53"/>
</a>
</g>
</g>
<!-- Node14 -->
<g id="Node000014" class="node">
<title>Node14</title>
<g id="a_Node000014"><a xlink:title=" ">
<polygon fill="#e0e0e0" stroke="#999999" points="406,-129 346,-129 346,-110 406,-110 406,-129"/>
<text text-anchor="middle" x="376" y="-117" font-family="Helvetica,sans-Serif" font-size="10.00">iostream</text>
</a>
</g>
</g>
<!-- Node6&#45;&gt;Node14 -->
<g id="edge15_Node000006_Node000014" class="edge">
<title>Node6&#45;&gt;Node14</title>
<g id="a_edge15_Node000006_Node000014"><a xlink:title=" ">
<path fill="none" stroke="#63b8ff" d="M304.66,-164.98C317.84,-156.77 338.03,-144.18 353.57,-134.49"/>
<polygon fill="#63b8ff" stroke="#63b8ff" points="355.46,-137.43 362.09,-129.17 351.76,-131.49 355.46,-137.43"/>
</a>
</g>
</g>
<!-- Node8&#45;&gt;Node7 -->
<g id="edge13_Node000008_Node000007" class="edge">
<title>Node8&#45;&gt;Node7</title>
<g id="a_edge13_Node000008_Node000007"><a xlink:title=" ">
<path fill="none" stroke="#63b8ff" d="M161.36,-109.98C203.74,-100.82 271.26,-86.21 317.28,-76.26"/>
<polygon fill="#63b8ff" stroke="#63b8ff" points="318.29,-79.62 327.33,-74.08 316.81,-72.78 318.29,-79.62"/>
</a>
</g>
</g>
<!-- Node9 -->
<g id="Node000009" class="node">
<title>Node9</title>
<g id="a_Node000009"><a xlink:href="_fatal_error_8h.html" target="_top" xlink:title=" ">
<polygon fill="white" stroke="#666666" points="268,-74 138,-74 138,-55 268,-55 268,-74"/>
<text text-anchor="middle" x="203" y="-62" font-family="Helvetica,sans-Serif" font-size="10.00">Cpl/System/FatalError.h</text>
</a>
</g>
</g>
<!-- Node8&#45;&gt;Node9 -->
<g id="edge8_Node000008_Node000009" class="edge">
<title>Node8&#45;&gt;Node9</title>
<g id="a_edge8_Node000008_Node000009"><a xlink:title=" ">
<path fill="none" stroke="#63b8ff" d="M135.01,-109.98C147.46,-101.84 166.46,-89.41 181.21,-79.76"/>
<polygon fill="#63b8ff" stroke="#63b8ff" points="183.3,-82.57 189.75,-74.17 179.46,-76.72 183.3,-82.57"/>
</a>
</g>
</g>
<!-- Node8&#45;&gt;Node11 -->
<g id="edge11_Node000008_Node000011" class="edge">
<title>Node8&#45;&gt;Node11</title>
<g id="a_edge11_Node000008_Node000011"><a xlink:title=" ">
<path fill="none" stroke="#63b8ff" d="M158.96,-109.93C190.76,-102.07 237.61,-89.35 277,-74 294.59,-67.14 296.69,-59.62 315,-55 385.03,-37.32 1500.56,-15.34 1719.04,-11.19"/>
<polygon fill="#63b8ff" stroke="#63b8ff" points="1719.4,-14.69 1729.33,-11 1719.27,-7.69 1719.4,-14.69"/>
</a>
</g>
</g>
<!-- Node12 -->
<g id="Node000012" class="node">
<title>Node12</title>
<g id="a_Node000012"><a xlink:title=" ">
<polygon fill="#e0e0e0" stroke="#999999" points="119.5,-74 66.5,-74 66.5,-55 119.5,-55 119.5,-74"/>
<text text-anchor="middle" x="93" y="-62" font-family="Helvetica,sans-Serif" font-size="10.00">string.h</text>
</a>
</g>
</g>
<!-- Node8&#45;&gt;Node12 -->
<g id="edge12_Node000008_Node000012" class="edge">
<title>Node8&#45;&gt;Node12</title>
<g id="a_edge12_Node000008_Node000012"><a xlink:title=" ">
<path fill="none" stroke="#63b8ff" d="M117.21,-109.75C113.24,-102.49 107.47,-91.95 102.57,-82.98"/>
<polygon fill="#63b8ff" stroke="#63b8ff" points="105.57,-81.18 97.7,-74.09 99.43,-84.54 105.57,-81.18"/>
</a>
</g>
</g>
<!-- Node9&#45;&gt;Node4 -->
<g id="edge10_Node000009_Node000004" class="edge">
<title>Node9&#45;&gt;Node4</title>
<g id="a_edge10_Node000009_Node000004"><a xlink:title=" ">
<path fill="none" stroke="#63b8ff" d="M182.27,-54.98C161.24,-46.34 128.45,-32.87 104.46,-23.02"/>
<polygon fill="#63b8ff" stroke="#63b8ff" points="105.68,-19.73 95.1,-19.17 103.02,-26.21 105.68,-19.73"/>
</a>
</g>
</g>
<!-- Node9&#45;&gt;Node10 -->
<g id="edge9_Node000009_Node000010" class="edge">
<title>Node9&#45;&gt;Node10</title>
<g id="a_edge9_Node000009_Node000010"><a xlink:title=" ">
<path fill="none" stroke="#63b8ff" d="M227.58,-54.98C253.05,-46.16 293.04,-32.31 321.63,-22.41"/>
<polygon fill="#63b8ff" stroke="#63b8ff" points="322.92,-25.66 331.23,-19.08 320.63,-19.05 322.92,-25.66"/>
</a>
</g>
</g>
<!-- Node15&#45;&gt;Node5 -->
<g id="edge17_Node000015_Node000005" class="edge">
<title>Node15&#45;&gt;Node5</title>
<g id="a_edge17_Node000015_Node000005"><a xlink:title=" ">
<path fill="none" stroke="#63b8ff" d="M1748.07,-109.97C1734.1,-95.61 1703.49,-66.98 1671,-55 1558.81,-13.65 1202.71,-9.74 1051.73,-10.01"/>
<polygon fill="#63b8ff" stroke="#63b8ff" points="1051.64,-6.51 1041.65,-10.04 1051.66,-13.51 1051.64,-6.51"/>
</a>
</g>
</g>
<!-- Node15&#45;&gt;Node11 -->
<g id="edge18_Node000015_Node000011" class="edge">
<title>Node15&#45;&gt;Node11</title>
<g id="a_edge18_Node000015_Node000011"><a xlink:title=" ">
<path fill="none" stroke="#63b8ff" d="M1756,-109.66C1756,-92.17 1756,-52.8 1756,-29.27"/>
<polygon fill="#63b8ff" stroke="#63b8ff" points="1759.5,-29.16 1756,-19.16 1752.5,-29.16 1759.5,-29.16"/>
</a>
</g>
</g>
<!-- Node17&#45;&gt;Node4 -->
<g id="edge23_Node000017_Node000004" class="edge">
<title>Node17&#45;&gt;Node4</title>
<g id="a_edge23_Node000017_Node000004"><a xlink:title=" ">
<path fill="none" stroke="#63b8ff" d="M273.22,-279.35C197.16,-273.78 82.17,-261.84 45,-239 15.53,-220.89 0,-210.09 0,-175.5 0,-175.5 0,-175.5 0,-118.5 0,-79.8 32.73,-44.81 54.65,-25.71"/>
<polygon fill="#63b8ff" stroke="#63b8ff" points="57.02,-28.3 62.44,-19.19 52.52,-22.93 57.02,-28.3"/>
</a>
</g>
</g>
<!-- Node17&#45;&gt;Node16 -->
<g id="edge30_Node000017_Node000016" class="edge">
<title>Node17&#45;&gt;Node16</title>
<g id="a_edge30_Node000017_Node000016"><a xlink:title=" ">
<path fill="none" stroke="#63b8ff" d="M414.61,-279.59C442.72,-274.14 472.49,-262.64 490,-239 499.42,-226.28 498.27,-207.85 495.45,-194.11"/>
<polygon fill="#63b8ff" stroke="#63b8ff" points="498.82,-193.16 492.99,-184.31 492.03,-194.86 498.82,-193.16"/>
</a>
</g>
</g>
<!-- Node18 -->
<g id="Node000018" class="node">
<title>Node18</title>
<g id="a_Node000018"><a xlink:href="_model_database_api_8h.html" target="_top" xlink:title=" ">
<polygon fill="white" stroke="#666666" points="344.5,-239 187.5,-239 187.5,-220 344.5,-220 344.5,-239"/>
<text text-anchor="middle" x="266" y="-227" font-family="Helvetica,sans-Serif" font-size="10.00">Cpl/Dm/ModelDatabaseApi.h</text>
</a>
</g>
</g>
<!-- Node17&#45;&gt;Node18 -->
<g id="edge24_Node000017_Node000018" class="edge">
<title>Node17&#45;&gt;Node18</title>
<g id="a_edge24_Node000017_Node000018"><a xlink:title=" ">
<path fill="none" stroke="#63b8ff" d="M331.47,-274.98C319.6,-266.92 301.54,-254.65 287.39,-245.03"/>
<polygon fill="#63b8ff" stroke="#63b8ff" points="289,-241.9 278.76,-239.17 285.06,-247.69 289,-241.9"/>
</a>
</g>
</g>
<!-- Node19 -->
<g id="Node000019" class="node">
<title>Node19</title>
<g id="a_Node000019"><a xlink:href="_mutex_8h.html" target="_top" xlink:title=" ">
<polygon fill="white" stroke="#666666" points="169.5,-239 54.5,-239 54.5,-220 169.5,-220 169.5,-239"/>
<text text-anchor="middle" x="112" y="-227" font-family="Helvetica,sans-Serif" font-size="10.00">Cpl/System/Mutex.h</text>
</a>
</g>
</g>
<!-- Node17&#45;&gt;Node19 -->
<g id="edge26_Node000017_Node000019" class="edge">
<title>Node17&#45;&gt;Node19</title>
<g id="a_edge26_Node000017_Node000019"><a xlink:title=" ">
<path fill="none" stroke="#63b8ff" d="M306.73,-274.98C266.68,-265.84 202.93,-251.27 159.36,-241.32"/>
<polygon fill="#63b8ff" stroke="#63b8ff" points="160.1,-237.9 149.57,-239.08 158.54,-244.72 160.1,-237.9"/>
</a>
</g>
</g>
<!-- Node20 -->
<g id="Node000020" class="node">
<title>Node20</title>
<g id="a_Node000020"><a xlink:href="_s_list_8h.html" target="_top" xlink:title=" ">
<polygon fill="white" stroke="#666666" points="481,-239 363,-239 363,-220 481,-220 481,-239"/>
<text text-anchor="middle" x="422" y="-227" font-family="Helvetica,sans-Serif" font-size="10.00">Cpl/Container/SList.h</text>
</a>
</g>
</g>
<!-- Node17&#45;&gt;Node20 -->
<g id="edge28_Node000017_Node000020" class="edge">
<title>Node17&#45;&gt;Node20</title>
<g id="a_edge28_Node000017_Node000020"><a xlink:title=" ">
<path fill="none" stroke="#63b8ff" d="M356.53,-274.98C368.4,-266.92 386.46,-254.65 400.61,-245.03"/>
<polygon fill="#63b8ff" stroke="#63b8ff" points="402.94,-247.69 409.24,-239.17 399,-241.9 402.94,-247.69"/>
</a>
</g>
</g>
<!-- Node18&#45;&gt;Node6 -->
<g id="edge25_Node000018_Node000006" class="edge">
<title>Node18&#45;&gt;Node6</title>
<g id="a_edge25_Node000018_Node000006"><a xlink:title=" ">
<path fill="none" stroke="#63b8ff" d="M270.13,-219.75C273.51,-212.57 278.42,-202.18 282.62,-193.27"/>
<polygon fill="#63b8ff" stroke="#63b8ff" points="285.85,-194.63 286.95,-184.09 279.52,-191.64 285.85,-194.63"/>
</a>
</g>
</g>
<!-- Node19&#45;&gt;Node7 -->
<g id="edge27_Node000019_Node000007" class="edge">
<title>Node19&#45;&gt;Node7</title>
<g id="a_edge27_Node000019_Node000007"><a xlink:title=" ">
<path fill="none" stroke="#63b8ff" d="M120.38,-219.99C141.47,-198.93 199.18,-143.67 256,-110 279.08,-96.32 307.14,-85.12 329.27,-77.37"/>
<polygon fill="#63b8ff" stroke="#63b8ff" points="330.65,-80.6 338.98,-74.06 328.39,-73.97 330.65,-80.6"/>
</a>
</g>
</g>
<!-- Node20&#45;&gt;Node5 -->
<g id="edge29_Node000020_Node000005" class="edge">
<title>Node20&#45;&gt;Node5</title>
<g id="a_edge29_Node000020_Node000005"><a xlink:title=" ">
<path fill="none" stroke="#63b8ff" d="M420.5,-219.91C418.7,-206.92 417.16,-181.99 428,-165 480.06,-83.38 524.26,-85.91 616,-55 715.91,-21.33 838.72,-12.55 913.9,-10.58"/>
<polygon fill="#63b8ff" stroke="#63b8ff" points="914.26,-14.07 924.18,-10.34 914.1,-7.07 914.26,-14.07"/>
</a>
</g>
</g>
<!-- Node21&#45;&gt;Node3 -->
<g id="edge33_Node000021_Node000003" class="edge">
<title>Node21&#45;&gt;Node3</title>
<g id="a_edge33_Node000021_Node000003"><a xlink:title=" ">
<path fill="none" stroke="#63b8ff" d="M1747.31,-280.94C1548.87,-272.15 894.71,-243.16 678.82,-233.59"/>
<polygon fill="#63b8ff" stroke="#63b8ff" points="678.71,-230.09 668.57,-233.14 678.4,-237.08 678.71,-230.09"/>
</a>
</g>
</g>
<!-- Node21&#45;&gt;Node11 -->
<g id="edge61_Node000021_Node000011" class="edge">
<title>Node21&#45;&gt;Node11</title>
<g id="a_edge61_Node000021_Node000011"><a xlink:title=" ">
<path fill="none" stroke="#63b8ff" d="M1833.3,-275C1872.89,-261.15 1940,-229.68 1940,-175.5 1940,-175.5 1940,-175.5 1940,-118.5 1940,-50.96 1846.65,-24.84 1792.93,-15.4"/>
<polygon fill="#63b8ff" stroke="#63b8ff" points="1793.19,-11.9 1782.76,-13.73 1792.06,-18.81 1793.19,-11.9"/>
</a>
</g>
</g>
<!-- Node21&#45;&gt;Node15 -->
<g id="edge32_Node000021_Node000015" class="edge">
<title>Node21&#45;&gt;Node15</title>
<g id="a_edge32_Node000021_Node000015"><a xlink:title=" ">
<path fill="none" stroke="#63b8ff" d="M1818.66,-274.74C1847.86,-254.91 1911.5,-205.18 1883,-165 1870.8,-147.8 1851.43,-137.2 1831.45,-130.68"/>
<polygon fill="#63b8ff" stroke="#63b8ff" points="1832.2,-127.25 1821.62,-127.8 1830.23,-133.97 1832.2,-127.25"/>
</a>
</g>
</g>
<!-- Node22 -->
<g id="Node000022" class="node">
<title>Node22</title>
<g id="a_Node000022"><a xlink:href="_dm_2_event_loop_8h.html" target="_top" xlink:title=" ">
<polygon fill="white" stroke="#666666" points="1691,-239 1575,-239 1575,-220 1691,-220 1691,-239"/>
<text text-anchor="middle" x="1633" y="-227" font-family="Helvetica,sans-Serif" font-size="10.00">Cpl/Dm/EventLoop.h</text>
</a>
</g>
</g>
<!-- Node21&#45;&gt;Node22 -->
<g id="edge34_Node000021_Node000022" class="edge">
<title>Node21&#45;&gt;Node22</title>
<g id="a_edge34_Node000021_Node000022"><a xlink:title=" ">
<path fill="none" stroke="#63b8ff" d="M1777.37,-274.98C1748.49,-266.09 1702.99,-252.07 1670.8,-242.15"/>
<polygon fill="#63b8ff" stroke="#63b8ff" points="1671.44,-238.68 1660.85,-239.08 1669.38,-245.37 1671.44,-238.68"/>
</a>
</g>
</g>
<!-- Node22&#45;&gt;Node15 -->
<g id="edge58_Node000022_Node000015" class="edge">
<title>Node22&#45;&gt;Node15</title>
<g id="a_edge58_Node000022_Node000015"><a xlink:title=" ">
<path fill="none" stroke="#63b8ff" d="M1643.07,-219.66C1663.98,-201.3 1712.37,-158.81 1738.5,-135.87"/>
<polygon fill="#63b8ff" stroke="#63b8ff" points="1740.93,-138.39 1746.14,-129.16 1736.32,-133.13 1740.93,-138.39"/>
</a>
</g>
</g>
<!-- Node23 -->
<g id="Node000023" class="node">
<title>Node23</title>
<g id="a_Node000023"><a xlink:href="_system_2_event_loop_8h.html" target="_top" xlink:title=" ">
<polygon fill="white" stroke="#666666" points="1051.5,-184 916.5,-184 916.5,-165 1051.5,-165 1051.5,-184"/>
<text text-anchor="middle" x="984" y="-172" font-family="Helvetica,sans-Serif" font-size="10.00">Cpl/System/EventLoop.h</text>
</a>
</g>
</g>
<!-- Node22&#45;&gt;Node23 -->
<g id="edge35_Node000022_Node000023" class="edge">
<title>Node22&#45;&gt;Node23</title>
<g id="a_edge35_Node000022_Node000023"><a xlink:title=" ">
<path fill="none" stroke="#63b8ff" d="M1574.83,-223.75C1457.79,-214.19 1193.77,-192.63 1061.94,-181.87"/>
<polygon fill="#63b8ff" stroke="#63b8ff" points="1062.17,-178.37 1051.92,-181.05 1061.6,-185.35 1062.17,-178.37"/>
</a>
</g>
</g>
<!-- Node22&#45;&gt;Node31 -->
<g id="edge57_Node000022_Node000031" class="edge">
<title>Node22&#45;&gt;Node31</title>
<g id="a_edge57_Node000022_Node000031"><a xlink:title=" ">
<path fill="none" stroke="#63b8ff" d="M1636.28,-219.79C1643.32,-199.66 1658.09,-148.66 1643,-110 1638.6,-98.73 1629.86,-88.59 1621.57,-80.85"/>
<polygon fill="#63b8ff" stroke="#63b8ff" points="1623.77,-78.12 1613.93,-74.2 1619.18,-83.4 1623.77,-78.12"/>
</a>
</g>
</g>
<!-- Node32 -->
<g id="Node000032" class="node">
<title>Node32</title>
<g id="a_Node000032"><a xlink:href="_thread_8h.html" target="_top" xlink:title=" ">
<polygon fill="white" stroke="#666666" points="1417,-184 1299,-184 1299,-165 1417,-165 1417,-184"/>
<text text-anchor="middle" x="1358" y="-172" font-family="Helvetica,sans-Serif" font-size="10.00">Cpl/System/Thread.h</text>
</a>
</g>
</g>
<!-- Node22&#45;&gt;Node32 -->
<g id="edge51_Node000022_Node000032" class="edge">
<title>Node22&#45;&gt;Node32</title>
<g id="a_edge51_Node000022_Node000032"><a xlink:title=" ">
<path fill="none" stroke="#63b8ff" d="M1588.82,-219.98C1540.85,-210.74 1464.19,-195.97 1412.52,-186.01"/>
<polygon fill="#63b8ff" stroke="#63b8ff" points="1413.01,-182.54 1402.53,-184.08 1411.69,-189.41 1413.01,-182.54"/>
</a>
</g>
</g>
<!-- Node35 -->
<g id="Node000035" class="node">
<title>Node35</title>
<g id="a_Node000035"><a xlink:href="_notification_api___8h.html" target="_top" xlink:title=" ">
<polygon fill="white" stroke="#666666" points="1874,-184 1732,-184 1732,-165 1874,-165 1874,-184"/>
<text text-anchor="middle" x="1803" y="-172" font-family="Helvetica,sans-Serif" font-size="10.00">Cpl/Dm/NotificationApi_.h</text>
</a>
</g>
</g>
<!-- Node22&#45;&gt;Node35 -->
<g id="edge59_Node000022_Node000035" class="edge">
<title>Node22&#45;&gt;Node35</title>
<g id="a_edge59_Node000022_Node000035"><a xlink:title=" ">
<path fill="none" stroke="#63b8ff" d="M1660.31,-219.98C1688.85,-211.09 1733.83,-197.07 1765.64,-187.15"/>
<polygon fill="#63b8ff" stroke="#63b8ff" points="1766.97,-190.4 1775.47,-184.08 1764.88,-183.72 1766.97,-190.4"/>
</a>
</g>
</g>
<!-- Node24 -->
<g id="Node000024" class="node">
<title>Node24</title>
<g id="a_Node000024"><a xlink:href="_runnable_8h.html" target="_top" xlink:title=" ">
<polygon fill="white" stroke="#666666" points="1354,-129 1224,-129 1224,-110 1354,-110 1354,-129"/>
<text text-anchor="middle" x="1289" y="-117" font-family="Helvetica,sans-Serif" font-size="10.00">Cpl/System/Runnable.h</text>
</a>
</g>
</g>
<!-- Node23&#45;&gt;Node24 -->
<g id="edge36_Node000023_Node000024" class="edge">
<title>Node23&#45;&gt;Node24</title>
<g id="a_edge36_Node000023_Node000024"><a xlink:title=" ">
<path fill="none" stroke="#63b8ff" d="M1033,-164.98C1086.62,-155.67 1172.54,-140.74 1229.86,-130.78"/>
<polygon fill="#63b8ff" stroke="#63b8ff" points="1230.61,-134.2 1239.87,-129.04 1229.41,-127.3 1230.61,-134.2"/>
</a>
</g>
</g>
<!-- Node25 -->
<g id="Node000025" class="node">
<title>Node25</title>
<g id="a_Node000025"><a xlink:href="_semaphore_8h.html" target="_top" xlink:title=" ">
<polygon fill="white" stroke="#666666" points="918,-129 778,-129 778,-110 918,-110 918,-129"/>
<text text-anchor="middle" x="848" y="-117" font-family="Helvetica,sans-Serif" font-size="10.00">Cpl/System/Semaphore.h</text>
</a>
</g>
</g>
<!-- Node23&#45;&gt;Node25 -->
<g id="edge37_Node000023_Node000025" class="edge">
<title>Node23&#45;&gt;Node25</title>
<g id="a_edge37_Node000023_Node000025"><a xlink:title=" ">
<path fill="none" stroke="#63b8ff" d="M962.15,-164.98C939.88,-156.3 905.1,-142.75 879.78,-132.88"/>
<polygon fill="#63b8ff" stroke="#63b8ff" points="880.84,-129.54 870.25,-129.17 878.29,-136.06 880.84,-129.54"/>
</a>
</g>
</g>
<!-- Node26 -->
<g id="Node000026" class="node">
<title>Node26</title>
<g id="a_Node000026"><a xlink:href="_signable_8h.html" target="_top" xlink:title=" ">
<polygon fill="white" stroke="#666666" points="1046,-74 920,-74 920,-55 1046,-55 1046,-74"/>
<text text-anchor="middle" x="983" y="-62" font-family="Helvetica,sans-Serif" font-size="10.00">Cpl/System/Signable.h</text>
</a>
</g>
</g>
<!-- Node23&#45;&gt;Node26 -->
<g id="edge41_Node000023_Node000026" class="edge">
<title>Node23&#45;&gt;Node26</title>
<g id="a_edge41_Node000023_Node000026"><a xlink:title=" ">
<path fill="none" stroke="#63b8ff" d="M983.92,-164.66C983.76,-147.17 983.39,-107.8 983.17,-84.27"/>
<polygon fill="#63b8ff" stroke="#63b8ff" points="986.67,-84.13 983.08,-74.16 979.67,-84.19 986.67,-84.13"/>
</a>
</g>
</g>
<!-- Node27 -->
<g id="Node000027" class="node">
<title>Node27</title>
<g id="a_Node000027"><a xlink:href="_event_flag_8h.html" target="_top" xlink:title=" ">
<polygon fill="white" stroke="#666666" points="817.5,-74 684.5,-74 684.5,-55 817.5,-55 817.5,-74"/>
<text text-anchor="middle" x="751" y="-62" font-family="Helvetica,sans-Serif" font-size="10.00">Cpl/System/EventFlag.h</text>
</a>
</g>
</g>
<!-- Node23&#45;&gt;Node27 -->
<g id="edge42_Node000023_Node000027" class="edge">
<title>Node23&#45;&gt;Node27</title>
<g id="a_edge42_Node000023_Node000027"><a xlink:title=" ">
<path fill="none" stroke="#63b8ff" d="M978.55,-164.6C969.57,-150.73 950.33,-124.1 927,-110 897.05,-91.91 859.98,-81.14 827.6,-74.74"/>
<polygon fill="#63b8ff" stroke="#63b8ff" points="828.18,-71.29 817.71,-72.9 826.9,-78.17 828.18,-71.29"/>
</a>
</g>
</g>
<!-- Node28 -->
<g id="Node000028" class="node">
<title>Node28</title>
<g id="a_Node000028"><a xlink:href="_shared_event_handler_8h.html" target="_top" xlink:title=" ">
<polygon fill="white" stroke="#666666" points="759.5,-129 576.5,-129 576.5,-110 759.5,-110 759.5,-129"/>
<text text-anchor="middle" x="668" y="-117" font-family="Helvetica,sans-Serif" font-size="10.00">Cpl/System/SharedEventHandler.h</text>
</a>
</g>
</g>
<!-- Node23&#45;&gt;Node28 -->
<g id="edge45_Node000023_Node000028" class="edge">
<title>Node23&#45;&gt;Node28</title>
<g id="a_edge45_Node000023_Node000028"><a xlink:title=" ">
<path fill="none" stroke="#63b8ff" d="M933.23,-164.98C877.57,-155.65 788.29,-140.67 728.9,-130.71"/>
<polygon fill="#63b8ff" stroke="#63b8ff" points="729.35,-127.24 718.91,-129.04 728.19,-134.14 729.35,-127.24"/>
</a>
</g>
</g>
<!-- Node29 -->
<g id="Node000029" class="node">
<title>Node29</title>
<g id="a_Node000029"><a xlink:href="_timer_manager_8h.html" target="_top" xlink:title=" ">
<polygon fill="white" stroke="#666666" points="1205.5,-129 1050.5,-129 1050.5,-110 1205.5,-110 1205.5,-129"/>
<text text-anchor="middle" x="1128" y="-117" font-family="Helvetica,sans-Serif" font-size="10.00">Cpl/System/TimerManager.h</text>
</a>
</g>
</g>
<!-- Node23&#45;&gt;Node29 -->
<g id="edge47_Node000023_Node000029" class="edge">
<title>Node23&#45;&gt;Node29</title>
<g id="a_edge47_Node000023_Node000029"><a xlink:title=" ">
<path fill="none" stroke="#63b8ff" d="M1007.14,-164.98C1030.82,-156.27 1067.87,-142.63 1094.71,-132.75"/>
<polygon fill="#63b8ff" stroke="#63b8ff" points="1096.27,-135.91 1104.44,-129.17 1093.85,-129.34 1096.27,-135.91"/>
</a>
</g>
</g>
<!-- Node25&#45;&gt;Node7 -->
<g id="edge38_Node000025_Node000007" class="edge">
<title>Node25&#45;&gt;Node7</title>
<g id="a_edge38_Node000025_Node000007"><a xlink:title=" ">
<path fill="none" stroke="#63b8ff" d="M777.8,-110.76C680.58,-100.05 507.11,-80.94 420,-71.34"/>
<polygon fill="#63b8ff" stroke="#63b8ff" points="420.14,-67.83 409.81,-70.22 419.37,-74.79 420.14,-67.83"/>
</a>
</g>
</g>
<!-- Node25&#45;&gt;Node26 -->
<g id="edge39_Node000025_Node000026" class="edge">
<title>Node25&#45;&gt;Node26</title>
<g id="a_edge39_Node000025_Node000026"><a xlink:title=" ">
<path fill="none" stroke="#63b8ff" d="M869.69,-109.98C891.8,-101.3 926.32,-87.75 951.45,-77.88"/>
<polygon fill="#63b8ff" stroke="#63b8ff" points="952.89,-81.08 960.92,-74.17 950.33,-74.57 952.89,-81.08"/>
</a>
</g>
</g>
<!-- Node26&#45;&gt;Node5 -->
<g id="edge40_Node000026_Node000005" class="edge">
<title>Node26&#45;&gt;Node5</title>
<g id="a_edge40_Node000026_Node000005"><a xlink:title=" ">
<path fill="none" stroke="#63b8ff" d="M983,-54.75C983,-47.8 983,-37.85 983,-29.13"/>
<polygon fill="#63b8ff" stroke="#63b8ff" points="986.5,-29.09 983,-19.09 979.5,-29.09 986.5,-29.09"/>
</a>
</g>
</g>
<!-- Node27&#45;&gt;Node4 -->
<g id="edge43_Node000027_Node000004" class="edge">
<title>Node27&#45;&gt;Node4</title>
<g id="a_edge43_Node000027_Node000004"><a xlink:title=" ">
<path fill="none" stroke="#63b8ff" d="M684.23,-58.27C551.04,-47.85 254.48,-24.63 130.35,-14.91"/>
<polygon fill="#63b8ff" stroke="#63b8ff" points="130.54,-11.42 120.29,-14.12 129.99,-18.39 130.54,-11.42"/>
</a>
</g>
</g>
<!-- Node27&#45;&gt;Node11 -->
<g id="edge44_Node000027_Node000011" class="edge">
<title>Node27&#45;&gt;Node11</title>
<g id="a_edge44_Node000027_Node000011"><a xlink:title=" ">
<path fill="none" stroke="#63b8ff" d="M817.56,-59.96C846.3,-58.43 880.31,-56.62 911,-55 1223.61,-38.46 1601.29,-18.62 1719.1,-12.44"/>
<polygon fill="#63b8ff" stroke="#63b8ff" points="1719.56,-15.92 1729.36,-11.9 1719.19,-8.93 1719.56,-15.92"/>
</a>
</g>
</g>
<!-- Node28&#45;&gt;Node27 -->
<g id="edge46_Node000028_Node000027" class="edge">
<title>Node28&#45;&gt;Node27</title>
<g id="a_edge46_Node000028_Node000027"><a xlink:title=" ">
<path fill="none" stroke="#63b8ff" d="M681.34,-109.98C694.09,-101.84 713.55,-89.41 728.67,-79.76"/>
<polygon fill="#63b8ff" stroke="#63b8ff" points="730.88,-82.5 737.42,-74.17 727.11,-76.6 730.88,-82.5"/>
</a>
</g>
</g>
<!-- Node30 -->
<g id="Node000030" class="node">
<title>Node30</title>
<g id="a_Node000030"><a xlink:href="_counter___8h.html" target="_top" xlink:title=" ">
<polygon fill="white" stroke="#666666" points="1192,-74 1064,-74 1064,-55 1192,-55 1192,-74"/>
<text text-anchor="middle" x="1128" y="-62" font-family="Helvetica,sans-Serif" font-size="10.00">Cpl/System/Counter_.h</text>
</a>
</g>
</g>
<!-- Node29&#45;&gt;Node30 -->
<g id="edge48_Node000029_Node000030" class="edge">
<title>Node29&#45;&gt;Node30</title>
<g id="a_edge48_Node000029_Node000030"><a xlink:title=" ">
<path fill="none" stroke="#63b8ff" d="M1128,-109.75C1128,-102.8 1128,-92.85 1128,-84.13"/>
<polygon fill="#63b8ff" stroke="#63b8ff" points="1131.5,-84.09 1128,-74.09 1124.5,-84.09 1131.5,-84.09"/>
</a>
</g>
</g>
<!-- Node29&#45;&gt;Node31 -->
<g id="edge50_Node000029_Node000031" class="edge">
<title>Node29&#45;&gt;Node31</title>
<g id="a_edge50_Node000029_Node000031"><a xlink:title=" ">
<path fill="none" stroke="#63b8ff" d="M1204.16,-109.98C1294.65,-99.87 1444.39,-83.12 1532.07,-73.32"/>
<polygon fill="#63b8ff" stroke="#63b8ff" points="1532.63,-76.78 1542.18,-72.19 1531.85,-69.82 1532.63,-76.78"/>
</a>
</g>
</g>
<!-- Node30&#45;&gt;Node5 -->
<g id="edge49_Node000030_Node000005" class="edge">
<title>Node30&#45;&gt;Node5</title>
<g id="a_edge49_Node000030_Node000005"><a xlink:title=" ">
<path fill="none" stroke="#63b8ff" d="M1104.7,-54.98C1080.75,-46.23 1043.22,-32.51 1016.17,-22.62"/>
<polygon fill="#63b8ff" stroke="#63b8ff" points="1017.31,-19.32 1006.72,-19.17 1014.91,-25.89 1017.31,-19.32"/>
</a>
</g>
</g>
<!-- Node32&#45;&gt;Node7 -->
<g id="edge52_Node000032_Node000007" class="edge">
<title>Node32&#45;&gt;Node7</title>
<g id="a_edge52_Node000032_Node000007"><a xlink:title=" ">
<path fill="none" stroke="#63b8ff" d="M1298.98,-172.1C1140.38,-168.03 707.43,-154.82 567,-129 505.33,-117.66 436.18,-92.87 397.48,-77.83"/>
<polygon fill="#63b8ff" stroke="#63b8ff" points="398.45,-74.45 387.87,-74.05 395.89,-80.97 398.45,-74.45"/>
</a>
</g>
</g>
<!-- Node32&#45;&gt;Node24 -->
<g id="edge53_Node000032_Node000024" class="edge">
<title>Node32&#45;&gt;Node24</title>
<g id="a_edge53_Node000032_Node000024"><a xlink:title=" ">
<path fill="none" stroke="#63b8ff" d="M1346.91,-164.98C1336.51,-157 1320.74,-144.88 1308.28,-135.31"/>
<polygon fill="#63b8ff" stroke="#63b8ff" points="1310.35,-132.49 1300.29,-129.17 1306.09,-138.04 1310.35,-132.49"/>
</a>
</g>
</g>
<!-- Node32&#45;&gt;Node26 -->
<g id="edge54_Node000032_Node000026" class="edge">
<title>Node32&#45;&gt;Node26</title>
<g id="a_edge54_Node000032_Node000026"><a xlink:title=" ">
<path fill="none" stroke="#63b8ff" d="M1298.71,-169.88C1219.89,-164.27 1085.47,-151.69 1042,-129 1021.45,-118.28 1004.27,-97.47 993.84,-82.59"/>
<polygon fill="#63b8ff" stroke="#63b8ff" points="996.73,-80.61 988.26,-74.24 990.91,-84.5 996.73,-80.61"/>
</a>
</g>
</g>
<!-- Node33 -->
<g id="Node000033" class="node">
<title>Node33</title>
<g id="a_Node000033"><a xlink:href="_traverser_8h.html" target="_top" xlink:title=" ">
<polygon fill="white" stroke="#666666" points="1486,-129 1372,-129 1372,-110 1486,-110 1486,-129"/>
<text text-anchor="middle" x="1429" y="-117" font-family="Helvetica,sans-Serif" font-size="10.00">Cpl/Type/Traverser.h</text>
</a>
</g>
</g>
<!-- Node32&#45;&gt;Node33 -->
<g id="edge55_Node000032_Node000033" class="edge">
<title>Node32&#45;&gt;Node33</title>
<g id="a_edge55_Node000032_Node000033"><a xlink:title=" ">
<path fill="none" stroke="#63b8ff" d="M1369.41,-164.98C1380.11,-157 1396.34,-144.88 1409.16,-135.31"/>
<polygon fill="#63b8ff" stroke="#63b8ff" points="1411.47,-137.96 1417.39,-129.17 1407.28,-132.35 1411.47,-137.96"/>
</a>
</g>
</g>
<!-- Node32&#45;&gt;Node34 -->
<g id="edge56_Node000032_Node000034" class="edge">
<title>Node32&#45;&gt;Node34</title>
<g id="a_edge56_Node000032_Node000034"><a xlink:title=" ">
<path fill="none" stroke="#63b8ff" d="M1398.01,-164.98C1445.68,-154.84 1524.65,-138.03 1570.65,-128.24"/>
<polygon fill="#63b8ff" stroke="#63b8ff" points="1571.44,-131.65 1580.49,-126.14 1569.98,-124.8 1571.44,-131.65"/>
</a>
</g>
</g>
<!-- Node35&#45;&gt;Node15 -->
<g id="edge60_Node000035_Node000015" class="edge">
<title>Node35&#45;&gt;Node15</title>
<g id="a_edge60_Node000035_Node000015"><a xlink:title=" ">
<path fill="none" stroke="#63b8ff" d="M1795.24,-164.75C1788.53,-157.18 1778.66,-146.05 1770.49,-136.84"/>
<polygon fill="#63b8ff" stroke="#63b8ff" points="1772.87,-134.25 1763.62,-129.09 1767.63,-138.89 1772.87,-134.25"/>
</a>
</g>
</g>
<!-- Node36&#45;&gt;Node11 -->
<g id="edge66_Node000036_Node000011" class="edge">
<title>Node36&#45;&gt;Node11</title>
<g id="a_edge66_Node000036_Node000011"><a xlink:title=" ">
<path fill="none" stroke="#63b8ff" d="M2016,-329.82C2016,-311.48 2016,-267.44 2016,-230.5 2016,-230.5 2016,-230.5 2016,-118.5 2016,-23.19 1865.16,-10.42 1793.26,-9.74"/>
<polygon fill="#63b8ff" stroke="#63b8ff" points="1792.85,-6.24 1782.85,-9.72 1792.84,-13.24 1792.85,-6.24"/>
</a>
</g>
</g>
<!-- Node37 -->
<g id="Node000037" class="node">
<title>Node37</title>
<g id="a_Node000037"><a xlink:title=" ">
<polygon fill="#e0e0e0" stroke="#999999" points="2109.5,-294 2044.5,-294 2044.5,-275 2109.5,-275 2109.5,-294"/>
<text text-anchor="middle" x="2077" y="-282" font-family="Helvetica,sans-Serif" font-size="10.00">memory.h</text>
</a>
</g>
</g>
<!-- Node36&#45;&gt;Node37 -->
<g id="edge67_Node000036_Node000037" class="edge">
<title>Node36&#45;&gt;Node37</title>
<g id="a_edge67_Node000036_Node000037"><a xlink:title=" ">
<path fill="none" stroke="#63b8ff" d="M2025.8,-329.98C2034.82,-322.15 2048.41,-310.34 2059.32,-300.86"/>
<polygon fill="#63b8ff" stroke="#63b8ff" points="2061.77,-303.37 2067.02,-294.17 2057.18,-298.09 2061.77,-303.37"/>
</a>
</g>
</g>
</g>
</svg>
