<?xml version="1.0" encoding="UTF-8" standalone="no"?>
<!DOCTYPE svg PUBLIC "-//W3C//DTD SVG 1.1//EN"
 "http://www.w3.org/Graphics/SVG/1.1/DTD/svg11.dtd">
<!-- Generated by graphviz version 2.43.0 (0)
 -->
<!-- Title: Cpl/Logging/EntryData_T.h Pages: 1 -->
<svg width="396pt" height="137pt"
 viewBox="0.00 0.00 395.50 137.00" xmlns="http://www.w3.org/2000/svg" xmlns:xlink="http://www.w3.org/1999/xlink">
<g id="graph0" class="graph" transform="scale(1 1) rotate(0) translate(4 133)">
<title>Cpl/Logging/EntryData_T.h</title>
<!-- Node1 -->
<g id="Node000001" class="node">
<title>Node1</title>
<g id="a_Node000001"><a xlink:title=" ">
<polygon fill="#999999" stroke="#666666" points="273.5,-129 128.5,-129 128.5,-110 273.5,-110 273.5,-129"/>
<text text-anchor="middle" x="201" y="-117" font-family="Helvetica,sans-Serif" font-size="10.00">Cpl/Logging/EntryData_T.h</text>
</a>
</g>
</g>
<!-- Node2 -->
<g id="Node000002" class="node">
<title>Node2</title>
<g id="a_Node000002"><a xlink:href="_time_api_8h.html" target="_top" xlink:title=" ">
<polygon fill="white" stroke="#666666" points="126,-74 0,-74 0,-55 126,-55 126,-74"/>
<text text-anchor="middle" x="63" y="-62" font-family="Helvetica,sans-Serif" font-size="10.00">Cpl/Logging/TimeApi.h</text>
</a>
</g>
</g>
<!-- Node1&#45;&gt;Node2 -->
<g id="edge1_Node000001_Node000002" class="edge">
<title>Node1&#45;&gt;Node2</title>
<g id="a_edge1_Node000001_Node000002"><a xlink:title=" ">
<path fill="none" stroke="#63b8ff" d="M178.83,-109.98C156.23,-101.3 120.94,-87.75 95.25,-77.88"/>
<polygon fill="#63b8ff" stroke="#63b8ff" points="96.17,-74.49 85.58,-74.17 93.66,-81.02 96.17,-74.49"/>
</a>
</g>
</g>
<!-- Node4 -->
<g id="Node000004" class="node">
<title>Node4</title>
<g id="a_Node000004"><a xlink:title=" ">
<polygon fill="#e0e0e0" stroke="#999999" points="180.5,-19 127.5,-19 127.5,0 180.5,0 180.5,-19"/>
<text text-anchor="middle" x="154" y="-7" font-family="Helvetica,sans-Serif" font-size="10.00">stdint.h</text>
</a>
</g>
</g>
<!-- Node1&#45;&gt;Node4 -->
<g id="edge6_Node000001_Node000004" class="edge">
<title>Node1&#45;&gt;Node4</title>
<g id="a_edge6_Node000001_Node000004"><a xlink:title=" ">
<path fill="none" stroke="#63b8ff" d="M194.45,-109.7C188.23,-101.01 178.96,-87.13 173,-74 166.45,-59.57 161.45,-42.3 158.23,-29.41"/>
<polygon fill="#63b8ff" stroke="#63b8ff" points="161.57,-28.32 155.86,-19.4 154.75,-29.94 161.57,-28.32"/>
</a>
</g>
</g>
<!-- Node5 -->
<g id="Node000005" class="node">
<title>Node5</title>
<g id="a_Node000005"><a xlink:href="_payload_8h.html" target="_top" xlink:title=" ">
<polygon fill="white" stroke="#666666" points="316,-74 182,-74 182,-55 316,-55 316,-74"/>
<text text-anchor="middle" x="249" y="-62" font-family="Helvetica,sans-Serif" font-size="10.00">Cpl/Persistent/Payload.h</text>
</a>
</g>
</g>
<!-- Node1&#45;&gt;Node5 -->
<g id="edge4_Node000001_Node000005" class="edge">
<title>Node1&#45;&gt;Node5</title>
<g id="a_edge4_Node000001_Node000005"><a xlink:title=" ">
<path fill="none" stroke="#63b8ff" d="M208.93,-109.75C215.85,-102.11 226.07,-90.82 234.45,-81.56"/>
<polygon fill="#63b8ff" stroke="#63b8ff" points="237.1,-83.85 241.22,-74.09 231.91,-79.15 237.1,-83.85"/>
</a>
</g>
</g>
<!-- Node7 -->
<g id="Node000007" class="node">
<title>Node7</title>
<g id="a_Node000007"><a xlink:title=" ">
<polygon fill="#e0e0e0" stroke="#999999" points="387.5,-74 334.5,-74 334.5,-55 387.5,-55 387.5,-74"/>
<text text-anchor="middle" x="361" y="-62" font-family="Helvetica,sans-Serif" font-size="10.00">string.h</text>
</a>
</g>
</g>
<!-- Node1&#45;&gt;Node7 -->
<g id="edge7_Node000001_Node000007" class="edge">
<title>Node1&#45;&gt;Node7</title>
<g id="a_edge7_Node000001_Node000007"><a xlink:title=" ">
<path fill="none" stroke="#63b8ff" d="M226.71,-109.98C253.45,-101.13 295.53,-87.19 325.45,-77.28"/>
<polygon fill="#63b8ff" stroke="#63b8ff" points="326.7,-80.55 335.09,-74.08 324.5,-73.9 326.7,-80.55"/>
</a>
</g>
</g>
<!-- Node3 -->
<g id="Node000003" class="node">
<title>Node3</title>
<g id="a_Node000003"><a xlink:title=" ">
<polygon fill="#e0e0e0" stroke="#999999" points="109,-19 17,-19 17,0 109,0 109,-19"/>
<text text-anchor="middle" x="63" y="-7" font-family="Helvetica,sans-Serif" font-size="10.00">colony_config.h</text>
</a>
</g>
</g>
<!-- Node2&#45;&gt;Node3 -->
<g id="edge2_Node000002_Node000003" class="edge">
<title>Node2&#45;&gt;Node3</title>
<g id="a_edge2_Node000002_Node000003"><a xlink:title=" ">
<path fill="none" stroke="#63b8ff" d="M63,-54.75C63,-47.8 63,-37.85 63,-29.13"/>
<polygon fill="#63b8ff" stroke="#63b8ff" points="66.5,-29.09 63,-19.09 59.5,-29.09 66.5,-29.09"/>
</a>
</g>
</g>
<!-- Node2&#45;&gt;Node4 -->
<g id="edge3_Node000002_Node000004" class="edge">
<title>Node2&#45;&gt;Node4</title>
<g id="a_edge3_Node000002_Node000004"><a xlink:title=" ">
<path fill="none" stroke="#63b8ff" d="M77.62,-54.98C91.86,-46.69 113.75,-33.94 130.45,-24.22"/>
<polygon fill="#63b8ff" stroke="#63b8ff" points="132.23,-27.23 139.11,-19.17 128.71,-21.18 132.23,-27.23"/>
</a>
</g>
</g>
<!-- Node6 -->
<g id="Node000006" class="node">
<title>Node6</title>
<g id="a_Node000006"><a xlink:title=" ">
<polygon fill="#e0e0e0" stroke="#999999" points="275.5,-19 222.5,-19 222.5,0 275.5,0 275.5,-19"/>
<text text-anchor="middle" x="249" y="-7" font-family="Helvetica,sans-Serif" font-size="10.00">stdlib.h</text>
</a>
</g>
</g>
<!-- Node5&#45;&gt;Node6 -->
<g id="edge5_Node000005_Node000006" class="edge">
<title>Node5&#45;&gt;Node6</title>
<g id="a_edge5_Node000005_Node000006"><a xlink:title=" ">
<path fill="none" stroke="#63b8ff" d="M249,-54.75C249,-47.8 249,-37.85 249,-29.13"/>
<polygon fill="#63b8ff" stroke="#63b8ff" points="252.5,-29.09 249,-19.09 245.5,-29.09 252.5,-29.09"/>
</a>
</g>
</g>
</g>
</svg>
