<?xml version="1.0" encoding="UTF-8" standalone="no"?>
<!DOCTYPE svg PUBLIC "-//W3C//DTD SVG 1.1//EN"
 "http://www.w3.org/Graphics/SVG/1.1/DTD/svg11.dtd">
<!-- Generated by graphviz version 2.43.0 (0)
 -->
<!-- Title: Cpl/Text/FString.h Pages: 1 -->
<svg width="2847pt" height="357pt"
 viewBox="0.00 0.00 2846.50 357.00" xmlns="http://www.w3.org/2000/svg" xmlns:xlink="http://www.w3.org/1999/xlink">
<g id="graph0" class="graph" transform="scale(1 1) rotate(0) translate(4 353)">
<title>Cpl/Text/FString.h</title>
<!-- Node1 -->
<g id="Node000001" class="node">
<title>Node1</title>
<g id="a_Node000001"><a xlink:title=" ">
<polygon fill="#999999" stroke="#666666" points="2006.5,-349 1905.5,-349 1905.5,-330 2006.5,-330 2006.5,-349"/>
<text text-anchor="middle" x="1956" y="-337" font-family="Helvetica,sans-Serif" font-size="10.00">Cpl/Text/FString.h</text>
</a>
</g>
</g>
<!-- Node2 -->
<g id="Node000002" class="node">
<title>Node2</title>
<g id="a_Node000002"><a xlink:href="_numeric_8h.html" target="_top" xlink:title=" ">
<polygon fill="white" stroke="#666666" points="743,-288.5 619,-288.5 619,-269.5 743,-269.5 743,-288.5"/>
<text text-anchor="middle" x="681" y="-276.5" font-family="Helvetica,sans-Serif" font-size="10.00">Cpl/Dm/Mp/Numeric.h</text>
</a>
</g>
</g>
<!-- Node1&#45;&gt;Node2 -->
<g id="edge1_Node000001_Node000002" class="edge">
<title>Node1&#45;&gt;Node2</title>
<g id="a_edge1_Node000001_Node000002"><a xlink:title=" ">
<path fill="none" stroke="#63b8ff" d="M1895.09,-335.71C1680.38,-325.85 959.95,-292.8 743.2,-282.85"/>
<polygon fill="#63b8ff" stroke="#63b8ff" points="1895.08,-339.21 1905.23,-336.17 1895.4,-332.22 1895.08,-339.21"/>
</a>
</g>
</g>
<!-- Node20 -->
<g id="Node000020" class="node">
<title>Node20</title>
<g id="a_Node000020"><a xlink:href="_cpl_2_io_2_file_2_api_8h.html" target="_top" xlink:title=" ">
<polygon fill="white" stroke="#666666" points="1359,-288.5 1267,-288.5 1267,-269.5 1359,-269.5 1359,-288.5"/>
<text text-anchor="middle" x="1313" y="-276.5" font-family="Helvetica,sans-Serif" font-size="10.00">Cpl/Io/File/Api.h</text>
</a>
</g>
</g>
<!-- Node1&#45;&gt;Node20 -->
<g id="edge21_Node000001_Node000020" class="edge">
<title>Node1&#45;&gt;Node20</title>
<g id="a_edge21_Node000001_Node000020"><a xlink:title=" ">
<path fill="none" stroke="#63b8ff" d="M1895.01,-337.37C1787.75,-334.6 1558.66,-325.24 1368,-294 1359.64,-292.63 1350.69,-290.6 1342.49,-288.51"/>
<polygon fill="#63b8ff" stroke="#63b8ff" points="1895.23,-340.87 1905.31,-337.62 1895.4,-333.88 1895.23,-340.87"/>
</a>
</g>
</g>
<!-- Node24 -->
<g id="Node000024" class="node">
<title>Node24</title>
<g id="a_Node000024"><a xlink:href="_line_reader_8h.html" target="_top" xlink:title=" ">
<polygon fill="white" stroke="#666666" points="1487,-288.5 1377,-288.5 1377,-269.5 1487,-269.5 1487,-288.5"/>
<text text-anchor="middle" x="1432" y="-276.5" font-family="Helvetica,sans-Serif" font-size="10.00">Cpl/Io/LineReader.h</text>
</a>
</g>
</g>
<!-- Node1&#45;&gt;Node24 -->
<g id="edge25_Node000001_Node000024" class="edge">
<title>Node1&#45;&gt;Node24</title>
<g id="a_edge25_Node000001_Node000024"><a xlink:title=" ">
<path fill="none" stroke="#63b8ff" d="M1895.28,-334.93C1806.99,-329.23 1638.19,-316.35 1496,-294 1486.67,-292.53 1476.67,-290.55 1467.4,-288.53"/>
<polygon fill="#63b8ff" stroke="#63b8ff" points="1895.18,-338.43 1905.38,-335.58 1895.63,-331.45 1895.18,-338.43"/>
</a>
</g>
</g>
<!-- Node25 -->
<g id="Node000025" class="node">
<title>Node25</title>
<g id="a_Node000025"><a xlink:href="_bare_metal_2_thread_8h.html" target="_top" xlink:title=" ">
<polygon fill="white" stroke="#666666" points="1630.5,-294 1505.5,-294 1505.5,-264 1630.5,-264 1630.5,-294"/>
<text text-anchor="start" x="1513.5" y="-282" font-family="Helvetica,sans-Serif" font-size="10.00">Cpl/System/BareMetal</text>
<text text-anchor="middle" x="1568" y="-271" font-family="Helvetica,sans-Serif" font-size="10.00">/Thread.h</text>
</a>
</g>
</g>
<!-- Node1&#45;&gt;Node25 -->
<g id="edge26_Node000001_Node000025" class="edge">
<title>Node1&#45;&gt;Node25</title>
<g id="a_edge26_Node000001_Node000025"><a xlink:title=" ">
<path fill="none" stroke="#63b8ff" d="M1894.98,-330.87C1831.22,-322.67 1728.38,-308.81 1640,-294 1636.99,-293.5 1633.9,-292.96 1630.79,-292.41"/>
<polygon fill="#63b8ff" stroke="#63b8ff" points="1894.89,-334.38 1905.25,-332.18 1895.78,-327.44 1894.89,-334.38"/>
</a>
</g>
</g>
<!-- Node26 -->
<g id="Node000026" class="node">
<title>Node26</title>
<g id="a_Node000026"><a xlink:href="_cpp11_2_thread_8h.html" target="_top" xlink:title=" ">
<polygon fill="white" stroke="#666666" points="1801,-288.5 1649,-288.5 1649,-269.5 1801,-269.5 1801,-288.5"/>
<text text-anchor="middle" x="1725" y="-276.5" font-family="Helvetica,sans-Serif" font-size="10.00">Cpl/System/Cpp11/Thread.h</text>
</a>
</g>
</g>
<!-- Node1&#45;&gt;Node26 -->
<g id="edge27_Node000001_Node000026" class="edge">
<title>Node1&#45;&gt;Node26</title>
<g id="a_edge27_Node000001_Node000026"><a xlink:title=" ">
<path fill="none" stroke="#63b8ff" d="M1912.71,-327.54C1868.06,-316.23 1799.37,-298.83 1758.63,-288.52"/>
<polygon fill="#63b8ff" stroke="#63b8ff" points="1911.86,-330.93 1922.41,-329.99 1913.58,-324.15 1911.86,-330.93"/>
</a>
</g>
</g>
<!-- Node27 -->
<g id="Node000027" class="node">
<title>Node27</title>
<g id="a_Node000027"><a xlink:href="_free_r_t_o_s_2_thread_8h.html" target="_top" xlink:title=" ">
<polygon fill="white" stroke="#666666" points="1941,-294 1819,-294 1819,-264 1941,-264 1941,-294"/>
<text text-anchor="start" x="1827" y="-282" font-family="Helvetica,sans-Serif" font-size="10.00">Cpl/System/FreeRTOS</text>
<text text-anchor="middle" x="1880" y="-271" font-family="Helvetica,sans-Serif" font-size="10.00">/Thread.h</text>
</a>
</g>
</g>
<!-- Node1&#45;&gt;Node27 -->
<g id="edge28_Node000001_Node000027" class="edge">
<title>Node1&#45;&gt;Node27</title>
<g id="a_edge28_Node000001_Node000027"><a xlink:title=" ">
<path fill="none" stroke="#63b8ff" d="M1936.86,-323.77C1925.05,-314.68 1909.99,-303.09 1898.34,-294.11"/>
<polygon fill="#63b8ff" stroke="#63b8ff" points="1934.73,-326.54 1944.79,-329.87 1939,-320.99 1934.73,-326.54"/>
</a>
</g>
</g>
<!-- Node28 -->
<g id="Node000028" class="node">
<title>Node28</title>
<g id="a_Node000028"><a xlink:href="_posix_2_thread_8h.html" target="_top" xlink:title=" ">
<polygon fill="white" stroke="#666666" points="2106.5,-288.5 1959.5,-288.5 1959.5,-269.5 2106.5,-269.5 2106.5,-288.5"/>
<text text-anchor="middle" x="2033" y="-276.5" font-family="Helvetica,sans-Serif" font-size="10.00">Cpl/System/Posix/Thread.h</text>
</a>
</g>
</g>
<!-- Node1&#45;&gt;Node28 -->
<g id="edge29_Node000001_Node000028" class="edge">
<title>Node1&#45;&gt;Node28</title>
<g id="a_edge29_Node000001_Node000028"><a xlink:title=" ">
<path fill="none" stroke="#63b8ff" d="M1975.69,-323.54C1990.23,-312.49 2009.52,-297.84 2021.59,-288.67"/>
<polygon fill="#63b8ff" stroke="#63b8ff" points="1973.21,-321.03 1967.36,-329.87 1977.44,-326.61 1973.21,-321.03"/>
</a>
</g>
</g>
<!-- Node29 -->
<g id="Node000029" class="node">
<title>Node29</title>
<g id="a_Node000029"><a xlink:href="_win32_2_thread_8h.html" target="_top" xlink:title=" ">
<polygon fill="white" stroke="#666666" points="2277,-288.5 2125,-288.5 2125,-269.5 2277,-269.5 2277,-288.5"/>
<text text-anchor="middle" x="2201" y="-276.5" font-family="Helvetica,sans-Serif" font-size="10.00">Cpl/System/Win32/Thread.h</text>
</a>
</g>
</g>
<!-- Node1&#45;&gt;Node29 -->
<g id="edge30_Node000001_Node000029" class="edge">
<title>Node1&#45;&gt;Node29</title>
<g id="a_edge30_Node000001_Node000029"><a xlink:title=" ">
<path fill="none" stroke="#63b8ff" d="M2001.61,-327.61C2048.96,-316.3 2122.04,-298.85 2165.33,-288.52"/>
<polygon fill="#63b8ff" stroke="#63b8ff" points="2000.54,-324.27 1991.63,-329.99 2002.16,-331.08 2000.54,-324.27"/>
</a>
</g>
</g>
<!-- Node30 -->
<g id="Node000030" class="node">
<title>Node30</title>
<g id="a_Node000030"><a xlink:href="_processor_8h.html" target="_top" xlink:title=" ">
<polygon fill="white" stroke="#666666" points="2419,-288.5 2295,-288.5 2295,-269.5 2419,-269.5 2419,-288.5"/>
<text text-anchor="middle" x="2357" y="-276.5" font-family="Helvetica,sans-Serif" font-size="10.00">Cpl/TShell/Processor.h</text>
</a>
</g>
</g>
<!-- Node1&#45;&gt;Node30 -->
<g id="edge31_Node000001_Node000030" class="edge">
<title>Node1&#45;&gt;Node30</title>
<g id="a_edge31_Node000001_Node000030"><a xlink:title=" ">
<path fill="none" stroke="#63b8ff" d="M2017.01,-331.4C2083.37,-323.41 2192.48,-309.51 2286,-294 2295.67,-292.4 2306.04,-290.47 2315.78,-288.57"/>
<polygon fill="#63b8ff" stroke="#63b8ff" points="2016.25,-327.96 2006.74,-332.63 2017.09,-334.91 2016.25,-327.96"/>
</a>
</g>
</g>
<!-- Node34 -->
<g id="Node000034" class="node">
<title>Node34</title>
<g id="a_Node000034"><a xlink:href="_f_string_item_8h.html" target="_top" xlink:title=" ">
<polygon fill="white" stroke="#666666" points="2561,-288.5 2437,-288.5 2437,-269.5 2561,-269.5 2561,-288.5"/>
<text text-anchor="middle" x="2499" y="-276.5" font-family="Helvetica,sans-Serif" font-size="10.00">Cpl/Text/FStringItem.h</text>
</a>
</g>
</g>
<!-- Node1&#45;&gt;Node34 -->
<g id="edge35_Node000001_Node000034" class="edge">
<title>Node1&#45;&gt;Node34</title>
<g id="a_edge35_Node000001_Node000034"><a xlink:title=" ">
<path fill="none" stroke="#63b8ff" d="M2016.88,-334.73C2107.02,-328.7 2281.14,-315.35 2428,-294 2438.2,-292.52 2449.14,-290.55 2459.32,-288.56"/>
<polygon fill="#63b8ff" stroke="#63b8ff" points="2016.59,-331.24 2006.84,-335.39 2017.05,-338.22 2016.59,-331.24"/>
</a>
</g>
</g>
<!-- Node35 -->
<g id="Node000035" class="node">
<title>Node35</title>
<g id="a_Node000035"><a xlink:href="_guid_8h.html" target="_top" xlink:title=" ">
<polygon fill="white" stroke="#666666" points="2671,-288.5 2579,-288.5 2579,-269.5 2671,-269.5 2671,-288.5"/>
<text text-anchor="middle" x="2625" y="-276.5" font-family="Helvetica,sans-Serif" font-size="10.00">Cpl/Type/Guid.h</text>
</a>
</g>
</g>
<!-- Node1&#45;&gt;Node35 -->
<g id="edge36_Node000001_Node000035" class="edge">
<title>Node1&#45;&gt;Node35</title>
<g id="a_edge36_Node000001_Node000035"><a xlink:title=" ">
<path fill="none" stroke="#63b8ff" d="M2017.21,-337.64C2128.13,-335.29 2369.43,-326.53 2570,-294 2578.36,-292.64 2587.32,-290.62 2595.52,-288.53"/>
<polygon fill="#63b8ff" stroke="#63b8ff" points="2016.82,-334.15 2006.89,-337.85 2016.96,-341.14 2016.82,-334.15"/>
</a>
</g>
</g>
<!-- Node36 -->
<g id="Node000036" class="node">
<title>Node36</title>
<g id="a_Node000036"><a xlink:href="_t_pipe_2_red_green_blue_8h.html" target="_top" xlink:title=" ">
<polygon fill="white" stroke="#666666" points="2838.5,-294 2689.5,-294 2689.5,-264 2838.5,-264 2838.5,-294"/>
<text text-anchor="start" x="2697.5" y="-282" font-family="Helvetica,sans-Serif" font-size="10.00">Driver/LED/TPipe/RedGreen</text>
<text text-anchor="middle" x="2764" y="-271" font-family="Helvetica,sans-Serif" font-size="10.00">Blue.h</text>
</a>
</g>
</g>
<!-- Node1&#45;&gt;Node36 -->
<g id="edge37_Node000001_Node000036" class="edge">
<title>Node1&#45;&gt;Node36</title>
<g id="a_edge37_Node000001_Node000036"><a xlink:title=" ">
<path fill="none" stroke="#63b8ff" d="M2016.74,-336.9C2141.41,-333.13 2435.07,-321.86 2680,-294 2683.08,-293.65 2686.23,-293.26 2689.4,-292.85"/>
<polygon fill="#63b8ff" stroke="#63b8ff" points="2016.52,-333.4 2006.63,-337.2 2016.73,-340.4 2016.52,-333.4"/>
</a>
</g>
</g>
<!-- Node3 -->
<g id="Node000003" class="node">
<title>Node3</title>
<g id="a_Node000003"><a xlink:href="_bit_array16_8h.html" target="_top" xlink:title=" ">
<polygon fill="white" stroke="#666666" points="134,-222.5 0,-222.5 0,-203.5 134,-203.5 134,-222.5"/>
<text text-anchor="middle" x="67" y="-210.5" font-family="Helvetica,sans-Serif" font-size="10.00">Cpl/Dm/Mp/BitArray16.h</text>
</a>
</g>
</g>
<!-- Node2&#45;&gt;Node3 -->
<g id="edge2_Node000002_Node000003" class="edge">
<title>Node2&#45;&gt;Node3</title>
<g id="a_edge2_Node000002_Node000003"><a xlink:title=" ">
<path fill="none" stroke="#63b8ff" d="M608.63,-273.34C505.11,-266.21 308.91,-250.94 143,-228 132.1,-226.49 120.39,-224.51 109.5,-222.52"/>
<polygon fill="#63b8ff" stroke="#63b8ff" points="608.44,-276.84 618.66,-274.03 608.92,-269.85 608.44,-276.84"/>
</a>
</g>
</g>
<!-- Node4 -->
<g id="Node000004" class="node">
<title>Node4</title>
<g id="a_Node000004"><a xlink:href="_bit_array32_8h.html" target="_top" xlink:title=" ">
<polygon fill="white" stroke="#666666" points="286,-222.5 152,-222.5 152,-203.5 286,-203.5 286,-222.5"/>
<text text-anchor="middle" x="219" y="-210.5" font-family="Helvetica,sans-Serif" font-size="10.00">Cpl/Dm/Mp/BitArray32.h</text>
</a>
</g>
</g>
<!-- Node2&#45;&gt;Node4 -->
<g id="edge3_Node000002_Node000004" class="edge">
<title>Node2&#45;&gt;Node4</title>
<g id="a_edge3_Node000002_Node000004"><a xlink:title=" ">
<path fill="none" stroke="#63b8ff" d="M608.52,-269.78C530.82,-260.7 403.93,-245.08 295,-228 284.66,-226.38 273.57,-224.45 263.14,-222.54"/>
<polygon fill="#63b8ff" stroke="#63b8ff" points="608.34,-273.28 618.68,-270.96 609.15,-266.33 608.34,-273.28"/>
</a>
</g>
</g>
<!-- Node5 -->
<g id="Node000005" class="node">
<title>Node5</title>
<g id="a_Node000005"><a xlink:href="_double_8h.html" target="_top" xlink:title=" ">
<polygon fill="white" stroke="#666666" points="421.5,-222.5 304.5,-222.5 304.5,-203.5 421.5,-203.5 421.5,-222.5"/>
<text text-anchor="middle" x="363" y="-210.5" font-family="Helvetica,sans-Serif" font-size="10.00">Cpl/Dm/Mp/Double.h</text>
</a>
</g>
</g>
<!-- Node2&#45;&gt;Node5 -->
<g id="edge4_Node000002_Node000005" class="edge">
<title>Node2&#45;&gt;Node5</title>
<g id="a_edge4_Node000002_Node000005"><a xlink:title=" ">
<path fill="none" stroke="#63b8ff" d="M627.34,-267.46C576.5,-257.44 498.02,-241.88 430,-228 421.38,-226.24 412.15,-224.33 403.38,-222.5"/>
<polygon fill="#63b8ff" stroke="#63b8ff" points="626.96,-270.95 637.44,-269.45 628.31,-264.09 626.96,-270.95"/>
</a>
</g>
</g>
<!-- Node6 -->
<g id="Node000006" class="node">
<title>Node6</title>
<g id="a_Node000006"><a xlink:href="_float_8h.html" target="_top" xlink:title=" ">
<polygon fill="white" stroke="#666666" points="546.5,-222.5 439.5,-222.5 439.5,-203.5 546.5,-203.5 546.5,-222.5"/>
<text text-anchor="middle" x="493" y="-210.5" font-family="Helvetica,sans-Serif" font-size="10.00">Cpl/Dm/Mp/Float.h</text>
</a>
</g>
</g>
<!-- Node2&#45;&gt;Node6 -->
<g id="edge5_Node000002_Node000006" class="edge">
<title>Node2&#45;&gt;Node6</title>
<g id="a_edge5_Node000002_Node000006"><a xlink:title=" ">
<path fill="none" stroke="#63b8ff" d="M645.75,-266C608.63,-253.36 551.09,-233.78 518.25,-222.6"/>
<polygon fill="#63b8ff" stroke="#63b8ff" points="645.05,-269.46 655.65,-269.37 647.31,-262.83 645.05,-269.46"/>
</a>
</g>
</g>
<!-- Node9 -->
<g id="Node000009" class="node">
<title>Node9</title>
<g id="a_Node000009"><a xlink:href="_int32_8h.html" target="_top" xlink:title=" ">
<polygon fill="white" stroke="#666666" points="671.5,-222.5 564.5,-222.5 564.5,-203.5 671.5,-203.5 671.5,-222.5"/>
<text text-anchor="middle" x="618" y="-210.5" font-family="Helvetica,sans-Serif" font-size="10.00">Cpl/Dm/Mp/Int32.h</text>
</a>
</g>
</g>
<!-- Node2&#45;&gt;Node9 -->
<g id="edge8_Node000002_Node000009" class="edge">
<title>Node2&#45;&gt;Node9</title>
<g id="a_edge8_Node000002_Node000009"><a xlink:title=" ">
<path fill="none" stroke="#63b8ff" d="M665.23,-261.98C653.06,-249.62 636.69,-232.99 626.77,-222.91"/>
<polygon fill="#63b8ff" stroke="#63b8ff" points="662.99,-264.7 672.5,-269.37 667.98,-259.79 662.99,-264.7"/>
</a>
</g>
</g>
<!-- Node10 -->
<g id="Node000010" class="node">
<title>Node10</title>
<g id="a_Node000010"><a xlink:href="_int64_8h.html" target="_top" xlink:title=" ">
<polygon fill="white" stroke="#666666" points="796.5,-222.5 689.5,-222.5 689.5,-203.5 796.5,-203.5 796.5,-222.5"/>
<text text-anchor="middle" x="743" y="-210.5" font-family="Helvetica,sans-Serif" font-size="10.00">Cpl/Dm/Mp/Int64.h</text>
</a>
</g>
</g>
<!-- Node2&#45;&gt;Node10 -->
<g id="edge9_Node000002_Node000010" class="edge">
<title>Node2&#45;&gt;Node10</title>
<g id="a_edge9_Node000002_Node000010"><a xlink:title=" ">
<path fill="none" stroke="#63b8ff" d="M696.52,-261.98C708.49,-249.62 724.6,-232.99 734.37,-222.91"/>
<polygon fill="#63b8ff" stroke="#63b8ff" points="693.81,-259.75 689.36,-269.37 698.83,-264.62 693.81,-259.75"/>
</a>
</g>
</g>
<!-- Node11 -->
<g id="Node000011" class="node">
<title>Node11</title>
<g id="a_Node000011"><a xlink:href="_uint32_8h.html" target="_top" xlink:title=" ">
<polygon fill="white" stroke="#666666" points="929.5,-222.5 814.5,-222.5 814.5,-203.5 929.5,-203.5 929.5,-222.5"/>
<text text-anchor="middle" x="872" y="-210.5" font-family="Helvetica,sans-Serif" font-size="10.00">Cpl/Dm/Mp/Uint32.h</text>
</a>
</g>
</g>
<!-- Node2&#45;&gt;Node11 -->
<g id="edge10_Node000002_Node000011" class="edge">
<title>Node2&#45;&gt;Node11</title>
<g id="a_edge10_Node000002_Node000011"><a xlink:title=" ">
<path fill="none" stroke="#63b8ff" d="M716.33,-266.16C754.03,-253.53 812.84,-233.82 846.34,-222.6"/>
<polygon fill="#63b8ff" stroke="#63b8ff" points="715.13,-262.87 706.76,-269.37 717.35,-269.51 715.13,-262.87"/>
</a>
</g>
</g>
<!-- Node17 -->
<g id="Node000017" class="node">
<title>Node17</title>
<g id="a_Node000017"><a xlink:href="_uint64_8h.html" target="_top" xlink:title=" ">
<polygon fill="white" stroke="#666666" points="1062.5,-222.5 947.5,-222.5 947.5,-203.5 1062.5,-203.5 1062.5,-222.5"/>
<text text-anchor="middle" x="1005" y="-210.5" font-family="Helvetica,sans-Serif" font-size="10.00">Cpl/Dm/Mp/Uint64.h</text>
</a>
</g>
</g>
<!-- Node2&#45;&gt;Node17 -->
<g id="edge17_Node000002_Node000017" class="edge">
<title>Node2&#45;&gt;Node17</title>
<g id="a_edge17_Node000002_Node000017"><a xlink:title=" ">
<path fill="none" stroke="#63b8ff" d="M736.1,-267.51C788.17,-257.54 868.45,-242.03 938,-228 946.62,-226.26 955.85,-224.36 964.63,-222.53"/>
<polygon fill="#63b8ff" stroke="#63b8ff" points="735.23,-264.11 726.07,-269.43 736.55,-270.99 735.23,-264.11"/>
</a>
</g>
</g>
<!-- Node19 -->
<g id="Node000019" class="node">
<title>Node19</title>
<g id="a_Node000019"><a xlink:href="_void_8h.html" target="_top" xlink:title=" ">
<polygon fill="white" stroke="#666666" points="1185,-222.5 1081,-222.5 1081,-203.5 1185,-203.5 1185,-222.5"/>
<text text-anchor="middle" x="1133" y="-210.5" font-family="Helvetica,sans-Serif" font-size="10.00">Cpl/Dm/Mp/Void.h</text>
</a>
</g>
</g>
<!-- Node2&#45;&gt;Node19 -->
<g id="edge20_Node000002_Node000019" class="edge">
<title>Node2&#45;&gt;Node19</title>
<g id="a_edge20_Node000002_Node000019"><a xlink:title=" ">
<path fill="none" stroke="#63b8ff" d="M753.34,-270.8C831.88,-262.49 960.83,-247.46 1071,-228 1079.8,-226.45 1089.24,-224.47 1098.03,-222.5"/>
<polygon fill="#63b8ff" stroke="#63b8ff" points="752.66,-267.35 743.08,-271.87 753.39,-274.31 752.66,-267.35"/>
</a>
</g>
</g>
<!-- Node7 -->
<g id="Node000007" class="node">
<title>Node7</title>
<g id="a_Node000007"><a xlink:href="_cpl_2_m_app_2_temperature_2_api_8h.html" target="_top" xlink:title=" ">
<polygon fill="white" stroke="#666666" points="480,-162 352,-162 352,-132 480,-132 480,-162"/>
<text text-anchor="start" x="360" y="-150" font-family="Helvetica,sans-Serif" font-size="10.00">Cpl/MApp/Temperature</text>
<text text-anchor="middle" x="416" y="-139" font-family="Helvetica,sans-Serif" font-size="10.00">/Api.h</text>
</a>
</g>
</g>
<!-- Node6&#45;&gt;Node7 -->
<g id="edge6_Node000006_Node000007" class="edge">
<title>Node6&#45;&gt;Node7</title>
<g id="a_edge6_Node000006_Node000007"><a xlink:title=" ">
<path fill="none" stroke="#63b8ff" d="M474.61,-196.71C461.97,-186.21 445.31,-172.36 432.98,-162.12"/>
<polygon fill="#63b8ff" stroke="#63b8ff" points="472.69,-199.67 482.62,-203.37 477.16,-194.28 472.69,-199.67"/>
</a>
</g>
</g>
<!-- Node8 -->
<g id="Node000008" class="node">
<title>Node8</title>
<g id="a_Node000008"><a xlink:href="_driver_2_r_h_temp_2_simulated_2_api_8h.html" target="_top" xlink:title=" ">
<polygon fill="white" stroke="#666666" points="641.5,-162 498.5,-162 498.5,-132 641.5,-132 641.5,-162"/>
<text text-anchor="start" x="506.5" y="-150" font-family="Helvetica,sans-Serif" font-size="10.00">Driver/RHTemp/Simulated</text>
<text text-anchor="middle" x="570" y="-139" font-family="Helvetica,sans-Serif" font-size="10.00">/Api.h</text>
</a>
</g>
</g>
<!-- Node6&#45;&gt;Node8 -->
<g id="edge7_Node000006_Node000008" class="edge">
<title>Node6&#45;&gt;Node8</title>
<g id="a_edge7_Node000006_Node000008"><a xlink:title=" ">
<path fill="none" stroke="#63b8ff" d="M511.39,-196.71C524.03,-186.21 540.69,-172.36 553.02,-162.12"/>
<polygon fill="#63b8ff" stroke="#63b8ff" points="508.84,-194.28 503.38,-203.37 513.31,-199.67 508.84,-194.28"/>
</a>
</g>
</g>
<!-- Node12 -->
<g id="Node000012" class="node">
<title>Node12</title>
<g id="a_Node000012"><a xlink:href="_ring_buffer_m_p_8h.html" target="_top" xlink:title=" ">
<polygon fill="white" stroke="#666666" points="951.5,-156.5 792.5,-156.5 792.5,-137.5 951.5,-137.5 951.5,-156.5"/>
<text text-anchor="middle" x="872" y="-144.5" font-family="Helvetica,sans-Serif" font-size="10.00">Cpl/Container/RingBufferMP.h</text>
</a>
</g>
</g>
<!-- Node11&#45;&gt;Node12 -->
<g id="edge11_Node000011_Node000012" class="edge">
<title>Node11&#45;&gt;Node12</title>
<g id="a_edge11_Node000011_Node000012"><a xlink:title=" ">
<path fill="none" stroke="#63b8ff" d="M872,-193.08C872,-181.13 872,-166.22 872,-156.91"/>
<polygon fill="#63b8ff" stroke="#63b8ff" points="868.5,-193.37 872,-203.37 875.5,-193.37 868.5,-193.37"/>
</a>
</g>
</g>
<!-- Node13 -->
<g id="Node000013" class="node">
<title>Node13</title>
<g id="a_Node000013"><a xlink:href="_cpl_2_logging_2_api_8h.html" target="_top" xlink:title=" ">
<polygon fill="white" stroke="#666666" points="808.5,-90.5 707.5,-90.5 707.5,-71.5 808.5,-71.5 808.5,-90.5"/>
<text text-anchor="middle" x="758" y="-78.5" font-family="Helvetica,sans-Serif" font-size="10.00">Cpl/Logging/Api.h</text>
</a>
</g>
</g>
<!-- Node11&#45;&gt;Node13 -->
<g id="edge16_Node000011_Node000013" class="edge">
<title>Node11&#45;&gt;Node13</title>
<g id="a_edge16_Node000011_Node000013"><a xlink:title=" ">
<path fill="none" stroke="#63b8ff" d="M836.59,-199.51C818.26,-191.4 796.87,-179.12 783,-162 765.5,-140.4 760.2,-106.5 758.63,-90.68"/>
<polygon fill="#63b8ff" stroke="#63b8ff" points="835.27,-202.75 845.85,-203.37 837.97,-196.29 835.27,-202.75"/>
</a>
</g>
</g>
<!-- Node12&#45;&gt;Node13 -->
<g id="edge12_Node000012_Node000013" class="edge">
<title>Node12&#45;&gt;Node13</title>
<g id="a_edge12_Node000012_Node000013"><a xlink:title=" ">
<path fill="none" stroke="#63b8ff" d="M847.7,-132.36C825.26,-119.76 792.59,-101.42 773.5,-90.7"/>
<polygon fill="#63b8ff" stroke="#63b8ff" points="846.19,-135.53 856.63,-137.37 849.62,-129.42 846.19,-135.53"/>
</a>
</g>
</g>
<!-- Node14 -->
<g id="Node000014" class="node">
<title>Node14</title>
<g id="a_Node000014"><a xlink:href="_log_sink_8h.html" target="_top" xlink:title=" ">
<polygon fill="white" stroke="#666666" points="951,-90.5 827,-90.5 827,-71.5 951,-71.5 951,-90.5"/>
<text text-anchor="middle" x="889" y="-78.5" font-family="Helvetica,sans-Serif" font-size="10.00">Cpl/Logging/LogSink.h</text>
</a>
</g>
</g>
<!-- Node12&#45;&gt;Node14 -->
<g id="edge13_Node000012_Node000014" class="edge">
<title>Node12&#45;&gt;Node14</title>
<g id="a_edge13_Node000012_Node000014"><a xlink:title=" ">
<path fill="none" stroke="#63b8ff" d="M876.93,-127.45C880.12,-115.43 884.13,-100.32 886.63,-90.91"/>
<polygon fill="#63b8ff" stroke="#63b8ff" points="873.48,-126.81 874.29,-137.37 880.24,-128.6 873.48,-126.81"/>
</a>
</g>
</g>
<!-- Node15 -->
<g id="Node000015" class="node">
<title>Node15</title>
<g id="a_Node000015"><a xlink:href="_indexed_entry_server_8h.html" target="_top" xlink:title=" ">
<polygon fill="white" stroke="#666666" points="1120.5,-96 969.5,-96 969.5,-66 1120.5,-66 1120.5,-96"/>
<text text-anchor="start" x="977.5" y="-84" font-family="Helvetica,sans-Serif" font-size="10.00">Cpl/Persistent/IndexedEntry</text>
<text text-anchor="middle" x="1045" y="-73" font-family="Helvetica,sans-Serif" font-size="10.00">Server.h</text>
</a>
</g>
</g>
<!-- Node12&#45;&gt;Node15 -->
<g id="edge14_Node000012_Node000015" class="edge">
<title>Node12&#45;&gt;Node15</title>
<g id="a_edge14_Node000012_Node000015"><a xlink:title=" ">
<path fill="none" stroke="#63b8ff" d="M905.01,-133.79C934.06,-123.04 976.35,-107.4 1006.84,-96.12"/>
<polygon fill="#63b8ff" stroke="#63b8ff" points="903.5,-130.62 895.33,-137.37 905.92,-137.18 903.5,-130.62"/>
</a>
</g>
</g>
<!-- Node16 -->
<g id="Node000016" class="node">
<title>Node16</title>
<g id="a_Node000016"><a xlink:href="_log_8h.html" target="_top" xlink:title=" ">
<polygon fill="white" stroke="#666666" points="1098.5,-30 991.5,-30 991.5,0 1098.5,0 1098.5,-30"/>
<text text-anchor="start" x="999.5" y="-18" font-family="Helvetica,sans-Serif" font-size="10.00">Cpl/Logging/TShell</text>
<text text-anchor="middle" x="1045" y="-7" font-family="Helvetica,sans-Serif" font-size="10.00">/Log.h</text>
</a>
</g>
</g>
<!-- Node15&#45;&gt;Node16 -->
<g id="edge15_Node000015_Node000016" class="edge">
<title>Node15&#45;&gt;Node16</title>
<g id="a_edge15_Node000015_Node000016"><a xlink:title=" ">
<path fill="none" stroke="#63b8ff" d="M1045,-55.54C1045,-46.96 1045,-37.61 1045,-30.16"/>
<polygon fill="#63b8ff" stroke="#63b8ff" points="1041.5,-55.8 1045,-65.8 1048.5,-55.8 1041.5,-55.8"/>
</a>
</g>
</g>
<!-- Node18 -->
<g id="Node000018" class="node">
<title>Node18</title>
<g id="a_Node000018"><a xlink:href="_indexed_entry_record_8h.html" target="_top" xlink:title=" ">
<polygon fill="white" stroke="#666666" points="1120.5,-162 969.5,-162 969.5,-132 1120.5,-132 1120.5,-162"/>
<text text-anchor="start" x="977.5" y="-150" font-family="Helvetica,sans-Serif" font-size="10.00">Cpl/Persistent/IndexedEntry</text>
<text text-anchor="middle" x="1045" y="-139" font-family="Helvetica,sans-Serif" font-size="10.00">Record.h</text>
</a>
</g>
</g>
<!-- Node17&#45;&gt;Node18 -->
<g id="edge18_Node000017_Node000018" class="edge">
<title>Node17&#45;&gt;Node18</title>
<g id="a_edge18_Node000017_Node000018"><a xlink:title=" ">
<path fill="none" stroke="#63b8ff" d="M1015.87,-194.61C1022.19,-184.5 1030.06,-171.91 1036.02,-162.36"/>
<polygon fill="#63b8ff" stroke="#63b8ff" points="1012.73,-193.03 1010.39,-203.37 1018.66,-196.74 1012.73,-193.03"/>
</a>
</g>
</g>
<!-- Node18&#45;&gt;Node15 -->
<g id="edge19_Node000018_Node000015" class="edge">
<title>Node18&#45;&gt;Node15</title>
<g id="a_edge19_Node000018_Node000015"><a xlink:title=" ">
<path fill="none" stroke="#63b8ff" d="M1045,-121.54C1045,-112.96 1045,-103.61 1045,-96.16"/>
<polygon fill="#63b8ff" stroke="#63b8ff" points="1041.5,-121.8 1045,-131.8 1048.5,-121.8 1041.5,-121.8"/>
</a>
</g>
</g>
<!-- Node21 -->
<g id="Node000021" class="node">
<title>Node21</title>
<g id="a_Node000021"><a xlink:href="_littlefs_2__api_2_dir_list___8h.html" target="_top" xlink:title=" ">
<polygon fill="white" stroke="#666666" points="1304.5,-228 1203.5,-228 1203.5,-198 1304.5,-198 1304.5,-228"/>
<text text-anchor="start" x="1211.5" y="-216" font-family="Helvetica,sans-Serif" font-size="10.00">Cpl/Io/File/Littlefs</text>
<text text-anchor="middle" x="1254" y="-205" font-family="Helvetica,sans-Serif" font-size="10.00">/_api/DirList_.h</text>
</a>
</g>
</g>
<!-- Node20&#45;&gt;Node21 -->
<g id="edge22_Node000020_Node000021" class="edge">
<title>Node20&#45;&gt;Node21</title>
<g id="a_edge22_Node000020_Node000021"><a xlink:title=" ">
<path fill="none" stroke="#63b8ff" d="M1298.11,-261.85C1288.61,-251.54 1276.4,-238.3 1267.24,-228.36"/>
<polygon fill="#63b8ff" stroke="#63b8ff" points="1295.69,-264.39 1305.04,-269.37 1300.84,-259.64 1295.69,-264.39"/>
</a>
</g>
</g>
<!-- Node22 -->
<g id="Node000022" class="node">
<title>Node22</title>
<g id="a_Node000022"><a xlink:href="__posix_2__api_2_dir_list___8h.html" target="_top" xlink:title=" ">
<polygon fill="white" stroke="#666666" points="1421.5,-228 1322.5,-228 1322.5,-198 1421.5,-198 1421.5,-228"/>
<text text-anchor="start" x="1330.5" y="-216" font-family="Helvetica,sans-Serif" font-size="10.00">Cpl/Io/File/_posix</text>
<text text-anchor="middle" x="1372" y="-205" font-family="Helvetica,sans-Serif" font-size="10.00">/_api/DirList_.h</text>
</a>
</g>
</g>
<!-- Node20&#45;&gt;Node22 -->
<g id="edge23_Node000020_Node000022" class="edge">
<title>Node20&#45;&gt;Node22</title>
<g id="a_edge23_Node000020_Node000022"><a xlink:title=" ">
<path fill="none" stroke="#63b8ff" d="M1327.89,-261.85C1337.39,-251.54 1349.6,-238.3 1358.76,-228.36"/>
<polygon fill="#63b8ff" stroke="#63b8ff" points="1325.16,-259.64 1320.96,-269.37 1330.31,-264.39 1325.16,-259.64"/>
</a>
</g>
</g>
<!-- Node23 -->
<g id="Node000023" class="node">
<title>Node23</title>
<g id="a_Node000023"><a xlink:href="__win32_2__api_2_dir_list___8h.html" target="_top" xlink:title=" ">
<polygon fill="white" stroke="#666666" points="1542,-228 1440,-228 1440,-198 1542,-198 1542,-228"/>
<text text-anchor="start" x="1448" y="-216" font-family="Helvetica,sans-Serif" font-size="10.00">Cpl/Io/File/_win32</text>
<text text-anchor="middle" x="1491" y="-205" font-family="Helvetica,sans-Serif" font-size="10.00">/_api/DirList_.h</text>
</a>
</g>
</g>
<!-- Node20&#45;&gt;Node23 -->
<g id="edge24_Node000020_Node000023" class="edge">
<title>Node20&#45;&gt;Node23</title>
<g id="a_edge24_Node000020_Node000023"><a xlink:title=" ">
<path fill="none" stroke="#63b8ff" d="M1346.58,-265.93C1376.47,-255.18 1420.23,-239.44 1451.74,-228.12"/>
<polygon fill="#63b8ff" stroke="#63b8ff" points="1345.23,-262.69 1337.01,-269.37 1347.6,-269.28 1345.23,-262.69"/>
</a>
</g>
</g>
<!-- Node31 -->
<g id="Node000031" class="node">
<title>Node31</title>
<g id="a_Node000031"><a xlink:href="_cpl_2_t_shell_2_maker_8h.html" target="_top" xlink:title=" ">
<polygon fill="white" stroke="#666666" points="2335.5,-222.5 2228.5,-222.5 2228.5,-203.5 2335.5,-203.5 2335.5,-222.5"/>
<text text-anchor="middle" x="2282" y="-210.5" font-family="Helvetica,sans-Serif" font-size="10.00">Cpl/TShell/Maker.h</text>
</a>
</g>
</g>
<!-- Node30&#45;&gt;Node31 -->
<g id="edge32_Node000030_Node000031" class="edge">
<title>Node30&#45;&gt;Node31</title>
<g id="a_edge32_Node000030_Node000031"><a xlink:title=" ">
<path fill="none" stroke="#63b8ff" d="M2339.05,-262.68C2324.49,-250.26 2304.48,-233.18 2292.44,-222.91"/>
<polygon fill="#63b8ff" stroke="#63b8ff" points="2337.01,-265.54 2346.89,-269.37 2341.55,-260.22 2337.01,-265.54"/>
</a>
</g>
</g>
<!-- Node32 -->
<g id="Node000032" class="node">
<title>Node32</title>
<g id="a_Node000032"><a xlink:href="_polled_processor_8h.html" target="_top" xlink:title=" ">
<polygon fill="white" stroke="#666666" points="2508,-222.5 2354,-222.5 2354,-203.5 2508,-203.5 2508,-222.5"/>
<text text-anchor="middle" x="2431" y="-210.5" font-family="Helvetica,sans-Serif" font-size="10.00">Cpl/TShell/PolledProcessor.h</text>
</a>
</g>
</g>
<!-- Node30&#45;&gt;Node32 -->
<g id="edge33_Node000030_Node000032" class="edge">
<title>Node30&#45;&gt;Node32</title>
<g id="a_edge33_Node000030_Node000032"><a xlink:title=" ">
<path fill="none" stroke="#63b8ff" d="M2374.71,-262.68C2389.08,-250.26 2408.82,-233.18 2420.7,-222.91"/>
<polygon fill="#63b8ff" stroke="#63b8ff" points="2372.25,-260.18 2366.98,-269.37 2376.83,-265.47 2372.25,-260.18"/>
</a>
</g>
</g>
<!-- Node33 -->
<g id="Node000033" class="node">
<title>Node33</title>
<g id="a_Node000033"><a xlink:href="_polled_maker_8h.html" target="_top" xlink:title=" ">
<polygon fill="white" stroke="#666666" points="2499.5,-156.5 2362.5,-156.5 2362.5,-137.5 2499.5,-137.5 2499.5,-156.5"/>
<text text-anchor="middle" x="2431" y="-144.5" font-family="Helvetica,sans-Serif" font-size="10.00">Cpl/TShell/PolledMaker.h</text>
</a>
</g>
</g>
<!-- Node32&#45;&gt;Node33 -->
<g id="edge34_Node000032_Node000033" class="edge">
<title>Node32&#45;&gt;Node33</title>
<g id="a_edge34_Node000032_Node000033"><a xlink:title=" ">
<path fill="none" stroke="#63b8ff" d="M2431,-193.08C2431,-181.13 2431,-166.22 2431,-156.91"/>
<polygon fill="#63b8ff" stroke="#63b8ff" points="2427.5,-193.37 2431,-203.37 2434.5,-193.37 2427.5,-193.37"/>
</a>
</g>
</g>
</g>
</svg>
