<?xml version="1.0" encoding="UTF-8" standalone="no"?>
<!DOCTYPE svg PUBLIC "-//W3C//DTD SVG 1.1//EN"
 "http://www.w3.org/Graphics/SVG/1.1/DTD/svg11.dtd">
<!-- Generated by graphviz version 2.43.0 (0)
 -->
<!-- Title: Cpl/Text/FStringItem.h Pages: 1 -->
<svg width="631pt" height="412pt"
 viewBox="0.00 0.00 630.50 412.00" xmlns="http://www.w3.org/2000/svg" xmlns:xlink="http://www.w3.org/1999/xlink">
<g id="graph0" class="graph" transform="scale(1 1) rotate(0) translate(4 408)">
<title>Cpl/Text/FStringItem.h</title>
<!-- Node1 -->
<g id="Node000001" class="node">
<title>Node1</title>
<g id="a_Node000001"><a xlink:title=" ">
<polygon fill="#999999" stroke="#666666" points="470.5,-404 346.5,-404 346.5,-385 470.5,-385 470.5,-404"/>
<text text-anchor="middle" x="408.5" y="-392" font-family="Helvetica,sans-Serif" font-size="10.00">Cpl/Text/FStringItem.h</text>
</a>
</g>
</g>
<!-- Node2 -->
<g id="Node000002" class="node">
<title>Node2</title>
<g id="a_Node000002"><a xlink:href="_string_item_8h.html" target="_top" xlink:title=" ">
<polygon fill="white" stroke="#666666" points="412,-294 293,-294 293,-275 412,-275 412,-294"/>
<text text-anchor="middle" x="352.5" y="-282" font-family="Helvetica,sans-Serif" font-size="10.00">Cpl/Text/StringItem.h</text>
</a>
</g>
</g>
<!-- Node1&#45;&gt;Node2 -->
<g id="edge1_Node000001_Node000002" class="edge">
<title>Node1&#45;&gt;Node2</title>
<g id="a_edge1_Node000001_Node000002"><a xlink:title=" ">
<path fill="none" stroke="#63b8ff" d="M403.92,-384.66C394.72,-366.93 373.88,-326.73 361.74,-303.32"/>
<polygon fill="#63b8ff" stroke="#63b8ff" points="364.7,-301.42 356.99,-294.16 358.49,-304.65 364.7,-301.42"/>
</a>
</g>
</g>
<!-- Node16 -->
<g id="Node000016" class="node">
<title>Node16</title>
<g id="a_Node000016"><a xlink:href="_f_string_8h.html" target="_top" xlink:title=" ">
<polygon fill="white" stroke="#666666" points="515,-349 414,-349 414,-330 515,-330 515,-349"/>
<text text-anchor="middle" x="464.5" y="-337" font-family="Helvetica,sans-Serif" font-size="10.00">Cpl/Text/FString.h</text>
</a>
</g>
</g>
<!-- Node1&#45;&gt;Node16 -->
<g id="edge17_Node000001_Node000016" class="edge">
<title>Node1&#45;&gt;Node16</title>
<g id="a_edge17_Node000001_Node000016"><a xlink:title=" ">
<path fill="none" stroke="#63b8ff" d="M417.5,-384.98C425.69,-377.23 438.01,-365.58 447.97,-356.14"/>
<polygon fill="#63b8ff" stroke="#63b8ff" points="450.48,-358.59 455.34,-349.17 445.67,-353.5 450.48,-358.59"/>
</a>
</g>
</g>
<!-- Node3 -->
<g id="Node000003" class="node">
<title>Node3</title>
<g id="a_Node000003"><a xlink:href="_map_item_8h.html" target="_top" xlink:title=" ">
<polygon fill="white" stroke="#666666" points="292.5,-239 154.5,-239 154.5,-220 292.5,-220 292.5,-239"/>
<text text-anchor="middle" x="223.5" y="-227" font-family="Helvetica,sans-Serif" font-size="10.00">Cpl/Container/MapItem.h</text>
</a>
</g>
</g>
<!-- Node2&#45;&gt;Node3 -->
<g id="edge2_Node000002_Node000003" class="edge">
<title>Node2&#45;&gt;Node3</title>
<g id="a_edge2_Node000002_Node000003"><a xlink:title=" ">
<path fill="none" stroke="#63b8ff" d="M331.77,-274.98C310.74,-266.34 277.95,-252.87 253.96,-243.02"/>
<polygon fill="#63b8ff" stroke="#63b8ff" points="255.18,-239.73 244.6,-239.17 252.52,-246.21 255.18,-239.73"/>
</a>
</g>
</g>
<!-- Node13 -->
<g id="Node000013" class="node">
<title>Node13</title>
<g id="a_Node000013"><a xlink:href="_text_2_string_8h.html" target="_top" xlink:title=" ">
<polygon fill="white" stroke="#666666" points="400.5,-184 304.5,-184 304.5,-165 400.5,-165 400.5,-184"/>
<text text-anchor="middle" x="352.5" y="-172" font-family="Helvetica,sans-Serif" font-size="10.00">Cpl/Text/String.h</text>
</a>
</g>
</g>
<!-- Node2&#45;&gt;Node13 -->
<g id="edge12_Node000002_Node000013" class="edge">
<title>Node2&#45;&gt;Node13</title>
<g id="a_edge12_Node000002_Node000013"><a xlink:title=" ">
<path fill="none" stroke="#63b8ff" d="M352.5,-274.66C352.5,-257.17 352.5,-217.8 352.5,-194.27"/>
<polygon fill="#63b8ff" stroke="#63b8ff" points="356,-194.16 352.5,-184.16 349,-194.16 356,-194.16"/>
</a>
</g>
</g>
<!-- Node4 -->
<g id="Node000004" class="node">
<title>Node4</title>
<g id="a_Node000004"><a xlink:href="_dict_item_8h.html" target="_top" xlink:title=" ">
<polygon fill="white" stroke="#666666" points="259,-184 122,-184 122,-165 259,-165 259,-184"/>
<text text-anchor="middle" x="190.5" y="-172" font-family="Helvetica,sans-Serif" font-size="10.00">Cpl/Container/DictItem.h</text>
</a>
</g>
</g>
<!-- Node3&#45;&gt;Node4 -->
<g id="edge3_Node000003_Node000004" class="edge">
<title>Node3&#45;&gt;Node4</title>
<g id="a_edge3_Node000003_Node000004"><a xlink:title=" ">
<path fill="none" stroke="#63b8ff" d="M218.05,-219.75C213.49,-212.42 206.83,-201.73 201.21,-192.7"/>
<polygon fill="#63b8ff" stroke="#63b8ff" points="204.1,-190.73 195.85,-184.09 198.16,-194.43 204.1,-190.73"/>
</a>
</g>
</g>
<!-- Node5 -->
<g id="Node000005" class="node">
<title>Node5</title>
<g id="a_Node000005"><a xlink:href="_item_8h.html" target="_top" xlink:title=" ">
<polygon fill="white" stroke="#666666" points="117,-129 0,-129 0,-110 117,-110 117,-129"/>
<text text-anchor="middle" x="58.5" y="-117" font-family="Helvetica,sans-Serif" font-size="10.00">Cpl/Container/Item.h</text>
</a>
</g>
</g>
<!-- Node4&#45;&gt;Node5 -->
<g id="edge4_Node000004_Node000005" class="edge">
<title>Node4&#45;&gt;Node5</title>
<g id="a_edge4_Node000004_Node000005"><a xlink:title=" ">
<path fill="none" stroke="#63b8ff" d="M169.29,-164.98C147.77,-156.34 114.22,-142.87 89.67,-133.02"/>
<polygon fill="#63b8ff" stroke="#63b8ff" points="90.68,-129.65 80.09,-129.17 88.07,-136.14 90.68,-129.65"/>
</a>
</g>
</g>
<!-- Node6 -->
<g id="Node000006" class="node">
<title>Node6</title>
<g id="a_Node000006"><a xlink:href="_key_8h.html" target="_top" xlink:title=" ">
<polygon fill="white" stroke="#666666" points="246,-129 135,-129 135,-110 246,-110 246,-129"/>
<text text-anchor="middle" x="190.5" y="-117" font-family="Helvetica,sans-Serif" font-size="10.00">Cpl/Container/Key.h</text>
</a>
</g>
</g>
<!-- Node4&#45;&gt;Node6 -->
<g id="edge5_Node000004_Node000006" class="edge">
<title>Node4&#45;&gt;Node6</title>
<g id="a_edge5_Node000004_Node000006"><a xlink:title=" ">
<path fill="none" stroke="#63b8ff" d="M190.5,-164.75C190.5,-157.8 190.5,-147.85 190.5,-139.13"/>
<polygon fill="#63b8ff" stroke="#63b8ff" points="194,-139.09 190.5,-129.09 187,-139.09 194,-139.09"/>
</a>
</g>
</g>
<!-- Node7 -->
<g id="Node000007" class="node">
<title>Node7</title>
<g id="a_Node000007"><a xlink:href="_fatal_error_8h.html" target="_top" xlink:title=" ">
<polygon fill="white" stroke="#666666" points="291.5,-74 161.5,-74 161.5,-55 291.5,-55 291.5,-74"/>
<text text-anchor="middle" x="226.5" y="-62" font-family="Helvetica,sans-Serif" font-size="10.00">Cpl/System/FatalError.h</text>
</a>
</g>
</g>
<!-- Node6&#45;&gt;Node7 -->
<g id="edge6_Node000006_Node000007" class="edge">
<title>Node6&#45;&gt;Node7</title>
<g id="a_edge6_Node000006_Node000007"><a xlink:title=" ">
<path fill="none" stroke="#63b8ff" d="M196.44,-109.75C201.48,-102.34 208.84,-91.5 215.01,-82.41"/>
<polygon fill="#63b8ff" stroke="#63b8ff" points="217.94,-84.33 220.67,-74.09 212.15,-80.39 217.94,-84.33"/>
</a>
</g>
</g>
<!-- Node10 -->
<g id="Node000010" class="node">
<title>Node10</title>
<g id="a_Node000010"><a xlink:title=" ">
<polygon fill="#e0e0e0" stroke="#999999" points="143,-74 90,-74 90,-55 143,-55 143,-74"/>
<text text-anchor="middle" x="116.5" y="-62" font-family="Helvetica,sans-Serif" font-size="10.00">stdint.h</text>
</a>
</g>
</g>
<!-- Node6&#45;&gt;Node10 -->
<g id="edge9_Node000006_Node000010" class="edge">
<title>Node6&#45;&gt;Node10</title>
<g id="a_edge9_Node000006_Node000010"><a xlink:title=" ">
<path fill="none" stroke="#63b8ff" d="M178.61,-109.98C167.35,-101.92 150.21,-89.65 136.79,-80.03"/>
<polygon fill="#63b8ff" stroke="#63b8ff" points="138.77,-77.15 128.61,-74.17 134.7,-82.84 138.77,-77.15"/>
</a>
</g>
</g>
<!-- Node11 -->
<g id="Node000011" class="node">
<title>Node11</title>
<g id="a_Node000011"><a xlink:title=" ">
<polygon fill="#e0e0e0" stroke="#999999" points="479,-74 426,-74 426,-55 479,-55 479,-74"/>
<text text-anchor="middle" x="452.5" y="-62" font-family="Helvetica,sans-Serif" font-size="10.00">string.h</text>
</a>
</g>
</g>
<!-- Node6&#45;&gt;Node11 -->
<g id="edge10_Node000006_Node000011" class="edge">
<title>Node6&#45;&gt;Node11</title>
<g id="a_edge10_Node000006_Node000011"><a xlink:title=" ">
<path fill="none" stroke="#63b8ff" d="M232.59,-109.98C283.27,-99.73 367.54,-82.69 415.71,-72.94"/>
<polygon fill="#63b8ff" stroke="#63b8ff" points="416.6,-76.33 425.71,-70.92 415.21,-69.47 416.6,-76.33"/>
</a>
</g>
</g>
<!-- Node12 -->
<g id="Node000012" class="node">
<title>Node12</title>
<g id="a_Node000012"><a xlink:title=" ">
<polygon fill="#e0e0e0" stroke="#999999" points="395,-74 310,-74 310,-55 395,-55 395,-74"/>
<text text-anchor="middle" x="352.5" y="-62" font-family="Helvetica,sans-Serif" font-size="10.00">colony_map.h</text>
</a>
</g>
</g>
<!-- Node6&#45;&gt;Node12 -->
<g id="edge11_Node000006_Node000012" class="edge">
<title>Node6&#45;&gt;Node12</title>
<g id="a_edge11_Node000006_Node000012"><a xlink:title=" ">
<path fill="none" stroke="#63b8ff" d="M216.53,-109.98C243.61,-101.13 286.21,-87.19 316.51,-77.28"/>
<polygon fill="#63b8ff" stroke="#63b8ff" points="317.85,-80.52 326.27,-74.08 315.68,-73.87 317.85,-80.52"/>
</a>
</g>
</g>
<!-- Node8 -->
<g id="Node000008" class="node">
<title>Node8</title>
<g id="a_Node000008"><a xlink:title=" ">
<polygon fill="#e0e0e0" stroke="#999999" points="254.5,-19 198.5,-19 198.5,0 254.5,0 254.5,-19"/>
<text text-anchor="middle" x="226.5" y="-7" font-family="Helvetica,sans-Serif" font-size="10.00">stddef.h</text>
</a>
</g>
</g>
<!-- Node7&#45;&gt;Node8 -->
<g id="edge7_Node000007_Node000008" class="edge">
<title>Node7&#45;&gt;Node8</title>
<g id="a_edge7_Node000007_Node000008"><a xlink:title=" ">
<path fill="none" stroke="#63b8ff" d="M226.5,-54.75C226.5,-47.8 226.5,-37.85 226.5,-29.13"/>
<polygon fill="#63b8ff" stroke="#63b8ff" points="230,-29.09 226.5,-19.09 223,-29.09 230,-29.09"/>
</a>
</g>
</g>
<!-- Node9 -->
<g id="Node000009" class="node">
<title>Node9</title>
<g id="a_Node000009"><a xlink:title=" ">
<polygon fill="#e0e0e0" stroke="#999999" points="516.5,-19 424.5,-19 424.5,0 516.5,0 516.5,-19"/>
<text text-anchor="middle" x="470.5" y="-7" font-family="Helvetica,sans-Serif" font-size="10.00">colony_config.h</text>
</a>
</g>
</g>
<!-- Node7&#45;&gt;Node9 -->
<g id="edge8_Node000007_Node000009" class="edge">
<title>Node7&#45;&gt;Node9</title>
<g id="a_edge8_Node000007_Node000009"><a xlink:title=" ">
<path fill="none" stroke="#63b8ff" d="M265.7,-54.98C307.91,-45.82 375.15,-31.21 420.98,-21.26"/>
<polygon fill="#63b8ff" stroke="#63b8ff" points="421.96,-24.63 430.99,-19.08 420.47,-17.78 421.96,-24.63"/>
</a>
</g>
</g>
<!-- Node13&#45;&gt;Node6 -->
<g id="edge14_Node000013_Node000006" class="edge">
<title>Node13&#45;&gt;Node6</title>
<g id="a_edge14_Node000013_Node000006"><a xlink:title=" ">
<path fill="none" stroke="#63b8ff" d="M326.47,-164.98C299.39,-156.13 256.79,-142.19 226.49,-132.28"/>
<polygon fill="#63b8ff" stroke="#63b8ff" points="227.32,-128.87 216.73,-129.08 225.15,-135.52 227.32,-128.87"/>
</a>
</g>
</g>
<!-- Node13&#45;&gt;Node12 -->
<g id="edge13_Node000013_Node000012" class="edge">
<title>Node13&#45;&gt;Node12</title>
<g id="a_edge13_Node000013_Node000012"><a xlink:title=" ">
<path fill="none" stroke="#63b8ff" d="M352.5,-164.66C352.5,-147.17 352.5,-107.8 352.5,-84.27"/>
<polygon fill="#63b8ff" stroke="#63b8ff" points="356,-84.16 352.5,-74.16 349,-84.16 356,-84.16"/>
</a>
</g>
</g>
<!-- Node14 -->
<g id="Node000014" class="node">
<title>Node14</title>
<g id="a_Node000014"><a xlink:title=" ">
<polygon fill="#e0e0e0" stroke="#999999" points="436.5,-129 380.5,-129 380.5,-110 436.5,-110 436.5,-129"/>
<text text-anchor="middle" x="408.5" y="-117" font-family="Helvetica,sans-Serif" font-size="10.00">stdarg.h</text>
</a>
</g>
</g>
<!-- Node13&#45;&gt;Node14 -->
<g id="edge15_Node000013_Node000014" class="edge">
<title>Node13&#45;&gt;Node14</title>
<g id="a_edge15_Node000013_Node000014"><a xlink:title=" ">
<path fill="none" stroke="#63b8ff" d="M361.5,-164.98C369.69,-157.23 382.01,-145.58 391.97,-136.14"/>
<polygon fill="#63b8ff" stroke="#63b8ff" points="394.48,-138.59 399.34,-129.17 389.67,-133.5 394.48,-138.59"/>
</a>
</g>
</g>
<!-- Node15 -->
<g id="Node000015" class="node">
<title>Node15</title>
<g id="a_Node000015"><a xlink:title=" ">
<polygon fill="#e0e0e0" stroke="#999999" points="324.5,-129 264.5,-129 264.5,-110 324.5,-110 324.5,-129"/>
<text text-anchor="middle" x="294.5" y="-117" font-family="Helvetica,sans-Serif" font-size="10.00">iostream</text>
</a>
</g>
</g>
<!-- Node13&#45;&gt;Node15 -->
<g id="edge16_Node000013_Node000015" class="edge">
<title>Node13&#45;&gt;Node15</title>
<g id="a_edge16_Node000013_Node000015"><a xlink:title=" ">
<path fill="none" stroke="#63b8ff" d="M343.18,-164.98C334.69,-157.23 321.94,-145.58 311.62,-136.14"/>
<polygon fill="#63b8ff" stroke="#63b8ff" points="313.73,-133.33 303.99,-129.17 309.01,-138.5 313.73,-133.33"/>
</a>
</g>
</g>
<!-- Node16&#45;&gt;Node11 -->
<g id="edge22_Node000016_Node000011" class="edge">
<title>Node16&#45;&gt;Node11</title>
<g id="a_edge22_Node000016_Node000011"><a xlink:title=" ">
<path fill="none" stroke="#63b8ff" d="M464.5,-329.82C464.5,-311.48 464.5,-267.44 464.5,-230.5 464.5,-230.5 464.5,-230.5 464.5,-173.5 464.5,-142 459.39,-105.64 455.84,-84.16"/>
<polygon fill="#63b8ff" stroke="#63b8ff" points="459.26,-83.4 454.12,-74.14 452.37,-84.59 459.26,-83.4"/>
</a>
</g>
</g>
<!-- Node17 -->
<g id="Node000017" class="node">
<title>Node17</title>
<g id="a_Node000017"><a xlink:href="_f_string___8h.html" target="_top" xlink:title=" ">
<polygon fill="white" stroke="#666666" points="600,-294 493,-294 493,-275 600,-275 600,-294"/>
<text text-anchor="middle" x="546.5" y="-282" font-family="Helvetica,sans-Serif" font-size="10.00">Cpl/Text/FString_.h</text>
</a>
</g>
</g>
<!-- Node16&#45;&gt;Node17 -->
<g id="edge18_Node000016_Node000017" class="edge">
<title>Node16&#45;&gt;Node17</title>
<g id="a_edge18_Node000016_Node000017"><a xlink:title=" ">
<path fill="none" stroke="#63b8ff" d="M477.67,-329.98C490.27,-321.84 509.5,-309.41 524.44,-299.76"/>
<polygon fill="#63b8ff" stroke="#63b8ff" points="526.59,-302.54 533.09,-294.17 522.79,-296.66 526.59,-302.54"/>
</a>
</g>
</g>
<!-- Node17&#45;&gt;Node9 -->
<g id="edge19_Node000017_Node000009" class="edge">
<title>Node17&#45;&gt;Node9</title>
<g id="a_edge19_Node000017_Node000009"><a xlink:title=" ">
<path fill="none" stroke="#63b8ff" d="M562.26,-274.93C575.13,-267.15 592.88,-254.55 603.5,-239 620.12,-214.68 622.5,-204.96 622.5,-175.5 622.5,-175.5 622.5,-175.5 622.5,-118.5 622.5,-65.83 561.11,-36.49 516.36,-22.09"/>
<polygon fill="#63b8ff" stroke="#63b8ff" points="517.11,-18.66 506.52,-19.08 515.06,-25.36 517.11,-18.66"/>
</a>
</g>
</g>
<!-- Node18 -->
<g id="Node000018" class="node">
<title>Node18</title>
<g id="a_Node000018"><a xlink:href="_string___8h.html" target="_top" xlink:title=" ">
<polygon fill="white" stroke="#666666" points="594,-239 493,-239 493,-220 594,-220 594,-239"/>
<text text-anchor="middle" x="543.5" y="-227" font-family="Helvetica,sans-Serif" font-size="10.00">Cpl/Text/String_.h</text>
</a>
</g>
</g>
<!-- Node17&#45;&gt;Node18 -->
<g id="edge20_Node000017_Node000018" class="edge">
<title>Node17&#45;&gt;Node18</title>
<g id="a_edge20_Node000017_Node000018"><a xlink:title=" ">
<path fill="none" stroke="#63b8ff" d="M546,-274.75C545.61,-267.8 545.05,-257.85 544.55,-249.13"/>
<polygon fill="#63b8ff" stroke="#63b8ff" points="548.05,-248.88 543.99,-239.09 541.06,-249.27 548.05,-248.88"/>
</a>
</g>
</g>
<!-- Node18&#45;&gt;Node13 -->
<g id="edge21_Node000018_Node000013" class="edge">
<title>Node18&#45;&gt;Node13</title>
<g id="a_edge21_Node000018_Node000013"><a xlink:title=" ">
<path fill="none" stroke="#63b8ff" d="M512.81,-219.98C480.33,-210.97 428.9,-196.7 393.09,-186.76"/>
<polygon fill="#63b8ff" stroke="#63b8ff" points="394,-183.38 383.43,-184.08 392.13,-190.13 394,-183.38"/>
</a>
</g>
</g>
</g>
</svg>
