<?xml version="1.0" encoding="UTF-8" standalone="no"?>
<!DOCTYPE svg PUBLIC "-//W3C//DTD SVG 1.1//EN"
 "http://www.w3.org/Graphics/SVG/1.1/DTD/svg11.dtd">
<!-- Generated by graphviz version 2.43.0 (0)
 -->
<!-- Title: Cpl/Io/File/InputOutput.h Pages: 1 -->
<svg width="673pt" height="412pt"
 viewBox="0.00 0.00 672.50 412.00" xmlns="http://www.w3.org/2000/svg" xmlns:xlink="http://www.w3.org/1999/xlink">
<g id="graph0" class="graph" transform="scale(1 1) rotate(0) translate(4 408)">
<title>Cpl/Io/File/InputOutput.h</title>
<!-- Node1 -->
<g id="Node000001" class="node">
<title>Node1</title>
<g id="a_Node000001"><a xlink:title=" ">
<polygon fill="#999999" stroke="#666666" points="398.5,-404 264.5,-404 264.5,-385 398.5,-385 398.5,-404"/>
<text text-anchor="middle" x="331.5" y="-392" font-family="Helvetica,sans-Serif" font-size="10.00">Cpl/Io/File/InputOutput.h</text>
</a>
</g>
</g>
<!-- Node2 -->
<g id="Node000002" class="node">
<title>Node2</title>
<g id="a_Node000002"><a xlink:href="_input_output_api_8h.html" target="_top" xlink:title=" ">
<polygon fill="white" stroke="#666666" points="323.5,-349 173.5,-349 173.5,-330 323.5,-330 323.5,-349"/>
<text text-anchor="middle" x="248.5" y="-337" font-family="Helvetica,sans-Serif" font-size="10.00">Cpl/Io/File/InputOutputApi.h</text>
</a>
</g>
</g>
<!-- Node1&#45;&gt;Node2 -->
<g id="edge1_Node000001_Node000002" class="edge">
<title>Node1&#45;&gt;Node2</title>
<g id="a_edge1_Node000001_Node000002"><a xlink:title=" ">
<path fill="none" stroke="#63b8ff" d="M318.16,-384.98C305.41,-376.84 285.95,-364.41 270.83,-354.76"/>
<polygon fill="#63b8ff" stroke="#63b8ff" points="272.39,-351.6 262.08,-349.17 268.62,-357.5 272.39,-351.6"/>
</a>
</g>
</g>
<!-- Node22 -->
<g id="Node000022" class="node">
<title>Node22</title>
<g id="a_Node000022"><a xlink:href="_input_output___8h.html" target="_top" xlink:title=" ">
<polygon fill="white" stroke="#666666" points="515,-349 368,-349 368,-330 515,-330 515,-349"/>
<text text-anchor="middle" x="441.5" y="-337" font-family="Helvetica,sans-Serif" font-size="10.00">Cpl/Io/Stdio/InputOutput_.h</text>
</a>
</g>
</g>
<!-- Node1&#45;&gt;Node22 -->
<g id="edge29_Node000001_Node000022" class="edge">
<title>Node1&#45;&gt;Node22</title>
<g id="a_edge29_Node000001_Node000022"><a xlink:title=" ">
<path fill="none" stroke="#63b8ff" d="M349.17,-384.98C366.79,-376.5 394.08,-363.35 414.43,-353.54"/>
<polygon fill="#63b8ff" stroke="#63b8ff" points="416.02,-356.66 423.51,-349.17 412.98,-350.36 416.02,-356.66"/>
</a>
</g>
</g>
<!-- Node3 -->
<g id="Node000003" class="node">
<title>Node3</title>
<g id="a_Node000003"><a xlink:href="_input_api_8h.html" target="_top" xlink:title=" ">
<polygon fill="white" stroke="#666666" points="117,-294 0,-294 0,-275 117,-275 117,-294"/>
<text text-anchor="middle" x="58.5" y="-282" font-family="Helvetica,sans-Serif" font-size="10.00">Cpl/Io/File/InputApi.h</text>
</a>
</g>
</g>
<!-- Node2&#45;&gt;Node3 -->
<g id="edge2_Node000002_Node000003" class="edge">
<title>Node2&#45;&gt;Node3</title>
<g id="a_edge2_Node000002_Node000003"><a xlink:title=" ">
<path fill="none" stroke="#63b8ff" d="M217.97,-329.98C185.8,-321.01 134.94,-306.82 99.33,-296.89"/>
<polygon fill="#63b8ff" stroke="#63b8ff" points="99.84,-293.4 89.27,-294.08 97.96,-300.14 99.84,-293.4"/>
</a>
</g>
</g>
<!-- Node19 -->
<g id="Node000019" class="node">
<title>Node19</title>
<g id="a_Node000019"><a xlink:href="_output_api_8h.html" target="_top" xlink:title=" ">
<polygon fill="white" stroke="#666666" points="260,-294 135,-294 135,-275 260,-275 260,-294"/>
<text text-anchor="middle" x="197.5" y="-282" font-family="Helvetica,sans-Serif" font-size="10.00">Cpl/Io/File/OutputApi.h</text>
</a>
</g>
</g>
<!-- Node2&#45;&gt;Node19 -->
<g id="edge19_Node000002_Node000019" class="edge">
<title>Node2&#45;&gt;Node19</title>
<g id="a_edge19_Node000002_Node000019"><a xlink:title=" ">
<path fill="none" stroke="#63b8ff" d="M240.08,-329.75C232.73,-322.11 221.87,-310.82 212.96,-301.56"/>
<polygon fill="#63b8ff" stroke="#63b8ff" points="215.22,-298.87 205.76,-294.09 210.18,-303.72 215.22,-298.87"/>
</a>
</g>
</g>
<!-- Node21 -->
<g id="Node000021" class="node">
<title>Node21</title>
<g id="a_Node000021"><a xlink:href="_input_output_8h.html" target="_top" xlink:title=" ">
<polygon fill="white" stroke="#666666" points="392.5,-294 278.5,-294 278.5,-275 392.5,-275 392.5,-294"/>
<text text-anchor="middle" x="335.5" y="-282" font-family="Helvetica,sans-Serif" font-size="10.00">Cpl/Io/InputOutput.h</text>
</a>
</g>
</g>
<!-- Node2&#45;&gt;Node21 -->
<g id="edge26_Node000002_Node000021" class="edge">
<title>Node2&#45;&gt;Node21</title>
<g id="a_edge26_Node000002_Node000021"><a xlink:title=" ">
<path fill="none" stroke="#63b8ff" d="M262.48,-329.98C275.97,-321.77 296.63,-309.18 312.54,-299.49"/>
<polygon fill="#63b8ff" stroke="#63b8ff" points="314.55,-302.36 321.27,-294.17 310.91,-296.38 314.55,-302.36"/>
</a>
</g>
</g>
<!-- Node4 -->
<g id="Node000004" class="node">
<title>Node4</title>
<g id="a_Node000004"><a xlink:href="_input_8h.html" target="_top" xlink:title=" ">
<polygon fill="white" stroke="#666666" points="281,-239 200,-239 200,-220 281,-220 281,-239"/>
<text text-anchor="middle" x="240.5" y="-227" font-family="Helvetica,sans-Serif" font-size="10.00">Cpl/Io/Input.h</text>
</a>
</g>
</g>
<!-- Node3&#45;&gt;Node4 -->
<g id="edge3_Node000003_Node000004" class="edge">
<title>Node3&#45;&gt;Node4</title>
<g id="a_edge3_Node000003_Node000004"><a xlink:title=" ">
<path fill="none" stroke="#63b8ff" d="M87.74,-274.98C118.56,-266.01 167.28,-251.82 201.39,-241.89"/>
<polygon fill="#63b8ff" stroke="#63b8ff" points="202.41,-245.24 211.03,-239.08 200.45,-238.52 202.41,-245.24"/>
</a>
</g>
</g>
<!-- Node18 -->
<g id="Node000018" class="node">
<title>Node18</title>
<g id="a_Node000018"><a xlink:href="_object_api_8h.html" target="_top" xlink:title=" ">
<polygon fill="white" stroke="#666666" points="155.5,-239 31.5,-239 31.5,-220 155.5,-220 155.5,-239"/>
<text text-anchor="middle" x="93.5" y="-227" font-family="Helvetica,sans-Serif" font-size="10.00">Cpl/Io/File/ObjectApi.h</text>
</a>
</g>
</g>
<!-- Node3&#45;&gt;Node18 -->
<g id="edge18_Node000003_Node000018" class="edge">
<title>Node3&#45;&gt;Node18</title>
<g id="a_edge18_Node000003_Node000018"><a xlink:title=" ">
<path fill="none" stroke="#63b8ff" d="M64.28,-274.75C69.12,-267.42 76.18,-256.73 82.14,-247.7"/>
<polygon fill="#63b8ff" stroke="#63b8ff" points="85.24,-249.36 87.83,-239.09 79.4,-245.5 85.24,-249.36"/>
</a>
</g>
</g>
<!-- Node5 -->
<g id="Node000005" class="node">
<title>Node5</title>
<g id="a_Node000005"><a xlink:href="_text_2_string_8h.html" target="_top" xlink:title=" ">
<polygon fill="white" stroke="#666666" points="395.5,-184 299.5,-184 299.5,-165 395.5,-165 395.5,-184"/>
<text text-anchor="middle" x="347.5" y="-172" font-family="Helvetica,sans-Serif" font-size="10.00">Cpl/Text/String.h</text>
</a>
</g>
</g>
<!-- Node4&#45;&gt;Node5 -->
<g id="edge4_Node000004_Node000005" class="edge">
<title>Node4&#45;&gt;Node5</title>
<g id="a_edge4_Node000004_Node000005"><a xlink:title=" ">
<path fill="none" stroke="#63b8ff" d="M257.69,-219.98C274.75,-211.54 301.13,-198.47 320.9,-188.68"/>
<polygon fill="#63b8ff" stroke="#63b8ff" points="322.59,-191.75 330,-184.17 319.48,-185.47 322.59,-191.75"/>
</a>
</g>
</g>
<!-- Node15 -->
<g id="Node000015" class="node">
<title>Node15</title>
<g id="a_Node000015"><a xlink:href="_close_8h.html" target="_top" xlink:title=" ">
<polygon fill="white" stroke="#666666" points="181,-184 98,-184 98,-165 181,-165 181,-184"/>
<text text-anchor="middle" x="139.5" y="-172" font-family="Helvetica,sans-Serif" font-size="10.00">Cpl/Io/Close.h</text>
</a>
</g>
</g>
<!-- Node4&#45;&gt;Node15 -->
<g id="edge15_Node000004_Node000015" class="edge">
<title>Node4&#45;&gt;Node15</title>
<g id="a_edge15_Node000004_Node000015"><a xlink:title=" ">
<path fill="none" stroke="#63b8ff" d="M224.27,-219.98C208.32,-211.61 183.72,-198.7 165.12,-188.95"/>
<polygon fill="#63b8ff" stroke="#63b8ff" points="166.5,-185.72 156.02,-184.17 163.25,-191.92 166.5,-185.72"/>
</a>
</g>
</g>
<!-- Node17 -->
<g id="Node000017" class="node">
<title>Node17</title>
<g id="a_Node000017"><a xlink:href="_is_eos_8h.html" target="_top" xlink:title=" ">
<polygon fill="white" stroke="#666666" points="281.5,-184 199.5,-184 199.5,-165 281.5,-165 281.5,-184"/>
<text text-anchor="middle" x="240.5" y="-172" font-family="Helvetica,sans-Serif" font-size="10.00">Cpl/Io/IsEos.h</text>
</a>
</g>
</g>
<!-- Node4&#45;&gt;Node17 -->
<g id="edge17_Node000004_Node000017" class="edge">
<title>Node4&#45;&gt;Node17</title>
<g id="a_edge17_Node000004_Node000017"><a xlink:title=" ">
<path fill="none" stroke="#63b8ff" d="M240.5,-219.75C240.5,-212.8 240.5,-202.85 240.5,-194.13"/>
<polygon fill="#63b8ff" stroke="#63b8ff" points="244,-194.09 240.5,-184.09 237,-194.09 244,-194.09"/>
</a>
</g>
</g>
<!-- Node6 -->
<g id="Node000006" class="node">
<title>Node6</title>
<g id="a_Node000006"><a xlink:title=" ">
<polygon fill="#e0e0e0" stroke="#999999" points="285,-74 200,-74 200,-55 285,-55 285,-74"/>
<text text-anchor="middle" x="242.5" y="-62" font-family="Helvetica,sans-Serif" font-size="10.00">colony_map.h</text>
</a>
</g>
</g>
<!-- Node5&#45;&gt;Node6 -->
<g id="edge5_Node000005_Node000006" class="edge">
<title>Node5&#45;&gt;Node6</title>
<g id="a_edge5_Node000005_Node000006"><a xlink:title=" ">
<path fill="none" stroke="#63b8ff" d="M338.7,-164.67C329.79,-155.72 315.63,-141.45 303.5,-129 287.92,-113.01 270.27,-94.61 257.98,-81.74"/>
<polygon fill="#63b8ff" stroke="#63b8ff" points="260.18,-78.98 250.75,-74.17 255.12,-83.82 260.18,-78.98"/>
</a>
</g>
</g>
<!-- Node7 -->
<g id="Node000007" class="node">
<title>Node7</title>
<g id="a_Node000007"><a xlink:href="_key_8h.html" target="_top" xlink:title=" ">
<polygon fill="white" stroke="#666666" points="424,-129 313,-129 313,-110 424,-110 424,-129"/>
<text text-anchor="middle" x="368.5" y="-117" font-family="Helvetica,sans-Serif" font-size="10.00">Cpl/Container/Key.h</text>
</a>
</g>
</g>
<!-- Node5&#45;&gt;Node7 -->
<g id="edge6_Node000005_Node000007" class="edge">
<title>Node5&#45;&gt;Node7</title>
<g id="a_edge6_Node000005_Node000007"><a xlink:title=" ">
<path fill="none" stroke="#63b8ff" d="M350.97,-164.75C353.78,-157.65 357.84,-147.4 361.35,-138.56"/>
<polygon fill="#63b8ff" stroke="#63b8ff" points="364.67,-139.68 365.1,-129.09 358.16,-137.1 364.67,-139.68"/>
</a>
</g>
</g>
<!-- Node13 -->
<g id="Node000013" class="node">
<title>Node13</title>
<g id="a_Node000013"><a xlink:title=" ">
<polygon fill="#e0e0e0" stroke="#999999" points="498.5,-129 442.5,-129 442.5,-110 498.5,-110 498.5,-129"/>
<text text-anchor="middle" x="470.5" y="-117" font-family="Helvetica,sans-Serif" font-size="10.00">stdarg.h</text>
</a>
</g>
</g>
<!-- Node5&#45;&gt;Node13 -->
<g id="edge13_Node000005_Node000013" class="edge">
<title>Node5&#45;&gt;Node13</title>
<g id="a_edge13_Node000005_Node000013"><a xlink:title=" ">
<path fill="none" stroke="#63b8ff" d="M367.26,-164.98C387.23,-156.38 418.3,-142.99 441.15,-133.15"/>
<polygon fill="#63b8ff" stroke="#63b8ff" points="442.58,-136.34 450.38,-129.17 439.81,-129.91 442.58,-136.34"/>
</a>
</g>
</g>
<!-- Node14 -->
<g id="Node000014" class="node">
<title>Node14</title>
<g id="a_Node000014"><a xlink:title=" ">
<polygon fill="#e0e0e0" stroke="#999999" points="256.5,-129 196.5,-129 196.5,-110 256.5,-110 256.5,-129"/>
<text text-anchor="middle" x="226.5" y="-117" font-family="Helvetica,sans-Serif" font-size="10.00">iostream</text>
</a>
</g>
</g>
<!-- Node5&#45;&gt;Node14 -->
<g id="edge14_Node000005_Node000014" class="edge">
<title>Node5&#45;&gt;Node14</title>
<g id="a_edge14_Node000005_Node000014"><a xlink:title=" ">
<path fill="none" stroke="#63b8ff" d="M328.06,-164.98C308.51,-156.42 278.12,-143.11 255.68,-133.28"/>
<polygon fill="#63b8ff" stroke="#63b8ff" points="256.86,-129.98 246.29,-129.17 254.05,-136.39 256.86,-129.98"/>
</a>
</g>
</g>
<!-- Node7&#45;&gt;Node6 -->
<g id="edge12_Node000007_Node000006" class="edge">
<title>Node7&#45;&gt;Node6</title>
<g id="a_edge12_Node000007_Node000006"><a xlink:title=" ">
<path fill="none" stroke="#63b8ff" d="M348.26,-109.98C327.8,-101.38 295.97,-87.99 272.57,-78.15"/>
<polygon fill="#63b8ff" stroke="#63b8ff" points="273.69,-74.82 263.11,-74.17 270.97,-81.27 273.69,-74.82"/>
</a>
</g>
</g>
<!-- Node8 -->
<g id="Node000008" class="node">
<title>Node8</title>
<g id="a_Node000008"><a xlink:href="_fatal_error_8h.html" target="_top" xlink:title=" ">
<polygon fill="white" stroke="#666666" points="433.5,-74 303.5,-74 303.5,-55 433.5,-55 433.5,-74"/>
<text text-anchor="middle" x="368.5" y="-62" font-family="Helvetica,sans-Serif" font-size="10.00">Cpl/System/FatalError.h</text>
</a>
</g>
</g>
<!-- Node7&#45;&gt;Node8 -->
<g id="edge7_Node000007_Node000008" class="edge">
<title>Node7&#45;&gt;Node8</title>
<g id="a_edge7_Node000007_Node000008"><a xlink:title=" ">
<path fill="none" stroke="#63b8ff" d="M368.5,-109.75C368.5,-102.8 368.5,-92.85 368.5,-84.13"/>
<polygon fill="#63b8ff" stroke="#63b8ff" points="372,-84.09 368.5,-74.09 365,-84.09 372,-84.09"/>
</a>
</g>
</g>
<!-- Node11 -->
<g id="Node000011" class="node">
<title>Node11</title>
<g id="a_Node000011"><a xlink:title=" ">
<polygon fill="#e0e0e0" stroke="#999999" points="505,-74 452,-74 452,-55 505,-55 505,-74"/>
<text text-anchor="middle" x="478.5" y="-62" font-family="Helvetica,sans-Serif" font-size="10.00">stdint.h</text>
</a>
</g>
</g>
<!-- Node7&#45;&gt;Node11 -->
<g id="edge10_Node000007_Node000011" class="edge">
<title>Node7&#45;&gt;Node11</title>
<g id="a_edge10_Node000007_Node000011"><a xlink:title=" ">
<path fill="none" stroke="#63b8ff" d="M386.17,-109.98C403.79,-101.5 431.08,-88.35 451.43,-78.54"/>
<polygon fill="#63b8ff" stroke="#63b8ff" points="453.02,-81.66 460.51,-74.17 449.98,-75.36 453.02,-81.66"/>
</a>
</g>
</g>
<!-- Node12 -->
<g id="Node000012" class="node">
<title>Node12</title>
<g id="a_Node000012"><a xlink:title=" ">
<polygon fill="#e0e0e0" stroke="#999999" points="576,-74 523,-74 523,-55 576,-55 576,-74"/>
<text text-anchor="middle" x="549.5" y="-62" font-family="Helvetica,sans-Serif" font-size="10.00">string.h</text>
</a>
</g>
</g>
<!-- Node7&#45;&gt;Node12 -->
<g id="edge11_Node000007_Node000012" class="edge">
<title>Node7&#45;&gt;Node12</title>
<g id="a_edge11_Node000007_Node000012"><a xlink:title=" ">
<path fill="none" stroke="#63b8ff" d="M397.58,-109.98C428.92,-100.81 478.85,-86.19 512.85,-76.23"/>
<polygon fill="#63b8ff" stroke="#63b8ff" points="514.24,-79.47 522.85,-73.3 512.27,-72.75 514.24,-79.47"/>
</a>
</g>
</g>
<!-- Node9 -->
<g id="Node000009" class="node">
<title>Node9</title>
<g id="a_Node000009"><a xlink:title=" ">
<polygon fill="#e0e0e0" stroke="#999999" points="350.5,-19 294.5,-19 294.5,0 350.5,0 350.5,-19"/>
<text text-anchor="middle" x="322.5" y="-7" font-family="Helvetica,sans-Serif" font-size="10.00">stddef.h</text>
</a>
</g>
</g>
<!-- Node8&#45;&gt;Node9 -->
<g id="edge8_Node000008_Node000009" class="edge">
<title>Node8&#45;&gt;Node9</title>
<g id="a_edge8_Node000008_Node000009"><a xlink:title=" ">
<path fill="none" stroke="#63b8ff" d="M360.9,-54.75C354.34,-47.18 344.68,-36.05 336.69,-26.84"/>
<polygon fill="#63b8ff" stroke="#63b8ff" points="339.15,-24.35 329.95,-19.09 333.87,-28.94 339.15,-24.35"/>
</a>
</g>
</g>
<!-- Node10 -->
<g id="Node000010" class="node">
<title>Node10</title>
<g id="a_Node000010"><a xlink:title=" ">
<polygon fill="#e0e0e0" stroke="#999999" points="460.5,-19 368.5,-19 368.5,0 460.5,0 460.5,-19"/>
<text text-anchor="middle" x="414.5" y="-7" font-family="Helvetica,sans-Serif" font-size="10.00">colony_config.h</text>
</a>
</g>
</g>
<!-- Node8&#45;&gt;Node10 -->
<g id="edge9_Node000008_Node000010" class="edge">
<title>Node8&#45;&gt;Node10</title>
<g id="a_edge9_Node000008_Node000010"><a xlink:title=" ">
<path fill="none" stroke="#63b8ff" d="M376.1,-54.75C382.66,-47.18 392.32,-36.05 400.31,-26.84"/>
<polygon fill="#63b8ff" stroke="#63b8ff" points="403.13,-28.94 407.05,-19.09 397.85,-24.35 403.13,-28.94"/>
</a>
</g>
</g>
<!-- Node16 -->
<g id="Node000016" class="node">
<title>Node16</title>
<g id="a_Node000016"><a xlink:href="_item_8h.html" target="_top" xlink:title=" ">
<polygon fill="white" stroke="#666666" points="178,-129 61,-129 61,-110 178,-110 178,-129"/>
<text text-anchor="middle" x="119.5" y="-117" font-family="Helvetica,sans-Serif" font-size="10.00">Cpl/Container/Item.h</text>
</a>
</g>
</g>
<!-- Node15&#45;&gt;Node16 -->
<g id="edge16_Node000015_Node000016" class="edge">
<title>Node15&#45;&gt;Node16</title>
<g id="a_edge16_Node000015_Node000016"><a xlink:title=" ">
<path fill="none" stroke="#63b8ff" d="M136.2,-164.75C133.52,-157.65 129.65,-147.4 126.31,-138.56"/>
<polygon fill="#63b8ff" stroke="#63b8ff" points="129.55,-137.21 122.74,-129.09 123,-139.68 129.55,-137.21"/>
</a>
</g>
</g>
<!-- Node19&#45;&gt;Node18 -->
<g id="edge25_Node000019_Node000018" class="edge">
<title>Node19&#45;&gt;Node18</title>
<g id="a_edge25_Node000019_Node000018"><a xlink:title=" ">
<path fill="none" stroke="#63b8ff" d="M180.79,-274.98C164.29,-266.57 138.8,-253.59 119.62,-243.81"/>
<polygon fill="#63b8ff" stroke="#63b8ff" points="121.01,-240.59 110.51,-239.17 117.83,-246.83 121.01,-240.59"/>
</a>
</g>
</g>
<!-- Node20 -->
<g id="Node000020" class="node">
<title>Node20</title>
<g id="a_Node000020"><a xlink:href="_output_8h.html" target="_top" xlink:title=" ">
<polygon fill="white" stroke="#666666" points="388,-239 299,-239 299,-220 388,-220 388,-239"/>
<text text-anchor="middle" x="343.5" y="-227" font-family="Helvetica,sans-Serif" font-size="10.00">Cpl/Io/Output.h</text>
</a>
</g>
</g>
<!-- Node19&#45;&gt;Node20 -->
<g id="edge20_Node000019_Node000020" class="edge">
<title>Node19&#45;&gt;Node20</title>
<g id="a_edge20_Node000019_Node000020"><a xlink:title=" ">
<path fill="none" stroke="#63b8ff" d="M220.96,-274.98C245.08,-266.23 282.87,-252.51 310.1,-242.62"/>
<polygon fill="#63b8ff" stroke="#63b8ff" points="311.41,-245.87 319.62,-239.17 309.02,-239.29 311.41,-245.87"/>
</a>
</g>
</g>
<!-- Node20&#45;&gt;Node5 -->
<g id="edge21_Node000020_Node000005" class="edge">
<title>Node20&#45;&gt;Node5</title>
<g id="a_edge21_Node000020_Node000005"><a xlink:title=" ">
<path fill="none" stroke="#63b8ff" d="M344.16,-219.75C344.68,-212.8 345.44,-202.85 346.09,-194.13"/>
<polygon fill="#63b8ff" stroke="#63b8ff" points="349.59,-194.32 346.85,-184.09 342.61,-193.8 349.59,-194.32"/>
</a>
</g>
</g>
<!-- Node20&#45;&gt;Node13 -->
<g id="edge24_Node000020_Node000013" class="edge">
<title>Node20&#45;&gt;Node13</title>
<g id="a_edge24_Node000020_Node000013"><a xlink:title=" ">
<path fill="none" stroke="#63b8ff" d="M356.5,-219.78C369.12,-211.14 388.63,-197.31 404.5,-184 422.66,-168.76 442.05,-149.74 455.08,-136.51"/>
<polygon fill="#63b8ff" stroke="#63b8ff" points="457.82,-138.7 462.3,-129.1 452.81,-133.82 457.82,-138.7"/>
</a>
</g>
</g>
<!-- Node20&#45;&gt;Node15 -->
<g id="edge22_Node000020_Node000015" class="edge">
<title>Node20&#45;&gt;Node15</title>
<g id="a_edge22_Node000020_Node000015"><a xlink:title=" ">
<path fill="none" stroke="#63b8ff" d="M310.72,-219.98C275.88,-210.93 220.63,-196.58 182.36,-186.64"/>
<polygon fill="#63b8ff" stroke="#63b8ff" points="183.09,-183.21 172.53,-184.08 181.33,-189.98 183.09,-183.21"/>
</a>
</g>
</g>
<!-- Node20&#45;&gt;Node17 -->
<g id="edge23_Node000020_Node000017" class="edge">
<title>Node20&#45;&gt;Node17</title>
<g id="a_edge23_Node000020_Node000017"><a xlink:title=" ">
<path fill="none" stroke="#63b8ff" d="M326.95,-219.98C310.61,-211.57 285.37,-198.59 266.37,-188.81"/>
<polygon fill="#63b8ff" stroke="#63b8ff" points="267.84,-185.63 257.35,-184.17 264.64,-191.86 267.84,-185.63"/>
</a>
</g>
</g>
<!-- Node21&#45;&gt;Node4 -->
<g id="edge27_Node000021_Node000004" class="edge">
<title>Node21&#45;&gt;Node4</title>
<g id="a_edge27_Node000021_Node000004"><a xlink:title=" ">
<path fill="none" stroke="#63b8ff" d="M320.24,-274.98C305.37,-266.69 282.52,-253.94 265.08,-244.22"/>
<polygon fill="#63b8ff" stroke="#63b8ff" points="266.48,-240.99 256.04,-239.17 263.07,-247.1 266.48,-240.99"/>
</a>
</g>
</g>
<!-- Node21&#45;&gt;Node20 -->
<g id="edge28_Node000021_Node000020" class="edge">
<title>Node21&#45;&gt;Node20</title>
<g id="a_edge28_Node000021_Node000020"><a xlink:title=" ">
<path fill="none" stroke="#63b8ff" d="M336.82,-274.75C337.87,-267.8 339.37,-257.85 340.69,-249.13"/>
<polygon fill="#63b8ff" stroke="#63b8ff" points="344.17,-249.5 342.2,-239.09 337.25,-248.45 344.17,-249.5"/>
</a>
</g>
</g>
<!-- Node22&#45;&gt;Node21 -->
<g id="edge30_Node000022_Node000021" class="edge">
<title>Node22&#45;&gt;Node21</title>
<g id="a_edge30_Node000022_Node000021"><a xlink:title=" ">
<path fill="none" stroke="#63b8ff" d="M424.47,-329.98C407.57,-321.54 381.44,-308.47 361.86,-298.68"/>
<polygon fill="#63b8ff" stroke="#63b8ff" points="363.35,-295.51 352.84,-294.17 360.22,-301.77 363.35,-295.51"/>
</a>
</g>
</g>
<!-- Node23 -->
<g id="Node000023" class="node">
<title>Node23</title>
<g id="a_Node000023"><a xlink:href="_input___8h.html" target="_top" xlink:title=" ">
<polygon fill="white" stroke="#666666" points="524.5,-294 410.5,-294 410.5,-275 524.5,-275 524.5,-294"/>
<text text-anchor="middle" x="467.5" y="-282" font-family="Helvetica,sans-Serif" font-size="10.00">Cpl/Io/Stdio/Input_.h</text>
</a>
</g>
</g>
<!-- Node22&#45;&gt;Node23 -->
<g id="edge31_Node000022_Node000023" class="edge">
<title>Node22&#45;&gt;Node23</title>
<g id="a_edge31_Node000022_Node000023"><a xlink:title=" ">
<path fill="none" stroke="#63b8ff" d="M445.79,-329.75C449.31,-322.57 454.41,-312.18 458.78,-303.27"/>
<polygon fill="#63b8ff" stroke="#63b8ff" points="462.02,-304.61 463.29,-294.09 455.74,-301.53 462.02,-304.61"/>
</a>
</g>
</g>
<!-- Node25 -->
<g id="Node000025" class="node">
<title>Node25</title>
<g id="a_Node000025"><a xlink:href="_output___8h.html" target="_top" xlink:title=" ">
<polygon fill="white" stroke="#666666" points="664.5,-294 542.5,-294 542.5,-275 664.5,-275 664.5,-294"/>
<text text-anchor="middle" x="603.5" y="-282" font-family="Helvetica,sans-Serif" font-size="10.00">Cpl/Io/Stdio/Output_.h</text>
</a>
</g>
</g>
<!-- Node22&#45;&gt;Node25 -->
<g id="edge34_Node000022_Node000025" class="edge">
<title>Node22&#45;&gt;Node25</title>
<g id="a_edge34_Node000022_Node000025"><a xlink:title=" ">
<path fill="none" stroke="#63b8ff" d="M467.53,-329.98C494.61,-321.13 537.21,-307.19 567.51,-297.28"/>
<polygon fill="#63b8ff" stroke="#63b8ff" points="568.85,-300.52 577.27,-294.08 566.68,-293.87 568.85,-300.52"/>
</a>
</g>
</g>
<!-- Node23&#45;&gt;Node4 -->
<g id="edge32_Node000023_Node000004" class="edge">
<title>Node23&#45;&gt;Node4</title>
<g id="a_edge32_Node000023_Node000004"><a xlink:title=" ">
<path fill="none" stroke="#63b8ff" d="M431.03,-274.98C391.93,-265.86 329.73,-251.33 287.11,-241.38"/>
<polygon fill="#63b8ff" stroke="#63b8ff" points="287.79,-237.95 277.26,-239.08 286.2,-244.76 287.79,-237.95"/>
</a>
</g>
</g>
<!-- Node24 -->
<g id="Node000024" class="node">
<title>Node24</title>
<g id="a_Node000024"><a xlink:href="_descriptor_8h.html" target="_top" xlink:title=" ">
<polygon fill="white" stroke="#666666" points="588.5,-239 482.5,-239 482.5,-220 588.5,-220 588.5,-239"/>
<text text-anchor="middle" x="535.5" y="-227" font-family="Helvetica,sans-Serif" font-size="10.00">Cpl/Io/Descriptor.h</text>
</a>
</g>
</g>
<!-- Node23&#45;&gt;Node24 -->
<g id="edge33_Node000023_Node000024" class="edge">
<title>Node23&#45;&gt;Node24</title>
<g id="a_edge33_Node000023_Node000024"><a xlink:title=" ">
<path fill="none" stroke="#63b8ff" d="M478.43,-274.98C488.58,-267.07 503.92,-255.11 516.15,-245.58"/>
<polygon fill="#63b8ff" stroke="#63b8ff" points="518.64,-248.08 524.38,-239.17 514.34,-242.56 518.64,-248.08"/>
</a>
</g>
</g>
<!-- Node25&#45;&gt;Node20 -->
<g id="edge35_Node000025_Node000020" class="edge">
<title>Node25&#45;&gt;Node20</title>
<g id="a_edge35_Node000025_Node000020"><a xlink:title=" ">
<path fill="none" stroke="#63b8ff" d="M561.73,-274.98C516.56,-265.78 444.5,-251.09 395.65,-241.13"/>
<polygon fill="#63b8ff" stroke="#63b8ff" points="396.1,-237.65 385.6,-239.08 394.7,-244.51 396.1,-237.65"/>
</a>
</g>
</g>
<!-- Node25&#45;&gt;Node24 -->
<g id="edge36_Node000025_Node000024" class="edge">
<title>Node25&#45;&gt;Node24</title>
<g id="a_edge36_Node000025_Node000024"><a xlink:title=" ">
<path fill="none" stroke="#63b8ff" d="M592.57,-274.98C582.42,-267.07 567.08,-255.11 554.85,-245.58"/>
<polygon fill="#63b8ff" stroke="#63b8ff" points="556.66,-242.56 546.62,-239.17 552.36,-248.08 556.66,-242.56"/>
</a>
</g>
</g>
</g>
</svg>
