<?xml version="1.0" encoding="UTF-8" standalone="no"?>
<!DOCTYPE svg PUBLIC "-//W3C//DTD SVG 1.1//EN"
 "http://www.w3.org/Graphics/SVG/1.1/DTD/svg11.dtd">
<!-- Generated by graphviz version 2.43.0 (0)
 -->
<!-- Title: Cpl/System/FreeRTOS/Thread.h Pages: 1 -->
<svg width="774pt" height="423pt"
 viewBox="0.00 0.00 773.50 423.00" xmlns="http://www.w3.org/2000/svg" xmlns:xlink="http://www.w3.org/1999/xlink">
<g id="graph0" class="graph" transform="scale(1 1) rotate(0) translate(4 419)">
<title>Cpl/System/FreeRTOS/Thread.h</title>
<!-- Node1 -->
<g id="Node000001" class="node">
<title>Node1</title>
<g id="a_Node000001"><a xlink:title=" ">
<polygon fill="#999999" stroke="#666666" points="321,-415 199,-415 199,-385 321,-385 321,-415"/>
<text text-anchor="start" x="207" y="-403" font-family="Helvetica,sans-Serif" font-size="10.00">Cpl/System/FreeRTOS</text>
<text text-anchor="middle" x="260" y="-392" font-family="Helvetica,sans-Serif" font-size="10.00">/Thread.h</text>
</a>
</g>
</g>
<!-- Node2 -->
<g id="Node000002" class="node">
<title>Node2</title>
<g id="a_Node000002"><a xlink:title=" ">
<polygon fill="#e0e0e0" stroke="#999999" points="254,-19 162,-19 162,0 254,0 254,-19"/>
<text text-anchor="middle" x="208" y="-7" font-family="Helvetica,sans-Serif" font-size="10.00">colony_config.h</text>
</a>
</g>
</g>
<!-- Node1&#45;&gt;Node2 -->
<g id="edge1_Node000001_Node000002" class="edge">
<title>Node1&#45;&gt;Node2</title>
<g id="a_edge1_Node000001_Node000002"><a xlink:title=" ">
<path fill="none" stroke="#63b8ff" d="M198.71,-398.01C121.85,-393.14 0,-371.81 0,-285.5 0,-285.5 0,-285.5 0,-118.5 0,-49.89 90.23,-24.81 151.84,-15.68"/>
<polygon fill="#63b8ff" stroke="#63b8ff" points="152.41,-19.13 161.84,-14.3 151.45,-12.2 152.41,-19.13"/>
</a>
</g>
</g>
<!-- Node3 -->
<g id="Node000003" class="node">
<title>Node3</title>
<g id="a_Node000003"><a xlink:href="_thread_8h.html" target="_top" xlink:title=" ">
<polygon fill="white" stroke="#666666" points="319,-349 201,-349 201,-330 319,-330 319,-349"/>
<text text-anchor="middle" x="260" y="-337" font-family="Helvetica,sans-Serif" font-size="10.00">Cpl/System/Thread.h</text>
</a>
</g>
</g>
<!-- Node1&#45;&gt;Node3 -->
<g id="edge2_Node000001_Node000003" class="edge">
<title>Node1&#45;&gt;Node3</title>
<g id="a_edge2_Node000001_Node000003"><a xlink:title=" ">
<path fill="none" stroke="#63b8ff" d="M260,-384.84C260,-377.21 260,-367.7 260,-359.45"/>
<polygon fill="#63b8ff" stroke="#63b8ff" points="263.5,-359.27 260,-349.27 256.5,-359.27 263.5,-359.27"/>
</a>
</g>
</g>
<!-- Node10 -->
<g id="Node000010" class="node">
<title>Node10</title>
<g id="a_Node000010"><a xlink:href="_tls_8h.html" target="_top" xlink:title=" ">
<polygon fill="white" stroke="#666666" points="126,-129 28,-129 28,-110 126,-110 126,-129"/>
<text text-anchor="middle" x="77" y="-117" font-family="Helvetica,sans-Serif" font-size="10.00">Cpl/System/Tls.h</text>
</a>
</g>
</g>
<!-- Node1&#45;&gt;Node10 -->
<g id="edge9_Node000001_Node000010" class="edge">
<title>Node1&#45;&gt;Node10</title>
<g id="a_edge9_Node000001_Node000010"><a xlink:title=" ">
<path fill="none" stroke="#63b8ff" d="M198.82,-390.95C139.05,-379.25 57,-351.21 57,-285.5 57,-285.5 57,-285.5 57,-228.5 57,-196.51 65.59,-160.07 71.51,-138.75"/>
<polygon fill="#63b8ff" stroke="#63b8ff" points="74.89,-139.66 74.3,-129.08 68.16,-137.71 74.89,-139.66"/>
</a>
</g>
</g>
<!-- Node11 -->
<g id="Node000011" class="node">
<title>Node11</title>
<g id="a_Node000011"><a xlink:href="_f_string_8h.html" target="_top" xlink:title=" ">
<polygon fill="white" stroke="#666666" points="580.5,-349 479.5,-349 479.5,-330 580.5,-330 580.5,-349"/>
<text text-anchor="middle" x="530" y="-337" font-family="Helvetica,sans-Serif" font-size="10.00">Cpl/Text/FString.h</text>
</a>
</g>
</g>
<!-- Node1&#45;&gt;Node11 -->
<g id="edge12_Node000001_Node000011" class="edge">
<title>Node1&#45;&gt;Node11</title>
<g id="a_edge12_Node000001_Node000011"><a xlink:title=" ">
<path fill="none" stroke="#63b8ff" d="M321.27,-385.73C369.58,-375.26 436.07,-360.85 480.91,-351.14"/>
<polygon fill="#63b8ff" stroke="#63b8ff" points="481.67,-354.55 490.7,-349.02 480.18,-347.71 481.67,-354.55"/>
</a>
</g>
</g>
<!-- Node22 -->
<g id="Node000022" class="node">
<title>Node22</title>
<g id="a_Node000022"><a xlink:title=" ">
<polygon fill="#e0e0e0" stroke="#999999" points="645.5,-349 598.5,-349 598.5,-330 645.5,-330 645.5,-349"/>
<text text-anchor="middle" x="622" y="-337" font-family="Helvetica,sans-Serif" font-size="10.00">task.h</text>
</a>
</g>
</g>
<!-- Node1&#45;&gt;Node22 -->
<g id="edge28_Node000001_Node000022" class="edge">
<title>Node1&#45;&gt;Node22</title>
<g id="a_edge28_Node000001_Node000022"><a xlink:title=" ">
<path fill="none" stroke="#63b8ff" d="M321.18,-391.76C385.55,-383.69 489.96,-369.31 588.48,-349.14"/>
<polygon fill="#63b8ff" stroke="#63b8ff" points="589.22,-352.56 598.3,-347.1 587.8,-345.7 589.22,-352.56"/>
</a>
</g>
</g>
<!-- Node4 -->
<g id="Node000004" class="node">
<title>Node4</title>
<g id="a_Node000004"><a xlink:title=" ">
<polygon fill="#e0e0e0" stroke="#999999" points="253.5,-74 168.5,-74 168.5,-55 253.5,-55 253.5,-74"/>
<text text-anchor="middle" x="211" y="-62" font-family="Helvetica,sans-Serif" font-size="10.00">colony_map.h</text>
</a>
</g>
</g>
<!-- Node3&#45;&gt;Node4 -->
<g id="edge3_Node000003_Node000004" class="edge">
<title>Node3&#45;&gt;Node4</title>
<g id="a_edge3_Node000003_Node000004"><a xlink:title=" ">
<path fill="none" stroke="#63b8ff" d="M200.69,-336.32C169.87,-331.79 134.64,-320.58 115,-294 62.84,-223.43 154.72,-120.27 194.24,-81.25"/>
<polygon fill="#63b8ff" stroke="#63b8ff" points="196.85,-83.59 201.6,-74.12 191.98,-78.56 196.85,-83.59"/>
</a>
</g>
</g>
<!-- Node5 -->
<g id="Node000005" class="node">
<title>Node5</title>
<g id="a_Node000005"><a xlink:href="_runnable_8h.html" target="_top" xlink:title=" ">
<polygon fill="white" stroke="#666666" points="325,-294 195,-294 195,-275 325,-275 325,-294"/>
<text text-anchor="middle" x="260" y="-282" font-family="Helvetica,sans-Serif" font-size="10.00">Cpl/System/Runnable.h</text>
</a>
</g>
</g>
<!-- Node3&#45;&gt;Node5 -->
<g id="edge4_Node000003_Node000005" class="edge">
<title>Node3&#45;&gt;Node5</title>
<g id="a_edge4_Node000003_Node000005"><a xlink:title=" ">
<path fill="none" stroke="#63b8ff" d="M260,-329.75C260,-322.8 260,-312.85 260,-304.13"/>
<polygon fill="#63b8ff" stroke="#63b8ff" points="263.5,-304.09 260,-294.09 256.5,-304.09 263.5,-304.09"/>
</a>
</g>
</g>
<!-- Node6 -->
<g id="Node000006" class="node">
<title>Node6</title>
<g id="a_Node000006"><a xlink:href="_signable_8h.html" target="_top" xlink:title=" ">
<polygon fill="white" stroke="#666666" points="469,-294 343,-294 343,-275 469,-275 469,-294"/>
<text text-anchor="middle" x="406" y="-282" font-family="Helvetica,sans-Serif" font-size="10.00">Cpl/System/Signable.h</text>
</a>
</g>
</g>
<!-- Node3&#45;&gt;Node6 -->
<g id="edge5_Node000003_Node000006" class="edge">
<title>Node3&#45;&gt;Node6</title>
<g id="a_edge5_Node000003_Node000006"><a xlink:title=" ">
<path fill="none" stroke="#63b8ff" d="M283.46,-329.98C307.58,-321.23 345.37,-307.51 372.6,-297.62"/>
<polygon fill="#63b8ff" stroke="#63b8ff" points="373.91,-300.87 382.12,-294.17 371.52,-294.29 373.91,-300.87"/>
</a>
</g>
</g>
<!-- Node8 -->
<g id="Node000008" class="node">
<title>Node8</title>
<g id="a_Node000008"><a xlink:href="_traverser_8h.html" target="_top" xlink:title=" ">
<polygon fill="white" stroke="#666666" points="601,-294 487,-294 487,-275 601,-275 601,-294"/>
<text text-anchor="middle" x="544" y="-282" font-family="Helvetica,sans-Serif" font-size="10.00">Cpl/Type/Traverser.h</text>
</a>
</g>
</g>
<!-- Node3&#45;&gt;Node8 -->
<g id="edge7_Node000003_Node000008" class="edge">
<title>Node3&#45;&gt;Node8</title>
<g id="a_edge7_Node000003_Node000008"><a xlink:title=" ">
<path fill="none" stroke="#63b8ff" d="M305.63,-329.98C355.27,-320.72 434.66,-305.9 488.03,-295.94"/>
<polygon fill="#63b8ff" stroke="#63b8ff" points="488.82,-299.36 498.01,-294.08 487.54,-292.48 488.82,-299.36"/>
</a>
</g>
</g>
<!-- Node9 -->
<g id="Node000009" class="node">
<title>Node9</title>
<g id="a_Node000009"><a xlink:title=" ">
<polygon fill="#e0e0e0" stroke="#999999" points="176.5,-294 123.5,-294 123.5,-275 176.5,-275 176.5,-294"/>
<text text-anchor="middle" x="150" y="-282" font-family="Helvetica,sans-Serif" font-size="10.00">stdlib.h</text>
</a>
</g>
</g>
<!-- Node3&#45;&gt;Node9 -->
<g id="edge8_Node000003_Node000009" class="edge">
<title>Node3&#45;&gt;Node9</title>
<g id="a_edge8_Node000003_Node000009"><a xlink:title=" ">
<path fill="none" stroke="#63b8ff" d="M242.33,-329.98C224.71,-321.5 197.42,-308.35 177.07,-298.54"/>
<polygon fill="#63b8ff" stroke="#63b8ff" points="178.52,-295.36 167.99,-294.17 175.48,-301.66 178.52,-295.36"/>
</a>
</g>
</g>
<!-- Node7 -->
<g id="Node000007" class="node">
<title>Node7</title>
<g id="a_Node000007"><a xlink:href="_item_8h.html" target="_top" xlink:title=" ">
<polygon fill="white" stroke="#666666" points="310.5,-239 193.5,-239 193.5,-220 310.5,-220 310.5,-239"/>
<text text-anchor="middle" x="252" y="-227" font-family="Helvetica,sans-Serif" font-size="10.00">Cpl/Container/Item.h</text>
</a>
</g>
</g>
<!-- Node6&#45;&gt;Node7 -->
<g id="edge6_Node000006_Node000007" class="edge">
<title>Node6&#45;&gt;Node7</title>
<g id="a_edge6_Node000006_Node000007"><a xlink:title=" ">
<path fill="none" stroke="#63b8ff" d="M381.26,-274.98C355.63,-266.16 315.37,-252.31 286.59,-242.41"/>
<polygon fill="#63b8ff" stroke="#63b8ff" points="287.53,-239.03 276.94,-239.08 285.25,-245.65 287.53,-239.03"/>
</a>
</g>
</g>
<!-- Node10&#45;&gt;Node2 -->
<g id="edge10_Node000010_Node000002" class="edge">
<title>Node10&#45;&gt;Node2</title>
<g id="a_edge10_Node000010_Node000002"><a xlink:title=" ">
<path fill="none" stroke="#63b8ff" d="M87.72,-109.66C110.09,-91.22 161.97,-48.45 189.72,-25.57"/>
<polygon fill="#63b8ff" stroke="#63b8ff" points="192.01,-28.22 197.5,-19.16 187.56,-22.82 192.01,-28.22"/>
</a>
</g>
</g>
<!-- Node10&#45;&gt;Node4 -->
<g id="edge11_Node000010_Node000004" class="edge">
<title>Node10&#45;&gt;Node4</title>
<g id="a_edge11_Node000010_Node000004"><a xlink:title=" ">
<path fill="none" stroke="#63b8ff" d="M98.53,-109.98C120.47,-101.3 154.74,-87.75 179.69,-77.88"/>
<polygon fill="#63b8ff" stroke="#63b8ff" points="181.07,-81.1 189.08,-74.17 178.49,-74.59 181.07,-81.1"/>
</a>
</g>
</g>
<!-- Node12 -->
<g id="Node000012" class="node">
<title>Node12</title>
<g id="a_Node000012"><a xlink:href="_f_string___8h.html" target="_top" xlink:title=" ">
<polygon fill="white" stroke="#666666" points="726.5,-294 619.5,-294 619.5,-275 726.5,-275 726.5,-294"/>
<text text-anchor="middle" x="673" y="-282" font-family="Helvetica,sans-Serif" font-size="10.00">Cpl/Text/FString_.h</text>
</a>
</g>
</g>
<!-- Node11&#45;&gt;Node12 -->
<g id="edge13_Node000011_Node000012" class="edge">
<title>Node11&#45;&gt;Node12</title>
<g id="a_edge13_Node000011_Node000012"><a xlink:title=" ">
<path fill="none" stroke="#63b8ff" d="M552.98,-329.98C576.5,-321.27 613.29,-307.63 639.94,-297.75"/>
<polygon fill="#63b8ff" stroke="#63b8ff" points="641.45,-300.93 649.61,-294.17 639.01,-294.36 641.45,-300.93"/>
</a>
</g>
</g>
<!-- Node19 -->
<g id="Node000019" class="node">
<title>Node19</title>
<g id="a_Node000019"><a xlink:title=" ">
<polygon fill="#e0e0e0" stroke="#999999" points="765.5,-74 712.5,-74 712.5,-55 765.5,-55 765.5,-74"/>
<text text-anchor="middle" x="739" y="-62" font-family="Helvetica,sans-Serif" font-size="10.00">string.h</text>
</a>
</g>
</g>
<!-- Node11&#45;&gt;Node19 -->
<g id="edge27_Node000011_Node000019" class="edge">
<title>Node11&#45;&gt;Node19</title>
<g id="a_edge27_Node000011_Node000019"><a xlink:title=" ">
<path fill="none" stroke="#63b8ff" d="M580.51,-330.34C637.74,-320.67 724.6,-304.54 736,-294 757.63,-274 755,-259.96 755,-230.5 755,-230.5 755,-230.5 755,-173.5 755,-141.85 748.19,-105.54 743.46,-84.11"/>
<polygon fill="#63b8ff" stroke="#63b8ff" points="746.81,-83.08 741.16,-74.12 739.99,-84.65 746.81,-83.08"/>
</a>
</g>
</g>
<!-- Node12&#45;&gt;Node2 -->
<g id="edge14_Node000012_Node000002" class="edge">
<title>Node12&#45;&gt;Node2</title>
<g id="a_edge14_Node000012_Node000002"><a xlink:title=" ">
<path fill="none" stroke="#63b8ff" d="M633.37,-274.93C544.9,-255.24 339,-206.12 339,-175.5 339,-175.5 339,-175.5 339,-118.5 339,-69.18 283.04,-38.2 244.27,-22.65"/>
<polygon fill="#63b8ff" stroke="#63b8ff" points="245.42,-19.34 234.83,-19.02 242.91,-25.87 245.42,-19.34"/>
</a>
</g>
</g>
<!-- Node13 -->
<g id="Node000013" class="node">
<title>Node13</title>
<g id="a_Node000013"><a xlink:href="_string___8h.html" target="_top" xlink:title=" ">
<polygon fill="white" stroke="#666666" points="641.5,-239 540.5,-239 540.5,-220 641.5,-220 641.5,-239"/>
<text text-anchor="middle" x="591" y="-227" font-family="Helvetica,sans-Serif" font-size="10.00">Cpl/Text/String_.h</text>
</a>
</g>
</g>
<!-- Node12&#45;&gt;Node13 -->
<g id="edge15_Node000012_Node000013" class="edge">
<title>Node12&#45;&gt;Node13</title>
<g id="a_edge15_Node000012_Node000013"><a xlink:title=" ">
<path fill="none" stroke="#63b8ff" d="M659.83,-274.98C647.23,-266.84 628,-254.41 613.06,-244.76"/>
<polygon fill="#63b8ff" stroke="#63b8ff" points="614.71,-241.66 604.41,-239.17 610.91,-247.54 614.71,-241.66"/>
</a>
</g>
</g>
<!-- Node14 -->
<g id="Node000014" class="node">
<title>Node14</title>
<g id="a_Node000014"><a xlink:href="_text_2_string_8h.html" target="_top" xlink:title=" ">
<polygon fill="white" stroke="#666666" points="557,-184 461,-184 461,-165 557,-165 557,-184"/>
<text text-anchor="middle" x="509" y="-172" font-family="Helvetica,sans-Serif" font-size="10.00">Cpl/Text/String.h</text>
</a>
</g>
</g>
<!-- Node13&#45;&gt;Node14 -->
<g id="edge16_Node000013_Node000014" class="edge">
<title>Node13&#45;&gt;Node14</title>
<g id="a_edge16_Node000013_Node000014"><a xlink:title=" ">
<path fill="none" stroke="#63b8ff" d="M577.83,-219.98C565.23,-211.84 546,-199.41 531.06,-189.76"/>
<polygon fill="#63b8ff" stroke="#63b8ff" points="532.71,-186.66 522.41,-184.17 528.91,-192.54 532.71,-186.66"/>
</a>
</g>
</g>
<!-- Node14&#45;&gt;Node4 -->
<g id="edge17_Node000014_Node000004" class="edge">
<title>Node14&#45;&gt;Node4</title>
<g id="a_edge17_Node000014_Node000004"><a xlink:title=" ">
<path fill="none" stroke="#63b8ff" d="M485.37,-164.94C432.55,-145.79 304.84,-99.51 244.13,-77.51"/>
<polygon fill="#63b8ff" stroke="#63b8ff" points="245.23,-74.18 234.64,-74.07 242.84,-80.76 245.23,-74.18"/>
</a>
</g>
</g>
<!-- Node15 -->
<g id="Node000015" class="node">
<title>Node15</title>
<g id="a_Node000015"><a xlink:href="_key_8h.html" target="_top" xlink:title=" ">
<polygon fill="white" stroke="#666666" points="668.5,-129 557.5,-129 557.5,-110 668.5,-110 668.5,-129"/>
<text text-anchor="middle" x="613" y="-117" font-family="Helvetica,sans-Serif" font-size="10.00">Cpl/Container/Key.h</text>
</a>
</g>
</g>
<!-- Node14&#45;&gt;Node15 -->
<g id="edge18_Node000014_Node000015" class="edge">
<title>Node14&#45;&gt;Node15</title>
<g id="a_edge18_Node000014_Node000015"><a xlink:title=" ">
<path fill="none" stroke="#63b8ff" d="M525.71,-164.98C542.21,-156.57 567.7,-143.59 586.88,-133.81"/>
<polygon fill="#63b8ff" stroke="#63b8ff" points="588.67,-136.83 595.99,-129.17 585.49,-130.59 588.67,-136.83"/>
</a>
</g>
</g>
<!-- Node20 -->
<g id="Node000020" class="node">
<title>Node20</title>
<g id="a_Node000020"><a xlink:title=" ">
<polygon fill="#e0e0e0" stroke="#999999" points="461,-129 405,-129 405,-110 461,-110 461,-129"/>
<text text-anchor="middle" x="433" y="-117" font-family="Helvetica,sans-Serif" font-size="10.00">stdarg.h</text>
</a>
</g>
</g>
<!-- Node14&#45;&gt;Node20 -->
<g id="edge25_Node000014_Node000020" class="edge">
<title>Node14&#45;&gt;Node20</title>
<g id="a_edge25_Node000014_Node000020"><a xlink:title=" ">
<path fill="none" stroke="#63b8ff" d="M496.79,-164.98C485.22,-156.92 467.62,-144.65 453.84,-135.03"/>
<polygon fill="#63b8ff" stroke="#63b8ff" points="455.64,-132.02 445.43,-129.17 451.63,-137.76 455.64,-132.02"/>
</a>
</g>
</g>
<!-- Node21 -->
<g id="Node000021" class="node">
<title>Node21</title>
<g id="a_Node000021"><a xlink:title=" ">
<polygon fill="#e0e0e0" stroke="#999999" points="539,-129 479,-129 479,-110 539,-110 539,-129"/>
<text text-anchor="middle" x="509" y="-117" font-family="Helvetica,sans-Serif" font-size="10.00">iostream</text>
</a>
</g>
</g>
<!-- Node14&#45;&gt;Node21 -->
<g id="edge26_Node000014_Node000021" class="edge">
<title>Node14&#45;&gt;Node21</title>
<g id="a_edge26_Node000014_Node000021"><a xlink:title=" ">
<path fill="none" stroke="#63b8ff" d="M509,-164.75C509,-157.8 509,-147.85 509,-139.13"/>
<polygon fill="#63b8ff" stroke="#63b8ff" points="512.5,-139.09 509,-129.09 505.5,-139.09 512.5,-139.09"/>
</a>
</g>
</g>
<!-- Node15&#45;&gt;Node4 -->
<g id="edge24_Node000015_Node000004" class="edge">
<title>Node15&#45;&gt;Node4</title>
<g id="a_edge24_Node000015_Node000004"><a xlink:title=" ">
<path fill="none" stroke="#63b8ff" d="M557.1,-111.13C479.42,-100.89 339.83,-82.49 263.82,-72.46"/>
<polygon fill="#63b8ff" stroke="#63b8ff" points="263.91,-68.94 253.53,-71.11 262.99,-75.88 263.91,-68.94"/>
</a>
</g>
</g>
<!-- Node16 -->
<g id="Node000016" class="node">
<title>Node16</title>
<g id="a_Node000016"><a xlink:href="_fatal_error_8h.html" target="_top" xlink:title=" ">
<polygon fill="white" stroke="#666666" points="678,-74 548,-74 548,-55 678,-55 678,-74"/>
<text text-anchor="middle" x="613" y="-62" font-family="Helvetica,sans-Serif" font-size="10.00">Cpl/System/FatalError.h</text>
</a>
</g>
</g>
<!-- Node15&#45;&gt;Node16 -->
<g id="edge19_Node000015_Node000016" class="edge">
<title>Node15&#45;&gt;Node16</title>
<g id="a_edge19_Node000015_Node000016"><a xlink:title=" ">
<path fill="none" stroke="#63b8ff" d="M613,-109.75C613,-102.8 613,-92.85 613,-84.13"/>
<polygon fill="#63b8ff" stroke="#63b8ff" points="616.5,-84.09 613,-74.09 609.5,-84.09 616.5,-84.09"/>
</a>
</g>
</g>
<!-- Node18 -->
<g id="Node000018" class="node">
<title>Node18</title>
<g id="a_Node000018"><a xlink:title=" ">
<polygon fill="#e0e0e0" stroke="#999999" points="529.5,-74 476.5,-74 476.5,-55 529.5,-55 529.5,-74"/>
<text text-anchor="middle" x="503" y="-62" font-family="Helvetica,sans-Serif" font-size="10.00">stdint.h</text>
</a>
</g>
</g>
<!-- Node15&#45;&gt;Node18 -->
<g id="edge22_Node000015_Node000018" class="edge">
<title>Node15&#45;&gt;Node18</title>
<g id="a_edge22_Node000015_Node000018"><a xlink:title=" ">
<path fill="none" stroke="#63b8ff" d="M595.33,-109.98C577.71,-101.5 550.42,-88.35 530.07,-78.54"/>
<polygon fill="#63b8ff" stroke="#63b8ff" points="531.52,-75.36 520.99,-74.17 528.48,-81.66 531.52,-75.36"/>
</a>
</g>
</g>
<!-- Node15&#45;&gt;Node19 -->
<g id="edge23_Node000015_Node000019" class="edge">
<title>Node15&#45;&gt;Node19</title>
<g id="a_edge23_Node000015_Node000019"><a xlink:title=" ">
<path fill="none" stroke="#63b8ff" d="M633.24,-109.98C653.7,-101.38 685.53,-87.99 708.93,-78.15"/>
<polygon fill="#63b8ff" stroke="#63b8ff" points="710.53,-81.27 718.39,-74.17 707.81,-74.82 710.53,-81.27"/>
</a>
</g>
</g>
<!-- Node16&#45;&gt;Node2 -->
<g id="edge21_Node000016_Node000002" class="edge">
<title>Node16&#45;&gt;Node2</title>
<g id="a_edge21_Node000016_Node000002"><a xlink:title=" ">
<path fill="none" stroke="#63b8ff" d="M547.93,-54.98C469.34,-44.7 338.46,-27.57 264.12,-17.84"/>
<polygon fill="#63b8ff" stroke="#63b8ff" points="264.38,-14.35 254.02,-16.52 263.48,-21.29 264.38,-14.35"/>
</a>
</g>
</g>
<!-- Node17 -->
<g id="Node000017" class="node">
<title>Node17</title>
<g id="a_Node000017"><a xlink:title=" ">
<polygon fill="#e0e0e0" stroke="#999999" points="641,-19 585,-19 585,0 641,0 641,-19"/>
<text text-anchor="middle" x="613" y="-7" font-family="Helvetica,sans-Serif" font-size="10.00">stddef.h</text>
</a>
</g>
</g>
<!-- Node16&#45;&gt;Node17 -->
<g id="edge20_Node000016_Node000017" class="edge">
<title>Node16&#45;&gt;Node17</title>
<g id="a_edge20_Node000016_Node000017"><a xlink:title=" ">
<path fill="none" stroke="#63b8ff" d="M613,-54.75C613,-47.8 613,-37.85 613,-29.13"/>
<polygon fill="#63b8ff" stroke="#63b8ff" points="616.5,-29.09 613,-19.09 609.5,-29.09 616.5,-29.09"/>
</a>
</g>
</g>
</g>
</svg>
