<?xml version="1.0" encoding="UTF-8" standalone="no"?>
<!DOCTYPE svg PUBLIC "-//W3C//DTD SVG 1.1//EN"
 "http://www.w3.org/Graphics/SVG/1.1/DTD/svg11.dtd">
<!-- Generated by graphviz version 2.43.0 (0)
 -->
<!-- Title: Cpl/Io/File/Littlefs/TShell/Fs.h Pages: 1 -->
<svg width="717pt" height="478pt"
 viewBox="0.00 0.00 717.00 478.00" xmlns="http://www.w3.org/2000/svg" xmlns:xlink="http://www.w3.org/1999/xlink">
<g id="graph0" class="graph" transform="scale(1 1) rotate(0) translate(4 474)">
<title>Cpl/Io/File/Littlefs/TShell/Fs.h</title>
<!-- Node1 -->
<g id="Node000001" class="node">
<title>Node1</title>
<g id="a_Node000001"><a xlink:title=" ">
<polygon fill="#999999" stroke="#666666" points="157.5,-470 56.5,-470 56.5,-440 157.5,-440 157.5,-470"/>
<text text-anchor="start" x="64.5" y="-458" font-family="Helvetica,sans-Serif" font-size="10.00">Cpl/Io/File/Littlefs</text>
<text text-anchor="middle" x="107" y="-447" font-family="Helvetica,sans-Serif" font-size="10.00">/TShell/Fs.h</text>
</a>
</g>
</g>
<!-- Node2 -->
<g id="Node000002" class="node">
<title>Node2</title>
<g id="a_Node000002"><a xlink:title=" ">
<polygon fill="#e0e0e0" stroke="#999999" points="229,-19 137,-19 137,0 229,0 229,-19"/>
<text text-anchor="middle" x="183" y="-7" font-family="Helvetica,sans-Serif" font-size="10.00">colony_config.h</text>
</a>
</g>
</g>
<!-- Node1&#45;&gt;Node2 -->
<g id="edge1_Node000001_Node000002" class="edge">
<title>Node1&#45;&gt;Node2</title>
<g id="a_edge1_Node000001_Node000002"><a xlink:title=" ">
<path fill="none" stroke="#63b8ff" d="M79.17,-439.93C47.46,-421.69 0,-386.67 0,-340.5 0,-340.5 0,-340.5 0,-118.5 0,-58.77 73.21,-31.39 127.02,-19.33"/>
<polygon fill="#63b8ff" stroke="#63b8ff" points="127.76,-22.76 136.82,-17.26 126.31,-15.91 127.76,-22.76"/>
</a>
</g>
</g>
<!-- Node3 -->
<g id="Node000003" class="node">
<title>Node3</title>
<g id="a_Node000003"><a xlink:href="_cmd_2_command_8h.html" target="_top" xlink:title=" ">
<polygon fill="white" stroke="#666666" points="383.5,-404 230.5,-404 230.5,-385 383.5,-385 383.5,-404"/>
<text text-anchor="middle" x="307" y="-392" font-family="Helvetica,sans-Serif" font-size="10.00">Cpl/TShell/Cmd/Command.h</text>
</a>
</g>
</g>
<!-- Node1&#45;&gt;Node3 -->
<g id="edge2_Node000001_Node000003" class="edge">
<title>Node1&#45;&gt;Node3</title>
<g id="a_edge2_Node000001_Node000003"><a xlink:title=" ">
<path fill="none" stroke="#63b8ff" d="M154.9,-439.99C189.42,-429.89 235.42,-416.44 267.77,-406.98"/>
<polygon fill="#63b8ff" stroke="#63b8ff" points="269.14,-410.22 277.76,-404.05 267.18,-403.5 269.14,-410.22"/>
</a>
</g>
</g>
<!-- Node23 -->
<g id="Node000023" class="node">
<title>Node23</title>
<g id="a_Node000023"><a xlink:href="_model_database_api_8h.html" target="_top" xlink:title=" ">
<polygon fill="white" stroke="#666666" points="185.5,-349 28.5,-349 28.5,-330 185.5,-330 185.5,-349"/>
<text text-anchor="middle" x="107" y="-337" font-family="Helvetica,sans-Serif" font-size="10.00">Cpl/Dm/ModelDatabaseApi.h</text>
</a>
</g>
</g>
<!-- Node1&#45;&gt;Node23 -->
<g id="edge34_Node000001_Node000023" class="edge">
<title>Node1&#45;&gt;Node23</title>
<g id="a_edge34_Node000001_Node000023"><a xlink:title=" ">
<path fill="none" stroke="#63b8ff" d="M107,-439.63C107,-419.21 107,-381.81 107,-359.24"/>
<polygon fill="#63b8ff" stroke="#63b8ff" points="110.5,-359.23 107,-349.23 103.5,-359.23 110.5,-359.23"/>
</a>
</g>
</g>
<!-- Node3&#45;&gt;Node2 -->
<g id="edge3_Node000003_Node000002" class="edge">
<title>Node3&#45;&gt;Node2</title>
<g id="a_edge3_Node000003_Node000002"><a xlink:title=" ">
<path fill="none" stroke="#63b8ff" d="M299.42,-384.87C285.39,-368.42 255.41,-330.9 240,-294 200.59,-199.61 187.81,-75.9 184.23,-29.32"/>
<polygon fill="#63b8ff" stroke="#63b8ff" points="187.71,-28.93 183.51,-19.21 180.73,-29.43 187.71,-28.93"/>
</a>
</g>
</g>
<!-- Node4 -->
<g id="Node000004" class="node">
<title>Node4</title>
<g id="a_Node000004"><a xlink:href="_command_8h.html" target="_top" xlink:title=" ">
<polygon fill="white" stroke="#666666" points="573,-294 445,-294 445,-275 573,-275 573,-294"/>
<text text-anchor="middle" x="509" y="-282" font-family="Helvetica,sans-Serif" font-size="10.00">Cpl/TShell/Command.h</text>
</a>
</g>
</g>
<!-- Node3&#45;&gt;Node4 -->
<g id="edge4_Node000003_Node000004" class="edge">
<title>Node3&#45;&gt;Node4</title>
<g id="a_edge4_Node000003_Node000004"><a xlink:title=" ">
<path fill="none" stroke="#63b8ff" d="M383.52,-390.91C418.85,-385.97 459.06,-374.5 487,-349 499.51,-337.58 504.91,-318.69 507.23,-304.47"/>
<polygon fill="#63b8ff" stroke="#63b8ff" points="510.74,-304.67 508.52,-294.31 503.79,-303.79 510.74,-304.67"/>
</a>
</g>
</g>
<!-- Node19 -->
<g id="Node000019" class="node">
<title>Node19</title>
<g id="a_Node000019"><a xlink:href="_context___8h.html" target="_top" xlink:title=" ">
<polygon fill="white" stroke="#666666" points="477.5,-349 356.5,-349 356.5,-330 477.5,-330 477.5,-349"/>
<text text-anchor="middle" x="417" y="-337" font-family="Helvetica,sans-Serif" font-size="10.00">Cpl/TShell/Context_.h</text>
</a>
</g>
</g>
<!-- Node3&#45;&gt;Node19 -->
<g id="edge23_Node000003_Node000019" class="edge">
<title>Node3&#45;&gt;Node19</title>
<g id="a_edge23_Node000003_Node000019"><a xlink:title=" ">
<path fill="none" stroke="#63b8ff" d="M324.67,-384.98C342.29,-376.5 369.58,-363.35 389.93,-353.54"/>
<polygon fill="#63b8ff" stroke="#63b8ff" points="391.52,-356.66 399.01,-349.17 388.48,-350.36 391.52,-356.66"/>
</a>
</g>
</g>
<!-- Node5 -->
<g id="Node000005" class="node">
<title>Node5</title>
<g id="a_Node000005"><a xlink:href="_item_8h.html" target="_top" xlink:title=" ">
<polygon fill="white" stroke="#666666" points="677.5,-129 560.5,-129 560.5,-110 677.5,-110 677.5,-129"/>
<text text-anchor="middle" x="619" y="-117" font-family="Helvetica,sans-Serif" font-size="10.00">Cpl/Container/Item.h</text>
</a>
</g>
</g>
<!-- Node4&#45;&gt;Node5 -->
<g id="edge5_Node000004_Node000005" class="edge">
<title>Node4&#45;&gt;Node5</title>
<g id="a_edge5_Node000004_Node000005"><a xlink:title=" ">
<path fill="none" stroke="#63b8ff" d="M537.73,-274.99C555.94,-268.14 578.52,-256.68 592,-239 614.52,-209.46 618.83,-164.51 619.33,-139.31"/>
<polygon fill="#63b8ff" stroke="#63b8ff" points="622.83,-139.26 619.35,-129.25 615.83,-139.25 622.83,-139.26"/>
</a>
</g>
</g>
<!-- Node6 -->
<g id="Node000006" class="node">
<title>Node6</title>
<g id="a_Node000006"><a xlink:href="_output_8h.html" target="_top" xlink:title=" ">
<polygon fill="white" stroke="#666666" points="449.5,-239 360.5,-239 360.5,-220 449.5,-220 449.5,-239"/>
<text text-anchor="middle" x="405" y="-227" font-family="Helvetica,sans-Serif" font-size="10.00">Cpl/Io/Output.h</text>
</a>
</g>
</g>
<!-- Node4&#45;&gt;Node6 -->
<g id="edge6_Node000004_Node000006" class="edge">
<title>Node4&#45;&gt;Node6</title>
<g id="a_edge6_Node000004_Node000006"><a xlink:title=" ">
<path fill="none" stroke="#63b8ff" d="M492.29,-274.98C475.79,-266.57 450.3,-253.59 431.12,-243.81"/>
<polygon fill="#63b8ff" stroke="#63b8ff" points="432.51,-240.59 422.01,-239.17 429.33,-246.83 432.51,-240.59"/>
</a>
</g>
</g>
<!-- Node18 -->
<g id="Node000018" class="node">
<title>Node18</title>
<g id="a_Node000018"><a xlink:href="_security_8h.html" target="_top" xlink:title=" ">
<polygon fill="white" stroke="#666666" points="583,-239 467,-239 467,-220 583,-220 583,-239"/>
<text text-anchor="middle" x="525" y="-227" font-family="Helvetica,sans-Serif" font-size="10.00">Cpl/TShell/Security.h</text>
</a>
</g>
</g>
<!-- Node4&#45;&gt;Node18 -->
<g id="edge22_Node000004_Node000018" class="edge">
<title>Node4&#45;&gt;Node18</title>
<g id="a_edge22_Node000004_Node000018"><a xlink:title=" ">
<path fill="none" stroke="#63b8ff" d="M511.64,-274.75C513.76,-267.72 516.81,-257.62 519.46,-248.84"/>
<polygon fill="#63b8ff" stroke="#63b8ff" points="522.87,-249.67 522.41,-239.09 516.17,-247.65 522.87,-249.67"/>
</a>
</g>
</g>
<!-- Node7 -->
<g id="Node000007" class="node">
<title>Node7</title>
<g id="a_Node000007"><a xlink:href="_text_2_string_8h.html" target="_top" xlink:title=" ">
<polygon fill="white" stroke="#666666" points="344,-184 248,-184 248,-165 344,-165 344,-184"/>
<text text-anchor="middle" x="296" y="-172" font-family="Helvetica,sans-Serif" font-size="10.00">Cpl/Text/String.h</text>
</a>
</g>
</g>
<!-- Node6&#45;&gt;Node7 -->
<g id="edge7_Node000006_Node000007" class="edge">
<title>Node6&#45;&gt;Node7</title>
<g id="a_edge7_Node000006_Node000007"><a xlink:title=" ">
<path fill="none" stroke="#63b8ff" d="M387.49,-219.98C370.03,-211.5 342.99,-198.35 322.83,-188.54"/>
<polygon fill="#63b8ff" stroke="#63b8ff" points="324.36,-185.4 313.83,-184.17 321.29,-191.69 324.36,-185.4"/>
</a>
</g>
</g>
<!-- Node14 -->
<g id="Node000014" class="node">
<title>Node14</title>
<g id="a_Node000014"><a xlink:title=" ">
<polygon fill="#e0e0e0" stroke="#999999" points="542,-129 486,-129 486,-110 542,-110 542,-129"/>
<text text-anchor="middle" x="514" y="-117" font-family="Helvetica,sans-Serif" font-size="10.00">stdarg.h</text>
</a>
</g>
</g>
<!-- Node6&#45;&gt;Node14 -->
<g id="edge21_Node000006_Node000014" class="edge">
<title>Node6&#45;&gt;Node14</title>
<g id="a_edge21_Node000006_Node000014"><a xlink:title=" ">
<path fill="none" stroke="#63b8ff" d="M449.6,-221.28C489.06,-213.87 542.29,-201.03 555,-184 566.96,-167.97 550.15,-148.52 534.58,-135.4"/>
<polygon fill="#63b8ff" stroke="#63b8ff" points="536.72,-132.63 526.71,-129.17 532.38,-138.12 536.72,-132.63"/>
</a>
</g>
</g>
<!-- Node16 -->
<g id="Node000016" class="node">
<title>Node16</title>
<g id="a_Node000016"><a xlink:href="_close_8h.html" target="_top" xlink:title=" ">
<polygon fill="white" stroke="#666666" points="545.5,-184 462.5,-184 462.5,-165 545.5,-165 545.5,-184"/>
<text text-anchor="middle" x="504" y="-172" font-family="Helvetica,sans-Serif" font-size="10.00">Cpl/Io/Close.h</text>
</a>
</g>
</g>
<!-- Node6&#45;&gt;Node16 -->
<g id="edge18_Node000006_Node000016" class="edge">
<title>Node6&#45;&gt;Node16</title>
<g id="a_edge18_Node000006_Node000016"><a xlink:title=" ">
<path fill="none" stroke="#63b8ff" d="M420.91,-219.98C436.55,-211.61 460.66,-198.7 478.88,-188.95"/>
<polygon fill="#63b8ff" stroke="#63b8ff" points="480.64,-191.98 487.8,-184.17 477.34,-185.8 480.64,-191.98"/>
</a>
</g>
</g>
<!-- Node17 -->
<g id="Node000017" class="node">
<title>Node17</title>
<g id="a_Node000017"><a xlink:href="_is_eos_8h.html" target="_top" xlink:title=" ">
<polygon fill="white" stroke="#666666" points="444,-184 362,-184 362,-165 444,-165 444,-184"/>
<text text-anchor="middle" x="403" y="-172" font-family="Helvetica,sans-Serif" font-size="10.00">Cpl/Io/IsEos.h</text>
</a>
</g>
</g>
<!-- Node6&#45;&gt;Node17 -->
<g id="edge20_Node000006_Node000017" class="edge">
<title>Node6&#45;&gt;Node17</title>
<g id="a_edge20_Node000006_Node000017"><a xlink:title=" ">
<path fill="none" stroke="#63b8ff" d="M404.67,-219.75C404.41,-212.8 404.03,-202.85 403.7,-194.13"/>
<polygon fill="#63b8ff" stroke="#63b8ff" points="407.2,-193.95 403.32,-184.09 400.2,-194.21 407.2,-193.95"/>
</a>
</g>
</g>
<!-- Node8 -->
<g id="Node000008" class="node">
<title>Node8</title>
<g id="a_Node000008"><a xlink:title=" ">
<polygon fill="#e0e0e0" stroke="#999999" points="587.5,-74 502.5,-74 502.5,-55 587.5,-55 587.5,-74"/>
<text text-anchor="middle" x="545" y="-62" font-family="Helvetica,sans-Serif" font-size="10.00">colony_map.h</text>
</a>
</g>
</g>
<!-- Node7&#45;&gt;Node8 -->
<g id="edge8_Node000007_Node000008" class="edge">
<title>Node7&#45;&gt;Node8</title>
<g id="a_edge8_Node000007_Node000008"><a xlink:title=" ">
<path fill="none" stroke="#63b8ff" d="M331.53,-164.97C361,-157.3 403.64,-144.82 439,-129 470.22,-115.03 503.66,-93.84 524.45,-79.83"/>
<polygon fill="#63b8ff" stroke="#63b8ff" points="526.51,-82.66 532.8,-74.13 522.57,-76.88 526.51,-82.66"/>
</a>
</g>
</g>
<!-- Node9 -->
<g id="Node000009" class="node">
<title>Node9</title>
<g id="a_Node000009"><a xlink:href="_key_8h.html" target="_top" xlink:title=" ">
<polygon fill="white" stroke="#666666" points="351.5,-129 240.5,-129 240.5,-110 351.5,-110 351.5,-129"/>
<text text-anchor="middle" x="296" y="-117" font-family="Helvetica,sans-Serif" font-size="10.00">Cpl/Container/Key.h</text>
</a>
</g>
</g>
<!-- Node7&#45;&gt;Node9 -->
<g id="edge9_Node000007_Node000009" class="edge">
<title>Node7&#45;&gt;Node9</title>
<g id="a_edge9_Node000007_Node000009"><a xlink:title=" ">
<path fill="none" stroke="#63b8ff" d="M296,-164.75C296,-157.8 296,-147.85 296,-139.13"/>
<polygon fill="#63b8ff" stroke="#63b8ff" points="299.5,-139.09 296,-129.09 292.5,-139.09 299.5,-139.09"/>
</a>
</g>
</g>
<!-- Node7&#45;&gt;Node14 -->
<g id="edge16_Node000007_Node000014" class="edge">
<title>Node7&#45;&gt;Node14</title>
<g id="a_edge16_Node000007_Node000014"><a xlink:title=" ">
<path fill="none" stroke="#63b8ff" d="M331.03,-164.98C370.75,-155.33 435.29,-139.64 476.14,-129.7"/>
<polygon fill="#63b8ff" stroke="#63b8ff" points="477.1,-133.07 485.99,-127.31 475.45,-126.27 477.1,-133.07"/>
</a>
</g>
</g>
<!-- Node15 -->
<g id="Node000015" class="node">
<title>Node15</title>
<g id="a_Node000015"><a xlink:title=" ">
<polygon fill="#e0e0e0" stroke="#999999" points="430,-129 370,-129 370,-110 430,-110 430,-129"/>
<text text-anchor="middle" x="400" y="-117" font-family="Helvetica,sans-Serif" font-size="10.00">iostream</text>
</a>
</g>
</g>
<!-- Node7&#45;&gt;Node15 -->
<g id="edge17_Node000007_Node000015" class="edge">
<title>Node7&#45;&gt;Node15</title>
<g id="a_edge17_Node000007_Node000015"><a xlink:title=" ">
<path fill="none" stroke="#63b8ff" d="M312.71,-164.98C329.21,-156.57 354.7,-143.59 373.88,-133.81"/>
<polygon fill="#63b8ff" stroke="#63b8ff" points="375.67,-136.83 382.99,-129.17 372.49,-130.59 375.67,-136.83"/>
</a>
</g>
</g>
<!-- Node9&#45;&gt;Node8 -->
<g id="edge15_Node000009_Node000008" class="edge">
<title>Node9&#45;&gt;Node8</title>
<g id="a_edge15_Node000009_Node000008"><a xlink:title=" ">
<path fill="none" stroke="#63b8ff" d="M336.01,-109.98C379.17,-100.8 447.98,-86.15 494.76,-76.19"/>
<polygon fill="#63b8ff" stroke="#63b8ff" points="495.63,-79.59 504.68,-74.08 494.17,-72.74 495.63,-79.59"/>
</a>
</g>
</g>
<!-- Node10 -->
<g id="Node000010" class="node">
<title>Node10</title>
<g id="a_Node000010"><a xlink:href="_fatal_error_8h.html" target="_top" xlink:title=" ">
<polygon fill="white" stroke="#666666" points="484,-74 354,-74 354,-55 484,-55 484,-74"/>
<text text-anchor="middle" x="419" y="-62" font-family="Helvetica,sans-Serif" font-size="10.00">Cpl/System/FatalError.h</text>
</a>
</g>
</g>
<!-- Node9&#45;&gt;Node10 -->
<g id="edge10_Node000009_Node000010" class="edge">
<title>Node9&#45;&gt;Node10</title>
<g id="a_edge10_Node000009_Node000010"><a xlink:title=" ">
<path fill="none" stroke="#63b8ff" d="M315.76,-109.98C335.73,-101.38 366.8,-87.99 389.65,-78.15"/>
<polygon fill="#63b8ff" stroke="#63b8ff" points="391.08,-81.34 398.88,-74.17 388.31,-74.91 391.08,-81.34"/>
</a>
</g>
</g>
<!-- Node12 -->
<g id="Node000012" class="node">
<title>Node12</title>
<g id="a_Node000012"><a xlink:title=" ">
<polygon fill="#e0e0e0" stroke="#999999" points="264.5,-74 211.5,-74 211.5,-55 264.5,-55 264.5,-74"/>
<text text-anchor="middle" x="238" y="-62" font-family="Helvetica,sans-Serif" font-size="10.00">stdint.h</text>
</a>
</g>
</g>
<!-- Node9&#45;&gt;Node12 -->
<g id="edge13_Node000009_Node000012" class="edge">
<title>Node9&#45;&gt;Node12</title>
<g id="a_edge13_Node000009_Node000012"><a xlink:title=" ">
<path fill="none" stroke="#63b8ff" d="M286.68,-109.98C278.19,-102.23 265.44,-90.58 255.12,-81.14"/>
<polygon fill="#63b8ff" stroke="#63b8ff" points="257.23,-78.33 247.49,-74.17 252.51,-83.5 257.23,-78.33"/>
</a>
</g>
</g>
<!-- Node13 -->
<g id="Node000013" class="node">
<title>Node13</title>
<g id="a_Node000013"><a xlink:title=" ">
<polygon fill="#e0e0e0" stroke="#999999" points="335.5,-74 282.5,-74 282.5,-55 335.5,-55 335.5,-74"/>
<text text-anchor="middle" x="309" y="-62" font-family="Helvetica,sans-Serif" font-size="10.00">string.h</text>
</a>
</g>
</g>
<!-- Node9&#45;&gt;Node13 -->
<g id="edge14_Node000009_Node000013" class="edge">
<title>Node9&#45;&gt;Node13</title>
<g id="a_edge14_Node000009_Node000013"><a xlink:title=" ">
<path fill="none" stroke="#63b8ff" d="M298.15,-109.75C299.87,-102.72 302.35,-92.62 304.5,-83.84"/>
<polygon fill="#63b8ff" stroke="#63b8ff" points="307.91,-84.63 306.89,-74.09 301.11,-82.97 307.91,-84.63"/>
</a>
</g>
</g>
<!-- Node10&#45;&gt;Node2 -->
<g id="edge12_Node000010_Node000002" class="edge">
<title>Node10&#45;&gt;Node2</title>
<g id="a_edge12_Node000010_Node000002"><a xlink:title=" ">
<path fill="none" stroke="#63b8ff" d="M381.08,-54.98C340.35,-45.84 275.5,-31.27 231.18,-21.32"/>
<polygon fill="#63b8ff" stroke="#63b8ff" points="231.74,-17.86 221.21,-19.08 230.2,-24.69 231.74,-17.86"/>
</a>
</g>
</g>
<!-- Node11 -->
<g id="Node000011" class="node">
<title>Node11</title>
<g id="a_Node000011"><a xlink:title=" ">
<polygon fill="#e0e0e0" stroke="#999999" points="447,-19 391,-19 391,0 447,0 447,-19"/>
<text text-anchor="middle" x="419" y="-7" font-family="Helvetica,sans-Serif" font-size="10.00">stddef.h</text>
</a>
</g>
</g>
<!-- Node10&#45;&gt;Node11 -->
<g id="edge11_Node000010_Node000011" class="edge">
<title>Node10&#45;&gt;Node11</title>
<g id="a_edge11_Node000010_Node000011"><a xlink:title=" ">
<path fill="none" stroke="#63b8ff" d="M419,-54.75C419,-47.8 419,-37.85 419,-29.13"/>
<polygon fill="#63b8ff" stroke="#63b8ff" points="422.5,-29.09 419,-19.09 415.5,-29.09 422.5,-29.09"/>
</a>
</g>
</g>
<!-- Node16&#45;&gt;Node5 -->
<g id="edge19_Node000016_Node000005" class="edge">
<title>Node16&#45;&gt;Node5</title>
<g id="a_edge19_Node000016_Node000005"><a xlink:title=" ">
<path fill="none" stroke="#63b8ff" d="M522.48,-164.98C540.98,-156.46 569.68,-143.23 590.98,-133.41"/>
<polygon fill="#63b8ff" stroke="#63b8ff" points="592.57,-136.53 600.19,-129.17 589.64,-130.18 592.57,-136.53"/>
</a>
</g>
</g>
<!-- Node19&#45;&gt;Node4 -->
<g id="edge31_Node000019_Node000004" class="edge">
<title>Node19&#45;&gt;Node4</title>
<g id="a_edge31_Node000019_Node000004"><a xlink:title=" ">
<path fill="none" stroke="#63b8ff" d="M431.78,-329.98C446.18,-321.69 468.31,-308.94 485.19,-299.22"/>
<polygon fill="#63b8ff" stroke="#63b8ff" points="487.03,-302.19 493.95,-294.17 483.54,-296.13 487.03,-302.19"/>
</a>
</g>
</g>
<!-- Node19&#45;&gt;Node18 -->
<g id="edge30_Node000019_Node000018" class="edge">
<title>Node19&#45;&gt;Node18</title>
<g id="a_edge30_Node000019_Node000018"><a xlink:title=" ">
<path fill="none" stroke="#63b8ff" d="M417.47,-329.67C418.61,-316.36 422.53,-291.03 436,-275 448.45,-260.19 467.05,-249.82 484.02,-242.84"/>
<polygon fill="#63b8ff" stroke="#63b8ff" points="485.68,-245.95 493.77,-239.11 483.18,-239.41 485.68,-245.95"/>
</a>
</g>
</g>
<!-- Node20 -->
<g id="Node000020" class="node">
<title>Node20</title>
<g id="a_Node000020"><a xlink:href="_processor_api_8h.html" target="_top" xlink:title=" ">
<polygon fill="white" stroke="#666666" points="389,-294 249,-294 249,-275 389,-275 389,-294"/>
<text text-anchor="middle" x="319" y="-282" font-family="Helvetica,sans-Serif" font-size="10.00">Cpl/TShell/ProcessorApi.h</text>
</a>
</g>
</g>
<!-- Node19&#45;&gt;Node20 -->
<g id="edge24_Node000019_Node000020" class="edge">
<title>Node19&#45;&gt;Node20</title>
<g id="a_edge24_Node000019_Node000020"><a xlink:title=" ">
<path fill="none" stroke="#63b8ff" d="M401.25,-329.98C385.77,-321.61 361.91,-308.7 343.86,-298.95"/>
<polygon fill="#63b8ff" stroke="#63b8ff" points="345.49,-295.85 335.03,-294.17 342.16,-302.01 345.49,-295.85"/>
</a>
</g>
</g>
<!-- Node22 -->
<g id="Node000022" class="node">
<title>Node22</title>
<g id="a_Node000022"><a xlink:href="_s_list_8h.html" target="_top" xlink:title=" ">
<polygon fill="white" stroke="#666666" points="709,-294 591,-294 591,-275 709,-275 709,-294"/>
<text text-anchor="middle" x="650" y="-282" font-family="Helvetica,sans-Serif" font-size="10.00">Cpl/Container/SList.h</text>
</a>
</g>
</g>
<!-- Node19&#45;&gt;Node22 -->
<g id="edge32_Node000019_Node000022" class="edge">
<title>Node19&#45;&gt;Node22</title>
<g id="a_edge32_Node000019_Node000022"><a xlink:title=" ">
<path fill="none" stroke="#63b8ff" d="M454.44,-329.98C494.65,-320.84 558.68,-306.27 602.44,-296.32"/>
<polygon fill="#63b8ff" stroke="#63b8ff" points="603.3,-299.71 612.27,-294.08 601.74,-292.89 603.3,-299.71"/>
</a>
</g>
</g>
<!-- Node20&#45;&gt;Node6 -->
<g id="edge29_Node000020_Node000006" class="edge">
<title>Node20&#45;&gt;Node6</title>
<g id="a_edge29_Node000020_Node000006"><a xlink:title=" ">
<path fill="none" stroke="#63b8ff" d="M332.82,-274.98C346.15,-266.77 366.58,-254.18 382.31,-244.49"/>
<polygon fill="#63b8ff" stroke="#63b8ff" points="384.25,-247.4 390.93,-239.17 380.58,-241.44 384.25,-247.4"/>
</a>
</g>
</g>
<!-- Node21 -->
<g id="Node000021" class="node">
<title>Node21</title>
<g id="a_Node000021"><a xlink:href="_input_8h.html" target="_top" xlink:title=" ">
<polygon fill="white" stroke="#666666" points="342.5,-239 261.5,-239 261.5,-220 342.5,-220 342.5,-239"/>
<text text-anchor="middle" x="302" y="-227" font-family="Helvetica,sans-Serif" font-size="10.00">Cpl/Io/Input.h</text>
</a>
</g>
</g>
<!-- Node20&#45;&gt;Node21 -->
<g id="edge25_Node000020_Node000021" class="edge">
<title>Node20&#45;&gt;Node21</title>
<g id="a_edge25_Node000020_Node000021"><a xlink:title=" ">
<path fill="none" stroke="#63b8ff" d="M316.19,-274.75C313.94,-267.72 310.7,-257.62 307.88,-248.84"/>
<polygon fill="#63b8ff" stroke="#63b8ff" points="311.14,-247.54 304.75,-239.09 304.48,-249.68 311.14,-247.54"/>
</a>
</g>
</g>
<!-- Node21&#45;&gt;Node7 -->
<g id="edge26_Node000021_Node000007" class="edge">
<title>Node21&#45;&gt;Node7</title>
<g id="a_edge26_Node000021_Node000007"><a xlink:title=" ">
<path fill="none" stroke="#63b8ff" d="M301.01,-219.75C300.22,-212.8 299.1,-202.85 298.11,-194.13"/>
<polygon fill="#63b8ff" stroke="#63b8ff" points="301.58,-193.63 296.97,-184.09 294.62,-194.42 301.58,-193.63"/>
</a>
</g>
</g>
<!-- Node21&#45;&gt;Node16 -->
<g id="edge27_Node000021_Node000016" class="edge">
<title>Node21&#45;&gt;Node16</title>
<g id="a_edge27_Node000021_Node000016"><a xlink:title=" ">
<path fill="none" stroke="#63b8ff" d="M334.45,-219.98C368.96,-210.93 423.66,-196.58 461.56,-186.64"/>
<polygon fill="#63b8ff" stroke="#63b8ff" points="462.51,-190.01 471.29,-184.08 460.73,-183.23 462.51,-190.01"/>
</a>
</g>
</g>
<!-- Node21&#45;&gt;Node17 -->
<g id="edge28_Node000021_Node000017" class="edge">
<title>Node21&#45;&gt;Node17</title>
<g id="a_edge28_Node000021_Node000017"><a xlink:title=" ">
<path fill="none" stroke="#63b8ff" d="M318.23,-219.98C334.18,-211.61 358.78,-198.7 377.38,-188.95"/>
<polygon fill="#63b8ff" stroke="#63b8ff" points="379.25,-191.92 386.48,-184.17 376,-185.72 379.25,-191.92"/>
</a>
</g>
</g>
<!-- Node22&#45;&gt;Node5 -->
<g id="edge33_Node000022_Node000005" class="edge">
<title>Node22&#45;&gt;Node5</title>
<g id="a_edge33_Node000022_Node000005"><a xlink:title=" ">
<path fill="none" stroke="#63b8ff" d="M648.33,-274.74C643.48,-249.2 629.26,-174.43 622.56,-139.23"/>
<polygon fill="#63b8ff" stroke="#63b8ff" points="625.98,-138.48 620.67,-129.31 619.1,-139.78 625.98,-138.48"/>
</a>
</g>
</g>
<!-- Node23&#45;&gt;Node7 -->
<g id="edge35_Node000023_Node000007" class="edge">
<title>Node23&#45;&gt;Node7</title>
<g id="a_edge35_Node000023_Node000007"><a xlink:title=" ">
<path fill="none" stroke="#63b8ff" d="M116.9,-329.97C147.12,-303.9 238.54,-225.06 277.78,-191.21"/>
<polygon fill="#63b8ff" stroke="#63b8ff" points="280.46,-193.53 285.74,-184.34 275.89,-188.23 280.46,-193.53"/>
</a>
</g>
</g>
</g>
</svg>
