<?xml version="1.0" encoding="UTF-8" standalone="no"?>
<!DOCTYPE svg PUBLIC "-//W3C//DTD SVG 1.1//EN"
 "http://www.w3.org/Graphics/SVG/1.1/DTD/svg11.dtd">
<!-- Generated by graphviz version 2.43.0 (0)
 -->
<!-- Title: Driver/NV/Gang.h Pages: 1 -->
<svg width="172pt" height="137pt"
 viewBox="0.00 0.00 171.50 137.00" xmlns="http://www.w3.org/2000/svg" xmlns:xlink="http://www.w3.org/1999/xlink">
<g id="graph0" class="graph" transform="scale(1 1) rotate(0) translate(4 133)">
<title>Driver/NV/Gang.h</title>
<!-- Node1 -->
<g id="Node000001" class="node">
<title>Node1</title>
<g id="a_Node000001"><a xlink:title=" ">
<polygon fill="#999999" stroke="#666666" points="141.5,-129 40.5,-129 40.5,-110 141.5,-110 141.5,-129"/>
<text text-anchor="middle" x="91" y="-117" font-family="Helvetica,sans-Serif" font-size="10.00">Driver/NV/Gang.h</text>
</a>
</g>
</g>
<!-- Node2 -->
<g id="Node000002" class="node">
<title>Node2</title>
<g id="a_Node000002"><a xlink:href="_driver_2_n_v_2_api_8h.html" target="_top" xlink:title=" ">
<polygon fill="white" stroke="#666666" points="92,-74 0,-74 0,-55 92,-55 92,-74"/>
<text text-anchor="middle" x="46" y="-62" font-family="Helvetica,sans-Serif" font-size="10.00">Driver/NV/Api.h</text>
</a>
</g>
</g>
<!-- Node1&#45;&gt;Node2 -->
<g id="edge1_Node000001_Node000002" class="edge">
<title>Node1&#45;&gt;Node2</title>
<g id="a_edge1_Node000001_Node000002"><a xlink:title=" ">
<path fill="none" stroke="#63b8ff" d="M83.57,-109.75C77.15,-102.18 67.69,-91.05 59.88,-81.84"/>
<polygon fill="#63b8ff" stroke="#63b8ff" points="62.43,-79.45 53.29,-74.09 57.1,-83.98 62.43,-79.45"/>
</a>
</g>
</g>
<!-- Node4 -->
<g id="Node000004" class="node">
<title>Node4</title>
<g id="a_Node000004"><a xlink:title=" ">
<polygon fill="#e0e0e0" stroke="#999999" points="163.5,-74 110.5,-74 110.5,-55 163.5,-55 163.5,-74"/>
<text text-anchor="middle" x="137" y="-62" font-family="Helvetica,sans-Serif" font-size="10.00">stdint.h</text>
</a>
</g>
</g>
<!-- Node1&#45;&gt;Node4 -->
<g id="edge3_Node000001_Node000004" class="edge">
<title>Node1&#45;&gt;Node4</title>
<g id="a_edge3_Node000001_Node000004"><a xlink:title=" ">
<path fill="none" stroke="#63b8ff" d="M98.6,-109.75C105.16,-102.18 114.82,-91.05 122.81,-81.84"/>
<polygon fill="#63b8ff" stroke="#63b8ff" points="125.63,-83.94 129.55,-74.09 120.35,-79.35 125.63,-83.94"/>
</a>
</g>
</g>
<!-- Node3 -->
<g id="Node000003" class="node">
<title>Node3</title>
<g id="a_Node000003"><a xlink:title=" ">
<polygon fill="#e0e0e0" stroke="#999999" points="72.5,-19 19.5,-19 19.5,0 72.5,0 72.5,-19"/>
<text text-anchor="middle" x="46" y="-7" font-family="Helvetica,sans-Serif" font-size="10.00">stdlib.h</text>
</a>
</g>
</g>
<!-- Node2&#45;&gt;Node3 -->
<g id="edge2_Node000002_Node000003" class="edge">
<title>Node2&#45;&gt;Node3</title>
<g id="a_edge2_Node000002_Node000003"><a xlink:title=" ">
<path fill="none" stroke="#63b8ff" d="M46,-54.75C46,-47.8 46,-37.85 46,-29.13"/>
<polygon fill="#63b8ff" stroke="#63b8ff" points="49.5,-29.09 46,-19.09 42.5,-29.09 49.5,-29.09"/>
</a>
</g>
</g>
</g>
</svg>
