<?xml version="1.0" encoding="UTF-8" standalone="no"?>
<!DOCTYPE svg PUBLIC "-//W3C//DTD SVG 1.1//EN"
 "http://www.w3.org/Graphics/SVG/1.1/DTD/svg11.dtd">
<!-- Generated by graphviz version 2.43.0 (0)
 -->
<!-- Title: Cpl/Type/Guid.h Pages: 1 -->
<svg width="429pt" height="412pt"
 viewBox="0.00 0.00 428.50 412.00" xmlns="http://www.w3.org/2000/svg" xmlns:xlink="http://www.w3.org/1999/xlink">
<g id="graph0" class="graph" transform="scale(1 1) rotate(0) translate(4 408)">
<title>Cpl/Type/Guid.h</title>
<!-- Node1 -->
<g id="Node000001" class="node">
<title>Node1</title>
<g id="a_Node000001"><a xlink:title=" ">
<polygon fill="#999999" stroke="#666666" points="259.5,-404 167.5,-404 167.5,-385 259.5,-385 259.5,-404"/>
<text text-anchor="middle" x="213.5" y="-392" font-family="Helvetica,sans-Serif" font-size="10.00">Cpl/Type/Guid.h</text>
</a>
</g>
</g>
<!-- Node2 -->
<g id="Node000002" class="node">
<title>Node2</title>
<g id="a_Node000002"><a xlink:href="_text_2_string_8h.html" target="_top" xlink:title=" ">
<polygon fill="white" stroke="#666666" points="372.5,-184 276.5,-184 276.5,-165 372.5,-165 372.5,-184"/>
<text text-anchor="middle" x="324.5" y="-172" font-family="Helvetica,sans-Serif" font-size="10.00">Cpl/Text/String.h</text>
</a>
</g>
</g>
<!-- Node1&#45;&gt;Node2 -->
<g id="edge1_Node000001_Node000002" class="edge">
<title>Node1&#45;&gt;Node2</title>
<g id="a_edge1_Node000001_Node000002"><a xlink:title=" ">
<path fill="none" stroke="#63b8ff" d="M248.43,-384.9C290.04,-372.58 357.64,-345.47 387.5,-294 394.33,-282.23 399.84,-248.52 384.5,-220 377.4,-206.8 364.49,-196.45 352.45,-189.07"/>
<polygon fill="#63b8ff" stroke="#63b8ff" points="353.96,-185.9 343.53,-184 350.5,-191.99 353.96,-185.9"/>
</a>
</g>
</g>
<!-- Node8 -->
<g id="Node000008" class="node">
<title>Node8</title>
<g id="a_Node000008"><a xlink:title=" ">
<polygon fill="#e0e0e0" stroke="#999999" points="53,-74 0,-74 0,-55 53,-55 53,-74"/>
<text text-anchor="middle" x="26.5" y="-62" font-family="Helvetica,sans-Serif" font-size="10.00">stdint.h</text>
</a>
</g>
</g>
<!-- Node1&#45;&gt;Node8 -->
<g id="edge18_Node000001_Node000008" class="edge">
<title>Node1&#45;&gt;Node8</title>
<g id="a_edge18_Node000001_Node000008"><a xlink:title=" ">
<path fill="none" stroke="#63b8ff" d="M167.27,-387.51C111.31,-377.37 24.5,-351.07 24.5,-285.5 24.5,-285.5 24.5,-285.5 24.5,-173.5 24.5,-142.18 25.35,-105.77 25.94,-84.23"/>
<polygon fill="#63b8ff" stroke="#63b8ff" points="29.44,-84.27 26.23,-74.18 22.45,-84.07 29.44,-84.27"/>
</a>
</g>
</g>
<!-- Node12 -->
<g id="Node000012" class="node">
<title>Node12</title>
<g id="a_Node000012"><a xlink:href="_f_string_8h.html" target="_top" xlink:title=" ">
<polygon fill="white" stroke="#666666" points="264,-349 163,-349 163,-330 264,-330 264,-349"/>
<text text-anchor="middle" x="213.5" y="-337" font-family="Helvetica,sans-Serif" font-size="10.00">Cpl/Text/FString.h</text>
</a>
</g>
</g>
<!-- Node1&#45;&gt;Node12 -->
<g id="edge12_Node000001_Node000012" class="edge">
<title>Node1&#45;&gt;Node12</title>
<g id="a_edge12_Node000001_Node000012"><a xlink:title=" ">
<path fill="none" stroke="#63b8ff" d="M213.5,-384.75C213.5,-377.8 213.5,-367.85 213.5,-359.13"/>
<polygon fill="#63b8ff" stroke="#63b8ff" points="217,-359.09 213.5,-349.09 210,-359.09 217,-359.09"/>
</a>
</g>
</g>
<!-- Node3 -->
<g id="Node000003" class="node">
<title>Node3</title>
<g id="a_Node000003"><a xlink:title=" ">
<polygon fill="#e0e0e0" stroke="#999999" points="391,-74 306,-74 306,-55 391,-55 391,-74"/>
<text text-anchor="middle" x="348.5" y="-62" font-family="Helvetica,sans-Serif" font-size="10.00">colony_map.h</text>
</a>
</g>
</g>
<!-- Node2&#45;&gt;Node3 -->
<g id="edge2_Node000002_Node000003" class="edge">
<title>Node2&#45;&gt;Node3</title>
<g id="a_edge2_Node000002_Node000003"><a xlink:title=" ">
<path fill="none" stroke="#63b8ff" d="M335.49,-164.99C344.95,-156.9 357.93,-143.81 363.5,-129 369.1,-114.11 364.04,-96.44 358.33,-83.53"/>
<polygon fill="#63b8ff" stroke="#63b8ff" points="361.36,-81.76 353.81,-74.34 355.08,-84.85 361.36,-81.76"/>
</a>
</g>
</g>
<!-- Node4 -->
<g id="Node000004" class="node">
<title>Node4</title>
<g id="a_Node000004"><a xlink:href="_key_8h.html" target="_top" xlink:title=" ">
<polygon fill="white" stroke="#666666" points="202,-129 91,-129 91,-110 202,-110 202,-129"/>
<text text-anchor="middle" x="146.5" y="-117" font-family="Helvetica,sans-Serif" font-size="10.00">Cpl/Container/Key.h</text>
</a>
</g>
</g>
<!-- Node2&#45;&gt;Node4 -->
<g id="edge3_Node000002_Node000004" class="edge">
<title>Node2&#45;&gt;Node4</title>
<g id="a_edge3_Node000002_Node000004"><a xlink:title=" ">
<path fill="none" stroke="#63b8ff" d="M295.9,-164.98C265.89,-156.05 218.52,-141.94 185.18,-132.02"/>
<polygon fill="#63b8ff" stroke="#63b8ff" points="185.91,-128.58 175.32,-129.08 183.91,-135.29 185.91,-128.58"/>
</a>
</g>
</g>
<!-- Node10 -->
<g id="Node000010" class="node">
<title>Node10</title>
<g id="a_Node000010"><a xlink:title=" ">
<polygon fill="#e0e0e0" stroke="#999999" points="276.5,-129 220.5,-129 220.5,-110 276.5,-110 276.5,-129"/>
<text text-anchor="middle" x="248.5" y="-117" font-family="Helvetica,sans-Serif" font-size="10.00">stdarg.h</text>
</a>
</g>
</g>
<!-- Node2&#45;&gt;Node10 -->
<g id="edge10_Node000002_Node000010" class="edge">
<title>Node2&#45;&gt;Node10</title>
<g id="a_edge10_Node000002_Node000010"><a xlink:title=" ">
<path fill="none" stroke="#63b8ff" d="M312.29,-164.98C300.72,-156.92 283.12,-144.65 269.34,-135.03"/>
<polygon fill="#63b8ff" stroke="#63b8ff" points="271.14,-132.02 260.93,-129.17 267.13,-137.76 271.14,-132.02"/>
</a>
</g>
</g>
<!-- Node11 -->
<g id="Node000011" class="node">
<title>Node11</title>
<g id="a_Node000011"><a xlink:title=" ">
<polygon fill="#e0e0e0" stroke="#999999" points="354.5,-129 294.5,-129 294.5,-110 354.5,-110 354.5,-129"/>
<text text-anchor="middle" x="324.5" y="-117" font-family="Helvetica,sans-Serif" font-size="10.00">iostream</text>
</a>
</g>
</g>
<!-- Node2&#45;&gt;Node11 -->
<g id="edge11_Node000002_Node000011" class="edge">
<title>Node2&#45;&gt;Node11</title>
<g id="a_edge11_Node000002_Node000011"><a xlink:title=" ">
<path fill="none" stroke="#63b8ff" d="M324.5,-164.75C324.5,-157.8 324.5,-147.85 324.5,-139.13"/>
<polygon fill="#63b8ff" stroke="#63b8ff" points="328,-139.09 324.5,-129.09 321,-139.09 328,-139.09"/>
</a>
</g>
</g>
<!-- Node4&#45;&gt;Node3 -->
<g id="edge9_Node000004_Node000003" class="edge">
<title>Node4&#45;&gt;Node3</title>
<g id="a_edge9_Node000004_Node000003"><a xlink:title=" ">
<path fill="none" stroke="#63b8ff" d="M178.95,-109.98C213.46,-100.93 268.16,-86.58 306.06,-76.64"/>
<polygon fill="#63b8ff" stroke="#63b8ff" points="307.01,-80.01 315.79,-74.08 305.23,-73.23 307.01,-80.01"/>
</a>
</g>
</g>
<!-- Node5 -->
<g id="Node000005" class="node">
<title>Node5</title>
<g id="a_Node000005"><a xlink:href="_fatal_error_8h.html" target="_top" xlink:title=" ">
<polygon fill="white" stroke="#666666" points="285.5,-74 155.5,-74 155.5,-55 285.5,-55 285.5,-74"/>
<text text-anchor="middle" x="220.5" y="-62" font-family="Helvetica,sans-Serif" font-size="10.00">Cpl/System/FatalError.h</text>
</a>
</g>
</g>
<!-- Node4&#45;&gt;Node5 -->
<g id="edge4_Node000004_Node000005" class="edge">
<title>Node4&#45;&gt;Node5</title>
<g id="a_edge4_Node000004_Node000005"><a xlink:title=" ">
<path fill="none" stroke="#63b8ff" d="M158.39,-109.98C169.65,-101.92 186.79,-89.65 200.21,-80.03"/>
<polygon fill="#63b8ff" stroke="#63b8ff" points="202.3,-82.84 208.39,-74.17 198.23,-77.15 202.3,-82.84"/>
</a>
</g>
</g>
<!-- Node4&#45;&gt;Node8 -->
<g id="edge7_Node000004_Node000008" class="edge">
<title>Node4&#45;&gt;Node8</title>
<g id="a_edge7_Node000004_Node000008"><a xlink:title=" ">
<path fill="none" stroke="#63b8ff" d="M127.22,-109.98C107.83,-101.42 77.69,-88.11 55.43,-78.28"/>
<polygon fill="#63b8ff" stroke="#63b8ff" points="56.69,-75.01 46.13,-74.17 53.86,-81.41 56.69,-75.01"/>
</a>
</g>
</g>
<!-- Node9 -->
<g id="Node000009" class="node">
<title>Node9</title>
<g id="a_Node000009"><a xlink:title=" ">
<polygon fill="#e0e0e0" stroke="#999999" points="133,-74 80,-74 80,-55 133,-55 133,-74"/>
<text text-anchor="middle" x="106.5" y="-62" font-family="Helvetica,sans-Serif" font-size="10.00">string.h</text>
</a>
</g>
</g>
<!-- Node4&#45;&gt;Node9 -->
<g id="edge8_Node000004_Node000009" class="edge">
<title>Node4&#45;&gt;Node9</title>
<g id="a_edge8_Node000004_Node000009"><a xlink:title=" ">
<path fill="none" stroke="#63b8ff" d="M139.89,-109.75C134.24,-102.26 125.96,-91.28 119.05,-82.13"/>
<polygon fill="#63b8ff" stroke="#63b8ff" points="121.8,-79.96 112.98,-74.09 116.21,-84.18 121.8,-79.96"/>
</a>
</g>
</g>
<!-- Node6 -->
<g id="Node000006" class="node">
<title>Node6</title>
<g id="a_Node000006"><a xlink:title=" ">
<polygon fill="#e0e0e0" stroke="#999999" points="248.5,-19 192.5,-19 192.5,0 248.5,0 248.5,-19"/>
<text text-anchor="middle" x="220.5" y="-7" font-family="Helvetica,sans-Serif" font-size="10.00">stddef.h</text>
</a>
</g>
</g>
<!-- Node5&#45;&gt;Node6 -->
<g id="edge5_Node000005_Node000006" class="edge">
<title>Node5&#45;&gt;Node6</title>
<g id="a_edge5_Node000005_Node000006"><a xlink:title=" ">
<path fill="none" stroke="#63b8ff" d="M220.5,-54.75C220.5,-47.8 220.5,-37.85 220.5,-29.13"/>
<polygon fill="#63b8ff" stroke="#63b8ff" points="224,-29.09 220.5,-19.09 217,-29.09 224,-29.09"/>
</a>
</g>
</g>
<!-- Node7 -->
<g id="Node000007" class="node">
<title>Node7</title>
<g id="a_Node000007"><a xlink:title=" ">
<polygon fill="#e0e0e0" stroke="#999999" points="412.5,-19 320.5,-19 320.5,0 412.5,0 412.5,-19"/>
<text text-anchor="middle" x="366.5" y="-7" font-family="Helvetica,sans-Serif" font-size="10.00">colony_config.h</text>
</a>
</g>
</g>
<!-- Node5&#45;&gt;Node7 -->
<g id="edge6_Node000005_Node000007" class="edge">
<title>Node5&#45;&gt;Node7</title>
<g id="a_edge6_Node000005_Node000007"><a xlink:title=" ">
<path fill="none" stroke="#63b8ff" d="M243.96,-54.98C268.08,-46.23 305.87,-32.51 333.1,-22.62"/>
<polygon fill="#63b8ff" stroke="#63b8ff" points="334.41,-25.87 342.62,-19.17 332.02,-19.29 334.41,-25.87"/>
</a>
</g>
</g>
<!-- Node12&#45;&gt;Node9 -->
<g id="edge17_Node000012_Node000009" class="edge">
<title>Node12&#45;&gt;Node9</title>
<g id="a_edge17_Node000012_Node000009"><a xlink:title=" ">
<path fill="none" stroke="#63b8ff" d="M178.1,-329.96C133.47,-316.83 62.5,-287.06 62.5,-230.5 62.5,-230.5 62.5,-230.5 62.5,-173.5 62.5,-139.42 81.53,-103.46 94.56,-82.83"/>
<polygon fill="#63b8ff" stroke="#63b8ff" points="97.63,-84.53 100.2,-74.25 91.78,-80.68 97.63,-84.53"/>
</a>
</g>
</g>
<!-- Node13 -->
<g id="Node000013" class="node">
<title>Node13</title>
<g id="a_Node000013"><a xlink:href="_f_string___8h.html" target="_top" xlink:title=" ">
<polygon fill="white" stroke="#666666" points="378,-294 271,-294 271,-275 378,-275 378,-294"/>
<text text-anchor="middle" x="324.5" y="-282" font-family="Helvetica,sans-Serif" font-size="10.00">Cpl/Text/FString_.h</text>
</a>
</g>
</g>
<!-- Node12&#45;&gt;Node13 -->
<g id="edge13_Node000012_Node000013" class="edge">
<title>Node12&#45;&gt;Node13</title>
<g id="a_edge13_Node000012_Node000013"><a xlink:title=" ">
<path fill="none" stroke="#63b8ff" d="M231.33,-329.98C249.11,-321.5 276.65,-308.35 297.18,-298.54"/>
<polygon fill="#63b8ff" stroke="#63b8ff" points="298.83,-301.64 306.34,-294.17 295.81,-295.32 298.83,-301.64"/>
</a>
</g>
</g>
<!-- Node13&#45;&gt;Node7 -->
<g id="edge14_Node000013_Node000007" class="edge">
<title>Node13&#45;&gt;Node7</title>
<g id="a_edge14_Node000013_Node000007"><a xlink:title=" ">
<path fill="none" stroke="#63b8ff" d="M340.79,-274.92C368.17,-259.18 420.5,-222.91 420.5,-175.5 420.5,-175.5 420.5,-175.5 420.5,-118.5 420.5,-88.91 414.13,-81.26 400.5,-55 395.3,-44.99 387.83,-34.91 381.22,-26.88"/>
<polygon fill="#63b8ff" stroke="#63b8ff" points="383.69,-24.39 374.52,-19.08 378.38,-28.95 383.69,-24.39"/>
</a>
</g>
</g>
<!-- Node14 -->
<g id="Node000014" class="node">
<title>Node14</title>
<g id="a_Node000014"><a xlink:href="_string___8h.html" target="_top" xlink:title=" ">
<polygon fill="white" stroke="#666666" points="375,-239 274,-239 274,-220 375,-220 375,-239"/>
<text text-anchor="middle" x="324.5" y="-227" font-family="Helvetica,sans-Serif" font-size="10.00">Cpl/Text/String_.h</text>
</a>
</g>
</g>
<!-- Node13&#45;&gt;Node14 -->
<g id="edge15_Node000013_Node000014" class="edge">
<title>Node13&#45;&gt;Node14</title>
<g id="a_edge15_Node000013_Node000014"><a xlink:title=" ">
<path fill="none" stroke="#63b8ff" d="M324.5,-274.75C324.5,-267.8 324.5,-257.85 324.5,-249.13"/>
<polygon fill="#63b8ff" stroke="#63b8ff" points="328,-249.09 324.5,-239.09 321,-249.09 328,-249.09"/>
</a>
</g>
</g>
<!-- Node14&#45;&gt;Node2 -->
<g id="edge16_Node000014_Node000002" class="edge">
<title>Node14&#45;&gt;Node2</title>
<g id="a_edge16_Node000014_Node000002"><a xlink:title=" ">
<path fill="none" stroke="#63b8ff" d="M324.5,-219.75C324.5,-212.8 324.5,-202.85 324.5,-194.13"/>
<polygon fill="#63b8ff" stroke="#63b8ff" points="328,-194.09 324.5,-184.09 321,-194.09 328,-194.09"/>
</a>
</g>
</g>
</g>
</svg>
