<?xml version="1.0" encoding="UTF-8" standalone="no"?>
<!DOCTYPE svg PUBLIC "-//W3C//DTD SVG 1.1//EN"
 "http://www.w3.org/Graphics/SVG/1.1/DTD/svg11.dtd">
<!-- Generated by graphviz version 2.43.0 (0)
 -->
<!-- Title: Driver/Button/Hal.h Pages: 1 -->
<svg width="454pt" height="159pt"
 viewBox="0.00 0.00 453.50 159.00" xmlns="http://www.w3.org/2000/svg" xmlns:xlink="http://www.w3.org/1999/xlink">
<g id="graph0" class="graph" transform="scale(1 1) rotate(0) translate(4 155)">
<title>Driver/Button/Hal.h</title>
<!-- Node1 -->
<g id="Node000001" class="node">
<title>Node1</title>
<g id="a_Node000001"><a xlink:title="This file defines a hardware abstraction layer (HAL) for accessing a digital Input that is being used...">
<polygon fill="#999999" stroke="#666666" points="311.5,-151 201.5,-151 201.5,-132 311.5,-132 311.5,-151"/>
<text text-anchor="middle" x="256.5" y="-139" font-family="Helvetica,sans-Serif" font-size="10.00">Driver/Button/Hal.h</text>
</a>
</g>
</g>
<!-- Node2 -->
<g id="Node000002" class="node">
<title>Node2</title>
<g id="a_Node000002"><a xlink:href="_polled_debounced_8h.html" target="_top" xlink:title=" ">
<polygon fill="white" stroke="#666666" points="179,-90.5 0,-90.5 0,-71.5 179,-71.5 179,-90.5"/>
<text text-anchor="middle" x="89.5" y="-78.5" font-family="Helvetica,sans-Serif" font-size="10.00">Driver/Button/PolledDebounced.h</text>
</a>
</g>
</g>
<!-- Node1&#45;&gt;Node2 -->
<g id="edge1_Node000001_Node000002" class="edge">
<title>Node1&#45;&gt;Node2</title>
<g id="a_edge1_Node000001_Node000002"><a xlink:title=" ">
<path fill="none" stroke="#63b8ff" d="M222.73,-128.67C190.44,-117.36 142.52,-100.57 113.81,-90.52"/>
<polygon fill="#63b8ff" stroke="#63b8ff" points="221.62,-131.99 232.22,-131.99 223.94,-125.38 221.62,-131.99"/>
</a>
</g>
</g>
<!-- Node4 -->
<g id="Node000004" class="node">
<title>Node4</title>
<g id="a_Node000004"><a xlink:href="_s_t_m32_2_hal_8h.html" target="_top" xlink:title="This file defines the concrete implementation for the Button HAL running on STM32 MCUs.">
<polygon fill="white" stroke="#666666" points="315.5,-96 197.5,-96 197.5,-66 315.5,-66 315.5,-96"/>
<text text-anchor="start" x="205.5" y="-84" font-family="Helvetica,sans-Serif" font-size="10.00">Driver/Button/STM32</text>
<text text-anchor="middle" x="256.5" y="-73" font-family="Helvetica,sans-Serif" font-size="10.00">/Hal.h</text>
</a>
</g>
</g>
<!-- Node1&#45;&gt;Node4 -->
<g id="edge3_Node000001_Node000004" class="edge">
<title>Node1&#45;&gt;Node4</title>
<g id="a_edge3_Node000001_Node000004"><a xlink:title=" ">
<path fill="none" stroke="#63b8ff" d="M256.5,-121.65C256.5,-113.36 256.5,-103.78 256.5,-96.11"/>
<polygon fill="#63b8ff" stroke="#63b8ff" points="253,-121.87 256.5,-131.87 260,-121.87 253,-121.87"/>
</a>
</g>
</g>
<!-- Node5 -->
<g id="Node000005" class="node">
<title>Node5</title>
<g id="a_Node000005"><a xlink:href="_t_pipe_2_hal_8h.html" target="_top" xlink:title="This file defines the concrete implementation for the Button HAL that gets its raw inputs via a Drive...">
<polygon fill="white" stroke="#666666" points="445.5,-96 333.5,-96 333.5,-66 445.5,-66 445.5,-96"/>
<text text-anchor="start" x="341.5" y="-84" font-family="Helvetica,sans-Serif" font-size="10.00">Driver/Button/TPipe</text>
<text text-anchor="middle" x="389.5" y="-73" font-family="Helvetica,sans-Serif" font-size="10.00">/Hal.h</text>
</a>
</g>
</g>
<!-- Node1&#45;&gt;Node5 -->
<g id="edge4_Node000001_Node000005" class="edge">
<title>Node1&#45;&gt;Node5</title>
<g id="a_edge4_Node000001_Node000005"><a xlink:title=" ">
<path fill="none" stroke="#63b8ff" d="M285.02,-127.95C306.32,-118.59 335.44,-105.78 357.52,-96.06"/>
<polygon fill="#63b8ff" stroke="#63b8ff" points="283.58,-124.76 275.84,-131.99 286.4,-131.17 283.58,-124.76"/>
</a>
</g>
</g>
<!-- Node3 -->
<g id="Node000003" class="node">
<title>Node3</title>
<g id="a_Node000003"><a xlink:href="_driver_2_pico_display_2_api_8h.html" target="_top" xlink:title=" ">
<polygon fill="white" stroke="#666666" points="143,-30 36,-30 36,0 143,0 143,-30"/>
<text text-anchor="start" x="44" y="-18" font-family="Helvetica,sans-Serif" font-size="10.00">Driver/PicoDisplay</text>
<text text-anchor="middle" x="89.5" y="-7" font-family="Helvetica,sans-Serif" font-size="10.00">/Api.h</text>
</a>
</g>
</g>
<!-- Node2&#45;&gt;Node3 -->
<g id="edge2_Node000002_Node000003" class="edge">
<title>Node2&#45;&gt;Node3</title>
<g id="a_edge2_Node000002_Node000003"><a xlink:title=" ">
<path fill="none" stroke="#63b8ff" d="M89.5,-61.35C89.5,-51.47 89.5,-39.51 89.5,-30.36"/>
<polygon fill="#63b8ff" stroke="#63b8ff" points="86,-61.37 89.5,-71.37 93,-61.37 86,-61.37"/>
</a>
</g>
</g>
</g>
</svg>
