<?xml version="1.0" encoding="UTF-8" standalone="no"?>
<!DOCTYPE svg PUBLIC "-//W3C//DTD SVG 1.1//EN"
 "http://www.w3.org/Graphics/SVG/1.1/DTD/svg11.dtd">
<!-- Generated by graphviz version 2.43.0 (0)
 -->
<!-- Title: Driver/DIO/_tshell/InOutCmd.h Pages: 1 -->
<svg width="664pt" height="478pt"
 viewBox="0.00 0.00 663.50 478.00" xmlns="http://www.w3.org/2000/svg" xmlns:xlink="http://www.w3.org/1999/xlink">
<g id="graph0" class="graph" transform="scale(1 1) rotate(0) translate(4 474)">
<title>Driver/DIO/_tshell/InOutCmd.h</title>
<!-- Node1 -->
<g id="Node000001" class="node">
<title>Node1</title>
<g id="a_Node000001"><a xlink:title=" ">
<polygon fill="#999999" stroke="#666666" points="280.5,-470 177.5,-470 177.5,-440 280.5,-440 280.5,-470"/>
<text text-anchor="start" x="185.5" y="-458" font-family="Helvetica,sans-Serif" font-size="10.00">Driver/DIO/_tshell</text>
<text text-anchor="middle" x="229" y="-447" font-family="Helvetica,sans-Serif" font-size="10.00">/InOutCmd.h</text>
</a>
</g>
</g>
<!-- Node2 -->
<g id="Node000002" class="node">
<title>Node2</title>
<g id="a_Node000002"><a xlink:title=" ">
<polygon fill="#e0e0e0" stroke="#999999" points="92,-19 0,-19 0,0 92,0 92,-19"/>
<text text-anchor="middle" x="46" y="-7" font-family="Helvetica,sans-Serif" font-size="10.00">colony_config.h</text>
</a>
</g>
</g>
<!-- Node1&#45;&gt;Node2 -->
<g id="edge1_Node000001_Node000002" class="edge">
<title>Node1&#45;&gt;Node2</title>
<g id="a_edge1_Node000001_Node000002"><a xlink:title=" ">
<path fill="none" stroke="#63b8ff" d="M177.46,-449.88C112.16,-441.52 8,-416.3 8,-340.5 8,-340.5 8,-340.5 8,-118.5 8,-85.02 24.45,-48.84 35.7,-28.01"/>
<polygon fill="#63b8ff" stroke="#63b8ff" points="38.87,-29.53 40.72,-19.1 32.76,-26.1 38.87,-29.53"/>
</a>
</g>
</g>
<!-- Node3 -->
<g id="Node000003" class="node">
<title>Node3</title>
<g id="a_Node000003"><a xlink:href="_cmd_2_command_8h.html" target="_top" xlink:title=" ">
<polygon fill="white" stroke="#666666" points="305.5,-404 152.5,-404 152.5,-385 305.5,-385 305.5,-404"/>
<text text-anchor="middle" x="229" y="-392" font-family="Helvetica,sans-Serif" font-size="10.00">Cpl/TShell/Cmd/Command.h</text>
</a>
</g>
</g>
<!-- Node1&#45;&gt;Node3 -->
<g id="edge2_Node000001_Node000003" class="edge">
<title>Node1&#45;&gt;Node3</title>
<g id="a_edge2_Node000001_Node000003"><a xlink:title=" ">
<path fill="none" stroke="#63b8ff" d="M229,-439.84C229,-432.21 229,-422.7 229,-414.45"/>
<polygon fill="#63b8ff" stroke="#63b8ff" points="232.5,-414.27 229,-404.27 225.5,-414.27 232.5,-414.27"/>
</a>
</g>
</g>
<!-- Node23 -->
<g id="Node000023" class="node">
<title>Node23</title>
<g id="a_Node000023"><a xlink:href="_in_out_8h.html" target="_top" xlink:title=" ">
<polygon fill="white" stroke="#666666" points="627,-404 521,-404 521,-385 627,-385 627,-404"/>
<text text-anchor="middle" x="574" y="-392" font-family="Helvetica,sans-Serif" font-size="10.00">Driver/DIO/InOut.h</text>
</a>
</g>
</g>
<!-- Node1&#45;&gt;Node23 -->
<g id="edge34_Node000001_Node000023" class="edge">
<title>Node1&#45;&gt;Node23</title>
<g id="a_edge34_Node000001_Node000023"><a xlink:title=" ">
<path fill="none" stroke="#63b8ff" d="M280.65,-445.24C342.92,-434.68 447.42,-416.96 513.43,-405.77"/>
<polygon fill="#63b8ff" stroke="#63b8ff" points="514.41,-409.15 523.68,-404.03 513.24,-402.25 514.41,-409.15"/>
</a>
</g>
</g>
<!-- Node3&#45;&gt;Node2 -->
<g id="edge3_Node000003_Node000002" class="edge">
<title>Node3&#45;&gt;Node2</title>
<g id="a_edge3_Node000003_Node000002"><a xlink:title=" ">
<path fill="none" stroke="#63b8ff" d="M174.09,-384.9C120.19,-372.97 46,-345.63 46,-285.5 46,-285.5 46,-285.5 46,-118.5 46,-87.19 46,-50.77 46,-29.23"/>
<polygon fill="#63b8ff" stroke="#63b8ff" points="49.5,-29.18 46,-19.18 42.5,-29.18 49.5,-29.18"/>
</a>
</g>
</g>
<!-- Node4 -->
<g id="Node000004" class="node">
<title>Node4</title>
<g id="a_Node000004"><a xlink:href="_command_8h.html" target="_top" xlink:title=" ">
<polygon fill="white" stroke="#666666" points="338,-294 210,-294 210,-275 338,-275 338,-294"/>
<text text-anchor="middle" x="274" y="-282" font-family="Helvetica,sans-Serif" font-size="10.00">Cpl/TShell/Command.h</text>
</a>
</g>
</g>
<!-- Node3&#45;&gt;Node4 -->
<g id="edge4_Node000003_Node000004" class="edge">
<title>Node3&#45;&gt;Node4</title>
<g id="a_edge4_Node000003_Node000004"><a xlink:title=" ">
<path fill="none" stroke="#63b8ff" d="M231.16,-384.67C234.35,-372.21 240.83,-348.88 249,-330 253,-320.75 258.39,-310.93 263.13,-302.88"/>
<polygon fill="#63b8ff" stroke="#63b8ff" points="266.27,-304.46 268.47,-294.09 260.29,-300.82 266.27,-304.46"/>
</a>
</g>
</g>
<!-- Node19 -->
<g id="Node000019" class="node">
<title>Node19</title>
<g id="a_Node000019"><a xlink:href="_context___8h.html" target="_top" xlink:title=" ">
<polygon fill="white" stroke="#666666" points="378.5,-349 257.5,-349 257.5,-330 378.5,-330 378.5,-349"/>
<text text-anchor="middle" x="318" y="-337" font-family="Helvetica,sans-Serif" font-size="10.00">Cpl/TShell/Context_.h</text>
</a>
</g>
</g>
<!-- Node3&#45;&gt;Node19 -->
<g id="edge23_Node000003_Node000019" class="edge">
<title>Node3&#45;&gt;Node19</title>
<g id="a_edge23_Node000003_Node000019"><a xlink:title=" ">
<path fill="none" stroke="#63b8ff" d="M243.3,-384.98C257.1,-376.77 278.24,-364.18 294.51,-354.49"/>
<polygon fill="#63b8ff" stroke="#63b8ff" points="296.64,-357.29 303.44,-349.17 293.06,-351.28 296.64,-357.29"/>
</a>
</g>
</g>
<!-- Node5 -->
<g id="Node000005" class="node">
<title>Node5</title>
<g id="a_Node000005"><a xlink:href="_item_8h.html" target="_top" xlink:title=" ">
<polygon fill="white" stroke="#666666" points="225.5,-129 108.5,-129 108.5,-110 225.5,-110 225.5,-129"/>
<text text-anchor="middle" x="167" y="-117" font-family="Helvetica,sans-Serif" font-size="10.00">Cpl/Container/Item.h</text>
</a>
</g>
</g>
<!-- Node4&#45;&gt;Node5 -->
<g id="edge5_Node000004_Node000005" class="edge">
<title>Node4&#45;&gt;Node5</title>
<g id="a_edge5_Node000004_Node000005"><a xlink:title=" ">
<path fill="none" stroke="#63b8ff" d="M243.92,-274.92C225.56,-268.13 203.17,-256.77 190,-239 168.04,-209.36 165.4,-164.45 165.9,-139.28"/>
<polygon fill="#63b8ff" stroke="#63b8ff" points="169.4,-139.37 166.29,-129.24 162.41,-139.1 169.4,-139.37"/>
</a>
</g>
</g>
<!-- Node6 -->
<g id="Node000006" class="node">
<title>Node6</title>
<g id="a_Node000006"><a xlink:href="_output_8h.html" target="_top" xlink:title=" ">
<polygon fill="white" stroke="#666666" points="422.5,-239 333.5,-239 333.5,-220 422.5,-220 422.5,-239"/>
<text text-anchor="middle" x="378" y="-227" font-family="Helvetica,sans-Serif" font-size="10.00">Cpl/Io/Output.h</text>
</a>
</g>
</g>
<!-- Node4&#45;&gt;Node6 -->
<g id="edge6_Node000004_Node000006" class="edge">
<title>Node4&#45;&gt;Node6</title>
<g id="a_edge6_Node000004_Node000006"><a xlink:title=" ">
<path fill="none" stroke="#63b8ff" d="M290.71,-274.98C307.21,-266.57 332.7,-253.59 351.88,-243.81"/>
<polygon fill="#63b8ff" stroke="#63b8ff" points="353.67,-246.83 360.99,-239.17 350.49,-240.59 353.67,-246.83"/>
</a>
</g>
</g>
<!-- Node18 -->
<g id="Node000018" class="node">
<title>Node18</title>
<g id="a_Node000018"><a xlink:href="_security_8h.html" target="_top" xlink:title=" ">
<polygon fill="white" stroke="#666666" points="315,-239 199,-239 199,-220 315,-220 315,-239"/>
<text text-anchor="middle" x="257" y="-227" font-family="Helvetica,sans-Serif" font-size="10.00">Cpl/TShell/Security.h</text>
</a>
</g>
</g>
<!-- Node4&#45;&gt;Node18 -->
<g id="edge22_Node000004_Node000018" class="edge">
<title>Node4&#45;&gt;Node18</title>
<g id="a_edge22_Node000004_Node000018"><a xlink:title=" ">
<path fill="none" stroke="#63b8ff" d="M271.19,-274.75C268.94,-267.72 265.7,-257.62 262.88,-248.84"/>
<polygon fill="#63b8ff" stroke="#63b8ff" points="266.14,-247.54 259.75,-239.09 259.48,-249.68 266.14,-247.54"/>
</a>
</g>
</g>
<!-- Node7 -->
<g id="Node000007" class="node">
<title>Node7</title>
<g id="a_Node000007"><a xlink:href="_text_2_string_8h.html" target="_top" xlink:title=" ">
<polygon fill="white" stroke="#666666" points="535,-184 439,-184 439,-165 535,-165 535,-184"/>
<text text-anchor="middle" x="487" y="-172" font-family="Helvetica,sans-Serif" font-size="10.00">Cpl/Text/String.h</text>
</a>
</g>
</g>
<!-- Node6&#45;&gt;Node7 -->
<g id="edge7_Node000006_Node000007" class="edge">
<title>Node6&#45;&gt;Node7</title>
<g id="a_edge7_Node000006_Node000007"><a xlink:title=" ">
<path fill="none" stroke="#63b8ff" d="M395.51,-219.98C412.97,-211.5 440.01,-198.35 460.17,-188.54"/>
<polygon fill="#63b8ff" stroke="#63b8ff" points="461.71,-191.69 469.17,-184.17 458.64,-185.4 461.71,-191.69"/>
</a>
</g>
</g>
<!-- Node14 -->
<g id="Node000014" class="node">
<title>Node14</title>
<g id="a_Node000014"><a xlink:title=" ">
<polygon fill="#e0e0e0" stroke="#999999" points="300,-129 244,-129 244,-110 300,-110 300,-129"/>
<text text-anchor="middle" x="272" y="-117" font-family="Helvetica,sans-Serif" font-size="10.00">stdarg.h</text>
</a>
</g>
</g>
<!-- Node6&#45;&gt;Node14 -->
<g id="edge21_Node000006_Node000014" class="edge">
<title>Node6&#45;&gt;Node14</title>
<g id="a_edge21_Node000006_Node000014"><a xlink:title=" ">
<path fill="none" stroke="#63b8ff" d="M333.4,-221.28C293.94,-213.87 240.71,-201.03 228,-184 215.77,-167.62 233.7,-148.23 250.22,-135.23"/>
<polygon fill="#63b8ff" stroke="#63b8ff" points="252.6,-137.82 258.56,-129.06 248.43,-132.19 252.6,-137.82"/>
</a>
</g>
</g>
<!-- Node16 -->
<g id="Node000016" class="node">
<title>Node16</title>
<g id="a_Node000016"><a xlink:href="_close_8h.html" target="_top" xlink:title=" ">
<polygon fill="white" stroke="#666666" points="420.5,-184 337.5,-184 337.5,-165 420.5,-165 420.5,-184"/>
<text text-anchor="middle" x="379" y="-172" font-family="Helvetica,sans-Serif" font-size="10.00">Cpl/Io/Close.h</text>
</a>
</g>
</g>
<!-- Node6&#45;&gt;Node16 -->
<g id="edge18_Node000006_Node000016" class="edge">
<title>Node6&#45;&gt;Node16</title>
<g id="a_edge18_Node000006_Node000016"><a xlink:title=" ">
<path fill="none" stroke="#63b8ff" d="M378.17,-219.75C378.3,-212.8 378.48,-202.85 378.65,-194.13"/>
<polygon fill="#63b8ff" stroke="#63b8ff" points="382.15,-194.15 378.84,-184.09 375.15,-194.02 382.15,-194.15"/>
</a>
</g>
</g>
<!-- Node17 -->
<g id="Node000017" class="node">
<title>Node17</title>
<g id="a_Node000017"><a xlink:href="_is_eos_8h.html" target="_top" xlink:title=" ">
<polygon fill="white" stroke="#666666" points="319,-184 237,-184 237,-165 319,-165 319,-184"/>
<text text-anchor="middle" x="278" y="-172" font-family="Helvetica,sans-Serif" font-size="10.00">Cpl/Io/IsEos.h</text>
</a>
</g>
</g>
<!-- Node6&#45;&gt;Node17 -->
<g id="edge20_Node000006_Node000017" class="edge">
<title>Node6&#45;&gt;Node17</title>
<g id="a_edge20_Node000006_Node000017"><a xlink:title=" ">
<path fill="none" stroke="#63b8ff" d="M361.93,-219.98C346.14,-211.61 321.78,-198.7 303.37,-188.95"/>
<polygon fill="#63b8ff" stroke="#63b8ff" points="304.83,-185.76 294.36,-184.17 301.56,-191.95 304.83,-185.76"/>
</a>
</g>
</g>
<!-- Node8 -->
<g id="Node000008" class="node">
<title>Node8</title>
<g id="a_Node000008"><a xlink:title=" ">
<polygon fill="#e0e0e0" stroke="#999999" points="309.5,-74 224.5,-74 224.5,-55 309.5,-55 309.5,-74"/>
<text text-anchor="middle" x="267" y="-62" font-family="Helvetica,sans-Serif" font-size="10.00">colony_map.h</text>
</a>
</g>
</g>
<!-- Node7&#45;&gt;Node8 -->
<g id="edge8_Node000007_Node000008" class="edge">
<title>Node7&#45;&gt;Node8</title>
<g id="a_edge8_Node000007_Node000008"><a xlink:title=" ">
<path fill="none" stroke="#63b8ff" d="M475.17,-164.82C456.93,-151.71 420.53,-126.63 387,-110 360.53,-96.87 329.17,-85.37 305.15,-77.35"/>
<polygon fill="#63b8ff" stroke="#63b8ff" points="305.93,-73.93 295.34,-74.14 303.75,-80.58 305.93,-73.93"/>
</a>
</g>
</g>
<!-- Node9 -->
<g id="Node000009" class="node">
<title>Node9</title>
<g id="a_Node000009"><a xlink:href="_key_8h.html" target="_top" xlink:title=" ">
<polygon fill="white" stroke="#666666" points="545.5,-129 434.5,-129 434.5,-110 545.5,-110 545.5,-129"/>
<text text-anchor="middle" x="490" y="-117" font-family="Helvetica,sans-Serif" font-size="10.00">Cpl/Container/Key.h</text>
</a>
</g>
</g>
<!-- Node7&#45;&gt;Node9 -->
<g id="edge9_Node000007_Node000009" class="edge">
<title>Node7&#45;&gt;Node9</title>
<g id="a_edge9_Node000007_Node000009"><a xlink:title=" ">
<path fill="none" stroke="#63b8ff" d="M487.5,-164.75C487.89,-157.8 488.45,-147.85 488.95,-139.13"/>
<polygon fill="#63b8ff" stroke="#63b8ff" points="492.44,-139.27 489.51,-129.09 485.45,-138.88 492.44,-139.27"/>
</a>
</g>
</g>
<!-- Node7&#45;&gt;Node14 -->
<g id="edge16_Node000007_Node000014" class="edge">
<title>Node7&#45;&gt;Node14</title>
<g id="a_edge16_Node000007_Node000014"><a xlink:title=" ">
<path fill="none" stroke="#63b8ff" d="M452.46,-164.98C413.5,-155.38 350.34,-139.81 310.01,-129.87"/>
<polygon fill="#63b8ff" stroke="#63b8ff" points="310.83,-126.47 300.28,-127.47 309.15,-133.26 310.83,-126.47"/>
</a>
</g>
</g>
<!-- Node15 -->
<g id="Node000015" class="node">
<title>Node15</title>
<g id="a_Node000015"><a xlink:title=" ">
<polygon fill="#e0e0e0" stroke="#999999" points="378,-129 318,-129 318,-110 378,-110 378,-129"/>
<text text-anchor="middle" x="348" y="-117" font-family="Helvetica,sans-Serif" font-size="10.00">iostream</text>
</a>
</g>
</g>
<!-- Node7&#45;&gt;Node15 -->
<g id="edge17_Node000007_Node000015" class="edge">
<title>Node7&#45;&gt;Node15</title>
<g id="a_edge17_Node000007_Node000015"><a xlink:title=" ">
<path fill="none" stroke="#63b8ff" d="M464.67,-164.98C441.8,-156.27 406.04,-142.63 380.14,-132.75"/>
<polygon fill="#63b8ff" stroke="#63b8ff" points="381.33,-129.46 370.74,-129.17 378.84,-136 381.33,-129.46"/>
</a>
</g>
</g>
<!-- Node9&#45;&gt;Node8 -->
<g id="edge15_Node000009_Node000008" class="edge">
<title>Node9&#45;&gt;Node8</title>
<g id="a_edge15_Node000009_Node000008"><a xlink:title=" ">
<path fill="none" stroke="#63b8ff" d="M454.17,-109.98C415.84,-100.87 354.92,-86.4 313.05,-76.45"/>
<polygon fill="#63b8ff" stroke="#63b8ff" points="313.65,-72.99 303.11,-74.08 312.03,-79.8 313.65,-72.99"/>
</a>
</g>
</g>
<!-- Node10 -->
<g id="Node000010" class="node">
<title>Node10</title>
<g id="a_Node000010"><a xlink:href="_fatal_error_8h.html" target="_top" xlink:title=" ">
<polygon fill="white" stroke="#666666" points="458,-74 328,-74 328,-55 458,-55 458,-74"/>
<text text-anchor="middle" x="393" y="-62" font-family="Helvetica,sans-Serif" font-size="10.00">Cpl/System/FatalError.h</text>
</a>
</g>
</g>
<!-- Node9&#45;&gt;Node10 -->
<g id="edge10_Node000009_Node000010" class="edge">
<title>Node9&#45;&gt;Node10</title>
<g id="a_edge10_Node000009_Node000010"><a xlink:title=" ">
<path fill="none" stroke="#63b8ff" d="M474.42,-109.98C459.23,-101.69 435.9,-88.94 418.1,-79.22"/>
<polygon fill="#63b8ff" stroke="#63b8ff" points="419.32,-75.89 408.87,-74.17 415.97,-82.04 419.32,-75.89"/>
</a>
</g>
</g>
<!-- Node12 -->
<g id="Node000012" class="node">
<title>Node12</title>
<g id="a_Node000012"><a xlink:title=" ">
<polygon fill="#e0e0e0" stroke="#999999" points="600.5,-74 547.5,-74 547.5,-55 600.5,-55 600.5,-74"/>
<text text-anchor="middle" x="574" y="-62" font-family="Helvetica,sans-Serif" font-size="10.00">stdint.h</text>
</a>
</g>
</g>
<!-- Node9&#45;&gt;Node12 -->
<g id="edge13_Node000009_Node000012" class="edge">
<title>Node9&#45;&gt;Node12</title>
<g id="a_edge13_Node000009_Node000012"><a xlink:title=" ">
<path fill="none" stroke="#63b8ff" d="M503.5,-109.98C516.4,-101.84 536.1,-89.41 551.4,-79.76"/>
<polygon fill="#63b8ff" stroke="#63b8ff" points="553.67,-82.47 560.26,-74.17 549.93,-76.55 553.67,-82.47"/>
</a>
</g>
</g>
<!-- Node13 -->
<g id="Node000013" class="node">
<title>Node13</title>
<g id="a_Node000013"><a xlink:title=" ">
<polygon fill="#e0e0e0" stroke="#999999" points="529.5,-74 476.5,-74 476.5,-55 529.5,-55 529.5,-74"/>
<text text-anchor="middle" x="503" y="-62" font-family="Helvetica,sans-Serif" font-size="10.00">string.h</text>
</a>
</g>
</g>
<!-- Node9&#45;&gt;Node13 -->
<g id="edge14_Node000009_Node000013" class="edge">
<title>Node9&#45;&gt;Node13</title>
<g id="a_edge14_Node000009_Node000013"><a xlink:title=" ">
<path fill="none" stroke="#63b8ff" d="M492.15,-109.75C493.87,-102.72 496.35,-92.62 498.5,-83.84"/>
<polygon fill="#63b8ff" stroke="#63b8ff" points="501.91,-84.63 500.89,-74.09 495.11,-82.97 501.91,-84.63"/>
</a>
</g>
</g>
<!-- Node10&#45;&gt;Node2 -->
<g id="edge12_Node000010_Node000002" class="edge">
<title>Node10&#45;&gt;Node2</title>
<g id="a_edge12_Node000010_Node000002"><a xlink:title=" ">
<path fill="none" stroke="#63b8ff" d="M337.25,-54.98C272.69,-45.12 166.95,-28.97 102.2,-19.08"/>
<polygon fill="#63b8ff" stroke="#63b8ff" points="102.59,-15.6 92.18,-17.55 101.53,-22.52 102.59,-15.6"/>
</a>
</g>
</g>
<!-- Node11 -->
<g id="Node000011" class="node">
<title>Node11</title>
<g id="a_Node000011"><a xlink:title=" ">
<polygon fill="#e0e0e0" stroke="#999999" points="421,-19 365,-19 365,0 421,0 421,-19"/>
<text text-anchor="middle" x="393" y="-7" font-family="Helvetica,sans-Serif" font-size="10.00">stddef.h</text>
</a>
</g>
</g>
<!-- Node10&#45;&gt;Node11 -->
<g id="edge11_Node000010_Node000011" class="edge">
<title>Node10&#45;&gt;Node11</title>
<g id="a_edge11_Node000010_Node000011"><a xlink:title=" ">
<path fill="none" stroke="#63b8ff" d="M393,-54.75C393,-47.8 393,-37.85 393,-29.13"/>
<polygon fill="#63b8ff" stroke="#63b8ff" points="396.5,-29.09 393,-19.09 389.5,-29.09 396.5,-29.09"/>
</a>
</g>
</g>
<!-- Node16&#45;&gt;Node5 -->
<g id="edge19_Node000016_Node000005" class="edge">
<title>Node16&#45;&gt;Node5</title>
<g id="a_edge19_Node000016_Node000005"><a xlink:title=" ">
<path fill="none" stroke="#63b8ff" d="M344.94,-164.98C308.58,-155.89 250.83,-141.46 211.03,-131.51"/>
<polygon fill="#63b8ff" stroke="#63b8ff" points="211.88,-128.11 201.33,-129.08 210.18,-134.9 211.88,-128.11"/>
</a>
</g>
</g>
<!-- Node19&#45;&gt;Node4 -->
<g id="edge31_Node000019_Node000004" class="edge">
<title>Node19&#45;&gt;Node4</title>
<g id="a_edge31_Node000019_Node000004"><a xlink:title=" ">
<path fill="none" stroke="#63b8ff" d="M310.73,-329.75C304.46,-322.18 295.21,-311.05 287.57,-301.84"/>
<polygon fill="#63b8ff" stroke="#63b8ff" points="290.21,-299.55 281.13,-294.09 284.83,-304.02 290.21,-299.55"/>
</a>
</g>
</g>
<!-- Node19&#45;&gt;Node18 -->
<g id="edge30_Node000019_Node000018" class="edge">
<title>Node19&#45;&gt;Node18</title>
<g id="a_edge30_Node000019_Node000018"><a xlink:title=" ">
<path fill="none" stroke="#63b8ff" d="M327.19,-329.93C339.5,-317.4 358.51,-293.53 347,-275 337.47,-259.65 320.9,-249.44 304.55,-242.71"/>
<polygon fill="#63b8ff" stroke="#63b8ff" points="305.61,-239.37 295.01,-239.15 303.15,-245.93 305.61,-239.37"/>
</a>
</g>
</g>
<!-- Node20 -->
<g id="Node000020" class="node">
<title>Node20</title>
<g id="a_Node000020"><a xlink:href="_processor_api_8h.html" target="_top" xlink:title=" ">
<polygon fill="white" stroke="#666666" points="534,-294 394,-294 394,-275 534,-275 534,-294"/>
<text text-anchor="middle" x="464" y="-282" font-family="Helvetica,sans-Serif" font-size="10.00">Cpl/TShell/ProcessorApi.h</text>
</a>
</g>
</g>
<!-- Node19&#45;&gt;Node20 -->
<g id="edge24_Node000019_Node000020" class="edge">
<title>Node19&#45;&gt;Node20</title>
<g id="a_edge24_Node000019_Node000020"><a xlink:title=" ">
<path fill="none" stroke="#63b8ff" d="M341.46,-329.98C365.58,-321.23 403.37,-307.51 430.6,-297.62"/>
<polygon fill="#63b8ff" stroke="#63b8ff" points="431.91,-300.87 440.12,-294.17 429.52,-294.29 431.91,-300.87"/>
</a>
</g>
</g>
<!-- Node22 -->
<g id="Node000022" class="node">
<title>Node22</title>
<g id="a_Node000022"><a xlink:href="_s_list_8h.html" target="_top" xlink:title=" ">
<polygon fill="white" stroke="#666666" points="192,-294 74,-294 74,-275 192,-275 192,-294"/>
<text text-anchor="middle" x="133" y="-282" font-family="Helvetica,sans-Serif" font-size="10.00">Cpl/Container/SList.h</text>
</a>
</g>
</g>
<!-- Node19&#45;&gt;Node22 -->
<g id="edge32_Node000019_Node000022" class="edge">
<title>Node19&#45;&gt;Node22</title>
<g id="a_edge32_Node000019_Node000022"><a xlink:title=" ">
<path fill="none" stroke="#63b8ff" d="M288.28,-329.98C256.95,-321.01 207.43,-306.82 172.76,-296.89"/>
<polygon fill="#63b8ff" stroke="#63b8ff" points="173.53,-293.47 162.96,-294.08 171.61,-300.2 173.53,-293.47"/>
</a>
</g>
</g>
<!-- Node20&#45;&gt;Node6 -->
<g id="edge29_Node000020_Node000006" class="edge">
<title>Node20&#45;&gt;Node6</title>
<g id="a_edge29_Node000020_Node000006"><a xlink:title=" ">
<path fill="none" stroke="#63b8ff" d="M450.18,-274.98C436.85,-266.77 416.42,-254.18 400.69,-244.49"/>
<polygon fill="#63b8ff" stroke="#63b8ff" points="402.42,-241.44 392.07,-239.17 398.75,-247.4 402.42,-241.44"/>
</a>
</g>
</g>
<!-- Node21 -->
<g id="Node000021" class="node">
<title>Node21</title>
<g id="a_Node000021"><a xlink:href="_input_8h.html" target="_top" xlink:title=" ">
<polygon fill="white" stroke="#666666" points="521.5,-239 440.5,-239 440.5,-220 521.5,-220 521.5,-239"/>
<text text-anchor="middle" x="481" y="-227" font-family="Helvetica,sans-Serif" font-size="10.00">Cpl/Io/Input.h</text>
</a>
</g>
</g>
<!-- Node20&#45;&gt;Node21 -->
<g id="edge25_Node000020_Node000021" class="edge">
<title>Node20&#45;&gt;Node21</title>
<g id="a_edge25_Node000020_Node000021"><a xlink:title=" ">
<path fill="none" stroke="#63b8ff" d="M466.81,-274.75C469.06,-267.72 472.3,-257.62 475.12,-248.84"/>
<polygon fill="#63b8ff" stroke="#63b8ff" points="478.52,-249.68 478.25,-239.09 471.86,-247.54 478.52,-249.68"/>
</a>
</g>
</g>
<!-- Node21&#45;&gt;Node7 -->
<g id="edge26_Node000021_Node000007" class="edge">
<title>Node21&#45;&gt;Node7</title>
<g id="a_edge26_Node000021_Node000007"><a xlink:title=" ">
<path fill="none" stroke="#63b8ff" d="M481.99,-219.75C482.78,-212.8 483.9,-202.85 484.89,-194.13"/>
<polygon fill="#63b8ff" stroke="#63b8ff" points="488.38,-194.42 486.03,-184.09 481.42,-193.63 488.38,-194.42"/>
</a>
</g>
</g>
<!-- Node21&#45;&gt;Node16 -->
<g id="edge27_Node000021_Node000016" class="edge">
<title>Node21&#45;&gt;Node16</title>
<g id="a_edge27_Node000021_Node000016"><a xlink:title=" ">
<path fill="none" stroke="#63b8ff" d="M464.61,-219.98C448.43,-211.57 423.43,-198.59 404.62,-188.81"/>
<polygon fill="#63b8ff" stroke="#63b8ff" points="406.17,-185.68 395.69,-184.17 402.95,-191.89 406.17,-185.68"/>
</a>
</g>
</g>
<!-- Node21&#45;&gt;Node17 -->
<g id="edge28_Node000021_Node000017" class="edge">
<title>Node21&#45;&gt;Node17</title>
<g id="a_edge28_Node000021_Node000017"><a xlink:title=" ">
<path fill="none" stroke="#63b8ff" d="M448.38,-219.98C413.71,-210.93 358.74,-196.58 320.65,-186.64"/>
<polygon fill="#63b8ff" stroke="#63b8ff" points="321.43,-183.22 310.87,-184.08 319.66,-189.99 321.43,-183.22"/>
</a>
</g>
</g>
<!-- Node22&#45;&gt;Node5 -->
<g id="edge33_Node000022_Node000005" class="edge">
<title>Node22&#45;&gt;Node5</title>
<g id="a_edge33_Node000022_Node000005"><a xlink:title=" ">
<path fill="none" stroke="#63b8ff" d="M134.68,-274.86C138.51,-255.29 148.23,-206.06 157,-165 158.84,-156.38 160.97,-146.83 162.8,-138.8"/>
<polygon fill="#63b8ff" stroke="#63b8ff" points="166.22,-139.55 165.03,-129.02 159.39,-137.99 166.22,-139.55"/>
</a>
</g>
</g>
<!-- Node23&#45;&gt;Node12 -->
<g id="edge35_Node000023_Node000012" class="edge">
<title>Node23&#45;&gt;Node12</title>
<g id="a_edge35_Node000023_Node000012"><a xlink:title=" ">
<path fill="none" stroke="#63b8ff" d="M574,-384.82C574,-366.48 574,-322.44 574,-285.5 574,-285.5 574,-285.5 574,-173.5 574,-142.19 574,-105.77 574,-84.23"/>
<polygon fill="#63b8ff" stroke="#63b8ff" points="577.5,-84.18 574,-74.18 570.5,-84.18 577.5,-84.18"/>
</a>
</g>
</g>
<!-- Node24 -->
<g id="Node000024" class="node">
<title>Node24</title>
<g id="a_Node000024"><a xlink:title=" ">
<polygon fill="#e0e0e0" stroke="#999999" points="655.5,-349 602.5,-349 602.5,-330 655.5,-330 655.5,-349"/>
<text text-anchor="middle" x="629" y="-337" font-family="Helvetica,sans-Serif" font-size="10.00">stdlib.h</text>
</a>
</g>
</g>
<!-- Node23&#45;&gt;Node24 -->
<g id="edge36_Node000023_Node000024" class="edge">
<title>Node23&#45;&gt;Node24</title>
<g id="a_edge36_Node000023_Node000024"><a xlink:title=" ">
<path fill="none" stroke="#63b8ff" d="M583.08,-384.75C591.09,-377.03 602.96,-365.6 612.62,-356.28"/>
<polygon fill="#63b8ff" stroke="#63b8ff" points="615.31,-358.55 620.09,-349.09 610.46,-353.51 615.31,-358.55"/>
</a>
</g>
</g>
</g>
</svg>
