<?xml version="1.0" encoding="UTF-8" standalone="no"?>
<!DOCTYPE svg PUBLIC "-//W3C//DTD SVG 1.1//EN"
 "http://www.w3.org/Graphics/SVG/1.1/DTD/svg11.dtd">
<!-- Generated by graphviz version 2.43.0 (0)
 -->
<!-- Title: Cpl/Persistent/IndexedEntryReader.h Pages: 1 -->
<svg width="328pt" height="236pt"
 viewBox="0.00 0.00 328.00 236.00" xmlns="http://www.w3.org/2000/svg" xmlns:xlink="http://www.w3.org/1999/xlink">
<g id="graph0" class="graph" transform="scale(1 1) rotate(0) translate(4 232)">
<title>Cpl/Persistent/IndexedEntryReader.h</title>
<!-- Node1 -->
<g id="Node000001" class="node">
<title>Node1</title>
<g id="a_Node000001"><a xlink:title=" ">
<polygon fill="#999999" stroke="#666666" points="235,-228 84,-228 84,-198 235,-198 235,-228"/>
<text text-anchor="start" x="92" y="-216" font-family="Helvetica,sans-Serif" font-size="10.00">Cpl/Persistent/IndexedEntry</text>
<text text-anchor="middle" x="159.5" y="-205" font-family="Helvetica,sans-Serif" font-size="10.00">Reader.h</text>
</a>
</g>
</g>
<!-- Node2 -->
<g id="Node000002" class="node">
<title>Node2</title>
<g id="a_Node000002"><a xlink:href="_indexed_entry_record_8h.html" target="_top" xlink:title=" ">
<polygon fill="white" stroke="#666666" points="151,-162 0,-162 0,-132 151,-132 151,-162"/>
<text text-anchor="start" x="8" y="-150" font-family="Helvetica,sans-Serif" font-size="10.00">Cpl/Persistent/IndexedEntry</text>
<text text-anchor="middle" x="75.5" y="-139" font-family="Helvetica,sans-Serif" font-size="10.00">Record.h</text>
</a>
</g>
</g>
<!-- Node1&#45;&gt;Node2 -->
<g id="edge1_Node000001_Node000002" class="edge">
<title>Node1&#45;&gt;Node2</title>
<g id="a_edge1_Node000001_Node000002"><a xlink:title=" ">
<path fill="none" stroke="#63b8ff" d="M132.56,-191.48C120.01,-181.91 105.39,-170.77 94.09,-162.16"/>
<polygon fill="#63b8ff" stroke="#63b8ff" points="130.78,-194.52 140.86,-197.8 135.02,-188.95 130.78,-194.52"/>
</a>
</g>
</g>
<!-- Node5 -->
<g id="Node000005" class="node">
<title>Node5</title>
<g id="a_Node000005"><a xlink:href="_indexed_entry_requests_8h.html" target="_top" xlink:title=" ">
<polygon fill="white" stroke="#666666" points="320,-162 169,-162 169,-132 320,-132 320,-162"/>
<text text-anchor="start" x="177" y="-150" font-family="Helvetica,sans-Serif" font-size="10.00">Cpl/Persistent/IndexedEntry</text>
<text text-anchor="middle" x="244.5" y="-139" font-family="Helvetica,sans-Serif" font-size="10.00">Requests.h</text>
</a>
</g>
</g>
<!-- Node1&#45;&gt;Node5 -->
<g id="edge4_Node000001_Node000005" class="edge">
<title>Node1&#45;&gt;Node5</title>
<g id="a_edge4_Node000001_Node000005"><a xlink:title=" ">
<path fill="none" stroke="#63b8ff" d="M186.39,-191.75C199.17,-182.13 214.14,-170.86 225.69,-162.16"/>
<polygon fill="#63b8ff" stroke="#63b8ff" points="184.25,-188.99 178.36,-197.8 188.46,-194.58 184.25,-188.99"/>
</a>
</g>
</g>
<!-- Node3 -->
<g id="Node000003" class="node">
<title>Node3</title>
<g id="a_Node000003"><a xlink:href="_indexed_entry_server_8h.html" target="_top" xlink:title=" ">
<polygon fill="white" stroke="#666666" points="235,-96 84,-96 84,-66 235,-66 235,-96"/>
<text text-anchor="start" x="92" y="-84" font-family="Helvetica,sans-Serif" font-size="10.00">Cpl/Persistent/IndexedEntry</text>
<text text-anchor="middle" x="159.5" y="-73" font-family="Helvetica,sans-Serif" font-size="10.00">Server.h</text>
</a>
</g>
</g>
<!-- Node2&#45;&gt;Node3 -->
<g id="edge2_Node000002_Node000003" class="edge">
<title>Node2&#45;&gt;Node3</title>
<g id="a_edge2_Node000002_Node000003"><a xlink:title=" ">
<path fill="none" stroke="#63b8ff" d="M102.44,-125.48C114.99,-115.91 129.61,-104.77 140.91,-96.16"/>
<polygon fill="#63b8ff" stroke="#63b8ff" points="99.98,-122.95 94.14,-131.8 104.22,-128.52 99.98,-122.95"/>
</a>
</g>
</g>
<!-- Node4 -->
<g id="Node000004" class="node">
<title>Node4</title>
<g id="a_Node000004"><a xlink:href="_log_8h.html" target="_top" xlink:title=" ">
<polygon fill="white" stroke="#666666" points="213,-30 106,-30 106,0 213,0 213,-30"/>
<text text-anchor="start" x="114" y="-18" font-family="Helvetica,sans-Serif" font-size="10.00">Cpl/Logging/TShell</text>
<text text-anchor="middle" x="159.5" y="-7" font-family="Helvetica,sans-Serif" font-size="10.00">/Log.h</text>
</a>
</g>
</g>
<!-- Node3&#45;&gt;Node4 -->
<g id="edge3_Node000003_Node000004" class="edge">
<title>Node3&#45;&gt;Node4</title>
<g id="a_edge3_Node000003_Node000004"><a xlink:title=" ">
<path fill="none" stroke="#63b8ff" d="M159.5,-55.54C159.5,-46.96 159.5,-37.61 159.5,-30.16"/>
<polygon fill="#63b8ff" stroke="#63b8ff" points="156,-55.8 159.5,-65.8 163,-55.8 156,-55.8"/>
</a>
</g>
</g>
<!-- Node5&#45;&gt;Node3 -->
<g id="edge5_Node000005_Node000003" class="edge">
<title>Node5&#45;&gt;Node3</title>
<g id="a_edge5_Node000005_Node000003"><a xlink:title=" ">
<path fill="none" stroke="#63b8ff" d="M217.61,-125.75C204.83,-116.13 189.86,-104.86 178.31,-96.16"/>
<polygon fill="#63b8ff" stroke="#63b8ff" points="215.54,-128.58 225.64,-131.8 219.75,-122.99 215.54,-128.58"/>
</a>
</g>
</g>
</g>
</svg>
