<?xml version="1.0" encoding="UTF-8" standalone="no"?>
<!DOCTYPE svg PUBLIC "-//W3C//DTD SVG 1.1//EN"
 "http://www.w3.org/Graphics/SVG/1.1/DTD/svg11.dtd">
<!-- Generated by graphviz version 2.43.0 (0)
 -->
<!-- Title: Cpl/Persistent/IndexRecord.h Pages: 1 -->
<svg width="1463pt" height="467pt"
 viewBox="0.00 0.00 1463.00 467.00" xmlns="http://www.w3.org/2000/svg" xmlns:xlink="http://www.w3.org/1999/xlink">
<g id="graph0" class="graph" transform="scale(1 1) rotate(0) translate(4 463)">
<title>Cpl/Persistent/IndexRecord.h</title>
<!-- Node1 -->
<g id="Node000001" class="node">
<title>Node1</title>
<g id="a_Node000001"><a xlink:title=" ">
<polygon fill="#999999" stroke="#666666" points="1236.5,-459 1079.5,-459 1079.5,-440 1236.5,-440 1236.5,-459"/>
<text text-anchor="middle" x="1158" y="-447" font-family="Helvetica,sans-Serif" font-size="10.00">Cpl/Persistent/IndexRecord.h</text>
</a>
</g>
</g>
<!-- Node2 -->
<g id="Node000002" class="node">
<title>Node2</title>
<g id="a_Node000002"><a xlink:href="_data_record_8h.html" target="_top" xlink:title=" ">
<polygon fill="white" stroke="#666666" points="1234.5,-404 1081.5,-404 1081.5,-385 1234.5,-385 1234.5,-404"/>
<text text-anchor="middle" x="1158" y="-392" font-family="Helvetica,sans-Serif" font-size="10.00">Cpl/Persistent/DataRecord.h</text>
</a>
</g>
</g>
<!-- Node1&#45;&gt;Node2 -->
<g id="edge1_Node000001_Node000002" class="edge">
<title>Node1&#45;&gt;Node2</title>
<g id="a_edge1_Node000001_Node000002"><a xlink:title=" ">
<path fill="none" stroke="#63b8ff" d="M1158,-439.75C1158,-432.8 1158,-422.85 1158,-414.13"/>
<polygon fill="#63b8ff" stroke="#63b8ff" points="1161.5,-414.09 1158,-404.09 1154.5,-414.09 1161.5,-414.09"/>
</a>
</g>
</g>
<!-- Node3 -->
<g id="Node000003" class="node">
<title>Node3</title>
<g id="a_Node000003"><a xlink:href="_persistent_2_record_8h.html" target="_top" xlink:title=" ">
<polygon fill="white" stroke="#666666" points="1076,-349 946,-349 946,-330 1076,-330 1076,-349"/>
<text text-anchor="middle" x="1011" y="-337" font-family="Helvetica,sans-Serif" font-size="10.00">Cpl/Persistent/Record.h</text>
</a>
</g>
</g>
<!-- Node2&#45;&gt;Node3 -->
<g id="edge2_Node000002_Node000003" class="edge">
<title>Node2&#45;&gt;Node3</title>
<g id="a_edge2_Node000002_Node000003"><a xlink:title=" ">
<path fill="none" stroke="#63b8ff" d="M1134.38,-384.98C1110.1,-376.23 1072.05,-362.51 1044.63,-352.62"/>
<polygon fill="#63b8ff" stroke="#63b8ff" points="1045.64,-349.27 1035.05,-349.17 1043.27,-355.85 1045.64,-349.27"/>
</a>
</g>
</g>
<!-- Node28 -->
<g id="Node000028" class="node">
<title>Node28</title>
<g id="a_Node000028"><a xlink:href="_chunk_8h.html" target="_top" xlink:title=" ">
<polygon fill="white" stroke="#666666" points="1221.5,-349 1094.5,-349 1094.5,-330 1221.5,-330 1221.5,-349"/>
<text text-anchor="middle" x="1158" y="-337" font-family="Helvetica,sans-Serif" font-size="10.00">Cpl/Persistent/Chunk.h</text>
</a>
</g>
</g>
<!-- Node2&#45;&gt;Node28 -->
<g id="edge40_Node000002_Node000028" class="edge">
<title>Node2&#45;&gt;Node28</title>
<g id="a_edge40_Node000002_Node000028"><a xlink:title=" ">
<path fill="none" stroke="#63b8ff" d="M1158,-384.75C1158,-377.8 1158,-367.85 1158,-359.13"/>
<polygon fill="#63b8ff" stroke="#63b8ff" points="1161.5,-359.09 1158,-349.09 1154.5,-359.09 1161.5,-359.09"/>
</a>
</g>
</g>
<!-- Node29 -->
<g id="Node000029" class="node">
<title>Node29</title>
<g id="a_Node000029"><a xlink:href="_payload_8h.html" target="_top" xlink:title=" ">
<polygon fill="white" stroke="#666666" points="1295,-294 1161,-294 1161,-275 1295,-275 1295,-294"/>
<text text-anchor="middle" x="1228" y="-282" font-family="Helvetica,sans-Serif" font-size="10.00">Cpl/Persistent/Payload.h</text>
</a>
</g>
</g>
<!-- Node2&#45;&gt;Node29 -->
<g id="edge44_Node000002_Node000029" class="edge">
<title>Node2&#45;&gt;Node29</title>
<g id="a_edge44_Node000002_Node000029"><a xlink:title=" ">
<path fill="none" stroke="#63b8ff" d="M1184.57,-384.94C1201.13,-378.06 1221.12,-366.6 1231,-349 1238.6,-335.47 1236.94,-317.64 1233.91,-304.32"/>
<polygon fill="#63b8ff" stroke="#63b8ff" points="1237.21,-303.12 1231.21,-294.39 1230.45,-304.95 1237.21,-303.12"/>
</a>
</g>
</g>
<!-- Node4 -->
<g id="Node000004" class="node">
<title>Node4</title>
<g id="a_Node000004"><a xlink:href="_dm_2_mailbox_server_8h.html" target="_top" xlink:title=" ">
<polygon fill="white" stroke="#666666" points="1121,-294 987,-294 987,-275 1121,-275 1121,-294"/>
<text text-anchor="middle" x="1054" y="-282" font-family="Helvetica,sans-Serif" font-size="10.00">Cpl/Dm/MailboxServer.h</text>
</a>
</g>
</g>
<!-- Node3&#45;&gt;Node4 -->
<g id="edge3_Node000003_Node000004" class="edge">
<title>Node3&#45;&gt;Node4</title>
<g id="a_edge3_Node000003_Node000004"><a xlink:title=" ">
<path fill="none" stroke="#63b8ff" d="M1018.1,-329.75C1024.17,-322.26 1033.09,-311.28 1040.51,-302.13"/>
<polygon fill="#63b8ff" stroke="#63b8ff" points="1043.45,-304.06 1047.03,-294.09 1038.01,-299.65 1043.45,-304.06"/>
</a>
</g>
</g>
<!-- Node5 -->
<g id="Node000005" class="node">
<title>Node5</title>
<g id="a_Node000005"><a xlink:href="_dm_2_event_loop_8h.html" target="_top" xlink:title=" ">
<polygon fill="white" stroke="#666666" points="431,-239 315,-239 315,-220 431,-220 431,-239"/>
<text text-anchor="middle" x="373" y="-227" font-family="Helvetica,sans-Serif" font-size="10.00">Cpl/Dm/EventLoop.h</text>
</a>
</g>
</g>
<!-- Node4&#45;&gt;Node5 -->
<g id="edge4_Node000004_Node000005" class="edge">
<title>Node4&#45;&gt;Node5</title>
<g id="a_edge4_Node000004_Node000005"><a xlink:title=" ">
<path fill="none" stroke="#63b8ff" d="M986.84,-278.27C856.97,-268.17 572.7,-246.04 441.66,-235.84"/>
<polygon fill="#63b8ff" stroke="#63b8ff" points="441.6,-232.33 431.35,-235.04 441.05,-239.31 441.6,-232.33"/>
</a>
</g>
</g>
<!-- Node24 -->
<g id="Node000024" class="node">
<title>Node24</title>
<g id="a_Node000024"><a xlink:href="_mailbox_8h.html" target="_top" xlink:title=" ">
<polygon fill="white" stroke="#666666" points="1381,-184 1283,-184 1283,-165 1381,-165 1381,-184"/>
<text text-anchor="middle" x="1332" y="-172" font-family="Helvetica,sans-Serif" font-size="10.00">Cpl/Itc/Mailbox.h</text>
</a>
</g>
</g>
<!-- Node4&#45;&gt;Node24 -->
<g id="edge33_Node000004_Node000024" class="edge">
<title>Node4&#45;&gt;Node24</title>
<g id="a_edge33_Node000004_Node000024"><a xlink:title=" ">
<path fill="none" stroke="#63b8ff" d="M1076.28,-274.84C1125.51,-255.72 1243.66,-209.82 1300.46,-187.75"/>
<polygon fill="#63b8ff" stroke="#63b8ff" points="1301.95,-190.93 1310,-184.05 1299.41,-184.41 1301.95,-190.93"/>
</a>
</g>
</g>
<!-- Node6 -->
<g id="Node000006" class="node">
<title>Node6</title>
<g id="a_Node000006"><a xlink:href="_system_2_event_loop_8h.html" target="_top" xlink:title=" ">
<polygon fill="white" stroke="#666666" points="606.5,-184 471.5,-184 471.5,-165 606.5,-165 606.5,-184"/>
<text text-anchor="middle" x="539" y="-172" font-family="Helvetica,sans-Serif" font-size="10.00">Cpl/System/EventLoop.h</text>
</a>
</g>
</g>
<!-- Node5&#45;&gt;Node6 -->
<g id="edge5_Node000005_Node000006" class="edge">
<title>Node5&#45;&gt;Node6</title>
<g id="a_edge5_Node000005_Node000006"><a xlink:title=" ">
<path fill="none" stroke="#63b8ff" d="M399.67,-219.98C427.54,-211.09 471.45,-197.07 502.52,-187.15"/>
<polygon fill="#63b8ff" stroke="#63b8ff" points="503.66,-190.46 512.12,-184.08 501.53,-183.79 503.66,-190.46"/>
</a>
</g>
</g>
<!-- Node18 -->
<g id="Node000018" class="node">
<title>Node18</title>
<g id="a_Node000018"><a xlink:href="_d_list_8h.html" target="_top" xlink:title=" ">
<polygon fill="white" stroke="#666666" points="372.5,-74 253.5,-74 253.5,-55 372.5,-55 372.5,-74"/>
<text text-anchor="middle" x="313" y="-62" font-family="Helvetica,sans-Serif" font-size="10.00">Cpl/Container/DList.h</text>
</a>
</g>
</g>
<!-- Node5&#45;&gt;Node18 -->
<g id="edge27_Node000005_Node000018" class="edge">
<title>Node5&#45;&gt;Node18</title>
<g id="a_edge27_Node000005_Node000018"><a xlink:title=" ">
<path fill="none" stroke="#63b8ff" d="M355.47,-219.84C328.4,-205.35 277.39,-173.36 257,-129 247.88,-109.17 268.18,-90.98 286.84,-79.2"/>
<polygon fill="#63b8ff" stroke="#63b8ff" points="288.63,-82.21 295.46,-74.1 285.07,-76.18 288.63,-82.21"/>
</a>
</g>
</g>
<!-- Node19 -->
<g id="Node000019" class="node">
<title>Node19</title>
<g id="a_Node000019"><a xlink:href="_thread_8h.html" target="_top" xlink:title=" ">
<polygon fill="white" stroke="#666666" points="1081,-184 963,-184 963,-165 1081,-165 1081,-184"/>
<text text-anchor="middle" x="1022" y="-172" font-family="Helvetica,sans-Serif" font-size="10.00">Cpl/System/Thread.h</text>
</a>
</g>
</g>
<!-- Node5&#45;&gt;Node19 -->
<g id="edge21_Node000005_Node000019" class="edge">
<title>Node5&#45;&gt;Node19</title>
<g id="a_edge21_Node000005_Node000019"><a xlink:title=" ">
<path fill="none" stroke="#63b8ff" d="M431.17,-223.75C550.82,-213.98 824.08,-191.66 952.67,-181.16"/>
<polygon fill="#63b8ff" stroke="#63b8ff" points="953.11,-184.64 962.79,-180.33 952.54,-177.66 953.11,-184.64"/>
</a>
</g>
</g>
<!-- Node22 -->
<g id="Node000022" class="node">
<title>Node22</title>
<g id="a_Node000022"><a xlink:href="_subscriber_api_8h.html" target="_top" xlink:title=" ">
<polygon fill="white" stroke="#666666" points="235.5,-74 104.5,-74 104.5,-55 235.5,-55 235.5,-74"/>
<text text-anchor="middle" x="170" y="-62" font-family="Helvetica,sans-Serif" font-size="10.00">Cpl/Dm/SubscriberApi.h</text>
</a>
</g>
</g>
<!-- Node5&#45;&gt;Node22 -->
<g id="edge28_Node000005_Node000022" class="edge">
<title>Node5&#45;&gt;Node22</title>
<g id="a_edge28_Node000005_Node000022"><a xlink:title=" ">
<path fill="none" stroke="#63b8ff" d="M348.13,-219.96C328.06,-212.36 299.7,-199.99 278,-184 237.46,-154.14 200.29,-107.31 181.97,-82.4"/>
<polygon fill="#63b8ff" stroke="#63b8ff" points="184.59,-80.07 175.9,-74.01 178.92,-84.17 184.59,-80.07"/>
</a>
</g>
</g>
<!-- Node23 -->
<g id="Node000023" class="node">
<title>Node23</title>
<g id="a_Node000023"><a xlink:href="_notification_api___8h.html" target="_top" xlink:title=" ">
<polygon fill="white" stroke="#666666" points="142,-184 0,-184 0,-165 142,-165 142,-184"/>
<text text-anchor="middle" x="71" y="-172" font-family="Helvetica,sans-Serif" font-size="10.00">Cpl/Dm/NotificationApi_.h</text>
</a>
</g>
</g>
<!-- Node5&#45;&gt;Node23 -->
<g id="edge31_Node000005_Node000023" class="edge">
<title>Node5&#45;&gt;Node23</title>
<g id="a_edge31_Node000005_Node000023"><a xlink:title=" ">
<path fill="none" stroke="#63b8ff" d="M324.48,-219.98C271.39,-210.67 186.31,-195.74 129.56,-185.78"/>
<polygon fill="#63b8ff" stroke="#63b8ff" points="130.11,-182.32 119.65,-184.04 128.9,-189.21 130.11,-182.32"/>
</a>
</g>
</g>
<!-- Node7 -->
<g id="Node000007" class="node">
<title>Node7</title>
<g id="a_Node000007"><a xlink:href="_runnable_8h.html" target="_top" xlink:title=" ">
<polygon fill="white" stroke="#666666" points="975,-129 845,-129 845,-110 975,-110 975,-129"/>
<text text-anchor="middle" x="910" y="-117" font-family="Helvetica,sans-Serif" font-size="10.00">Cpl/System/Runnable.h</text>
</a>
</g>
</g>
<!-- Node6&#45;&gt;Node7 -->
<g id="edge6_Node000006_Node000007" class="edge">
<title>Node6&#45;&gt;Node7</title>
<g id="a_edge6_Node000006_Node000007"><a xlink:title=" ">
<path fill="none" stroke="#63b8ff" d="M598.61,-164.98C664.5,-155.57 770.51,-140.43 840.22,-130.47"/>
<polygon fill="#63b8ff" stroke="#63b8ff" points="840.83,-133.92 850.23,-129.04 839.84,-126.99 840.83,-133.92"/>
</a>
</g>
</g>
<!-- Node8 -->
<g id="Node000008" class="node">
<title>Node8</title>
<g id="a_Node000008"><a xlink:href="_semaphore_8h.html" target="_top" xlink:title=" ">
<polygon fill="white" stroke="#666666" points="789,-129 649,-129 649,-110 789,-110 789,-129"/>
<text text-anchor="middle" x="719" y="-117" font-family="Helvetica,sans-Serif" font-size="10.00">Cpl/System/Semaphore.h</text>
</a>
</g>
</g>
<!-- Node6&#45;&gt;Node8 -->
<g id="edge7_Node000006_Node000008" class="edge">
<title>Node6&#45;&gt;Node8</title>
<g id="a_edge7_Node000006_Node000008"><a xlink:title=" ">
<path fill="none" stroke="#63b8ff" d="M567.92,-164.98C598.27,-156.05 646.17,-141.94 679.88,-132.02"/>
<polygon fill="#63b8ff" stroke="#63b8ff" points="681.25,-135.26 689.85,-129.08 679.27,-128.55 681.25,-135.26"/>
</a>
</g>
</g>
<!-- Node10 -->
<g id="Node000010" class="node">
<title>Node10</title>
<g id="a_Node000010"><a xlink:href="_signable_8h.html" target="_top" xlink:title=" ">
<polygon fill="white" stroke="#666666" points="1080,-74 954,-74 954,-55 1080,-55 1080,-74"/>
<text text-anchor="middle" x="1017" y="-62" font-family="Helvetica,sans-Serif" font-size="10.00">Cpl/System/Signable.h</text>
</a>
</g>
</g>
<!-- Node6&#45;&gt;Node10 -->
<g id="edge11_Node000006_Node000010" class="edge">
<title>Node6&#45;&gt;Node10</title>
<g id="a_edge11_Node000006_Node000010"><a xlink:title=" ">
<path fill="none" stroke="#63b8ff" d="M606.58,-167.38C659.62,-161.27 734.81,-149.72 798,-129 815.94,-123.12 818.28,-116.52 836,-110 876.53,-95.1 923.99,-83.64 960.14,-76.08"/>
<polygon fill="#63b8ff" stroke="#63b8ff" points="960.93,-79.49 970.02,-74.06 959.53,-72.64 960.93,-79.49"/>
</a>
</g>
</g>
<!-- Node12 -->
<g id="Node000012" class="node">
<title>Node12</title>
<g id="a_Node000012"><a xlink:href="_event_flag_8h.html" target="_top" xlink:title=" ">
<polygon fill="white" stroke="#666666" points="523.5,-74 390.5,-74 390.5,-55 523.5,-55 523.5,-74"/>
<text text-anchor="middle" x="457" y="-62" font-family="Helvetica,sans-Serif" font-size="10.00">Cpl/System/EventFlag.h</text>
</a>
</g>
</g>
<!-- Node6&#45;&gt;Node12 -->
<g id="edge12_Node000006_Node000012" class="edge">
<title>Node6&#45;&gt;Node12</title>
<g id="a_edge12_Node000006_Node000012"><a xlink:title=" ">
<path fill="none" stroke="#63b8ff" d="M471.48,-172.19C399.08,-169.19 291,-159.56 265,-129 259.53,-122.57 259.75,-116.61 265,-110 273.3,-99.56 342.74,-85.32 395.75,-75.79"/>
<polygon fill="#63b8ff" stroke="#63b8ff" points="396.54,-79.21 405.77,-74.01 395.31,-72.32 396.54,-79.21"/>
</a>
</g>
</g>
<!-- Node15 -->
<g id="Node000015" class="node">
<title>Node15</title>
<g id="a_Node000015"><a xlink:href="_shared_event_handler_8h.html" target="_top" xlink:title=" ">
<polygon fill="white" stroke="#666666" points="630.5,-129 447.5,-129 447.5,-110 630.5,-110 630.5,-129"/>
<text text-anchor="middle" x="539" y="-117" font-family="Helvetica,sans-Serif" font-size="10.00">Cpl/System/SharedEventHandler.h</text>
</a>
</g>
</g>
<!-- Node6&#45;&gt;Node15 -->
<g id="edge15_Node000006_Node000015" class="edge">
<title>Node6&#45;&gt;Node15</title>
<g id="a_edge15_Node000006_Node000015"><a xlink:title=" ">
<path fill="none" stroke="#63b8ff" d="M539,-164.75C539,-157.8 539,-147.85 539,-139.13"/>
<polygon fill="#63b8ff" stroke="#63b8ff" points="542.5,-139.09 539,-129.09 535.5,-139.09 542.5,-139.09"/>
</a>
</g>
</g>
<!-- Node16 -->
<g id="Node000016" class="node">
<title>Node16</title>
<g id="a_Node000016"><a xlink:href="_timer_manager_8h.html" target="_top" xlink:title=" ">
<polygon fill="white" stroke="#666666" points="429.5,-129 274.5,-129 274.5,-110 429.5,-110 429.5,-129"/>
<text text-anchor="middle" x="352" y="-117" font-family="Helvetica,sans-Serif" font-size="10.00">Cpl/System/TimerManager.h</text>
</a>
</g>
</g>
<!-- Node6&#45;&gt;Node16 -->
<g id="edge17_Node000006_Node000016" class="edge">
<title>Node6&#45;&gt;Node16</title>
<g id="a_edge17_Node000006_Node000016"><a xlink:title=" ">
<path fill="none" stroke="#63b8ff" d="M508.96,-164.98C477.29,-156.01 427.23,-141.82 392.19,-131.89"/>
<polygon fill="#63b8ff" stroke="#63b8ff" points="392.86,-128.44 382.28,-129.08 390.95,-135.18 392.86,-128.44"/>
</a>
</g>
</g>
<!-- Node9 -->
<g id="Node000009" class="node">
<title>Node9</title>
<g id="a_Node000009"><a xlink:title=" ">
<polygon fill="#e0e0e0" stroke="#999999" points="912.5,-74 827.5,-74 827.5,-55 912.5,-55 912.5,-74"/>
<text text-anchor="middle" x="870" y="-62" font-family="Helvetica,sans-Serif" font-size="10.00">colony_map.h</text>
</a>
</g>
</g>
<!-- Node8&#45;&gt;Node9 -->
<g id="edge8_Node000008_Node000009" class="edge">
<title>Node8&#45;&gt;Node9</title>
<g id="a_edge8_Node000008_Node000009"><a xlink:title=" ">
<path fill="none" stroke="#63b8ff" d="M743.26,-109.98C768.32,-101.19 807.63,-87.39 835.83,-77.49"/>
<polygon fill="#63b8ff" stroke="#63b8ff" points="837.02,-80.78 845.3,-74.17 834.7,-74.18 837.02,-80.78"/>
</a>
</g>
</g>
<!-- Node8&#45;&gt;Node10 -->
<g id="edge9_Node000008_Node000010" class="edge">
<title>Node8&#45;&gt;Node10</title>
<g id="a_edge9_Node000008_Node000010"><a xlink:title=" ">
<path fill="none" stroke="#63b8ff" d="M766.88,-109.98C819.08,-100.7 902.62,-85.84 958.62,-75.88"/>
<polygon fill="#63b8ff" stroke="#63b8ff" points="959.51,-79.28 968.75,-74.08 958.29,-72.39 959.51,-79.28"/>
</a>
</g>
</g>
<!-- Node11 -->
<g id="Node000011" class="node">
<title>Node11</title>
<g id="a_Node000011"><a xlink:href="_item_8h.html" target="_top" xlink:title=" ">
<polygon fill="white" stroke="#666666" points="1075.5,-19 958.5,-19 958.5,0 1075.5,0 1075.5,-19"/>
<text text-anchor="middle" x="1017" y="-7" font-family="Helvetica,sans-Serif" font-size="10.00">Cpl/Container/Item.h</text>
</a>
</g>
</g>
<!-- Node10&#45;&gt;Node11 -->
<g id="edge10_Node000010_Node000011" class="edge">
<title>Node10&#45;&gt;Node11</title>
<g id="a_edge10_Node000010_Node000011"><a xlink:title=" ">
<path fill="none" stroke="#63b8ff" d="M1017,-54.75C1017,-47.8 1017,-37.85 1017,-29.13"/>
<polygon fill="#63b8ff" stroke="#63b8ff" points="1020.5,-29.09 1017,-19.09 1013.5,-29.09 1020.5,-29.09"/>
</a>
</g>
</g>
<!-- Node13 -->
<g id="Node000013" class="node">
<title>Node13</title>
<g id="a_Node000013"><a xlink:title=" ">
<polygon fill="#e0e0e0" stroke="#999999" points="503,-19 411,-19 411,0 503,0 503,-19"/>
<text text-anchor="middle" x="457" y="-7" font-family="Helvetica,sans-Serif" font-size="10.00">colony_config.h</text>
</a>
</g>
</g>
<!-- Node12&#45;&gt;Node13 -->
<g id="edge13_Node000012_Node000013" class="edge">
<title>Node12&#45;&gt;Node13</title>
<g id="a_edge13_Node000012_Node000013"><a xlink:title=" ">
<path fill="none" stroke="#63b8ff" d="M457,-54.75C457,-47.8 457,-37.85 457,-29.13"/>
<polygon fill="#63b8ff" stroke="#63b8ff" points="460.5,-29.09 457,-19.09 453.5,-29.09 460.5,-29.09"/>
</a>
</g>
</g>
<!-- Node14 -->
<g id="Node000014" class="node">
<title>Node14</title>
<g id="a_Node000014"><a xlink:title=" ">
<polygon fill="#e0e0e0" stroke="#999999" points="294.5,-19 241.5,-19 241.5,0 294.5,0 294.5,-19"/>
<text text-anchor="middle" x="268" y="-7" font-family="Helvetica,sans-Serif" font-size="10.00">stdint.h</text>
</a>
</g>
</g>
<!-- Node12&#45;&gt;Node14 -->
<g id="edge14_Node000012_Node000014" class="edge">
<title>Node12&#45;&gt;Node14</title>
<g id="a_edge14_Node000012_Node000014"><a xlink:title=" ">
<path fill="none" stroke="#63b8ff" d="M426.63,-54.98C393.39,-45.66 340.11,-30.72 304.59,-20.76"/>
<polygon fill="#63b8ff" stroke="#63b8ff" points="305.2,-17.3 294.63,-17.97 303.31,-24.04 305.2,-17.3"/>
</a>
</g>
</g>
<!-- Node15&#45;&gt;Node12 -->
<g id="edge16_Node000015_Node000012" class="edge">
<title>Node15&#45;&gt;Node12</title>
<g id="a_edge16_Node000015_Node000012"><a xlink:title=" ">
<path fill="none" stroke="#63b8ff" d="M525.83,-109.98C513.23,-101.84 494,-89.41 479.06,-79.76"/>
<polygon fill="#63b8ff" stroke="#63b8ff" points="480.71,-76.66 470.41,-74.17 476.91,-82.54 480.71,-76.66"/>
</a>
</g>
</g>
<!-- Node17 -->
<g id="Node000017" class="node">
<title>Node17</title>
<g id="a_Node000017"><a xlink:href="_counter___8h.html" target="_top" xlink:title=" ">
<polygon fill="white" stroke="#666666" points="763,-74 635,-74 635,-55 763,-55 763,-74"/>
<text text-anchor="middle" x="699" y="-62" font-family="Helvetica,sans-Serif" font-size="10.00">Cpl/System/Counter_.h</text>
</a>
</g>
</g>
<!-- Node16&#45;&gt;Node17 -->
<g id="edge18_Node000016_Node000017" class="edge">
<title>Node16&#45;&gt;Node17</title>
<g id="a_edge18_Node000016_Node000017"><a xlink:title=" ">
<path fill="none" stroke="#63b8ff" d="M407.75,-109.98C469.13,-100.61 567.72,-85.55 632.93,-75.59"/>
<polygon fill="#63b8ff" stroke="#63b8ff" points="633.74,-79.01 643.1,-74.04 632.69,-72.09 633.74,-79.01"/>
</a>
</g>
</g>
<!-- Node16&#45;&gt;Node18 -->
<g id="edge20_Node000016_Node000018" class="edge">
<title>Node16&#45;&gt;Node18</title>
<g id="a_edge20_Node000016_Node000018"><a xlink:title=" ">
<path fill="none" stroke="#63b8ff" d="M345.56,-109.75C340.11,-102.34 332.14,-91.5 325.44,-82.41"/>
<polygon fill="#63b8ff" stroke="#63b8ff" points="328.07,-80.07 319.32,-74.09 322.43,-84.22 328.07,-80.07"/>
</a>
</g>
</g>
<!-- Node17&#45;&gt;Node11 -->
<g id="edge19_Node000017_Node000011" class="edge">
<title>Node17&#45;&gt;Node11</title>
<g id="a_edge19_Node000017_Node000011"><a xlink:title=" ">
<path fill="none" stroke="#63b8ff" d="M750.09,-54.98C806.11,-45.65 895.95,-30.67 955.71,-20.71"/>
<polygon fill="#63b8ff" stroke="#63b8ff" points="956.48,-24.13 965.77,-19.04 955.33,-17.23 956.48,-24.13"/>
</a>
</g>
</g>
<!-- Node19&#45;&gt;Node7 -->
<g id="edge23_Node000019_Node000007" class="edge">
<title>Node19&#45;&gt;Node7</title>
<g id="a_edge23_Node000019_Node000007"><a xlink:title=" ">
<path fill="none" stroke="#63b8ff" d="M1004.01,-164.98C986.07,-156.5 958.28,-143.35 937.57,-133.54"/>
<polygon fill="#63b8ff" stroke="#63b8ff" points="938.86,-130.28 928.32,-129.17 935.86,-136.61 938.86,-130.28"/>
</a>
</g>
</g>
<!-- Node19&#45;&gt;Node9 -->
<g id="edge22_Node000019_Node000009" class="edge">
<title>Node19&#45;&gt;Node9</title>
<g id="a_edge22_Node000019_Node000009"><a xlink:title=" ">
<path fill="none" stroke="#63b8ff" d="M1018.96,-164.88C1013.79,-151.39 1002.05,-125.26 984,-110 965.5,-94.36 940.86,-83.82 919.22,-76.95"/>
<polygon fill="#63b8ff" stroke="#63b8ff" points="920.11,-73.56 909.52,-74.04 918.1,-80.26 920.11,-73.56"/>
</a>
</g>
</g>
<!-- Node19&#45;&gt;Node10 -->
<g id="edge24_Node000019_Node000010" class="edge">
<title>Node19&#45;&gt;Node10</title>
<g id="a_edge24_Node000019_Node000010"><a xlink:title=" ">
<path fill="none" stroke="#63b8ff" d="M1021.59,-164.66C1020.78,-147.17 1018.96,-107.8 1017.87,-84.27"/>
<polygon fill="#63b8ff" stroke="#63b8ff" points="1021.36,-83.99 1017.4,-74.16 1014.37,-84.31 1021.36,-83.99"/>
</a>
</g>
</g>
<!-- Node20 -->
<g id="Node000020" class="node">
<title>Node20</title>
<g id="a_Node000020"><a xlink:href="_traverser_8h.html" target="_top" xlink:title=" ">
<polygon fill="white" stroke="#666666" points="1183,-129 1069,-129 1069,-110 1183,-110 1183,-129"/>
<text text-anchor="middle" x="1126" y="-117" font-family="Helvetica,sans-Serif" font-size="10.00">Cpl/Type/Traverser.h</text>
</a>
</g>
</g>
<!-- Node19&#45;&gt;Node20 -->
<g id="edge25_Node000019_Node000020" class="edge">
<title>Node19&#45;&gt;Node20</title>
<g id="a_edge25_Node000019_Node000020"><a xlink:title=" ">
<path fill="none" stroke="#63b8ff" d="M1038.71,-164.98C1055.21,-156.57 1080.7,-143.59 1099.88,-133.81"/>
<polygon fill="#63b8ff" stroke="#63b8ff" points="1101.67,-136.83 1108.99,-129.17 1098.49,-130.59 1101.67,-136.83"/>
</a>
</g>
</g>
<!-- Node21 -->
<g id="Node000021" class="node">
<title>Node21</title>
<g id="a_Node000021"><a xlink:title=" ">
<polygon fill="#e0e0e0" stroke="#999999" points="1254.5,-129 1201.5,-129 1201.5,-110 1254.5,-110 1254.5,-129"/>
<text text-anchor="middle" x="1228" y="-117" font-family="Helvetica,sans-Serif" font-size="10.00">stdlib.h</text>
</a>
</g>
</g>
<!-- Node19&#45;&gt;Node21 -->
<g id="edge26_Node000019_Node000021" class="edge">
<title>Node19&#45;&gt;Node21</title>
<g id="a_edge26_Node000019_Node000021"><a xlink:title=" ">
<path fill="none" stroke="#63b8ff" d="M1055.1,-164.98C1092.37,-155.4 1152.76,-139.86 1191.41,-129.91"/>
<polygon fill="#63b8ff" stroke="#63b8ff" points="1192.41,-133.27 1201.22,-127.39 1190.66,-126.49 1192.41,-133.27"/>
</a>
</g>
</g>
<!-- Node22&#45;&gt;Node11 -->
<g id="edge29_Node000022_Node000011" class="edge">
<title>Node22&#45;&gt;Node11</title>
<g id="a_edge29_Node000022_Node000011"><a xlink:title=" ">
<path fill="none" stroke="#63b8ff" d="M235.75,-55.75C238.53,-55.49 241.29,-55.23 244,-55 503.42,-32.65 812.82,-18.65 948.04,-13.15"/>
<polygon fill="#63b8ff" stroke="#63b8ff" points="948.4,-16.64 958.25,-12.74 948.12,-9.65 948.4,-16.64"/>
</a>
</g>
</g>
<!-- Node22&#45;&gt;Node14 -->
<g id="edge30_Node000022_Node000014" class="edge">
<title>Node22&#45;&gt;Node14</title>
<g id="a_edge30_Node000022_Node000014"><a xlink:title=" ">
<path fill="none" stroke="#63b8ff" d="M185.75,-54.98C201.23,-46.61 225.09,-33.7 243.14,-23.95"/>
<polygon fill="#63b8ff" stroke="#63b8ff" points="244.84,-27.01 251.97,-19.17 241.51,-20.85 244.84,-27.01"/>
</a>
</g>
</g>
<!-- Node23&#45;&gt;Node22 -->
<g id="edge32_Node000023_Node000022" class="edge">
<title>Node23&#45;&gt;Node22</title>
<g id="a_edge32_Node000023_Node000022"><a xlink:title=" ">
<path fill="none" stroke="#63b8ff" d="M79.1,-164.66C95.72,-146.54 133.87,-104.91 155.09,-81.77"/>
<polygon fill="#63b8ff" stroke="#63b8ff" points="157.89,-83.89 162.06,-74.16 152.73,-79.16 157.89,-83.89"/>
</a>
</g>
</g>
<!-- Node24&#45;&gt;Node10 -->
<g id="edge39_Node000024_Node000010" class="edge">
<title>Node24&#45;&gt;Node10</title>
<g id="a_edge39_Node000024_Node000010"><a xlink:title=" ">
<path fill="none" stroke="#63b8ff" d="M1325.55,-164.87C1314.58,-150.88 1290.86,-123.46 1264,-110 1209.79,-82.82 1141.53,-72.04 1090.51,-67.87"/>
<polygon fill="#63b8ff" stroke="#63b8ff" points="1090.46,-64.35 1080.22,-67.09 1089.93,-71.33 1090.46,-64.35"/>
</a>
</g>
</g>
<!-- Node25 -->
<g id="Node000025" class="node">
<title>Node25</title>
<g id="a_Node000025"><a xlink:href="_post_api_8h.html" target="_top" xlink:title=" ">
<polygon fill="white" stroke="#666666" points="1407,-129 1311,-129 1311,-110 1407,-110 1407,-129"/>
<text text-anchor="middle" x="1359" y="-117" font-family="Helvetica,sans-Serif" font-size="10.00">Cpl/Itc/PostApi.h</text>
</a>
</g>
</g>
<!-- Node24&#45;&gt;Node25 -->
<g id="edge34_Node000024_Node000025" class="edge">
<title>Node24&#45;&gt;Node25</title>
<g id="a_edge34_Node000024_Node000025"><a xlink:title=" ">
<path fill="none" stroke="#63b8ff" d="M1336.46,-164.75C1340.12,-157.57 1345.41,-147.18 1349.95,-138.27"/>
<polygon fill="#63b8ff" stroke="#63b8ff" points="1353.2,-139.59 1354.62,-129.09 1346.97,-136.41 1353.2,-139.59"/>
</a>
</g>
</g>
<!-- Node27 -->
<g id="Node000027" class="node">
<title>Node27</title>
<g id="a_Node000027"><a xlink:href="_s_list_8h.html" target="_top" xlink:title=" ">
<polygon fill="white" stroke="#666666" points="1455,-74 1337,-74 1337,-55 1455,-55 1455,-74"/>
<text text-anchor="middle" x="1396" y="-62" font-family="Helvetica,sans-Serif" font-size="10.00">Cpl/Container/SList.h</text>
</a>
</g>
</g>
<!-- Node24&#45;&gt;Node27 -->
<g id="edge37_Node000024_Node000027" class="edge">
<title>Node24&#45;&gt;Node27</title>
<g id="a_edge37_Node000024_Node000027"><a xlink:title=" ">
<path fill="none" stroke="#63b8ff" d="M1365.4,-164.98C1383.78,-158.4 1405.02,-147.24 1416,-129 1424.63,-114.66 1417.09,-96.22 1408.92,-82.91"/>
<polygon fill="#63b8ff" stroke="#63b8ff" points="1411.57,-80.58 1403.08,-74.25 1405.77,-84.5 1411.57,-80.58"/>
</a>
</g>
</g>
<!-- Node26 -->
<g id="Node000026" class="node">
<title>Node26</title>
<g id="a_Node000026"><a xlink:href="_message_8h.html" target="_top" xlink:title=" ">
<polygon fill="white" stroke="#666666" points="1279.5,-74 1176.5,-74 1176.5,-55 1279.5,-55 1279.5,-74"/>
<text text-anchor="middle" x="1228" y="-62" font-family="Helvetica,sans-Serif" font-size="10.00">Cpl/Itc/Message.h</text>
</a>
</g>
</g>
<!-- Node25&#45;&gt;Node26 -->
<g id="edge35_Node000025_Node000026" class="edge">
<title>Node25&#45;&gt;Node26</title>
<g id="a_edge35_Node000025_Node000026"><a xlink:title=" ">
<path fill="none" stroke="#63b8ff" d="M1337.95,-109.98C1316.59,-101.34 1283.3,-87.87 1258.94,-78.02"/>
<polygon fill="#63b8ff" stroke="#63b8ff" points="1260.01,-74.68 1249.43,-74.17 1257.39,-81.17 1260.01,-74.68"/>
</a>
</g>
</g>
<!-- Node26&#45;&gt;Node11 -->
<g id="edge36_Node000026_Node000011" class="edge">
<title>Node26&#45;&gt;Node11</title>
<g id="a_edge36_Node000026_Node000011"><a xlink:title=" ">
<path fill="none" stroke="#63b8ff" d="M1194.1,-54.98C1157.98,-45.91 1100.68,-31.52 1061.08,-21.57"/>
<polygon fill="#63b8ff" stroke="#63b8ff" points="1061.72,-18.12 1051.17,-19.08 1060.01,-24.91 1061.72,-18.12"/>
</a>
</g>
</g>
<!-- Node27&#45;&gt;Node11 -->
<g id="edge38_Node000027_Node000011" class="edge">
<title>Node27&#45;&gt;Node11</title>
<g id="a_edge38_Node000027_Node000011"><a xlink:title=" ">
<path fill="none" stroke="#63b8ff" d="M1336.78,-55.22C1268.92,-45.73 1157.85,-30.2 1086.09,-20.16"/>
<polygon fill="#63b8ff" stroke="#63b8ff" points="1086.19,-16.64 1075.8,-18.72 1085.22,-23.57 1086.19,-16.64"/>
</a>
</g>
</g>
<!-- Node28&#45;&gt;Node4 -->
<g id="edge43_Node000028_Node000004" class="edge">
<title>Node28&#45;&gt;Node4</title>
<g id="a_edge43_Node000028_Node000004"><a xlink:title=" ">
<path fill="none" stroke="#63b8ff" d="M1141.29,-329.98C1124.79,-321.57 1099.3,-308.59 1080.12,-298.81"/>
<polygon fill="#63b8ff" stroke="#63b8ff" points="1081.51,-295.59 1071.01,-294.17 1078.33,-301.83 1081.51,-295.59"/>
</a>
</g>
</g>
<!-- Node28&#45;&gt;Node29 -->
<g id="edge41_Node000028_Node000029" class="edge">
<title>Node28&#45;&gt;Node29</title>
<g id="a_edge41_Node000028_Node000029"><a xlink:title=" ">
<path fill="none" stroke="#63b8ff" d="M1169.25,-329.98C1179.8,-322 1195.8,-309.88 1208.44,-300.31"/>
<polygon fill="#63b8ff" stroke="#63b8ff" points="1210.69,-303 1216.55,-294.17 1206.46,-297.42 1210.69,-303"/>
</a>
</g>
</g>
<!-- Node29&#45;&gt;Node21 -->
<g id="edge42_Node000029_Node000021" class="edge">
<title>Node29&#45;&gt;Node21</title>
<g id="a_edge42_Node000029_Node000021"><a xlink:title=" ">
<path fill="none" stroke="#63b8ff" d="M1228,-274.74C1228,-249.31 1228,-175.08 1228,-139.69"/>
<polygon fill="#63b8ff" stroke="#63b8ff" points="1231.5,-139.31 1228,-129.31 1224.5,-139.31 1231.5,-139.31"/>
</a>
</g>
</g>
</g>
</svg>
