<?xml version="1.0" encoding="UTF-8" standalone="no"?>
<!DOCTYPE svg PUBLIC "-//W3C//DTD SVG 1.1//EN"
 "http://www.w3.org/Graphics/SVG/1.1/DTD/svg11.dtd">
<!-- Generated by graphviz version 2.43.0 (0)
 -->
<!-- Title: Cpl/Io/Stdio/InputOutput_.h Pages: 1 -->
<svg width="523pt" height="357pt"
 viewBox="0.00 0.00 523.00 357.00" xmlns="http://www.w3.org/2000/svg" xmlns:xlink="http://www.w3.org/1999/xlink">
<g id="graph0" class="graph" transform="scale(1 1) rotate(0) translate(4 353)">
<title>Cpl/Io/Stdio/InputOutput_.h</title>
<!-- Node1 -->
<g id="Node000001" class="node">
<title>Node1</title>
<g id="a_Node000001"><a xlink:title=" ">
<polygon fill="#999999" stroke="#666666" points="360,-349 213,-349 213,-330 360,-330 360,-349"/>
<text text-anchor="middle" x="286.5" y="-337" font-family="Helvetica,sans-Serif" font-size="10.00">Cpl/Io/Stdio/InputOutput_.h</text>
</a>
</g>
</g>
<!-- Node2 -->
<g id="Node000002" class="node">
<title>Node2</title>
<g id="a_Node000002"><a xlink:href="_input_output_8h.html" target="_top" xlink:title=" ">
<polygon fill="white" stroke="#666666" points="211.5,-294 97.5,-294 97.5,-275 211.5,-275 211.5,-294"/>
<text text-anchor="middle" x="154.5" y="-282" font-family="Helvetica,sans-Serif" font-size="10.00">Cpl/Io/InputOutput.h</text>
</a>
</g>
</g>
<!-- Node1&#45;&gt;Node2 -->
<g id="edge1_Node000001_Node000002" class="edge">
<title>Node1&#45;&gt;Node2</title>
<g id="a_edge1_Node000001_Node000002"><a xlink:title=" ">
<path fill="none" stroke="#63b8ff" d="M265.29,-329.98C243.77,-321.34 210.22,-307.87 185.67,-298.02"/>
<polygon fill="#63b8ff" stroke="#63b8ff" points="186.68,-294.65 176.09,-294.17 184.07,-301.14 186.68,-294.65"/>
</a>
</g>
</g>
<!-- Node18 -->
<g id="Node000018" class="node">
<title>Node18</title>
<g id="a_Node000018"><a xlink:href="_input___8h.html" target="_top" xlink:title=" ">
<polygon fill="white" stroke="#666666" points="343.5,-294 229.5,-294 229.5,-275 343.5,-275 343.5,-294"/>
<text text-anchor="middle" x="286.5" y="-282" font-family="Helvetica,sans-Serif" font-size="10.00">Cpl/Io/Stdio/Input_.h</text>
</a>
</g>
</g>
<!-- Node1&#45;&gt;Node18 -->
<g id="edge22_Node000001_Node000018" class="edge">
<title>Node1&#45;&gt;Node18</title>
<g id="a_edge22_Node000001_Node000018"><a xlink:title=" ">
<path fill="none" stroke="#63b8ff" d="M286.5,-329.75C286.5,-322.8 286.5,-312.85 286.5,-304.13"/>
<polygon fill="#63b8ff" stroke="#63b8ff" points="290,-304.09 286.5,-294.09 283,-304.09 290,-304.09"/>
</a>
</g>
</g>
<!-- Node20 -->
<g id="Node000020" class="node">
<title>Node20</title>
<g id="a_Node000020"><a xlink:href="_output___8h.html" target="_top" xlink:title=" ">
<polygon fill="white" stroke="#666666" points="483.5,-294 361.5,-294 361.5,-275 483.5,-275 483.5,-294"/>
<text text-anchor="middle" x="422.5" y="-282" font-family="Helvetica,sans-Serif" font-size="10.00">Cpl/Io/Stdio/Output_.h</text>
</a>
</g>
</g>
<!-- Node1&#45;&gt;Node20 -->
<g id="edge25_Node000001_Node000020" class="edge">
<title>Node1&#45;&gt;Node20</title>
<g id="a_edge25_Node000001_Node000020"><a xlink:title=" ">
<path fill="none" stroke="#63b8ff" d="M308.35,-329.98C330.62,-321.3 365.4,-307.75 390.72,-297.88"/>
<polygon fill="#63b8ff" stroke="#63b8ff" points="392.21,-301.06 400.25,-294.17 389.66,-294.54 392.21,-301.06"/>
</a>
</g>
</g>
<!-- Node3 -->
<g id="Node000003" class="node">
<title>Node3</title>
<g id="a_Node000003"><a xlink:href="_input_8h.html" target="_top" xlink:title=" ">
<polygon fill="white" stroke="#666666" points="220,-239 139,-239 139,-220 220,-220 220,-239"/>
<text text-anchor="middle" x="179.5" y="-227" font-family="Helvetica,sans-Serif" font-size="10.00">Cpl/Io/Input.h</text>
</a>
</g>
</g>
<!-- Node2&#45;&gt;Node3 -->
<g id="edge2_Node000002_Node000003" class="edge">
<title>Node2&#45;&gt;Node3</title>
<g id="a_edge2_Node000002_Node000003"><a xlink:title=" ">
<path fill="none" stroke="#63b8ff" d="M158.63,-274.75C162.01,-267.57 166.92,-257.18 171.12,-248.27"/>
<polygon fill="#63b8ff" stroke="#63b8ff" points="174.35,-249.63 175.45,-239.09 168.02,-246.64 174.35,-249.63"/>
</a>
</g>
</g>
<!-- Node17 -->
<g id="Node000017" class="node">
<title>Node17</title>
<g id="a_Node000017"><a xlink:href="_output_8h.html" target="_top" xlink:title=" ">
<polygon fill="white" stroke="#666666" points="329,-239 240,-239 240,-220 329,-220 329,-239"/>
<text text-anchor="middle" x="284.5" y="-227" font-family="Helvetica,sans-Serif" font-size="10.00">Cpl/Io/Output.h</text>
</a>
</g>
</g>
<!-- Node2&#45;&gt;Node17 -->
<g id="edge17_Node000002_Node000017" class="edge">
<title>Node2&#45;&gt;Node17</title>
<g id="a_edge17_Node000002_Node000017"><a xlink:title=" ">
<path fill="none" stroke="#63b8ff" d="M175.39,-274.98C196.58,-266.34 229.63,-252.87 253.8,-243.02"/>
<polygon fill="#63b8ff" stroke="#63b8ff" points="255.29,-246.19 263.23,-239.17 252.65,-239.7 255.29,-246.19"/>
</a>
</g>
</g>
<!-- Node4 -->
<g id="Node000004" class="node">
<title>Node4</title>
<g id="a_Node000004"><a xlink:href="_text_2_string_8h.html" target="_top" xlink:title=" ">
<polygon fill="white" stroke="#666666" points="334.5,-184 238.5,-184 238.5,-165 334.5,-165 334.5,-184"/>
<text text-anchor="middle" x="286.5" y="-172" font-family="Helvetica,sans-Serif" font-size="10.00">Cpl/Text/String.h</text>
</a>
</g>
</g>
<!-- Node3&#45;&gt;Node4 -->
<g id="edge3_Node000003_Node000004" class="edge">
<title>Node3&#45;&gt;Node4</title>
<g id="a_edge3_Node000003_Node000004"><a xlink:title=" ">
<path fill="none" stroke="#63b8ff" d="M196.69,-219.98C213.75,-211.54 240.13,-198.47 259.9,-188.68"/>
<polygon fill="#63b8ff" stroke="#63b8ff" points="261.59,-191.75 269,-184.17 258.48,-185.47 261.59,-191.75"/>
</a>
</g>
</g>
<!-- Node14 -->
<g id="Node000014" class="node">
<title>Node14</title>
<g id="a_Node000014"><a xlink:href="_close_8h.html" target="_top" xlink:title=" ">
<polygon fill="white" stroke="#666666" points="120,-184 37,-184 37,-165 120,-165 120,-184"/>
<text text-anchor="middle" x="78.5" y="-172" font-family="Helvetica,sans-Serif" font-size="10.00">Cpl/Io/Close.h</text>
</a>
</g>
</g>
<!-- Node3&#45;&gt;Node14 -->
<g id="edge14_Node000003_Node000014" class="edge">
<title>Node3&#45;&gt;Node14</title>
<g id="a_edge14_Node000003_Node000014"><a xlink:title=" ">
<path fill="none" stroke="#63b8ff" d="M163.27,-219.98C147.32,-211.61 122.72,-198.7 104.12,-188.95"/>
<polygon fill="#63b8ff" stroke="#63b8ff" points="105.5,-185.72 95.02,-184.17 102.25,-191.92 105.5,-185.72"/>
</a>
</g>
</g>
<!-- Node16 -->
<g id="Node000016" class="node">
<title>Node16</title>
<g id="a_Node000016"><a xlink:href="_is_eos_8h.html" target="_top" xlink:title=" ">
<polygon fill="white" stroke="#666666" points="220.5,-184 138.5,-184 138.5,-165 220.5,-165 220.5,-184"/>
<text text-anchor="middle" x="179.5" y="-172" font-family="Helvetica,sans-Serif" font-size="10.00">Cpl/Io/IsEos.h</text>
</a>
</g>
</g>
<!-- Node3&#45;&gt;Node16 -->
<g id="edge16_Node000003_Node000016" class="edge">
<title>Node3&#45;&gt;Node16</title>
<g id="a_edge16_Node000003_Node000016"><a xlink:title=" ">
<path fill="none" stroke="#63b8ff" d="M179.5,-219.75C179.5,-212.8 179.5,-202.85 179.5,-194.13"/>
<polygon fill="#63b8ff" stroke="#63b8ff" points="183,-194.09 179.5,-184.09 176,-194.09 183,-194.09"/>
</a>
</g>
</g>
<!-- Node5 -->
<g id="Node000005" class="node">
<title>Node5</title>
<g id="a_Node000005"><a xlink:title=" ">
<polygon fill="#e0e0e0" stroke="#999999" points="224,-74 139,-74 139,-55 224,-55 224,-74"/>
<text text-anchor="middle" x="181.5" y="-62" font-family="Helvetica,sans-Serif" font-size="10.00">colony_map.h</text>
</a>
</g>
</g>
<!-- Node4&#45;&gt;Node5 -->
<g id="edge4_Node000004_Node000005" class="edge">
<title>Node4&#45;&gt;Node5</title>
<g id="a_edge4_Node000004_Node000005"><a xlink:title=" ">
<path fill="none" stroke="#63b8ff" d="M277.91,-164.66C260.21,-146.46 219.46,-104.55 197.02,-81.47"/>
<polygon fill="#63b8ff" stroke="#63b8ff" points="199.4,-78.89 189.92,-74.16 194.38,-83.77 199.4,-78.89"/>
</a>
</g>
</g>
<!-- Node6 -->
<g id="Node000006" class="node">
<title>Node6</title>
<g id="a_Node000006"><a xlink:href="_key_8h.html" target="_top" xlink:title=" ">
<polygon fill="white" stroke="#666666" points="363,-129 252,-129 252,-110 363,-110 363,-129"/>
<text text-anchor="middle" x="307.5" y="-117" font-family="Helvetica,sans-Serif" font-size="10.00">Cpl/Container/Key.h</text>
</a>
</g>
</g>
<!-- Node4&#45;&gt;Node6 -->
<g id="edge5_Node000004_Node000006" class="edge">
<title>Node4&#45;&gt;Node6</title>
<g id="a_edge5_Node000004_Node000006"><a xlink:title=" ">
<path fill="none" stroke="#63b8ff" d="M289.97,-164.75C292.78,-157.65 296.84,-147.4 300.35,-138.56"/>
<polygon fill="#63b8ff" stroke="#63b8ff" points="303.67,-139.68 304.1,-129.09 297.16,-137.1 303.67,-139.68"/>
</a>
</g>
</g>
<!-- Node12 -->
<g id="Node000012" class="node">
<title>Node12</title>
<g id="a_Node000012"><a xlink:title=" ">
<polygon fill="#e0e0e0" stroke="#999999" points="437.5,-129 381.5,-129 381.5,-110 437.5,-110 437.5,-129"/>
<text text-anchor="middle" x="409.5" y="-117" font-family="Helvetica,sans-Serif" font-size="10.00">stdarg.h</text>
</a>
</g>
</g>
<!-- Node4&#45;&gt;Node12 -->
<g id="edge12_Node000004_Node000012" class="edge">
<title>Node4&#45;&gt;Node12</title>
<g id="a_edge12_Node000004_Node000012"><a xlink:title=" ">
<path fill="none" stroke="#63b8ff" d="M306.26,-164.98C326.23,-156.38 357.3,-142.99 380.15,-133.15"/>
<polygon fill="#63b8ff" stroke="#63b8ff" points="381.58,-136.34 389.38,-129.17 378.81,-129.91 381.58,-136.34"/>
</a>
</g>
</g>
<!-- Node13 -->
<g id="Node000013" class="node">
<title>Node13</title>
<g id="a_Node000013"><a xlink:title=" ">
<polygon fill="#e0e0e0" stroke="#999999" points="195.5,-129 135.5,-129 135.5,-110 195.5,-110 195.5,-129"/>
<text text-anchor="middle" x="165.5" y="-117" font-family="Helvetica,sans-Serif" font-size="10.00">iostream</text>
</a>
</g>
</g>
<!-- Node4&#45;&gt;Node13 -->
<g id="edge13_Node000004_Node000013" class="edge">
<title>Node4&#45;&gt;Node13</title>
<g id="a_edge13_Node000004_Node000013"><a xlink:title=" ">
<path fill="none" stroke="#63b8ff" d="M267.06,-164.98C247.51,-156.42 217.12,-143.11 194.68,-133.28"/>
<polygon fill="#63b8ff" stroke="#63b8ff" points="195.86,-129.98 185.29,-129.17 193.05,-136.39 195.86,-129.98"/>
</a>
</g>
</g>
<!-- Node6&#45;&gt;Node5 -->
<g id="edge11_Node000006_Node000005" class="edge">
<title>Node6&#45;&gt;Node5</title>
<g id="a_edge11_Node000006_Node000005"><a xlink:title=" ">
<path fill="none" stroke="#63b8ff" d="M287.26,-109.98C266.8,-101.38 234.97,-87.99 211.57,-78.15"/>
<polygon fill="#63b8ff" stroke="#63b8ff" points="212.69,-74.82 202.11,-74.17 209.97,-81.27 212.69,-74.82"/>
</a>
</g>
</g>
<!-- Node7 -->
<g id="Node000007" class="node">
<title>Node7</title>
<g id="a_Node000007"><a xlink:href="_fatal_error_8h.html" target="_top" xlink:title=" ">
<polygon fill="white" stroke="#666666" points="372.5,-74 242.5,-74 242.5,-55 372.5,-55 372.5,-74"/>
<text text-anchor="middle" x="307.5" y="-62" font-family="Helvetica,sans-Serif" font-size="10.00">Cpl/System/FatalError.h</text>
</a>
</g>
</g>
<!-- Node6&#45;&gt;Node7 -->
<g id="edge6_Node000006_Node000007" class="edge">
<title>Node6&#45;&gt;Node7</title>
<g id="a_edge6_Node000006_Node000007"><a xlink:title=" ">
<path fill="none" stroke="#63b8ff" d="M307.5,-109.75C307.5,-102.8 307.5,-92.85 307.5,-84.13"/>
<polygon fill="#63b8ff" stroke="#63b8ff" points="311,-84.09 307.5,-74.09 304,-84.09 311,-84.09"/>
</a>
</g>
</g>
<!-- Node10 -->
<g id="Node000010" class="node">
<title>Node10</title>
<g id="a_Node000010"><a xlink:title=" ">
<polygon fill="#e0e0e0" stroke="#999999" points="444,-74 391,-74 391,-55 444,-55 444,-74"/>
<text text-anchor="middle" x="417.5" y="-62" font-family="Helvetica,sans-Serif" font-size="10.00">stdint.h</text>
</a>
</g>
</g>
<!-- Node6&#45;&gt;Node10 -->
<g id="edge9_Node000006_Node000010" class="edge">
<title>Node6&#45;&gt;Node10</title>
<g id="a_edge9_Node000006_Node000010"><a xlink:title=" ">
<path fill="none" stroke="#63b8ff" d="M325.17,-109.98C342.79,-101.5 370.08,-88.35 390.43,-78.54"/>
<polygon fill="#63b8ff" stroke="#63b8ff" points="392.02,-81.66 399.51,-74.17 388.98,-75.36 392.02,-81.66"/>
</a>
</g>
</g>
<!-- Node11 -->
<g id="Node000011" class="node">
<title>Node11</title>
<g id="a_Node000011"><a xlink:title=" ">
<polygon fill="#e0e0e0" stroke="#999999" points="515,-74 462,-74 462,-55 515,-55 515,-74"/>
<text text-anchor="middle" x="488.5" y="-62" font-family="Helvetica,sans-Serif" font-size="10.00">string.h</text>
</a>
</g>
</g>
<!-- Node6&#45;&gt;Node11 -->
<g id="edge10_Node000006_Node000011" class="edge">
<title>Node6&#45;&gt;Node11</title>
<g id="a_edge10_Node000006_Node000011"><a xlink:title=" ">
<path fill="none" stroke="#63b8ff" d="M336.58,-109.98C367.92,-100.81 417.85,-86.19 451.85,-76.23"/>
<polygon fill="#63b8ff" stroke="#63b8ff" points="453.24,-79.47 461.85,-73.3 451.27,-72.75 453.24,-79.47"/>
</a>
</g>
</g>
<!-- Node8 -->
<g id="Node000008" class="node">
<title>Node8</title>
<g id="a_Node000008"><a xlink:title=" ">
<polygon fill="#e0e0e0" stroke="#999999" points="289.5,-19 233.5,-19 233.5,0 289.5,0 289.5,-19"/>
<text text-anchor="middle" x="261.5" y="-7" font-family="Helvetica,sans-Serif" font-size="10.00">stddef.h</text>
</a>
</g>
</g>
<!-- Node7&#45;&gt;Node8 -->
<g id="edge7_Node000007_Node000008" class="edge">
<title>Node7&#45;&gt;Node8</title>
<g id="a_edge7_Node000007_Node000008"><a xlink:title=" ">
<path fill="none" stroke="#63b8ff" d="M299.9,-54.75C293.34,-47.18 283.68,-36.05 275.69,-26.84"/>
<polygon fill="#63b8ff" stroke="#63b8ff" points="278.15,-24.35 268.95,-19.09 272.87,-28.94 278.15,-24.35"/>
</a>
</g>
</g>
<!-- Node9 -->
<g id="Node000009" class="node">
<title>Node9</title>
<g id="a_Node000009"><a xlink:title=" ">
<polygon fill="#e0e0e0" stroke="#999999" points="399.5,-19 307.5,-19 307.5,0 399.5,0 399.5,-19"/>
<text text-anchor="middle" x="353.5" y="-7" font-family="Helvetica,sans-Serif" font-size="10.00">colony_config.h</text>
</a>
</g>
</g>
<!-- Node7&#45;&gt;Node9 -->
<g id="edge8_Node000007_Node000009" class="edge">
<title>Node7&#45;&gt;Node9</title>
<g id="a_edge8_Node000007_Node000009"><a xlink:title=" ">
<path fill="none" stroke="#63b8ff" d="M315.1,-54.75C321.66,-47.18 331.32,-36.05 339.31,-26.84"/>
<polygon fill="#63b8ff" stroke="#63b8ff" points="342.13,-28.94 346.05,-19.09 336.85,-24.35 342.13,-28.94"/>
</a>
</g>
</g>
<!-- Node15 -->
<g id="Node000015" class="node">
<title>Node15</title>
<g id="a_Node000015"><a xlink:href="_item_8h.html" target="_top" xlink:title=" ">
<polygon fill="white" stroke="#666666" points="117,-129 0,-129 0,-110 117,-110 117,-129"/>
<text text-anchor="middle" x="58.5" y="-117" font-family="Helvetica,sans-Serif" font-size="10.00">Cpl/Container/Item.h</text>
</a>
</g>
</g>
<!-- Node14&#45;&gt;Node15 -->
<g id="edge15_Node000014_Node000015" class="edge">
<title>Node14&#45;&gt;Node15</title>
<g id="a_edge15_Node000014_Node000015"><a xlink:title=" ">
<path fill="none" stroke="#63b8ff" d="M75.2,-164.75C72.52,-157.65 68.65,-147.4 65.31,-138.56"/>
<polygon fill="#63b8ff" stroke="#63b8ff" points="68.55,-137.21 61.74,-129.09 62,-139.68 68.55,-137.21"/>
</a>
</g>
</g>
<!-- Node17&#45;&gt;Node4 -->
<g id="edge18_Node000017_Node000004" class="edge">
<title>Node17&#45;&gt;Node4</title>
<g id="a_edge18_Node000017_Node000004"><a xlink:title=" ">
<path fill="none" stroke="#63b8ff" d="M284.83,-219.75C285.09,-212.8 285.47,-202.85 285.8,-194.13"/>
<polygon fill="#63b8ff" stroke="#63b8ff" points="289.3,-194.21 286.18,-184.09 282.3,-193.95 289.3,-194.21"/>
</a>
</g>
</g>
<!-- Node17&#45;&gt;Node12 -->
<g id="edge21_Node000017_Node000012" class="edge">
<title>Node17&#45;&gt;Node12</title>
<g id="a_edge21_Node000017_Node000012"><a xlink:title=" ">
<path fill="none" stroke="#63b8ff" d="M297.04,-219.71C309.22,-211.02 328.08,-197.15 343.5,-184 361.53,-168.62 380.94,-149.62 394.01,-136.43"/>
<polygon fill="#63b8ff" stroke="#63b8ff" points="396.75,-138.64 401.26,-129.06 391.76,-133.74 396.75,-138.64"/>
</a>
</g>
</g>
<!-- Node17&#45;&gt;Node14 -->
<g id="edge19_Node000017_Node000014" class="edge">
<title>Node17&#45;&gt;Node14</title>
<g id="a_edge19_Node000017_Node000014"><a xlink:title=" ">
<path fill="none" stroke="#63b8ff" d="M251.4,-219.98C216.22,-210.93 160.43,-196.58 121.78,-186.64"/>
<polygon fill="#63b8ff" stroke="#63b8ff" points="122.41,-183.18 111.86,-184.08 120.67,-189.96 122.41,-183.18"/>
</a>
</g>
</g>
<!-- Node17&#45;&gt;Node16 -->
<g id="edge20_Node000017_Node000016" class="edge">
<title>Node17&#45;&gt;Node16</title>
<g id="a_edge20_Node000017_Node000016"><a xlink:title=" ">
<path fill="none" stroke="#63b8ff" d="M267.63,-219.98C250.89,-211.54 225,-198.47 205.61,-188.68"/>
<polygon fill="#63b8ff" stroke="#63b8ff" points="207.18,-185.55 196.68,-184.17 204.03,-191.8 207.18,-185.55"/>
</a>
</g>
</g>
<!-- Node18&#45;&gt;Node3 -->
<g id="edge23_Node000018_Node000003" class="edge">
<title>Node18&#45;&gt;Node3</title>
<g id="a_edge23_Node000018_Node000003"><a xlink:title=" ">
<path fill="none" stroke="#63b8ff" d="M269.31,-274.98C252.25,-266.54 225.87,-253.47 206.1,-243.68"/>
<polygon fill="#63b8ff" stroke="#63b8ff" points="207.52,-240.47 197,-239.17 204.41,-246.75 207.52,-240.47"/>
</a>
</g>
</g>
<!-- Node19 -->
<g id="Node000019" class="node">
<title>Node19</title>
<g id="a_Node000019"><a xlink:href="_descriptor_8h.html" target="_top" xlink:title=" ">
<polygon fill="white" stroke="#666666" points="463.5,-239 357.5,-239 357.5,-220 463.5,-220 463.5,-239"/>
<text text-anchor="middle" x="410.5" y="-227" font-family="Helvetica,sans-Serif" font-size="10.00">Cpl/Io/Descriptor.h</text>
</a>
</g>
</g>
<!-- Node18&#45;&gt;Node19 -->
<g id="edge24_Node000018_Node000019" class="edge">
<title>Node18&#45;&gt;Node19</title>
<g id="a_edge24_Node000018_Node000019"><a xlink:title=" ">
<path fill="none" stroke="#63b8ff" d="M306.42,-274.98C326.55,-266.38 357.88,-252.99 380.91,-243.15"/>
<polygon fill="#63b8ff" stroke="#63b8ff" points="382.4,-246.32 390.21,-239.17 379.64,-239.88 382.4,-246.32"/>
</a>
</g>
</g>
<!-- Node20&#45;&gt;Node17 -->
<g id="edge26_Node000020_Node000017" class="edge">
<title>Node20&#45;&gt;Node17</title>
<g id="a_edge26_Node000020_Node000017"><a xlink:title=" ">
<path fill="none" stroke="#63b8ff" d="M400.33,-274.98C377.73,-266.3 342.44,-252.75 316.75,-242.88"/>
<polygon fill="#63b8ff" stroke="#63b8ff" points="317.67,-239.49 307.08,-239.17 315.16,-246.02 317.67,-239.49"/>
</a>
</g>
</g>
<!-- Node20&#45;&gt;Node19 -->
<g id="edge27_Node000020_Node000019" class="edge">
<title>Node20&#45;&gt;Node19</title>
<g id="a_edge27_Node000020_Node000019"><a xlink:title=" ">
<path fill="none" stroke="#63b8ff" d="M420.52,-274.75C418.93,-267.72 416.64,-257.62 414.65,-248.84"/>
<polygon fill="#63b8ff" stroke="#63b8ff" points="418.07,-248.07 412.44,-239.09 411.24,-249.62 418.07,-248.07"/>
</a>
</g>
</g>
</g>
</svg>
