<?xml version="1.0" encoding="UTF-8" standalone="no"?>
<!DOCTYPE svg PUBLIC "-//W3C//DTD SVG 1.1//EN"
 "http://www.w3.org/Graphics/SVG/1.1/DTD/svg11.dtd">
<!-- Generated by graphviz version 2.43.0 (0)
 -->
<!-- Title: Cpl/Io/Input.h Pages: 1 -->
<svg width="2745pt" height="335pt"
 viewBox="0.00 0.00 2744.75 335.00" xmlns="http://www.w3.org/2000/svg" xmlns:xlink="http://www.w3.org/1999/xlink">
<g id="graph0" class="graph" transform="scale(1 1) rotate(0) translate(4 331)">
<title>Cpl/Io/Input.h</title>
<!-- Node1 -->
<g id="Node000001" class="node">
<title>Node1</title>
<g id="a_Node000001"><a xlink:title=" ">
<polygon fill="#999999" stroke="#666666" points="1815,-327 1734,-327 1734,-308 1815,-308 1815,-327"/>
<text text-anchor="middle" x="1774.5" y="-315" font-family="Helvetica,sans-Serif" font-size="10.00">Cpl/Io/Input.h</text>
</a>
</g>
</g>
<!-- Node2 -->
<g id="Node000002" class="node">
<title>Node2</title>
<g id="a_Node000002"><a xlink:href="_input_api_8h.html" target="_top" xlink:title=" ">
<polygon fill="white" stroke="#666666" points="253,-272 136,-272 136,-253 253,-253 253,-272"/>
<text text-anchor="middle" x="194.5" y="-260" font-family="Helvetica,sans-Serif" font-size="10.00">Cpl/Io/File/InputApi.h</text>
</a>
</g>
</g>
<!-- Node1&#45;&gt;Node2 -->
<g id="edge1_Node000001_Node000002" class="edge">
<title>Node1&#45;&gt;Node2</title>
<g id="a_edge1_Node000001_Node000002"><a xlink:title=" ">
<path fill="none" stroke="#63b8ff" d="M1723.76,-315.35C1539.32,-311.07 887.11,-295.13 349.5,-272 317.73,-270.63 282.31,-268.72 253.37,-267.06"/>
<polygon fill="#63b8ff" stroke="#63b8ff" points="1723.89,-318.85 1733.96,-315.58 1724.05,-311.85 1723.89,-318.85"/>
</a>
</g>
</g>
<!-- Node7 -->
<g id="Node000007" class="node">
<title>Node7</title>
<g id="a_Node000007"><a xlink:href="_input_output_8h.html" target="_top" xlink:title=" ">
<polygon fill="white" stroke="#666666" points="1002.5,-272 888.5,-272 888.5,-253 1002.5,-253 1002.5,-272"/>
<text text-anchor="middle" x="945.5" y="-260" font-family="Helvetica,sans-Serif" font-size="10.00">Cpl/Io/InputOutput.h</text>
</a>
</g>
</g>
<!-- Node1&#45;&gt;Node7 -->
<g id="edge6_Node000001_Node000007" class="edge">
<title>Node1&#45;&gt;Node7</title>
<g id="a_edge6_Node000001_Node000007"><a xlink:title=" ">
<path fill="none" stroke="#63b8ff" d="M1723.93,-313.27C1577.93,-303.93 1156.42,-276.98 1002.58,-267.15"/>
<polygon fill="#63b8ff" stroke="#63b8ff" points="1723.75,-316.76 1733.95,-313.91 1724.2,-309.78 1723.75,-316.76"/>
</a>
</g>
</g>
<!-- Node22 -->
<g id="Node000022" class="node">
<title>Node22</title>
<g id="a_Node000022"><a xlink:href="_line_reader_8h.html" target="_top" xlink:title=" ">
<polygon fill="white" stroke="#666666" points="2261.5,-272 2151.5,-272 2151.5,-253 2261.5,-253 2261.5,-272"/>
<text text-anchor="middle" x="2206.5" y="-260" font-family="Helvetica,sans-Serif" font-size="10.00">Cpl/Io/LineReader.h</text>
</a>
</g>
</g>
<!-- Node1&#45;&gt;Node22 -->
<g id="edge24_Node000001_Node000022" class="edge">
<title>Node1&#45;&gt;Node22</title>
<g id="a_edge24_Node000001_Node000022"><a xlink:title=" ">
<path fill="none" stroke="#63b8ff" d="M1825.38,-310.27C1895.6,-301.68 2026.16,-285.68 2137.5,-272 2141.93,-271.46 2146.53,-270.89 2151.14,-270.32"/>
<polygon fill="#63b8ff" stroke="#63b8ff" points="1824.56,-306.85 1815.06,-311.54 1825.41,-313.79 1824.56,-306.85"/>
</a>
</g>
</g>
<!-- Node23 -->
<g id="Node000023" class="node">
<title>Node23</title>
<g id="a_Node000023"><a xlink:href="_input___8h.html" target="_top" xlink:title=" ">
<polygon fill="white" stroke="#666666" points="472.5,-272 358.5,-272 358.5,-253 472.5,-253 472.5,-272"/>
<text text-anchor="middle" x="415.5" y="-260" font-family="Helvetica,sans-Serif" font-size="10.00">Cpl/Io/Stdio/Input_.h</text>
</a>
</g>
</g>
<!-- Node1&#45;&gt;Node23 -->
<g id="edge25_Node000001_Node000023" class="edge">
<title>Node1&#45;&gt;Node23</title>
<g id="a_edge25_Node000001_Node000023"><a xlink:title=" ">
<path fill="none" stroke="#63b8ff" d="M1723.59,-314.51C1511.15,-306.23 696.09,-274.44 472.51,-265.72"/>
<polygon fill="#63b8ff" stroke="#63b8ff" points="1723.7,-318.02 1733.83,-314.91 1723.97,-311.03 1723.7,-318.02"/>
</a>
</g>
</g>
<!-- Node25 -->
<g id="Node000025" class="node">
<title>Node25</title>
<g id="a_Node000025"><a xlink:href="_processor_api_8h.html" target="_top" xlink:title=" ">
<polygon fill="white" stroke="#666666" points="1696.5,-272 1556.5,-272 1556.5,-253 1696.5,-253 1696.5,-272"/>
<text text-anchor="middle" x="1626.5" y="-260" font-family="Helvetica,sans-Serif" font-size="10.00">Cpl/TShell/ProcessorApi.h</text>
</a>
</g>
</g>
<!-- Node1&#45;&gt;Node25 -->
<g id="edge29_Node000001_Node000025" class="edge">
<title>Node1&#45;&gt;Node25</title>
<g id="a_edge29_Node000001_Node000025"><a xlink:title=" ">
<path fill="none" stroke="#63b8ff" d="M1741.13,-304.55C1713.65,-294.71 1675.33,-280.98 1650.71,-272.17"/>
<polygon fill="#63b8ff" stroke="#63b8ff" points="1740.13,-307.91 1750.72,-307.98 1742.49,-301.32 1740.13,-307.91"/>
</a>
</g>
</g>
<!-- Node53 -->
<g id="Node000053" class="node">
<title>Node53</title>
<g id="a_Node000053"><a xlink:href="_stream_decoder_8h.html" target="_top" xlink:title=" ">
<polygon fill="white" stroke="#666666" points="1953.5,-272 1777.5,-272 1777.5,-253 1953.5,-253 1953.5,-272"/>
<text text-anchor="middle" x="1865.5" y="-260" font-family="Helvetica,sans-Serif" font-size="10.00">Cpl/Text/Frame/StreamDecoder.h</text>
</a>
</g>
</g>
<!-- Node1&#45;&gt;Node53 -->
<g id="edge50_Node000001_Node000053" class="edge">
<title>Node1&#45;&gt;Node53</title>
<g id="a_edge50_Node000001_Node000053"><a xlink:title=" ">
<path fill="none" stroke="#63b8ff" d="M1798.2,-302.7C1814.78,-293.04 1836.41,-280.44 1850.61,-272.17"/>
<polygon fill="#63b8ff" stroke="#63b8ff" points="1796,-299.93 1789.12,-307.98 1799.52,-305.98 1796,-299.93"/>
</a>
</g>
</g>
<!-- Node56 -->
<g id="Node000056" class="node">
<title>Node56</title>
<g id="a_Node000056"><a xlink:href="_pipe_8h.html" target="_top" xlink:title=" ">
<polygon fill="white" stroke="#666666" points="2223.5,-211.5 2113.5,-211.5 2113.5,-192.5 2223.5,-192.5 2223.5,-211.5"/>
<text text-anchor="middle" x="2168.5" y="-199.5" font-family="Helvetica,sans-Serif" font-size="10.00">Driver/TPipe/Pipe.h</text>
</a>
</g>
</g>
<!-- Node1&#45;&gt;Node56 -->
<g id="edge60_Node000001_Node000056" class="edge">
<title>Node1&#45;&gt;Node56</title>
<g id="a_edge60_Node000001_Node000056"><a xlink:title=" ">
<path fill="none" stroke="#63b8ff" d="M1825.42,-313.49C1904.46,-308.16 2052.45,-295.35 2099.5,-272 2128.33,-257.69 2152.37,-226.61 2162.86,-211.54"/>
<polygon fill="#63b8ff" stroke="#63b8ff" points="1824.96,-310.01 1815.21,-314.16 1825.42,-317 1824.96,-310.01"/>
</a>
</g>
</g>
<!-- Node57 -->
<g id="Node000057" class="node">
<title>Node57</title>
<g id="a_Node000057"><a xlink:href="_driver_2_pico_display_2_t_pipe_2_api_8h.html" target="_top" xlink:title="This file defines the interface for initializing the concrete implementation of the PicoDisplay drive...">
<polygon fill="white" stroke="#666666" points="2222,-151 2115,-151 2115,-121 2222,-121 2222,-151"/>
<text text-anchor="start" x="2123" y="-139" font-family="Helvetica,sans-Serif" font-size="10.00">Driver/PicoDisplay</text>
<text text-anchor="middle" x="2168.5" y="-128" font-family="Helvetica,sans-Serif" font-size="10.00">/TPipe/Api.h</text>
</a>
</g>
</g>
<!-- Node1&#45;&gt;Node57 -->
<g id="edge59_Node000001_Node000057" class="edge">
<title>Node1&#45;&gt;Node57</title>
<g id="a_edge59_Node000001_Node000057"><a xlink:title=" ">
<path fill="none" stroke="#63b8ff" d="M1825.28,-308.1C1863.71,-300.89 1917.39,-288.95 1962.5,-272 2011.45,-253.61 2022.69,-245.54 2066.5,-217 2084.53,-205.26 2087.58,-200.29 2104.5,-187 2119.91,-174.89 2137.46,-161.19 2150.27,-151.2"/>
<polygon fill="#63b8ff" stroke="#63b8ff" points="1824.56,-304.68 1815.36,-309.93 1825.82,-311.56 1824.56,-304.68"/>
</a>
</g>
</g>
<!-- Node3 -->
<g id="Node000003" class="node">
<title>Node3</title>
<g id="a_Node000003"><a xlink:href="_file_2_input_8h.html" target="_top" xlink:title=" ">
<polygon fill="white" stroke="#666666" points="101,-211.5 0,-211.5 0,-192.5 101,-192.5 101,-211.5"/>
<text text-anchor="middle" x="50.5" y="-199.5" font-family="Helvetica,sans-Serif" font-size="10.00">Cpl/Io/File/Input.h</text>
</a>
</g>
</g>
<!-- Node2&#45;&gt;Node3 -->
<g id="edge2_Node000002_Node000003" class="edge">
<title>Node2&#45;&gt;Node3</title>
<g id="a_edge2_Node000002_Node000003"><a xlink:title=" ">
<path fill="none" stroke="#63b8ff" d="M163.93,-249.08C136.11,-237.78 95.79,-221.4 71.46,-211.52"/>
<polygon fill="#63b8ff" stroke="#63b8ff" points="162.98,-252.47 173.56,-252.99 165.61,-245.99 162.98,-252.47"/>
</a>
</g>
</g>
<!-- Node4 -->
<g id="Node000004" class="node">
<title>Node4</title>
<g id="a_Node000004"><a xlink:href="_input_output_api_8h.html" target="_top" xlink:title=" ">
<polygon fill="white" stroke="#666666" points="269.5,-211.5 119.5,-211.5 119.5,-192.5 269.5,-192.5 269.5,-211.5"/>
<text text-anchor="middle" x="194.5" y="-199.5" font-family="Helvetica,sans-Serif" font-size="10.00">Cpl/Io/File/InputOutputApi.h</text>
</a>
</g>
</g>
<!-- Node2&#45;&gt;Node4 -->
<g id="edge3_Node000002_Node000004" class="edge">
<title>Node2&#45;&gt;Node4</title>
<g id="a_edge3_Node000002_Node000004"><a xlink:title=" ">
<path fill="none" stroke="#63b8ff" d="M194.5,-242.66C194.5,-232.24 194.5,-219.8 194.5,-211.67"/>
<polygon fill="#63b8ff" stroke="#63b8ff" points="191,-242.87 194.5,-252.87 198,-242.87 191,-242.87"/>
</a>
</g>
</g>
<!-- Node5 -->
<g id="Node000005" class="node">
<title>Node5</title>
<g id="a_Node000005"><a xlink:href="_file_2_input_output_8h.html" target="_top" xlink:title=" ">
<polygon fill="white" stroke="#666666" points="468.5,-145.5 334.5,-145.5 334.5,-126.5 468.5,-126.5 468.5,-145.5"/>
<text text-anchor="middle" x="401.5" y="-133.5" font-family="Helvetica,sans-Serif" font-size="10.00">Cpl/Io/File/InputOutput.h</text>
</a>
</g>
</g>
<!-- Node4&#45;&gt;Node5 -->
<g id="edge4_Node000004_Node000005" class="edge">
<title>Node4&#45;&gt;Node5</title>
<g id="a_edge4_Node000004_Node000005"><a xlink:title=" ">
<path fill="none" stroke="#63b8ff" d="M232.01,-189.4C272.83,-176.78 337.15,-156.89 373.7,-145.6"/>
<polygon fill="#63b8ff" stroke="#63b8ff" points="230.94,-186.07 222.42,-192.37 233,-192.76 230.94,-186.07"/>
</a>
</g>
</g>
<!-- Node6 -->
<g id="Node000006" class="node">
<title>Node6</title>
<g id="a_Node000006"><a xlink:href="_cpl_2_io_2_file_2_null_8h.html" target="_top" xlink:title=" ">
<polygon fill="white" stroke="#666666" points="242.5,-145.5 146.5,-145.5 146.5,-126.5 242.5,-126.5 242.5,-145.5"/>
<text text-anchor="middle" x="194.5" y="-133.5" font-family="Helvetica,sans-Serif" font-size="10.00">Cpl/Io/File/Null.h</text>
</a>
</g>
</g>
<!-- Node4&#45;&gt;Node6 -->
<g id="edge5_Node000004_Node000006" class="edge">
<title>Node4&#45;&gt;Node6</title>
<g id="a_edge5_Node000004_Node000006"><a xlink:title=" ">
<path fill="none" stroke="#63b8ff" d="M194.5,-182.08C194.5,-170.13 194.5,-155.22 194.5,-145.91"/>
<polygon fill="#63b8ff" stroke="#63b8ff" points="191,-182.37 194.5,-192.37 198,-182.37 191,-182.37"/>
</a>
</g>
</g>
<!-- Node7&#45;&gt;Node4 -->
<g id="edge7_Node000007_Node000004" class="edge">
<title>Node7&#45;&gt;Node4</title>
<g id="a_edge7_Node000007_Node000004"><a xlink:title=" ">
<path fill="none" stroke="#63b8ff" d="M878.04,-259.2C757.41,-254.59 496.93,-242.43 278.5,-217 266.16,-215.56 252.88,-213.56 240.6,-211.52"/>
<polygon fill="#63b8ff" stroke="#63b8ff" points="878.1,-262.7 888.22,-259.58 878.36,-255.71 878.1,-262.7"/>
</a>
</g>
</g>
<!-- Node8 -->
<g id="Node000008" class="node">
<title>Node8</title>
<g id="a_Node000008"><a xlink:href="_cpl_2_io_2_null_8h.html" target="_top" xlink:title=" ">
<polygon fill="white" stroke="#666666" points="1270.5,-211.5 1194.5,-211.5 1194.5,-192.5 1270.5,-192.5 1270.5,-211.5"/>
<text text-anchor="middle" x="1232.5" y="-199.5" font-family="Helvetica,sans-Serif" font-size="10.00">Cpl/Io/Null.h</text>
</a>
</g>
</g>
<!-- Node7&#45;&gt;Node8 -->
<g id="edge8_Node000007_Node000008" class="edge">
<title>Node7&#45;&gt;Node8</title>
<g id="a_edge8_Node000007_Node000008"><a xlink:title=" ">
<path fill="none" stroke="#63b8ff" d="M1010.71,-251.33C1059.2,-243.31 1126.85,-231.13 1185.5,-217 1191.96,-215.44 1198.84,-213.54 1205.29,-211.64"/>
<polygon fill="#63b8ff" stroke="#63b8ff" points="1009.96,-247.91 1000.66,-252.98 1011.09,-254.82 1009.96,-247.91"/>
</a>
</g>
</g>
<!-- Node9 -->
<g id="Node000009" class="node">
<title>Node9</title>
<g id="a_Node000009"><a xlink:href="_ram_2_input_output_8h.html" target="_top" xlink:title=" ">
<polygon fill="white" stroke="#666666" points="1428.5,-211.5 1288.5,-211.5 1288.5,-192.5 1428.5,-192.5 1428.5,-211.5"/>
<text text-anchor="middle" x="1358.5" y="-199.5" font-family="Helvetica,sans-Serif" font-size="10.00">Cpl/Io/Ram/InputOutput.h</text>
</a>
</g>
</g>
<!-- Node7&#45;&gt;Node9 -->
<g id="edge9_Node000007_Node000009" class="edge">
<title>Node7&#45;&gt;Node9</title>
<g id="a_edge9_Node000007_Node000009"><a xlink:title=" ">
<path fill="none" stroke="#63b8ff" d="M1012.72,-253.4C1080.25,-245.07 1187.26,-231.31 1279.5,-217 1290.1,-215.36 1301.47,-213.43 1312.19,-211.55"/>
<polygon fill="#63b8ff" stroke="#63b8ff" points="1012.14,-249.95 1002.64,-254.65 1012.99,-256.9 1012.14,-249.95"/>
</a>
</g>
</g>
<!-- Node10 -->
<g id="Node000010" class="node">
<title>Node10</title>
<g id="a_Node000010"><a xlink:href="_serial_2_phony_stdio_2_input_output_8h.html" target="_top" xlink:title=" ">
<polygon fill="white" stroke="#666666" points="713,-217 580,-217 580,-187 713,-187 713,-217"/>
<text text-anchor="start" x="588" y="-205" font-family="Helvetica,sans-Serif" font-size="10.00">Cpl/Io/Serial/PhonyStdio</text>
<text text-anchor="middle" x="646.5" y="-194" font-family="Helvetica,sans-Serif" font-size="10.00">/InputOutput.h</text>
</a>
</g>
</g>
<!-- Node7&#45;&gt;Node10 -->
<g id="edge10_Node000007_Node000010" class="edge">
<title>Node7&#45;&gt;Node10</title>
<g id="a_edge10_Node000007_Node000010"><a xlink:title=" ">
<path fill="none" stroke="#63b8ff" d="M892.06,-251.04C842.04,-241.26 767.16,-226.61 713.24,-216.06"/>
<polygon fill="#63b8ff" stroke="#63b8ff" points="891.54,-254.51 902.02,-252.99 892.88,-247.64 891.54,-254.51"/>
</a>
</g>
</g>
<!-- Node11 -->
<g id="Node000011" class="node">
<title>Node11</title>
<g id="a_Node000011"><a xlink:href="_serial_2_s_t_2_m32_f4_2_input_output_8h.html" target="_top" xlink:title=" ">
<polygon fill="white" stroke="#666666" points="1008.5,-217 882.5,-217 882.5,-187 1008.5,-187 1008.5,-217"/>
<text text-anchor="start" x="890.5" y="-205" font-family="Helvetica,sans-Serif" font-size="10.00">Cpl/Io/Serial/ST/M32F4</text>
<text text-anchor="middle" x="945.5" y="-194" font-family="Helvetica,sans-Serif" font-size="10.00">/InputOutput.h</text>
</a>
</g>
</g>
<!-- Node7&#45;&gt;Node11 -->
<g id="edge11_Node000007_Node000011" class="edge">
<title>Node7&#45;&gt;Node11</title>
<g id="a_edge11_Node000007_Node000011"><a xlink:title=" ">
<path fill="none" stroke="#63b8ff" d="M945.5,-242.65C945.5,-234.36 945.5,-224.78 945.5,-217.11"/>
<polygon fill="#63b8ff" stroke="#63b8ff" points="942,-242.87 945.5,-252.87 949,-242.87 942,-242.87"/>
</a>
</g>
</g>
<!-- Node12 -->
<g id="Node000012" class="node">
<title>Node12</title>
<g id="a_Node000012"><a xlink:href="_socket_2_input_output_8h.html" target="_top" xlink:title=" ">
<polygon fill="white" stroke="#666666" points="1176,-211.5 1027,-211.5 1027,-192.5 1176,-192.5 1176,-211.5"/>
<text text-anchor="middle" x="1101.5" y="-199.5" font-family="Helvetica,sans-Serif" font-size="10.00">Cpl/Io/Socket/InputOutput.h</text>
</a>
</g>
</g>
<!-- Node7&#45;&gt;Node12 -->
<g id="edge12_Node000007_Node000012" class="edge">
<title>Node7&#45;&gt;Node12</title>
<g id="a_edge12_Node000007_Node000012"><a xlink:title=" ">
<path fill="none" stroke="#63b8ff" d="M977.83,-249.38C1007.98,-238.07 1052.2,-221.49 1078.79,-211.52"/>
<polygon fill="#63b8ff" stroke="#63b8ff" points="976.32,-246.21 968.18,-252.99 978.78,-252.76 976.32,-246.21"/>
</a>
</g>
</g>
<!-- Node16 -->
<g id="Node000016" class="node">
<title>Node16</title>
<g id="a_Node000016"><a xlink:href="_input_output___8h.html" target="_top" xlink:title=" ">
<polygon fill="white" stroke="#666666" points="562,-211.5 415,-211.5 415,-192.5 562,-192.5 562,-211.5"/>
<text text-anchor="middle" x="488.5" y="-199.5" font-family="Helvetica,sans-Serif" font-size="10.00">Cpl/Io/Stdio/InputOutput_.h</text>
</a>
</g>
</g>
<!-- Node7&#45;&gt;Node16 -->
<g id="edge17_Node000007_Node000016" class="edge">
<title>Node7&#45;&gt;Node16</title>
<g id="a_edge17_Node000007_Node000016"><a xlink:title=" ">
<path fill="none" stroke="#63b8ff" d="M878.12,-254.48C803.14,-246.44 678.44,-232.37 571.5,-217 560.22,-215.38 548.11,-213.45 536.72,-211.54"/>
<polygon fill="#63b8ff" stroke="#63b8ff" points="878.05,-257.99 888.36,-255.58 878.79,-251.03 878.05,-257.99"/>
</a>
</g>
</g>
<!-- Node17 -->
<g id="Node000017" class="node">
<title>Node17</title>
<g id="a_Node000017"><a xlink:href="_tcp_2_input_output_8h.html" target="_top" xlink:title=" ">
<polygon fill="white" stroke="#666666" points="864,-211.5 731,-211.5 731,-192.5 864,-192.5 864,-211.5"/>
<text text-anchor="middle" x="797.5" y="-199.5" font-family="Helvetica,sans-Serif" font-size="10.00">Cpl/Io/Tcp/InputOutput.h</text>
</a>
</g>
</g>
<!-- Node7&#45;&gt;Node17 -->
<g id="edge19_Node000007_Node000017" class="edge">
<title>Node7&#45;&gt;Node17</title>
<g id="a_edge19_Node000007_Node000017"><a xlink:title=" ">
<path fill="none" stroke="#63b8ff" d="M914.46,-249.23C885.86,-237.92 844.16,-221.44 819.05,-211.52"/>
<polygon fill="#63b8ff" stroke="#63b8ff" points="913.39,-252.57 923.98,-252.99 915.97,-246.06 913.39,-252.57"/>
</a>
</g>
</g>
<!-- Node13 -->
<g id="Node000013" class="node">
<title>Node13</title>
<g id="a_Node000013"><a xlink:href="_factory_8h.html" target="_top" xlink:title=" ">
<polygon fill="white" stroke="#666666" points="1077,-145.5 952,-145.5 952,-126.5 1077,-126.5 1077,-145.5"/>
<text text-anchor="middle" x="1014.5" y="-133.5" font-family="Helvetica,sans-Serif" font-size="10.00">Cpl/Io/Socket/Factory.h</text>
</a>
</g>
</g>
<!-- Node12&#45;&gt;Node13 -->
<g id="edge13_Node000012_Node000013" class="edge">
<title>Node12&#45;&gt;Node13</title>
<g id="a_edge13_Node000012_Node000013"><a xlink:title=" ">
<path fill="none" stroke="#63b8ff" d="M1081.56,-186.33C1064.5,-173.78 1040.51,-156.13 1026.33,-145.7"/>
<polygon fill="#63b8ff" stroke="#63b8ff" points="1079.64,-189.26 1089.77,-192.37 1083.79,-183.62 1079.64,-189.26"/>
</a>
</g>
</g>
<!-- Node14 -->
<g id="Node000014" class="node">
<title>Node14</title>
<g id="a_Node000014"><a xlink:href="_stream_pool_8h.html" target="_top" xlink:title=" ">
<polygon fill="white" stroke="#666666" points="905.5,-79.5 757.5,-79.5 757.5,-60.5 905.5,-60.5 905.5,-79.5"/>
<text text-anchor="middle" x="831.5" y="-67.5" font-family="Helvetica,sans-Serif" font-size="10.00">Cpl/Io/Socket/StreamPool.h</text>
</a>
</g>
</g>
<!-- Node12&#45;&gt;Node14 -->
<g id="edge15_Node000012_Node000014" class="edge">
<title>Node12&#45;&gt;Node14</title>
<g id="a_edge15_Node000012_Node000014"><a xlink:title=" ">
<path fill="none" stroke="#63b8ff" d="M1053.15,-189.92C1021.07,-181.56 978.57,-168.52 943.5,-151 902.46,-130.49 859.98,-95.75 841.3,-79.66"/>
<polygon fill="#63b8ff" stroke="#63b8ff" points="1052.62,-193.39 1063.18,-192.47 1054.35,-186.61 1052.62,-193.39"/>
</a>
</g>
</g>
<!-- Node15 -->
<g id="Node000015" class="node">
<title>Node15</title>
<g id="a_Node000015"><a xlink:href="_socket_8h.html" target="_top" xlink:title=" ">
<polygon fill="white" stroke="#666666" points="1243.5,-145.5 1133.5,-145.5 1133.5,-126.5 1243.5,-126.5 1243.5,-145.5"/>
<text text-anchor="middle" x="1188.5" y="-133.5" font-family="Helvetica,sans-Serif" font-size="10.00">Cpl/TShell/Socket.h</text>
</a>
</g>
</g>
<!-- Node12&#45;&gt;Node15 -->
<g id="edge16_Node000012_Node000015" class="edge">
<title>Node12&#45;&gt;Node15</title>
<g id="a_edge16_Node000012_Node000015"><a xlink:title=" ">
<path fill="none" stroke="#63b8ff" d="M1121.44,-186.33C1138.5,-173.78 1162.49,-156.13 1176.67,-145.7"/>
<polygon fill="#63b8ff" stroke="#63b8ff" points="1119.21,-183.62 1113.23,-192.37 1123.36,-189.26 1119.21,-183.62"/>
</a>
</g>
</g>
<!-- Node13&#45;&gt;Node14 -->
<g id="edge14_Node000013_Node000014" class="edge">
<title>Node13&#45;&gt;Node14</title>
<g id="a_edge14_Node000013_Node000014"><a xlink:title=" ">
<path fill="none" stroke="#63b8ff" d="M980.19,-123C944.05,-110.36 888.05,-90.78 856.08,-79.6"/>
<polygon fill="#63b8ff" stroke="#63b8ff" points="979.22,-126.37 989.82,-126.37 981.54,-119.76 979.22,-126.37"/>
</a>
</g>
</g>
<!-- Node16&#45;&gt;Node5 -->
<g id="edge18_Node000016_Node000005" class="edge">
<title>Node16&#45;&gt;Node5</title>
<g id="a_edge18_Node000016_Node000005"><a xlink:title=" ">
<path fill="none" stroke="#63b8ff" d="M468.56,-186.33C451.5,-173.78 427.51,-156.13 413.33,-145.7"/>
<polygon fill="#63b8ff" stroke="#63b8ff" points="466.64,-189.26 476.77,-192.37 470.79,-183.62 466.64,-189.26"/>
</a>
</g>
</g>
<!-- Node18 -->
<g id="Node000018" class="node">
<title>Node18</title>
<g id="a_Node000018"><a xlink:href="_async_connector_8h.html" target="_top" xlink:title=" ">
<polygon fill="white" stroke="#666666" points="661,-145.5 508,-145.5 508,-126.5 661,-126.5 661,-145.5"/>
<text text-anchor="middle" x="584.5" y="-133.5" font-family="Helvetica,sans-Serif" font-size="10.00">Cpl/Io/Tcp/AsyncConnector.h</text>
</a>
</g>
</g>
<!-- Node17&#45;&gt;Node18 -->
<g id="edge20_Node000017_Node000018" class="edge">
<title>Node17&#45;&gt;Node18</title>
<g id="a_edge20_Node000017_Node000018"><a xlink:title=" ">
<path fill="none" stroke="#63b8ff" d="M759.17,-189.48C717.18,-176.87 650.79,-156.92 613.11,-145.6"/>
<polygon fill="#63b8ff" stroke="#63b8ff" points="758.19,-192.84 768.77,-192.37 760.2,-186.14 758.19,-192.84"/>
</a>
</g>
</g>
<!-- Node20 -->
<g id="Node000020" class="node">
<title>Node20</title>
<g id="a_Node000020"><a xlink:href="_async_listener_8h.html" target="_top" xlink:title=" ">
<polygon fill="white" stroke="#666666" points="833,-145.5 690,-145.5 690,-126.5 833,-126.5 833,-145.5"/>
<text text-anchor="middle" x="761.5" y="-133.5" font-family="Helvetica,sans-Serif" font-size="10.00">Cpl/Io/Tcp/AsyncListener.h</text>
</a>
</g>
</g>
<!-- Node17&#45;&gt;Node20 -->
<g id="edge22_Node000017_Node000020" class="edge">
<title>Node17&#45;&gt;Node20</title>
<g id="a_edge22_Node000017_Node000020"><a xlink:title=" ">
<path fill="none" stroke="#63b8ff" d="M787.68,-183.55C780.83,-171.36 771.97,-155.61 766.51,-145.91"/>
<polygon fill="#63b8ff" stroke="#63b8ff" points="784.69,-185.37 792.64,-192.37 790.79,-181.94 784.69,-185.37"/>
</a>
</g>
</g>
<!-- Node19 -->
<g id="Node000019" class="node">
<title>Node19</title>
<g id="a_Node000019"><a xlink:href="_win32_2_async_connector_8h.html" target="_top" xlink:title=" ">
<polygon fill="white" stroke="#666666" points="546,-79.5 359,-79.5 359,-60.5 546,-60.5 546,-79.5"/>
<text text-anchor="middle" x="452.5" y="-67.5" font-family="Helvetica,sans-Serif" font-size="10.00">Cpl/Io/Tcp/Win32/AsyncConnector.h</text>
</a>
</g>
</g>
<!-- Node18&#45;&gt;Node19 -->
<g id="edge21_Node000018_Node000019" class="edge">
<title>Node18&#45;&gt;Node19</title>
<g id="a_edge21_Node000018_Node000019"><a xlink:title=" ">
<path fill="none" stroke="#63b8ff" d="M557.4,-121.86C531.39,-109.25 492.85,-90.56 470.44,-79.7"/>
<polygon fill="#63b8ff" stroke="#63b8ff" points="556.17,-125.16 566.7,-126.37 559.23,-118.86 556.17,-125.16"/>
</a>
</g>
</g>
<!-- Node21 -->
<g id="Node000021" class="node">
<title>Node21</title>
<g id="a_Node000021"><a xlink:href="_win32_2_async_listener_8h.html" target="_top" xlink:title=" ">
<polygon fill="white" stroke="#666666" points="739.5,-79.5 563.5,-79.5 563.5,-60.5 739.5,-60.5 739.5,-79.5"/>
<text text-anchor="middle" x="651.5" y="-67.5" font-family="Helvetica,sans-Serif" font-size="10.00">Cpl/Io/Tcp/Win32/AsyncListener.h</text>
</a>
</g>
</g>
<!-- Node20&#45;&gt;Node21 -->
<g id="edge23_Node000020_Node000021" class="edge">
<title>Node20&#45;&gt;Node21</title>
<g id="a_edge23_Node000020_Node000021"><a xlink:title=" ">
<path fill="none" stroke="#63b8ff" d="M737.76,-121.19C716.12,-108.59 684.79,-90.37 666.45,-79.7"/>
<polygon fill="#63b8ff" stroke="#63b8ff" points="736.26,-124.36 746.66,-126.37 739.78,-118.31 736.26,-124.36"/>
</a>
</g>
</g>
<!-- Node23&#45;&gt;Node3 -->
<g id="edge26_Node000023_Node000003" class="edge">
<title>Node23&#45;&gt;Node3</title>
<g id="a_edge26_Node000023_Node000003"><a xlink:title=" ">
<path fill="none" stroke="#63b8ff" d="M348.45,-253.37C286.47,-245.46 191.93,-232.41 110.5,-217 102.2,-215.43 93.3,-213.49 84.98,-211.57"/>
<polygon fill="#63b8ff" stroke="#63b8ff" points="348.13,-256.86 358.49,-254.64 349.01,-249.91 348.13,-256.86"/>
</a>
</g>
</g>
<!-- Node23&#45;&gt;Node16 -->
<g id="edge27_Node000023_Node000016" class="edge">
<title>Node23&#45;&gt;Node16</title>
<g id="a_edge27_Node000023_Node000016"><a xlink:title=" ">
<path fill="none" stroke="#63b8ff" d="M434.17,-246.54C447.96,-235.49 466.24,-220.84 477.68,-211.67"/>
<polygon fill="#63b8ff" stroke="#63b8ff" points="431.89,-243.88 426.27,-252.87 436.26,-249.35 431.89,-243.88"/>
</a>
</g>
</g>
<!-- Node24 -->
<g id="Node000024" class="node">
<title>Node24</title>
<g id="a_Node000024"><a xlink:href="_std_in_8h.html" target="_top" xlink:title=" ">
<polygon fill="white" stroke="#666666" points="397,-211.5 288,-211.5 288,-192.5 397,-192.5 397,-211.5"/>
<text text-anchor="middle" x="342.5" y="-199.5" font-family="Helvetica,sans-Serif" font-size="10.00">Cpl/Io/Stdio/StdIn.h</text>
</a>
</g>
</g>
<!-- Node23&#45;&gt;Node24 -->
<g id="edge28_Node000023_Node000024" class="edge">
<title>Node23&#45;&gt;Node24</title>
<g id="a_edge28_Node000023_Node000024"><a xlink:title=" ">
<path fill="none" stroke="#63b8ff" d="M396.83,-246.54C383.04,-235.49 364.76,-220.84 353.32,-211.67"/>
<polygon fill="#63b8ff" stroke="#63b8ff" points="394.74,-249.35 404.73,-252.87 399.11,-243.88 394.74,-249.35"/>
</a>
</g>
</g>
<!-- Node25&#45;&gt;Node15 -->
<g id="edge47_Node000025_Node000015" class="edge">
<title>Node25&#45;&gt;Node15</title>
<g id="a_edge47_Node000025_Node000015"><a xlink:title=" ">
<path fill="none" stroke="#63b8ff" d="M1591.16,-249.55C1566.42,-240.98 1532.7,-228.9 1503.5,-217 1473.66,-204.84 1468.16,-196.9 1437.5,-187 1372.47,-166 1294.9,-152.1 1243.82,-144.4"/>
<polygon fill="#63b8ff" stroke="#63b8ff" points="1590.24,-252.94 1600.83,-252.88 1592.52,-246.32 1590.24,-252.94"/>
</a>
</g>
</g>
<!-- Node26 -->
<g id="Node000026" class="node">
<title>Node26</title>
<g id="a_Node000026"><a xlink:href="_context___8h.html" target="_top" xlink:title=" ">
<polygon fill="white" stroke="#666666" points="1759,-211.5 1638,-211.5 1638,-192.5 1759,-192.5 1759,-211.5"/>
<text text-anchor="middle" x="1698.5" y="-199.5" font-family="Helvetica,sans-Serif" font-size="10.00">Cpl/TShell/Context_.h</text>
</a>
</g>
</g>
<!-- Node25&#45;&gt;Node26 -->
<g id="edge30_Node000025_Node000026" class="edge">
<title>Node25&#45;&gt;Node26</title>
<g id="a_edge30_Node000025_Node000026"><a xlink:title=" ">
<path fill="none" stroke="#63b8ff" d="M1644.92,-246.54C1658.51,-235.49 1676.54,-220.84 1687.83,-211.67"/>
<polygon fill="#63b8ff" stroke="#63b8ff" points="1642.68,-243.85 1637.12,-252.87 1647.09,-249.28 1642.68,-243.85"/>
</a>
</g>
</g>
<!-- Node51 -->
<g id="Node000051" class="node">
<title>Node51</title>
<g id="a_Node000051"><a xlink:href="_stdio_8h.html" target="_top" xlink:title=" ">
<polygon fill="white" stroke="#666666" points="1614.5,-211.5 1512.5,-211.5 1512.5,-192.5 1614.5,-192.5 1614.5,-211.5"/>
<text text-anchor="middle" x="1563.5" y="-199.5" font-family="Helvetica,sans-Serif" font-size="10.00">Cpl/TShell/Stdio.h</text>
</a>
</g>
</g>
<!-- Node25&#45;&gt;Node51 -->
<g id="edge48_Node000025_Node000051" class="edge">
<title>Node25&#45;&gt;Node51</title>
<g id="a_edge48_Node000025_Node000051"><a xlink:title=" ">
<path fill="none" stroke="#63b8ff" d="M1609.71,-245.91C1597.9,-234.94 1582.53,-220.67 1572.83,-211.67"/>
<polygon fill="#63b8ff" stroke="#63b8ff" points="1607.49,-248.63 1617.2,-252.87 1612.26,-243.5 1607.49,-248.63"/>
</a>
</g>
</g>
<!-- Node27 -->
<g id="Node000027" class="node">
<title>Node27</title>
<g id="a_Node000027"><a xlink:href="_cmd_2_command_8h.html" target="_top" xlink:title=" ">
<polygon fill="#fff0f0" stroke="red" points="1775,-145.5 1622,-145.5 1622,-126.5 1775,-126.5 1775,-145.5"/>
<text text-anchor="middle" x="1698.5" y="-133.5" font-family="Helvetica,sans-Serif" font-size="10.00">Cpl/TShell/Cmd/Command.h</text>
</a>
</g>
</g>
<!-- Node26&#45;&gt;Node27 -->
<g id="edge31_Node000026_Node000027" class="edge">
<title>Node26&#45;&gt;Node27</title>
<g id="a_edge31_Node000026_Node000027"><a xlink:title=" ">
<path fill="none" stroke="#63b8ff" d="M1698.5,-182.08C1698.5,-170.13 1698.5,-155.22 1698.5,-145.91"/>
<polygon fill="#63b8ff" stroke="#63b8ff" points="1695,-182.37 1698.5,-192.37 1702,-182.37 1695,-182.37"/>
</a>
</g>
</g>
<!-- Node47 -->
<g id="Node000047" class="node">
<title>Node47</title>
<g id="a_Node000047"><a xlink:href="_processor_8h.html" target="_top" xlink:title=" ">
<polygon fill="white" stroke="#666666" points="1917.5,-145.5 1793.5,-145.5 1793.5,-126.5 1917.5,-126.5 1917.5,-145.5"/>
<text text-anchor="middle" x="1855.5" y="-133.5" font-family="Helvetica,sans-Serif" font-size="10.00">Cpl/TShell/Processor.h</text>
</a>
</g>
</g>
<!-- Node26&#45;&gt;Node47 -->
<g id="edge43_Node000026_Node000047" class="edge">
<title>Node26&#45;&gt;Node47</title>
<g id="a_edge43_Node000026_Node000047"><a xlink:title=" ">
<path fill="none" stroke="#63b8ff" d="M1729.14,-188.51C1760.17,-175.86 1807.34,-156.63 1834.41,-145.6"/>
<polygon fill="#63b8ff" stroke="#63b8ff" points="1727.61,-185.35 1719.67,-192.37 1730.26,-191.83 1727.61,-185.35"/>
</a>
</g>
</g>
<!-- Node28 -->
<g id="Node000028" class="node">
<title>Node28</title>
<g id="a_Node000028"><a xlink:href="_dm_8h.html" target="_top" xlink:title=" ">
<polygon fill="white" stroke="#666666" points="1630,-79.5 1515,-79.5 1515,-60.5 1630,-60.5 1630,-79.5"/>
<text text-anchor="middle" x="1572.5" y="-67.5" font-family="Helvetica,sans-Serif" font-size="10.00">Cpl/Dm/TShell/Dm.h</text>
</a>
</g>
</g>
<!-- Node27&#45;&gt;Node28 -->
<g id="edge32_Node000027_Node000028" class="edge">
<title>Node27&#45;&gt;Node28</title>
<g id="a_edge32_Node000027_Node000028"><a xlink:title=" ">
<path fill="none" stroke="#63b8ff" d="M1672.31,-121.69C1647.48,-109.09 1610.92,-90.51 1589.63,-79.7"/>
<polygon fill="#63b8ff" stroke="#63b8ff" points="1671.01,-124.96 1681.51,-126.37 1674.18,-118.72 1671.01,-124.96"/>
</a>
</g>
</g>
<!-- Node29 -->
<g id="Node000029" class="node">
<title>Node29</title>
<g id="a_Node000029"><a xlink:href="_fs_8h.html" target="_top" xlink:title=" ">
<polygon fill="white" stroke="#666666" points="1749,-85 1648,-85 1648,-55 1749,-55 1749,-85"/>
<text text-anchor="start" x="1656" y="-73" font-family="Helvetica,sans-Serif" font-size="10.00">Cpl/Io/File/Littlefs</text>
<text text-anchor="middle" x="1698.5" y="-62" font-family="Helvetica,sans-Serif" font-size="10.00">/TShell/Fs.h</text>
</a>
</g>
</g>
<!-- Node27&#45;&gt;Node29 -->
<g id="edge33_Node000027_Node000029" class="edge">
<title>Node27&#45;&gt;Node29</title>
<g id="a_edge33_Node000027_Node000029"><a xlink:title=" ">
<path fill="none" stroke="#63b8ff" d="M1698.5,-116.35C1698.5,-106.47 1698.5,-94.51 1698.5,-85.36"/>
<polygon fill="#63b8ff" stroke="#63b8ff" points="1695,-116.37 1698.5,-126.37 1702,-116.37 1695,-116.37"/>
</a>
</g>
</g>
<!-- Node30 -->
<g id="Node000030" class="node">
<title>Node30</title>
<g id="a_Node000030"><a xlink:href="_log_8h.html" target="_top" xlink:title=" ">
<polygon fill="white" stroke="#666666" points="1874,-85 1767,-85 1767,-55 1874,-55 1874,-85"/>
<text text-anchor="start" x="1775" y="-73" font-family="Helvetica,sans-Serif" font-size="10.00">Cpl/Logging/TShell</text>
<text text-anchor="middle" x="1820.5" y="-62" font-family="Helvetica,sans-Serif" font-size="10.00">/Log.h</text>
</a>
</g>
</g>
<!-- Node27&#45;&gt;Node30 -->
<g id="edge34_Node000027_Node000030" class="edge">
<title>Node27&#45;&gt;Node30</title>
<g id="a_edge34_Node000027_Node000030"><a xlink:title=" ">
<path fill="none" stroke="#63b8ff" d="M1723.96,-121.64C1744.34,-110.95 1772.84,-96 1793.59,-85.12"/>
<polygon fill="#63b8ff" stroke="#63b8ff" points="1722.18,-118.62 1714.95,-126.37 1725.43,-124.82 1722.18,-118.62"/>
</a>
</g>
</g>
<!-- Node31 -->
<g id="Node000031" class="node">
<title>Node31</title>
<g id="a_Node000031"><a xlink:href="_cpl_2_m_app_2_cmd_8h.html" target="_top" xlink:title=" ">
<polygon fill="white" stroke="#666666" points="1990.5,-79.5 1892.5,-79.5 1892.5,-60.5 1990.5,-60.5 1990.5,-79.5"/>
<text text-anchor="middle" x="1941.5" y="-67.5" font-family="Helvetica,sans-Serif" font-size="10.00">Cpl/MApp/Cmd.h</text>
</a>
</g>
</g>
<!-- Node27&#45;&gt;Node31 -->
<g id="edge35_Node000027_Node000031" class="edge">
<title>Node27&#45;&gt;Node31</title>
<g id="a_edge35_Node000027_Node000031"><a xlink:title=" ">
<path fill="none" stroke="#63b8ff" d="M1740.78,-123.86C1788.72,-111.24 1865.81,-90.94 1909.17,-79.51"/>
<polygon fill="#63b8ff" stroke="#63b8ff" points="1739.8,-120.5 1731.02,-126.44 1741.58,-127.27 1739.8,-120.5"/>
</a>
</g>
</g>
<!-- Node32 -->
<g id="Node000032" class="node">
<title>Node32</title>
<g id="a_Node000032"><a xlink:href="_bye_8h.html" target="_top" xlink:title=" ">
<polygon fill="white" stroke="#666666" points="2130.5,-79.5 2008.5,-79.5 2008.5,-60.5 2130.5,-60.5 2130.5,-79.5"/>
<text text-anchor="middle" x="2069.5" y="-67.5" font-family="Helvetica,sans-Serif" font-size="10.00">Cpl/TShell/Cmd/Bye.h</text>
</a>
</g>
</g>
<!-- Node27&#45;&gt;Node32 -->
<g id="edge36_Node000027_Node000032" class="edge">
<title>Node27&#45;&gt;Node32</title>
<g id="a_edge36_Node000027_Node000032"><a xlink:title=" ">
<path fill="none" stroke="#63b8ff" d="M1760.64,-124.79C1841.85,-111.43 1976.48,-89.21 1999.5,-85 2008.77,-83.3 2018.7,-81.38 2028.09,-79.52"/>
<polygon fill="#63b8ff" stroke="#63b8ff" points="1759.82,-121.38 1750.52,-126.45 1760.96,-128.28 1759.82,-121.38"/>
</a>
</g>
</g>
<!-- Node33 -->
<g id="Node000033" class="node">
<title>Node33</title>
<g id="a_Node000033"><a xlink:href="_help_8h.html" target="_top" xlink:title=" ">
<polygon fill="white" stroke="#666666" points="2274,-79.5 2149,-79.5 2149,-60.5 2274,-60.5 2274,-79.5"/>
<text text-anchor="middle" x="2211.5" y="-67.5" font-family="Helvetica,sans-Serif" font-size="10.00">Cpl/TShell/Cmd/Help.h</text>
</a>
</g>
</g>
<!-- Node27&#45;&gt;Node33 -->
<g id="edge37_Node000027_Node000033" class="edge">
<title>Node27&#45;&gt;Node33</title>
<g id="a_edge37_Node000027_Node000033"><a xlink:title=" ">
<path fill="none" stroke="#63b8ff" d="M1757.59,-124.9C1766.59,-123.5 1775.78,-122.15 1784.5,-121 1941.72,-100.25 1982.61,-108.16 2139.5,-85 2149.7,-83.49 2160.66,-81.54 2170.87,-79.57"/>
<polygon fill="#63b8ff" stroke="#63b8ff" points="1756.87,-121.47 1747.54,-126.49 1757.97,-128.38 1756.87,-121.47"/>
</a>
</g>
</g>
<!-- Node34 -->
<g id="Node000034" class="node">
<title>Node34</title>
<g id="a_Node000034"><a xlink:href="_t_print_8h.html" target="_top" xlink:title=" ">
<polygon fill="white" stroke="#666666" points="2423,-79.5 2292,-79.5 2292,-60.5 2423,-60.5 2423,-79.5"/>
<text text-anchor="middle" x="2357.5" y="-67.5" font-family="Helvetica,sans-Serif" font-size="10.00">Cpl/TShell/Cmd/TPrint.h</text>
</a>
</g>
</g>
<!-- Node27&#45;&gt;Node34 -->
<g id="edge38_Node000027_Node000034" class="edge">
<title>Node27&#45;&gt;Node34</title>
<g id="a_edge38_Node000027_Node000034"><a xlink:title=" ">
<path fill="none" stroke="#63b8ff" d="M1756.25,-124.87C1765.67,-123.43 1775.34,-122.07 1784.5,-121 2005.34,-95.11 2063.01,-113.71 2283.5,-85 2294.39,-83.58 2306.1,-81.59 2316.92,-79.55"/>
<polygon fill="#63b8ff" stroke="#63b8ff" points="1755.49,-121.45 1746.16,-126.46 1756.58,-128.36 1755.49,-121.45"/>
</a>
</g>
</g>
<!-- Node35 -->
<g id="Node000035" class="node">
<title>Node35</title>
<g id="a_Node000035"><a xlink:href="_threads_8h.html" target="_top" xlink:title=" ">
<polygon fill="#fff0f0" stroke="red" points="1065.5,-79.5 923.5,-79.5 923.5,-60.5 1065.5,-60.5 1065.5,-79.5"/>
<text text-anchor="middle" x="994.5" y="-67.5" font-family="Helvetica,sans-Serif" font-size="10.00">Cpl/TShell/Cmd/Threads.h</text>
</a>
</g>
</g>
<!-- Node27&#45;&gt;Node35 -->
<g id="edge39_Node000027_Node000035" class="edge">
<title>Node27&#45;&gt;Node35</title>
<g id="a_edge39_Node000027_Node000035"><a xlink:title=" ">
<path fill="none" stroke="#63b8ff" d="M1641.4,-124.93C1631.78,-123.46 1621.87,-122.07 1612.5,-121 1374.85,-93.75 1313.01,-113.41 1075.5,-85 1063.6,-83.58 1050.78,-81.58 1038.94,-79.54"/>
<polygon fill="#63b8ff" stroke="#63b8ff" points="1640.87,-128.39 1651.3,-126.49 1641.97,-121.48 1640.87,-128.39"/>
</a>
</g>
</g>
<!-- Node38 -->
<g id="Node000038" class="node">
<title>Node38</title>
<g id="a_Node000038"><a xlink:href="_tick_8h.html" target="_top" xlink:title=" ">
<polygon fill="white" stroke="#666666" points="1207,-79.5 1084,-79.5 1084,-60.5 1207,-60.5 1207,-79.5"/>
<text text-anchor="middle" x="1145.5" y="-67.5" font-family="Helvetica,sans-Serif" font-size="10.00">Cpl/TShell/Cmd/Tick.h</text>
</a>
</g>
</g>
<!-- Node27&#45;&gt;Node38 -->
<g id="edge40_Node000027_Node000038" class="edge">
<title>Node27&#45;&gt;Node38</title>
<g id="a_edge40_Node000027_Node000038"><a xlink:title=" ">
<path fill="none" stroke="#63b8ff" d="M1639.76,-124.87C1630.65,-123.46 1621.33,-122.12 1612.5,-121 1437.18,-98.79 1391.43,-110.13 1216.5,-85 1206.18,-83.52 1195.09,-81.52 1184.81,-79.51"/>
<polygon fill="#63b8ff" stroke="#63b8ff" points="1639.5,-128.37 1649.92,-126.48 1640.59,-121.46 1639.5,-128.37"/>
</a>
</g>
</g>
<!-- Node39 -->
<g id="Node000039" class="node">
<title>Node39</title>
<g id="a_Node000039"><a xlink:href="_t_shell_2_cmd_2_trace_8h.html" target="_top" xlink:title=" ">
<polygon fill="white" stroke="#666666" points="1353.5,-79.5 1225.5,-79.5 1225.5,-60.5 1353.5,-60.5 1353.5,-79.5"/>
<text text-anchor="middle" x="1289.5" y="-67.5" font-family="Helvetica,sans-Serif" font-size="10.00">Cpl/TShell/Cmd/Trace.h</text>
</a>
</g>
</g>
<!-- Node27&#45;&gt;Node39 -->
<g id="edge41_Node000027_Node000039" class="edge">
<title>Node27&#45;&gt;Node39</title>
<g id="a_edge41_Node000027_Node000039"><a xlink:title=" ">
<path fill="none" stroke="#63b8ff" d="M1637.13,-124.87C1628.85,-123.55 1620.47,-122.23 1612.5,-121 1501.98,-104.02 1473.79,-103.4 1363.5,-85 1353.57,-83.34 1342.92,-81.42 1332.88,-79.53"/>
<polygon fill="#63b8ff" stroke="#63b8ff" points="1636.71,-128.35 1647.14,-126.49 1637.82,-121.44 1636.71,-128.35"/>
</a>
</g>
</g>
<!-- Node40 -->
<g id="Node000040" class="node">
<title>Node40</title>
<g id="a_Node000040"><a xlink:href="_user_8h.html" target="_top" xlink:title=" ">
<polygon fill="white" stroke="#666666" points="1497,-79.5 1372,-79.5 1372,-60.5 1497,-60.5 1497,-79.5"/>
<text text-anchor="middle" x="1434.5" y="-67.5" font-family="Helvetica,sans-Serif" font-size="10.00">Cpl/TShell/Cmd/User.h</text>
</a>
</g>
</g>
<!-- Node27&#45;&gt;Node40 -->
<g id="edge42_Node000027_Node000040" class="edge">
<title>Node27&#45;&gt;Node40</title>
<g id="a_edge42_Node000027_Node000040"><a xlink:title=" ">
<path fill="none" stroke="#63b8ff" d="M1653.21,-124.02C1601.19,-111.41 1516.93,-90.98 1469.62,-79.51"/>
<polygon fill="#63b8ff" stroke="#63b8ff" points="1652.63,-127.48 1663.17,-126.44 1654.28,-120.68 1652.63,-127.48"/>
</a>
</g>
</g>
<!-- Node48 -->
<g id="Node000048" class="node">
<title>Node48</title>
<g id="a_Node000048"><a xlink:href="_cpl_2_t_shell_2_maker_8h.html" target="_top" xlink:title=" ">
<polygon fill="white" stroke="#666666" points="2721,-79.5 2614,-79.5 2614,-60.5 2721,-60.5 2721,-79.5"/>
<text text-anchor="middle" x="2667.5" y="-67.5" font-family="Helvetica,sans-Serif" font-size="10.00">Cpl/TShell/Maker.h</text>
</a>
</g>
</g>
<!-- Node47&#45;&gt;Node48 -->
<g id="edge44_Node000047_Node000048" class="edge">
<title>Node47&#45;&gt;Node48</title>
<g id="a_edge44_Node000047_Node000048"><a xlink:title=" ">
<path fill="none" stroke="#63b8ff" d="M1904.23,-124.58C1911.99,-123.19 1919.94,-121.93 1927.5,-121 2226.55,-84.16 2305.96,-125.82 2604.5,-85 2614.16,-83.68 2624.53,-81.64 2634.01,-79.52"/>
<polygon fill="#63b8ff" stroke="#63b8ff" points="1903.39,-121.17 1894.2,-126.45 1904.68,-128.05 1903.39,-121.17"/>
</a>
</g>
</g>
<!-- Node49 -->
<g id="Node000049" class="node">
<title>Node49</title>
<g id="a_Node000049"><a xlink:href="_polled_processor_8h.html" target="_top" xlink:title=" ">
<polygon fill="white" stroke="#666666" points="2595.5,-79.5 2441.5,-79.5 2441.5,-60.5 2595.5,-60.5 2595.5,-79.5"/>
<text text-anchor="middle" x="2518.5" y="-67.5" font-family="Helvetica,sans-Serif" font-size="10.00">Cpl/TShell/PolledProcessor.h</text>
</a>
</g>
</g>
<!-- Node47&#45;&gt;Node49 -->
<g id="edge45_Node000047_Node000049" class="edge">
<title>Node47&#45;&gt;Node49</title>
<g id="a_edge45_Node000047_Node000049"><a xlink:title=" ">
<path fill="none" stroke="#63b8ff" d="M1905.04,-124.55C1912.54,-123.21 1920.21,-121.97 1927.5,-121 2150.57,-91.47 2209.01,-111.1 2432.5,-85 2444.97,-83.54 2458.4,-81.56 2470.84,-79.54"/>
<polygon fill="#63b8ff" stroke="#63b8ff" points="1904.16,-121.16 1894.97,-126.43 1905.44,-128.04 1904.16,-121.16"/>
</a>
</g>
</g>
<!-- Node50 -->
<g id="Node000050" class="node">
<title>Node50</title>
<g id="a_Node000050"><a xlink:href="_polled_maker_8h.html" target="_top" xlink:title=" ">
<polygon fill="white" stroke="#666666" points="2702,-19 2565,-19 2565,0 2702,0 2702,-19"/>
<text text-anchor="middle" x="2633.5" y="-7" font-family="Helvetica,sans-Serif" font-size="10.00">Cpl/TShell/PolledMaker.h</text>
</a>
</g>
</g>
<!-- Node49&#45;&gt;Node50 -->
<g id="edge46_Node000049_Node000050" class="edge">
<title>Node49&#45;&gt;Node50</title>
<g id="a_edge46_Node000049_Node000050"><a xlink:title=" ">
<path fill="none" stroke="#63b8ff" d="M2544.59,-55.73C2566.61,-44.53 2597.49,-28.82 2616.46,-19.17"/>
<polygon fill="#63b8ff" stroke="#63b8ff" points="2542.79,-52.71 2535.47,-60.37 2545.97,-58.95 2542.79,-52.71"/>
</a>
</g>
</g>
<!-- Node52 -->
<g id="Node000052" class="node">
<title>Node52</title>
<g id="a_Node000052"><a xlink:href="_restartable_8h.html" target="_top" xlink:title=" ">
<polygon fill="white" stroke="#666666" points="1603.5,-145.5 1469.5,-145.5 1469.5,-126.5 1603.5,-126.5 1603.5,-145.5"/>
<text text-anchor="middle" x="1536.5" y="-133.5" font-family="Helvetica,sans-Serif" font-size="10.00">Cpl/TShell/Restartable.h</text>
</a>
</g>
</g>
<!-- Node51&#45;&gt;Node52 -->
<g id="edge49_Node000051_Node000052" class="edge">
<title>Node51&#45;&gt;Node52</title>
<g id="a_edge49_Node000051_Node000052"><a xlink:title=" ">
<path fill="none" stroke="#63b8ff" d="M1555.83,-182.82C1550.73,-170.74 1544.27,-155.41 1540.26,-145.91"/>
<polygon fill="#63b8ff" stroke="#63b8ff" points="1552.75,-184.52 1559.86,-192.37 1559.2,-181.79 1552.75,-184.52"/>
</a>
</g>
</g>
<!-- Node53&#45;&gt;Node47 -->
<g id="edge51_Node000053_Node000047" class="edge">
<title>Node53&#45;&gt;Node47</title>
<g id="a_edge51_Node000053_Node000047"><a xlink:title=" ">
<path fill="none" stroke="#63b8ff" d="M1858.35,-243.18C1855.63,-235.26 1852.85,-225.81 1851.5,-217 1847.57,-191.43 1851.46,-160.79 1853.89,-145.94"/>
<polygon fill="#63b8ff" stroke="#63b8ff" points="1855.16,-244.65 1861.9,-252.82 1861.73,-242.23 1855.16,-244.65"/>
</a>
</g>
</g>
<!-- Node54 -->
<g id="Node000054" class="node">
<title>Node54</title>
<g id="a_Node000054"><a xlink:href="_ascii_decoder_8h.html" target="_top" xlink:title=" ">
<polygon fill="white" stroke="#666666" points="2057.5,-211.5 1893.5,-211.5 1893.5,-192.5 2057.5,-192.5 2057.5,-211.5"/>
<text text-anchor="middle" x="1975.5" y="-199.5" font-family="Helvetica,sans-Serif" font-size="10.00">Cpl/Text/Frame/AsciiDecoder.h</text>
</a>
</g>
</g>
<!-- Node53&#45;&gt;Node54 -->
<g id="edge52_Node000053_Node000054" class="edge">
<title>Node53&#45;&gt;Node54</title>
<g id="a_edge52_Node000053_Node000054"><a xlink:title=" ">
<path fill="none" stroke="#63b8ff" d="M1890.74,-248.08C1911.78,-236.88 1941.14,-221.27 1959.2,-211.67"/>
<polygon fill="#63b8ff" stroke="#63b8ff" points="1888.92,-245.08 1881.73,-252.87 1892.2,-251.26 1888.92,-245.08"/>
</a>
</g>
</g>
<!-- Node55 -->
<g id="Node000055" class="node">
<title>Node55</title>
<g id="a_Node000055"><a xlink:href="_line_decoder_8h.html" target="_top" xlink:title=" ">
<polygon fill="white" stroke="#666666" points="2097,-145.5 1936,-145.5 1936,-126.5 2097,-126.5 2097,-145.5"/>
<text text-anchor="middle" x="2016.5" y="-133.5" font-family="Helvetica,sans-Serif" font-size="10.00">Cpl/Text/Frame/LineDecoder.h</text>
</a>
</g>
</g>
<!-- Node53&#45;&gt;Node55 -->
<g id="edge53_Node000053_Node000055" class="edge">
<title>Node53&#45;&gt;Node55</title>
<g id="a_edge53_Node000053_Node000055"><a xlink:title=" ">
<path fill="none" stroke="#63b8ff" d="M1865.61,-242.86C1866.69,-226.29 1870.77,-202.37 1884.5,-187 1904.34,-164.8 1935.08,-152.41 1961.9,-145.52"/>
<polygon fill="#63b8ff" stroke="#63b8ff" points="1862.11,-242.85 1865.27,-252.97 1869.11,-243.09 1862.11,-242.85"/>
</a>
</g>
</g>
<!-- Node53&#45;&gt;Node56 -->
<g id="edge56_Node000053_Node000056" class="edge">
<title>Node53&#45;&gt;Node56</title>
<g id="a_edge56_Node000053_Node000056"><a xlink:title=" ">
<path fill="none" stroke="#63b8ff" d="M1919.71,-251.03C1978.19,-239.74 2070.17,-221.98 2124.39,-211.52"/>
<polygon fill="#63b8ff" stroke="#63b8ff" points="1918.71,-247.66 1909.56,-252.99 1920.04,-254.53 1918.71,-247.66"/>
</a>
</g>
</g>
<!-- Node55&#45;&gt;Node48 -->
<g id="edge54_Node000055_Node000048" class="edge">
<title>Node55&#45;&gt;Node48</title>
<g id="a_edge54_Node000055_Node000048"><a xlink:title=" ">
<path fill="none" stroke="#63b8ff" d="M2076.32,-124.99C2086.37,-123.51 2096.72,-122.11 2106.5,-121 2326.99,-95.92 2384.93,-117.16 2604.5,-85 2613.92,-83.62 2624.03,-81.61 2633.34,-79.55"/>
<polygon fill="#63b8ff" stroke="#63b8ff" points="2075.75,-121.54 2066.39,-126.49 2076.8,-128.46 2075.75,-121.54"/>
</a>
</g>
</g>
<!-- Node55&#45;&gt;Node50 -->
<g id="edge55_Node000055_Node000050" class="edge">
<title>Node55&#45;&gt;Node50</title>
<g id="a_edge55_Node000055_Node000050"><a xlink:title=" ">
<path fill="none" stroke="#63b8ff" d="M2075.94,-124.92C2086.11,-123.44 2096.59,-122.05 2106.5,-121 2175.56,-113.65 2682.83,-135.5 2730.5,-85 2739.65,-75.3 2737.7,-66.22 2730.5,-55 2718.55,-36.36 2696.62,-25.43 2676.63,-19.07"/>
<polygon fill="#63b8ff" stroke="#63b8ff" points="2075.27,-121.48 2065.9,-126.44 2076.31,-128.41 2075.27,-121.48"/>
</a>
</g>
</g>
<!-- Node56&#45;&gt;Node57 -->
<g id="edge57_Node000056_Node000057" class="edge">
<title>Node56&#45;&gt;Node57</title>
<g id="a_edge57_Node000056_Node000057"><a xlink:title=" ">
<path fill="none" stroke="#63b8ff" d="M2168.5,-182.35C2168.5,-172.47 2168.5,-160.51 2168.5,-151.36"/>
<polygon fill="#63b8ff" stroke="#63b8ff" points="2165,-182.37 2168.5,-192.37 2172,-182.37 2165,-182.37"/>
</a>
</g>
</g>
<!-- Node58 -->
<g id="Node000058" class="node">
<title>Node58</title>
<g id="a_Node000058"><a xlink:href="_driver_2_t_pipe_2_maker_8h.html" target="_top" xlink:title=" ">
<polygon fill="white" stroke="#666666" points="2358.5,-145.5 2240.5,-145.5 2240.5,-126.5 2358.5,-126.5 2358.5,-145.5"/>
<text text-anchor="middle" x="2299.5" y="-133.5" font-family="Helvetica,sans-Serif" font-size="10.00">Driver/TPipe/Maker.h</text>
</a>
</g>
</g>
<!-- Node56&#45;&gt;Node58 -->
<g id="edge58_Node000056_Node000058" class="edge">
<title>Node56&#45;&gt;Node58</title>
<g id="a_edge58_Node000056_Node000058"><a xlink:title=" ">
<path fill="none" stroke="#63b8ff" d="M2195.39,-187.86C2221.2,-175.25 2259.46,-156.56 2281.69,-145.7"/>
<polygon fill="#63b8ff" stroke="#63b8ff" points="2193.62,-184.83 2186.17,-192.37 2196.69,-191.12 2193.62,-184.83"/>
</a>
</g>
</g>
</g>
</svg>
