<?xml version="1.0" encoding="UTF-8" standalone="no"?>
<!DOCTYPE svg PUBLIC "-//W3C//DTD SVG 1.1//EN"
 "http://www.w3.org/Graphics/SVG/1.1/DTD/svg11.dtd">
<!-- Generated by graphviz version 2.43.0 (0)
 -->
<!-- Title: Cpl/Math/IntegerExpressionParser.h Pages: 1 -->
<svg width="970pt" height="368pt"
 viewBox="0.00 0.00 970.13 368.00" xmlns="http://www.w3.org/2000/svg" xmlns:xlink="http://www.w3.org/1999/xlink">
<g id="graph0" class="graph" transform="scale(1 1) rotate(0) translate(4 364)">
<title>Cpl/Math/IntegerExpressionParser.h</title>
<!-- Node1 -->
<g id="Node000001" class="node">
<title>Node1</title>
<g id="a_Node000001"><a xlink:title="This file contains a collection of methods that parses a null terminated string that contains an arit...">
<polygon fill="#999999" stroke="#666666" points="298.5,-360 147.5,-360 147.5,-330 298.5,-330 298.5,-360"/>
<text text-anchor="start" x="155.5" y="-348" font-family="Helvetica,sans-Serif" font-size="10.00">Cpl/Math/IntegerExpression</text>
<text text-anchor="middle" x="223" y="-337" font-family="Helvetica,sans-Serif" font-size="10.00">Parser.h</text>
</a>
</g>
</g>
<!-- Node2 -->
<g id="Node000002" class="node">
<title>Node2</title>
<g id="a_Node000002"><a xlink:title=" ">
<polygon fill="#e0e0e0" stroke="#999999" points="92,-19 0,-19 0,0 92,0 92,-19"/>
<text text-anchor="middle" x="46" y="-7" font-family="Helvetica,sans-Serif" font-size="10.00">colony_config.h</text>
</a>
</g>
</g>
<!-- Node1&#45;&gt;Node2 -->
<g id="edge1_Node000001_Node000002" class="edge">
<title>Node1&#45;&gt;Node2</title>
<g id="a_edge1_Node000001_Node000002"><a xlink:title=" ">
<path fill="none" stroke="#63b8ff" d="M147.2,-335.14C85.3,-323.19 8,-295.29 8,-230.5 8,-230.5 8,-230.5 8,-118.5 8,-85.02 24.45,-48.84 35.7,-28.01"/>
<polygon fill="#63b8ff" stroke="#63b8ff" points="38.87,-29.53 40.72,-19.1 32.76,-26.1 38.87,-29.53"/>
</a>
</g>
</g>
<!-- Node3 -->
<g id="Node000003" class="node">
<title>Node3</title>
<g id="a_Node000003"><a xlink:href="_stack_8h.html" target="_top" xlink:title=" ">
<polygon fill="white" stroke="#666666" points="743,-294 621,-294 621,-275 743,-275 743,-294"/>
<text text-anchor="middle" x="682" y="-282" font-family="Helvetica,sans-Serif" font-size="10.00">Cpl/Container/Stack.h</text>
</a>
</g>
</g>
<!-- Node1&#45;&gt;Node3 -->
<g id="edge2_Node000001_Node000003" class="edge">
<title>Node1&#45;&gt;Node3</title>
<g id="a_edge2_Node000001_Node000003"><a xlink:title=" ">
<path fill="none" stroke="#63b8ff" d="M298.54,-334.37C385.1,-323.34 525.91,-305.39 610.67,-294.59"/>
<polygon fill="#63b8ff" stroke="#63b8ff" points="611.25,-298.05 620.72,-293.31 610.36,-291.1 611.25,-298.05"/>
</a>
</g>
</g>
<!-- Node5 -->
<g id="Node000005" class="node">
<title>Node5</title>
<g id="a_Node000005"><a xlink:href="_system_2_trace_8h.html" target="_top" xlink:title=" ">
<polygon fill="white" stroke="#666666" points="278,-294 168,-294 168,-275 278,-275 278,-294"/>
<text text-anchor="middle" x="223" y="-282" font-family="Helvetica,sans-Serif" font-size="10.00">Cpl/System/Trace.h</text>
</a>
</g>
</g>
<!-- Node1&#45;&gt;Node5 -->
<g id="edge4_Node000001_Node000005" class="edge">
<title>Node1&#45;&gt;Node5</title>
<g id="a_edge4_Node000001_Node000005"><a xlink:title=" ">
<path fill="none" stroke="#63b8ff" d="M223,-329.84C223,-322.21 223,-312.7 223,-304.45"/>
<polygon fill="#63b8ff" stroke="#63b8ff" points="226.5,-304.27 223,-294.27 219.5,-304.27 226.5,-304.27"/>
</a>
</g>
</g>
<!-- Node4 -->
<g id="Node000004" class="node">
<title>Node4</title>
<g id="a_Node000004"><a xlink:title=" ">
<polygon fill="#e0e0e0" stroke="#999999" points="727.5,-74 674.5,-74 674.5,-55 727.5,-55 727.5,-74"/>
<text text-anchor="middle" x="701" y="-62" font-family="Helvetica,sans-Serif" font-size="10.00">stdint.h</text>
</a>
</g>
</g>
<!-- Node3&#45;&gt;Node4 -->
<g id="edge3_Node000003_Node000004" class="edge">
<title>Node3&#45;&gt;Node4</title>
<g id="a_edge3_Node000003_Node000004"><a xlink:title=" ">
<path fill="none" stroke="#63b8ff" d="M743.1,-280.26C807.22,-273.21 905.07,-251.31 952,-184 1007.51,-104.38 820.29,-76.69 737.93,-68.51"/>
<polygon fill="#63b8ff" stroke="#63b8ff" points="738.02,-65 727.74,-67.54 737.36,-71.97 738.02,-65"/>
</a>
</g>
</g>
<!-- Node5&#45;&gt;Node2 -->
<g id="edge5_Node000005_Node000002" class="edge">
<title>Node5&#45;&gt;Node2</title>
<g id="a_edge5_Node000005_Node000002"><a xlink:title=" ">
<path fill="none" stroke="#63b8ff" d="M172.75,-275C120.42,-262.93 46,-235.26 46,-175.5 46,-175.5 46,-175.5 46,-118.5 46,-87.19 46,-50.77 46,-29.23"/>
<polygon fill="#63b8ff" stroke="#63b8ff" points="49.5,-29.18 46,-19.18 42.5,-29.18 49.5,-29.18"/>
</a>
</g>
</g>
<!-- Node6 -->
<g id="Node000006" class="node">
<title>Node6</title>
<g id="a_Node000006"><a xlink:href="_text_2_string_8h.html" target="_top" xlink:title=" ">
<polygon fill="white" stroke="#666666" points="308,-184 212,-184 212,-165 308,-165 308,-184"/>
<text text-anchor="middle" x="260" y="-172" font-family="Helvetica,sans-Serif" font-size="10.00">Cpl/Text/String.h</text>
</a>
</g>
</g>
<!-- Node5&#45;&gt;Node6 -->
<g id="edge6_Node000005_Node000006" class="edge">
<title>Node5&#45;&gt;Node6</title>
<g id="a_edge6_Node000005_Node000006"><a xlink:title=" ">
<path fill="none" stroke="#63b8ff" d="M226.83,-274.73C230.66,-265.82 236.58,-251.58 241,-239 246.25,-224.05 251.35,-206.82 254.94,-194.08"/>
<polygon fill="#63b8ff" stroke="#63b8ff" points="258.37,-194.78 257.67,-184.21 251.63,-192.91 258.37,-194.78"/>
</a>
</g>
</g>
<!-- Node14 -->
<g id="Node000014" class="node">
<title>Node14</title>
<g id="a_Node000014"><a xlink:href="_thread_8h.html" target="_top" xlink:title=" ">
<polygon fill="white" stroke="#666666" points="694,-239 576,-239 576,-220 694,-220 694,-239"/>
<text text-anchor="middle" x="635" y="-227" font-family="Helvetica,sans-Serif" font-size="10.00">Cpl/System/Thread.h</text>
</a>
</g>
</g>
<!-- Node5&#45;&gt;Node14 -->
<g id="edge17_Node000005_Node000014" class="edge">
<title>Node5&#45;&gt;Node14</title>
<g id="a_edge17_Node000005_Node000014"><a xlink:title=" ">
<path fill="none" stroke="#63b8ff" d="M278.14,-276.41C352.47,-266.84 484.81,-249.82 565.76,-239.41"/>
<polygon fill="#63b8ff" stroke="#63b8ff" points="566.39,-242.86 575.86,-238.11 565.5,-235.91 566.39,-242.86"/>
</a>
</g>
</g>
<!-- Node20 -->
<g id="Node000020" class="node">
<title>Node20</title>
<g id="a_Node000020"><a xlink:href="_output_8h.html" target="_top" xlink:title=" ">
<polygon fill="white" stroke="#666666" points="231.5,-239 142.5,-239 142.5,-220 231.5,-220 231.5,-239"/>
<text text-anchor="middle" x="187" y="-227" font-family="Helvetica,sans-Serif" font-size="10.00">Cpl/Io/Output.h</text>
</a>
</g>
</g>
<!-- Node5&#45;&gt;Node20 -->
<g id="edge24_Node000005_Node000020" class="edge">
<title>Node5&#45;&gt;Node20</title>
<g id="a_edge24_Node000005_Node000020"><a xlink:title=" ">
<path fill="none" stroke="#63b8ff" d="M217.06,-274.75C212.02,-267.34 204.66,-256.5 198.49,-247.41"/>
<polygon fill="#63b8ff" stroke="#63b8ff" points="201.35,-245.39 192.83,-239.09 195.56,-249.33 201.35,-245.39"/>
</a>
</g>
</g>
<!-- Node7 -->
<g id="Node000007" class="node">
<title>Node7</title>
<g id="a_Node000007"><a xlink:title=" ">
<polygon fill="#e0e0e0" stroke="#999999" points="386.5,-74 301.5,-74 301.5,-55 386.5,-55 386.5,-74"/>
<text text-anchor="middle" x="344" y="-62" font-family="Helvetica,sans-Serif" font-size="10.00">colony_map.h</text>
</a>
</g>
</g>
<!-- Node6&#45;&gt;Node7 -->
<g id="edge7_Node000006_Node000007" class="edge">
<title>Node6&#45;&gt;Node7</title>
<g id="a_edge7_Node000006_Node000007"><a xlink:title=" ">
<path fill="none" stroke="#63b8ff" d="M277.88,-164.93C291.99,-157.31 311.2,-144.92 323,-129 332.83,-115.73 338.22,-97.61 341.07,-84.13"/>
<polygon fill="#63b8ff" stroke="#63b8ff" points="344.54,-84.56 342.9,-74.09 337.66,-83.3 344.54,-84.56"/>
</a>
</g>
</g>
<!-- Node8 -->
<g id="Node000008" class="node">
<title>Node8</title>
<g id="a_Node000008"><a xlink:href="_key_8h.html" target="_top" xlink:title=" ">
<polygon fill="white" stroke="#666666" points="313.5,-129 202.5,-129 202.5,-110 313.5,-110 313.5,-129"/>
<text text-anchor="middle" x="258" y="-117" font-family="Helvetica,sans-Serif" font-size="10.00">Cpl/Container/Key.h</text>
</a>
</g>
</g>
<!-- Node6&#45;&gt;Node8 -->
<g id="edge8_Node000006_Node000008" class="edge">
<title>Node6&#45;&gt;Node8</title>
<g id="a_edge8_Node000006_Node000008"><a xlink:title=" ">
<path fill="none" stroke="#63b8ff" d="M259.67,-164.75C259.41,-157.8 259.03,-147.85 258.7,-139.13"/>
<polygon fill="#63b8ff" stroke="#63b8ff" points="262.2,-138.95 258.32,-129.09 255.2,-139.21 262.2,-138.95"/>
</a>
</g>
</g>
<!-- Node12 -->
<g id="Node000012" class="node">
<title>Node12</title>
<g id="a_Node000012"><a xlink:title=" ">
<polygon fill="#e0e0e0" stroke="#999999" points="162,-129 106,-129 106,-110 162,-110 162,-129"/>
<text text-anchor="middle" x="134" y="-117" font-family="Helvetica,sans-Serif" font-size="10.00">stdarg.h</text>
</a>
</g>
</g>
<!-- Node6&#45;&gt;Node12 -->
<g id="edge15_Node000006_Node000012" class="edge">
<title>Node6&#45;&gt;Node12</title>
<g id="a_edge15_Node000006_Node000012"><a xlink:title=" ">
<path fill="none" stroke="#63b8ff" d="M239.76,-164.98C219.3,-156.38 187.47,-142.99 164.07,-133.15"/>
<polygon fill="#63b8ff" stroke="#63b8ff" points="165.19,-129.82 154.61,-129.17 162.47,-136.27 165.19,-129.82"/>
</a>
</g>
</g>
<!-- Node13 -->
<g id="Node000013" class="node">
<title>Node13</title>
<g id="a_Node000013"><a xlink:title=" ">
<polygon fill="#e0e0e0" stroke="#999999" points="430,-129 370,-129 370,-110 430,-110 430,-129"/>
<text text-anchor="middle" x="400" y="-117" font-family="Helvetica,sans-Serif" font-size="10.00">iostream</text>
</a>
</g>
</g>
<!-- Node6&#45;&gt;Node13 -->
<g id="edge16_Node000006_Node000013" class="edge">
<title>Node6&#45;&gt;Node13</title>
<g id="a_edge16_Node000006_Node000013"><a xlink:title=" ">
<path fill="none" stroke="#63b8ff" d="M282.49,-164.98C305.52,-156.27 341.54,-142.63 367.63,-132.75"/>
<polygon fill="#63b8ff" stroke="#63b8ff" points="368.98,-135.98 377.1,-129.17 366.51,-129.44 368.98,-135.98"/>
</a>
</g>
</g>
<!-- Node8&#45;&gt;Node4 -->
<g id="edge12_Node000008_Node000004" class="edge">
<title>Node8&#45;&gt;Node4</title>
<g id="a_edge12_Node000008_Node000004"><a xlink:title=" ">
<path fill="none" stroke="#63b8ff" d="M313.66,-111.84C405.54,-100.85 586.52,-79.2 664.18,-69.9"/>
<polygon fill="#63b8ff" stroke="#63b8ff" points="664.92,-73.34 674.43,-68.68 664.09,-66.39 664.92,-73.34"/>
</a>
</g>
</g>
<!-- Node8&#45;&gt;Node7 -->
<g id="edge14_Node000008_Node000007" class="edge">
<title>Node8&#45;&gt;Node7</title>
<g id="a_edge14_Node000008_Node000007"><a xlink:title=" ">
<path fill="none" stroke="#63b8ff" d="M271.82,-109.98C285.15,-101.77 305.58,-89.18 321.31,-79.49"/>
<polygon fill="#63b8ff" stroke="#63b8ff" points="323.25,-82.4 329.93,-74.17 319.58,-76.44 323.25,-82.4"/>
</a>
</g>
</g>
<!-- Node9 -->
<g id="Node000009" class="node">
<title>Node9</title>
<g id="a_Node000009"><a xlink:href="_fatal_error_8h.html" target="_top" xlink:title=" ">
<polygon fill="white" stroke="#666666" points="209,-74 79,-74 79,-55 209,-55 209,-74"/>
<text text-anchor="middle" x="144" y="-62" font-family="Helvetica,sans-Serif" font-size="10.00">Cpl/System/FatalError.h</text>
</a>
</g>
</g>
<!-- Node8&#45;&gt;Node9 -->
<g id="edge9_Node000008_Node000009" class="edge">
<title>Node8&#45;&gt;Node9</title>
<g id="a_edge9_Node000008_Node000009"><a xlink:title=" ">
<path fill="none" stroke="#63b8ff" d="M239.68,-109.98C221.34,-101.46 192.89,-88.23 171.77,-78.41"/>
<polygon fill="#63b8ff" stroke="#63b8ff" points="173.19,-75.21 162.65,-74.17 170.24,-81.56 173.19,-75.21"/>
</a>
</g>
</g>
<!-- Node11 -->
<g id="Node000011" class="node">
<title>Node11</title>
<g id="a_Node000011"><a xlink:title=" ">
<polygon fill="#e0e0e0" stroke="#999999" points="283.5,-74 230.5,-74 230.5,-55 283.5,-55 283.5,-74"/>
<text text-anchor="middle" x="257" y="-62" font-family="Helvetica,sans-Serif" font-size="10.00">string.h</text>
</a>
</g>
</g>
<!-- Node8&#45;&gt;Node11 -->
<g id="edge13_Node000008_Node000011" class="edge">
<title>Node8&#45;&gt;Node11</title>
<g id="a_edge13_Node000008_Node000011"><a xlink:title=" ">
<path fill="none" stroke="#63b8ff" d="M257.83,-109.75C257.7,-102.8 257.52,-92.85 257.35,-84.13"/>
<polygon fill="#63b8ff" stroke="#63b8ff" points="260.85,-84.02 257.16,-74.09 253.85,-84.15 260.85,-84.02"/>
</a>
</g>
</g>
<!-- Node9&#45;&gt;Node2 -->
<g id="edge11_Node000009_Node000002" class="edge">
<title>Node9&#45;&gt;Node2</title>
<g id="a_edge11_Node000009_Node000002"><a xlink:title=" ">
<path fill="none" stroke="#63b8ff" d="M128.25,-54.98C112.77,-46.61 88.91,-33.7 70.86,-23.95"/>
<polygon fill="#63b8ff" stroke="#63b8ff" points="72.49,-20.85 62.03,-19.17 69.16,-27.01 72.49,-20.85"/>
</a>
</g>
</g>
<!-- Node10 -->
<g id="Node000010" class="node">
<title>Node10</title>
<g id="a_Node000010"><a xlink:title=" ">
<polygon fill="#e0e0e0" stroke="#999999" points="172,-19 116,-19 116,0 172,0 172,-19"/>
<text text-anchor="middle" x="144" y="-7" font-family="Helvetica,sans-Serif" font-size="10.00">stddef.h</text>
</a>
</g>
</g>
<!-- Node9&#45;&gt;Node10 -->
<g id="edge10_Node000009_Node000010" class="edge">
<title>Node9&#45;&gt;Node10</title>
<g id="a_edge10_Node000009_Node000010"><a xlink:title=" ">
<path fill="none" stroke="#63b8ff" d="M144,-54.75C144,-47.8 144,-37.85 144,-29.13"/>
<polygon fill="#63b8ff" stroke="#63b8ff" points="147.5,-29.09 144,-19.09 140.5,-29.09 147.5,-29.09"/>
</a>
</g>
</g>
<!-- Node14&#45;&gt;Node7 -->
<g id="edge18_Node000014_Node000007" class="edge">
<title>Node14&#45;&gt;Node7</title>
<g id="a_edge18_Node000014_Node000007"><a xlink:title=" ">
<path fill="none" stroke="#63b8ff" d="M694.18,-223.26C745.7,-216.26 808.32,-200.34 782,-165 736.3,-103.64 503.34,-77.89 397.03,-69.21"/>
<polygon fill="#63b8ff" stroke="#63b8ff" points="397.09,-65.7 386.84,-68.4 396.53,-72.68 397.09,-65.7"/>
</a>
</g>
</g>
<!-- Node15 -->
<g id="Node000015" class="node">
<title>Node15</title>
<g id="a_Node000015"><a xlink:href="_runnable_8h.html" target="_top" xlink:title=" ">
<polygon fill="white" stroke="#666666" points="773,-184 643,-184 643,-165 773,-165 773,-184"/>
<text text-anchor="middle" x="708" y="-172" font-family="Helvetica,sans-Serif" font-size="10.00">Cpl/System/Runnable.h</text>
</a>
</g>
</g>
<!-- Node14&#45;&gt;Node15 -->
<g id="edge19_Node000014_Node000015" class="edge">
<title>Node14&#45;&gt;Node15</title>
<g id="a_edge19_Node000014_Node000015"><a xlink:title=" ">
<path fill="none" stroke="#63b8ff" d="M646.73,-219.98C657.73,-212 674.42,-199.88 687.6,-190.31"/>
<polygon fill="#63b8ff" stroke="#63b8ff" points="690.02,-192.88 696.06,-184.17 685.91,-187.21 690.02,-192.88"/>
</a>
</g>
</g>
<!-- Node16 -->
<g id="Node000016" class="node">
<title>Node16</title>
<g id="a_Node000016"><a xlink:href="_signable_8h.html" target="_top" xlink:title=" ">
<polygon fill="white" stroke="#666666" points="625,-184 499,-184 499,-165 625,-165 625,-184"/>
<text text-anchor="middle" x="562" y="-172" font-family="Helvetica,sans-Serif" font-size="10.00">Cpl/System/Signable.h</text>
</a>
</g>
</g>
<!-- Node14&#45;&gt;Node16 -->
<g id="edge20_Node000014_Node000016" class="edge">
<title>Node14&#45;&gt;Node16</title>
<g id="a_edge20_Node000014_Node000016"><a xlink:title=" ">
<path fill="none" stroke="#63b8ff" d="M623.27,-219.98C612.27,-212 595.58,-199.88 582.4,-190.31"/>
<polygon fill="#63b8ff" stroke="#63b8ff" points="584.09,-187.21 573.94,-184.17 579.98,-192.88 584.09,-187.21"/>
</a>
</g>
</g>
<!-- Node18 -->
<g id="Node000018" class="node">
<title>Node18</title>
<g id="a_Node000018"><a xlink:href="_traverser_8h.html" target="_top" xlink:title=" ">
<polygon fill="white" stroke="#666666" points="943,-184 829,-184 829,-165 943,-165 943,-184"/>
<text text-anchor="middle" x="886" y="-172" font-family="Helvetica,sans-Serif" font-size="10.00">Cpl/Type/Traverser.h</text>
</a>
</g>
</g>
<!-- Node14&#45;&gt;Node18 -->
<g id="edge22_Node000014_Node000018" class="edge">
<title>Node14&#45;&gt;Node18</title>
<g id="a_edge22_Node000014_Node000018"><a xlink:title=" ">
<path fill="none" stroke="#63b8ff" d="M675.33,-219.98C718.84,-210.8 788.2,-196.15 835.35,-186.19"/>
<polygon fill="#63b8ff" stroke="#63b8ff" points="836.3,-189.57 845.36,-184.08 834.85,-182.72 836.3,-189.57"/>
</a>
</g>
</g>
<!-- Node19 -->
<g id="Node000019" class="node">
<title>Node19</title>
<g id="a_Node000019"><a xlink:title=" ">
<polygon fill="#e0e0e0" stroke="#999999" points="480.5,-184 427.5,-184 427.5,-165 480.5,-165 480.5,-184"/>
<text text-anchor="middle" x="454" y="-172" font-family="Helvetica,sans-Serif" font-size="10.00">stdlib.h</text>
</a>
</g>
</g>
<!-- Node14&#45;&gt;Node19 -->
<g id="edge23_Node000014_Node000019" class="edge">
<title>Node14&#45;&gt;Node19</title>
<g id="a_edge23_Node000014_Node000019"><a xlink:title=" ">
<path fill="none" stroke="#63b8ff" d="M605.92,-219.98C574.58,-210.81 524.65,-196.19 490.65,-186.23"/>
<polygon fill="#63b8ff" stroke="#63b8ff" points="491.23,-182.75 480.65,-183.3 489.26,-189.47 491.23,-182.75"/>
</a>
</g>
</g>
<!-- Node17 -->
<g id="Node000017" class="node">
<title>Node17</title>
<g id="a_Node000017"><a xlink:href="_item_8h.html" target="_top" xlink:title=" ">
<polygon fill="white" stroke="#666666" points="588.5,-129 471.5,-129 471.5,-110 588.5,-110 588.5,-129"/>
<text text-anchor="middle" x="530" y="-117" font-family="Helvetica,sans-Serif" font-size="10.00">Cpl/Container/Item.h</text>
</a>
</g>
</g>
<!-- Node16&#45;&gt;Node17 -->
<g id="edge21_Node000016_Node000017" class="edge">
<title>Node16&#45;&gt;Node17</title>
<g id="a_edge21_Node000016_Node000017"><a xlink:title=" ">
<path fill="none" stroke="#63b8ff" d="M556.72,-164.75C552.29,-157.42 545.84,-146.73 540.38,-137.7"/>
<polygon fill="#63b8ff" stroke="#63b8ff" points="543.35,-135.84 535.19,-129.09 537.36,-139.46 543.35,-135.84"/>
</a>
</g>
</g>
<!-- Node20&#45;&gt;Node6 -->
<g id="edge25_Node000020_Node000006" class="edge">
<title>Node20&#45;&gt;Node6</title>
<g id="a_edge25_Node000020_Node000006"><a xlink:title=" ">
<path fill="none" stroke="#63b8ff" d="M198.73,-219.98C209.73,-212 226.42,-199.88 239.6,-190.31"/>
<polygon fill="#63b8ff" stroke="#63b8ff" points="242.02,-192.88 248.06,-184.17 237.91,-187.21 242.02,-192.88"/>
</a>
</g>
</g>
<!-- Node20&#45;&gt;Node12 -->
<g id="edge29_Node000020_Node000012" class="edge">
<title>Node20&#45;&gt;Node12</title>
<g id="a_edge29_Node000020_Node000012"><a xlink:title=" ">
<path fill="none" stroke="#63b8ff" d="M153.6,-219.98C135.22,-213.4 113.98,-202.24 103,-184 93.67,-168.51 105.37,-149.8 116.96,-136.72"/>
<polygon fill="#63b8ff" stroke="#63b8ff" points="119.6,-139.03 123.98,-129.38 114.54,-134.19 119.6,-139.03"/>
</a>
</g>
</g>
<!-- Node21 -->
<g id="Node000021" class="node">
<title>Node21</title>
<g id="a_Node000021"><a xlink:href="_close_8h.html" target="_top" xlink:title=" ">
<polygon fill="white" stroke="#666666" points="409.5,-184 326.5,-184 326.5,-165 409.5,-165 409.5,-184"/>
<text text-anchor="middle" x="368" y="-172" font-family="Helvetica,sans-Serif" font-size="10.00">Cpl/Io/Close.h</text>
</a>
</g>
</g>
<!-- Node20&#45;&gt;Node21 -->
<g id="edge26_Node000020_Node000021" class="edge">
<title>Node20&#45;&gt;Node21</title>
<g id="a_edge26_Node000020_Node000021"><a xlink:title=" ">
<path fill="none" stroke="#63b8ff" d="M216.08,-219.98C246.6,-211.05 294.76,-196.94 328.66,-187.02"/>
<polygon fill="#63b8ff" stroke="#63b8ff" points="330.08,-190.25 338.69,-184.08 328.11,-183.53 330.08,-190.25"/>
</a>
</g>
</g>
<!-- Node22 -->
<g id="Node000022" class="node">
<title>Node22</title>
<g id="a_Node000022"><a xlink:href="_is_eos_8h.html" target="_top" xlink:title=" ">
<polygon fill="white" stroke="#666666" points="194,-184 112,-184 112,-165 194,-165 194,-184"/>
<text text-anchor="middle" x="153" y="-172" font-family="Helvetica,sans-Serif" font-size="10.00">Cpl/Io/IsEos.h</text>
</a>
</g>
</g>
<!-- Node20&#45;&gt;Node22 -->
<g id="edge28_Node000020_Node000022" class="edge">
<title>Node20&#45;&gt;Node22</title>
<g id="a_edge28_Node000020_Node000022"><a xlink:title=" ">
<path fill="none" stroke="#63b8ff" d="M181.39,-219.75C176.68,-212.42 169.83,-201.73 164.03,-192.7"/>
<polygon fill="#63b8ff" stroke="#63b8ff" points="166.86,-190.62 158.51,-184.09 160.96,-194.4 166.86,-190.62"/>
</a>
</g>
</g>
<!-- Node21&#45;&gt;Node17 -->
<g id="edge27_Node000021_Node000017" class="edge">
<title>Node21&#45;&gt;Node17</title>
<g id="a_edge27_Node000021_Node000017"><a xlink:title=" ">
<path fill="none" stroke="#63b8ff" d="M394.03,-164.98C421.11,-156.13 463.71,-142.19 494.01,-132.28"/>
<polygon fill="#63b8ff" stroke="#63b8ff" points="495.35,-135.52 503.77,-129.08 493.18,-128.87 495.35,-135.52"/>
</a>
</g>
</g>
</g>
</svg>
