<?xml version="1.0" encoding="UTF-8" standalone="no"?>
<!DOCTYPE svg PUBLIC "-//W3C//DTD SVG 1.1//EN"
 "http://www.w3.org/Graphics/SVG/1.1/DTD/svg11.dtd">
<!-- Generated by graphviz version 2.43.0 (0)
 -->
<!-- Title: Cpl/Io/File/Littlefs/Private_.h Pages: 1 -->
<svg width="546pt" height="269pt"
 viewBox="0.00 0.00 545.50 269.00" xmlns="http://www.w3.org/2000/svg" xmlns:xlink="http://www.w3.org/1999/xlink">
<g id="graph0" class="graph" transform="scale(1 1) rotate(0) translate(4 265)">
<title>Cpl/Io/File/Littlefs/Private_.h</title>
<!-- Node1 -->
<g id="Node000001" class="node">
<title>Node1</title>
<g id="a_Node000001"><a xlink:title=" ">
<polygon fill="#999999" stroke="#666666" points="268.5,-261 167.5,-261 167.5,-231 268.5,-231 268.5,-261"/>
<text text-anchor="start" x="175.5" y="-249" font-family="Helvetica,sans-Serif" font-size="10.00">Cpl/Io/File/Littlefs</text>
<text text-anchor="middle" x="218" y="-238" font-family="Helvetica,sans-Serif" font-size="10.00">/Private_.h</text>
</a>
</g>
</g>
<!-- Node2 -->
<g id="Node000002" class="node">
<title>Node2</title>
<g id="a_Node000002"><a xlink:title=" ">
<polygon fill="#e0e0e0" stroke="#999999" points="92,-129 0,-129 0,-110 92,-110 92,-129"/>
<text text-anchor="middle" x="46" y="-117" font-family="Helvetica,sans-Serif" font-size="10.00">colony_config.h</text>
</a>
</g>
</g>
<!-- Node1&#45;&gt;Node2 -->
<g id="edge1_Node000001_Node000002" class="edge">
<title>Node1&#45;&gt;Node2</title>
<g id="a_edge1_Node000001_Node000002"><a xlink:title=" ">
<path fill="none" stroke="#63b8ff" d="M167.41,-237.28C138.18,-230.5 102.46,-217.97 78,-195 62.16,-180.12 53.79,-156.1 49.64,-139.37"/>
<polygon fill="#63b8ff" stroke="#63b8ff" points="52.96,-138.17 47.4,-129.15 46.12,-139.67 52.96,-138.17"/>
</a>
</g>
</g>
<!-- Node3 -->
<g id="Node000003" class="node">
<title>Node3</title>
<g id="a_Node000003"><a xlink:title=" ">
<polygon fill="#e0e0e0" stroke="#999999" points="254,-129 182,-129 182,-110 254,-110 254,-129"/>
<text text-anchor="middle" x="218" y="-117" font-family="Helvetica,sans-Serif" font-size="10.00">littlefs/lfs.h</text>
</a>
</g>
</g>
<!-- Node1&#45;&gt;Node3 -->
<g id="edge2_Node000001_Node000003" class="edge">
<title>Node1&#45;&gt;Node3</title>
<g id="a_edge2_Node000001_Node000003"><a xlink:title=" ">
<path fill="none" stroke="#63b8ff" d="M218,-230.72C218,-208.12 218,-164.12 218,-139.09"/>
<polygon fill="#63b8ff" stroke="#63b8ff" points="221.5,-139.07 218,-129.07 214.5,-139.07 221.5,-139.07"/>
</a>
</g>
</g>
<!-- Node4 -->
<g id="Node000004" class="node">
<title>Node4</title>
<g id="a_Node000004"><a xlink:href="_s_pool_8h.html" target="_top" xlink:title=" ">
<polygon fill="white" stroke="#666666" points="386.5,-189.5 271.5,-189.5 271.5,-170.5 386.5,-170.5 386.5,-189.5"/>
<text text-anchor="middle" x="329" y="-177.5" font-family="Helvetica,sans-Serif" font-size="10.00">Cpl/Memory/SPool.h</text>
</a>
</g>
</g>
<!-- Node1&#45;&gt;Node4 -->
<g id="edge3_Node000001_Node000004" class="edge">
<title>Node1&#45;&gt;Node4</title>
<g id="a_edge3_Node000001_Node000004"><a xlink:title=" ">
<path fill="none" stroke="#63b8ff" d="M242.36,-230.95C261.14,-220.13 286.95,-205.24 305.51,-194.54"/>
<polygon fill="#63b8ff" stroke="#63b8ff" points="307.31,-197.54 314.23,-189.52 303.82,-191.48 307.31,-197.54"/>
</a>
</g>
</g>
<!-- Node11 -->
<g id="Node000011" class="node">
<title>Node11</title>
<g id="a_Node000011"><a xlink:href="_mutex_8h.html" target="_top" xlink:title=" ">
<polygon fill="white" stroke="#666666" points="530.5,-189.5 415.5,-189.5 415.5,-170.5 530.5,-170.5 530.5,-189.5"/>
<text text-anchor="middle" x="473" y="-177.5" font-family="Helvetica,sans-Serif" font-size="10.00">Cpl/System/Mutex.h</text>
</a>
</g>
</g>
<!-- Node1&#45;&gt;Node11 -->
<g id="edge11_Node000001_Node000011" class="edge">
<title>Node1&#45;&gt;Node11</title>
<g id="a_edge11_Node000001_Node000011"><a xlink:title=" ">
<path fill="none" stroke="#63b8ff" d="M268.68,-232.28C315.58,-220.51 384.57,-203.19 429.15,-192.01"/>
<polygon fill="#63b8ff" stroke="#63b8ff" points="430.25,-195.34 439.1,-189.51 428.55,-188.55 430.25,-195.34"/>
</a>
</g>
</g>
<!-- Node13 -->
<g id="Node000013" class="node">
<title>Node13</title>
<g id="a_Node000013"><a xlink:href="_cpl_2_io_2_file_2_littlefs_2_api_8h.html" target="_top" xlink:title=" ">
<polygon fill="white" stroke="#666666" points="188.5,-195 87.5,-195 87.5,-165 188.5,-165 188.5,-195"/>
<text text-anchor="start" x="95.5" y="-183" font-family="Helvetica,sans-Serif" font-size="10.00">Cpl/Io/File/Littlefs</text>
<text text-anchor="middle" x="138" y="-172" font-family="Helvetica,sans-Serif" font-size="10.00">/Api.h</text>
</a>
</g>
</g>
<!-- Node1&#45;&gt;Node13 -->
<g id="edge13_Node000001_Node000013" class="edge">
<title>Node1&#45;&gt;Node13</title>
<g id="a_edge13_Node000001_Node000013"><a xlink:title=" ">
<path fill="none" stroke="#63b8ff" d="M200.25,-230.8C189.47,-222.18 175.55,-211.04 163.6,-201.48"/>
<polygon fill="#63b8ff" stroke="#63b8ff" points="165.7,-198.68 155.7,-195.16 161.33,-204.14 165.7,-198.68"/>
</a>
</g>
</g>
<!-- Node5 -->
<g id="Node000005" class="node">
<title>Node5</title>
<g id="a_Node000005"><a xlink:href="_pool___8h.html" target="_top" xlink:title=" ">
<polygon fill="white" stroke="#666666" points="386,-129 272,-129 272,-110 386,-110 386,-129"/>
<text text-anchor="middle" x="329" y="-117" font-family="Helvetica,sans-Serif" font-size="10.00">Cpl/Memory/Pool_.h</text>
</a>
</g>
</g>
<!-- Node4&#45;&gt;Node5 -->
<g id="edge4_Node000004_Node000005" class="edge">
<title>Node4&#45;&gt;Node5</title>
<g id="a_edge4_Node000004_Node000005"><a xlink:title=" ">
<path fill="none" stroke="#63b8ff" d="M329,-170.37C329,-162.25 329,-149.81 329,-139.39"/>
<polygon fill="#63b8ff" stroke="#63b8ff" points="332.5,-139.17 329,-129.17 325.5,-139.17 332.5,-139.17"/>
</a>
</g>
</g>
<!-- Node10 -->
<g id="Node000010" class="node">
<title>Node10</title>
<g id="a_Node000010"><a xlink:href="_aligned_8h.html" target="_top" xlink:title=" ">
<polygon fill="white" stroke="#666666" points="537.5,-74 412.5,-74 412.5,-55 537.5,-55 537.5,-74"/>
<text text-anchor="middle" x="475" y="-62" font-family="Helvetica,sans-Serif" font-size="10.00">Cpl/Memory/Aligned.h</text>
</a>
</g>
</g>
<!-- Node4&#45;&gt;Node10 -->
<g id="edge9_Node000004_Node000010" class="edge">
<title>Node4&#45;&gt;Node10</title>
<g id="a_edge9_Node000004_Node000010"><a xlink:title=" ">
<path fill="none" stroke="#63b8ff" d="M340.74,-170.23C353.99,-160.31 376.14,-143.62 395,-129 416.05,-112.68 439.93,-93.65 456.08,-80.71"/>
<polygon fill="#63b8ff" stroke="#63b8ff" points="458.58,-83.19 464.19,-74.21 454.2,-77.73 458.58,-83.19"/>
</a>
</g>
</g>
<!-- Node6 -->
<g id="Node000006" class="node">
<title>Node6</title>
<g id="a_Node000006"><a xlink:href="_allocator_8h.html" target="_top" xlink:title=" ">
<polygon fill="white" stroke="#666666" points="394.5,-74 263.5,-74 263.5,-55 394.5,-55 394.5,-74"/>
<text text-anchor="middle" x="329" y="-62" font-family="Helvetica,sans-Serif" font-size="10.00">Cpl/Memory/Allocator.h</text>
</a>
</g>
</g>
<!-- Node5&#45;&gt;Node6 -->
<g id="edge5_Node000005_Node000006" class="edge">
<title>Node5&#45;&gt;Node6</title>
<g id="a_edge5_Node000005_Node000006"><a xlink:title=" ">
<path fill="none" stroke="#63b8ff" d="M329,-109.75C329,-102.8 329,-92.85 329,-84.13"/>
<polygon fill="#63b8ff" stroke="#63b8ff" points="332.5,-84.09 329,-74.09 325.5,-84.09 332.5,-84.09"/>
</a>
</g>
</g>
<!-- Node9 -->
<g id="Node000009" class="node">
<title>Node9</title>
<g id="a_Node000009"><a xlink:href="_d_list_8h.html" target="_top" xlink:title=" ">
<polygon fill="white" stroke="#666666" points="245.5,-74 126.5,-74 126.5,-55 245.5,-55 245.5,-74"/>
<text text-anchor="middle" x="186" y="-62" font-family="Helvetica,sans-Serif" font-size="10.00">Cpl/Container/DList.h</text>
</a>
</g>
</g>
<!-- Node5&#45;&gt;Node9 -->
<g id="edge8_Node000005_Node000009" class="edge">
<title>Node5&#45;&gt;Node9</title>
<g id="a_edge8_Node000005_Node000009"><a xlink:title=" ">
<path fill="none" stroke="#63b8ff" d="M306.02,-109.98C282.5,-101.27 245.71,-87.63 219.06,-77.75"/>
<polygon fill="#63b8ff" stroke="#63b8ff" points="219.99,-74.36 209.39,-74.17 217.55,-80.93 219.99,-74.36"/>
</a>
</g>
</g>
<!-- Node7 -->
<g id="Node000007" class="node">
<title>Node7</title>
<g id="a_Node000007"><a xlink:href="_item_8h.html" target="_top" xlink:title=" ">
<polygon fill="white" stroke="#666666" points="387.5,-19 270.5,-19 270.5,0 387.5,0 387.5,-19"/>
<text text-anchor="middle" x="329" y="-7" font-family="Helvetica,sans-Serif" font-size="10.00">Cpl/Container/Item.h</text>
</a>
</g>
</g>
<!-- Node6&#45;&gt;Node7 -->
<g id="edge6_Node000006_Node000007" class="edge">
<title>Node6&#45;&gt;Node7</title>
<g id="a_edge6_Node000006_Node000007"><a xlink:title=" ">
<path fill="none" stroke="#63b8ff" d="M329,-54.75C329,-47.8 329,-37.85 329,-29.13"/>
<polygon fill="#63b8ff" stroke="#63b8ff" points="332.5,-29.09 329,-19.09 325.5,-29.09 332.5,-29.09"/>
</a>
</g>
</g>
<!-- Node8 -->
<g id="Node000008" class="node">
<title>Node8</title>
<g id="a_Node000008"><a xlink:title=" ">
<polygon fill="#e0e0e0" stroke="#999999" points="479.5,-19 426.5,-19 426.5,0 479.5,0 479.5,-19"/>
<text text-anchor="middle" x="453" y="-7" font-family="Helvetica,sans-Serif" font-size="10.00">stdlib.h</text>
</a>
</g>
</g>
<!-- Node6&#45;&gt;Node8 -->
<g id="edge7_Node000006_Node000008" class="edge">
<title>Node6&#45;&gt;Node8</title>
<g id="a_edge7_Node000006_Node000008"><a xlink:title=" ">
<path fill="none" stroke="#63b8ff" d="M348.92,-54.98C369.05,-46.38 400.38,-32.99 423.41,-23.15"/>
<polygon fill="#63b8ff" stroke="#63b8ff" points="424.9,-26.32 432.71,-19.17 422.14,-19.88 424.9,-26.32"/>
</a>
</g>
</g>
<!-- Node10&#45;&gt;Node8 -->
<g id="edge10_Node000010_Node000008" class="edge">
<title>Node10&#45;&gt;Node8</title>
<g id="a_edge10_Node000010_Node000008"><a xlink:title=" ">
<path fill="none" stroke="#63b8ff" d="M471.37,-54.75C468.42,-47.65 464.17,-37.4 460.49,-28.56"/>
<polygon fill="#63b8ff" stroke="#63b8ff" points="463.63,-26.98 456.57,-19.09 457.17,-29.67 463.63,-26.98"/>
</a>
</g>
</g>
<!-- Node12 -->
<g id="Node000012" class="node">
<title>Node12</title>
<g id="a_Node000012"><a xlink:title=" ">
<polygon fill="#e0e0e0" stroke="#999999" points="527.5,-129 442.5,-129 442.5,-110 527.5,-110 527.5,-129"/>
<text text-anchor="middle" x="485" y="-117" font-family="Helvetica,sans-Serif" font-size="10.00">colony_map.h</text>
</a>
</g>
</g>
<!-- Node11&#45;&gt;Node12 -->
<g id="edge12_Node000011_Node000012" class="edge">
<title>Node11&#45;&gt;Node12</title>
<g id="a_edge12_Node000011_Node000012"><a xlink:title=" ">
<path fill="none" stroke="#63b8ff" d="M474.77,-170.37C476.45,-162.16 479.04,-149.54 481.19,-139.05"/>
<polygon fill="#63b8ff" stroke="#63b8ff" points="484.64,-139.67 483.22,-129.17 477.78,-138.26 484.64,-139.67"/>
</a>
</g>
</g>
<!-- Node13&#45;&gt;Node2 -->
<g id="edge14_Node000013_Node000002" class="edge">
<title>Node13&#45;&gt;Node2</title>
<g id="a_edge14_Node000013_Node000002"><a xlink:title=" ">
<path fill="none" stroke="#63b8ff" d="M115.73,-164.84C101.33,-155.68 82.67,-143.82 68.27,-134.66"/>
<polygon fill="#63b8ff" stroke="#63b8ff" points="69.83,-131.51 59.52,-129.09 66.08,-137.41 69.83,-131.51"/>
</a>
</g>
</g>
<!-- Node13&#45;&gt;Node3 -->
<g id="edge15_Node000013_Node000003" class="edge">
<title>Node13&#45;&gt;Node3</title>
<g id="a_edge15_Node000013_Node000003"><a xlink:title=" ">
<path fill="none" stroke="#63b8ff" d="M157.37,-164.84C169.57,-155.91 185.31,-144.41 197.69,-135.35"/>
<polygon fill="#63b8ff" stroke="#63b8ff" points="200.01,-137.99 206.01,-129.27 195.87,-132.34 200.01,-137.99"/>
</a>
</g>
</g>
<!-- Node14 -->
<g id="Node000014" class="node">
<title>Node14</title>
<g id="a_Node000014"><a xlink:title=" ">
<polygon fill="#e0e0e0" stroke="#999999" points="163.5,-129 110.5,-129 110.5,-110 163.5,-110 163.5,-129"/>
<text text-anchor="middle" x="137" y="-117" font-family="Helvetica,sans-Serif" font-size="10.00">string.h</text>
</a>
</g>
</g>
<!-- Node13&#45;&gt;Node14 -->
<g id="edge16_Node000013_Node000014" class="edge">
<title>Node13&#45;&gt;Node14</title>
<g id="a_edge16_Node000013_Node000014"><a xlink:title=" ">
<path fill="none" stroke="#63b8ff" d="M137.76,-164.84C137.63,-157.21 137.47,-147.7 137.32,-139.45"/>
<polygon fill="#63b8ff" stroke="#63b8ff" points="140.82,-139.2 137.15,-129.27 133.82,-139.32 140.82,-139.2"/>
</a>
</g>
</g>
</g>
</svg>
