<?xml version="1.0" encoding="UTF-8" standalone="no"?>
<!DOCTYPE svg PUBLIC "-//W3C//DTD SVG 1.1//EN"
 "http://www.w3.org/Graphics/SVG/1.1/DTD/svg11.dtd">
<!-- Generated by graphviz version 2.43.0 (0)
 -->
<!-- Title: Cpl/Itc/MailboxServer.h Pages: 1 -->
<svg width="1038pt" height="247pt"
 viewBox="0.00 0.00 1037.50 247.00" xmlns="http://www.w3.org/2000/svg" xmlns:xlink="http://www.w3.org/1999/xlink">
<g id="graph0" class="graph" transform="scale(1 1) rotate(0) translate(4 243)">
<title>Cpl/Itc/MailboxServer.h</title>
<!-- Node1 -->
<g id="Node000001" class="node">
<title>Node1</title>
<g id="a_Node000001"><a xlink:title=" ">
<polygon fill="#999999" stroke="#666666" points="683,-239 554,-239 554,-220 683,-220 683,-239"/>
<text text-anchor="middle" x="618.5" y="-227" font-family="Helvetica,sans-Serif" font-size="10.00">Cpl/Itc/MailboxServer.h</text>
</a>
</g>
</g>
<!-- Node2 -->
<g id="Node000002" class="node">
<title>Node2</title>
<g id="a_Node000002"><a xlink:href="_system_2_event_loop_8h.html" target="_top" xlink:title=" ">
<polygon fill="white" stroke="#666666" points="535,-184 400,-184 400,-165 535,-165 535,-184"/>
<text text-anchor="middle" x="467.5" y="-172" font-family="Helvetica,sans-Serif" font-size="10.00">Cpl/System/EventLoop.h</text>
</a>
</g>
</g>
<!-- Node1&#45;&gt;Node2 -->
<g id="edge1_Node000001_Node000002" class="edge">
<title>Node1&#45;&gt;Node2</title>
<g id="a_edge1_Node000001_Node000002"><a xlink:title=" ">
<path fill="none" stroke="#63b8ff" d="M594.24,-219.98C569.18,-211.19 529.87,-197.39 501.67,-187.49"/>
<polygon fill="#63b8ff" stroke="#63b8ff" points="502.8,-184.18 492.2,-184.17 500.48,-190.78 502.8,-184.18"/>
</a>
</g>
</g>
<!-- Node15 -->
<g id="Node000015" class="node">
<title>Node15</title>
<g id="a_Node000015"><a xlink:href="_mailbox_8h.html" target="_top" xlink:title=" ">
<polygon fill="white" stroke="#666666" points="856.5,-184 758.5,-184 758.5,-165 856.5,-165 856.5,-184"/>
<text text-anchor="middle" x="807.5" y="-172" font-family="Helvetica,sans-Serif" font-size="10.00">Cpl/Itc/Mailbox.h</text>
</a>
</g>
</g>
<!-- Node1&#45;&gt;Node15 -->
<g id="edge17_Node000001_Node000015" class="edge">
<title>Node1&#45;&gt;Node15</title>
<g id="a_edge17_Node000001_Node000015"><a xlink:title=" ">
<path fill="none" stroke="#63b8ff" d="M648.87,-219.98C680.87,-211.01 731.46,-196.82 766.88,-186.89"/>
<polygon fill="#63b8ff" stroke="#63b8ff" points="768.21,-190.15 776.9,-184.08 766.32,-183.41 768.21,-190.15"/>
</a>
</g>
</g>
<!-- Node3 -->
<g id="Node000003" class="node">
<title>Node3</title>
<g id="a_Node000003"><a xlink:href="_runnable_8h.html" target="_top" xlink:title=" ">
<polygon fill="white" stroke="#666666" points="371.5,-129 241.5,-129 241.5,-110 371.5,-110 371.5,-129"/>
<text text-anchor="middle" x="306.5" y="-117" font-family="Helvetica,sans-Serif" font-size="10.00">Cpl/System/Runnable.h</text>
</a>
</g>
</g>
<!-- Node2&#45;&gt;Node3 -->
<g id="edge2_Node000002_Node000003" class="edge">
<title>Node2&#45;&gt;Node3</title>
<g id="a_edge2_Node000002_Node000003"><a xlink:title=" ">
<path fill="none" stroke="#63b8ff" d="M441.63,-164.98C414.72,-156.13 372.38,-142.19 342.27,-132.28"/>
<polygon fill="#63b8ff" stroke="#63b8ff" points="343.16,-128.88 332.57,-129.08 340.97,-135.53 343.16,-128.88"/>
</a>
</g>
</g>
<!-- Node4 -->
<g id="Node000004" class="node">
<title>Node4</title>
<g id="a_Node000004"><a xlink:href="_semaphore_8h.html" target="_top" xlink:title=" ">
<polygon fill="white" stroke="#666666" points="703.5,-129 563.5,-129 563.5,-110 703.5,-110 703.5,-129"/>
<text text-anchor="middle" x="633.5" y="-117" font-family="Helvetica,sans-Serif" font-size="10.00">Cpl/System/Semaphore.h</text>
</a>
</g>
</g>
<!-- Node2&#45;&gt;Node4 -->
<g id="edge3_Node000002_Node000004" class="edge">
<title>Node2&#45;&gt;Node4</title>
<g id="a_edge3_Node000002_Node000004"><a xlink:title=" ">
<path fill="none" stroke="#63b8ff" d="M494.17,-164.98C522.04,-156.09 565.95,-142.07 597.02,-132.15"/>
<polygon fill="#63b8ff" stroke="#63b8ff" points="598.16,-135.46 606.62,-129.08 596.03,-128.79 598.16,-135.46"/>
</a>
</g>
</g>
<!-- Node6 -->
<g id="Node000006" class="node">
<title>Node6</title>
<g id="a_Node000006"><a xlink:href="_signable_8h.html" target="_top" xlink:title=" ">
<polygon fill="white" stroke="#666666" points="800.5,-74 674.5,-74 674.5,-55 800.5,-55 800.5,-74"/>
<text text-anchor="middle" x="737.5" y="-62" font-family="Helvetica,sans-Serif" font-size="10.00">Cpl/System/Signable.h</text>
</a>
</g>
</g>
<!-- Node2&#45;&gt;Node6 -->
<g id="edge7_Node000002_Node000006" class="edge">
<title>Node2&#45;&gt;Node6</title>
<g id="a_edge7_Node000002_Node000006"><a xlink:title=" ">
<path fill="none" stroke="#63b8ff" d="M535.23,-168.54C598.14,-162.66 685.99,-150.78 712.5,-129 725.94,-117.96 732.18,-98.71 735.07,-84.29"/>
<polygon fill="#63b8ff" stroke="#63b8ff" points="738.59,-84.44 736.73,-74.01 731.68,-83.32 738.59,-84.44"/>
</a>
</g>
</g>
<!-- Node8 -->
<g id="Node000008" class="node">
<title>Node8</title>
<g id="a_Node000008"><a xlink:href="_event_flag_8h.html" target="_top" xlink:title=" ">
<polygon fill="white" stroke="#666666" points="138,-74 5,-74 5,-55 138,-55 138,-74"/>
<text text-anchor="middle" x="71.5" y="-62" font-family="Helvetica,sans-Serif" font-size="10.00">Cpl/System/EventFlag.h</text>
</a>
</g>
</g>
<!-- Node2&#45;&gt;Node8 -->
<g id="edge8_Node000002_Node000008" class="edge">
<title>Node2&#45;&gt;Node8</title>
<g id="a_edge8_Node000002_Node000008"><a xlink:title=" ">
<path fill="none" stroke="#63b8ff" d="M399.72,-171.5C283.14,-167.34 54.75,-155.84 30.5,-129 16.94,-113.99 34.57,-94.04 50.75,-80.53"/>
<polygon fill="#63b8ff" stroke="#63b8ff" points="53.21,-83.05 58.91,-74.12 48.88,-77.55 53.21,-83.05"/>
</a>
</g>
</g>
<!-- Node11 -->
<g id="Node000011" class="node">
<title>Node11</title>
<g id="a_Node000011"><a xlink:href="_shared_event_handler_8h.html" target="_top" xlink:title=" ">
<polygon fill="white" stroke="#666666" points="223,-129 40,-129 40,-110 223,-110 223,-129"/>
<text text-anchor="middle" x="131.5" y="-117" font-family="Helvetica,sans-Serif" font-size="10.00">Cpl/System/SharedEventHandler.h</text>
</a>
</g>
</g>
<!-- Node2&#45;&gt;Node11 -->
<g id="edge11_Node000002_Node000011" class="edge">
<title>Node2&#45;&gt;Node11</title>
<g id="a_edge11_Node000002_Node000011"><a xlink:title=" ">
<path fill="none" stroke="#63b8ff" d="M413.52,-164.98C354.21,-155.63 259.01,-140.61 195.86,-130.65"/>
<polygon fill="#63b8ff" stroke="#63b8ff" points="196.05,-127.14 185.63,-129.04 194.96,-134.05 196.05,-127.14"/>
</a>
</g>
</g>
<!-- Node12 -->
<g id="Node000012" class="node">
<title>Node12</title>
<g id="a_Node000012"><a xlink:href="_timer_manager_8h.html" target="_top" xlink:title=" ">
<polygon fill="white" stroke="#666666" points="545,-129 390,-129 390,-110 545,-110 545,-129"/>
<text text-anchor="middle" x="467.5" y="-117" font-family="Helvetica,sans-Serif" font-size="10.00">Cpl/System/TimerManager.h</text>
</a>
</g>
</g>
<!-- Node2&#45;&gt;Node12 -->
<g id="edge13_Node000002_Node000012" class="edge">
<title>Node2&#45;&gt;Node12</title>
<g id="a_edge13_Node000002_Node000012"><a xlink:title=" ">
<path fill="none" stroke="#63b8ff" d="M467.5,-164.75C467.5,-157.8 467.5,-147.85 467.5,-139.13"/>
<polygon fill="#63b8ff" stroke="#63b8ff" points="471,-139.09 467.5,-129.09 464,-139.09 471,-139.09"/>
</a>
</g>
</g>
<!-- Node5 -->
<g id="Node000005" class="node">
<title>Node5</title>
<g id="a_Node000005"><a xlink:title=" ">
<polygon fill="#e0e0e0" stroke="#999999" points="656,-74 571,-74 571,-55 656,-55 656,-74"/>
<text text-anchor="middle" x="613.5" y="-62" font-family="Helvetica,sans-Serif" font-size="10.00">colony_map.h</text>
</a>
</g>
</g>
<!-- Node4&#45;&gt;Node5 -->
<g id="edge4_Node000004_Node000005" class="edge">
<title>Node4&#45;&gt;Node5</title>
<g id="a_edge4_Node000004_Node000005"><a xlink:title=" ">
<path fill="none" stroke="#63b8ff" d="M630.2,-109.75C627.52,-102.65 623.65,-92.4 620.31,-83.56"/>
<polygon fill="#63b8ff" stroke="#63b8ff" points="623.55,-82.21 616.74,-74.09 617,-84.68 623.55,-82.21"/>
</a>
</g>
</g>
<!-- Node4&#45;&gt;Node6 -->
<g id="edge5_Node000004_Node000006" class="edge">
<title>Node4&#45;&gt;Node6</title>
<g id="a_edge5_Node000004_Node000006"><a xlink:title=" ">
<path fill="none" stroke="#63b8ff" d="M650.21,-109.98C666.71,-101.57 692.2,-88.59 711.38,-78.81"/>
<polygon fill="#63b8ff" stroke="#63b8ff" points="713.17,-81.83 720.49,-74.17 709.99,-75.59 713.17,-81.83"/>
</a>
</g>
</g>
<!-- Node7 -->
<g id="Node000007" class="node">
<title>Node7</title>
<g id="a_Node000007"><a xlink:href="_item_8h.html" target="_top" xlink:title=" ">
<polygon fill="white" stroke="#666666" points="862,-19 745,-19 745,0 862,0 862,-19"/>
<text text-anchor="middle" x="803.5" y="-7" font-family="Helvetica,sans-Serif" font-size="10.00">Cpl/Container/Item.h</text>
</a>
</g>
</g>
<!-- Node6&#45;&gt;Node7 -->
<g id="edge6_Node000006_Node000007" class="edge">
<title>Node6&#45;&gt;Node7</title>
<g id="a_edge6_Node000006_Node000007"><a xlink:title=" ">
<path fill="none" stroke="#63b8ff" d="M748.1,-54.98C757.96,-47.07 772.85,-35.11 784.72,-25.58"/>
<polygon fill="#63b8ff" stroke="#63b8ff" points="787.1,-28.16 792.7,-19.17 782.71,-22.7 787.1,-28.16"/>
</a>
</g>
</g>
<!-- Node9 -->
<g id="Node000009" class="node">
<title>Node9</title>
<g id="a_Node000009"><a xlink:title=" ">
<polygon fill="#e0e0e0" stroke="#999999" points="163.5,-19 71.5,-19 71.5,0 163.5,0 163.5,-19"/>
<text text-anchor="middle" x="117.5" y="-7" font-family="Helvetica,sans-Serif" font-size="10.00">colony_config.h</text>
</a>
</g>
</g>
<!-- Node8&#45;&gt;Node9 -->
<g id="edge9_Node000008_Node000009" class="edge">
<title>Node8&#45;&gt;Node9</title>
<g id="a_edge9_Node000008_Node000009"><a xlink:title=" ">
<path fill="none" stroke="#63b8ff" d="M79.1,-54.75C85.66,-47.18 95.32,-36.05 103.31,-26.84"/>
<polygon fill="#63b8ff" stroke="#63b8ff" points="106.13,-28.94 110.05,-19.09 100.85,-24.35 106.13,-28.94"/>
</a>
</g>
</g>
<!-- Node10 -->
<g id="Node000010" class="node">
<title>Node10</title>
<g id="a_Node000010"><a xlink:title=" ">
<polygon fill="#e0e0e0" stroke="#999999" points="53,-19 0,-19 0,0 53,0 53,-19"/>
<text text-anchor="middle" x="26.5" y="-7" font-family="Helvetica,sans-Serif" font-size="10.00">stdint.h</text>
</a>
</g>
</g>
<!-- Node8&#45;&gt;Node10 -->
<g id="edge10_Node000008_Node000010" class="edge">
<title>Node8&#45;&gt;Node10</title>
<g id="a_edge10_Node000008_Node000010"><a xlink:title=" ">
<path fill="none" stroke="#63b8ff" d="M64.07,-54.75C57.65,-47.18 48.19,-36.05 40.38,-26.84"/>
<polygon fill="#63b8ff" stroke="#63b8ff" points="42.93,-24.45 33.79,-19.09 37.6,-28.98 42.93,-24.45"/>
</a>
</g>
</g>
<!-- Node11&#45;&gt;Node8 -->
<g id="edge12_Node000011_Node000008" class="edge">
<title>Node11&#45;&gt;Node8</title>
<g id="a_edge12_Node000011_Node000008"><a xlink:title=" ">
<path fill="none" stroke="#63b8ff" d="M121.86,-109.98C112.99,-102.15 99.63,-90.34 88.89,-80.86"/>
<polygon fill="#63b8ff" stroke="#63b8ff" points="91.13,-78.17 81.32,-74.17 86.49,-83.41 91.13,-78.17"/>
</a>
</g>
</g>
<!-- Node13 -->
<g id="Node000013" class="node">
<title>Node13</title>
<g id="a_Node000013"><a xlink:href="_counter___8h.html" target="_top" xlink:title=" ">
<polygon fill="white" stroke="#666666" points="552.5,-74 424.5,-74 424.5,-55 552.5,-55 552.5,-74"/>
<text text-anchor="middle" x="488.5" y="-62" font-family="Helvetica,sans-Serif" font-size="10.00">Cpl/System/Counter_.h</text>
</a>
</g>
</g>
<!-- Node12&#45;&gt;Node13 -->
<g id="edge14_Node000012_Node000013" class="edge">
<title>Node12&#45;&gt;Node13</title>
<g id="a_edge14_Node000012_Node000013"><a xlink:title=" ">
<path fill="none" stroke="#63b8ff" d="M470.97,-109.75C473.78,-102.65 477.84,-92.4 481.35,-83.56"/>
<polygon fill="#63b8ff" stroke="#63b8ff" points="484.67,-84.68 485.1,-74.09 478.16,-82.1 484.67,-84.68"/>
</a>
</g>
</g>
<!-- Node14 -->
<g id="Node000014" class="node">
<title>Node14</title>
<g id="a_Node000014"><a xlink:href="_d_list_8h.html" target="_top" xlink:title=" ">
<polygon fill="white" stroke="#666666" points="406,-74 287,-74 287,-55 406,-55 406,-74"/>
<text text-anchor="middle" x="346.5" y="-62" font-family="Helvetica,sans-Serif" font-size="10.00">Cpl/Container/DList.h</text>
</a>
</g>
</g>
<!-- Node12&#45;&gt;Node14 -->
<g id="edge16_Node000012_Node000014" class="edge">
<title>Node12&#45;&gt;Node14</title>
<g id="a_edge16_Node000012_Node000014"><a xlink:title=" ">
<path fill="none" stroke="#63b8ff" d="M448.06,-109.98C428.51,-101.42 398.12,-88.11 375.68,-78.28"/>
<polygon fill="#63b8ff" stroke="#63b8ff" points="376.86,-74.98 366.29,-74.17 374.05,-81.39 376.86,-74.98"/>
</a>
</g>
</g>
<!-- Node13&#45;&gt;Node7 -->
<g id="edge15_Node000013_Node000007" class="edge">
<title>Node13&#45;&gt;Node7</title>
<g id="a_edge15_Node000013_Node000007"><a xlink:title=" ">
<path fill="none" stroke="#63b8ff" d="M539.11,-54.98C594.6,-45.65 683.59,-30.67 742.79,-20.71"/>
<polygon fill="#63b8ff" stroke="#63b8ff" points="743.47,-24.15 752.75,-19.04 742.31,-17.25 743.47,-24.15"/>
</a>
</g>
</g>
<!-- Node15&#45;&gt;Node6 -->
<g id="edge23_Node000015_Node000006" class="edge">
<title>Node15&#45;&gt;Node6</title>
<g id="a_edge23_Node000015_Node000006"><a xlink:title=" ">
<path fill="none" stroke="#63b8ff" d="M801.77,-164.66C790.18,-146.77 763.75,-106 748.64,-82.69"/>
<polygon fill="#63b8ff" stroke="#63b8ff" points="751.49,-80.65 743.11,-74.16 745.61,-84.45 751.49,-80.65"/>
</a>
</g>
</g>
<!-- Node16 -->
<g id="Node000016" class="node">
<title>Node16</title>
<g id="a_Node000016"><a xlink:href="_post_api_8h.html" target="_top" xlink:title=" ">
<polygon fill="white" stroke="#666666" points="893.5,-129 797.5,-129 797.5,-110 893.5,-110 893.5,-129"/>
<text text-anchor="middle" x="845.5" y="-117" font-family="Helvetica,sans-Serif" font-size="10.00">Cpl/Itc/PostApi.h</text>
</a>
</g>
</g>
<!-- Node15&#45;&gt;Node16 -->
<g id="edge18_Node000015_Node000016" class="edge">
<title>Node15&#45;&gt;Node16</title>
<g id="a_edge18_Node000015_Node000016"><a xlink:title=" ">
<path fill="none" stroke="#63b8ff" d="M813.77,-164.75C819.09,-157.34 826.86,-146.5 833.38,-137.41"/>
<polygon fill="#63b8ff" stroke="#63b8ff" points="836.36,-139.26 839.34,-129.09 830.67,-135.18 836.36,-139.26"/>
</a>
</g>
</g>
<!-- Node18 -->
<g id="Node000018" class="node">
<title>Node18</title>
<g id="a_Node000018"><a xlink:href="_s_list_8h.html" target="_top" xlink:title=" ">
<polygon fill="white" stroke="#666666" points="1029.5,-129 911.5,-129 911.5,-110 1029.5,-110 1029.5,-129"/>
<text text-anchor="middle" x="970.5" y="-117" font-family="Helvetica,sans-Serif" font-size="10.00">Cpl/Container/SList.h</text>
</a>
</g>
</g>
<!-- Node15&#45;&gt;Node18 -->
<g id="edge21_Node000015_Node000018" class="edge">
<title>Node15&#45;&gt;Node18</title>
<g id="a_edge21_Node000015_Node000018"><a xlink:title=" ">
<path fill="none" stroke="#63b8ff" d="M833.69,-164.98C860.94,-156.13 903.8,-142.19 934.28,-132.28"/>
<polygon fill="#63b8ff" stroke="#63b8ff" points="935.68,-135.5 944.11,-129.08 933.51,-128.85 935.68,-135.5"/>
</a>
</g>
</g>
<!-- Node17 -->
<g id="Node000017" class="node">
<title>Node17</title>
<g id="a_Node000017"><a xlink:href="_message_8h.html" target="_top" xlink:title=" ">
<polygon fill="white" stroke="#666666" points="922,-74 819,-74 819,-55 922,-55 922,-74"/>
<text text-anchor="middle" x="870.5" y="-62" font-family="Helvetica,sans-Serif" font-size="10.00">Cpl/Itc/Message.h</text>
</a>
</g>
</g>
<!-- Node16&#45;&gt;Node17 -->
<g id="edge19_Node000016_Node000017" class="edge">
<title>Node16&#45;&gt;Node17</title>
<g id="a_edge19_Node000016_Node000017"><a xlink:title=" ">
<path fill="none" stroke="#63b8ff" d="M849.63,-109.75C853.01,-102.57 857.92,-92.18 862.12,-83.27"/>
<polygon fill="#63b8ff" stroke="#63b8ff" points="865.35,-84.63 866.45,-74.09 859.02,-81.64 865.35,-84.63"/>
</a>
</g>
</g>
<!-- Node17&#45;&gt;Node7 -->
<g id="edge20_Node000017_Node000007" class="edge">
<title>Node17&#45;&gt;Node7</title>
<g id="a_edge20_Node000017_Node000007"><a xlink:title=" ">
<path fill="none" stroke="#63b8ff" d="M859.74,-54.98C849.73,-47.07 834.61,-35.11 822.57,-25.58"/>
<polygon fill="#63b8ff" stroke="#63b8ff" points="824.47,-22.63 814.46,-19.17 820.13,-28.12 824.47,-22.63"/>
</a>
</g>
</g>
<!-- Node18&#45;&gt;Node7 -->
<g id="edge22_Node000018_Node000007" class="edge">
<title>Node18&#45;&gt;Node7</title>
<g id="a_edge22_Node000018_Node000007"><a xlink:title=" ">
<path fill="none" stroke="#63b8ff" d="M967.38,-109.8C962.08,-96.2 950.05,-69.92 931.5,-55 911.45,-38.87 885.16,-28.4 861.64,-21.7"/>
<polygon fill="#63b8ff" stroke="#63b8ff" points="862.31,-18.26 851.75,-19.05 860.5,-25.02 862.31,-18.26"/>
</a>
</g>
</g>
</g>
</svg>
