<?xml version="1.0" encoding="UTF-8" standalone="no"?>
<!DOCTYPE svg PUBLIC "-//W3C//DTD SVG 1.1//EN"
 "http://www.w3.org/Graphics/SVG/1.1/DTD/svg11.dtd">
<!-- Generated by graphviz version 2.43.0 (0)
 -->
<!-- Title: Cpl/Itc/PeriodicScheduler.h Pages: 1 -->
<svg width="1175pt" height="302pt"
 viewBox="0.00 0.00 1174.50 302.00" xmlns="http://www.w3.org/2000/svg" xmlns:xlink="http://www.w3.org/1999/xlink">
<g id="graph0" class="graph" transform="scale(1 1) rotate(0) translate(4 298)">
<title>Cpl/Itc/PeriodicScheduler.h</title>
<!-- Node1 -->
<g id="Node000001" class="node">
<title>Node1</title>
<g id="a_Node000001"><a xlink:title=" ">
<polygon fill="#999999" stroke="#666666" points="814,-294 668,-294 668,-275 814,-275 814,-294"/>
<text text-anchor="middle" x="741" y="-282" font-family="Helvetica,sans-Serif" font-size="10.00">Cpl/Itc/PeriodicScheduler.h</text>
</a>
</g>
</g>
<!-- Node2 -->
<g id="Node000002" class="node">
<title>Node2</title>
<g id="a_Node000002"><a xlink:href="_itc_2_mailbox_server_8h.html" target="_top" xlink:title=" ">
<polygon fill="white" stroke="#666666" points="721.5,-239 592.5,-239 592.5,-220 721.5,-220 721.5,-239"/>
<text text-anchor="middle" x="657" y="-227" font-family="Helvetica,sans-Serif" font-size="10.00">Cpl/Itc/MailboxServer.h</text>
</a>
</g>
</g>
<!-- Node1&#45;&gt;Node2 -->
<g id="edge1_Node000001_Node000002" class="edge">
<title>Node1&#45;&gt;Node2</title>
<g id="a_edge1_Node000001_Node000002"><a xlink:title=" ">
<path fill="none" stroke="#63b8ff" d="M727.5,-274.98C714.6,-266.84 694.9,-254.41 679.6,-244.76"/>
<polygon fill="#63b8ff" stroke="#63b8ff" points="681.07,-241.55 670.74,-239.17 677.33,-247.47 681.07,-241.55"/>
</a>
</g>
</g>
<!-- Node20 -->
<g id="Node000020" class="node">
<title>Node20</title>
<g id="a_Node000020"><a xlink:href="_system_2_periodic_scheduler_8h.html" target="_top" xlink:title=" ">
<polygon fill="white" stroke="#666666" points="1084,-239 914,-239 914,-220 1084,-220 1084,-239"/>
<text text-anchor="middle" x="999" y="-227" font-family="Helvetica,sans-Serif" font-size="10.00">Cpl/System/PeriodicScheduler.h</text>
</a>
</g>
</g>
<!-- Node1&#45;&gt;Node20 -->
<g id="edge25_Node000001_Node000020" class="edge">
<title>Node1&#45;&gt;Node20</title>
<g id="a_edge25_Node000001_Node000020"><a xlink:title=" ">
<path fill="none" stroke="#63b8ff" d="M782.45,-274.98C827.27,-265.78 898.77,-251.09 947.25,-241.13"/>
<polygon fill="#63b8ff" stroke="#63b8ff" points="948.13,-244.52 957.22,-239.08 946.72,-237.67 948.13,-244.52"/>
</a>
</g>
</g>
<!-- Node3 -->
<g id="Node000003" class="node">
<title>Node3</title>
<g id="a_Node000003"><a xlink:href="_system_2_event_loop_8h.html" target="_top" xlink:title=" ">
<polygon fill="white" stroke="#666666" points="724.5,-184 589.5,-184 589.5,-165 724.5,-165 724.5,-184"/>
<text text-anchor="middle" x="657" y="-172" font-family="Helvetica,sans-Serif" font-size="10.00">Cpl/System/EventLoop.h</text>
</a>
</g>
</g>
<!-- Node2&#45;&gt;Node3 -->
<g id="edge2_Node000002_Node000003" class="edge">
<title>Node2&#45;&gt;Node3</title>
<g id="a_edge2_Node000002_Node000003"><a xlink:title=" ">
<path fill="none" stroke="#63b8ff" d="M657,-219.75C657,-212.8 657,-202.85 657,-194.13"/>
<polygon fill="#63b8ff" stroke="#63b8ff" points="660.5,-194.09 657,-184.09 653.5,-194.09 660.5,-194.09"/>
</a>
</g>
</g>
<!-- Node16 -->
<g id="Node000016" class="node">
<title>Node16</title>
<g id="a_Node000016"><a xlink:href="_mailbox_8h.html" target="_top" xlink:title=" ">
<polygon fill="white" stroke="#666666" points="282,-184 184,-184 184,-165 282,-165 282,-184"/>
<text text-anchor="middle" x="233" y="-172" font-family="Helvetica,sans-Serif" font-size="10.00">Cpl/Itc/Mailbox.h</text>
</a>
</g>
</g>
<!-- Node2&#45;&gt;Node16 -->
<g id="edge18_Node000002_Node000016" class="edge">
<title>Node2&#45;&gt;Node16</title>
<g id="a_edge18_Node000002_Node000016"><a xlink:title=" ">
<path fill="none" stroke="#63b8ff" d="M592.14,-220.39C510.55,-210.19 371.59,-192.82 292.57,-182.95"/>
<polygon fill="#63b8ff" stroke="#63b8ff" points="292.66,-179.43 282.3,-181.66 291.79,-186.38 292.66,-179.43"/>
</a>
</g>
</g>
<!-- Node4 -->
<g id="Node000004" class="node">
<title>Node4</title>
<g id="a_Node000004"><a xlink:href="_runnable_8h.html" target="_top" xlink:title=" ">
<polygon fill="white" stroke="#666666" points="803,-129 673,-129 673,-110 803,-110 803,-129"/>
<text text-anchor="middle" x="738" y="-117" font-family="Helvetica,sans-Serif" font-size="10.00">Cpl/System/Runnable.h</text>
</a>
</g>
</g>
<!-- Node3&#45;&gt;Node4 -->
<g id="edge3_Node000003_Node000004" class="edge">
<title>Node3&#45;&gt;Node4</title>
<g id="a_edge3_Node000003_Node000004"><a xlink:title=" ">
<path fill="none" stroke="#63b8ff" d="M670.01,-164.98C682.46,-156.84 701.46,-144.41 716.21,-134.76"/>
<polygon fill="#63b8ff" stroke="#63b8ff" points="718.3,-137.57 724.75,-129.17 714.46,-131.72 718.3,-137.57"/>
</a>
</g>
</g>
<!-- Node5 -->
<g id="Node000005" class="node">
<title>Node5</title>
<g id="a_Node000005"><a xlink:href="_semaphore_8h.html" target="_top" xlink:title=" ">
<polygon fill="white" stroke="#666666" points="481,-129 341,-129 341,-110 481,-110 481,-129"/>
<text text-anchor="middle" x="411" y="-117" font-family="Helvetica,sans-Serif" font-size="10.00">Cpl/System/Semaphore.h</text>
</a>
</g>
</g>
<!-- Node3&#45;&gt;Node5 -->
<g id="edge4_Node000003_Node000005" class="edge">
<title>Node3&#45;&gt;Node5</title>
<g id="a_edge4_Node000003_Node000005"><a xlink:title=" ">
<path fill="none" stroke="#63b8ff" d="M617.48,-164.98C574.83,-155.8 506.85,-141.15 460.64,-131.19"/>
<polygon fill="#63b8ff" stroke="#63b8ff" points="461.35,-127.77 450.83,-129.08 459.87,-134.61 461.35,-127.77"/>
</a>
</g>
</g>
<!-- Node7 -->
<g id="Node000007" class="node">
<title>Node7</title>
<g id="a_Node000007"><a xlink:href="_signable_8h.html" target="_top" xlink:title=" ">
<polygon fill="white" stroke="#666666" points="384,-74 258,-74 258,-55 384,-55 384,-74"/>
<text text-anchor="middle" x="321" y="-62" font-family="Helvetica,sans-Serif" font-size="10.00">Cpl/System/Signable.h</text>
</a>
</g>
</g>
<!-- Node3&#45;&gt;Node7 -->
<g id="edge8_Node000003_Node000007" class="edge">
<title>Node3&#45;&gt;Node7</title>
<g id="a_edge8_Node000003_Node000007"><a xlink:title=" ">
<path fill="none" stroke="#63b8ff" d="M589.3,-173.32C504.98,-171.6 367.65,-163.41 332,-129 320.31,-117.72 318.34,-98.81 318.83,-84.55"/>
<polygon fill="#63b8ff" stroke="#63b8ff" points="322.34,-84.59 319.61,-74.35 315.36,-84.06 322.34,-84.59"/>
</a>
</g>
</g>
<!-- Node9 -->
<g id="Node000009" class="node">
<title>Node9</title>
<g id="a_Node000009"><a xlink:href="_event_flag_8h.html" target="_top" xlink:title=" ">
<polygon fill="white" stroke="#666666" points="1017.5,-74 884.5,-74 884.5,-55 1017.5,-55 1017.5,-74"/>
<text text-anchor="middle" x="951" y="-62" font-family="Helvetica,sans-Serif" font-size="10.00">Cpl/System/EventFlag.h</text>
</a>
</g>
</g>
<!-- Node3&#45;&gt;Node9 -->
<g id="edge9_Node000003_Node000009" class="edge">
<title>Node3&#45;&gt;Node9</title>
<g id="a_edge9_Node000003_Node000009"><a xlink:title=" ">
<path fill="none" stroke="#63b8ff" d="M693.29,-164.98C725.08,-157.08 772.27,-144.25 812,-129 830,-122.09 833.52,-118.14 851,-110 874.68,-98.97 901.77,-86.95 921.78,-78.18"/>
<polygon fill="#63b8ff" stroke="#63b8ff" points="923.22,-81.37 930.99,-74.16 920.42,-74.96 923.22,-81.37"/>
</a>
</g>
</g>
<!-- Node12 -->
<g id="Node000012" class="node">
<title>Node12</title>
<g id="a_Node000012"><a xlink:href="_shared_event_handler_8h.html" target="_top" xlink:title=" ">
<polygon fill="white" stroke="#666666" points="1042.5,-129 859.5,-129 859.5,-110 1042.5,-110 1042.5,-129"/>
<text text-anchor="middle" x="951" y="-117" font-family="Helvetica,sans-Serif" font-size="10.00">Cpl/System/SharedEventHandler.h</text>
</a>
</g>
</g>
<!-- Node3&#45;&gt;Node12 -->
<g id="edge12_Node000003_Node000012" class="edge">
<title>Node3&#45;&gt;Node12</title>
<g id="a_edge12_Node000003_Node000012"><a xlink:title=" ">
<path fill="none" stroke="#63b8ff" d="M704.24,-164.98C755.73,-155.7 838.16,-140.84 893.41,-130.88"/>
<polygon fill="#63b8ff" stroke="#63b8ff" points="894.17,-134.3 903.39,-129.08 892.93,-127.41 894.17,-134.3"/>
</a>
</g>
</g>
<!-- Node13 -->
<g id="Node000013" class="node">
<title>Node13</title>
<g id="a_Node000013"><a xlink:href="_timer_manager_8h.html" target="_top" xlink:title=" ">
<polygon fill="white" stroke="#666666" points="654.5,-129 499.5,-129 499.5,-110 654.5,-110 654.5,-129"/>
<text text-anchor="middle" x="577" y="-117" font-family="Helvetica,sans-Serif" font-size="10.00">Cpl/System/TimerManager.h</text>
</a>
</g>
</g>
<!-- Node3&#45;&gt;Node13 -->
<g id="edge14_Node000003_Node000013" class="edge">
<title>Node3&#45;&gt;Node13</title>
<g id="a_edge14_Node000003_Node000013"><a xlink:title=" ">
<path fill="none" stroke="#63b8ff" d="M644.15,-164.98C631.86,-156.84 613.09,-144.41 598.52,-134.76"/>
<polygon fill="#63b8ff" stroke="#63b8ff" points="600.36,-131.78 590.09,-129.17 596.49,-137.61 600.36,-131.78"/>
</a>
</g>
</g>
<!-- Node6 -->
<g id="Node000006" class="node">
<title>Node6</title>
<g id="a_Node000006"><a xlink:title=" ">
<polygon fill="#e0e0e0" stroke="#999999" points="487.5,-74 402.5,-74 402.5,-55 487.5,-55 487.5,-74"/>
<text text-anchor="middle" x="445" y="-62" font-family="Helvetica,sans-Serif" font-size="10.00">colony_map.h</text>
</a>
</g>
</g>
<!-- Node5&#45;&gt;Node6 -->
<g id="edge5_Node000005_Node000006" class="edge">
<title>Node5&#45;&gt;Node6</title>
<g id="a_edge5_Node000005_Node000006"><a xlink:title=" ">
<path fill="none" stroke="#63b8ff" d="M416.61,-109.75C421.32,-102.42 428.17,-91.73 433.97,-82.7"/>
<polygon fill="#63b8ff" stroke="#63b8ff" points="437.04,-84.4 439.49,-74.09 431.14,-80.62 437.04,-84.4"/>
</a>
</g>
</g>
<!-- Node5&#45;&gt;Node7 -->
<g id="edge6_Node000005_Node000007" class="edge">
<title>Node5&#45;&gt;Node7</title>
<g id="a_edge6_Node000005_Node000007"><a xlink:title=" ">
<path fill="none" stroke="#63b8ff" d="M396.54,-109.98C382.58,-101.77 361.21,-89.18 344.75,-79.49"/>
<polygon fill="#63b8ff" stroke="#63b8ff" points="346.12,-76.23 335.72,-74.17 342.56,-82.26 346.12,-76.23"/>
</a>
</g>
</g>
<!-- Node8 -->
<g id="Node000008" class="node">
<title>Node8</title>
<g id="a_Node000008"><a xlink:href="_item_8h.html" target="_top" xlink:title=" ">
<polygon fill="white" stroke="#666666" points="313.5,-19 196.5,-19 196.5,0 313.5,0 313.5,-19"/>
<text text-anchor="middle" x="255" y="-7" font-family="Helvetica,sans-Serif" font-size="10.00">Cpl/Container/Item.h</text>
</a>
</g>
</g>
<!-- Node7&#45;&gt;Node8 -->
<g id="edge7_Node000007_Node000008" class="edge">
<title>Node7&#45;&gt;Node8</title>
<g id="a_edge7_Node000007_Node000008"><a xlink:title=" ">
<path fill="none" stroke="#63b8ff" d="M310.4,-54.98C300.54,-47.07 285.65,-35.11 273.78,-25.58"/>
<polygon fill="#63b8ff" stroke="#63b8ff" points="275.79,-22.7 265.8,-19.17 271.4,-28.16 275.79,-22.7"/>
</a>
</g>
</g>
<!-- Node10 -->
<g id="Node000010" class="node">
<title>Node10</title>
<g id="a_Node000010"><a xlink:title=" ">
<polygon fill="#e0e0e0" stroke="#999999" points="997,-19 905,-19 905,0 997,0 997,-19"/>
<text text-anchor="middle" x="951" y="-7" font-family="Helvetica,sans-Serif" font-size="10.00">colony_config.h</text>
</a>
</g>
</g>
<!-- Node9&#45;&gt;Node10 -->
<g id="edge10_Node000009_Node000010" class="edge">
<title>Node9&#45;&gt;Node10</title>
<g id="a_edge10_Node000009_Node000010"><a xlink:title=" ">
<path fill="none" stroke="#63b8ff" d="M951,-54.75C951,-47.8 951,-37.85 951,-29.13"/>
<polygon fill="#63b8ff" stroke="#63b8ff" points="954.5,-29.09 951,-19.09 947.5,-29.09 954.5,-29.09"/>
</a>
</g>
</g>
<!-- Node11 -->
<g id="Node000011" class="node">
<title>Node11</title>
<g id="a_Node000011"><a xlink:title=" ">
<polygon fill="#e0e0e0" stroke="#999999" points="1124.5,-19 1071.5,-19 1071.5,0 1124.5,0 1124.5,-19"/>
<text text-anchor="middle" x="1098" y="-7" font-family="Helvetica,sans-Serif" font-size="10.00">stdint.h</text>
</a>
</g>
</g>
<!-- Node9&#45;&gt;Node11 -->
<g id="edge11_Node000009_Node000011" class="edge">
<title>Node9&#45;&gt;Node11</title>
<g id="a_edge11_Node000009_Node000011"><a xlink:title=" ">
<path fill="none" stroke="#63b8ff" d="M974.62,-54.98C998.9,-46.23 1036.95,-32.51 1064.37,-22.62"/>
<polygon fill="#63b8ff" stroke="#63b8ff" points="1065.73,-25.85 1073.95,-19.17 1063.36,-19.27 1065.73,-25.85"/>
</a>
</g>
</g>
<!-- Node12&#45;&gt;Node9 -->
<g id="edge13_Node000012_Node000009" class="edge">
<title>Node12&#45;&gt;Node9</title>
<g id="a_edge13_Node000012_Node000009"><a xlink:title=" ">
<path fill="none" stroke="#63b8ff" d="M951,-109.75C951,-102.8 951,-92.85 951,-84.13"/>
<polygon fill="#63b8ff" stroke="#63b8ff" points="954.5,-84.09 951,-74.09 947.5,-84.09 954.5,-84.09"/>
</a>
</g>
</g>
<!-- Node14 -->
<g id="Node000014" class="node">
<title>Node14</title>
<g id="a_Node000014"><a xlink:href="_counter___8h.html" target="_top" xlink:title=" ">
<polygon fill="white" stroke="#666666" points="634,-74 506,-74 506,-55 634,-55 634,-74"/>
<text text-anchor="middle" x="570" y="-62" font-family="Helvetica,sans-Serif" font-size="10.00">Cpl/System/Counter_.h</text>
</a>
</g>
</g>
<!-- Node13&#45;&gt;Node14 -->
<g id="edge15_Node000013_Node000014" class="edge">
<title>Node13&#45;&gt;Node14</title>
<g id="a_edge15_Node000013_Node000014"><a xlink:title=" ">
<path fill="none" stroke="#63b8ff" d="M575.84,-109.75C574.93,-102.8 573.61,-92.85 572.46,-84.13"/>
<polygon fill="#63b8ff" stroke="#63b8ff" points="575.91,-83.54 571.13,-74.09 568.97,-84.46 575.91,-83.54"/>
</a>
</g>
</g>
<!-- Node15 -->
<g id="Node000015" class="node">
<title>Node15</title>
<g id="a_Node000015"><a xlink:href="_d_list_8h.html" target="_top" xlink:title=" ">
<polygon fill="white" stroke="#666666" points="771.5,-74 652.5,-74 652.5,-55 771.5,-55 771.5,-74"/>
<text text-anchor="middle" x="712" y="-62" font-family="Helvetica,sans-Serif" font-size="10.00">Cpl/Container/DList.h</text>
</a>
</g>
</g>
<!-- Node13&#45;&gt;Node15 -->
<g id="edge17_Node000013_Node000015" class="edge">
<title>Node13&#45;&gt;Node15</title>
<g id="a_edge17_Node000013_Node000015"><a xlink:title=" ">
<path fill="none" stroke="#63b8ff" d="M598.69,-109.98C620.8,-101.3 655.32,-87.75 680.45,-77.88"/>
<polygon fill="#63b8ff" stroke="#63b8ff" points="681.89,-81.08 689.92,-74.17 679.33,-74.57 681.89,-81.08"/>
</a>
</g>
</g>
<!-- Node14&#45;&gt;Node8 -->
<g id="edge16_Node000014_Node000008" class="edge">
<title>Node14&#45;&gt;Node8</title>
<g id="a_edge16_Node000014_Node000008"><a xlink:title=" ">
<path fill="none" stroke="#63b8ff" d="M519.39,-54.98C463.9,-45.65 374.91,-30.67 315.71,-20.71"/>
<polygon fill="#63b8ff" stroke="#63b8ff" points="316.19,-17.25 305.75,-19.04 315.03,-24.15 316.19,-17.25"/>
</a>
</g>
</g>
<!-- Node16&#45;&gt;Node7 -->
<g id="edge24_Node000016_Node000007" class="edge">
<title>Node16&#45;&gt;Node7</title>
<g id="a_edge24_Node000016_Node000007"><a xlink:title=" ">
<path fill="none" stroke="#63b8ff" d="M240.2,-164.66C254.91,-146.61 288.59,-105.28 307.49,-82.08"/>
<polygon fill="#63b8ff" stroke="#63b8ff" points="310.34,-84.12 313.95,-74.16 304.91,-79.7 310.34,-84.12"/>
</a>
</g>
</g>
<!-- Node17 -->
<g id="Node000017" class="node">
<title>Node17</title>
<g id="a_Node000017"><a xlink:href="_post_api_8h.html" target="_top" xlink:title=" ">
<polygon fill="white" stroke="#666666" points="240,-129 144,-129 144,-110 240,-110 240,-129"/>
<text text-anchor="middle" x="192" y="-117" font-family="Helvetica,sans-Serif" font-size="10.00">Cpl/Itc/PostApi.h</text>
</a>
</g>
</g>
<!-- Node16&#45;&gt;Node17 -->
<g id="edge19_Node000016_Node000017" class="edge">
<title>Node16&#45;&gt;Node17</title>
<g id="a_edge19_Node000016_Node000017"><a xlink:title=" ">
<path fill="none" stroke="#63b8ff" d="M226.23,-164.75C220.44,-157.26 211.94,-146.28 204.86,-137.13"/>
<polygon fill="#63b8ff" stroke="#63b8ff" points="207.53,-134.86 198.64,-129.09 201.99,-139.14 207.53,-134.86"/>
</a>
</g>
</g>
<!-- Node19 -->
<g id="Node000019" class="node">
<title>Node19</title>
<g id="a_Node000019"><a xlink:href="_s_list_8h.html" target="_top" xlink:title=" ">
<polygon fill="white" stroke="#666666" points="118,-74 0,-74 0,-55 118,-55 118,-74"/>
<text text-anchor="middle" x="59" y="-62" font-family="Helvetica,sans-Serif" font-size="10.00">Cpl/Container/SList.h</text>
</a>
</g>
</g>
<!-- Node16&#45;&gt;Node19 -->
<g id="edge22_Node000016_Node000019" class="edge">
<title>Node16&#45;&gt;Node19</title>
<g id="a_edge22_Node000016_Node000019"><a xlink:title=" ">
<path fill="none" stroke="#63b8ff" d="M209.53,-164.92C189.09,-156.97 159.05,-144.11 135,-129 112.65,-114.95 89.76,-94.91 75.03,-81.12"/>
<polygon fill="#63b8ff" stroke="#63b8ff" points="77.39,-78.54 67.74,-74.18 72.57,-83.61 77.39,-78.54"/>
</a>
</g>
</g>
<!-- Node18 -->
<g id="Node000018" class="node">
<title>Node18</title>
<g id="a_Node000018"><a xlink:href="_message_8h.html" target="_top" xlink:title=" ">
<polygon fill="white" stroke="#666666" points="239.5,-74 136.5,-74 136.5,-55 239.5,-55 239.5,-74"/>
<text text-anchor="middle" x="188" y="-62" font-family="Helvetica,sans-Serif" font-size="10.00">Cpl/Itc/Message.h</text>
</a>
</g>
</g>
<!-- Node17&#45;&gt;Node18 -->
<g id="edge20_Node000017_Node000018" class="edge">
<title>Node17&#45;&gt;Node18</title>
<g id="a_edge20_Node000017_Node000018"><a xlink:title=" ">
<path fill="none" stroke="#63b8ff" d="M191.34,-109.75C190.82,-102.8 190.06,-92.85 189.41,-84.13"/>
<polygon fill="#63b8ff" stroke="#63b8ff" points="192.89,-83.8 188.65,-74.09 185.91,-84.32 192.89,-83.8"/>
</a>
</g>
</g>
<!-- Node18&#45;&gt;Node8 -->
<g id="edge21_Node000018_Node000008" class="edge">
<title>Node18&#45;&gt;Node8</title>
<g id="a_edge21_Node000018_Node000008"><a xlink:title=" ">
<path fill="none" stroke="#63b8ff" d="M198.76,-54.98C208.77,-47.07 223.89,-35.11 235.93,-25.58"/>
<polygon fill="#63b8ff" stroke="#63b8ff" points="238.37,-28.12 244.04,-19.17 234.03,-22.63 238.37,-28.12"/>
</a>
</g>
</g>
<!-- Node19&#45;&gt;Node8 -->
<g id="edge23_Node000019_Node000008" class="edge">
<title>Node19&#45;&gt;Node8</title>
<g id="a_edge23_Node000019_Node000008"><a xlink:title=" ">
<path fill="none" stroke="#63b8ff" d="M90.49,-54.98C123.82,-45.97 176.6,-31.7 213.35,-21.76"/>
<polygon fill="#63b8ff" stroke="#63b8ff" points="214.52,-25.07 223.26,-19.08 212.7,-18.31 214.52,-25.07"/>
</a>
</g>
</g>
<!-- Node21 -->
<g id="Node000021" class="node">
<title>Node21</title>
<g id="a_Node000021"><a xlink:href="_elapsed_time_8h.html" target="_top" xlink:title=" ">
<polygon fill="white" stroke="#666666" points="1166.5,-184 1019.5,-184 1019.5,-165 1166.5,-165 1166.5,-184"/>
<text text-anchor="middle" x="1093" y="-172" font-family="Helvetica,sans-Serif" font-size="10.00">Cpl/System/ElapsedTime.h</text>
</a>
</g>
</g>
<!-- Node20&#45;&gt;Node21 -->
<g id="edge26_Node000020_Node000021" class="edge">
<title>Node20&#45;&gt;Node21</title>
<g id="a_edge26_Node000020_Node000021"><a xlink:title=" ">
<path fill="none" stroke="#63b8ff" d="M1014.1,-219.98C1028.82,-211.69 1051.42,-198.94 1068.67,-189.22"/>
<polygon fill="#63b8ff" stroke="#63b8ff" points="1070.63,-192.13 1077.62,-184.17 1067.19,-186.03 1070.63,-192.13"/>
</a>
</g>
</g>
<!-- Node21&#45;&gt;Node11 -->
<g id="edge27_Node000021_Node000011" class="edge">
<title>Node21&#45;&gt;Node11</title>
<g id="a_edge27_Node000021_Node000011"><a xlink:title=" ">
<path fill="none" stroke="#63b8ff" d="M1105.21,-164.86C1115.35,-156.88 1129.04,-144.01 1135,-129 1148.99,-93.79 1126.32,-51.06 1110.74,-27.74"/>
<polygon fill="#63b8ff" stroke="#63b8ff" points="1113.42,-25.47 1104.82,-19.28 1107.69,-29.48 1113.42,-25.47"/>
</a>
</g>
</g>
<!-- Node22 -->
<g id="Node000022" class="node">
<title>Node22</title>
<g id="a_Node000022"><a xlink:title=" ">
<polygon fill="#e0e0e0" stroke="#999999" points="1125.5,-129 1060.5,-129 1060.5,-110 1125.5,-110 1125.5,-129"/>
<text text-anchor="middle" x="1093" y="-117" font-family="Helvetica,sans-Serif" font-size="10.00">memory.h</text>
</a>
</g>
</g>
<!-- Node21&#45;&gt;Node22 -->
<g id="edge28_Node000021_Node000022" class="edge">
<title>Node21&#45;&gt;Node22</title>
<g id="a_edge28_Node000021_Node000022"><a xlink:title=" ">
<path fill="none" stroke="#63b8ff" d="M1093,-164.75C1093,-157.8 1093,-147.85 1093,-139.13"/>
<polygon fill="#63b8ff" stroke="#63b8ff" points="1096.5,-139.09 1093,-129.09 1089.5,-139.09 1096.5,-139.09"/>
</a>
</g>
</g>
</g>
</svg>
