<?xml version="1.0" encoding="UTF-8" standalone="no"?>
<!DOCTYPE svg PUBLIC "-//W3C//DTD SVG 1.1//EN"
 "http://www.w3.org/Graphics/SVG/1.1/DTD/svg11.dtd">
<!-- Generated by graphviz version 2.43.0 (0)
 -->
<!-- Title: Cpl/Io/LineWriterApi.h Pages: 1 -->
<svg width="502pt" height="247pt"
 viewBox="0.00 0.00 502.00 247.00" xmlns="http://www.w3.org/2000/svg" xmlns:xlink="http://www.w3.org/1999/xlink">
<g id="graph0" class="graph" transform="scale(1 1) rotate(0) translate(4 243)">
<title>Cpl/Io/LineWriterApi.h</title>
<!-- Node1 -->
<g id="Node000001" class="node">
<title>Node1</title>
<g id="a_Node000001"><a xlink:title=" ">
<polygon fill="#999999" stroke="#666666" points="409.5,-239 287.5,-239 287.5,-220 409.5,-220 409.5,-239"/>
<text text-anchor="middle" x="348.5" y="-227" font-family="Helvetica,sans-Serif" font-size="10.00">Cpl/Io/LineWriterApi.h</text>
</a>
</g>
</g>
<!-- Node2 -->
<g id="Node000002" class="node">
<title>Node2</title>
<g id="a_Node000002"><a xlink:href="_text_2_string_8h.html" target="_top" xlink:title=" ">
<polygon fill="white" stroke="#666666" points="320.5,-184 224.5,-184 224.5,-165 320.5,-165 320.5,-184"/>
<text text-anchor="middle" x="272.5" y="-172" font-family="Helvetica,sans-Serif" font-size="10.00">Cpl/Text/String.h</text>
</a>
</g>
</g>
<!-- Node1&#45;&gt;Node2 -->
<g id="edge1_Node000001_Node000002" class="edge">
<title>Node1&#45;&gt;Node2</title>
<g id="a_edge1_Node000001_Node000002"><a xlink:title=" ">
<path fill="none" stroke="#63b8ff" d="M336.29,-219.98C324.72,-211.92 307.12,-199.65 293.34,-190.03"/>
<polygon fill="#63b8ff" stroke="#63b8ff" points="295.14,-187.02 284.93,-184.17 291.13,-192.76 295.14,-187.02"/>
</a>
</g>
</g>
<!-- Node10 -->
<g id="Node000010" class="node">
<title>Node10</title>
<g id="a_Node000010"><a xlink:title=" ">
<polygon fill="#e0e0e0" stroke="#999999" points="376.5,-129 320.5,-129 320.5,-110 376.5,-110 376.5,-129"/>
<text text-anchor="middle" x="348.5" y="-117" font-family="Helvetica,sans-Serif" font-size="10.00">stdarg.h</text>
</a>
</g>
</g>
<!-- Node1&#45;&gt;Node10 -->
<g id="edge13_Node000001_Node000010" class="edge">
<title>Node1&#45;&gt;Node10</title>
<g id="a_edge13_Node000001_Node000010"><a xlink:title=" ">
<path fill="none" stroke="#63b8ff" d="M348.5,-219.66C348.5,-202.17 348.5,-162.8 348.5,-139.27"/>
<polygon fill="#63b8ff" stroke="#63b8ff" points="352,-139.16 348.5,-129.16 345,-139.16 352,-139.16"/>
</a>
</g>
</g>
<!-- Node12 -->
<g id="Node000012" class="node">
<title>Node12</title>
<g id="a_Node000012"><a xlink:href="_item_8h.html" target="_top" xlink:title=" ">
<polygon fill="white" stroke="#666666" points="494,-184 377,-184 377,-165 494,-165 494,-184"/>
<text text-anchor="middle" x="435.5" y="-172" font-family="Helvetica,sans-Serif" font-size="10.00">Cpl/Container/Item.h</text>
</a>
</g>
</g>
<!-- Node1&#45;&gt;Node12 -->
<g id="edge12_Node000001_Node000012" class="edge">
<title>Node1&#45;&gt;Node12</title>
<g id="a_edge12_Node000001_Node000012"><a xlink:title=" ">
<path fill="none" stroke="#63b8ff" d="M362.48,-219.98C375.97,-211.77 396.63,-199.18 412.54,-189.49"/>
<polygon fill="#63b8ff" stroke="#63b8ff" points="414.55,-192.36 421.27,-184.17 410.91,-186.38 414.55,-192.36"/>
</a>
</g>
</g>
<!-- Node3 -->
<g id="Node000003" class="node">
<title>Node3</title>
<g id="a_Node000003"><a xlink:title=" ">
<polygon fill="#e0e0e0" stroke="#999999" points="85,-74 0,-74 0,-55 85,-55 85,-74"/>
<text text-anchor="middle" x="42.5" y="-62" font-family="Helvetica,sans-Serif" font-size="10.00">colony_map.h</text>
</a>
</g>
</g>
<!-- Node2&#45;&gt;Node3 -->
<g id="edge2_Node000002_Node000003" class="edge">
<title>Node2&#45;&gt;Node3</title>
<g id="a_edge2_Node000002_Node000003"><a xlink:title=" ">
<path fill="none" stroke="#63b8ff" d="M224.28,-167.94C188.91,-162.22 140.77,-150.91 103.5,-129 83.42,-117.19 65.63,-96.95 54.52,-82.49"/>
<polygon fill="#63b8ff" stroke="#63b8ff" points="57.27,-80.32 48.51,-74.36 51.64,-84.48 57.27,-80.32"/>
</a>
</g>
</g>
<!-- Node4 -->
<g id="Node000004" class="node">
<title>Node4</title>
<g id="a_Node000004"><a xlink:href="_key_8h.html" target="_top" xlink:title=" ">
<polygon fill="white" stroke="#666666" points="224,-129 113,-129 113,-110 224,-110 224,-129"/>
<text text-anchor="middle" x="168.5" y="-117" font-family="Helvetica,sans-Serif" font-size="10.00">Cpl/Container/Key.h</text>
</a>
</g>
</g>
<!-- Node2&#45;&gt;Node4 -->
<g id="edge3_Node000002_Node000004" class="edge">
<title>Node2&#45;&gt;Node4</title>
<g id="a_edge3_Node000002_Node000004"><a xlink:title=" ">
<path fill="none" stroke="#63b8ff" d="M255.79,-164.98C239.29,-156.57 213.8,-143.59 194.62,-133.81"/>
<polygon fill="#63b8ff" stroke="#63b8ff" points="196.01,-130.59 185.51,-129.17 192.83,-136.83 196.01,-130.59"/>
</a>
</g>
</g>
<!-- Node2&#45;&gt;Node10 -->
<g id="edge10_Node000002_Node000010" class="edge">
<title>Node2&#45;&gt;Node10</title>
<g id="a_edge10_Node000002_Node000010"><a xlink:title=" ">
<path fill="none" stroke="#63b8ff" d="M284.71,-164.98C296.28,-156.92 313.88,-144.65 327.66,-135.03"/>
<polygon fill="#63b8ff" stroke="#63b8ff" points="329.87,-137.76 336.07,-129.17 325.86,-132.02 329.87,-137.76"/>
</a>
</g>
</g>
<!-- Node11 -->
<g id="Node000011" class="node">
<title>Node11</title>
<g id="a_Node000011"><a xlink:title=" ">
<polygon fill="#e0e0e0" stroke="#999999" points="302.5,-129 242.5,-129 242.5,-110 302.5,-110 302.5,-129"/>
<text text-anchor="middle" x="272.5" y="-117" font-family="Helvetica,sans-Serif" font-size="10.00">iostream</text>
</a>
</g>
</g>
<!-- Node2&#45;&gt;Node11 -->
<g id="edge11_Node000002_Node000011" class="edge">
<title>Node2&#45;&gt;Node11</title>
<g id="a_edge11_Node000002_Node000011"><a xlink:title=" ">
<path fill="none" stroke="#63b8ff" d="M272.5,-164.75C272.5,-157.8 272.5,-147.85 272.5,-139.13"/>
<polygon fill="#63b8ff" stroke="#63b8ff" points="276,-139.09 272.5,-129.09 269,-139.09 276,-139.09"/>
</a>
</g>
</g>
<!-- Node4&#45;&gt;Node3 -->
<g id="edge9_Node000004_Node000003" class="edge">
<title>Node4&#45;&gt;Node3</title>
<g id="a_edge9_Node000004_Node000003"><a xlink:title=" ">
<path fill="none" stroke="#63b8ff" d="M148.26,-109.98C127.8,-101.38 95.97,-87.99 72.57,-78.15"/>
<polygon fill="#63b8ff" stroke="#63b8ff" points="73.69,-74.82 63.11,-74.17 70.97,-81.27 73.69,-74.82"/>
</a>
</g>
</g>
<!-- Node5 -->
<g id="Node000005" class="node">
<title>Node5</title>
<g id="a_Node000005"><a xlink:href="_fatal_error_8h.html" target="_top" xlink:title=" ">
<polygon fill="white" stroke="#666666" points="233.5,-74 103.5,-74 103.5,-55 233.5,-55 233.5,-74"/>
<text text-anchor="middle" x="168.5" y="-62" font-family="Helvetica,sans-Serif" font-size="10.00">Cpl/System/FatalError.h</text>
</a>
</g>
</g>
<!-- Node4&#45;&gt;Node5 -->
<g id="edge4_Node000004_Node000005" class="edge">
<title>Node4&#45;&gt;Node5</title>
<g id="a_edge4_Node000004_Node000005"><a xlink:title=" ">
<path fill="none" stroke="#63b8ff" d="M168.5,-109.75C168.5,-102.8 168.5,-92.85 168.5,-84.13"/>
<polygon fill="#63b8ff" stroke="#63b8ff" points="172,-84.09 168.5,-74.09 165,-84.09 172,-84.09"/>
</a>
</g>
</g>
<!-- Node8 -->
<g id="Node000008" class="node">
<title>Node8</title>
<g id="a_Node000008"><a xlink:title=" ">
<polygon fill="#e0e0e0" stroke="#999999" points="305,-74 252,-74 252,-55 305,-55 305,-74"/>
<text text-anchor="middle" x="278.5" y="-62" font-family="Helvetica,sans-Serif" font-size="10.00">stdint.h</text>
</a>
</g>
</g>
<!-- Node4&#45;&gt;Node8 -->
<g id="edge7_Node000004_Node000008" class="edge">
<title>Node4&#45;&gt;Node8</title>
<g id="a_edge7_Node000004_Node000008"><a xlink:title=" ">
<path fill="none" stroke="#63b8ff" d="M186.17,-109.98C203.79,-101.5 231.08,-88.35 251.43,-78.54"/>
<polygon fill="#63b8ff" stroke="#63b8ff" points="253.02,-81.66 260.51,-74.17 249.98,-75.36 253.02,-81.66"/>
</a>
</g>
</g>
<!-- Node9 -->
<g id="Node000009" class="node">
<title>Node9</title>
<g id="a_Node000009"><a xlink:title=" ">
<polygon fill="#e0e0e0" stroke="#999999" points="376,-74 323,-74 323,-55 376,-55 376,-74"/>
<text text-anchor="middle" x="349.5" y="-62" font-family="Helvetica,sans-Serif" font-size="10.00">string.h</text>
</a>
</g>
</g>
<!-- Node4&#45;&gt;Node9 -->
<g id="edge8_Node000004_Node000009" class="edge">
<title>Node4&#45;&gt;Node9</title>
<g id="a_edge8_Node000004_Node000009"><a xlink:title=" ">
<path fill="none" stroke="#63b8ff" d="M197.58,-109.98C228.92,-100.81 278.85,-86.19 312.85,-76.23"/>
<polygon fill="#63b8ff" stroke="#63b8ff" points="314.24,-79.47 322.85,-73.3 312.27,-72.75 314.24,-79.47"/>
</a>
</g>
</g>
<!-- Node6 -->
<g id="Node000006" class="node">
<title>Node6</title>
<g id="a_Node000006"><a xlink:title=" ">
<polygon fill="#e0e0e0" stroke="#999999" points="150.5,-19 94.5,-19 94.5,0 150.5,0 150.5,-19"/>
<text text-anchor="middle" x="122.5" y="-7" font-family="Helvetica,sans-Serif" font-size="10.00">stddef.h</text>
</a>
</g>
</g>
<!-- Node5&#45;&gt;Node6 -->
<g id="edge5_Node000005_Node000006" class="edge">
<title>Node5&#45;&gt;Node6</title>
<g id="a_edge5_Node000005_Node000006"><a xlink:title=" ">
<path fill="none" stroke="#63b8ff" d="M160.9,-54.75C154.34,-47.18 144.68,-36.05 136.69,-26.84"/>
<polygon fill="#63b8ff" stroke="#63b8ff" points="139.15,-24.35 129.95,-19.09 133.87,-28.94 139.15,-24.35"/>
</a>
</g>
</g>
<!-- Node7 -->
<g id="Node000007" class="node">
<title>Node7</title>
<g id="a_Node000007"><a xlink:title=" ">
<polygon fill="#e0e0e0" stroke="#999999" points="260.5,-19 168.5,-19 168.5,0 260.5,0 260.5,-19"/>
<text text-anchor="middle" x="214.5" y="-7" font-family="Helvetica,sans-Serif" font-size="10.00">colony_config.h</text>
</a>
</g>
</g>
<!-- Node5&#45;&gt;Node7 -->
<g id="edge6_Node000005_Node000007" class="edge">
<title>Node5&#45;&gt;Node7</title>
<g id="a_edge6_Node000005_Node000007"><a xlink:title=" ">
<path fill="none" stroke="#63b8ff" d="M176.1,-54.75C182.66,-47.18 192.32,-36.05 200.31,-26.84"/>
<polygon fill="#63b8ff" stroke="#63b8ff" points="203.13,-28.94 207.05,-19.09 197.85,-24.35 203.13,-28.94"/>
</a>
</g>
</g>
</g>
</svg>
