<?xml version="1.0" encoding="UTF-8" standalone="no"?>
<!DOCTYPE svg PUBLIC "-//W3C//DTD SVG 1.1//EN"
 "http://www.w3.org/Graphics/SVG/1.1/DTD/svg11.dtd">
<!-- Generated by graphviz version 2.43.0 (0)
 -->
<!-- Title: Cpl/Io/Socket/Listener.h Pages: 1 -->
<svg width="262pt" height="82pt"
 viewBox="0.00 0.00 262.00 82.00" xmlns="http://www.w3.org/2000/svg" xmlns:xlink="http://www.w3.org/1999/xlink">
<g id="graph0" class="graph" transform="scale(1 1) rotate(0) translate(4 78)">
<title>Cpl/Io/Socket/Listener.h</title>
<!-- Node1 -->
<g id="Node000001" class="node">
<title>Node1</title>
<g id="a_Node000001"><a xlink:title=" ">
<polygon fill="#999999" stroke="#666666" points="186,-74 56,-74 56,-55 186,-55 186,-74"/>
<text text-anchor="middle" x="121" y="-62" font-family="Helvetica,sans-Serif" font-size="10.00">Cpl/Io/Socket/Listener.h</text>
</a>
</g>
</g>
<!-- Node2 -->
<g id="Node000002" class="node">
<title>Node2</title>
<g id="a_Node000002"><a xlink:href="_descriptor_8h.html" target="_top" xlink:title=" ">
<polygon fill="white" stroke="#666666" points="106,-19 0,-19 0,0 106,0 106,-19"/>
<text text-anchor="middle" x="53" y="-7" font-family="Helvetica,sans-Serif" font-size="10.00">Cpl/Io/Descriptor.h</text>
</a>
</g>
</g>
<!-- Node1&#45;&gt;Node2 -->
<g id="edge1_Node000001_Node000002" class="edge">
<title>Node1&#45;&gt;Node2</title>
<g id="a_edge1_Node000001_Node000002"><a xlink:title=" ">
<path fill="none" stroke="#63b8ff" d="M110.07,-54.98C99.92,-47.07 84.58,-35.11 72.35,-25.58"/>
<polygon fill="#63b8ff" stroke="#63b8ff" points="74.16,-22.56 64.12,-19.17 69.86,-28.08 74.16,-22.56"/>
</a>
</g>
</g>
<!-- Node3 -->
<g id="Node000003" class="node">
<title>Node3</title>
<g id="a_Node000003"><a xlink:href="_runnable_8h.html" target="_top" xlink:title=" ">
<polygon fill="white" stroke="#666666" points="254,-19 124,-19 124,0 254,0 254,-19"/>
<text text-anchor="middle" x="189" y="-7" font-family="Helvetica,sans-Serif" font-size="10.00">Cpl/System/Runnable.h</text>
</a>
</g>
</g>
<!-- Node1&#45;&gt;Node3 -->
<g id="edge2_Node000001_Node000003" class="edge">
<title>Node1&#45;&gt;Node3</title>
<g id="a_edge2_Node000001_Node000003"><a xlink:title=" ">
<path fill="none" stroke="#63b8ff" d="M131.93,-54.98C142.08,-47.07 157.42,-35.11 169.65,-25.58"/>
<polygon fill="#63b8ff" stroke="#63b8ff" points="172.14,-28.08 177.88,-19.17 167.84,-22.56 172.14,-28.08"/>
</a>
</g>
</g>
</g>
</svg>
