<?xml version="1.0" encoding="UTF-8" standalone="no"?>
<!DOCTYPE svg PUBLIC "-//W3C//DTD SVG 1.1//EN"
 "http://www.w3.org/Graphics/SVG/1.1/DTD/svg11.dtd">
<!-- Generated by graphviz version 2.43.0 (0)
 -->
<!-- Title: Cpl/Io/Socket/ListenerClientSync.h Pages: 1 -->
<svg width="529pt" height="379pt"
 viewBox="0.00 0.00 529.00 379.00" xmlns="http://www.w3.org/2000/svg" xmlns:xlink="http://www.w3.org/1999/xlink">
<g id="graph0" class="graph" transform="scale(1 1) rotate(0) translate(4 375)">
<title>Cpl/Io/Socket/ListenerClientSync.h</title>
<!-- Node1 -->
<g id="Node000001" class="node">
<title>Node1</title>
<g id="a_Node000001"><a xlink:title=" ">
<polygon fill="#999999" stroke="#666666" points="341,-371 191,-371 191,-341 341,-341 341,-371"/>
<text text-anchor="start" x="199" y="-359" font-family="Helvetica,sans-Serif" font-size="10.00">Cpl/Io/Socket/ListenerClient</text>
<text text-anchor="middle" x="266" y="-348" font-family="Helvetica,sans-Serif" font-size="10.00">Sync.h</text>
</a>
</g>
</g>
<!-- Node2 -->
<g id="Node000002" class="node">
<title>Node2</title>
<g id="a_Node000002"><a xlink:href="_listener_8h.html" target="_top" xlink:title=" ">
<polygon fill="white" stroke="#666666" points="254,-239 124,-239 124,-220 254,-220 254,-239"/>
<text text-anchor="middle" x="189" y="-227" font-family="Helvetica,sans-Serif" font-size="10.00">Cpl/Io/Socket/Listener.h</text>
</a>
</g>
</g>
<!-- Node1&#45;&gt;Node2 -->
<g id="edge1_Node000001_Node000002" class="edge">
<title>Node1&#45;&gt;Node2</title>
<g id="a_edge1_Node000001_Node000002"><a xlink:title=" ">
<path fill="none" stroke="#63b8ff" d="M257.17,-340.72C242.94,-317.71 214.99,-272.53 199.67,-247.76"/>
<polygon fill="#63b8ff" stroke="#63b8ff" points="202.54,-245.73 194.3,-239.07 196.58,-249.42 202.54,-245.73"/>
</a>
</g>
</g>
<!-- Node5 -->
<g id="Node000005" class="node">
<title>Node5</title>
<g id="a_Node000005"><a xlink:href="_listener_client_request_8h.html" target="_top" xlink:title=" ">
<polygon fill="white" stroke="#666666" points="406,-305 256,-305 256,-275 406,-275 406,-305"/>
<text text-anchor="start" x="264" y="-293" font-family="Helvetica,sans-Serif" font-size="10.00">Cpl/Io/Socket/ListenerClient</text>
<text text-anchor="middle" x="331" y="-282" font-family="Helvetica,sans-Serif" font-size="10.00">Request.h</text>
</a>
</g>
</g>
<!-- Node1&#45;&gt;Node5 -->
<g id="edge4_Node000001_Node000005" class="edge">
<title>Node1&#45;&gt;Node5</title>
<g id="a_edge4_Node000001_Node000005"><a xlink:title=" ">
<path fill="none" stroke="#63b8ff" d="M280.43,-340.8C288.93,-332.43 299.84,-321.68 309.36,-312.31"/>
<polygon fill="#63b8ff" stroke="#63b8ff" points="311.94,-314.67 316.61,-305.16 307.03,-309.69 311.94,-314.67"/>
</a>
</g>
</g>
<!-- Node3 -->
<g id="Node000003" class="node">
<title>Node3</title>
<g id="a_Node000003"><a xlink:href="_descriptor_8h.html" target="_top" xlink:title=" ">
<polygon fill="white" stroke="#666666" points="106,-184 0,-184 0,-165 106,-165 106,-184"/>
<text text-anchor="middle" x="53" y="-172" font-family="Helvetica,sans-Serif" font-size="10.00">Cpl/Io/Descriptor.h</text>
</a>
</g>
</g>
<!-- Node2&#45;&gt;Node3 -->
<g id="edge2_Node000002_Node000003" class="edge">
<title>Node2&#45;&gt;Node3</title>
<g id="a_edge2_Node000002_Node000003"><a xlink:title=" ">
<path fill="none" stroke="#63b8ff" d="M167.15,-219.98C144.88,-211.3 110.1,-197.75 84.78,-187.88"/>
<polygon fill="#63b8ff" stroke="#63b8ff" points="85.84,-184.54 75.25,-184.17 83.29,-191.06 85.84,-184.54"/>
</a>
</g>
</g>
<!-- Node4 -->
<g id="Node000004" class="node">
<title>Node4</title>
<g id="a_Node000004"><a xlink:href="_runnable_8h.html" target="_top" xlink:title=" ">
<polygon fill="white" stroke="#666666" points="254,-184 124,-184 124,-165 254,-165 254,-184"/>
<text text-anchor="middle" x="189" y="-172" font-family="Helvetica,sans-Serif" font-size="10.00">Cpl/System/Runnable.h</text>
</a>
</g>
</g>
<!-- Node2&#45;&gt;Node4 -->
<g id="edge3_Node000002_Node000004" class="edge">
<title>Node2&#45;&gt;Node4</title>
<g id="a_edge3_Node000002_Node000004"><a xlink:title=" ">
<path fill="none" stroke="#63b8ff" d="M189,-219.75C189,-212.8 189,-202.85 189,-194.13"/>
<polygon fill="#63b8ff" stroke="#63b8ff" points="192.5,-194.09 189,-184.09 185.5,-194.09 192.5,-194.09"/>
</a>
</g>
</g>
<!-- Node5&#45;&gt;Node2 -->
<g id="edge5_Node000005_Node000002" class="edge">
<title>Node5&#45;&gt;Node2</title>
<g id="a_edge5_Node000005_Node000002"><a xlink:title=" ">
<path fill="none" stroke="#63b8ff" d="M296.99,-274.99C273.4,-265.27 242.26,-252.44 219.48,-243.06"/>
<polygon fill="#63b8ff" stroke="#63b8ff" points="220.55,-239.71 209.97,-239.14 217.88,-246.18 220.55,-239.71"/>
</a>
</g>
</g>
<!-- Node6 -->
<g id="Node000006" class="node">
<title>Node6</title>
<g id="a_Node000006"><a xlink:href="_request_message_8h.html" target="_top" xlink:title=" ">
<polygon fill="white" stroke="#666666" points="415.5,-239 272.5,-239 272.5,-220 415.5,-220 415.5,-239"/>
<text text-anchor="middle" x="344" y="-227" font-family="Helvetica,sans-Serif" font-size="10.00">Cpl/Itc/RequestMessage.h</text>
</a>
</g>
</g>
<!-- Node5&#45;&gt;Node6 -->
<g id="edge6_Node000005_Node000006" class="edge">
<title>Node5&#45;&gt;Node6</title>
<g id="a_edge6_Node000005_Node000006"><a xlink:title=" ">
<path fill="none" stroke="#63b8ff" d="M334.15,-274.84C335.86,-267.13 338,-257.49 339.85,-249.17"/>
<polygon fill="#63b8ff" stroke="#63b8ff" points="343.3,-249.79 342.05,-239.27 336.47,-248.27 343.3,-249.79"/>
</a>
</g>
</g>
<!-- Node11 -->
<g id="Node000011" class="node">
<title>Node11</title>
<g id="a_Node000011"><a xlink:href="_s_a_p_8h.html" target="_top" xlink:title=" ">
<polygon fill="white" stroke="#666666" points="506.5,-184 429.5,-184 429.5,-165 506.5,-165 506.5,-184"/>
<text text-anchor="middle" x="468" y="-172" font-family="Helvetica,sans-Serif" font-size="10.00">Cpl/Itc/SAP.h</text>
</a>
</g>
</g>
<!-- Node5&#45;&gt;Node11 -->
<g id="edge14_Node000005_Node000011" class="edge">
<title>Node5&#45;&gt;Node11</title>
<g id="a_edge14_Node000005_Node000011"><a xlink:title=" ">
<path fill="none" stroke="#63b8ff" d="M366.16,-274.91C384.7,-266.35 407.05,-254.14 424,-239 438.65,-225.91 450.94,-207.02 458.77,-193.24"/>
<polygon fill="#63b8ff" stroke="#63b8ff" points="461.95,-194.73 463.66,-184.27 455.8,-191.38 461.95,-194.73"/>
</a>
</g>
</g>
<!-- Node7 -->
<g id="Node000007" class="node">
<title>Node7</title>
<g id="a_Node000007"><a xlink:href="_service_message_8h.html" target="_top" xlink:title=" ">
<polygon fill="white" stroke="#666666" points="411.5,-184 272.5,-184 272.5,-165 411.5,-165 411.5,-184"/>
<text text-anchor="middle" x="342" y="-172" font-family="Helvetica,sans-Serif" font-size="10.00">Cpl/Itc/ServiceMessage.h</text>
</a>
</g>
</g>
<!-- Node6&#45;&gt;Node7 -->
<g id="edge7_Node000006_Node000007" class="edge">
<title>Node6&#45;&gt;Node7</title>
<g id="a_edge7_Node000006_Node000007"><a xlink:title=" ">
<path fill="none" stroke="#63b8ff" d="M343.67,-219.75C343.41,-212.8 343.03,-202.85 342.7,-194.13"/>
<polygon fill="#63b8ff" stroke="#63b8ff" points="346.2,-193.95 342.32,-184.09 339.2,-194.21 346.2,-193.95"/>
</a>
</g>
</g>
<!-- Node6&#45;&gt;Node11 -->
<g id="edge11_Node000006_Node000011" class="edge">
<title>Node6&#45;&gt;Node11</title>
<g id="a_edge11_Node000006_Node000011"><a xlink:title=" ">
<path fill="none" stroke="#63b8ff" d="M363.92,-219.98C384.05,-211.38 415.38,-197.99 438.41,-188.15"/>
<polygon fill="#63b8ff" stroke="#63b8ff" points="439.9,-191.32 447.71,-184.17 437.14,-184.88 439.9,-191.32"/>
</a>
</g>
</g>
<!-- Node8 -->
<g id="Node000008" class="node">
<title>Node8</title>
<g id="a_Node000008"><a xlink:href="_message_8h.html" target="_top" xlink:title=" ">
<polygon fill="white" stroke="#666666" points="412.5,-74 309.5,-74 309.5,-55 412.5,-55 412.5,-74"/>
<text text-anchor="middle" x="361" y="-62" font-family="Helvetica,sans-Serif" font-size="10.00">Cpl/Itc/Message.h</text>
</a>
</g>
</g>
<!-- Node7&#45;&gt;Node8 -->
<g id="edge8_Node000007_Node000008" class="edge">
<title>Node7&#45;&gt;Node8</title>
<g id="a_edge8_Node000007_Node000008"><a xlink:title=" ">
<path fill="none" stroke="#63b8ff" d="M316.88,-164.87C289.88,-154.13 252.75,-134.21 268,-110 277.73,-94.56 294.47,-84.35 311.09,-77.67"/>
<polygon fill="#63b8ff" stroke="#63b8ff" points="312.61,-80.84 320.8,-74.13 310.21,-74.26 312.61,-80.84"/>
</a>
</g>
</g>
<!-- Node10 -->
<g id="Node000010" class="node">
<title>Node10</title>
<g id="a_Node000010"><a xlink:href="_return_handler_8h.html" target="_top" xlink:title=" ">
<polygon fill="white" stroke="#666666" points="406.5,-129 277.5,-129 277.5,-110 406.5,-110 406.5,-129"/>
<text text-anchor="middle" x="342" y="-117" font-family="Helvetica,sans-Serif" font-size="10.00">Cpl/Itc/ReturnHandler.h</text>
</a>
</g>
</g>
<!-- Node7&#45;&gt;Node10 -->
<g id="edge10_Node000007_Node000010" class="edge">
<title>Node7&#45;&gt;Node10</title>
<g id="a_edge10_Node000007_Node000010"><a xlink:title=" ">
<path fill="none" stroke="#63b8ff" d="M342,-164.75C342,-157.8 342,-147.85 342,-139.13"/>
<polygon fill="#63b8ff" stroke="#63b8ff" points="345.5,-139.09 342,-129.09 338.5,-139.09 345.5,-139.09"/>
</a>
</g>
</g>
<!-- Node9 -->
<g id="Node000009" class="node">
<title>Node9</title>
<g id="a_Node000009"><a xlink:href="_item_8h.html" target="_top" xlink:title=" ">
<polygon fill="white" stroke="#666666" points="419.5,-19 302.5,-19 302.5,0 419.5,0 419.5,-19"/>
<text text-anchor="middle" x="361" y="-7" font-family="Helvetica,sans-Serif" font-size="10.00">Cpl/Container/Item.h</text>
</a>
</g>
</g>
<!-- Node8&#45;&gt;Node9 -->
<g id="edge9_Node000008_Node000009" class="edge">
<title>Node8&#45;&gt;Node9</title>
<g id="a_edge9_Node000008_Node000009"><a xlink:title=" ">
<path fill="none" stroke="#63b8ff" d="M361,-54.75C361,-47.8 361,-37.85 361,-29.13"/>
<polygon fill="#63b8ff" stroke="#63b8ff" points="364.5,-29.09 361,-19.09 357.5,-29.09 364.5,-29.09"/>
</a>
</g>
</g>
<!-- Node12 -->
<g id="Node000012" class="node">
<title>Node12</title>
<g id="a_Node000012"><a xlink:href="_post_api_8h.html" target="_top" xlink:title=" ">
<polygon fill="white" stroke="#666666" points="521,-129 425,-129 425,-110 521,-110 521,-129"/>
<text text-anchor="middle" x="473" y="-117" font-family="Helvetica,sans-Serif" font-size="10.00">Cpl/Itc/PostApi.h</text>
</a>
</g>
</g>
<!-- Node11&#45;&gt;Node12 -->
<g id="edge12_Node000011_Node000012" class="edge">
<title>Node11&#45;&gt;Node12</title>
<g id="a_edge12_Node000011_Node000012"><a xlink:title=" ">
<path fill="none" stroke="#63b8ff" d="M468.83,-164.75C469.48,-157.8 470.42,-147.85 471.24,-139.13"/>
<polygon fill="#63b8ff" stroke="#63b8ff" points="474.73,-139.37 472.19,-129.09 467.77,-138.72 474.73,-139.37"/>
</a>
</g>
</g>
<!-- Node12&#45;&gt;Node8 -->
<g id="edge13_Node000012_Node000008" class="edge">
<title>Node12&#45;&gt;Node8</title>
<g id="a_edge13_Node000012_Node000008"><a xlink:title=" ">
<path fill="none" stroke="#63b8ff" d="M455.01,-109.98C437.07,-101.5 409.28,-88.35 388.57,-78.54"/>
<polygon fill="#63b8ff" stroke="#63b8ff" points="389.86,-75.28 379.32,-74.17 386.86,-81.61 389.86,-75.28"/>
</a>
</g>
</g>
</g>
</svg>
