<?xml version="1.0" encoding="UTF-8" standalone="no"?>
<!DOCTYPE svg PUBLIC "-//W3C//DTD SVG 1.1//EN"
 "http://www.w3.org/Graphics/SVG/1.1/DTD/svg11.dtd">
<!-- Generated by graphviz version 2.43.0 (0)
 -->
<!-- Title: Cpl/Io/File/Littlefs/_api/DirList_.h Pages: 1 -->
<svg width="755pt" height="489pt"
 viewBox="0.00 0.00 754.88 489.00" xmlns="http://www.w3.org/2000/svg" xmlns:xlink="http://www.w3.org/1999/xlink">
<g id="graph0" class="graph" transform="scale(1 1) rotate(0) translate(4 485)">
<title>Cpl/Io/File/Littlefs/_api/DirList_.h</title>
<!-- Node1 -->
<g id="Node000001" class="node">
<title>Node1</title>
<g id="a_Node000001"><a xlink:title=" ">
<polygon fill="#999999" stroke="#666666" points="335.38,-481 234.38,-481 234.38,-451 335.38,-451 335.38,-481"/>
<text text-anchor="start" x="242.38" y="-469" font-family="Helvetica,sans-Serif" font-size="10.00">Cpl/Io/File/Littlefs</text>
<text text-anchor="middle" x="284.88" y="-458" font-family="Helvetica,sans-Serif" font-size="10.00">/_api/DirList_.h</text>
</a>
</g>
</g>
<!-- Node2 -->
<g id="Node000002" class="node">
<title>Node2</title>
<g id="a_Node000002"><a xlink:title=" ">
<polygon fill="#e0e0e0" stroke="#999999" points="229.88,-19 137.88,-19 137.88,0 229.88,0 229.88,-19"/>
<text text-anchor="middle" x="183.88" y="-7" font-family="Helvetica,sans-Serif" font-size="10.00">colony_config.h</text>
</a>
</g>
</g>
<!-- Node1&#45;&gt;Node2 -->
<g id="edge1_Node000001_Node000002" class="edge">
<title>Node1&#45;&gt;Node2</title>
<g id="a_edge1_Node000001_Node000002"><a xlink:title=" ">
<path fill="none" stroke="#63b8ff" d="M234.11,-455.53C152.42,-438.82 0.88,-401.15 0.88,-351.5 0.88,-351.5 0.88,-351.5 0.88,-124 0.88,-92.19 -2.65,-77.45 19.88,-55 48.13,-26.86 92.27,-16.03 127.64,-12.07"/>
<polygon fill="#63b8ff" stroke="#63b8ff" points="128.21,-15.53 137.83,-11.09 127.54,-8.57 128.21,-15.53"/>
</a>
</g>
</g>
<!-- Node3 -->
<g id="Node000003" class="node">
<title>Node3</title>
<g id="a_Node000003"><a xlink:href="_cpl_2_io_2_file_2_api_8h.html" target="_top" xlink:title=" ">
<polygon fill="white" stroke="#666666" points="413.88,-415 321.88,-415 321.88,-396 413.88,-396 413.88,-415"/>
<text text-anchor="middle" x="367.88" y="-403" font-family="Helvetica,sans-Serif" font-size="10.00">Cpl/Io/File/Api.h</text>
</a>
</g>
</g>
<!-- Node1&#45;&gt;Node3 -->
<g id="edge2_Node000001_Node000003" class="edge">
<title>Node1&#45;&gt;Node3</title>
<g id="a_edge2_Node000001_Node000003"><a xlink:title=" ">
<path fill="none" stroke="#63b8ff" d="M304.98,-450.84C317.76,-441.83 334.28,-430.18 347.18,-421.09"/>
<polygon fill="#63b8ff" stroke="#63b8ff" points="349.29,-423.89 355.45,-415.27 345.26,-418.17 349.29,-423.89"/>
</a>
</g>
</g>
<!-- Node18 -->
<g id="Node000018" class="node">
<title>Node18</title>
<g id="a_Node000018"><a xlink:href="_cpl_2_io_2_file_2_littlefs_2_api_8h.html" target="_top" xlink:title=" ">
<polygon fill="white" stroke="#666666" points="172.38,-140 71.38,-140 71.38,-110 172.38,-110 172.38,-140"/>
<text text-anchor="start" x="79.38" y="-128" font-family="Helvetica,sans-Serif" font-size="10.00">Cpl/Io/File/Littlefs</text>
<text text-anchor="middle" x="121.88" y="-117" font-family="Helvetica,sans-Serif" font-size="10.00">/Api.h</text>
</a>
</g>
</g>
<!-- Node1&#45;&gt;Node18 -->
<g id="edge22_Node000001_Node000018" class="edge">
<title>Node1&#45;&gt;Node18</title>
<g id="a_edge22_Node000001_Node000018"><a xlink:title=" ">
<path fill="none" stroke="#63b8ff" d="M240.81,-450.95C198.8,-434.46 141.88,-402.69 141.88,-351.5 141.88,-351.5 141.88,-351.5 141.88,-239.5 141.88,-208.24 134.43,-172.85 128.63,-150.03"/>
<polygon fill="#63b8ff" stroke="#63b8ff" points="131.97,-148.97 126.03,-140.19 125.2,-150.75 131.97,-148.97"/>
</a>
</g>
</g>
<!-- Node20 -->
<g id="Node000020" class="node">
<title>Node20</title>
<g id="a_Node000020"><a xlink:href="_stack_8h.html" target="_top" xlink:title=" ">
<polygon fill="white" stroke="#666666" points="746.88,-305 624.88,-305 624.88,-286 746.88,-286 746.88,-305"/>
<text text-anchor="middle" x="685.88" y="-293" font-family="Helvetica,sans-Serif" font-size="10.00">Cpl/Container/Stack.h</text>
</a>
</g>
</g>
<!-- Node1&#45;&gt;Node20 -->
<g id="edge26_Node000001_Node000020" class="edge">
<title>Node1&#45;&gt;Node20</title>
<g id="a_edge26_Node000001_Node000020"><a xlink:title=" ">
<path fill="none" stroke="#63b8ff" d="M335.39,-455.17C401.66,-440.87 520.18,-410.39 610.88,-360 634.04,-347.14 656.69,-326.52 670.94,-312.29"/>
<polygon fill="#63b8ff" stroke="#63b8ff" points="673.45,-314.72 677.93,-305.13 668.44,-309.83 673.45,-314.72"/>
</a>
</g>
</g>
<!-- Node4 -->
<g id="Node000004" class="node">
<title>Node4</title>
<g id="a_Node000004"><a xlink:title=" ">
<polygon fill="#e0e0e0" stroke="#999999" points="555.38,-74 470.38,-74 470.38,-55 555.38,-55 555.38,-74"/>
<text text-anchor="middle" x="512.88" y="-62" font-family="Helvetica,sans-Serif" font-size="10.00">colony_map.h</text>
</a>
</g>
</g>
<!-- Node3&#45;&gt;Node4 -->
<g id="edge3_Node000003_Node000004" class="edge">
<title>Node3&#45;&gt;Node4</title>
<g id="a_edge3_Node000003_Node000004"><a xlink:title=" ">
<path fill="none" stroke="#63b8ff" d="M413.95,-402.72C480.82,-397.39 596.88,-376.61 596.88,-296.5 596.88,-296.5 596.88,-296.5 596.88,-184.5 596.88,-150.33 597.46,-138.01 577.88,-110 568.68,-96.83 554.23,-86.38 541.29,-78.92"/>
<polygon fill="#63b8ff" stroke="#63b8ff" points="542.7,-75.7 532.24,-74.02 539.37,-81.86 542.7,-75.7"/>
</a>
</g>
</g>
<!-- Node5 -->
<g id="Node000005" class="node">
<title>Node5</title>
<g id="a_Node000005"><a xlink:href="_f_string_8h.html" target="_top" xlink:title=" ">
<polygon fill="white" stroke="#666666" points="292.38,-360 191.38,-360 191.38,-341 292.38,-341 292.38,-360"/>
<text text-anchor="middle" x="241.88" y="-348" font-family="Helvetica,sans-Serif" font-size="10.00">Cpl/Text/FString.h</text>
</a>
</g>
</g>
<!-- Node3&#45;&gt;Node5 -->
<g id="edge4_Node000003_Node000005" class="edge">
<title>Node3&#45;&gt;Node5</title>
<g id="a_edge4_Node000003_Node000005"><a xlink:title=" ">
<path fill="none" stroke="#63b8ff" d="M347.64,-395.98C327.19,-387.38 295.35,-373.99 271.95,-364.15"/>
<polygon fill="#63b8ff" stroke="#63b8ff" points="273.07,-360.82 262.5,-360.17 270.36,-367.27 273.07,-360.82"/>
</a>
</g>
</g>
<!-- Node16 -->
<g id="Node000016" class="node">
<title>Node16</title>
<g id="a_Node000016"><a xlink:href="_traverser_8h.html" target="_top" xlink:title=" ">
<polygon fill="white" stroke="#666666" points="424.88,-360 310.88,-360 310.88,-341 424.88,-341 424.88,-360"/>
<text text-anchor="middle" x="367.88" y="-348" font-family="Helvetica,sans-Serif" font-size="10.00">Cpl/Type/Traverser.h</text>
</a>
</g>
</g>
<!-- Node3&#45;&gt;Node16 -->
<g id="edge20_Node000003_Node000016" class="edge">
<title>Node3&#45;&gt;Node16</title>
<g id="a_edge20_Node000003_Node000016"><a xlink:title=" ">
<path fill="none" stroke="#63b8ff" d="M367.88,-395.75C367.88,-388.8 367.88,-378.85 367.88,-370.13"/>
<polygon fill="#63b8ff" stroke="#63b8ff" points="371.38,-370.09 367.88,-360.09 364.38,-370.09 371.38,-370.09"/>
</a>
</g>
</g>
<!-- Node17 -->
<g id="Node000017" class="node">
<title>Node17</title>
<g id="a_Node000017"><a xlink:title=" ">
<polygon fill="#e0e0e0" stroke="#999999" points="490.88,-360 442.88,-360 442.88,-341 490.88,-341 490.88,-360"/>
<text text-anchor="middle" x="466.88" y="-348" font-family="Helvetica,sans-Serif" font-size="10.00">time.h</text>
</a>
</g>
</g>
<!-- Node3&#45;&gt;Node17 -->
<g id="edge21_Node000003_Node000017" class="edge">
<title>Node3&#45;&gt;Node17</title>
<g id="a_edge21_Node000003_Node000017"><a xlink:title=" ">
<path fill="none" stroke="#63b8ff" d="M383.79,-395.98C399.43,-387.61 423.54,-374.7 441.77,-364.95"/>
<polygon fill="#63b8ff" stroke="#63b8ff" points="443.52,-367.98 450.69,-360.17 440.22,-361.8 443.52,-367.98"/>
</a>
</g>
</g>
<!-- Node6 -->
<g id="Node000006" class="node">
<title>Node6</title>
<g id="a_Node000006"><a xlink:href="_f_string___8h.html" target="_top" xlink:title=" ">
<polygon fill="white" stroke="#666666" points="336.38,-305 229.38,-305 229.38,-286 336.38,-286 336.38,-305"/>
<text text-anchor="middle" x="282.88" y="-293" font-family="Helvetica,sans-Serif" font-size="10.00">Cpl/Text/FString_.h</text>
</a>
</g>
</g>
<!-- Node5&#45;&gt;Node6 -->
<g id="edge5_Node000005_Node000006" class="edge">
<title>Node5&#45;&gt;Node6</title>
<g id="a_edge5_Node000005_Node000006"><a xlink:title=" ">
<path fill="none" stroke="#63b8ff" d="M248.65,-340.75C254.45,-333.26 262.94,-322.28 270.02,-313.13"/>
<polygon fill="#63b8ff" stroke="#63b8ff" points="272.89,-315.14 276.24,-305.09 267.35,-310.86 272.89,-315.14"/>
</a>
</g>
</g>
<!-- Node13 -->
<g id="Node000013" class="node">
<title>Node13</title>
<g id="a_Node000013"><a xlink:title=" ">
<polygon fill="#e0e0e0" stroke="#999999" points="210.38,-74 157.38,-74 157.38,-55 210.38,-55 210.38,-74"/>
<text text-anchor="middle" x="183.88" y="-62" font-family="Helvetica,sans-Serif" font-size="10.00">string.h</text>
</a>
</g>
</g>
<!-- Node5&#45;&gt;Node13 -->
<g id="edge19_Node000005_Node000013" class="edge">
<title>Node5&#45;&gt;Node13</title>
<g id="a_edge19_Node000005_Node000013"><a xlink:title=" ">
<path fill="none" stroke="#63b8ff" d="M236.18,-340.96C224.92,-323.23 200.88,-280.81 200.88,-241.5 200.88,-241.5 200.88,-241.5 200.88,-184.5 200.88,-148.63 193.22,-107.29 188.18,-83.99"/>
<polygon fill="#63b8ff" stroke="#63b8ff" points="191.57,-83.09 185.97,-74.1 184.74,-84.62 191.57,-83.09"/>
</a>
</g>
</g>
<!-- Node6&#45;&gt;Node2 -->
<g id="edge6_Node000006_Node000002" class="edge">
<title>Node6&#45;&gt;Node2</title>
<g id="a_edge6_Node000006_Node000002"><a xlink:title=" ">
<path fill="none" stroke="#63b8ff" d="M276.58,-285.75C264.41,-267.98 238.88,-225.98 238.88,-186.5 238.88,-186.5 238.88,-186.5 238.88,-124 238.88,-92.19 234.41,-83.29 219.88,-55 214.63,-44.77 206.76,-34.69 199.72,-26.71"/>
<polygon fill="#63b8ff" stroke="#63b8ff" points="202.19,-24.22 192.83,-19.25 197.04,-28.97 202.19,-24.22"/>
</a>
</g>
</g>
<!-- Node7 -->
<g id="Node000007" class="node">
<title>Node7</title>
<g id="a_Node000007"><a xlink:href="_string___8h.html" target="_top" xlink:title=" ">
<polygon fill="white" stroke="#666666" points="385.38,-250 284.38,-250 284.38,-231 385.38,-231 385.38,-250"/>
<text text-anchor="middle" x="334.88" y="-238" font-family="Helvetica,sans-Serif" font-size="10.00">Cpl/Text/String_.h</text>
</a>
</g>
</g>
<!-- Node6&#45;&gt;Node7 -->
<g id="edge7_Node000006_Node000007" class="edge">
<title>Node6&#45;&gt;Node7</title>
<g id="a_edge7_Node000006_Node000007"><a xlink:title=" ">
<path fill="none" stroke="#63b8ff" d="M291.47,-285.75C299.04,-278.03 310.26,-266.6 319.4,-257.28"/>
<polygon fill="#63b8ff" stroke="#63b8ff" points="321.95,-259.68 326.46,-250.09 316.95,-254.78 321.95,-259.68"/>
</a>
</g>
</g>
<!-- Node8 -->
<g id="Node000008" class="node">
<title>Node8</title>
<g id="a_Node000008"><a xlink:href="_text_2_string_8h.html" target="_top" xlink:title=" ">
<polygon fill="white" stroke="#666666" points="398.88,-195 302.88,-195 302.88,-176 398.88,-176 398.88,-195"/>
<text text-anchor="middle" x="350.88" y="-183" font-family="Helvetica,sans-Serif" font-size="10.00">Cpl/Text/String.h</text>
</a>
</g>
</g>
<!-- Node7&#45;&gt;Node8 -->
<g id="edge8_Node000007_Node000008" class="edge">
<title>Node7&#45;&gt;Node8</title>
<g id="a_edge8_Node000007_Node000008"><a xlink:title=" ">
<path fill="none" stroke="#63b8ff" d="M337.53,-230.75C339.65,-223.72 342.7,-213.62 345.35,-204.84"/>
<polygon fill="#63b8ff" stroke="#63b8ff" points="348.75,-205.67 348.29,-195.09 342.05,-203.65 348.75,-205.67"/>
</a>
</g>
</g>
<!-- Node8&#45;&gt;Node4 -->
<g id="edge9_Node000008_Node000004" class="edge">
<title>Node8&#45;&gt;Node4</title>
<g id="a_edge9_Node000008_Node000004"><a xlink:title=" ">
<path fill="none" stroke="#63b8ff" d="M350.54,-175.87C350.41,-160.52 352.42,-128.39 369.88,-110 393.2,-85.43 429.82,-74.35 460.16,-69.38"/>
<polygon fill="#63b8ff" stroke="#63b8ff" points="460.79,-72.83 470.18,-67.92 459.78,-65.9 460.79,-72.83"/>
</a>
</g>
</g>
<!-- Node9 -->
<g id="Node000009" class="node">
<title>Node9</title>
<g id="a_Node000009"><a xlink:href="_key_8h.html" target="_top" xlink:title=" ">
<polygon fill="white" stroke="#666666" points="568.38,-134.5 457.38,-134.5 457.38,-115.5 568.38,-115.5 568.38,-134.5"/>
<text text-anchor="middle" x="512.88" y="-122.5" font-family="Helvetica,sans-Serif" font-size="10.00">Cpl/Container/Key.h</text>
</a>
</g>
</g>
<!-- Node8&#45;&gt;Node9 -->
<g id="edge10_Node000008_Node000009" class="edge">
<title>Node8&#45;&gt;Node9</title>
<g id="a_edge10_Node000008_Node000009"><a xlink:title=" ">
<path fill="none" stroke="#63b8ff" d="M374.44,-175.99C402.15,-165.99 448.35,-149.3 479.69,-137.99"/>
<polygon fill="#63b8ff" stroke="#63b8ff" points="481.08,-141.21 489.3,-134.52 478.7,-134.62 481.08,-141.21"/>
</a>
</g>
</g>
<!-- Node14 -->
<g id="Node000014" class="node">
<title>Node14</title>
<g id="a_Node000014"><a xlink:title=" ">
<polygon fill="#e0e0e0" stroke="#999999" points="322.88,-134.5 266.88,-134.5 266.88,-115.5 322.88,-115.5 322.88,-134.5"/>
<text text-anchor="middle" x="294.88" y="-122.5" font-family="Helvetica,sans-Serif" font-size="10.00">stdarg.h</text>
</a>
</g>
</g>
<!-- Node8&#45;&gt;Node14 -->
<g id="edge17_Node000008_Node000014" class="edge">
<title>Node8&#45;&gt;Node14</title>
<g id="a_edge17_Node000008_Node000014"><a xlink:title=" ">
<path fill="none" stroke="#63b8ff" d="M342.62,-175.87C334.1,-166.97 320.62,-152.89 310.15,-141.95"/>
<polygon fill="#63b8ff" stroke="#63b8ff" points="312.62,-139.47 303.18,-134.67 307.57,-144.31 312.62,-139.47"/>
</a>
</g>
</g>
<!-- Node15 -->
<g id="Node000015" class="node">
<title>Node15</title>
<g id="a_Node000015"><a xlink:title=" ">
<polygon fill="#e0e0e0" stroke="#999999" points="438.88,-134.5 378.88,-134.5 378.88,-115.5 438.88,-115.5 438.88,-134.5"/>
<text text-anchor="middle" x="408.88" y="-122.5" font-family="Helvetica,sans-Serif" font-size="10.00">iostream</text>
</a>
</g>
</g>
<!-- Node8&#45;&gt;Node15 -->
<g id="edge18_Node000008_Node000015" class="edge">
<title>Node8&#45;&gt;Node15</title>
<g id="a_edge18_Node000008_Node000015"><a xlink:title=" ">
<path fill="none" stroke="#63b8ff" d="M359.44,-175.87C368.27,-166.97 382.23,-152.89 393.07,-141.95"/>
<polygon fill="#63b8ff" stroke="#63b8ff" points="395.74,-144.23 400.29,-134.67 390.76,-139.3 395.74,-144.23"/>
</a>
</g>
</g>
<!-- Node9&#45;&gt;Node4 -->
<g id="edge16_Node000009_Node000004" class="edge">
<title>Node9&#45;&gt;Node4</title>
<g id="a_edge16_Node000009_Node000004"><a xlink:title=" ">
<path fill="none" stroke="#63b8ff" d="M512.88,-115.37C512.88,-107.25 512.88,-94.81 512.88,-84.39"/>
<polygon fill="#63b8ff" stroke="#63b8ff" points="516.38,-84.17 512.88,-74.17 509.38,-84.17 516.38,-84.17"/>
</a>
</g>
</g>
<!-- Node10 -->
<g id="Node000010" class="node">
<title>Node10</title>
<g id="a_Node000010"><a xlink:href="_fatal_error_8h.html" target="_top" xlink:title=" ">
<polygon fill="white" stroke="#666666" points="423.88,-74 293.88,-74 293.88,-55 423.88,-55 423.88,-74"/>
<text text-anchor="middle" x="358.88" y="-62" font-family="Helvetica,sans-Serif" font-size="10.00">Cpl/System/FatalError.h</text>
</a>
</g>
</g>
<!-- Node9&#45;&gt;Node10 -->
<g id="edge11_Node000009_Node000010" class="edge">
<title>Node9&#45;&gt;Node10</title>
<g id="a_edge11_Node000009_Node000010"><a xlink:title=" ">
<path fill="none" stroke="#63b8ff" d="M490.49,-115.49C464.26,-105.53 420.61,-88.95 390.83,-77.63"/>
<polygon fill="#63b8ff" stroke="#63b8ff" points="391.89,-74.3 381.3,-74.02 389.41,-80.84 391.89,-74.3"/>
</a>
</g>
</g>
<!-- Node12 -->
<g id="Node000012" class="node">
<title>Node12</title>
<g id="a_Node000012"><a xlink:title=" ">
<polygon fill="#e0e0e0" stroke="#999999" points="656.38,-74 603.38,-74 603.38,-55 656.38,-55 656.38,-74"/>
<text text-anchor="middle" x="629.88" y="-62" font-family="Helvetica,sans-Serif" font-size="10.00">stdint.h</text>
</a>
</g>
</g>
<!-- Node9&#45;&gt;Node12 -->
<g id="edge14_Node000009_Node000012" class="edge">
<title>Node9&#45;&gt;Node12</title>
<g id="a_edge14_Node000009_Node000012"><a xlink:title=" ">
<path fill="none" stroke="#63b8ff" d="M529.9,-115.49C549.31,-105.79 581.27,-89.81 603.82,-78.53"/>
<polygon fill="#63b8ff" stroke="#63b8ff" points="605.47,-81.62 612.85,-74.02 602.34,-75.36 605.47,-81.62"/>
</a>
</g>
</g>
<!-- Node9&#45;&gt;Node13 -->
<g id="edge15_Node000009_Node000013" class="edge">
<title>Node9&#45;&gt;Node13</title>
<g id="a_edge15_Node000009_Node000013"><a xlink:title=" ">
<path fill="none" stroke="#63b8ff" d="M474.79,-115.49C465.97,-113.61 456.61,-111.67 447.88,-110 366.96,-94.47 271.51,-79.11 220.46,-71.13"/>
<polygon fill="#63b8ff" stroke="#63b8ff" points="220.98,-67.67 210.56,-69.59 219.9,-74.59 220.98,-67.67"/>
</a>
</g>
</g>
<!-- Node10&#45;&gt;Node2 -->
<g id="edge13_Node000010_Node000002" class="edge">
<title>Node10&#45;&gt;Node2</title>
<g id="a_edge13_Node000010_Node000002"><a xlink:title=" ">
<path fill="none" stroke="#63b8ff" d="M330.77,-54.98C301.26,-46.05 254.69,-31.94 221.92,-22.02"/>
<polygon fill="#63b8ff" stroke="#63b8ff" points="222.81,-18.63 212.22,-19.08 220.78,-25.33 222.81,-18.63"/>
</a>
</g>
</g>
<!-- Node11 -->
<g id="Node000011" class="node">
<title>Node11</title>
<g id="a_Node000011"><a xlink:title=" ">
<polygon fill="#e0e0e0" stroke="#999999" points="386.88,-19 330.88,-19 330.88,0 386.88,0 386.88,-19"/>
<text text-anchor="middle" x="358.88" y="-7" font-family="Helvetica,sans-Serif" font-size="10.00">stddef.h</text>
</a>
</g>
</g>
<!-- Node10&#45;&gt;Node11 -->
<g id="edge12_Node000010_Node000011" class="edge">
<title>Node10&#45;&gt;Node11</title>
<g id="a_edge12_Node000010_Node000011"><a xlink:title=" ">
<path fill="none" stroke="#63b8ff" d="M358.88,-54.75C358.88,-47.8 358.88,-37.85 358.88,-29.13"/>
<polygon fill="#63b8ff" stroke="#63b8ff" points="362.38,-29.09 358.88,-19.09 355.38,-29.09 362.38,-29.09"/>
</a>
</g>
</g>
<!-- Node18&#45;&gt;Node2 -->
<g id="edge23_Node000018_Node000002" class="edge">
<title>Node18&#45;&gt;Node2</title>
<g id="a_edge23_Node000018_Node000002"><a xlink:title=" ">
<path fill="none" stroke="#63b8ff" d="M126.03,-109.97C130.57,-95.63 138.6,-72.98 148.88,-55 154.61,-45 162.43,-34.82 169.23,-26.73"/>
<polygon fill="#63b8ff" stroke="#63b8ff" points="171.9,-28.99 175.81,-19.15 166.62,-24.4 171.9,-28.99"/>
</a>
</g>
</g>
<!-- Node18&#45;&gt;Node13 -->
<g id="edge25_Node000018_Node000013" class="edge">
<title>Node18&#45;&gt;Node13</title>
<g id="a_edge25_Node000018_Node000013"><a xlink:title=" ">
<path fill="none" stroke="#63b8ff" d="M136.89,-109.84C146.08,-101.17 157.84,-90.08 167.3,-81.15"/>
<polygon fill="#63b8ff" stroke="#63b8ff" points="169.72,-83.67 174.59,-74.27 164.92,-78.58 169.72,-83.67"/>
</a>
</g>
</g>
<!-- Node19 -->
<g id="Node000019" class="node">
<title>Node19</title>
<g id="a_Node000019"><a xlink:title=" ">
<polygon fill="#e0e0e0" stroke="#999999" points="100.88,-74 28.88,-74 28.88,-55 100.88,-55 100.88,-74"/>
<text text-anchor="middle" x="64.88" y="-62" font-family="Helvetica,sans-Serif" font-size="10.00">littlefs/lfs.h</text>
</a>
</g>
</g>
<!-- Node18&#45;&gt;Node19 -->
<g id="edge24_Node000018_Node000019" class="edge">
<title>Node18&#45;&gt;Node19</title>
<g id="a_edge24_Node000018_Node000019"><a xlink:title=" ">
<path fill="none" stroke="#63b8ff" d="M108.09,-109.84C99.81,-101.35 89.26,-90.52 80.66,-81.69"/>
<polygon fill="#63b8ff" stroke="#63b8ff" points="82.91,-78.99 73.42,-74.27 77.9,-83.87 82.91,-78.99"/>
</a>
</g>
</g>
<!-- Node20&#45;&gt;Node12 -->
<g id="edge27_Node000020_Node000012" class="edge">
<title>Node20&#45;&gt;Node12</title>
<g id="a_edge27_Node000020_Node000012"><a xlink:title=" ">
<path fill="none" stroke="#63b8ff" d="M683.76,-285.8C675.56,-252.29 645.92,-131.08 634.46,-84.2"/>
<polygon fill="#63b8ff" stroke="#63b8ff" points="637.79,-83.09 632.01,-74.21 630.99,-84.75 637.79,-83.09"/>
</a>
</g>
</g>
</g>
</svg>
