<?xml version="1.0" encoding="UTF-8" standalone="no"?>
<!DOCTYPE svg PUBLIC "-//W3C//DTD SVG 1.1//EN"
 "http://www.w3.org/Graphics/SVG/1.1/DTD/svg11.dtd">
<!-- Generated by graphviz version 2.43.0 (0)
 -->
<!-- Title: Cpl/MApp/MAppApi.h Pages: 1 -->
<svg width="416pt" height="148pt"
 viewBox="0.00 0.00 416.00 148.00" xmlns="http://www.w3.org/2000/svg" xmlns:xlink="http://www.w3.org/1999/xlink">
<g id="graph0" class="graph" transform="scale(1 1) rotate(0) translate(4 144)">
<title>Cpl/MApp/MAppApi.h</title>
<!-- Node1 -->
<g id="Node000001" class="node">
<title>Node1</title>
<g id="a_Node000001"><a xlink:title=" ">
<polygon fill="#999999" stroke="#666666" points="262.5,-140 143.5,-140 143.5,-121 262.5,-121 262.5,-140"/>
<text text-anchor="middle" x="203" y="-128" font-family="Helvetica,sans-Serif" font-size="10.00">Cpl/MApp/MAppApi.h</text>
</a>
</g>
</g>
<!-- Node2 -->
<g id="Node000002" class="node">
<title>Node2</title>
<g id="a_Node000002"><a xlink:href="_m_app___8h.html" target="_top" xlink:title=" ">
<polygon fill="white" stroke="#666666" points="118,-85 10,-85 10,-66 118,-66 118,-85"/>
<text text-anchor="middle" x="64" y="-73" font-family="Helvetica,sans-Serif" font-size="10.00">Cpl/MApp/MApp_.h</text>
</a>
</g>
</g>
<!-- Node1&#45;&gt;Node2 -->
<g id="edge1_Node000001_Node000002" class="edge">
<title>Node1&#45;&gt;Node2</title>
<g id="a_edge1_Node000001_Node000002"><a xlink:title=" ">
<path fill="none" stroke="#63b8ff" d="M171.32,-117.42C145.53,-107.59 109.76,-93.95 86.74,-85.17"/>
<polygon fill="#63b8ff" stroke="#63b8ff" points="170.08,-120.69 180.67,-120.98 172.57,-114.15 170.08,-120.69"/>
</a>
</g>
</g>
<!-- Node4 -->
<g id="Node000004" class="node">
<title>Node4</title>
<g id="a_Node000004"><a xlink:href="_manager_api_8h.html" target="_top" xlink:title=" ">
<polygon fill="white" stroke="#666666" points="270,-85 136,-85 136,-66 270,-66 270,-85"/>
<text text-anchor="middle" x="203" y="-73" font-family="Helvetica,sans-Serif" font-size="10.00">Cpl/MApp/ManagerApi.h</text>
</a>
</g>
</g>
<!-- Node1&#45;&gt;Node4 -->
<g id="edge3_Node000001_Node000004" class="edge">
<title>Node1&#45;&gt;Node4</title>
<g id="a_edge3_Node000001_Node000004"><a xlink:title=" ">
<path fill="none" stroke="#63b8ff" d="M203,-110.66C203,-101.93 203,-91.99 203,-85.09"/>
<polygon fill="#63b8ff" stroke="#63b8ff" points="199.5,-110.75 203,-120.75 206.5,-110.75 199.5,-110.75"/>
</a>
</g>
</g>
<!-- Node7 -->
<g id="Node000007" class="node">
<title>Node7</title>
<g id="a_Node000007"><a xlink:href="_requests_8h.html" target="_top" xlink:title=" ">
<polygon fill="white" stroke="#666666" points="408,-85 288,-85 288,-66 408,-66 408,-85"/>
<text text-anchor="middle" x="348" y="-73" font-family="Helvetica,sans-Serif" font-size="10.00">Cpl/MApp/Requests.h</text>
</a>
</g>
</g>
<!-- Node1&#45;&gt;Node7 -->
<g id="edge6_Node000001_Node000007" class="edge">
<title>Node1&#45;&gt;Node7</title>
<g id="a_edge6_Node000001_Node000007"><a xlink:title=" ">
<path fill="none" stroke="#63b8ff" d="M235.69,-117.55C262.62,-107.71 300.16,-93.98 324.28,-85.17"/>
<polygon fill="#63b8ff" stroke="#63b8ff" points="234.49,-114.26 226.3,-120.98 236.89,-120.84 234.49,-114.26"/>
</a>
</g>
</g>
<!-- Node3 -->
<g id="Node000003" class="node">
<title>Node3</title>
<g id="a_Node000003"><a xlink:href="_cpl_2_m_app_2_temperature_2_api_8h.html" target="_top" xlink:title=" ">
<polygon fill="white" stroke="#666666" points="128,-30 0,-30 0,0 128,0 128,-30"/>
<text text-anchor="start" x="8" y="-18" font-family="Helvetica,sans-Serif" font-size="10.00">Cpl/MApp/Temperature</text>
<text text-anchor="middle" x="64" y="-7" font-family="Helvetica,sans-Serif" font-size="10.00">/Api.h</text>
</a>
</g>
</g>
<!-- Node2&#45;&gt;Node3 -->
<g id="edge2_Node000002_Node000003" class="edge">
<title>Node2&#45;&gt;Node3</title>
<g id="a_edge2_Node000002_Node000003"><a xlink:title=" ">
<path fill="none" stroke="#63b8ff" d="M64,-55.65C64,-47.36 64,-37.78 64,-30.11"/>
<polygon fill="#63b8ff" stroke="#63b8ff" points="60.5,-55.87 64,-65.87 67.5,-55.87 60.5,-55.87"/>
</a>
</g>
</g>
<!-- Node5 -->
<g id="Node000005" class="node">
<title>Node5</title>
<g id="a_Node000005"><a xlink:href="_cpl_2_m_app_2_cmd_8h.html" target="_top" xlink:title=" ">
<polygon fill="white" stroke="#666666" points="252,-24.5 154,-24.5 154,-5.5 252,-5.5 252,-24.5"/>
<text text-anchor="middle" x="203" y="-12.5" font-family="Helvetica,sans-Serif" font-size="10.00">Cpl/MApp/Cmd.h</text>
</a>
</g>
</g>
<!-- Node4&#45;&gt;Node5 -->
<g id="edge4_Node000004_Node000005" class="edge">
<title>Node4&#45;&gt;Node5</title>
<g id="a_edge4_Node000004_Node000005"><a xlink:title=" ">
<path fill="none" stroke="#63b8ff" d="M203,-55.66C203,-45.24 203,-32.8 203,-24.67"/>
<polygon fill="#63b8ff" stroke="#63b8ff" points="199.5,-55.87 203,-65.87 206.5,-55.87 199.5,-55.87"/>
</a>
</g>
</g>
<!-- Node6 -->
<g id="Node000006" class="node">
<title>Node6</title>
<g id="a_Node000006"><a xlink:href="_manager_8h.html" target="_top" xlink:title=" ">
<polygon fill="white" stroke="#666666" points="396.5,-24.5 279.5,-24.5 279.5,-5.5 396.5,-5.5 396.5,-24.5"/>
<text text-anchor="middle" x="338" y="-12.5" font-family="Helvetica,sans-Serif" font-size="10.00">Cpl/MApp/Manager.h</text>
</a>
</g>
</g>
<!-- Node4&#45;&gt;Node6 -->
<g id="edge5_Node000004_Node000006" class="edge">
<title>Node4&#45;&gt;Node6</title>
<g id="a_edge5_Node000004_Node000006"><a xlink:title=" ">
<path fill="none" stroke="#63b8ff" d="M232,-61.93C258.07,-50.64 295.64,-34.36 318.35,-24.52"/>
<polygon fill="#63b8ff" stroke="#63b8ff" points="230.41,-58.81 222.63,-65.99 233.2,-65.23 230.41,-58.81"/>
</a>
</g>
</g>
<!-- Node7&#45;&gt;Node6 -->
<g id="edge7_Node000007_Node000006" class="edge">
<title>Node7&#45;&gt;Node6</title>
<g id="a_edge7_Node000007_Node000006"><a xlink:title=" ">
<path fill="none" stroke="#63b8ff" d="M344.84,-55.99C343.04,-45.51 340.89,-32.89 339.48,-24.67"/>
<polygon fill="#63b8ff" stroke="#63b8ff" points="341.39,-56.6 346.52,-65.87 348.29,-55.42 341.39,-56.6"/>
</a>
</g>
</g>
</g>
</svg>
