<?xml version="1.0" encoding="UTF-8" standalone="no"?>
<!DOCTYPE svg PUBLIC "-//W3C//DTD SVG 1.1//EN"
 "http://www.w3.org/Graphics/SVG/1.1/DTD/svg11.dtd">
<!-- Generated by graphviz version 2.43.0 (0)
 -->
<!-- Title: Cpl/MApp/ManagerApi.h Pages: 1 -->
<svg width="461pt" height="247pt"
 viewBox="0.00 0.00 461.02 247.00" xmlns="http://www.w3.org/2000/svg" xmlns:xlink="http://www.w3.org/1999/xlink">
<g id="graph0" class="graph" transform="scale(1 1) rotate(0) translate(4 243)">
<title>Cpl/MApp/ManagerApi.h</title>
<!-- Node1 -->
<g id="Node000001" class="node">
<title>Node1</title>
<g id="a_Node000001"><a xlink:title=" ">
<polygon fill="#999999" stroke="#666666" points="226.02,-239 92.02,-239 92.02,-220 226.02,-220 226.02,-239"/>
<text text-anchor="middle" x="159.02" y="-227" font-family="Helvetica,sans-Serif" font-size="10.00">Cpl/MApp/ManagerApi.h</text>
</a>
</g>
</g>
<!-- Node2 -->
<g id="Node000002" class="node">
<title>Node2</title>
<g id="a_Node000002"><a xlink:href="_m_app_api_8h.html" target="_top" xlink:title=" ">
<polygon fill="white" stroke="#666666" points="133.52,-184 14.52,-184 14.52,-165 133.52,-165 133.52,-184"/>
<text text-anchor="middle" x="74.02" y="-172" font-family="Helvetica,sans-Serif" font-size="10.00">Cpl/MApp/MAppApi.h</text>
</a>
</g>
</g>
<!-- Node1&#45;&gt;Node2 -->
<g id="edge1_Node000001_Node000002" class="edge">
<title>Node1&#45;&gt;Node2</title>
<g id="a_edge1_Node000001_Node000002"><a xlink:title=" ">
<path fill="none" stroke="#63b8ff" d="M145.36,-219.98C132.18,-211.77 111.99,-199.18 96.45,-189.49"/>
<polygon fill="#63b8ff" stroke="#63b8ff" points="98.26,-186.49 87.92,-184.17 94.56,-192.43 98.26,-186.49"/>
</a>
</g>
</g>
<!-- Node5 -->
<g id="Node000005" class="node">
<title>Node5</title>
<g id="a_Node000005"><a xlink:href="_text_2_string_8h.html" target="_top" xlink:title=" ">
<polygon fill="white" stroke="#666666" points="293.02,-184 197.02,-184 197.02,-165 293.02,-165 293.02,-184"/>
<text text-anchor="middle" x="245.02" y="-172" font-family="Helvetica,sans-Serif" font-size="10.00">Cpl/Text/String.h</text>
</a>
</g>
</g>
<!-- Node1&#45;&gt;Node5 -->
<g id="edge4_Node000001_Node000005" class="edge">
<title>Node1&#45;&gt;Node5</title>
<g id="a_edge4_Node000001_Node000005"><a xlink:title=" ">
<path fill="none" stroke="#63b8ff" d="M172.83,-219.98C186.17,-211.77 206.6,-199.18 222.32,-189.49"/>
<polygon fill="#63b8ff" stroke="#63b8ff" points="224.27,-192.4 230.95,-184.17 220.6,-186.44 224.27,-192.4"/>
</a>
</g>
</g>
<!-- Node3 -->
<g id="Node000003" class="node">
<title>Node3</title>
<g id="a_Node000003"><a xlink:title=" ">
<polygon fill="#e0e0e0" stroke="#999999" points="101.02,-19 9.02,-19 9.02,0 101.02,0 101.02,-19"/>
<text text-anchor="middle" x="55.02" y="-7" font-family="Helvetica,sans-Serif" font-size="10.00">colony_config.h</text>
</a>
</g>
</g>
<!-- Node2&#45;&gt;Node3 -->
<g id="edge2_Node000002_Node000003" class="edge">
<title>Node2&#45;&gt;Node3</title>
<g id="a_edge2_Node000002_Node000003"><a xlink:title=" ">
<path fill="none" stroke="#63b8ff" d="M50.23,-164.92C34.59,-157.89 15.34,-146.25 6.02,-129 -12.94,-93.94 18.58,-49.97 39.25,-26.69"/>
<polygon fill="#63b8ff" stroke="#63b8ff" points="42.04,-28.83 46.26,-19.11 36.9,-24.08 42.04,-28.83"/>
</a>
</g>
</g>
<!-- Node4 -->
<g id="Node000004" class="node">
<title>Node4</title>
<g id="a_Node000004"><a xlink:href="_item_8h.html" target="_top" xlink:title=" ">
<polygon fill="white" stroke="#666666" points="132.52,-129 15.52,-129 15.52,-110 132.52,-110 132.52,-129"/>
<text text-anchor="middle" x="74.02" y="-117" font-family="Helvetica,sans-Serif" font-size="10.00">Cpl/Container/Item.h</text>
</a>
</g>
</g>
<!-- Node2&#45;&gt;Node4 -->
<g id="edge3_Node000002_Node000004" class="edge">
<title>Node2&#45;&gt;Node4</title>
<g id="a_edge3_Node000002_Node000004"><a xlink:title=" ">
<path fill="none" stroke="#63b8ff" d="M74.02,-164.75C74.02,-157.8 74.02,-147.85 74.02,-139.13"/>
<polygon fill="#63b8ff" stroke="#63b8ff" points="77.52,-139.09 74.02,-129.09 70.52,-139.09 77.52,-139.09"/>
</a>
</g>
</g>
<!-- Node6 -->
<g id="Node000006" class="node">
<title>Node6</title>
<g id="a_Node000006"><a xlink:title=" ">
<polygon fill="#e0e0e0" stroke="#999999" points="130.52,-74 45.52,-74 45.52,-55 130.52,-55 130.52,-74"/>
<text text-anchor="middle" x="88.02" y="-62" font-family="Helvetica,sans-Serif" font-size="10.00">colony_map.h</text>
</a>
</g>
</g>
<!-- Node5&#45;&gt;Node6 -->
<g id="edge5_Node000005_Node000006" class="edge">
<title>Node5&#45;&gt;Node6</title>
<g id="a_edge5_Node000005_Node000006"><a xlink:title=" ">
<path fill="none" stroke="#63b8ff" d="M232.43,-164.84C205.56,-146.36 142.33,-102.86 109.16,-80.05"/>
<polygon fill="#63b8ff" stroke="#63b8ff" points="110.88,-76.98 100.66,-74.2 106.91,-82.75 110.88,-76.98"/>
</a>
</g>
</g>
<!-- Node7 -->
<g id="Node000007" class="node">
<title>Node7</title>
<g id="a_Node000007"><a xlink:href="_key_8h.html" target="_top" xlink:title=" ">
<polygon fill="white" stroke="#666666" points="300.52,-129 189.52,-129 189.52,-110 300.52,-110 300.52,-129"/>
<text text-anchor="middle" x="245.02" y="-117" font-family="Helvetica,sans-Serif" font-size="10.00">Cpl/Container/Key.h</text>
</a>
</g>
</g>
<!-- Node5&#45;&gt;Node7 -->
<g id="edge6_Node000005_Node000007" class="edge">
<title>Node5&#45;&gt;Node7</title>
<g id="a_edge6_Node000005_Node000007"><a xlink:title=" ">
<path fill="none" stroke="#63b8ff" d="M245.02,-164.75C245.02,-157.8 245.02,-147.85 245.02,-139.13"/>
<polygon fill="#63b8ff" stroke="#63b8ff" points="248.52,-139.09 245.02,-129.09 241.52,-139.09 248.52,-139.09"/>
</a>
</g>
</g>
<!-- Node12 -->
<g id="Node000012" class="node">
<title>Node12</title>
<g id="a_Node000012"><a xlink:title=" ">
<polygon fill="#e0e0e0" stroke="#999999" points="375.02,-129 319.02,-129 319.02,-110 375.02,-110 375.02,-129"/>
<text text-anchor="middle" x="347.02" y="-117" font-family="Helvetica,sans-Serif" font-size="10.00">stdarg.h</text>
</a>
</g>
</g>
<!-- Node5&#45;&gt;Node12 -->
<g id="edge13_Node000005_Node000012" class="edge">
<title>Node5&#45;&gt;Node12</title>
<g id="a_edge13_Node000005_Node000012"><a xlink:title=" ">
<path fill="none" stroke="#63b8ff" d="M261.41,-164.98C277.59,-156.57 302.59,-143.59 321.4,-133.81"/>
<polygon fill="#63b8ff" stroke="#63b8ff" points="323.07,-136.89 330.33,-129.17 319.84,-130.68 323.07,-136.89"/>
</a>
</g>
</g>
<!-- Node13 -->
<g id="Node000013" class="node">
<title>Node13</title>
<g id="a_Node000013"><a xlink:title=" ">
<polygon fill="#e0e0e0" stroke="#999999" points="453.02,-129 393.02,-129 393.02,-110 453.02,-110 453.02,-129"/>
<text text-anchor="middle" x="423.02" y="-117" font-family="Helvetica,sans-Serif" font-size="10.00">iostream</text>
</a>
</g>
</g>
<!-- Node5&#45;&gt;Node13 -->
<g id="edge14_Node000005_Node000013" class="edge">
<title>Node5&#45;&gt;Node13</title>
<g id="a_edge14_Node000005_Node000013"><a xlink:title=" ">
<path fill="none" stroke="#63b8ff" d="M273.62,-164.98C303.63,-156.05 351,-141.94 384.33,-132.02"/>
<polygon fill="#63b8ff" stroke="#63b8ff" points="385.61,-135.29 394.19,-129.08 383.61,-128.58 385.61,-135.29"/>
</a>
</g>
</g>
<!-- Node7&#45;&gt;Node6 -->
<g id="edge12_Node000007_Node000006" class="edge">
<title>Node7&#45;&gt;Node6</title>
<g id="a_edge12_Node000007_Node000006"><a xlink:title=" ">
<path fill="none" stroke="#63b8ff" d="M219.79,-109.98C193.66,-101.16 152.62,-87.31 123.28,-77.41"/>
<polygon fill="#63b8ff" stroke="#63b8ff" points="124.03,-73.96 113.44,-74.08 121.79,-80.6 124.03,-73.96"/>
</a>
</g>
</g>
<!-- Node8 -->
<g id="Node000008" class="node">
<title>Node8</title>
<g id="a_Node000008"><a xlink:href="_fatal_error_8h.html" target="_top" xlink:title=" ">
<polygon fill="white" stroke="#666666" points="279.02,-74 149.02,-74 149.02,-55 279.02,-55 279.02,-74"/>
<text text-anchor="middle" x="214.02" y="-62" font-family="Helvetica,sans-Serif" font-size="10.00">Cpl/System/FatalError.h</text>
</a>
</g>
</g>
<!-- Node7&#45;&gt;Node8 -->
<g id="edge7_Node000007_Node000008" class="edge">
<title>Node7&#45;&gt;Node8</title>
<g id="a_edge7_Node000007_Node000008"><a xlink:title=" ">
<path fill="none" stroke="#63b8ff" d="M239.9,-109.75C235.65,-102.49 229.49,-91.95 224.24,-82.98"/>
<polygon fill="#63b8ff" stroke="#63b8ff" points="227.11,-80.95 219.04,-74.09 221.07,-84.49 227.11,-80.95"/>
</a>
</g>
</g>
<!-- Node10 -->
<g id="Node000010" class="node">
<title>Node10</title>
<g id="a_Node000010"><a xlink:title=" ">
<polygon fill="#e0e0e0" stroke="#999999" points="350.52,-74 297.52,-74 297.52,-55 350.52,-55 350.52,-74"/>
<text text-anchor="middle" x="324.02" y="-62" font-family="Helvetica,sans-Serif" font-size="10.00">stdint.h</text>
</a>
</g>
</g>
<!-- Node7&#45;&gt;Node10 -->
<g id="edge10_Node000007_Node000010" class="edge">
<title>Node7&#45;&gt;Node10</title>
<g id="a_edge10_Node000007_Node000010"><a xlink:title=" ">
<path fill="none" stroke="#63b8ff" d="M257.71,-109.98C269.85,-101.84 288.37,-89.41 302.76,-79.76"/>
<polygon fill="#63b8ff" stroke="#63b8ff" points="304.74,-82.65 311.09,-74.17 300.84,-76.84 304.74,-82.65"/>
</a>
</g>
</g>
<!-- Node11 -->
<g id="Node000011" class="node">
<title>Node11</title>
<g id="a_Node000011"><a xlink:title=" ">
<polygon fill="#e0e0e0" stroke="#999999" points="421.52,-74 368.52,-74 368.52,-55 421.52,-55 421.52,-74"/>
<text text-anchor="middle" x="395.02" y="-62" font-family="Helvetica,sans-Serif" font-size="10.00">string.h</text>
</a>
</g>
</g>
<!-- Node7&#45;&gt;Node11 -->
<g id="edge11_Node000007_Node000011" class="edge">
<title>Node7&#45;&gt;Node11</title>
<g id="a_edge11_Node000007_Node000011"><a xlink:title=" ">
<path fill="none" stroke="#63b8ff" d="M269.12,-109.98C293.9,-101.23 332.72,-87.51 360.7,-77.62"/>
<polygon fill="#63b8ff" stroke="#63b8ff" points="362.22,-80.8 370.48,-74.17 359.88,-74.2 362.22,-80.8"/>
</a>
</g>
</g>
<!-- Node8&#45;&gt;Node3 -->
<g id="edge9_Node000008_Node000003" class="edge">
<title>Node8&#45;&gt;Node3</title>
<g id="a_edge9_Node000008_Node000003"><a xlink:title=" ">
<path fill="none" stroke="#63b8ff" d="M188.47,-54.98C161.89,-46.13 120.08,-32.19 90.34,-22.28"/>
<polygon fill="#63b8ff" stroke="#63b8ff" points="91.36,-18.92 80.76,-19.08 89.14,-25.56 91.36,-18.92"/>
</a>
</g>
</g>
<!-- Node9 -->
<g id="Node000009" class="node">
<title>Node9</title>
<g id="a_Node000009"><a xlink:title=" ">
<polygon fill="#e0e0e0" stroke="#999999" points="242.02,-19 186.02,-19 186.02,0 242.02,0 242.02,-19"/>
<text text-anchor="middle" x="214.02" y="-7" font-family="Helvetica,sans-Serif" font-size="10.00">stddef.h</text>
</a>
</g>
</g>
<!-- Node8&#45;&gt;Node9 -->
<g id="edge8_Node000008_Node000009" class="edge">
<title>Node8&#45;&gt;Node9</title>
<g id="a_edge8_Node000008_Node000009"><a xlink:title=" ">
<path fill="none" stroke="#63b8ff" d="M214.02,-54.75C214.02,-47.8 214.02,-37.85 214.02,-29.13"/>
<polygon fill="#63b8ff" stroke="#63b8ff" points="217.52,-29.09 214.02,-19.09 210.52,-29.09 217.52,-29.09"/>
</a>
</g>
</g>
</g>
</svg>
