<?xml version="1.0" encoding="UTF-8" standalone="no"?>
<!DOCTYPE svg PUBLIC "-//W3C//DTD SVG 1.1//EN"
 "http://www.w3.org/Graphics/SVG/1.1/DTD/svg11.dtd">
<!-- Generated by graphviz version 2.43.0 (0)
 -->
<!-- Title: Cpl/MApp/ManagerApi.h Pages: 1 -->
<svg width="242pt" height="82pt"
 viewBox="0.00 0.00 241.50 82.00" xmlns="http://www.w3.org/2000/svg" xmlns:xlink="http://www.w3.org/1999/xlink">
<g id="graph0" class="graph" transform="scale(1 1) rotate(0) translate(4 78)">
<title>Cpl/MApp/ManagerApi.h</title>
<!-- Node1 -->
<g id="Node000001" class="node">
<title>Node1</title>
<g id="a_Node000001"><a xlink:title=" ">
<polygon fill="#999999" stroke="#666666" points="179,-74 45,-74 45,-55 179,-55 179,-74"/>
<text text-anchor="middle" x="112" y="-62" font-family="Helvetica,sans-Serif" font-size="10.00">Cpl/MApp/ManagerApi.h</text>
</a>
</g>
</g>
<!-- Node2 -->
<g id="Node000002" class="node">
<title>Node2</title>
<g id="a_Node000002"><a xlink:href="_cpl_2_m_app_2_cmd_8h.html" target="_top" xlink:title=" ">
<polygon fill="white" stroke="#666666" points="98,-19 0,-19 0,0 98,0 98,-19"/>
<text text-anchor="middle" x="49" y="-7" font-family="Helvetica,sans-Serif" font-size="10.00">Cpl/MApp/Cmd.h</text>
</a>
</g>
</g>
<!-- Node1&#45;&gt;Node2 -->
<g id="edge1_Node000001_Node000002" class="edge">
<title>Node1&#45;&gt;Node2</title>
<g id="a_edge1_Node000001_Node000002"><a xlink:title=" ">
<path fill="none" stroke="#63b8ff" d="M93.96,-48.32C82.73,-38.87 68.68,-27.06 59.31,-19.17"/>
<polygon fill="#63b8ff" stroke="#63b8ff" points="91.97,-51.23 101.88,-54.98 96.48,-45.87 91.97,-51.23"/>
</a>
</g>
</g>
<!-- Node3 -->
<g id="Node000003" class="node">
<title>Node3</title>
<g id="a_Node000003"><a xlink:href="_manager_8h.html" target="_top" xlink:title=" ">
<polygon fill="white" stroke="#666666" points="233.5,-19 116.5,-19 116.5,0 233.5,0 233.5,-19"/>
<text text-anchor="middle" x="175" y="-7" font-family="Helvetica,sans-Serif" font-size="10.00">Cpl/MApp/Manager.h</text>
</a>
</g>
</g>
<!-- Node1&#45;&gt;Node3 -->
<g id="edge2_Node000001_Node000003" class="edge">
<title>Node1&#45;&gt;Node3</title>
<g id="a_edge2_Node000001_Node000003"><a xlink:title=" ">
<path fill="none" stroke="#63b8ff" d="M130.04,-48.32C141.27,-38.87 155.32,-27.06 164.69,-19.17"/>
<polygon fill="#63b8ff" stroke="#63b8ff" points="127.52,-45.87 122.12,-54.98 132.03,-51.23 127.52,-45.87"/>
</a>
</g>
</g>
</g>
</svg>
