<?xml version="1.0" encoding="UTF-8" standalone="no"?>
<!DOCTYPE svg PUBLIC "-//W3C//DTD SVG 1.1//EN"
 "http://www.w3.org/Graphics/SVG/1.1/DTD/svg11.dtd">
<!-- Generated by graphviz version 2.43.0 (0)
 -->
<!-- Title: Cpl/Container/MapItem.h Pages: 1 -->
<svg width="779pt" height="280pt"
 viewBox="0.00 0.00 779.00 280.00" xmlns="http://www.w3.org/2000/svg" xmlns:xlink="http://www.w3.org/1999/xlink">
<g id="graph0" class="graph" transform="scale(1 1) rotate(0) translate(4 276)">
<title>Cpl/Container/MapItem.h</title>
<!-- Node1 -->
<g id="Node000001" class="node">
<title>Node1</title>
<g id="a_Node000001"><a xlink:title=" ">
<polygon fill="#999999" stroke="#666666" points="346,-272 208,-272 208,-253 346,-253 346,-272"/>
<text text-anchor="middle" x="277" y="-260" font-family="Helvetica,sans-Serif" font-size="10.00">Cpl/Container/MapItem.h</text>
</a>
</g>
</g>
<!-- Node2 -->
<g id="Node000002" class="node">
<title>Node2</title>
<g id="a_Node000002"><a xlink:href="_avl_tree___8h.html" target="_top" xlink:title=" ">
<polygon fill="white" stroke="#666666" points="344.5,-217 209.5,-217 209.5,-198 344.5,-198 344.5,-217"/>
<text text-anchor="middle" x="277" y="-205" font-family="Helvetica,sans-Serif" font-size="10.00">Cpl/Container/AvlTree_.h</text>
</a>
</g>
</g>
<!-- Node1&#45;&gt;Node2 -->
<g id="edge1_Node000001_Node000002" class="edge">
<title>Node1&#45;&gt;Node2</title>
<g id="a_edge1_Node000001_Node000002"><a xlink:title=" ">
<path fill="none" stroke="#63b8ff" d="M277,-242.66C277,-233.93 277,-223.99 277,-217.09"/>
<polygon fill="#63b8ff" stroke="#63b8ff" points="273.5,-242.75 277,-252.75 280.5,-242.75 273.5,-242.75"/>
</a>
</g>
</g>
<!-- Node9 -->
<g id="Node000009" class="node">
<title>Node9</title>
<g id="a_Node000009"><a xlink:href="_string_item_8h.html" target="_top" xlink:title=" ">
<polygon fill="white" stroke="#666666" points="553.5,-217 434.5,-217 434.5,-198 553.5,-198 553.5,-217"/>
<text text-anchor="middle" x="494" y="-205" font-family="Helvetica,sans-Serif" font-size="10.00">Cpl/Text/StringItem.h</text>
</a>
</g>
</g>
<!-- Node1&#45;&gt;Node9 -->
<g id="edge8_Node000001_Node000009" class="edge">
<title>Node1&#45;&gt;Node9</title>
<g id="a_edge8_Node000001_Node000009"><a xlink:title=" ">
<path fill="none" stroke="#63b8ff" d="M321.77,-250.56C362.42,-240.64 421.53,-226.2 458.86,-217.08"/>
<polygon fill="#63b8ff" stroke="#63b8ff" points="320.75,-247.21 311.86,-252.98 322.41,-254.01 320.75,-247.21"/>
</a>
</g>
</g>
<!-- Node13 -->
<g id="Node000013" class="node">
<title>Node13</title>
<g id="a_Node000013"><a xlink:href="_rx_frame_handler_api_8h.html" target="_top" xlink:title=" ">
<polygon fill="white" stroke="#666666" points="200.5,-162 39.5,-162 39.5,-132 200.5,-132 200.5,-162"/>
<text text-anchor="start" x="47.5" y="-150" font-family="Helvetica,sans-Serif" font-size="10.00">Driver/TPipe/RxFrameHandler</text>
<text text-anchor="middle" x="120" y="-139" font-family="Helvetica,sans-Serif" font-size="10.00">Api.h</text>
</a>
</g>
</g>
<!-- Node1&#45;&gt;Node13 -->
<g id="edge12_Node000001_Node000013" class="edge">
<title>Node1&#45;&gt;Node13</title>
<g id="a_edge12_Node000001_Node000013"><a xlink:title=" ">
<path fill="none" stroke="#63b8ff" d="M251.3,-248.22C235.97,-239.92 216.36,-228.63 200,-217 175.78,-199.79 150.18,-176.73 134.64,-162.12"/>
<polygon fill="#63b8ff" stroke="#63b8ff" points="249.75,-251.37 260.23,-252.98 253.05,-245.19 249.75,-251.37"/>
</a>
</g>
</g>
<!-- Node3 -->
<g id="Node000003" class="node">
<title>Node3</title>
<g id="a_Node000003"><a xlink:href="_map_8h.html" target="_top" xlink:title=" ">
<polygon fill="white" stroke="#666666" points="335,-156.5 219,-156.5 219,-137.5 335,-137.5 335,-156.5"/>
<text text-anchor="middle" x="277" y="-144.5" font-family="Helvetica,sans-Serif" font-size="10.00">Cpl/Container/Map.h</text>
</a>
</g>
</g>
<!-- Node2&#45;&gt;Node3 -->
<g id="edge2_Node000002_Node000003" class="edge">
<title>Node2&#45;&gt;Node3</title>
<g id="a_edge2_Node000002_Node000003"><a xlink:title=" ">
<path fill="none" stroke="#63b8ff" d="M277,-187.66C277,-177.24 277,-164.8 277,-156.67"/>
<polygon fill="#63b8ff" stroke="#63b8ff" points="273.5,-187.87 277,-197.87 280.5,-187.87 273.5,-187.87"/>
</a>
</g>
</g>
<!-- Node4 -->
<g id="Node000004" class="node">
<title>Node4</title>
<g id="a_Node000004"><a xlink:href="_t_pipe_2_hal_8h.html" target="_top" xlink:title="This file defines the concrete implementation for the Button HAL that gets its raw inputs via a Drive...">
<polygon fill="white" stroke="#666666" points="112,-96 0,-96 0,-66 112,-66 112,-96"/>
<text text-anchor="start" x="8" y="-84" font-family="Helvetica,sans-Serif" font-size="10.00">Driver/Button/TPipe</text>
<text text-anchor="middle" x="56" y="-73" font-family="Helvetica,sans-Serif" font-size="10.00">/Hal.h</text>
</a>
</g>
</g>
<!-- Node3&#45;&gt;Node4 -->
<g id="edge3_Node000003_Node000004" class="edge">
<title>Node3&#45;&gt;Node4</title>
<g id="a_edge3_Node000003_Node000004"><a xlink:title=" ">
<path fill="none" stroke="#63b8ff" d="M237.23,-134.48C200.09,-123.73 144.54,-107.64 104.74,-96.12"/>
<polygon fill="#63b8ff" stroke="#63b8ff" points="236.62,-137.95 247.19,-137.37 238.56,-131.23 236.62,-137.95"/>
</a>
</g>
</g>
<!-- Node5 -->
<g id="Node000005" class="node">
<title>Node5</title>
<g id="a_Node000005"><a xlink:href="_pipe_8h.html" target="_top" xlink:title=" ">
<polygon fill="white" stroke="#666666" points="240,-90.5 130,-90.5 130,-71.5 240,-71.5 240,-90.5"/>
<text text-anchor="middle" x="185" y="-78.5" font-family="Helvetica,sans-Serif" font-size="10.00">Driver/TPipe/Pipe.h</text>
</a>
</g>
</g>
<!-- Node3&#45;&gt;Node5 -->
<g id="edge4_Node000003_Node000005" class="edge">
<title>Node3&#45;&gt;Node5</title>
<g id="a_edge4_Node000003_Node000005"><a xlink:title=" ">
<path fill="none" stroke="#63b8ff" d="M255.92,-131.33C237.87,-118.78 212.5,-101.13 197.5,-90.7"/>
<polygon fill="#63b8ff" stroke="#63b8ff" points="254.38,-134.53 264.59,-137.37 258.38,-128.78 254.38,-134.53"/>
</a>
</g>
</g>
<!-- Node8 -->
<g id="Node000008" class="node">
<title>Node8</title>
<g id="a_Node000008"><a xlink:href="_rx_frame_handler_8h.html" target="_top" xlink:title=" ">
<polygon fill="white" stroke="#666666" points="428,-90.5 258,-90.5 258,-71.5 428,-71.5 428,-90.5"/>
<text text-anchor="middle" x="343" y="-78.5" font-family="Helvetica,sans-Serif" font-size="10.00">Driver/TPipe/RxFrameHandler.h</text>
</a>
</g>
</g>
<!-- Node3&#45;&gt;Node8 -->
<g id="edge7_Node000003_Node000008" class="edge">
<title>Node3&#45;&gt;Node8</title>
<g id="a_edge7_Node000003_Node000008"><a xlink:title=" ">
<path fill="none" stroke="#63b8ff" d="M293.16,-130.33C305.94,-117.94 323.32,-101.09 333.82,-90.91"/>
<polygon fill="#63b8ff" stroke="#63b8ff" points="290.64,-127.89 285.9,-137.37 295.52,-132.92 290.64,-127.89"/>
</a>
</g>
</g>
<!-- Node6 -->
<g id="Node000006" class="node">
<title>Node6</title>
<g id="a_Node000006"><a xlink:href="_driver_2_pico_display_2_t_pipe_2_api_8h.html" target="_top" xlink:title="This file defines the interface for initializing the concrete implementation of the PicoDisplay drive...">
<polygon fill="white" stroke="#666666" points="173.5,-30 66.5,-30 66.5,0 173.5,0 173.5,-30"/>
<text text-anchor="start" x="74.5" y="-18" font-family="Helvetica,sans-Serif" font-size="10.00">Driver/PicoDisplay</text>
<text text-anchor="middle" x="120" y="-7" font-family="Helvetica,sans-Serif" font-size="10.00">/TPipe/Api.h</text>
</a>
</g>
</g>
<!-- Node5&#45;&gt;Node6 -->
<g id="edge5_Node000005_Node000006" class="edge">
<title>Node5&#45;&gt;Node6</title>
<g id="a_edge5_Node000005_Node000006"><a xlink:title=" ">
<path fill="none" stroke="#63b8ff" d="M168.91,-64.16C158.4,-53.81 144.78,-40.4 134.58,-30.36"/>
<polygon fill="#63b8ff" stroke="#63b8ff" points="166.65,-66.85 176.23,-71.37 171.56,-61.86 166.65,-66.85"/>
</a>
</g>
</g>
<!-- Node7 -->
<g id="Node000007" class="node">
<title>Node7</title>
<g id="a_Node000007"><a xlink:href="_driver_2_t_pipe_2_maker_8h.html" target="_top" xlink:title=" ">
<polygon fill="white" stroke="#666666" points="310,-24.5 192,-24.5 192,-5.5 310,-5.5 310,-24.5"/>
<text text-anchor="middle" x="251" y="-12.5" font-family="Helvetica,sans-Serif" font-size="10.00">Driver/TPipe/Maker.h</text>
</a>
</g>
</g>
<!-- Node5&#45;&gt;Node7 -->
<g id="edge6_Node000005_Node000007" class="edge">
<title>Node5&#45;&gt;Node7</title>
<g id="a_edge6_Node000005_Node000007"><a xlink:title=" ">
<path fill="none" stroke="#63b8ff" d="M201.16,-64.33C213.94,-51.94 231.32,-35.09 241.82,-24.91"/>
<polygon fill="#63b8ff" stroke="#63b8ff" points="198.64,-61.89 193.9,-71.37 203.52,-66.92 198.64,-61.89"/>
</a>
</g>
</g>
<!-- Node10 -->
<g id="Node000010" class="node">
<title>Node10</title>
<g id="a_Node000010"><a xlink:href="_d_f_string_item_8h.html" target="_top" xlink:title=" ">
<polygon fill="white" stroke="#666666" points="484.5,-156.5 353.5,-156.5 353.5,-137.5 484.5,-137.5 484.5,-156.5"/>
<text text-anchor="middle" x="419" y="-144.5" font-family="Helvetica,sans-Serif" font-size="10.00">Cpl/Text/DFStringItem.h</text>
</a>
</g>
</g>
<!-- Node9&#45;&gt;Node10 -->
<g id="edge9_Node000009_Node000010" class="edge">
<title>Node9&#45;&gt;Node10</title>
<g id="a_edge9_Node000009_Node000010"><a xlink:title=" ">
<path fill="none" stroke="#63b8ff" d="M474.82,-191.54C460.65,-180.49 441.87,-165.84 430.11,-156.67"/>
<polygon fill="#63b8ff" stroke="#63b8ff" points="472.9,-194.48 482.93,-197.87 477.2,-188.96 472.9,-194.48"/>
</a>
</g>
</g>
<!-- Node11 -->
<g id="Node000011" class="node">
<title>Node11</title>
<g id="a_Node000011"><a xlink:href="_d_string_item_8h.html" target="_top" xlink:title=" ">
<polygon fill="white" stroke="#666666" points="629,-156.5 503,-156.5 503,-137.5 629,-137.5 629,-156.5"/>
<text text-anchor="middle" x="566" y="-144.5" font-family="Helvetica,sans-Serif" font-size="10.00">Cpl/Text/DStringItem.h</text>
</a>
</g>
</g>
<!-- Node9&#45;&gt;Node11 -->
<g id="edge10_Node000009_Node000011" class="edge">
<title>Node9&#45;&gt;Node11</title>
<g id="a_edge10_Node000009_Node000011"><a xlink:title=" ">
<path fill="none" stroke="#63b8ff" d="M512.42,-191.54C526.01,-180.49 544.04,-165.84 555.33,-156.67"/>
<polygon fill="#63b8ff" stroke="#63b8ff" points="510.18,-188.85 504.62,-197.87 514.59,-194.28 510.18,-188.85"/>
</a>
</g>
</g>
<!-- Node12 -->
<g id="Node000012" class="node">
<title>Node12</title>
<g id="a_Node000012"><a xlink:href="_f_string_item_8h.html" target="_top" xlink:title=" ">
<polygon fill="white" stroke="#666666" points="771,-156.5 647,-156.5 647,-137.5 771,-137.5 771,-156.5"/>
<text text-anchor="middle" x="709" y="-144.5" font-family="Helvetica,sans-Serif" font-size="10.00">Cpl/Text/FStringItem.h</text>
</a>
</g>
</g>
<!-- Node9&#45;&gt;Node12 -->
<g id="edge11_Node000009_Node000012" class="edge">
<title>Node9&#45;&gt;Node12</title>
<g id="a_edge11_Node000009_Node000012"><a xlink:title=" ">
<path fill="none" stroke="#63b8ff" d="M535.08,-195.32C576.65,-184.01 640.02,-166.77 677.7,-156.52"/>
<polygon fill="#63b8ff" stroke="#63b8ff" points="533.99,-191.99 525.26,-197.99 535.83,-198.75 533.99,-191.99"/>
</a>
</g>
</g>
<!-- Node13&#45;&gt;Node4 -->
<g id="edge13_Node000013_Node000004" class="edge">
<title>Node13&#45;&gt;Node4</title>
<g id="a_edge13_Node000013_Node000004"><a xlink:title=" ">
<path fill="none" stroke="#63b8ff" d="M98.65,-124.65C89.27,-115.27 78.53,-104.53 70.16,-96.16"/>
<polygon fill="#63b8ff" stroke="#63b8ff" points="96.25,-127.2 105.8,-131.8 101.2,-122.25 96.25,-127.2"/>
</a>
</g>
</g>
<!-- Node13&#45;&gt;Node5 -->
<g id="edge14_Node000013_Node000005" class="edge">
<title>Node13&#45;&gt;Node5</title>
<g id="a_edge14_Node000013_Node000005"><a xlink:title=" ">
<path fill="none" stroke="#63b8ff" d="M141.73,-124.6C153.42,-113.1 167.2,-99.52 176.02,-90.84"/>
<polygon fill="#63b8ff" stroke="#63b8ff" points="139.1,-122.29 134.43,-131.8 144.01,-127.27 139.1,-122.29"/>
</a>
</g>
</g>
<!-- Node13&#45;&gt;Node8 -->
<g id="edge15_Node000013_Node000008" class="edge">
<title>Node13&#45;&gt;Node8</title>
<g id="a_edge15_Node000013_Node000008"><a xlink:title=" ">
<path fill="none" stroke="#63b8ff" d="M178.79,-129.13C222.07,-116.71 279.12,-100.33 313.32,-90.52"/>
<polygon fill="#63b8ff" stroke="#63b8ff" points="177.58,-125.83 168.94,-131.95 179.52,-132.56 177.58,-125.83"/>
</a>
</g>
</g>
</g>
</svg>
