<?xml version="1.0" encoding="UTF-8" standalone="no"?>
<!DOCTYPE svg PUBLIC "-//W3C//DTD SVG 1.1//EN"
 "http://www.w3.org/Graphics/SVG/1.1/DTD/svg11.dtd">
<!-- Generated by graphviz version 2.43.0 (0)
 -->
<!-- Title: Cpl/Io/File/Md5Checksum.h Pages: 1 -->
<svg width="428pt" height="302pt"
 viewBox="0.00 0.00 428.00 302.00" xmlns="http://www.w3.org/2000/svg" xmlns:xlink="http://www.w3.org/1999/xlink">
<g id="graph0" class="graph" transform="scale(1 1) rotate(0) translate(4 298)">
<title>Cpl/Io/File/Md5Checksum.h</title>
<!-- Node1 -->
<g id="Node000001" class="node">
<title>Node1</title>
<g id="a_Node000001"><a xlink:title=" ">
<polygon fill="#999999" stroke="#666666" points="207.5,-294 58.5,-294 58.5,-275 207.5,-275 207.5,-294"/>
<text text-anchor="middle" x="133" y="-282" font-family="Helvetica,sans-Serif" font-size="10.00">Cpl/Io/File/Md5Checksum.h</text>
</a>
</g>
</g>
<!-- Node2 -->
<g id="Node000002" class="node">
<title>Node2</title>
<g id="a_Node000002"><a xlink:title=" ">
<polygon fill="#e0e0e0" stroke="#999999" points="92,-19 0,-19 0,0 92,0 92,-19"/>
<text text-anchor="middle" x="46" y="-7" font-family="Helvetica,sans-Serif" font-size="10.00">colony_config.h</text>
</a>
</g>
</g>
<!-- Node1&#45;&gt;Node2 -->
<g id="edge1_Node000001_Node000002" class="edge">
<title>Node1&#45;&gt;Node2</title>
<g id="a_edge1_Node000001_Node000002"><a xlink:title=" ">
<path fill="none" stroke="#63b8ff" d="M108.5,-274.91C72.36,-260.48 9,-227.74 9,-175.5 9,-175.5 9,-175.5 9,-118.5 9,-85.12 25.02,-48.91 35.98,-28.04"/>
<polygon fill="#63b8ff" stroke="#63b8ff" points="39.13,-29.57 40.86,-19.12 32.99,-26.21 39.13,-29.57"/>
</a>
</g>
</g>
<!-- Node3 -->
<g id="Node000003" class="node">
<title>Node3</title>
<g id="a_Node000003"><a xlink:href="_api_md5_8h.html" target="_top" xlink:title=" ">
<polygon fill="white" stroke="#666666" points="200.5,-239 65.5,-239 65.5,-220 200.5,-220 200.5,-239"/>
<text text-anchor="middle" x="133" y="-227" font-family="Helvetica,sans-Serif" font-size="10.00">Cpl/Checksum/ApiMd5.h</text>
</a>
</g>
</g>
<!-- Node1&#45;&gt;Node3 -->
<g id="edge2_Node000001_Node000003" class="edge">
<title>Node1&#45;&gt;Node3</title>
<g id="a_edge2_Node000001_Node000003"><a xlink:title=" ">
<path fill="none" stroke="#63b8ff" d="M133,-274.75C133,-267.8 133,-257.85 133,-249.13"/>
<polygon fill="#63b8ff" stroke="#63b8ff" points="136.5,-249.09 133,-239.09 129.5,-249.09 136.5,-249.09"/>
</a>
</g>
</g>
<!-- Node5 -->
<g id="Node000005" class="node">
<title>Node5</title>
<g id="a_Node000005"><a xlink:href="_text_2_string_8h.html" target="_top" xlink:title=" ">
<polygon fill="white" stroke="#666666" points="298,-184 202,-184 202,-165 298,-165 298,-184"/>
<text text-anchor="middle" x="250" y="-172" font-family="Helvetica,sans-Serif" font-size="10.00">Cpl/Text/String.h</text>
</a>
</g>
</g>
<!-- Node1&#45;&gt;Node5 -->
<g id="edge15_Node000001_Node000005" class="edge">
<title>Node1&#45;&gt;Node5</title>
<g id="a_edge15_Node000001_Node000005"><a xlink:title=" ">
<path fill="none" stroke="#63b8ff" d="M153.11,-274.93C169.5,-267.24 192.54,-254.75 209,-239 222.75,-225.84 234.08,-207.21 241.32,-193.53"/>
<polygon fill="#63b8ff" stroke="#63b8ff" points="244.64,-194.71 246.03,-184.21 238.39,-191.56 244.64,-194.71"/>
</a>
</g>
</g>
<!-- Node4 -->
<g id="Node000004" class="node">
<title>Node4</title>
<g id="a_Node000004"><a xlink:title=" ">
<polygon fill="#e0e0e0" stroke="#999999" points="90.5,-74 37.5,-74 37.5,-55 90.5,-55 90.5,-74"/>
<text text-anchor="middle" x="64" y="-62" font-family="Helvetica,sans-Serif" font-size="10.00">stdint.h</text>
</a>
</g>
</g>
<!-- Node3&#45;&gt;Node4 -->
<g id="edge3_Node000003_Node000004" class="edge">
<title>Node3&#45;&gt;Node4</title>
<g id="a_edge3_Node000003_Node000004"><a xlink:title=" ">
<path fill="none" stroke="#63b8ff" d="M129.29,-219.74C118.43,-194.09 86.56,-118.78 71.74,-83.78"/>
<polygon fill="#63b8ff" stroke="#63b8ff" points="74.85,-82.15 67.73,-74.31 68.4,-84.88 74.85,-82.15"/>
</a>
</g>
</g>
<!-- Node3&#45;&gt;Node5 -->
<g id="edge4_Node000003_Node000005" class="edge">
<title>Node3&#45;&gt;Node5</title>
<g id="a_edge4_Node000003_Node000005"><a xlink:title=" ">
<path fill="none" stroke="#63b8ff" d="M151.8,-219.98C170.62,-211.46 199.82,-198.23 221.5,-188.41"/>
<polygon fill="#63b8ff" stroke="#63b8ff" points="223.2,-191.48 230.86,-184.17 220.31,-185.11 223.2,-191.48"/>
</a>
</g>
</g>
<!-- Node6 -->
<g id="Node000006" class="node">
<title>Node6</title>
<g id="a_Node000006"><a xlink:title=" ">
<polygon fill="#e0e0e0" stroke="#999999" points="413.5,-74 328.5,-74 328.5,-55 413.5,-55 413.5,-74"/>
<text text-anchor="middle" x="371" y="-62" font-family="Helvetica,sans-Serif" font-size="10.00">colony_map.h</text>
</a>
</g>
</g>
<!-- Node5&#45;&gt;Node6 -->
<g id="edge5_Node000005_Node000006" class="edge">
<title>Node5&#45;&gt;Node6</title>
<g id="a_edge5_Node000005_Node000006"><a xlink:title=" ">
<path fill="none" stroke="#63b8ff" d="M251.68,-164.59C254.62,-151.18 261.9,-125.72 277,-110 291.25,-95.17 311.43,-84.73 329.44,-77.7"/>
<polygon fill="#63b8ff" stroke="#63b8ff" points="330.98,-80.87 339.17,-74.15 328.58,-74.29 330.98,-80.87"/>
</a>
</g>
</g>
<!-- Node7 -->
<g id="Node000007" class="node">
<title>Node7</title>
<g id="a_Node000007"><a xlink:href="_key_8h.html" target="_top" xlink:title=" ">
<polygon fill="white" stroke="#666666" points="229.5,-129 118.5,-129 118.5,-110 229.5,-110 229.5,-129"/>
<text text-anchor="middle" x="174" y="-117" font-family="Helvetica,sans-Serif" font-size="10.00">Cpl/Container/Key.h</text>
</a>
</g>
</g>
<!-- Node5&#45;&gt;Node7 -->
<g id="edge6_Node000005_Node000007" class="edge">
<title>Node5&#45;&gt;Node7</title>
<g id="a_edge6_Node000005_Node000007"><a xlink:title=" ">
<path fill="none" stroke="#63b8ff" d="M237.79,-164.98C226.22,-156.92 208.62,-144.65 194.84,-135.03"/>
<polygon fill="#63b8ff" stroke="#63b8ff" points="196.64,-132.02 186.43,-129.17 192.63,-137.76 196.64,-132.02"/>
</a>
</g>
</g>
<!-- Node11 -->
<g id="Node000011" class="node">
<title>Node11</title>
<g id="a_Node000011"><a xlink:title=" ">
<polygon fill="#e0e0e0" stroke="#999999" points="342,-129 286,-129 286,-110 342,-110 342,-129"/>
<text text-anchor="middle" x="314" y="-117" font-family="Helvetica,sans-Serif" font-size="10.00">stdarg.h</text>
</a>
</g>
</g>
<!-- Node5&#45;&gt;Node11 -->
<g id="edge13_Node000005_Node000011" class="edge">
<title>Node5&#45;&gt;Node11</title>
<g id="a_edge13_Node000005_Node000011"><a xlink:title=" ">
<path fill="none" stroke="#63b8ff" d="M260.28,-164.98C269.84,-157.07 284.28,-145.11 295.78,-135.58"/>
<polygon fill="#63b8ff" stroke="#63b8ff" points="298.06,-138.24 303.53,-129.17 293.6,-132.85 298.06,-138.24"/>
</a>
</g>
</g>
<!-- Node12 -->
<g id="Node000012" class="node">
<title>Node12</title>
<g id="a_Node000012"><a xlink:title=" ">
<polygon fill="#e0e0e0" stroke="#999999" points="420,-129 360,-129 360,-110 420,-110 420,-129"/>
<text text-anchor="middle" x="390" y="-117" font-family="Helvetica,sans-Serif" font-size="10.00">iostream</text>
</a>
</g>
</g>
<!-- Node5&#45;&gt;Node12 -->
<g id="edge14_Node000005_Node000012" class="edge">
<title>Node5&#45;&gt;Node12</title>
<g id="a_edge14_Node000005_Node000012"><a xlink:title=" ">
<path fill="none" stroke="#63b8ff" d="M272.49,-164.98C295.52,-156.27 331.54,-142.63 357.63,-132.75"/>
<polygon fill="#63b8ff" stroke="#63b8ff" points="358.98,-135.98 367.1,-129.17 356.51,-129.44 358.98,-135.98"/>
</a>
</g>
</g>
<!-- Node7&#45;&gt;Node4 -->
<g id="edge10_Node000007_Node000004" class="edge">
<title>Node7&#45;&gt;Node4</title>
<g id="a_edge10_Node000007_Node000004"><a xlink:title=" ">
<path fill="none" stroke="#63b8ff" d="M156.33,-109.98C138.71,-101.5 111.42,-88.35 91.07,-78.54"/>
<polygon fill="#63b8ff" stroke="#63b8ff" points="92.52,-75.36 81.99,-74.17 89.48,-81.66 92.52,-75.36"/>
</a>
</g>
</g>
<!-- Node7&#45;&gt;Node6 -->
<g id="edge12_Node000007_Node000006" class="edge">
<title>Node7&#45;&gt;Node6</title>
<g id="a_edge12_Node000007_Node000006"><a xlink:title=" ">
<path fill="none" stroke="#63b8ff" d="M205.65,-109.98C239.16,-100.97 292.2,-86.7 329.14,-76.76"/>
<polygon fill="#63b8ff" stroke="#63b8ff" points="330.35,-80.06 339.1,-74.08 328.53,-73.3 330.35,-80.06"/>
</a>
</g>
</g>
<!-- Node8 -->
<g id="Node000008" class="node">
<title>Node8</title>
<g id="a_Node000008"><a xlink:href="_fatal_error_8h.html" target="_top" xlink:title=" ">
<polygon fill="white" stroke="#666666" points="239,-74 109,-74 109,-55 239,-55 239,-74"/>
<text text-anchor="middle" x="174" y="-62" font-family="Helvetica,sans-Serif" font-size="10.00">Cpl/System/FatalError.h</text>
</a>
</g>
</g>
<!-- Node7&#45;&gt;Node8 -->
<g id="edge7_Node000007_Node000008" class="edge">
<title>Node7&#45;&gt;Node8</title>
<g id="a_edge7_Node000007_Node000008"><a xlink:title=" ">
<path fill="none" stroke="#63b8ff" d="M174,-109.75C174,-102.8 174,-92.85 174,-84.13"/>
<polygon fill="#63b8ff" stroke="#63b8ff" points="177.5,-84.09 174,-74.09 170.5,-84.09 177.5,-84.09"/>
</a>
</g>
</g>
<!-- Node10 -->
<g id="Node000010" class="node">
<title>Node10</title>
<g id="a_Node000010"><a xlink:title=" ">
<polygon fill="#e0e0e0" stroke="#999999" points="310.5,-74 257.5,-74 257.5,-55 310.5,-55 310.5,-74"/>
<text text-anchor="middle" x="284" y="-62" font-family="Helvetica,sans-Serif" font-size="10.00">string.h</text>
</a>
</g>
</g>
<!-- Node7&#45;&gt;Node10 -->
<g id="edge11_Node000007_Node000010" class="edge">
<title>Node7&#45;&gt;Node10</title>
<g id="a_edge11_Node000007_Node000010"><a xlink:title=" ">
<path fill="none" stroke="#63b8ff" d="M191.67,-109.98C209.29,-101.5 236.58,-88.35 256.93,-78.54"/>
<polygon fill="#63b8ff" stroke="#63b8ff" points="258.52,-81.66 266.01,-74.17 255.48,-75.36 258.52,-81.66"/>
</a>
</g>
</g>
<!-- Node8&#45;&gt;Node2 -->
<g id="edge9_Node000008_Node000002" class="edge">
<title>Node8&#45;&gt;Node2</title>
<g id="a_edge9_Node000008_Node000002"><a xlink:title=" ">
<path fill="none" stroke="#63b8ff" d="M153.43,-54.98C132.57,-46.34 100.03,-32.87 76.23,-23.02"/>
<polygon fill="#63b8ff" stroke="#63b8ff" points="77.52,-19.76 66.94,-19.17 74.84,-26.23 77.52,-19.76"/>
</a>
</g>
</g>
<!-- Node9 -->
<g id="Node000009" class="node">
<title>Node9</title>
<g id="a_Node000009"><a xlink:title=" ">
<polygon fill="#e0e0e0" stroke="#999999" points="202,-19 146,-19 146,0 202,0 202,-19"/>
<text text-anchor="middle" x="174" y="-7" font-family="Helvetica,sans-Serif" font-size="10.00">stddef.h</text>
</a>
</g>
</g>
<!-- Node8&#45;&gt;Node9 -->
<g id="edge8_Node000008_Node000009" class="edge">
<title>Node8&#45;&gt;Node9</title>
<g id="a_edge8_Node000008_Node000009"><a xlink:title=" ">
<path fill="none" stroke="#63b8ff" d="M174,-54.75C174,-47.8 174,-37.85 174,-29.13"/>
<polygon fill="#63b8ff" stroke="#63b8ff" points="177.5,-29.09 174,-19.09 170.5,-29.09 177.5,-29.09"/>
</a>
</g>
</g>
</g>
</svg>
