<?xml version="1.0" encoding="UTF-8" standalone="no"?>
<!DOCTYPE svg PUBLIC "-//W3C//DTD SVG 1.1//EN"
 "http://www.w3.org/Graphics/SVG/1.1/DTD/svg11.dtd">
<!-- Generated by graphviz version 2.43.0 (0)
 -->
<!-- Title: Cpl/Persistent/MirroredChunk.h Pages: 1 -->
<svg width="1410pt" height="412pt"
 viewBox="0.00 0.00 1410.00 412.00" xmlns="http://www.w3.org/2000/svg" xmlns:xlink="http://www.w3.org/1999/xlink">
<g id="graph0" class="graph" transform="scale(1 1) rotate(0) translate(4 408)">
<title>Cpl/Persistent/MirroredChunk.h</title>
<!-- Node1 -->
<g id="Node000001" class="node">
<title>Node1</title>
<g id="a_Node000001"><a xlink:title=" ">
<polygon fill="#999999" stroke="#666666" points="511,-404 343,-404 343,-385 511,-385 511,-404"/>
<text text-anchor="middle" x="427" y="-392" font-family="Helvetica,sans-Serif" font-size="10.00">Cpl/Persistent/MirroredChunk.h</text>
</a>
</g>
</g>
<!-- Node2 -->
<g id="Node000002" class="node">
<title>Node2</title>
<g id="a_Node000002"><a xlink:href="_chunk_8h.html" target="_top" xlink:title=" ">
<polygon fill="white" stroke="#666666" points="490.5,-349 363.5,-349 363.5,-330 490.5,-330 490.5,-349"/>
<text text-anchor="middle" x="427" y="-337" font-family="Helvetica,sans-Serif" font-size="10.00">Cpl/Persistent/Chunk.h</text>
</a>
</g>
</g>
<!-- Node1&#45;&gt;Node2 -->
<g id="edge1_Node000001_Node000002" class="edge">
<title>Node1&#45;&gt;Node2</title>
<g id="a_edge1_Node000001_Node000002"><a xlink:title=" ">
<path fill="none" stroke="#63b8ff" d="M427,-384.75C427,-377.8 427,-367.85 427,-359.13"/>
<polygon fill="#63b8ff" stroke="#63b8ff" points="430.5,-359.09 427,-349.09 423.5,-359.09 430.5,-359.09"/>
</a>
</g>
</g>
<!-- Node15 -->
<g id="Node000015" class="node">
<title>Node15</title>
<g id="a_Node000015"><a xlink:title=" ">
<polygon fill="#e0e0e0" stroke="#999999" points="1334.5,-19 1281.5,-19 1281.5,0 1334.5,0 1334.5,-19"/>
<text text-anchor="middle" x="1308" y="-7" font-family="Helvetica,sans-Serif" font-size="10.00">stdint.h</text>
</a>
</g>
</g>
<!-- Node1&#45;&gt;Node15 -->
<g id="edge44_Node000001_Node000015" class="edge">
<title>Node1&#45;&gt;Node15</title>
<g id="a_edge44_Node000001_Node000015"><a xlink:title=" ">
<path fill="none" stroke="#63b8ff" d="M511.4,-392.94C748.25,-390.25 1402,-374.75 1402,-285.5 1402,-285.5 1402,-285.5 1402,-118.5 1402,-89.04 1401.13,-78.22 1383,-55 1372.15,-41.1 1355.64,-30.64 1340.87,-23.36"/>
<polygon fill="#63b8ff" stroke="#63b8ff" points="1342.05,-20.05 1331.5,-19.03 1339.11,-26.4 1342.05,-20.05"/>
</a>
</g>
</g>
<!-- Node28 -->
<g id="Node000028" class="node">
<title>Node28</title>
<g id="a_Node000028"><a xlink:href="_region_media_8h.html" target="_top" xlink:title=" ">
<polygon fill="white" stroke="#666666" points="345,-349 185,-349 185,-330 345,-330 345,-349"/>
<text text-anchor="middle" x="265" y="-337" font-family="Helvetica,sans-Serif" font-size="10.00">Cpl/Persistent/RegionMedia.h</text>
</a>
</g>
</g>
<!-- Node1&#45;&gt;Node28 -->
<g id="edge41_Node000001_Node000028" class="edge">
<title>Node1&#45;&gt;Node28</title>
<g id="a_edge41_Node000001_Node000028"><a xlink:title=" ">
<path fill="none" stroke="#63b8ff" d="M400.97,-384.98C373.89,-376.13 331.29,-362.19 300.99,-352.28"/>
<polygon fill="#63b8ff" stroke="#63b8ff" points="301.82,-348.87 291.23,-349.08 299.65,-355.52 301.82,-348.87"/>
</a>
</g>
</g>
<!-- Node3 -->
<g id="Node000003" class="node">
<title>Node3</title>
<g id="a_Node000003"><a xlink:href="_payload_8h.html" target="_top" xlink:title=" ">
<polygon fill="white" stroke="#666666" points="447,-239 313,-239 313,-220 447,-220 447,-239"/>
<text text-anchor="middle" x="380" y="-227" font-family="Helvetica,sans-Serif" font-size="10.00">Cpl/Persistent/Payload.h</text>
</a>
</g>
</g>
<!-- Node2&#45;&gt;Node3 -->
<g id="edge2_Node000002_Node000003" class="edge">
<title>Node2&#45;&gt;Node3</title>
<g id="a_edge2_Node000002_Node000003"><a xlink:title=" ">
<path fill="none" stroke="#63b8ff" d="M425.14,-329.6C422.35,-317.06 416.47,-293.65 408,-275 403.71,-265.56 397.72,-255.74 392.38,-247.73"/>
<polygon fill="#63b8ff" stroke="#63b8ff" points="395.11,-245.53 386.55,-239.3 389.36,-249.51 395.11,-245.53"/>
</a>
</g>
</g>
<!-- Node5 -->
<g id="Node000005" class="node">
<title>Node5</title>
<g id="a_Node000005"><a xlink:href="_dm_2_mailbox_server_8h.html" target="_top" xlink:title=" ">
<polygon fill="white" stroke="#666666" points="399,-294 265,-294 265,-275 399,-275 399,-294"/>
<text text-anchor="middle" x="332" y="-282" font-family="Helvetica,sans-Serif" font-size="10.00">Cpl/Dm/MailboxServer.h</text>
</a>
</g>
</g>
<!-- Node2&#45;&gt;Node5 -->
<g id="edge4_Node000002_Node000005" class="edge">
<title>Node2&#45;&gt;Node5</title>
<g id="a_edge4_Node000002_Node000005"><a xlink:title=" ">
<path fill="none" stroke="#63b8ff" d="M411.74,-329.98C396.87,-321.69 374.02,-308.94 356.58,-299.22"/>
<polygon fill="#63b8ff" stroke="#63b8ff" points="357.98,-295.99 347.54,-294.17 354.57,-302.1 357.98,-295.99"/>
</a>
</g>
</g>
<!-- Node4 -->
<g id="Node000004" class="node">
<title>Node4</title>
<g id="a_Node000004"><a xlink:title=" ">
<polygon fill="#e0e0e0" stroke="#999999" points="284.5,-129 231.5,-129 231.5,-110 284.5,-110 284.5,-129"/>
<text text-anchor="middle" x="258" y="-117" font-family="Helvetica,sans-Serif" font-size="10.00">stdlib.h</text>
</a>
</g>
</g>
<!-- Node3&#45;&gt;Node4 -->
<g id="edge3_Node000003_Node000004" class="edge">
<title>Node3&#45;&gt;Node4</title>
<g id="a_edge3_Node000003_Node000004"><a xlink:title=" ">
<path fill="none" stroke="#63b8ff" d="M357.84,-219.91C340.4,-212.36 316.26,-200.08 299,-184 284.94,-170.9 273.55,-152.01 266.37,-138.24"/>
<polygon fill="#63b8ff" stroke="#63b8ff" points="269.5,-136.67 261.92,-129.27 263.23,-139.78 269.5,-136.67"/>
</a>
</g>
</g>
<!-- Node6 -->
<g id="Node000006" class="node">
<title>Node6</title>
<g id="a_Node000006"><a xlink:href="_dm_2_event_loop_8h.html" target="_top" xlink:title=" ">
<polygon fill="white" stroke="#666666" points="722,-239 606,-239 606,-220 722,-220 722,-239"/>
<text text-anchor="middle" x="664" y="-227" font-family="Helvetica,sans-Serif" font-size="10.00">Cpl/Dm/EventLoop.h</text>
</a>
</g>
</g>
<!-- Node5&#45;&gt;Node6 -->
<g id="edge5_Node000005_Node000006" class="edge">
<title>Node5&#45;&gt;Node6</title>
<g id="a_edge5_Node000005_Node000006"><a xlink:title=" ">
<path fill="none" stroke="#63b8ff" d="M385.34,-274.98C443.94,-265.63 538.01,-250.61 600.4,-240.65"/>
<polygon fill="#63b8ff" stroke="#63b8ff" points="601.19,-244.07 610.52,-239.04 600.09,-237.16 601.19,-244.07"/>
</a>
</g>
</g>
<!-- Node24 -->
<g id="Node000024" class="node">
<title>Node24</title>
<g id="a_Node000024"><a xlink:href="_mailbox_8h.html" target="_top" xlink:title=" ">
<polygon fill="white" stroke="#666666" points="193,-184 95,-184 95,-165 193,-165 193,-184"/>
<text text-anchor="middle" x="144" y="-172" font-family="Helvetica,sans-Serif" font-size="10.00">Cpl/Itc/Mailbox.h</text>
</a>
</g>
</g>
<!-- Node5&#45;&gt;Node24 -->
<g id="edge34_Node000005_Node000024" class="edge">
<title>Node5&#45;&gt;Node24</title>
<g id="a_edge34_Node000005_Node000024"><a xlink:title=" ">
<path fill="none" stroke="#63b8ff" d="M316.93,-274.84C284.4,-256.16 207.36,-211.9 168.02,-189.3"/>
<polygon fill="#63b8ff" stroke="#63b8ff" points="169.29,-185.99 158.88,-184.05 165.81,-192.06 169.29,-185.99"/>
</a>
</g>
</g>
<!-- Node7 -->
<g id="Node000007" class="node">
<title>Node7</title>
<g id="a_Node000007"><a xlink:href="_system_2_event_loop_8h.html" target="_top" xlink:title=" ">
<polygon fill="white" stroke="#666666" points="872.5,-184 737.5,-184 737.5,-165 872.5,-165 872.5,-184"/>
<text text-anchor="middle" x="805" y="-172" font-family="Helvetica,sans-Serif" font-size="10.00">Cpl/System/EventLoop.h</text>
</a>
</g>
</g>
<!-- Node6&#45;&gt;Node7 -->
<g id="edge6_Node000006_Node000007" class="edge">
<title>Node6&#45;&gt;Node7</title>
<g id="a_edge6_Node000006_Node000007"><a xlink:title=" ">
<path fill="none" stroke="#63b8ff" d="M686.65,-219.98C709.85,-211.27 746.12,-197.63 772.4,-187.75"/>
<polygon fill="#63b8ff" stroke="#63b8ff" points="773.8,-190.97 781.93,-184.17 771.34,-184.41 773.8,-190.97"/>
</a>
</g>
</g>
<!-- Node19 -->
<g id="Node000019" class="node">
<title>Node19</title>
<g id="a_Node000019"><a xlink:href="_d_list_8h.html" target="_top" xlink:title=" ">
<polygon fill="white" stroke="#666666" points="723.5,-74 604.5,-74 604.5,-55 723.5,-55 723.5,-74"/>
<text text-anchor="middle" x="664" y="-62" font-family="Helvetica,sans-Serif" font-size="10.00">Cpl/Container/DList.h</text>
</a>
</g>
</g>
<!-- Node6&#45;&gt;Node19 -->
<g id="edge28_Node000006_Node000019" class="edge">
<title>Node6&#45;&gt;Node19</title>
<g id="a_edge28_Node000006_Node000019"><a xlink:title=" ">
<path fill="none" stroke="#63b8ff" d="M605.96,-225.07C501.97,-216.85 300.92,-190.32 370,-110 384.46,-93.19 511.97,-78.9 594.25,-71.32"/>
<polygon fill="#63b8ff" stroke="#63b8ff" points="594.65,-74.79 604.29,-70.4 594.02,-67.82 594.65,-74.79"/>
</a>
</g>
</g>
<!-- Node20 -->
<g id="Node000020" class="node">
<title>Node20</title>
<g id="a_Node000020"><a xlink:href="_thread_8h.html" target="_top" xlink:title=" ">
<polygon fill="white" stroke="#666666" points="537,-184 419,-184 419,-165 537,-165 537,-184"/>
<text text-anchor="middle" x="478" y="-172" font-family="Helvetica,sans-Serif" font-size="10.00">Cpl/System/Thread.h</text>
</a>
</g>
</g>
<!-- Node6&#45;&gt;Node20 -->
<g id="edge22_Node000006_Node000020" class="edge">
<title>Node6&#45;&gt;Node20</title>
<g id="a_edge22_Node000006_Node000020"><a xlink:title=" ">
<path fill="none" stroke="#63b8ff" d="M634.12,-219.98C602.62,-211.01 552.83,-196.82 517.97,-186.89"/>
<polygon fill="#63b8ff" stroke="#63b8ff" points="518.69,-183.46 508.12,-184.08 516.78,-190.19 518.69,-183.46"/>
</a>
</g>
</g>
<!-- Node22 -->
<g id="Node000022" class="node">
<title>Node22</title>
<g id="a_Node000022"><a xlink:href="_subscriber_api_8h.html" target="_top" xlink:title=" ">
<polygon fill="white" stroke="#666666" points="1373.5,-74 1242.5,-74 1242.5,-55 1373.5,-55 1373.5,-74"/>
<text text-anchor="middle" x="1308" y="-62" font-family="Helvetica,sans-Serif" font-size="10.00">Cpl/Dm/SubscriberApi.h</text>
</a>
</g>
</g>
<!-- Node6&#45;&gt;Node22 -->
<g id="edge29_Node000006_Node000022" class="edge">
<title>Node6&#45;&gt;Node22</title>
<g id="a_edge29_Node000006_Node000022"><a xlink:title=" ">
<path fill="none" stroke="#63b8ff" d="M722.22,-225.94C839.84,-220.38 1101.96,-205.91 1189,-184 1248.65,-168.98 1282.24,-180.42 1316,-129 1324.76,-115.66 1321.17,-97.31 1316.34,-83.76"/>
<polygon fill="#63b8ff" stroke="#63b8ff" points="1319.42,-82.05 1312.4,-74.11 1312.94,-84.69 1319.42,-82.05"/>
</a>
</g>
</g>
<!-- Node23 -->
<g id="Node000023" class="node">
<title>Node23</title>
<g id="a_Node000023"><a xlink:href="_notification_api___8h.html" target="_top" xlink:title=" ">
<polygon fill="white" stroke="#666666" points="1180,-184 1038,-184 1038,-165 1180,-165 1180,-184"/>
<text text-anchor="middle" x="1109" y="-172" font-family="Helvetica,sans-Serif" font-size="10.00">Cpl/Dm/NotificationApi_.h</text>
</a>
</g>
</g>
<!-- Node6&#45;&gt;Node23 -->
<g id="edge32_Node000006_Node000023" class="edge">
<title>Node6&#45;&gt;Node23</title>
<g id="a_edge32_Node000006_Node000023"><a xlink:title=" ">
<path fill="none" stroke="#63b8ff" d="M722.18,-221.57C800.33,-212.26 939.58,-195.68 1027.96,-185.15"/>
<polygon fill="#63b8ff" stroke="#63b8ff" points="1028.43,-188.62 1037.95,-183.96 1027.6,-181.67 1028.43,-188.62"/>
</a>
</g>
</g>
<!-- Node8 -->
<g id="Node000008" class="node">
<title>Node8</title>
<g id="a_Node000008"><a xlink:href="_runnable_8h.html" target="_top" xlink:title=" ">
<polygon fill="white" stroke="#666666" points="679,-129 549,-129 549,-110 679,-110 679,-129"/>
<text text-anchor="middle" x="614" y="-117" font-family="Helvetica,sans-Serif" font-size="10.00">Cpl/System/Runnable.h</text>
</a>
</g>
</g>
<!-- Node7&#45;&gt;Node8 -->
<g id="edge7_Node000007_Node000008" class="edge">
<title>Node7&#45;&gt;Node8</title>
<g id="a_edge7_Node000007_Node000008"><a xlink:title=" ">
<path fill="none" stroke="#63b8ff" d="M774.31,-164.98C741.83,-155.97 690.4,-141.7 654.59,-131.76"/>
<polygon fill="#63b8ff" stroke="#63b8ff" points="655.5,-128.38 644.93,-129.08 653.63,-135.13 655.5,-128.38"/>
</a>
</g>
</g>
<!-- Node9 -->
<g id="Node000009" class="node">
<title>Node9</title>
<g id="a_Node000009"><a xlink:href="_semaphore_8h.html" target="_top" xlink:title=" ">
<polygon fill="white" stroke="#666666" points="875,-129 735,-129 735,-110 875,-110 875,-129"/>
<text text-anchor="middle" x="805" y="-117" font-family="Helvetica,sans-Serif" font-size="10.00">Cpl/System/Semaphore.h</text>
</a>
</g>
</g>
<!-- Node7&#45;&gt;Node9 -->
<g id="edge8_Node000007_Node000009" class="edge">
<title>Node7&#45;&gt;Node9</title>
<g id="a_edge8_Node000007_Node000009"><a xlink:title=" ">
<path fill="none" stroke="#63b8ff" d="M805,-164.75C805,-157.8 805,-147.85 805,-139.13"/>
<polygon fill="#63b8ff" stroke="#63b8ff" points="808.5,-139.09 805,-129.09 801.5,-139.09 808.5,-139.09"/>
</a>
</g>
</g>
<!-- Node11 -->
<g id="Node000011" class="node">
<title>Node11</title>
<g id="a_Node000011"><a xlink:href="_signable_8h.html" target="_top" xlink:title=" ">
<polygon fill="white" stroke="#666666" points="557,-74 431,-74 431,-55 557,-55 557,-74"/>
<text text-anchor="middle" x="494" y="-62" font-family="Helvetica,sans-Serif" font-size="10.00">Cpl/System/Signable.h</text>
</a>
</g>
</g>
<!-- Node7&#45;&gt;Node11 -->
<g id="edge12_Node000007_Node000011" class="edge">
<title>Node7&#45;&gt;Node11</title>
<g id="a_edge12_Node000007_Node000011"><a xlink:title=" ">
<path fill="none" stroke="#63b8ff" d="M789.58,-164.83C760.27,-148.39 698.49,-113.96 688,-110 646.31,-94.24 597.39,-83.07 559.1,-75.86"/>
<polygon fill="#63b8ff" stroke="#63b8ff" points="559.57,-72.39 549.1,-74.02 558.3,-79.27 559.57,-72.39"/>
</a>
</g>
</g>
<!-- Node13 -->
<g id="Node000013" class="node">
<title>Node13</title>
<g id="a_Node000013"><a xlink:href="_event_flag_8h.html" target="_top" xlink:title=" ">
<polygon fill="white" stroke="#666666" points="1224.5,-74 1091.5,-74 1091.5,-55 1224.5,-55 1224.5,-74"/>
<text text-anchor="middle" x="1158" y="-62" font-family="Helvetica,sans-Serif" font-size="10.00">Cpl/System/EventFlag.h</text>
</a>
</g>
</g>
<!-- Node7&#45;&gt;Node13 -->
<g id="edge13_Node000007_Node000013" class="edge">
<title>Node7&#45;&gt;Node13</title>
<g id="a_edge13_Node000007_Node000013"><a xlink:title=" ">
<path fill="none" stroke="#63b8ff" d="M872.71,-168.82C924.8,-163.51 997.81,-152.34 1058,-129 1088.93,-117.01 1120.58,-94.92 1139.77,-80.22"/>
<polygon fill="#63b8ff" stroke="#63b8ff" points="1141.94,-82.96 1147.66,-74.04 1137.63,-77.45 1141.94,-82.96"/>
</a>
</g>
</g>
<!-- Node16 -->
<g id="Node000016" class="node">
<title>Node16</title>
<g id="a_Node000016"><a xlink:href="_shared_event_handler_8h.html" target="_top" xlink:title=" ">
<polygon fill="white" stroke="#666666" points="1288.5,-129 1105.5,-129 1105.5,-110 1288.5,-110 1288.5,-129"/>
<text text-anchor="middle" x="1197" y="-117" font-family="Helvetica,sans-Serif" font-size="10.00">Cpl/System/SharedEventHandler.h</text>
</a>
</g>
</g>
<!-- Node7&#45;&gt;Node16 -->
<g id="edge16_Node000007_Node000016" class="edge">
<title>Node7&#45;&gt;Node16</title>
<g id="a_edge16_Node000007_Node000016"><a xlink:title=" ">
<path fill="none" stroke="#63b8ff" d="M867.98,-164.98C937.74,-155.55 1050.07,-140.36 1123.72,-130.41"/>
<polygon fill="#63b8ff" stroke="#63b8ff" points="1124.41,-133.85 1133.85,-129.04 1123.47,-126.91 1124.41,-133.85"/>
</a>
</g>
</g>
<!-- Node17 -->
<g id="Node000017" class="node">
<title>Node17</title>
<g id="a_Node000017"><a xlink:href="_timer_manager_8h.html" target="_top" xlink:title=" ">
<polygon fill="white" stroke="#666666" points="1048.5,-129 893.5,-129 893.5,-110 1048.5,-110 1048.5,-129"/>
<text text-anchor="middle" x="971" y="-117" font-family="Helvetica,sans-Serif" font-size="10.00">Cpl/System/TimerManager.h</text>
</a>
</g>
</g>
<!-- Node7&#45;&gt;Node17 -->
<g id="edge18_Node000007_Node000017" class="edge">
<title>Node7&#45;&gt;Node17</title>
<g id="a_edge18_Node000007_Node000017"><a xlink:title=" ">
<path fill="none" stroke="#63b8ff" d="M831.67,-164.98C859.54,-156.09 903.45,-142.07 934.52,-132.15"/>
<polygon fill="#63b8ff" stroke="#63b8ff" points="935.66,-135.46 944.12,-129.08 933.53,-128.79 935.66,-135.46"/>
</a>
</g>
</g>
<!-- Node10 -->
<g id="Node000010" class="node">
<title>Node10</title>
<g id="a_Node000010"><a xlink:title=" ">
<polygon fill="#e0e0e0" stroke="#999999" points="840.5,-74 755.5,-74 755.5,-55 840.5,-55 840.5,-74"/>
<text text-anchor="middle" x="798" y="-62" font-family="Helvetica,sans-Serif" font-size="10.00">colony_map.h</text>
</a>
</g>
</g>
<!-- Node9&#45;&gt;Node10 -->
<g id="edge9_Node000009_Node000010" class="edge">
<title>Node9&#45;&gt;Node10</title>
<g id="a_edge9_Node000009_Node000010"><a xlink:title=" ">
<path fill="none" stroke="#63b8ff" d="M803.84,-109.75C802.93,-102.8 801.61,-92.85 800.46,-84.13"/>
<polygon fill="#63b8ff" stroke="#63b8ff" points="803.91,-83.54 799.13,-74.09 796.97,-84.46 803.91,-83.54"/>
</a>
</g>
</g>
<!-- Node9&#45;&gt;Node11 -->
<g id="edge10_Node000009_Node000011" class="edge">
<title>Node9&#45;&gt;Node11</title>
<g id="a_edge10_Node000009_Node000011"><a xlink:title=" ">
<path fill="none" stroke="#63b8ff" d="M755.03,-109.98C700.36,-100.67 612.75,-85.74 554.3,-75.78"/>
<polygon fill="#63b8ff" stroke="#63b8ff" points="554.55,-72.27 544.1,-74.04 553.37,-79.17 554.55,-72.27"/>
</a>
</g>
</g>
<!-- Node12 -->
<g id="Node000012" class="node">
<title>Node12</title>
<g id="a_Node000012"><a xlink:href="_item_8h.html" target="_top" xlink:title=" ">
<polygon fill="white" stroke="#666666" points="552.5,-19 435.5,-19 435.5,0 552.5,0 552.5,-19"/>
<text text-anchor="middle" x="494" y="-7" font-family="Helvetica,sans-Serif" font-size="10.00">Cpl/Container/Item.h</text>
</a>
</g>
</g>
<!-- Node11&#45;&gt;Node12 -->
<g id="edge11_Node000011_Node000012" class="edge">
<title>Node11&#45;&gt;Node12</title>
<g id="a_edge11_Node000011_Node000012"><a xlink:title=" ">
<path fill="none" stroke="#63b8ff" d="M494,-54.75C494,-47.8 494,-37.85 494,-29.13"/>
<polygon fill="#63b8ff" stroke="#63b8ff" points="497.5,-29.09 494,-19.09 490.5,-29.09 497.5,-29.09"/>
</a>
</g>
</g>
<!-- Node14 -->
<g id="Node000014" class="node">
<title>Node14</title>
<g id="a_Node000014"><a xlink:title=" ">
<polygon fill="#e0e0e0" stroke="#999999" points="1204,-19 1112,-19 1112,0 1204,0 1204,-19"/>
<text text-anchor="middle" x="1158" y="-7" font-family="Helvetica,sans-Serif" font-size="10.00">colony_config.h</text>
</a>
</g>
</g>
<!-- Node13&#45;&gt;Node14 -->
<g id="edge14_Node000013_Node000014" class="edge">
<title>Node13&#45;&gt;Node14</title>
<g id="a_edge14_Node000013_Node000014"><a xlink:title=" ">
<path fill="none" stroke="#63b8ff" d="M1158,-54.75C1158,-47.8 1158,-37.85 1158,-29.13"/>
<polygon fill="#63b8ff" stroke="#63b8ff" points="1161.5,-29.09 1158,-19.09 1154.5,-29.09 1161.5,-29.09"/>
</a>
</g>
</g>
<!-- Node13&#45;&gt;Node15 -->
<g id="edge15_Node000013_Node000015" class="edge">
<title>Node13&#45;&gt;Node15</title>
<g id="a_edge15_Node000013_Node000015"><a xlink:title=" ">
<path fill="none" stroke="#63b8ff" d="M1182.1,-54.98C1206.88,-46.23 1245.7,-32.51 1273.69,-22.62"/>
<polygon fill="#63b8ff" stroke="#63b8ff" points="1275.2,-25.8 1283.46,-19.17 1272.87,-19.2 1275.2,-25.8"/>
</a>
</g>
</g>
<!-- Node16&#45;&gt;Node13 -->
<g id="edge17_Node000016_Node000013" class="edge">
<title>Node16&#45;&gt;Node13</title>
<g id="a_edge17_Node000016_Node000013"><a xlink:title=" ">
<path fill="none" stroke="#63b8ff" d="M1190.56,-109.75C1185.11,-102.34 1177.14,-91.5 1170.44,-82.41"/>
<polygon fill="#63b8ff" stroke="#63b8ff" points="1173.07,-80.07 1164.32,-74.09 1167.43,-84.22 1173.07,-80.07"/>
</a>
</g>
</g>
<!-- Node18 -->
<g id="Node000018" class="node">
<title>Node18</title>
<g id="a_Node000018"><a xlink:href="_counter___8h.html" target="_top" xlink:title=" ">
<polygon fill="white" stroke="#666666" points="1015,-74 887,-74 887,-55 1015,-55 1015,-74"/>
<text text-anchor="middle" x="951" y="-62" font-family="Helvetica,sans-Serif" font-size="10.00">Cpl/System/Counter_.h</text>
</a>
</g>
</g>
<!-- Node17&#45;&gt;Node18 -->
<g id="edge19_Node000017_Node000018" class="edge">
<title>Node17&#45;&gt;Node18</title>
<g id="a_edge19_Node000017_Node000018"><a xlink:title=" ">
<path fill="none" stroke="#63b8ff" d="M967.7,-109.75C965.02,-102.65 961.15,-92.4 957.81,-83.56"/>
<polygon fill="#63b8ff" stroke="#63b8ff" points="961.05,-82.21 954.24,-74.09 954.5,-84.68 961.05,-82.21"/>
</a>
</g>
</g>
<!-- Node17&#45;&gt;Node19 -->
<g id="edge21_Node000017_Node000019" class="edge">
<title>Node17&#45;&gt;Node19</title>
<g id="a_edge21_Node000017_Node000019"><a xlink:title=" ">
<path fill="none" stroke="#63b8ff" d="M921.68,-109.98C867.71,-100.67 781.22,-85.74 723.52,-75.78"/>
<polygon fill="#63b8ff" stroke="#63b8ff" points="723.91,-72.29 713.46,-74.04 722.72,-79.19 723.91,-72.29"/>
</a>
</g>
</g>
<!-- Node18&#45;&gt;Node12 -->
<g id="edge20_Node000018_Node000012" class="edge">
<title>Node18&#45;&gt;Node12</title>
<g id="a_edge20_Node000018_Node000012"><a xlink:title=" ">
<path fill="none" stroke="#63b8ff" d="M886.97,-56.07C801.44,-46.15 650.48,-28.65 562.65,-18.46"/>
<polygon fill="#63b8ff" stroke="#63b8ff" points="562.86,-14.96 552.53,-17.29 562.06,-21.92 562.86,-14.96"/>
</a>
</g>
</g>
<!-- Node20&#45;&gt;Node4 -->
<g id="edge27_Node000020_Node000004" class="edge">
<title>Node20&#45;&gt;Node4</title>
<g id="a_edge27_Node000020_Node000004"><a xlink:title=" ">
<path fill="none" stroke="#63b8ff" d="M442.65,-164.98C402.01,-155.19 335.61,-139.2 294.49,-129.29"/>
<polygon fill="#63b8ff" stroke="#63b8ff" points="295.15,-125.85 284.61,-126.91 293.51,-132.66 295.15,-125.85"/>
</a>
</g>
</g>
<!-- Node20&#45;&gt;Node8 -->
<g id="edge24_Node000020_Node000008" class="edge">
<title>Node20&#45;&gt;Node8</title>
<g id="a_edge24_Node000020_Node000008"><a xlink:title=" ">
<path fill="none" stroke="#63b8ff" d="M499.85,-164.98C522.12,-156.3 556.9,-142.75 582.22,-132.88"/>
<polygon fill="#63b8ff" stroke="#63b8ff" points="583.71,-136.06 591.75,-129.17 581.16,-129.54 583.71,-136.06"/>
</a>
</g>
</g>
<!-- Node20&#45;&gt;Node10 -->
<g id="edge23_Node000020_Node000010" class="edge">
<title>Node20&#45;&gt;Node10</title>
<g id="a_edge23_Node000020_Node000010"><a xlink:title=" ">
<path fill="none" stroke="#63b8ff" d="M483.68,-164.84C493.4,-150.82 514.63,-123.34 540,-110 557.88,-100.6 675.32,-82.8 745.44,-72.8"/>
<polygon fill="#63b8ff" stroke="#63b8ff" points="746.02,-76.25 755.43,-71.38 745.03,-69.32 746.02,-76.25"/>
</a>
</g>
</g>
<!-- Node20&#45;&gt;Node11 -->
<g id="edge25_Node000020_Node000011" class="edge">
<title>Node20&#45;&gt;Node11</title>
<g id="a_edge25_Node000020_Node000011"><a xlink:title=" ">
<path fill="none" stroke="#63b8ff" d="M433.58,-164.98C395.71,-155.6 350.29,-138.02 370,-110 382.05,-92.88 401.33,-82.31 421.13,-75.8"/>
<polygon fill="#63b8ff" stroke="#63b8ff" points="422.27,-79.12 430.87,-72.92 420.28,-72.4 422.27,-79.12"/>
</a>
</g>
</g>
<!-- Node21 -->
<g id="Node000021" class="node">
<title>Node21</title>
<g id="a_Node000021"><a xlink:href="_traverser_8h.html" target="_top" xlink:title=" ">
<polygon fill="white" stroke="#666666" points="493,-129 379,-129 379,-110 493,-110 493,-129"/>
<text text-anchor="middle" x="436" y="-117" font-family="Helvetica,sans-Serif" font-size="10.00">Cpl/Type/Traverser.h</text>
</a>
</g>
</g>
<!-- Node20&#45;&gt;Node21 -->
<g id="edge26_Node000020_Node000021" class="edge">
<title>Node20&#45;&gt;Node21</title>
<g id="a_edge26_Node000020_Node000021"><a xlink:title=" ">
<path fill="none" stroke="#63b8ff" d="M471.06,-164.75C465.13,-157.26 456.43,-146.28 449.18,-137.13"/>
<polygon fill="#63b8ff" stroke="#63b8ff" points="451.76,-134.75 442.81,-129.09 446.27,-139.1 451.76,-134.75"/>
</a>
</g>
</g>
<!-- Node22&#45;&gt;Node12 -->
<g id="edge30_Node000022_Node000012" class="edge">
<title>Node22&#45;&gt;Node12</title>
<g id="a_edge30_Node000022_Node000012"><a xlink:title=" ">
<path fill="none" stroke="#63b8ff" d="M1242.25,-55.76C1239.46,-55.49 1236.71,-55.24 1234,-55 987.45,-33.44 693.77,-19.16 562.87,-13.39"/>
<polygon fill="#63b8ff" stroke="#63b8ff" points="562.74,-9.88 552.6,-12.94 562.43,-16.88 562.74,-9.88"/>
</a>
</g>
</g>
<!-- Node22&#45;&gt;Node15 -->
<g id="edge31_Node000022_Node000015" class="edge">
<title>Node22&#45;&gt;Node15</title>
<g id="a_edge31_Node000022_Node000015"><a xlink:title=" ">
<path fill="none" stroke="#63b8ff" d="M1308,-54.75C1308,-47.8 1308,-37.85 1308,-29.13"/>
<polygon fill="#63b8ff" stroke="#63b8ff" points="1311.5,-29.09 1308,-19.09 1304.5,-29.09 1311.5,-29.09"/>
</a>
</g>
</g>
<!-- Node23&#45;&gt;Node22 -->
<g id="edge33_Node000023_Node000022" class="edge">
<title>Node23&#45;&gt;Node22</title>
<g id="a_edge33_Node000023_Node000022"><a xlink:title=" ">
<path fill="none" stroke="#63b8ff" d="M1180.36,-165.03C1226.93,-157.99 1281.95,-146.3 1298,-129 1309.02,-117.12 1310.76,-98.29 1310.2,-84.22"/>
<polygon fill="#63b8ff" stroke="#63b8ff" points="1313.68,-83.86 1309.39,-74.17 1306.7,-84.42 1313.68,-83.86"/>
</a>
</g>
</g>
<!-- Node24&#45;&gt;Node11 -->
<g id="edge40_Node000024_Node000011" class="edge">
<title>Node24&#45;&gt;Node11</title>
<g id="a_edge40_Node000024_Node000011"><a xlink:title=" ">
<path fill="none" stroke="#63b8ff" d="M151.66,-164.84C164.63,-150.81 192.38,-123.32 222,-110 256.55,-94.46 352.45,-81.11 420.57,-73.2"/>
<polygon fill="#63b8ff" stroke="#63b8ff" points="421.29,-76.64 430.83,-72.02 420.5,-69.68 421.29,-76.64"/>
</a>
</g>
</g>
<!-- Node25 -->
<g id="Node000025" class="node">
<title>Node25</title>
<g id="a_Node000025"><a xlink:href="_post_api_8h.html" target="_top" xlink:title=" ">
<polygon fill="white" stroke="#666666" points="175,-129 79,-129 79,-110 175,-110 175,-129"/>
<text text-anchor="middle" x="127" y="-117" font-family="Helvetica,sans-Serif" font-size="10.00">Cpl/Itc/PostApi.h</text>
</a>
</g>
</g>
<!-- Node24&#45;&gt;Node25 -->
<g id="edge35_Node000024_Node000025" class="edge">
<title>Node24&#45;&gt;Node25</title>
<g id="a_edge35_Node000024_Node000025"><a xlink:title=" ">
<path fill="none" stroke="#63b8ff" d="M141.19,-164.75C138.94,-157.72 135.7,-147.62 132.88,-138.84"/>
<polygon fill="#63b8ff" stroke="#63b8ff" points="136.14,-137.54 129.75,-129.09 129.48,-139.68 136.14,-137.54"/>
</a>
</g>
</g>
<!-- Node27 -->
<g id="Node000027" class="node">
<title>Node27</title>
<g id="a_Node000027"><a xlink:href="_s_list_8h.html" target="_top" xlink:title=" ">
<polygon fill="white" stroke="#666666" points="118,-74 0,-74 0,-55 118,-55 118,-74"/>
<text text-anchor="middle" x="59" y="-62" font-family="Helvetica,sans-Serif" font-size="10.00">Cpl/Container/SList.h</text>
</a>
</g>
</g>
<!-- Node24&#45;&gt;Node27 -->
<g id="edge38_Node000024_Node000027" class="edge">
<title>Node24&#45;&gt;Node27</title>
<g id="a_edge38_Node000024_Node000027"><a xlink:title=" ">
<path fill="none" stroke="#63b8ff" d="M119.14,-164.88C102.58,-157.83 81.77,-146.19 70,-129 61.01,-115.87 58.61,-97.74 58.26,-84.21"/>
<polygon fill="#63b8ff" stroke="#63b8ff" points="61.76,-84.17 58.34,-74.14 54.76,-84.11 61.76,-84.17"/>
</a>
</g>
</g>
<!-- Node26 -->
<g id="Node000026" class="node">
<title>Node26</title>
<g id="a_Node000026"><a xlink:href="_message_8h.html" target="_top" xlink:title=" ">
<polygon fill="white" stroke="#666666" points="354.5,-74 251.5,-74 251.5,-55 354.5,-55 354.5,-74"/>
<text text-anchor="middle" x="303" y="-62" font-family="Helvetica,sans-Serif" font-size="10.00">Cpl/Itc/Message.h</text>
</a>
</g>
</g>
<!-- Node25&#45;&gt;Node26 -->
<g id="edge36_Node000025_Node000026" class="edge">
<title>Node25&#45;&gt;Node26</title>
<g id="a_edge36_Node000025_Node000026"><a xlink:title=" ">
<path fill="none" stroke="#63b8ff" d="M155.28,-109.98C184.95,-101.05 231.79,-86.94 264.75,-77.02"/>
<polygon fill="#63b8ff" stroke="#63b8ff" points="265.93,-80.32 274.5,-74.08 263.92,-73.61 265.93,-80.32"/>
</a>
</g>
</g>
<!-- Node26&#45;&gt;Node12 -->
<g id="edge37_Node000026_Node000012" class="edge">
<title>Node26&#45;&gt;Node12</title>
<g id="a_edge37_Node000026_Node000012"><a xlink:title=" ">
<path fill="none" stroke="#63b8ff" d="M333.69,-54.98C366.17,-45.97 417.6,-31.7 453.41,-21.76"/>
<polygon fill="#63b8ff" stroke="#63b8ff" points="454.37,-25.13 463.07,-19.08 452.5,-18.38 454.37,-25.13"/>
</a>
</g>
</g>
<!-- Node27&#45;&gt;Node12 -->
<g id="edge39_Node000027_Node000012" class="edge">
<title>Node27&#45;&gt;Node12</title>
<g id="a_edge39_Node000027_Node000012"><a xlink:title=" ">
<path fill="none" stroke="#63b8ff" d="M118.12,-56.3C198.14,-46.55 340.65,-29.18 425.33,-18.87"/>
<polygon fill="#63b8ff" stroke="#63b8ff" points="425.85,-22.33 435.36,-17.64 425.01,-15.38 425.85,-22.33"/>
</a>
</g>
</g>
<!-- Node28&#45;&gt;Node4 -->
<g id="edge43_Node000028_Node000004" class="edge">
<title>Node28&#45;&gt;Node4</title>
<g id="a_edge43_Node000028_Node000004"><a xlink:title=" ">
<path fill="none" stroke="#63b8ff" d="M262.68,-329.71C260.46,-320.79 257.26,-306.55 256,-294 250.39,-237.94 254.04,-171.19 256.42,-139.29"/>
<polygon fill="#63b8ff" stroke="#63b8ff" points="259.92,-139.44 257.22,-129.2 252.94,-138.89 259.92,-139.44"/>
</a>
</g>
</g>
<!-- Node28&#45;&gt;Node5 -->
<g id="edge42_Node000028_Node000005" class="edge">
<title>Node28&#45;&gt;Node5</title>
<g id="a_edge42_Node000028_Node000005"><a xlink:title=" ">
<path fill="none" stroke="#63b8ff" d="M275.76,-329.98C285.77,-322.07 300.89,-310.11 312.93,-300.58"/>
<polygon fill="#63b8ff" stroke="#63b8ff" points="315.37,-303.12 321.04,-294.17 311.03,-297.63 315.37,-303.12"/>
</a>
</g>
</g>
</g>
</svg>
