<?xml version="1.0" encoding="UTF-8" standalone="no"?>
<!DOCTYPE svg PUBLIC "-//W3C//DTD SVG 1.1//EN"
 "http://www.w3.org/Graphics/SVG/1.1/DTD/svg11.dtd">
<!-- Generated by graphviz version 2.43.0 (0)
 -->
<!-- Title: Cpl/Dm/ModelPoint.h Pages: 1 -->
<svg width="721pt" height="247pt"
 viewBox="0.00 0.00 721.29 247.00" xmlns="http://www.w3.org/2000/svg" xmlns:xlink="http://www.w3.org/1999/xlink">
<g id="graph0" class="graph" transform="scale(1 1) rotate(0) translate(4 243)">
<title>Cpl/Dm/ModelPoint.h</title>
<!-- Node1 -->
<g id="Node000001" class="node">
<title>Node1</title>
<g id="a_Node000001"><a xlink:title=" ">
<polygon fill="#999999" stroke="#666666" points="451.29,-239 332.29,-239 332.29,-220 451.29,-220 451.29,-239"/>
<text text-anchor="middle" x="391.79" y="-227" font-family="Helvetica,sans-Serif" font-size="10.00">Cpl/Dm/ModelPoint.h</text>
</a>
</g>
</g>
<!-- Node2 -->
<g id="Node000002" class="node">
<title>Node2</title>
<g id="a_Node000002"><a xlink:title=" ">
<polygon fill="#e0e0e0" stroke="#999999" points="171.79,-19 79.79,-19 79.79,0 171.79,0 171.79,-19"/>
<text text-anchor="middle" x="125.79" y="-7" font-family="Helvetica,sans-Serif" font-size="10.00">colony_config.h</text>
</a>
</g>
</g>
<!-- Node1&#45;&gt;Node2 -->
<g id="edge1_Node000001_Node000002" class="edge">
<title>Node1&#45;&gt;Node2</title>
<g id="a_edge1_Node000001_Node000002"><a xlink:title=" ">
<path fill="none" stroke="#63b8ff" d="M331.95,-222.7C233.08,-211.64 43.08,-183.62 8.79,-129 0.81,-116.29 -6.89,-80.8 11.79,-55 25.4,-36.2 48.16,-25.34 69.78,-19.07"/>
<polygon fill="#63b8ff" stroke="#63b8ff" points="70.81,-22.41 79.6,-16.5 69.04,-15.64 70.81,-22.41"/>
</a>
</g>
</g>
<!-- Node3 -->
<g id="Node000003" class="node">
<title>Node3</title>
<g id="a_Node000003"><a xlink:href="_item_8h.html" target="_top" xlink:title=" ">
<polygon fill="white" stroke="#666666" points="499.29,-129 382.29,-129 382.29,-110 499.29,-110 499.29,-129"/>
<text text-anchor="middle" x="440.79" y="-117" font-family="Helvetica,sans-Serif" font-size="10.00">Cpl/Container/Item.h</text>
</a>
</g>
</g>
<!-- Node1&#45;&gt;Node3 -->
<g id="edge2_Node000001_Node000003" class="edge">
<title>Node1&#45;&gt;Node3</title>
<g id="a_edge2_Node000001_Node000003"><a xlink:title=" ">
<path fill="none" stroke="#63b8ff" d="M393.48,-219.98C396.14,-207.51 401.93,-183.72 410.79,-165 415.36,-155.33 421.87,-145.39 427.65,-137.36"/>
<polygon fill="#63b8ff" stroke="#63b8ff" points="430.55,-139.33 433.73,-129.22 424.94,-135.13 430.55,-139.33"/>
</a>
</g>
</g>
<!-- Node4 -->
<g id="Node000004" class="node">
<title>Node4</title>
<g id="a_Node000004"><a xlink:href="_text_2_string_8h.html" target="_top" xlink:title=" ">
<polygon fill="white" stroke="#666666" points="227.79,-184 131.79,-184 131.79,-165 227.79,-165 227.79,-184"/>
<text text-anchor="middle" x="179.79" y="-172" font-family="Helvetica,sans-Serif" font-size="10.00">Cpl/Text/String.h</text>
</a>
</g>
</g>
<!-- Node1&#45;&gt;Node4 -->
<g id="edge3_Node000001_Node000004" class="edge">
<title>Node1&#45;&gt;Node4</title>
<g id="a_edge3_Node000001_Node000004"><a xlink:title=" ">
<path fill="none" stroke="#63b8ff" d="M357.73,-219.98C321.36,-210.89 263.62,-196.46 223.82,-186.51"/>
<polygon fill="#63b8ff" stroke="#63b8ff" points="224.67,-183.11 214.12,-184.08 222.97,-189.9 224.67,-183.11"/>
</a>
</g>
</g>
<!-- Node8 -->
<g id="Node000008" class="node">
<title>Node8</title>
<g id="a_Node000008"><a xlink:title=" ">
<polygon fill="#e0e0e0" stroke="#999999" points="334.79,-19 278.79,-19 278.79,0 334.79,0 334.79,-19"/>
<text text-anchor="middle" x="306.79" y="-7" font-family="Helvetica,sans-Serif" font-size="10.00">stddef.h</text>
</a>
</g>
</g>
<!-- Node1&#45;&gt;Node8 -->
<g id="edge18_Node000001_Node000008" class="edge">
<title>Node1&#45;&gt;Node8</title>
<g id="a_edge18_Node000001_Node000008"><a xlink:title=" ">
<path fill="none" stroke="#63b8ff" d="M389.76,-219.91C383.52,-194.15 363.26,-115.54 334.79,-55 330.32,-45.5 324.22,-35.56 318.85,-27.48"/>
<polygon fill="#63b8ff" stroke="#63b8ff" points="321.57,-25.27 313.03,-19 315.8,-29.23 321.57,-25.27"/>
</a>
</g>
</g>
<!-- Node9 -->
<g id="Node000009" class="node">
<title>Node9</title>
<g id="a_Node000009"><a xlink:title=" ">
<polygon fill="#e0e0e0" stroke="#999999" points="554.29,-74 501.29,-74 501.29,-55 554.29,-55 554.29,-74"/>
<text text-anchor="middle" x="527.79" y="-62" font-family="Helvetica,sans-Serif" font-size="10.00">stdint.h</text>
</a>
</g>
</g>
<!-- Node1&#45;&gt;Node9 -->
<g id="edge19_Node000001_Node000009" class="edge">
<title>Node1&#45;&gt;Node9</title>
<g id="a_edge19_Node000001_Node000009"><a xlink:title=" ">
<path fill="none" stroke="#63b8ff" d="M451.54,-220.56C494.56,-213.47 547.31,-201.48 560.79,-184 584.26,-153.55 558.41,-107.34 540.99,-82.58"/>
<polygon fill="#63b8ff" stroke="#63b8ff" points="543.59,-80.21 534.85,-74.22 537.95,-84.35 543.59,-80.21"/>
</a>
</g>
</g>
<!-- Node13 -->
<g id="Node000013" class="node">
<title>Node13</title>
<g id="a_Node000013"><a xlink:href="_subscriber_api_8h.html" target="_top" xlink:title=" ">
<polygon fill="white" stroke="#666666" points="551.29,-184 420.29,-184 420.29,-165 551.29,-165 551.29,-184"/>
<text text-anchor="middle" x="485.79" y="-172" font-family="Helvetica,sans-Serif" font-size="10.00">Cpl/Dm/SubscriberApi.h</text>
</a>
</g>
</g>
<!-- Node1&#45;&gt;Node13 -->
<g id="edge14_Node000001_Node000013" class="edge">
<title>Node1&#45;&gt;Node13</title>
<g id="a_edge14_Node000001_Node000013"><a xlink:title=" ">
<path fill="none" stroke="#63b8ff" d="M406.89,-219.98C421.6,-211.69 444.21,-198.94 461.46,-189.22"/>
<polygon fill="#63b8ff" stroke="#63b8ff" points="463.42,-192.13 470.41,-184.17 459.98,-186.03 463.42,-192.13"/>
</a>
</g>
</g>
<!-- Node14 -->
<g id="Node000014" class="node">
<title>Node14</title>
<g id="a_Node000014"><a xlink:href="_arduino_8h_source.html" target="_top" xlink:title=" ">
<polygon fill="white" stroke="#666666" points="713.29,-184 608.29,-184 608.29,-165 713.29,-165 713.29,-184"/>
<text text-anchor="middle" x="660.79" y="-172" font-family="Helvetica,sans-Serif" font-size="10.00">Cpl/Json/Arduino.h</text>
</a>
</g>
</g>
<!-- Node1&#45;&gt;Node14 -->
<g id="edge17_Node000001_Node000014" class="edge">
<title>Node1&#45;&gt;Node14</title>
<g id="a_edge17_Node000001_Node000014"><a xlink:title=" ">
<path fill="none" stroke="#63b8ff" d="M435.01,-219.98C481.83,-210.76 556.6,-196.03 607.15,-186.07"/>
<polygon fill="#63b8ff" stroke="#63b8ff" points="608.1,-189.45 617.23,-184.08 606.74,-182.58 608.1,-189.45"/>
</a>
</g>
</g>
<!-- Node5 -->
<g id="Node000005" class="node">
<title>Node5</title>
<g id="a_Node000005"><a xlink:title=" ">
<polygon fill="#e0e0e0" stroke="#999999" points="106.29,-74 21.29,-74 21.29,-55 106.29,-55 106.29,-74"/>
<text text-anchor="middle" x="63.79" y="-62" font-family="Helvetica,sans-Serif" font-size="10.00">colony_map.h</text>
</a>
</g>
</g>
<!-- Node4&#45;&gt;Node5 -->
<g id="edge4_Node000004_Node000005" class="edge">
<title>Node4&#45;&gt;Node5</title>
<g id="a_edge4_Node000004_Node000005"><a xlink:title=" ">
<path fill="none" stroke="#63b8ff" d="M179.39,-164.61C178.34,-151.23 174.53,-125.8 160.79,-110 147.39,-94.59 127.56,-84.2 109.31,-77.37"/>
<polygon fill="#63b8ff" stroke="#63b8ff" points="110.26,-74 99.67,-74.02 107.96,-80.61 110.26,-74"/>
</a>
</g>
</g>
<!-- Node6 -->
<g id="Node000006" class="node">
<title>Node6</title>
<g id="a_Node000006"><a xlink:href="_key_8h.html" target="_top" xlink:title=" ">
<polygon fill="white" stroke="#666666" points="319.29,-129 208.29,-129 208.29,-110 319.29,-110 319.29,-129"/>
<text text-anchor="middle" x="263.79" y="-117" font-family="Helvetica,sans-Serif" font-size="10.00">Cpl/Container/Key.h</text>
</a>
</g>
</g>
<!-- Node4&#45;&gt;Node6 -->
<g id="edge5_Node000004_Node000006" class="edge">
<title>Node4&#45;&gt;Node6</title>
<g id="a_edge5_Node000004_Node000006"><a xlink:title=" ">
<path fill="none" stroke="#63b8ff" d="M193.29,-164.98C206.19,-156.84 225.89,-144.41 241.19,-134.76"/>
<polygon fill="#63b8ff" stroke="#63b8ff" points="243.46,-137.47 250.05,-129.17 239.72,-131.55 243.46,-137.47"/>
</a>
</g>
</g>
<!-- Node11 -->
<g id="Node000011" class="node">
<title>Node11</title>
<g id="a_Node000011"><a xlink:title=" ">
<polygon fill="#e0e0e0" stroke="#999999" points="73.79,-129 17.79,-129 17.79,-110 73.79,-110 73.79,-129"/>
<text text-anchor="middle" x="45.79" y="-117" font-family="Helvetica,sans-Serif" font-size="10.00">stdarg.h</text>
</a>
</g>
</g>
<!-- Node4&#45;&gt;Node11 -->
<g id="edge12_Node000004_Node000011" class="edge">
<title>Node4&#45;&gt;Node11</title>
<g id="a_edge12_Node000004_Node000011"><a xlink:title=" ">
<path fill="none" stroke="#63b8ff" d="M158.26,-164.98C136.31,-156.3 102.05,-142.75 77.1,-132.88"/>
<polygon fill="#63b8ff" stroke="#63b8ff" points="78.3,-129.59 67.71,-129.17 75.72,-136.1 78.3,-129.59"/>
</a>
</g>
</g>
<!-- Node12 -->
<g id="Node000012" class="node">
<title>Node12</title>
<g id="a_Node000012"><a xlink:title=" ">
<polygon fill="#e0e0e0" stroke="#999999" points="151.79,-129 91.79,-129 91.79,-110 151.79,-110 151.79,-129"/>
<text text-anchor="middle" x="121.79" y="-117" font-family="Helvetica,sans-Serif" font-size="10.00">iostream</text>
</a>
</g>
</g>
<!-- Node4&#45;&gt;Node12 -->
<g id="edge13_Node000004_Node000012" class="edge">
<title>Node4&#45;&gt;Node12</title>
<g id="a_edge13_Node000004_Node000012"><a xlink:title=" ">
<path fill="none" stroke="#63b8ff" d="M170.47,-164.98C161.98,-157.23 149.23,-145.58 138.91,-136.14"/>
<polygon fill="#63b8ff" stroke="#63b8ff" points="141.02,-133.33 131.28,-129.17 136.3,-138.5 141.02,-133.33"/>
</a>
</g>
</g>
<!-- Node6&#45;&gt;Node5 -->
<g id="edge11_Node000006_Node000005" class="edge">
<title>Node6&#45;&gt;Node5</title>
<g id="a_edge11_Node000006_Node000005"><a xlink:title=" ">
<path fill="none" stroke="#63b8ff" d="M231.66,-109.98C197.64,-100.97 143.79,-86.7 106.29,-76.76"/>
<polygon fill="#63b8ff" stroke="#63b8ff" points="106.74,-73.26 96.17,-74.08 104.94,-80.03 106.74,-73.26"/>
</a>
</g>
</g>
<!-- Node7 -->
<g id="Node000007" class="node">
<title>Node7</title>
<g id="a_Node000007"><a xlink:href="_fatal_error_8h.html" target="_top" xlink:title=" ">
<polygon fill="white" stroke="#666666" points="325.79,-74 195.79,-74 195.79,-55 325.79,-55 325.79,-74"/>
<text text-anchor="middle" x="260.79" y="-62" font-family="Helvetica,sans-Serif" font-size="10.00">Cpl/System/FatalError.h</text>
</a>
</g>
</g>
<!-- Node6&#45;&gt;Node7 -->
<g id="edge6_Node000006_Node000007" class="edge">
<title>Node6&#45;&gt;Node7</title>
<g id="a_edge6_Node000006_Node000007"><a xlink:title=" ">
<path fill="none" stroke="#63b8ff" d="M263.29,-109.75C262.9,-102.8 262.34,-92.85 261.84,-84.13"/>
<polygon fill="#63b8ff" stroke="#63b8ff" points="265.34,-83.88 261.28,-74.09 258.35,-84.27 265.34,-83.88"/>
</a>
</g>
</g>
<!-- Node6&#45;&gt;Node9 -->
<g id="edge9_Node000006_Node000009" class="edge">
<title>Node6&#45;&gt;Node9</title>
<g id="a_edge9_Node000006_Node000009"><a xlink:title=" ">
<path fill="none" stroke="#63b8ff" d="M306.21,-109.98C357.4,-99.71 442.63,-82.6 491.11,-72.86"/>
<polygon fill="#63b8ff" stroke="#63b8ff" points="492.04,-76.25 501.16,-70.85 490.67,-69.38 492.04,-76.25"/>
</a>
</g>
</g>
<!-- Node10 -->
<g id="Node000010" class="node">
<title>Node10</title>
<g id="a_Node000010"><a xlink:title=" ">
<polygon fill="#e0e0e0" stroke="#999999" points="177.29,-74 124.29,-74 124.29,-55 177.29,-55 177.29,-74"/>
<text text-anchor="middle" x="150.79" y="-62" font-family="Helvetica,sans-Serif" font-size="10.00">string.h</text>
</a>
</g>
</g>
<!-- Node6&#45;&gt;Node10 -->
<g id="edge10_Node000006_Node000010" class="edge">
<title>Node6&#45;&gt;Node10</title>
<g id="a_edge10_Node000006_Node000010"><a xlink:title=" ">
<path fill="none" stroke="#63b8ff" d="M245.63,-109.98C227.54,-101.5 199.5,-88.35 178.6,-78.54"/>
<polygon fill="#63b8ff" stroke="#63b8ff" points="179.81,-75.25 169.27,-74.17 176.84,-81.59 179.81,-75.25"/>
</a>
</g>
</g>
<!-- Node7&#45;&gt;Node2 -->
<g id="edge8_Node000007_Node000002" class="edge">
<title>Node7&#45;&gt;Node2</title>
<g id="a_edge8_Node000007_Node000002"><a xlink:title=" ">
<path fill="none" stroke="#63b8ff" d="M239.1,-54.98C216.99,-46.3 182.47,-32.75 157.34,-22.88"/>
<polygon fill="#63b8ff" stroke="#63b8ff" points="158.46,-19.57 147.87,-19.17 155.9,-26.08 158.46,-19.57"/>
</a>
</g>
</g>
<!-- Node7&#45;&gt;Node8 -->
<g id="edge7_Node000007_Node000008" class="edge">
<title>Node7&#45;&gt;Node8</title>
<g id="a_edge7_Node000007_Node000008"><a xlink:title=" ">
<path fill="none" stroke="#63b8ff" d="M268.39,-54.75C274.95,-47.18 284.61,-36.05 292.6,-26.84"/>
<polygon fill="#63b8ff" stroke="#63b8ff" points="295.42,-28.94 299.33,-19.09 290.14,-24.35 295.42,-28.94"/>
</a>
</g>
</g>
<!-- Node13&#45;&gt;Node3 -->
<g id="edge15_Node000013_Node000003" class="edge">
<title>Node13&#45;&gt;Node3</title>
<g id="a_edge15_Node000013_Node000003"><a xlink:title=" ">
<path fill="none" stroke="#63b8ff" d="M478.36,-164.75C471.94,-157.18 462.48,-146.05 454.67,-136.84"/>
<polygon fill="#63b8ff" stroke="#63b8ff" points="457.22,-134.45 448.08,-129.09 451.89,-138.98 457.22,-134.45"/>
</a>
</g>
</g>
<!-- Node13&#45;&gt;Node9 -->
<g id="edge16_Node000013_Node000009" class="edge">
<title>Node13&#45;&gt;Node9</title>
<g id="a_edge16_Node000013_Node000009"><a xlink:title=" ">
<path fill="none" stroke="#63b8ff" d="M490.87,-164.86C495.9,-156.06 503.58,-141.9 508.79,-129 514.72,-114.31 519.77,-97.06 523.17,-84.24"/>
<polygon fill="#63b8ff" stroke="#63b8ff" points="526.62,-84.86 525.71,-74.3 519.84,-83.12 526.62,-84.86"/>
</a>
</g>
</g>
</g>
</svg>
