<?xml version="1.0" encoding="UTF-8" standalone="no"?>
<!DOCTYPE svg PUBLIC "-//W3C//DTD SVG 1.1//EN"
 "http://www.w3.org/Graphics/SVG/1.1/DTD/svg11.dtd">
<!-- Generated by graphviz version 2.43.0 (0)
 -->
<!-- Title: Cpl/Dm/ModelDatabaseApi.h Pages: 1 -->
<svg width="1370pt" height="478pt"
 viewBox="0.00 0.00 1370.00 478.00" xmlns="http://www.w3.org/2000/svg" xmlns:xlink="http://www.w3.org/1999/xlink">
<g id="graph0" class="graph" transform="scale(1 1) rotate(0) translate(4 474)">
<title>Cpl/Dm/ModelDatabaseApi.h</title>
<!-- Node1 -->
<g id="Node000001" class="node">
<title>Node1</title>
<g id="a_Node000001"><a xlink:title=" ">
<polygon fill="#999999" stroke="#666666" points="556.5,-470 399.5,-470 399.5,-451 556.5,-451 556.5,-470"/>
<text text-anchor="middle" x="478" y="-458" font-family="Helvetica,sans-Serif" font-size="10.00">Cpl/Dm/ModelDatabaseApi.h</text>
</a>
</g>
</g>
<!-- Node2 -->
<g id="Node000002" class="node">
<title>Node2</title>
<g id="a_Node000002"><a xlink:href="_model_database_8h.html" target="_top" xlink:title=" ">
<polygon fill="white" stroke="#666666" points="402.5,-409.5 261.5,-409.5 261.5,-390.5 402.5,-390.5 402.5,-409.5"/>
<text text-anchor="middle" x="332" y="-397.5" font-family="Helvetica,sans-Serif" font-size="10.00">Cpl/Dm/ModelDatabase.h</text>
</a>
</g>
</g>
<!-- Node1&#45;&gt;Node2 -->
<g id="edge1_Node000001_Node000002" class="edge">
<title>Node1&#45;&gt;Node2</title>
<g id="a_edge1_Node000001_Node000002"><a xlink:title=" ">
<path fill="none" stroke="#63b8ff" d="M447.38,-447.23C419.16,-435.92 378.03,-419.44 353.26,-409.52"/>
<polygon fill="#63b8ff" stroke="#63b8ff" points="446.19,-450.52 456.77,-450.99 448.79,-444.03 446.19,-450.52"/>
</a>
</g>
</g>
<!-- Node29 -->
<g id="Node000029" class="node">
<title>Node29</title>
<g id="a_Node000029"><a xlink:href="_dm_8h.html" target="_top" xlink:title=" ">
<polygon fill="white" stroke="#666666" points="535.5,-409.5 420.5,-409.5 420.5,-390.5 535.5,-390.5 535.5,-409.5"/>
<text text-anchor="middle" x="478" y="-397.5" font-family="Helvetica,sans-Serif" font-size="10.00">Cpl/Dm/TShell/Dm.h</text>
</a>
</g>
</g>
<!-- Node1&#45;&gt;Node29 -->
<g id="edge32_Node000001_Node000029" class="edge">
<title>Node1&#45;&gt;Node29</title>
<g id="a_edge32_Node000001_Node000029"><a xlink:title=" ">
<path fill="none" stroke="#63b8ff" d="M478,-440.66C478,-430.24 478,-417.8 478,-409.67"/>
<polygon fill="#63b8ff" stroke="#63b8ff" points="474.5,-440.87 478,-450.87 481.5,-440.87 474.5,-440.87"/>
</a>
</g>
</g>
<!-- Node30 -->
<g id="Node000030" class="node">
<title>Node30</title>
<g id="a_Node000030"><a xlink:href="_fs_8h.html" target="_top" xlink:title=" ">
<polygon fill="white" stroke="#666666" points="654.5,-415 553.5,-415 553.5,-385 654.5,-385 654.5,-415"/>
<text text-anchor="start" x="561.5" y="-403" font-family="Helvetica,sans-Serif" font-size="10.00">Cpl/Io/File/Littlefs</text>
<text text-anchor="middle" x="604" y="-392" font-family="Helvetica,sans-Serif" font-size="10.00">/TShell/Fs.h</text>
</a>
</g>
</g>
<!-- Node1&#45;&gt;Node30 -->
<g id="edge33_Node000001_Node000030" class="edge">
<title>Node1&#45;&gt;Node30</title>
<g id="a_edge33_Node000001_Node000030"><a xlink:title=" ">
<path fill="none" stroke="#63b8ff" d="M505.53,-446.72C525.59,-437.41 552.75,-424.8 573.46,-415.18"/>
<polygon fill="#63b8ff" stroke="#63b8ff" points="503.92,-443.61 496.32,-450.99 506.87,-449.96 503.92,-443.61"/>
</a>
</g>
</g>
<!-- Node3 -->
<g id="Node000003" class="node">
<title>Node3</title>
<g id="a_Node000003"><a xlink:href="_model_point_common___8h.html" target="_top" xlink:title=" ">
<polygon fill="white" stroke="#666666" points="756.5,-349 587.5,-349 587.5,-330 756.5,-330 756.5,-349"/>
<text text-anchor="middle" x="672" y="-337" font-family="Helvetica,sans-Serif" font-size="10.00">Cpl/Dm/ModelPointCommon_.h</text>
</a>
</g>
</g>
<!-- Node2&#45;&gt;Node3 -->
<g id="edge2_Node000002_Node000003" class="edge">
<title>Node2&#45;&gt;Node3</title>
<g id="a_edge2_Node000002_Node000003"><a xlink:title=" ">
<path fill="none" stroke="#63b8ff" d="M390.22,-388.64C397.22,-387.41 404.27,-386.17 411,-385 484.14,-372.28 568.87,-357.9 621.46,-349.02"/>
<polygon fill="#63b8ff" stroke="#63b8ff" points="389.27,-385.25 380.03,-390.44 390.49,-392.14 389.27,-385.25"/>
</a>
</g>
</g>
<!-- Node6 -->
<g id="Node000006" class="node">
<title>Node6</title>
<g id="a_Node000006"><a xlink:href="_in_out_model_points_8h.html" target="_top" xlink:title="This file defines all of the Model Points for the Simulated DIO InOut driver.">
<polygon fill="white" stroke="#666666" points="120,-228 0,-228 0,-198 120,-198 120,-228"/>
<text text-anchor="start" x="8" y="-216" font-family="Helvetica,sans-Serif" font-size="10.00">Driver/DIO/Simulated</text>
<text text-anchor="middle" x="60" y="-205" font-family="Helvetica,sans-Serif" font-size="10.00">/InOutModelPoints.h</text>
</a>
</g>
</g>
<!-- Node2&#45;&gt;Node6 -->
<g id="edge31_Node000002_Node000006" class="edge">
<title>Node2&#45;&gt;Node6</title>
<g id="a_edge31_Node000002_Node000006"><a xlink:title=" ">
<path fill="none" stroke="#63b8ff" d="M310.66,-384.49C259.69,-349.82 131.33,-262.52 80.85,-228.18"/>
<polygon fill="#63b8ff" stroke="#63b8ff" points="309.01,-387.6 319.25,-390.33 312.95,-381.81 309.01,-387.6"/>
</a>
</g>
</g>
<!-- Node4 -->
<g id="Node000004" class="node">
<title>Node4</title>
<g id="a_Node000004"><a xlink:href="_array_8h.html" target="_top" xlink:title=" ">
<polygon fill="white" stroke="#666666" points="359.5,-288.5 252.5,-288.5 252.5,-269.5 359.5,-269.5 359.5,-288.5"/>
<text text-anchor="middle" x="306" y="-276.5" font-family="Helvetica,sans-Serif" font-size="10.00">Cpl/Dm/Mp/Array.h</text>
</a>
</g>
</g>
<!-- Node3&#45;&gt;Node4 -->
<g id="edge3_Node000003_Node000004" class="edge">
<title>Node3&#45;&gt;Node4</title>
<g id="a_edge3_Node000003_Node000004"><a xlink:title=" ">
<path fill="none" stroke="#63b8ff" d="M594.08,-328.65C532.73,-320.5 445.15,-308.03 369,-294 360.3,-292.4 350.96,-290.45 342.22,-288.52"/>
<polygon fill="#63b8ff" stroke="#63b8ff" points="593.7,-332.13 604.08,-329.96 594.62,-325.19 593.7,-332.13"/>
</a>
</g>
</g>
<!-- Node5 -->
<g id="Node000005" class="node">
<title>Node5</title>
<g id="a_Node000005"><a xlink:href="_bool_8h.html" target="_top" xlink:title=" ">
<polygon fill="white" stroke="#666666" points="482,-288.5 378,-288.5 378,-269.5 482,-269.5 482,-288.5"/>
<text text-anchor="middle" x="430" y="-276.5" font-family="Helvetica,sans-Serif" font-size="10.00">Cpl/Dm/Mp/Bool.h</text>
</a>
</g>
</g>
<!-- Node3&#45;&gt;Node5 -->
<g id="edge4_Node000003_Node000005" class="edge">
<title>Node3&#45;&gt;Node5</title>
<g id="a_edge4_Node000003_Node000005"><a xlink:title=" ">
<path fill="none" stroke="#63b8ff" d="M626.95,-327.61C580.18,-316.3 508,-298.85 465.23,-288.52"/>
<polygon fill="#63b8ff" stroke="#63b8ff" points="626.27,-331.05 636.81,-329.99 627.91,-324.24 626.27,-331.05"/>
</a>
</g>
</g>
<!-- Node8 -->
<g id="Node000008" class="node">
<title>Node8</title>
<g id="a_Node000008"><a xlink:href="_elapsed_precision_time_8h.html" target="_top" xlink:title=" ">
<polygon fill="white" stroke="#666666" points="829,-294 673,-294 673,-264 829,-264 829,-294"/>
<text text-anchor="start" x="681" y="-282" font-family="Helvetica,sans-Serif" font-size="10.00">Cpl/Dm/Mp/ElapsedPrecision</text>
<text text-anchor="middle" x="751" y="-271" font-family="Helvetica,sans-Serif" font-size="10.00">Time.h</text>
</a>
</g>
</g>
<!-- Node3&#45;&gt;Node8 -->
<g id="edge7_Node000003_Node000008" class="edge">
<title>Node3&#45;&gt;Node8</title>
<g id="a_edge7_Node000003_Node000008"><a xlink:title=" ">
<path fill="none" stroke="#63b8ff" d="M691.9,-323.77C704.17,-314.68 719.82,-303.09 731.94,-294.11"/>
<polygon fill="#63b8ff" stroke="#63b8ff" points="689.61,-321.1 683.66,-329.87 693.78,-326.73 689.61,-321.1"/>
</a>
</g>
</g>
<!-- Node9 -->
<g id="Node000009" class="node">
<title>Node9</title>
<g id="a_Node000009"><a xlink:href="_enum___8h.html" target="_top" xlink:title=" ">
<polygon fill="white" stroke="#666666" points="963,-288.5 847,-288.5 847,-269.5 963,-269.5 963,-288.5"/>
<text text-anchor="middle" x="905" y="-276.5" font-family="Helvetica,sans-Serif" font-size="10.00">Cpl/Dm/Mp/Enum_.h</text>
</a>
</g>
</g>
<!-- Node3&#45;&gt;Node9 -->
<g id="edge8_Node000003_Node000009" class="edge">
<title>Node3&#45;&gt;Node9</title>
<g id="a_edge8_Node000003_Node000009"><a xlink:title=" ">
<path fill="none" stroke="#63b8ff" d="M715.66,-327.54C760.7,-316.23 829.99,-298.83 871.08,-288.52"/>
<polygon fill="#63b8ff" stroke="#63b8ff" points="714.73,-324.16 705.88,-329.99 716.43,-330.95 714.73,-324.16"/>
</a>
</g>
</g>
<!-- Node10 -->
<g id="Node000010" class="node">
<title>Node10</title>
<g id="a_Node000010"><a xlink:href="_numeric_8h.html" target="_top" xlink:title=" ">
<polygon fill="white" stroke="#666666" points="655,-288.5 531,-288.5 531,-269.5 655,-269.5 655,-288.5"/>
<text text-anchor="middle" x="593" y="-276.5" font-family="Helvetica,sans-Serif" font-size="10.00">Cpl/Dm/Mp/Numeric.h</text>
</a>
</g>
</g>
<!-- Node3&#45;&gt;Node10 -->
<g id="edge9_Node000003_Node000010" class="edge">
<title>Node3&#45;&gt;Node10</title>
<g id="a_edge9_Node000003_Node000010"><a xlink:title=" ">
<path fill="none" stroke="#63b8ff" d="M652.21,-323.85C637.25,-312.77 617.21,-297.93 604.7,-288.67"/>
<polygon fill="#63b8ff" stroke="#63b8ff" points="650.22,-326.73 660.34,-329.87 654.39,-321.1 650.22,-326.73"/>
</a>
</g>
</g>
<!-- Node27 -->
<g id="Node000027" class="node">
<title>Node27</title>
<g id="a_Node000027"><a xlink:href="_ref_counter_8h.html" target="_top" xlink:title=" ">
<polygon fill="white" stroke="#666666" points="1118.5,-288.5 981.5,-288.5 981.5,-269.5 1118.5,-269.5 1118.5,-288.5"/>
<text text-anchor="middle" x="1050" y="-276.5" font-family="Helvetica,sans-Serif" font-size="10.00">Cpl/Dm/Mp/RefCounter.h</text>
</a>
</g>
</g>
<!-- Node3&#45;&gt;Node27 -->
<g id="edge29_Node000003_Node000027" class="edge">
<title>Node3&#45;&gt;Node27</title>
<g id="a_edge29_Node000003_Node000027"><a xlink:title=" ">
<path fill="none" stroke="#63b8ff" d="M743.54,-328.51C804.38,-319.87 894.02,-306.78 972,-294 982.32,-292.31 993.38,-290.39 1003.85,-288.52"/>
<polygon fill="#63b8ff" stroke="#63b8ff" points="742.69,-325.1 733.28,-329.97 743.67,-332.03 742.69,-325.1"/>
</a>
</g>
</g>
<!-- Node28 -->
<g id="Node000028" class="node">
<title>Node28</title>
<g id="a_Node000028"><a xlink:href="_dm_2_mp_2_string_8h.html" target="_top" xlink:title=" ">
<polygon fill="white" stroke="#666666" points="1247.5,-288.5 1136.5,-288.5 1136.5,-269.5 1247.5,-269.5 1247.5,-288.5"/>
<text text-anchor="middle" x="1192" y="-276.5" font-family="Helvetica,sans-Serif" font-size="10.00">Cpl/Dm/Mp/String.h</text>
</a>
</g>
</g>
<!-- Node3&#45;&gt;Node28 -->
<g id="edge30_Node000003_Node000028" class="edge">
<title>Node3&#45;&gt;Node28</title>
<g id="a_edge30_Node000003_Node000028"><a xlink:title=" ">
<path fill="none" stroke="#63b8ff" d="M766.8,-332.41C859.12,-325.73 1003.23,-313.32 1127,-294 1136.47,-292.52 1146.63,-290.53 1156.04,-288.52"/>
<polygon fill="#63b8ff" stroke="#63b8ff" points="766.37,-328.93 756.64,-333.14 766.87,-335.91 766.37,-328.93"/>
</a>
</g>
</g>
<!-- Node5&#45;&gt;Node6 -->
<g id="edge5_Node000005_Node000006" class="edge">
<title>Node5&#45;&gt;Node6</title>
<g id="a_edge5_Node000005_Node000006"><a xlink:title=" ">
<path fill="none" stroke="#63b8ff" d="M383.87,-267.21C378.53,-266.07 373.15,-264.98 368,-264 264.62,-244.4 237.71,-245.78 134,-228 129.49,-227.23 124.83,-226.4 120.14,-225.56"/>
<polygon fill="#63b8ff" stroke="#63b8ff" points="383.51,-270.72 394.03,-269.43 385,-263.88 383.51,-270.72"/>
</a>
</g>
</g>
<!-- Node7 -->
<g id="Node000007" class="node">
<title>Node7</title>
<g id="a_Node000007"><a xlink:href="_driver_2_r_h_temp_2_simulated_2_api_8h.html" target="_top" xlink:title=" ">
<polygon fill="white" stroke="#666666" points="219.5,-162 76.5,-162 76.5,-132 219.5,-132 219.5,-162"/>
<text text-anchor="start" x="84.5" y="-150" font-family="Helvetica,sans-Serif" font-size="10.00">Driver/RHTemp/Simulated</text>
<text text-anchor="middle" x="148" y="-139" font-family="Helvetica,sans-Serif" font-size="10.00">/Api.h</text>
</a>
</g>
</g>
<!-- Node5&#45;&gt;Node7 -->
<g id="edge6_Node000005_Node000007" class="edge">
<title>Node5&#45;&gt;Node7</title>
<g id="a_edge6_Node000005_Node000007"><a xlink:title=" ">
<path fill="none" stroke="#63b8ff" d="M383.44,-267.25C378.23,-266.12 373.01,-265.01 368,-264 279.05,-246 232.94,-290.35 167,-228 148.95,-210.93 146.66,-180.11 147.04,-162.11"/>
<polygon fill="#63b8ff" stroke="#63b8ff" points="382.82,-270.7 393.34,-269.44 384.33,-263.86 382.82,-270.7"/>
</a>
</g>
</g>
<!-- Node11 -->
<g id="Node000011" class="node">
<title>Node11</title>
<g id="a_Node000011"><a xlink:href="_bit_array16_8h.html" target="_top" xlink:title=" ">
<polygon fill="white" stroke="#666666" points="436,-222.5 302,-222.5 302,-203.5 436,-203.5 436,-222.5"/>
<text text-anchor="middle" x="369" y="-210.5" font-family="Helvetica,sans-Serif" font-size="10.00">Cpl/Dm/Mp/BitArray16.h</text>
</a>
</g>
</g>
<!-- Node10&#45;&gt;Node11 -->
<g id="edge10_Node000010_Node000011" class="edge">
<title>Node10&#45;&gt;Node11</title>
<g id="a_edge10_Node000010_Node000011"><a xlink:title=" ">
<path fill="none" stroke="#63b8ff" d="M552.97,-266.56C508.83,-253.95 438.8,-233.94 399.09,-222.6"/>
<polygon fill="#63b8ff" stroke="#63b8ff" points="552.21,-269.99 562.79,-269.37 554.14,-263.26 552.21,-269.99"/>
</a>
</g>
</g>
<!-- Node12 -->
<g id="Node000012" class="node">
<title>Node12</title>
<g id="a_Node000012"><a xlink:href="_bit_array32_8h.html" target="_top" xlink:title=" ">
<polygon fill="white" stroke="#666666" points="588,-222.5 454,-222.5 454,-203.5 588,-203.5 588,-222.5"/>
<text text-anchor="middle" x="521" y="-210.5" font-family="Helvetica,sans-Serif" font-size="10.00">Cpl/Dm/Mp/BitArray32.h</text>
</a>
</g>
</g>
<!-- Node10&#45;&gt;Node12 -->
<g id="edge11_Node000010_Node000012" class="edge">
<title>Node10&#45;&gt;Node12</title>
<g id="a_edge11_Node000010_Node000012"><a xlink:title=" ">
<path fill="none" stroke="#63b8ff" d="M575.76,-262.68C561.79,-250.26 542.58,-233.18 531.02,-222.91"/>
<polygon fill="#63b8ff" stroke="#63b8ff" points="573.49,-265.34 583.29,-269.37 578.14,-260.11 573.49,-265.34"/>
</a>
</g>
</g>
<!-- Node13 -->
<g id="Node000013" class="node">
<title>Node13</title>
<g id="a_Node000013"><a xlink:href="_double_8h.html" target="_top" xlink:title=" ">
<polygon fill="white" stroke="#666666" points="723.5,-222.5 606.5,-222.5 606.5,-203.5 723.5,-203.5 723.5,-222.5"/>
<text text-anchor="middle" x="665" y="-210.5" font-family="Helvetica,sans-Serif" font-size="10.00">Cpl/Dm/Mp/Double.h</text>
</a>
</g>
</g>
<!-- Node10&#45;&gt;Node13 -->
<g id="edge12_Node000010_Node000013" class="edge">
<title>Node10&#45;&gt;Node13</title>
<g id="a_edge12_Node000010_Node000013"><a xlink:title=" ">
<path fill="none" stroke="#63b8ff" d="M610.24,-262.68C624.21,-250.26 643.42,-233.18 654.98,-222.91"/>
<polygon fill="#63b8ff" stroke="#63b8ff" points="607.86,-260.11 602.71,-269.37 612.51,-265.34 607.86,-260.11"/>
</a>
</g>
</g>
<!-- Node14 -->
<g id="Node000014" class="node">
<title>Node14</title>
<g id="a_Node000014"><a xlink:href="_float_8h.html" target="_top" xlink:title=" ">
<polygon fill="white" stroke="#666666" points="283.5,-222.5 176.5,-222.5 176.5,-203.5 283.5,-203.5 283.5,-222.5"/>
<text text-anchor="middle" x="230" y="-210.5" font-family="Helvetica,sans-Serif" font-size="10.00">Cpl/Dm/Mp/Float.h</text>
</a>
</g>
</g>
<!-- Node10&#45;&gt;Node14 -->
<g id="edge13_Node000010_Node000014" class="edge">
<title>Node10&#45;&gt;Node14</title>
<g id="a_edge13_Node000010_Node000014"><a xlink:title=" ">
<path fill="none" stroke="#63b8ff" d="M526.19,-267.91C465.27,-258.47 372.87,-243.52 293,-228 284.53,-226.35 275.46,-224.43 266.91,-222.55"/>
<polygon fill="#63b8ff" stroke="#63b8ff" points="526.02,-271.43 536.44,-269.5 527.09,-264.51 526.02,-271.43"/>
</a>
</g>
</g>
<!-- Node16 -->
<g id="Node000016" class="node">
<title>Node16</title>
<g id="a_Node000016"><a xlink:href="_int32_8h.html" target="_top" xlink:title=" ">
<polygon fill="white" stroke="#666666" points="848.5,-222.5 741.5,-222.5 741.5,-203.5 848.5,-203.5 848.5,-222.5"/>
<text text-anchor="middle" x="795" y="-210.5" font-family="Helvetica,sans-Serif" font-size="10.00">Cpl/Dm/Mp/Int32.h</text>
</a>
</g>
</g>
<!-- Node10&#45;&gt;Node16 -->
<g id="edge16_Node000010_Node000016" class="edge">
<title>Node10&#45;&gt;Node16</title>
<g id="a_edge16_Node000010_Node000016"><a xlink:title=" ">
<path fill="none" stroke="#63b8ff" d="M629.85,-266.32C669.7,-253.7 732.28,-233.87 767.87,-222.6"/>
<polygon fill="#63b8ff" stroke="#63b8ff" points="628.72,-263.01 620.24,-269.37 630.83,-269.68 628.72,-263.01"/>
</a>
</g>
</g>
<!-- Node17 -->
<g id="Node000017" class="node">
<title>Node17</title>
<g id="a_Node000017"><a xlink:href="_int64_8h.html" target="_top" xlink:title=" ">
<polygon fill="white" stroke="#666666" points="973.5,-222.5 866.5,-222.5 866.5,-203.5 973.5,-203.5 973.5,-222.5"/>
<text text-anchor="middle" x="920" y="-210.5" font-family="Helvetica,sans-Serif" font-size="10.00">Cpl/Dm/Mp/Int64.h</text>
</a>
</g>
</g>
<!-- Node10&#45;&gt;Node17 -->
<g id="edge17_Node000010_Node000017" class="edge">
<title>Node10&#45;&gt;Node17</title>
<g id="a_edge17_Node000010_Node000017"><a xlink:title=" ">
<path fill="none" stroke="#63b8ff" d="M645.95,-267.5C652.03,-266.31 658.15,-265.12 664,-264 749.69,-247.56 771.51,-245.47 857,-228 865.34,-226.3 874.28,-224.37 882.73,-222.5"/>
<polygon fill="#63b8ff" stroke="#63b8ff" points="644.93,-264.13 635.79,-269.49 646.27,-271 644.93,-264.13"/>
</a>
</g>
</g>
<!-- Node18 -->
<g id="Node000018" class="node">
<title>Node18</title>
<g id="a_Node000018"><a xlink:href="_uint32_8h.html" target="_top" xlink:title=" ">
<polygon fill="white" stroke="#666666" points="1106.5,-222.5 991.5,-222.5 991.5,-203.5 1106.5,-203.5 1106.5,-222.5"/>
<text text-anchor="middle" x="1049" y="-210.5" font-family="Helvetica,sans-Serif" font-size="10.00">Cpl/Dm/Mp/Uint32.h</text>
</a>
</g>
</g>
<!-- Node10&#45;&gt;Node18 -->
<g id="edge18_Node000010_Node000018" class="edge">
<title>Node10&#45;&gt;Node18</title>
<g id="a_edge18_Node000010_Node000018"><a xlink:title=" ">
<path fill="none" stroke="#63b8ff" d="M643.43,-267.53C650.33,-266.25 657.33,-265.03 664,-264 804.56,-242.22 841.57,-250.57 982,-228 991.5,-226.47 1001.7,-224.51 1011.2,-222.54"/>
<polygon fill="#63b8ff" stroke="#63b8ff" points="642.62,-264.12 633.45,-269.43 643.93,-271 642.62,-264.12"/>
</a>
</g>
</g>
<!-- Node24 -->
<g id="Node000024" class="node">
<title>Node24</title>
<g id="a_Node000024"><a xlink:href="_uint64_8h.html" target="_top" xlink:title=" ">
<polygon fill="white" stroke="#666666" points="1239.5,-222.5 1124.5,-222.5 1124.5,-203.5 1239.5,-203.5 1239.5,-222.5"/>
<text text-anchor="middle" x="1182" y="-210.5" font-family="Helvetica,sans-Serif" font-size="10.00">Cpl/Dm/Mp/Uint64.h</text>
</a>
</g>
</g>
<!-- Node10&#45;&gt;Node24 -->
<g id="edge25_Node000010_Node000024" class="edge">
<title>Node10&#45;&gt;Node24</title>
<g id="a_edge25_Node000010_Node000024"><a xlink:title=" ">
<path fill="none" stroke="#63b8ff" d="M641.86,-267.6C649.25,-266.25 656.81,-264.99 664,-264 863.19,-236.5 915.97,-256.62 1115,-228 1124.88,-226.58 1135.49,-224.58 1145.29,-222.54"/>
<polygon fill="#63b8ff" stroke="#63b8ff" points="641.1,-264.18 631.93,-269.49 642.4,-271.06 641.1,-264.18"/>
</a>
</g>
</g>
<!-- Node26 -->
<g id="Node000026" class="node">
<title>Node26</title>
<g id="a_Node000026"><a xlink:href="_void_8h.html" target="_top" xlink:title=" ">
<polygon fill="white" stroke="#666666" points="1362,-222.5 1258,-222.5 1258,-203.5 1362,-203.5 1362,-222.5"/>
<text text-anchor="middle" x="1310" y="-210.5" font-family="Helvetica,sans-Serif" font-size="10.00">Cpl/Dm/Mp/Void.h</text>
</a>
</g>
</g>
<!-- Node10&#45;&gt;Node26 -->
<g id="edge28_Node000010_Node000026" class="edge">
<title>Node10&#45;&gt;Node26</title>
<g id="a_edge28_Node000010_Node000026"><a xlink:title=" ">
<path fill="none" stroke="#63b8ff" d="M641.58,-267.53C649.06,-266.18 656.72,-264.94 664,-264 922.36,-230.73 991.19,-265.26 1249,-228 1258.25,-226.66 1268.17,-224.64 1277.26,-222.55"/>
<polygon fill="#63b8ff" stroke="#63b8ff" points="640.71,-264.13 631.54,-269.43 642.01,-271.01 640.71,-264.13"/>
</a>
</g>
</g>
<!-- Node14&#45;&gt;Node7 -->
<g id="edge15_Node000014_Node000007" class="edge">
<title>Node14&#45;&gt;Node7</title>
<g id="a_edge15_Node000014_Node000007"><a xlink:title=" ">
<path fill="none" stroke="#63b8ff" d="M210.8,-197.02C197.3,-186.48 179.34,-172.46 166.09,-162.12"/>
<polygon fill="#63b8ff" stroke="#63b8ff" points="208.9,-199.98 218.94,-203.37 213.21,-194.46 208.9,-199.98"/>
</a>
</g>
</g>
<!-- Node15 -->
<g id="Node000015" class="node">
<title>Node15</title>
<g id="a_Node000015"><a xlink:href="_cpl_2_m_app_2_temperature_2_api_8h.html" target="_top" xlink:title=" ">
<polygon fill="white" stroke="#666666" points="366,-162 238,-162 238,-132 366,-132 366,-162"/>
<text text-anchor="start" x="246" y="-150" font-family="Helvetica,sans-Serif" font-size="10.00">Cpl/MApp/Temperature</text>
<text text-anchor="middle" x="302" y="-139" font-family="Helvetica,sans-Serif" font-size="10.00">/Api.h</text>
</a>
</g>
</g>
<!-- Node14&#45;&gt;Node15 -->
<g id="edge14_Node000014_Node000015" class="edge">
<title>Node14&#45;&gt;Node15</title>
<g id="a_edge14_Node000014_Node000015"><a xlink:title=" ">
<path fill="none" stroke="#63b8ff" d="M247.2,-196.71C259.02,-186.21 274.59,-172.36 286.12,-162.12"/>
<polygon fill="#63b8ff" stroke="#63b8ff" points="244.86,-194.11 239.71,-203.37 249.51,-199.34 244.86,-194.11"/>
</a>
</g>
</g>
<!-- Node19 -->
<g id="Node000019" class="node">
<title>Node19</title>
<g id="a_Node000019"><a xlink:href="_ring_buffer_m_p_8h.html" target="_top" xlink:title=" ">
<polygon fill="white" stroke="#666666" points="1128.5,-156.5 969.5,-156.5 969.5,-137.5 1128.5,-137.5 1128.5,-156.5"/>
<text text-anchor="middle" x="1049" y="-144.5" font-family="Helvetica,sans-Serif" font-size="10.00">Cpl/Container/RingBufferMP.h</text>
</a>
</g>
</g>
<!-- Node18&#45;&gt;Node19 -->
<g id="edge19_Node000018_Node000019" class="edge">
<title>Node18&#45;&gt;Node19</title>
<g id="a_edge19_Node000018_Node000019"><a xlink:title=" ">
<path fill="none" stroke="#63b8ff" d="M1049,-193.08C1049,-181.13 1049,-166.22 1049,-156.91"/>
<polygon fill="#63b8ff" stroke="#63b8ff" points="1045.5,-193.37 1049,-203.37 1052.5,-193.37 1045.5,-193.37"/>
</a>
</g>
</g>
<!-- Node20 -->
<g id="Node000020" class="node">
<title>Node20</title>
<g id="a_Node000020"><a xlink:href="_cpl_2_logging_2_api_8h.html" target="_top" xlink:title=" ">
<polygon fill="white" stroke="#666666" points="985.5,-90.5 884.5,-90.5 884.5,-71.5 985.5,-71.5 985.5,-90.5"/>
<text text-anchor="middle" x="935" y="-78.5" font-family="Helvetica,sans-Serif" font-size="10.00">Cpl/Logging/Api.h</text>
</a>
</g>
</g>
<!-- Node18&#45;&gt;Node20 -->
<g id="edge24_Node000018_Node000020" class="edge">
<title>Node18&#45;&gt;Node20</title>
<g id="a_edge24_Node000018_Node000020"><a xlink:title=" ">
<path fill="none" stroke="#63b8ff" d="M1013.59,-199.51C995.26,-191.4 973.87,-179.12 960,-162 942.5,-140.4 937.2,-106.5 935.63,-90.68"/>
<polygon fill="#63b8ff" stroke="#63b8ff" points="1012.27,-202.75 1022.85,-203.37 1014.97,-196.29 1012.27,-202.75"/>
</a>
</g>
</g>
<!-- Node19&#45;&gt;Node20 -->
<g id="edge20_Node000019_Node000020" class="edge">
<title>Node19&#45;&gt;Node20</title>
<g id="a_edge20_Node000019_Node000020"><a xlink:title=" ">
<path fill="none" stroke="#63b8ff" d="M1024.7,-132.36C1002.26,-119.76 969.59,-101.42 950.5,-90.7"/>
<polygon fill="#63b8ff" stroke="#63b8ff" points="1023.19,-135.53 1033.63,-137.37 1026.62,-129.42 1023.19,-135.53"/>
</a>
</g>
</g>
<!-- Node21 -->
<g id="Node000021" class="node">
<title>Node21</title>
<g id="a_Node000021"><a xlink:href="_log_sink_8h.html" target="_top" xlink:title=" ">
<polygon fill="white" stroke="#666666" points="1128,-90.5 1004,-90.5 1004,-71.5 1128,-71.5 1128,-90.5"/>
<text text-anchor="middle" x="1066" y="-78.5" font-family="Helvetica,sans-Serif" font-size="10.00">Cpl/Logging/LogSink.h</text>
</a>
</g>
</g>
<!-- Node19&#45;&gt;Node21 -->
<g id="edge21_Node000019_Node000021" class="edge">
<title>Node19&#45;&gt;Node21</title>
<g id="a_edge21_Node000019_Node000021"><a xlink:title=" ">
<path fill="none" stroke="#63b8ff" d="M1053.93,-127.45C1057.12,-115.43 1061.13,-100.32 1063.63,-90.91"/>
<polygon fill="#63b8ff" stroke="#63b8ff" points="1050.48,-126.81 1051.29,-137.37 1057.24,-128.6 1050.48,-126.81"/>
</a>
</g>
</g>
<!-- Node22 -->
<g id="Node000022" class="node">
<title>Node22</title>
<g id="a_Node000022"><a xlink:href="_indexed_entry_server_8h.html" target="_top" xlink:title=" ">
<polygon fill="white" stroke="#666666" points="1297.5,-96 1146.5,-96 1146.5,-66 1297.5,-66 1297.5,-96"/>
<text text-anchor="start" x="1154.5" y="-84" font-family="Helvetica,sans-Serif" font-size="10.00">Cpl/Persistent/IndexedEntry</text>
<text text-anchor="middle" x="1222" y="-73" font-family="Helvetica,sans-Serif" font-size="10.00">Server.h</text>
</a>
</g>
</g>
<!-- Node19&#45;&gt;Node22 -->
<g id="edge22_Node000019_Node000022" class="edge">
<title>Node19&#45;&gt;Node22</title>
<g id="a_edge22_Node000019_Node000022"><a xlink:title=" ">
<path fill="none" stroke="#63b8ff" d="M1082.01,-133.79C1111.06,-123.04 1153.35,-107.4 1183.84,-96.12"/>
<polygon fill="#63b8ff" stroke="#63b8ff" points="1080.5,-130.62 1072.33,-137.37 1082.92,-137.18 1080.5,-130.62"/>
</a>
</g>
</g>
<!-- Node23 -->
<g id="Node000023" class="node">
<title>Node23</title>
<g id="a_Node000023"><a xlink:href="_log_8h.html" target="_top" xlink:title=" ">
<polygon fill="white" stroke="#666666" points="1275.5,-30 1168.5,-30 1168.5,0 1275.5,0 1275.5,-30"/>
<text text-anchor="start" x="1176.5" y="-18" font-family="Helvetica,sans-Serif" font-size="10.00">Cpl/Logging/TShell</text>
<text text-anchor="middle" x="1222" y="-7" font-family="Helvetica,sans-Serif" font-size="10.00">/Log.h</text>
</a>
</g>
</g>
<!-- Node22&#45;&gt;Node23 -->
<g id="edge23_Node000022_Node000023" class="edge">
<title>Node22&#45;&gt;Node23</title>
<g id="a_edge23_Node000022_Node000023"><a xlink:title=" ">
<path fill="none" stroke="#63b8ff" d="M1222,-55.54C1222,-46.96 1222,-37.61 1222,-30.16"/>
<polygon fill="#63b8ff" stroke="#63b8ff" points="1218.5,-55.8 1222,-65.8 1225.5,-55.8 1218.5,-55.8"/>
</a>
</g>
</g>
<!-- Node25 -->
<g id="Node000025" class="node">
<title>Node25</title>
<g id="a_Node000025"><a xlink:href="_indexed_entry_record_8h.html" target="_top" xlink:title=" ">
<polygon fill="white" stroke="#666666" points="1297.5,-162 1146.5,-162 1146.5,-132 1297.5,-132 1297.5,-162"/>
<text text-anchor="start" x="1154.5" y="-150" font-family="Helvetica,sans-Serif" font-size="10.00">Cpl/Persistent/IndexedEntry</text>
<text text-anchor="middle" x="1222" y="-139" font-family="Helvetica,sans-Serif" font-size="10.00">Record.h</text>
</a>
</g>
</g>
<!-- Node24&#45;&gt;Node25 -->
<g id="edge26_Node000024_Node000025" class="edge">
<title>Node24&#45;&gt;Node25</title>
<g id="a_edge26_Node000024_Node000025"><a xlink:title=" ">
<path fill="none" stroke="#63b8ff" d="M1192.87,-194.61C1199.19,-184.5 1207.06,-171.91 1213.02,-162.36"/>
<polygon fill="#63b8ff" stroke="#63b8ff" points="1189.73,-193.03 1187.39,-203.37 1195.66,-196.74 1189.73,-193.03"/>
</a>
</g>
</g>
<!-- Node25&#45;&gt;Node22 -->
<g id="edge27_Node000025_Node000022" class="edge">
<title>Node25&#45;&gt;Node22</title>
<g id="a_edge27_Node000025_Node000022"><a xlink:title=" ">
<path fill="none" stroke="#63b8ff" d="M1222,-121.54C1222,-112.96 1222,-103.61 1222,-96.16"/>
<polygon fill="#63b8ff" stroke="#63b8ff" points="1218.5,-121.8 1222,-131.8 1225.5,-121.8 1218.5,-121.8"/>
</a>
</g>
</g>
</g>
</svg>
