<?xml version="1.0" encoding="UTF-8" standalone="no"?>
<!DOCTYPE svg PUBLIC "-//W3C//DTD SVG 1.1//EN"
 "http://www.w3.org/Graphics/SVG/1.1/DTD/svg11.dtd">
<!-- Generated by graphviz version 2.43.0 (0)
 -->
<!-- Title: Cpl/System/Mutex.h Pages: 1 -->
<svg width="2100pt" height="489pt"
 viewBox="0.00 0.00 2100.00 489.00" xmlns="http://www.w3.org/2000/svg" xmlns:xlink="http://www.w3.org/1999/xlink">
<g id="graph0" class="graph" transform="scale(1 1) rotate(0) translate(4 485)">
<title>Cpl/System/Mutex.h</title>
<!-- Node1 -->
<g id="Node000001" class="node">
<title>Node1</title>
<g id="a_Node000001"><a xlink:title=" ">
<polygon fill="#999999" stroke="#666666" points="1338.5,-481 1223.5,-481 1223.5,-462 1338.5,-462 1338.5,-481"/>
<text text-anchor="middle" x="1281" y="-469" font-family="Helvetica,sans-Serif" font-size="10.00">Cpl/System/Mutex.h</text>
</a>
</g>
</g>
<!-- Node2 -->
<g id="Node000002" class="node">
<title>Node2</title>
<g id="a_Node000002"><a xlink:href="_ring_buffer_m_t_8h.html" target="_top" xlink:title=" ">
<polygon fill="white" stroke="#666666" points="1118,-354.5 958,-354.5 958,-335.5 1118,-335.5 1118,-354.5"/>
<text text-anchor="middle" x="1038" y="-342.5" font-family="Helvetica,sans-Serif" font-size="10.00">Cpl/Container/RingBufferMT.h</text>
</a>
</g>
</g>
<!-- Node1&#45;&gt;Node2 -->
<g id="edge1_Node000001_Node000002" class="edge">
<title>Node1&#45;&gt;Node2</title>
<g id="a_edge1_Node000001_Node000002"><a xlink:title=" ">
<path fill="none" stroke="#63b8ff" d="M1213.28,-466.39C1119.01,-459.98 957.72,-446.18 940,-426 913.55,-395.88 974.62,-368.05 1011.86,-354.55"/>
<polygon fill="#63b8ff" stroke="#63b8ff" points="1213.1,-469.89 1223.31,-467.07 1213.56,-462.91 1213.1,-469.89"/>
</a>
</g>
</g>
<!-- Node8 -->
<g id="Node000008" class="node">
<title>Node8</title>
<g id="a_Node000008"><a xlink:href="_model_database_8h.html" target="_top" xlink:title=" ">
<polygon fill="white" stroke="#666666" points="657.5,-420.5 516.5,-420.5 516.5,-401.5 657.5,-401.5 657.5,-420.5"/>
<text text-anchor="middle" x="587" y="-408.5" font-family="Helvetica,sans-Serif" font-size="10.00">Cpl/Dm/ModelDatabase.h</text>
</a>
</g>
</g>
<!-- Node1&#45;&gt;Node8 -->
<g id="edge7_Node000001_Node000008" class="edge">
<title>Node1&#45;&gt;Node8</title>
<g id="a_edge7_Node000001_Node000008"><a xlink:title=" ">
<path fill="none" stroke="#63b8ff" d="M1213.35,-464.8C1081.58,-453.69 791.72,-429.26 657.62,-417.95"/>
<polygon fill="#63b8ff" stroke="#63b8ff" points="1213.06,-468.29 1223.32,-465.64 1213.65,-461.31 1213.06,-468.29"/>
</a>
</g>
</g>
<!-- Node30 -->
<g id="Node000030" class="node">
<title>Node30</title>
<g id="a_Node000030"><a xlink:href="_atomic_output_8h.html" target="_top" xlink:title=" ">
<polygon fill="white" stroke="#666666" points="1073,-420.5 949,-420.5 949,-401.5 1073,-401.5 1073,-420.5"/>
<text text-anchor="middle" x="1011" y="-408.5" font-family="Helvetica,sans-Serif" font-size="10.00">Cpl/Io/AtomicOutput.h</text>
</a>
</g>
</g>
<!-- Node1&#45;&gt;Node30 -->
<g id="edge34_Node000001_Node000030" class="edge">
<title>Node1&#45;&gt;Node30</title>
<g id="a_edge34_Node000001_Node000030"><a xlink:title=" ">
<path fill="none" stroke="#63b8ff" d="M1231.72,-459.82C1179.57,-448.52 1098.32,-430.92 1050.31,-420.52"/>
<polygon fill="#63b8ff" stroke="#63b8ff" points="1231.23,-463.3 1241.74,-461.99 1232.71,-456.46 1231.23,-463.3"/>
</a>
</g>
</g>
<!-- Node31 -->
<g id="Node000031" class="node">
<title>Node31</title>
<g id="a_Node000031"><a xlink:href="_io_2_file_2_littlefs_2_private___8h.html" target="_top" xlink:title=" ">
<polygon fill="white" stroke="#666666" points="1192.5,-426 1091.5,-426 1091.5,-396 1192.5,-396 1192.5,-426"/>
<text text-anchor="start" x="1099.5" y="-414" font-family="Helvetica,sans-Serif" font-size="10.00">Cpl/Io/File/Littlefs</text>
<text text-anchor="middle" x="1142" y="-403" font-family="Helvetica,sans-Serif" font-size="10.00">/Private_.h</text>
</a>
</g>
</g>
<!-- Node1&#45;&gt;Node31 -->
<g id="edge35_Node000001_Node000031" class="edge">
<title>Node1&#45;&gt;Node31</title>
<g id="a_edge35_Node000001_Node000031"><a xlink:title=" ">
<path fill="none" stroke="#63b8ff" d="M1251.49,-458.08C1229.21,-448.7 1198.6,-435.82 1175.42,-426.06"/>
<polygon fill="#63b8ff" stroke="#63b8ff" points="1250.21,-461.34 1260.79,-461.99 1252.93,-454.89 1250.21,-461.34"/>
</a>
</g>
</g>
<!-- Node32 -->
<g id="Node000032" class="node">
<title>Node32</title>
<g id="a_Node000032"><a xlink:href="_ram_2_input_output_8h.html" target="_top" xlink:title=" ">
<polygon fill="white" stroke="#666666" points="1351,-420.5 1211,-420.5 1211,-401.5 1351,-401.5 1351,-420.5"/>
<text text-anchor="middle" x="1281" y="-408.5" font-family="Helvetica,sans-Serif" font-size="10.00">Cpl/Io/Ram/InputOutput.h</text>
</a>
</g>
</g>
<!-- Node1&#45;&gt;Node32 -->
<g id="edge36_Node000001_Node000032" class="edge">
<title>Node1&#45;&gt;Node32</title>
<g id="a_edge36_Node000001_Node000032"><a xlink:title=" ">
<path fill="none" stroke="#63b8ff" d="M1281,-451.66C1281,-441.24 1281,-428.8 1281,-420.67"/>
<polygon fill="#63b8ff" stroke="#63b8ff" points="1277.5,-451.87 1281,-461.87 1284.5,-451.87 1277.5,-451.87"/>
</a>
</g>
</g>
<!-- Node33 -->
<g id="Node000033" class="node">
<title>Node33</title>
<g id="a_Node000033"><a xlink:href="_listener___8h.html" target="_top" xlink:title=" ">
<polygon fill="white" stroke="#666666" points="1505,-420.5 1369,-420.5 1369,-401.5 1505,-401.5 1505,-420.5"/>
<text text-anchor="middle" x="1437" y="-408.5" font-family="Helvetica,sans-Serif" font-size="10.00">Cpl/Io/Socket/Listener_.h</text>
</a>
</g>
</g>
<!-- Node1&#45;&gt;Node33 -->
<g id="edge37_Node000001_Node000033" class="edge">
<title>Node1&#45;&gt;Node33</title>
<g id="a_edge37_Node000001_Node000033"><a xlink:title=" ">
<path fill="none" stroke="#63b8ff" d="M1313.33,-458.38C1343.48,-447.07 1387.7,-430.49 1414.29,-420.52"/>
<polygon fill="#63b8ff" stroke="#63b8ff" points="1311.82,-455.21 1303.68,-461.99 1314.28,-461.76 1311.82,-455.21"/>
</a>
</g>
</g>
<!-- Node36 -->
<g id="Node000036" class="node">
<title>Node36</title>
<g id="a_Node000036"><a xlink:href="_system_2_private___8h.html" target="_top" xlink:title="This file contains a collection of classes, interfaces, etc.">
<polygon fill="white" stroke="#666666" points="1647,-420.5 1523,-420.5 1523,-401.5 1647,-401.5 1647,-420.5"/>
<text text-anchor="middle" x="1585" y="-408.5" font-family="Helvetica,sans-Serif" font-size="10.00">Cpl/System/Private_.h</text>
</a>
</g>
</g>
<!-- Node1&#45;&gt;Node36 -->
<g id="edge40_Node000001_Node000036" class="edge">
<title>Node1&#45;&gt;Node36</title>
<g id="a_edge40_Node000001_Node000036"><a xlink:title=" ">
<path fill="none" stroke="#63b8ff" d="M1336.14,-460.07C1383.36,-451.11 1453.17,-437.81 1514,-426 1523,-424.25 1532.65,-422.36 1541.83,-420.56"/>
<polygon fill="#63b8ff" stroke="#63b8ff" points="1335.29,-456.66 1326.12,-461.97 1336.6,-463.54 1335.29,-456.66"/>
</a>
</g>
</g>
<!-- Node39 -->
<g id="Node000039" class="node">
<title>Node39</title>
<g id="a_Node000039"><a xlink:href="_processor_8h.html" target="_top" xlink:title=" ">
<polygon fill="white" stroke="#666666" points="1789,-420.5 1665,-420.5 1665,-401.5 1789,-401.5 1789,-420.5"/>
<text text-anchor="middle" x="1727" y="-408.5" font-family="Helvetica,sans-Serif" font-size="10.00">Cpl/TShell/Processor.h</text>
</a>
</g>
</g>
<!-- Node1&#45;&gt;Node39 -->
<g id="edge43_Node000001_Node000039" class="edge">
<title>Node1&#45;&gt;Node39</title>
<g id="a_edge43_Node000001_Node000039"><a xlink:title=" ">
<path fill="none" stroke="#63b8ff" d="M1348.97,-464.01C1424.27,-456.46 1549.15,-442.85 1656,-426 1665.93,-424.43 1676.59,-422.48 1686.55,-420.53"/>
<polygon fill="#63b8ff" stroke="#63b8ff" points="1348.29,-460.57 1338.69,-465.04 1348.98,-467.53 1348.29,-460.57"/>
</a>
</g>
</g>
<!-- Node41 -->
<g id="Node000041" class="node">
<title>Node41</title>
<g id="a_Node000041"><a xlink:href="_pipe_8h.html" target="_top" xlink:title=" ">
<polygon fill="white" stroke="#666666" points="1957,-420.5 1847,-420.5 1847,-401.5 1957,-401.5 1957,-420.5"/>
<text text-anchor="middle" x="1902" y="-408.5" font-family="Helvetica,sans-Serif" font-size="10.00">Driver/TPipe/Pipe.h</text>
</a>
</g>
</g>
<!-- Node1&#45;&gt;Node41 -->
<g id="edge47_Node000001_Node000041" class="edge">
<title>Node1&#45;&gt;Node41</title>
<g id="a_edge47_Node000001_Node000041"><a xlink:title=" ">
<path fill="none" stroke="#63b8ff" d="M1349.01,-465.69C1447.97,-458.46 1637.35,-443.72 1798,-426 1813.85,-424.25 1831.01,-422.06 1846.74,-419.94"/>
<polygon fill="#63b8ff" stroke="#63b8ff" points="1348.57,-462.21 1338.85,-466.43 1349.08,-469.19 1348.57,-462.21"/>
</a>
</g>
</g>
<!-- Node3 -->
<g id="Node000003" class="node">
<title>Node3</title>
<g id="a_Node000003"><a xlink:href="_ring_buffer_m_p_8h.html" target="_top" xlink:title=" ">
<polygon fill="white" stroke="#666666" points="1222.5,-156.5 1063.5,-156.5 1063.5,-137.5 1222.5,-137.5 1222.5,-156.5"/>
<text text-anchor="middle" x="1143" y="-144.5" font-family="Helvetica,sans-Serif" font-size="10.00">Cpl/Container/RingBufferMP.h</text>
</a>
</g>
</g>
<!-- Node2&#45;&gt;Node3 -->
<g id="edge2_Node000002_Node000003" class="edge">
<title>Node2&#45;&gt;Node3</title>
<g id="a_edge2_Node000002_Node000003"><a xlink:title=" ">
<path fill="none" stroke="#63b8ff" d="M1128.44,-339.92C1206.71,-331.02 1315.63,-304.59 1370,-228 1377.72,-217.13 1378.35,-208.39 1370,-198 1364.28,-190.88 1253.17,-168.84 1188.56,-156.53"/>
<polygon fill="#63b8ff" stroke="#63b8ff" points="1127.66,-336.48 1118.09,-341.01 1128.4,-343.44 1127.66,-336.48"/>
</a>
</g>
</g>
<!-- Node4 -->
<g id="Node000004" class="node">
<title>Node4</title>
<g id="a_Node000004"><a xlink:href="_cpl_2_logging_2_api_8h.html" target="_top" xlink:title=" ">
<polygon fill="white" stroke="#666666" points="1079.5,-90.5 978.5,-90.5 978.5,-71.5 1079.5,-71.5 1079.5,-90.5"/>
<text text-anchor="middle" x="1029" y="-78.5" font-family="Helvetica,sans-Serif" font-size="10.00">Cpl/Logging/Api.h</text>
</a>
</g>
</g>
<!-- Node3&#45;&gt;Node4 -->
<g id="edge3_Node000003_Node000004" class="edge">
<title>Node3&#45;&gt;Node4</title>
<g id="a_edge3_Node000003_Node000004"><a xlink:title=" ">
<path fill="none" stroke="#63b8ff" d="M1118.7,-132.36C1096.26,-119.76 1063.59,-101.42 1044.5,-90.7"/>
<polygon fill="#63b8ff" stroke="#63b8ff" points="1117.19,-135.53 1127.63,-137.37 1120.62,-129.42 1117.19,-135.53"/>
</a>
</g>
</g>
<!-- Node5 -->
<g id="Node000005" class="node">
<title>Node5</title>
<g id="a_Node000005"><a xlink:href="_log_sink_8h.html" target="_top" xlink:title=" ">
<polygon fill="white" stroke="#666666" points="1222,-90.5 1098,-90.5 1098,-71.5 1222,-71.5 1222,-90.5"/>
<text text-anchor="middle" x="1160" y="-78.5" font-family="Helvetica,sans-Serif" font-size="10.00">Cpl/Logging/LogSink.h</text>
</a>
</g>
</g>
<!-- Node3&#45;&gt;Node5 -->
<g id="edge4_Node000003_Node000005" class="edge">
<title>Node3&#45;&gt;Node5</title>
<g id="a_edge4_Node000003_Node000005"><a xlink:title=" ">
<path fill="none" stroke="#63b8ff" d="M1147.93,-127.45C1151.12,-115.43 1155.13,-100.32 1157.63,-90.91"/>
<polygon fill="#63b8ff" stroke="#63b8ff" points="1144.48,-126.81 1145.29,-137.37 1151.24,-128.6 1144.48,-126.81"/>
</a>
</g>
</g>
<!-- Node6 -->
<g id="Node000006" class="node">
<title>Node6</title>
<g id="a_Node000006"><a xlink:href="_indexed_entry_server_8h.html" target="_top" xlink:title=" ">
<polygon fill="white" stroke="#666666" points="1391.5,-96 1240.5,-96 1240.5,-66 1391.5,-66 1391.5,-96"/>
<text text-anchor="start" x="1248.5" y="-84" font-family="Helvetica,sans-Serif" font-size="10.00">Cpl/Persistent/IndexedEntry</text>
<text text-anchor="middle" x="1316" y="-73" font-family="Helvetica,sans-Serif" font-size="10.00">Server.h</text>
</a>
</g>
</g>
<!-- Node3&#45;&gt;Node6 -->
<g id="edge5_Node000003_Node000006" class="edge">
<title>Node3&#45;&gt;Node6</title>
<g id="a_edge5_Node000003_Node000006"><a xlink:title=" ">
<path fill="none" stroke="#63b8ff" d="M1176.01,-133.79C1205.06,-123.04 1247.35,-107.4 1277.84,-96.12"/>
<polygon fill="#63b8ff" stroke="#63b8ff" points="1174.5,-130.62 1166.33,-137.37 1176.92,-137.18 1174.5,-130.62"/>
</a>
</g>
</g>
<!-- Node7 -->
<g id="Node000007" class="node">
<title>Node7</title>
<g id="a_Node000007"><a xlink:href="_log_8h.html" target="_top" xlink:title=" ">
<polygon fill="white" stroke="#666666" points="1369.5,-30 1262.5,-30 1262.5,0 1369.5,0 1369.5,-30"/>
<text text-anchor="start" x="1270.5" y="-18" font-family="Helvetica,sans-Serif" font-size="10.00">Cpl/Logging/TShell</text>
<text text-anchor="middle" x="1316" y="-7" font-family="Helvetica,sans-Serif" font-size="10.00">/Log.h</text>
</a>
</g>
</g>
<!-- Node6&#45;&gt;Node7 -->
<g id="edge6_Node000006_Node000007" class="edge">
<title>Node6&#45;&gt;Node7</title>
<g id="a_edge6_Node000006_Node000007"><a xlink:title=" ">
<path fill="none" stroke="#63b8ff" d="M1316,-55.54C1316,-46.96 1316,-37.61 1316,-30.16"/>
<polygon fill="#63b8ff" stroke="#63b8ff" points="1312.5,-55.8 1316,-65.8 1319.5,-55.8 1312.5,-55.8"/>
</a>
</g>
</g>
<!-- Node9 -->
<g id="Node000009" class="node">
<title>Node9</title>
<g id="a_Node000009"><a xlink:href="_model_point_common___8h.html" target="_top" xlink:title=" ">
<polygon fill="white" stroke="#666666" points="671.5,-354.5 502.5,-354.5 502.5,-335.5 671.5,-335.5 671.5,-354.5"/>
<text text-anchor="middle" x="587" y="-342.5" font-family="Helvetica,sans-Serif" font-size="10.00">Cpl/Dm/ModelPointCommon_.h</text>
</a>
</g>
</g>
<!-- Node8&#45;&gt;Node9 -->
<g id="edge8_Node000008_Node000009" class="edge">
<title>Node8&#45;&gt;Node9</title>
<g id="a_edge8_Node000008_Node000009"><a xlink:title=" ">
<path fill="none" stroke="#63b8ff" d="M587,-391.08C587,-379.13 587,-364.22 587,-354.91"/>
<polygon fill="#63b8ff" stroke="#63b8ff" points="583.5,-391.37 587,-401.37 590.5,-391.37 583.5,-391.37"/>
</a>
</g>
</g>
<!-- Node12 -->
<g id="Node000012" class="node">
<title>Node12</title>
<g id="a_Node000012"><a xlink:href="_in_out_model_points_8h.html" target="_top" xlink:title="This file defines all of the Model Points for the Simulated DIO InOut driver.">
<polygon fill="white" stroke="#666666" points="120,-228 0,-228 0,-198 120,-198 120,-228"/>
<text text-anchor="start" x="8" y="-216" font-family="Helvetica,sans-Serif" font-size="10.00">Driver/DIO/Simulated</text>
<text text-anchor="middle" x="60" y="-205" font-family="Helvetica,sans-Serif" font-size="10.00">/InOutModelPoints.h</text>
</a>
</g>
</g>
<!-- Node8&#45;&gt;Node12 -->
<g id="edge33_Node000008_Node000012" class="edge">
<title>Node8&#45;&gt;Node12</title>
<g id="a_edge33_Node000008_Node000012"><a xlink:title=" ">
<path fill="none" stroke="#63b8ff" d="M506.15,-401.89C378.49,-387.43 138.58,-353.06 79,-294 61.46,-276.61 58.95,-246.19 59.17,-228.29"/>
<polygon fill="#63b8ff" stroke="#63b8ff" points="505.94,-405.39 516.27,-403.02 506.72,-398.43 505.94,-405.39"/>
</a>
</g>
</g>
<!-- Node10 -->
<g id="Node000010" class="node">
<title>Node10</title>
<g id="a_Node000010"><a xlink:href="_array_8h.html" target="_top" xlink:title=" ">
<polygon fill="white" stroke="#666666" points="1052.5,-288.5 945.5,-288.5 945.5,-269.5 1052.5,-269.5 1052.5,-288.5"/>
<text text-anchor="middle" x="999" y="-276.5" font-family="Helvetica,sans-Serif" font-size="10.00">Cpl/Dm/Mp/Array.h</text>
</a>
</g>
</g>
<!-- Node9&#45;&gt;Node10 -->
<g id="edge9_Node000009_Node000010" class="edge">
<title>Node9&#45;&gt;Node10</title>
<g id="a_edge9_Node000009_Node000010"><a xlink:title=" ">
<path fill="none" stroke="#63b8ff" d="M667.98,-334.18C738.9,-325.16 844.6,-310.68 936,-294 944.71,-292.41 954.04,-290.47 962.78,-288.54"/>
<polygon fill="#63b8ff" stroke="#63b8ff" points="667.26,-330.74 657.78,-335.47 668.14,-337.69 667.26,-330.74"/>
</a>
</g>
</g>
<!-- Node11 -->
<g id="Node000011" class="node">
<title>Node11</title>
<g id="a_Node000011"><a xlink:href="_bool_8h.html" target="_top" xlink:title=" ">
<polygon fill="white" stroke="#666666" points="500,-288.5 396,-288.5 396,-269.5 500,-269.5 500,-288.5"/>
<text text-anchor="middle" x="448" y="-276.5" font-family="Helvetica,sans-Serif" font-size="10.00">Cpl/Dm/Mp/Bool.h</text>
</a>
</g>
</g>
<!-- Node9&#45;&gt;Node11 -->
<g id="edge10_Node000009_Node000011" class="edge">
<title>Node9&#45;&gt;Node11</title>
<g id="a_edge10_Node000009_Node000011"><a xlink:title=" ">
<path fill="none" stroke="#63b8ff" d="M558.83,-331.03C531.43,-318.42 490.59,-299.61 466.89,-288.7"/>
<polygon fill="#63b8ff" stroke="#63b8ff" points="557.71,-334.37 568.25,-335.37 560.63,-328.01 557.71,-334.37"/>
</a>
</g>
</g>
<!-- Node14 -->
<g id="Node000014" class="node">
<title>Node14</title>
<g id="a_Node000014"><a xlink:href="_elapsed_precision_time_8h.html" target="_top" xlink:title=" ">
<polygon fill="white" stroke="#666666" points="244,-294 88,-294 88,-264 244,-264 244,-294"/>
<text text-anchor="start" x="96" y="-282" font-family="Helvetica,sans-Serif" font-size="10.00">Cpl/Dm/Mp/ElapsedPrecision</text>
<text text-anchor="middle" x="166" y="-271" font-family="Helvetica,sans-Serif" font-size="10.00">Time.h</text>
</a>
</g>
</g>
<!-- Node9&#45;&gt;Node14 -->
<g id="edge13_Node000009_Node000014" class="edge">
<title>Node9&#45;&gt;Node14</title>
<g id="a_edge13_Node000009_Node000014"><a xlink:title=" ">
<path fill="none" stroke="#63b8ff" d="M518.66,-333.99C451.13,-324.05 344.89,-308.27 253,-294 250.13,-293.55 247.2,-293.1 244.25,-292.63"/>
<polygon fill="#63b8ff" stroke="#63b8ff" points="518.34,-337.48 528.75,-335.48 519.36,-330.56 518.34,-337.48"/>
</a>
</g>
</g>
<!-- Node15 -->
<g id="Node000015" class="node">
<title>Node15</title>
<g id="a_Node000015"><a xlink:href="_enum___8h.html" target="_top" xlink:title=" ">
<polygon fill="white" stroke="#666666" points="378,-288.5 262,-288.5 262,-269.5 378,-269.5 378,-288.5"/>
<text text-anchor="middle" x="320" y="-276.5" font-family="Helvetica,sans-Serif" font-size="10.00">Cpl/Dm/Mp/Enum_.h</text>
</a>
</g>
</g>
<!-- Node9&#45;&gt;Node15 -->
<g id="edge14_Node000009_Node000015" class="edge">
<title>Node9&#45;&gt;Node15</title>
<g id="a_edge14_Node000009_Node000015"><a xlink:title=" ">
<path fill="none" stroke="#63b8ff" d="M541.53,-333.1C488.94,-320.49 403.47,-300.01 355.52,-288.51"/>
<polygon fill="#63b8ff" stroke="#63b8ff" points="540.73,-336.51 551.27,-335.44 542.36,-329.7 540.73,-336.51"/>
</a>
</g>
</g>
<!-- Node16 -->
<g id="Node000016" class="node">
<title>Node16</title>
<g id="a_Node000016"><a xlink:href="_numeric_8h.html" target="_top" xlink:title=" ">
<polygon fill="white" stroke="#666666" points="798,-288.5 674,-288.5 674,-269.5 798,-269.5 798,-288.5"/>
<text text-anchor="middle" x="736" y="-276.5" font-family="Helvetica,sans-Serif" font-size="10.00">Cpl/Dm/Mp/Numeric.h</text>
</a>
</g>
</g>
<!-- Node9&#45;&gt;Node16 -->
<g id="edge15_Node000009_Node000016" class="edge">
<title>Node9&#45;&gt;Node16</title>
<g id="a_edge15_Node000009_Node000016"><a xlink:title=" ">
<path fill="none" stroke="#63b8ff" d="M616.43,-331.36C645.79,-318.75 690.12,-299.71 715.75,-288.7"/>
<polygon fill="#63b8ff" stroke="#63b8ff" points="614.9,-328.21 607.09,-335.37 617.66,-334.64 614.9,-328.21"/>
</a>
</g>
</g>
<!-- Node28 -->
<g id="Node000028" class="node">
<title>Node28</title>
<g id="a_Node000028"><a xlink:href="_ref_counter_8h.html" target="_top" xlink:title=" ">
<polygon fill="white" stroke="#666666" points="655.5,-288.5 518.5,-288.5 518.5,-269.5 655.5,-269.5 655.5,-288.5"/>
<text text-anchor="middle" x="587" y="-276.5" font-family="Helvetica,sans-Serif" font-size="10.00">Cpl/Dm/Mp/RefCounter.h</text>
</a>
</g>
</g>
<!-- Node9&#45;&gt;Node28 -->
<g id="edge31_Node000009_Node000028" class="edge">
<title>Node9&#45;&gt;Node28</title>
<g id="a_edge31_Node000009_Node000028"><a xlink:title=" ">
<path fill="none" stroke="#63b8ff" d="M587,-325.08C587,-313.13 587,-298.22 587,-288.91"/>
<polygon fill="#63b8ff" stroke="#63b8ff" points="583.5,-325.37 587,-335.37 590.5,-325.37 583.5,-325.37"/>
</a>
</g>
</g>
<!-- Node29 -->
<g id="Node000029" class="node">
<title>Node29</title>
<g id="a_Node000029"><a xlink:href="_dm_2_mp_2_string_8h.html" target="_top" xlink:title=" ">
<polygon fill="white" stroke="#666666" points="927.5,-288.5 816.5,-288.5 816.5,-269.5 927.5,-269.5 927.5,-288.5"/>
<text text-anchor="middle" x="872" y="-276.5" font-family="Helvetica,sans-Serif" font-size="10.00">Cpl/Dm/Mp/String.h</text>
</a>
</g>
</g>
<!-- Node9&#45;&gt;Node29 -->
<g id="edge32_Node000009_Node000029" class="edge">
<title>Node9&#45;&gt;Node29</title>
<g id="a_edge32_Node000009_Node000029"><a xlink:title=" ">
<path fill="none" stroke="#63b8ff" d="M635.19,-333.18C691.29,-320.58 782.8,-300.03 834.09,-288.51"/>
<polygon fill="#63b8ff" stroke="#63b8ff" points="634.13,-329.83 625.14,-335.44 635.66,-336.66 634.13,-329.83"/>
</a>
</g>
</g>
<!-- Node11&#45;&gt;Node12 -->
<g id="edge11_Node000011_Node000012" class="edge">
<title>Node11&#45;&gt;Node12</title>
<g id="a_edge11_Node000011_Node000012"><a xlink:title=" ">
<path fill="none" stroke="#63b8ff" d="M403.45,-267.32C397.92,-266.13 392.34,-264.99 387,-264 275.33,-243.28 246.05,-246.56 134,-228 129.49,-227.25 124.82,-226.45 120.13,-225.61"/>
<polygon fill="#63b8ff" stroke="#63b8ff" points="402.75,-270.75 413.27,-269.5 404.26,-263.91 402.75,-270.75"/>
</a>
</g>
</g>
<!-- Node13 -->
<g id="Node000013" class="node">
<title>Node13</title>
<g id="a_Node000013"><a xlink:href="_driver_2_r_h_temp_2_simulated_2_api_8h.html" target="_top" xlink:title=" ">
<polygon fill="white" stroke="#666666" points="246.5,-162 103.5,-162 103.5,-132 246.5,-132 246.5,-162"/>
<text text-anchor="start" x="111.5" y="-150" font-family="Helvetica,sans-Serif" font-size="10.00">Driver/RHTemp/Simulated</text>
<text text-anchor="middle" x="175" y="-139" font-family="Helvetica,sans-Serif" font-size="10.00">/Api.h</text>
</a>
</g>
</g>
<!-- Node11&#45;&gt;Node13 -->
<g id="edge12_Node000011_Node000013" class="edge">
<title>Node11&#45;&gt;Node13</title>
<g id="a_edge12_Node000011_Node000013"><a xlink:title=" ">
<path fill="none" stroke="#63b8ff" d="M402.61,-267.25C397.36,-266.1 392.07,-265 387,-264 338.39,-254.45 199.08,-265.75 167,-228 151.45,-209.7 160.41,-179.88 167.96,-162.28"/>
<polygon fill="#63b8ff" stroke="#63b8ff" points="402.08,-270.72 412.6,-269.48 403.6,-263.88 402.08,-270.72"/>
</a>
</g>
</g>
<!-- Node17 -->
<g id="Node000017" class="node">
<title>Node17</title>
<g id="a_Node000017"><a xlink:href="_bit_array16_8h.html" target="_top" xlink:title=" ">
<polygon fill="white" stroke="#666666" points="683,-222.5 549,-222.5 549,-203.5 683,-203.5 683,-222.5"/>
<text text-anchor="middle" x="616" y="-210.5" font-family="Helvetica,sans-Serif" font-size="10.00">Cpl/Dm/Mp/BitArray16.h</text>
</a>
</g>
</g>
<!-- Node16&#45;&gt;Node17 -->
<g id="edge16_Node000016_Node000017" class="edge">
<title>Node16&#45;&gt;Node17</title>
<g id="a_edge16_Node000016_Node000017"><a xlink:title=" ">
<path fill="none" stroke="#63b8ff" d="M710.74,-264.53C687.1,-251.92 652.5,-233.47 632.31,-222.7"/>
<polygon fill="#63b8ff" stroke="#63b8ff" points="709.35,-267.75 719.82,-269.37 712.64,-261.57 709.35,-267.75"/>
</a>
</g>
</g>
<!-- Node18 -->
<g id="Node000018" class="node">
<title>Node18</title>
<g id="a_Node000018"><a xlink:href="_bit_array32_8h.html" target="_top" xlink:title=" ">
<polygon fill="white" stroke="#666666" points="835,-222.5 701,-222.5 701,-203.5 835,-203.5 835,-222.5"/>
<text text-anchor="middle" x="768" y="-210.5" font-family="Helvetica,sans-Serif" font-size="10.00">Cpl/Dm/Mp/BitArray32.h</text>
</a>
</g>
</g>
<!-- Node16&#45;&gt;Node18 -->
<g id="edge17_Node000016_Node000018" class="edge">
<title>Node16&#45;&gt;Node18</title>
<g id="a_edge17_Node000016_Node000018"><a xlink:title=" ">
<path fill="none" stroke="#63b8ff" d="M744.91,-260.18C750.97,-248.05 758.75,-232.51 763.55,-222.91"/>
<polygon fill="#63b8ff" stroke="#63b8ff" points="741.66,-258.86 740.32,-269.37 747.92,-261.99 741.66,-258.86"/>
</a>
</g>
</g>
<!-- Node19 -->
<g id="Node000019" class="node">
<title>Node19</title>
<g id="a_Node000019"><a xlink:href="_double_8h.html" target="_top" xlink:title=" ">
<polygon fill="white" stroke="#666666" points="970.5,-222.5 853.5,-222.5 853.5,-203.5 970.5,-203.5 970.5,-222.5"/>
<text text-anchor="middle" x="912" y="-210.5" font-family="Helvetica,sans-Serif" font-size="10.00">Cpl/Dm/Mp/Double.h</text>
</a>
</g>
</g>
<!-- Node16&#45;&gt;Node19 -->
<g id="edge18_Node000016_Node000019" class="edge">
<title>Node16&#45;&gt;Node19</title>
<g id="a_edge18_Node000016_Node000019"><a xlink:title=" ">
<path fill="none" stroke="#63b8ff" d="M769.44,-265.84C804.21,-253.2 857.75,-233.73 888.36,-222.6"/>
<polygon fill="#63b8ff" stroke="#63b8ff" points="767.94,-262.66 759.74,-269.37 770.33,-269.24 767.94,-262.66"/>
</a>
</g>
</g>
<!-- Node20 -->
<g id="Node000020" class="node">
<title>Node20</title>
<g id="a_Node000020"><a xlink:href="_float_8h.html" target="_top" xlink:title=" ">
<polygon fill="white" stroke="#666666" points="408.5,-222.5 301.5,-222.5 301.5,-203.5 408.5,-203.5 408.5,-222.5"/>
<text text-anchor="middle" x="355" y="-210.5" font-family="Helvetica,sans-Serif" font-size="10.00">Cpl/Dm/Mp/Float.h</text>
</a>
</g>
</g>
<!-- Node16&#45;&gt;Node20 -->
<g id="edge19_Node000016_Node000020" class="edge">
<title>Node16&#45;&gt;Node20</title>
<g id="a_edge19_Node000016_Node000020"><a xlink:title=" ">
<path fill="none" stroke="#63b8ff" d="M683.57,-267.51C676.99,-266.28 670.34,-265.08 664,-264 555.07,-245.45 526.67,-248 418,-228 409.29,-226.4 399.96,-224.45 391.22,-222.53"/>
<polygon fill="#63b8ff" stroke="#63b8ff" points="683.32,-271.02 693.8,-269.45 684.63,-264.15 683.32,-271.02"/>
</a>
</g>
</g>
<!-- Node22 -->
<g id="Node000022" class="node">
<title>Node22</title>
<g id="a_Node000022"><a xlink:href="_int32_8h.html" target="_top" xlink:title=" ">
<polygon fill="white" stroke="#666666" points="1228.5,-222.5 1121.5,-222.5 1121.5,-203.5 1228.5,-203.5 1228.5,-222.5"/>
<text text-anchor="middle" x="1175" y="-210.5" font-family="Helvetica,sans-Serif" font-size="10.00">Cpl/Dm/Mp/Int32.h</text>
</a>
</g>
</g>
<!-- Node16&#45;&gt;Node22 -->
<g id="edge22_Node000016_Node000022" class="edge">
<title>Node16&#45;&gt;Node22</title>
<g id="a_edge22_Node000016_Node000022"><a xlink:title=" ">
<path fill="none" stroke="#63b8ff" d="M786.43,-267.56C793.33,-266.28 800.33,-265.05 807,-264 941.84,-242.78 977.43,-250.83 1112,-228 1120.95,-226.48 1130.54,-224.52 1139.47,-222.55"/>
<polygon fill="#63b8ff" stroke="#63b8ff" points="785.62,-264.15 776.45,-269.46 786.93,-271.03 785.62,-264.15"/>
</a>
</g>
</g>
<!-- Node23 -->
<g id="Node000023" class="node">
<title>Node23</title>
<g id="a_Node000023"><a xlink:href="_int64_8h.html" target="_top" xlink:title=" ">
<polygon fill="white" stroke="#666666" points="283.5,-222.5 176.5,-222.5 176.5,-203.5 283.5,-203.5 283.5,-222.5"/>
<text text-anchor="middle" x="230" y="-210.5" font-family="Helvetica,sans-Serif" font-size="10.00">Cpl/Dm/Mp/Int64.h</text>
</a>
</g>
</g>
<!-- Node16&#45;&gt;Node23 -->
<g id="edge23_Node000016_Node000023" class="edge">
<title>Node16&#45;&gt;Node23</title>
<g id="a_edge23_Node000016_Node000023"><a xlink:title=" ">
<path fill="none" stroke="#63b8ff" d="M685.9,-267.62C678.57,-266.29 671.1,-265.03 664,-264 499.62,-240.12 456,-254.35 292,-228 282.96,-226.55 273.26,-224.56 264.28,-222.55"/>
<polygon fill="#63b8ff" stroke="#63b8ff" points="685.28,-271.07 695.75,-269.47 686.57,-264.19 685.28,-271.07"/>
</a>
</g>
</g>
<!-- Node24 -->
<g id="Node000024" class="node">
<title>Node24</title>
<g id="a_Node000024"><a xlink:href="_uint32_8h.html" target="_top" xlink:title=" ">
<polygon fill="white" stroke="#666666" points="1103.5,-222.5 988.5,-222.5 988.5,-203.5 1103.5,-203.5 1103.5,-222.5"/>
<text text-anchor="middle" x="1046" y="-210.5" font-family="Helvetica,sans-Serif" font-size="10.00">Cpl/Dm/Mp/Uint32.h</text>
</a>
</g>
</g>
<!-- Node16&#45;&gt;Node24 -->
<g id="edge24_Node000016_Node000024" class="edge">
<title>Node16&#45;&gt;Node24</title>
<g id="a_edge24_Node000016_Node000024"><a xlink:title=" ">
<path fill="none" stroke="#63b8ff" d="M787.8,-267.39C837,-257.3 913.05,-241.68 979,-228 987.49,-226.24 996.59,-224.34 1005.26,-222.53"/>
<polygon fill="#63b8ff" stroke="#63b8ff" points="786.81,-264.02 777.72,-269.46 788.22,-270.88 786.81,-264.02"/>
</a>
</g>
</g>
<!-- Node25 -->
<g id="Node000025" class="node">
<title>Node25</title>
<g id="a_Node000025"><a xlink:href="_uint64_8h.html" target="_top" xlink:title=" ">
<polygon fill="white" stroke="#666666" points="1361.5,-222.5 1246.5,-222.5 1246.5,-203.5 1361.5,-203.5 1361.5,-222.5"/>
<text text-anchor="middle" x="1304" y="-210.5" font-family="Helvetica,sans-Serif" font-size="10.00">Cpl/Dm/Mp/Uint64.h</text>
</a>
</g>
</g>
<!-- Node16&#45;&gt;Node25 -->
<g id="edge27_Node000016_Node000025" class="edge">
<title>Node16&#45;&gt;Node25</title>
<g id="a_edge27_Node000016_Node000025"><a xlink:title=" ">
<path fill="none" stroke="#63b8ff" d="M785.13,-267.58C792.44,-266.24 799.9,-264.99 807,-264 996.93,-237.41 1047.23,-255.66 1237,-228 1246.88,-226.56 1257.49,-224.56 1267.28,-222.52"/>
<polygon fill="#63b8ff" stroke="#63b8ff" points="784.47,-264.14 775.3,-269.44 785.78,-271.02 784.47,-264.14"/>
</a>
</g>
</g>
<!-- Node27 -->
<g id="Node000027" class="node">
<title>Node27</title>
<g id="a_Node000027"><a xlink:href="_void_8h.html" target="_top" xlink:title=" ">
<polygon fill="white" stroke="#666666" points="531,-222.5 427,-222.5 427,-203.5 531,-203.5 531,-222.5"/>
<text text-anchor="middle" x="479" y="-210.5" font-family="Helvetica,sans-Serif" font-size="10.00">Cpl/Dm/Mp/Void.h</text>
</a>
</g>
</g>
<!-- Node16&#45;&gt;Node27 -->
<g id="edge30_Node000016_Node000027" class="edge">
<title>Node16&#45;&gt;Node27</title>
<g id="a_edge30_Node000016_Node000027"><a xlink:title=" ">
<path fill="none" stroke="#63b8ff" d="M691.6,-266.94C640.93,-254.32 559.15,-233.96 513.19,-222.51"/>
<polygon fill="#63b8ff" stroke="#63b8ff" points="691.06,-270.41 701.61,-269.44 692.75,-263.62 691.06,-270.41"/>
</a>
</g>
</g>
<!-- Node20&#45;&gt;Node13 -->
<g id="edge21_Node000020_Node000013" class="edge">
<title>Node20&#45;&gt;Node13</title>
<g id="a_edge21_Node000020_Node000013"><a xlink:title=" ">
<path fill="none" stroke="#63b8ff" d="M321.05,-199.93C290.81,-189.18 246.56,-173.44 214.7,-162.12"/>
<polygon fill="#63b8ff" stroke="#63b8ff" points="320.13,-203.32 330.72,-203.37 322.47,-196.72 320.13,-203.32"/>
</a>
</g>
</g>
<!-- Node21 -->
<g id="Node000021" class="node">
<title>Node21</title>
<g id="a_Node000021"><a xlink:href="_cpl_2_m_app_2_temperature_2_api_8h.html" target="_top" xlink:title=" ">
<polygon fill="white" stroke="#666666" points="419,-162 291,-162 291,-132 419,-132 419,-162"/>
<text text-anchor="start" x="299" y="-150" font-family="Helvetica,sans-Serif" font-size="10.00">Cpl/MApp/Temperature</text>
<text text-anchor="middle" x="355" y="-139" font-family="Helvetica,sans-Serif" font-size="10.00">/Api.h</text>
</a>
</g>
</g>
<!-- Node20&#45;&gt;Node21 -->
<g id="edge20_Node000020_Node000021" class="edge">
<title>Node20&#45;&gt;Node21</title>
<g id="a_edge20_Node000020_Node000021"><a xlink:title=" ">
<path fill="none" stroke="#63b8ff" d="M355,-193.35C355,-183.47 355,-171.51 355,-162.36"/>
<polygon fill="#63b8ff" stroke="#63b8ff" points="351.5,-193.37 355,-203.37 358.5,-193.37 351.5,-193.37"/>
</a>
</g>
</g>
<!-- Node24&#45;&gt;Node3 -->
<g id="edge25_Node000024_Node000003" class="edge">
<title>Node24&#45;&gt;Node3</title>
<g id="a_edge25_Node000024_Node000003"><a xlink:title=" ">
<path fill="none" stroke="#63b8ff" d="M1067.45,-197.85C1086.51,-185.27 1113.79,-167.28 1129.82,-156.7"/>
<polygon fill="#63b8ff" stroke="#63b8ff" points="1065.5,-194.94 1059.08,-203.37 1069.36,-200.78 1065.5,-194.94"/>
</a>
</g>
</g>
<!-- Node24&#45;&gt;Node4 -->
<g id="edge26_Node000024_Node000004" class="edge">
<title>Node24&#45;&gt;Node4</title>
<g id="a_edge26_Node000024_Node000004"><a xlink:title=" ">
<path fill="none" stroke="#63b8ff" d="M1043.55,-193.23C1039.82,-164.72 1032.87,-111.59 1030.14,-90.73"/>
<polygon fill="#63b8ff" stroke="#63b8ff" points="1040.12,-194.01 1044.88,-203.47 1047.06,-193.1 1040.12,-194.01"/>
</a>
</g>
</g>
<!-- Node26 -->
<g id="Node000026" class="node">
<title>Node26</title>
<g id="a_Node000026"><a xlink:href="_indexed_entry_record_8h.html" target="_top" xlink:title=" ">
<polygon fill="white" stroke="#666666" points="1391.5,-162 1240.5,-162 1240.5,-132 1391.5,-132 1391.5,-162"/>
<text text-anchor="start" x="1248.5" y="-150" font-family="Helvetica,sans-Serif" font-size="10.00">Cpl/Persistent/IndexedEntry</text>
<text text-anchor="middle" x="1316" y="-139" font-family="Helvetica,sans-Serif" font-size="10.00">Record.h</text>
</a>
</g>
</g>
<!-- Node25&#45;&gt;Node26 -->
<g id="edge28_Node000025_Node000026" class="edge">
<title>Node25&#45;&gt;Node26</title>
<g id="a_edge28_Node000025_Node000026"><a xlink:title=" ">
<path fill="none" stroke="#63b8ff" d="M1307.5,-193.35C1309.35,-183.47 1311.59,-171.51 1313.31,-162.36"/>
<polygon fill="#63b8ff" stroke="#63b8ff" points="1304.02,-192.89 1305.62,-203.37 1310.9,-194.18 1304.02,-192.89"/>
</a>
</g>
</g>
<!-- Node26&#45;&gt;Node6 -->
<g id="edge29_Node000026_Node000006" class="edge">
<title>Node26&#45;&gt;Node6</title>
<g id="a_edge29_Node000026_Node000006"><a xlink:title=" ">
<path fill="none" stroke="#63b8ff" d="M1316,-121.54C1316,-112.96 1316,-103.61 1316,-96.16"/>
<polygon fill="#63b8ff" stroke="#63b8ff" points="1312.5,-121.8 1316,-131.8 1319.5,-121.8 1312.5,-121.8"/>
</a>
</g>
</g>
<!-- Node34 -->
<g id="Node000034" class="node">
<title>Node34</title>
<g id="a_Node000034"><a xlink:href="_posix_2_listener_8h.html" target="_top" xlink:title=" ">
<polygon fill="white" stroke="#666666" points="1362.5,-360 1253.5,-360 1253.5,-330 1362.5,-330 1362.5,-360"/>
<text text-anchor="start" x="1261.5" y="-348" font-family="Helvetica,sans-Serif" font-size="10.00">Cpl/Io/Socket/Posix</text>
<text text-anchor="middle" x="1308" y="-337" font-family="Helvetica,sans-Serif" font-size="10.00">/Listener.h</text>
</a>
</g>
</g>
<!-- Node33&#45;&gt;Node34 -->
<g id="edge38_Node000033_Node000034" class="edge">
<title>Node33&#45;&gt;Node34</title>
<g id="a_edge38_Node000033_Node000034"><a xlink:title=" ">
<path fill="none" stroke="#63b8ff" d="M1410.37,-396.79C1388.8,-386.09 1358.49,-371.05 1336.45,-360.12"/>
<polygon fill="#63b8ff" stroke="#63b8ff" points="1409.09,-400.06 1419.6,-401.37 1412.2,-393.79 1409.09,-400.06"/>
</a>
</g>
</g>
<!-- Node35 -->
<g id="Node000035" class="node">
<title>Node35</title>
<g id="a_Node000035"><a xlink:href="_win32_2_listener_8h.html" target="_top" xlink:title=" ">
<polygon fill="white" stroke="#666666" points="1493.5,-360 1380.5,-360 1380.5,-330 1493.5,-330 1493.5,-360"/>
<text text-anchor="start" x="1388.5" y="-348" font-family="Helvetica,sans-Serif" font-size="10.00">Cpl/Io/Socket/Win32</text>
<text text-anchor="middle" x="1437" y="-337" font-family="Helvetica,sans-Serif" font-size="10.00">/Listener.h</text>
</a>
</g>
</g>
<!-- Node33&#45;&gt;Node35 -->
<g id="edge39_Node000033_Node000035" class="edge">
<title>Node33&#45;&gt;Node35</title>
<g id="a_edge39_Node000033_Node000035"><a xlink:title=" ">
<path fill="none" stroke="#63b8ff" d="M1437,-391.35C1437,-381.47 1437,-369.51 1437,-360.36"/>
<polygon fill="#63b8ff" stroke="#63b8ff" points="1433.5,-391.37 1437,-401.37 1440.5,-391.37 1433.5,-391.37"/>
</a>
</g>
</g>
<!-- Node37 -->
<g id="Node000037" class="node">
<title>Node37</title>
<g id="a_Node000037"><a xlink:href="_cpl_2_t_shell_2_maker_8h.html" target="_top" xlink:title=" ">
<polygon fill="white" stroke="#666666" points="1657.5,-354.5 1550.5,-354.5 1550.5,-335.5 1657.5,-335.5 1657.5,-354.5"/>
<text text-anchor="middle" x="1604" y="-342.5" font-family="Helvetica,sans-Serif" font-size="10.00">Cpl/TShell/Maker.h</text>
</a>
</g>
</g>
<!-- Node36&#45;&gt;Node37 -->
<g id="edge41_Node000036_Node000037" class="edge">
<title>Node36&#45;&gt;Node37</title>
<g id="a_edge41_Node000036_Node000037"><a xlink:title=" ">
<path fill="none" stroke="#63b8ff" d="M1590.51,-391.45C1594.07,-379.43 1598.56,-364.32 1601.36,-354.91"/>
<polygon fill="#63b8ff" stroke="#63b8ff" points="1587.05,-390.79 1587.56,-401.37 1593.76,-392.78 1587.05,-390.79"/>
</a>
</g>
</g>
<!-- Node38 -->
<g id="Node000038" class="node">
<title>Node38</title>
<g id="a_Node000038"><a xlink:href="_polled_maker_8h.html" target="_top" xlink:title=" ">
<polygon fill="white" stroke="#666666" points="1706.5,-288.5 1569.5,-288.5 1569.5,-269.5 1706.5,-269.5 1706.5,-288.5"/>
<text text-anchor="middle" x="1638" y="-276.5" font-family="Helvetica,sans-Serif" font-size="10.00">Cpl/TShell/PolledMaker.h</text>
</a>
</g>
</g>
<!-- Node36&#45;&gt;Node38 -->
<g id="edge42_Node000036_Node000038" class="edge">
<title>Node36&#45;&gt;Node38</title>
<g id="a_edge42_Node000036_Node000038"><a xlink:title=" ">
<path fill="none" stroke="#63b8ff" d="M1566.48,-394.74C1549.08,-378.47 1527.55,-352.07 1541,-330 1554.12,-308.48 1579.78,-295.83 1601.42,-288.64"/>
<polygon fill="#63b8ff" stroke="#63b8ff" points="1564.25,-397.44 1574.05,-401.45 1568.89,-392.2 1564.25,-397.44"/>
</a>
</g>
</g>
<!-- Node39&#45;&gt;Node37 -->
<g id="edge44_Node000039_Node000037" class="edge">
<title>Node39&#45;&gt;Node37</title>
<g id="a_edge44_Node000039_Node000037"><a xlink:title=" ">
<path fill="none" stroke="#63b8ff" d="M1701.43,-396.69C1677.2,-384.09 1641.51,-365.51 1620.72,-354.7"/>
<polygon fill="#63b8ff" stroke="#63b8ff" points="1699.93,-399.86 1710.41,-401.37 1703.16,-393.65 1699.93,-399.86"/>
</a>
</g>
</g>
<!-- Node40 -->
<g id="Node000040" class="node">
<title>Node40</title>
<g id="a_Node000040"><a xlink:href="_polled_processor_8h.html" target="_top" xlink:title=" ">
<polygon fill="white" stroke="#666666" points="1830,-354.5 1676,-354.5 1676,-335.5 1830,-335.5 1830,-354.5"/>
<text text-anchor="middle" x="1753" y="-342.5" font-family="Helvetica,sans-Serif" font-size="10.00">Cpl/TShell/PolledProcessor.h</text>
</a>
</g>
</g>
<!-- Node39&#45;&gt;Node40 -->
<g id="edge45_Node000039_Node000040" class="edge">
<title>Node39&#45;&gt;Node40</title>
<g id="a_edge45_Node000039_Node000040"><a xlink:title=" ">
<path fill="none" stroke="#63b8ff" d="M1734.39,-391.82C1739.29,-379.74 1745.52,-364.41 1749.38,-354.91"/>
<polygon fill="#63b8ff" stroke="#63b8ff" points="1731.03,-390.79 1730.51,-401.37 1737.51,-393.42 1731.03,-390.79"/>
</a>
</g>
</g>
<!-- Node40&#45;&gt;Node38 -->
<g id="edge46_Node000040_Node000038" class="edge">
<title>Node40&#45;&gt;Node38</title>
<g id="a_edge46_Node000040_Node000038"><a xlink:title=" ">
<path fill="none" stroke="#63b8ff" d="M1728.49,-330.36C1705.85,-317.76 1672.89,-299.42 1653.63,-288.7"/>
<polygon fill="#63b8ff" stroke="#63b8ff" points="1727.05,-333.56 1737.49,-335.37 1730.45,-327.45 1727.05,-333.56"/>
</a>
</g>
</g>
<!-- Node42 -->
<g id="Node000042" class="node">
<title>Node42</title>
<g id="a_Node000042"><a xlink:href="_driver_2_pico_display_2_t_pipe_2_api_8h.html" target="_top" xlink:title="This file defines the interface for initializing the concrete implementation of the PicoDisplay drive...">
<polygon fill="white" stroke="#666666" points="1955.5,-360 1848.5,-360 1848.5,-330 1955.5,-330 1955.5,-360"/>
<text text-anchor="start" x="1856.5" y="-348" font-family="Helvetica,sans-Serif" font-size="10.00">Driver/PicoDisplay</text>
<text text-anchor="middle" x="1902" y="-337" font-family="Helvetica,sans-Serif" font-size="10.00">/TPipe/Api.h</text>
</a>
</g>
</g>
<!-- Node41&#45;&gt;Node42 -->
<g id="edge48_Node000041_Node000042" class="edge">
<title>Node41&#45;&gt;Node42</title>
<g id="a_edge48_Node000041_Node000042"><a xlink:title=" ">
<path fill="none" stroke="#63b8ff" d="M1902,-391.35C1902,-381.47 1902,-369.51 1902,-360.36"/>
<polygon fill="#63b8ff" stroke="#63b8ff" points="1898.5,-391.37 1902,-401.37 1905.5,-391.37 1898.5,-391.37"/>
</a>
</g>
</g>
<!-- Node43 -->
<g id="Node000043" class="node">
<title>Node43</title>
<g id="a_Node000043"><a xlink:href="_driver_2_t_pipe_2_maker_8h.html" target="_top" xlink:title=" ">
<polygon fill="white" stroke="#666666" points="2092,-354.5 1974,-354.5 1974,-335.5 2092,-335.5 2092,-354.5"/>
<text text-anchor="middle" x="2033" y="-342.5" font-family="Helvetica,sans-Serif" font-size="10.00">Driver/TPipe/Maker.h</text>
</a>
</g>
</g>
<!-- Node41&#45;&gt;Node43 -->
<g id="edge49_Node000041_Node000043" class="edge">
<title>Node41&#45;&gt;Node43</title>
<g id="a_edge49_Node000041_Node000043"><a xlink:title=" ">
<path fill="none" stroke="#63b8ff" d="M1928.89,-396.86C1954.7,-384.25 1992.96,-365.56 2015.19,-354.7"/>
<polygon fill="#63b8ff" stroke="#63b8ff" points="1927.12,-393.83 1919.67,-401.37 1930.19,-400.12 1927.12,-393.83"/>
</a>
</g>
</g>
</g>
</svg>
