<?xml version="1.0" encoding="UTF-8" standalone="no"?>
<!DOCTYPE svg PUBLIC "-//W3C//DTD SVG 1.1//EN"
 "http://www.w3.org/Graphics/SVG/1.1/DTD/svg11.dtd">
<!-- Generated by graphviz version 2.43.0 (0)
 -->
<!-- Title: Cpl/Io/NewLine.h Pages: 1 -->
<svg width="242pt" height="82pt"
 viewBox="0.00 0.00 242.00 82.00" xmlns="http://www.w3.org/2000/svg" xmlns:xlink="http://www.w3.org/1999/xlink">
<g id="graph0" class="graph" transform="scale(1 1) rotate(0) translate(4 78)">
<title>Cpl/Io/NewLine.h</title>
<!-- Node1 -->
<g id="Node000001" class="node">
<title>Node1</title>
<g id="a_Node000001"><a xlink:title=" ">
<polygon fill="#999999" stroke="#666666" points="167,-74 69,-74 69,-55 167,-55 167,-74"/>
<text text-anchor="middle" x="118" y="-62" font-family="Helvetica,sans-Serif" font-size="10.00">Cpl/Io/NewLine.h</text>
</a>
</g>
</g>
<!-- Node2 -->
<g id="Node000002" class="node">
<title>Node2</title>
<g id="a_Node000002"><a xlink:href="_line_reader_8h.html" target="_top" xlink:title=" ">
<polygon fill="white" stroke="#666666" points="110,-19 0,-19 0,0 110,0 110,-19"/>
<text text-anchor="middle" x="55" y="-7" font-family="Helvetica,sans-Serif" font-size="10.00">Cpl/Io/LineReader.h</text>
</a>
</g>
</g>
<!-- Node1&#45;&gt;Node2 -->
<g id="edge1_Node000001_Node000002" class="edge">
<title>Node1&#45;&gt;Node2</title>
<g id="a_edge1_Node000001_Node000002"><a xlink:title=" ">
<path fill="none" stroke="#63b8ff" d="M99.96,-48.32C88.73,-38.87 74.68,-27.06 65.31,-19.17"/>
<polygon fill="#63b8ff" stroke="#63b8ff" points="97.97,-51.23 107.88,-54.98 102.48,-45.87 97.97,-51.23"/>
</a>
</g>
</g>
<!-- Node3 -->
<g id="Node000003" class="node">
<title>Node3</title>
<g id="a_Node000003"><a xlink:href="_line_writer_8h.html" target="_top" xlink:title=" ">
<polygon fill="white" stroke="#666666" points="234,-19 128,-19 128,0 234,0 234,-19"/>
<text text-anchor="middle" x="181" y="-7" font-family="Helvetica,sans-Serif" font-size="10.00">Cpl/Io/LineWriter.h</text>
</a>
</g>
</g>
<!-- Node1&#45;&gt;Node3 -->
<g id="edge2_Node000001_Node000003" class="edge">
<title>Node1&#45;&gt;Node3</title>
<g id="a_edge2_Node000001_Node000003"><a xlink:title=" ">
<path fill="none" stroke="#63b8ff" d="M136.04,-48.32C147.27,-38.87 161.32,-27.06 170.69,-19.17"/>
<polygon fill="#63b8ff" stroke="#63b8ff" points="133.52,-45.87 128.12,-54.98 138.03,-51.23 133.52,-45.87"/>
</a>
</g>
</g>
</g>
</svg>
