<?xml version="1.0" encoding="UTF-8" standalone="no"?>
<!DOCTYPE svg PUBLIC "-//W3C//DTD SVG 1.1//EN"
 "http://www.w3.org/Graphics/SVG/1.1/DTD/svg11.dtd">
<!-- Generated by graphviz version 2.43.0 (0)
 -->
<!-- Title: Cpl/Dm/Mp/Numeric.h Pages: 1 -->
<svg width="1193pt" height="280pt"
 viewBox="0.00 0.00 1193.00 280.00" xmlns="http://www.w3.org/2000/svg" xmlns:xlink="http://www.w3.org/1999/xlink">
<g id="graph0" class="graph" transform="scale(1 1) rotate(0) translate(4 276)">
<title>Cpl/Dm/Mp/Numeric.h</title>
<!-- Node1 -->
<g id="Node000001" class="node">
<title>Node1</title>
<g id="a_Node000001"><a xlink:title=" ">
<polygon fill="#999999" stroke="#666666" points="680,-272 556,-272 556,-253 680,-253 680,-272"/>
<text text-anchor="middle" x="618" y="-260" font-family="Helvetica,sans-Serif" font-size="10.00">Cpl/Dm/Mp/Numeric.h</text>
</a>
</g>
</g>
<!-- Node2 -->
<g id="Node000002" class="node">
<title>Node2</title>
<g id="a_Node000002"><a xlink:href="_bit_array16_8h.html" target="_top" xlink:title=" ">
<polygon fill="white" stroke="#666666" points="134,-217 0,-217 0,-198 134,-198 134,-217"/>
<text text-anchor="middle" x="67" y="-205" font-family="Helvetica,sans-Serif" font-size="10.00">Cpl/Dm/Mp/BitArray16.h</text>
</a>
</g>
</g>
<!-- Node1&#45;&gt;Node2 -->
<g id="edge1_Node000001_Node000002" class="edge">
<title>Node1&#45;&gt;Node2</title>
<g id="a_edge1_Node000001_Node000002"><a xlink:title=" ">
<path fill="none" stroke="#63b8ff" d="M545.56,-255.12C452.38,-246.82 285.55,-231.65 143,-217 140.09,-216.7 137.13,-216.39 134.13,-216.07"/>
<polygon fill="#63b8ff" stroke="#63b8ff" points="545.45,-258.63 555.72,-256.02 546.07,-251.65 545.45,-258.63"/>
</a>
</g>
</g>
<!-- Node3 -->
<g id="Node000003" class="node">
<title>Node3</title>
<g id="a_Node000003"><a xlink:href="_bit_array32_8h.html" target="_top" xlink:title=" ">
<polygon fill="white" stroke="#666666" points="286,-217 152,-217 152,-198 286,-198 286,-217"/>
<text text-anchor="middle" x="219" y="-205" font-family="Helvetica,sans-Serif" font-size="10.00">Cpl/Dm/Mp/BitArray32.h</text>
</a>
</g>
</g>
<!-- Node1&#45;&gt;Node3 -->
<g id="edge2_Node000001_Node000003" class="edge">
<title>Node1&#45;&gt;Node3</title>
<g id="a_edge2_Node000001_Node000003"><a xlink:title=" ">
<path fill="none" stroke="#63b8ff" d="M545.37,-251.85C470.49,-241.91 354.85,-226.55 283.22,-217.03"/>
<polygon fill="#63b8ff" stroke="#63b8ff" points="545.28,-255.37 555.66,-253.22 546.2,-248.43 545.28,-255.37"/>
</a>
</g>
</g>
<!-- Node4 -->
<g id="Node000004" class="node">
<title>Node4</title>
<g id="a_Node000004"><a xlink:href="_double_8h.html" target="_top" xlink:title=" ">
<polygon fill="white" stroke="#666666" points="421.5,-217 304.5,-217 304.5,-198 421.5,-198 421.5,-217"/>
<text text-anchor="middle" x="363" y="-205" font-family="Helvetica,sans-Serif" font-size="10.00">Cpl/Dm/Mp/Double.h</text>
</a>
</g>
</g>
<!-- Node1&#45;&gt;Node4 -->
<g id="edge3_Node000001_Node000004" class="edge">
<title>Node1&#45;&gt;Node4</title>
<g id="a_edge3_Node000001_Node000004"><a xlink:title=" ">
<path fill="none" stroke="#63b8ff" d="M567.2,-250.94C519.4,-241.01 448.71,-226.31 404.29,-217.08"/>
<polygon fill="#63b8ff" stroke="#63b8ff" points="566.53,-254.38 577.03,-252.98 567.95,-247.52 566.53,-254.38"/>
</a>
</g>
</g>
<!-- Node5 -->
<g id="Node000005" class="node">
<title>Node5</title>
<g id="a_Node000005"><a xlink:href="_float_8h.html" target="_top" xlink:title=" ">
<polygon fill="white" stroke="#666666" points="546.5,-217 439.5,-217 439.5,-198 546.5,-198 546.5,-217"/>
<text text-anchor="middle" x="493" y="-205" font-family="Helvetica,sans-Serif" font-size="10.00">Cpl/Dm/Mp/Float.h</text>
</a>
</g>
</g>
<!-- Node1&#45;&gt;Node5 -->
<g id="edge4_Node000001_Node000005" class="edge">
<title>Node1&#45;&gt;Node5</title>
<g id="a_edge4_Node000001_Node000005"><a xlink:title=" ">
<path fill="none" stroke="#63b8ff" d="M588.59,-249.03C565.47,-239.23 533.87,-225.83 513.45,-217.17"/>
<polygon fill="#63b8ff" stroke="#63b8ff" points="587.34,-252.3 597.92,-252.98 590.08,-245.86 587.34,-252.3"/>
</a>
</g>
</g>
<!-- Node8 -->
<g id="Node000008" class="node">
<title>Node8</title>
<g id="a_Node000008"><a xlink:href="_int32_8h.html" target="_top" xlink:title=" ">
<polygon fill="white" stroke="#666666" points="671.5,-217 564.5,-217 564.5,-198 671.5,-198 671.5,-217"/>
<text text-anchor="middle" x="618" y="-205" font-family="Helvetica,sans-Serif" font-size="10.00">Cpl/Dm/Mp/Int32.h</text>
</a>
</g>
</g>
<!-- Node1&#45;&gt;Node8 -->
<g id="edge7_Node000001_Node000008" class="edge">
<title>Node1&#45;&gt;Node8</title>
<g id="a_edge7_Node000001_Node000008"><a xlink:title=" ">
<path fill="none" stroke="#63b8ff" d="M618,-242.66C618,-233.93 618,-223.99 618,-217.09"/>
<polygon fill="#63b8ff" stroke="#63b8ff" points="614.5,-242.75 618,-252.75 621.5,-242.75 614.5,-242.75"/>
</a>
</g>
</g>
<!-- Node9 -->
<g id="Node000009" class="node">
<title>Node9</title>
<g id="a_Node000009"><a xlink:href="_int64_8h.html" target="_top" xlink:title=" ">
<polygon fill="white" stroke="#666666" points="796.5,-217 689.5,-217 689.5,-198 796.5,-198 796.5,-217"/>
<text text-anchor="middle" x="743" y="-205" font-family="Helvetica,sans-Serif" font-size="10.00">Cpl/Dm/Mp/Int64.h</text>
</a>
</g>
</g>
<!-- Node1&#45;&gt;Node9 -->
<g id="edge8_Node000001_Node000009" class="edge">
<title>Node1&#45;&gt;Node9</title>
<g id="a_edge8_Node000001_Node000009"><a xlink:title=" ">
<path fill="none" stroke="#63b8ff" d="M647.41,-249.03C670.53,-239.23 702.13,-225.83 722.55,-217.17"/>
<polygon fill="#63b8ff" stroke="#63b8ff" points="645.92,-245.86 638.08,-252.98 648.66,-252.3 645.92,-245.86"/>
</a>
</g>
</g>
<!-- Node10 -->
<g id="Node000010" class="node">
<title>Node10</title>
<g id="a_Node000010"><a xlink:href="_uint32_8h.html" target="_top" xlink:title=" ">
<polygon fill="white" stroke="#666666" points="929.5,-217 814.5,-217 814.5,-198 929.5,-198 929.5,-217"/>
<text text-anchor="middle" x="872" y="-205" font-family="Helvetica,sans-Serif" font-size="10.00">Cpl/Dm/Mp/Uint32.h</text>
</a>
</g>
</g>
<!-- Node1&#45;&gt;Node10 -->
<g id="edge9_Node000001_Node000010" class="edge">
<title>Node1&#45;&gt;Node10</title>
<g id="a_edge9_Node000001_Node000010"><a xlink:title=" ">
<path fill="none" stroke="#63b8ff" d="M668.61,-250.94C716.22,-241.01 786.62,-226.31 830.87,-217.08"/>
<polygon fill="#63b8ff" stroke="#63b8ff" points="667.88,-247.52 658.81,-252.98 669.31,-254.37 667.88,-247.52"/>
</a>
</g>
</g>
<!-- Node16 -->
<g id="Node000016" class="node">
<title>Node16</title>
<g id="a_Node000016"><a xlink:href="_uint64_8h.html" target="_top" xlink:title=" ">
<polygon fill="white" stroke="#666666" points="1062.5,-217 947.5,-217 947.5,-198 1062.5,-198 1062.5,-217"/>
<text text-anchor="middle" x="1005" y="-205" font-family="Helvetica,sans-Serif" font-size="10.00">Cpl/Dm/Mp/Uint64.h</text>
</a>
</g>
</g>
<!-- Node1&#45;&gt;Node16 -->
<g id="edge16_Node000001_Node000016" class="edge">
<title>Node1&#45;&gt;Node16</title>
<g id="a_edge16_Node000001_Node000016"><a xlink:title=" ">
<path fill="none" stroke="#63b8ff" d="M690.39,-251.59C764.74,-241.4 878.97,-225.76 947.4,-216.39"/>
<polygon fill="#63b8ff" stroke="#63b8ff" points="689.61,-248.16 680.18,-252.98 690.56,-255.1 689.61,-248.16"/>
</a>
</g>
</g>
<!-- Node18 -->
<g id="Node000018" class="node">
<title>Node18</title>
<g id="a_Node000018"><a xlink:href="_void_8h.html" target="_top" xlink:title=" ">
<polygon fill="white" stroke="#666666" points="1185,-217 1081,-217 1081,-198 1185,-198 1185,-217"/>
<text text-anchor="middle" x="1133" y="-205" font-family="Helvetica,sans-Serif" font-size="10.00">Cpl/Dm/Mp/Void.h</text>
</a>
</g>
</g>
<!-- Node1&#45;&gt;Node18 -->
<g id="edge19_Node000001_Node000018" class="edge">
<title>Node1&#45;&gt;Node18</title>
<g id="a_edge19_Node000001_Node000018"><a xlink:title=" ">
<path fill="none" stroke="#63b8ff" d="M690.2,-255.34C779.84,-247.48 937.39,-232.97 1072,-217 1074.87,-216.66 1077.81,-216.3 1080.77,-215.92"/>
<polygon fill="#63b8ff" stroke="#63b8ff" points="689.8,-251.86 680.14,-256.22 690.41,-258.83 689.8,-251.86"/>
</a>
</g>
</g>
<!-- Node6 -->
<g id="Node000006" class="node">
<title>Node6</title>
<g id="a_Node000006"><a xlink:href="_cpl_2_m_app_2_temperature_2_api_8h.html" target="_top" xlink:title=" ">
<polygon fill="white" stroke="#666666" points="480,-162 352,-162 352,-132 480,-132 480,-162"/>
<text text-anchor="start" x="360" y="-150" font-family="Helvetica,sans-Serif" font-size="10.00">Cpl/MApp/Temperature</text>
<text text-anchor="middle" x="416" y="-139" font-family="Helvetica,sans-Serif" font-size="10.00">/Api.h</text>
</a>
</g>
</g>
<!-- Node5&#45;&gt;Node6 -->
<g id="edge5_Node000005_Node000006" class="edge">
<title>Node5&#45;&gt;Node6</title>
<g id="a_edge5_Node000005_Node000006"><a xlink:title=" ">
<path fill="none" stroke="#63b8ff" d="M473.61,-191.77C461.65,-182.68 446.39,-171.09 434.58,-162.11"/>
<polygon fill="#63b8ff" stroke="#63b8ff" points="471.56,-194.61 481.64,-197.87 475.79,-189.03 471.56,-194.61"/>
</a>
</g>
</g>
<!-- Node7 -->
<g id="Node000007" class="node">
<title>Node7</title>
<g id="a_Node000007"><a xlink:href="_driver_2_r_h_temp_2_simulated_2_api_8h.html" target="_top" xlink:title=" ">
<polygon fill="white" stroke="#666666" points="641.5,-162 498.5,-162 498.5,-132 641.5,-132 641.5,-162"/>
<text text-anchor="start" x="506.5" y="-150" font-family="Helvetica,sans-Serif" font-size="10.00">Driver/RHTemp/Simulated</text>
<text text-anchor="middle" x="570" y="-139" font-family="Helvetica,sans-Serif" font-size="10.00">/Api.h</text>
</a>
</g>
</g>
<!-- Node5&#45;&gt;Node7 -->
<g id="edge6_Node000005_Node000007" class="edge">
<title>Node5&#45;&gt;Node7</title>
<g id="a_edge6_Node000005_Node000007"><a xlink:title=" ">
<path fill="none" stroke="#63b8ff" d="M512.39,-191.77C524.35,-182.68 539.61,-171.09 551.42,-162.11"/>
<polygon fill="#63b8ff" stroke="#63b8ff" points="510.21,-189.03 504.36,-197.87 514.44,-194.61 510.21,-189.03"/>
</a>
</g>
</g>
<!-- Node11 -->
<g id="Node000011" class="node">
<title>Node11</title>
<g id="a_Node000011"><a xlink:href="_ring_buffer_m_p_8h.html" target="_top" xlink:title=" ">
<polygon fill="white" stroke="#666666" points="951.5,-156.5 792.5,-156.5 792.5,-137.5 951.5,-137.5 951.5,-156.5"/>
<text text-anchor="middle" x="872" y="-144.5" font-family="Helvetica,sans-Serif" font-size="10.00">Cpl/Container/RingBufferMP.h</text>
</a>
</g>
</g>
<!-- Node10&#45;&gt;Node11 -->
<g id="edge10_Node000010_Node000011" class="edge">
<title>Node10&#45;&gt;Node11</title>
<g id="a_edge10_Node000010_Node000011"><a xlink:title=" ">
<path fill="none" stroke="#63b8ff" d="M872,-187.66C872,-177.24 872,-164.8 872,-156.67"/>
<polygon fill="#63b8ff" stroke="#63b8ff" points="868.5,-187.87 872,-197.87 875.5,-187.87 868.5,-187.87"/>
</a>
</g>
</g>
<!-- Node12 -->
<g id="Node000012" class="node">
<title>Node12</title>
<g id="a_Node000012"><a xlink:href="_cpl_2_logging_2_api_8h.html" target="_top" xlink:title=" ">
<polygon fill="white" stroke="#666666" points="808.5,-90.5 707.5,-90.5 707.5,-71.5 808.5,-71.5 808.5,-90.5"/>
<text text-anchor="middle" x="758" y="-78.5" font-family="Helvetica,sans-Serif" font-size="10.00">Cpl/Logging/Api.h</text>
</a>
</g>
</g>
<!-- Node10&#45;&gt;Node12 -->
<g id="edge15_Node000010_Node000012" class="edge">
<title>Node10&#45;&gt;Node12</title>
<g id="a_edge15_Node000010_Node000012"><a xlink:title=" ">
<path fill="none" stroke="#63b8ff" d="M831.49,-194.25C814.42,-187.25 795.63,-176.85 783,-162 764.89,-140.72 759.88,-106.36 758.51,-90.51"/>
<polygon fill="#63b8ff" stroke="#63b8ff" points="830.69,-197.69 841.28,-197.98 833.18,-191.14 830.69,-197.69"/>
</a>
</g>
</g>
<!-- Node11&#45;&gt;Node12 -->
<g id="edge11_Node000011_Node000012" class="edge">
<title>Node11&#45;&gt;Node12</title>
<g id="a_edge11_Node000011_Node000012"><a xlink:title=" ">
<path fill="none" stroke="#63b8ff" d="M847.7,-132.36C825.26,-119.76 792.59,-101.42 773.5,-90.7"/>
<polygon fill="#63b8ff" stroke="#63b8ff" points="846.19,-135.53 856.63,-137.37 849.62,-129.42 846.19,-135.53"/>
</a>
</g>
</g>
<!-- Node13 -->
<g id="Node000013" class="node">
<title>Node13</title>
<g id="a_Node000013"><a xlink:href="_log_sink_8h.html" target="_top" xlink:title=" ">
<polygon fill="white" stroke="#666666" points="951,-90.5 827,-90.5 827,-71.5 951,-71.5 951,-90.5"/>
<text text-anchor="middle" x="889" y="-78.5" font-family="Helvetica,sans-Serif" font-size="10.00">Cpl/Logging/LogSink.h</text>
</a>
</g>
</g>
<!-- Node11&#45;&gt;Node13 -->
<g id="edge12_Node000011_Node000013" class="edge">
<title>Node11&#45;&gt;Node13</title>
<g id="a_edge12_Node000011_Node000013"><a xlink:title=" ">
<path fill="none" stroke="#63b8ff" d="M876.93,-127.45C880.12,-115.43 884.13,-100.32 886.63,-90.91"/>
<polygon fill="#63b8ff" stroke="#63b8ff" points="873.48,-126.81 874.29,-137.37 880.24,-128.6 873.48,-126.81"/>
</a>
</g>
</g>
<!-- Node14 -->
<g id="Node000014" class="node">
<title>Node14</title>
<g id="a_Node000014"><a xlink:href="_indexed_entry_server_8h.html" target="_top" xlink:title=" ">
<polygon fill="white" stroke="#666666" points="1120.5,-96 969.5,-96 969.5,-66 1120.5,-66 1120.5,-96"/>
<text text-anchor="start" x="977.5" y="-84" font-family="Helvetica,sans-Serif" font-size="10.00">Cpl/Persistent/IndexedEntry</text>
<text text-anchor="middle" x="1045" y="-73" font-family="Helvetica,sans-Serif" font-size="10.00">Server.h</text>
</a>
</g>
</g>
<!-- Node11&#45;&gt;Node14 -->
<g id="edge13_Node000011_Node000014" class="edge">
<title>Node11&#45;&gt;Node14</title>
<g id="a_edge13_Node000011_Node000014"><a xlink:title=" ">
<path fill="none" stroke="#63b8ff" d="M905.01,-133.79C934.06,-123.04 976.35,-107.4 1006.84,-96.12"/>
<polygon fill="#63b8ff" stroke="#63b8ff" points="903.5,-130.62 895.33,-137.37 905.92,-137.18 903.5,-130.62"/>
</a>
</g>
</g>
<!-- Node15 -->
<g id="Node000015" class="node">
<title>Node15</title>
<g id="a_Node000015"><a xlink:href="_log_8h.html" target="_top" xlink:title=" ">
<polygon fill="white" stroke="#666666" points="1098.5,-30 991.5,-30 991.5,0 1098.5,0 1098.5,-30"/>
<text text-anchor="start" x="999.5" y="-18" font-family="Helvetica,sans-Serif" font-size="10.00">Cpl/Logging/TShell</text>
<text text-anchor="middle" x="1045" y="-7" font-family="Helvetica,sans-Serif" font-size="10.00">/Log.h</text>
</a>
</g>
</g>
<!-- Node14&#45;&gt;Node15 -->
<g id="edge14_Node000014_Node000015" class="edge">
<title>Node14&#45;&gt;Node15</title>
<g id="a_edge14_Node000014_Node000015"><a xlink:title=" ">
<path fill="none" stroke="#63b8ff" d="M1045,-55.54C1045,-46.96 1045,-37.61 1045,-30.16"/>
<polygon fill="#63b8ff" stroke="#63b8ff" points="1041.5,-55.8 1045,-65.8 1048.5,-55.8 1041.5,-55.8"/>
</a>
</g>
</g>
<!-- Node17 -->
<g id="Node000017" class="node">
<title>Node17</title>
<g id="a_Node000017"><a xlink:href="_indexed_entry_record_8h.html" target="_top" xlink:title=" ">
<polygon fill="white" stroke="#666666" points="1120.5,-162 969.5,-162 969.5,-132 1120.5,-132 1120.5,-162"/>
<text text-anchor="start" x="977.5" y="-150" font-family="Helvetica,sans-Serif" font-size="10.00">Cpl/Persistent/IndexedEntry</text>
<text text-anchor="middle" x="1045" y="-139" font-family="Helvetica,sans-Serif" font-size="10.00">Record.h</text>
</a>
</g>
</g>
<!-- Node16&#45;&gt;Node17 -->
<g id="edge17_Node000016_Node000017" class="edge">
<title>Node16&#45;&gt;Node17</title>
<g id="a_edge17_Node000016_Node000017"><a xlink:title=" ">
<path fill="none" stroke="#63b8ff" d="M1016.55,-189.61C1022.51,-180.89 1029.69,-170.39 1035.35,-162.11"/>
<polygon fill="#63b8ff" stroke="#63b8ff" points="1013.66,-187.64 1010.9,-197.87 1019.44,-191.59 1013.66,-187.64"/>
</a>
</g>
</g>
<!-- Node17&#45;&gt;Node14 -->
<g id="edge18_Node000017_Node000014" class="edge">
<title>Node17&#45;&gt;Node14</title>
<g id="a_edge18_Node000017_Node000014"><a xlink:title=" ">
<path fill="none" stroke="#63b8ff" d="M1045,-121.54C1045,-112.96 1045,-103.61 1045,-96.16"/>
<polygon fill="#63b8ff" stroke="#63b8ff" points="1041.5,-121.8 1045,-131.8 1048.5,-121.8 1041.5,-121.8"/>
</a>
</g>
</g>
</g>
</svg>
