<?xml version="1.0" encoding="UTF-8" standalone="no"?>
<!DOCTYPE svg PUBLIC "-//W3C//DTD SVG 1.1//EN"
 "http://www.w3.org/Graphics/SVG/1.1/DTD/svg11.dtd">
<!-- Generated by graphviz version 2.43.0 (0)
 -->
<!-- Title: Cpl/Itc/OpenRequest.h Pages: 1 -->
<svg width="419pt" height="357pt"
 viewBox="0.00 0.00 419.00 357.00" xmlns="http://www.w3.org/2000/svg" xmlns:xlink="http://www.w3.org/1999/xlink">
<g id="graph0" class="graph" transform="scale(1 1) rotate(0) translate(4 353)">
<title>Cpl/Itc/OpenRequest.h</title>
<!-- Node1 -->
<g id="Node000001" class="node">
<title>Node1</title>
<g id="a_Node000001"><a xlink:title=" ">
<polygon fill="#999999" stroke="#666666" points="308,-349 183,-349 183,-330 308,-330 308,-349"/>
<text text-anchor="middle" x="245.5" y="-337" font-family="Helvetica,sans-Serif" font-size="10.00">Cpl/Itc/OpenRequest.h</text>
</a>
</g>
</g>
<!-- Node2 -->
<g id="Node000002" class="node">
<title>Node2</title>
<g id="a_Node000002"><a xlink:href="_request_message_8h.html" target="_top" xlink:title=" ">
<polygon fill="white" stroke="#666666" points="215,-239 72,-239 72,-220 215,-220 215,-239"/>
<text text-anchor="middle" x="143.5" y="-227" font-family="Helvetica,sans-Serif" font-size="10.00">Cpl/Itc/RequestMessage.h</text>
</a>
</g>
</g>
<!-- Node1&#45;&gt;Node2 -->
<g id="edge1_Node000001_Node000002" class="edge">
<title>Node1&#45;&gt;Node2</title>
<g id="a_edge1_Node000001_Node000002"><a xlink:title=" ">
<path fill="none" stroke="#63b8ff" d="M217.14,-329.99C198.77,-323.09 175.72,-311.58 161.5,-294 151.26,-281.33 146.84,-263.15 144.94,-249.48"/>
<polygon fill="#63b8ff" stroke="#63b8ff" points="148.39,-248.86 143.86,-239.29 141.43,-249.6 148.39,-248.86"/>
</a>
</g>
</g>
<!-- Node7 -->
<g id="Node000007" class="node">
<title>Node7</title>
<g id="a_Node000007"><a xlink:href="_s_a_p_8h.html" target="_top" xlink:title=" ">
<polygon fill="white" stroke="#666666" points="411,-184 334,-184 334,-165 411,-165 411,-184"/>
<text text-anchor="middle" x="372.5" y="-172" font-family="Helvetica,sans-Serif" font-size="10.00">Cpl/Itc/SAP.h</text>
</a>
</g>
</g>
<!-- Node1&#45;&gt;Node7 -->
<g id="edge14_Node000001_Node000007" class="edge">
<title>Node1&#45;&gt;Node7</title>
<g id="a_edge14_Node000001_Node000007"><a xlink:title=" ">
<path fill="none" stroke="#63b8ff" d="M272.67,-329.96C290.97,-322.94 314.45,-311.31 329.5,-294 354.91,-264.79 365.73,-219.36 370,-194.08"/>
<polygon fill="#63b8ff" stroke="#63b8ff" points="373.49,-194.42 371.52,-184.01 366.57,-193.37 373.49,-194.42"/>
</a>
</g>
</g>
<!-- Node9 -->
<g id="Node000009" class="node">
<title>Node9</title>
<g id="a_Node000009"><a xlink:href="_response_message_8h.html" target="_top" xlink:title=" ">
<polygon fill="white" stroke="#666666" points="320.5,-294 170.5,-294 170.5,-275 320.5,-275 320.5,-294"/>
<text text-anchor="middle" x="245.5" y="-282" font-family="Helvetica,sans-Serif" font-size="10.00">Cpl/Itc/ResponseMessage.h</text>
</a>
</g>
</g>
<!-- Node1&#45;&gt;Node9 -->
<g id="edge9_Node000001_Node000009" class="edge">
<title>Node1&#45;&gt;Node9</title>
<g id="a_edge9_Node000001_Node000009"><a xlink:title=" ">
<path fill="none" stroke="#63b8ff" d="M245.5,-329.75C245.5,-322.8 245.5,-312.85 245.5,-304.13"/>
<polygon fill="#63b8ff" stroke="#63b8ff" points="249,-304.09 245.5,-294.09 242,-304.09 249,-304.09"/>
</a>
</g>
</g>
<!-- Node3 -->
<g id="Node000003" class="node">
<title>Node3</title>
<g id="a_Node000003"><a xlink:href="_service_message_8h.html" target="_top" xlink:title=" ">
<polygon fill="white" stroke="#666666" points="139,-184 0,-184 0,-165 139,-165 139,-184"/>
<text text-anchor="middle" x="69.5" y="-172" font-family="Helvetica,sans-Serif" font-size="10.00">Cpl/Itc/ServiceMessage.h</text>
</a>
</g>
</g>
<!-- Node2&#45;&gt;Node3 -->
<g id="edge2_Node000002_Node000003" class="edge">
<title>Node2&#45;&gt;Node3</title>
<g id="a_edge2_Node000002_Node000003"><a xlink:title=" ">
<path fill="none" stroke="#63b8ff" d="M131.61,-219.98C120.35,-211.92 103.21,-199.65 89.79,-190.03"/>
<polygon fill="#63b8ff" stroke="#63b8ff" points="91.77,-187.15 81.61,-184.17 87.7,-192.84 91.77,-187.15"/>
</a>
</g>
</g>
<!-- Node2&#45;&gt;Node7 -->
<g id="edge6_Node000002_Node000007" class="edge">
<title>Node2&#45;&gt;Node7</title>
<g id="a_edge6_Node000002_Node000007"><a xlink:title=" ">
<path fill="none" stroke="#63b8ff" d="M180.29,-219.98C219.74,-210.86 282.48,-196.33 325.48,-186.38"/>
<polygon fill="#63b8ff" stroke="#63b8ff" points="326.47,-189.75 335.42,-184.08 324.89,-182.93 326.47,-189.75"/>
</a>
</g>
</g>
<!-- Node4 -->
<g id="Node000004" class="node">
<title>Node4</title>
<g id="a_Node000004"><a xlink:href="_message_8h.html" target="_top" xlink:title=" ">
<polygon fill="white" stroke="#666666" points="233,-74 130,-74 130,-55 233,-55 233,-74"/>
<text text-anchor="middle" x="181.5" y="-62" font-family="Helvetica,sans-Serif" font-size="10.00">Cpl/Itc/Message.h</text>
</a>
</g>
</g>
<!-- Node3&#45;&gt;Node4 -->
<g id="edge3_Node000003_Node000004" class="edge">
<title>Node3&#45;&gt;Node4</title>
<g id="a_edge3_Node000003_Node000004"><a xlink:title=" ">
<path fill="none" stroke="#63b8ff" d="M69.93,-164.64C71.03,-151.3 74.89,-125.91 88.5,-110 101.46,-94.85 120.74,-84.46 138.4,-77.56"/>
<polygon fill="#63b8ff" stroke="#63b8ff" points="139.79,-80.78 147.99,-74.07 137.39,-74.2 139.79,-80.78"/>
</a>
</g>
</g>
<!-- Node6 -->
<g id="Node000006" class="node">
<title>Node6</title>
<g id="a_Node000006"><a xlink:href="_return_handler_8h.html" target="_top" xlink:title=" ">
<polygon fill="white" stroke="#666666" points="227,-129 98,-129 98,-110 227,-110 227,-129"/>
<text text-anchor="middle" x="162.5" y="-117" font-family="Helvetica,sans-Serif" font-size="10.00">Cpl/Itc/ReturnHandler.h</text>
</a>
</g>
</g>
<!-- Node3&#45;&gt;Node6 -->
<g id="edge5_Node000003_Node000006" class="edge">
<title>Node3&#45;&gt;Node6</title>
<g id="a_edge5_Node000003_Node000006"><a xlink:title=" ">
<path fill="none" stroke="#63b8ff" d="M84.44,-164.98C99,-156.69 121.37,-143.94 138.43,-134.22"/>
<polygon fill="#63b8ff" stroke="#63b8ff" points="140.33,-137.16 147.29,-129.17 136.86,-131.08 140.33,-137.16"/>
</a>
</g>
</g>
<!-- Node5 -->
<g id="Node000005" class="node">
<title>Node5</title>
<g id="a_Node000005"><a xlink:href="_item_8h.html" target="_top" xlink:title=" ">
<polygon fill="white" stroke="#666666" points="240,-19 123,-19 123,0 240,0 240,-19"/>
<text text-anchor="middle" x="181.5" y="-7" font-family="Helvetica,sans-Serif" font-size="10.00">Cpl/Container/Item.h</text>
</a>
</g>
</g>
<!-- Node4&#45;&gt;Node5 -->
<g id="edge4_Node000004_Node000005" class="edge">
<title>Node4&#45;&gt;Node5</title>
<g id="a_edge4_Node000004_Node000005"><a xlink:title=" ">
<path fill="none" stroke="#63b8ff" d="M181.5,-54.75C181.5,-47.8 181.5,-37.85 181.5,-29.13"/>
<polygon fill="#63b8ff" stroke="#63b8ff" points="185,-29.09 181.5,-19.09 178,-29.09 185,-29.09"/>
</a>
</g>
</g>
<!-- Node8 -->
<g id="Node000008" class="node">
<title>Node8</title>
<g id="a_Node000008"><a xlink:href="_post_api_8h.html" target="_top" xlink:title=" ">
<polygon fill="white" stroke="#666666" points="341.5,-129 245.5,-129 245.5,-110 341.5,-110 341.5,-129"/>
<text text-anchor="middle" x="293.5" y="-117" font-family="Helvetica,sans-Serif" font-size="10.00">Cpl/Itc/PostApi.h</text>
</a>
</g>
</g>
<!-- Node7&#45;&gt;Node8 -->
<g id="edge7_Node000007_Node000008" class="edge">
<title>Node7&#45;&gt;Node8</title>
<g id="a_edge7_Node000007_Node000008"><a xlink:title=" ">
<path fill="none" stroke="#63b8ff" d="M359.81,-164.98C347.67,-156.84 329.14,-144.41 314.75,-134.76"/>
<polygon fill="#63b8ff" stroke="#63b8ff" points="316.68,-131.84 306.42,-129.17 312.78,-137.65 316.68,-131.84"/>
</a>
</g>
</g>
<!-- Node8&#45;&gt;Node4 -->
<g id="edge8_Node000008_Node000004" class="edge">
<title>Node8&#45;&gt;Node4</title>
<g id="a_edge8_Node000008_Node000004"><a xlink:title=" ">
<path fill="none" stroke="#63b8ff" d="M275.51,-109.98C257.57,-101.5 229.78,-88.35 209.07,-78.54"/>
<polygon fill="#63b8ff" stroke="#63b8ff" points="210.36,-75.28 199.82,-74.17 207.36,-81.61 210.36,-75.28"/>
</a>
</g>
</g>
<!-- Node9&#45;&gt;Node2 -->
<g id="edge13_Node000009_Node000002" class="edge">
<title>Node9&#45;&gt;Node2</title>
<g id="a_edge13_Node000009_Node000002"><a xlink:title=" ">
<path fill="none" stroke="#63b8ff" d="M229.11,-274.98C212.93,-266.57 187.93,-253.59 169.12,-243.81"/>
<polygon fill="#63b8ff" stroke="#63b8ff" points="170.67,-240.68 160.19,-239.17 167.45,-246.89 170.67,-240.68"/>
</a>
</g>
</g>
<!-- Node10 -->
<g id="Node000010" class="node">
<title>Node10</title>
<g id="a_Node000010"><a xlink:href="_async_return_handler_8h.html" target="_top" xlink:title=" ">
<polygon fill="white" stroke="#666666" points="315.5,-184 157.5,-184 157.5,-165 315.5,-165 315.5,-184"/>
<text text-anchor="middle" x="236.5" y="-172" font-family="Helvetica,sans-Serif" font-size="10.00">Cpl/Itc/AsyncReturnHandler.h</text>
</a>
</g>
</g>
<!-- Node9&#45;&gt;Node10 -->
<g id="edge10_Node000009_Node000010" class="edge">
<title>Node9&#45;&gt;Node10</title>
<g id="a_edge10_Node000009_Node000010"><a xlink:title=" ">
<path fill="none" stroke="#63b8ff" d="M244.76,-274.66C243.31,-257.17 240.03,-217.8 238.06,-194.27"/>
<polygon fill="#63b8ff" stroke="#63b8ff" points="241.54,-193.83 237.22,-184.16 234.56,-194.41 241.54,-193.83"/>
</a>
</g>
</g>
<!-- Node10&#45;&gt;Node6 -->
<g id="edge11_Node000010_Node000006" class="edge">
<title>Node10&#45;&gt;Node6</title>
<g id="a_edge11_Node000010_Node000006"><a xlink:title=" ">
<path fill="none" stroke="#63b8ff" d="M224.61,-164.98C213.35,-156.92 196.21,-144.65 182.79,-135.03"/>
<polygon fill="#63b8ff" stroke="#63b8ff" points="184.77,-132.15 174.61,-129.17 180.7,-137.84 184.77,-132.15"/>
</a>
</g>
</g>
<!-- Node10&#45;&gt;Node8 -->
<g id="edge12_Node000010_Node000008" class="edge">
<title>Node10&#45;&gt;Node8</title>
<g id="a_edge12_Node000010_Node000008"><a xlink:title=" ">
<path fill="none" stroke="#63b8ff" d="M245.66,-164.98C254,-157.23 266.53,-145.58 276.68,-136.14"/>
<polygon fill="#63b8ff" stroke="#63b8ff" points="279.24,-138.54 284.18,-129.17 274.47,-133.42 279.24,-138.54"/>
</a>
</g>
</g>
</g>
</svg>
