<?xml version="1.0" encoding="UTF-8" standalone="no"?>
<!DOCTYPE svg PUBLIC "-//W3C//DTD SVG 1.1//EN"
 "http://www.w3.org/Graphics/SVG/1.1/DTD/svg11.dtd">
<!-- Generated by graphviz version 2.43.0 (0)
 -->
<!-- Title: Cpl/Io/Output.h Pages: 1 -->
<svg width="3008pt" height="280pt"
 viewBox="0.00 0.00 3007.50 280.00" xmlns="http://www.w3.org/2000/svg" xmlns:xlink="http://www.w3.org/1999/xlink">
<g id="graph0" class="graph" transform="scale(1 1) rotate(0) translate(4 276)">
<title>Cpl/Io/Output.h</title>
<!-- Node1 -->
<g id="Node000001" class="node">
<title>Node1</title>
<g id="a_Node000001"><a xlink:title=" ">
<polygon fill="#999999" stroke="#666666" points="2088.5,-272 1999.5,-272 1999.5,-253 2088.5,-253 2088.5,-272"/>
<text text-anchor="middle" x="2044" y="-260" font-family="Helvetica,sans-Serif" font-size="10.00">Cpl/Io/Output.h</text>
</a>
</g>
</g>
<!-- Node2 -->
<g id="Node000002" class="node">
<title>Node2</title>
<g id="a_Node000002"><a xlink:href="_atomic_output_api_8h.html" target="_top" xlink:title=" ">
<polygon fill="white" stroke="#666666" points="412,-217 272,-217 272,-198 412,-198 412,-217"/>
<text text-anchor="middle" x="342" y="-205" font-family="Helvetica,sans-Serif" font-size="10.00">Cpl/Io/AtomicOutputApi.h</text>
</a>
</g>
</g>
<!-- Node1&#45;&gt;Node2 -->
<g id="edge1_Node000001_Node000002" class="edge">
<title>Node1&#45;&gt;Node2</title>
<g id="a_edge1_Node000001_Node000002"><a xlink:title=" ">
<path fill="none" stroke="#63b8ff" d="M1988.99,-259.79C1736.99,-251.94 693.15,-219.43 412.01,-210.68"/>
<polygon fill="#63b8ff" stroke="#63b8ff" points="1989.25,-263.3 1999.35,-260.11 1989.46,-256.3 1989.25,-263.3"/>
</a>
</g>
</g>
<!-- Node4 -->
<g id="Node000004" class="node">
<title>Node4</title>
<g id="a_Node000004"><a xlink:href="_output_api_8h.html" target="_top" xlink:title=" ">
<polygon fill="white" stroke="#666666" points="1460.5,-217 1335.5,-217 1335.5,-198 1460.5,-198 1460.5,-217"/>
<text text-anchor="middle" x="1398" y="-205" font-family="Helvetica,sans-Serif" font-size="10.00">Cpl/Io/File/OutputApi.h</text>
</a>
</g>
</g>
<!-- Node1&#45;&gt;Node4 -->
<g id="edge3_Node000001_Node000004" class="edge">
<title>Node1&#45;&gt;Node4</title>
<g id="a_edge3_Node000001_Node000004"><a xlink:title=" ">
<path fill="none" stroke="#63b8ff" d="M1989.21,-257.99C1887.01,-251.27 1660.43,-235.61 1470,-217 1466.99,-216.71 1463.92,-216.39 1460.81,-216.07"/>
<polygon fill="#63b8ff" stroke="#63b8ff" points="1989.08,-261.49 1999.29,-258.65 1989.54,-254.5 1989.08,-261.49"/>
</a>
</g>
</g>
<!-- Node9 -->
<g id="Node000009" class="node">
<title>Node9</title>
<g id="a_Node000009"><a xlink:href="_input_output_8h.html" target="_top" xlink:title=" ">
<polygon fill="white" stroke="#666666" points="824,-217 710,-217 710,-198 824,-198 824,-217"/>
<text text-anchor="middle" x="767" y="-205" font-family="Helvetica,sans-Serif" font-size="10.00">Cpl/Io/InputOutput.h</text>
</a>
</g>
</g>
<!-- Node1&#45;&gt;Node9 -->
<g id="edge8_Node000001_Node000009" class="edge">
<title>Node1&#45;&gt;Node9</title>
<g id="a_edge8_Node000001_Node000009"><a xlink:title=" ">
<path fill="none" stroke="#63b8ff" d="M1989.2,-259.23C1780.58,-250.57 1037.11,-219.71 824.3,-210.88"/>
<polygon fill="#63b8ff" stroke="#63b8ff" points="1989.16,-262.73 1999.3,-259.64 1989.45,-255.73 1989.16,-262.73"/>
</a>
</g>
</g>
<!-- Node24 -->
<g id="Node000024" class="node">
<title>Node24</title>
<g id="a_Node000024"><a xlink:href="_line_writer_8h.html" target="_top" xlink:title=" ">
<polygon fill="white" stroke="#666666" points="1585,-217 1479,-217 1479,-198 1585,-198 1585,-217"/>
<text text-anchor="middle" x="1532" y="-205" font-family="Helvetica,sans-Serif" font-size="10.00">Cpl/Io/LineWriter.h</text>
</a>
</g>
</g>
<!-- Node1&#45;&gt;Node24 -->
<g id="edge24_Node000001_Node000024" class="edge">
<title>Node1&#45;&gt;Node24</title>
<g id="a_edge24_Node000001_Node000024"><a xlink:title=" ">
<path fill="none" stroke="#63b8ff" d="M1989.05,-256.74C1904.2,-249.23 1736.2,-233.77 1594,-217 1591.09,-216.66 1588.1,-216.29 1585.08,-215.91"/>
<polygon fill="#63b8ff" stroke="#63b8ff" points="1988.96,-260.24 1999.23,-257.64 1989.58,-253.27 1988.96,-260.24"/>
</a>
</g>
</g>
<!-- Node25 -->
<g id="Node000025" class="node">
<title>Node25</title>
<g id="a_Node000025"><a xlink:href="_output___8h.html" target="_top" xlink:title=" ">
<polygon fill="white" stroke="#666666" points="1725,-217 1603,-217 1603,-198 1725,-198 1725,-217"/>
<text text-anchor="middle" x="1664" y="-205" font-family="Helvetica,sans-Serif" font-size="10.00">Cpl/Io/Stdio/Output_.h</text>
</a>
</g>
</g>
<!-- Node1&#45;&gt;Node25 -->
<g id="edge25_Node000001_Node000025" class="edge">
<title>Node1&#45;&gt;Node25</title>
<g id="a_edge25_Node000001_Node000025"><a xlink:title=" ">
<path fill="none" stroke="#63b8ff" d="M1989.34,-253.88C1919.28,-244.11 1798.19,-227.22 1725.14,-217.03"/>
<polygon fill="#63b8ff" stroke="#63b8ff" points="1988.9,-257.35 1999.29,-255.26 1989.87,-250.42 1988.9,-257.35"/>
</a>
</g>
</g>
<!-- Node28 -->
<g id="Node000028" class="node">
<title>Node28</title>
<g id="a_Node000028"><a xlink:href="_tee_output_8h.html" target="_top" xlink:title=" ">
<polygon fill="white" stroke="#666666" points="1971,-217 1865,-217 1865,-198 1971,-198 1971,-217"/>
<text text-anchor="middle" x="1918" y="-205" font-family="Helvetica,sans-Serif" font-size="10.00">Cpl/Io/TeeOutput.h</text>
</a>
</g>
</g>
<!-- Node1&#45;&gt;Node28 -->
<g id="edge30_Node000001_Node000028" class="edge">
<title>Node1&#45;&gt;Node28</title>
<g id="a_edge30_Node000001_Node000028"><a xlink:title=" ">
<path fill="none" stroke="#63b8ff" d="M2014.35,-249.03C1991.05,-239.23 1959.2,-225.83 1938.61,-217.17"/>
<polygon fill="#63b8ff" stroke="#63b8ff" points="2013.18,-252.33 2023.76,-252.98 2015.9,-245.88 2013.18,-252.33"/>
</a>
</g>
</g>
<!-- Node29 -->
<g id="Node000029" class="node">
<title>Node29</title>
<g id="a_Node000029"><a xlink:href="_system_2_trace_8h.html" target="_top" xlink:title=" ">
<polygon fill="white" stroke="#666666" points="2099,-217 1989,-217 1989,-198 2099,-198 2099,-217"/>
<text text-anchor="middle" x="2044" y="-205" font-family="Helvetica,sans-Serif" font-size="10.00">Cpl/System/Trace.h</text>
</a>
</g>
</g>
<!-- Node1&#45;&gt;Node29 -->
<g id="edge31_Node000001_Node000029" class="edge">
<title>Node1&#45;&gt;Node29</title>
<g id="a_edge31_Node000001_Node000029"><a xlink:title=" ">
<path fill="none" stroke="#63b8ff" d="M2044,-242.66C2044,-233.93 2044,-223.99 2044,-217.09"/>
<polygon fill="#63b8ff" stroke="#63b8ff" points="2040.5,-242.75 2044,-252.75 2047.5,-242.75 2040.5,-242.75"/>
</a>
</g>
</g>
<!-- Node35 -->
<g id="Node000035" class="node">
<title>Node35</title>
<g id="a_Node000035"><a xlink:href="_command_8h.html" target="_top" xlink:title=" ">
<polygon fill="white" stroke="#666666" points="2293,-217 2165,-217 2165,-198 2293,-198 2293,-217"/>
<text text-anchor="middle" x="2229" y="-205" font-family="Helvetica,sans-Serif" font-size="10.00">Cpl/TShell/Command.h</text>
</a>
</g>
</g>
<!-- Node1&#45;&gt;Node35 -->
<g id="edge37_Node000001_Node000035" class="edge">
<title>Node1&#45;&gt;Node35</title>
<g id="a_edge37_Node000001_Node000035"><a xlink:title=" ">
<path fill="none" stroke="#63b8ff" d="M2083.5,-250.18C2118.1,-240.27 2167.63,-226.08 2199.04,-217.08"/>
<polygon fill="#63b8ff" stroke="#63b8ff" points="2082.37,-246.87 2073.72,-252.98 2084.3,-253.6 2082.37,-246.87"/>
</a>
</g>
</g>
<!-- Node59 -->
<g id="Node000059" class="node">
<title>Node59</title>
<g id="a_Node000059"><a xlink:href="_processor_api_8h.html" target="_top" xlink:title=" ">
<polygon fill="white" stroke="#666666" points="2451,-217 2311,-217 2311,-198 2451,-198 2451,-217"/>
<text text-anchor="middle" x="2381" y="-205" font-family="Helvetica,sans-Serif" font-size="10.00">Cpl/TShell/ProcessorApi.h</text>
</a>
</g>
</g>
<!-- Node1&#45;&gt;Node59 -->
<g id="edge50_Node000001_Node000059" class="edge">
<title>Node1&#45;&gt;Node59</title>
<g id="a_edge50_Node000001_Node000059"><a xlink:title=" ">
<path fill="none" stroke="#63b8ff" d="M2098.88,-252.87C2161.79,-242.98 2264.26,-226.86 2326.86,-217.01"/>
<polygon fill="#63b8ff" stroke="#63b8ff" points="2098.09,-249.45 2088.75,-254.46 2099.17,-256.37 2098.09,-249.45"/>
</a>
</g>
</g>
<!-- Node62 -->
<g id="Node000062" class="node">
<title>Node62</title>
<g id="a_Node000062"><a xlink:href="_block_encoder_8h.html" target="_top" xlink:title=" ">
<polygon fill="white" stroke="#666666" points="2747.5,-156.5 2580.5,-156.5 2580.5,-137.5 2747.5,-137.5 2747.5,-156.5"/>
<text text-anchor="middle" x="2664" y="-144.5" font-family="Helvetica,sans-Serif" font-size="10.00">Cpl/Text/Frame/BlockEncoder.h</text>
</a>
</g>
</g>
<!-- Node1&#45;&gt;Node62 -->
<g id="edge54_Node000001_Node000062" class="edge">
<title>Node1&#45;&gt;Node62</title>
<g id="a_edge54_Node000001_Node000062"><a xlink:title=" ">
<path fill="none" stroke="#63b8ff" d="M2098.88,-259.46C2179.06,-255.63 2332.53,-245.02 2460,-217 2529.02,-201.83 2607.32,-171.45 2643.58,-156.59"/>
<polygon fill="#63b8ff" stroke="#63b8ff" points="2098.37,-255.98 2088.54,-259.94 2098.69,-262.98 2098.37,-255.98"/>
</a>
</g>
</g>
<!-- Node63 -->
<g id="Node000063" class="node">
<title>Node63</title>
<g id="a_Node000063"><a xlink:href="_stream_encoder_8h.html" target="_top" xlink:title=" ">
<polygon fill="white" stroke="#666666" points="2770.5,-217 2595.5,-217 2595.5,-198 2770.5,-198 2770.5,-217"/>
<text text-anchor="middle" x="2683" y="-205" font-family="Helvetica,sans-Serif" font-size="10.00">Cpl/Text/Frame/StreamEncoder.h</text>
</a>
</g>
</g>
<!-- Node1&#45;&gt;Node63 -->
<g id="edge55_Node000001_Node000063" class="edge">
<title>Node1&#45;&gt;Node63</title>
<g id="a_edge55_Node000001_Node000063"><a xlink:title=" ">
<path fill="none" stroke="#63b8ff" d="M2098.97,-256.94C2209.95,-247.74 2461.57,-226.87 2595.42,-215.76"/>
<polygon fill="#63b8ff" stroke="#63b8ff" points="2098.36,-253.48 2088.68,-257.79 2098.93,-260.46 2098.36,-253.48"/>
</a>
</g>
</g>
<!-- Node64 -->
<g id="Node000064" class="node">
<title>Node64</title>
<g id="a_Node000064"><a xlink:href="_pipe_8h.html" target="_top" xlink:title=" ">
<polygon fill="white" stroke="#666666" points="2913,-156.5 2803,-156.5 2803,-137.5 2913,-137.5 2913,-156.5"/>
<text text-anchor="middle" x="2858" y="-144.5" font-family="Helvetica,sans-Serif" font-size="10.00">Driver/TPipe/Pipe.h</text>
</a>
</g>
</g>
<!-- Node1&#45;&gt;Node64 -->
<g id="edge62_Node000001_Node000064" class="edge">
<title>Node1&#45;&gt;Node64</title>
<g id="a_edge62_Node000001_Node000064"><a xlink:title=" ">
<path fill="none" stroke="#63b8ff" d="M2098.74,-260.24C2258.64,-256.29 2717.64,-242.8 2780,-217 2811.74,-203.87 2839.33,-172.22 2851.45,-156.78"/>
<polygon fill="#63b8ff" stroke="#63b8ff" points="2098.56,-256.75 2088.65,-260.49 2098.73,-263.75 2098.56,-256.75"/>
</a>
</g>
</g>
<!-- Node65 -->
<g id="Node000065" class="node">
<title>Node65</title>
<g id="a_Node000065"><a xlink:href="_driver_2_pico_display_2_t_pipe_2_api_8h.html" target="_top" xlink:title="This file defines the interface for initializing the concrete implementation of the PicoDisplay drive...">
<polygon fill="white" stroke="#666666" points="2999.5,-96 2892.5,-96 2892.5,-66 2999.5,-66 2999.5,-96"/>
<text text-anchor="start" x="2900.5" y="-84" font-family="Helvetica,sans-Serif" font-size="10.00">Driver/PicoDisplay</text>
<text text-anchor="middle" x="2946" y="-73" font-family="Helvetica,sans-Serif" font-size="10.00">/TPipe/Api.h</text>
</a>
</g>
</g>
<!-- Node1&#45;&gt;Node65 -->
<g id="edge61_Node000001_Node000065" class="edge">
<title>Node1&#45;&gt;Node65</title>
<g id="a_edge61_Node000001_Node000065"><a xlink:title=" ">
<path fill="none" stroke="#63b8ff" d="M2098.85,-261.07C2250.63,-259.44 2673.8,-251.82 2808,-217 2862.45,-202.87 2885.49,-204.79 2922,-162 2938.19,-143.03 2943.46,-113.44 2945.17,-96.06"/>
<polygon fill="#63b8ff" stroke="#63b8ff" points="2098.79,-257.57 2088.83,-261.17 2098.86,-264.57 2098.79,-257.57"/>
</a>
</g>
</g>
<!-- Node3 -->
<g id="Node000003" class="node">
<title>Node3</title>
<g id="a_Node000003"><a xlink:href="_atomic_output_8h.html" target="_top" xlink:title=" ">
<polygon fill="white" stroke="#666666" points="124,-156.5 0,-156.5 0,-137.5 124,-137.5 124,-156.5"/>
<text text-anchor="middle" x="62" y="-144.5" font-family="Helvetica,sans-Serif" font-size="10.00">Cpl/Io/AtomicOutput.h</text>
</a>
</g>
</g>
<!-- Node2&#45;&gt;Node3 -->
<g id="edge2_Node000002_Node000003" class="edge">
<title>Node2&#45;&gt;Node3</title>
<g id="a_edge2_Node000002_Node000003"><a xlink:title=" ">
<path fill="none" stroke="#63b8ff" d="M291.23,-195.89C237.16,-184.6 152.66,-166.94 102.76,-156.52"/>
<polygon fill="#63b8ff" stroke="#63b8ff" points="290.78,-199.37 301.29,-197.99 292.21,-192.52 290.78,-199.37"/>
</a>
</g>
</g>
<!-- Node5 -->
<g id="Node000005" class="node">
<title>Node5</title>
<g id="a_Node000005"><a xlink:href="_input_output_api_8h.html" target="_top" xlink:title=" ">
<polygon fill="white" stroke="#666666" points="1160,-156.5 1010,-156.5 1010,-137.5 1160,-137.5 1160,-156.5"/>
<text text-anchor="middle" x="1085" y="-144.5" font-family="Helvetica,sans-Serif" font-size="10.00">Cpl/Io/File/InputOutputApi.h</text>
</a>
</g>
</g>
<!-- Node4&#45;&gt;Node5 -->
<g id="edge4_Node000004_Node000005" class="edge">
<title>Node4&#45;&gt;Node5</title>
<g id="a_edge4_Node000004_Node000005"><a xlink:title=" ">
<path fill="none" stroke="#63b8ff" d="M1342.37,-196.1C1281.99,-184.82 1186.69,-167.01 1130.57,-156.52"/>
<polygon fill="#63b8ff" stroke="#63b8ff" points="1342.01,-199.6 1352.49,-197.99 1343.3,-192.72 1342.01,-199.6"/>
</a>
</g>
</g>
<!-- Node8 -->
<g id="Node000008" class="node">
<title>Node8</title>
<g id="a_Node000008"><a xlink:href="_file_2_output_8h.html" target="_top" xlink:title=" ">
<polygon fill="white" stroke="#666666" points="1454,-156.5 1344,-156.5 1344,-137.5 1454,-137.5 1454,-156.5"/>
<text text-anchor="middle" x="1399" y="-144.5" font-family="Helvetica,sans-Serif" font-size="10.00">Cpl/Io/File/Output.h</text>
</a>
</g>
</g>
<!-- Node4&#45;&gt;Node8 -->
<g id="edge7_Node000004_Node000008" class="edge">
<title>Node4&#45;&gt;Node8</title>
<g id="a_edge7_Node000004_Node000008"><a xlink:title=" ">
<path fill="none" stroke="#63b8ff" d="M1398.32,-187.66C1398.5,-177.24 1398.71,-164.8 1398.85,-156.67"/>
<polygon fill="#63b8ff" stroke="#63b8ff" points="1394.82,-187.81 1398.15,-197.87 1401.82,-187.93 1394.82,-187.81"/>
</a>
</g>
</g>
<!-- Node6 -->
<g id="Node000006" class="node">
<title>Node6</title>
<g id="a_Node000006"><a xlink:href="_file_2_input_output_8h.html" target="_top" xlink:title=" ">
<polygon fill="white" stroke="#666666" points="1302,-90.5 1168,-90.5 1168,-71.5 1302,-71.5 1302,-90.5"/>
<text text-anchor="middle" x="1235" y="-78.5" font-family="Helvetica,sans-Serif" font-size="10.00">Cpl/Io/File/InputOutput.h</text>
</a>
</g>
</g>
<!-- Node5&#45;&gt;Node6 -->
<g id="edge5_Node000005_Node000006" class="edge">
<title>Node5&#45;&gt;Node6</title>
<g id="a_edge5_Node000005_Node000006"><a xlink:title=" ">
<path fill="none" stroke="#63b8ff" d="M1114.63,-133.36C1144.19,-120.75 1188.81,-101.71 1214.61,-90.7"/>
<polygon fill="#63b8ff" stroke="#63b8ff" points="1113.05,-130.23 1105.23,-137.37 1115.8,-136.66 1113.05,-130.23"/>
</a>
</g>
</g>
<!-- Node7 -->
<g id="Node000007" class="node">
<title>Node7</title>
<g id="a_Node000007"><a xlink:href="_cpl_2_io_2_file_2_null_8h.html" target="_top" xlink:title=" ">
<polygon fill="white" stroke="#666666" points="1133,-90.5 1037,-90.5 1037,-71.5 1133,-71.5 1133,-90.5"/>
<text text-anchor="middle" x="1085" y="-78.5" font-family="Helvetica,sans-Serif" font-size="10.00">Cpl/Io/File/Null.h</text>
</a>
</g>
</g>
<!-- Node5&#45;&gt;Node7 -->
<g id="edge6_Node000005_Node000007" class="edge">
<title>Node5&#45;&gt;Node7</title>
<g id="a_edge6_Node000005_Node000007"><a xlink:title=" ">
<path fill="none" stroke="#63b8ff" d="M1085,-127.08C1085,-115.13 1085,-100.22 1085,-90.91"/>
<polygon fill="#63b8ff" stroke="#63b8ff" points="1081.5,-127.37 1085,-137.37 1088.5,-127.37 1081.5,-127.37"/>
</a>
</g>
</g>
<!-- Node9&#45;&gt;Node5 -->
<g id="edge9_Node000009_Node000005" class="edge">
<title>Node9&#45;&gt;Node5</title>
<g id="a_edge9_Node000009_Node000005"><a xlink:title=" ">
<path fill="none" stroke="#63b8ff" d="M823.14,-196.17C884.47,-184.89 981.57,-167.03 1038.7,-156.52"/>
<polygon fill="#63b8ff" stroke="#63b8ff" points="822.44,-192.74 813.24,-197.99 823.71,-199.63 822.44,-192.74"/>
</a>
</g>
</g>
<!-- Node10 -->
<g id="Node000010" class="node">
<title>Node10</title>
<g id="a_Node000010"><a xlink:href="_cpl_2_io_2_null_8h.html" target="_top" xlink:title=" ">
<polygon fill="white" stroke="#666666" points="682,-156.5 606,-156.5 606,-137.5 682,-137.5 682,-156.5"/>
<text text-anchor="middle" x="644" y="-144.5" font-family="Helvetica,sans-Serif" font-size="10.00">Cpl/Io/Null.h</text>
</a>
</g>
</g>
<!-- Node9&#45;&gt;Node10 -->
<g id="edge10_Node000009_Node000010" class="edge">
<title>Node9&#45;&gt;Node10</title>
<g id="a_edge10_Node000009_Node000010"><a xlink:title=" ">
<path fill="none" stroke="#63b8ff" d="M739.95,-193.63C716.22,-182.35 682.41,-166.27 661.91,-156.52"/>
<polygon fill="#63b8ff" stroke="#63b8ff" points="738.58,-196.86 749.11,-197.99 741.59,-190.54 738.58,-196.86"/>
</a>
</g>
</g>
<!-- Node11 -->
<g id="Node000011" class="node">
<title>Node11</title>
<g id="a_Node000011"><a xlink:href="_ram_2_input_output_8h.html" target="_top" xlink:title=" ">
<polygon fill="white" stroke="#666666" points="992,-156.5 852,-156.5 852,-137.5 992,-137.5 992,-156.5"/>
<text text-anchor="middle" x="922" y="-144.5" font-family="Helvetica,sans-Serif" font-size="10.00">Cpl/Io/Ram/InputOutput.h</text>
</a>
</g>
</g>
<!-- Node9&#45;&gt;Node11 -->
<g id="edge11_Node000009_Node000011" class="edge">
<title>Node9&#45;&gt;Node11</title>
<g id="a_edge11_Node000009_Node000011"><a xlink:title=" ">
<path fill="none" stroke="#63b8ff" d="M799.12,-194.38C829.08,-183.07 873.02,-166.49 899.43,-156.52"/>
<polygon fill="#63b8ff" stroke="#63b8ff" points="797.66,-191.19 789.54,-197.99 800.13,-197.74 797.66,-191.19"/>
</a>
</g>
</g>
<!-- Node12 -->
<g id="Node000012" class="node">
<title>Node12</title>
<g id="a_Node000012"><a xlink:href="_serial_2_phony_stdio_2_input_output_8h.html" target="_top" xlink:title=" ">
<polygon fill="white" stroke="#666666" points="275.5,-162 142.5,-162 142.5,-132 275.5,-132 275.5,-162"/>
<text text-anchor="start" x="150.5" y="-150" font-family="Helvetica,sans-Serif" font-size="10.00">Cpl/Io/Serial/PhonyStdio</text>
<text text-anchor="middle" x="209" y="-139" font-family="Helvetica,sans-Serif" font-size="10.00">/InputOutput.h</text>
</a>
</g>
</g>
<!-- Node9&#45;&gt;Node12 -->
<g id="edge12_Node000009_Node000012" class="edge">
<title>Node9&#45;&gt;Node12</title>
<g id="a_edge12_Node000009_Node000012"><a xlink:title=" ">
<path fill="none" stroke="#63b8ff" d="M699.52,-202.2C606.1,-195.8 432.24,-182.32 285,-162 281.94,-161.58 278.82,-161.12 275.67,-160.63"/>
<polygon fill="#63b8ff" stroke="#63b8ff" points="699.46,-205.7 709.68,-202.89 699.94,-198.72 699.46,-205.7"/>
</a>
</g>
</g>
<!-- Node13 -->
<g id="Node000013" class="node">
<title>Node13</title>
<g id="a_Node000013"><a xlink:href="_serial_2_s_t_2_m32_f4_2_input_output_8h.html" target="_top" xlink:title=" ">
<polygon fill="white" stroke="#666666" points="420,-162 294,-162 294,-132 420,-132 420,-162"/>
<text text-anchor="start" x="302" y="-150" font-family="Helvetica,sans-Serif" font-size="10.00">Cpl/Io/Serial/ST/M32F4</text>
<text text-anchor="middle" x="357" y="-139" font-family="Helvetica,sans-Serif" font-size="10.00">/InputOutput.h</text>
</a>
</g>
</g>
<!-- Node9&#45;&gt;Node13 -->
<g id="edge13_Node000009_Node000013" class="edge">
<title>Node9&#45;&gt;Node13</title>
<g id="a_edge13_Node000009_Node000013"><a xlink:title=" ">
<path fill="none" stroke="#63b8ff" d="M699.53,-198.85C631.18,-190.81 522.49,-177.23 429,-162 426.11,-161.53 423.16,-161.03 420.18,-160.51"/>
<polygon fill="#63b8ff" stroke="#63b8ff" points="699.39,-202.36 709.73,-200.04 700.21,-195.4 699.39,-202.36"/>
</a>
</g>
</g>
<!-- Node14 -->
<g id="Node000014" class="node">
<title>Node14</title>
<g id="a_Node000014"><a xlink:href="_socket_2_input_output_8h.html" target="_top" xlink:title=" ">
<polygon fill="white" stroke="#666666" points="587.5,-156.5 438.5,-156.5 438.5,-137.5 587.5,-137.5 587.5,-156.5"/>
<text text-anchor="middle" x="513" y="-144.5" font-family="Helvetica,sans-Serif" font-size="10.00">Cpl/Io/Socket/InputOutput.h</text>
</a>
</g>
</g>
<!-- Node9&#45;&gt;Node14 -->
<g id="edge14_Node000009_Node000014" class="edge">
<title>Node9&#45;&gt;Node14</title>
<g id="a_edge14_Node000009_Node000014"><a xlink:title=" ">
<path fill="none" stroke="#63b8ff" d="M720.02,-195.68C670.94,-184.38 594.96,-166.88 549.98,-156.52"/>
<polygon fill="#63b8ff" stroke="#63b8ff" points="719.54,-199.16 730.07,-197.99 721.11,-192.34 719.54,-199.16"/>
</a>
</g>
</g>
<!-- Node18 -->
<g id="Node000018" class="node">
<title>Node18</title>
<g id="a_Node000018"><a xlink:href="_input_output___8h.html" target="_top" xlink:title=" ">
<polygon fill="white" stroke="#666666" points="1325.5,-156.5 1178.5,-156.5 1178.5,-137.5 1325.5,-137.5 1325.5,-156.5"/>
<text text-anchor="middle" x="1252" y="-144.5" font-family="Helvetica,sans-Serif" font-size="10.00">Cpl/Io/Stdio/InputOutput_.h</text>
</a>
</g>
</g>
<!-- Node9&#45;&gt;Node18 -->
<g id="edge19_Node000009_Node000018" class="edge">
<title>Node9&#45;&gt;Node18</title>
<g id="a_edge19_Node000009_Node000018"><a xlink:title=" ">
<path fill="none" stroke="#63b8ff" d="M834.47,-200.21C914.45,-192.49 1051.7,-178.37 1169,-162 1180.43,-160.4 1192.71,-158.46 1204.23,-156.53"/>
<polygon fill="#63b8ff" stroke="#63b8ff" points="833.67,-196.77 824.05,-201.22 834.34,-203.74 833.67,-196.77"/>
</a>
</g>
</g>
<!-- Node19 -->
<g id="Node000019" class="node">
<title>Node19</title>
<g id="a_Node000019"><a xlink:href="_tcp_2_input_output_8h.html" target="_top" xlink:title=" ">
<polygon fill="white" stroke="#666666" points="833.5,-156.5 700.5,-156.5 700.5,-137.5 833.5,-137.5 833.5,-156.5"/>
<text text-anchor="middle" x="767" y="-144.5" font-family="Helvetica,sans-Serif" font-size="10.00">Cpl/Io/Tcp/InputOutput.h</text>
</a>
</g>
</g>
<!-- Node9&#45;&gt;Node19 -->
<g id="edge21_Node000009_Node000019" class="edge">
<title>Node9&#45;&gt;Node19</title>
<g id="a_edge21_Node000009_Node000019"><a xlink:title=" ">
<path fill="none" stroke="#63b8ff" d="M767,-187.66C767,-177.24 767,-164.8 767,-156.67"/>
<polygon fill="#63b8ff" stroke="#63b8ff" points="763.5,-187.87 767,-197.87 770.5,-187.87 763.5,-187.87"/>
</a>
</g>
</g>
<!-- Node15 -->
<g id="Node000015" class="node">
<title>Node15</title>
<g id="a_Node000015"><a xlink:href="_factory_8h.html" target="_top" xlink:title=" ">
<polygon fill="white" stroke="#666666" points="553.5,-90.5 428.5,-90.5 428.5,-71.5 553.5,-71.5 553.5,-90.5"/>
<text text-anchor="middle" x="491" y="-78.5" font-family="Helvetica,sans-Serif" font-size="10.00">Cpl/Io/Socket/Factory.h</text>
</a>
</g>
</g>
<!-- Node14&#45;&gt;Node15 -->
<g id="edge15_Node000014_Node000015" class="edge">
<title>Node14&#45;&gt;Node15</title>
<g id="a_edge15_Node000014_Node000015"><a xlink:title=" ">
<path fill="none" stroke="#63b8ff" d="M506.75,-127.82C502.6,-115.74 497.33,-100.41 494.06,-90.91"/>
<polygon fill="#63b8ff" stroke="#63b8ff" points="503.47,-129.05 510.03,-137.37 510.09,-126.77 503.47,-129.05"/>
</a>
</g>
</g>
<!-- Node16 -->
<g id="Node000016" class="node">
<title>Node16</title>
<g id="a_Node000016"><a xlink:href="_stream_pool_8h.html" target="_top" xlink:title=" ">
<polygon fill="white" stroke="#666666" points="520,-24.5 372,-24.5 372,-5.5 520,-5.5 520,-24.5"/>
<text text-anchor="middle" x="446" y="-12.5" font-family="Helvetica,sans-Serif" font-size="10.00">Cpl/Io/Socket/StreamPool.h</text>
</a>
</g>
</g>
<!-- Node14&#45;&gt;Node16 -->
<g id="edge17_Node000014_Node000016" class="edge">
<title>Node14&#45;&gt;Node16</title>
<g id="a_edge17_Node000014_Node000016"><a xlink:title=" ">
<path fill="none" stroke="#63b8ff" d="M469.07,-133.88C450.2,-126.26 429.99,-114.3 419,-96 404.81,-72.38 426.02,-40.31 438.29,-24.93"/>
<polygon fill="#63b8ff" stroke="#63b8ff" points="467.87,-137.17 478.46,-137.39 470.31,-130.61 467.87,-137.17"/>
</a>
</g>
</g>
<!-- Node17 -->
<g id="Node000017" class="node">
<title>Node17</title>
<g id="a_Node000017"><a xlink:href="_socket_8h.html" target="_top" xlink:title=" ">
<polygon fill="white" stroke="#666666" points="682,-90.5 572,-90.5 572,-71.5 682,-71.5 682,-90.5"/>
<text text-anchor="middle" x="627" y="-78.5" font-family="Helvetica,sans-Serif" font-size="10.00">Cpl/TShell/Socket.h</text>
</a>
</g>
</g>
<!-- Node14&#45;&gt;Node17 -->
<g id="edge18_Node000014_Node000017" class="edge">
<title>Node14&#45;&gt;Node17</title>
<g id="a_edge18_Node000014_Node000017"><a xlink:title=" ">
<path fill="none" stroke="#63b8ff" d="M537.3,-132.36C559.74,-119.76 592.41,-101.42 611.5,-90.7"/>
<polygon fill="#63b8ff" stroke="#63b8ff" points="535.38,-129.42 528.37,-137.37 538.81,-135.53 535.38,-129.42"/>
</a>
</g>
</g>
<!-- Node15&#45;&gt;Node16 -->
<g id="edge16_Node000015_Node000016" class="edge">
<title>Node15&#45;&gt;Node16</title>
<g id="a_edge16_Node000015_Node000016"><a xlink:title=" ">
<path fill="none" stroke="#63b8ff" d="M478.98,-62.91C470.38,-50.68 459.15,-34.7 452.26,-24.91"/>
<polygon fill="#63b8ff" stroke="#63b8ff" points="476.32,-65.2 484.93,-71.37 482.04,-61.18 476.32,-65.2"/>
</a>
</g>
</g>
<!-- Node18&#45;&gt;Node6 -->
<g id="edge20_Node000018_Node000006" class="edge">
<title>Node18&#45;&gt;Node6</title>
<g id="a_edge20_Node000018_Node000006"><a xlink:title=" ">
<path fill="none" stroke="#63b8ff" d="M1247.07,-127.45C1243.88,-115.43 1239.87,-100.32 1237.37,-90.91"/>
<polygon fill="#63b8ff" stroke="#63b8ff" points="1243.76,-128.6 1249.71,-137.37 1250.52,-126.81 1243.76,-128.6"/>
</a>
</g>
</g>
<!-- Node20 -->
<g id="Node000020" class="node">
<title>Node20</title>
<g id="a_Node000020"><a xlink:href="_async_connector_8h.html" target="_top" xlink:title=" ">
<polygon fill="#fff0f0" stroke="red" points="1014.5,-90.5 861.5,-90.5 861.5,-71.5 1014.5,-71.5 1014.5,-90.5"/>
<text text-anchor="middle" x="938" y="-78.5" font-family="Helvetica,sans-Serif" font-size="10.00">Cpl/Io/Tcp/AsyncConnector.h</text>
</a>
</g>
</g>
<!-- Node19&#45;&gt;Node20 -->
<g id="edge22_Node000019_Node000020" class="edge">
<title>Node19&#45;&gt;Node20</title>
<g id="a_edge22_Node000019_Node000020"><a xlink:title=" ">
<path fill="none" stroke="#63b8ff" d="M799.49,-133.84C833.28,-121.2 885.29,-101.73 915.03,-90.6"/>
<polygon fill="#63b8ff" stroke="#63b8ff" points="798.2,-130.59 790.06,-137.37 800.65,-137.14 798.2,-130.59"/>
</a>
</g>
</g>
<!-- Node22 -->
<g id="Node000022" class="node">
<title>Node22</title>
<g id="a_Node000022"><a xlink:href="_async_listener_8h.html" target="_top" xlink:title=" ">
<polygon fill="#fff0f0" stroke="red" points="843.5,-90.5 700.5,-90.5 700.5,-71.5 843.5,-71.5 843.5,-90.5"/>
<text text-anchor="middle" x="772" y="-78.5" font-family="Helvetica,sans-Serif" font-size="10.00">Cpl/Io/Tcp/AsyncListener.h</text>
</a>
</g>
</g>
<!-- Node19&#45;&gt;Node22 -->
<g id="edge23_Node000019_Node000022" class="edge">
<title>Node19&#45;&gt;Node22</title>
<g id="a_edge23_Node000019_Node000022"><a xlink:title=" ">
<path fill="none" stroke="#63b8ff" d="M768.48,-127.08C769.41,-115.13 770.58,-100.22 771.3,-90.91"/>
<polygon fill="#63b8ff" stroke="#63b8ff" points="764.96,-127.13 767.67,-137.37 771.94,-127.67 764.96,-127.13"/>
</a>
</g>
</g>
<!-- Node25&#45;&gt;Node8 -->
<g id="edge26_Node000025_Node000008" class="edge">
<title>Node25&#45;&gt;Node8</title>
<g id="a_edge26_Node000025_Node000008"><a xlink:title=" ">
<path fill="none" stroke="#63b8ff" d="M1615.63,-195.82C1564.45,-184.52 1484.7,-166.92 1437.58,-156.52"/>
<polygon fill="#63b8ff" stroke="#63b8ff" points="1614.95,-199.26 1625.47,-197.99 1616.46,-192.42 1614.95,-199.26"/>
</a>
</g>
</g>
<!-- Node25&#45;&gt;Node18 -->
<g id="edge27_Node000025_Node000018" class="edge">
<title>Node25&#45;&gt;Node18</title>
<g id="a_edge27_Node000025_Node000018"><a xlink:title=" ">
<path fill="none" stroke="#63b8ff" d="M1592.99,-197.58C1526.3,-189.03 1423.76,-175.48 1335,-162 1324.02,-160.33 1312.24,-158.42 1301.11,-156.56"/>
<polygon fill="#63b8ff" stroke="#63b8ff" points="1592.61,-201.06 1602.98,-198.85 1593.5,-194.11 1592.61,-201.06"/>
</a>
</g>
</g>
<!-- Node26 -->
<g id="Node000026" class="node">
<title>Node26</title>
<g id="a_Node000026"><a xlink:href="_std_err_8h.html" target="_top" xlink:title=" ">
<polygon fill="white" stroke="#666666" points="1720.5,-156.5 1607.5,-156.5 1607.5,-137.5 1720.5,-137.5 1720.5,-156.5"/>
<text text-anchor="middle" x="1664" y="-144.5" font-family="Helvetica,sans-Serif" font-size="10.00">Cpl/Io/Stdio/StdErr.h</text>
</a>
</g>
</g>
<!-- Node25&#45;&gt;Node26 -->
<g id="edge28_Node000025_Node000026" class="edge">
<title>Node25&#45;&gt;Node26</title>
<g id="a_edge28_Node000025_Node000026"><a xlink:title=" ">
<path fill="none" stroke="#63b8ff" d="M1664,-187.66C1664,-177.24 1664,-164.8 1664,-156.67"/>
<polygon fill="#63b8ff" stroke="#63b8ff" points="1660.5,-187.87 1664,-197.87 1667.5,-187.87 1660.5,-187.87"/>
</a>
</g>
</g>
<!-- Node27 -->
<g id="Node000027" class="node">
<title>Node27</title>
<g id="a_Node000027"><a xlink:href="_std_out_8h.html" target="_top" xlink:title=" ">
<polygon fill="white" stroke="#666666" points="1589.5,-156.5 1472.5,-156.5 1472.5,-137.5 1589.5,-137.5 1589.5,-156.5"/>
<text text-anchor="middle" x="1531" y="-144.5" font-family="Helvetica,sans-Serif" font-size="10.00">Cpl/Io/Stdio/StdOut.h</text>
</a>
</g>
</g>
<!-- Node25&#45;&gt;Node27 -->
<g id="edge29_Node000025_Node000027" class="edge">
<title>Node25&#45;&gt;Node27</title>
<g id="a_edge29_Node000025_Node000027"><a xlink:title=" ">
<path fill="none" stroke="#63b8ff" d="M1635.43,-193.93C1609.75,-182.64 1572.73,-166.36 1550.36,-156.52"/>
<polygon fill="#63b8ff" stroke="#63b8ff" points="1634.1,-197.17 1644.66,-197.99 1636.92,-190.76 1634.1,-197.17"/>
</a>
</g>
</g>
<!-- Node30 -->
<g id="Node000030" class="node">
<title>Node30</title>
<g id="a_Node000030"><a xlink:href="_integer_expression_parser_8h.html" target="_top" xlink:title="This file contains a collection of methods that parses a null terminated string that contains an arit...">
<polygon fill="white" stroke="#666666" points="1889.5,-162 1738.5,-162 1738.5,-132 1889.5,-132 1889.5,-162"/>
<text text-anchor="start" x="1746.5" y="-150" font-family="Helvetica,sans-Serif" font-size="10.00">Cpl/Math/IntegerExpression</text>
<text text-anchor="middle" x="1814" y="-139" font-family="Helvetica,sans-Serif" font-size="10.00">Parser.h</text>
</a>
</g>
</g>
<!-- Node29&#45;&gt;Node30 -->
<g id="edge32_Node000029_Node000030" class="edge">
<title>Node29&#45;&gt;Node30</title>
<g id="a_edge32_Node000029_Node000030"><a xlink:title=" ">
<path fill="none" stroke="#63b8ff" d="M2000.53,-195.44C1963.32,-185.98 1909.55,-172.3 1869.3,-162.06"/>
<polygon fill="#63b8ff" stroke="#63b8ff" points="2000,-198.92 2010.56,-197.99 2001.73,-192.14 2000,-198.92"/>
</a>
</g>
</g>
<!-- Node31 -->
<g id="Node000031" class="node">
<title>Node31</title>
<g id="a_Node000031"><a xlink:href="_real_expression_parser_8h.html" target="_top" xlink:title="This file contains a collection of methods that parses a null terminated string that contains an arit...">
<polygon fill="white" stroke="#666666" points="2084,-156.5 1908,-156.5 1908,-137.5 2084,-137.5 2084,-156.5"/>
<text text-anchor="middle" x="1996" y="-144.5" font-family="Helvetica,sans-Serif" font-size="10.00">Cpl/Math/RealExpressionParser.h</text>
</a>
</g>
</g>
<!-- Node29&#45;&gt;Node31 -->
<g id="edge33_Node000029_Node000031" class="edge">
<title>Node29&#45;&gt;Node31</title>
<g id="a_edge33_Node000029_Node000031"><a xlink:title=" ">
<path fill="none" stroke="#63b8ff" d="M2030.42,-189.95C2021.54,-179.12 2010.28,-165.41 2003.11,-156.67"/>
<polygon fill="#63b8ff" stroke="#63b8ff" points="2027.87,-192.36 2036.92,-197.87 2033.28,-187.92 2027.87,-192.36"/>
</a>
</g>
</g>
<!-- Node32 -->
<g id="Node000032" class="node">
<title>Node32</title>
<g id="a_Node000032"><a xlink:href="_system_2_private___8h.html" target="_top" xlink:title="This file contains a collection of classes, interfaces, etc.">
<polygon fill="white" stroke="#666666" points="2264,-156.5 2140,-156.5 2140,-137.5 2264,-137.5 2264,-156.5"/>
<text text-anchor="middle" x="2202" y="-144.5" font-family="Helvetica,sans-Serif" font-size="10.00">Cpl/System/Private_.h</text>
</a>
</g>
</g>
<!-- Node29&#45;&gt;Node32 -->
<g id="edge34_Node000029_Node000032" class="edge">
<title>Node29&#45;&gt;Node32</title>
<g id="a_edge34_Node000029_Node000032"><a xlink:title=" ">
<path fill="none" stroke="#63b8ff" d="M2076.74,-194.38C2107.28,-183.07 2152.07,-166.49 2179,-156.52"/>
<polygon fill="#63b8ff" stroke="#63b8ff" points="2075.14,-191.24 2066.97,-197.99 2077.57,-197.8 2075.14,-191.24"/>
</a>
</g>
</g>
<!-- Node33 -->
<g id="Node000033" class="node">
<title>Node33</title>
<g id="a_Node000033"><a xlink:href="_cpl_2_t_shell_2_maker_8h.html" target="_top" xlink:title=" ">
<polygon fill="white" stroke="#666666" points="2734.5,-24.5 2627.5,-24.5 2627.5,-5.5 2734.5,-5.5 2734.5,-24.5"/>
<text text-anchor="middle" x="2681" y="-12.5" font-family="Helvetica,sans-Serif" font-size="10.00">Cpl/TShell/Maker.h</text>
</a>
</g>
</g>
<!-- Node32&#45;&gt;Node33 -->
<g id="edge35_Node000032_Node000033" class="edge">
<title>Node32&#45;&gt;Node33</title>
<g id="a_edge35_Node000032_Node000033"><a xlink:title=" ">
<path fill="none" stroke="#63b8ff" d="M2243.15,-134.83C2337.07,-109.34 2565.58,-47.32 2649.46,-24.56"/>
<polygon fill="#63b8ff" stroke="#63b8ff" points="2242.16,-131.47 2233.43,-137.47 2244,-138.23 2242.16,-131.47"/>
</a>
</g>
</g>
<!-- Node34 -->
<g id="Node000034" class="node">
<title>Node34</title>
<g id="a_Node000034"><a xlink:href="_polled_maker_8h.html" target="_top" xlink:title=" ">
<polygon fill="white" stroke="#666666" points="2197.5,-90.5 2060.5,-90.5 2060.5,-71.5 2197.5,-71.5 2197.5,-90.5"/>
<text text-anchor="middle" x="2129" y="-78.5" font-family="Helvetica,sans-Serif" font-size="10.00">Cpl/TShell/PolledMaker.h</text>
</a>
</g>
</g>
<!-- Node32&#45;&gt;Node34 -->
<g id="edge36_Node000032_Node000034" class="edge">
<title>Node32&#45;&gt;Node34</title>
<g id="a_edge36_Node000032_Node000034"><a xlink:title=" ">
<path fill="none" stroke="#63b8ff" d="M2184.52,-130.68C2170.36,-118.26 2150.88,-101.18 2139.16,-90.91"/>
<polygon fill="#63b8ff" stroke="#63b8ff" points="2182.33,-133.41 2192.15,-137.37 2186.94,-128.14 2182.33,-133.41"/>
</a>
</g>
</g>
<!-- Node36 -->
<g id="Node000036" class="node">
<title>Node36</title>
<g id="a_Node000036"><a xlink:href="_cmd_2_command_8h.html" target="_top" xlink:title=" ">
<polygon fill="#fff0f0" stroke="red" points="2368.5,-90.5 2215.5,-90.5 2215.5,-71.5 2368.5,-71.5 2368.5,-90.5"/>
<text text-anchor="middle" x="2292" y="-78.5" font-family="Helvetica,sans-Serif" font-size="10.00">Cpl/TShell/Cmd/Command.h</text>
</a>
</g>
</g>
<!-- Node35&#45;&gt;Node36 -->
<g id="edge38_Node000035_Node000036" class="edge">
<title>Node35&#45;&gt;Node36</title>
<g id="a_edge38_Node000035_Node000036"><a xlink:title=" ">
<path fill="none" stroke="#63b8ff" d="M2248.17,-191.4C2256.96,-183.52 2266.79,-173.2 2273,-162 2286.02,-138.53 2290.16,-106.39 2291.45,-90.97"/>
<polygon fill="#63b8ff" stroke="#63b8ff" points="2245.88,-188.76 2240.52,-197.9 2250.41,-194.09 2245.88,-188.76"/>
</a>
</g>
</g>
<!-- Node56 -->
<g id="Node000056" class="node">
<title>Node56</title>
<g id="a_Node000056"><a xlink:href="_context___8h.html" target="_top" xlink:title=" ">
<polygon fill="white" stroke="#666666" points="2441.5,-156.5 2320.5,-156.5 2320.5,-137.5 2441.5,-137.5 2441.5,-156.5"/>
<text text-anchor="middle" x="2381" y="-144.5" font-family="Helvetica,sans-Serif" font-size="10.00">Cpl/TShell/Context_.h</text>
</a>
</g>
</g>
<!-- Node35&#45;&gt;Node56 -->
<g id="edge46_Node000035_Node000056" class="edge">
<title>Node35&#45;&gt;Node56</title>
<g id="a_edge46_Node000035_Node000056"><a xlink:title=" ">
<path fill="none" stroke="#63b8ff" d="M2260.5,-194.38C2289.88,-183.07 2332.97,-166.49 2358.87,-156.52"/>
<polygon fill="#63b8ff" stroke="#63b8ff" points="2259.18,-191.14 2251.1,-197.99 2261.69,-197.67 2259.18,-191.14"/>
</a>
</g>
</g>
<!-- Node37 -->
<g id="Node000037" class="node">
<title>Node37</title>
<g id="a_Node000037"><a xlink:href="_dm_8h.html" target="_top" xlink:title=" ">
<polygon fill="white" stroke="#666666" points="2490.5,-24.5 2375.5,-24.5 2375.5,-5.5 2490.5,-5.5 2490.5,-24.5"/>
<text text-anchor="middle" x="2433" y="-12.5" font-family="Helvetica,sans-Serif" font-size="10.00">Cpl/Dm/TShell/Dm.h</text>
</a>
</g>
</g>
<!-- Node36&#45;&gt;Node37 -->
<g id="edge39_Node000036_Node000037" class="edge">
<title>Node36&#45;&gt;Node37</title>
<g id="a_edge39_Node000036_Node000037"><a xlink:title=" ">
<path fill="none" stroke="#63b8ff" d="M2320.21,-67.19C2348,-54.58 2389.69,-35.66 2413.84,-24.7"/>
<polygon fill="#63b8ff" stroke="#63b8ff" points="2318.68,-64.05 2311.02,-71.37 2321.57,-70.42 2318.68,-64.05"/>
</a>
</g>
</g>
<!-- Node38 -->
<g id="Node000038" class="node">
<title>Node38</title>
<g id="a_Node000038"><a xlink:href="_fs_8h.html" target="_top" xlink:title=" ">
<polygon fill="white" stroke="#666666" points="2609.5,-30 2508.5,-30 2508.5,0 2609.5,0 2609.5,-30"/>
<text text-anchor="start" x="2516.5" y="-18" font-family="Helvetica,sans-Serif" font-size="10.00">Cpl/Io/File/Littlefs</text>
<text text-anchor="middle" x="2559" y="-7" font-family="Helvetica,sans-Serif" font-size="10.00">/TShell/Fs.h</text>
</a>
</g>
</g>
<!-- Node36&#45;&gt;Node38 -->
<g id="edge40_Node000036_Node000038" class="edge">
<title>Node36&#45;&gt;Node38</title>
<g id="a_edge40_Node000036_Node000038"><a xlink:title=" ">
<path fill="none" stroke="#63b8ff" d="M2337.73,-69.04C2385.2,-57.66 2459.25,-39.91 2508.44,-28.12"/>
<polygon fill="#63b8ff" stroke="#63b8ff" points="2336.64,-65.7 2327.73,-71.44 2338.27,-72.51 2336.64,-65.7"/>
</a>
</g>
</g>
<!-- Node39 -->
<g id="Node000039" class="node">
<title>Node39</title>
<g id="a_Node000039"><a xlink:href="_log_8h.html" target="_top" xlink:title=" ">
<polygon fill="white" stroke="#666666" points="1808.5,-30 1701.5,-30 1701.5,0 1808.5,0 1808.5,-30"/>
<text text-anchor="start" x="1709.5" y="-18" font-family="Helvetica,sans-Serif" font-size="10.00">Cpl/Logging/TShell</text>
<text text-anchor="middle" x="1755" y="-7" font-family="Helvetica,sans-Serif" font-size="10.00">/Log.h</text>
</a>
</g>
</g>
<!-- Node36&#45;&gt;Node39 -->
<g id="edge41_Node000036_Node000039" class="edge">
<title>Node36&#45;&gt;Node39</title>
<g id="a_edge41_Node000036_Node000039"><a xlink:title=" ">
<path fill="none" stroke="#63b8ff" d="M2233.94,-69.87C2224.94,-68.47 2215.73,-67.12 2207,-66 2034.79,-43.88 1989.53,-56.89 1818,-30 1814.9,-29.51 1811.73,-28.97 1808.53,-28.38"/>
<polygon fill="#63b8ff" stroke="#63b8ff" points="2233.56,-73.36 2243.99,-71.48 2234.67,-66.45 2233.56,-73.36"/>
</a>
</g>
</g>
<!-- Node40 -->
<g id="Node000040" class="node">
<title>Node40</title>
<g id="a_Node000040"><a xlink:href="_cpl_2_m_app_2_cmd_8h.html" target="_top" xlink:title=" ">
<polygon fill="white" stroke="#666666" points="1925,-24.5 1827,-24.5 1827,-5.5 1925,-5.5 1925,-24.5"/>
<text text-anchor="middle" x="1876" y="-12.5" font-family="Helvetica,sans-Serif" font-size="10.00">Cpl/MApp/Cmd.h</text>
</a>
</g>
</g>
<!-- Node36&#45;&gt;Node40 -->
<g id="edge42_Node000036_Node000040" class="edge">
<title>Node36&#45;&gt;Node40</title>
<g id="a_edge42_Node000036_Node000040"><a xlink:title=" ">
<path fill="none" stroke="#63b8ff" d="M2231.69,-69.82C2223.4,-68.49 2214.99,-67.19 2207,-66 2085.94,-48.05 2054.32,-52.39 1934,-30 1925.75,-28.47 1916.92,-26.5 1908.69,-24.53"/>
<polygon fill="#63b8ff" stroke="#63b8ff" points="2231.27,-73.3 2241.7,-71.44 2232.39,-66.39 2231.27,-73.3"/>
</a>
</g>
</g>
<!-- Node41 -->
<g id="Node000041" class="node">
<title>Node41</title>
<g id="a_Node000041"><a xlink:href="_bye_8h.html" target="_top" xlink:title=" ">
<polygon fill="white" stroke="#666666" points="2065,-24.5 1943,-24.5 1943,-5.5 2065,-5.5 2065,-24.5"/>
<text text-anchor="middle" x="2004" y="-12.5" font-family="Helvetica,sans-Serif" font-size="10.00">Cpl/TShell/Cmd/Bye.h</text>
</a>
</g>
</g>
<!-- Node36&#45;&gt;Node41 -->
<g id="edge43_Node000036_Node000041" class="edge">
<title>Node36&#45;&gt;Node41</title>
<g id="a_edge43_Node000036_Node000041"><a xlink:title=" ">
<path fill="none" stroke="#63b8ff" d="M2243.66,-69.26C2186.99,-56.67 2094.25,-36.06 2042.31,-24.51"/>
<polygon fill="#63b8ff" stroke="#63b8ff" points="2242.94,-72.68 2253.46,-71.44 2244.46,-65.85 2242.94,-72.68"/>
</a>
</g>
</g>
<!-- Node42 -->
<g id="Node000042" class="node">
<title>Node42</title>
<g id="a_Node000042"><a xlink:href="_help_8h.html" target="_top" xlink:title=" ">
<polygon fill="white" stroke="#666666" points="2208.5,-24.5 2083.5,-24.5 2083.5,-5.5 2208.5,-5.5 2208.5,-24.5"/>
<text text-anchor="middle" x="2146" y="-12.5" font-family="Helvetica,sans-Serif" font-size="10.00">Cpl/TShell/Cmd/Help.h</text>
</a>
</g>
</g>
<!-- Node36&#45;&gt;Node42 -->
<g id="edge44_Node000036_Node000042" class="edge">
<title>Node36&#45;&gt;Node42</title>
<g id="a_edge44_Node000036_Node000042"><a xlink:title=" ">
<path fill="none" stroke="#63b8ff" d="M2262.79,-67.19C2234.01,-54.58 2190.85,-35.66 2165.84,-24.7"/>
<polygon fill="#63b8ff" stroke="#63b8ff" points="2261.75,-70.56 2272.31,-71.37 2264.56,-64.15 2261.75,-70.56"/>
</a>
</g>
</g>
<!-- Node43 -->
<g id="Node000043" class="node">
<title>Node43</title>
<g id="a_Node000043"><a xlink:href="_t_print_8h.html" target="_top" xlink:title=" ">
<polygon fill="white" stroke="#666666" points="2357.5,-24.5 2226.5,-24.5 2226.5,-5.5 2357.5,-5.5 2357.5,-24.5"/>
<text text-anchor="middle" x="2292" y="-12.5" font-family="Helvetica,sans-Serif" font-size="10.00">Cpl/TShell/Cmd/TPrint.h</text>
</a>
</g>
</g>
<!-- Node36&#45;&gt;Node43 -->
<g id="edge45_Node000036_Node000043" class="edge">
<title>Node36&#45;&gt;Node43</title>
<g id="a_edge45_Node000036_Node000043"><a xlink:title=" ">
<path fill="none" stroke="#63b8ff" d="M2292,-61.08C2292,-49.13 2292,-34.22 2292,-24.91"/>
<polygon fill="#63b8ff" stroke="#63b8ff" points="2288.5,-61.37 2292,-71.37 2295.5,-61.37 2288.5,-61.37"/>
</a>
</g>
</g>
<!-- Node56&#45;&gt;Node36 -->
<g id="edge47_Node000056_Node000036" class="edge">
<title>Node56&#45;&gt;Node36</title>
<g id="a_edge47_Node000056_Node000036"><a xlink:title=" ">
<path fill="none" stroke="#63b8ff" d="M2360.61,-131.33C2343.15,-118.78 2318.61,-101.13 2304.1,-90.7"/>
<polygon fill="#63b8ff" stroke="#63b8ff" points="2358.83,-134.37 2369,-137.37 2362.92,-128.69 2358.83,-134.37"/>
</a>
</g>
</g>
<!-- Node57 -->
<g id="Node000057" class="node">
<title>Node57</title>
<g id="a_Node000057"><a xlink:href="_processor_8h.html" target="_top" xlink:title=" ">
<polygon fill="#fff0f0" stroke="red" points="2738,-90.5 2614,-90.5 2614,-71.5 2738,-71.5 2738,-90.5"/>
<text text-anchor="middle" x="2676" y="-78.5" font-family="Helvetica,sans-Serif" font-size="10.00">Cpl/TShell/Processor.h</text>
</a>
</g>
</g>
<!-- Node56&#45;&gt;Node57 -->
<g id="edge48_Node000056_Node000057" class="edge">
<title>Node56&#45;&gt;Node57</title>
<g id="a_edge48_Node000056_Node000057"><a xlink:title=" ">
<path fill="none" stroke="#63b8ff" d="M2430.52,-135.26C2488.56,-122.67 2583.56,-102.06 2636.75,-90.51"/>
<polygon fill="#63b8ff" stroke="#63b8ff" points="2429.51,-131.89 2420.48,-137.44 2430.99,-138.74 2429.51,-131.89"/>
</a>
</g>
</g>
<!-- Node57&#45;&gt;Node33 -->
<g id="edge49_Node000057_Node000033" class="edge">
<title>Node57&#45;&gt;Node33</title>
<g id="a_edge49_Node000057_Node000033"><a xlink:title=" ">
<path fill="none" stroke="#63b8ff" d="M2677.48,-61.08C2678.41,-49.13 2679.58,-34.22 2680.3,-24.91"/>
<polygon fill="#63b8ff" stroke="#63b8ff" points="2673.96,-61.13 2676.67,-71.37 2680.94,-61.67 2673.96,-61.13"/>
</a>
</g>
</g>
<!-- Node59&#45;&gt;Node17 -->
<g id="edge52_Node000059_Node000017" class="edge">
<title>Node59&#45;&gt;Node17</title>
<g id="a_edge52_Node000059_Node000017"><a xlink:title=" ">
<path fill="none" stroke="#63b8ff" d="M2301.25,-196.6C2239.93,-188.2 2160.81,-175.39 2131,-162 2111.37,-153.18 2113.24,-139.32 2093,-132 1946.46,-79.01 845.7,-114.73 691,-96 680.95,-94.78 670.15,-92.72 660.34,-90.55"/>
<polygon fill="#63b8ff" stroke="#63b8ff" points="2300.94,-200.09 2311.32,-197.96 2301.88,-193.15 2300.94,-200.09"/>
</a>
</g>
</g>
<!-- Node59&#45;&gt;Node56 -->
<g id="edge51_Node000059_Node000056" class="edge">
<title>Node59&#45;&gt;Node56</title>
<g id="a_edge51_Node000059_Node000056"><a xlink:title=" ">
<path fill="none" stroke="#63b8ff" d="M2381,-187.66C2381,-177.24 2381,-164.8 2381,-156.67"/>
<polygon fill="#63b8ff" stroke="#63b8ff" points="2377.5,-187.87 2381,-197.87 2384.5,-187.87 2377.5,-187.87"/>
</a>
</g>
</g>
<!-- Node60 -->
<g id="Node000060" class="node">
<title>Node60</title>
<g id="a_Node000060"><a xlink:href="_stdio_8h.html" target="_top" xlink:title=" ">
<polygon fill="#fff0f0" stroke="red" points="2562,-156.5 2460,-156.5 2460,-137.5 2562,-137.5 2562,-156.5"/>
<text text-anchor="middle" x="2511" y="-144.5" font-family="Helvetica,sans-Serif" font-size="10.00">Cpl/TShell/Stdio.h</text>
</a>
</g>
</g>
<!-- Node59&#45;&gt;Node60 -->
<g id="edge53_Node000059_Node000060" class="edge">
<title>Node59&#45;&gt;Node60</title>
<g id="a_edge53_Node000059_Node000060"><a xlink:title=" ">
<path fill="none" stroke="#63b8ff" d="M2409.26,-193.78C2434.35,-182.49 2470.31,-166.31 2492.07,-156.52"/>
<polygon fill="#63b8ff" stroke="#63b8ff" points="2407.59,-190.7 2399.9,-197.99 2410.46,-197.08 2407.59,-190.7"/>
</a>
</g>
</g>
<!-- Node63&#45;&gt;Node57 -->
<g id="edge56_Node000063_Node000057" class="edge">
<title>Node63&#45;&gt;Node57</title>
<g id="a_edge56_Node000063_Node000057"><a xlink:title=" ">
<path fill="none" stroke="#63b8ff" d="M2719.54,-193.74C2733.88,-186.73 2748.83,-176.45 2757,-162 2763.56,-150.39 2763.5,-143.64 2757,-132 2745.49,-111.36 2721.56,-98.18 2702.68,-90.56"/>
<polygon fill="#63b8ff" stroke="#63b8ff" points="2717.99,-190.6 2710.29,-197.88 2720.85,-196.99 2717.99,-190.6"/>
</a>
</g>
</g>
<!-- Node63&#45;&gt;Node62 -->
<g id="edge57_Node000063_Node000062" class="edge">
<title>Node63&#45;&gt;Node62</title>
<g id="a_edge57_Node000063_Node000062"><a xlink:title=" ">
<path fill="none" stroke="#63b8ff" d="M2677.1,-188.32C2673.67,-177.78 2669.51,-164.98 2666.82,-156.67"/>
<polygon fill="#63b8ff" stroke="#63b8ff" points="2673.78,-189.44 2680.2,-197.87 2680.44,-187.28 2673.78,-189.44"/>
</a>
</g>
</g>
<!-- Node63&#45;&gt;Node64 -->
<g id="edge58_Node000063_Node000064" class="edge">
<title>Node63&#45;&gt;Node64</title>
<g id="a_edge58_Node000063_Node000064"><a xlink:title=" ">
<path fill="none" stroke="#63b8ff" d="M2717.95,-194.82C2751.8,-183.5 2802.31,-166.62 2832.52,-156.52"/>
<polygon fill="#63b8ff" stroke="#63b8ff" points="2716.82,-191.5 2708.45,-197.99 2719.04,-198.14 2716.82,-191.5"/>
</a>
</g>
</g>
<!-- Node64&#45;&gt;Node65 -->
<g id="edge59_Node000064_Node000065" class="edge">
<title>Node64&#45;&gt;Node65</title>
<g id="a_edge59_Node000064_Node000065"><a xlink:title=" ">
<path fill="none" stroke="#63b8ff" d="M2878.19,-131.32C2892.73,-120.74 2912.23,-106.56 2926.59,-96.12"/>
<polygon fill="#63b8ff" stroke="#63b8ff" points="2875.9,-128.66 2869.87,-137.37 2880.01,-134.32 2875.9,-128.66"/>
</a>
</g>
</g>
<!-- Node66 -->
<g id="Node000066" class="node">
<title>Node66</title>
<g id="a_Node000066"><a xlink:href="_driver_2_t_pipe_2_maker_8h.html" target="_top" xlink:title=" ">
<polygon fill="white" stroke="#666666" points="2874,-90.5 2756,-90.5 2756,-71.5 2874,-71.5 2874,-90.5"/>
<text text-anchor="middle" x="2815" y="-78.5" font-family="Helvetica,sans-Serif" font-size="10.00">Driver/TPipe/Maker.h</text>
</a>
</g>
</g>
<!-- Node64&#45;&gt;Node66 -->
<g id="edge60_Node000064_Node000066" class="edge">
<title>Node64&#45;&gt;Node66</title>
<g id="a_edge60_Node000064_Node000066"><a xlink:title=" ">
<path fill="none" stroke="#63b8ff" d="M2846.52,-128.91C2838.3,-116.68 2827.56,-100.7 2820.98,-90.91"/>
<polygon fill="#63b8ff" stroke="#63b8ff" points="2843.72,-131.02 2852.2,-137.37 2849.53,-127.12 2843.72,-131.02"/>
</a>
</g>
</g>
</g>
</svg>
