<?xml version="1.0" encoding="UTF-8" standalone="no"?>
<!DOCTYPE svg PUBLIC "-//W3C//DTD SVG 1.1//EN"
 "http://www.w3.org/Graphics/SVG/1.1/DTD/svg11.dtd">
<!-- Generated by graphviz version 2.43.0 (0)
 -->
<!-- Title: Cpl/Persistent/Payload.h Pages: 1 -->
<svg width="1252pt" height="423pt"
 viewBox="0.00 0.00 1251.73 423.00" xmlns="http://www.w3.org/2000/svg" xmlns:xlink="http://www.w3.org/1999/xlink">
<g id="graph0" class="graph" transform="scale(1 1) rotate(0) translate(4 419)">
<title>Cpl/Persistent/Payload.h</title>
<!-- Node1 -->
<g id="Node000001" class="node">
<title>Node1</title>
<g id="a_Node000001"><a xlink:title=" ">
<polygon fill="#999999" stroke="#666666" points="564.5,-415 430.5,-415 430.5,-396 564.5,-396 564.5,-415"/>
<text text-anchor="middle" x="497.5" y="-403" font-family="Helvetica,sans-Serif" font-size="10.00">Cpl/Persistent/Payload.h</text>
</a>
</g>
</g>
<!-- Node2 -->
<g id="Node000002" class="node">
<title>Node2</title>
<g id="a_Node000002"><a xlink:href="_dm_2_persistent_2_record_8h.html" target="_top" xlink:title=" ">
<polygon fill="white" stroke="#666666" points="357.5,-288.5 207.5,-288.5 207.5,-269.5 357.5,-269.5 357.5,-288.5"/>
<text text-anchor="middle" x="282.5" y="-276.5" font-family="Helvetica,sans-Serif" font-size="10.00">Cpl/Dm/Persistent/Record.h</text>
</a>
</g>
</g>
<!-- Node1&#45;&gt;Node2 -->
<g id="edge1_Node000001_Node000002" class="edge">
<title>Node1&#45;&gt;Node2</title>
<g id="a_edge1_Node000001_Node000002"><a xlink:title=" ">
<path fill="none" stroke="#63b8ff" d="M474.05,-390.92C429.57,-365.17 334.16,-309.91 297.38,-288.62"/>
<polygon fill="#63b8ff" stroke="#63b8ff" points="472.31,-393.96 482.72,-395.94 475.82,-387.9 472.31,-393.96"/>
</a>
</g>
</g>
<!-- Node3 -->
<g id="Node000003" class="node">
<title>Node3</title>
<g id="a_Node000003"><a xlink:href="_entry_data___t_8h.html" target="_top" xlink:title=" ">
<polygon fill="white" stroke="#666666" points="1170,-354.5 1025,-354.5 1025,-335.5 1170,-335.5 1170,-354.5"/>
<text text-anchor="middle" x="1097.5" y="-342.5" font-family="Helvetica,sans-Serif" font-size="10.00">Cpl/Logging/EntryData_T.h</text>
</a>
</g>
</g>
<!-- Node1&#45;&gt;Node3 -->
<g id="edge2_Node000001_Node000003" class="edge">
<title>Node1&#45;&gt;Node3</title>
<g id="a_edge2_Node000001_Node000003"><a xlink:title=" ">
<path fill="none" stroke="#63b8ff" d="M574.76,-397.06C665.99,-388.27 822.29,-373.17 956.5,-360 978.66,-357.83 1002.77,-355.44 1024.68,-353.26"/>
<polygon fill="#63b8ff" stroke="#63b8ff" points="574.4,-393.58 564.78,-398.03 575.07,-400.55 574.4,-393.58"/>
</a>
</g>
</g>
<!-- Node7 -->
<g id="Node000007" class="node">
<title>Node7</title>
<g id="a_Node000007"><a xlink:href="_chunk_8h.html" target="_top" xlink:title=" ">
<polygon fill="white" stroke="#666666" points="561,-354.5 434,-354.5 434,-335.5 561,-335.5 561,-354.5"/>
<text text-anchor="middle" x="497.5" y="-342.5" font-family="Helvetica,sans-Serif" font-size="10.00">Cpl/Persistent/Chunk.h</text>
</a>
</g>
</g>
<!-- Node1&#45;&gt;Node7 -->
<g id="edge6_Node000001_Node000007" class="edge">
<title>Node1&#45;&gt;Node7</title>
<g id="a_edge6_Node000001_Node000007"><a xlink:title=" ">
<path fill="none" stroke="#63b8ff" d="M497.5,-385.66C497.5,-375.24 497.5,-362.8 497.5,-354.67"/>
<polygon fill="#63b8ff" stroke="#63b8ff" points="494,-385.87 497.5,-395.87 501,-385.87 494,-385.87"/>
</a>
</g>
</g>
<!-- Node9 -->
<g id="Node000009" class="node">
<title>Node9</title>
<g id="a_Node000009"><a xlink:href="_data_record_8h.html" target="_top" xlink:title=" ">
<polygon fill="white" stroke="#666666" points="914,-288.5 761,-288.5 761,-269.5 914,-269.5 914,-288.5"/>
<text text-anchor="middle" x="837.5" y="-276.5" font-family="Helvetica,sans-Serif" font-size="10.00">Cpl/Persistent/DataRecord.h</text>
</a>
</g>
</g>
<!-- Node1&#45;&gt;Node9 -->
<g id="edge16_Node000001_Node000009" class="edge">
<title>Node1&#45;&gt;Node9</title>
<g id="a_edge16_Node000001_Node000009"><a xlink:title=" ">
<path fill="none" stroke="#63b8ff" d="M530.28,-392.49C598.56,-367.49 754.59,-310.36 813.97,-288.62"/>
<polygon fill="#63b8ff" stroke="#63b8ff" points="529.06,-389.22 520.87,-395.94 531.46,-395.79 529.06,-389.22"/>
</a>
</g>
</g>
<!-- Node14 -->
<g id="Node000014" class="node">
<title>Node14</title>
<g id="a_Node000014"><a xlink:href="_indexed_entry_reader_8h.html" target="_top" xlink:title=" ">
<polygon fill="white" stroke="#666666" points="255,-360 104,-360 104,-330 255,-330 255,-360"/>
<text text-anchor="start" x="112" y="-348" font-family="Helvetica,sans-Serif" font-size="10.00">Cpl/Persistent/IndexedEntry</text>
<text text-anchor="middle" x="179.5" y="-337" font-family="Helvetica,sans-Serif" font-size="10.00">Reader.h</text>
</a>
</g>
</g>
<!-- Node1&#45;&gt;Node14 -->
<g id="edge17_Node000001_Node000014" class="edge">
<title>Node1&#45;&gt;Node14</title>
<g id="a_edge17_Node000001_Node000014"><a xlink:title=" ">
<path fill="none" stroke="#63b8ff" d="M441.25,-394.15C389.45,-384.62 312.2,-370.41 255.03,-359.89"/>
<polygon fill="#63b8ff" stroke="#63b8ff" points="440.79,-397.63 451.26,-395.99 442.06,-390.74 440.79,-397.63"/>
</a>
</g>
</g>
<!-- Node15 -->
<g id="Node000015" class="node">
<title>Node15</title>
<g id="a_Node000015"><a xlink:href="_indexed_entry_requests_8h.html" target="_top" xlink:title=" ">
<polygon fill="white" stroke="#666666" points="151,-294 0,-294 0,-264 151,-264 151,-294"/>
<text text-anchor="start" x="8" y="-282" font-family="Helvetica,sans-Serif" font-size="10.00">Cpl/Persistent/IndexedEntry</text>
<text text-anchor="middle" x="75.5" y="-271" font-family="Helvetica,sans-Serif" font-size="10.00">Requests.h</text>
</a>
</g>
</g>
<!-- Node1&#45;&gt;Node15 -->
<g id="edge21_Node000001_Node000015" class="edge">
<title>Node1&#45;&gt;Node15</title>
<g id="a_edge21_Node000001_Node000015"><a xlink:title=" ">
<path fill="none" stroke="#63b8ff" d="M420.32,-400.72C310.15,-394.62 118.38,-381.1 94.5,-360 75.89,-343.55 73.8,-312.5 74.37,-294.3"/>
<polygon fill="#63b8ff" stroke="#63b8ff" points="420.22,-404.22 430.39,-401.27 420.6,-397.23 420.22,-404.22"/>
</a>
</g>
</g>
<!-- Node16 -->
<g id="Node000016" class="node">
<title>Node16</title>
<g id="a_Node000016"><a xlink:href="_indexed_entry_writer_8h.html" target="_top" xlink:title=" ">
<polygon fill="white" stroke="#666666" points="922,-228 771,-228 771,-198 922,-198 922,-228"/>
<text text-anchor="start" x="779" y="-216" font-family="Helvetica,sans-Serif" font-size="10.00">Cpl/Persistent/IndexedEntry</text>
<text text-anchor="middle" x="846.5" y="-205" font-family="Helvetica,sans-Serif" font-size="10.00">Writer.h</text>
</a>
</g>
</g>
<!-- Node1&#45;&gt;Node16 -->
<g id="edge22_Node000001_Node000016" class="edge">
<title>Node1&#45;&gt;Node16</title>
<g id="a_edge22_Node000001_Node000016"><a xlink:title=" ">
<path fill="none" stroke="#63b8ff" d="M574.75,-395.75C685.68,-381.42 881.39,-348.89 923.5,-294 942.62,-269.07 906.18,-243.45 877.17,-228.13"/>
<polygon fill="#63b8ff" stroke="#63b8ff" points="574.1,-392.31 564.62,-397.04 574.98,-399.25 574.1,-392.31"/>
</a>
</g>
</g>
<!-- Node4 -->
<g id="Node000004" class="node">
<title>Node4</title>
<g id="a_Node000004"><a xlink:href="_cpl_2_logging_2_api_8h.html" target="_top" xlink:title=" ">
<polygon fill="white" stroke="#666666" points="1072,-288.5 971,-288.5 971,-269.5 1072,-269.5 1072,-288.5"/>
<text text-anchor="middle" x="1021.5" y="-276.5" font-family="Helvetica,sans-Serif" font-size="10.00">Cpl/Logging/Api.h</text>
</a>
</g>
</g>
<!-- Node3&#45;&gt;Node4 -->
<g id="edge3_Node000003_Node000004" class="edge">
<title>Node3&#45;&gt;Node4</title>
<g id="a_edge3_Node000003_Node000004"><a xlink:title=" ">
<path fill="none" stroke="#63b8ff" d="M1079.31,-328.68C1064.56,-316.26 1044.28,-299.18 1032.07,-288.91"/>
<polygon fill="#63b8ff" stroke="#63b8ff" points="1077.35,-331.6 1087.25,-335.37 1081.86,-326.25 1077.35,-331.6"/>
</a>
</g>
</g>
<!-- Node5 -->
<g id="Node000005" class="node">
<title>Node5</title>
<g id="a_Node000005"><a xlink:href="_log_sink_8h.html" target="_top" xlink:title=" ">
<polygon fill="white" stroke="#666666" points="1214.5,-288.5 1090.5,-288.5 1090.5,-269.5 1214.5,-269.5 1214.5,-288.5"/>
<text text-anchor="middle" x="1152.5" y="-276.5" font-family="Helvetica,sans-Serif" font-size="10.00">Cpl/Logging/LogSink.h</text>
</a>
</g>
</g>
<!-- Node3&#45;&gt;Node5 -->
<g id="edge4_Node000003_Node000005" class="edge">
<title>Node3&#45;&gt;Node5</title>
<g id="a_edge4_Node000003_Node000005"><a xlink:title=" ">
<path fill="none" stroke="#63b8ff" d="M1111.57,-327.62C1122.16,-315.31 1136.26,-298.89 1144.85,-288.91"/>
<polygon fill="#63b8ff" stroke="#63b8ff" points="1108.78,-325.5 1104.92,-335.37 1114.09,-330.07 1108.78,-325.5"/>
</a>
</g>
</g>
<!-- Node6 -->
<g id="Node000006" class="node">
<title>Node6</title>
<g id="a_Node000006"><a xlink:href="_log_8h.html" target="_top" xlink:title=" ">
<polygon fill="white" stroke="#666666" points="1059,-30 952,-30 952,0 1059,0 1059,-30"/>
<text text-anchor="start" x="960" y="-18" font-family="Helvetica,sans-Serif" font-size="10.00">Cpl/Logging/TShell</text>
<text text-anchor="middle" x="1005.5" y="-7" font-family="Helvetica,sans-Serif" font-size="10.00">/Log.h</text>
</a>
</g>
</g>
<!-- Node3&#45;&gt;Node6 -->
<g id="edge5_Node000003_Node000006" class="edge">
<title>Node3&#45;&gt;Node6</title>
<g id="a_edge5_Node000003_Node000006"><a xlink:title=" ">
<path fill="none" stroke="#63b8ff" d="M1157.83,-332.66C1181.39,-325.34 1206.72,-313.4 1223.5,-294 1247.41,-266.36 1242.5,-250.54 1242.5,-214 1242.5,-214 1242.5,-214 1242.5,-146 1242.5,-62.94 1129.2,-32.59 1059.28,-21.77"/>
<polygon fill="#63b8ff" stroke="#63b8ff" points="1156.86,-329.3 1148.23,-335.43 1158.8,-336.03 1156.86,-329.3"/>
</a>
</g>
</g>
<!-- Node7&#45;&gt;Node2 -->
<g id="edge7_Node000007_Node000002" class="edge">
<title>Node7&#45;&gt;Node2</title>
<g id="a_edge7_Node000007_Node000002"><a xlink:title=" ">
<path fill="none" stroke="#63b8ff" d="M458.81,-332.48C416.42,-319.87 349.41,-299.92 311.38,-288.6"/>
<polygon fill="#63b8ff" stroke="#63b8ff" points="457.92,-335.87 468.5,-335.37 459.92,-329.16 457.92,-335.87"/>
</a>
</g>
</g>
<!-- Node8 -->
<g id="Node000008" class="node">
<title>Node8</title>
<g id="a_Node000008"><a xlink:href="_crc_chunk_8h.html" target="_top" xlink:title=" ">
<polygon fill="white" stroke="#666666" points="743,-288.5 600,-288.5 600,-269.5 743,-269.5 743,-288.5"/>
<text text-anchor="middle" x="671.5" y="-276.5" font-family="Helvetica,sans-Serif" font-size="10.00">Cpl/Persistent/CrcChunk.h</text>
</a>
</g>
</g>
<!-- Node7&#45;&gt;Node8 -->
<g id="edge8_Node000007_Node000008" class="edge">
<title>Node7&#45;&gt;Node8</title>
<g id="a_edge8_Node000007_Node000008"><a xlink:title=" ">
<path fill="none" stroke="#63b8ff" d="M530.56,-331.84C564.94,-319.2 617.87,-299.73 648.13,-288.6"/>
<polygon fill="#63b8ff" stroke="#63b8ff" points="529.14,-328.63 520.97,-335.37 531.56,-335.2 529.14,-328.63"/>
</a>
</g>
</g>
<!-- Node7&#45;&gt;Node9 -->
<g id="edge9_Node000007_Node000009" class="edge">
<title>Node7&#45;&gt;Node9</title>
<g id="a_edge9_Node000007_Node000009"><a xlink:title=" ">
<path fill="none" stroke="#63b8ff" d="M552.92,-333.57C619.65,-321.01 730.45,-300.15 792.27,-288.51"/>
<polygon fill="#63b8ff" stroke="#63b8ff" points="552.18,-330.15 543,-335.44 553.48,-337.02 552.18,-330.15"/>
</a>
</g>
</g>
<!-- Node11 -->
<g id="Node000011" class="node">
<title>Node11</title>
<g id="a_Node000011"><a xlink:href="_indexed_entry_record_8h.html" target="_top" xlink:title=" ">
<polygon fill="white" stroke="#666666" points="653,-162 502,-162 502,-132 653,-132 653,-162"/>
<text text-anchor="start" x="510" y="-150" font-family="Helvetica,sans-Serif" font-size="10.00">Cpl/Persistent/IndexedEntry</text>
<text text-anchor="middle" x="577.5" y="-139" font-family="Helvetica,sans-Serif" font-size="10.00">Record.h</text>
</a>
</g>
</g>
<!-- Node7&#45;&gt;Node11 -->
<g id="edge14_Node000007_Node000011" class="edge">
<title>Node7&#45;&gt;Node11</title>
<g id="a_edge14_Node000007_Node000011"><a xlink:title=" ">
<path fill="none" stroke="#63b8ff" d="M454.18,-331.83C435.46,-324.19 415.39,-312.22 404.5,-294 397.66,-282.56 398.22,-275.76 404.5,-264 432.33,-211.83 495.18,-178.99 536.96,-162.06"/>
<polygon fill="#63b8ff" stroke="#63b8ff" points="453.19,-335.2 463.79,-335.45 455.66,-328.65 453.19,-335.2"/>
</a>
</g>
</g>
<!-- Node13 -->
<g id="Node000013" class="node">
<title>Node13</title>
<g id="a_Node000013"><a xlink:href="_mirrored_chunk_8h.html" target="_top" xlink:title=" ">
<polygon fill="white" stroke="#666666" points="581.5,-288.5 413.5,-288.5 413.5,-269.5 581.5,-269.5 581.5,-288.5"/>
<text text-anchor="middle" x="497.5" y="-276.5" font-family="Helvetica,sans-Serif" font-size="10.00">Cpl/Persistent/MirroredChunk.h</text>
</a>
</g>
</g>
<!-- Node7&#45;&gt;Node13 -->
<g id="edge15_Node000007_Node000013" class="edge">
<title>Node7&#45;&gt;Node13</title>
<g id="a_edge15_Node000007_Node000013"><a xlink:title=" ">
<path fill="none" stroke="#63b8ff" d="M497.5,-325.08C497.5,-313.13 497.5,-298.22 497.5,-288.91"/>
<polygon fill="#63b8ff" stroke="#63b8ff" points="494,-325.37 497.5,-335.37 501,-325.37 494,-325.37"/>
</a>
</g>
</g>
<!-- Node10 -->
<g id="Node000010" class="node">
<title>Node10</title>
<g id="a_Node000010"><a xlink:href="_index_record_8h.html" target="_top" xlink:title=" ">
<polygon fill="white" stroke="#666666" points="705,-222.5 548,-222.5 548,-203.5 705,-203.5 705,-222.5"/>
<text text-anchor="middle" x="626.5" y="-210.5" font-family="Helvetica,sans-Serif" font-size="10.00">Cpl/Persistent/IndexRecord.h</text>
</a>
</g>
</g>
<!-- Node9&#45;&gt;Node10 -->
<g id="edge10_Node000009_Node000010" class="edge">
<title>Node9&#45;&gt;Node10</title>
<g id="a_edge10_Node000009_Node000010"><a xlink:title=" ">
<path fill="none" stroke="#63b8ff" d="M799.27,-266.4C757.66,-253.78 692.09,-233.89 654.84,-222.6"/>
<polygon fill="#63b8ff" stroke="#63b8ff" points="798.46,-269.82 809.04,-269.37 800.49,-263.12 798.46,-269.82"/>
</a>
</g>
</g>
<!-- Node10&#45;&gt;Node11 -->
<g id="edge11_Node000010_Node000011" class="edge">
<title>Node10&#45;&gt;Node11</title>
<g id="a_edge11_Node000010_Node000011"><a xlink:title=" ">
<path fill="none" stroke="#63b8ff" d="M613.66,-195.24C605.84,-185.02 595.95,-172.1 588.49,-162.36"/>
<polygon fill="#63b8ff" stroke="#63b8ff" points="611.03,-197.56 619.89,-203.37 616.59,-193.3 611.03,-197.56"/>
</a>
</g>
</g>
<!-- Node12 -->
<g id="Node000012" class="node">
<title>Node12</title>
<g id="a_Node000012"><a xlink:href="_indexed_entry_server_8h.html" target="_top" xlink:title=" ">
<polygon fill="white" stroke="#666666" points="653,-96 502,-96 502,-66 653,-66 653,-96"/>
<text text-anchor="start" x="510" y="-84" font-family="Helvetica,sans-Serif" font-size="10.00">Cpl/Persistent/IndexedEntry</text>
<text text-anchor="middle" x="577.5" y="-73" font-family="Helvetica,sans-Serif" font-size="10.00">Server.h</text>
</a>
</g>
</g>
<!-- Node11&#45;&gt;Node12 -->
<g id="edge12_Node000011_Node000012" class="edge">
<title>Node11&#45;&gt;Node12</title>
<g id="a_edge12_Node000011_Node000012"><a xlink:title=" ">
<path fill="none" stroke="#63b8ff" d="M577.5,-121.54C577.5,-112.96 577.5,-103.61 577.5,-96.16"/>
<polygon fill="#63b8ff" stroke="#63b8ff" points="574,-121.8 577.5,-131.8 581,-121.8 574,-121.8"/>
</a>
</g>
</g>
<!-- Node12&#45;&gt;Node6 -->
<g id="edge13_Node000012_Node000006" class="edge">
<title>Node12&#45;&gt;Node6</title>
<g id="a_edge13_Node000012_Node000006"><a xlink:title=" ">
<path fill="none" stroke="#63b8ff" d="M663.04,-67.21C749.09,-54.34 879.14,-34.89 951.7,-24.04"/>
<polygon fill="#63b8ff" stroke="#63b8ff" points="662.4,-63.76 653.03,-68.71 663.44,-70.69 662.4,-63.76"/>
</a>
</g>
</g>
<!-- Node14&#45;&gt;Node11 -->
<g id="edge18_Node000014_Node000011" class="edge">
<title>Node14&#45;&gt;Node11</title>
<g id="a_edge18_Node000014_Node000011"><a xlink:title=" ">
<path fill="none" stroke="#63b8ff" d="M179.17,-319.8C180.23,-302.19 184.51,-278.92 198.5,-264 277.59,-179.69 416.1,-156.08 501.97,-149.81"/>
<polygon fill="#63b8ff" stroke="#63b8ff" points="175.67,-319.81 178.87,-329.9 182.66,-320.01 175.67,-319.81"/>
</a>
</g>
</g>
<!-- Node14&#45;&gt;Node15 -->
<g id="edge19_Node000014_Node000015" class="edge">
<title>Node14&#45;&gt;Node15</title>
<g id="a_edge19_Node000014_Node000015"><a xlink:title=" ">
<path fill="none" stroke="#63b8ff" d="M148.13,-324.69C132.07,-314.82 112.89,-303.01 98.27,-294.01"/>
<polygon fill="#63b8ff" stroke="#63b8ff" points="146.33,-327.69 156.68,-329.95 149.99,-321.73 146.33,-327.69"/>
</a>
</g>
</g>
<!-- Node15&#45;&gt;Node12 -->
<g id="edge20_Node000015_Node000012" class="edge">
<title>Node15&#45;&gt;Node12</title>
<g id="a_edge20_Node000015_Node000012"><a xlink:title=" ">
<path fill="none" stroke="#63b8ff" d="M111.39,-259.2C144.65,-242.14 195.73,-216.85 241.5,-198 343.21,-156.1 466.18,-116.31 531.49,-96.01"/>
<polygon fill="#63b8ff" stroke="#63b8ff" points="109.37,-256.3 102.09,-263.99 112.58,-262.52 109.37,-256.3"/>
</a>
</g>
</g>
<!-- Node16&#45;&gt;Node11 -->
<g id="edge23_Node000016_Node000011" class="edge">
<title>Node16&#45;&gt;Node11</title>
<g id="a_edge23_Node000016_Node000011"><a xlink:title=" ">
<path fill="none" stroke="#63b8ff" d="M777.5,-195.58C733.83,-185.19 677.97,-171.9 636.4,-162.01"/>
<polygon fill="#63b8ff" stroke="#63b8ff" points="776.93,-199.05 787.47,-197.95 778.55,-192.24 776.93,-199.05"/>
</a>
</g>
</g>
</g>
</svg>
