<?xml version="1.0" encoding="UTF-8" standalone="no"?>
<!DOCTYPE svg PUBLIC "-//W3C//DTD SVG 1.1//EN"
 "http://www.w3.org/Graphics/SVG/1.1/DTD/svg11.dtd">
<!-- Generated by graphviz version 2.43.0 (0)
 -->
<!-- Title: Cpl/Persistent/Record.h Pages: 1 -->
<svg width="1453pt" height="357pt"
 viewBox="0.00 0.00 1453.00 357.00" xmlns="http://www.w3.org/2000/svg" xmlns:xlink="http://www.w3.org/1999/xlink">
<g id="graph0" class="graph" transform="scale(1 1) rotate(0) translate(4 353)">
<title>Cpl/Persistent/Record.h</title>
<!-- Node1 -->
<g id="Node000001" class="node">
<title>Node1</title>
<g id="a_Node000001"><a xlink:title=" ">
<polygon fill="#999999" stroke="#666666" points="764,-349 634,-349 634,-330 764,-330 764,-349"/>
<text text-anchor="middle" x="699" y="-337" font-family="Helvetica,sans-Serif" font-size="10.00">Cpl/Persistent/Record.h</text>
</a>
</g>
</g>
<!-- Node2 -->
<g id="Node000002" class="node">
<title>Node2</title>
<g id="a_Node000002"><a xlink:href="_dm_2_mailbox_server_8h.html" target="_top" xlink:title=" ">
<polygon fill="white" stroke="#666666" points="766,-294 632,-294 632,-275 766,-275 766,-294"/>
<text text-anchor="middle" x="699" y="-282" font-family="Helvetica,sans-Serif" font-size="10.00">Cpl/Dm/MailboxServer.h</text>
</a>
</g>
</g>
<!-- Node1&#45;&gt;Node2 -->
<g id="edge1_Node000001_Node000002" class="edge">
<title>Node1&#45;&gt;Node2</title>
<g id="a_edge1_Node000001_Node000002"><a xlink:title=" ">
<path fill="none" stroke="#63b8ff" d="M699,-329.75C699,-322.8 699,-312.85 699,-304.13"/>
<polygon fill="#63b8ff" stroke="#63b8ff" points="702.5,-304.09 699,-294.09 695.5,-304.09 702.5,-304.09"/>
</a>
</g>
</g>
<!-- Node3 -->
<g id="Node000003" class="node">
<title>Node3</title>
<g id="a_Node000003"><a xlink:href="_dm_2_event_loop_8h.html" target="_top" xlink:title=" ">
<polygon fill="white" stroke="#666666" points="1088,-239 972,-239 972,-220 1088,-220 1088,-239"/>
<text text-anchor="middle" x="1030" y="-227" font-family="Helvetica,sans-Serif" font-size="10.00">Cpl/Dm/EventLoop.h</text>
</a>
</g>
</g>
<!-- Node2&#45;&gt;Node3 -->
<g id="edge2_Node000002_Node000003" class="edge">
<title>Node2&#45;&gt;Node3</title>
<g id="a_edge2_Node000002_Node000003"><a xlink:title=" ">
<path fill="none" stroke="#63b8ff" d="M752.18,-274.98C810.61,-265.63 904.39,-250.61 966.59,-240.65"/>
<polygon fill="#63b8ff" stroke="#63b8ff" points="967.36,-244.08 976.68,-239.04 966.25,-237.16 967.36,-244.08"/>
</a>
</g>
</g>
<!-- Node22 -->
<g id="Node000022" class="node">
<title>Node22</title>
<g id="a_Node000022"><a xlink:href="_mailbox_8h.html" target="_top" xlink:title=" ">
<polygon fill="white" stroke="#666666" points="192,-184 94,-184 94,-165 192,-165 192,-184"/>
<text text-anchor="middle" x="143" y="-172" font-family="Helvetica,sans-Serif" font-size="10.00">Cpl/Itc/Mailbox.h</text>
</a>
</g>
</g>
<!-- Node2&#45;&gt;Node22 -->
<g id="edge31_Node000002_Node000022" class="edge">
<title>Node2&#45;&gt;Node22</title>
<g id="a_edge31_Node000002_Node000022"><a xlink:title=" ">
<path fill="none" stroke="#63b8ff" d="M654.91,-274.94C554.03,-255.34 306.71,-207.3 196.97,-185.98"/>
<polygon fill="#63b8ff" stroke="#63b8ff" points="197.58,-182.54 187.1,-184.07 196.25,-189.41 197.58,-182.54"/>
</a>
</g>
</g>
<!-- Node4 -->
<g id="Node000004" class="node">
<title>Node4</title>
<g id="a_Node000004"><a xlink:href="_system_2_event_loop_8h.html" target="_top" xlink:title=" ">
<polygon fill="white" stroke="#666666" points="891.5,-184 756.5,-184 756.5,-165 891.5,-165 891.5,-184"/>
<text text-anchor="middle" x="824" y="-172" font-family="Helvetica,sans-Serif" font-size="10.00">Cpl/System/EventLoop.h</text>
</a>
</g>
</g>
<!-- Node3&#45;&gt;Node4 -->
<g id="edge3_Node000003_Node000004" class="edge">
<title>Node3&#45;&gt;Node4</title>
<g id="a_edge3_Node000003_Node000004"><a xlink:title=" ">
<path fill="none" stroke="#63b8ff" d="M996.9,-219.98C961.72,-210.93 905.93,-196.58 867.28,-186.64"/>
<polygon fill="#63b8ff" stroke="#63b8ff" points="867.91,-183.18 857.36,-184.08 866.17,-189.96 867.91,-183.18"/>
</a>
</g>
</g>
<!-- Node16 -->
<g id="Node000016" class="node">
<title>Node16</title>
<g id="a_Node000016"><a xlink:href="_d_list_8h.html" target="_top" xlink:title=" ">
<polygon fill="white" stroke="#666666" points="1191.5,-74 1072.5,-74 1072.5,-55 1191.5,-55 1191.5,-74"/>
<text text-anchor="middle" x="1132" y="-62" font-family="Helvetica,sans-Serif" font-size="10.00">Cpl/Container/DList.h</text>
</a>
</g>
</g>
<!-- Node3&#45;&gt;Node16 -->
<g id="edge25_Node000003_Node000016" class="edge">
<title>Node3&#45;&gt;Node16</title>
<g id="a_edge25_Node000003_Node000016"><a xlink:title=" ">
<path fill="none" stroke="#63b8ff" d="M1070.83,-219.94C1115.88,-208.08 1186.19,-181.83 1218,-129 1232.15,-105.5 1201.3,-87.97 1172.69,-77.35"/>
<polygon fill="#63b8ff" stroke="#63b8ff" points="1173.74,-74.01 1163.14,-74.01 1171.43,-80.62 1173.74,-74.01"/>
</a>
</g>
</g>
<!-- Node17 -->
<g id="Node000017" class="node">
<title>Node17</title>
<g id="a_Node000017"><a xlink:href="_thread_8h.html" target="_top" xlink:title=" ">
<polygon fill="white" stroke="#666666" points="458,-184 340,-184 340,-165 458,-165 458,-184"/>
<text text-anchor="middle" x="399" y="-172" font-family="Helvetica,sans-Serif" font-size="10.00">Cpl/System/Thread.h</text>
</a>
</g>
</g>
<!-- Node3&#45;&gt;Node17 -->
<g id="edge19_Node000003_Node000017" class="edge">
<title>Node3&#45;&gt;Node17</title>
<g id="a_edge19_Node000003_Node000017"><a xlink:title=" ">
<path fill="none" stroke="#63b8ff" d="M971.77,-223.61C855.14,-213.81 593.4,-191.83 468.23,-181.32"/>
<polygon fill="#63b8ff" stroke="#63b8ff" points="468.27,-177.81 458.01,-180.46 467.68,-184.78 468.27,-177.81"/>
</a>
</g>
</g>
<!-- Node20 -->
<g id="Node000020" class="node">
<title>Node20</title>
<g id="a_Node000020"><a xlink:href="_subscriber_api_8h.html" target="_top" xlink:title=" ">
<polygon fill="white" stroke="#666666" points="1340.5,-74 1209.5,-74 1209.5,-55 1340.5,-55 1340.5,-74"/>
<text text-anchor="middle" x="1275" y="-62" font-family="Helvetica,sans-Serif" font-size="10.00">Cpl/Dm/SubscriberApi.h</text>
</a>
</g>
</g>
<!-- Node3&#45;&gt;Node20 -->
<g id="edge26_Node000003_Node000020" class="edge">
<title>Node3&#45;&gt;Node20</title>
<g id="a_edge26_Node000003_Node000020"><a xlink:title=" ">
<path fill="none" stroke="#63b8ff" d="M1088.37,-220.8C1119.83,-214.58 1158.2,-203.52 1188,-184 1226.64,-158.69 1254.13,-109.95 1266.92,-83.55"/>
<polygon fill="#63b8ff" stroke="#63b8ff" points="1270.17,-84.86 1271.23,-74.32 1263.83,-81.9 1270.17,-84.86"/>
</a>
</g>
</g>
<!-- Node21 -->
<g id="Node000021" class="node">
<title>Node21</title>
<g id="a_Node000021"><a xlink:href="_notification_api___8h.html" target="_top" xlink:title=" ">
<polygon fill="white" stroke="#666666" points="1445,-184 1303,-184 1303,-165 1445,-165 1445,-184"/>
<text text-anchor="middle" x="1374" y="-172" font-family="Helvetica,sans-Serif" font-size="10.00">Cpl/Dm/NotificationApi_.h</text>
</a>
</g>
</g>
<!-- Node3&#45;&gt;Node21 -->
<g id="edge29_Node000003_Node000021" class="edge">
<title>Node3&#45;&gt;Node21</title>
<g id="a_edge29_Node000003_Node000021"><a xlink:title=" ">
<path fill="none" stroke="#63b8ff" d="M1085.27,-219.98C1146.11,-210.61 1243.86,-195.55 1308.5,-185.59"/>
<polygon fill="#63b8ff" stroke="#63b8ff" points="1309.23,-189.02 1318.58,-184.04 1308.17,-182.1 1309.23,-189.02"/>
</a>
</g>
</g>
<!-- Node5 -->
<g id="Node000005" class="node">
<title>Node5</title>
<g id="a_Node000005"><a xlink:href="_runnable_8h.html" target="_top" xlink:title=" ">
<polygon fill="white" stroke="#666666" points="600,-129 470,-129 470,-110 600,-110 600,-129"/>
<text text-anchor="middle" x="535" y="-117" font-family="Helvetica,sans-Serif" font-size="10.00">Cpl/System/Runnable.h</text>
</a>
</g>
</g>
<!-- Node4&#45;&gt;Node5 -->
<g id="edge4_Node000004_Node000005" class="edge">
<title>Node4&#45;&gt;Node5</title>
<g id="a_edge4_Node000004_Node000005"><a xlink:title=" ">
<path fill="none" stroke="#63b8ff" d="M777.57,-164.98C727.05,-155.72 646.26,-140.9 591.95,-130.94"/>
<polygon fill="#63b8ff" stroke="#63b8ff" points="592.26,-127.44 581.8,-129.08 591,-134.33 592.26,-127.44"/>
</a>
</g>
</g>
<!-- Node6 -->
<g id="Node000006" class="node">
<title>Node6</title>
<g id="a_Node000006"><a xlink:href="_semaphore_8h.html" target="_top" xlink:title=" ">
<polygon fill="white" stroke="#666666" points="796,-129 656,-129 656,-110 796,-110 796,-129"/>
<text text-anchor="middle" x="726" y="-117" font-family="Helvetica,sans-Serif" font-size="10.00">Cpl/System/Semaphore.h</text>
</a>
</g>
</g>
<!-- Node4&#45;&gt;Node6 -->
<g id="edge5_Node000004_Node000006" class="edge">
<title>Node4&#45;&gt;Node6</title>
<g id="a_edge5_Node000004_Node000006"><a xlink:title=" ">
<path fill="none" stroke="#63b8ff" d="M808.25,-164.98C792.77,-156.61 768.91,-143.7 750.86,-133.95"/>
<polygon fill="#63b8ff" stroke="#63b8ff" points="752.49,-130.85 742.03,-129.17 749.16,-137.01 752.49,-130.85"/>
</a>
</g>
</g>
<!-- Node8 -->
<g id="Node000008" class="node">
<title>Node8</title>
<g id="a_Node000008"><a xlink:href="_signable_8h.html" target="_top" xlink:title=" ">
<polygon fill="white" stroke="#666666" points="602,-74 476,-74 476,-55 602,-55 602,-74"/>
<text text-anchor="middle" x="539" y="-62" font-family="Helvetica,sans-Serif" font-size="10.00">Cpl/System/Signable.h</text>
</a>
</g>
</g>
<!-- Node4&#45;&gt;Node8 -->
<g id="edge9_Node000004_Node000008" class="edge">
<title>Node4&#45;&gt;Node8</title>
<g id="a_edge9_Node000004_Node000008"><a xlink:title=" ">
<path fill="none" stroke="#63b8ff" d="M774.35,-164.96C738.19,-157.8 688.49,-146 647,-129 629.81,-121.95 587.46,-96.03 561.19,-79.56"/>
<polygon fill="#63b8ff" stroke="#63b8ff" points="562.96,-76.54 552.63,-74.18 559.23,-82.47 562.96,-76.54"/>
</a>
</g>
</g>
<!-- Node10 -->
<g id="Node000010" class="node">
<title>Node10</title>
<g id="a_Node000010"><a xlink:href="_event_flag_8h.html" target="_top" xlink:title=" ">
<polygon fill="white" stroke="#666666" points="907.5,-74 774.5,-74 774.5,-55 907.5,-55 907.5,-74"/>
<text text-anchor="middle" x="841" y="-62" font-family="Helvetica,sans-Serif" font-size="10.00">Cpl/System/EventFlag.h</text>
</a>
</g>
</g>
<!-- Node4&#45;&gt;Node10 -->
<g id="edge10_Node000004_Node000010" class="edge">
<title>Node4&#45;&gt;Node10</title>
<g id="a_edge10_Node000004_Node000010"><a xlink:title=" ">
<path fill="none" stroke="#63b8ff" d="M825.39,-164.66C828.14,-147.17 834.34,-107.8 838.04,-84.27"/>
<polygon fill="#63b8ff" stroke="#63b8ff" points="841.54,-84.58 839.64,-74.16 834.62,-83.49 841.54,-84.58"/>
</a>
</g>
</g>
<!-- Node13 -->
<g id="Node000013" class="node">
<title>Node13</title>
<g id="a_Node000013"><a xlink:href="_shared_event_handler_8h.html" target="_top" xlink:title=" ">
<polygon fill="white" stroke="#666666" points="1035.5,-129 852.5,-129 852.5,-110 1035.5,-110 1035.5,-129"/>
<text text-anchor="middle" x="944" y="-117" font-family="Helvetica,sans-Serif" font-size="10.00">Cpl/System/SharedEventHandler.h</text>
</a>
</g>
</g>
<!-- Node4&#45;&gt;Node13 -->
<g id="edge13_Node000004_Node000013" class="edge">
<title>Node4&#45;&gt;Node13</title>
<g id="a_edge13_Node000004_Node000013"><a xlink:title=" ">
<path fill="none" stroke="#63b8ff" d="M843.28,-164.98C862.67,-156.42 892.81,-143.11 915.07,-133.28"/>
<polygon fill="#63b8ff" stroke="#63b8ff" points="916.64,-136.41 924.37,-129.17 913.81,-130.01 916.64,-136.41"/>
</a>
</g>
</g>
<!-- Node14 -->
<g id="Node000014" class="node">
<title>Node14</title>
<g id="a_Node000014"><a xlink:href="_timer_manager_8h.html" target="_top" xlink:title=" ">
<polygon fill="white" stroke="#666666" points="1208.5,-129 1053.5,-129 1053.5,-110 1208.5,-110 1208.5,-129"/>
<text text-anchor="middle" x="1131" y="-117" font-family="Helvetica,sans-Serif" font-size="10.00">Cpl/System/TimerManager.h</text>
</a>
</g>
</g>
<!-- Node4&#45;&gt;Node14 -->
<g id="edge15_Node000004_Node000014" class="edge">
<title>Node4&#45;&gt;Node14</title>
<g id="a_edge15_Node000004_Node000014"><a xlink:title=" ">
<path fill="none" stroke="#63b8ff" d="M873.32,-164.98C927.29,-155.67 1013.78,-140.74 1071.48,-130.78"/>
<polygon fill="#63b8ff" stroke="#63b8ff" points="1072.28,-134.19 1081.54,-129.04 1071.09,-127.29 1072.28,-134.19"/>
</a>
</g>
</g>
<!-- Node7 -->
<g id="Node000007" class="node">
<title>Node7</title>
<g id="a_Node000007"><a xlink:title=" ">
<polygon fill="#e0e0e0" stroke="#999999" points="739.5,-74 654.5,-74 654.5,-55 739.5,-55 739.5,-74"/>
<text text-anchor="middle" x="697" y="-62" font-family="Helvetica,sans-Serif" font-size="10.00">colony_map.h</text>
</a>
</g>
</g>
<!-- Node6&#45;&gt;Node7 -->
<g id="edge6_Node000006_Node000007" class="edge">
<title>Node6&#45;&gt;Node7</title>
<g id="a_edge6_Node000006_Node000007"><a xlink:title=" ">
<path fill="none" stroke="#63b8ff" d="M721.21,-109.75C717.24,-102.49 711.47,-91.95 706.57,-82.98"/>
<polygon fill="#63b8ff" stroke="#63b8ff" points="709.57,-81.18 701.7,-74.09 703.43,-84.54 709.57,-81.18"/>
</a>
</g>
</g>
<!-- Node6&#45;&gt;Node8 -->
<g id="edge7_Node000006_Node000008" class="edge">
<title>Node6&#45;&gt;Node8</title>
<g id="a_edge7_Node000006_Node000008"><a xlink:title=" ">
<path fill="none" stroke="#63b8ff" d="M695.96,-109.98C664.29,-101.01 614.23,-86.82 579.19,-76.89"/>
<polygon fill="#63b8ff" stroke="#63b8ff" points="579.86,-73.44 569.28,-74.08 577.95,-80.18 579.86,-73.44"/>
</a>
</g>
</g>
<!-- Node9 -->
<g id="Node000009" class="node">
<title>Node9</title>
<g id="a_Node000009"><a xlink:href="_item_8h.html" target="_top" xlink:title=" ">
<polygon fill="white" stroke="#666666" points="597.5,-19 480.5,-19 480.5,0 597.5,0 597.5,-19"/>
<text text-anchor="middle" x="539" y="-7" font-family="Helvetica,sans-Serif" font-size="10.00">Cpl/Container/Item.h</text>
</a>
</g>
</g>
<!-- Node8&#45;&gt;Node9 -->
<g id="edge8_Node000008_Node000009" class="edge">
<title>Node8&#45;&gt;Node9</title>
<g id="a_edge8_Node000008_Node000009"><a xlink:title=" ">
<path fill="none" stroke="#63b8ff" d="M539,-54.75C539,-47.8 539,-37.85 539,-29.13"/>
<polygon fill="#63b8ff" stroke="#63b8ff" points="542.5,-29.09 539,-19.09 535.5,-29.09 542.5,-29.09"/>
</a>
</g>
</g>
<!-- Node11 -->
<g id="Node000011" class="node">
<title>Node11</title>
<g id="a_Node000011"><a xlink:title=" ">
<polygon fill="#e0e0e0" stroke="#999999" points="887,-19 795,-19 795,0 887,0 887,-19"/>
<text text-anchor="middle" x="841" y="-7" font-family="Helvetica,sans-Serif" font-size="10.00">colony_config.h</text>
</a>
</g>
</g>
<!-- Node10&#45;&gt;Node11 -->
<g id="edge11_Node000010_Node000011" class="edge">
<title>Node10&#45;&gt;Node11</title>
<g id="a_edge11_Node000010_Node000011"><a xlink:title=" ">
<path fill="none" stroke="#63b8ff" d="M841,-54.75C841,-47.8 841,-37.85 841,-29.13"/>
<polygon fill="#63b8ff" stroke="#63b8ff" points="844.5,-29.09 841,-19.09 837.5,-29.09 844.5,-29.09"/>
</a>
</g>
</g>
<!-- Node12 -->
<g id="Node000012" class="node">
<title>Node12</title>
<g id="a_Node000012"><a xlink:title=" ">
<polygon fill="#e0e0e0" stroke="#999999" points="1129.5,-19 1076.5,-19 1076.5,0 1129.5,0 1129.5,-19"/>
<text text-anchor="middle" x="1103" y="-7" font-family="Helvetica,sans-Serif" font-size="10.00">stdint.h</text>
</a>
</g>
</g>
<!-- Node10&#45;&gt;Node12 -->
<g id="edge12_Node000010_Node000012" class="edge">
<title>Node10&#45;&gt;Node12</title>
<g id="a_edge12_Node000010_Node000012"><a xlink:title=" ">
<path fill="none" stroke="#63b8ff" d="M883.09,-54.98C933.77,-44.73 1018.04,-27.69 1066.21,-17.94"/>
<polygon fill="#63b8ff" stroke="#63b8ff" points="1067.1,-21.33 1076.21,-15.92 1065.71,-14.47 1067.1,-21.33"/>
</a>
</g>
</g>
<!-- Node13&#45;&gt;Node10 -->
<g id="edge14_Node000013_Node000010" class="edge">
<title>Node13&#45;&gt;Node10</title>
<g id="a_edge14_Node000013_Node000010"><a xlink:title=" ">
<path fill="none" stroke="#63b8ff" d="M927.45,-109.98C911.11,-101.57 885.87,-88.59 866.87,-78.81"/>
<polygon fill="#63b8ff" stroke="#63b8ff" points="868.34,-75.63 857.85,-74.17 865.14,-81.86 868.34,-75.63"/>
</a>
</g>
</g>
<!-- Node15 -->
<g id="Node000015" class="node">
<title>Node15</title>
<g id="a_Node000015"><a xlink:href="_counter___8h.html" target="_top" xlink:title=" ">
<polygon fill="white" stroke="#666666" points="1054,-74 926,-74 926,-55 1054,-55 1054,-74"/>
<text text-anchor="middle" x="990" y="-62" font-family="Helvetica,sans-Serif" font-size="10.00">Cpl/System/Counter_.h</text>
</a>
</g>
</g>
<!-- Node14&#45;&gt;Node15 -->
<g id="edge16_Node000014_Node000015" class="edge">
<title>Node14&#45;&gt;Node15</title>
<g id="a_edge16_Node000014_Node000015"><a xlink:title=" ">
<path fill="none" stroke="#63b8ff" d="M1108.35,-109.98C1085.15,-101.27 1048.88,-87.63 1022.6,-77.75"/>
<polygon fill="#63b8ff" stroke="#63b8ff" points="1023.66,-74.41 1013.07,-74.17 1021.2,-80.97 1023.66,-74.41"/>
</a>
</g>
</g>
<!-- Node14&#45;&gt;Node16 -->
<g id="edge18_Node000014_Node000016" class="edge">
<title>Node14&#45;&gt;Node16</title>
<g id="a_edge18_Node000014_Node000016"><a xlink:title=" ">
<path fill="none" stroke="#63b8ff" d="M1131.17,-109.75C1131.3,-102.8 1131.48,-92.85 1131.65,-84.13"/>
<polygon fill="#63b8ff" stroke="#63b8ff" points="1135.15,-84.15 1131.84,-74.09 1128.15,-84.02 1135.15,-84.15"/>
</a>
</g>
</g>
<!-- Node15&#45;&gt;Node9 -->
<g id="edge17_Node000015_Node000009" class="edge">
<title>Node15&#45;&gt;Node9</title>
<g id="a_edge17_Node000015_Node000009"><a xlink:title=" ">
<path fill="none" stroke="#63b8ff" d="M925.86,-55.96C841.53,-46.05 693.97,-28.71 607.52,-18.55"/>
<polygon fill="#63b8ff" stroke="#63b8ff" points="607.88,-15.07 597.54,-17.38 607.07,-22.02 607.88,-15.07"/>
</a>
</g>
</g>
<!-- Node17&#45;&gt;Node5 -->
<g id="edge21_Node000017_Node000005" class="edge">
<title>Node17&#45;&gt;Node5</title>
<g id="a_edge21_Node000017_Node000005"><a xlink:title=" ">
<path fill="none" stroke="#63b8ff" d="M420.85,-164.98C443.12,-156.3 477.9,-142.75 503.22,-132.88"/>
<polygon fill="#63b8ff" stroke="#63b8ff" points="504.71,-136.06 512.75,-129.17 502.16,-129.54 504.71,-136.06"/>
</a>
</g>
</g>
<!-- Node17&#45;&gt;Node7 -->
<g id="edge20_Node000017_Node000007" class="edge">
<title>Node17&#45;&gt;Node7</title>
<g id="a_edge20_Node000017_Node000007"><a xlink:title=" ">
<path fill="none" stroke="#63b8ff" d="M404.71,-164.89C414.46,-150.92 435.74,-123.53 461,-110 492.01,-93.39 584.67,-79.34 644.24,-71.7"/>
<polygon fill="#63b8ff" stroke="#63b8ff" points="644.74,-75.16 654.23,-70.43 643.87,-68.21 644.74,-75.16"/>
</a>
</g>
</g>
<!-- Node17&#45;&gt;Node8 -->
<g id="edge22_Node000017_Node000008" class="edge">
<title>Node17&#45;&gt;Node8</title>
<g id="a_edge22_Node000017_Node000008"><a xlink:title=" ">
<path fill="none" stroke="#63b8ff" d="M356.5,-164.94C317.34,-155.16 268.46,-136.94 291,-110 312.95,-83.77 400.63,-72.98 465.54,-68.55"/>
<polygon fill="#63b8ff" stroke="#63b8ff" points="465.99,-72.03 475.75,-67.9 465.54,-65.05 465.99,-72.03"/>
</a>
</g>
</g>
<!-- Node18 -->
<g id="Node000018" class="node">
<title>Node18</title>
<g id="a_Node000018"><a xlink:href="_traverser_8h.html" target="_top" xlink:title=" ">
<polygon fill="white" stroke="#666666" points="414,-129 300,-129 300,-110 414,-110 414,-129"/>
<text text-anchor="middle" x="357" y="-117" font-family="Helvetica,sans-Serif" font-size="10.00">Cpl/Type/Traverser.h</text>
</a>
</g>
</g>
<!-- Node17&#45;&gt;Node18 -->
<g id="edge23_Node000017_Node000018" class="edge">
<title>Node17&#45;&gt;Node18</title>
<g id="a_edge23_Node000017_Node000018"><a xlink:title=" ">
<path fill="none" stroke="#63b8ff" d="M392.06,-164.75C386.13,-157.26 377.43,-146.28 370.18,-137.13"/>
<polygon fill="#63b8ff" stroke="#63b8ff" points="372.76,-134.75 363.81,-129.09 367.27,-139.1 372.76,-134.75"/>
</a>
</g>
</g>
<!-- Node19 -->
<g id="Node000019" class="node">
<title>Node19</title>
<g id="a_Node000019"><a xlink:title=" ">
<polygon fill="#e0e0e0" stroke="#999999" points="243.5,-129 190.5,-129 190.5,-110 243.5,-110 243.5,-129"/>
<text text-anchor="middle" x="217" y="-117" font-family="Helvetica,sans-Serif" font-size="10.00">stdlib.h</text>
</a>
</g>
</g>
<!-- Node17&#45;&gt;Node19 -->
<g id="edge24_Node000017_Node000019" class="edge">
<title>Node17&#45;&gt;Node19</title>
<g id="a_edge24_Node000017_Node000019"><a xlink:title=" ">
<path fill="none" stroke="#63b8ff" d="M369.76,-164.98C338.02,-155.74 287.32,-140.98 253.12,-131.02"/>
<polygon fill="#63b8ff" stroke="#63b8ff" points="254.09,-127.65 243.51,-128.22 252.13,-134.38 254.09,-127.65"/>
</a>
</g>
</g>
<!-- Node20&#45;&gt;Node9 -->
<g id="edge27_Node000020_Node000009" class="edge">
<title>Node20&#45;&gt;Node9</title>
<g id="a_edge27_Node000020_Node000009"><a xlink:title=" ">
<path fill="none" stroke="#63b8ff" d="M1209.25,-55.78C1206.46,-55.51 1203.7,-55.25 1201,-55 984.75,-35.32 728.03,-20.5 607.69,-14.05"/>
<polygon fill="#63b8ff" stroke="#63b8ff" points="607.69,-10.54 597.52,-13.5 607.32,-17.53 607.69,-10.54"/>
</a>
</g>
</g>
<!-- Node20&#45;&gt;Node12 -->
<g id="edge28_Node000020_Node000012" class="edge">
<title>Node20&#45;&gt;Node12</title>
<g id="a_edge28_Node000020_Node000012"><a xlink:title=" ">
<path fill="none" stroke="#63b8ff" d="M1247.37,-54.98C1218.15,-45.98 1171.91,-31.73 1139.66,-21.8"/>
<polygon fill="#63b8ff" stroke="#63b8ff" points="1140.3,-18.33 1129.72,-18.73 1138.24,-25.02 1140.3,-18.33"/>
</a>
</g>
</g>
<!-- Node21&#45;&gt;Node20 -->
<g id="edge30_Node000021_Node000020" class="edge">
<title>Node21&#45;&gt;Node20</title>
<g id="a_edge30_Node000021_Node000020"><a xlink:title=" ">
<path fill="none" stroke="#63b8ff" d="M1365.9,-164.66C1349.28,-146.54 1311.13,-104.91 1289.91,-81.77"/>
<polygon fill="#63b8ff" stroke="#63b8ff" points="1292.27,-79.16 1282.94,-74.16 1287.11,-83.89 1292.27,-79.16"/>
</a>
</g>
</g>
<!-- Node22&#45;&gt;Node8 -->
<g id="edge37_Node000022_Node000008" class="edge">
<title>Node22&#45;&gt;Node8</title>
<g id="a_edge37_Node000022_Node000008"><a xlink:title=" ">
<path fill="none" stroke="#63b8ff" d="M145.48,-164.78C149.99,-150.66 160.98,-123.05 181,-110 204.31,-94.81 367.77,-79.26 465.57,-71.18"/>
<polygon fill="#63b8ff" stroke="#63b8ff" points="466.02,-74.65 475.7,-70.35 465.45,-67.68 466.02,-74.65"/>
</a>
</g>
</g>
<!-- Node23 -->
<g id="Node000023" class="node">
<title>Node23</title>
<g id="a_Node000023"><a xlink:href="_post_api_8h.html" target="_top" xlink:title=" ">
<polygon fill="white" stroke="#666666" points="96,-129 0,-129 0,-110 96,-110 96,-129"/>
<text text-anchor="middle" x="48" y="-117" font-family="Helvetica,sans-Serif" font-size="10.00">Cpl/Itc/PostApi.h</text>
</a>
</g>
</g>
<!-- Node22&#45;&gt;Node23 -->
<g id="edge32_Node000022_Node000023" class="edge">
<title>Node22&#45;&gt;Node23</title>
<g id="a_edge32_Node000022_Node000023"><a xlink:title=" ">
<path fill="none" stroke="#63b8ff" d="M127.74,-164.98C112.87,-156.69 90.02,-143.94 72.58,-134.22"/>
<polygon fill="#63b8ff" stroke="#63b8ff" points="73.98,-130.99 63.54,-129.17 70.57,-137.1 73.98,-130.99"/>
</a>
</g>
</g>
<!-- Node25 -->
<g id="Node000025" class="node">
<title>Node25</title>
<g id="a_Node000025"><a xlink:href="_s_list_8h.html" target="_top" xlink:title=" ">
<polygon fill="white" stroke="#666666" points="390,-74 272,-74 272,-55 390,-55 390,-74"/>
<text text-anchor="middle" x="331" y="-62" font-family="Helvetica,sans-Serif" font-size="10.00">Cpl/Container/SList.h</text>
</a>
</g>
</g>
<!-- Node22&#45;&gt;Node25 -->
<g id="edge35_Node000022_Node000025" class="edge">
<title>Node22&#45;&gt;Node25</title>
<g id="a_edge35_Node000022_Node000025"><a xlink:title=" ">
<path fill="none" stroke="#63b8ff" d="M140.83,-164.93C138,-151.52 134.81,-125.49 148,-110 162.88,-92.53 216.47,-80.84 261.84,-73.84"/>
<polygon fill="#63b8ff" stroke="#63b8ff" points="262.6,-77.27 271.97,-72.33 261.57,-70.34 262.6,-77.27"/>
</a>
</g>
</g>
<!-- Node24 -->
<g id="Node000024" class="node">
<title>Node24</title>
<g id="a_Node000024"><a xlink:href="_message_8h.html" target="_top" xlink:title=" ">
<polygon fill="white" stroke="#666666" points="117.5,-74 14.5,-74 14.5,-55 117.5,-55 117.5,-74"/>
<text text-anchor="middle" x="66" y="-62" font-family="Helvetica,sans-Serif" font-size="10.00">Cpl/Itc/Message.h</text>
</a>
</g>
</g>
<!-- Node23&#45;&gt;Node24 -->
<g id="edge33_Node000023_Node000024" class="edge">
<title>Node23&#45;&gt;Node24</title>
<g id="a_edge33_Node000023_Node000024"><a xlink:title=" ">
<path fill="none" stroke="#63b8ff" d="M50.97,-109.75C53.36,-102.72 56.79,-92.62 59.77,-83.84"/>
<polygon fill="#63b8ff" stroke="#63b8ff" points="63.18,-84.68 63.08,-74.09 56.55,-82.43 63.18,-84.68"/>
</a>
</g>
</g>
<!-- Node24&#45;&gt;Node9 -->
<g id="edge34_Node000024_Node000009" class="edge">
<title>Node24&#45;&gt;Node9</title>
<g id="a_edge34_Node000024_Node000009"><a xlink:title=" ">
<path fill="none" stroke="#63b8ff" d="M117.52,-57.73C203,-48.15 374.18,-28.97 470,-18.23"/>
<polygon fill="#63b8ff" stroke="#63b8ff" points="470.62,-21.68 480.17,-17.09 469.84,-14.73 470.62,-21.68"/>
</a>
</g>
</g>
<!-- Node25&#45;&gt;Node9 -->
<g id="edge36_Node000025_Node000009" class="edge">
<title>Node25&#45;&gt;Node9</title>
<g id="a_edge36_Node000025_Node000009"><a xlink:title=" ">
<path fill="none" stroke="#63b8ff" d="M364.42,-54.98C399.94,-45.93 456.27,-31.58 495.3,-21.64"/>
<polygon fill="#63b8ff" stroke="#63b8ff" points="496.49,-24.94 505.32,-19.08 494.76,-18.16 496.49,-24.94"/>
</a>
</g>
</g>
</g>
</svg>
