<?xml version="1.0" encoding="UTF-8" standalone="no"?>
<!DOCTYPE svg PUBLIC "-//W3C//DTD SVG 1.1//EN"
 "http://www.w3.org/Graphics/SVG/1.1/DTD/svg11.dtd">
<!-- Generated by graphviz version 2.43.0 (0)
 -->
<!-- Title: Cpl/Itc/PostApi.h Pages: 1 -->
<svg width="2124pt" height="709pt"
 viewBox="0.00 0.00 2124.00 709.00" xmlns="http://www.w3.org/2000/svg" xmlns:xlink="http://www.w3.org/1999/xlink">
<g id="graph0" class="graph" transform="scale(1 1) rotate(0) translate(4 705)">
<title>Cpl/Itc/PostApi.h</title>
<!-- Node1 -->
<g id="Node000001" class="node">
<title>Node1</title>
<g id="a_Node000001"><a xlink:title=" ">
<polygon fill="#999999" stroke="#666666" points="788,-701 692,-701 692,-682 788,-682 788,-701"/>
<text text-anchor="middle" x="740" y="-689" font-family="Helvetica,sans-Serif" font-size="10.00">Cpl/Itc/PostApi.h</text>
</a>
</g>
</g>
<!-- Node2 -->
<g id="Node000002" class="node">
<title>Node2</title>
<g id="a_Node000002"><a xlink:href="_async_return_handler_8h.html" target="_top" xlink:title=" ">
<polygon fill="white" stroke="#666666" points="278,-591 120,-591 120,-572 278,-572 278,-591"/>
<text text-anchor="middle" x="199" y="-579" font-family="Helvetica,sans-Serif" font-size="10.00">Cpl/Itc/AsyncReturnHandler.h</text>
</a>
</g>
</g>
<!-- Node1&#45;&gt;Node2 -->
<g id="edge1_Node000001_Node000002" class="edge">
<title>Node1&#45;&gt;Node2</title>
<g id="a_edge1_Node000001_Node000002"><a xlink:title=" ">
<path fill="none" stroke="#63b8ff" d="M687.17,-679.95C580.23,-658.61 339.97,-610.64 241.91,-591.07"/>
<polygon fill="#63b8ff" stroke="#63b8ff" points="686.6,-683.41 697.1,-681.94 687.98,-676.55 686.6,-683.41"/>
</a>
</g>
</g>
<!-- Node20 -->
<g id="Node000020" class="node">
<title>Node20</title>
<g id="a_Node000020"><a xlink:href="_mailbox_8h.html" target="_top" xlink:title=" ">
<polygon fill="white" stroke="#666666" points="1415,-464.5 1317,-464.5 1317,-445.5 1415,-445.5 1415,-464.5"/>
<text text-anchor="middle" x="1366" y="-452.5" font-family="Helvetica,sans-Serif" font-size="10.00">Cpl/Itc/Mailbox.h</text>
</a>
</g>
</g>
<!-- Node1&#45;&gt;Node20 -->
<g id="edge24_Node000001_Node000020" class="edge">
<title>Node1&#45;&gt;Node20</title>
<g id="a_edge24_Node000001_Node000020"><a xlink:title=" ">
<path fill="none" stroke="#63b8ff" d="M772.72,-678.24C884.27,-636.46 1248.03,-500.19 1343.1,-464.58"/>
<polygon fill="#63b8ff" stroke="#63b8ff" points="771.16,-675.09 763.02,-681.88 773.61,-681.65 771.16,-675.09"/>
</a>
</g>
</g>
<!-- Node37 -->
<g id="Node000037" class="node">
<title>Node37</title>
<g id="a_Node000037"><a xlink:href="_s_a_p_8h.html" target="_top" xlink:title=" ">
<polygon fill="white" stroke="#666666" points="778.5,-646 701.5,-646 701.5,-627 778.5,-627 778.5,-646"/>
<text text-anchor="middle" x="740" y="-634" font-family="Helvetica,sans-Serif" font-size="10.00">Cpl/Itc/SAP.h</text>
</a>
</g>
</g>
<!-- Node1&#45;&gt;Node37 -->
<g id="edge53_Node000001_Node000037" class="edge">
<title>Node1&#45;&gt;Node37</title>
<g id="a_edge53_Node000001_Node000037"><a xlink:title=" ">
<path fill="none" stroke="#63b8ff" d="M740,-671.66C740,-662.93 740,-652.99 740,-646.09"/>
<polygon fill="#63b8ff" stroke="#63b8ff" points="736.5,-671.75 740,-681.75 743.5,-671.75 736.5,-671.75"/>
</a>
</g>
</g>
<!-- Node3 -->
<g id="Node000003" class="node">
<title>Node3</title>
<g id="a_Node000003"><a xlink:href="_response_message_8h.html" target="_top" xlink:title=" ">
<polygon fill="white" stroke="#666666" points="598,-530.5 448,-530.5 448,-511.5 598,-511.5 598,-530.5"/>
<text text-anchor="middle" x="523" y="-518.5" font-family="Helvetica,sans-Serif" font-size="10.00">Cpl/Itc/ResponseMessage.h</text>
</a>
</g>
</g>
<!-- Node2&#45;&gt;Node3 -->
<g id="edge2_Node000002_Node000003" class="edge">
<title>Node2&#45;&gt;Node3</title>
<g id="a_edge2_Node000002_Node000003"><a xlink:title=" ">
<path fill="none" stroke="#63b8ff" d="M256.2,-570.17C318.68,-558.89 417.62,-541.03 475.83,-530.52"/>
<polygon fill="#63b8ff" stroke="#63b8ff" points="255.33,-566.77 246.11,-571.99 256.58,-573.66 255.33,-566.77"/>
</a>
</g>
</g>
<!-- Node4 -->
<g id="Node000004" class="node">
<title>Node4</title>
<g id="a_Node000004"><a xlink:href="_erase_request_8h.html" target="_top" xlink:title=" ">
<polygon fill="white" stroke="#666666" points="1130.5,-464.5 947.5,-464.5 947.5,-445.5 1130.5,-445.5 1130.5,-464.5"/>
<text text-anchor="middle" x="1039" y="-452.5" font-family="Helvetica,sans-Serif" font-size="10.00">Cpl/Dm/Persistent/EraseRequest.h</text>
</a>
</g>
</g>
<!-- Node3&#45;&gt;Node4 -->
<g id="edge3_Node000003_Node000004" class="edge">
<title>Node3&#45;&gt;Node4</title>
<g id="a_edge3_Node000003_Node000004"><a xlink:title=" ">
<path fill="none" stroke="#63b8ff" d="M607.25,-510.3C691.14,-500.53 823.55,-484.83 938,-470 951.25,-468.28 965.48,-466.36 978.94,-464.5"/>
<polygon fill="#63b8ff" stroke="#63b8ff" points="606.8,-506.82 597.27,-511.46 607.6,-513.78 606.8,-506.82"/>
</a>
</g>
</g>
<!-- Node6 -->
<g id="Node000006" class="node">
<title>Node6</title>
<g id="a_Node000006"><a xlink:href="_flush_request_8h.html" target="_top" xlink:title=" ">
<polygon fill="white" stroke="#666666" points="642,-464.5 460,-464.5 460,-445.5 642,-445.5 642,-464.5"/>
<text text-anchor="middle" x="551" y="-452.5" font-family="Helvetica,sans-Serif" font-size="10.00">Cpl/Dm/Persistent/FlushRequest.h</text>
</a>
</g>
</g>
<!-- Node3&#45;&gt;Node6 -->
<g id="edge5_Node000003_Node000006" class="edge">
<title>Node3&#45;&gt;Node6</title>
<g id="a_edge5_Node000003_Node000006"><a xlink:title=" ">
<path fill="none" stroke="#63b8ff" d="M530.79,-502.18C536.1,-490.05 542.9,-474.51 547.1,-464.91"/>
<polygon fill="#63b8ff" stroke="#63b8ff" points="527.58,-500.8 526.78,-511.37 533.99,-503.61 527.58,-500.8"/>
</a>
</g>
</g>
<!-- Node7 -->
<g id="Node000007" class="node">
<title>Node7</title>
<g id="a_Node000007"><a xlink:href="_atomic_request_8h.html" target="_top" xlink:title=" ">
<polygon fill="white" stroke="#666666" points="134,-464.5 0,-464.5 0,-445.5 134,-445.5 134,-464.5"/>
<text text-anchor="middle" x="67" y="-452.5" font-family="Helvetica,sans-Serif" font-size="10.00">Cpl/Itc/AtomicRequest.h</text>
</a>
</g>
</g>
<!-- Node3&#45;&gt;Node7 -->
<g id="edge7_Node000003_Node000007" class="edge">
<title>Node3&#45;&gt;Node7</title>
<g id="a_edge7_Node000003_Node000007"><a xlink:title=" ">
<path fill="none" stroke="#63b8ff" d="M439.5,-510.26C362.39,-500.98 244.75,-486.05 143,-470 132.66,-468.37 121.57,-466.43 111.14,-464.53"/>
<polygon fill="#63b8ff" stroke="#63b8ff" points="439.29,-513.76 449.64,-511.48 440.12,-506.81 439.29,-513.76"/>
</a>
</g>
</g>
<!-- Node9 -->
<g id="Node000009" class="node">
<title>Node9</title>
<g id="a_Node000009"><a xlink:href="_close_request_8h.html" target="_top" xlink:title=" ">
<polygon fill="white" stroke="#666666" points="786,-464.5 660,-464.5 660,-445.5 786,-445.5 786,-464.5"/>
<text text-anchor="middle" x="723" y="-452.5" font-family="Helvetica,sans-Serif" font-size="10.00">Cpl/Itc/CloseRequest.h</text>
</a>
</g>
</g>
<!-- Node3&#45;&gt;Node9 -->
<g id="edge9_Node000003_Node000009" class="edge">
<title>Node3&#45;&gt;Node9</title>
<g id="a_edge9_Node000003_Node000009"><a xlink:title=" ">
<path fill="none" stroke="#63b8ff" d="M559.74,-508.24C599.21,-495.61 660.98,-475.85 696.14,-464.6"/>
<polygon fill="#63b8ff" stroke="#63b8ff" points="558.43,-504.99 549.97,-511.37 560.56,-511.65 558.43,-504.99"/>
</a>
</g>
</g>
<!-- Node16 -->
<g id="Node000016" class="node">
<title>Node16</title>
<g id="a_Node000016"><a xlink:href="_open_request_8h.html" target="_top" xlink:title=" ">
<polygon fill="white" stroke="#666666" points="929.5,-464.5 804.5,-464.5 804.5,-445.5 929.5,-445.5 929.5,-464.5"/>
<text text-anchor="middle" x="867" y="-452.5" font-family="Helvetica,sans-Serif" font-size="10.00">Cpl/Itc/OpenRequest.h</text>
</a>
</g>
</g>
<!-- Node3&#45;&gt;Node16 -->
<g id="edge17_Node000003_Node000016" class="edge">
<title>Node3&#45;&gt;Node16</title>
<g id="a_edge17_Node000003_Node000016"><a xlink:title=" ">
<path fill="none" stroke="#63b8ff" d="M580.12,-509.68C635.18,-499.68 720.83,-484.03 795,-470 804.26,-468.25 814.18,-466.34 823.61,-464.51"/>
<polygon fill="#63b8ff" stroke="#63b8ff" points="579.41,-506.25 570.2,-511.48 580.66,-513.13 579.41,-506.25"/>
</a>
</g>
</g>
<!-- Node18 -->
<g id="Node000018" class="node">
<title>Node18</title>
<g id="a_Node000018"><a xlink:href="_requests_8h.html" target="_top" xlink:title=" ">
<polygon fill="white" stroke="#666666" points="442,-464.5 322,-464.5 322,-445.5 442,-445.5 442,-464.5"/>
<text text-anchor="middle" x="382" y="-452.5" font-family="Helvetica,sans-Serif" font-size="10.00">Cpl/MApp/Requests.h</text>
</a>
</g>
</g>
<!-- Node3&#45;&gt;Node18 -->
<g id="edge20_Node000003_Node000018" class="edge">
<title>Node3&#45;&gt;Node18</title>
<g id="a_edge20_Node000003_Node000018"><a xlink:title=" ">
<path fill="none" stroke="#63b8ff" d="M494.79,-507.19C467,-494.58 425.31,-475.66 401.16,-464.7"/>
<polygon fill="#63b8ff" stroke="#63b8ff" points="493.43,-510.42 503.98,-511.37 496.32,-504.05 493.43,-510.42"/>
</a>
</g>
</g>
<!-- Node19 -->
<g id="Node000019" class="node">
<title>Node19</title>
<g id="a_Node000019"><a xlink:href="_indexed_entry_requests_8h.html" target="_top" xlink:title=" ">
<polygon fill="white" stroke="#666666" points="303.5,-470 152.5,-470 152.5,-440 303.5,-440 303.5,-470"/>
<text text-anchor="start" x="160.5" y="-458" font-family="Helvetica,sans-Serif" font-size="10.00">Cpl/Persistent/IndexedEntry</text>
<text text-anchor="middle" x="228" y="-447" font-family="Helvetica,sans-Serif" font-size="10.00">Requests.h</text>
</a>
</g>
</g>
<!-- Node3&#45;&gt;Node19 -->
<g id="edge22_Node000003_Node000019" class="edge">
<title>Node3&#45;&gt;Node19</title>
<g id="a_edge22_Node000003_Node000019"><a xlink:title=" ">
<path fill="none" stroke="#63b8ff" d="M473.66,-509.3C424,-498.52 347.15,-481.85 292.65,-470.02"/>
<polygon fill="#63b8ff" stroke="#63b8ff" points="473.01,-512.74 483.52,-511.44 474.49,-505.89 473.01,-512.74"/>
</a>
</g>
</g>
<!-- Node5 -->
<g id="Node000005" class="node">
<title>Node5</title>
<g id="a_Node000005"><a xlink:href="_dm_2_persistent_2_record_8h.html" target="_top" xlink:title=" ">
<polygon fill="white" stroke="#666666" points="945,-217 795,-217 795,-198 945,-198 945,-217"/>
<text text-anchor="middle" x="870" y="-205" font-family="Helvetica,sans-Serif" font-size="10.00">Cpl/Dm/Persistent/Record.h</text>
</a>
</g>
</g>
<!-- Node4&#45;&gt;Node5 -->
<g id="edge4_Node000004_Node000005" class="edge">
<title>Node4&#45;&gt;Node5</title>
<g id="a_edge4_Node000004_Node000005"><a xlink:title=" ">
<path fill="none" stroke="#63b8ff" d="M1001,-442.03C941.22,-420.89 827.18,-370.69 780,-283 773.68,-271.26 772.97,-264.33 780,-253 791.4,-234.64 812.88,-223.63 831.99,-217.15"/>
<polygon fill="#63b8ff" stroke="#63b8ff" points="1000.21,-445.46 1010.8,-445.41 1002.49,-438.84 1000.21,-445.46"/>
</a>
</g>
</g>
<!-- Node6&#45;&gt;Node5 -->
<g id="edge6_Node000006_Node000005" class="edge">
<title>Node6&#45;&gt;Node5</title>
<g id="a_edge6_Node000006_Node000005"><a xlink:title=" ">
<path fill="none" stroke="#63b8ff" d="M549.37,-435.12C547.06,-395.08 547.86,-301.33 600,-253 627.66,-227.36 724.84,-216.41 794.68,-211.79"/>
<polygon fill="#63b8ff" stroke="#63b8ff" points="545.88,-435.39 550.09,-445.12 552.86,-434.89 545.88,-435.39"/>
</a>
</g>
</g>
<!-- Node8 -->
<g id="Node000008" class="node">
<title>Node8</title>
<g id="a_Node000008"><a xlink:href="_atomic_sync_8h.html" target="_top" xlink:title=" ">
<polygon fill="white" stroke="#666666" points="125.5,-404 8.5,-404 8.5,-385 125.5,-385 125.5,-404"/>
<text text-anchor="middle" x="67" y="-392" font-family="Helvetica,sans-Serif" font-size="10.00">Cpl/Itc/AtomicSync.h</text>
</a>
</g>
</g>
<!-- Node7&#45;&gt;Node8 -->
<g id="edge8_Node000007_Node000008" class="edge">
<title>Node7&#45;&gt;Node8</title>
<g id="a_edge8_Node000007_Node000008"><a xlink:title=" ">
<path fill="none" stroke="#63b8ff" d="M67,-435.16C67,-424.74 67,-412.3 67,-404.17"/>
<polygon fill="#63b8ff" stroke="#63b8ff" points="63.5,-435.37 67,-445.37 70.5,-435.37 63.5,-435.37"/>
</a>
</g>
</g>
<!-- Node10 -->
<g id="Node000010" class="node">
<title>Node10</title>
<g id="a_Node000010"><a xlink:href="_close_sync_8h.html" target="_top" xlink:title=" ">
<polygon fill="white" stroke="#666666" points="719,-343.5 609,-343.5 609,-324.5 719,-324.5 719,-343.5"/>
<text text-anchor="middle" x="664" y="-331.5" font-family="Helvetica,sans-Serif" font-size="10.00">Cpl/Itc/CloseSync.h</text>
</a>
</g>
</g>
<!-- Node9&#45;&gt;Node10 -->
<g id="edge10_Node000009_Node000010" class="edge">
<title>Node9&#45;&gt;Node10</title>
<g id="a_edge10_Node000009_Node000010"><a xlink:title=" ">
<path fill="none" stroke="#63b8ff" d="M685.94,-441.5C668.73,-433.62 649.91,-421.55 640,-404 628.64,-383.9 645.57,-357.51 656.3,-343.93"/>
<polygon fill="#63b8ff" stroke="#63b8ff" points="684.7,-444.78 695.27,-445.46 687.43,-438.33 684.7,-444.78"/>
</a>
</g>
</g>
<!-- Node11 -->
<g id="Node000011" class="node">
<title>Node11</title>
<g id="a_Node000011"><a xlink:href="_log_sink_8h.html" target="_top" xlink:title=" ">
<polygon fill="white" stroke="#666666" points="733,-277.5 609,-277.5 609,-258.5 733,-258.5 733,-277.5"/>
<text text-anchor="middle" x="671" y="-265.5" font-family="Helvetica,sans-Serif" font-size="10.00">Cpl/Logging/LogSink.h</text>
</a>
</g>
</g>
<!-- Node10&#45;&gt;Node11 -->
<g id="edge11_Node000010_Node000011" class="edge">
<title>Node10&#45;&gt;Node11</title>
<g id="a_edge11_Node000010_Node000011"><a xlink:title=" ">
<path fill="none" stroke="#63b8ff" d="M666.07,-314.08C667.38,-302.13 669.01,-287.22 670.03,-277.91"/>
<polygon fill="#63b8ff" stroke="#63b8ff" points="662.55,-314.05 664.94,-324.37 669.51,-314.81 662.55,-314.05"/>
</a>
</g>
</g>
<!-- Node12 -->
<g id="Node000012" class="node">
<title>Node12</title>
<g id="a_Node000012"><a xlink:href="_manager_8h.html" target="_top" xlink:title=" ">
<polygon fill="white" stroke="#666666" points="514.5,-277.5 397.5,-277.5 397.5,-258.5 514.5,-258.5 514.5,-277.5"/>
<text text-anchor="middle" x="456" y="-265.5" font-family="Helvetica,sans-Serif" font-size="10.00">Cpl/MApp/Manager.h</text>
</a>
</g>
</g>
<!-- Node10&#45;&gt;Node12 -->
<g id="edge12_Node000010_Node000012" class="edge">
<title>Node10&#45;&gt;Node12</title>
<g id="a_edge12_Node000010_Node000012"><a xlink:title=" ">
<path fill="none" stroke="#63b8ff" d="M626.31,-321.4C585.29,-308.78 520.66,-288.89 483.94,-277.6"/>
<polygon fill="#63b8ff" stroke="#63b8ff" points="625.36,-324.77 635.95,-324.37 627.42,-318.08 625.36,-324.77"/>
</a>
</g>
</g>
<!-- Node13 -->
<g id="Node000013" class="node">
<title>Node13</title>
<g id="a_Node000013"><a xlink:href="_indexed_entry_server_8h.html" target="_top" xlink:title=" ">
<polygon fill="white" stroke="#666666" points="618.5,-96 467.5,-96 467.5,-66 618.5,-66 618.5,-96"/>
<text text-anchor="start" x="475.5" y="-84" font-family="Helvetica,sans-Serif" font-size="10.00">Cpl/Persistent/IndexedEntry</text>
<text text-anchor="middle" x="543" y="-73" font-family="Helvetica,sans-Serif" font-size="10.00">Server.h</text>
</a>
</g>
</g>
<!-- Node10&#45;&gt;Node13 -->
<g id="edge13_Node000010_Node000013" class="edge">
<title>Node10&#45;&gt;Node13</title>
<g id="a_edge13_Node000010_Node000013"><a xlink:title=" ">
<path fill="none" stroke="#63b8ff" d="M639.16,-318.98C625.76,-310.23 609.97,-297.83 600,-283 558.81,-221.75 547.09,-130.86 544.01,-96.16"/>
<polygon fill="#63b8ff" stroke="#63b8ff" points="637.61,-322.13 647.95,-324.43 641.3,-316.18 637.61,-322.13"/>
</a>
</g>
</g>
<!-- Node15 -->
<g id="Node000015" class="node">
<title>Node15</title>
<g id="a_Node000015"><a xlink:href="_record_server_8h.html" target="_top" xlink:title=" ">
<polygon fill="white" stroke="#666666" points="950.5,-277.5 789.5,-277.5 789.5,-258.5 950.5,-258.5 950.5,-277.5"/>
<text text-anchor="middle" x="870" y="-265.5" font-family="Helvetica,sans-Serif" font-size="10.00">Cpl/Persistent/RecordServer.h</text>
</a>
</g>
</g>
<!-- Node10&#45;&gt;Node15 -->
<g id="edge15_Node000010_Node000015" class="edge">
<title>Node10&#45;&gt;Node15</title>
<g id="a_edge15_Node000010_Node000015"><a xlink:title=" ">
<path fill="none" stroke="#63b8ff" d="M701.58,-321.32C742.22,-308.7 806.04,-288.87 842.33,-277.6"/>
<polygon fill="#63b8ff" stroke="#63b8ff" points="700.29,-318.06 691.78,-324.37 702.37,-324.74 700.29,-318.06"/>
</a>
</g>
</g>
<!-- Node14 -->
<g id="Node000014" class="node">
<title>Node14</title>
<g id="a_Node000014"><a xlink:href="_log_8h.html" target="_top" xlink:title=" ">
<polygon fill="white" stroke="#666666" points="596.5,-30 489.5,-30 489.5,0 596.5,0 596.5,-30"/>
<text text-anchor="start" x="497.5" y="-18" font-family="Helvetica,sans-Serif" font-size="10.00">Cpl/Logging/TShell</text>
<text text-anchor="middle" x="543" y="-7" font-family="Helvetica,sans-Serif" font-size="10.00">/Log.h</text>
</a>
</g>
</g>
<!-- Node13&#45;&gt;Node14 -->
<g id="edge14_Node000013_Node000014" class="edge">
<title>Node13&#45;&gt;Node14</title>
<g id="a_edge14_Node000013_Node000014"><a xlink:title=" ">
<path fill="none" stroke="#63b8ff" d="M543,-55.54C543,-46.96 543,-37.61 543,-30.16"/>
<polygon fill="#63b8ff" stroke="#63b8ff" points="539.5,-55.8 543,-65.8 546.5,-55.8 539.5,-55.8"/>
</a>
</g>
</g>
<!-- Node15&#45;&gt;Node5 -->
<g id="edge16_Node000015_Node000005" class="edge">
<title>Node15&#45;&gt;Node5</title>
<g id="a_edge16_Node000015_Node000005"><a xlink:title=" ">
<path fill="none" stroke="#63b8ff" d="M870,-248.16C870,-237.74 870,-225.3 870,-217.17"/>
<polygon fill="#63b8ff" stroke="#63b8ff" points="866.5,-248.37 870,-258.37 873.5,-248.37 866.5,-248.37"/>
</a>
</g>
</g>
<!-- Node17 -->
<g id="Node000017" class="node">
<title>Node17</title>
<g id="a_Node000017"><a xlink:href="_open_sync_8h.html" target="_top" xlink:title=" ">
<polygon fill="white" stroke="#666666" points="757,-404 649,-404 649,-385 757,-385 757,-404"/>
<text text-anchor="middle" x="703" y="-392" font-family="Helvetica,sans-Serif" font-size="10.00">Cpl/Itc/OpenSync.h</text>
</a>
</g>
</g>
<!-- Node16&#45;&gt;Node17 -->
<g id="edge18_Node000016_Node000017" class="edge">
<title>Node16&#45;&gt;Node17</title>
<g id="a_edge18_Node000016_Node000017"><a xlink:title=" ">
<path fill="none" stroke="#63b8ff" d="M833.43,-442.02C801.72,-430.71 754.95,-414.03 726.88,-404.02"/>
<polygon fill="#63b8ff" stroke="#63b8ff" points="832.56,-445.43 843.15,-445.49 834.91,-438.84 832.56,-445.43"/>
</a>
</g>
</g>
<!-- Node17&#45;&gt;Node10 -->
<g id="edge19_Node000017_Node000010" class="edge">
<title>Node17&#45;&gt;Node10</title>
<g id="a_edge19_Node000017_Node000010"><a xlink:title=" ">
<path fill="none" stroke="#63b8ff" d="M691.54,-376.3C684.39,-365.58 675.49,-352.23 669.78,-343.67"/>
<polygon fill="#63b8ff" stroke="#63b8ff" points="688.79,-378.49 697.25,-384.87 694.61,-374.61 688.79,-378.49"/>
</a>
</g>
</g>
<!-- Node18&#45;&gt;Node12 -->
<g id="edge21_Node000018_Node000012" class="edge">
<title>Node18&#45;&gt;Node12</title>
<g id="a_edge21_Node000018_Node000012"><a xlink:title=" ">
<path fill="none" stroke="#63b8ff" d="M389.41,-435.47C405.08,-396.29 441.06,-306.34 452.47,-277.83"/>
<polygon fill="#63b8ff" stroke="#63b8ff" points="386.03,-434.49 385.57,-445.08 392.53,-437.09 386.03,-434.49"/>
</a>
</g>
</g>
<!-- Node19&#45;&gt;Node13 -->
<g id="edge23_Node000019_Node000013" class="edge">
<title>Node19&#45;&gt;Node13</title>
<g id="a_edge23_Node000019_Node000013"><a xlink:title=" ">
<path fill="none" stroke="#63b8ff" d="M255.35,-433.44C280.53,-411.94 314,-375.71 314,-335 314,-335 314,-335 314,-206.5 314,-135.23 400.68,-104.53 467.38,-91.46"/>
<polygon fill="#63b8ff" stroke="#63b8ff" points="253.01,-430.83 247.51,-439.89 257.46,-436.23 253.01,-430.83"/>
</a>
</g>
</g>
<!-- Node21 -->
<g id="Node000021" class="node">
<title>Node21</title>
<g id="a_Node000021"><a xlink:href="_dm_2_mailbox_server_8h.html" target="_top" xlink:title=" ">
<polygon fill="white" stroke="#666666" points="1193,-404 1059,-404 1059,-385 1193,-385 1193,-404"/>
<text text-anchor="middle" x="1126" y="-392" font-family="Helvetica,sans-Serif" font-size="10.00">Cpl/Dm/MailboxServer.h</text>
</a>
</g>
</g>
<!-- Node20&#45;&gt;Node21 -->
<g id="edge25_Node000020_Node000021" class="edge">
<title>Node20&#45;&gt;Node21</title>
<g id="a_edge25_Node000020_Node000021"><a xlink:title=" ">
<path fill="none" stroke="#63b8ff" d="M1321.32,-443.11C1274.94,-431.8 1203.35,-414.35 1160.94,-404.02"/>
<polygon fill="#63b8ff" stroke="#63b8ff" points="1320.56,-446.53 1331.1,-445.49 1322.22,-439.72 1320.56,-446.53"/>
</a>
</g>
</g>
<!-- Node35 -->
<g id="Node000035" class="node">
<title>Node35</title>
<g id="a_Node000035"><a xlink:href="_itc_2_mailbox_server_8h.html" target="_top" xlink:title=" ">
<polygon fill="white" stroke="#666666" points="1636.5,-404 1507.5,-404 1507.5,-385 1636.5,-385 1636.5,-404"/>
<text text-anchor="middle" x="1572" y="-392" font-family="Helvetica,sans-Serif" font-size="10.00">Cpl/Itc/MailboxServer.h</text>
</a>
</g>
</g>
<!-- Node20&#45;&gt;Node35 -->
<g id="edge51_Node000020_Node000035" class="edge">
<title>Node20&#45;&gt;Node35</title>
<g id="a_edge51_Node000020_Node000035"><a xlink:title=" ">
<path fill="none" stroke="#63b8ff" d="M1405.61,-442.75C1445.45,-431.44 1505.99,-414.25 1542.01,-404.02"/>
<polygon fill="#63b8ff" stroke="#63b8ff" points="1404.62,-439.39 1395.95,-445.49 1406.53,-446.13 1404.62,-439.39"/>
</a>
</g>
</g>
<!-- Node21&#45;&gt;Node11 -->
<g id="edge27_Node000021_Node000011" class="edge">
<title>Node21&#45;&gt;Node11</title>
<g id="a_edge27_Node000021_Node000011"><a xlink:title=" ">
<path fill="none" stroke="#63b8ff" d="M1050.6,-383.48C1001.73,-376.09 936.98,-364.6 881,-349 808.66,-328.84 726.37,-293.76 690,-277.6"/>
<polygon fill="#63b8ff" stroke="#63b8ff" points="1050.38,-386.99 1060.78,-385 1051.41,-380.06 1050.38,-386.99"/>
</a>
</g>
</g>
<!-- Node21&#45;&gt;Node12 -->
<g id="edge28_Node000021_Node000012" class="edge">
<title>Node21&#45;&gt;Node12</title>
<g id="a_edge28_Node000021_Node000012"><a xlink:title=" ">
<path fill="none" stroke="#63b8ff" d="M1048.34,-390.93C922.94,-386.11 681.65,-373.88 600,-349 546.65,-332.75 491.03,-294.84 467.54,-277.69"/>
<polygon fill="#63b8ff" stroke="#63b8ff" points="1048.51,-394.44 1058.64,-391.32 1048.78,-387.44 1048.51,-394.44"/>
</a>
</g>
</g>
<!-- Node21&#45;&gt;Node15 -->
<g id="edge43_Node000021_Node000015" class="edge">
<title>Node21&#45;&gt;Node15</title>
<g id="a_edge43_Node000021_Node000015"><a xlink:title=" ">
<path fill="none" stroke="#63b8ff" d="M1048.75,-385.56C994.15,-378.56 926.94,-366.69 905,-349 882.1,-330.54 873.81,-294.12 871.14,-277.56"/>
<polygon fill="#63b8ff" stroke="#63b8ff" points="1048.42,-389.05 1058.78,-386.81 1049.29,-382.1 1048.42,-389.05"/>
</a>
</g>
</g>
<!-- Node22 -->
<g id="Node000022" class="node">
<title>Node22</title>
<g id="a_Node000022"><a xlink:href="_dm_2_periodic_scheduler_8h.html" target="_top" xlink:title=" ">
<polygon fill="white" stroke="#666666" points="1358.5,-343.5 1207.5,-343.5 1207.5,-324.5 1358.5,-324.5 1358.5,-343.5"/>
<text text-anchor="middle" x="1283" y="-331.5" font-family="Helvetica,sans-Serif" font-size="10.00">Cpl/Dm/PeriodicScheduler.h</text>
</a>
</g>
</g>
<!-- Node21&#45;&gt;Node22 -->
<g id="edge26_Node000021_Node000022" class="edge">
<title>Node21&#45;&gt;Node22</title>
<g id="a_edge26_Node000021_Node000022"><a xlink:title=" ">
<path fill="none" stroke="#63b8ff" d="M1158.53,-381.38C1188.88,-370.07 1233.39,-353.49 1260.14,-343.52"/>
<polygon fill="#63b8ff" stroke="#63b8ff" points="1156.98,-378.22 1148.83,-384.99 1159.42,-384.78 1156.98,-378.22"/>
</a>
</g>
</g>
<!-- Node23 -->
<g id="Node000023" class="node">
<title>Node23</title>
<g id="a_Node000023"><a xlink:href="_cpl_2_m_app_2_temperature_2_api_8h.html" target="_top" xlink:title=" ">
<polygon fill="white" stroke="#666666" points="1505,-349 1377,-349 1377,-319 1505,-319 1505,-349"/>
<text text-anchor="start" x="1385" y="-337" font-family="Helvetica,sans-Serif" font-size="10.00">Cpl/MApp/Temperature</text>
<text text-anchor="middle" x="1441" y="-326" font-family="Helvetica,sans-Serif" font-size="10.00">/Api.h</text>
</a>
</g>
</g>
<!-- Node21&#45;&gt;Node23 -->
<g id="edge29_Node000021_Node000023" class="edge">
<title>Node21&#45;&gt;Node23</title>
<g id="a_edge29_Node000021_Node000023"><a xlink:title=" ">
<path fill="none" stroke="#63b8ff" d="M1182.96,-383.15C1232.02,-374.21 1304.7,-360.89 1368,-349 1370.92,-348.45 1373.9,-347.89 1376.91,-347.32"/>
<polygon fill="#63b8ff" stroke="#63b8ff" points="1182.08,-379.76 1172.86,-384.99 1183.33,-386.64 1182.08,-379.76"/>
</a>
</g>
</g>
<!-- Node24 -->
<g id="Node000024" class="node">
<title>Node24</title>
<g id="a_Node000024"><a xlink:href="_chunk_8h.html" target="_top" xlink:title=" ">
<polygon fill="white" stroke="#666666" points="1189.5,-343.5 1062.5,-343.5 1062.5,-324.5 1189.5,-324.5 1189.5,-343.5"/>
<text text-anchor="middle" x="1126" y="-331.5" font-family="Helvetica,sans-Serif" font-size="10.00">Cpl/Persistent/Chunk.h</text>
</a>
</g>
</g>
<!-- Node21&#45;&gt;Node24 -->
<g id="edge30_Node000021_Node000024" class="edge">
<title>Node21&#45;&gt;Node24</title>
<g id="a_edge30_Node000021_Node000024"><a xlink:title=" ">
<path fill="none" stroke="#63b8ff" d="M1126,-374.66C1126,-364.24 1126,-351.8 1126,-343.67"/>
<polygon fill="#63b8ff" stroke="#63b8ff" points="1122.5,-374.87 1126,-384.87 1129.5,-374.87 1122.5,-374.87"/>
</a>
</g>
</g>
<!-- Node30 -->
<g id="Node000030" class="node">
<title>Node30</title>
<g id="a_Node000030"><a xlink:href="_persistent_2_record_8h.html" target="_top" xlink:title=" ">
<polygon fill="white" stroke="#666666" points="1044,-343.5 914,-343.5 914,-324.5 1044,-324.5 1044,-343.5"/>
<text text-anchor="middle" x="979" y="-331.5" font-family="Helvetica,sans-Serif" font-size="10.00">Cpl/Persistent/Record.h</text>
</a>
</g>
</g>
<!-- Node21&#45;&gt;Node30 -->
<g id="edge39_Node000021_Node000030" class="edge">
<title>Node21&#45;&gt;Node30</title>
<g id="a_edge39_Node000021_Node000030"><a xlink:title=" ">
<path fill="none" stroke="#63b8ff" d="M1095.17,-381.23C1066.76,-369.92 1025.34,-353.44 1000.4,-343.52"/>
<polygon fill="#63b8ff" stroke="#63b8ff" points="1094.04,-384.55 1104.62,-384.99 1096.63,-378.04 1094.04,-384.55"/>
</a>
</g>
</g>
<!-- Node31 -->
<g id="Node000031" class="node">
<title>Node31</title>
<g id="a_Node000031"><a xlink:href="_region_media_8h.html" target="_top" xlink:title=" ">
<polygon fill="white" stroke="#666666" points="1688,-343.5 1528,-343.5 1528,-324.5 1688,-324.5 1688,-343.5"/>
<text text-anchor="middle" x="1608" y="-331.5" font-family="Helvetica,sans-Serif" font-size="10.00">Cpl/Persistent/RegionMedia.h</text>
</a>
</g>
</g>
<!-- Node21&#45;&gt;Node31 -->
<g id="edge44_Node000021_Node000031" class="edge">
<title>Node21&#45;&gt;Node31</title>
<g id="a_edge44_Node000021_Node000031"><a xlink:title=" ">
<path fill="none" stroke="#63b8ff" d="M1203.3,-385.41C1281.67,-377.02 1406.4,-363.18 1514,-349 1526.6,-347.34 1540.12,-345.41 1552.87,-343.53"/>
<polygon fill="#63b8ff" stroke="#63b8ff" points="1202.6,-381.96 1193.03,-386.51 1203.34,-388.92 1202.6,-381.96"/>
</a>
</g>
</g>
<!-- Node24&#45;&gt;Node5 -->
<g id="edge31_Node000024_Node000005" class="edge">
<title>Node24&#45;&gt;Node5</title>
<g id="a_edge31_Node000024_Node000005"><a xlink:title=" ">
<path fill="none" stroke="#63b8ff" d="M1101.7,-319.49C1062.02,-297.45 987.09,-255.89 981,-253 951.55,-239.04 916.47,-225.46 893.75,-217.05"/>
<polygon fill="#63b8ff" stroke="#63b8ff" points="1100.07,-322.59 1110.51,-324.39 1103.47,-316.47 1100.07,-322.59"/>
</a>
</g>
</g>
<!-- Node25 -->
<g id="Node000025" class="node">
<title>Node25</title>
<g id="a_Node000025"><a xlink:href="_crc_chunk_8h.html" target="_top" xlink:title=" ">
<polygon fill="white" stroke="#666666" points="1584.5,-277.5 1441.5,-277.5 1441.5,-258.5 1584.5,-258.5 1584.5,-277.5"/>
<text text-anchor="middle" x="1513" y="-265.5" font-family="Helvetica,sans-Serif" font-size="10.00">Cpl/Persistent/CrcChunk.h</text>
</a>
</g>
</g>
<!-- Node24&#45;&gt;Node25 -->
<g id="edge32_Node000024_Node000025" class="edge">
<title>Node24&#45;&gt;Node25</title>
<g id="a_edge32_Node000024_Node000025"><a xlink:title=" ">
<path fill="none" stroke="#63b8ff" d="M1179.43,-322.52C1186.02,-321.3 1192.66,-320.1 1199,-319 1302.25,-301.13 1328.59,-299.92 1432,-283 1442.56,-281.27 1453.89,-279.35 1464.62,-277.51"/>
<polygon fill="#63b8ff" stroke="#63b8ff" points="1178.37,-319.16 1169.19,-324.45 1179.66,-326.04 1178.37,-319.16"/>
</a>
</g>
</g>
<!-- Node26 -->
<g id="Node000026" class="node">
<title>Node26</title>
<g id="a_Node000026"><a xlink:href="_data_record_8h.html" target="_top" xlink:title=" ">
<polygon fill="white" stroke="#666666" points="1198.5,-277.5 1045.5,-277.5 1045.5,-258.5 1198.5,-258.5 1198.5,-277.5"/>
<text text-anchor="middle" x="1122" y="-265.5" font-family="Helvetica,sans-Serif" font-size="10.00">Cpl/Persistent/DataRecord.h</text>
</a>
</g>
</g>
<!-- Node24&#45;&gt;Node26 -->
<g id="edge33_Node000024_Node000026" class="edge">
<title>Node24&#45;&gt;Node26</title>
<g id="a_edge33_Node000024_Node000026"><a xlink:title=" ">
<path fill="none" stroke="#63b8ff" d="M1124.82,-314.08C1124.07,-302.13 1123.14,-287.22 1122.56,-277.91"/>
<polygon fill="#63b8ff" stroke="#63b8ff" points="1121.34,-314.61 1125.46,-324.37 1128.33,-314.17 1121.34,-314.61"/>
</a>
</g>
</g>
<!-- Node28 -->
<g id="Node000028" class="node">
<title>Node28</title>
<g id="a_Node000028"><a xlink:href="_indexed_entry_record_8h.html" target="_top" xlink:title=" ">
<polygon fill="white" stroke="#666666" points="1248.5,-162 1097.5,-162 1097.5,-132 1248.5,-132 1248.5,-162"/>
<text text-anchor="start" x="1105.5" y="-150" font-family="Helvetica,sans-Serif" font-size="10.00">Cpl/Persistent/IndexedEntry</text>
<text text-anchor="middle" x="1173" y="-139" font-family="Helvetica,sans-Serif" font-size="10.00">Record.h</text>
</a>
</g>
</g>
<!-- Node24&#45;&gt;Node28 -->
<g id="edge37_Node000024_Node000028" class="edge">
<title>Node24&#45;&gt;Node28</title>
<g id="a_edge37_Node000024_Node000028"><a xlink:title=" ">
<path fill="none" stroke="#63b8ff" d="M1162.62,-320.39C1179.63,-312.49 1198.22,-300.42 1208,-283 1226.5,-250.06 1219.36,-234.03 1208,-198 1203.73,-184.46 1194.34,-171.39 1186.36,-162.02"/>
<polygon fill="#63b8ff" stroke="#63b8ff" points="1161.2,-317.2 1153.4,-324.37 1163.97,-323.62 1161.2,-317.2"/>
</a>
</g>
</g>
<!-- Node29 -->
<g id="Node000029" class="node">
<title>Node29</title>
<g id="a_Node000029"><a xlink:href="_mirrored_chunk_8h.html" target="_top" xlink:title=" ">
<polygon fill="white" stroke="#666666" points="1423,-277.5 1255,-277.5 1255,-258.5 1423,-258.5 1423,-277.5"/>
<text text-anchor="middle" x="1339" y="-265.5" font-family="Helvetica,sans-Serif" font-size="10.00">Cpl/Persistent/MirroredChunk.h</text>
</a>
</g>
</g>
<!-- Node24&#45;&gt;Node29 -->
<g id="edge38_Node000024_Node000029" class="edge">
<title>Node24&#45;&gt;Node29</title>
<g id="a_edge38_Node000024_Node000029"><a xlink:title=" ">
<path fill="none" stroke="#63b8ff" d="M1164.33,-321.48C1206.32,-308.87 1272.71,-288.92 1310.39,-277.6"/>
<polygon fill="#63b8ff" stroke="#63b8ff" points="1163.3,-318.14 1154.73,-324.37 1165.31,-324.84 1163.3,-318.14"/>
</a>
</g>
</g>
<!-- Node27 -->
<g id="Node000027" class="node">
<title>Node27</title>
<g id="a_Node000027"><a xlink:href="_index_record_8h.html" target="_top" xlink:title=" ">
<polygon fill="white" stroke="#666666" points="1198.5,-217 1041.5,-217 1041.5,-198 1198.5,-198 1198.5,-217"/>
<text text-anchor="middle" x="1120" y="-205" font-family="Helvetica,sans-Serif" font-size="10.00">Cpl/Persistent/IndexRecord.h</text>
</a>
</g>
</g>
<!-- Node26&#45;&gt;Node27 -->
<g id="edge34_Node000026_Node000027" class="edge">
<title>Node26&#45;&gt;Node27</title>
<g id="a_edge34_Node000026_Node000027"><a xlink:title=" ">
<path fill="none" stroke="#63b8ff" d="M1121.36,-248.16C1121,-237.74 1120.57,-225.3 1120.3,-217.17"/>
<polygon fill="#63b8ff" stroke="#63b8ff" points="1117.87,-248.49 1121.7,-258.37 1124.86,-248.25 1117.87,-248.49"/>
</a>
</g>
</g>
<!-- Node27&#45;&gt;Node28 -->
<g id="edge35_Node000027_Node000028" class="edge">
<title>Node27&#45;&gt;Node28</title>
<g id="a_edge35_Node000027_Node000028"><a xlink:title=" ">
<path fill="none" stroke="#63b8ff" d="M1134.56,-190.43C1142.6,-181.56 1152.48,-170.65 1160.21,-162.11"/>
<polygon fill="#63b8ff" stroke="#63b8ff" points="1131.94,-188.11 1127.82,-197.87 1137.13,-192.81 1131.94,-188.11"/>
</a>
</g>
</g>
<!-- Node28&#45;&gt;Node13 -->
<g id="edge36_Node000028_Node000013" class="edge">
<title>Node28&#45;&gt;Node13</title>
<g id="a_edge36_Node000028_Node000013"><a xlink:title=" ">
<path fill="none" stroke="#63b8ff" d="M1087.13,-137.28C963.36,-124.7 736.79,-101.69 618.86,-89.71"/>
<polygon fill="#63b8ff" stroke="#63b8ff" points="1087.02,-140.78 1097.32,-138.31 1087.73,-133.82 1087.02,-140.78"/>
</a>
</g>
</g>
<!-- Node30&#45;&gt;Node5 -->
<g id="edge40_Node000030_Node000005" class="edge">
<title>Node30&#45;&gt;Node5</title>
<g id="a_edge40_Node000030_Node000005"><a xlink:title=" ">
<path fill="none" stroke="#63b8ff" d="M978.64,-314.12C977.38,-296.54 973.04,-270.5 959,-253 944.62,-235.08 921.16,-223.77 901.94,-217.03"/>
<polygon fill="#63b8ff" stroke="#63b8ff" points="975.15,-314.44 979.1,-324.27 982.15,-314.13 975.15,-314.44"/>
</a>
</g>
</g>
<!-- Node30&#45;&gt;Node15 -->
<g id="edge42_Node000030_Node000015" class="edge">
<title>Node30&#45;&gt;Node15</title>
<g id="a_edge42_Node000030_Node000015"><a xlink:title=" ">
<path fill="none" stroke="#63b8ff" d="M955.48,-319.19C934.03,-306.59 902.99,-288.37 884.82,-277.7"/>
<polygon fill="#63b8ff" stroke="#63b8ff" points="953.9,-322.32 964.3,-324.37 957.45,-316.29 953.9,-322.32"/>
</a>
</g>
</g>
<!-- Node30&#45;&gt;Node26 -->
<g id="edge41_Node000030_Node000026" class="edge">
<title>Node30&#45;&gt;Node26</title>
<g id="a_edge41_Node000030_Node000026"><a xlink:title=" ">
<path fill="none" stroke="#63b8ff" d="M1007.61,-320.19C1035.8,-307.58 1078.08,-288.66 1102.56,-277.7"/>
<polygon fill="#63b8ff" stroke="#63b8ff" points="1005.98,-317.09 998.29,-324.37 1008.84,-323.48 1005.98,-317.09"/>
</a>
</g>
</g>
<!-- Node31&#45;&gt;Node25 -->
<g id="edge45_Node000031_Node000025" class="edge">
<title>Node31&#45;&gt;Node25</title>
<g id="a_edge45_Node000031_Node000025"><a xlink:title=" ">
<path fill="none" stroke="#63b8ff" d="M1586.74,-318.68C1568.08,-306.11 1541.54,-288.23 1525.91,-277.7"/>
<polygon fill="#63b8ff" stroke="#63b8ff" points="1584.94,-321.68 1595.19,-324.37 1588.85,-315.88 1584.94,-321.68"/>
</a>
</g>
</g>
<!-- Node31&#45;&gt;Node28 -->
<g id="edge47_Node000031_Node000028" class="edge">
<title>Node31&#45;&gt;Node28</title>
<g id="a_edge47_Node000031_Node000028"><a xlink:title=" ">
<path fill="none" stroke="#63b8ff" d="M1610.09,-314.06C1610.96,-296.04 1609.21,-269.33 1594,-253 1547.6,-203.18 1356.85,-171.37 1248.72,-156.97"/>
<polygon fill="#63b8ff" stroke="#63b8ff" points="1606.58,-313.97 1609.27,-324.21 1613.56,-314.53 1606.58,-313.97"/>
</a>
</g>
</g>
<!-- Node31&#45;&gt;Node29 -->
<g id="edge48_Node000031_Node000029" class="edge">
<title>Node31&#45;&gt;Node29</title>
<g id="a_edge48_Node000031_Node000029"><a xlink:title=" ">
<path fill="none" stroke="#63b8ff" d="M1562.19,-322.1C1509.2,-309.49 1423.09,-289.01 1374.79,-277.51"/>
<polygon fill="#63b8ff" stroke="#63b8ff" points="1561.46,-325.53 1572,-324.44 1563.08,-318.72 1561.46,-325.53"/>
</a>
</g>
</g>
<!-- Node32 -->
<g id="Node000032" class="node">
<title>Node32</title>
<g id="a_Node000032"><a xlink:href="_file_adapter_8h.html" target="_top" xlink:title=" ">
<polygon fill="white" stroke="#666666" points="1792.5,-277.5 1641.5,-277.5 1641.5,-258.5 1792.5,-258.5 1792.5,-277.5"/>
<text text-anchor="middle" x="1717" y="-265.5" font-family="Helvetica,sans-Serif" font-size="10.00">Cpl/Persistent/FileAdapter.h</text>
</a>
</g>
</g>
<!-- Node31&#45;&gt;Node32 -->
<g id="edge46_Node000031_Node000032" class="edge">
<title>Node31&#45;&gt;Node32</title>
<g id="a_edge46_Node000031_Node000032"><a xlink:title=" ">
<path fill="none" stroke="#63b8ff" d="M1631.52,-319.19C1652.97,-306.59 1684.01,-288.37 1702.18,-277.7"/>
<polygon fill="#63b8ff" stroke="#63b8ff" points="1629.55,-316.29 1622.7,-324.37 1633.1,-322.32 1629.55,-316.29"/>
</a>
</g>
</g>
<!-- Node33 -->
<g id="Node000033" class="node">
<title>Node33</title>
<g id="a_Node000033"><a xlink:href="_n_v_adapter_8h.html" target="_top" xlink:title=" ">
<polygon fill="white" stroke="#666666" points="1957.5,-277.5 1810.5,-277.5 1810.5,-258.5 1957.5,-258.5 1957.5,-277.5"/>
<text text-anchor="middle" x="1884" y="-265.5" font-family="Helvetica,sans-Serif" font-size="10.00">Cpl/Persistent/NVAdapter.h</text>
</a>
</g>
</g>
<!-- Node31&#45;&gt;Node33 -->
<g id="edge49_Node000031_Node000033" class="edge">
<title>Node31&#45;&gt;Node33</title>
<g id="a_edge49_Node000031_Node000033"><a xlink:title=" ">
<path fill="none" stroke="#63b8ff" d="M1655,-322.1C1709.37,-309.49 1797.72,-289.01 1847.28,-277.51"/>
<polygon fill="#63b8ff" stroke="#63b8ff" points="1653.89,-318.77 1644.94,-324.44 1655.47,-325.59 1653.89,-318.77"/>
</a>
</g>
</g>
<!-- Node34 -->
<g id="Node000034" class="node">
<title>Node34</title>
<g id="a_Node000034"><a xlink:href="_null_region_media_8h.html" target="_top" xlink:title=" ">
<polygon fill="white" stroke="#666666" points="2116,-283 1976,-283 1976,-253 2116,-253 2116,-283"/>
<text text-anchor="start" x="1984" y="-271" font-family="Helvetica,sans-Serif" font-size="10.00">Cpl/Persistent/NullRegion</text>
<text text-anchor="middle" x="2046" y="-260" font-family="Helvetica,sans-Serif" font-size="10.00">Media.h</text>
</a>
</g>
</g>
<!-- Node31&#45;&gt;Node34 -->
<g id="edge50_Node000031_Node000034" class="edge">
<title>Node31&#45;&gt;Node34</title>
<g id="a_edge50_Node000031_Node000034"><a xlink:title=" ">
<path fill="none" stroke="#63b8ff" d="M1671.22,-322.87C1679.88,-321.53 1688.66,-320.21 1697,-319 1816.8,-301.59 1847.37,-301.57 1967,-283 1969.89,-282.55 1972.84,-282.08 1975.81,-281.6"/>
<polygon fill="#63b8ff" stroke="#63b8ff" points="1670.49,-319.44 1661.15,-324.43 1671.57,-326.36 1670.49,-319.44"/>
</a>
</g>
</g>
<!-- Node36 -->
<g id="Node000036" class="node">
<title>Node36</title>
<g id="a_Node000036"><a xlink:href="_itc_2_periodic_scheduler_8h.html" target="_top" xlink:title=" ">
<polygon fill="white" stroke="#666666" points="1852,-343.5 1706,-343.5 1706,-324.5 1852,-324.5 1852,-343.5"/>
<text text-anchor="middle" x="1779" y="-331.5" font-family="Helvetica,sans-Serif" font-size="10.00">Cpl/Itc/PeriodicScheduler.h</text>
</a>
</g>
</g>
<!-- Node35&#45;&gt;Node36 -->
<g id="edge52_Node000035_Node000036" class="edge">
<title>Node35&#45;&gt;Node36</title>
<g id="a_edge52_Node000035_Node000036"><a xlink:title=" ">
<path fill="none" stroke="#63b8ff" d="M1611.8,-382.25C1651.83,-370.94 1712.67,-353.75 1748.86,-343.52"/>
<polygon fill="#63b8ff" stroke="#63b8ff" points="1610.77,-378.91 1602.1,-384.99 1612.67,-385.64 1610.77,-378.91"/>
</a>
</g>
</g>
<!-- Node37&#45;&gt;Node4 -->
<g id="edge54_Node000037_Node000004" class="edge">
<title>Node37&#45;&gt;Node4</title>
<g id="a_edge54_Node000037_Node000004"><a xlink:title=" ">
<path fill="none" stroke="#63b8ff" d="M758.91,-620.13C796.4,-589.82 879.26,-523.77 911,-506 943.58,-487.76 984.16,-473.14 1010.79,-464.52"/>
<polygon fill="#63b8ff" stroke="#63b8ff" points="756.38,-617.67 750.82,-626.68 760.79,-623.11 756.38,-617.67"/>
</a>
</g>
</g>
<!-- Node37&#45;&gt;Node6 -->
<g id="edge55_Node000037_Node000006" class="edge">
<title>Node37&#45;&gt;Node6</title>
<g id="a_edge55_Node000037_Node000006"><a xlink:title=" ">
<path fill="none" stroke="#63b8ff" d="M734.88,-617.03C730.54,-603.61 723.35,-585.52 713,-572 672.94,-519.68 602.79,-480.99 569.52,-464.62"/>
<polygon fill="#63b8ff" stroke="#63b8ff" points="731.64,-618.41 737.86,-626.99 738.34,-616.41 731.64,-618.41"/>
</a>
</g>
</g>
<!-- Node37&#45;&gt;Node7 -->
<g id="edge58_Node000037_Node000007" class="edge">
<title>Node37&#45;&gt;Node7</title>
<g id="a_edge58_Node000037_Node000007"><a xlink:title=" ">
<path fill="none" stroke="#63b8ff" d="M691.24,-635.14C551.44,-633.68 156.34,-626.42 111,-591 70.4,-559.28 66.77,-489.37 66.8,-464.77"/>
<polygon fill="#63b8ff" stroke="#63b8ff" points="691.21,-638.64 701.24,-635.24 691.28,-631.64 691.21,-638.64"/>
</a>
</g>
</g>
<!-- Node37&#45;&gt;Node9 -->
<g id="edge59_Node000037_Node000009" class="edge">
<title>Node37&#45;&gt;Node9</title>
<g id="a_edge59_Node000037_Node000009"><a xlink:title=" ">
<path fill="none" stroke="#63b8ff" d="M747.15,-617.18C749.87,-609.26 752.65,-599.81 754,-591 759.74,-553.66 764.35,-542.33 754,-506 749.47,-490.09 738.26,-474.29 730.64,-464.84"/>
<polygon fill="#63b8ff" stroke="#63b8ff" points="743.77,-616.23 743.6,-626.82 750.34,-618.65 743.77,-616.23"/>
</a>
</g>
</g>
<!-- Node37&#45;&gt;Node16 -->
<g id="edge60_Node000037_Node000016" class="edge">
<title>Node37&#45;&gt;Node16</title>
<g id="a_edge60_Node000037_Node000016"><a xlink:title=" ">
<path fill="none" stroke="#63b8ff" d="M752.04,-618.48C778.56,-581.01 841.2,-492.46 860.94,-464.57"/>
<polygon fill="#63b8ff" stroke="#63b8ff" points="749.04,-616.66 746.13,-626.84 754.76,-620.7 749.04,-616.66"/>
</a>
</g>
</g>
<!-- Node37&#45;&gt;Node18 -->
<g id="edge71_Node000037_Node000018" class="edge">
<title>Node37&#45;&gt;Node18</title>
<g id="a_edge71_Node000037_Node000018"><a xlink:title=" ">
<path fill="none" stroke="#63b8ff" d="M690.97,-635.38C618.2,-632.42 482.12,-615.74 407,-536 387.84,-515.66 383.36,-480.83 382.31,-464.69"/>
<polygon fill="#63b8ff" stroke="#63b8ff" points="691.12,-638.89 701.24,-635.72 691.36,-631.89 691.12,-638.89"/>
</a>
</g>
</g>
<!-- Node37&#45;&gt;Node19 -->
<g id="edge72_Node000037_Node000019" class="edge">
<title>Node37&#45;&gt;Node19</title>
<g id="a_edge72_Node000037_Node000019"><a xlink:title=" ">
<path fill="none" stroke="#63b8ff" d="M691.23,-632.07C632.88,-627.05 532.7,-615.49 450,-591 392.97,-574.11 378.73,-567.04 328,-536 295.57,-516.16 261.85,-487.13 243.03,-470.04"/>
<polygon fill="#63b8ff" stroke="#63b8ff" points="691.02,-635.57 701.27,-632.91 691.6,-628.59 691.02,-635.57"/>
</a>
</g>
</g>
<!-- Node38 -->
<g id="Node000038" class="node">
<title>Node38</title>
<g id="a_Node000038"><a xlink:href="_listener_client_request_8h.html" target="_top" xlink:title=" ">
<polygon fill="white" stroke="#666666" points="1070,-536 920,-536 920,-506 1070,-506 1070,-536"/>
<text text-anchor="start" x="928" y="-524" font-family="Helvetica,sans-Serif" font-size="10.00">Cpl/Io/Socket/ListenerClient</text>
<text text-anchor="middle" x="995" y="-513" font-family="Helvetica,sans-Serif" font-size="10.00">Request.h</text>
</a>
</g>
</g>
<!-- Node37&#45;&gt;Node38 -->
<g id="edge56_Node000037_Node000038" class="edge">
<title>Node37&#45;&gt;Node38</title>
<g id="a_edge56_Node000037_Node000038"><a xlink:title=" ">
<path fill="none" stroke="#63b8ff" d="M788.97,-627.68C823.03,-620.99 868.82,-609.45 906,-591 935.07,-576.57 963.86,-551.84 980.51,-536.24"/>
<polygon fill="#63b8ff" stroke="#63b8ff" points="787.97,-624.31 778.8,-629.6 789.27,-631.19 787.97,-624.31"/>
</a>
</g>
</g>
<!-- Node40 -->
<g id="Node000040" class="node">
<title>Node40</title>
<g id="a_Node000040"><a xlink:href="_request_message_8h.html" target="_top" xlink:title=" ">
<polygon fill="white" stroke="#666666" points="704.5,-591 561.5,-591 561.5,-572 704.5,-572 704.5,-591"/>
<text text-anchor="middle" x="633" y="-579" font-family="Helvetica,sans-Serif" font-size="10.00">Cpl/Itc/RequestMessage.h</text>
</a>
</g>
</g>
<!-- Node37&#45;&gt;Node40 -->
<g id="edge61_Node000037_Node000040" class="edge">
<title>Node37&#45;&gt;Node40</title>
<g id="a_edge61_Node000037_Node000040"><a xlink:title=" ">
<path fill="none" stroke="#63b8ff" d="M713.76,-622.5C694.07,-612.75 667.68,-599.68 650.5,-591.17"/>
<polygon fill="#63b8ff" stroke="#63b8ff" points="712.29,-625.68 722.81,-626.98 715.4,-619.41 712.29,-625.68"/>
</a>
</g>
</g>
<!-- Node39 -->
<g id="Node000039" class="node">
<title>Node39</title>
<g id="a_Node000039"><a xlink:href="_listener_client_sync_8h.html" target="_top" xlink:title=" ">
<polygon fill="white" stroke="#666666" points="1299,-470 1149,-470 1149,-440 1299,-440 1299,-470"/>
<text text-anchor="start" x="1157" y="-458" font-family="Helvetica,sans-Serif" font-size="10.00">Cpl/Io/Socket/ListenerClient</text>
<text text-anchor="middle" x="1224" y="-447" font-family="Helvetica,sans-Serif" font-size="10.00">Sync.h</text>
</a>
</g>
</g>
<!-- Node38&#45;&gt;Node39 -->
<g id="edge57_Node000038_Node000039" class="edge">
<title>Node38&#45;&gt;Node39</title>
<g id="a_edge57_Node000038_Node000039"><a xlink:title=" ">
<path fill="none" stroke="#63b8ff" d="M1054.92,-503.25C1091.92,-492.91 1138.84,-479.8 1173.86,-470.01"/>
<polygon fill="#63b8ff" stroke="#63b8ff" points="1053.94,-499.89 1045.26,-505.95 1055.83,-506.63 1053.94,-499.89"/>
</a>
</g>
</g>
<!-- Node40&#45;&gt;Node3 -->
<g id="edge68_Node000040_Node000003" class="edge">
<title>Node40&#45;&gt;Node3</title>
<g id="a_edge68_Node000040_Node000003"><a xlink:title=" ">
<path fill="none" stroke="#63b8ff" d="M607.76,-567.08C586.72,-555.88 557.36,-540.27 539.3,-530.67"/>
<polygon fill="#63b8ff" stroke="#63b8ff" points="606.3,-570.26 616.77,-571.87 609.58,-564.08 606.3,-570.26"/>
</a>
</g>
</g>
<!-- Node40&#45;&gt;Node4 -->
<g id="edge62_Node000040_Node000004" class="edge">
<title>Node40&#45;&gt;Node4</title>
<g id="a_edge62_Node000040_Node000004"><a xlink:title=" ">
<path fill="none" stroke="#63b8ff" d="M670.67,-568.95C751.51,-544.16 940.04,-486.35 1011.17,-464.53"/>
<polygon fill="#63b8ff" stroke="#63b8ff" points="669.44,-565.66 660.91,-571.94 671.49,-572.36 669.44,-565.66"/>
</a>
</g>
</g>
<!-- Node40&#45;&gt;Node6 -->
<g id="edge63_Node000040_Node000006" class="edge">
<title>Node40&#45;&gt;Node6</title>
<g id="a_edge63_Node000040_Node000006"><a xlink:title=" ">
<path fill="none" stroke="#63b8ff" d="M629.16,-561.44C625.35,-545.63 618.39,-523.05 607,-506 595.42,-488.66 576.44,-473.46 563.83,-464.5"/>
<polygon fill="#63b8ff" stroke="#63b8ff" points="625.83,-562.58 631.41,-571.59 632.67,-561.07 625.83,-562.58"/>
</a>
</g>
</g>
<!-- Node40&#45;&gt;Node7 -->
<g id="edge65_Node000040_Node000007" class="edge">
<title>Node40&#45;&gt;Node7</title>
<g id="a_edge65_Node000040_Node000007"><a xlink:title=" ">
<path fill="none" stroke="#63b8ff" d="M551.18,-572C489.41,-564.75 402.8,-552.82 328,-536 238.76,-515.94 135.73,-480.65 90.43,-464.5"/>
<polygon fill="#63b8ff" stroke="#63b8ff" points="550.92,-575.49 561.26,-573.16 551.73,-568.54 550.92,-575.49"/>
</a>
</g>
</g>
<!-- Node40&#45;&gt;Node9 -->
<g id="edge66_Node000040_Node000009" class="edge">
<title>Node40&#45;&gt;Node9</title>
<g id="a_edge66_Node000040_Node000009"><a xlink:title=" ">
<path fill="none" stroke="#63b8ff" d="M645.26,-563.54C664.73,-536.6 702.02,-485.02 716.77,-464.62"/>
<polygon fill="#63b8ff" stroke="#63b8ff" points="642.21,-561.79 639.19,-571.94 647.88,-565.89 642.21,-561.79"/>
</a>
</g>
</g>
<!-- Node40&#45;&gt;Node16 -->
<g id="edge67_Node000040_Node000016" class="edge">
<title>Node40&#45;&gt;Node16</title>
<g id="a_edge67_Node000040_Node000016"><a xlink:title=" ">
<path fill="none" stroke="#63b8ff" d="M656.1,-566.76C682.08,-551.44 725.65,-526.19 764,-506 793.02,-490.72 827.42,-474.37 848.21,-464.67"/>
<polygon fill="#63b8ff" stroke="#63b8ff" points="654.19,-563.82 647.37,-571.92 657.76,-569.84 654.19,-563.82"/>
</a>
</g>
</g>
<!-- Node40&#45;&gt;Node18 -->
<g id="edge69_Node000040_Node000018" class="edge">
<title>Node40&#45;&gt;Node18</title>
<g id="a_edge69_Node000040_Node000018"><a xlink:title=" ">
<path fill="none" stroke="#63b8ff" d="M551.08,-574.91C514.35,-569.23 471.97,-558.01 439,-536 411.48,-517.63 392.94,-481.16 385.57,-464.57"/>
<polygon fill="#63b8ff" stroke="#63b8ff" points="550.88,-578.42 561.28,-576.37 551.87,-571.49 550.88,-578.42"/>
</a>
</g>
</g>
<!-- Node40&#45;&gt;Node19 -->
<g id="edge70_Node000040_Node000019" class="edge">
<title>Node40&#45;&gt;Node19</title>
<g id="a_edge70_Node000040_Node000019"><a xlink:title=" ">
<path fill="none" stroke="#63b8ff" d="M559.77,-570.38C515.02,-563.14 456.96,-551.86 407,-536 350.71,-518.13 288.5,-487.74 254.25,-470"/>
<polygon fill="#63b8ff" stroke="#63b8ff" points="559.27,-573.85 569.69,-571.96 560.36,-566.93 559.27,-573.85"/>
</a>
</g>
</g>
<!-- Node40&#45;&gt;Node38 -->
<g id="edge64_Node000040_Node000038" class="edge">
<title>Node40&#45;&gt;Node38</title>
<g id="a_edge64_Node000040_Node000038"><a xlink:title=" ">
<path fill="none" stroke="#63b8ff" d="M695.73,-570.36C758.04,-560.29 853.63,-544.85 919.95,-534.13"/>
<polygon fill="#63b8ff" stroke="#63b8ff" points="694.95,-566.94 685.64,-571.99 696.07,-573.85 694.95,-566.94"/>
</a>
</g>
</g>
</g>
</svg>
