<?xml version="1.0" encoding="UTF-8" standalone="no"?>
<!DOCTYPE svg PUBLIC "-//W3C//DTD SVG 1.1//EN"
 "http://www.w3.org/Graphics/SVG/1.1/DTD/svg11.dtd">
<!-- Generated by graphviz version 2.43.0 (0)
 -->
<!-- Title: Cpl/Io/Socket/Posix/Listener.h Pages: 1 -->
<svg width="714pt" height="258pt"
 viewBox="0.00 0.00 713.50 258.00" xmlns="http://www.w3.org/2000/svg" xmlns:xlink="http://www.w3.org/1999/xlink">
<g id="graph0" class="graph" transform="scale(1 1) rotate(0) translate(4 254)">
<title>Cpl/Io/Socket/Posix/Listener.h</title>
<!-- Node1 -->
<g id="Node000001" class="node">
<title>Node1</title>
<g id="a_Node000001"><a xlink:title=" ">
<polygon fill="#999999" stroke="#666666" points="297.5,-250 188.5,-250 188.5,-220 297.5,-220 297.5,-250"/>
<text text-anchor="start" x="196.5" y="-238" font-family="Helvetica,sans-Serif" font-size="10.00">Cpl/Io/Socket/Posix</text>
<text text-anchor="middle" x="243" y="-227" font-family="Helvetica,sans-Serif" font-size="10.00">/Listener.h</text>
</a>
</g>
</g>
<!-- Node2 -->
<g id="Node000002" class="node">
<title>Node2</title>
<g id="a_Node000002"><a xlink:title=" ">
<polygon fill="#e0e0e0" stroke="#999999" points="223,-184 131,-184 131,-165 223,-165 223,-184"/>
<text text-anchor="middle" x="177" y="-172" font-family="Helvetica,sans-Serif" font-size="10.00">colony_config.h</text>
</a>
</g>
</g>
<!-- Node1&#45;&gt;Node2 -->
<g id="edge1_Node000001_Node000002" class="edge">
<title>Node1&#45;&gt;Node2</title>
<g id="a_edge1_Node000001_Node000002"><a xlink:title=" ">
<path fill="none" stroke="#63b8ff" d="M227.02,-219.84C217.25,-211.17 204.73,-200.08 194.66,-191.15"/>
<polygon fill="#63b8ff" stroke="#63b8ff" points="196.69,-188.28 186.89,-184.27 192.05,-193.52 196.69,-188.28"/>
</a>
</g>
</g>
<!-- Node3 -->
<g id="Node000003" class="node">
<title>Node3</title>
<g id="a_Node000003"><a xlink:href="_listener___8h.html" target="_top" xlink:title=" ">
<polygon fill="white" stroke="#666666" points="377,-184 241,-184 241,-165 377,-165 377,-184"/>
<text text-anchor="middle" x="309" y="-172" font-family="Helvetica,sans-Serif" font-size="10.00">Cpl/Io/Socket/Listener_.h</text>
</a>
</g>
</g>
<!-- Node1&#45;&gt;Node3 -->
<g id="edge2_Node000001_Node000003" class="edge">
<title>Node1&#45;&gt;Node3</title>
<g id="a_edge2_Node000001_Node000003"><a xlink:title=" ">
<path fill="none" stroke="#63b8ff" d="M258.98,-219.84C268.75,-211.17 281.27,-200.08 291.34,-191.15"/>
<polygon fill="#63b8ff" stroke="#63b8ff" points="293.95,-193.52 299.11,-184.27 289.31,-188.28 293.95,-193.52"/>
</a>
</g>
</g>
<!-- Node4 -->
<g id="Node000004" class="node">
<title>Node4</title>
<g id="a_Node000004"><a xlink:href="_listener_8h.html" target="_top" xlink:title=" ">
<polygon fill="white" stroke="#666666" points="233,-129 103,-129 103,-110 233,-110 233,-129"/>
<text text-anchor="middle" x="168" y="-117" font-family="Helvetica,sans-Serif" font-size="10.00">Cpl/Io/Socket/Listener.h</text>
</a>
</g>
</g>
<!-- Node3&#45;&gt;Node4 -->
<g id="edge3_Node000003_Node000004" class="edge">
<title>Node3&#45;&gt;Node4</title>
<g id="a_edge3_Node000003_Node000004"><a xlink:title=" ">
<path fill="none" stroke="#63b8ff" d="M286.35,-164.98C263.15,-156.27 226.88,-142.63 200.6,-132.75"/>
<polygon fill="#63b8ff" stroke="#63b8ff" points="201.66,-129.41 191.07,-129.17 199.2,-135.97 201.66,-129.41"/>
</a>
</g>
</g>
<!-- Node7 -->
<g id="Node000007" class="node">
<title>Node7</title>
<g id="a_Node000007"><a xlink:href="_thread_8h.html" target="_top" xlink:title=" ">
<polygon fill="white" stroke="#666666" points="503,-129 385,-129 385,-110 503,-110 503,-129"/>
<text text-anchor="middle" x="444" y="-117" font-family="Helvetica,sans-Serif" font-size="10.00">Cpl/System/Thread.h</text>
</a>
</g>
</g>
<!-- Node3&#45;&gt;Node7 -->
<g id="edge6_Node000003_Node000007" class="edge">
<title>Node3&#45;&gt;Node7</title>
<g id="a_edge6_Node000003_Node000007"><a xlink:title=" ">
<path fill="none" stroke="#63b8ff" d="M330.69,-164.98C352.8,-156.3 387.32,-142.75 412.45,-132.88"/>
<polygon fill="#63b8ff" stroke="#63b8ff" points="413.89,-136.08 421.92,-129.17 411.33,-129.57 413.89,-136.08"/>
</a>
</g>
</g>
<!-- Node13 -->
<g id="Node000013" class="node">
<title>Node13</title>
<g id="a_Node000013"><a xlink:href="_mutex_8h.html" target="_top" xlink:title=" ">
<polygon fill="white" stroke="#666666" points="366.5,-129 251.5,-129 251.5,-110 366.5,-110 366.5,-129"/>
<text text-anchor="middle" x="309" y="-117" font-family="Helvetica,sans-Serif" font-size="10.00">Cpl/System/Mutex.h</text>
</a>
</g>
</g>
<!-- Node3&#45;&gt;Node13 -->
<g id="edge13_Node000003_Node000013" class="edge">
<title>Node3&#45;&gt;Node13</title>
<g id="a_edge13_Node000003_Node000013"><a xlink:title=" ">
<path fill="none" stroke="#63b8ff" d="M309,-164.75C309,-157.8 309,-147.85 309,-139.13"/>
<polygon fill="#63b8ff" stroke="#63b8ff" points="312.5,-139.09 309,-129.09 305.5,-139.09 312.5,-139.09"/>
</a>
</g>
</g>
<!-- Node5 -->
<g id="Node000005" class="node">
<title>Node5</title>
<g id="a_Node000005"><a xlink:href="_descriptor_8h.html" target="_top" xlink:title=" ">
<polygon fill="white" stroke="#666666" points="106,-74 0,-74 0,-55 106,-55 106,-74"/>
<text text-anchor="middle" x="53" y="-62" font-family="Helvetica,sans-Serif" font-size="10.00">Cpl/Io/Descriptor.h</text>
</a>
</g>
</g>
<!-- Node4&#45;&gt;Node5 -->
<g id="edge4_Node000004_Node000005" class="edge">
<title>Node4&#45;&gt;Node5</title>
<g id="a_edge4_Node000004_Node000005"><a xlink:title=" ">
<path fill="none" stroke="#63b8ff" d="M149.52,-109.98C131.02,-101.46 102.32,-88.23 81.02,-78.41"/>
<polygon fill="#63b8ff" stroke="#63b8ff" points="82.36,-75.18 71.81,-74.17 79.43,-81.53 82.36,-75.18"/>
</a>
</g>
</g>
<!-- Node6 -->
<g id="Node000006" class="node">
<title>Node6</title>
<g id="a_Node000006"><a xlink:href="_runnable_8h.html" target="_top" xlink:title=" ">
<polygon fill="white" stroke="#666666" points="254,-74 124,-74 124,-55 254,-55 254,-74"/>
<text text-anchor="middle" x="189" y="-62" font-family="Helvetica,sans-Serif" font-size="10.00">Cpl/System/Runnable.h</text>
</a>
</g>
</g>
<!-- Node4&#45;&gt;Node6 -->
<g id="edge5_Node000004_Node000006" class="edge">
<title>Node4&#45;&gt;Node6</title>
<g id="a_edge5_Node000004_Node000006"><a xlink:title=" ">
<path fill="none" stroke="#63b8ff" d="M171.47,-109.75C174.28,-102.65 178.34,-92.4 181.85,-83.56"/>
<polygon fill="#63b8ff" stroke="#63b8ff" points="185.17,-84.68 185.6,-74.09 178.66,-82.1 185.17,-84.68"/>
</a>
</g>
</g>
<!-- Node7&#45;&gt;Node6 -->
<g id="edge8_Node000007_Node000006" class="edge">
<title>Node7&#45;&gt;Node6</title>
<g id="a_edge8_Node000007_Node000006"><a xlink:title=" ">
<path fill="none" stroke="#63b8ff" d="M403.03,-109.98C358.74,-100.78 288.06,-86.09 240.15,-76.13"/>
<polygon fill="#63b8ff" stroke="#63b8ff" points="240.79,-72.69 230.29,-74.08 239.37,-79.54 240.79,-72.69"/>
</a>
</g>
</g>
<!-- Node8 -->
<g id="Node000008" class="node">
<title>Node8</title>
<g id="a_Node000008"><a xlink:title=" ">
<polygon fill="#e0e0e0" stroke="#999999" points="357.5,-74 272.5,-74 272.5,-55 357.5,-55 357.5,-74"/>
<text text-anchor="middle" x="315" y="-62" font-family="Helvetica,sans-Serif" font-size="10.00">colony_map.h</text>
</a>
</g>
</g>
<!-- Node7&#45;&gt;Node8 -->
<g id="edge7_Node000007_Node000008" class="edge">
<title>Node7&#45;&gt;Node8</title>
<g id="a_edge7_Node000007_Node000008"><a xlink:title=" ">
<path fill="none" stroke="#63b8ff" d="M423.27,-109.98C402.24,-101.34 369.45,-87.87 345.46,-78.02"/>
<polygon fill="#63b8ff" stroke="#63b8ff" points="346.68,-74.73 336.1,-74.17 344.02,-81.21 346.68,-74.73"/>
</a>
</g>
</g>
<!-- Node9 -->
<g id="Node000009" class="node">
<title>Node9</title>
<g id="a_Node000009"><a xlink:href="_signable_8h.html" target="_top" xlink:title=" ">
<polygon fill="white" stroke="#666666" points="502,-74 376,-74 376,-55 502,-55 502,-74"/>
<text text-anchor="middle" x="439" y="-62" font-family="Helvetica,sans-Serif" font-size="10.00">Cpl/System/Signable.h</text>
</a>
</g>
</g>
<!-- Node7&#45;&gt;Node9 -->
<g id="edge9_Node000007_Node000009" class="edge">
<title>Node7&#45;&gt;Node9</title>
<g id="a_edge9_Node000007_Node000009"><a xlink:title=" ">
<path fill="none" stroke="#63b8ff" d="M443.17,-109.75C442.52,-102.8 441.58,-92.85 440.76,-84.13"/>
<polygon fill="#63b8ff" stroke="#63b8ff" points="444.23,-83.72 439.81,-74.09 437.27,-84.37 444.23,-83.72"/>
</a>
</g>
</g>
<!-- Node11 -->
<g id="Node000011" class="node">
<title>Node11</title>
<g id="a_Node000011"><a xlink:href="_traverser_8h.html" target="_top" xlink:title=" ">
<polygon fill="white" stroke="#666666" points="634,-74 520,-74 520,-55 634,-55 634,-74"/>
<text text-anchor="middle" x="577" y="-62" font-family="Helvetica,sans-Serif" font-size="10.00">Cpl/Type/Traverser.h</text>
</a>
</g>
</g>
<!-- Node7&#45;&gt;Node11 -->
<g id="edge11_Node000007_Node000011" class="edge">
<title>Node7&#45;&gt;Node11</title>
<g id="a_edge11_Node000007_Node000011"><a xlink:title=" ">
<path fill="none" stroke="#63b8ff" d="M465.37,-109.98C487.15,-101.3 521.16,-87.75 545.92,-77.88"/>
<polygon fill="#63b8ff" stroke="#63b8ff" points="547.25,-81.12 555.24,-74.17 544.66,-74.62 547.25,-81.12"/>
</a>
</g>
</g>
<!-- Node12 -->
<g id="Node000012" class="node">
<title>Node12</title>
<g id="a_Node000012"><a xlink:title=" ">
<polygon fill="#e0e0e0" stroke="#999999" points="705.5,-74 652.5,-74 652.5,-55 705.5,-55 705.5,-74"/>
<text text-anchor="middle" x="679" y="-62" font-family="Helvetica,sans-Serif" font-size="10.00">stdlib.h</text>
</a>
</g>
</g>
<!-- Node7&#45;&gt;Node12 -->
<g id="edge12_Node000007_Node000012" class="edge">
<title>Node7&#45;&gt;Node12</title>
<g id="a_edge12_Node000007_Node000012"><a xlink:title=" ">
<path fill="none" stroke="#63b8ff" d="M482.93,-109.94C521.03,-101.53 580.97,-88.21 642.4,-74.12"/>
<polygon fill="#63b8ff" stroke="#63b8ff" points="643.31,-77.5 652.27,-71.85 641.74,-70.68 643.31,-77.5"/>
</a>
</g>
</g>
<!-- Node10 -->
<g id="Node000010" class="node">
<title>Node10</title>
<g id="a_Node000010"><a xlink:href="_item_8h.html" target="_top" xlink:title=" ">
<polygon fill="white" stroke="#666666" points="497.5,-19 380.5,-19 380.5,0 497.5,0 497.5,-19"/>
<text text-anchor="middle" x="439" y="-7" font-family="Helvetica,sans-Serif" font-size="10.00">Cpl/Container/Item.h</text>
</a>
</g>
</g>
<!-- Node9&#45;&gt;Node10 -->
<g id="edge10_Node000009_Node000010" class="edge">
<title>Node9&#45;&gt;Node10</title>
<g id="a_edge10_Node000009_Node000010"><a xlink:title=" ">
<path fill="none" stroke="#63b8ff" d="M439,-54.75C439,-47.8 439,-37.85 439,-29.13"/>
<polygon fill="#63b8ff" stroke="#63b8ff" points="442.5,-29.09 439,-19.09 435.5,-29.09 442.5,-29.09"/>
</a>
</g>
</g>
<!-- Node13&#45;&gt;Node8 -->
<g id="edge14_Node000013_Node000008" class="edge">
<title>Node13&#45;&gt;Node8</title>
<g id="a_edge14_Node000013_Node000008"><a xlink:title=" ">
<path fill="none" stroke="#63b8ff" d="M309.99,-109.75C310.78,-102.8 311.9,-92.85 312.89,-84.13"/>
<polygon fill="#63b8ff" stroke="#63b8ff" points="316.38,-84.42 314.03,-74.09 309.42,-83.63 316.38,-84.42"/>
</a>
</g>
</g>
</g>
</svg>
