<?xml version="1.0" encoding="UTF-8" standalone="no"?>
<!DOCTYPE svg PUBLIC "-//W3C//DTD SVG 1.1//EN"
 "http://www.w3.org/Graphics/SVG/1.1/DTD/svg11.dtd">
<!-- Generated by graphviz version 2.43.0 (0)
 -->
<!-- Title: Driver/DIO/Pwm.h Pages: 1 -->
<svg width="204pt" height="82pt"
 viewBox="0.00 0.00 203.50 82.00" xmlns="http://www.w3.org/2000/svg" xmlns:xlink="http://www.w3.org/1999/xlink">
<g id="graph0" class="graph" transform="scale(1 1) rotate(0) translate(4 78)">
<title>Driver/DIO/Pwm.h</title>
<!-- Node1 -->
<g id="Node000001" class="node">
<title>Node1</title>
<g id="a_Node000001"><a xlink:title=" ">
<polygon fill="#999999" stroke="#666666" points="147.5,-74 43.5,-74 43.5,-55 147.5,-55 147.5,-74"/>
<text text-anchor="middle" x="95.5" y="-62" font-family="Helvetica,sans-Serif" font-size="10.00">Driver/DIO/Pwm.h</text>
</a>
</g>
</g>
<!-- Node2 -->
<g id="Node000002" class="node">
<title>Node2</title>
<g id="a_Node000002"><a xlink:title=" ">
<polygon fill="#e0e0e0" stroke="#999999" points="85,-19 0,-19 0,0 85,0 85,-19"/>
<text text-anchor="middle" x="42.5" y="-7" font-family="Helvetica,sans-Serif" font-size="10.00">colony_map.h</text>
</a>
</g>
</g>
<!-- Node1&#45;&gt;Node2 -->
<g id="edge1_Node000001_Node000002" class="edge">
<title>Node1&#45;&gt;Node2</title>
<g id="a_edge1_Node000001_Node000002"><a xlink:title=" ">
<path fill="none" stroke="#63b8ff" d="M86.75,-54.75C79.03,-47.03 67.6,-35.6 58.28,-26.28"/>
<polygon fill="#63b8ff" stroke="#63b8ff" points="60.64,-23.69 51.09,-19.09 55.69,-28.64 60.64,-23.69"/>
</a>
</g>
</g>
<!-- Node3 -->
<g id="Node000003" class="node">
<title>Node3</title>
<g id="a_Node000003"><a xlink:title=" ">
<polygon fill="#e0e0e0" stroke="#999999" points="195.5,-19 103.5,-19 103.5,0 195.5,0 195.5,-19"/>
<text text-anchor="middle" x="149.5" y="-7" font-family="Helvetica,sans-Serif" font-size="10.00">colony_config.h</text>
</a>
</g>
</g>
<!-- Node1&#45;&gt;Node3 -->
<g id="edge2_Node000001_Node000003" class="edge">
<title>Node1&#45;&gt;Node3</title>
<g id="a_edge2_Node000001_Node000003"><a xlink:title=" ">
<path fill="none" stroke="#63b8ff" d="M104.42,-54.75C112.28,-47.03 123.93,-35.6 133.42,-26.28"/>
<polygon fill="#63b8ff" stroke="#63b8ff" points="136.06,-28.59 140.75,-19.09 131.16,-23.6 136.06,-28.59"/>
</a>
</g>
</g>
</g>
</svg>
