<?xml version="1.0" encoding="UTF-8" standalone="no"?>
<!DOCTYPE svg PUBLIC "-//W3C//DTD SVG 1.1//EN"
 "http://www.w3.org/Graphics/SVG/1.1/DTD/svg11.dtd">
<!-- Generated by graphviz version 2.43.0 (0)
 -->
<!-- Title: Cpl/Math/RealExpressionParser.h Pages: 1 -->
<svg width="1263pt" height="357pt"
 viewBox="0.00 0.00 1262.50 357.00" xmlns="http://www.w3.org/2000/svg" xmlns:xlink="http://www.w3.org/1999/xlink">
<g id="graph0" class="graph" transform="scale(1 1) rotate(0) translate(4 353)">
<title>Cpl/Math/RealExpressionParser.h</title>
<!-- Node1 -->
<g id="Node000001" class="node">
<title>Node1</title>
<g id="a_Node000001"><a xlink:title="This file contains a collection of methods that parses a null terminated string that contains an arit...">
<polygon fill="#999999" stroke="#666666" points="1104,-349 928,-349 928,-330 1104,-330 1104,-349"/>
<text text-anchor="middle" x="1016" y="-337" font-family="Helvetica,sans-Serif" font-size="10.00">Cpl/Math/RealExpressionParser.h</text>
</a>
</g>
</g>
<!-- Node2 -->
<g id="Node000002" class="node">
<title>Node2</title>
<g id="a_Node000002"><a xlink:title=" ">
<polygon fill="#e0e0e0" stroke="#999999" points="1000,-19 908,-19 908,0 1000,0 1000,-19"/>
<text text-anchor="middle" x="954" y="-7" font-family="Helvetica,sans-Serif" font-size="10.00">colony_config.h</text>
</a>
</g>
</g>
<!-- Node1&#45;&gt;Node2 -->
<g id="edge1_Node000001_Node000002" class="edge">
<title>Node1&#45;&gt;Node2</title>
<g id="a_edge1_Node000001_Node000002"><a xlink:title=" ">
<path fill="none" stroke="#63b8ff" d="M1055.71,-329.9C1102.81,-317.09 1175,-288.06 1175,-230.5 1175,-230.5 1175,-230.5 1175,-118.5 1175,-45.23 1075.73,-21.66 1010.26,-14.08"/>
<polygon fill="#63b8ff" stroke="#63b8ff" points="1010.37,-10.58 1000.06,-13 1009.63,-17.54 1010.37,-10.58"/>
</a>
</g>
</g>
<!-- Node3 -->
<g id="Node000003" class="node">
<title>Node3</title>
<g id="a_Node000003"><a xlink:href="_stack_8h.html" target="_top" xlink:title=" ">
<polygon fill="white" stroke="#666666" points="1015,-294 893,-294 893,-275 1015,-275 1015,-294"/>
<text text-anchor="middle" x="954" y="-282" font-family="Helvetica,sans-Serif" font-size="10.00">Cpl/Container/Stack.h</text>
</a>
</g>
</g>
<!-- Node1&#45;&gt;Node3 -->
<g id="edge2_Node000001_Node000003" class="edge">
<title>Node1&#45;&gt;Node3</title>
<g id="a_edge2_Node000001_Node000003"><a xlink:title=" ">
<path fill="none" stroke="#63b8ff" d="M1006.04,-329.98C996.87,-322.15 983.06,-310.34 971.97,-300.86"/>
<polygon fill="#63b8ff" stroke="#63b8ff" points="974.02,-298.01 964.14,-294.17 969.47,-303.33 974.02,-298.01"/>
</a>
</g>
</g>
<!-- Node5 -->
<g id="Node000005" class="node">
<title>Node5</title>
<g id="a_Node000005"><a xlink:href="_system_2_trace_8h.html" target="_top" xlink:title=" ">
<polygon fill="white" stroke="#666666" points="875,-294 765,-294 765,-275 875,-275 875,-294"/>
<text text-anchor="middle" x="820" y="-282" font-family="Helvetica,sans-Serif" font-size="10.00">Cpl/System/Trace.h</text>
</a>
</g>
</g>
<!-- Node1&#45;&gt;Node5 -->
<g id="edge4_Node000001_Node000005" class="edge">
<title>Node1&#45;&gt;Node5</title>
<g id="a_edge4_Node000001_Node000005"><a xlink:title=" ">
<path fill="none" stroke="#63b8ff" d="M984.51,-329.98C951.18,-320.97 898.4,-306.7 861.65,-296.76"/>
<polygon fill="#63b8ff" stroke="#63b8ff" points="862.3,-293.31 851.74,-294.08 860.48,-300.07 862.3,-293.31"/>
</a>
</g>
</g>
<!-- Node19 -->
<g id="Node000019" class="node">
<title>Node19</title>
<g id="a_Node000019"><a xlink:title=" ">
<polygon fill="#e0e0e0" stroke="#999999" points="515.5,-184 462.5,-184 462.5,-165 515.5,-165 515.5,-184"/>
<text text-anchor="middle" x="489" y="-172" font-family="Helvetica,sans-Serif" font-size="10.00">stdlib.h</text>
</a>
</g>
</g>
<!-- Node1&#45;&gt;Node19 -->
<g id="edge34_Node000001_Node000019" class="edge">
<title>Node1&#45;&gt;Node19</title>
<g id="a_edge34_Node000001_Node000019"><a xlink:title=" ">
<path fill="none" stroke="#63b8ff" d="M935.74,-329.99C883.73,-323.2 814.96,-311.83 756,-294 663.09,-265.91 559.87,-213.59 513.69,-188.97"/>
<polygon fill="#63b8ff" stroke="#63b8ff" points="515.19,-185.8 504.72,-184.15 511.87,-191.97 515.19,-185.8"/>
</a>
</g>
</g>
<!-- Node23 -->
<g id="Node000023" class="node">
<title>Node23</title>
<g id="a_Node000023"><a xlink:href="real_8h.html" target="_top" xlink:title="This file contains a collection of methods comparing, manipulating, etc.">
<polygon fill="white" stroke="#666666" points="1124.5,-294 1033.5,-294 1033.5,-275 1124.5,-275 1124.5,-294"/>
<text text-anchor="middle" x="1079" y="-282" font-family="Helvetica,sans-Serif" font-size="10.00">Cpl/Math/real.h</text>
</a>
</g>
</g>
<!-- Node1&#45;&gt;Node23 -->
<g id="edge30_Node000001_Node000023" class="edge">
<title>Node1&#45;&gt;Node23</title>
<g id="a_edge30_Node000001_Node000023"><a xlink:title=" ">
<path fill="none" stroke="#63b8ff" d="M1026.12,-329.98C1035.44,-322.15 1049.47,-310.34 1060.74,-300.86"/>
<polygon fill="#63b8ff" stroke="#63b8ff" points="1063.29,-303.29 1068.69,-294.17 1058.79,-297.93 1063.29,-303.29"/>
</a>
</g>
</g>
<!-- Node26 -->
<g id="Node000026" class="node">
<title>Node26</title>
<g id="a_Node000026"><a xlink:title=" ">
<polygon fill="#e0e0e0" stroke="#999999" points="1254.5,-294 1203.5,-294 1203.5,-275 1254.5,-275 1254.5,-294"/>
<text text-anchor="middle" x="1229" y="-282" font-family="Helvetica,sans-Serif" font-size="10.00">math.h</text>
</a>
</g>
</g>
<!-- Node1&#45;&gt;Node26 -->
<g id="edge35_Node000001_Node000026" class="edge">
<title>Node1&#45;&gt;Node26</title>
<g id="a_edge35_Node000001_Node000026"><a xlink:title=" ">
<path fill="none" stroke="#63b8ff" d="M1050.22,-329.98C1089.49,-320.21 1153.59,-304.27 1193.42,-294.35"/>
<polygon fill="#63b8ff" stroke="#63b8ff" points="1194.38,-297.72 1203.24,-291.91 1192.69,-290.93 1194.38,-297.72"/>
</a>
</g>
</g>
<!-- Node4 -->
<g id="Node000004" class="node">
<title>Node4</title>
<g id="a_Node000004"><a xlink:title=" ">
<polygon fill="#e0e0e0" stroke="#999999" points="980.5,-74 927.5,-74 927.5,-55 980.5,-55 980.5,-74"/>
<text text-anchor="middle" x="954" y="-62" font-family="Helvetica,sans-Serif" font-size="10.00">stdint.h</text>
</a>
</g>
</g>
<!-- Node3&#45;&gt;Node4 -->
<g id="edge3_Node000003_Node000004" class="edge">
<title>Node3&#45;&gt;Node4</title>
<g id="a_edge3_Node000003_Node000004"><a xlink:title=" ">
<path fill="none" stroke="#63b8ff" d="M954,-274.95C954,-242.95 954,-129.68 954,-84.4"/>
<polygon fill="#63b8ff" stroke="#63b8ff" points="957.5,-84.22 954,-74.22 950.5,-84.22 957.5,-84.22"/>
</a>
</g>
</g>
<!-- Node5&#45;&gt;Node2 -->
<g id="edge5_Node000005_Node000002" class="edge">
<title>Node5&#45;&gt;Node2</title>
<g id="a_edge5_Node000005_Node000002"><a xlink:title=" ">
<path fill="none" stroke="#63b8ff" d="M832.34,-274.99C854.56,-258.55 899,-220.1 899,-175.5 899,-175.5 899,-175.5 899,-118.5 899,-89.04 904.25,-81.05 918,-55 923.37,-44.82 931.24,-34.75 938.26,-26.77"/>
<polygon fill="#63b8ff" stroke="#63b8ff" points="940.94,-29.02 945.12,-19.29 935.78,-24.29 940.94,-29.02"/>
</a>
</g>
</g>
<!-- Node6 -->
<g id="Node000006" class="node">
<title>Node6</title>
<g id="a_Node000006"><a xlink:href="_text_2_string_8h.html" target="_top" xlink:title=" ">
<polygon fill="white" stroke="#666666" points="870,-184 774,-184 774,-165 870,-165 870,-184"/>
<text text-anchor="middle" x="822" y="-172" font-family="Helvetica,sans-Serif" font-size="10.00">Cpl/Text/String.h</text>
</a>
</g>
</g>
<!-- Node5&#45;&gt;Node6 -->
<g id="edge6_Node000005_Node000006" class="edge">
<title>Node5&#45;&gt;Node6</title>
<g id="a_edge6_Node000005_Node000006"><a xlink:title=" ">
<path fill="none" stroke="#63b8ff" d="M820.16,-274.66C820.49,-257.17 821.22,-217.8 821.65,-194.27"/>
<polygon fill="#63b8ff" stroke="#63b8ff" points="825.15,-194.22 821.84,-184.16 818.16,-194.09 825.15,-194.22"/>
</a>
</g>
</g>
<!-- Node14 -->
<g id="Node000014" class="node">
<title>Node14</title>
<g id="a_Node000014"><a xlink:href="_thread_8h.html" target="_top" xlink:title=" ">
<polygon fill="white" stroke="#666666" points="395,-239 277,-239 277,-220 395,-220 395,-239"/>
<text text-anchor="middle" x="336" y="-227" font-family="Helvetica,sans-Serif" font-size="10.00">Cpl/System/Thread.h</text>
</a>
</g>
</g>
<!-- Node5&#45;&gt;Node14 -->
<g id="edge17_Node000005_Node000014" class="edge">
<title>Node5&#45;&gt;Node14</title>
<g id="a_edge17_Node000005_Node000014"><a xlink:title=" ">
<path fill="none" stroke="#63b8ff" d="M764.95,-277.47C676.29,-267.76 502.03,-248.68 405.13,-238.07"/>
<polygon fill="#63b8ff" stroke="#63b8ff" points="405.47,-234.59 395.14,-236.98 404.7,-241.54 405.47,-234.59"/>
</a>
</g>
</g>
<!-- Node20 -->
<g id="Node000020" class="node">
<title>Node20</title>
<g id="a_Node000020"><a xlink:href="_output_8h.html" target="_top" xlink:title=" ">
<polygon fill="white" stroke="#666666" points="790.5,-239 701.5,-239 701.5,-220 790.5,-220 790.5,-239"/>
<text text-anchor="middle" x="746" y="-227" font-family="Helvetica,sans-Serif" font-size="10.00">Cpl/Io/Output.h</text>
</a>
</g>
</g>
<!-- Node5&#45;&gt;Node20 -->
<g id="edge24_Node000005_Node000020" class="edge">
<title>Node5&#45;&gt;Node20</title>
<g id="a_edge24_Node000005_Node000020"><a xlink:title=" ">
<path fill="none" stroke="#63b8ff" d="M808.11,-274.98C796.85,-266.92 779.71,-254.65 766.29,-245.03"/>
<polygon fill="#63b8ff" stroke="#63b8ff" points="768.27,-242.15 758.11,-239.17 764.2,-247.84 768.27,-242.15"/>
</a>
</g>
</g>
<!-- Node7 -->
<g id="Node000007" class="node">
<title>Node7</title>
<g id="a_Node000007"><a xlink:title=" ">
<polygon fill="#e0e0e0" stroke="#999999" points="650.5,-74 565.5,-74 565.5,-55 650.5,-55 650.5,-74"/>
<text text-anchor="middle" x="608" y="-62" font-family="Helvetica,sans-Serif" font-size="10.00">colony_map.h</text>
</a>
</g>
</g>
<!-- Node6&#45;&gt;Node7 -->
<g id="edge7_Node000006_Node000007" class="edge">
<title>Node6&#45;&gt;Node7</title>
<g id="a_edge7_Node000006_Node000007"><a xlink:title=" ">
<path fill="none" stroke="#63b8ff" d="M773.95,-165.53C743.24,-158.96 703.43,-147.62 672,-129 651.48,-116.84 632.72,-96.66 620.88,-82.31"/>
<polygon fill="#63b8ff" stroke="#63b8ff" points="623.43,-79.9 614.46,-74.26 617.96,-84.26 623.43,-79.9"/>
</a>
</g>
</g>
<!-- Node8 -->
<g id="Node000008" class="node">
<title>Node8</title>
<g id="a_Node000008"><a xlink:href="_key_8h.html" target="_top" xlink:title=" ">
<polygon fill="white" stroke="#666666" points="792.5,-129 681.5,-129 681.5,-110 792.5,-110 792.5,-129"/>
<text text-anchor="middle" x="737" y="-117" font-family="Helvetica,sans-Serif" font-size="10.00">Cpl/Container/Key.h</text>
</a>
</g>
</g>
<!-- Node6&#45;&gt;Node8 -->
<g id="edge8_Node000006_Node000008" class="edge">
<title>Node6&#45;&gt;Node8</title>
<g id="a_edge8_Node000006_Node000008"><a xlink:title=" ">
<path fill="none" stroke="#63b8ff" d="M808.34,-164.98C795.16,-156.77 774.97,-144.18 759.43,-134.49"/>
<polygon fill="#63b8ff" stroke="#63b8ff" points="761.24,-131.49 750.91,-129.17 757.54,-137.43 761.24,-131.49"/>
</a>
</g>
</g>
<!-- Node12 -->
<g id="Node000012" class="node">
<title>Node12</title>
<g id="a_Node000012"><a xlink:title=" ">
<polygon fill="#e0e0e0" stroke="#999999" points="625,-129 569,-129 569,-110 625,-110 625,-129"/>
<text text-anchor="middle" x="597" y="-117" font-family="Helvetica,sans-Serif" font-size="10.00">stdarg.h</text>
</a>
</g>
</g>
<!-- Node6&#45;&gt;Node12 -->
<g id="edge15_Node000006_Node000012" class="edge">
<title>Node6&#45;&gt;Node12</title>
<g id="a_edge15_Node000006_Node000012"><a xlink:title=" ">
<path fill="none" stroke="#63b8ff" d="M785.85,-164.98C744.54,-155.25 677.21,-139.39 635.1,-129.47"/>
<polygon fill="#63b8ff" stroke="#63b8ff" points="635.76,-126.03 625.23,-127.15 634.16,-132.85 635.76,-126.03"/>
</a>
</g>
</g>
<!-- Node13 -->
<g id="Node000013" class="node">
<title>Node13</title>
<g id="a_Node000013"><a xlink:title=" ">
<polygon fill="#e0e0e0" stroke="#999999" points="871,-129 811,-129 811,-110 871,-110 871,-129"/>
<text text-anchor="middle" x="841" y="-117" font-family="Helvetica,sans-Serif" font-size="10.00">iostream</text>
</a>
</g>
</g>
<!-- Node6&#45;&gt;Node13 -->
<g id="edge16_Node000006_Node000013" class="edge">
<title>Node6&#45;&gt;Node13</title>
<g id="a_edge16_Node000006_Node000013"><a xlink:title=" ">
<path fill="none" stroke="#63b8ff" d="M825.14,-164.75C827.68,-157.65 831.36,-147.4 834.53,-138.56"/>
<polygon fill="#63b8ff" stroke="#63b8ff" points="837.84,-139.68 837.92,-129.09 831.25,-137.32 837.84,-139.68"/>
</a>
</g>
</g>
<!-- Node8&#45;&gt;Node4 -->
<g id="edge12_Node000008_Node000004" class="edge">
<title>Node8&#45;&gt;Node4</title>
<g id="a_edge12_Node000008_Node000004"><a xlink:title=" ">
<path fill="none" stroke="#63b8ff" d="M771.86,-109.98C811.85,-100.22 877.09,-84.29 917.67,-74.37"/>
<polygon fill="#63b8ff" stroke="#63b8ff" points="918.54,-77.76 927.43,-71.99 916.88,-70.96 918.54,-77.76"/>
</a>
</g>
</g>
<!-- Node8&#45;&gt;Node7 -->
<g id="edge14_Node000008_Node000007" class="edge">
<title>Node8&#45;&gt;Node7</title>
<g id="a_edge14_Node000008_Node000007"><a xlink:title=" ">
<path fill="none" stroke="#63b8ff" d="M716.27,-109.98C695.24,-101.34 662.45,-87.87 638.46,-78.02"/>
<polygon fill="#63b8ff" stroke="#63b8ff" points="639.68,-74.73 629.1,-74.17 637.02,-81.21 639.68,-74.73"/>
</a>
</g>
</g>
<!-- Node9 -->
<g id="Node000009" class="node">
<title>Node9</title>
<g id="a_Node000009"><a xlink:href="_fatal_error_8h.html" target="_top" xlink:title=" ">
<polygon fill="white" stroke="#666666" points="799,-74 669,-74 669,-55 799,-55 799,-74"/>
<text text-anchor="middle" x="734" y="-62" font-family="Helvetica,sans-Serif" font-size="10.00">Cpl/System/FatalError.h</text>
</a>
</g>
</g>
<!-- Node8&#45;&gt;Node9 -->
<g id="edge9_Node000008_Node000009" class="edge">
<title>Node8&#45;&gt;Node9</title>
<g id="a_edge9_Node000008_Node000009"><a xlink:title=" ">
<path fill="none" stroke="#63b8ff" d="M736.5,-109.75C736.11,-102.8 735.55,-92.85 735.05,-84.13"/>
<polygon fill="#63b8ff" stroke="#63b8ff" points="738.55,-83.88 734.49,-74.09 731.56,-84.27 738.55,-83.88"/>
</a>
</g>
</g>
<!-- Node11 -->
<g id="Node000011" class="node">
<title>Node11</title>
<g id="a_Node000011"><a xlink:title=" ">
<polygon fill="#e0e0e0" stroke="#999999" points="870.5,-74 817.5,-74 817.5,-55 870.5,-55 870.5,-74"/>
<text text-anchor="middle" x="844" y="-62" font-family="Helvetica,sans-Serif" font-size="10.00">string.h</text>
</a>
</g>
</g>
<!-- Node8&#45;&gt;Node11 -->
<g id="edge13_Node000008_Node000011" class="edge">
<title>Node8&#45;&gt;Node11</title>
<g id="a_edge13_Node000008_Node000011"><a xlink:title=" ">
<path fill="none" stroke="#63b8ff" d="M754.19,-109.98C771.25,-101.54 797.63,-88.47 817.4,-78.68"/>
<polygon fill="#63b8ff" stroke="#63b8ff" points="819.09,-81.75 826.5,-74.17 815.98,-75.47 819.09,-81.75"/>
</a>
</g>
</g>
<!-- Node9&#45;&gt;Node2 -->
<g id="edge11_Node000009_Node000002" class="edge">
<title>Node9&#45;&gt;Node2</title>
<g id="a_edge11_Node000009_Node000002"><a xlink:title=" ">
<path fill="none" stroke="#63b8ff" d="M769.35,-54.98C807.16,-45.87 867.26,-31.4 908.57,-21.45"/>
<polygon fill="#63b8ff" stroke="#63b8ff" points="909.47,-24.83 918.38,-19.08 907.83,-18.02 909.47,-24.83"/>
</a>
</g>
</g>
<!-- Node10 -->
<g id="Node000010" class="node">
<title>Node10</title>
<g id="a_Node000010"><a xlink:title=" ">
<polygon fill="#e0e0e0" stroke="#999999" points="762,-19 706,-19 706,0 762,0 762,-19"/>
<text text-anchor="middle" x="734" y="-7" font-family="Helvetica,sans-Serif" font-size="10.00">stddef.h</text>
</a>
</g>
</g>
<!-- Node9&#45;&gt;Node10 -->
<g id="edge10_Node000009_Node000010" class="edge">
<title>Node9&#45;&gt;Node10</title>
<g id="a_edge10_Node000009_Node000010"><a xlink:title=" ">
<path fill="none" stroke="#63b8ff" d="M734,-54.75C734,-47.8 734,-37.85 734,-29.13"/>
<polygon fill="#63b8ff" stroke="#63b8ff" points="737.5,-29.09 734,-19.09 730.5,-29.09 737.5,-29.09"/>
</a>
</g>
</g>
<!-- Node14&#45;&gt;Node7 -->
<g id="edge18_Node000014_Node000007" class="edge">
<title>Node14&#45;&gt;Node7</title>
<g id="a_edge18_Node000014_Node000007"><a xlink:title=" ">
<path fill="none" stroke="#63b8ff" d="M327.62,-219.84C316.82,-207.59 300.41,-184.52 309,-165 323.57,-131.89 336.63,-126.16 369,-110 428.35,-80.37 504.91,-70.35 555.18,-67.03"/>
<polygon fill="#63b8ff" stroke="#63b8ff" points="555.41,-70.52 565.18,-66.43 554.99,-63.53 555.41,-70.52"/>
</a>
</g>
</g>
<!-- Node15 -->
<g id="Node000015" class="node">
<title>Node15</title>
<g id="a_Node000015"><a xlink:href="_runnable_8h.html" target="_top" xlink:title=" ">
<polygon fill="white" stroke="#666666" points="262,-184 132,-184 132,-165 262,-165 262,-184"/>
<text text-anchor="middle" x="197" y="-172" font-family="Helvetica,sans-Serif" font-size="10.00">Cpl/System/Runnable.h</text>
</a>
</g>
</g>
<!-- Node14&#45;&gt;Node15 -->
<g id="edge19_Node000014_Node000015" class="edge">
<title>Node14&#45;&gt;Node15</title>
<g id="a_edge19_Node000014_Node000015"><a xlink:title=" ">
<path fill="none" stroke="#63b8ff" d="M313.67,-219.98C290.8,-211.27 255.04,-197.63 229.14,-187.75"/>
<polygon fill="#63b8ff" stroke="#63b8ff" points="230.33,-184.46 219.74,-184.17 227.84,-191 230.33,-184.46"/>
</a>
</g>
</g>
<!-- Node16 -->
<g id="Node000016" class="node">
<title>Node16</title>
<g id="a_Node000016"><a xlink:href="_signable_8h.html" target="_top" xlink:title=" ">
<polygon fill="white" stroke="#666666" points="444,-184 318,-184 318,-165 444,-165 444,-184"/>
<text text-anchor="middle" x="381" y="-172" font-family="Helvetica,sans-Serif" font-size="10.00">Cpl/System/Signable.h</text>
</a>
</g>
</g>
<!-- Node14&#45;&gt;Node16 -->
<g id="edge20_Node000014_Node000016" class="edge">
<title>Node14&#45;&gt;Node16</title>
<g id="a_edge20_Node000014_Node000016"><a xlink:title=" ">
<path fill="none" stroke="#63b8ff" d="M343.43,-219.75C349.85,-212.18 359.31,-201.05 367.12,-191.84"/>
<polygon fill="#63b8ff" stroke="#63b8ff" points="369.9,-193.98 373.71,-184.09 364.57,-189.45 369.9,-193.98"/>
</a>
</g>
</g>
<!-- Node18 -->
<g id="Node000018" class="node">
<title>Node18</title>
<g id="a_Node000018"><a xlink:href="_traverser_8h.html" target="_top" xlink:title=" ">
<polygon fill="white" stroke="#666666" points="114,-184 0,-184 0,-165 114,-165 114,-184"/>
<text text-anchor="middle" x="57" y="-172" font-family="Helvetica,sans-Serif" font-size="10.00">Cpl/Type/Traverser.h</text>
</a>
</g>
</g>
<!-- Node14&#45;&gt;Node18 -->
<g id="edge22_Node000014_Node000018" class="edge">
<title>Node14&#45;&gt;Node18</title>
<g id="a_edge22_Node000014_Node000018"><a xlink:title=" ">
<path fill="none" stroke="#63b8ff" d="M291.17,-219.98C242.51,-210.74 164.74,-195.97 112.31,-186.01"/>
<polygon fill="#63b8ff" stroke="#63b8ff" points="112.66,-182.51 102.18,-184.08 111.35,-189.39 112.66,-182.51"/>
</a>
</g>
</g>
<!-- Node14&#45;&gt;Node19 -->
<g id="edge23_Node000014_Node000019" class="edge">
<title>Node14&#45;&gt;Node19</title>
<g id="a_edge23_Node000014_Node000019"><a xlink:title=" ">
<path fill="none" stroke="#63b8ff" d="M360.58,-219.98C386.05,-211.16 426.04,-197.31 454.63,-187.41"/>
<polygon fill="#63b8ff" stroke="#63b8ff" points="455.92,-190.66 464.23,-184.08 453.63,-184.05 455.92,-190.66"/>
</a>
</g>
</g>
<!-- Node17 -->
<g id="Node000017" class="node">
<title>Node17</title>
<g id="a_Node000017"><a xlink:href="_item_8h.html" target="_top" xlink:title=" ">
<polygon fill="white" stroke="#666666" points="495.5,-129 378.5,-129 378.5,-110 495.5,-110 495.5,-129"/>
<text text-anchor="middle" x="437" y="-117" font-family="Helvetica,sans-Serif" font-size="10.00">Cpl/Container/Item.h</text>
</a>
</g>
</g>
<!-- Node16&#45;&gt;Node17 -->
<g id="edge21_Node000016_Node000017" class="edge">
<title>Node16&#45;&gt;Node17</title>
<g id="a_edge21_Node000016_Node000017"><a xlink:title=" ">
<path fill="none" stroke="#63b8ff" d="M390,-164.98C398.19,-157.23 410.51,-145.58 420.47,-136.14"/>
<polygon fill="#63b8ff" stroke="#63b8ff" points="422.98,-138.59 427.84,-129.17 418.17,-133.5 422.98,-138.59"/>
</a>
</g>
</g>
<!-- Node20&#45;&gt;Node6 -->
<g id="edge25_Node000020_Node000006" class="edge">
<title>Node20&#45;&gt;Node6</title>
<g id="a_edge25_Node000020_Node000006"><a xlink:title=" ">
<path fill="none" stroke="#63b8ff" d="M758.21,-219.98C769.78,-211.92 787.38,-199.65 801.16,-190.03"/>
<polygon fill="#63b8ff" stroke="#63b8ff" points="803.37,-192.76 809.57,-184.17 799.36,-187.02 803.37,-192.76"/>
</a>
</g>
</g>
<!-- Node20&#45;&gt;Node12 -->
<g id="edge29_Node000020_Node000012" class="edge">
<title>Node20&#45;&gt;Node12</title>
<g id="a_edge29_Node000020_Node000012"><a xlink:title=" ">
<path fill="none" stroke="#63b8ff" d="M745.66,-219.87C744.68,-206.38 740.83,-180.24 726,-165 713.16,-151.81 668.36,-138.23 635.14,-129.6"/>
<polygon fill="#63b8ff" stroke="#63b8ff" points="635.81,-126.16 625.25,-127.09 634.08,-132.94 635.81,-126.16"/>
</a>
</g>
</g>
<!-- Node21 -->
<g id="Node000021" class="node">
<title>Node21</title>
<g id="a_Node000021"><a xlink:href="_close_8h.html" target="_top" xlink:title=" ">
<polygon fill="white" stroke="#666666" points="717.5,-184 634.5,-184 634.5,-165 717.5,-165 717.5,-184"/>
<text text-anchor="middle" x="676" y="-172" font-family="Helvetica,sans-Serif" font-size="10.00">Cpl/Io/Close.h</text>
</a>
</g>
</g>
<!-- Node20&#45;&gt;Node21 -->
<g id="edge26_Node000020_Node000021" class="edge">
<title>Node20&#45;&gt;Node21</title>
<g id="a_edge26_Node000020_Node000021"><a xlink:title=" ">
<path fill="none" stroke="#63b8ff" d="M734.75,-219.98C724.2,-212 708.2,-199.88 695.56,-190.31"/>
<polygon fill="#63b8ff" stroke="#63b8ff" points="697.54,-187.42 687.45,-184.17 693.31,-193 697.54,-187.42"/>
</a>
</g>
</g>
<!-- Node22 -->
<g id="Node000022" class="node">
<title>Node22</title>
<g id="a_Node000022"><a xlink:href="_is_eos_8h.html" target="_top" xlink:title=" ">
<polygon fill="white" stroke="#666666" points="616,-184 534,-184 534,-165 616,-165 616,-184"/>
<text text-anchor="middle" x="575" y="-172" font-family="Helvetica,sans-Serif" font-size="10.00">Cpl/Io/IsEos.h</text>
</a>
</g>
</g>
<!-- Node20&#45;&gt;Node22 -->
<g id="edge28_Node000020_Node000022" class="edge">
<title>Node20&#45;&gt;Node22</title>
<g id="a_edge28_Node000020_Node000022"><a xlink:title=" ">
<path fill="none" stroke="#63b8ff" d="M718.53,-219.98C689.82,-211.09 644.58,-197.07 612.58,-187.15"/>
<polygon fill="#63b8ff" stroke="#63b8ff" points="613.28,-183.7 602.69,-184.08 611.2,-190.39 613.28,-183.7"/>
</a>
</g>
</g>
<!-- Node21&#45;&gt;Node17 -->
<g id="edge27_Node000021_Node000017" class="edge">
<title>Node21&#45;&gt;Node17</title>
<g id="a_edge27_Node000021_Node000017"><a xlink:title=" ">
<path fill="none" stroke="#63b8ff" d="M637.6,-164.98C596.26,-155.82 530.4,-141.21 485.51,-131.26"/>
<polygon fill="#63b8ff" stroke="#63b8ff" points="486.22,-127.83 475.7,-129.08 484.71,-134.66 486.22,-127.83"/>
</a>
</g>
</g>
<!-- Node23&#45;&gt;Node2 -->
<g id="edge31_Node000023_Node000002" class="edge">
<title>Node23&#45;&gt;Node2</title>
<g id="a_edge31_Node000023_Node000002"><a xlink:title=" ">
<path fill="none" stroke="#63b8ff" d="M1065.38,-274.87C1053.84,-266.89 1037.67,-254.02 1028,-239 1012.05,-214.23 1009,-204.96 1009,-175.5 1009,-175.5 1009,-175.5 1009,-118.5 1009,-88.91 1002.82,-81.17 989,-55 983.62,-44.81 975.82,-34.62 968.95,-26.56"/>
<polygon fill="#63b8ff" stroke="#63b8ff" points="971.53,-24.19 962.27,-19.03 966.29,-28.84 971.53,-24.19"/>
</a>
</g>
</g>
<!-- Node24 -->
<g id="Node000024" class="node">
<title>Node24</title>
<g id="a_Node000024"><a xlink:title=" ">
<polygon fill="#e0e0e0" stroke="#999999" points="1146.5,-239 1099.5,-239 1099.5,-220 1146.5,-220 1146.5,-239"/>
<text text-anchor="middle" x="1123" y="-227" font-family="Helvetica,sans-Serif" font-size="10.00">cmath</text>
</a>
</g>
</g>
<!-- Node23&#45;&gt;Node24 -->
<g id="edge32_Node000023_Node000024" class="edge">
<title>Node23&#45;&gt;Node24</title>
<g id="a_edge32_Node000023_Node000024"><a xlink:title=" ">
<path fill="none" stroke="#63b8ff" d="M1086.27,-274.75C1092.54,-267.18 1101.79,-256.05 1109.43,-246.84"/>
<polygon fill="#63b8ff" stroke="#63b8ff" points="1112.17,-249.02 1115.87,-239.09 1106.79,-244.55 1112.17,-249.02"/>
</a>
</g>
</g>
<!-- Node25 -->
<g id="Node000025" class="node">
<title>Node25</title>
<g id="a_Node000025"><a xlink:title=" ">
<polygon fill="#e0e0e0" stroke="#999999" points="1081,-239 1037,-239 1037,-220 1081,-220 1081,-239"/>
<text text-anchor="middle" x="1059" y="-227" font-family="Helvetica,sans-Serif" font-size="10.00">cfloat</text>
</a>
</g>
</g>
<!-- Node23&#45;&gt;Node25 -->
<g id="edge33_Node000023_Node000025" class="edge">
<title>Node23&#45;&gt;Node25</title>
<g id="a_edge33_Node000023_Node000025"><a xlink:title=" ">
<path fill="none" stroke="#63b8ff" d="M1075.7,-274.75C1073.02,-267.65 1069.15,-257.4 1065.81,-248.56"/>
<polygon fill="#63b8ff" stroke="#63b8ff" points="1069.05,-247.21 1062.24,-239.09 1062.5,-249.68 1069.05,-247.21"/>
</a>
</g>
</g>
</g>
</svg>
