<?xml version="1.0" encoding="UTF-8" standalone="no"?>
<!DOCTYPE svg PUBLIC "-//W3C//DTD SVG 1.1//EN"
 "http://www.w3.org/Graphics/SVG/1.1/DTD/svg11.dtd">
<!-- Generated by graphviz version 2.43.0 (0)
 -->
<!-- Title: Cpl/Persistent/RegionMedia.h Pages: 1 -->
<svg width="1000pt" height="225pt"
 viewBox="0.00 0.00 999.50 225.00" xmlns="http://www.w3.org/2000/svg" xmlns:xlink="http://www.w3.org/1999/xlink">
<g id="graph0" class="graph" transform="scale(1 1) rotate(0) translate(4 221)">
<title>Cpl/Persistent/RegionMedia.h</title>
<!-- Node1 -->
<g id="Node000001" class="node">
<title>Node1</title>
<g id="a_Node000001"><a xlink:title=" ">
<polygon fill="#999999" stroke="#666666" points="574.5,-217 414.5,-217 414.5,-198 574.5,-198 574.5,-217"/>
<text text-anchor="middle" x="494.5" y="-205" font-family="Helvetica,sans-Serif" font-size="10.00">Cpl/Persistent/RegionMedia.h</text>
</a>
</g>
</g>
<!-- Node2 -->
<g id="Node000002" class="node">
<title>Node2</title>
<g id="a_Node000002"><a xlink:href="_crc_chunk_8h.html" target="_top" xlink:title=" ">
<polygon fill="white" stroke="#666666" points="143,-156.5 0,-156.5 0,-137.5 143,-137.5 143,-156.5"/>
<text text-anchor="middle" x="71.5" y="-144.5" font-family="Helvetica,sans-Serif" font-size="10.00">Cpl/Persistent/CrcChunk.h</text>
</a>
</g>
</g>
<!-- Node1&#45;&gt;Node2 -->
<g id="edge1_Node000001_Node000002" class="edge">
<title>Node1&#45;&gt;Node2</title>
<g id="a_edge1_Node000001_Node000002"><a xlink:title=" ">
<path fill="none" stroke="#63b8ff" d="M412.33,-196.78C342.97,-188.35 241.09,-175.41 152.5,-162 141.64,-160.35 129.98,-158.43 118.99,-156.55"/>
<polygon fill="#63b8ff" stroke="#63b8ff" points="411.97,-200.27 422.32,-198 412.81,-193.32 411.97,-200.27"/>
</a>
</g>
</g>
<!-- Node3 -->
<g id="Node000003" class="node">
<title>Node3</title>
<g id="a_Node000003"><a xlink:href="_file_adapter_8h.html" target="_top" xlink:title=" ">
<polygon fill="white" stroke="#666666" points="312,-156.5 161,-156.5 161,-137.5 312,-137.5 312,-156.5"/>
<text text-anchor="middle" x="236.5" y="-144.5" font-family="Helvetica,sans-Serif" font-size="10.00">Cpl/Persistent/FileAdapter.h</text>
</a>
</g>
</g>
<!-- Node1&#45;&gt;Node3 -->
<g id="edge2_Node000001_Node000003" class="edge">
<title>Node1&#45;&gt;Node3</title>
<g id="a_edge2_Node000001_Node000003"><a xlink:title=" ">
<path fill="none" stroke="#63b8ff" d="M447.1,-195.75C397.25,-184.45 319.84,-166.9 274.06,-156.52"/>
<polygon fill="#63b8ff" stroke="#63b8ff" points="446.46,-199.2 456.98,-197.99 448.01,-192.37 446.46,-199.2"/>
</a>
</g>
</g>
<!-- Node4 -->
<g id="Node000004" class="node">
<title>Node4</title>
<g id="a_Node000004"><a xlink:href="_indexed_entry_record_8h.html" target="_top" xlink:title=" ">
<polygon fill="white" stroke="#666666" points="481,-162 330,-162 330,-132 481,-132 481,-162"/>
<text text-anchor="start" x="338" y="-150" font-family="Helvetica,sans-Serif" font-size="10.00">Cpl/Persistent/IndexedEntry</text>
<text text-anchor="middle" x="405.5" y="-139" font-family="Helvetica,sans-Serif" font-size="10.00">Record.h</text>
</a>
</g>
</g>
<!-- Node1&#45;&gt;Node4 -->
<g id="edge3_Node000001_Node000004" class="edge">
<title>Node1&#45;&gt;Node4</title>
<g id="a_edge3_Node000001_Node000004"><a xlink:title=" ">
<path fill="none" stroke="#63b8ff" d="M472.89,-192.29C458.95,-183.13 440.89,-171.26 426.97,-162.11"/>
<polygon fill="#63b8ff" stroke="#63b8ff" points="471.09,-195.3 481.37,-197.87 474.93,-189.45 471.09,-195.3"/>
</a>
</g>
</g>
<!-- Node7 -->
<g id="Node000007" class="node">
<title>Node7</title>
<g id="a_Node000007"><a xlink:href="_mirrored_chunk_8h.html" target="_top" xlink:title=" ">
<polygon fill="white" stroke="#666666" points="667.5,-156.5 499.5,-156.5 499.5,-137.5 667.5,-137.5 667.5,-156.5"/>
<text text-anchor="middle" x="583.5" y="-144.5" font-family="Helvetica,sans-Serif" font-size="10.00">Cpl/Persistent/MirroredChunk.h</text>
</a>
</g>
</g>
<!-- Node1&#45;&gt;Node7 -->
<g id="edge6_Node000001_Node000007" class="edge">
<title>Node1&#45;&gt;Node7</title>
<g id="a_edge6_Node000001_Node000007"><a xlink:title=" ">
<path fill="none" stroke="#63b8ff" d="M516.32,-192.16C533.23,-181.05 556.09,-166.01 570.31,-156.67"/>
<polygon fill="#63b8ff" stroke="#63b8ff" points="514.07,-189.45 507.63,-197.87 517.91,-195.3 514.07,-189.45"/>
</a>
</g>
</g>
<!-- Node8 -->
<g id="Node000008" class="node">
<title>Node8</title>
<g id="a_Node000008"><a xlink:href="_n_v_adapter_8h.html" target="_top" xlink:title=" ">
<polygon fill="white" stroke="#666666" points="833,-156.5 686,-156.5 686,-137.5 833,-137.5 833,-156.5"/>
<text text-anchor="middle" x="759.5" y="-144.5" font-family="Helvetica,sans-Serif" font-size="10.00">Cpl/Persistent/NVAdapter.h</text>
</a>
</g>
</g>
<!-- Node1&#45;&gt;Node8 -->
<g id="edge7_Node000001_Node000008" class="edge">
<title>Node1&#45;&gt;Node8</title>
<g id="a_edge7_Node000001_Node000008"><a xlink:title=" ">
<path fill="none" stroke="#63b8ff" d="M542.87,-195.82C594.05,-184.52 673.8,-166.92 720.92,-156.52"/>
<polygon fill="#63b8ff" stroke="#63b8ff" points="542.04,-192.42 533.03,-197.99 543.55,-199.26 542.04,-192.42"/>
</a>
</g>
</g>
<!-- Node9 -->
<g id="Node000009" class="node">
<title>Node9</title>
<g id="a_Node000009"><a xlink:href="_null_region_media_8h.html" target="_top" xlink:title=" ">
<polygon fill="white" stroke="#666666" points="991.5,-162 851.5,-162 851.5,-132 991.5,-132 991.5,-162"/>
<text text-anchor="start" x="859.5" y="-150" font-family="Helvetica,sans-Serif" font-size="10.00">Cpl/Persistent/NullRegion</text>
<text text-anchor="middle" x="921.5" y="-139" font-family="Helvetica,sans-Serif" font-size="10.00">Media.h</text>
</a>
</g>
</g>
<!-- Node1&#45;&gt;Node9 -->
<g id="edge8_Node000001_Node000009" class="edge">
<title>Node1&#45;&gt;Node9</title>
<g id="a_edge8_Node000001_Node000009"><a xlink:title=" ">
<path fill="none" stroke="#63b8ff" d="M579.49,-196.79C650.05,-188.45 752.97,-175.65 842.5,-162 845.39,-161.56 848.34,-161.1 851.32,-160.62"/>
<polygon fill="#63b8ff" stroke="#63b8ff" points="578.84,-193.34 569.32,-197.99 579.66,-200.3 578.84,-193.34"/>
</a>
</g>
</g>
<!-- Node5 -->
<g id="Node000005" class="node">
<title>Node5</title>
<g id="a_Node000005"><a xlink:href="_indexed_entry_server_8h.html" target="_top" xlink:title=" ">
<polygon fill="white" stroke="#666666" points="481,-96 330,-96 330,-66 481,-66 481,-96"/>
<text text-anchor="start" x="338" y="-84" font-family="Helvetica,sans-Serif" font-size="10.00">Cpl/Persistent/IndexedEntry</text>
<text text-anchor="middle" x="405.5" y="-73" font-family="Helvetica,sans-Serif" font-size="10.00">Server.h</text>
</a>
</g>
</g>
<!-- Node4&#45;&gt;Node5 -->
<g id="edge4_Node000004_Node000005" class="edge">
<title>Node4&#45;&gt;Node5</title>
<g id="a_edge4_Node000004_Node000005"><a xlink:title=" ">
<path fill="none" stroke="#63b8ff" d="M405.5,-121.54C405.5,-112.96 405.5,-103.61 405.5,-96.16"/>
<polygon fill="#63b8ff" stroke="#63b8ff" points="402,-121.8 405.5,-131.8 409,-121.8 402,-121.8"/>
</a>
</g>
</g>
<!-- Node6 -->
<g id="Node000006" class="node">
<title>Node6</title>
<g id="a_Node000006"><a xlink:href="_log_8h.html" target="_top" xlink:title=" ">
<polygon fill="white" stroke="#666666" points="459,-30 352,-30 352,0 459,0 459,-30"/>
<text text-anchor="start" x="360" y="-18" font-family="Helvetica,sans-Serif" font-size="10.00">Cpl/Logging/TShell</text>
<text text-anchor="middle" x="405.5" y="-7" font-family="Helvetica,sans-Serif" font-size="10.00">/Log.h</text>
</a>
</g>
</g>
<!-- Node5&#45;&gt;Node6 -->
<g id="edge5_Node000005_Node000006" class="edge">
<title>Node5&#45;&gt;Node6</title>
<g id="a_edge5_Node000005_Node000006"><a xlink:title=" ">
<path fill="none" stroke="#63b8ff" d="M405.5,-55.54C405.5,-46.96 405.5,-37.61 405.5,-30.16"/>
<polygon fill="#63b8ff" stroke="#63b8ff" points="402,-55.8 405.5,-65.8 409,-55.8 402,-55.8"/>
</a>
</g>
</g>
</g>
</svg>
