<?xml version="1.0" encoding="UTF-8" standalone="no"?>
<!DOCTYPE svg PUBLIC "-//W3C//DTD SVG 1.1//EN"
 "http://www.w3.org/Graphics/SVG/1.1/DTD/svg11.dtd">
<!-- Generated by graphviz version 2.43.0 (0)
 -->
<!-- Title: Cpl/MApp/Requests.h Pages: 1 -->
<svg width="529pt" height="357pt"
 viewBox="0.00 0.00 528.50 357.00" xmlns="http://www.w3.org/2000/svg" xmlns:xlink="http://www.w3.org/1999/xlink">
<g id="graph0" class="graph" transform="scale(1 1) rotate(0) translate(4 353)">
<title>Cpl/MApp/Requests.h</title>
<!-- Node1 -->
<g id="Node000001" class="node">
<title>Node1</title>
<g id="a_Node000001"><a xlink:title=" ">
<polygon fill="#999999" stroke="#666666" points="413.5,-349 293.5,-349 293.5,-330 413.5,-330 413.5,-349"/>
<text text-anchor="middle" x="353.5" y="-337" font-family="Helvetica,sans-Serif" font-size="10.00">Cpl/MApp/Requests.h</text>
</a>
</g>
</g>
<!-- Node2 -->
<g id="Node000002" class="node">
<title>Node2</title>
<g id="a_Node000002"><a xlink:href="_request_message_8h.html" target="_top" xlink:title=" ">
<polygon fill="white" stroke="#666666" points="344,-239 201,-239 201,-220 344,-220 344,-239"/>
<text text-anchor="middle" x="272.5" y="-227" font-family="Helvetica,sans-Serif" font-size="10.00">Cpl/Itc/RequestMessage.h</text>
</a>
</g>
</g>
<!-- Node1&#45;&gt;Node2 -->
<g id="edge1_Node000001_Node000002" class="edge">
<title>Node1&#45;&gt;Node2</title>
<g id="a_edge1_Node000001_Node000002"><a xlink:title=" ">
<path fill="none" stroke="#63b8ff" d="M349.16,-329.89C342.64,-317.29 329.56,-293.36 315.5,-275 307.68,-264.79 297.77,-254.4 289.43,-246.22"/>
<polygon fill="#63b8ff" stroke="#63b8ff" points="291.68,-243.54 282.04,-239.15 286.84,-248.59 291.68,-243.54"/>
</a>
</g>
</g>
<!-- Node7 -->
<g id="Node000007" class="node">
<title>Node7</title>
<g id="a_Node000007"><a xlink:href="_s_a_p_8h.html" target="_top" xlink:title=" ">
<polygon fill="white" stroke="#666666" points="411,-184 334,-184 334,-165 411,-165 411,-184"/>
<text text-anchor="middle" x="372.5" y="-172" font-family="Helvetica,sans-Serif" font-size="10.00">Cpl/Itc/SAP.h</text>
</a>
</g>
</g>
<!-- Node1&#45;&gt;Node7 -->
<g id="edge14_Node000001_Node000007" class="edge">
<title>Node1&#45;&gt;Node7</title>
<g id="a_edge14_Node000001_Node000007"><a xlink:title=" ">
<path fill="none" stroke="#63b8ff" d="M354.52,-329.74C357.49,-304.31 366.14,-230.08 370.26,-194.69"/>
<polygon fill="#63b8ff" stroke="#63b8ff" points="373.79,-194.64 371.47,-184.31 366.84,-193.83 373.79,-194.64"/>
</a>
</g>
</g>
<!-- Node9 -->
<g id="Node000009" class="node">
<title>Node9</title>
<g id="a_Node000009"><a xlink:href="_response_message_8h.html" target="_top" xlink:title=" ">
<polygon fill="white" stroke="#666666" points="306.5,-294 156.5,-294 156.5,-275 306.5,-275 306.5,-294"/>
<text text-anchor="middle" x="231.5" y="-282" font-family="Helvetica,sans-Serif" font-size="10.00">Cpl/Itc/ResponseMessage.h</text>
</a>
</g>
</g>
<!-- Node1&#45;&gt;Node9 -->
<g id="edge9_Node000001_Node000009" class="edge">
<title>Node1&#45;&gt;Node9</title>
<g id="a_edge9_Node000001_Node000009"><a xlink:title=" ">
<path fill="none" stroke="#63b8ff" d="M333.9,-329.98C314.18,-321.42 283.55,-308.11 260.92,-298.28"/>
<polygon fill="#63b8ff" stroke="#63b8ff" points="262.02,-294.94 251.46,-294.17 259.24,-301.37 262.02,-294.94"/>
</a>
</g>
</g>
<!-- Node11 -->
<g id="Node000011" class="node">
<title>Node11</title>
<g id="a_Node000011"><a xlink:href="_m_app_api_8h.html" target="_top" xlink:title=" ">
<polygon fill="white" stroke="#666666" points="520,-294 401,-294 401,-275 520,-275 520,-294"/>
<text text-anchor="middle" x="460.5" y="-282" font-family="Helvetica,sans-Serif" font-size="10.00">Cpl/MApp/MAppApi.h</text>
</a>
</g>
</g>
<!-- Node1&#45;&gt;Node11 -->
<g id="edge15_Node000001_Node000011" class="edge">
<title>Node1&#45;&gt;Node11</title>
<g id="a_edge15_Node000001_Node000011"><a xlink:title=" ">
<path fill="none" stroke="#63b8ff" d="M370.69,-329.98C387.75,-321.54 414.13,-308.47 433.9,-298.68"/>
<polygon fill="#63b8ff" stroke="#63b8ff" points="435.59,-301.75 443,-294.17 432.48,-295.47 435.59,-301.75"/>
</a>
</g>
</g>
<!-- Node3 -->
<g id="Node000003" class="node">
<title>Node3</title>
<g id="a_Node000003"><a xlink:href="_service_message_8h.html" target="_top" xlink:title=" ">
<polygon fill="white" stroke="#666666" points="139,-184 0,-184 0,-165 139,-165 139,-184"/>
<text text-anchor="middle" x="69.5" y="-172" font-family="Helvetica,sans-Serif" font-size="10.00">Cpl/Itc/ServiceMessage.h</text>
</a>
</g>
</g>
<!-- Node2&#45;&gt;Node3 -->
<g id="edge2_Node000002_Node000003" class="edge">
<title>Node2&#45;&gt;Node3</title>
<g id="a_edge2_Node000002_Node000003"><a xlink:title=" ">
<path fill="none" stroke="#63b8ff" d="M239.88,-219.98C205.21,-210.93 150.24,-196.58 112.15,-186.64"/>
<polygon fill="#63b8ff" stroke="#63b8ff" points="112.93,-183.22 102.37,-184.08 111.16,-189.99 112.93,-183.22"/>
</a>
</g>
</g>
<!-- Node2&#45;&gt;Node7 -->
<g id="edge6_Node000002_Node000007" class="edge">
<title>Node2&#45;&gt;Node7</title>
<g id="a_edge6_Node000002_Node000007"><a xlink:title=" ">
<path fill="none" stroke="#63b8ff" d="M288.57,-219.98C304.36,-211.61 328.72,-198.7 347.13,-188.95"/>
<polygon fill="#63b8ff" stroke="#63b8ff" points="348.94,-191.95 356.14,-184.17 345.67,-185.76 348.94,-191.95"/>
</a>
</g>
</g>
<!-- Node4 -->
<g id="Node000004" class="node">
<title>Node4</title>
<g id="a_Node000004"><a xlink:href="_message_8h.html" target="_top" xlink:title=" ">
<polygon fill="white" stroke="#666666" points="403,-74 300,-74 300,-55 403,-55 403,-74"/>
<text text-anchor="middle" x="351.5" y="-62" font-family="Helvetica,sans-Serif" font-size="10.00">Cpl/Itc/Message.h</text>
</a>
</g>
</g>
<!-- Node3&#45;&gt;Node4 -->
<g id="edge3_Node000003_Node000004" class="edge">
<title>Node3&#45;&gt;Node4</title>
<g id="a_edge3_Node000003_Node000004"><a xlink:title=" ">
<path fill="none" stroke="#63b8ff" d="M74.45,-164.91C82.97,-150.97 101.79,-123.61 125.5,-110 175.9,-81.06 241.92,-70.64 289.57,-67.03"/>
<polygon fill="#63b8ff" stroke="#63b8ff" points="290.01,-70.51 299.75,-66.35 289.54,-63.53 290.01,-70.51"/>
</a>
</g>
</g>
<!-- Node6 -->
<g id="Node000006" class="node">
<title>Node6</title>
<g id="a_Node000006"><a xlink:href="_return_handler_8h.html" target="_top" xlink:title=" ">
<polygon fill="white" stroke="#666666" points="264,-129 135,-129 135,-110 264,-110 264,-129"/>
<text text-anchor="middle" x="199.5" y="-117" font-family="Helvetica,sans-Serif" font-size="10.00">Cpl/Itc/ReturnHandler.h</text>
</a>
</g>
</g>
<!-- Node3&#45;&gt;Node6 -->
<g id="edge5_Node000003_Node000006" class="edge">
<title>Node3&#45;&gt;Node6</title>
<g id="a_edge5_Node000003_Node000006"><a xlink:title=" ">
<path fill="none" stroke="#63b8ff" d="M90.39,-164.98C111.58,-156.34 144.63,-142.87 168.8,-133.02"/>
<polygon fill="#63b8ff" stroke="#63b8ff" points="170.29,-136.19 178.23,-129.17 167.65,-129.7 170.29,-136.19"/>
</a>
</g>
</g>
<!-- Node5 -->
<g id="Node000005" class="node">
<title>Node5</title>
<g id="a_Node000005"><a xlink:href="_item_8h.html" target="_top" xlink:title=" ">
<polygon fill="white" stroke="#666666" points="494,-19 377,-19 377,0 494,0 494,-19"/>
<text text-anchor="middle" x="435.5" y="-7" font-family="Helvetica,sans-Serif" font-size="10.00">Cpl/Container/Item.h</text>
</a>
</g>
</g>
<!-- Node4&#45;&gt;Node5 -->
<g id="edge4_Node000004_Node000005" class="edge">
<title>Node4&#45;&gt;Node5</title>
<g id="a_edge4_Node000004_Node000005"><a xlink:title=" ">
<path fill="none" stroke="#63b8ff" d="M365,-54.98C377.9,-46.84 397.6,-34.41 412.9,-24.76"/>
<polygon fill="#63b8ff" stroke="#63b8ff" points="415.17,-27.47 421.76,-19.17 411.43,-21.55 415.17,-27.47"/>
</a>
</g>
</g>
<!-- Node8 -->
<g id="Node000008" class="node">
<title>Node8</title>
<g id="a_Node000008"><a xlink:href="_post_api_8h.html" target="_top" xlink:title=" ">
<polygon fill="white" stroke="#666666" points="399.5,-129 303.5,-129 303.5,-110 399.5,-110 399.5,-129"/>
<text text-anchor="middle" x="351.5" y="-117" font-family="Helvetica,sans-Serif" font-size="10.00">Cpl/Itc/PostApi.h</text>
</a>
</g>
</g>
<!-- Node7&#45;&gt;Node8 -->
<g id="edge7_Node000007_Node000008" class="edge">
<title>Node7&#45;&gt;Node8</title>
<g id="a_edge7_Node000007_Node000008"><a xlink:title=" ">
<path fill="none" stroke="#63b8ff" d="M369.03,-164.75C366.22,-157.65 362.16,-147.4 358.65,-138.56"/>
<polygon fill="#63b8ff" stroke="#63b8ff" points="361.84,-137.1 354.9,-129.09 355.33,-139.68 361.84,-137.1"/>
</a>
</g>
</g>
<!-- Node8&#45;&gt;Node4 -->
<g id="edge8_Node000008_Node000004" class="edge">
<title>Node8&#45;&gt;Node4</title>
<g id="a_edge8_Node000008_Node000004"><a xlink:title=" ">
<path fill="none" stroke="#63b8ff" d="M351.5,-109.75C351.5,-102.8 351.5,-92.85 351.5,-84.13"/>
<polygon fill="#63b8ff" stroke="#63b8ff" points="355,-84.09 351.5,-74.09 348,-84.09 355,-84.09"/>
</a>
</g>
</g>
<!-- Node9&#45;&gt;Node2 -->
<g id="edge13_Node000009_Node000002" class="edge">
<title>Node9&#45;&gt;Node2</title>
<g id="a_edge13_Node000009_Node000002"><a xlink:title=" ">
<path fill="none" stroke="#63b8ff" d="M238.27,-274.75C244.06,-267.26 252.56,-256.28 259.64,-247.13"/>
<polygon fill="#63b8ff" stroke="#63b8ff" points="262.51,-249.14 265.86,-239.09 256.97,-244.86 262.51,-249.14"/>
</a>
</g>
</g>
<!-- Node10 -->
<g id="Node000010" class="node">
<title>Node10</title>
<g id="a_Node000010"><a xlink:href="_async_return_handler_8h.html" target="_top" xlink:title=" ">
<polygon fill="white" stroke="#666666" points="315.5,-184 157.5,-184 157.5,-165 315.5,-165 315.5,-184"/>
<text text-anchor="middle" x="236.5" y="-172" font-family="Helvetica,sans-Serif" font-size="10.00">Cpl/Itc/AsyncReturnHandler.h</text>
</a>
</g>
</g>
<!-- Node9&#45;&gt;Node10 -->
<g id="edge10_Node000009_Node000010" class="edge">
<title>Node9&#45;&gt;Node10</title>
<g id="a_edge10_Node000009_Node000010"><a xlink:title=" ">
<path fill="none" stroke="#63b8ff" d="M219.63,-274.97C204.88,-263.24 182.67,-241.16 191.5,-220 196.36,-208.36 205.92,-198.2 214.98,-190.55"/>
<polygon fill="#63b8ff" stroke="#63b8ff" points="217.3,-193.17 223.01,-184.25 212.98,-187.67 217.3,-193.17"/>
</a>
</g>
</g>
<!-- Node10&#45;&gt;Node6 -->
<g id="edge11_Node000010_Node000006" class="edge">
<title>Node10&#45;&gt;Node6</title>
<g id="a_edge11_Node000010_Node000006"><a xlink:title=" ">
<path fill="none" stroke="#63b8ff" d="M230.39,-164.75C225.22,-157.34 217.65,-146.5 211.31,-137.41"/>
<polygon fill="#63b8ff" stroke="#63b8ff" points="214.09,-135.29 205.5,-129.09 208.35,-139.29 214.09,-135.29"/>
</a>
</g>
</g>
<!-- Node10&#45;&gt;Node8 -->
<g id="edge12_Node000010_Node000008" class="edge">
<title>Node10&#45;&gt;Node8</title>
<g id="a_edge12_Node000010_Node000008"><a xlink:title=" ">
<path fill="none" stroke="#63b8ff" d="M254.98,-164.98C273.48,-156.46 302.18,-143.23 323.48,-133.41"/>
<polygon fill="#63b8ff" stroke="#63b8ff" points="325.07,-136.53 332.69,-129.17 322.14,-130.18 325.07,-136.53"/>
</a>
</g>
</g>
<!-- Node11&#45;&gt;Node5 -->
<g id="edge17_Node000011_Node000005" class="edge">
<title>Node11&#45;&gt;Node5</title>
<g id="a_edge17_Node000011_Node000005"><a xlink:title=" ">
<path fill="none" stroke="#63b8ff" d="M470.67,-274.95C479.94,-266.65 493.39,-253.24 501.5,-239 516.08,-213.4 520.5,-204.96 520.5,-175.5 520.5,-175.5 520.5,-175.5 520.5,-118.5 520.5,-77.73 482.64,-43.28 457.45,-24.86"/>
<polygon fill="#63b8ff" stroke="#63b8ff" points="459.35,-21.92 449.16,-19.04 455.33,-27.65 459.35,-21.92"/>
</a>
</g>
</g>
<!-- Node12 -->
<g id="Node000012" class="node">
<title>Node12</title>
<g id="a_Node000012"><a xlink:title=" ">
<polygon fill="#e0e0e0" stroke="#999999" points="492.5,-239 400.5,-239 400.5,-220 492.5,-220 492.5,-239"/>
<text text-anchor="middle" x="446.5" y="-227" font-family="Helvetica,sans-Serif" font-size="10.00">colony_config.h</text>
</a>
</g>
</g>
<!-- Node11&#45;&gt;Node12 -->
<g id="edge16_Node000011_Node000012" class="edge">
<title>Node11&#45;&gt;Node12</title>
<g id="a_edge16_Node000011_Node000012"><a xlink:title=" ">
<path fill="none" stroke="#63b8ff" d="M458.19,-274.75C456.33,-267.72 453.66,-257.62 451.35,-248.84"/>
<polygon fill="#63b8ff" stroke="#63b8ff" points="454.71,-247.86 448.77,-239.09 447.94,-249.65 454.71,-247.86"/>
</a>
</g>
</g>
</g>
</svg>
