<?xml version="1.0" encoding="UTF-8" standalone="no"?>
<!DOCTYPE svg PUBLIC "-//W3C//DTD SVG 1.1//EN"
 "http://www.w3.org/Graphics/SVG/1.1/DTD/svg11.dtd">
<!-- Generated by graphviz version 2.43.0 (0)
 -->
<!-- Title: Cpl/TShell/Restartable.h Pages: 1 -->
<svg width="830pt" height="412pt"
 viewBox="0.00 0.00 829.87 412.00" xmlns="http://www.w3.org/2000/svg" xmlns:xlink="http://www.w3.org/1999/xlink">
<g id="graph0" class="graph" transform="scale(1 1) rotate(0) translate(4 408)">
<title>Cpl/TShell/Restartable.h</title>
<!-- Node1 -->
<g id="Node000001" class="node">
<title>Node1</title>
<g id="a_Node000001"><a xlink:title=" ">
<polygon fill="#999999" stroke="#666666" points="661.5,-404 527.5,-404 527.5,-385 661.5,-385 661.5,-404"/>
<text text-anchor="middle" x="594.5" y="-392" font-family="Helvetica,sans-Serif" font-size="10.00">Cpl/TShell/Restartable.h</text>
</a>
</g>
</g>
<!-- Node2 -->
<g id="Node000002" class="node">
<title>Node2</title>
<g id="a_Node000002"><a xlink:href="_stdio_8h.html" target="_top" xlink:title=" ">
<polygon fill="white" stroke="#666666" points="606.5,-349 504.5,-349 504.5,-330 606.5,-330 606.5,-349"/>
<text text-anchor="middle" x="555.5" y="-337" font-family="Helvetica,sans-Serif" font-size="10.00">Cpl/TShell/Stdio.h</text>
</a>
</g>
</g>
<!-- Node1&#45;&gt;Node2 -->
<g id="edge1_Node000001_Node000002" class="edge">
<title>Node1&#45;&gt;Node2</title>
<g id="a_edge1_Node000001_Node000002"><a xlink:title=" ">
<path fill="none" stroke="#63b8ff" d="M588.06,-384.75C582.61,-377.34 574.64,-366.5 567.94,-357.41"/>
<polygon fill="#63b8ff" stroke="#63b8ff" points="570.57,-355.07 561.82,-349.09 564.93,-359.22 570.57,-355.07"/>
</a>
</g>
</g>
<!-- Node19 -->
<g id="Node000019" class="node">
<title>Node19</title>
<g id="a_Node000019"><a xlink:href="_thread_8h.html" target="_top" xlink:title=" ">
<polygon fill="white" stroke="#666666" points="693.5,-294 575.5,-294 575.5,-275 693.5,-275 693.5,-294"/>
<text text-anchor="middle" x="634.5" y="-282" font-family="Helvetica,sans-Serif" font-size="10.00">Cpl/System/Thread.h</text>
</a>
</g>
</g>
<!-- Node1&#45;&gt;Node19 -->
<g id="edge30_Node000001_Node000019" class="edge">
<title>Node1&#45;&gt;Node19</title>
<g id="a_edge30_Node000001_Node000019"><a xlink:title=" ">
<path fill="none" stroke="#63b8ff" d="M599.08,-384.8C603.63,-375.96 610.61,-361.76 615.5,-349 621.17,-334.21 626.23,-316.96 629.71,-304.18"/>
<polygon fill="#63b8ff" stroke="#63b8ff" points="633.15,-304.83 632.32,-294.27 626.39,-303.04 633.15,-304.83"/>
</a>
</g>
</g>
<!-- Node3 -->
<g id="Node000003" class="node">
<title>Node3</title>
<g id="a_Node000003"><a xlink:href="_processor_api_8h.html" target="_top" xlink:title=" ">
<polygon fill="white" stroke="#666666" points="445.5,-294 305.5,-294 305.5,-275 445.5,-275 445.5,-294"/>
<text text-anchor="middle" x="375.5" y="-282" font-family="Helvetica,sans-Serif" font-size="10.00">Cpl/TShell/ProcessorApi.h</text>
</a>
</g>
</g>
<!-- Node2&#45;&gt;Node3 -->
<g id="edge2_Node000002_Node000003" class="edge">
<title>Node2&#45;&gt;Node3</title>
<g id="a_edge2_Node000002_Node000003"><a xlink:title=" ">
<path fill="none" stroke="#63b8ff" d="M526.58,-329.98C496.23,-321.05 448.33,-306.94 414.62,-297.02"/>
<polygon fill="#63b8ff" stroke="#63b8ff" points="415.23,-293.55 404.65,-294.08 413.25,-300.26 415.23,-293.55"/>
</a>
</g>
</g>
<!-- Node2&#45;&gt;Node19 -->
<g id="edge23_Node000002_Node000019" class="edge">
<title>Node2&#45;&gt;Node19</title>
<g id="a_edge23_Node000002_Node000019"><a xlink:title=" ">
<path fill="none" stroke="#63b8ff" d="M568.19,-329.98C580.33,-321.84 598.86,-309.41 613.25,-299.76"/>
<polygon fill="#63b8ff" stroke="#63b8ff" points="615.22,-302.65 621.58,-294.17 611.32,-296.84 615.22,-302.65"/>
</a>
</g>
</g>
<!-- Node4 -->
<g id="Node000004" class="node">
<title>Node4</title>
<g id="a_Node000004"><a xlink:href="_input_8h.html" target="_top" xlink:title=" ">
<polygon fill="white" stroke="#666666" points="416,-239 335,-239 335,-220 416,-220 416,-239"/>
<text text-anchor="middle" x="375.5" y="-227" font-family="Helvetica,sans-Serif" font-size="10.00">Cpl/Io/Input.h</text>
</a>
</g>
</g>
<!-- Node3&#45;&gt;Node4 -->
<g id="edge3_Node000003_Node000004" class="edge">
<title>Node3&#45;&gt;Node4</title>
<g id="a_edge3_Node000003_Node000004"><a xlink:title=" ">
<path fill="none" stroke="#63b8ff" d="M375.5,-274.75C375.5,-267.8 375.5,-257.85 375.5,-249.13"/>
<polygon fill="#63b8ff" stroke="#63b8ff" points="379,-249.09 375.5,-239.09 372,-249.09 379,-249.09"/>
</a>
</g>
</g>
<!-- Node18 -->
<g id="Node000018" class="node">
<title>Node18</title>
<g id="a_Node000018"><a xlink:href="_output_8h.html" target="_top" xlink:title=" ">
<polygon fill="white" stroke="#666666" points="317,-239 228,-239 228,-220 317,-220 317,-239"/>
<text text-anchor="middle" x="272.5" y="-227" font-family="Helvetica,sans-Serif" font-size="10.00">Cpl/Io/Output.h</text>
</a>
</g>
</g>
<!-- Node3&#45;&gt;Node18 -->
<g id="edge18_Node000003_Node000018" class="edge">
<title>Node3&#45;&gt;Node18</title>
<g id="a_edge18_Node000003_Node000018"><a xlink:title=" ">
<path fill="none" stroke="#63b8ff" d="M358.95,-274.98C342.61,-266.57 317.37,-253.59 298.37,-243.81"/>
<polygon fill="#63b8ff" stroke="#63b8ff" points="299.84,-240.63 289.35,-239.17 296.64,-246.86 299.84,-240.63"/>
</a>
</g>
</g>
<!-- Node5 -->
<g id="Node000005" class="node">
<title>Node5</title>
<g id="a_Node000005"><a xlink:href="_text_2_string_8h.html" target="_top" xlink:title=" ">
<polygon fill="white" stroke="#666666" points="271.5,-184 175.5,-184 175.5,-165 271.5,-165 271.5,-184"/>
<text text-anchor="middle" x="223.5" y="-172" font-family="Helvetica,sans-Serif" font-size="10.00">Cpl/Text/String.h</text>
</a>
</g>
</g>
<!-- Node4&#45;&gt;Node5 -->
<g id="edge4_Node000004_Node000005" class="edge">
<title>Node4&#45;&gt;Node5</title>
<g id="a_edge4_Node000004_Node000005"><a xlink:title=" ">
<path fill="none" stroke="#63b8ff" d="M351.08,-219.98C325.78,-211.16 286.05,-197.31 257.64,-187.41"/>
<polygon fill="#63b8ff" stroke="#63b8ff" points="258.71,-184.07 248.11,-184.08 256.4,-190.68 258.71,-184.07"/>
</a>
</g>
</g>
<!-- Node15 -->
<g id="Node000015" class="node">
<title>Node15</title>
<g id="a_Node000015"><a xlink:href="_close_8h.html" target="_top" xlink:title=" ">
<polygon fill="white" stroke="#666666" points="411,-184 328,-184 328,-165 411,-165 411,-184"/>
<text text-anchor="middle" x="369.5" y="-172" font-family="Helvetica,sans-Serif" font-size="10.00">Cpl/Io/Close.h</text>
</a>
</g>
</g>
<!-- Node4&#45;&gt;Node15 -->
<g id="edge15_Node000004_Node000015" class="edge">
<title>Node4&#45;&gt;Node15</title>
<g id="a_edge15_Node000004_Node000015"><a xlink:title=" ">
<path fill="none" stroke="#63b8ff" d="M374.51,-219.75C373.72,-212.8 372.6,-202.85 371.61,-194.13"/>
<polygon fill="#63b8ff" stroke="#63b8ff" points="375.08,-193.63 370.47,-184.09 368.12,-194.42 375.08,-193.63"/>
</a>
</g>
</g>
<!-- Node17 -->
<g id="Node000017" class="node">
<title>Node17</title>
<g id="a_Node000017"><a xlink:href="_is_eos_8h.html" target="_top" xlink:title=" ">
<polygon fill="white" stroke="#666666" points="511.5,-184 429.5,-184 429.5,-165 511.5,-165 511.5,-184"/>
<text text-anchor="middle" x="470.5" y="-172" font-family="Helvetica,sans-Serif" font-size="10.00">Cpl/Io/IsEos.h</text>
</a>
</g>
</g>
<!-- Node4&#45;&gt;Node17 -->
<g id="edge17_Node000004_Node000017" class="edge">
<title>Node4&#45;&gt;Node17</title>
<g id="a_edge17_Node000004_Node000017"><a xlink:title=" ">
<path fill="none" stroke="#63b8ff" d="M390.76,-219.98C405.63,-211.69 428.48,-198.94 445.92,-189.22"/>
<polygon fill="#63b8ff" stroke="#63b8ff" points="447.93,-192.1 454.96,-184.17 444.52,-185.99 447.93,-192.1"/>
</a>
</g>
</g>
<!-- Node6 -->
<g id="Node000006" class="node">
<title>Node6</title>
<g id="a_Node000006"><a xlink:title=" ">
<polygon fill="#e0e0e0" stroke="#999999" points="376,-74 291,-74 291,-55 376,-55 376,-74"/>
<text text-anchor="middle" x="333.5" y="-62" font-family="Helvetica,sans-Serif" font-size="10.00">colony_map.h</text>
</a>
</g>
</g>
<!-- Node5&#45;&gt;Node6 -->
<g id="edge5_Node000005_Node000006" class="edge">
<title>Node5&#45;&gt;Node6</title>
<g id="a_edge5_Node000005_Node000006"><a xlink:title=" ">
<path fill="none" stroke="#63b8ff" d="M232.5,-164.66C251.13,-146.38 294.1,-104.18 317.54,-81.17"/>
<polygon fill="#63b8ff" stroke="#63b8ff" points="320,-83.66 324.68,-74.16 315.09,-78.67 320,-83.66"/>
</a>
</g>
</g>
<!-- Node7 -->
<g id="Node000007" class="node">
<title>Node7</title>
<g id="a_Node000007"><a xlink:href="_key_8h.html" target="_top" xlink:title=" ">
<polygon fill="white" stroke="#666666" points="247,-129 136,-129 136,-110 247,-110 247,-129"/>
<text text-anchor="middle" x="191.5" y="-117" font-family="Helvetica,sans-Serif" font-size="10.00">Cpl/Container/Key.h</text>
</a>
</g>
</g>
<!-- Node5&#45;&gt;Node7 -->
<g id="edge6_Node000005_Node000007" class="edge">
<title>Node5&#45;&gt;Node7</title>
<g id="a_edge6_Node000005_Node000007"><a xlink:title=" ">
<path fill="none" stroke="#63b8ff" d="M218.22,-164.75C213.79,-157.42 207.34,-146.73 201.88,-137.7"/>
<polygon fill="#63b8ff" stroke="#63b8ff" points="204.85,-135.84 196.69,-129.09 198.86,-139.46 204.85,-135.84"/>
</a>
</g>
</g>
<!-- Node13 -->
<g id="Node000013" class="node">
<title>Node13</title>
<g id="a_Node000013"><a xlink:title=" ">
<polygon fill="#e0e0e0" stroke="#999999" points="359.5,-129 303.5,-129 303.5,-110 359.5,-110 359.5,-129"/>
<text text-anchor="middle" x="331.5" y="-117" font-family="Helvetica,sans-Serif" font-size="10.00">stdarg.h</text>
</a>
</g>
</g>
<!-- Node5&#45;&gt;Node13 -->
<g id="edge13_Node000005_Node000013" class="edge">
<title>Node5&#45;&gt;Node13</title>
<g id="a_edge13_Node000005_Node000013"><a xlink:title=" ">
<path fill="none" stroke="#63b8ff" d="M240.85,-164.98C258.07,-156.54 284.7,-143.47 304.65,-133.68"/>
<polygon fill="#63b8ff" stroke="#63b8ff" points="306.4,-136.72 313.83,-129.17 303.31,-130.43 306.4,-136.72"/>
</a>
</g>
</g>
<!-- Node14 -->
<g id="Node000014" class="node">
<title>Node14</title>
<g id="a_Node000014"><a xlink:title=" ">
<polygon fill="#e0e0e0" stroke="#999999" points="117.5,-129 57.5,-129 57.5,-110 117.5,-110 117.5,-129"/>
<text text-anchor="middle" x="87.5" y="-117" font-family="Helvetica,sans-Serif" font-size="10.00">iostream</text>
</a>
</g>
</g>
<!-- Node5&#45;&gt;Node14 -->
<g id="edge14_Node000005_Node000014" class="edge">
<title>Node5&#45;&gt;Node14</title>
<g id="a_edge14_Node000005_Node000014"><a xlink:title=" ">
<path fill="none" stroke="#63b8ff" d="M201.65,-164.98C179.38,-156.3 144.6,-142.75 119.28,-132.88"/>
<polygon fill="#63b8ff" stroke="#63b8ff" points="120.34,-129.54 109.75,-129.17 117.79,-136.06 120.34,-129.54"/>
</a>
</g>
</g>
<!-- Node7&#45;&gt;Node6 -->
<g id="edge12_Node000007_Node000006" class="edge">
<title>Node7&#45;&gt;Node6</title>
<g id="a_edge12_Node000007_Node000006"><a xlink:title=" ">
<path fill="none" stroke="#63b8ff" d="M214.31,-109.98C237.67,-101.27 274.2,-87.63 300.67,-77.75"/>
<polygon fill="#63b8ff" stroke="#63b8ff" points="302.13,-80.95 310.27,-74.17 299.68,-74.39 302.13,-80.95"/>
</a>
</g>
</g>
<!-- Node8 -->
<g id="Node000008" class="node">
<title>Node8</title>
<g id="a_Node000008"><a xlink:href="_fatal_error_8h.html" target="_top" xlink:title=" ">
<polygon fill="white" stroke="#666666" points="201.5,-74 71.5,-74 71.5,-55 201.5,-55 201.5,-74"/>
<text text-anchor="middle" x="136.5" y="-62" font-family="Helvetica,sans-Serif" font-size="10.00">Cpl/System/FatalError.h</text>
</a>
</g>
</g>
<!-- Node7&#45;&gt;Node8 -->
<g id="edge7_Node000007_Node000008" class="edge">
<title>Node7&#45;&gt;Node8</title>
<g id="a_edge7_Node000007_Node000008"><a xlink:title=" ">
<path fill="none" stroke="#63b8ff" d="M182.42,-109.75C174.41,-102.03 162.54,-90.6 152.88,-81.28"/>
<polygon fill="#63b8ff" stroke="#63b8ff" points="155.04,-78.51 145.41,-74.09 150.19,-83.55 155.04,-78.51"/>
</a>
</g>
</g>
<!-- Node11 -->
<g id="Node000011" class="node">
<title>Node11</title>
<g id="a_Node000011"><a xlink:title=" ">
<polygon fill="#e0e0e0" stroke="#999999" points="273,-74 220,-74 220,-55 273,-55 273,-74"/>
<text text-anchor="middle" x="246.5" y="-62" font-family="Helvetica,sans-Serif" font-size="10.00">stdint.h</text>
</a>
</g>
</g>
<!-- Node7&#45;&gt;Node11 -->
<g id="edge10_Node000007_Node000011" class="edge">
<title>Node7&#45;&gt;Node11</title>
<g id="a_edge10_Node000007_Node000011"><a xlink:title=" ">
<path fill="none" stroke="#63b8ff" d="M200.58,-109.75C208.59,-102.03 220.46,-90.6 230.12,-81.28"/>
<polygon fill="#63b8ff" stroke="#63b8ff" points="232.81,-83.55 237.59,-74.09 227.96,-78.51 232.81,-83.55"/>
</a>
</g>
</g>
<!-- Node12 -->
<g id="Node000012" class="node">
<title>Node12</title>
<g id="a_Node000012"><a xlink:title=" ">
<polygon fill="#e0e0e0" stroke="#999999" points="53,-74 0,-74 0,-55 53,-55 53,-74"/>
<text text-anchor="middle" x="26.5" y="-62" font-family="Helvetica,sans-Serif" font-size="10.00">string.h</text>
</a>
</g>
</g>
<!-- Node7&#45;&gt;Node12 -->
<g id="edge11_Node000007_Node000012" class="edge">
<title>Node7&#45;&gt;Node12</title>
<g id="a_edge11_Node000007_Node000012"><a xlink:title=" ">
<path fill="none" stroke="#63b8ff" d="M164.99,-109.98C137.29,-101.09 93.64,-87.07 62.76,-77.15"/>
<polygon fill="#63b8ff" stroke="#63b8ff" points="63.81,-73.81 53.22,-74.08 61.67,-80.47 63.81,-73.81"/>
</a>
</g>
</g>
<!-- Node9 -->
<g id="Node000009" class="node">
<title>Node9</title>
<g id="a_Node000009"><a xlink:title=" ">
<polygon fill="#e0e0e0" stroke="#999999" points="118.5,-19 62.5,-19 62.5,0 118.5,0 118.5,-19"/>
<text text-anchor="middle" x="90.5" y="-7" font-family="Helvetica,sans-Serif" font-size="10.00">stddef.h</text>
</a>
</g>
</g>
<!-- Node8&#45;&gt;Node9 -->
<g id="edge8_Node000008_Node000009" class="edge">
<title>Node8&#45;&gt;Node9</title>
<g id="a_edge8_Node000008_Node000009"><a xlink:title=" ">
<path fill="none" stroke="#63b8ff" d="M128.9,-54.75C122.34,-47.18 112.68,-36.05 104.69,-26.84"/>
<polygon fill="#63b8ff" stroke="#63b8ff" points="107.15,-24.35 97.95,-19.09 101.87,-28.94 107.15,-24.35"/>
</a>
</g>
</g>
<!-- Node10 -->
<g id="Node000010" class="node">
<title>Node10</title>
<g id="a_Node000010"><a xlink:title=" ">
<polygon fill="#e0e0e0" stroke="#999999" points="228.5,-19 136.5,-19 136.5,0 228.5,0 228.5,-19"/>
<text text-anchor="middle" x="182.5" y="-7" font-family="Helvetica,sans-Serif" font-size="10.00">colony_config.h</text>
</a>
</g>
</g>
<!-- Node8&#45;&gt;Node10 -->
<g id="edge9_Node000008_Node000010" class="edge">
<title>Node8&#45;&gt;Node10</title>
<g id="a_edge9_Node000008_Node000010"><a xlink:title=" ">
<path fill="none" stroke="#63b8ff" d="M144.1,-54.75C150.66,-47.18 160.32,-36.05 168.31,-26.84"/>
<polygon fill="#63b8ff" stroke="#63b8ff" points="171.13,-28.94 175.05,-19.09 165.85,-24.35 171.13,-28.94"/>
</a>
</g>
</g>
<!-- Node16 -->
<g id="Node000016" class="node">
<title>Node16</title>
<g id="a_Node000016"><a xlink:href="_item_8h.html" target="_top" xlink:title=" ">
<polygon fill="white" stroke="#666666" points="573,-129 456,-129 456,-110 573,-110 573,-129"/>
<text text-anchor="middle" x="514.5" y="-117" font-family="Helvetica,sans-Serif" font-size="10.00">Cpl/Container/Item.h</text>
</a>
</g>
</g>
<!-- Node15&#45;&gt;Node16 -->
<g id="edge16_Node000015_Node000016" class="edge">
<title>Node15&#45;&gt;Node16</title>
<g id="a_edge16_Node000015_Node000016"><a xlink:title=" ">
<path fill="none" stroke="#63b8ff" d="M392.8,-164.98C416.75,-156.23 454.28,-142.51 481.33,-132.62"/>
<polygon fill="#63b8ff" stroke="#63b8ff" points="482.59,-135.89 490.78,-129.17 480.19,-129.32 482.59,-135.89"/>
</a>
</g>
</g>
<!-- Node18&#45;&gt;Node5 -->
<g id="edge19_Node000018_Node000005" class="edge">
<title>Node18&#45;&gt;Node5</title>
<g id="a_edge19_Node000018_Node000005"><a xlink:title=" ">
<path fill="none" stroke="#63b8ff" d="M264.41,-219.75C257.34,-212.11 246.91,-200.82 238.35,-191.56"/>
<polygon fill="#63b8ff" stroke="#63b8ff" points="240.8,-189.06 231.44,-184.09 235.66,-193.81 240.8,-189.06"/>
</a>
</g>
</g>
<!-- Node18&#45;&gt;Node13 -->
<g id="edge22_Node000018_Node000013" class="edge">
<title>Node18&#45;&gt;Node13</title>
<g id="a_edge22_Node000018_Node000013"><a xlink:title=" ">
<path fill="none" stroke="#63b8ff" d="M277.33,-219.66C287.06,-201.85 309.18,-161.37 321.94,-138.01"/>
<polygon fill="#63b8ff" stroke="#63b8ff" points="325.05,-139.61 326.77,-129.16 318.9,-136.26 325.05,-139.61"/>
</a>
</g>
</g>
<!-- Node18&#45;&gt;Node15 -->
<g id="edge20_Node000018_Node000015" class="edge">
<title>Node18&#45;&gt;Node15</title>
<g id="a_edge20_Node000018_Node000015"><a xlink:title=" ">
<path fill="none" stroke="#63b8ff" d="M288.08,-219.98C303.27,-211.69 326.6,-198.94 344.4,-189.22"/>
<polygon fill="#63b8ff" stroke="#63b8ff" points="346.53,-192.04 353.63,-184.17 343.18,-185.89 346.53,-192.04"/>
</a>
</g>
</g>
<!-- Node18&#45;&gt;Node17 -->
<g id="edge21_Node000018_Node000017" class="edge">
<title>Node18&#45;&gt;Node17</title>
<g id="a_edge21_Node000018_Node000017"><a xlink:title=" ">
<path fill="none" stroke="#63b8ff" d="M304.31,-219.98C337.99,-210.97 391.3,-196.7 428.42,-186.76"/>
<polygon fill="#63b8ff" stroke="#63b8ff" points="429.68,-190.05 438.44,-184.08 427.87,-183.29 429.68,-190.05"/>
</a>
</g>
</g>
<!-- Node19&#45;&gt;Node6 -->
<g id="edge24_Node000019_Node000006" class="edge">
<title>Node19&#45;&gt;Node6</title>
<g id="a_edge24_Node000019_Node000006"><a xlink:title=" ">
<path fill="none" stroke="#63b8ff" d="M693.74,-282.93C757.38,-279.93 845.62,-267.44 815.5,-220 753.9,-122.98 690.99,-144.89 581.5,-110 515.99,-89.13 437.44,-77.11 386.56,-70.94"/>
<polygon fill="#63b8ff" stroke="#63b8ff" points="386.79,-67.45 376.45,-69.75 385.97,-74.4 386.79,-67.45"/>
</a>
</g>
</g>
<!-- Node20 -->
<g id="Node000020" class="node">
<title>Node20</title>
<g id="a_Node000020"><a xlink:href="_runnable_8h.html" target="_top" xlink:title=" ">
<polygon fill="white" stroke="#666666" points="564.5,-239 434.5,-239 434.5,-220 564.5,-220 564.5,-239"/>
<text text-anchor="middle" x="499.5" y="-227" font-family="Helvetica,sans-Serif" font-size="10.00">Cpl/System/Runnable.h</text>
</a>
</g>
</g>
<!-- Node19&#45;&gt;Node20 -->
<g id="edge25_Node000019_Node000020" class="edge">
<title>Node19&#45;&gt;Node20</title>
<g id="a_edge25_Node000019_Node000020"><a xlink:title=" ">
<path fill="none" stroke="#63b8ff" d="M612.81,-274.98C590.7,-266.3 556.18,-252.75 531.05,-242.88"/>
<polygon fill="#63b8ff" stroke="#63b8ff" points="532.17,-239.57 521.58,-239.17 529.61,-246.08 532.17,-239.57"/>
</a>
</g>
</g>
<!-- Node21 -->
<g id="Node000021" class="node">
<title>Node21</title>
<g id="a_Node000021"><a xlink:href="_signable_8h.html" target="_top" xlink:title=" ">
<polygon fill="white" stroke="#666666" points="655.5,-184 529.5,-184 529.5,-165 655.5,-165 655.5,-184"/>
<text text-anchor="middle" x="592.5" y="-172" font-family="Helvetica,sans-Serif" font-size="10.00">Cpl/System/Signable.h</text>
</a>
</g>
</g>
<!-- Node19&#45;&gt;Node21 -->
<g id="edge26_Node000019_Node000021" class="edge">
<title>Node19&#45;&gt;Node21</title>
<g id="a_edge26_Node000019_Node000021"><a xlink:title=" ">
<path fill="none" stroke="#63b8ff" d="M629.42,-274.86C624.39,-266.06 616.71,-251.9 611.5,-239 605.57,-224.31 600.52,-207.06 597.12,-194.24"/>
<polygon fill="#63b8ff" stroke="#63b8ff" points="600.45,-193.12 594.58,-184.3 593.67,-194.86 600.45,-193.12"/>
</a>
</g>
</g>
<!-- Node22 -->
<g id="Node000022" class="node">
<title>Node22</title>
<g id="a_Node000022"><a xlink:href="_traverser_8h.html" target="_top" xlink:title=" ">
<polygon fill="white" stroke="#666666" points="734.5,-239 620.5,-239 620.5,-220 734.5,-220 734.5,-239"/>
<text text-anchor="middle" x="677.5" y="-227" font-family="Helvetica,sans-Serif" font-size="10.00">Cpl/Type/Traverser.h</text>
</a>
</g>
</g>
<!-- Node19&#45;&gt;Node22 -->
<g id="edge28_Node000019_Node000022" class="edge">
<title>Node19&#45;&gt;Node22</title>
<g id="a_edge28_Node000019_Node000022"><a xlink:title=" ">
<path fill="none" stroke="#63b8ff" d="M641.6,-274.75C647.67,-267.26 656.59,-256.28 664.01,-247.13"/>
<polygon fill="#63b8ff" stroke="#63b8ff" points="666.95,-249.06 670.53,-239.09 661.51,-244.65 666.95,-249.06"/>
</a>
</g>
</g>
<!-- Node23 -->
<g id="Node000023" class="node">
<title>Node23</title>
<g id="a_Node000023"><a xlink:title=" ">
<polygon fill="#e0e0e0" stroke="#999999" points="806,-239 753,-239 753,-220 806,-220 806,-239"/>
<text text-anchor="middle" x="779.5" y="-227" font-family="Helvetica,sans-Serif" font-size="10.00">stdlib.h</text>
</a>
</g>
</g>
<!-- Node19&#45;&gt;Node23 -->
<g id="edge29_Node000019_Node000023" class="edge">
<title>Node19&#45;&gt;Node23</title>
<g id="a_edge29_Node000019_Node000023"><a xlink:title=" ">
<path fill="none" stroke="#63b8ff" d="M657.8,-274.98C681.75,-266.23 719.28,-252.51 746.33,-242.62"/>
<polygon fill="#63b8ff" stroke="#63b8ff" points="747.59,-245.89 755.78,-239.17 745.19,-239.32 747.59,-245.89"/>
</a>
</g>
</g>
<!-- Node21&#45;&gt;Node16 -->
<g id="edge27_Node000021_Node000016" class="edge">
<title>Node21&#45;&gt;Node16</title>
<g id="a_edge27_Node000021_Node000016"><a xlink:title=" ">
<path fill="none" stroke="#63b8ff" d="M579.97,-164.98C568.1,-156.92 550.04,-144.65 535.89,-135.03"/>
<polygon fill="#63b8ff" stroke="#63b8ff" points="537.5,-131.9 527.26,-129.17 533.56,-137.69 537.5,-131.9"/>
</a>
</g>
</g>
</g>
</svg>
