<?xml version="1.0" encoding="UTF-8" standalone="no"?>
<!DOCTYPE svg PUBLIC "-//W3C//DTD SVG 1.1//EN"
 "http://www.w3.org/Graphics/SVG/1.1/DTD/svg11.dtd">
<!-- Generated by graphviz version 2.43.0 (0)
 -->
<!-- Title: Cpl/Itc/ReturnHandler.h Pages: 1 -->
<svg width="1346pt" height="511pt"
 viewBox="0.00 0.00 1345.50 511.00" xmlns="http://www.w3.org/2000/svg" xmlns:xlink="http://www.w3.org/1999/xlink">
<g id="graph0" class="graph" transform="scale(1 1) rotate(0) translate(4 507)">
<title>Cpl/Itc/ReturnHandler.h</title>
<!-- Node1 -->
<g id="Node000001" class="node">
<title>Node1</title>
<g id="a_Node000001"><a xlink:title=" ">
<polygon fill="#999999" stroke="#666666" points="876.5,-503 747.5,-503 747.5,-484 876.5,-484 876.5,-503"/>
<text text-anchor="middle" x="812" y="-491" font-family="Helvetica,sans-Serif" font-size="10.00">Cpl/Itc/ReturnHandler.h</text>
</a>
</g>
</g>
<!-- Node2 -->
<g id="Node000002" class="node">
<title>Node2</title>
<g id="a_Node000002"><a xlink:href="_async_return_handler_8h.html" target="_top" xlink:title=" ">
<polygon fill="white" stroke="#666666" points="894,-393 736,-393 736,-374 894,-374 894,-393"/>
<text text-anchor="middle" x="815" y="-381" font-family="Helvetica,sans-Serif" font-size="10.00">Cpl/Itc/AsyncReturnHandler.h</text>
</a>
</g>
</g>
<!-- Node1&#45;&gt;Node2 -->
<g id="edge1_Node000001_Node000002" class="edge">
<title>Node1&#45;&gt;Node2</title>
<g id="a_edge1_Node000001_Node000002"><a xlink:title=" ">
<path fill="none" stroke="#63b8ff" d="M827.45,-476.26C833.9,-468.38 840.66,-458.38 844,-448 850.54,-427.7 834.38,-405.3 823.64,-393.28"/>
<polygon fill="#63b8ff" stroke="#63b8ff" points="824.71,-474.08 820.75,-483.9 829.97,-478.69 824.71,-474.08"/>
</a>
</g>
</g>
<!-- Node20 -->
<g id="Node000020" class="node">
<title>Node20</title>
<g id="a_Node000020"><a xlink:href="_null_return_handler_8h.html" target="_top" xlink:title=" ">
<polygon fill="white" stroke="#666666" points="835.5,-448 686.5,-448 686.5,-429 835.5,-429 835.5,-448"/>
<text text-anchor="middle" x="761" y="-436" font-family="Helvetica,sans-Serif" font-size="10.00">Cpl/Itc/NullReturnHandler.h</text>
</a>
</g>
</g>
<!-- Node1&#45;&gt;Node20 -->
<g id="edge24_Node000001_Node000020" class="edge">
<title>Node1&#45;&gt;Node20</title>
<g id="a_edge24_Node000001_Node000020"><a xlink:title=" ">
<path fill="none" stroke="#63b8ff" d="M796.62,-476.52C787.63,-467.18 776.64,-455.75 769.26,-448.09"/>
<polygon fill="#63b8ff" stroke="#63b8ff" points="794.12,-478.97 803.58,-483.75 799.17,-474.12 794.12,-478.97"/>
</a>
</g>
</g>
<!-- Node21 -->
<g id="Node000021" class="node">
<title>Node21</title>
<g id="a_Node000021"><a xlink:href="_service_message_8h.html" target="_top" xlink:title=" ">
<polygon fill="white" stroke="#666666" points="668.5,-448 529.5,-448 529.5,-429 668.5,-429 668.5,-448"/>
<text text-anchor="middle" x="599" y="-436" font-family="Helvetica,sans-Serif" font-size="10.00">Cpl/Itc/ServiceMessage.h</text>
</a>
</g>
</g>
<!-- Node1&#45;&gt;Node21 -->
<g id="edge25_Node000001_Node000021" class="edge">
<title>Node1&#45;&gt;Node21</title>
<g id="a_edge25_Node000001_Node000021"><a xlink:title=" ">
<path fill="none" stroke="#63b8ff" d="M768.05,-481.56C728.16,-471.64 670.13,-457.2 633.49,-448.08"/>
<polygon fill="#63b8ff" stroke="#63b8ff" points="767.23,-484.97 777.78,-483.98 768.92,-478.17 767.23,-484.97"/>
</a>
</g>
</g>
<!-- Node25 -->
<g id="Node000025" class="node">
<title>Node25</title>
<g id="a_Node000025"><a xlink:href="_sync_return_handler_8h.html" target="_top" xlink:title=" ">
<polygon fill="white" stroke="#666666" points="1308,-332.5 1156,-332.5 1156,-313.5 1308,-313.5 1308,-332.5"/>
<text text-anchor="middle" x="1232" y="-320.5" font-family="Helvetica,sans-Serif" font-size="10.00">Cpl/Itc/SyncReturnHandler.h</text>
</a>
</g>
</g>
<!-- Node1&#45;&gt;Node25 -->
<g id="edge37_Node000001_Node000025" class="edge">
<title>Node1&#45;&gt;Node25</title>
<g id="a_edge37_Node000001_Node000025"><a xlink:title=" ">
<path fill="none" stroke="#63b8ff" d="M843.06,-480.04C924.31,-447.44 1141.61,-360.26 1210.64,-332.57"/>
<polygon fill="#63b8ff" stroke="#63b8ff" points="841.38,-476.94 833.41,-483.91 843.99,-483.44 841.38,-476.94"/>
</a>
</g>
</g>
<!-- Node3 -->
<g id="Node000003" class="node">
<title>Node3</title>
<g id="a_Node000003"><a xlink:href="_response_message_8h.html" target="_top" xlink:title=" ">
<polygon fill="white" stroke="#666666" points="777,-332.5 627,-332.5 627,-313.5 777,-313.5 777,-332.5"/>
<text text-anchor="middle" x="702" y="-320.5" font-family="Helvetica,sans-Serif" font-size="10.00">Cpl/Itc/ResponseMessage.h</text>
</a>
</g>
</g>
<!-- Node2&#45;&gt;Node3 -->
<g id="edge2_Node000002_Node000003" class="edge">
<title>Node2&#45;&gt;Node3</title>
<g id="a_edge2_Node000002_Node000003"><a xlink:title=" ">
<path fill="none" stroke="#63b8ff" d="M789.36,-369.23C767.72,-358.03 737.38,-342.32 718.74,-332.67"/>
<polygon fill="#63b8ff" stroke="#63b8ff" points="787.84,-372.38 798.33,-373.87 791.06,-366.16 787.84,-372.38"/>
</a>
</g>
</g>
<!-- Node4 -->
<g id="Node000004" class="node">
<title>Node4</title>
<g id="a_Node000004"><a xlink:href="_erase_request_8h.html" target="_top" xlink:title=" ">
<polygon fill="white" stroke="#666666" points="946.5,-266.5 763.5,-266.5 763.5,-247.5 946.5,-247.5 946.5,-266.5"/>
<text text-anchor="middle" x="855" y="-254.5" font-family="Helvetica,sans-Serif" font-size="10.00">Cpl/Dm/Persistent/EraseRequest.h</text>
</a>
</g>
</g>
<!-- Node3&#45;&gt;Node4 -->
<g id="edge3_Node000003_Node000004" class="edge">
<title>Node3&#45;&gt;Node4</title>
<g id="a_edge3_Node000003_Node000004"><a xlink:title=" ">
<path fill="none" stroke="#63b8ff" d="M732.22,-309.36C762.37,-296.75 807.89,-277.71 834.2,-266.7"/>
<polygon fill="#63b8ff" stroke="#63b8ff" points="730.51,-306.28 722.63,-313.37 733.21,-312.74 730.51,-306.28"/>
</a>
</g>
</g>
<!-- Node6 -->
<g id="Node000006" class="node">
<title>Node6</title>
<g id="a_Node000006"><a xlink:href="_flush_request_8h.html" target="_top" xlink:title=" ">
<polygon fill="white" stroke="#666666" points="1147,-266.5 965,-266.5 965,-247.5 1147,-247.5 1147,-266.5"/>
<text text-anchor="middle" x="1056" y="-254.5" font-family="Helvetica,sans-Serif" font-size="10.00">Cpl/Dm/Persistent/FlushRequest.h</text>
</a>
</g>
</g>
<!-- Node3&#45;&gt;Node6 -->
<g id="edge5_Node000003_Node000006" class="edge">
<title>Node3&#45;&gt;Node6</title>
<g id="a_edge5_Node000003_Node000006"><a xlink:title=" ">
<path fill="none" stroke="#63b8ff" d="M759.27,-311.65C828.7,-299.09 944.41,-278.17 1008.91,-266.51"/>
<polygon fill="#63b8ff" stroke="#63b8ff" points="758.59,-308.21 749.37,-313.44 759.84,-315.1 758.59,-308.21"/>
</a>
</g>
</g>
<!-- Node7 -->
<g id="Node000007" class="node">
<title>Node7</title>
<g id="a_Node000007"><a xlink:href="_atomic_request_8h.html" target="_top" xlink:title=" ">
<polygon fill="white" stroke="#666666" points="1299,-266.5 1165,-266.5 1165,-247.5 1299,-247.5 1299,-266.5"/>
<text text-anchor="middle" x="1232" y="-254.5" font-family="Helvetica,sans-Serif" font-size="10.00">Cpl/Itc/AtomicRequest.h</text>
</a>
</g>
</g>
<!-- Node3&#45;&gt;Node7 -->
<g id="edge7_Node000003_Node000007" class="edge">
<title>Node3&#45;&gt;Node7</title>
<g id="a_edge7_Node000003_Node000007"><a xlink:title=" ">
<path fill="none" stroke="#63b8ff" d="M787.36,-314.46C878.79,-305.95 1028.02,-290.81 1156,-272 1166.62,-270.44 1178.02,-268.49 1188.68,-266.54"/>
<polygon fill="#63b8ff" stroke="#63b8ff" points="786.96,-310.98 777.32,-315.39 787.6,-317.95 786.96,-310.98"/>
</a>
</g>
</g>
<!-- Node9 -->
<g id="Node000009" class="node">
<title>Node9</title>
<g id="a_Node000009"><a xlink:href="_close_request_8h.html" target="_top" xlink:title=" ">
<polygon fill="white" stroke="#666666" points="607,-266.5 481,-266.5 481,-247.5 607,-247.5 607,-266.5"/>
<text text-anchor="middle" x="544" y="-254.5" font-family="Helvetica,sans-Serif" font-size="10.00">Cpl/Itc/CloseRequest.h</text>
</a>
</g>
</g>
<!-- Node3&#45;&gt;Node9 -->
<g id="edge9_Node000003_Node000009" class="edge">
<title>Node3&#45;&gt;Node9</title>
<g id="a_edge9_Node000003_Node000009"><a xlink:title=" ">
<path fill="none" stroke="#63b8ff" d="M671.17,-309.51C639.94,-296.86 592.47,-277.63 565.22,-266.6"/>
<polygon fill="#63b8ff" stroke="#63b8ff" points="670.11,-312.86 680.69,-313.37 672.74,-306.37 670.11,-312.86"/>
</a>
</g>
</g>
<!-- Node16 -->
<g id="Node000016" class="node">
<title>Node16</title>
<g id="a_Node000016"><a xlink:href="_open_request_8h.html" target="_top" xlink:title=" ">
<polygon fill="white" stroke="#666666" points="462.5,-266.5 337.5,-266.5 337.5,-247.5 462.5,-247.5 462.5,-266.5"/>
<text text-anchor="middle" x="400" y="-254.5" font-family="Helvetica,sans-Serif" font-size="10.00">Cpl/Itc/OpenRequest.h</text>
</a>
</g>
</g>
<!-- Node3&#45;&gt;Node16 -->
<g id="edge17_Node000003_Node000016" class="edge">
<title>Node3&#45;&gt;Node16</title>
<g id="a_edge17_Node000003_Node000016"><a xlink:title=" ">
<path fill="none" stroke="#63b8ff" d="M651.68,-311.34C592.29,-298.75 494.75,-278.08 440.18,-266.51"/>
<polygon fill="#63b8ff" stroke="#63b8ff" points="651.08,-314.79 661.58,-313.44 652.53,-307.94 651.08,-314.79"/>
</a>
</g>
</g>
<!-- Node18 -->
<g id="Node000018" class="node">
<title>Node18</title>
<g id="a_Node000018"><a xlink:href="_requests_8h.html" target="_top" xlink:title=" ">
<polygon fill="white" stroke="#666666" points="745,-266.5 625,-266.5 625,-247.5 745,-247.5 745,-266.5"/>
<text text-anchor="middle" x="685" y="-254.5" font-family="Helvetica,sans-Serif" font-size="10.00">Cpl/MApp/Requests.h</text>
</a>
</g>
</g>
<!-- Node3&#45;&gt;Node18 -->
<g id="edge20_Node000003_Node000018" class="edge">
<title>Node3&#45;&gt;Node18</title>
<g id="a_edge20_Node000003_Node000018"><a xlink:title=" ">
<path fill="none" stroke="#63b8ff" d="M697.07,-303.45C693.88,-291.43 689.87,-276.32 687.37,-266.91"/>
<polygon fill="#63b8ff" stroke="#63b8ff" points="693.76,-304.6 699.71,-313.37 700.52,-302.81 693.76,-304.6"/>
</a>
</g>
</g>
<!-- Node19 -->
<g id="Node000019" class="node">
<title>Node19</title>
<g id="a_Node000019"><a xlink:href="_indexed_entry_requests_8h.html" target="_top" xlink:title=" ">
<polygon fill="white" stroke="#666666" points="319.5,-272 168.5,-272 168.5,-242 319.5,-242 319.5,-272"/>
<text text-anchor="start" x="176.5" y="-260" font-family="Helvetica,sans-Serif" font-size="10.00">Cpl/Persistent/IndexedEntry</text>
<text text-anchor="middle" x="244" y="-249" font-family="Helvetica,sans-Serif" font-size="10.00">Requests.h</text>
</a>
</g>
</g>
<!-- Node3&#45;&gt;Node19 -->
<g id="edge22_Node000003_Node000019" class="edge">
<title>Node3&#45;&gt;Node19</title>
<g id="a_edge22_Node000003_Node000019"><a xlink:title=" ">
<path fill="none" stroke="#63b8ff" d="M623.37,-312.24C547.62,-302.65 429.83,-287.29 328,-272 325.22,-271.58 322.39,-271.15 319.54,-270.71"/>
<polygon fill="#63b8ff" stroke="#63b8ff" points="622.96,-315.71 633.32,-313.49 623.83,-308.77 622.96,-315.71"/>
</a>
</g>
</g>
<!-- Node5 -->
<g id="Node000005" class="node">
<title>Node5</title>
<g id="a_Node000005"><a xlink:href="_dm_2_persistent_2_record_8h.html" target="_top" xlink:title=" ">
<polygon fill="white" stroke="#666666" points="930,-24.5 780,-24.5 780,-5.5 930,-5.5 930,-24.5"/>
<text text-anchor="middle" x="855" y="-12.5" font-family="Helvetica,sans-Serif" font-size="10.00">Cpl/Dm/Persistent/Record.h</text>
</a>
</g>
</g>
<!-- Node4&#45;&gt;Node5 -->
<g id="edge4_Node000004_Node000005" class="edge">
<title>Node4&#45;&gt;Node5</title>
<g id="a_edge4_Node000004_Node000005"><a xlink:title=" ">
<path fill="none" stroke="#63b8ff" d="M855,-237.43C855,-188.86 855,-59.44 855,-24.69"/>
<polygon fill="#63b8ff" stroke="#63b8ff" points="851.5,-237.46 855,-247.46 858.5,-237.46 851.5,-237.46"/>
</a>
</g>
</g>
<!-- Node6&#45;&gt;Node5 -->
<g id="edge6_Node000006_Node000005" class="edge">
<title>Node6&#45;&gt;Node5</title>
<g id="a_edge6_Node000006_Node000005"><a xlink:title=" ">
<path fill="none" stroke="#63b8ff" d="M1042.2,-239.52C1002.99,-192.7 891.81,-59.95 862.28,-24.69"/>
<polygon fill="#63b8ff" stroke="#63b8ff" points="1039.74,-242.04 1048.85,-247.46 1045.11,-237.54 1039.74,-242.04"/>
</a>
</g>
</g>
<!-- Node8 -->
<g id="Node000008" class="node">
<title>Node8</title>
<g id="a_Node000008"><a xlink:href="_atomic_sync_8h.html" target="_top" xlink:title=" ">
<polygon fill="white" stroke="#666666" points="1337.5,-206 1220.5,-206 1220.5,-187 1337.5,-187 1337.5,-206"/>
<text text-anchor="middle" x="1279" y="-194" font-family="Helvetica,sans-Serif" font-size="10.00">Cpl/Itc/AtomicSync.h</text>
</a>
</g>
</g>
<!-- Node7&#45;&gt;Node8 -->
<g id="edge8_Node000007_Node000008" class="edge">
<title>Node7&#45;&gt;Node8</title>
<g id="a_edge8_Node000007_Node000008"><a xlink:title=" ">
<path fill="none" stroke="#63b8ff" d="M1245.3,-239.45C1254,-228.62 1265.01,-214.91 1272.04,-206.17"/>
<polygon fill="#63b8ff" stroke="#63b8ff" points="1242.47,-237.38 1238.94,-247.37 1247.93,-241.76 1242.47,-237.38"/>
</a>
</g>
</g>
<!-- Node10 -->
<g id="Node000010" class="node">
<title>Node10</title>
<g id="a_Node000010"><a xlink:href="_close_sync_8h.html" target="_top" xlink:title=" ">
<polygon fill="white" stroke="#666666" points="511,-151 401,-151 401,-132 511,-132 511,-151"/>
<text text-anchor="middle" x="456" y="-139" font-family="Helvetica,sans-Serif" font-size="10.00">Cpl/Itc/CloseSync.h</text>
</a>
</g>
</g>
<!-- Node9&#45;&gt;Node10 -->
<g id="edge10_Node000009_Node000010" class="edge">
<title>Node9&#45;&gt;Node10</title>
<g id="a_edge10_Node000009_Node000010"><a xlink:title=" ">
<path fill="none" stroke="#63b8ff" d="M531.18,-239.46C512.2,-214.98 477.29,-169.96 462.69,-151.13"/>
<polygon fill="#63b8ff" stroke="#63b8ff" points="528.49,-241.71 537.39,-247.47 534.02,-237.42 528.49,-241.71"/>
</a>
</g>
</g>
<!-- Node11 -->
<g id="Node000011" class="node">
<title>Node11</title>
<g id="a_Node000011"><a xlink:href="_log_sink_8h.html" target="_top" xlink:title=" ">
<polygon fill="white" stroke="#666666" points="462,-90.5 338,-90.5 338,-71.5 462,-71.5 462,-90.5"/>
<text text-anchor="middle" x="400" y="-78.5" font-family="Helvetica,sans-Serif" font-size="10.00">Cpl/Logging/LogSink.h</text>
</a>
</g>
</g>
<!-- Node10&#45;&gt;Node11 -->
<g id="edge11_Node000010_Node000011" class="edge">
<title>Node10&#45;&gt;Node11</title>
<g id="a_edge11_Node000010_Node000011"><a xlink:title=" ">
<path fill="none" stroke="#63b8ff" d="M440.77,-124.59C430.31,-113.67 416.83,-99.58 408.3,-90.67"/>
<polygon fill="#63b8ff" stroke="#63b8ff" points="438.29,-127.06 447.74,-131.87 443.35,-122.22 438.29,-127.06"/>
</a>
</g>
</g>
<!-- Node12 -->
<g id="Node000012" class="node">
<title>Node12</title>
<g id="a_Node000012"><a xlink:href="_manager_8h.html" target="_top" xlink:title=" ">
<polygon fill="white" stroke="#666666" points="776.5,-90.5 659.5,-90.5 659.5,-71.5 776.5,-71.5 776.5,-90.5"/>
<text text-anchor="middle" x="718" y="-78.5" font-family="Helvetica,sans-Serif" font-size="10.00">Cpl/MApp/Manager.h</text>
</a>
</g>
</g>
<!-- Node10&#45;&gt;Node12 -->
<g id="edge12_Node000010_Node000012" class="edge">
<title>Node10&#45;&gt;Node12</title>
<g id="a_edge12_Node000010_Node000012"><a xlink:title=" ">
<path fill="none" stroke="#63b8ff" d="M504.14,-129.75C554.75,-118.45 633.36,-100.9 679.86,-90.52"/>
<polygon fill="#63b8ff" stroke="#63b8ff" points="503.09,-126.4 494.1,-131.99 504.62,-133.23 503.09,-126.4"/>
</a>
</g>
</g>
<!-- Node13 -->
<g id="Node000013" class="node">
<title>Node13</title>
<g id="a_Node000013"><a xlink:href="_indexed_entry_server_8h.html" target="_top" xlink:title=" ">
<polygon fill="white" stroke="#666666" points="319.5,-96 168.5,-96 168.5,-66 319.5,-66 319.5,-96"/>
<text text-anchor="start" x="176.5" y="-84" font-family="Helvetica,sans-Serif" font-size="10.00">Cpl/Persistent/IndexedEntry</text>
<text text-anchor="middle" x="244" y="-73" font-family="Helvetica,sans-Serif" font-size="10.00">Server.h</text>
</a>
</g>
</g>
<!-- Node10&#45;&gt;Node13 -->
<g id="edge13_Node000010_Node000013" class="edge">
<title>Node10&#45;&gt;Node13</title>
<g id="a_edge13_Node000010_Node000013"><a xlink:title=" ">
<path fill="none" stroke="#63b8ff" d="M415.49,-129.32C381.21,-119.86 331.92,-106.26 294.97,-96.06"/>
<polygon fill="#63b8ff" stroke="#63b8ff" points="414.6,-132.71 425.17,-131.99 416.46,-125.96 414.6,-132.71"/>
</a>
</g>
</g>
<!-- Node15 -->
<g id="Node000015" class="node">
<title>Node15</title>
<g id="a_Node000015"><a xlink:href="_record_server_8h.html" target="_top" xlink:title=" ">
<polygon fill="white" stroke="#666666" points="641.5,-90.5 480.5,-90.5 480.5,-71.5 641.5,-71.5 641.5,-90.5"/>
<text text-anchor="middle" x="561" y="-78.5" font-family="Helvetica,sans-Serif" font-size="10.00">Cpl/Persistent/RecordServer.h</text>
</a>
</g>
</g>
<!-- Node10&#45;&gt;Node15 -->
<g id="edge15_Node000010_Node000015" class="edge">
<title>Node10&#45;&gt;Node15</title>
<g id="a_edge15_Node000010_Node000015"><a xlink:title=" ">
<path fill="none" stroke="#63b8ff" d="M480.37,-126.92C500.43,-115.74 528.28,-100.23 545.44,-90.67"/>
<polygon fill="#63b8ff" stroke="#63b8ff" points="478.53,-123.94 471.49,-131.87 481.93,-130.06 478.53,-123.94"/>
</a>
</g>
</g>
<!-- Node14 -->
<g id="Node000014" class="node">
<title>Node14</title>
<g id="a_Node000014"><a xlink:href="_log_8h.html" target="_top" xlink:title=" ">
<polygon fill="white" stroke="#666666" points="297.5,-30 190.5,-30 190.5,0 297.5,0 297.5,-30"/>
<text text-anchor="start" x="198.5" y="-18" font-family="Helvetica,sans-Serif" font-size="10.00">Cpl/Logging/TShell</text>
<text text-anchor="middle" x="244" y="-7" font-family="Helvetica,sans-Serif" font-size="10.00">/Log.h</text>
</a>
</g>
</g>
<!-- Node13&#45;&gt;Node14 -->
<g id="edge14_Node000013_Node000014" class="edge">
<title>Node13&#45;&gt;Node14</title>
<g id="a_edge14_Node000013_Node000014"><a xlink:title=" ">
<path fill="none" stroke="#63b8ff" d="M244,-55.54C244,-46.96 244,-37.61 244,-30.16"/>
<polygon fill="#63b8ff" stroke="#63b8ff" points="240.5,-55.8 244,-65.8 247.5,-55.8 240.5,-55.8"/>
</a>
</g>
</g>
<!-- Node15&#45;&gt;Node5 -->
<g id="edge16_Node000015_Node000005" class="edge">
<title>Node15&#45;&gt;Node5</title>
<g id="a_edge16_Node000015_Node000005"><a xlink:title=" ">
<path fill="none" stroke="#63b8ff" d="M610.35,-69.26C668.19,-56.67 762.87,-36.06 815.89,-24.51"/>
<polygon fill="#63b8ff" stroke="#63b8ff" points="609.37,-65.89 600.35,-71.44 610.86,-72.73 609.37,-65.89"/>
</a>
</g>
</g>
<!-- Node17 -->
<g id="Node000017" class="node">
<title>Node17</title>
<g id="a_Node000017"><a xlink:href="_open_sync_8h.html" target="_top" xlink:title=" ">
<polygon fill="white" stroke="#666666" points="469,-206 361,-206 361,-187 469,-187 469,-206"/>
<text text-anchor="middle" x="415" y="-194" font-family="Helvetica,sans-Serif" font-size="10.00">Cpl/Itc/OpenSync.h</text>
</a>
</g>
</g>
<!-- Node16&#45;&gt;Node17 -->
<g id="edge18_Node000016_Node000017" class="edge">
<title>Node16&#45;&gt;Node17</title>
<g id="a_edge18_Node000016_Node000017"><a xlink:title=" ">
<path fill="none" stroke="#63b8ff" d="M404.75,-237.49C407.43,-227.01 410.67,-214.39 412.78,-206.17"/>
<polygon fill="#63b8ff" stroke="#63b8ff" points="401.31,-236.81 402.21,-247.37 408.09,-238.55 401.31,-236.81"/>
</a>
</g>
</g>
<!-- Node17&#45;&gt;Node10 -->
<g id="edge19_Node000017_Node000010" class="edge">
<title>Node17&#45;&gt;Node10</title>
<g id="a_edge19_Node000017_Node000010"><a xlink:title=" ">
<path fill="none" stroke="#63b8ff" d="M428.02,-178.67C435.12,-169.5 443.6,-158.52 449.36,-151.09"/>
<polygon fill="#63b8ff" stroke="#63b8ff" points="425.12,-176.7 421.77,-186.75 430.66,-180.98 425.12,-176.7"/>
</a>
</g>
</g>
<!-- Node18&#45;&gt;Node12 -->
<g id="edge21_Node000018_Node000012" class="edge">
<title>Node18&#45;&gt;Node12</title>
<g id="a_edge21_Node000018_Node000012"><a xlink:title=" ">
<path fill="none" stroke="#63b8ff" d="M688.59,-237.06C695.69,-199.62 711.28,-117.45 716.36,-90.64"/>
<polygon fill="#63b8ff" stroke="#63b8ff" points="685.11,-236.66 686.68,-247.13 691.98,-237.96 685.11,-236.66"/>
</a>
</g>
</g>
<!-- Node19&#45;&gt;Node13 -->
<g id="edge23_Node000019_Node000013" class="edge">
<title>Node19&#45;&gt;Node13</title>
<g id="a_edge23_Node000019_Node000013"><a xlink:title=" ">
<path fill="none" stroke="#63b8ff" d="M244,-231.42C244,-194.57 244,-126.18 244,-96.44"/>
<polygon fill="#63b8ff" stroke="#63b8ff" points="240.5,-231.76 244,-241.76 247.5,-231.76 240.5,-231.76"/>
</a>
</g>
</g>
<!-- Node22 -->
<g id="Node000022" class="node">
<title>Node22</title>
<g id="a_Node000022"><a xlink:href="_request_message_8h.html" target="_top" xlink:title=" ">
<polygon fill="white" stroke="#666666" points="670.5,-393 527.5,-393 527.5,-374 670.5,-374 670.5,-393"/>
<text text-anchor="middle" x="599" y="-381" font-family="Helvetica,sans-Serif" font-size="10.00">Cpl/Itc/RequestMessage.h</text>
</a>
</g>
</g>
<!-- Node21&#45;&gt;Node22 -->
<g id="edge26_Node000021_Node000022" class="edge">
<title>Node21&#45;&gt;Node22</title>
<g id="a_edge26_Node000021_Node000022"><a xlink:title=" ">
<path fill="none" stroke="#63b8ff" d="M599,-418.66C599,-409.93 599,-399.99 599,-393.09"/>
<polygon fill="#63b8ff" stroke="#63b8ff" points="595.5,-418.75 599,-428.75 602.5,-418.75 595.5,-418.75"/>
</a>
</g>
</g>
<!-- Node22&#45;&gt;Node3 -->
<g id="edge34_Node000022_Node000003" class="edge">
<title>Node22&#45;&gt;Node3</title>
<g id="a_edge34_Node000022_Node000003"><a xlink:title=" ">
<path fill="none" stroke="#63b8ff" d="M622.9,-368.92C642.59,-357.74 669.9,-342.23 686.74,-332.67"/>
<polygon fill="#63b8ff" stroke="#63b8ff" points="621.16,-365.89 614.2,-373.87 624.62,-371.97 621.16,-365.89"/>
</a>
</g>
</g>
<!-- Node22&#45;&gt;Node4 -->
<g id="edge27_Node000022_Node000004" class="edge">
<title>Node22&#45;&gt;Node4</title>
<g id="a_edge27_Node000022_Node000004"><a xlink:title=" ">
<path fill="none" stroke="#63b8ff" d="M680.94,-374.3C715.28,-368.09 754.47,-357.17 786,-338 816.4,-319.51 840.35,-283.1 850.17,-266.55"/>
<polygon fill="#63b8ff" stroke="#63b8ff" points="680.2,-370.87 670.93,-376 681.37,-377.77 680.2,-370.87"/>
</a>
</g>
</g>
<!-- Node22&#45;&gt;Node6 -->
<g id="edge28_Node000022_Node000006" class="edge">
<title>Node22&#45;&gt;Node6</title>
<g id="a_edge28_Node000022_Node000006"><a xlink:title=" ">
<path fill="none" stroke="#63b8ff" d="M659.31,-372.13C703.1,-364.12 763.62,-352.05 816,-338 897.24,-316.21 991.23,-282.26 1033.44,-266.53"/>
<polygon fill="#63b8ff" stroke="#63b8ff" points="658.6,-368.7 649.39,-373.93 659.85,-375.59 658.6,-368.7"/>
</a>
</g>
</g>
<!-- Node22&#45;&gt;Node7 -->
<g id="edge31_Node000022_Node000007" class="edge">
<title>Node22&#45;&gt;Node7</title>
<g id="a_edge31_Node000022_Node000007"><a xlink:title=" ">
<path fill="none" stroke="#63b8ff" d="M669.08,-372.46C725.21,-364.13 805.87,-351.5 876,-338 994.5,-315.19 1133.77,-282.03 1197.28,-266.55"/>
<polygon fill="#63b8ff" stroke="#63b8ff" points="668.28,-369.05 658.89,-373.97 669.3,-375.97 668.28,-369.05"/>
</a>
</g>
</g>
<!-- Node22&#45;&gt;Node9 -->
<g id="edge32_Node000022_Node000009" class="edge">
<title>Node22&#45;&gt;Node9</title>
<g id="a_edge32_Node000022_Node000009"><a xlink:title=" ">
<path fill="none" stroke="#63b8ff" d="M591.03,-364.46C579.01,-337.26 556.7,-286.76 547.81,-266.62"/>
<polygon fill="#63b8ff" stroke="#63b8ff" points="587.98,-366.21 595.22,-373.94 594.38,-363.38 587.98,-366.21"/>
</a>
</g>
</g>
<!-- Node22&#45;&gt;Node16 -->
<g id="edge33_Node000022_Node000016" class="edge">
<title>Node22&#45;&gt;Node16</title>
<g id="a_edge33_Node000022_Node000016"><a xlink:title=" ">
<path fill="none" stroke="#63b8ff" d="M576.77,-368.59C535.39,-342.7 447.67,-287.83 413.77,-266.62"/>
<polygon fill="#63b8ff" stroke="#63b8ff" points="574.99,-371.61 585.32,-373.94 578.7,-365.67 574.99,-371.61"/>
</a>
</g>
</g>
<!-- Node22&#45;&gt;Node18 -->
<g id="edge35_Node000022_Node000018" class="edge">
<title>Node22&#45;&gt;Node18</title>
<g id="a_edge35_Node000022_Node000018"><a xlink:title=" ">
<path fill="none" stroke="#63b8ff" d="M600.3,-363.73C602.18,-347.75 606.77,-324.78 618,-308 630.43,-289.42 652.15,-275.1 667.49,-266.64"/>
<polygon fill="#63b8ff" stroke="#63b8ff" points="596.79,-363.66 599.36,-373.94 603.76,-364.3 596.79,-363.66"/>
</a>
</g>
</g>
<!-- Node22&#45;&gt;Node19 -->
<g id="edge36_Node000022_Node000019" class="edge">
<title>Node22&#45;&gt;Node19</title>
<g id="a_edge36_Node000022_Node000019"><a xlink:title=" ">
<path fill="none" stroke="#63b8ff" d="M565.11,-370.61C499.31,-347.54 354.54,-296.77 284.09,-272.06"/>
<polygon fill="#63b8ff" stroke="#63b8ff" points="564,-373.94 574.6,-373.94 566.32,-367.33 564,-373.94"/>
</a>
</g>
</g>
<!-- Node23 -->
<g id="Node000023" class="node">
<title>Node23</title>
<g id="a_Node000023"><a xlink:href="_listener_client_request_8h.html" target="_top" xlink:title=" ">
<polygon fill="white" stroke="#666666" points="253,-338 103,-338 103,-308 253,-308 253,-338"/>
<text text-anchor="start" x="111" y="-326" font-family="Helvetica,sans-Serif" font-size="10.00">Cpl/Io/Socket/ListenerClient</text>
<text text-anchor="middle" x="178" y="-315" font-family="Helvetica,sans-Serif" font-size="10.00">Request.h</text>
</a>
</g>
</g>
<!-- Node22&#45;&gt;Node23 -->
<g id="edge29_Node000022_Node000023" class="edge">
<title>Node22&#45;&gt;Node23</title>
<g id="a_edge29_Node000022_Node000023"><a xlink:title=" ">
<path fill="none" stroke="#63b8ff" d="M527.78,-372.6C451.5,-362 330.94,-345.25 253.17,-334.44"/>
<polygon fill="#63b8ff" stroke="#63b8ff" points="527.4,-376.08 537.78,-373.99 528.36,-369.15 527.4,-376.08"/>
</a>
</g>
</g>
<!-- Node24 -->
<g id="Node000024" class="node">
<title>Node24</title>
<g id="a_Node000024"><a xlink:href="_listener_client_sync_8h.html" target="_top" xlink:title=" ">
<polygon fill="white" stroke="#666666" points="150,-272 0,-272 0,-242 150,-242 150,-272"/>
<text text-anchor="start" x="8" y="-260" font-family="Helvetica,sans-Serif" font-size="10.00">Cpl/Io/Socket/ListenerClient</text>
<text text-anchor="middle" x="75" y="-249" font-family="Helvetica,sans-Serif" font-size="10.00">Sync.h</text>
</a>
</g>
</g>
<!-- Node23&#45;&gt;Node24 -->
<g id="edge30_Node000023_Node000024" class="edge">
<title>Node23&#45;&gt;Node24</title>
<g id="a_edge30_Node000023_Node000024"><a xlink:title=" ">
<path fill="none" stroke="#63b8ff" d="M146.49,-302.42C130.68,-292.6 111.9,-280.93 97.55,-272.01"/>
<polygon fill="#63b8ff" stroke="#63b8ff" points="145.06,-305.65 155.4,-307.95 148.75,-299.7 145.06,-305.65"/>
</a>
</g>
</g>
<!-- Node25&#45;&gt;Node7 -->
<g id="edge38_Node000025_Node000007" class="edge">
<title>Node25&#45;&gt;Node7</title>
<g id="a_edge38_Node000025_Node000007"><a xlink:title=" ">
<path fill="none" stroke="#63b8ff" d="M1232,-303.08C1232,-291.13 1232,-276.22 1232,-266.91"/>
<polygon fill="#63b8ff" stroke="#63b8ff" points="1228.5,-303.37 1232,-313.37 1235.5,-303.37 1228.5,-303.37"/>
</a>
</g>
</g>
<!-- Node25&#45;&gt;Node8 -->
<g id="edge39_Node000025_Node000008" class="edge">
<title>Node25&#45;&gt;Node8</title>
<g id="a_edge39_Node000025_Node000008"><a xlink:title=" ">
<path fill="none" stroke="#63b8ff" d="M1265.14,-309.19C1281.15,-301.12 1298.85,-288.97 1308,-272 1320.25,-249.28 1299.39,-220.24 1287.07,-206.07"/>
<polygon fill="#63b8ff" stroke="#63b8ff" points="1263.55,-306.07 1255.98,-313.48 1266.52,-312.41 1263.55,-306.07"/>
</a>
</g>
</g>
</g>
</svg>
