<?xml version="1.0" encoding="UTF-8" standalone="no"?>
<!DOCTYPE svg PUBLIC "-//W3C//DTD SVG 1.1//EN"
 "http://www.w3.org/Graphics/SVG/1.1/DTD/svg11.dtd">
<!-- Generated by graphviz version 2.43.0 (0)
 -->
<!-- Title: Cpl/Container/RingBufferMT.h Pages: 1 -->
<svg width="421pt" height="214pt"
 viewBox="0.00 0.00 421.00 214.00" xmlns="http://www.w3.org/2000/svg" xmlns:xlink="http://www.w3.org/1999/xlink">
<g id="graph0" class="graph" transform="scale(1 1) rotate(0) translate(4 210)">
<title>Cpl/Container/RingBufferMT.h</title>
<!-- Node1 -->
<g id="Node000001" class="node">
<title>Node1</title>
<g id="a_Node000001"><a xlink:title=" ">
<polygon fill="#999999" stroke="#666666" points="261.5,-206 101.5,-206 101.5,-187 261.5,-187 261.5,-206"/>
<text text-anchor="middle" x="181.5" y="-194" font-family="Helvetica,sans-Serif" font-size="10.00">Cpl/Container/RingBufferMT.h</text>
</a>
</g>
</g>
<!-- Node2 -->
<g id="Node000002" class="node">
<title>Node2</title>
<g id="a_Node000002"><a xlink:href="_ring_buffer_m_p_8h.html" target="_top" xlink:title=" ">
<polygon fill="white" stroke="#666666" points="261,-151 102,-151 102,-132 261,-132 261,-151"/>
<text text-anchor="middle" x="181.5" y="-139" font-family="Helvetica,sans-Serif" font-size="10.00">Cpl/Container/RingBufferMP.h</text>
</a>
</g>
</g>
<!-- Node1&#45;&gt;Node2 -->
<g id="edge1_Node000001_Node000002" class="edge">
<title>Node1&#45;&gt;Node2</title>
<g id="a_edge1_Node000001_Node000002"><a xlink:title=" ">
<path fill="none" stroke="#63b8ff" d="M181.5,-176.66C181.5,-167.93 181.5,-157.99 181.5,-151.09"/>
<polygon fill="#63b8ff" stroke="#63b8ff" points="178,-176.75 181.5,-186.75 185,-176.75 178,-176.75"/>
</a>
</g>
</g>
<!-- Node3 -->
<g id="Node000003" class="node">
<title>Node3</title>
<g id="a_Node000003"><a xlink:href="_cpl_2_logging_2_api_8h.html" target="_top" xlink:title=" ">
<polygon fill="white" stroke="#666666" points="101,-90.5 0,-90.5 0,-71.5 101,-71.5 101,-90.5"/>
<text text-anchor="middle" x="50.5" y="-78.5" font-family="Helvetica,sans-Serif" font-size="10.00">Cpl/Logging/Api.h</text>
</a>
</g>
</g>
<!-- Node2&#45;&gt;Node3 -->
<g id="edge2_Node000002_Node000003" class="edge">
<title>Node2&#45;&gt;Node3</title>
<g id="a_edge2_Node000002_Node000003"><a xlink:title=" ">
<path fill="none" stroke="#63b8ff" d="M153.02,-127.78C127.74,-116.49 91.51,-100.31 69.57,-90.52"/>
<polygon fill="#63b8ff" stroke="#63b8ff" points="151.89,-131.11 162.45,-131.99 154.75,-124.72 151.89,-131.11"/>
</a>
</g>
</g>
<!-- Node4 -->
<g id="Node000004" class="node">
<title>Node4</title>
<g id="a_Node000004"><a xlink:href="_log_sink_8h.html" target="_top" xlink:title=" ">
<polygon fill="white" stroke="#666666" points="243.5,-90.5 119.5,-90.5 119.5,-71.5 243.5,-71.5 243.5,-90.5"/>
<text text-anchor="middle" x="181.5" y="-78.5" font-family="Helvetica,sans-Serif" font-size="10.00">Cpl/Logging/LogSink.h</text>
</a>
</g>
</g>
<!-- Node2&#45;&gt;Node4 -->
<g id="edge3_Node000002_Node000004" class="edge">
<title>Node2&#45;&gt;Node4</title>
<g id="a_edge3_Node000002_Node000004"><a xlink:title=" ">
<path fill="none" stroke="#63b8ff" d="M181.5,-121.66C181.5,-111.24 181.5,-98.8 181.5,-90.67"/>
<polygon fill="#63b8ff" stroke="#63b8ff" points="178,-121.87 181.5,-131.87 185,-121.87 178,-121.87"/>
</a>
</g>
</g>
<!-- Node5 -->
<g id="Node000005" class="node">
<title>Node5</title>
<g id="a_Node000005"><a xlink:href="_indexed_entry_server_8h.html" target="_top" xlink:title=" ">
<polygon fill="white" stroke="#666666" points="413,-96 262,-96 262,-66 413,-66 413,-96"/>
<text text-anchor="start" x="270" y="-84" font-family="Helvetica,sans-Serif" font-size="10.00">Cpl/Persistent/IndexedEntry</text>
<text text-anchor="middle" x="337.5" y="-73" font-family="Helvetica,sans-Serif" font-size="10.00">Server.h</text>
</a>
</g>
</g>
<!-- Node2&#45;&gt;Node5 -->
<g id="edge4_Node000002_Node000005" class="edge">
<title>Node2&#45;&gt;Node5</title>
<g id="a_edge4_Node000002_Node000005"><a xlink:title=" ">
<path fill="none" stroke="#63b8ff" d="M213.61,-128.46C238.7,-119.05 273.62,-105.95 300,-96.06"/>
<polygon fill="#63b8ff" stroke="#63b8ff" points="212.32,-125.21 204.18,-131.99 214.78,-131.76 212.32,-125.21"/>
</a>
</g>
</g>
<!-- Node6 -->
<g id="Node000006" class="node">
<title>Node6</title>
<g id="a_Node000006"><a xlink:href="_log_8h.html" target="_top" xlink:title=" ">
<polygon fill="white" stroke="#666666" points="391,-30 284,-30 284,0 391,0 391,-30"/>
<text text-anchor="start" x="292" y="-18" font-family="Helvetica,sans-Serif" font-size="10.00">Cpl/Logging/TShell</text>
<text text-anchor="middle" x="337.5" y="-7" font-family="Helvetica,sans-Serif" font-size="10.00">/Log.h</text>
</a>
</g>
</g>
<!-- Node5&#45;&gt;Node6 -->
<g id="edge5_Node000005_Node000006" class="edge">
<title>Node5&#45;&gt;Node6</title>
<g id="a_edge5_Node000005_Node000006"><a xlink:title=" ">
<path fill="none" stroke="#63b8ff" d="M337.5,-55.54C337.5,-46.96 337.5,-37.61 337.5,-30.16"/>
<polygon fill="#63b8ff" stroke="#63b8ff" points="334,-55.8 337.5,-65.8 341,-55.8 334,-55.8"/>
</a>
</g>
</g>
</g>
</svg>
