<?xml version="1.0" encoding="UTF-8" standalone="no"?>
<!DOCTYPE svg PUBLIC "-//W3C//DTD SVG 1.1//EN"
 "http://www.w3.org/Graphics/SVG/1.1/DTD/svg11.dtd">
<!-- Generated by graphviz version 2.43.0 (0)
 -->
<!-- Title: Cpl/System/Runnable.h Pages: 1 -->
<svg width="2421pt" height="401pt"
 viewBox="0.00 0.00 2420.50 401.00" xmlns="http://www.w3.org/2000/svg" xmlns:xlink="http://www.w3.org/1999/xlink">
<g id="graph0" class="graph" transform="scale(1 1) rotate(0) translate(4 397)">
<title>Cpl/System/Runnable.h</title>
<!-- Node1 -->
<g id="Node000001" class="node">
<title>Node1</title>
<g id="a_Node000001"><a xlink:title=" ">
<polygon fill="#999999" stroke="#666666" points="821.5,-393 691.5,-393 691.5,-374 821.5,-374 821.5,-393"/>
<text text-anchor="middle" x="756.5" y="-381" font-family="Helvetica,sans-Serif" font-size="10.00">Cpl/System/Runnable.h</text>
</a>
</g>
</g>
<!-- Node2 -->
<g id="Node000002" class="node">
<title>Node2</title>
<g id="a_Node000002"><a xlink:href="_listener_8h.html" target="_top" xlink:title=" ">
<polygon fill="white" stroke="#666666" points="472.5,-338 342.5,-338 342.5,-319 472.5,-319 472.5,-338"/>
<text text-anchor="middle" x="407.5" y="-326" font-family="Helvetica,sans-Serif" font-size="10.00">Cpl/Io/Socket/Listener.h</text>
</a>
</g>
</g>
<!-- Node1&#45;&gt;Node2 -->
<g id="edge1_Node000001_Node000002" class="edge">
<title>Node1&#45;&gt;Node2</title>
<g id="a_edge1_Node000001_Node000002"><a xlink:title=" ">
<path fill="none" stroke="#63b8ff" d="M690.21,-372.43C624.68,-362.48 525.51,-347.42 463.72,-338.04"/>
<polygon fill="#63b8ff" stroke="#63b8ff" points="690.01,-375.94 700.43,-373.98 691.07,-369.02 690.01,-375.94"/>
</a>
</g>
</g>
<!-- Node9 -->
<g id="Node000009" class="node">
<title>Node9</title>
<g id="a_Node000009"><a xlink:href="_system_2_event_loop_8h.html" target="_top" xlink:title=" ">
<polygon fill="white" stroke="#666666" points="824,-338 689,-338 689,-319 824,-319 824,-338"/>
<text text-anchor="middle" x="756.5" y="-326" font-family="Helvetica,sans-Serif" font-size="10.00">Cpl/System/EventLoop.h</text>
</a>
</g>
</g>
<!-- Node1&#45;&gt;Node9 -->
<g id="edge9_Node000001_Node000009" class="edge">
<title>Node1&#45;&gt;Node9</title>
<g id="a_edge9_Node000001_Node000009"><a xlink:title=" ">
<path fill="none" stroke="#63b8ff" d="M756.5,-363.66C756.5,-354.93 756.5,-344.99 756.5,-338.09"/>
<polygon fill="#63b8ff" stroke="#63b8ff" points="753,-363.75 756.5,-373.75 760,-363.75 753,-363.75"/>
</a>
</g>
</g>
<!-- Node56 -->
<g id="Node000056" class="node">
<title>Node56</title>
<g id="a_Node000056"><a xlink:href="_thread_8h.html" target="_top" xlink:title=" ">
<polygon fill="white" stroke="#666666" points="1403.5,-338 1285.5,-338 1285.5,-319 1403.5,-319 1403.5,-338"/>
<text text-anchor="middle" x="1344.5" y="-326" font-family="Helvetica,sans-Serif" font-size="10.00">Cpl/System/Thread.h</text>
</a>
</g>
</g>
<!-- Node1&#45;&gt;Node56 -->
<g id="edge41_Node000001_Node000056" class="edge">
<title>Node1&#45;&gt;Node56</title>
<g id="a_edge41_Node000001_Node000056"><a xlink:title=" ">
<path fill="none" stroke="#63b8ff" d="M831.74,-375.72C950.15,-365.05 1177.54,-344.55 1285.2,-334.84"/>
<polygon fill="#63b8ff" stroke="#63b8ff" points="831.32,-372.24 821.67,-376.63 831.95,-379.21 831.32,-372.24"/>
</a>
</g>
</g>
<!-- Node3 -->
<g id="Node000003" class="node">
<title>Node3</title>
<g id="a_Node000003"><a xlink:href="_listener_client_request_8h.html" target="_top" xlink:title=" ">
<polygon fill="white" stroke="#666666" points="265.5,-283 115.5,-283 115.5,-253 265.5,-253 265.5,-283"/>
<text text-anchor="start" x="123.5" y="-271" font-family="Helvetica,sans-Serif" font-size="10.00">Cpl/Io/Socket/ListenerClient</text>
<text text-anchor="middle" x="190.5" y="-260" font-family="Helvetica,sans-Serif" font-size="10.00">Request.h</text>
</a>
</g>
</g>
<!-- Node2&#45;&gt;Node3 -->
<g id="edge2_Node000002_Node000003" class="edge">
<title>Node2&#45;&gt;Node3</title>
<g id="a_edge2_Node000002_Node000003"><a xlink:title=" ">
<path fill="none" stroke="#63b8ff" d="M366.03,-316.32C330.95,-306.86 280.49,-293.26 242.67,-283.06"/>
<polygon fill="#63b8ff" stroke="#63b8ff" points="365.38,-319.77 375.95,-318.99 367.2,-313.01 365.38,-319.77"/>
</a>
</g>
</g>
<!-- Node4 -->
<g id="Node000004" class="node">
<title>Node4</title>
<g id="a_Node000004"><a xlink:href="_listener_client_sync_8h.html" target="_top" xlink:title=" ">
<polygon fill="white" stroke="#666666" points="241.5,-217 91.5,-217 91.5,-187 241.5,-187 241.5,-217"/>
<text text-anchor="start" x="99.5" y="-205" font-family="Helvetica,sans-Serif" font-size="10.00">Cpl/Io/Socket/ListenerClient</text>
<text text-anchor="middle" x="166.5" y="-194" font-family="Helvetica,sans-Serif" font-size="10.00">Sync.h</text>
</a>
</g>
</g>
<!-- Node2&#45;&gt;Node4 -->
<g id="edge4_Node000002_Node000004" class="edge">
<title>Node2&#45;&gt;Node4</title>
<g id="a_edge4_Node000002_Node000004"><a xlink:title=" ">
<path fill="none" stroke="#63b8ff" d="M384.09,-313.66C357.75,-298.27 313.55,-272.94 274.5,-253 249.29,-240.13 220.13,-226.71 198.47,-217.02"/>
<polygon fill="#63b8ff" stroke="#63b8ff" points="382.54,-316.81 392.94,-318.86 386.09,-310.78 382.54,-316.81"/>
</a>
</g>
</g>
<!-- Node5 -->
<g id="Node000005" class="node">
<title>Node5</title>
<g id="a_Node000005"><a xlink:href="_listener___8h.html" target="_top" xlink:title=" ">
<polygon fill="white" stroke="#666666" points="475.5,-277.5 339.5,-277.5 339.5,-258.5 475.5,-258.5 475.5,-277.5"/>
<text text-anchor="middle" x="407.5" y="-265.5" font-family="Helvetica,sans-Serif" font-size="10.00">Cpl/Io/Socket/Listener_.h</text>
</a>
</g>
</g>
<!-- Node2&#45;&gt;Node5 -->
<g id="edge5_Node000002_Node000005" class="edge">
<title>Node2&#45;&gt;Node5</title>
<g id="a_edge5_Node000002_Node000005"><a xlink:title=" ">
<path fill="none" stroke="#63b8ff" d="M407.5,-308.66C407.5,-298.24 407.5,-285.8 407.5,-277.67"/>
<polygon fill="#63b8ff" stroke="#63b8ff" points="404,-308.87 407.5,-318.87 411,-308.87 404,-308.87"/>
</a>
</g>
</g>
<!-- Node8 -->
<g id="Node000008" class="node">
<title>Node8</title>
<g id="a_Node000008"><a xlink:href="_socket_8h.html" target="_top" xlink:title=" ">
<polygon fill="white" stroke="#666666" points="603.5,-277.5 493.5,-277.5 493.5,-258.5 603.5,-258.5 603.5,-277.5"/>
<text text-anchor="middle" x="548.5" y="-265.5" font-family="Helvetica,sans-Serif" font-size="10.00">Cpl/TShell/Socket.h</text>
</a>
</g>
</g>
<!-- Node2&#45;&gt;Node8 -->
<g id="edge8_Node000002_Node000008" class="edge">
<title>Node2&#45;&gt;Node8</title>
<g id="a_edge8_Node000002_Node000008"><a xlink:title=" ">
<path fill="none" stroke="#63b8ff" d="M437.43,-315.08C464.67,-303.78 504.15,-287.4 527.97,-277.52"/>
<polygon fill="#63b8ff" stroke="#63b8ff" points="435.9,-311.93 428,-318.99 438.58,-318.39 435.9,-311.93"/>
</a>
</g>
</g>
<!-- Node3&#45;&gt;Node4 -->
<g id="edge3_Node000003_Node000004" class="edge">
<title>Node3&#45;&gt;Node4</title>
<g id="a_edge3_Node000003_Node000004"><a xlink:title=" ">
<path fill="none" stroke="#63b8ff" d="M181.65,-243.39C178.34,-234.59 174.7,-224.86 171.81,-217.16"/>
<polygon fill="#63b8ff" stroke="#63b8ff" points="178.39,-244.66 185.17,-252.8 184.94,-242.2 178.39,-244.66"/>
</a>
</g>
</g>
<!-- Node6 -->
<g id="Node000006" class="node">
<title>Node6</title>
<g id="a_Node000006"><a xlink:href="_posix_2_listener_8h.html" target="_top" xlink:title=" ">
<polygon fill="white" stroke="#666666" points="500,-217 391,-217 391,-187 500,-187 500,-217"/>
<text text-anchor="start" x="399" y="-205" font-family="Helvetica,sans-Serif" font-size="10.00">Cpl/Io/Socket/Posix</text>
<text text-anchor="middle" x="445.5" y="-194" font-family="Helvetica,sans-Serif" font-size="10.00">/Listener.h</text>
</a>
</g>
</g>
<!-- Node5&#45;&gt;Node6 -->
<g id="edge6_Node000005_Node000006" class="edge">
<title>Node5&#45;&gt;Node6</title>
<g id="a_edge6_Node000005_Node000006"><a xlink:title=" ">
<path fill="none" stroke="#63b8ff" d="M417.82,-249.61C423.83,-239.5 431.31,-226.91 436.97,-217.36"/>
<polygon fill="#63b8ff" stroke="#63b8ff" points="414.72,-247.98 412.62,-258.37 420.74,-251.56 414.72,-247.98"/>
</a>
</g>
</g>
<!-- Node7 -->
<g id="Node000007" class="node">
<title>Node7</title>
<g id="a_Node000007"><a xlink:href="_win32_2_listener_8h.html" target="_top" xlink:title=" ">
<polygon fill="white" stroke="#666666" points="373,-217 260,-217 260,-187 373,-187 373,-217"/>
<text text-anchor="start" x="268" y="-205" font-family="Helvetica,sans-Serif" font-size="10.00">Cpl/Io/Socket/Win32</text>
<text text-anchor="middle" x="316.5" y="-194" font-family="Helvetica,sans-Serif" font-size="10.00">/Listener.h</text>
</a>
</g>
</g>
<!-- Node5&#45;&gt;Node7 -->
<g id="edge7_Node000005_Node000007" class="edge">
<title>Node5&#45;&gt;Node7</title>
<g id="a_edge7_Node000005_Node000007"><a xlink:title=" ">
<path fill="none" stroke="#63b8ff" d="M387.05,-252.62C371.97,-242.01 351.56,-227.66 336.57,-217.12"/>
<polygon fill="#63b8ff" stroke="#63b8ff" points="385.03,-255.48 395.23,-258.37 389.06,-249.75 385.03,-255.48"/>
</a>
</g>
</g>
<!-- Node10 -->
<g id="Node000010" class="node">
<title>Node10</title>
<g id="a_Node000010"><a xlink:href="_dm_2_event_loop_8h.html" target="_top" xlink:title=" ">
<polygon fill="white" stroke="#666666" points="885.5,-277.5 769.5,-277.5 769.5,-258.5 885.5,-258.5 885.5,-277.5"/>
<text text-anchor="middle" x="827.5" y="-265.5" font-family="Helvetica,sans-Serif" font-size="10.00">Cpl/Dm/EventLoop.h</text>
</a>
</g>
</g>
<!-- Node9&#45;&gt;Node10 -->
<g id="edge10_Node000009_Node000010" class="edge">
<title>Node9&#45;&gt;Node10</title>
<g id="a_edge10_Node000009_Node000010"><a xlink:title=" ">
<path fill="none" stroke="#63b8ff" d="M775.04,-312.22C788.4,-301.21 805.95,-286.75 816.98,-277.67"/>
<polygon fill="#63b8ff" stroke="#63b8ff" points="772.47,-309.81 766.98,-318.87 776.92,-315.21 772.47,-309.81"/>
</a>
</g>
</g>
<!-- Node54 -->
<g id="Node000054" class="node">
<title>Node54</title>
<g id="a_Node000054"><a xlink:href="_itc_2_mailbox_server_8h.html" target="_top" xlink:title=" ">
<polygon fill="white" stroke="#666666" points="751,-277.5 622,-277.5 622,-258.5 751,-258.5 751,-277.5"/>
<text text-anchor="middle" x="686.5" y="-265.5" font-family="Helvetica,sans-Serif" font-size="10.00">Cpl/Itc/MailboxServer.h</text>
</a>
</g>
</g>
<!-- Node9&#45;&gt;Node54 -->
<g id="edge39_Node000009_Node000054" class="edge">
<title>Node9&#45;&gt;Node54</title>
<g id="a_edge39_Node000009_Node000054"><a xlink:title=" ">
<path fill="none" stroke="#63b8ff" d="M738.22,-312.22C725.05,-301.21 707.74,-286.75 696.87,-277.67"/>
<polygon fill="#63b8ff" stroke="#63b8ff" points="736.25,-315.14 746.17,-318.87 740.74,-309.77 736.25,-315.14"/>
</a>
</g>
</g>
<!-- Node11 -->
<g id="Node000011" class="node">
<title>Node11</title>
<g id="a_Node000011"><a xlink:href="_dm_2_mailbox_server_8h.html" target="_top" xlink:title=" ">
<polygon fill="white" stroke="#666666" points="950.5,-211.5 816.5,-211.5 816.5,-192.5 950.5,-192.5 950.5,-211.5"/>
<text text-anchor="middle" x="883.5" y="-199.5" font-family="Helvetica,sans-Serif" font-size="10.00">Cpl/Dm/MailboxServer.h</text>
</a>
</g>
</g>
<!-- Node10&#45;&gt;Node11 -->
<g id="edge11_Node000010_Node000011" class="edge">
<title>Node10&#45;&gt;Node11</title>
<g id="a_edge11_Node000010_Node000011"><a xlink:title=" ">
<path fill="none" stroke="#63b8ff" d="M841.83,-250.62C852.61,-238.31 866.97,-221.89 875.71,-211.91"/>
<polygon fill="#63b8ff" stroke="#63b8ff" points="839,-248.54 835.05,-258.37 844.27,-253.15 839,-248.54"/>
</a>
</g>
</g>
<!-- Node31 -->
<g id="Node000031" class="node">
<title>Node31</title>
<g id="a_Node000031"><a xlink:href="_subscriber_8h.html" target="_top" xlink:title=" ">
<polygon fill="white" stroke="#666666" points="798,-211.5 683,-211.5 683,-192.5 798,-192.5 798,-211.5"/>
<text text-anchor="middle" x="740.5" y="-199.5" font-family="Helvetica,sans-Serif" font-size="10.00">Cpl/Dm/Subscriber.h</text>
</a>
</g>
</g>
<!-- Node10&#45;&gt;Node31 -->
<g id="edge34_Node000010_Node000031" class="edge">
<title>Node10&#45;&gt;Node31</title>
<g id="a_edge34_Node000010_Node000031"><a xlink:title=" ">
<path fill="none" stroke="#63b8ff" d="M807.56,-252.33C790.5,-239.78 766.51,-222.13 752.33,-211.7"/>
<polygon fill="#63b8ff" stroke="#63b8ff" points="805.64,-255.26 815.77,-258.37 809.79,-249.62 805.64,-255.26"/>
</a>
</g>
</g>
<!-- Node12 -->
<g id="Node000012" class="node">
<title>Node12</title>
<g id="a_Node000012"><a xlink:href="_dm_2_periodic_scheduler_8h.html" target="_top" xlink:title=" ">
<polygon fill="white" stroke="#666666" points="1464,-145.5 1313,-145.5 1313,-126.5 1464,-126.5 1464,-145.5"/>
<text text-anchor="middle" x="1388.5" y="-133.5" font-family="Helvetica,sans-Serif" font-size="10.00">Cpl/Dm/PeriodicScheduler.h</text>
</a>
</g>
</g>
<!-- Node11&#45;&gt;Node12 -->
<g id="edge12_Node000011_Node000012" class="edge">
<title>Node11&#45;&gt;Node12</title>
<g id="a_edge12_Node000011_Node000012"><a xlink:title=" ">
<path fill="none" stroke="#63b8ff" d="M936.72,-190.66C944.35,-189.34 952.11,-188.07 959.5,-187 1109.45,-165.26 1148.27,-170.65 1298.5,-151 1310.73,-149.4 1323.86,-147.48 1336.21,-145.57"/>
<polygon fill="#63b8ff" stroke="#63b8ff" points="936.04,-187.23 926.81,-192.43 937.27,-194.12 936.04,-187.23"/>
</a>
</g>
</g>
<!-- Node13 -->
<g id="Node000013" class="node">
<title>Node13</title>
<g id="a_Node000013"><a xlink:href="_log_sink_8h.html" target="_top" xlink:title=" ">
<polygon fill="white" stroke="#666666" points="293.5,-79.5 169.5,-79.5 169.5,-60.5 293.5,-60.5 293.5,-79.5"/>
<text text-anchor="middle" x="231.5" y="-67.5" font-family="Helvetica,sans-Serif" font-size="10.00">Cpl/Logging/LogSink.h</text>
</a>
</g>
</g>
<!-- Node11&#45;&gt;Node13 -->
<g id="edge13_Node000011_Node000013" class="edge">
<title>Node11&#45;&gt;Node13</title>
<g id="a_edge13_Node000011_Node000013"><a xlink:title=" ">
<path fill="none" stroke="#63b8ff" d="M829.27,-190.73C821.64,-189.4 813.88,-188.12 806.5,-187 675.91,-167.18 640.95,-177.22 511.5,-151 415.62,-131.58 304.71,-95.81 256.27,-79.5"/>
<polygon fill="#63b8ff" stroke="#63b8ff" points="828.73,-194.19 839.19,-192.49 829.96,-187.3 828.73,-194.19"/>
</a>
</g>
</g>
<!-- Node14 -->
<g id="Node000014" class="node">
<title>Node14</title>
<g id="a_Node000014"><a xlink:href="_manager_8h.html" target="_top" xlink:title=" ">
<polygon fill="white" stroke="#666666" points="638,-145.5 521,-145.5 521,-126.5 638,-126.5 638,-145.5"/>
<text text-anchor="middle" x="579.5" y="-133.5" font-family="Helvetica,sans-Serif" font-size="10.00">Cpl/MApp/Manager.h</text>
</a>
</g>
</g>
<!-- Node11&#45;&gt;Node14 -->
<g id="edge14_Node000011_Node000014" class="edge">
<title>Node11&#45;&gt;Node14</title>
<g id="a_edge14_Node000011_Node000014"><a xlink:title=" ">
<path fill="none" stroke="#63b8ff" d="M832.84,-190.34C773.07,-177.75 674.88,-157.08 619.94,-145.51"/>
<polygon fill="#63b8ff" stroke="#63b8ff" points="832.31,-193.8 842.82,-192.44 833.75,-186.95 832.31,-193.8"/>
</a>
</g>
</g>
<!-- Node15 -->
<g id="Node000015" class="node">
<title>Node15</title>
<g id="a_Node000015"><a xlink:href="_cpl_2_m_app_2_temperature_2_api_8h.html" target="_top" xlink:title=" ">
<polygon fill="white" stroke="#666666" points="784.5,-151 656.5,-151 656.5,-121 784.5,-121 784.5,-151"/>
<text text-anchor="start" x="664.5" y="-139" font-family="Helvetica,sans-Serif" font-size="10.00">Cpl/MApp/Temperature</text>
<text text-anchor="middle" x="720.5" y="-128" font-family="Helvetica,sans-Serif" font-size="10.00">/Api.h</text>
</a>
</g>
</g>
<!-- Node11&#45;&gt;Node15 -->
<g id="edge15_Node000011_Node000015" class="edge">
<title>Node11&#45;&gt;Node15</title>
<g id="a_edge15_Node000011_Node000015"><a xlink:title=" ">
<path fill="none" stroke="#63b8ff" d="M852.04,-188.65C824.68,-177.9 785.05,-162.35 756.45,-151.12"/>
<polygon fill="#63b8ff" stroke="#63b8ff" points="850.93,-191.97 861.52,-192.37 853.49,-185.46 850.93,-191.97"/>
</a>
</g>
</g>
<!-- Node16 -->
<g id="Node000016" class="node">
<title>Node16</title>
<g id="a_Node000016"><a xlink:href="_chunk_8h.html" target="_top" xlink:title=" ">
<polygon fill="white" stroke="#666666" points="1108,-145.5 981,-145.5 981,-126.5 1108,-126.5 1108,-145.5"/>
<text text-anchor="middle" x="1044.5" y="-133.5" font-family="Helvetica,sans-Serif" font-size="10.00">Cpl/Persistent/Chunk.h</text>
</a>
</g>
</g>
<!-- Node11&#45;&gt;Node16 -->
<g id="edge16_Node000011_Node000016" class="edge">
<title>Node11&#45;&gt;Node16</title>
<g id="a_edge16_Node000011_Node000016"><a xlink:title=" ">
<path fill="none" stroke="#63b8ff" d="M914.92,-188.51C946.74,-175.86 995.11,-156.63 1022.87,-145.6"/>
<polygon fill="#63b8ff" stroke="#63b8ff" points="913.21,-185.42 905.21,-192.37 915.8,-191.93 913.21,-185.42"/>
</a>
</g>
</g>
<!-- Node25 -->
<g id="Node000025" class="node">
<title>Node25</title>
<g id="a_Node000025"><a xlink:href="_persistent_2_record_8h.html" target="_top" xlink:title=" ">
<polygon fill="white" stroke="#666666" points="1256.5,-145.5 1126.5,-145.5 1126.5,-126.5 1256.5,-126.5 1256.5,-145.5"/>
<text text-anchor="middle" x="1191.5" y="-133.5" font-family="Helvetica,sans-Serif" font-size="10.00">Cpl/Persistent/Record.h</text>
</a>
</g>
</g>
<!-- Node11&#45;&gt;Node25 -->
<g id="edge22_Node000011_Node000025" class="edge">
<title>Node11&#45;&gt;Node25</title>
<g id="a_edge22_Node000011_Node000025"><a xlink:title=" ">
<path fill="none" stroke="#63b8ff" d="M934.82,-190.34C995.39,-177.75 1094.87,-157.08 1150.53,-145.51"/>
<polygon fill="#63b8ff" stroke="#63b8ff" points="933.8,-186.97 924.72,-192.44 935.22,-193.83 933.8,-186.97"/>
</a>
</g>
</g>
<!-- Node26 -->
<g id="Node000026" class="node">
<title>Node26</title>
<g id="a_Node000026"><a xlink:href="_record_server_8h.html" target="_top" xlink:title=" ">
<polygon fill="white" stroke="#666666" points="1572,-79.5 1411,-79.5 1411,-60.5 1572,-60.5 1572,-79.5"/>
<text text-anchor="middle" x="1491.5" y="-67.5" font-family="Helvetica,sans-Serif" font-size="10.00">Cpl/Persistent/RecordServer.h</text>
</a>
</g>
</g>
<!-- Node11&#45;&gt;Node26 -->
<g id="edge27_Node000011_Node000026" class="edge">
<title>Node11&#45;&gt;Node26</title>
<g id="a_edge27_Node000011_Node000026"><a xlink:title=" ">
<path fill="none" stroke="#63b8ff" d="M937.27,-190.65C944.73,-189.34 952.29,-188.09 959.5,-187 1094.91,-166.59 1138.99,-203.4 1265.5,-151 1285.38,-142.77 1284.26,-130.63 1303.5,-121 1345.63,-99.91 1397.67,-86.96 1436.31,-79.54"/>
<polygon fill="#63b8ff" stroke="#63b8ff" points="936.45,-187.24 927.22,-192.44 937.68,-194.13 936.45,-187.24"/>
</a>
</g>
</g>
<!-- Node27 -->
<g id="Node000027" class="node">
<title>Node27</title>
<g id="a_Node000027"><a xlink:href="_region_media_8h.html" target="_top" xlink:title=" ">
<polygon fill="#fff0f0" stroke="red" points="962.5,-145.5 802.5,-145.5 802.5,-126.5 962.5,-126.5 962.5,-145.5"/>
<text text-anchor="middle" x="882.5" y="-133.5" font-family="Helvetica,sans-Serif" font-size="10.00">Cpl/Persistent/RegionMedia.h</text>
</a>
</g>
</g>
<!-- Node11&#45;&gt;Node27 -->
<g id="edge28_Node000011_Node000027" class="edge">
<title>Node11&#45;&gt;Node27</title>
<g id="a_edge28_Node000011_Node000027"><a xlink:title=" ">
<path fill="none" stroke="#63b8ff" d="M883.2,-182.08C883.02,-170.13 882.78,-155.22 882.64,-145.91"/>
<polygon fill="#63b8ff" stroke="#63b8ff" points="879.71,-182.42 883.37,-192.37 886.71,-182.32 879.71,-182.42"/>
</a>
</g>
</g>
<!-- Node17 -->
<g id="Node000017" class="node">
<title>Node17</title>
<g id="a_Node000017"><a xlink:href="_dm_2_persistent_2_record_8h.html" target="_top" xlink:title=" ">
<polygon fill="white" stroke="#666666" points="1352.5,-19 1202.5,-19 1202.5,0 1352.5,0 1352.5,-19"/>
<text text-anchor="middle" x="1277.5" y="-7" font-family="Helvetica,sans-Serif" font-size="10.00">Cpl/Dm/Persistent/Record.h</text>
</a>
</g>
</g>
<!-- Node16&#45;&gt;Node17 -->
<g id="edge17_Node000016_Node000017" class="edge">
<title>Node16&#45;&gt;Node17</title>
<g id="a_edge17_Node000016_Node000017"><a xlink:title=" ">
<path fill="none" stroke="#63b8ff" d="M1076.76,-122.58C1099.02,-113.45 1128.9,-100.05 1153.5,-85 1171.85,-73.77 1173.42,-66.66 1191.5,-55 1213.54,-40.78 1240.65,-27.37 1258.47,-19.06"/>
<polygon fill="#63b8ff" stroke="#63b8ff" points="1075.39,-119.36 1067.43,-126.35 1078.01,-125.85 1075.39,-119.36"/>
</a>
</g>
</g>
<!-- Node18 -->
<g id="Node000018" class="node">
<title>Node18</title>
<g id="a_Node000018"><a xlink:href="_crc_chunk_8h.html" target="_top" xlink:title=" ">
<polygon fill="white" stroke="#666666" points="789,-79.5 646,-79.5 646,-60.5 789,-60.5 789,-79.5"/>
<text text-anchor="middle" x="717.5" y="-67.5" font-family="Helvetica,sans-Serif" font-size="10.00">Cpl/Persistent/CrcChunk.h</text>
</a>
</g>
</g>
<!-- Node16&#45;&gt;Node18 -->
<g id="edge18_Node000016_Node000018" class="edge">
<title>Node16&#45;&gt;Node18</title>
<g id="a_edge18_Node000016_Node000018"><a xlink:title=" ">
<path fill="none" stroke="#63b8ff" d="M990.81,-124.49C926.58,-111.92 820.34,-91.13 761,-79.51"/>
<polygon fill="#63b8ff" stroke="#63b8ff" points="990.25,-127.95 1000.74,-126.44 991.6,-121.08 990.25,-127.95"/>
</a>
</g>
</g>
<!-- Node19 -->
<g id="Node000019" class="node">
<title>Node19</title>
<g id="a_Node000019"><a xlink:href="_data_record_8h.html" target="_top" xlink:title=" ">
<polygon fill="#fff0f0" stroke="red" points="1354,-79.5 1201,-79.5 1201,-60.5 1354,-60.5 1354,-79.5"/>
<text text-anchor="middle" x="1277.5" y="-67.5" font-family="Helvetica,sans-Serif" font-size="10.00">Cpl/Persistent/DataRecord.h</text>
</a>
</g>
</g>
<!-- Node16&#45;&gt;Node19 -->
<g id="edge19_Node000016_Node000019" class="edge">
<title>Node16&#45;&gt;Node19</title>
<g id="a_edge19_Node000016_Node000019"><a xlink:title=" ">
<path fill="none" stroke="#63b8ff" d="M1085.85,-123.64C1131.75,-111.03 1204.81,-90.97 1246.2,-79.6"/>
<polygon fill="#63b8ff" stroke="#63b8ff" points="1084.64,-120.34 1075.92,-126.37 1086.49,-127.09 1084.64,-120.34"/>
</a>
</g>
</g>
<!-- Node21 -->
<g id="Node000021" class="node">
<title>Node21</title>
<g id="a_Node000021"><a xlink:href="_indexed_entry_record_8h.html" target="_top" xlink:title=" ">
<polygon fill="#fff0f0" stroke="red" points="958,-85 807,-85 807,-55 958,-55 958,-85"/>
<text text-anchor="start" x="815" y="-73" font-family="Helvetica,sans-Serif" font-size="10.00">Cpl/Persistent/IndexedEntry</text>
<text text-anchor="middle" x="882.5" y="-62" font-family="Helvetica,sans-Serif" font-size="10.00">Record.h</text>
</a>
</g>
</g>
<!-- Node16&#45;&gt;Node21 -->
<g id="edge20_Node000016_Node000021" class="edge">
<title>Node16&#45;&gt;Node21</title>
<g id="a_edge20_Node000016_Node000021"><a xlink:title=" ">
<path fill="none" stroke="#63b8ff" d="M1013.23,-122.65C986.04,-111.9 946.66,-96.35 918.23,-85.12"/>
<polygon fill="#63b8ff" stroke="#63b8ff" points="1012.07,-125.95 1022.65,-126.37 1014.64,-119.44 1012.07,-125.95"/>
</a>
</g>
</g>
<!-- Node24 -->
<g id="Node000024" class="node">
<title>Node24</title>
<g id="a_Node000024"><a xlink:href="_mirrored_chunk_8h.html" target="_top" xlink:title=" ">
<polygon fill="white" stroke="#666666" points="1144.5,-79.5 976.5,-79.5 976.5,-60.5 1144.5,-60.5 1144.5,-79.5"/>
<text text-anchor="middle" x="1060.5" y="-67.5" font-family="Helvetica,sans-Serif" font-size="10.00">Cpl/Persistent/MirroredChunk.h</text>
</a>
</g>
</g>
<!-- Node16&#45;&gt;Node24 -->
<g id="edge21_Node000016_Node000024" class="edge">
<title>Node16&#45;&gt;Node24</title>
<g id="a_edge21_Node000016_Node000024"><a xlink:title=" ">
<path fill="none" stroke="#63b8ff" d="M1049.14,-116.45C1052.14,-104.43 1055.92,-89.32 1058.27,-79.91"/>
<polygon fill="#63b8ff" stroke="#63b8ff" points="1045.69,-115.82 1046.66,-126.37 1052.48,-117.52 1045.69,-115.82"/>
</a>
</g>
</g>
<!-- Node25&#45;&gt;Node17 -->
<g id="edge23_Node000025_Node000017" class="edge">
<title>Node25&#45;&gt;Node17</title>
<g id="a_edge23_Node000025_Node000017"><a xlink:title=" ">
<path fill="none" stroke="#63b8ff" d="M1239.07,-124.17C1286.98,-112.78 1354.9,-95.14 1362.5,-85 1370.5,-74.33 1369.4,-66.41 1362.5,-55 1351.46,-36.76 1330.21,-25.63 1311.72,-19.07"/>
<polygon fill="#63b8ff" stroke="#63b8ff" points="1238.11,-120.8 1229.18,-126.5 1239.71,-127.61 1238.11,-120.8"/>
</a>
</g>
</g>
<!-- Node25&#45;&gt;Node19 -->
<g id="edge24_Node000025_Node000019" class="edge">
<title>Node25&#45;&gt;Node19</title>
<g id="a_edge24_Node000025_Node000019"><a xlink:title=" ">
<path fill="none" stroke="#63b8ff" d="M1211.21,-120.33C1228.07,-107.78 1251.79,-90.13 1265.81,-79.7"/>
<polygon fill="#63b8ff" stroke="#63b8ff" points="1209.03,-117.59 1203.1,-126.37 1213.21,-123.21 1209.03,-117.59"/>
</a>
</g>
</g>
<!-- Node25&#45;&gt;Node26 -->
<g id="edge25_Node000025_Node000026" class="edge">
<title>Node25&#45;&gt;Node26</title>
<g id="a_edge25_Node000025_Node000026"><a xlink:title=" ">
<path fill="none" stroke="#63b8ff" d="M1241.49,-124.34C1300.48,-111.75 1397.38,-91.08 1451.59,-79.51"/>
<polygon fill="#63b8ff" stroke="#63b8ff" points="1240.7,-120.93 1231.65,-126.44 1242.16,-127.77 1240.7,-120.93"/>
</a>
</g>
</g>
<!-- Node26&#45;&gt;Node17 -->
<g id="edge26_Node000026_Node000017" class="edge">
<title>Node26&#45;&gt;Node17</title>
<g id="a_edge26_Node000026_Node000017"><a xlink:title=" ">
<path fill="none" stroke="#63b8ff" d="M1450.62,-57.82C1409.23,-46.51 1346.15,-29.27 1308.65,-19.02"/>
<polygon fill="#63b8ff" stroke="#63b8ff" points="1449.81,-61.23 1460.38,-60.49 1451.66,-54.48 1449.81,-61.23"/>
</a>
</g>
</g>
<!-- Node27&#45;&gt;Node18 -->
<g id="edge29_Node000027_Node000018" class="edge">
<title>Node27&#45;&gt;Node18</title>
<g id="a_edge29_Node000027_Node000018"><a xlink:title=" ">
<path fill="none" stroke="#63b8ff" d="M850.73,-122.68C818.12,-110.03 768.24,-90.68 739.66,-79.6"/>
<polygon fill="#63b8ff" stroke="#63b8ff" points="849.66,-126.02 860.25,-126.37 852.19,-119.49 849.66,-126.02"/>
</a>
</g>
</g>
<!-- Node27&#45;&gt;Node21 -->
<g id="edge31_Node000027_Node000021" class="edge">
<title>Node27&#45;&gt;Node21</title>
<g id="a_edge31_Node000027_Node000021"><a xlink:title=" ">
<path fill="none" stroke="#63b8ff" d="M882.5,-116.35C882.5,-106.47 882.5,-94.51 882.5,-85.36"/>
<polygon fill="#63b8ff" stroke="#63b8ff" points="879,-116.37 882.5,-126.37 886,-116.37 879,-116.37"/>
</a>
</g>
</g>
<!-- Node27&#45;&gt;Node24 -->
<g id="edge32_Node000027_Node000024" class="edge">
<title>Node27&#45;&gt;Node24</title>
<g id="a_edge32_Node000027_Node000024"><a xlink:title=" ">
<path fill="none" stroke="#63b8ff" d="M916.32,-122.84C951.49,-110.2 1005.63,-90.73 1036.59,-79.6"/>
<polygon fill="#63b8ff" stroke="#63b8ff" points="914.73,-119.69 906.51,-126.37 917.1,-126.28 914.73,-119.69"/>
</a>
</g>
</g>
<!-- Node28 -->
<g id="Node000028" class="node">
<title>Node28</title>
<g id="a_Node000028"><a xlink:href="_file_adapter_8h.html" target="_top" xlink:title=" ">
<polygon fill="white" stroke="#666666" points="628,-79.5 477,-79.5 477,-60.5 628,-60.5 628,-79.5"/>
<text text-anchor="middle" x="552.5" y="-67.5" font-family="Helvetica,sans-Serif" font-size="10.00">Cpl/Persistent/FileAdapter.h</text>
</a>
</g>
</g>
<!-- Node27&#45;&gt;Node28 -->
<g id="edge30_Node000027_Node000028" class="edge">
<title>Node27&#45;&gt;Node28</title>
<g id="a_edge30_Node000027_Node000028"><a xlink:title=" ">
<path fill="none" stroke="#63b8ff" d="M828.31,-124.49C763.5,-111.92 656.28,-91.13 596.4,-79.51"/>
<polygon fill="#63b8ff" stroke="#63b8ff" points="827.85,-127.97 838.34,-126.44 829.19,-121.1 827.85,-127.97"/>
</a>
</g>
</g>
<!-- Node29 -->
<g id="Node000029" class="node">
<title>Node29</title>
<g id="a_Node000029"><a xlink:href="_n_v_adapter_8h.html" target="_top" xlink:title=" ">
<polygon fill="white" stroke="#666666" points="459,-79.5 312,-79.5 312,-60.5 459,-60.5 459,-79.5"/>
<text text-anchor="middle" x="385.5" y="-67.5" font-family="Helvetica,sans-Serif" font-size="10.00">Cpl/Persistent/NVAdapter.h</text>
</a>
</g>
</g>
<!-- Node27&#45;&gt;Node29 -->
<g id="edge33_Node000027_Node000029" class="edge">
<title>Node27&#45;&gt;Node29</title>
<g id="a_edge33_Node000027_Node000029"><a xlink:title=" ">
<path fill="none" stroke="#63b8ff" d="M820.63,-124.89C811.54,-123.52 802.29,-122.18 793.5,-121 649.02,-101.67 611.85,-105.28 467.5,-85 456.2,-83.41 444.07,-81.47 432.69,-79.55"/>
<polygon fill="#63b8ff" stroke="#63b8ff" points="820.38,-128.39 830.79,-126.45 821.44,-121.48 820.38,-128.39"/>
</a>
</g>
</g>
<!-- Node32 -->
<g id="Node000032" class="node">
<title>Node32</title>
<g id="a_Node000032"><a xlink:href="_model_point_common___8h.html" target="_top" xlink:title=" ">
<polygon fill="#fff0f0" stroke="red" points="169,-145.5 0,-145.5 0,-126.5 169,-126.5 169,-145.5"/>
<text text-anchor="middle" x="84.5" y="-133.5" font-family="Helvetica,sans-Serif" font-size="10.00">Cpl/Dm/ModelPointCommon_.h</text>
</a>
</g>
</g>
<!-- Node31&#45;&gt;Node32 -->
<g id="edge35_Node000031_Node000032" class="edge">
<title>Node31&#45;&gt;Node32</title>
<g id="a_edge35_Node000031_Node000032"><a xlink:title=" ">
<path fill="none" stroke="#63b8ff" d="M694.19,-190.49C687.28,-189.16 680.22,-187.94 673.5,-187 455.06,-156.37 397.74,-175.26 178.5,-151 165.05,-149.51 150.58,-147.54 137.11,-145.55"/>
<polygon fill="#63b8ff" stroke="#63b8ff" points="693.65,-193.95 704.14,-192.48 695.03,-187.08 693.65,-193.95"/>
</a>
</g>
</g>
<!-- Node53 -->
<g id="Node000053" class="node">
<title>Node53</title>
<g id="a_Node000053"><a xlink:href="_subscriber_composer_8h.html" target="_top" xlink:title=" ">
<polygon fill="#fff0f0" stroke="red" points="351.5,-145.5 187.5,-145.5 187.5,-126.5 351.5,-126.5 351.5,-145.5"/>
<text text-anchor="middle" x="269.5" y="-133.5" font-family="Helvetica,sans-Serif" font-size="10.00">Cpl/Dm/SubscriberComposer.h</text>
</a>
</g>
</g>
<!-- Node31&#45;&gt;Node53 -->
<g id="edge36_Node000031_Node000053" class="edge">
<title>Node31&#45;&gt;Node53</title>
<g id="a_edge36_Node000031_Node000053"><a xlink:title=" ">
<path fill="none" stroke="#63b8ff" d="M692.46,-190.46C686.1,-189.21 679.65,-188.02 673.5,-187 562.65,-168.59 433.65,-153.76 351.81,-145.17"/>
<polygon fill="#63b8ff" stroke="#63b8ff" points="691.84,-193.91 702.34,-192.46 693.23,-187.05 691.84,-193.91"/>
</a>
</g>
</g>
<!-- Node53&#45;&gt;Node13 -->
<g id="edge38_Node000053_Node000013" class="edge">
<title>Node53&#45;&gt;Node13</title>
<g id="a_edge38_Node000053_Node000013"><a xlink:title=" ">
<path fill="none" stroke="#63b8ff" d="M259.14,-117.55C251.9,-105.36 242.55,-89.61 236.79,-79.91"/>
<polygon fill="#63b8ff" stroke="#63b8ff" points="256.26,-119.56 264.38,-126.37 262.28,-115.98 256.26,-119.56"/>
</a>
</g>
</g>
<!-- Node53&#45;&gt;Node17 -->
<g id="edge37_Node000053_Node000017" class="edge">
<title>Node53&#45;&gt;Node17</title>
<g id="a_edge37_Node000053_Node000017"><a xlink:title=" ">
<path fill="none" stroke="#63b8ff" d="M230.05,-123.23C188.68,-109.01 133.17,-83.44 160.5,-55 196.58,-17.46 957.28,-11.59 1202.23,-10.67"/>
<polygon fill="#63b8ff" stroke="#63b8ff" points="229.09,-126.59 239.68,-126.42 231.29,-119.95 229.09,-126.59"/>
</a>
</g>
</g>
<!-- Node55 -->
<g id="Node000055" class="node">
<title>Node55</title>
<g id="a_Node000055"><a xlink:href="_itc_2_periodic_scheduler_8h.html" target="_top" xlink:title=" ">
<polygon fill="white" stroke="#666666" points="664.5,-211.5 518.5,-211.5 518.5,-192.5 664.5,-192.5 664.5,-211.5"/>
<text text-anchor="middle" x="591.5" y="-199.5" font-family="Helvetica,sans-Serif" font-size="10.00">Cpl/Itc/PeriodicScheduler.h</text>
</a>
</g>
</g>
<!-- Node54&#45;&gt;Node55 -->
<g id="edge40_Node000054_Node000055" class="edge">
<title>Node54&#45;&gt;Node55</title>
<g id="a_edge40_Node000054_Node000055"><a xlink:title=" ">
<path fill="none" stroke="#63b8ff" d="M665.24,-252.68C646.58,-240.11 620.04,-222.23 604.41,-211.7"/>
<polygon fill="#63b8ff" stroke="#63b8ff" points="663.44,-255.68 673.69,-258.37 667.35,-249.88 663.44,-255.68"/>
</a>
</g>
</g>
<!-- Node56&#45;&gt;Node5 -->
<g id="edge45_Node000056_Node000005" class="edge">
<title>Node56&#45;&gt;Node5</title>
<g id="a_edge45_Node000056_Node000005"><a xlink:title=" ">
<path fill="none" stroke="#63b8ff" d="M1275.18,-326.92C1128.7,-325.04 777.09,-317.03 484.5,-283 472.89,-281.65 460.39,-279.63 448.91,-277.54"/>
<polygon fill="#63b8ff" stroke="#63b8ff" points="1275.33,-330.42 1285.37,-327.05 1275.41,-323.42 1275.33,-330.42"/>
</a>
</g>
</g>
<!-- Node56&#45;&gt;Node8 -->
<g id="edge61_Node000056_Node000008" class="edge">
<title>Node56&#45;&gt;Node8</title>
<g id="a_edge61_Node000056_Node000008"><a xlink:title=" ">
<path fill="none" stroke="#63b8ff" d="M1275.13,-326.85C1144.72,-324.83 854.38,-316.6 612.5,-283 602.81,-281.65 592.41,-279.63 582.87,-277.54"/>
<polygon fill="#63b8ff" stroke="#63b8ff" points="1275.32,-330.35 1285.37,-327 1275.42,-323.35 1275.32,-330.35"/>
</a>
</g>
</g>
<!-- Node56&#45;&gt;Node10 -->
<g id="edge42_Node000056_Node000010" class="edge">
<title>Node56&#45;&gt;Node10</title>
<g id="a_edge42_Node000056_Node000010"><a xlink:title=" ">
<path fill="none" stroke="#63b8ff" d="M1275.08,-322.96C1186.44,-316.63 1028.48,-303.56 894.5,-283 884.87,-281.52 874.53,-279.55 864.93,-277.56"/>
<polygon fill="#63b8ff" stroke="#63b8ff" points="1275.06,-326.47 1285.28,-323.68 1275.55,-319.48 1275.06,-326.47"/>
</a>
</g>
</g>
<!-- Node57 -->
<g id="Node000057" class="node">
<title>Node57</title>
<g id="a_Node000057"><a xlink:href="_stream_driver_8h.html" target="_top" xlink:title=" ">
<polygon fill="white" stroke="#666666" points="1029.5,-283 903.5,-283 903.5,-253 1029.5,-253 1029.5,-283"/>
<text text-anchor="start" x="911.5" y="-271" font-family="Helvetica,sans-Serif" font-size="10.00">Cpl/Io/Serial/ST/M32F4</text>
<text text-anchor="middle" x="966.5" y="-260" font-family="Helvetica,sans-Serif" font-size="10.00">/StreamDriver.h</text>
</a>
</g>
</g>
<!-- Node56&#45;&gt;Node57 -->
<g id="edge43_Node000056_Node000057" class="edge">
<title>Node56&#45;&gt;Node57</title>
<g id="a_edge43_Node000056_Node000057"><a xlink:title=" ">
<path fill="none" stroke="#63b8ff" d="M1275.35,-318.4C1213.23,-310 1119.59,-296.77 1038.5,-283 1035.61,-282.51 1032.66,-281.99 1029.69,-281.46"/>
<polygon fill="#63b8ff" stroke="#63b8ff" points="1275.04,-321.89 1285.42,-319.76 1275.98,-314.95 1275.04,-321.89"/>
</a>
</g>
</g>
<!-- Node59 -->
<g id="Node000059" class="node">
<title>Node59</title>
<g id="a_Node000059"><a xlink:href="_bare_metal_2_thread_8h.html" target="_top" xlink:title=" ">
<polygon fill="white" stroke="#666666" points="1173,-283 1048,-283 1048,-253 1173,-253 1173,-283"/>
<text text-anchor="start" x="1056" y="-271" font-family="Helvetica,sans-Serif" font-size="10.00">Cpl/System/BareMetal</text>
<text text-anchor="middle" x="1110.5" y="-260" font-family="Helvetica,sans-Serif" font-size="10.00">/Thread.h</text>
</a>
</g>
</g>
<!-- Node56&#45;&gt;Node59 -->
<g id="edge46_Node000056_Node000059" class="edge">
<title>Node56&#45;&gt;Node59</title>
<g id="a_edge46_Node000056_Node000059"><a xlink:title=" ">
<path fill="none" stroke="#63b8ff" d="M1300.76,-316.56C1262.89,-307.1 1207.89,-293.35 1166.76,-283.06"/>
<polygon fill="#63b8ff" stroke="#63b8ff" points="1299.92,-319.96 1310.47,-318.99 1301.62,-313.17 1299.92,-319.96"/>
</a>
</g>
</g>
<!-- Node60 -->
<g id="Node000060" class="node">
<title>Node60</title>
<g id="a_Node000060"><a xlink:href="_cpp11_2_thread_8h.html" target="_top" xlink:title=" ">
<polygon fill="white" stroke="#666666" points="1343.5,-277.5 1191.5,-277.5 1191.5,-258.5 1343.5,-258.5 1343.5,-277.5"/>
<text text-anchor="middle" x="1267.5" y="-265.5" font-family="Helvetica,sans-Serif" font-size="10.00">Cpl/System/Cpp11/Thread.h</text>
</a>
</g>
</g>
<!-- Node56&#45;&gt;Node60 -->
<g id="edge47_Node000056_Node000060" class="edge">
<title>Node56&#45;&gt;Node60</title>
<g id="a_edge47_Node000056_Node000060"><a xlink:title=" ">
<path fill="none" stroke="#63b8ff" d="M1324.81,-312.54C1310.27,-301.49 1290.98,-286.84 1278.91,-277.67"/>
<polygon fill="#63b8ff" stroke="#63b8ff" points="1323.06,-315.61 1333.14,-318.87 1327.29,-310.03 1323.06,-315.61"/>
</a>
</g>
</g>
<!-- Node61 -->
<g id="Node000061" class="node">
<title>Node61</title>
<g id="a_Node000061"><a xlink:href="_free_r_t_o_s_2_thread_8h.html" target="_top" xlink:title=" ">
<polygon fill="white" stroke="#666666" points="1483.5,-283 1361.5,-283 1361.5,-253 1483.5,-253 1483.5,-283"/>
<text text-anchor="start" x="1369.5" y="-271" font-family="Helvetica,sans-Serif" font-size="10.00">Cpl/System/FreeRTOS</text>
<text text-anchor="middle" x="1422.5" y="-260" font-family="Helvetica,sans-Serif" font-size="10.00">/Thread.h</text>
</a>
</g>
</g>
<!-- Node56&#45;&gt;Node61 -->
<g id="edge48_Node000056_Node000061" class="edge">
<title>Node56&#45;&gt;Node61</title>
<g id="a_edge48_Node000056_Node000061"><a xlink:title=" ">
<path fill="none" stroke="#63b8ff" d="M1364.14,-312.77C1376.26,-303.68 1391.72,-292.09 1403.68,-283.11"/>
<polygon fill="#63b8ff" stroke="#63b8ff" points="1361.91,-310.07 1356.01,-318.87 1366.11,-315.67 1361.91,-310.07"/>
</a>
</g>
</g>
<!-- Node62 -->
<g id="Node000062" class="node">
<title>Node62</title>
<g id="a_Node000062"><a xlink:href="_posix_2_thread_8h.html" target="_top" xlink:title=" ">
<polygon fill="white" stroke="#666666" points="1649,-277.5 1502,-277.5 1502,-258.5 1649,-258.5 1649,-277.5"/>
<text text-anchor="middle" x="1575.5" y="-265.5" font-family="Helvetica,sans-Serif" font-size="10.00">Cpl/System/Posix/Thread.h</text>
</a>
</g>
</g>
<!-- Node56&#45;&gt;Node62 -->
<g id="edge49_Node000056_Node000062" class="edge">
<title>Node56&#45;&gt;Node62</title>
<g id="a_edge49_Node000056_Node000062"><a xlink:title=" ">
<path fill="none" stroke="#63b8ff" d="M1387.79,-316.54C1432.44,-305.23 1501.13,-287.83 1541.87,-277.52"/>
<polygon fill="#63b8ff" stroke="#63b8ff" points="1386.92,-313.15 1378.09,-318.99 1388.64,-319.93 1386.92,-313.15"/>
</a>
</g>
</g>
<!-- Node63 -->
<g id="Node000063" class="node">
<title>Node63</title>
<g id="a_Node000063"><a xlink:href="_system_2_trace_8h.html" target="_top" xlink:title=" ">
<polygon fill="white" stroke="#666666" points="1777.5,-277.5 1667.5,-277.5 1667.5,-258.5 1777.5,-258.5 1777.5,-277.5"/>
<text text-anchor="middle" x="1722.5" y="-265.5" font-family="Helvetica,sans-Serif" font-size="10.00">Cpl/System/Trace.h</text>
</a>
</g>
</g>
<!-- Node56&#45;&gt;Node63 -->
<g id="edge50_Node000056_Node000063" class="edge">
<title>Node56&#45;&gt;Node63</title>
<g id="a_edge50_Node000056_Node000063"><a xlink:title=" ">
<path fill="none" stroke="#63b8ff" d="M1413.84,-319.08C1477.42,-311.01 1574.07,-297.9 1657.5,-283 1666.48,-281.4 1676.1,-279.45 1685.12,-277.52"/>
<polygon fill="#63b8ff" stroke="#63b8ff" points="1413.02,-315.65 1403.54,-320.37 1413.9,-322.6 1413.02,-315.65"/>
</a>
</g>
</g>
<!-- Node69 -->
<g id="Node000069" class="node">
<title>Node69</title>
<g id="a_Node000069"><a xlink:href="_win32_2_thread_8h.html" target="_top" xlink:title=" ">
<polygon fill="white" stroke="#666666" points="1947.5,-277.5 1795.5,-277.5 1795.5,-258.5 1947.5,-258.5 1947.5,-277.5"/>
<text text-anchor="middle" x="1871.5" y="-265.5" font-family="Helvetica,sans-Serif" font-size="10.00">Cpl/System/Win32/Thread.h</text>
</a>
</g>
</g>
<!-- Node56&#45;&gt;Node69 -->
<g id="edge56_Node000056_Node000069" class="edge">
<title>Node56&#45;&gt;Node69</title>
<g id="a_edge56_Node000056_Node000069"><a xlink:title=" ">
<path fill="none" stroke="#63b8ff" d="M1413.65,-321.89C1500.78,-314.52 1655.04,-300.43 1786.5,-283 1798.36,-281.43 1811.11,-279.47 1823.03,-277.52"/>
<polygon fill="#63b8ff" stroke="#63b8ff" points="1413.29,-318.41 1403.62,-322.74 1413.88,-325.39 1413.29,-318.41"/>
</a>
</g>
</g>
<!-- Node70 -->
<g id="Node000070" class="node">
<title>Node70</title>
<g id="a_Node000070"><a xlink:href="_threads_8h.html" target="_top" xlink:title=" ">
<polygon fill="white" stroke="#666666" points="2110.5,-277.5 1968.5,-277.5 1968.5,-258.5 2110.5,-258.5 2110.5,-277.5"/>
<text text-anchor="middle" x="2039.5" y="-265.5" font-family="Helvetica,sans-Serif" font-size="10.00">Cpl/TShell/Cmd/Threads.h</text>
</a>
</g>
</g>
<!-- Node56&#45;&gt;Node70 -->
<g id="edge57_Node000056_Node000070" class="edge">
<title>Node56&#45;&gt;Node70</title>
<g id="a_edge57_Node000056_Node000070"><a xlink:title=" ">
<path fill="none" stroke="#63b8ff" d="M1414.06,-324.59C1527.81,-319.34 1760.6,-306.59 1956.5,-283 1968.54,-281.55 1981.5,-279.57 1993.51,-277.55"/>
<polygon fill="#63b8ff" stroke="#63b8ff" points="1413.59,-321.1 1403.76,-325.06 1413.91,-328.1 1413.59,-321.1"/>
</a>
</g>
</g>
<!-- Node73 -->
<g id="Node000073" class="node">
<title>Node73</title>
<g id="a_Node000073"><a xlink:href="_restartable_8h.html" target="_top" xlink:title=" ">
<polygon fill="white" stroke="#666666" points="2412.5,-211.5 2278.5,-211.5 2278.5,-192.5 2412.5,-192.5 2412.5,-211.5"/>
<text text-anchor="middle" x="2345.5" y="-199.5" font-family="Helvetica,sans-Serif" font-size="10.00">Cpl/TShell/Restartable.h</text>
</a>
</g>
</g>
<!-- Node56&#45;&gt;Node73 -->
<g id="edge60_Node000056_Node000073" class="edge">
<title>Node56&#45;&gt;Node73</title>
<g id="a_edge60_Node000056_Node000073"><a xlink:title=" ">
<path fill="none" stroke="#63b8ff" d="M1414.24,-326.02C1578.46,-322.11 1985.7,-309.95 2119.5,-283 2199.27,-266.93 2289,-228.75 2326.96,-211.6"/>
<polygon fill="#63b8ff" stroke="#63b8ff" points="1413.7,-322.53 1403.78,-326.26 1413.86,-329.53 1413.7,-322.53"/>
</a>
</g>
</g>
<!-- Node74 -->
<g id="Node000074" class="node">
<title>Node74</title>
<g id="a_Node000074"><a xlink:href="_stdio_8h.html" target="_top" xlink:title=" ">
<polygon fill="white" stroke="#666666" points="2364.5,-277.5 2262.5,-277.5 2262.5,-258.5 2364.5,-258.5 2364.5,-277.5"/>
<text text-anchor="middle" x="2313.5" y="-265.5" font-family="Helvetica,sans-Serif" font-size="10.00">Cpl/TShell/Stdio.h</text>
</a>
</g>
</g>
<!-- Node56&#45;&gt;Node74 -->
<g id="edge62_Node000056_Node000074" class="edge">
<title>Node56&#45;&gt;Node74</title>
<g id="a_edge62_Node000056_Node000074"><a xlink:title=" ">
<path fill="none" stroke="#63b8ff" d="M1413.65,-325.13C1557.36,-319.92 1898.77,-306.06 2184.5,-283 2210.21,-280.93 2238.73,-277.91 2262.4,-275.2"/>
<polygon fill="#63b8ff" stroke="#63b8ff" points="1413.51,-321.63 1403.64,-325.49 1413.76,-328.63 1413.51,-321.63"/>
</a>
</g>
</g>
<!-- Node58 -->
<g id="Node000058" class="node">
<title>Node58</title>
<g id="a_Node000058"><a xlink:href="_serial_2_s_t_2_m32_f4_2_input_output_8h.html" target="_top" xlink:title=" ">
<polygon fill="white" stroke="#666666" points="1094.5,-217 968.5,-217 968.5,-187 1094.5,-187 1094.5,-217"/>
<text text-anchor="start" x="976.5" y="-205" font-family="Helvetica,sans-Serif" font-size="10.00">Cpl/Io/Serial/ST/M32F4</text>
<text text-anchor="middle" x="1031.5" y="-194" font-family="Helvetica,sans-Serif" font-size="10.00">/InputOutput.h</text>
</a>
</g>
</g>
<!-- Node57&#45;&gt;Node58 -->
<g id="edge44_Node000057_Node000058" class="edge">
<title>Node57&#45;&gt;Node58</title>
<g id="a_edge44_Node000057_Node000058"><a xlink:title=" ">
<path fill="none" stroke="#63b8ff" d="M988.19,-245.65C997.71,-236.27 1008.62,-225.53 1017.11,-217.16"/>
<polygon fill="#63b8ff" stroke="#63b8ff" points="985.6,-243.29 980.93,-252.8 990.51,-248.27 985.6,-243.29"/>
</a>
</g>
</g>
<!-- Node64 -->
<g id="Node000064" class="node">
<title>Node64</title>
<g id="a_Node000064"><a xlink:href="_integer_expression_parser_8h.html" target="_top" xlink:title="This file contains a collection of methods that parses a null terminated string that contains an arit...">
<polygon fill="white" stroke="#666666" points="1765,-217 1614,-217 1614,-187 1765,-187 1765,-217"/>
<text text-anchor="start" x="1622" y="-205" font-family="Helvetica,sans-Serif" font-size="10.00">Cpl/Math/IntegerExpression</text>
<text text-anchor="middle" x="1689.5" y="-194" font-family="Helvetica,sans-Serif" font-size="10.00">Parser.h</text>
</a>
</g>
</g>
<!-- Node63&#45;&gt;Node64 -->
<g id="edge51_Node000063_Node000064" class="edge">
<title>Node63&#45;&gt;Node64</title>
<g id="a_edge51_Node000063_Node000064"><a xlink:title=" ">
<path fill="none" stroke="#63b8ff" d="M1713.37,-249.3C1708.19,-239.24 1701.78,-226.81 1696.9,-217.36"/>
<polygon fill="#63b8ff" stroke="#63b8ff" points="1710.36,-251.08 1718.05,-258.37 1716.58,-247.88 1710.36,-251.08"/>
</a>
</g>
</g>
<!-- Node65 -->
<g id="Node000065" class="node">
<title>Node65</title>
<g id="a_Node000065"><a xlink:href="_real_expression_parser_8h.html" target="_top" xlink:title="This file contains a collection of methods that parses a null terminated string that contains an arit...">
<polygon fill="white" stroke="#666666" points="1959.5,-211.5 1783.5,-211.5 1783.5,-192.5 1959.5,-192.5 1959.5,-211.5"/>
<text text-anchor="middle" x="1871.5" y="-199.5" font-family="Helvetica,sans-Serif" font-size="10.00">Cpl/Math/RealExpressionParser.h</text>
</a>
</g>
</g>
<!-- Node63&#45;&gt;Node65 -->
<g id="edge52_Node000063_Node000065" class="edge">
<title>Node63&#45;&gt;Node65</title>
<g id="a_edge52_Node000063_Node000065"><a xlink:title=" ">
<path fill="none" stroke="#63b8ff" d="M1751.93,-254.36C1781.29,-241.75 1825.62,-222.71 1851.25,-211.7"/>
<polygon fill="#63b8ff" stroke="#63b8ff" points="1750.4,-251.21 1742.59,-258.37 1753.16,-257.64 1750.4,-251.21"/>
</a>
</g>
</g>
<!-- Node66 -->
<g id="Node000066" class="node">
<title>Node66</title>
<g id="a_Node000066"><a xlink:href="_system_2_private___8h.html" target="_top" xlink:title="This file contains a collection of classes, interfaces, etc.">
<polygon fill="white" stroke="#666666" points="1595.5,-211.5 1471.5,-211.5 1471.5,-192.5 1595.5,-192.5 1595.5,-211.5"/>
<text text-anchor="middle" x="1533.5" y="-199.5" font-family="Helvetica,sans-Serif" font-size="10.00">Cpl/System/Private_.h</text>
</a>
</g>
</g>
<!-- Node63&#45;&gt;Node66 -->
<g id="edge53_Node000063_Node000066" class="edge">
<title>Node63&#45;&gt;Node66</title>
<g id="a_edge53_Node000063_Node000066"><a xlink:title=" ">
<path fill="none" stroke="#63b8ff" d="M1687.07,-255C1649.74,-242.36 1591.9,-222.78 1558.89,-211.6"/>
<polygon fill="#63b8ff" stroke="#63b8ff" points="1686.42,-258.48 1697.01,-258.37 1688.66,-251.85 1686.42,-258.48"/>
</a>
</g>
</g>
<!-- Node67 -->
<g id="Node000067" class="node">
<title>Node67</title>
<g id="a_Node000067"><a xlink:href="_cpl_2_t_shell_2_maker_8h.html" target="_top" xlink:title=" ">
<polygon fill="white" stroke="#666666" points="1589,-145.5 1482,-145.5 1482,-126.5 1589,-126.5 1589,-145.5"/>
<text text-anchor="middle" x="1535.5" y="-133.5" font-family="Helvetica,sans-Serif" font-size="10.00">Cpl/TShell/Maker.h</text>
</a>
</g>
</g>
<!-- Node66&#45;&gt;Node67 -->
<g id="edge54_Node000066_Node000067" class="edge">
<title>Node66&#45;&gt;Node67</title>
<g id="a_edge54_Node000066_Node000067"><a xlink:title=" ">
<path fill="none" stroke="#63b8ff" d="M1534.09,-182.08C1534.46,-170.13 1534.93,-155.22 1535.22,-145.91"/>
<polygon fill="#63b8ff" stroke="#63b8ff" points="1530.58,-182.26 1533.77,-192.37 1537.58,-182.48 1530.58,-182.26"/>
</a>
</g>
</g>
<!-- Node68 -->
<g id="Node000068" class="node">
<title>Node68</title>
<g id="a_Node000068"><a xlink:href="_polled_maker_8h.html" target="_top" xlink:title=" ">
<polygon fill="white" stroke="#666666" points="1744,-145.5 1607,-145.5 1607,-126.5 1744,-126.5 1744,-145.5"/>
<text text-anchor="middle" x="1675.5" y="-133.5" font-family="Helvetica,sans-Serif" font-size="10.00">Cpl/TShell/PolledMaker.h</text>
</a>
</g>
</g>
<!-- Node66&#45;&gt;Node68 -->
<g id="edge55_Node000066_Node000068" class="edge">
<title>Node66&#45;&gt;Node68</title>
<g id="a_edge55_Node000066_Node000068"><a xlink:title=" ">
<path fill="none" stroke="#63b8ff" d="M1561.91,-188.19C1589.9,-175.58 1631.88,-156.66 1656.2,-145.7"/>
<polygon fill="#63b8ff" stroke="#63b8ff" points="1560.33,-185.07 1552.65,-192.37 1563.21,-191.45 1560.33,-185.07"/>
</a>
</g>
</g>
<!-- Node71 -->
<g id="Node000071" class="node">
<title>Node71</title>
<g id="a_Node000071"><a xlink:href="_free_r_t_o_s_2_threads_8h.html" target="_top" xlink:title=" ">
<polygon fill="white" stroke="#666666" points="2260.5,-217 2120.5,-217 2120.5,-187 2260.5,-187 2260.5,-217"/>
<text text-anchor="start" x="2128.5" y="-205" font-family="Helvetica,sans-Serif" font-size="10.00">Cpl/TShell/Cmd/FreeRTOS</text>
<text text-anchor="middle" x="2190.5" y="-194" font-family="Helvetica,sans-Serif" font-size="10.00">/Threads.h</text>
</a>
</g>
</g>
<!-- Node70&#45;&gt;Node71 -->
<g id="edge58_Node000070_Node000071" class="edge">
<title>Node70&#45;&gt;Node71</title>
<g id="a_edge58_Node000070_Node000071"><a xlink:title=" ">
<path fill="none" stroke="#63b8ff" d="M2069.32,-254.36C2094.63,-243.63 2130.93,-228.25 2157.2,-217.12"/>
<polygon fill="#63b8ff" stroke="#63b8ff" points="2067.71,-251.24 2059.86,-258.37 2070.44,-257.69 2067.71,-251.24"/>
</a>
</g>
</g>
<!-- Node72 -->
<g id="Node000072" class="node">
<title>Node72</title>
<g id="a_Node000072"><a xlink:href="_win32_2_threads_8h.html" target="_top" xlink:title=" ">
<polygon fill="white" stroke="#666666" points="2102,-217 1977,-217 1977,-187 2102,-187 2102,-217"/>
<text text-anchor="start" x="1985" y="-205" font-family="Helvetica,sans-Serif" font-size="10.00">Cpl/TShell/Cmd/Win32</text>
<text text-anchor="middle" x="2039.5" y="-194" font-family="Helvetica,sans-Serif" font-size="10.00">/Threads.h</text>
</a>
</g>
</g>
<!-- Node70&#45;&gt;Node72 -->
<g id="edge59_Node000070_Node000072" class="edge">
<title>Node70&#45;&gt;Node72</title>
<g id="a_edge59_Node000070_Node000072"><a xlink:title=" ">
<path fill="none" stroke="#63b8ff" d="M2039.5,-248.35C2039.5,-238.47 2039.5,-226.51 2039.5,-217.36"/>
<polygon fill="#63b8ff" stroke="#63b8ff" points="2036,-248.37 2039.5,-258.37 2043,-248.37 2036,-248.37"/>
</a>
</g>
</g>
<!-- Node74&#45;&gt;Node73 -->
<g id="edge63_Node000074_Node000073" class="edge">
<title>Node74&#45;&gt;Node73</title>
<g id="a_edge63_Node000074_Node000073"><a xlink:title=" ">
<path fill="none" stroke="#63b8ff" d="M2322.41,-249.18C2328.47,-237.05 2336.25,-221.51 2341.05,-211.91"/>
<polygon fill="#63b8ff" stroke="#63b8ff" points="2319.16,-247.86 2317.82,-258.37 2325.42,-250.99 2319.16,-247.86"/>
</a>
</g>
</g>
</g>
</svg>
