<?xml version="1.0" encoding="UTF-8" standalone="no"?>
<!DOCTYPE svg PUBLIC "-//W3C//DTD SVG 1.1//EN"
 "http://www.w3.org/Graphics/SVG/1.1/DTD/svg11.dtd">
<!-- Generated by graphviz version 2.43.0 (0)
 -->
<!-- Title: Driver/TPipe/RxFrameHandler.h Pages: 1 -->
<svg width="479pt" height="423pt"
 viewBox="0.00 0.00 479.00 423.00" xmlns="http://www.w3.org/2000/svg" xmlns:xlink="http://www.w3.org/1999/xlink">
<g id="graph0" class="graph" transform="scale(1 1) rotate(0) translate(4 419)">
<title>Driver/TPipe/RxFrameHandler.h</title>
<!-- Node1 -->
<g id="Node000001" class="node">
<title>Node1</title>
<g id="a_Node000001"><a xlink:title=" ">
<polygon fill="#999999" stroke="#666666" points="322.5,-415 152.5,-415 152.5,-396 322.5,-396 322.5,-415"/>
<text text-anchor="middle" x="237.5" y="-403" font-family="Helvetica,sans-Serif" font-size="10.00">Driver/TPipe/RxFrameHandler.h</text>
</a>
</g>
</g>
<!-- Node2 -->
<g id="Node000002" class="node">
<title>Node2</title>
<g id="a_Node000002"><a xlink:href="_rx_frame_handler_api_8h.html" target="_top" xlink:title=" ">
<polygon fill="white" stroke="#666666" points="318,-305 157,-305 157,-275 318,-275 318,-305"/>
<text text-anchor="start" x="165" y="-293" font-family="Helvetica,sans-Serif" font-size="10.00">Driver/TPipe/RxFrameHandler</text>
<text text-anchor="middle" x="237.5" y="-282" font-family="Helvetica,sans-Serif" font-size="10.00">Api.h</text>
</a>
</g>
</g>
<!-- Node1&#45;&gt;Node2 -->
<g id="edge1_Node000001_Node000002" class="edge">
<title>Node1&#45;&gt;Node2</title>
<g id="a_edge1_Node000001_Node000002"><a xlink:title=" ">
<path fill="none" stroke="#63b8ff" d="M237.5,-395.97C237.5,-379.08 237.5,-340.85 237.5,-315.48"/>
<polygon fill="#63b8ff" stroke="#63b8ff" points="241,-315.18 237.5,-305.18 234,-315.18 241,-315.18"/>
</a>
</g>
</g>
<!-- Node6 -->
<g id="Node000006" class="node">
<title>Node6</title>
<g id="a_Node000006"><a xlink:href="_key_8h.html" target="_top" xlink:title=" ">
<polygon fill="white" stroke="#666666" points="184,-129 73,-129 73,-110 184,-110 184,-129"/>
<text text-anchor="middle" x="128.5" y="-117" font-family="Helvetica,sans-Serif" font-size="10.00">Cpl/Container/Key.h</text>
</a>
</g>
</g>
<!-- Node1&#45;&gt;Node6 -->
<g id="edge16_Node000001_Node000006" class="edge">
<title>Node1&#45;&gt;Node6</title>
<g id="a_edge16_Node000001_Node000006"><a xlink:title=" ">
<path fill="none" stroke="#63b8ff" d="M219.01,-395.86C187.91,-379.89 128.5,-342.63 128.5,-291 128.5,-291 128.5,-291 128.5,-228.5 128.5,-197.19 128.5,-160.77 128.5,-139.23"/>
<polygon fill="#63b8ff" stroke="#63b8ff" points="132,-139.18 128.5,-129.18 125,-139.18 132,-139.18"/>
</a>
</g>
</g>
<!-- Node13 -->
<g id="Node000013" class="node">
<title>Node13</title>
<g id="a_Node000013"><a xlink:href="_map_8h.html" target="_top" xlink:title=" ">
<polygon fill="white" stroke="#666666" points="421.5,-360 305.5,-360 305.5,-341 421.5,-341 421.5,-360"/>
<text text-anchor="middle" x="363.5" y="-348" font-family="Helvetica,sans-Serif" font-size="10.00">Cpl/Container/Map.h</text>
</a>
</g>
</g>
<!-- Node1&#45;&gt;Node13 -->
<g id="edge12_Node000001_Node000013" class="edge">
<title>Node1&#45;&gt;Node13</title>
<g id="a_edge12_Node000001_Node000013"><a xlink:title=" ">
<path fill="none" stroke="#63b8ff" d="M257.74,-395.98C278.2,-387.38 310.03,-373.99 333.43,-364.15"/>
<polygon fill="#63b8ff" stroke="#63b8ff" points="335.03,-367.27 342.89,-360.17 332.31,-360.82 335.03,-367.27"/>
</a>
</g>
</g>
<!-- Node3 -->
<g id="Node000003" class="node">
<title>Node3</title>
<g id="a_Node000003"><a xlink:href="_map_item_8h.html" target="_top" xlink:title=" ">
<polygon fill="white" stroke="#666666" points="317.5,-239 179.5,-239 179.5,-220 317.5,-220 317.5,-239"/>
<text text-anchor="middle" x="248.5" y="-227" font-family="Helvetica,sans-Serif" font-size="10.00">Cpl/Container/MapItem.h</text>
</a>
</g>
</g>
<!-- Node2&#45;&gt;Node3 -->
<g id="edge2_Node000002_Node000003" class="edge">
<title>Node2&#45;&gt;Node3</title>
<g id="a_edge2_Node000002_Node000003"><a xlink:title=" ">
<path fill="none" stroke="#63b8ff" d="M240.16,-274.84C241.61,-267.13 243.43,-257.49 244.99,-249.17"/>
<polygon fill="#63b8ff" stroke="#63b8ff" points="248.44,-249.74 246.85,-239.27 241.56,-248.45 248.44,-249.74"/>
</a>
</g>
</g>
<!-- Node4 -->
<g id="Node000004" class="node">
<title>Node4</title>
<g id="a_Node000004"><a xlink:href="_dict_item_8h.html" target="_top" xlink:title=" ">
<polygon fill="white" stroke="#666666" points="317,-184 180,-184 180,-165 317,-165 317,-184"/>
<text text-anchor="middle" x="248.5" y="-172" font-family="Helvetica,sans-Serif" font-size="10.00">Cpl/Container/DictItem.h</text>
</a>
</g>
</g>
<!-- Node3&#45;&gt;Node4 -->
<g id="edge3_Node000003_Node000004" class="edge">
<title>Node3&#45;&gt;Node4</title>
<g id="a_edge3_Node000003_Node000004"><a xlink:title=" ">
<path fill="none" stroke="#63b8ff" d="M248.5,-219.75C248.5,-212.8 248.5,-202.85 248.5,-194.13"/>
<polygon fill="#63b8ff" stroke="#63b8ff" points="252,-194.09 248.5,-184.09 245,-194.09 252,-194.09"/>
</a>
</g>
</g>
<!-- Node5 -->
<g id="Node000005" class="node">
<title>Node5</title>
<g id="a_Node000005"><a xlink:href="_item_8h.html" target="_top" xlink:title=" ">
<polygon fill="white" stroke="#666666" points="319,-129 202,-129 202,-110 319,-110 319,-129"/>
<text text-anchor="middle" x="260.5" y="-117" font-family="Helvetica,sans-Serif" font-size="10.00">Cpl/Container/Item.h</text>
</a>
</g>
</g>
<!-- Node4&#45;&gt;Node5 -->
<g id="edge4_Node000004_Node000005" class="edge">
<title>Node4&#45;&gt;Node5</title>
<g id="a_edge4_Node000004_Node000005"><a xlink:title=" ">
<path fill="none" stroke="#63b8ff" d="M250.48,-164.75C252.07,-157.72 254.36,-147.62 256.35,-138.84"/>
<polygon fill="#63b8ff" stroke="#63b8ff" points="259.76,-139.62 258.56,-129.09 252.93,-138.07 259.76,-139.62"/>
</a>
</g>
</g>
<!-- Node4&#45;&gt;Node6 -->
<g id="edge5_Node000004_Node000006" class="edge">
<title>Node4&#45;&gt;Node6</title>
<g id="a_edge5_Node000004_Node000006"><a xlink:title=" ">
<path fill="none" stroke="#63b8ff" d="M229.22,-164.98C209.83,-156.42 179.69,-143.11 157.43,-133.28"/>
<polygon fill="#63b8ff" stroke="#63b8ff" points="158.69,-130.01 148.13,-129.17 155.86,-136.41 158.69,-130.01"/>
</a>
</g>
</g>
<!-- Node7 -->
<g id="Node000007" class="node">
<title>Node7</title>
<g id="a_Node000007"><a xlink:href="_fatal_error_8h.html" target="_top" xlink:title=" ">
<polygon fill="white" stroke="#666666" points="375.5,-74 245.5,-74 245.5,-55 375.5,-55 375.5,-74"/>
<text text-anchor="middle" x="310.5" y="-62" font-family="Helvetica,sans-Serif" font-size="10.00">Cpl/System/FatalError.h</text>
</a>
</g>
</g>
<!-- Node6&#45;&gt;Node7 -->
<g id="edge6_Node000006_Node000007" class="edge">
<title>Node6&#45;&gt;Node7</title>
<g id="a_edge6_Node000006_Node000007"><a xlink:title=" ">
<path fill="none" stroke="#63b8ff" d="M157.74,-109.98C188.56,-101.01 237.28,-86.82 271.39,-76.89"/>
<polygon fill="#63b8ff" stroke="#63b8ff" points="272.41,-80.24 281.03,-74.08 270.45,-73.52 272.41,-80.24"/>
</a>
</g>
</g>
<!-- Node10 -->
<g id="Node000010" class="node">
<title>Node10</title>
<g id="a_Node000010"><a xlink:title=" ">
<polygon fill="#e0e0e0" stroke="#999999" points="53,-74 0,-74 0,-55 53,-55 53,-74"/>
<text text-anchor="middle" x="26.5" y="-62" font-family="Helvetica,sans-Serif" font-size="10.00">stdint.h</text>
</a>
</g>
</g>
<!-- Node6&#45;&gt;Node10 -->
<g id="edge9_Node000006_Node000010" class="edge">
<title>Node6&#45;&gt;Node10</title>
<g id="a_edge9_Node000006_Node000010"><a xlink:title=" ">
<path fill="none" stroke="#63b8ff" d="M112.11,-109.98C95.93,-101.57 70.93,-88.59 52.12,-78.81"/>
<polygon fill="#63b8ff" stroke="#63b8ff" points="53.67,-75.68 43.19,-74.17 50.45,-81.89 53.67,-75.68"/>
</a>
</g>
</g>
<!-- Node11 -->
<g id="Node000011" class="node">
<title>Node11</title>
<g id="a_Node000011"><a xlink:title=" ">
<polygon fill="#e0e0e0" stroke="#999999" points="124,-74 71,-74 71,-55 124,-55 124,-74"/>
<text text-anchor="middle" x="97.5" y="-62" font-family="Helvetica,sans-Serif" font-size="10.00">string.h</text>
</a>
</g>
</g>
<!-- Node6&#45;&gt;Node11 -->
<g id="edge10_Node000006_Node000011" class="edge">
<title>Node6&#45;&gt;Node11</title>
<g id="a_edge10_Node000006_Node000011"><a xlink:title=" ">
<path fill="none" stroke="#63b8ff" d="M123.38,-109.75C119.14,-102.49 112.97,-91.95 107.72,-82.98"/>
<polygon fill="#63b8ff" stroke="#63b8ff" points="110.59,-80.95 102.52,-74.09 104.55,-84.49 110.59,-80.95"/>
</a>
</g>
</g>
<!-- Node12 -->
<g id="Node000012" class="node">
<title>Node12</title>
<g id="a_Node000012"><a xlink:title=" ">
<polygon fill="#e0e0e0" stroke="#999999" points="227,-74 142,-74 142,-55 227,-55 227,-74"/>
<text text-anchor="middle" x="184.5" y="-62" font-family="Helvetica,sans-Serif" font-size="10.00">colony_map.h</text>
</a>
</g>
</g>
<!-- Node6&#45;&gt;Node12 -->
<g id="edge11_Node000006_Node000012" class="edge">
<title>Node6&#45;&gt;Node12</title>
<g id="a_edge11_Node000006_Node000012"><a xlink:title=" ">
<path fill="none" stroke="#63b8ff" d="M137.5,-109.98C145.69,-102.23 158.01,-90.58 167.97,-81.14"/>
<polygon fill="#63b8ff" stroke="#63b8ff" points="170.48,-83.59 175.34,-74.17 165.67,-78.5 170.48,-83.59"/>
</a>
</g>
</g>
<!-- Node8 -->
<g id="Node000008" class="node">
<title>Node8</title>
<g id="a_Node000008"><a xlink:title=" ">
<polygon fill="#e0e0e0" stroke="#999999" points="338.5,-19 282.5,-19 282.5,0 338.5,0 338.5,-19"/>
<text text-anchor="middle" x="310.5" y="-7" font-family="Helvetica,sans-Serif" font-size="10.00">stddef.h</text>
</a>
</g>
</g>
<!-- Node7&#45;&gt;Node8 -->
<g id="edge7_Node000007_Node000008" class="edge">
<title>Node7&#45;&gt;Node8</title>
<g id="a_edge7_Node000007_Node000008"><a xlink:title=" ">
<path fill="none" stroke="#63b8ff" d="M310.5,-54.75C310.5,-47.8 310.5,-37.85 310.5,-29.13"/>
<polygon fill="#63b8ff" stroke="#63b8ff" points="314,-29.09 310.5,-19.09 307,-29.09 314,-29.09"/>
</a>
</g>
</g>
<!-- Node9 -->
<g id="Node000009" class="node">
<title>Node9</title>
<g id="a_Node000009"><a xlink:title=" ">
<polygon fill="#e0e0e0" stroke="#999999" points="448.5,-19 356.5,-19 356.5,0 448.5,0 448.5,-19"/>
<text text-anchor="middle" x="402.5" y="-7" font-family="Helvetica,sans-Serif" font-size="10.00">colony_config.h</text>
</a>
</g>
</g>
<!-- Node7&#45;&gt;Node9 -->
<g id="edge8_Node000007_Node000009" class="edge">
<title>Node7&#45;&gt;Node9</title>
<g id="a_edge8_Node000007_Node000009"><a xlink:title=" ">
<path fill="none" stroke="#63b8ff" d="M325.28,-54.98C339.68,-46.69 361.81,-33.94 378.69,-24.22"/>
<polygon fill="#63b8ff" stroke="#63b8ff" points="380.53,-27.19 387.45,-19.17 377.04,-21.13 380.53,-27.19"/>
</a>
</g>
</g>
<!-- Node14 -->
<g id="Node000014" class="node">
<title>Node14</title>
<g id="a_Node000014"><a xlink:href="_avl_tree___8h.html" target="_top" xlink:title=" ">
<polygon fill="white" stroke="#666666" points="471,-299.5 336,-299.5 336,-280.5 471,-280.5 471,-299.5"/>
<text text-anchor="middle" x="403.5" y="-287.5" font-family="Helvetica,sans-Serif" font-size="10.00">Cpl/Container/AvlTree_.h</text>
</a>
</g>
</g>
<!-- Node13&#45;&gt;Node14 -->
<g id="edge13_Node000013_Node000014" class="edge">
<title>Node13&#45;&gt;Node14</title>
<g id="a_edge13_Node000013_Node000014"><a xlink:title=" ">
<path fill="none" stroke="#63b8ff" d="M369.4,-340.87C375.25,-332.31 384.37,-318.97 391.71,-308.24"/>
<polygon fill="#63b8ff" stroke="#63b8ff" points="394.82,-309.9 397.57,-299.67 389.04,-305.95 394.82,-309.9"/>
</a>
</g>
</g>
<!-- Node14&#45;&gt;Node3 -->
<g id="edge15_Node000014_Node000003" class="edge">
<title>Node14&#45;&gt;Node3</title>
<g id="a_edge15_Node000014_Node000003"><a xlink:title=" ">
<path fill="none" stroke="#63b8ff" d="M380.96,-280.49C354.56,-270.53 310.62,-253.95 280.65,-242.63"/>
<polygon fill="#63b8ff" stroke="#63b8ff" points="281.66,-239.27 271.07,-239.02 279.19,-245.82 281.66,-239.27"/>
</a>
</g>
</g>
<!-- Node14&#45;&gt;Node9 -->
<g id="edge14_Node000014_Node000009" class="edge">
<title>Node14&#45;&gt;Node9</title>
<g id="a_edge14_Node000014_Node000009"><a xlink:title=" ">
<path fill="none" stroke="#63b8ff" d="M403.5,-280.46C403.5,-261.55 403.5,-214.71 403.5,-175.5 403.5,-175.5 403.5,-175.5 403.5,-118.5 403.5,-87.19 403.07,-50.77 402.78,-29.23"/>
<polygon fill="#63b8ff" stroke="#63b8ff" points="406.28,-29.13 402.63,-19.18 399.28,-29.23 406.28,-29.13"/>
</a>
</g>
</g>
</g>
</svg>
