<?xml version="1.0" encoding="UTF-8" standalone="no"?>
<!DOCTYPE svg PUBLIC "-//W3C//DTD SVG 1.1//EN"
 "http://www.w3.org/Graphics/SVG/1.1/DTD/svg11.dtd">
<!-- Generated by graphviz version 2.43.0 (0)
 -->
<!-- Title: Cpl/Container/SList.h Pages: 1 -->
<svg width="4889pt" height="269pt"
 viewBox="0.00 0.00 4889.43 269.00" xmlns="http://www.w3.org/2000/svg" xmlns:xlink="http://www.w3.org/1999/xlink">
<g id="graph0" class="graph" transform="scale(1 1) rotate(0) translate(4 265)">
<title>Cpl/Container/SList.h</title>
<!-- Node1 -->
<g id="Node000001" class="node">
<title>Node1</title>
<g id="a_Node000001"><a xlink:title=" ">
<polygon fill="#999999" stroke="#666666" points="1996.43,-261 1878.43,-261 1878.43,-242 1996.43,-242 1996.43,-261"/>
<text text-anchor="middle" x="1937.43" y="-249" font-family="Helvetica,sans-Serif" font-size="10.00">Cpl/Container/SList.h</text>
</a>
</g>
</g>
<!-- Node2 -->
<g id="Node000002" class="node">
<title>Node2</title>
<g id="a_Node000002"><a xlink:href="_model_database_8h.html" target="_top" xlink:title=" ">
<polygon fill="white" stroke="#666666" points="604.93,-206 463.93,-206 463.93,-187 604.93,-187 604.93,-206"/>
<text text-anchor="middle" x="534.43" y="-194" font-family="Helvetica,sans-Serif" font-size="10.00">Cpl/Dm/ModelDatabase.h</text>
</a>
</g>
</g>
<!-- Node1&#45;&gt;Node2 -->
<g id="edge1_Node000001_Node000002" class="edge">
<title>Node1&#45;&gt;Node2</title>
<g id="a_edge1_Node000001_Node000002"><a xlink:title=" ">
<path fill="none" stroke="#63b8ff" d="M1867.76,-247.87C1629.05,-238.85 845.66,-209.26 605.23,-200.17"/>
<polygon fill="#63b8ff" stroke="#63b8ff" points="1867.91,-251.38 1878.04,-248.26 1868.18,-244.38 1867.91,-251.38"/>
</a>
</g>
</g>
<!-- Node29 -->
<g id="Node000029" class="node">
<title>Node29</title>
<g id="a_Node000029"><a xlink:href="_tee_output_8h.html" target="_top" xlink:title=" ">
<polygon fill="white" stroke="#666666" points="1823.43,-206 1717.43,-206 1717.43,-187 1823.43,-187 1823.43,-206"/>
<text text-anchor="middle" x="1770.43" y="-194" font-family="Helvetica,sans-Serif" font-size="10.00">Cpl/Io/TeeOutput.h</text>
</a>
</g>
</g>
<!-- Node1&#45;&gt;Node29 -->
<g id="edge15_Node000001_Node000029" class="edge">
<title>Node1&#45;&gt;Node29</title>
<g id="a_edge15_Node000001_Node000029"><a xlink:title=" ">
<path fill="none" stroke="#63b8ff" d="M1900.96,-238.93C1869.77,-229.03 1825.59,-215.01 1797.47,-206.08"/>
<polygon fill="#63b8ff" stroke="#63b8ff" points="1900.01,-242.3 1910.6,-241.98 1902.12,-235.62 1900.01,-242.3"/>
</a>
</g>
</g>
<!-- Node30 -->
<g id="Node000030" class="node">
<title>Node30</title>
<g id="a_Node000030"><a xlink:href="_mailbox_8h.html" target="_top" xlink:title=" ">
<polygon fill="white" stroke="#666666" points="1939.43,-206 1841.43,-206 1841.43,-187 1939.43,-187 1939.43,-206"/>
<text text-anchor="middle" x="1890.43" y="-194" font-family="Helvetica,sans-Serif" font-size="10.00">Cpl/Itc/Mailbox.h</text>
</a>
</g>
</g>
<!-- Node1&#45;&gt;Node30 -->
<g id="edge16_Node000001_Node000030" class="edge">
<title>Node1&#45;&gt;Node30</title>
<g id="a_edge16_Node000001_Node000030"><a xlink:title=" ">
<path fill="none" stroke="#63b8ff" d="M1923.01,-234.24C1914.77,-224.95 1904.77,-213.68 1898.04,-206.09"/>
<polygon fill="#63b8ff" stroke="#63b8ff" points="1920.41,-236.59 1929.67,-241.75 1925.65,-231.94 1920.41,-236.59"/>
</a>
</g>
</g>
<!-- Node33 -->
<g id="Node000033" class="node">
<title>Node33</title>
<g id="a_Node000033"><a xlink:href="_manager_8h.html" target="_top" xlink:title=" ">
<polygon fill="white" stroke="#666666" points="2100.93,-90.5 1983.93,-90.5 1983.93,-71.5 2100.93,-71.5 2100.93,-90.5"/>
<text text-anchor="middle" x="2042.43" y="-78.5" font-family="Helvetica,sans-Serif" font-size="10.00">Cpl/MApp/Manager.h</text>
</a>
</g>
</g>
<!-- Node1&#45;&gt;Node33 -->
<g id="edge31_Node000001_Node000033" class="edge">
<title>Node1&#45;&gt;Node33</title>
<g id="a_edge31_Node000001_Node000033"><a xlink:title=" ">
<path fill="none" stroke="#63b8ff" d="M1948.25,-233.13C1970.43,-197.53 2020.38,-117.38 2036.96,-90.77"/>
<polygon fill="#63b8ff" stroke="#63b8ff" points="1945.1,-231.57 1942.78,-241.91 1951.04,-235.28 1945.1,-231.57"/>
</a>
</g>
</g>
<!-- Node48 -->
<g id="Node000048" class="node">
<title>Node48</title>
<g id="a_Node000048"><a xlink:href="_m_app___8h.html" target="_top" xlink:title=" ">
<polygon fill="white" stroke="#666666" points="2148.43,-206 2040.43,-206 2040.43,-187 2148.43,-187 2148.43,-206"/>
<text text-anchor="middle" x="2094.43" y="-194" font-family="Helvetica,sans-Serif" font-size="10.00">Cpl/MApp/MApp_.h</text>
</a>
</g>
</g>
<!-- Node1&#45;&gt;Node48 -->
<g id="edge29_Node000001_Node000048" class="edge">
<title>Node1&#45;&gt;Node48</title>
<g id="a_edge29_Node000001_Node000048"><a xlink:title=" ">
<path fill="none" stroke="#63b8ff" d="M1972.47,-238.67C2001.75,-228.79 2042.8,-214.93 2069,-206.08"/>
<polygon fill="#63b8ff" stroke="#63b8ff" points="1971.01,-235.47 1962.65,-241.98 1973.25,-242.1 1971.01,-235.47"/>
</a>
</g>
</g>
<!-- Node49 -->
<g id="Node000049" class="node">
<title>Node49</title>
<g id="a_Node000049"><a xlink:href="_context___8h.html" target="_top" xlink:title=" ">
<polygon fill="white" stroke="#666666" points="3531.93,-206 3410.93,-206 3410.93,-187 3531.93,-187 3531.93,-206"/>
<text text-anchor="middle" x="3471.43" y="-194" font-family="Helvetica,sans-Serif" font-size="10.00">Cpl/TShell/Context_.h</text>
</a>
</g>
</g>
<!-- Node1&#45;&gt;Node49 -->
<g id="edge32_Node000001_Node000049" class="edge">
<title>Node1&#45;&gt;Node49</title>
<g id="a_edge32_Node000001_Node000049"><a xlink:title=" ">
<path fill="none" stroke="#63b8ff" d="M2006.99,-248.1C2265.41,-239.17 3167.73,-207.99 3410.75,-199.6"/>
<polygon fill="#63b8ff" stroke="#63b8ff" points="2006.49,-244.61 1996.62,-248.45 2006.74,-251.61 2006.49,-244.61"/>
</a>
</g>
</g>
<!-- Node3 -->
<g id="Node000003" class="node">
<title>Node3</title>
<g id="a_Node000003"><a xlink:href="_model_point_common___8h.html" target="_top" xlink:title=" ">
<polygon fill="white" stroke="#666666" points="618.93,-151 449.93,-151 449.93,-132 618.93,-132 618.93,-151"/>
<text text-anchor="middle" x="534.43" y="-139" font-family="Helvetica,sans-Serif" font-size="10.00">Cpl/Dm/ModelPointCommon_.h</text>
</a>
</g>
</g>
<!-- Node2&#45;&gt;Node3 -->
<g id="edge2_Node000002_Node000003" class="edge">
<title>Node2&#45;&gt;Node3</title>
<g id="a_edge2_Node000002_Node000003"><a xlink:title=" ">
<path fill="none" stroke="#63b8ff" d="M534.43,-176.66C534.43,-167.93 534.43,-157.99 534.43,-151.09"/>
<polygon fill="#63b8ff" stroke="#63b8ff" points="530.93,-176.75 534.43,-186.75 537.93,-176.75 530.93,-176.75"/>
</a>
</g>
</g>
<!-- Node6 -->
<g id="Node000006" class="node">
<title>Node6</title>
<g id="a_Node000006"><a xlink:href="_in_out_model_points_8h.html" target="_top" xlink:title="This file defines all of the Model Points for the Simulated DIO InOut driver.">
<polygon fill="white" stroke="#666666" points="359.43,-30 239.43,-30 239.43,0 359.43,0 359.43,-30"/>
<text text-anchor="start" x="247.43" y="-18" font-family="Helvetica,sans-Serif" font-size="10.00">Driver/DIO/Simulated</text>
<text text-anchor="middle" x="299.43" y="-7" font-family="Helvetica,sans-Serif" font-size="10.00">/InOutModelPoints.h</text>
</a>
</g>
</g>
<!-- Node2&#45;&gt;Node6 -->
<g id="edge14_Node000002_Node000006" class="edge">
<title>Node2&#45;&gt;Node6</title>
<g id="a_edge14_Node000002_Node000006"><a xlink:title=" ">
<path fill="none" stroke="#63b8ff" d="M453.74,-192.43C320.18,-185.46 62.31,-163.4 6.43,-96 -2.08,-85.74 -2.17,-76.19 6.43,-66 35.63,-31.39 162.49,-20.74 239.39,-17.46"/>
<polygon fill="#63b8ff" stroke="#63b8ff" points="453.75,-195.93 463.92,-192.94 454.1,-188.94 453.75,-195.93"/>
</a>
</g>
</g>
<!-- Node4 -->
<g id="Node000004" class="node">
<title>Node4</title>
<g id="a_Node000004"><a xlink:href="_array_8h.html" target="_top" xlink:title=" ">
<polygon fill="white" stroke="#666666" points="714.93,-90.5 607.93,-90.5 607.93,-71.5 714.93,-71.5 714.93,-90.5"/>
<text text-anchor="middle" x="661.43" y="-78.5" font-family="Helvetica,sans-Serif" font-size="10.00">Cpl/Dm/Mp/Array.h</text>
</a>
</g>
</g>
<!-- Node3&#45;&gt;Node4 -->
<g id="edge3_Node000003_Node000004" class="edge">
<title>Node3&#45;&gt;Node4</title>
<g id="a_edge3_Node000003_Node000004"><a xlink:title=" ">
<path fill="none" stroke="#63b8ff" d="M562.03,-127.78C586.54,-116.49 621.67,-100.31 642.94,-90.52"/>
<polygon fill="#63b8ff" stroke="#63b8ff" points="560.51,-124.63 552.89,-131.99 563.44,-130.99 560.51,-124.63"/>
</a>
</g>
</g>
<!-- Node5 -->
<g id="Node000005" class="node">
<title>Node5</title>
<g id="a_Node000005"><a xlink:href="_bool_8h.html" target="_top" xlink:title=" ">
<polygon fill="white" stroke="#666666" points="837.43,-90.5 733.43,-90.5 733.43,-71.5 837.43,-71.5 837.43,-90.5"/>
<text text-anchor="middle" x="785.43" y="-78.5" font-family="Helvetica,sans-Serif" font-size="10.00">Cpl/Dm/Mp/Bool.h</text>
</a>
</g>
</g>
<!-- Node3&#45;&gt;Node5 -->
<g id="edge4_Node000003_Node000005" class="edge">
<title>Node3&#45;&gt;Node5</title>
<g id="a_edge4_Node000003_Node000005"><a xlink:title=" ">
<path fill="none" stroke="#63b8ff" d="M580.85,-129.68C629.35,-118.38 704.44,-100.88 748.89,-90.52"/>
<polygon fill="#63b8ff" stroke="#63b8ff" points="579.87,-126.32 570.92,-131.99 581.46,-133.13 579.87,-126.32"/>
</a>
</g>
</g>
<!-- Node8 -->
<g id="Node000008" class="node">
<title>Node8</title>
<g id="a_Node000008"><a xlink:href="_elapsed_precision_time_8h.html" target="_top" xlink:title=" ">
<polygon fill="white" stroke="#666666" points="171.43,-96 15.43,-96 15.43,-66 171.43,-66 171.43,-96"/>
<text text-anchor="start" x="23.43" y="-84" font-family="Helvetica,sans-Serif" font-size="10.00">Cpl/Dm/Mp/ElapsedPrecision</text>
<text text-anchor="middle" x="93.43" y="-73" font-family="Helvetica,sans-Serif" font-size="10.00">Time.h</text>
</a>
</g>
</g>
<!-- Node3&#45;&gt;Node8 -->
<g id="edge7_Node000003_Node000008" class="edge">
<title>Node3&#45;&gt;Node8</title>
<g id="a_edge7_Node000003_Node000008"><a xlink:title=" ">
<path fill="none" stroke="#63b8ff" d="M450.43,-130.77C378.63,-122.25 272.62,-109.21 180.43,-96 177.55,-95.59 174.62,-95.16 171.66,-94.72"/>
<polygon fill="#63b8ff" stroke="#63b8ff" points="450.42,-134.29 460.77,-131.99 451.25,-127.34 450.42,-134.29"/>
</a>
</g>
</g>
<!-- Node9 -->
<g id="Node000009" class="node">
<title>Node9</title>
<g id="a_Node000009"><a xlink:href="_enum___8h.html" target="_top" xlink:title=" ">
<polygon fill="white" stroke="#666666" points="305.43,-90.5 189.43,-90.5 189.43,-71.5 305.43,-71.5 305.43,-90.5"/>
<text text-anchor="middle" x="247.43" y="-78.5" font-family="Helvetica,sans-Serif" font-size="10.00">Cpl/Dm/Mp/Enum_.h</text>
</a>
</g>
</g>
<!-- Node3&#45;&gt;Node9 -->
<g id="edge8_Node000003_Node000009" class="edge">
<title>Node3&#45;&gt;Node9</title>
<g id="a_edge8_Node000003_Node000009"><a xlink:title=" ">
<path fill="none" stroke="#63b8ff" d="M481.8,-129.95C437.22,-121 371.62,-107.76 314.43,-96 305.93,-94.25 296.83,-92.36 288.16,-90.56"/>
<polygon fill="#63b8ff" stroke="#63b8ff" points="481.33,-133.43 491.82,-131.97 482.71,-126.57 481.33,-133.43"/>
</a>
</g>
</g>
<!-- Node10 -->
<g id="Node000010" class="node">
<title>Node10</title>
<g id="a_Node000010"><a xlink:href="_numeric_8h.html" target="_top" xlink:title=" ">
<polygon fill="#fff0f0" stroke="red" points="979.43,-90.5 855.43,-90.5 855.43,-71.5 979.43,-71.5 979.43,-90.5"/>
<text text-anchor="middle" x="917.43" y="-78.5" font-family="Helvetica,sans-Serif" font-size="10.00">Cpl/Dm/Mp/Numeric.h</text>
</a>
</g>
</g>
<!-- Node3&#45;&gt;Node10 -->
<g id="edge9_Node000003_Node000010" class="edge">
<title>Node3&#45;&gt;Node10</title>
<g id="a_edge9_Node000003_Node000010"><a xlink:title=" ">
<path fill="none" stroke="#63b8ff" d="M611.83,-130.62C675.07,-122.27 766.71,-109.53 846.43,-96 856.09,-94.36 866.45,-92.42 876.2,-90.51"/>
<polygon fill="#63b8ff" stroke="#63b8ff" points="610.99,-127.2 601.53,-131.97 611.91,-134.14 610.99,-127.2"/>
</a>
</g>
</g>
<!-- Node27 -->
<g id="Node000027" class="node">
<title>Node27</title>
<g id="a_Node000027"><a xlink:href="_ref_counter_8h.html" target="_top" xlink:title=" ">
<polygon fill="white" stroke="#666666" points="460.93,-90.5 323.93,-90.5 323.93,-71.5 460.93,-71.5 460.93,-90.5"/>
<text text-anchor="middle" x="392.43" y="-78.5" font-family="Helvetica,sans-Serif" font-size="10.00">Cpl/Dm/Mp/RefCounter.h</text>
</a>
</g>
</g>
<!-- Node3&#45;&gt;Node27 -->
<g id="edge12_Node000003_Node000027" class="edge">
<title>Node3&#45;&gt;Node27</title>
<g id="a_edge12_Node000003_Node000027"><a xlink:title=" ">
<path fill="none" stroke="#63b8ff" d="M504.28,-128.08C476.85,-116.78 437.09,-100.4 413.1,-90.52"/>
<polygon fill="#63b8ff" stroke="#63b8ff" points="503.2,-131.42 513.78,-131.99 505.87,-124.95 503.2,-131.42"/>
</a>
</g>
</g>
<!-- Node28 -->
<g id="Node000028" class="node">
<title>Node28</title>
<g id="a_Node000028"><a xlink:href="_dm_2_mp_2_string_8h.html" target="_top" xlink:title=" ">
<polygon fill="white" stroke="#666666" points="589.93,-90.5 478.93,-90.5 478.93,-71.5 589.93,-71.5 589.93,-90.5"/>
<text text-anchor="middle" x="534.43" y="-78.5" font-family="Helvetica,sans-Serif" font-size="10.00">Cpl/Dm/Mp/String.h</text>
</a>
</g>
</g>
<!-- Node3&#45;&gt;Node28 -->
<g id="edge13_Node000003_Node000028" class="edge">
<title>Node3&#45;&gt;Node28</title>
<g id="a_edge13_Node000003_Node000028"><a xlink:title=" ">
<path fill="none" stroke="#63b8ff" d="M534.43,-121.66C534.43,-111.24 534.43,-98.8 534.43,-90.67"/>
<polygon fill="#63b8ff" stroke="#63b8ff" points="530.93,-121.87 534.43,-131.87 537.93,-121.87 530.93,-121.87"/>
</a>
</g>
</g>
<!-- Node5&#45;&gt;Node6 -->
<g id="edge5_Node000005_Node000006" class="edge">
<title>Node5&#45;&gt;Node6</title>
<g id="a_edge5_Node000005_Node000006"><a xlink:title=" ">
<path fill="none" stroke="#63b8ff" d="M740.37,-69.25C734.69,-68.06 728.93,-66.94 723.43,-66 594.67,-43.93 442.23,-28.55 359.75,-21.11"/>
<polygon fill="#63b8ff" stroke="#63b8ff" points="739.96,-72.74 750.47,-71.43 741.44,-65.9 739.96,-72.74"/>
</a>
</g>
</g>
<!-- Node7 -->
<g id="Node000007" class="node">
<title>Node7</title>
<g id="a_Node000007"><a xlink:href="_driver_2_r_h_temp_2_simulated_2_api_8h.html" target="_top" xlink:title=" ">
<polygon fill="white" stroke="#666666" points="831.93,-30 688.93,-30 688.93,0 831.93,0 831.93,-30"/>
<text text-anchor="start" x="696.93" y="-18" font-family="Helvetica,sans-Serif" font-size="10.00">Driver/RHTemp/Simulated</text>
<text text-anchor="middle" x="760.43" y="-7" font-family="Helvetica,sans-Serif" font-size="10.00">/Api.h</text>
</a>
</g>
</g>
<!-- Node5&#45;&gt;Node7 -->
<g id="edge6_Node000005_Node000007" class="edge">
<title>Node5&#45;&gt;Node7</title>
<g id="a_edge6_Node000005_Node000007"><a xlink:title=" ">
<path fill="none" stroke="#63b8ff" d="M778.39,-61.98C774.48,-51.98 769.69,-39.71 766.04,-30.36"/>
<polygon fill="#63b8ff" stroke="#63b8ff" points="775.16,-63.33 782.06,-71.37 781.68,-60.78 775.16,-63.33"/>
</a>
</g>
</g>
<!-- Node11 -->
<g id="Node000011" class="node">
<title>Node11</title>
<g id="a_Node000011"><a xlink:href="_bit_array16_8h.html" target="_top" xlink:title=" ">
<polygon fill="white" stroke="#666666" points="1136.43,-24.5 1002.43,-24.5 1002.43,-5.5 1136.43,-5.5 1136.43,-24.5"/>
<text text-anchor="middle" x="1069.43" y="-12.5" font-family="Helvetica,sans-Serif" font-size="10.00">Cpl/Dm/Mp/BitArray16.h</text>
</a>
</g>
</g>
<!-- Node10&#45;&gt;Node11 -->
<g id="edge10_Node000010_Node000011" class="edge">
<title>Node10&#45;&gt;Node11</title>
<g id="a_edge10_Node000010_Node000011"><a xlink:title=" ">
<path fill="none" stroke="#63b8ff" d="M947.45,-67.36C977.4,-54.75 1022.62,-35.71 1048.77,-24.7"/>
<polygon fill="#63b8ff" stroke="#63b8ff" points="945.78,-64.26 937.93,-71.37 948.5,-70.71 945.78,-64.26"/>
</a>
</g>
</g>
<!-- Node12 -->
<g id="Node000012" class="node">
<title>Node12</title>
<g id="a_Node000012"><a xlink:href="_bit_array32_8h.html" target="_top" xlink:title=" ">
<polygon fill="white" stroke="#666666" points="984.43,-24.5 850.43,-24.5 850.43,-5.5 984.43,-5.5 984.43,-24.5"/>
<text text-anchor="middle" x="917.43" y="-12.5" font-family="Helvetica,sans-Serif" font-size="10.00">Cpl/Dm/Mp/BitArray32.h</text>
</a>
</g>
</g>
<!-- Node10&#45;&gt;Node12 -->
<g id="edge11_Node000010_Node000012" class="edge">
<title>Node10&#45;&gt;Node12</title>
<g id="a_edge11_Node000010_Node000012"><a xlink:title=" ">
<path fill="none" stroke="#63b8ff" d="M917.43,-61.08C917.43,-49.13 917.43,-34.22 917.43,-24.91"/>
<polygon fill="#63b8ff" stroke="#63b8ff" points="913.93,-61.37 917.43,-71.37 920.93,-61.37 913.93,-61.37"/>
</a>
</g>
</g>
<!-- Node31 -->
<g id="Node000031" class="node">
<title>Node31</title>
<g id="a_Node000031"><a xlink:href="_dm_2_mailbox_server_8h.html" target="_top" xlink:title=" ">
<polygon fill="white" stroke="#666666" points="1930.43,-151 1796.43,-151 1796.43,-132 1930.43,-132 1930.43,-151"/>
<text text-anchor="middle" x="1863.43" y="-139" font-family="Helvetica,sans-Serif" font-size="10.00">Cpl/Dm/MailboxServer.h</text>
</a>
</g>
</g>
<!-- Node30&#45;&gt;Node31 -->
<g id="edge17_Node000030_Node000031" class="edge">
<title>Node30&#45;&gt;Node31</title>
<g id="a_edge17_Node000030_Node000031"><a xlink:title=" ">
<path fill="none" stroke="#63b8ff" d="M1881.42,-177.82C1876.84,-168.82 1871.47,-158.29 1867.8,-151.09"/>
<polygon fill="#63b8ff" stroke="#63b8ff" points="1878.31,-179.43 1885.97,-186.75 1884.55,-176.25 1878.31,-179.43"/>
</a>
</g>
</g>
<!-- Node46 -->
<g id="Node000046" class="node">
<title>Node46</title>
<g id="a_Node000046"><a xlink:href="_itc_2_mailbox_server_8h.html" target="_top" xlink:title=" ">
<polygon fill="white" stroke="#666666" points="1455.93,-151 1326.93,-151 1326.93,-132 1455.93,-132 1455.93,-151"/>
<text text-anchor="middle" x="1391.43" y="-139" font-family="Helvetica,sans-Serif" font-size="10.00">Cpl/Itc/MailboxServer.h</text>
</a>
</g>
</g>
<!-- Node30&#45;&gt;Node46 -->
<g id="edge27_Node000030_Node000046" class="edge">
<title>Node30&#45;&gt;Node46</title>
<g id="a_edge27_Node000030_Node000046"><a xlink:title=" ">
<path fill="none" stroke="#63b8ff" d="M1831.36,-186.92C1691.66,-169.81 1540.21,-155.61 1456.17,-148.11"/>
<polygon fill="#63b8ff" stroke="#63b8ff" points="1831.05,-190.41 1841.4,-188.16 1831.9,-183.46 1831.05,-190.41"/>
</a>
</g>
</g>
<!-- Node32 -->
<g id="Node000032" class="node">
<title>Node32</title>
<g id="a_Node000032"><a xlink:href="_dm_2_periodic_scheduler_8h.html" target="_top" xlink:title=" ">
<polygon fill="white" stroke="#666666" points="1638.93,-90.5 1487.93,-90.5 1487.93,-71.5 1638.93,-71.5 1638.93,-90.5"/>
<text text-anchor="middle" x="1563.43" y="-78.5" font-family="Helvetica,sans-Serif" font-size="10.00">Cpl/Dm/PeriodicScheduler.h</text>
</a>
</g>
</g>
<!-- Node31&#45;&gt;Node32 -->
<g id="edge18_Node000031_Node000032" class="edge">
<title>Node31&#45;&gt;Node32</title>
<g id="a_edge18_Node000031_Node000032"><a xlink:title=" ">
<path fill="none" stroke="#63b8ff" d="M1809.75,-130.03C1751.86,-118.74 1660.78,-100.98 1607.1,-90.52"/>
<polygon fill="#63b8ff" stroke="#63b8ff" points="1809.32,-133.51 1819.8,-131.99 1810.66,-126.64 1809.32,-133.51"/>
</a>
</g>
</g>
<!-- Node21 -->
<g id="Node000021" class="node">
<title>Node21</title>
<g id="a_Node000021"><a xlink:href="_log_sink_8h.html" target="_top" xlink:title=" ">
<polygon fill="white" stroke="#666666" points="1781.43,-90.5 1657.43,-90.5 1657.43,-71.5 1781.43,-71.5 1781.43,-90.5"/>
<text text-anchor="middle" x="1719.43" y="-78.5" font-family="Helvetica,sans-Serif" font-size="10.00">Cpl/Logging/LogSink.h</text>
</a>
</g>
</g>
<!-- Node31&#45;&gt;Node21 -->
<g id="edge19_Node000031_Node000021" class="edge">
<title>Node31&#45;&gt;Node21</title>
<g id="a_edge19_Node000031_Node000021"><a xlink:title=" ">
<path fill="none" stroke="#63b8ff" d="M1832.86,-128.08C1805.04,-116.78 1764.72,-100.4 1740.39,-90.52"/>
<polygon fill="#63b8ff" stroke="#63b8ff" points="1831.91,-131.47 1842.49,-131.99 1834.54,-124.99 1831.91,-131.47"/>
</a>
</g>
</g>
<!-- Node31&#45;&gt;Node33 -->
<g id="edge20_Node000031_Node000033" class="edge">
<title>Node31&#45;&gt;Node33</title>
<g id="a_edge20_Node000031_Node000033"><a xlink:title=" ">
<path fill="none" stroke="#63b8ff" d="M1899.17,-128.82C1933.8,-117.5 1985.47,-100.62 2016.37,-90.52"/>
<polygon fill="#63b8ff" stroke="#63b8ff" points="1897.87,-125.56 1889.46,-131.99 1900.05,-132.21 1897.87,-125.56"/>
</a>
</g>
</g>
<!-- Node15 -->
<g id="Node000015" class="node">
<title>Node15</title>
<g id="a_Node000015"><a xlink:href="_cpl_2_m_app_2_temperature_2_api_8h.html" target="_top" xlink:title=" ">
<polygon fill="white" stroke="#666666" points="2247.43,-96 2119.43,-96 2119.43,-66 2247.43,-66 2247.43,-96"/>
<text text-anchor="start" x="2127.43" y="-84" font-family="Helvetica,sans-Serif" font-size="10.00">Cpl/MApp/Temperature</text>
<text text-anchor="middle" x="2183.43" y="-73" font-family="Helvetica,sans-Serif" font-size="10.00">/Api.h</text>
</a>
</g>
</g>
<!-- Node31&#45;&gt;Node15 -->
<g id="edge21_Node000031_Node000015" class="edge">
<title>Node31&#45;&gt;Node15</title>
<g id="a_edge21_Node000031_Node000015"><a xlink:title=" ">
<path fill="none" stroke="#63b8ff" d="M1921.02,-130.22C1970.89,-121.28 2044.95,-107.93 2109.43,-96 2112.64,-95.41 2115.93,-94.79 2119.26,-94.17"/>
<polygon fill="#63b8ff" stroke="#63b8ff" points="1920.29,-126.79 1911.07,-132 1921.53,-133.68 1920.29,-126.79"/>
</a>
</g>
</g>
<!-- Node34 -->
<g id="Node000034" class="node">
<title>Node34</title>
<g id="a_Node000034"><a xlink:href="_chunk_8h.html" target="_top" xlink:title=" ">
<polygon fill="#fff0f0" stroke="red" points="1926.93,-90.5 1799.93,-90.5 1799.93,-71.5 1926.93,-71.5 1926.93,-90.5"/>
<text text-anchor="middle" x="1863.43" y="-78.5" font-family="Helvetica,sans-Serif" font-size="10.00">Cpl/Persistent/Chunk.h</text>
</a>
</g>
</g>
<!-- Node31&#45;&gt;Node34 -->
<g id="edge22_Node000031_Node000034" class="edge">
<title>Node31&#45;&gt;Node34</title>
<g id="a_edge22_Node000031_Node000034"><a xlink:title=" ">
<path fill="none" stroke="#63b8ff" d="M1863.43,-121.66C1863.43,-111.24 1863.43,-98.8 1863.43,-90.67"/>
<polygon fill="#63b8ff" stroke="#63b8ff" points="1859.93,-121.87 1863.43,-131.87 1866.93,-121.87 1859.93,-121.87"/>
</a>
</g>
</g>
<!-- Node40 -->
<g id="Node000040" class="node">
<title>Node40</title>
<g id="a_Node000040"><a xlink:href="_persistent_2_record_8h.html" target="_top" xlink:title=" ">
<polygon fill="#fff0f0" stroke="red" points="1291.43,-90.5 1161.43,-90.5 1161.43,-71.5 1291.43,-71.5 1291.43,-90.5"/>
<text text-anchor="middle" x="1226.43" y="-78.5" font-family="Helvetica,sans-Serif" font-size="10.00">Cpl/Persistent/Record.h</text>
</a>
</g>
</g>
<!-- Node31&#45;&gt;Node40 -->
<g id="edge23_Node000031_Node000040" class="edge">
<title>Node31&#45;&gt;Node40</title>
<g id="a_edge23_Node000031_Node000040"><a xlink:title=" ">
<path fill="none" stroke="#63b8ff" d="M1785.78,-137.02C1676.93,-131.54 1472.95,-119.07 1300.43,-96 1289.67,-94.56 1278.11,-92.58 1267.4,-90.57"/>
<polygon fill="#63b8ff" stroke="#63b8ff" points="1785.85,-140.53 1796.01,-137.53 1786.2,-133.54 1785.85,-140.53"/>
</a>
</g>
</g>
<!-- Node41 -->
<g id="Node000041" class="node">
<title>Node41</title>
<g id="a_Node000041"><a xlink:href="_record_server_8h.html" target="_top" xlink:title=" ">
<polygon fill="#fff0f0" stroke="red" points="1675.93,-24.5 1514.93,-24.5 1514.93,-5.5 1675.93,-5.5 1675.93,-24.5"/>
<text text-anchor="middle" x="1595.43" y="-12.5" font-family="Helvetica,sans-Serif" font-size="10.00">Cpl/Persistent/RecordServer.h</text>
</a>
</g>
</g>
<!-- Node31&#45;&gt;Node41 -->
<g id="edge25_Node000031_Node000041" class="edge">
<title>Node31&#45;&gt;Node41</title>
<g id="a_edge25_Node000031_Node000041"><a xlink:title=" ">
<path fill="none" stroke="#63b8ff" d="M1898.39,-127.82C1912.53,-120.76 1927.39,-110.42 1935.43,-96 1941.92,-84.35 1944.14,-76.09 1935.43,-66 1902.62,-28.02 1766.07,-18.36 1676.32,-16.21"/>
<polygon fill="#63b8ff" stroke="#63b8ff" points="1896.91,-124.64 1889.28,-131.99 1899.83,-131.01 1896.91,-124.64"/>
</a>
</g>
</g>
<!-- Node42 -->
<g id="Node000042" class="node">
<title>Node42</title>
<g id="a_Node000042"><a xlink:href="_region_media_8h.html" target="_top" xlink:title=" ">
<polygon fill="#fff0f0" stroke="red" points="1469.43,-90.5 1309.43,-90.5 1309.43,-71.5 1469.43,-71.5 1469.43,-90.5"/>
<text text-anchor="middle" x="1389.43" y="-78.5" font-family="Helvetica,sans-Serif" font-size="10.00">Cpl/Persistent/RegionMedia.h</text>
</a>
</g>
</g>
<!-- Node31&#45;&gt;Node42 -->
<g id="edge26_Node000031_Node000042" class="edge">
<title>Node31&#45;&gt;Node42</title>
<g id="a_edge26_Node000031_Node000042"><a xlink:title=" ">
<path fill="none" stroke="#63b8ff" d="M1786.01,-132.49C1708.18,-124.22 1584.82,-110.51 1478.43,-96 1466.34,-94.35 1453.35,-92.41 1441.14,-90.5"/>
<polygon fill="#63b8ff" stroke="#63b8ff" points="1785.89,-136 1796.21,-133.57 1786.63,-129.04 1785.89,-136"/>
</a>
</g>
</g>
<!-- Node40&#45;&gt;Node41 -->
<g id="edge24_Node000040_Node000041" class="edge">
<title>Node40&#45;&gt;Node41</title>
<g id="a_edge24_Node000040_Node000041"><a xlink:title=" ">
<path fill="none" stroke="#63b8ff" d="M1280.87,-69.58C1287.46,-68.35 1294.09,-67.14 1300.43,-66 1385.43,-50.76 1484.44,-34.22 1543.42,-24.51"/>
<polygon fill="#63b8ff" stroke="#63b8ff" points="1279.8,-66.22 1270.62,-71.5 1281.09,-73.1 1279.8,-66.22"/>
</a>
</g>
</g>
<!-- Node47 -->
<g id="Node000047" class="node">
<title>Node47</title>
<g id="a_Node000047"><a xlink:href="_itc_2_periodic_scheduler_8h.html" target="_top" xlink:title=" ">
<polygon fill="white" stroke="#666666" points="1143.43,-90.5 997.43,-90.5 997.43,-71.5 1143.43,-71.5 1143.43,-90.5"/>
<text text-anchor="middle" x="1070.43" y="-78.5" font-family="Helvetica,sans-Serif" font-size="10.00">Cpl/Itc/PeriodicScheduler.h</text>
</a>
</g>
</g>
<!-- Node46&#45;&gt;Node47 -->
<g id="edge28_Node000046_Node000047" class="edge">
<title>Node46&#45;&gt;Node47</title>
<g id="a_edge28_Node000046_Node000047"><a xlink:title=" ">
<path fill="none" stroke="#63b8ff" d="M1334.76,-130.17C1272.85,-118.89 1174.84,-101.03 1117.16,-90.52"/>
<polygon fill="#63b8ff" stroke="#63b8ff" points="1334.29,-133.64 1344.75,-131.99 1335.54,-126.76 1334.29,-133.64"/>
</a>
</g>
</g>
<!-- Node48&#45;&gt;Node15 -->
<g id="edge30_Node000048_Node000015" class="edge">
<title>Node48&#45;&gt;Node15</title>
<g id="a_edge30_Node000048_Node000015"><a xlink:title=" ">
<path fill="none" stroke="#63b8ff" d="M2107.3,-179.08C2124.8,-156.77 2155.78,-117.26 2172.31,-96.18"/>
<polygon fill="#63b8ff" stroke="#63b8ff" points="2104.53,-176.94 2101.12,-186.97 2110.04,-181.26 2104.53,-176.94"/>
</a>
</g>
</g>
<!-- Node50 -->
<g id="Node000050" class="node">
<title>Node50</title>
<g id="a_Node000050"><a xlink:href="_cmd_2_command_8h.html" target="_top" xlink:title=" ">
<polygon fill="white" stroke="#666666" points="3547.93,-151 3394.93,-151 3394.93,-132 3547.93,-132 3547.93,-151"/>
<text text-anchor="middle" x="3471.43" y="-139" font-family="Helvetica,sans-Serif" font-size="10.00">Cpl/TShell/Cmd/Command.h</text>
</a>
</g>
</g>
<!-- Node49&#45;&gt;Node50 -->
<g id="edge33_Node000049_Node000050" class="edge">
<title>Node49&#45;&gt;Node50</title>
<g id="a_edge33_Node000049_Node000050"><a xlink:title=" ">
<path fill="none" stroke="#63b8ff" d="M3471.43,-176.66C3471.43,-167.93 3471.43,-157.99 3471.43,-151.09"/>
<polygon fill="#63b8ff" stroke="#63b8ff" points="3467.93,-176.75 3471.43,-186.75 3474.93,-176.75 3467.93,-176.75"/>
</a>
</g>
</g>
<!-- Node69 -->
<g id="Node000069" class="node">
<title>Node69</title>
<g id="a_Node000069"><a xlink:href="_processor_8h.html" target="_top" xlink:title=" ">
<polygon fill="white" stroke="#666666" points="4717.43,-151 4593.43,-151 4593.43,-132 4717.43,-132 4717.43,-151"/>
<text text-anchor="middle" x="4655.43" y="-139" font-family="Helvetica,sans-Serif" font-size="10.00">Cpl/TShell/Processor.h</text>
</a>
</g>
</g>
<!-- Node49&#45;&gt;Node69 -->
<g id="edge51_Node000049_Node000069" class="edge">
<title>Node49&#45;&gt;Node69</title>
<g id="a_edge51_Node000049_Node000069"><a xlink:title=" ">
<path fill="none" stroke="#63b8ff" d="M3542.33,-192.33C3756,-182.76 4391.3,-154.32 4593.14,-145.29"/>
<polygon fill="#63b8ff" stroke="#63b8ff" points="3542.01,-188.84 3532.18,-192.78 3542.33,-195.83 3542.01,-188.84"/>
</a>
</g>
</g>
<!-- Node51 -->
<g id="Node000051" class="node">
<title>Node51</title>
<g id="a_Node000051"><a xlink:href="_dm_8h.html" target="_top" xlink:title=" ">
<polygon fill="white" stroke="#666666" points="3939.93,-90.5 3824.93,-90.5 3824.93,-71.5 3939.93,-71.5 3939.93,-90.5"/>
<text text-anchor="middle" x="3882.43" y="-78.5" font-family="Helvetica,sans-Serif" font-size="10.00">Cpl/Dm/TShell/Dm.h</text>
</a>
</g>
</g>
<!-- Node50&#45;&gt;Node51 -->
<g id="edge34_Node000050_Node000051" class="edge">
<title>Node50&#45;&gt;Node51</title>
<g id="a_edge34_Node000050_Node000051"><a xlink:title=" ">
<path fill="none" stroke="#63b8ff" d="M3558.25,-131.15C3627.97,-123.19 3728.27,-110.72 3815.43,-96 3824.8,-94.42 3834.86,-92.46 3844.26,-90.51"/>
<polygon fill="#63b8ff" stroke="#63b8ff" points="3557.73,-127.69 3548.19,-132.29 3558.52,-134.64 3557.73,-127.69"/>
</a>
</g>
</g>
<!-- Node52 -->
<g id="Node000052" class="node">
<title>Node52</title>
<g id="a_Node000052"><a xlink:href="_fs_8h.html" target="_top" xlink:title=" ">
<polygon fill="white" stroke="#666666" points="4058.93,-96 3957.93,-96 3957.93,-66 4058.93,-66 4058.93,-96"/>
<text text-anchor="start" x="3965.93" y="-84" font-family="Helvetica,sans-Serif" font-size="10.00">Cpl/Io/File/Littlefs</text>
<text text-anchor="middle" x="4008.43" y="-73" font-family="Helvetica,sans-Serif" font-size="10.00">/TShell/Fs.h</text>
</a>
</g>
</g>
<!-- Node50&#45;&gt;Node52 -->
<g id="edge35_Node000050_Node000052" class="edge">
<title>Node50&#45;&gt;Node52</title>
<g id="a_edge35_Node000050_Node000052"><a xlink:title=" ">
<path fill="none" stroke="#63b8ff" d="M3558.49,-135.95C3654.46,-130.1 3813.18,-117.98 3948.43,-96 3951.49,-95.5 3954.63,-94.94 3957.78,-94.33"/>
<polygon fill="#63b8ff" stroke="#63b8ff" points="3558.02,-132.47 3548.25,-136.56 3558.44,-139.46 3558.02,-132.47"/>
</a>
</g>
</g>
<!-- Node23 -->
<g id="Node000023" class="node">
<title>Node23</title>
<g id="a_Node000023"><a xlink:href="_log_8h.html" target="_top" xlink:title=" ">
<polygon fill="white" stroke="#666666" points="4183.93,-96 4076.93,-96 4076.93,-66 4183.93,-66 4183.93,-96"/>
<text text-anchor="start" x="4084.93" y="-84" font-family="Helvetica,sans-Serif" font-size="10.00">Cpl/Logging/TShell</text>
<text text-anchor="middle" x="4130.43" y="-73" font-family="Helvetica,sans-Serif" font-size="10.00">/Log.h</text>
</a>
</g>
</g>
<!-- Node50&#45;&gt;Node23 -->
<g id="edge36_Node000050_Node000023" class="edge">
<title>Node50&#45;&gt;Node23</title>
<g id="a_edge36_Node000050_Node000023"><a xlink:title=" ">
<path fill="none" stroke="#63b8ff" d="M3558.3,-137.94C3674.73,-133.61 3887.58,-122.56 4067.43,-96 4070.53,-95.54 4073.71,-95.02 4076.91,-94.44"/>
<polygon fill="#63b8ff" stroke="#63b8ff" points="3557.89,-134.45 3548.02,-138.31 3558.14,-141.44 3557.89,-134.45"/>
</a>
</g>
</g>
<!-- Node53 -->
<g id="Node000053" class="node">
<title>Node53</title>
<g id="a_Node000053"><a xlink:href="_cpl_2_m_app_2_cmd_8h.html" target="_top" xlink:title=" ">
<polygon fill="white" stroke="#666666" points="4300.43,-90.5 4202.43,-90.5 4202.43,-71.5 4300.43,-71.5 4300.43,-90.5"/>
<text text-anchor="middle" x="4251.43" y="-78.5" font-family="Helvetica,sans-Serif" font-size="10.00">Cpl/MApp/Cmd.h</text>
</a>
</g>
</g>
<!-- Node50&#45;&gt;Node53 -->
<g id="edge37_Node000050_Node000053" class="edge">
<title>Node50&#45;&gt;Node53</title>
<g id="a_edge37_Node000050_Node000053"><a xlink:title=" ">
<path fill="none" stroke="#63b8ff" d="M3558.53,-139.93C3694.57,-137.95 3965.43,-129.68 4192.43,-96 4201.38,-94.67 4210.98,-92.66 4219.78,-90.56"/>
<polygon fill="#63b8ff" stroke="#63b8ff" points="3558.13,-136.43 3548.18,-140.07 3558.22,-143.43 3558.13,-136.43"/>
</a>
</g>
</g>
<!-- Node54 -->
<g id="Node000054" class="node">
<title>Node54</title>
<g id="a_Node000054"><a xlink:href="_bye_8h.html" target="_top" xlink:title=" ">
<polygon fill="white" stroke="#666666" points="4440.43,-90.5 4318.43,-90.5 4318.43,-71.5 4440.43,-71.5 4440.43,-90.5"/>
<text text-anchor="middle" x="4379.43" y="-78.5" font-family="Helvetica,sans-Serif" font-size="10.00">Cpl/TShell/Cmd/Bye.h</text>
</a>
</g>
</g>
<!-- Node50&#45;&gt;Node54 -->
<g id="edge38_Node000050_Node000054" class="edge">
<title>Node50&#45;&gt;Node54</title>
<g id="a_edge38_Node000050_Node000054"><a xlink:title=" ">
<path fill="none" stroke="#63b8ff" d="M3558.25,-140.01C3710.82,-138.23 4036.71,-130.33 4309.43,-96 4320,-94.67 4331.37,-92.65 4341.81,-90.56"/>
<polygon fill="#63b8ff" stroke="#63b8ff" points="3557.97,-136.51 3548.01,-140.12 3558.05,-143.51 3557.97,-136.51"/>
</a>
</g>
</g>
<!-- Node55 -->
<g id="Node000055" class="node">
<title>Node55</title>
<g id="a_Node000055"><a xlink:href="_help_8h.html" target="_top" xlink:title=" ">
<polygon fill="white" stroke="#666666" points="4583.93,-90.5 4458.93,-90.5 4458.93,-71.5 4583.93,-71.5 4583.93,-90.5"/>
<text text-anchor="middle" x="4521.43" y="-78.5" font-family="Helvetica,sans-Serif" font-size="10.00">Cpl/TShell/Cmd/Help.h</text>
</a>
</g>
</g>
<!-- Node50&#45;&gt;Node55 -->
<g id="edge39_Node000050_Node000055" class="edge">
<title>Node50&#45;&gt;Node55</title>
<g id="a_edge39_Node000050_Node000055"><a xlink:title=" ">
<path fill="none" stroke="#63b8ff" d="M3558.35,-140.81C3729.54,-140.47 4122.16,-135.05 4449.43,-96 4460.43,-94.69 4472.27,-92.65 4483.1,-90.53"/>
<polygon fill="#63b8ff" stroke="#63b8ff" points="3558.13,-137.31 3548.14,-140.82 3558.14,-144.31 3558.13,-137.31"/>
</a>
</g>
</g>
<!-- Node56 -->
<g id="Node000056" class="node">
<title>Node56</title>
<g id="a_Node000056"><a xlink:href="_t_print_8h.html" target="_top" xlink:title=" ">
<polygon fill="white" stroke="#666666" points="2396.93,-90.5 2265.93,-90.5 2265.93,-71.5 2396.93,-71.5 2396.93,-90.5"/>
<text text-anchor="middle" x="2331.43" y="-78.5" font-family="Helvetica,sans-Serif" font-size="10.00">Cpl/TShell/Cmd/TPrint.h</text>
</a>
</g>
</g>
<!-- Node50&#45;&gt;Node56 -->
<g id="edge40_Node000050_Node000056" class="edge">
<title>Node50&#45;&gt;Node56</title>
<g id="a_edge40_Node000050_Node000056"><a xlink:title=" ">
<path fill="none" stroke="#63b8ff" d="M3384.57,-141.06C3202.55,-141.31 2768.03,-137.09 2406.43,-96 2394.98,-94.7 2382.65,-92.67 2371.36,-90.55"/>
<polygon fill="#63b8ff" stroke="#63b8ff" points="3384.62,-144.56 3394.62,-141.04 3384.61,-137.56 3384.62,-144.56"/>
</a>
</g>
</g>
<!-- Node57 -->
<g id="Node000057" class="node">
<title>Node57</title>
<g id="a_Node000057"><a xlink:href="_threads_8h.html" target="_top" xlink:title=" ">
<polygon fill="#fff0f0" stroke="red" points="2557.43,-90.5 2415.43,-90.5 2415.43,-71.5 2557.43,-71.5 2557.43,-90.5"/>
<text text-anchor="middle" x="2486.43" y="-78.5" font-family="Helvetica,sans-Serif" font-size="10.00">Cpl/TShell/Cmd/Threads.h</text>
</a>
</g>
</g>
<!-- Node50&#45;&gt;Node57 -->
<g id="edge41_Node000050_Node000057" class="edge">
<title>Node50&#45;&gt;Node57</title>
<g id="a_edge41_Node000050_Node000057"><a xlink:title=" ">
<path fill="none" stroke="#63b8ff" d="M3384.54,-139.81C3222.95,-137.73 2865.5,-129.39 2566.43,-96 2554.38,-94.65 2541.39,-92.63 2529.47,-90.54"/>
<polygon fill="#63b8ff" stroke="#63b8ff" points="3384.85,-143.31 3394.89,-139.94 3384.94,-136.31 3384.85,-143.31"/>
</a>
</g>
</g>
<!-- Node60 -->
<g id="Node000060" class="node">
<title>Node60</title>
<g id="a_Node000060"><a xlink:href="_tick_8h.html" target="_top" xlink:title=" ">
<polygon fill="white" stroke="#666666" points="2698.93,-90.5 2575.93,-90.5 2575.93,-71.5 2698.93,-71.5 2698.93,-90.5"/>
<text text-anchor="middle" x="2637.43" y="-78.5" font-family="Helvetica,sans-Serif" font-size="10.00">Cpl/TShell/Cmd/Tick.h</text>
</a>
</g>
</g>
<!-- Node50&#45;&gt;Node60 -->
<g id="edge42_Node000050_Node000060" class="edge">
<title>Node50&#45;&gt;Node60</title>
<g id="a_edge42_Node000050_Node000060"><a xlink:title=" ">
<path fill="none" stroke="#63b8ff" d="M3384.38,-139.28C3242.33,-136.43 2952.1,-126.98 2708.43,-96 2697.71,-94.64 2686.18,-92.61 2675.59,-90.52"/>
<polygon fill="#63b8ff" stroke="#63b8ff" points="3384.69,-142.79 3394.76,-139.48 3384.83,-135.79 3384.69,-142.79"/>
</a>
</g>
</g>
<!-- Node61 -->
<g id="Node000061" class="node">
<title>Node61</title>
<g id="a_Node000061"><a xlink:href="_t_shell_2_cmd_2_trace_8h.html" target="_top" xlink:title=" ">
<polygon fill="white" stroke="#666666" points="2845.43,-90.5 2717.43,-90.5 2717.43,-71.5 2845.43,-71.5 2845.43,-90.5"/>
<text text-anchor="middle" x="2781.43" y="-78.5" font-family="Helvetica,sans-Serif" font-size="10.00">Cpl/TShell/Cmd/Trace.h</text>
</a>
</g>
</g>
<!-- Node50&#45;&gt;Node61 -->
<g id="edge43_Node000050_Node000061" class="edge">
<title>Node50&#45;&gt;Node61</title>
<g id="a_edge43_Node000050_Node000061"><a xlink:title=" ">
<path fill="none" stroke="#63b8ff" d="M3384.46,-137.45C3264.7,-132.51 3042.47,-120.73 2854.43,-96 2843.68,-94.59 2832.13,-92.59 2821.45,-90.55"/>
<polygon fill="#63b8ff" stroke="#63b8ff" points="3384.53,-140.95 3394.66,-137.86 3384.81,-133.96 3384.53,-140.95"/>
</a>
</g>
</g>
<!-- Node62 -->
<g id="Node000062" class="node">
<title>Node62</title>
<g id="a_Node000062"><a xlink:href="_user_8h.html" target="_top" xlink:title=" ">
<polygon fill="white" stroke="#666666" points="2988.93,-90.5 2863.93,-90.5 2863.93,-71.5 2988.93,-71.5 2988.93,-90.5"/>
<text text-anchor="middle" x="2926.43" y="-78.5" font-family="Helvetica,sans-Serif" font-size="10.00">Cpl/TShell/Cmd/User.h</text>
</a>
</g>
</g>
<!-- Node50&#45;&gt;Node62 -->
<g id="edge44_Node000050_Node000062" class="edge">
<title>Node50&#45;&gt;Node62</title>
<g id="a_edge44_Node000050_Node000062"><a xlink:title=" ">
<path fill="none" stroke="#63b8ff" d="M3384.63,-135C3289.34,-128.34 3131.99,-115.53 2997.43,-96 2987.23,-94.52 2976.28,-92.55 2966.11,-90.56"/>
<polygon fill="#63b8ff" stroke="#63b8ff" points="3384.58,-138.5 3394.8,-135.7 3385.06,-131.52 3384.58,-138.5"/>
</a>
</g>
</g>
<!-- Node63 -->
<g id="Node000063" class="node">
<title>Node63</title>
<g id="a_Node000063"><a xlink:href="_wait_8h.html" target="_top" xlink:title=" ">
<polygon fill="white" stroke="#666666" points="3131.93,-90.5 3006.93,-90.5 3006.93,-71.5 3131.93,-71.5 3131.93,-90.5"/>
<text text-anchor="middle" x="3069.43" y="-78.5" font-family="Helvetica,sans-Serif" font-size="10.00">Cpl/TShell/Cmd/Wait.h</text>
</a>
</g>
</g>
<!-- Node50&#45;&gt;Node63 -->
<g id="edge45_Node000050_Node000063" class="edge">
<title>Node50&#45;&gt;Node63</title>
<g id="a_edge45_Node000050_Node000063"><a xlink:title=" ">
<path fill="none" stroke="#63b8ff" d="M3388.18,-130.74C3321.12,-122.53 3224.49,-109.93 3140.43,-96 3130.76,-94.4 3120.39,-92.47 3110.65,-90.57"/>
<polygon fill="#63b8ff" stroke="#63b8ff" points="3387.92,-134.23 3398.27,-131.97 3388.76,-127.28 3387.92,-134.23"/>
</a>
</g>
</g>
<!-- Node64 -->
<g id="Node000064" class="node">
<title>Node64</title>
<g id="a_Node000064"><a xlink:href="_t_shell_2_random_8h.html" target="_top" xlink:title=" ">
<polygon fill="white" stroke="#666666" points="3264.93,-96 3149.93,-96 3149.93,-66 3264.93,-66 3264.93,-96"/>
<text text-anchor="start" x="3157.93" y="-84" font-family="Helvetica,sans-Serif" font-size="10.00">Driver/Crypto/TShell</text>
<text text-anchor="middle" x="3207.43" y="-73" font-family="Helvetica,sans-Serif" font-size="10.00">/Random.h</text>
</a>
</g>
</g>
<!-- Node50&#45;&gt;Node64 -->
<g id="edge46_Node000050_Node000064" class="edge">
<title>Node50&#45;&gt;Node64</title>
<g id="a_edge46_Node000050_Node000064"><a xlink:title=" ">
<path fill="none" stroke="#63b8ff" d="M3423.06,-129.78C3378.6,-119.93 3312.61,-105.31 3265.36,-94.84"/>
<polygon fill="#63b8ff" stroke="#63b8ff" points="3422.52,-133.25 3433.04,-131.99 3424.03,-126.41 3422.52,-133.25"/>
</a>
</g>
</g>
<!-- Node65 -->
<g id="Node000065" class="node">
<title>Node65</title>
<g id="a_Node000065"><a xlink:href="_in_out_cmd_8h.html" target="_top" xlink:title=" ">
<polygon fill="white" stroke="#666666" points="3385.93,-96 3282.93,-96 3282.93,-66 3385.93,-66 3385.93,-96"/>
<text text-anchor="start" x="3290.93" y="-84" font-family="Helvetica,sans-Serif" font-size="10.00">Driver/DIO/_tshell</text>
<text text-anchor="middle" x="3334.43" y="-73" font-family="Helvetica,sans-Serif" font-size="10.00">/InOutCmd.h</text>
</a>
</g>
</g>
<!-- Node50&#45;&gt;Node65 -->
<g id="edge47_Node000050_Node000065" class="edge">
<title>Node50&#45;&gt;Node65</title>
<g id="a_edge47_Node000050_Node000065"><a xlink:title=" ">
<path fill="none" stroke="#63b8ff" d="M3442.05,-127.95C3420.11,-118.59 3390.11,-105.78 3367.36,-96.06"/>
<polygon fill="#63b8ff" stroke="#63b8ff" points="3440.93,-131.29 3451.51,-131.99 3443.68,-124.85 3440.93,-131.29"/>
</a>
</g>
</g>
<!-- Node66 -->
<g id="Node000066" class="node">
<title>Node66</title>
<g id="a_Node000066"><a xlink:href="_driver_2_n_v_2__tshell_2_cmd_8h.html" target="_top" xlink:title=" ">
<polygon fill="white" stroke="#666666" points="3538.43,-90.5 3404.43,-90.5 3404.43,-71.5 3538.43,-71.5 3538.43,-90.5"/>
<text text-anchor="middle" x="3471.43" y="-78.5" font-family="Helvetica,sans-Serif" font-size="10.00">Driver/NV/_tshell/Cmd.h</text>
</a>
</g>
</g>
<!-- Node50&#45;&gt;Node66 -->
<g id="edge48_Node000050_Node000066" class="edge">
<title>Node50&#45;&gt;Node66</title>
<g id="a_edge48_Node000050_Node000066"><a xlink:title=" ">
<path fill="none" stroke="#63b8ff" d="M3471.43,-121.66C3471.43,-111.24 3471.43,-98.8 3471.43,-90.67"/>
<polygon fill="#63b8ff" stroke="#63b8ff" points="3467.93,-121.87 3471.43,-131.87 3474.93,-121.87 3467.93,-121.87"/>
</a>
</g>
</g>
<!-- Node67 -->
<g id="Node000067" class="node">
<title>Node67</title>
<g id="a_Node000067"><a xlink:href="_driver_2_r_h_temp_2__tshell_2_cmd_8h.html" target="_top" xlink:title=" ">
<polygon fill="white" stroke="#666666" points="3681.93,-96 3556.93,-96 3556.93,-66 3681.93,-66 3681.93,-96"/>
<text text-anchor="start" x="3564.93" y="-84" font-family="Helvetica,sans-Serif" font-size="10.00">Driver/RHTemp/_tshell</text>
<text text-anchor="middle" x="3619.43" y="-73" font-family="Helvetica,sans-Serif" font-size="10.00">/Cmd.h</text>
</a>
</g>
</g>
<!-- Node50&#45;&gt;Node67 -->
<g id="edge49_Node000050_Node000067" class="edge">
<title>Node50&#45;&gt;Node67</title>
<g id="a_edge49_Node000050_Node000067"><a xlink:title=" ">
<path fill="none" stroke="#63b8ff" d="M3502.53,-128.21C3526.28,-118.82 3559.05,-105.87 3583.85,-96.06"/>
<polygon fill="#63b8ff" stroke="#63b8ff" points="3500.96,-125.06 3492.95,-131.99 3503.53,-131.57 3500.96,-125.06"/>
</a>
</g>
</g>
<!-- Node68 -->
<g id="Node000068" class="node">
<title>Node68</title>
<g id="a_Node000068"><a xlink:href="_wifi_8h.html" target="_top" xlink:title=" ">
<polygon fill="white" stroke="#666666" points="3806.43,-96 3700.43,-96 3700.43,-66 3806.43,-66 3806.43,-96"/>
<text text-anchor="start" x="3708.43" y="-84" font-family="Helvetica,sans-Serif" font-size="10.00">Driver/Wifi/Station</text>
<text text-anchor="middle" x="3753.43" y="-73" font-family="Helvetica,sans-Serif" font-size="10.00">/TShell/Wifi.h</text>
</a>
</g>
</g>
<!-- Node50&#45;&gt;Node68 -->
<g id="edge50_Node000050_Node000068" class="edge">
<title>Node50&#45;&gt;Node68</title>
<g id="a_edge50_Node000050_Node000068"><a xlink:title=" ">
<path fill="none" stroke="#63b8ff" d="M3524.68,-129.96C3569.06,-121.11 3633.92,-108.02 3690.43,-96 3693.61,-95.32 3696.87,-94.62 3700.17,-93.91"/>
<polygon fill="#63b8ff" stroke="#63b8ff" points="3523.81,-126.56 3514.69,-131.95 3525.18,-133.43 3523.81,-126.56"/>
</a>
</g>
</g>
<!-- Node70 -->
<g id="Node000070" class="node">
<title>Node70</title>
<g id="a_Node000070"><a xlink:href="_cpl_2_t_shell_2_maker_8h.html" target="_top" xlink:title=" ">
<polygon fill="white" stroke="#666666" points="4708.93,-90.5 4601.93,-90.5 4601.93,-71.5 4708.93,-71.5 4708.93,-90.5"/>
<text text-anchor="middle" x="4655.43" y="-78.5" font-family="Helvetica,sans-Serif" font-size="10.00">Cpl/TShell/Maker.h</text>
</a>
</g>
</g>
<!-- Node69&#45;&gt;Node70 -->
<g id="edge52_Node000069_Node000070" class="edge">
<title>Node69&#45;&gt;Node70</title>
<g id="a_edge52_Node000069_Node000070"><a xlink:title=" ">
<path fill="none" stroke="#63b8ff" d="M4655.43,-121.66C4655.43,-111.24 4655.43,-98.8 4655.43,-90.67"/>
<polygon fill="#63b8ff" stroke="#63b8ff" points="4651.93,-121.87 4655.43,-131.87 4658.93,-121.87 4651.93,-121.87"/>
</a>
</g>
</g>
<!-- Node71 -->
<g id="Node000071" class="node">
<title>Node71</title>
<g id="a_Node000071"><a xlink:href="_polled_processor_8h.html" target="_top" xlink:title=" ">
<polygon fill="#fff0f0" stroke="red" points="4881.43,-90.5 4727.43,-90.5 4727.43,-71.5 4881.43,-71.5 4881.43,-90.5"/>
<text text-anchor="middle" x="4804.43" y="-78.5" font-family="Helvetica,sans-Serif" font-size="10.00">Cpl/TShell/PolledProcessor.h</text>
</a>
</g>
</g>
<!-- Node69&#45;&gt;Node71 -->
<g id="edge53_Node000069_Node000071" class="edge">
<title>Node69&#45;&gt;Node71</title>
<g id="a_edge53_Node000069_Node000071"><a xlink:title=" ">
<path fill="none" stroke="#63b8ff" d="M4686.68,-128.23C4715.47,-116.92 4757.45,-100.44 4782.73,-90.52"/>
<polygon fill="#63b8ff" stroke="#63b8ff" points="4685.12,-125.08 4677.09,-131.99 4687.68,-131.6 4685.12,-125.08"/>
</a>
</g>
</g>
</g>
</svg>
