<?xml version="1.0" encoding="UTF-8" standalone="no"?>
<!DOCTYPE svg PUBLIC "-//W3C//DTD SVG 1.1//EN"
 "http://www.w3.org/Graphics/SVG/1.1/DTD/svg11.dtd">
<!-- Generated by graphviz version 2.43.0 (0)
 -->
<!-- Title: Cpl/Memory/SPool.h Pages: 1 -->
<svg width="367pt" height="192pt"
 viewBox="0.00 0.00 367.00 192.00" xmlns="http://www.w3.org/2000/svg" xmlns:xlink="http://www.w3.org/1999/xlink">
<g id="graph0" class="graph" transform="scale(1 1) rotate(0) translate(4 188)">
<title>Cpl/Memory/SPool.h</title>
<!-- Node1 -->
<g id="Node000001" class="node">
<title>Node1</title>
<g id="a_Node000001"><a xlink:title=" ">
<polygon fill="#999999" stroke="#666666" points="285,-184 170,-184 170,-165 285,-165 285,-184"/>
<text text-anchor="middle" x="227.5" y="-172" font-family="Helvetica,sans-Serif" font-size="10.00">Cpl/Memory/SPool.h</text>
</a>
</g>
</g>
<!-- Node2 -->
<g id="Node000002" class="node">
<title>Node2</title>
<g id="a_Node000002"><a xlink:href="_pool___8h.html" target="_top" xlink:title=" ">
<polygon fill="white" stroke="#666666" points="215.5,-129 101.5,-129 101.5,-110 215.5,-110 215.5,-129"/>
<text text-anchor="middle" x="158.5" y="-117" font-family="Helvetica,sans-Serif" font-size="10.00">Cpl/Memory/Pool_.h</text>
</a>
</g>
</g>
<!-- Node1&#45;&gt;Node2 -->
<g id="edge1_Node000001_Node000002" class="edge">
<title>Node1&#45;&gt;Node2</title>
<g id="a_edge1_Node000001_Node000002"><a xlink:title=" ">
<path fill="none" stroke="#63b8ff" d="M216.41,-164.98C206.01,-157 190.24,-144.88 177.78,-135.31"/>
<polygon fill="#63b8ff" stroke="#63b8ff" points="179.85,-132.49 169.79,-129.17 175.59,-138.04 179.85,-132.49"/>
</a>
</g>
</g>
<!-- Node7 -->
<g id="Node000007" class="node">
<title>Node7</title>
<g id="a_Node000007"><a xlink:href="_aligned_8h.html" target="_top" xlink:title=" ">
<polygon fill="white" stroke="#666666" points="359,-129 234,-129 234,-110 359,-110 359,-129"/>
<text text-anchor="middle" x="296.5" y="-117" font-family="Helvetica,sans-Serif" font-size="10.00">Cpl/Memory/Aligned.h</text>
</a>
</g>
</g>
<!-- Node1&#45;&gt;Node7 -->
<g id="edge6_Node000001_Node000007" class="edge">
<title>Node1&#45;&gt;Node7</title>
<g id="a_edge6_Node000001_Node000007"><a xlink:title=" ">
<path fill="none" stroke="#63b8ff" d="M238.59,-164.98C248.99,-157 264.76,-144.88 277.22,-135.31"/>
<polygon fill="#63b8ff" stroke="#63b8ff" points="279.41,-138.04 285.21,-129.17 275.15,-132.49 279.41,-138.04"/>
</a>
</g>
</g>
<!-- Node3 -->
<g id="Node000003" class="node">
<title>Node3</title>
<g id="a_Node000003"><a xlink:href="_allocator_8h.html" target="_top" xlink:title=" ">
<polygon fill="white" stroke="#666666" points="131,-74 0,-74 0,-55 131,-55 131,-74"/>
<text text-anchor="middle" x="65.5" y="-62" font-family="Helvetica,sans-Serif" font-size="10.00">Cpl/Memory/Allocator.h</text>
</a>
</g>
</g>
<!-- Node2&#45;&gt;Node3 -->
<g id="edge2_Node000002_Node000003" class="edge">
<title>Node2&#45;&gt;Node3</title>
<g id="a_edge2_Node000002_Node000003"><a xlink:title=" ">
<path fill="none" stroke="#63b8ff" d="M143.56,-109.98C129,-101.69 106.63,-88.94 89.57,-79.22"/>
<polygon fill="#63b8ff" stroke="#63b8ff" points="91.14,-76.08 80.71,-74.17 87.67,-82.16 91.14,-76.08"/>
</a>
</g>
</g>
<!-- Node6 -->
<g id="Node000006" class="node">
<title>Node6</title>
<g id="a_Node000006"><a xlink:href="_d_list_8h.html" target="_top" xlink:title=" ">
<polygon fill="white" stroke="#666666" points="268,-74 149,-74 149,-55 268,-55 268,-74"/>
<text text-anchor="middle" x="208.5" y="-62" font-family="Helvetica,sans-Serif" font-size="10.00">Cpl/Container/DList.h</text>
</a>
</g>
</g>
<!-- Node2&#45;&gt;Node6 -->
<g id="edge5_Node000002_Node000006" class="edge">
<title>Node2&#45;&gt;Node6</title>
<g id="a_edge5_Node000002_Node000006"><a xlink:title=" ">
<path fill="none" stroke="#63b8ff" d="M166.76,-109.75C173.96,-102.11 184.61,-90.82 193.35,-81.56"/>
<polygon fill="#63b8ff" stroke="#63b8ff" points="196.08,-83.76 200.4,-74.09 190.99,-78.96 196.08,-83.76"/>
</a>
</g>
</g>
<!-- Node4 -->
<g id="Node000004" class="node">
<title>Node4</title>
<g id="a_Node000004"><a xlink:href="_item_8h.html" target="_top" xlink:title=" ">
<polygon fill="white" stroke="#666666" points="124,-19 7,-19 7,0 124,0 124,-19"/>
<text text-anchor="middle" x="65.5" y="-7" font-family="Helvetica,sans-Serif" font-size="10.00">Cpl/Container/Item.h</text>
</a>
</g>
</g>
<!-- Node3&#45;&gt;Node4 -->
<g id="edge3_Node000003_Node000004" class="edge">
<title>Node3&#45;&gt;Node4</title>
<g id="a_edge3_Node000003_Node000004"><a xlink:title=" ">
<path fill="none" stroke="#63b8ff" d="M65.5,-54.75C65.5,-47.8 65.5,-37.85 65.5,-29.13"/>
<polygon fill="#63b8ff" stroke="#63b8ff" points="69,-29.09 65.5,-19.09 62,-29.09 69,-29.09"/>
</a>
</g>
</g>
<!-- Node5 -->
<g id="Node000005" class="node">
<title>Node5</title>
<g id="a_Node000005"><a xlink:title=" ">
<polygon fill="#e0e0e0" stroke="#999999" points="259,-19 206,-19 206,0 259,0 259,-19"/>
<text text-anchor="middle" x="232.5" y="-7" font-family="Helvetica,sans-Serif" font-size="10.00">stdlib.h</text>
</a>
</g>
</g>
<!-- Node3&#45;&gt;Node5 -->
<g id="edge4_Node000003_Node000005" class="edge">
<title>Node3&#45;&gt;Node5</title>
<g id="a_edge4_Node000003_Node000005"><a xlink:title=" ">
<path fill="none" stroke="#63b8ff" d="M92.33,-54.98C120.45,-46.06 164.81,-31.98 196.08,-22.06"/>
<polygon fill="#63b8ff" stroke="#63b8ff" points="197.26,-25.36 205.74,-18.99 195.14,-18.68 197.26,-25.36"/>
</a>
</g>
</g>
<!-- Node7&#45;&gt;Node5 -->
<g id="edge7_Node000007_Node000005" class="edge">
<title>Node7&#45;&gt;Node5</title>
<g id="a_edge7_Node000007_Node000005"><a xlink:title=" ">
<path fill="none" stroke="#63b8ff" d="M295.29,-109.73C293.23,-96.94 288.16,-72.76 277.5,-55 270.83,-43.89 260.76,-33.58 251.83,-25.68"/>
<polygon fill="#63b8ff" stroke="#63b8ff" points="253.99,-22.92 244.09,-19.16 249.48,-28.28 253.99,-22.92"/>
</a>
</g>
</g>
</g>
</svg>
