<?xml version="1.0" encoding="UTF-8" standalone="no"?>
<!DOCTYPE svg PUBLIC "-//W3C//DTD SVG 1.1//EN"
 "http://www.w3.org/Graphics/SVG/1.1/DTD/svg11.dtd">
<!-- Generated by graphviz version 2.43.0 (0)
 -->
<!-- Title: Cpl/System/SharedEventHandler.h Pages: 1 -->
<svg width="2941pt" height="577pt"
 viewBox="0.00 0.00 2941.03 577.00" xmlns="http://www.w3.org/2000/svg" xmlns:xlink="http://www.w3.org/1999/xlink">
<g id="graph0" class="graph" transform="scale(1 1) rotate(0) translate(4 573)">
<title>Cpl/System/SharedEventHandler.h</title>
<!-- Node1 -->
<g id="Node000001" class="node">
<title>Node1</title>
<g id="a_Node000001"><a xlink:title=" ">
<polygon fill="#999999" stroke="#666666" points="2158.53,-569 1975.53,-569 1975.53,-550 2158.53,-550 2158.53,-569"/>
<text text-anchor="middle" x="2067.03" y="-557" font-family="Helvetica,sans-Serif" font-size="10.00">Cpl/System/SharedEventHandler.h</text>
</a>
</g>
</g>
<!-- Node2 -->
<g id="Node000002" class="node">
<title>Node2</title>
<g id="a_Node000002"><a xlink:href="_system_2_event_loop_8h.html" target="_top" xlink:title=" ">
<polygon fill="white" stroke="#666666" points="2134.53,-514 1999.53,-514 1999.53,-495 2134.53,-495 2134.53,-514"/>
<text text-anchor="middle" x="2067.03" y="-502" font-family="Helvetica,sans-Serif" font-size="10.00">Cpl/System/EventLoop.h</text>
</a>
</g>
</g>
<!-- Node1&#45;&gt;Node2 -->
<g id="edge1_Node000001_Node000002" class="edge">
<title>Node1&#45;&gt;Node2</title>
<g id="a_edge1_Node000001_Node000002"><a xlink:title=" ">
<path fill="none" stroke="#63b8ff" d="M2067.03,-539.66C2067.03,-530.93 2067.03,-520.99 2067.03,-514.09"/>
<polygon fill="#63b8ff" stroke="#63b8ff" points="2063.53,-539.75 2067.03,-549.75 2070.53,-539.75 2063.53,-539.75"/>
</a>
</g>
</g>
<!-- Node3 -->
<g id="Node000003" class="node">
<title>Node3</title>
<g id="a_Node000003"><a xlink:href="_dm_2_event_loop_8h.html" target="_top" xlink:title=" ">
<polygon fill="white" stroke="#666666" points="2055.03,-459 1939.03,-459 1939.03,-440 2055.03,-440 2055.03,-459"/>
<text text-anchor="middle" x="1997.03" y="-447" font-family="Helvetica,sans-Serif" font-size="10.00">Cpl/Dm/EventLoop.h</text>
</a>
</g>
</g>
<!-- Node2&#45;&gt;Node3 -->
<g id="edge2_Node000002_Node000003" class="edge">
<title>Node2&#45;&gt;Node3</title>
<g id="a_edge2_Node000002_Node000003"><a xlink:title=" ">
<path fill="none" stroke="#63b8ff" d="M2047.71,-488.88C2035.12,-479.34 2019.1,-467.21 2008.48,-459.17"/>
<polygon fill="#63b8ff" stroke="#63b8ff" points="2045.7,-491.74 2055.78,-494.98 2049.92,-486.16 2045.7,-491.74"/>
</a>
</g>
</g>
<!-- Node47 -->
<g id="Node000047" class="node">
<title>Node47</title>
<g id="a_Node000047"><a xlink:href="_itc_2_mailbox_server_8h.html" target="_top" xlink:title=" ">
<polygon fill="white" stroke="#666666" points="2210.53,-459 2081.53,-459 2081.53,-440 2210.53,-440 2210.53,-459"/>
<text text-anchor="middle" x="2146.03" y="-447" font-family="Helvetica,sans-Serif" font-size="10.00">Cpl/Itc/MailboxServer.h</text>
</a>
</g>
</g>
<!-- Node2&#45;&gt;Node47 -->
<g id="edge63_Node000002_Node000047" class="edge">
<title>Node2&#45;&gt;Node47</title>
<g id="a_edge63_Node000002_Node000047"><a xlink:title=" ">
<path fill="none" stroke="#63b8ff" d="M2088.42,-489.15C2102.69,-479.57 2121,-467.29 2133.1,-459.17"/>
<polygon fill="#63b8ff" stroke="#63b8ff" points="2086.07,-486.51 2079.72,-494.98 2089.97,-492.32 2086.07,-486.51"/>
</a>
</g>
</g>
<!-- Node4 -->
<g id="Node000004" class="node">
<title>Node4</title>
<g id="a_Node000004"><a xlink:href="_dm_2_mailbox_server_8h.html" target="_top" xlink:title=" ">
<polygon fill="white" stroke="#666666" points="2064.03,-404 1930.03,-404 1930.03,-385 2064.03,-385 2064.03,-404"/>
<text text-anchor="middle" x="1997.03" y="-392" font-family="Helvetica,sans-Serif" font-size="10.00">Cpl/Dm/MailboxServer.h</text>
</a>
</g>
</g>
<!-- Node3&#45;&gt;Node4 -->
<g id="edge3_Node000003_Node000004" class="edge">
<title>Node3&#45;&gt;Node4</title>
<g id="a_edge3_Node000003_Node000004"><a xlink:title=" ">
<path fill="none" stroke="#63b8ff" d="M1997.03,-429.66C1997.03,-420.93 1997.03,-410.99 1997.03,-404.09"/>
<polygon fill="#63b8ff" stroke="#63b8ff" points="1993.53,-429.75 1997.03,-439.75 2000.53,-429.75 1993.53,-429.75"/>
</a>
</g>
</g>
<!-- Node24 -->
<g id="Node000024" class="node">
<title>Node24</title>
<g id="a_Node000024"><a xlink:href="_subscriber_8h.html" target="_top" xlink:title=" ">
<polygon fill="white" stroke="#666666" points="1387.53,-404 1272.53,-404 1272.53,-385 1387.53,-385 1387.53,-404"/>
<text text-anchor="middle" x="1330.03" y="-392" font-family="Helvetica,sans-Serif" font-size="10.00">Cpl/Dm/Subscriber.h</text>
</a>
</g>
</g>
<!-- Node3&#45;&gt;Node24 -->
<g id="edge31_Node000003_Node000024" class="edge">
<title>Node3&#45;&gt;Node24</title>
<g id="a_edge31_Node000003_Node000024"><a xlink:title=" ">
<path fill="none" stroke="#63b8ff" d="M1928.66,-443.07C1797.07,-432.61 1510.77,-409.86 1387.92,-400.1"/>
<polygon fill="#63b8ff" stroke="#63b8ff" points="1928.76,-446.59 1939,-443.89 1929.31,-439.61 1928.76,-446.59"/>
</a>
</g>
</g>
<!-- Node5 -->
<g id="Node000005" class="node">
<title>Node5</title>
<g id="a_Node000005"><a xlink:href="_dm_2_periodic_scheduler_8h.html" target="_top" xlink:title=" ">
<polygon fill="white" stroke="#666666" points="2630.53,-349 2479.53,-349 2479.53,-330 2630.53,-330 2630.53,-349"/>
<text text-anchor="middle" x="2555.03" y="-337" font-family="Helvetica,sans-Serif" font-size="10.00">Cpl/Dm/PeriodicScheduler.h</text>
</a>
</g>
</g>
<!-- Node4&#45;&gt;Node5 -->
<g id="edge4_Node000004_Node000005" class="edge">
<title>Node4&#45;&gt;Node5</title>
<g id="a_edge4_Node000004_Node000005"><a xlink:title=" ">
<path fill="none" stroke="#63b8ff" d="M2074.32,-384.89C2250.99,-367.1 2296.93,-365.5 2470.03,-349 2473.13,-348.7 2476.29,-348.4 2479.49,-348.09"/>
<polygon fill="#63b8ff" stroke="#63b8ff" points="2073.75,-381.43 2064.16,-385.92 2074.46,-388.39 2073.75,-381.43"/>
</a>
</g>
</g>
<!-- Node6 -->
<g id="Node000006" class="node">
<title>Node6</title>
<g id="a_Node000006"><a xlink:href="_log_sink_8h.html" target="_top" xlink:title=" ">
<polygon fill="white" stroke="#666666" points="1609.03,-90.5 1485.03,-90.5 1485.03,-71.5 1609.03,-71.5 1609.03,-90.5"/>
<text text-anchor="middle" x="1547.03" y="-78.5" font-family="Helvetica,sans-Serif" font-size="10.00">Cpl/Logging/LogSink.h</text>
</a>
</g>
</g>
<!-- Node4&#45;&gt;Node6 -->
<g id="edge5_Node000004_Node000006" class="edge">
<title>Node4&#45;&gt;Node6</title>
<g id="a_edge5_Node000004_Node000006"><a xlink:title=" ">
<path fill="none" stroke="#63b8ff" d="M2074.35,-384.94C2326.33,-363.5 2393.24,-383.46 2640.03,-349 2772.53,-330.5 2933.03,-413.78 2933.03,-280 2933.03,-280 2933.03,-280 2933.03,-212 2933.03,-144.56 1878.97,-95.88 1609.27,-84.53"/>
<polygon fill="#63b8ff" stroke="#63b8ff" points="2073.81,-381.47 2064.15,-385.82 2074.41,-388.44 2073.81,-381.47"/>
</a>
</g>
</g>
<!-- Node7 -->
<g id="Node000007" class="node">
<title>Node7</title>
<g id="a_Node000007"><a xlink:href="_manager_8h.html" target="_top" xlink:title=" ">
<polygon fill="white" stroke="#666666" points="2195.53,-349 2078.53,-349 2078.53,-330 2195.53,-330 2195.53,-349"/>
<text text-anchor="middle" x="2137.03" y="-337" font-family="Helvetica,sans-Serif" font-size="10.00">Cpl/MApp/Manager.h</text>
</a>
</g>
</g>
<!-- Node4&#45;&gt;Node7 -->
<g id="edge6_Node000004_Node000007" class="edge">
<title>Node4&#45;&gt;Node7</title>
<g id="a_edge6_Node000004_Node000007"><a xlink:title=" ">
<path fill="none" stroke="#63b8ff" d="M2028.94,-381.42C2054.91,-371.59 2090.94,-357.95 2114.13,-349.17"/>
<polygon fill="#63b8ff" stroke="#63b8ff" points="2027.63,-378.17 2019.52,-384.98 2030.11,-384.72 2027.63,-378.17"/>
</a>
</g>
</g>
<!-- Node8 -->
<g id="Node000008" class="node">
<title>Node8</title>
<g id="a_Node000008"><a xlink:href="_cpl_2_m_app_2_temperature_2_api_8h.html" target="_top" xlink:title=" ">
<polygon fill="white" stroke="#666666" points="1412.03,-162 1284.03,-162 1284.03,-132 1412.03,-132 1412.03,-162"/>
<text text-anchor="start" x="1292.03" y="-150" font-family="Helvetica,sans-Serif" font-size="10.00">Cpl/MApp/Temperature</text>
<text text-anchor="middle" x="1348.03" y="-139" font-family="Helvetica,sans-Serif" font-size="10.00">/Api.h</text>
</a>
</g>
</g>
<!-- Node4&#45;&gt;Node8 -->
<g id="edge7_Node000004_Node000008" class="edge">
<title>Node4&#45;&gt;Node8</title>
<g id="a_edge7_Node000004_Node000008"><a xlink:title=" ">
<path fill="none" stroke="#63b8ff" d="M1919.64,-391.15C1773.26,-385.09 1463.66,-364.12 1387.03,-294 1348.9,-259.11 1346.36,-191.46 1347.21,-162.13"/>
<polygon fill="#63b8ff" stroke="#63b8ff" points="1919.75,-394.65 1929.89,-391.56 1920.03,-387.66 1919.75,-394.65"/>
</a>
</g>
</g>
<!-- Node9 -->
<g id="Node000009" class="node">
<title>Node9</title>
<g id="a_Node000009"><a xlink:href="_chunk_8h.html" target="_top" xlink:title=" ">
<polygon fill="white" stroke="#666666" points="2060.53,-349 1933.53,-349 1933.53,-330 2060.53,-330 2060.53,-349"/>
<text text-anchor="middle" x="1997.03" y="-337" font-family="Helvetica,sans-Serif" font-size="10.00">Cpl/Persistent/Chunk.h</text>
</a>
</g>
</g>
<!-- Node4&#45;&gt;Node9 -->
<g id="edge8_Node000004_Node000009" class="edge">
<title>Node4&#45;&gt;Node9</title>
<g id="a_edge8_Node000004_Node000009"><a xlink:title=" ">
<path fill="none" stroke="#63b8ff" d="M1997.03,-374.66C1997.03,-365.93 1997.03,-355.99 1997.03,-349.09"/>
<polygon fill="#63b8ff" stroke="#63b8ff" points="1993.53,-374.75 1997.03,-384.75 2000.53,-374.75 1993.53,-374.75"/>
</a>
</g>
</g>
<!-- Node18 -->
<g id="Node000018" class="node">
<title>Node18</title>
<g id="a_Node000018"><a xlink:href="_persistent_2_record_8h.html" target="_top" xlink:title=" ">
<polygon fill="white" stroke="#666666" points="1874.03,-349 1744.03,-349 1744.03,-330 1874.03,-330 1874.03,-349"/>
<text text-anchor="middle" x="1809.03" y="-337" font-family="Helvetica,sans-Serif" font-size="10.00">Cpl/Persistent/Record.h</text>
</a>
</g>
</g>
<!-- Node4&#45;&gt;Node18 -->
<g id="edge18_Node000004_Node000018" class="edge">
<title>Node4&#45;&gt;Node18</title>
<g id="a_edge18_Node000004_Node000018"><a xlink:title=" ">
<path fill="none" stroke="#63b8ff" d="M1956.89,-382.18C1921.73,-372.27 1871.4,-358.08 1839.47,-349.08"/>
<polygon fill="#63b8ff" stroke="#63b8ff" points="1956.25,-385.64 1966.82,-384.98 1958.15,-378.9 1956.25,-385.64"/>
</a>
</g>
</g>
<!-- Node19 -->
<g id="Node000019" class="node">
<title>Node19</title>
<g id="a_Node000019"><a xlink:href="_record_server_8h.html" target="_top" xlink:title=" ">
<polygon fill="white" stroke="#666666" points="1739.53,-288.5 1578.53,-288.5 1578.53,-269.5 1739.53,-269.5 1739.53,-288.5"/>
<text text-anchor="middle" x="1659.03" y="-276.5" font-family="Helvetica,sans-Serif" font-size="10.00">Cpl/Persistent/RecordServer.h</text>
</a>
</g>
</g>
<!-- Node4&#45;&gt;Node19 -->
<g id="edge23_Node000004_Node000019" class="edge">
<title>Node4&#45;&gt;Node19</title>
<g id="a_edge23_Node000004_Node000019"><a xlink:title=" ">
<path fill="none" stroke="#63b8ff" d="M1919.6,-391.73C1865.51,-387.84 1792.91,-377.15 1735.03,-349 1704.9,-334.35 1678.03,-304 1665.89,-288.92"/>
<polygon fill="#63b8ff" stroke="#63b8ff" points="1919.61,-395.24 1929.82,-392.4 1920.07,-388.25 1919.61,-395.24"/>
</a>
</g>
</g>
<!-- Node20 -->
<g id="Node000020" class="node">
<title>Node20</title>
<g id="a_Node000020"><a xlink:href="_region_media_8h.html" target="_top" xlink:title=" ">
<polygon fill="white" stroke="#666666" points="2461.03,-349 2301.03,-349 2301.03,-330 2461.03,-330 2461.03,-349"/>
<text text-anchor="middle" x="2381.03" y="-337" font-family="Helvetica,sans-Serif" font-size="10.00">Cpl/Persistent/RegionMedia.h</text>
</a>
</g>
</g>
<!-- Node4&#45;&gt;Node20 -->
<g id="edge24_Node000004_Node000020" class="edge">
<title>Node4&#45;&gt;Node20</title>
<g id="a_edge24_Node000004_Node000020"><a xlink:title=" ">
<path fill="none" stroke="#63b8ff" d="M2068.64,-383.62C2140.72,-373.67 2250.76,-358.48 2319.17,-349.04"/>
<polygon fill="#63b8ff" stroke="#63b8ff" points="2068.15,-380.15 2058.72,-384.98 2069.11,-387.08 2068.15,-380.15"/>
</a>
</g>
</g>
<!-- Node10 -->
<g id="Node000010" class="node">
<title>Node10</title>
<g id="a_Node000010"><a xlink:href="_dm_2_persistent_2_record_8h.html" target="_top" xlink:title=" ">
<polygon fill="white" stroke="#666666" points="1755.03,-222.5 1605.03,-222.5 1605.03,-203.5 1755.03,-203.5 1755.03,-222.5"/>
<text text-anchor="middle" x="1680.03" y="-210.5" font-family="Helvetica,sans-Serif" font-size="10.00">Cpl/Dm/Persistent/Record.h</text>
</a>
</g>
</g>
<!-- Node9&#45;&gt;Node10 -->
<g id="edge9_Node000009_Node000010" class="edge">
<title>Node9&#45;&gt;Node10</title>
<g id="a_edge9_Node000009_Node000010"><a xlink:title=" ">
<path fill="none" stroke="#63b8ff" d="M1992.38,-319.94C1987.05,-302.67 1976.56,-277.61 1958.03,-264 1941.01,-251.5 1821.03,-233.19 1744.35,-222.54"/>
<polygon fill="#63b8ff" stroke="#63b8ff" points="1989.12,-321.27 1995.17,-329.97 1995.86,-319.4 1989.12,-321.27"/>
</a>
</g>
</g>
<!-- Node11 -->
<g id="Node000011" class="node">
<title>Node11</title>
<g id="a_Node000011"><a xlink:href="_crc_chunk_8h.html" target="_top" xlink:title=" ">
<polygon fill="white" stroke="#666666" points="2187.53,-288.5 2044.53,-288.5 2044.53,-269.5 2187.53,-269.5 2187.53,-288.5"/>
<text text-anchor="middle" x="2116.03" y="-276.5" font-family="Helvetica,sans-Serif" font-size="10.00">Cpl/Persistent/CrcChunk.h</text>
</a>
</g>
</g>
<!-- Node9&#45;&gt;Node11 -->
<g id="edge10_Node000009_Node000011" class="edge">
<title>Node9&#45;&gt;Node11</title>
<g id="a_edge10_Node000009_Node000011"><a xlink:title=" ">
<path fill="none" stroke="#63b8ff" d="M2023.51,-325.48C2046.44,-314.21 2078.95,-298.23 2098.7,-288.52"/>
<polygon fill="#63b8ff" stroke="#63b8ff" points="2021.76,-322.44 2014.33,-329.99 2024.85,-328.72 2021.76,-322.44"/>
</a>
</g>
</g>
<!-- Node12 -->
<g id="Node000012" class="node">
<title>Node12</title>
<g id="a_Node000012"><a xlink:href="_data_record_8h.html" target="_top" xlink:title=" ">
<polygon fill="white" stroke="#666666" points="1949.53,-288.5 1796.53,-288.5 1796.53,-269.5 1949.53,-269.5 1949.53,-288.5"/>
<text text-anchor="middle" x="1873.03" y="-276.5" font-family="Helvetica,sans-Serif" font-size="10.00">Cpl/Persistent/DataRecord.h</text>
</a>
</g>
</g>
<!-- Node9&#45;&gt;Node12 -->
<g id="edge11_Node000009_Node000012" class="edge">
<title>Node9&#45;&gt;Node12</title>
<g id="a_edge11_Node000009_Node000012"><a xlink:title=" ">
<path fill="none" stroke="#63b8ff" d="M1969.75,-325.63C1945.84,-314.35 1911.75,-298.27 1891.08,-288.52"/>
<polygon fill="#63b8ff" stroke="#63b8ff" points="1968.46,-328.89 1979,-329.99 1971.45,-322.56 1968.46,-328.89"/>
</a>
</g>
</g>
<!-- Node14 -->
<g id="Node000014" class="node">
<title>Node14</title>
<g id="a_Node000014"><a xlink:href="_indexed_entry_record_8h.html" target="_top" xlink:title=" ">
<polygon fill="white" stroke="#666666" points="1948.53,-162 1797.53,-162 1797.53,-132 1948.53,-132 1948.53,-162"/>
<text text-anchor="start" x="1805.53" y="-150" font-family="Helvetica,sans-Serif" font-size="10.00">Cpl/Persistent/IndexedEntry</text>
<text text-anchor="middle" x="1873.03" y="-139" font-family="Helvetica,sans-Serif" font-size="10.00">Record.h</text>
</a>
</g>
</g>
<!-- Node9&#45;&gt;Node14 -->
<g id="edge16_Node000009_Node000014" class="edge">
<title>Node9&#45;&gt;Node14</title>
<g id="a_edge16_Node000009_Node000014"><a xlink:title=" ">
<path fill="none" stroke="#63b8ff" d="M1996.97,-319.66C1995.92,-290.33 1989.83,-233.46 1960.03,-198 1946.8,-182.26 1927.28,-170.41 1910.08,-162.21"/>
<polygon fill="#63b8ff" stroke="#63b8ff" points="1993.48,-319.84 1997.17,-329.77 2000.48,-319.7 1993.48,-319.84"/>
</a>
</g>
</g>
<!-- Node17 -->
<g id="Node000017" class="node">
<title>Node17</title>
<g id="a_Node000017"><a xlink:href="_mirrored_chunk_8h.html" target="_top" xlink:title=" ">
<polygon fill="white" stroke="#666666" points="2374.03,-288.5 2206.03,-288.5 2206.03,-269.5 2374.03,-269.5 2374.03,-288.5"/>
<text text-anchor="middle" x="2290.03" y="-276.5" font-family="Helvetica,sans-Serif" font-size="10.00">Cpl/Persistent/MirroredChunk.h</text>
</a>
</g>
</g>
<!-- Node9&#45;&gt;Node17 -->
<g id="edge17_Node000009_Node000017" class="edge">
<title>Node9&#45;&gt;Node17</title>
<g id="a_edge17_Node000009_Node000017"><a xlink:title=" ">
<path fill="none" stroke="#63b8ff" d="M2049.45,-328.03C2106,-316.74 2194.94,-298.98 2247.37,-288.52"/>
<polygon fill="#63b8ff" stroke="#63b8ff" points="2048.75,-324.6 2039.63,-329.99 2050.12,-331.47 2048.75,-324.6"/>
</a>
</g>
</g>
<!-- Node13 -->
<g id="Node000013" class="node">
<title>Node13</title>
<g id="a_Node000013"><a xlink:href="_index_record_8h.html" target="_top" xlink:title=" ">
<polygon fill="white" stroke="#666666" points="1951.53,-222.5 1794.53,-222.5 1794.53,-203.5 1951.53,-203.5 1951.53,-222.5"/>
<text text-anchor="middle" x="1873.03" y="-210.5" font-family="Helvetica,sans-Serif" font-size="10.00">Cpl/Persistent/IndexRecord.h</text>
</a>
</g>
</g>
<!-- Node12&#45;&gt;Node13 -->
<g id="edge12_Node000012_Node000013" class="edge">
<title>Node12&#45;&gt;Node13</title>
<g id="a_edge12_Node000012_Node000013"><a xlink:title=" ">
<path fill="none" stroke="#63b8ff" d="M1873.03,-259.08C1873.03,-247.13 1873.03,-232.22 1873.03,-222.91"/>
<polygon fill="#63b8ff" stroke="#63b8ff" points="1869.53,-259.37 1873.03,-269.37 1876.53,-259.37 1869.53,-259.37"/>
</a>
</g>
</g>
<!-- Node13&#45;&gt;Node14 -->
<g id="edge13_Node000013_Node000014" class="edge">
<title>Node13&#45;&gt;Node14</title>
<g id="a_edge13_Node000013_Node000014"><a xlink:title=" ">
<path fill="none" stroke="#63b8ff" d="M1873.03,-193.35C1873.03,-183.47 1873.03,-171.51 1873.03,-162.36"/>
<polygon fill="#63b8ff" stroke="#63b8ff" points="1869.53,-193.37 1873.03,-203.37 1876.53,-193.37 1869.53,-193.37"/>
</a>
</g>
</g>
<!-- Node15 -->
<g id="Node000015" class="node">
<title>Node15</title>
<g id="a_Node000015"><a xlink:href="_indexed_entry_server_8h.html" target="_top" xlink:title=" ">
<polygon fill="white" stroke="#666666" points="1466.53,-96 1315.53,-96 1315.53,-66 1466.53,-66 1466.53,-96"/>
<text text-anchor="start" x="1323.53" y="-84" font-family="Helvetica,sans-Serif" font-size="10.00">Cpl/Persistent/IndexedEntry</text>
<text text-anchor="middle" x="1391.03" y="-73" font-family="Helvetica,sans-Serif" font-size="10.00">Server.h</text>
</a>
</g>
</g>
<!-- Node14&#45;&gt;Node15 -->
<g id="edge14_Node000014_Node000015" class="edge">
<title>Node14&#45;&gt;Node15</title>
<g id="a_edge14_Node000014_Node000015"><a xlink:title=" ">
<path fill="none" stroke="#63b8ff" d="M1787.09,-136.13C1706.59,-126.66 1582.99,-111.54 1476.03,-96 1472.92,-95.55 1469.75,-95.08 1466.55,-94.59"/>
<polygon fill="#63b8ff" stroke="#63b8ff" points="1786.83,-139.62 1797.17,-137.31 1787.65,-132.67 1786.83,-139.62"/>
</a>
</g>
</g>
<!-- Node16 -->
<g id="Node000016" class="node">
<title>Node16</title>
<g id="a_Node000016"><a xlink:href="_log_8h.html" target="_top" xlink:title=" ">
<polygon fill="white" stroke="#666666" points="1444.53,-30 1337.53,-30 1337.53,0 1444.53,0 1444.53,-30"/>
<text text-anchor="start" x="1345.53" y="-18" font-family="Helvetica,sans-Serif" font-size="10.00">Cpl/Logging/TShell</text>
<text text-anchor="middle" x="1391.03" y="-7" font-family="Helvetica,sans-Serif" font-size="10.00">/Log.h</text>
</a>
</g>
</g>
<!-- Node15&#45;&gt;Node16 -->
<g id="edge15_Node000015_Node000016" class="edge">
<title>Node15&#45;&gt;Node16</title>
<g id="a_edge15_Node000015_Node000016"><a xlink:title=" ">
<path fill="none" stroke="#63b8ff" d="M1391.03,-55.54C1391.03,-46.96 1391.03,-37.61 1391.03,-30.16"/>
<polygon fill="#63b8ff" stroke="#63b8ff" points="1387.53,-55.8 1391.03,-65.8 1394.53,-55.8 1387.53,-55.8"/>
</a>
</g>
</g>
<!-- Node18&#45;&gt;Node10 -->
<g id="edge19_Node000018_Node000010" class="edge">
<title>Node18&#45;&gt;Node10</title>
<g id="a_edge19_Node000018_Node000010"><a xlink:title=" ">
<path fill="none" stroke="#63b8ff" d="M1796.92,-321.34C1785.33,-305.53 1766.88,-281.89 1748.03,-264 1730.81,-247.66 1708.15,-231.98 1693.84,-222.66"/>
<polygon fill="#63b8ff" stroke="#63b8ff" points="1794.21,-323.57 1802.9,-329.64 1799.89,-319.48 1794.21,-323.57"/>
</a>
</g>
</g>
<!-- Node18&#45;&gt;Node12 -->
<g id="edge20_Node000018_Node000012" class="edge">
<title>Node18&#45;&gt;Node12</title>
<g id="a_edge20_Node000018_Node000012"><a xlink:title=" ">
<path fill="none" stroke="#63b8ff" d="M1826.09,-322.91C1838.09,-311.94 1853.7,-297.67 1863.55,-288.67"/>
<polygon fill="#63b8ff" stroke="#63b8ff" points="1823.49,-320.54 1818.47,-329.87 1828.21,-325.7 1823.49,-320.54"/>
</a>
</g>
</g>
<!-- Node18&#45;&gt;Node19 -->
<g id="edge21_Node000018_Node000019" class="edge">
<title>Node18&#45;&gt;Node19</title>
<g id="a_edge21_Node000018_Node000019"><a xlink:title=" ">
<path fill="none" stroke="#63b8ff" d="M1777.57,-326.23C1748.58,-314.92 1706.32,-298.44 1680.87,-288.52"/>
<polygon fill="#63b8ff" stroke="#63b8ff" points="1776.63,-329.62 1787.22,-329.99 1779.17,-323.1 1776.63,-329.62"/>
</a>
</g>
</g>
<!-- Node19&#45;&gt;Node10 -->
<g id="edge22_Node000019_Node000010" class="edge">
<title>Node19&#45;&gt;Node10</title>
<g id="a_edge22_Node000019_Node000010"><a xlink:title=" ">
<path fill="none" stroke="#63b8ff" d="M1664.99,-259.82C1668.96,-247.74 1673.99,-232.41 1677.11,-222.91"/>
<polygon fill="#63b8ff" stroke="#63b8ff" points="1661.65,-258.78 1661.86,-269.37 1668.3,-260.96 1661.65,-258.78"/>
</a>
</g>
</g>
<!-- Node20&#45;&gt;Node11 -->
<g id="edge25_Node000020_Node000011" class="edge">
<title>Node20&#45;&gt;Node11</title>
<g id="a_edge25_Node000020_Node000011"><a xlink:title=" ">
<path fill="none" stroke="#63b8ff" d="M2332.66,-327.82C2281.47,-316.52 2201.73,-298.92 2154.61,-288.52"/>
<polygon fill="#63b8ff" stroke="#63b8ff" points="2331.98,-331.26 2342.49,-329.99 2333.48,-324.42 2331.98,-331.26"/>
</a>
</g>
</g>
<!-- Node20&#45;&gt;Node14 -->
<g id="edge27_Node000020_Node000014" class="edge">
<title>Node20&#45;&gt;Node14</title>
<g id="a_edge27_Node000020_Node000014"><a xlink:title=" ">
<path fill="none" stroke="#63b8ff" d="M2471.37,-330.12C2547.9,-325.92 2847,-325.71 2876.03,-294 2885.03,-284.16 2884.9,-273.95 2876.03,-264 2814.44,-194.88 2171.51,-160.85 1948.61,-151.06"/>
<polygon fill="#63b8ff" stroke="#63b8ff" points="2470.81,-326.65 2461.08,-330.83 2471.3,-333.63 2470.81,-326.65"/>
</a>
</g>
</g>
<!-- Node20&#45;&gt;Node17 -->
<g id="edge28_Node000020_Node000017" class="edge">
<title>Node20&#45;&gt;Node17</title>
<g id="a_edge28_Node000020_Node000017"><a xlink:title=" ">
<path fill="none" stroke="#63b8ff" d="M2358.72,-324.16C2341.43,-313.05 2318.05,-298.01 2303.51,-288.67"/>
<polygon fill="#63b8ff" stroke="#63b8ff" points="2357.3,-327.4 2367.6,-329.87 2361.08,-321.52 2357.3,-327.4"/>
</a>
</g>
</g>
<!-- Node21 -->
<g id="Node000021" class="node">
<title>Node21</title>
<g id="a_Node000021"><a xlink:href="_file_adapter_8h.html" target="_top" xlink:title=" ">
<polygon fill="white" stroke="#666666" points="2543.53,-288.5 2392.53,-288.5 2392.53,-269.5 2543.53,-269.5 2543.53,-288.5"/>
<text text-anchor="middle" x="2468.03" y="-276.5" font-family="Helvetica,sans-Serif" font-size="10.00">Cpl/Persistent/FileAdapter.h</text>
</a>
</g>
</g>
<!-- Node20&#45;&gt;Node21 -->
<g id="edge26_Node000020_Node000021" class="edge">
<title>Node20&#45;&gt;Node21</title>
<g id="a_edge26_Node000020_Node000021"><a xlink:title=" ">
<path fill="none" stroke="#63b8ff" d="M2402.36,-324.16C2418.88,-313.05 2441.24,-298.01 2455.14,-288.67"/>
<polygon fill="#63b8ff" stroke="#63b8ff" points="2400.21,-321.38 2393.86,-329.87 2404.12,-327.19 2400.21,-321.38"/>
</a>
</g>
</g>
<!-- Node22 -->
<g id="Node000022" class="node">
<title>Node22</title>
<g id="a_Node000022"><a xlink:href="_n_v_adapter_8h.html" target="_top" xlink:title=" ">
<polygon fill="white" stroke="#666666" points="2708.53,-288.5 2561.53,-288.5 2561.53,-269.5 2708.53,-269.5 2708.53,-288.5"/>
<text text-anchor="middle" x="2635.03" y="-276.5" font-family="Helvetica,sans-Serif" font-size="10.00">Cpl/Persistent/NVAdapter.h</text>
</a>
</g>
</g>
<!-- Node20&#45;&gt;Node22 -->
<g id="edge29_Node000020_Node000022" class="edge">
<title>Node20&#45;&gt;Node22</title>
<g id="a_edge29_Node000020_Node000022"><a xlink:title=" ">
<path fill="none" stroke="#63b8ff" d="M2428.01,-327.68C2477.08,-316.38 2553.07,-298.88 2598.05,-288.52"/>
<polygon fill="#63b8ff" stroke="#63b8ff" points="2426.92,-324.34 2417.96,-329.99 2428.49,-331.16 2426.92,-324.34"/>
</a>
</g>
</g>
<!-- Node23 -->
<g id="Node000023" class="node">
<title>Node23</title>
<g id="a_Node000023"><a xlink:href="_null_region_media_8h.html" target="_top" xlink:title=" ">
<polygon fill="white" stroke="#666666" points="2867.03,-294 2727.03,-294 2727.03,-264 2867.03,-264 2867.03,-294"/>
<text text-anchor="start" x="2735.03" y="-282" font-family="Helvetica,sans-Serif" font-size="10.00">Cpl/Persistent/NullRegion</text>
<text text-anchor="middle" x="2797.03" y="-271" font-family="Helvetica,sans-Serif" font-size="10.00">Media.h</text>
</a>
</g>
</g>
<!-- Node20&#45;&gt;Node23 -->
<g id="edge30_Node000020_Node000023" class="edge">
<title>Node20&#45;&gt;Node23</title>
<g id="a_edge30_Node000020_Node000023"><a xlink:title=" ">
<path fill="none" stroke="#63b8ff" d="M2462.76,-328.73C2531.09,-320.32 2631.07,-307.44 2718.03,-294 2720.92,-293.55 2723.87,-293.09 2726.84,-292.6"/>
<polygon fill="#63b8ff" stroke="#63b8ff" points="2461.99,-325.3 2452.49,-329.99 2462.84,-332.25 2461.99,-325.3"/>
</a>
</g>
</g>
<!-- Node25 -->
<g id="Node000025" class="node">
<title>Node25</title>
<g id="a_Node000025"><a xlink:href="_model_point_common___8h.html" target="_top" xlink:title=" ">
<polygon fill="white" stroke="#666666" points="1004.53,-349 835.53,-349 835.53,-330 1004.53,-330 1004.53,-349"/>
<text text-anchor="middle" x="920.03" y="-337" font-family="Helvetica,sans-Serif" font-size="10.00">Cpl/Dm/ModelPointCommon_.h</text>
</a>
</g>
</g>
<!-- Node24&#45;&gt;Node25 -->
<g id="edge32_Node000024_Node000025" class="edge">
<title>Node24&#45;&gt;Node25</title>
<g id="a_edge32_Node000024_Node000025"><a xlink:title=" ">
<path fill="none" stroke="#63b8ff" d="M1262.14,-384.72C1185.57,-374.83 1061.89,-358.84 986.09,-349.04"/>
<polygon fill="#63b8ff" stroke="#63b8ff" points="1261.79,-388.21 1272.15,-386.02 1262.69,-381.27 1261.79,-388.21"/>
</a>
</g>
</g>
<!-- Node46 -->
<g id="Node000046" class="node">
<title>Node46</title>
<g id="a_Node000046"><a xlink:href="_subscriber_composer_8h.html" target="_top" xlink:title=" ">
<polygon fill="white" stroke="#666666" points="1560.03,-288.5 1396.03,-288.5 1396.03,-269.5 1560.03,-269.5 1560.03,-288.5"/>
<text text-anchor="middle" x="1478.03" y="-276.5" font-family="Helvetica,sans-Serif" font-size="10.00">Cpl/Dm/SubscriberComposer.h</text>
</a>
</g>
</g>
<!-- Node24&#45;&gt;Node46 -->
<g id="edge59_Node000024_Node000046" class="edge">
<title>Node24&#45;&gt;Node46</title>
<g id="a_edge59_Node000024_Node000046"><a xlink:title=" ">
<path fill="none" stroke="#63b8ff" d="M1349.13,-378.85C1380.4,-354.87 1441.58,-307.95 1466.77,-288.63"/>
<polygon fill="#63b8ff" stroke="#63b8ff" points="1346.96,-376.11 1341.15,-384.97 1351.22,-381.66 1346.96,-376.11"/>
</a>
</g>
</g>
<!-- Node26 -->
<g id="Node000026" class="node">
<title>Node26</title>
<g id="a_Node000026"><a xlink:href="_array_8h.html" target="_top" xlink:title=" ">
<polygon fill="white" stroke="#666666" points="604.53,-288.5 497.53,-288.5 497.53,-269.5 604.53,-269.5 604.53,-288.5"/>
<text text-anchor="middle" x="551.03" y="-276.5" font-family="Helvetica,sans-Serif" font-size="10.00">Cpl/Dm/Mp/Array.h</text>
</a>
</g>
</g>
<!-- Node25&#45;&gt;Node26 -->
<g id="edge33_Node000025_Node000026" class="edge">
<title>Node25&#45;&gt;Node26</title>
<g id="a_edge33_Node000025_Node000026"><a xlink:title=" ">
<path fill="none" stroke="#63b8ff" d="M841.03,-328.65C779.08,-320.53 690.8,-308.09 614.03,-294 605.32,-292.4 595.99,-290.46 587.25,-288.53"/>
<polygon fill="#63b8ff" stroke="#63b8ff" points="840.76,-332.14 851.12,-329.97 841.66,-325.2 840.76,-332.14"/>
</a>
</g>
</g>
<!-- Node27 -->
<g id="Node000027" class="node">
<title>Node27</title>
<g id="a_Node000027"><a xlink:href="_bool_8h.html" target="_top" xlink:title=" ">
<polygon fill="white" stroke="#666666" points="127.03,-288.5 23.03,-288.5 23.03,-269.5 127.03,-269.5 127.03,-288.5"/>
<text text-anchor="middle" x="75.03" y="-276.5" font-family="Helvetica,sans-Serif" font-size="10.00">Cpl/Dm/Mp/Bool.h</text>
</a>
</g>
</g>
<!-- Node25&#45;&gt;Node27 -->
<g id="edge34_Node000025_Node000027" class="edge">
<title>Node25&#45;&gt;Node27</title>
<g id="a_edge34_Node000025_Node000027"><a xlink:title=" ">
<path fill="none" stroke="#63b8ff" d="M825.36,-331.95C646.87,-319.59 266.05,-293.22 127.13,-283.61"/>
<polygon fill="#63b8ff" stroke="#63b8ff" points="825.31,-335.45 835.53,-332.65 825.79,-328.47 825.31,-335.45"/>
</a>
</g>
</g>
<!-- Node30 -->
<g id="Node000030" class="node">
<title>Node30</title>
<g id="a_Node000030"><a xlink:href="_elapsed_precision_time_8h.html" target="_top" xlink:title=" ">
<polygon fill="white" stroke="#666666" points="921.03,-294 765.03,-294 765.03,-264 921.03,-264 921.03,-294"/>
<text text-anchor="start" x="773.03" y="-282" font-family="Helvetica,sans-Serif" font-size="10.00">Cpl/Dm/Mp/ElapsedPrecision</text>
<text text-anchor="middle" x="843.03" y="-271" font-family="Helvetica,sans-Serif" font-size="10.00">Time.h</text>
</a>
</g>
</g>
<!-- Node25&#45;&gt;Node30 -->
<g id="edge37_Node000025_Node000030" class="edge">
<title>Node25&#45;&gt;Node30</title>
<g id="a_edge37_Node000025_Node000030"><a xlink:title=" ">
<path fill="none" stroke="#63b8ff" d="M900.64,-323.77C888.67,-314.68 873.41,-303.09 861.61,-294.11"/>
<polygon fill="#63b8ff" stroke="#63b8ff" points="898.59,-326.61 908.67,-329.87 902.82,-321.03 898.59,-326.61"/>
</a>
</g>
</g>
<!-- Node31 -->
<g id="Node000031" class="node">
<title>Node31</title>
<g id="a_Node000031"><a xlink:href="_enum___8h.html" target="_top" xlink:title=" ">
<polygon fill="white" stroke="#666666" points="1055.03,-288.5 939.03,-288.5 939.03,-269.5 1055.03,-269.5 1055.03,-288.5"/>
<text text-anchor="middle" x="997.03" y="-276.5" font-family="Helvetica,sans-Serif" font-size="10.00">Cpl/Dm/Mp/Enum_.h</text>
</a>
</g>
</g>
<!-- Node25&#45;&gt;Node31 -->
<g id="edge38_Node000025_Node000031" class="edge">
<title>Node25&#45;&gt;Node31</title>
<g id="a_edge38_Node000025_Node000031"><a xlink:title=" ">
<path fill="none" stroke="#63b8ff" d="M939.72,-323.54C954.26,-312.49 973.55,-297.84 985.62,-288.67"/>
<polygon fill="#63b8ff" stroke="#63b8ff" points="937.23,-321.03 931.39,-329.87 941.47,-326.61 937.23,-321.03"/>
</a>
</g>
</g>
<!-- Node32 -->
<g id="Node000032" class="node">
<title>Node32</title>
<g id="a_Node000032"><a xlink:href="_numeric_8h.html" target="_top" xlink:title=" ">
<polygon fill="white" stroke="#666666" points="747.03,-288.5 623.03,-288.5 623.03,-269.5 747.03,-269.5 747.03,-288.5"/>
<text text-anchor="middle" x="685.03" y="-276.5" font-family="Helvetica,sans-Serif" font-size="10.00">Cpl/Dm/Mp/Numeric.h</text>
</a>
</g>
</g>
<!-- Node25&#45;&gt;Node32 -->
<g id="edge39_Node000025_Node000032" class="edge">
<title>Node25&#45;&gt;Node32</title>
<g id="a_edge39_Node000025_Node000032"><a xlink:title=" ">
<path fill="none" stroke="#63b8ff" d="M875.99,-327.54C830.57,-316.23 760.68,-298.83 719.24,-288.52"/>
<polygon fill="#63b8ff" stroke="#63b8ff" points="875.31,-330.97 885.86,-329.99 877,-324.18 875.31,-330.97"/>
</a>
</g>
</g>
<!-- Node44 -->
<g id="Node000044" class="node">
<title>Node44</title>
<g id="a_Node000044"><a xlink:href="_ref_counter_8h.html" target="_top" xlink:title=" ">
<polygon fill="white" stroke="#666666" points="1210.53,-288.5 1073.53,-288.5 1073.53,-269.5 1210.53,-269.5 1210.53,-288.5"/>
<text text-anchor="middle" x="1142.03" y="-276.5" font-family="Helvetica,sans-Serif" font-size="10.00">Cpl/Dm/Mp/RefCounter.h</text>
</a>
</g>
</g>
<!-- Node25&#45;&gt;Node44 -->
<g id="edge57_Node000025_Node000044" class="edge">
<title>Node25&#45;&gt;Node44</title>
<g id="a_edge57_Node000025_Node000044"><a xlink:title=" ">
<path fill="none" stroke="#63b8ff" d="M962.17,-327.4C1005.09,-316.08 1070.72,-298.79 1109.71,-288.52"/>
<polygon fill="#63b8ff" stroke="#63b8ff" points="961.09,-324.06 952.31,-329.99 962.87,-330.83 961.09,-324.06"/>
</a>
</g>
</g>
<!-- Node45 -->
<g id="Node000045" class="node">
<title>Node45</title>
<g id="a_Node000045"><a xlink:href="_dm_2_mp_2_string_8h.html" target="_top" xlink:title=" ">
<polygon fill="white" stroke="#666666" points="1339.53,-288.5 1228.53,-288.5 1228.53,-269.5 1339.53,-269.5 1339.53,-288.5"/>
<text text-anchor="middle" x="1284.03" y="-276.5" font-family="Helvetica,sans-Serif" font-size="10.00">Cpl/Dm/Mp/String.h</text>
</a>
</g>
</g>
<!-- Node25&#45;&gt;Node45 -->
<g id="edge58_Node000025_Node000045" class="edge">
<title>Node25&#45;&gt;Node45</title>
<g id="a_edge58_Node000025_Node000045"><a xlink:title=" ">
<path fill="none" stroke="#63b8ff" d="M995.79,-328.6C1056.37,-320.35 1143.37,-307.76 1219.03,-294 1227.89,-292.39 1237.38,-290.46 1246.3,-288.56"/>
<polygon fill="#63b8ff" stroke="#63b8ff" points="994.99,-325.17 985.55,-329.98 995.93,-332.11 994.99,-325.17"/>
</a>
</g>
</g>
<!-- Node28 -->
<g id="Node000028" class="node">
<title>Node28</title>
<g id="a_Node000028"><a xlink:href="_in_out_model_points_8h.html" target="_top" xlink:title="This file defines all of the Model Points for the Simulated DIO InOut driver.">
<polygon fill="white" stroke="#666666" points="135.03,-228 15.03,-228 15.03,-198 135.03,-198 135.03,-228"/>
<text text-anchor="start" x="23.03" y="-216" font-family="Helvetica,sans-Serif" font-size="10.00">Driver/DIO/Simulated</text>
<text text-anchor="middle" x="75.03" y="-205" font-family="Helvetica,sans-Serif" font-size="10.00">/InOutModelPoints.h</text>
</a>
</g>
</g>
<!-- Node27&#45;&gt;Node28 -->
<g id="edge35_Node000027_Node000028" class="edge">
<title>Node27&#45;&gt;Node28</title>
<g id="a_edge35_Node000027_Node000028"><a xlink:title=" ">
<path fill="none" stroke="#63b8ff" d="M75.03,-259.35C75.03,-249.47 75.03,-237.51 75.03,-228.36"/>
<polygon fill="#63b8ff" stroke="#63b8ff" points="71.53,-259.37 75.03,-269.37 78.53,-259.37 71.53,-259.37"/>
</a>
</g>
</g>
<!-- Node29 -->
<g id="Node000029" class="node">
<title>Node29</title>
<g id="a_Node000029"><a xlink:href="_driver_2_r_h_temp_2_simulated_2_api_8h.html" target="_top" xlink:title=" ">
<polygon fill="white" stroke="#666666" points="397.53,-162 254.53,-162 254.53,-132 397.53,-132 397.53,-162"/>
<text text-anchor="start" x="262.53" y="-150" font-family="Helvetica,sans-Serif" font-size="10.00">Driver/RHTemp/Simulated</text>
<text text-anchor="middle" x="326.03" y="-139" font-family="Helvetica,sans-Serif" font-size="10.00">/Api.h</text>
</a>
</g>
</g>
<!-- Node27&#45;&gt;Node29 -->
<g id="edge36_Node000027_Node000029" class="edge">
<title>Node27&#45;&gt;Node29</title>
<g id="a_edge36_Node000027_Node000029"><a xlink:title=" ">
<path fill="none" stroke="#63b8ff" d="M49.07,-264.44C21.97,-248.55 -14.01,-221.41 6.03,-198 37.33,-161.42 169.95,-151.41 254.33,-148.78"/>
<polygon fill="#63b8ff" stroke="#63b8ff" points="47.4,-267.52 57.83,-269.38 50.84,-261.42 47.4,-267.52"/>
</a>
</g>
</g>
<!-- Node33 -->
<g id="Node000033" class="node">
<title>Node33</title>
<g id="a_Node000033"><a xlink:href="_bit_array16_8h.html" target="_top" xlink:title=" ">
<polygon fill="white" stroke="#666666" points="546.03,-222.5 412.03,-222.5 412.03,-203.5 546.03,-203.5 546.03,-222.5"/>
<text text-anchor="middle" x="479.03" y="-210.5" font-family="Helvetica,sans-Serif" font-size="10.00">Cpl/Dm/Mp/BitArray16.h</text>
</a>
</g>
</g>
<!-- Node32&#45;&gt;Node33 -->
<g id="edge40_Node000032_Node000033" class="edge">
<title>Node32&#45;&gt;Node33</title>
<g id="a_edge40_Node000032_Node000033"><a xlink:title=" ">
<path fill="none" stroke="#63b8ff" d="M647.44,-266.32C606.81,-253.7 542.99,-233.87 506.7,-222.6"/>
<polygon fill="#63b8ff" stroke="#63b8ff" points="646.66,-269.74 657.25,-269.37 648.73,-263.06 646.66,-269.74"/>
</a>
</g>
</g>
<!-- Node34 -->
<g id="Node000034" class="node">
<title>Node34</title>
<g id="a_Node000034"><a xlink:href="_bit_array32_8h.html" target="_top" xlink:title=" ">
<polygon fill="white" stroke="#666666" points="698.03,-222.5 564.03,-222.5 564.03,-203.5 698.03,-203.5 698.03,-222.5"/>
<text text-anchor="middle" x="631.03" y="-210.5" font-family="Helvetica,sans-Serif" font-size="10.00">Cpl/Dm/Mp/BitArray32.h</text>
</a>
</g>
</g>
<!-- Node32&#45;&gt;Node34 -->
<g id="edge41_Node000032_Node000034" class="edge">
<title>Node32&#45;&gt;Node34</title>
<g id="a_edge41_Node000032_Node000034"><a xlink:title=" ">
<path fill="none" stroke="#63b8ff" d="M671.21,-261.62C660.82,-249.31 646.97,-232.89 638.54,-222.91"/>
<polygon fill="#63b8ff" stroke="#63b8ff" points="668.62,-263.98 677.75,-269.37 673.97,-259.47 668.62,-263.98"/>
</a>
</g>
</g>
<!-- Node35 -->
<g id="Node000035" class="node">
<title>Node35</title>
<g id="a_Node000035"><a xlink:href="_double_8h.html" target="_top" xlink:title=" ">
<polygon fill="white" stroke="#666666" points="833.53,-222.5 716.53,-222.5 716.53,-203.5 833.53,-203.5 833.53,-222.5"/>
<text text-anchor="middle" x="775.03" y="-210.5" font-family="Helvetica,sans-Serif" font-size="10.00">Cpl/Dm/Mp/Double.h</text>
</a>
</g>
</g>
<!-- Node32&#45;&gt;Node35 -->
<g id="edge42_Node000032_Node000035" class="edge">
<title>Node32&#45;&gt;Node35</title>
<g id="a_edge42_Node000032_Node000035"><a xlink:title=" ">
<path fill="none" stroke="#63b8ff" d="M705.65,-263.33C723.3,-250.78 748.12,-233.13 762.79,-222.7"/>
<polygon fill="#63b8ff" stroke="#63b8ff" points="703.29,-260.72 697.17,-269.37 707.34,-266.43 703.29,-260.72"/>
</a>
</g>
</g>
<!-- Node36 -->
<g id="Node000036" class="node">
<title>Node36</title>
<g id="a_Node000036"><a xlink:href="_float_8h.html" target="_top" xlink:title=" ">
<polygon fill="white" stroke="#666666" points="393.53,-222.5 286.53,-222.5 286.53,-203.5 393.53,-203.5 393.53,-222.5"/>
<text text-anchor="middle" x="340.03" y="-210.5" font-family="Helvetica,sans-Serif" font-size="10.00">Cpl/Dm/Mp/Float.h</text>
</a>
</g>
</g>
<!-- Node32&#45;&gt;Node36 -->
<g id="edge43_Node000032_Node000036" class="edge">
<title>Node32&#45;&gt;Node36</title>
<g id="a_edge43_Node000032_Node000036"><a xlink:title=" ">
<path fill="none" stroke="#63b8ff" d="M632.06,-267.56C625.65,-266.34 619.19,-265.13 613.03,-264 519.88,-246.96 495.94,-246.28 403.03,-228 394.56,-226.33 385.49,-224.4 376.94,-222.52"/>
<polygon fill="#63b8ff" stroke="#63b8ff" points="631.55,-271.03 642.04,-269.48 632.88,-264.15 631.55,-271.03"/>
</a>
</g>
</g>
<!-- Node37 -->
<g id="Node000037" class="node">
<title>Node37</title>
<g id="a_Node000037"><a xlink:href="_int32_8h.html" target="_top" xlink:title=" ">
<polygon fill="white" stroke="#666666" points="958.53,-222.5 851.53,-222.5 851.53,-203.5 958.53,-203.5 958.53,-222.5"/>
<text text-anchor="middle" x="905.03" y="-210.5" font-family="Helvetica,sans-Serif" font-size="10.00">Cpl/Dm/Mp/Int32.h</text>
</a>
</g>
</g>
<!-- Node32&#45;&gt;Node37 -->
<g id="edge46_Node000032_Node000037" class="edge">
<title>Node32&#45;&gt;Node37</title>
<g id="a_edge46_Node000032_Node000037"><a xlink:title=" ">
<path fill="none" stroke="#63b8ff" d="M724.34,-266.56C767.7,-253.95 836.47,-233.94 875.48,-222.6"/>
<polygon fill="#63b8ff" stroke="#63b8ff" points="723.32,-263.21 714.7,-269.37 725.28,-269.94 723.32,-263.21"/>
</a>
</g>
</g>
<!-- Node38 -->
<g id="Node000038" class="node">
<title>Node38</title>
<g id="a_Node000038"><a xlink:href="_int64_8h.html" target="_top" xlink:title=" ">
<polygon fill="white" stroke="#666666" points="1083.53,-222.5 976.53,-222.5 976.53,-203.5 1083.53,-203.5 1083.53,-222.5"/>
<text text-anchor="middle" x="1030.03" y="-210.5" font-family="Helvetica,sans-Serif" font-size="10.00">Cpl/Dm/Mp/Int64.h</text>
</a>
</g>
</g>
<!-- Node32&#45;&gt;Node38 -->
<g id="edge47_Node000032_Node000038" class="edge">
<title>Node32&#45;&gt;Node38</title>
<g id="a_edge47_Node000032_Node000038"><a xlink:title=" ">
<path fill="none" stroke="#63b8ff" d="M737.26,-267.54C743.58,-266.32 749.95,-265.12 756.03,-264 849.59,-246.8 873.68,-246.32 967.03,-228 975.49,-226.34 984.57,-224.41 993.11,-222.52"/>
<polygon fill="#63b8ff" stroke="#63b8ff" points="736.57,-264.11 727.42,-269.46 737.9,-270.98 736.57,-264.11"/>
</a>
</g>
</g>
<!-- Node39 -->
<g id="Node000039" class="node">
<title>Node39</title>
<g id="a_Node000039"><a xlink:href="_uint32_8h.html" target="_top" xlink:title=" ">
<polygon fill="white" stroke="#666666" points="268.53,-222.5 153.53,-222.5 153.53,-203.5 268.53,-203.5 268.53,-222.5"/>
<text text-anchor="middle" x="211.03" y="-210.5" font-family="Helvetica,sans-Serif" font-size="10.00">Cpl/Dm/Mp/Uint32.h</text>
</a>
</g>
</g>
<!-- Node32&#45;&gt;Node39 -->
<g id="edge48_Node000032_Node000039" class="edge">
<title>Node32&#45;&gt;Node39</title>
<g id="a_edge48_Node000032_Node000039"><a xlink:title=" ">
<path fill="none" stroke="#63b8ff" d="M634.15,-267.55C627.07,-266.26 619.88,-265.03 613.03,-264 464.51,-241.65 425.35,-251.61 277.03,-228 267.54,-226.49 257.36,-224.51 247.9,-222.52"/>
<polygon fill="#63b8ff" stroke="#63b8ff" points="633.92,-271.06 644.39,-269.47 635.21,-264.18 633.92,-271.06"/>
</a>
</g>
</g>
<!-- Node42 -->
<g id="Node000042" class="node">
<title>Node42</title>
<g id="a_Node000042"><a xlink:href="_uint64_8h.html" target="_top" xlink:title=" ">
<polygon fill="white" stroke="#666666" points="1339.53,-222.5 1224.53,-222.5 1224.53,-203.5 1339.53,-203.5 1339.53,-222.5"/>
<text text-anchor="middle" x="1282.03" y="-210.5" font-family="Helvetica,sans-Serif" font-size="10.00">Cpl/Dm/Mp/Uint64.h</text>
</a>
</g>
</g>
<!-- Node32&#45;&gt;Node42 -->
<g id="edge54_Node000032_Node000042" class="edge">
<title>Node32&#45;&gt;Node42</title>
<g id="a_edge54_Node000032_Node000042"><a xlink:title=" ">
<path fill="none" stroke="#63b8ff" d="M733.89,-267.59C741.28,-266.24 748.84,-264.99 756.03,-264 958.75,-236.16 1012.46,-256.99 1215.03,-228 1224.91,-226.59 1235.52,-224.59 1245.32,-222.55"/>
<polygon fill="#63b8ff" stroke="#63b8ff" points="733.12,-264.17 723.95,-269.48 734.43,-271.05 733.12,-264.17"/>
</a>
</g>
</g>
<!-- Node43 -->
<g id="Node000043" class="node">
<title>Node43</title>
<g id="a_Node000043"><a xlink:href="_void_8h.html" target="_top" xlink:title=" ">
<polygon fill="white" stroke="#666666" points="1206.03,-222.5 1102.03,-222.5 1102.03,-203.5 1206.03,-203.5 1206.03,-222.5"/>
<text text-anchor="middle" x="1154.03" y="-210.5" font-family="Helvetica,sans-Serif" font-size="10.00">Cpl/Dm/Mp/Void.h</text>
</a>
</g>
</g>
<!-- Node32&#45;&gt;Node43 -->
<g id="edge56_Node000032_Node000043" class="edge">
<title>Node32&#45;&gt;Node43</title>
<g id="a_edge56_Node000032_Node000043"><a xlink:title=" ">
<path fill="none" stroke="#63b8ff" d="M735.19,-267.54C742.17,-266.25 749.27,-265.03 756.03,-264 904.51,-241.45 943.87,-252.58 1092.03,-228 1100.95,-226.52 1110.52,-224.55 1119.41,-222.56"/>
<polygon fill="#63b8ff" stroke="#63b8ff" points="734.27,-264.15 725.1,-269.46 735.57,-271.03 734.27,-264.15"/>
</a>
</g>
</g>
<!-- Node36&#45;&gt;Node8 -->
<g id="edge44_Node000036_Node000008" class="edge">
<title>Node36&#45;&gt;Node8</title>
<g id="a_edge44_Node000036_Node000008"><a xlink:title=" ">
<path fill="none" stroke="#63b8ff" d="M383.31,-201.33C389.88,-200.01 396.61,-198.84 403.03,-198 785.43,-147.97 886.67,-204.16 1270.03,-162 1274.54,-161.5 1279.19,-160.9 1283.86,-160.23"/>
<polygon fill="#63b8ff" stroke="#63b8ff" points="382.24,-197.98 373.18,-203.48 383.69,-204.82 382.24,-197.98"/>
</a>
</g>
</g>
<!-- Node36&#45;&gt;Node29 -->
<g id="edge45_Node000036_Node000029" class="edge">
<title>Node36&#45;&gt;Node29</title>
<g id="a_edge45_Node000036_Node000029"><a xlink:title=" ">
<path fill="none" stroke="#63b8ff" d="M335.95,-193.35C333.79,-183.47 331.17,-171.51 329.17,-162.36"/>
<polygon fill="#63b8ff" stroke="#63b8ff" points="332.58,-194.35 338.14,-203.37 339.42,-192.85 332.58,-194.35"/>
</a>
</g>
</g>
<!-- Node40 -->
<g id="Node000040" class="node">
<title>Node40</title>
<g id="a_Node000040"><a xlink:href="_ring_buffer_m_p_8h.html" target="_top" xlink:title=" ">
<polygon fill="white" stroke="#666666" points="1261.53,-156.5 1102.53,-156.5 1102.53,-137.5 1261.53,-137.5 1261.53,-156.5"/>
<text text-anchor="middle" x="1182.03" y="-144.5" font-family="Helvetica,sans-Serif" font-size="10.00">Cpl/Container/RingBufferMP.h</text>
</a>
</g>
</g>
<!-- Node39&#45;&gt;Node40 -->
<g id="edge49_Node000039_Node000040" class="edge">
<title>Node39&#45;&gt;Node40</title>
<g id="a_edge49_Node000039_Node000040"><a xlink:title=" ">
<path fill="none" stroke="#63b8ff" d="M256.39,-201.42C263.28,-200.09 270.32,-198.89 277.03,-198 580.03,-157.74 944.27,-149.79 1102.35,-148.3"/>
<polygon fill="#63b8ff" stroke="#63b8ff" points="255.58,-198.01 246.48,-203.43 256.97,-204.87 255.58,-198.01"/>
</a>
</g>
</g>
<!-- Node41 -->
<g id="Node000041" class="node">
<title>Node41</title>
<g id="a_Node000041"><a xlink:href="_cpl_2_logging_2_api_8h.html" target="_top" xlink:title=" ">
<polygon fill="white" stroke="#666666" points="818.53,-90.5 717.53,-90.5 717.53,-71.5 818.53,-71.5 818.53,-90.5"/>
<text text-anchor="middle" x="768.03" y="-78.5" font-family="Helvetica,sans-Serif" font-size="10.00">Cpl/Logging/Api.h</text>
</a>
</g>
</g>
<!-- Node39&#45;&gt;Node41 -->
<g id="edge53_Node000039_Node000041" class="edge">
<title>Node39&#45;&gt;Node41</title>
<g id="a_edge53_Node000039_Node000041"><a xlink:title=" ">
<path fill="none" stroke="#63b8ff" d="M213.42,-193.49C216.9,-174.73 225.27,-146.47 245.03,-132 282.6,-104.48 593.14,-89.05 717.16,-83.93"/>
<polygon fill="#63b8ff" stroke="#63b8ff" points="209.94,-193.08 211.86,-203.5 216.86,-194.16 209.94,-193.08"/>
</a>
</g>
</g>
<!-- Node40&#45;&gt;Node6 -->
<g id="edge51_Node000040_Node000006" class="edge">
<title>Node40&#45;&gt;Node6</title>
<g id="a_edge51_Node000040_Node000006"><a xlink:title=" ">
<path fill="none" stroke="#63b8ff" d="M1244.19,-135.82C1303.55,-125.99 1395.49,-110.52 1475.03,-96 1484.42,-94.29 1494.49,-92.37 1504.04,-90.53"/>
<polygon fill="#63b8ff" stroke="#63b8ff" points="1243.52,-132.38 1234.23,-137.47 1244.66,-139.29 1243.52,-132.38"/>
</a>
</g>
</g>
<!-- Node40&#45;&gt;Node15 -->
<g id="edge52_Node000040_Node000015" class="edge">
<title>Node40&#45;&gt;Node15</title>
<g id="a_edge52_Node000040_Node000015"><a xlink:title=" ">
<path fill="none" stroke="#63b8ff" d="M1220.09,-134.35C1255.21,-123.59 1307.45,-107.59 1344.93,-96.12"/>
<polygon fill="#63b8ff" stroke="#63b8ff" points="1218.75,-131.09 1210.21,-137.37 1220.8,-137.79 1218.75,-131.09"/>
</a>
</g>
</g>
<!-- Node40&#45;&gt;Node41 -->
<g id="edge50_Node000040_Node000041" class="edge">
<title>Node40&#45;&gt;Node41</title>
<g id="a_edge50_Node000040_Node000041"><a xlink:title=" ">
<path fill="none" stroke="#63b8ff" d="M1116.59,-135.88C1033.93,-123.11 893.45,-101.39 818.56,-89.81"/>
<polygon fill="#63b8ff" stroke="#63b8ff" points="1116.21,-139.37 1126.62,-137.44 1117.28,-132.45 1116.21,-139.37"/>
</a>
</g>
</g>
<!-- Node42&#45;&gt;Node14 -->
<g id="edge55_Node000042_Node000014" class="edge">
<title>Node42&#45;&gt;Node14</title>
<g id="a_edge55_Node000042_Node000014"><a xlink:title=" ">
<path fill="none" stroke="#63b8ff" d="M1349.86,-204.65C1461.1,-192.61 1681.49,-168.74 1797.53,-156.18"/>
<polygon fill="#63b8ff" stroke="#63b8ff" points="1349.34,-201.19 1339.77,-205.75 1350.09,-208.15 1349.34,-201.19"/>
</a>
</g>
</g>
<!-- Node46&#45;&gt;Node6 -->
<g id="edge61_Node000046_Node000006" class="edge">
<title>Node46&#45;&gt;Node6</title>
<g id="a_edge61_Node000046_Node000006"><a xlink:title=" ">
<path fill="none" stroke="#63b8ff" d="M1484.44,-259.78C1498.9,-218.72 1533.58,-120.21 1544.01,-90.57"/>
<polygon fill="#63b8ff" stroke="#63b8ff" points="1481.1,-258.73 1481.08,-269.33 1487.7,-261.05 1481.1,-258.73"/>
</a>
</g>
</g>
<!-- Node46&#45;&gt;Node10 -->
<g id="edge60_Node000046_Node000010" class="edge">
<title>Node46&#45;&gt;Node10</title>
<g id="a_edge60_Node000046_Node000010"><a xlink:title=" ">
<path fill="none" stroke="#63b8ff" d="M1514.88,-266.32C1554.73,-253.7 1617.31,-233.87 1652.89,-222.6"/>
<polygon fill="#63b8ff" stroke="#63b8ff" points="1513.75,-263.01 1505.27,-269.37 1515.86,-269.68 1513.75,-263.01"/>
</a>
</g>
</g>
<!-- Node46&#45;&gt;Node15 -->
<g id="edge62_Node000046_Node000015" class="edge">
<title>Node46&#45;&gt;Node15</title>
<g id="a_edge62_Node000046_Node000015"><a xlink:title=" ">
<path fill="none" stroke="#63b8ff" d="M1471.94,-259.53C1462.42,-231.41 1442.83,-176.42 1421.03,-132 1414.87,-119.46 1406.64,-105.91 1400.35,-96.08"/>
<polygon fill="#63b8ff" stroke="#63b8ff" points="1468.69,-260.85 1475.18,-269.23 1475.33,-258.63 1468.69,-260.85"/>
</a>
</g>
</g>
<!-- Node48 -->
<g id="Node000048" class="node">
<title>Node48</title>
<g id="a_Node000048"><a xlink:href="_itc_2_periodic_scheduler_8h.html" target="_top" xlink:title=" ">
<polygon fill="white" stroke="#666666" points="2228.03,-404 2082.03,-404 2082.03,-385 2228.03,-385 2228.03,-404"/>
<text text-anchor="middle" x="2155.03" y="-392" font-family="Helvetica,sans-Serif" font-size="10.00">Cpl/Itc/PeriodicScheduler.h</text>
</a>
</g>
</g>
<!-- Node47&#45;&gt;Node48 -->
<g id="edge64_Node000047_Node000048" class="edge">
<title>Node47&#45;&gt;Node48</title>
<g id="a_edge64_Node000047_Node000048"><a xlink:title=" ">
<path fill="none" stroke="#63b8ff" d="M2149.23,-429.66C2150.71,-420.93 2152.4,-410.99 2153.57,-404.09"/>
<polygon fill="#63b8ff" stroke="#63b8ff" points="2145.74,-429.3 2147.51,-439.75 2152.64,-430.48 2145.74,-429.3"/>
</a>
</g>
</g>
</g>
</svg>
