<?xml version="1.0" encoding="UTF-8" standalone="no"?>
<!DOCTYPE svg PUBLIC "-//W3C//DTD SVG 1.1//EN"
 "http://www.w3.org/Graphics/SVG/1.1/DTD/svg11.dtd">
<!-- Generated by graphviz version 2.43.0 (0)
 -->
<!-- Title: Cpl/TShell/Stdio.h Pages: 1 -->
<svg width="876pt" height="357pt"
 viewBox="0.00 0.00 876.30 357.00" xmlns="http://www.w3.org/2000/svg" xmlns:xlink="http://www.w3.org/1999/xlink">
<g id="graph0" class="graph" transform="scale(1 1) rotate(0) translate(4 353)">
<title>Cpl/TShell/Stdio.h</title>
<!-- Node1 -->
<g id="Node000001" class="node">
<title>Node1</title>
<g id="a_Node000001"><a xlink:title=" ">
<polygon fill="#999999" stroke="#666666" points="362,-349 260,-349 260,-330 362,-330 362,-349"/>
<text text-anchor="middle" x="311" y="-337" font-family="Helvetica,sans-Serif" font-size="10.00">Cpl/TShell/Stdio.h</text>
</a>
</g>
</g>
<!-- Node2 -->
<g id="Node000002" class="node">
<title>Node2</title>
<g id="a_Node000002"><a xlink:href="_processor_api_8h.html" target="_top" xlink:title=" ">
<polygon fill="white" stroke="#666666" points="332,-294 192,-294 192,-275 332,-275 332,-294"/>
<text text-anchor="middle" x="262" y="-282" font-family="Helvetica,sans-Serif" font-size="10.00">Cpl/TShell/ProcessorApi.h</text>
</a>
</g>
</g>
<!-- Node1&#45;&gt;Node2 -->
<g id="edge1_Node000001_Node000002" class="edge">
<title>Node1&#45;&gt;Node2</title>
<g id="a_edge1_Node000001_Node000002"><a xlink:title=" ">
<path fill="none" stroke="#63b8ff" d="M302.91,-329.75C295.84,-322.11 285.41,-310.82 276.85,-301.56"/>
<polygon fill="#63b8ff" stroke="#63b8ff" points="279.3,-299.06 269.94,-294.09 274.16,-303.81 279.3,-299.06"/>
</a>
</g>
</g>
<!-- Node18 -->
<g id="Node000018" class="node">
<title>Node18</title>
<g id="a_Node000018"><a xlink:href="_thread_8h.html" target="_top" xlink:title=" ">
<polygon fill="white" stroke="#666666" points="710,-239 592,-239 592,-220 710,-220 710,-239"/>
<text text-anchor="middle" x="651" y="-227" font-family="Helvetica,sans-Serif" font-size="10.00">Cpl/System/Thread.h</text>
</a>
</g>
</g>
<!-- Node1&#45;&gt;Node18 -->
<g id="edge22_Node000001_Node000018" class="edge">
<title>Node1&#45;&gt;Node18</title>
<g id="a_edge22_Node000001_Node000018"><a xlink:title=" ">
<path fill="none" stroke="#63b8ff" d="M337.96,-329.94C398.59,-310.68 545.74,-263.94 614.48,-242.1"/>
<polygon fill="#63b8ff" stroke="#63b8ff" points="615.56,-245.43 624.03,-239.07 613.44,-238.76 615.56,-245.43"/>
</a>
</g>
</g>
<!-- Node3 -->
<g id="Node000003" class="node">
<title>Node3</title>
<g id="a_Node000003"><a xlink:href="_input_8h.html" target="_top" xlink:title=" ">
<polygon fill="white" stroke="#666666" points="302.5,-239 221.5,-239 221.5,-220 302.5,-220 302.5,-239"/>
<text text-anchor="middle" x="262" y="-227" font-family="Helvetica,sans-Serif" font-size="10.00">Cpl/Io/Input.h</text>
</a>
</g>
</g>
<!-- Node2&#45;&gt;Node3 -->
<g id="edge2_Node000002_Node000003" class="edge">
<title>Node2&#45;&gt;Node3</title>
<g id="a_edge2_Node000002_Node000003"><a xlink:title=" ">
<path fill="none" stroke="#63b8ff" d="M262,-274.75C262,-267.8 262,-257.85 262,-249.13"/>
<polygon fill="#63b8ff" stroke="#63b8ff" points="265.5,-249.09 262,-239.09 258.5,-249.09 265.5,-249.09"/>
</a>
</g>
</g>
<!-- Node17 -->
<g id="Node000017" class="node">
<title>Node17</title>
<g id="a_Node000017"><a xlink:href="_output_8h.html" target="_top" xlink:title=" ">
<polygon fill="white" stroke="#666666" points="203.5,-239 114.5,-239 114.5,-220 203.5,-220 203.5,-239"/>
<text text-anchor="middle" x="159" y="-227" font-family="Helvetica,sans-Serif" font-size="10.00">Cpl/Io/Output.h</text>
</a>
</g>
</g>
<!-- Node2&#45;&gt;Node17 -->
<g id="edge17_Node000002_Node000017" class="edge">
<title>Node2&#45;&gt;Node17</title>
<g id="a_edge17_Node000002_Node000017"><a xlink:title=" ">
<path fill="none" stroke="#63b8ff" d="M245.45,-274.98C229.11,-266.57 203.87,-253.59 184.87,-243.81"/>
<polygon fill="#63b8ff" stroke="#63b8ff" points="186.34,-240.63 175.85,-239.17 183.14,-246.86 186.34,-240.63"/>
</a>
</g>
</g>
<!-- Node4 -->
<g id="Node000004" class="node">
<title>Node4</title>
<g id="a_Node000004"><a xlink:href="_text_2_string_8h.html" target="_top" xlink:title=" ">
<polygon fill="white" stroke="#666666" points="152,-184 56,-184 56,-165 152,-165 152,-184"/>
<text text-anchor="middle" x="104" y="-172" font-family="Helvetica,sans-Serif" font-size="10.00">Cpl/Text/String.h</text>
</a>
</g>
</g>
<!-- Node3&#45;&gt;Node4 -->
<g id="edge3_Node000003_Node000004" class="edge">
<title>Node3&#45;&gt;Node4</title>
<g id="a_edge3_Node000003_Node000004"><a xlink:title=" ">
<path fill="none" stroke="#63b8ff" d="M236.61,-219.98C210.2,-211.13 168.65,-197.19 139.11,-187.28"/>
<polygon fill="#63b8ff" stroke="#63b8ff" points="140.18,-183.94 129.58,-184.08 137.95,-190.58 140.18,-183.94"/>
</a>
</g>
</g>
<!-- Node14 -->
<g id="Node000014" class="node">
<title>Node14</title>
<g id="a_Node000014"><a xlink:href="_close_8h.html" target="_top" xlink:title=" ">
<polygon fill="white" stroke="#666666" points="253.5,-184 170.5,-184 170.5,-165 253.5,-165 253.5,-184"/>
<text text-anchor="middle" x="212" y="-172" font-family="Helvetica,sans-Serif" font-size="10.00">Cpl/Io/Close.h</text>
</a>
</g>
</g>
<!-- Node3&#45;&gt;Node14 -->
<g id="edge14_Node000003_Node000014" class="edge">
<title>Node3&#45;&gt;Node14</title>
<g id="a_edge14_Node000003_Node000014"><a xlink:title=" ">
<path fill="none" stroke="#63b8ff" d="M253.74,-219.75C246.54,-212.11 235.89,-200.82 227.15,-191.56"/>
<polygon fill="#63b8ff" stroke="#63b8ff" points="229.51,-188.96 220.1,-184.09 224.42,-193.76 229.51,-188.96"/>
</a>
</g>
</g>
<!-- Node16 -->
<g id="Node000016" class="node">
<title>Node16</title>
<g id="a_Node000016"><a xlink:href="_is_eos_8h.html" target="_top" xlink:title=" ">
<polygon fill="white" stroke="#666666" points="354,-184 272,-184 272,-165 354,-165 354,-184"/>
<text text-anchor="middle" x="313" y="-172" font-family="Helvetica,sans-Serif" font-size="10.00">Cpl/Io/IsEos.h</text>
</a>
</g>
</g>
<!-- Node3&#45;&gt;Node16 -->
<g id="edge16_Node000003_Node000016" class="edge">
<title>Node3&#45;&gt;Node16</title>
<g id="a_edge16_Node000003_Node000016"><a xlink:title=" ">
<path fill="none" stroke="#63b8ff" d="M270.42,-219.75C277.77,-212.11 288.63,-200.82 297.54,-191.56"/>
<polygon fill="#63b8ff" stroke="#63b8ff" points="300.32,-193.72 304.74,-184.09 295.28,-188.87 300.32,-193.72"/>
</a>
</g>
</g>
<!-- Node5 -->
<g id="Node000005" class="node">
<title>Node5</title>
<g id="a_Node000005"><a xlink:title=" ">
<polygon fill="#e0e0e0" stroke="#999999" points="385.5,-74 300.5,-74 300.5,-55 385.5,-55 385.5,-74"/>
<text text-anchor="middle" x="343" y="-62" font-family="Helvetica,sans-Serif" font-size="10.00">colony_map.h</text>
</a>
</g>
</g>
<!-- Node4&#45;&gt;Node5 -->
<g id="edge4_Node000004_Node000005" class="edge">
<title>Node4&#45;&gt;Node5</title>
<g id="a_edge4_Node000004_Node000005"><a xlink:title=" ">
<path fill="none" stroke="#63b8ff" d="M145.06,-164.94C187.4,-155.7 250.22,-140.74 272,-129 294.39,-116.93 315.51,-96.44 328.8,-82.01"/>
<polygon fill="#63b8ff" stroke="#63b8ff" points="331.61,-84.11 335.67,-74.32 326.39,-79.44 331.61,-84.11"/>
</a>
</g>
</g>
<!-- Node6 -->
<g id="Node000006" class="node">
<title>Node6</title>
<g id="a_Node000006"><a xlink:href="_key_8h.html" target="_top" xlink:title=" ">
<polygon fill="white" stroke="#666666" points="263.5,-129 152.5,-129 152.5,-110 263.5,-110 263.5,-129"/>
<text text-anchor="middle" x="208" y="-117" font-family="Helvetica,sans-Serif" font-size="10.00">Cpl/Container/Key.h</text>
</a>
</g>
</g>
<!-- Node4&#45;&gt;Node6 -->
<g id="edge5_Node000004_Node000006" class="edge">
<title>Node4&#45;&gt;Node6</title>
<g id="a_edge5_Node000004_Node000006"><a xlink:title=" ">
<path fill="none" stroke="#63b8ff" d="M120.71,-164.98C137.21,-156.57 162.7,-143.59 181.88,-133.81"/>
<polygon fill="#63b8ff" stroke="#63b8ff" points="183.67,-136.83 190.99,-129.17 180.49,-130.59 183.67,-136.83"/>
</a>
</g>
</g>
<!-- Node12 -->
<g id="Node000012" class="node">
<title>Node12</title>
<g id="a_Node000012"><a xlink:title=" ">
<polygon fill="#e0e0e0" stroke="#999999" points="56,-129 0,-129 0,-110 56,-110 56,-129"/>
<text text-anchor="middle" x="28" y="-117" font-family="Helvetica,sans-Serif" font-size="10.00">stdarg.h</text>
</a>
</g>
</g>
<!-- Node4&#45;&gt;Node12 -->
<g id="edge12_Node000004_Node000012" class="edge">
<title>Node4&#45;&gt;Node12</title>
<g id="a_edge12_Node000004_Node000012"><a xlink:title=" ">
<path fill="none" stroke="#63b8ff" d="M91.79,-164.98C80.22,-156.92 62.62,-144.65 48.84,-135.03"/>
<polygon fill="#63b8ff" stroke="#63b8ff" points="50.64,-132.02 40.43,-129.17 46.63,-137.76 50.64,-132.02"/>
</a>
</g>
</g>
<!-- Node13 -->
<g id="Node000013" class="node">
<title>Node13</title>
<g id="a_Node000013"><a xlink:title=" ">
<polygon fill="#e0e0e0" stroke="#999999" points="134,-129 74,-129 74,-110 134,-110 134,-129"/>
<text text-anchor="middle" x="104" y="-117" font-family="Helvetica,sans-Serif" font-size="10.00">iostream</text>
</a>
</g>
</g>
<!-- Node4&#45;&gt;Node13 -->
<g id="edge13_Node000004_Node000013" class="edge">
<title>Node4&#45;&gt;Node13</title>
<g id="a_edge13_Node000004_Node000013"><a xlink:title=" ">
<path fill="none" stroke="#63b8ff" d="M104,-164.75C104,-157.8 104,-147.85 104,-139.13"/>
<polygon fill="#63b8ff" stroke="#63b8ff" points="107.5,-139.09 104,-129.09 100.5,-139.09 107.5,-139.09"/>
</a>
</g>
</g>
<!-- Node6&#45;&gt;Node5 -->
<g id="edge11_Node000006_Node000005" class="edge">
<title>Node6&#45;&gt;Node5</title>
<g id="a_edge11_Node000006_Node000005"><a xlink:title=" ">
<path fill="none" stroke="#63b8ff" d="M229.69,-109.98C251.8,-101.3 286.32,-87.75 311.45,-77.88"/>
<polygon fill="#63b8ff" stroke="#63b8ff" points="312.89,-81.08 320.92,-74.17 310.33,-74.57 312.89,-81.08"/>
</a>
</g>
</g>
<!-- Node7 -->
<g id="Node000007" class="node">
<title>Node7</title>
<g id="a_Node000007"><a xlink:href="_fatal_error_8h.html" target="_top" xlink:title=" ">
<polygon fill="white" stroke="#666666" points="282,-74 152,-74 152,-55 282,-55 282,-74"/>
<text text-anchor="middle" x="217" y="-62" font-family="Helvetica,sans-Serif" font-size="10.00">Cpl/System/FatalError.h</text>
</a>
</g>
</g>
<!-- Node6&#45;&gt;Node7 -->
<g id="edge6_Node000006_Node000007" class="edge">
<title>Node6&#45;&gt;Node7</title>
<g id="a_edge6_Node000006_Node000007"><a xlink:title=" ">
<path fill="none" stroke="#63b8ff" d="M209.49,-109.75C210.67,-102.8 212.36,-92.85 213.84,-84.13"/>
<polygon fill="#63b8ff" stroke="#63b8ff" points="217.32,-84.53 215.54,-74.09 210.42,-83.36 217.32,-84.53"/>
</a>
</g>
</g>
<!-- Node10 -->
<g id="Node000010" class="node">
<title>Node10</title>
<g id="a_Node000010"><a xlink:title=" ">
<polygon fill="#e0e0e0" stroke="#999999" points="62.5,-74 9.5,-74 9.5,-55 62.5,-55 62.5,-74"/>
<text text-anchor="middle" x="36" y="-62" font-family="Helvetica,sans-Serif" font-size="10.00">stdint.h</text>
</a>
</g>
</g>
<!-- Node6&#45;&gt;Node10 -->
<g id="edge9_Node000006_Node000010" class="edge">
<title>Node6&#45;&gt;Node10</title>
<g id="a_edge9_Node000006_Node000010"><a xlink:title=" ">
<path fill="none" stroke="#63b8ff" d="M180.37,-109.98C151.15,-100.98 104.91,-86.73 72.66,-76.8"/>
<polygon fill="#63b8ff" stroke="#63b8ff" points="73.3,-73.33 62.72,-73.73 71.24,-80.02 73.3,-73.33"/>
</a>
</g>
</g>
<!-- Node11 -->
<g id="Node000011" class="node">
<title>Node11</title>
<g id="a_Node000011"><a xlink:title=" ">
<polygon fill="#e0e0e0" stroke="#999999" points="133.5,-74 80.5,-74 80.5,-55 133.5,-55 133.5,-74"/>
<text text-anchor="middle" x="107" y="-62" font-family="Helvetica,sans-Serif" font-size="10.00">string.h</text>
</a>
</g>
</g>
<!-- Node6&#45;&gt;Node11 -->
<g id="edge10_Node000006_Node000011" class="edge">
<title>Node6&#45;&gt;Node11</title>
<g id="a_edge10_Node000006_Node000011"><a xlink:title=" ">
<path fill="none" stroke="#63b8ff" d="M191.77,-109.98C175.82,-101.61 151.22,-88.7 132.62,-78.95"/>
<polygon fill="#63b8ff" stroke="#63b8ff" points="134,-75.72 123.52,-74.17 130.75,-81.92 134,-75.72"/>
</a>
</g>
</g>
<!-- Node8 -->
<g id="Node000008" class="node">
<title>Node8</title>
<g id="a_Node000008"><a xlink:title=" ">
<polygon fill="#e0e0e0" stroke="#999999" points="199,-19 143,-19 143,0 199,0 199,-19"/>
<text text-anchor="middle" x="171" y="-7" font-family="Helvetica,sans-Serif" font-size="10.00">stddef.h</text>
</a>
</g>
</g>
<!-- Node7&#45;&gt;Node8 -->
<g id="edge7_Node000007_Node000008" class="edge">
<title>Node7&#45;&gt;Node8</title>
<g id="a_edge7_Node000007_Node000008"><a xlink:title=" ">
<path fill="none" stroke="#63b8ff" d="M209.4,-54.75C202.84,-47.18 193.18,-36.05 185.19,-26.84"/>
<polygon fill="#63b8ff" stroke="#63b8ff" points="187.65,-24.35 178.45,-19.09 182.37,-28.94 187.65,-24.35"/>
</a>
</g>
</g>
<!-- Node9 -->
<g id="Node000009" class="node">
<title>Node9</title>
<g id="a_Node000009"><a xlink:title=" ">
<polygon fill="#e0e0e0" stroke="#999999" points="309,-19 217,-19 217,0 309,0 309,-19"/>
<text text-anchor="middle" x="263" y="-7" font-family="Helvetica,sans-Serif" font-size="10.00">colony_config.h</text>
</a>
</g>
</g>
<!-- Node7&#45;&gt;Node9 -->
<g id="edge8_Node000007_Node000009" class="edge">
<title>Node7&#45;&gt;Node9</title>
<g id="a_edge8_Node000007_Node000009"><a xlink:title=" ">
<path fill="none" stroke="#63b8ff" d="M224.6,-54.75C231.16,-47.18 240.82,-36.05 248.81,-26.84"/>
<polygon fill="#63b8ff" stroke="#63b8ff" points="251.63,-28.94 255.55,-19.09 246.35,-24.35 251.63,-28.94"/>
</a>
</g>
</g>
<!-- Node15 -->
<g id="Node000015" class="node">
<title>Node15</title>
<g id="a_Node000015"><a xlink:href="_item_8h.html" target="_top" xlink:title=" ">
<polygon fill="white" stroke="#666666" points="476.5,-129 359.5,-129 359.5,-110 476.5,-110 476.5,-129"/>
<text text-anchor="middle" x="418" y="-117" font-family="Helvetica,sans-Serif" font-size="10.00">Cpl/Container/Item.h</text>
</a>
</g>
</g>
<!-- Node14&#45;&gt;Node15 -->
<g id="edge15_Node000014_Node000015" class="edge">
<title>Node14&#45;&gt;Node15</title>
<g id="a_edge15_Node000014_Node000015"><a xlink:title=" ">
<path fill="none" stroke="#63b8ff" d="M245.1,-164.98C280.28,-155.93 336.07,-141.58 374.72,-131.64"/>
<polygon fill="#63b8ff" stroke="#63b8ff" points="375.83,-134.96 384.64,-129.08 374.09,-128.18 375.83,-134.96"/>
</a>
</g>
</g>
<!-- Node17&#45;&gt;Node4 -->
<g id="edge18_Node000017_Node000004" class="edge">
<title>Node17&#45;&gt;Node4</title>
<g id="a_edge18_Node000017_Node000004"><a xlink:title=" ">
<path fill="none" stroke="#63b8ff" d="M149.92,-219.75C141.91,-212.03 130.04,-200.6 120.38,-191.28"/>
<polygon fill="#63b8ff" stroke="#63b8ff" points="122.54,-188.51 112.91,-184.09 117.69,-193.55 122.54,-188.51"/>
</a>
</g>
</g>
<!-- Node17&#45;&gt;Node12 -->
<g id="edge21_Node000017_Node000012" class="edge">
<title>Node17&#45;&gt;Node12</title>
<g id="a_edge21_Node000017_Node000012"><a xlink:title=" ">
<path fill="none" stroke="#63b8ff" d="M114.35,-220.47C91.35,-214.17 64.53,-203.13 47,-184 35.83,-171.8 31.21,-153.28 29.31,-139.38"/>
<polygon fill="#63b8ff" stroke="#63b8ff" points="32.75,-138.64 28.27,-129.04 25.79,-139.34 32.75,-138.64"/>
</a>
</g>
</g>
<!-- Node17&#45;&gt;Node14 -->
<g id="edge19_Node000017_Node000014" class="edge">
<title>Node17&#45;&gt;Node14</title>
<g id="a_edge19_Node000017_Node000014"><a xlink:title=" ">
<path fill="none" stroke="#63b8ff" d="M167.75,-219.75C175.47,-212.03 186.9,-200.6 196.22,-191.28"/>
<polygon fill="#63b8ff" stroke="#63b8ff" points="198.81,-193.64 203.41,-184.09 193.86,-188.69 198.81,-193.64"/>
</a>
</g>
</g>
<!-- Node17&#45;&gt;Node16 -->
<g id="edge20_Node000017_Node000016" class="edge">
<title>Node17&#45;&gt;Node16</title>
<g id="a_edge20_Node000017_Node000016"><a xlink:title=" ">
<path fill="none" stroke="#63b8ff" d="M183.74,-219.98C209.37,-211.16 249.63,-197.31 278.41,-187.41"/>
<polygon fill="#63b8ff" stroke="#63b8ff" points="279.75,-190.65 288.06,-184.08 277.47,-184.03 279.75,-190.65"/>
</a>
</g>
</g>
<!-- Node18&#45;&gt;Node5 -->
<g id="edge23_Node000018_Node000005" class="edge">
<title>Node18&#45;&gt;Node5</title>
<g id="a_edge23_Node000018_Node000005"><a xlink:title=" ">
<path fill="none" stroke="#63b8ff" d="M710.03,-228.82C785.5,-227.19 901.61,-216.61 859,-165 800.59,-94.25 515.43,-73.25 395.89,-67.5"/>
<polygon fill="#63b8ff" stroke="#63b8ff" points="396.02,-64 385.87,-67.04 395.7,-71 396.02,-64"/>
</a>
</g>
</g>
<!-- Node19 -->
<g id="Node000019" class="node">
<title>Node19</title>
<g id="a_Node000019"><a xlink:href="_runnable_8h.html" target="_top" xlink:title=" ">
<polygon fill="white" stroke="#666666" points="646,-184 516,-184 516,-165 646,-165 646,-184"/>
<text text-anchor="middle" x="581" y="-172" font-family="Helvetica,sans-Serif" font-size="10.00">Cpl/System/Runnable.h</text>
</a>
</g>
</g>
<!-- Node18&#45;&gt;Node19 -->
<g id="edge24_Node000018_Node000019" class="edge">
<title>Node18&#45;&gt;Node19</title>
<g id="a_edge24_Node000018_Node000019"><a xlink:title=" ">
<path fill="none" stroke="#63b8ff" d="M639.75,-219.98C629.2,-212 613.2,-199.88 600.56,-190.31"/>
<polygon fill="#63b8ff" stroke="#63b8ff" points="602.54,-187.42 592.45,-184.17 598.31,-193 602.54,-187.42"/>
</a>
</g>
</g>
<!-- Node20 -->
<g id="Node000020" class="node">
<title>Node20</title>
<g id="a_Node000020"><a xlink:href="_signable_8h.html" target="_top" xlink:title=" ">
<polygon fill="white" stroke="#666666" points="498,-184 372,-184 372,-165 498,-165 498,-184"/>
<text text-anchor="middle" x="435" y="-172" font-family="Helvetica,sans-Serif" font-size="10.00">Cpl/System/Signable.h</text>
</a>
</g>
</g>
<!-- Node18&#45;&gt;Node20 -->
<g id="edge25_Node000018_Node000020" class="edge">
<title>Node18&#45;&gt;Node20</title>
<g id="a_edge25_Node000018_Node000020"><a xlink:title=" ">
<path fill="none" stroke="#63b8ff" d="M616.3,-219.98C579.25,-210.89 520.41,-196.46 479.87,-186.51"/>
<polygon fill="#63b8ff" stroke="#63b8ff" points="480.52,-183.07 469.98,-184.08 478.85,-189.86 480.52,-183.07"/>
</a>
</g>
</g>
<!-- Node21 -->
<g id="Node000021" class="node">
<title>Node21</title>
<g id="a_Node000021"><a xlink:href="_traverser_8h.html" target="_top" xlink:title=" ">
<polygon fill="white" stroke="#666666" points="778,-184 664,-184 664,-165 778,-165 778,-184"/>
<text text-anchor="middle" x="721" y="-172" font-family="Helvetica,sans-Serif" font-size="10.00">Cpl/Type/Traverser.h</text>
</a>
</g>
</g>
<!-- Node18&#45;&gt;Node21 -->
<g id="edge27_Node000018_Node000021" class="edge">
<title>Node18&#45;&gt;Node21</title>
<g id="a_edge27_Node000018_Node000021"><a xlink:title=" ">
<path fill="none" stroke="#63b8ff" d="M662.25,-219.98C672.8,-212 688.8,-199.88 701.44,-190.31"/>
<polygon fill="#63b8ff" stroke="#63b8ff" points="703.69,-193 709.55,-184.17 699.46,-187.42 703.69,-193"/>
</a>
</g>
</g>
<!-- Node22 -->
<g id="Node000022" class="node">
<title>Node22</title>
<g id="a_Node000022"><a xlink:title=" ">
<polygon fill="#e0e0e0" stroke="#999999" points="849.5,-184 796.5,-184 796.5,-165 849.5,-165 849.5,-184"/>
<text text-anchor="middle" x="823" y="-172" font-family="Helvetica,sans-Serif" font-size="10.00">stdlib.h</text>
</a>
</g>
</g>
<!-- Node18&#45;&gt;Node22 -->
<g id="edge28_Node000018_Node000022" class="edge">
<title>Node18&#45;&gt;Node22</title>
<g id="a_edge28_Node000018_Node000022"><a xlink:title=" ">
<path fill="none" stroke="#63b8ff" d="M678.63,-219.98C707.85,-210.98 754.09,-196.73 786.34,-186.8"/>
<polygon fill="#63b8ff" stroke="#63b8ff" points="787.76,-190.02 796.28,-183.73 785.7,-183.33 787.76,-190.02"/>
</a>
</g>
</g>
<!-- Node20&#45;&gt;Node15 -->
<g id="edge26_Node000020_Node000015" class="edge">
<title>Node20&#45;&gt;Node15</title>
<g id="a_edge26_Node000020_Node000015"><a xlink:title=" ">
<path fill="none" stroke="#63b8ff" d="M432.19,-164.75C429.94,-157.72 426.7,-147.62 423.88,-138.84"/>
<polygon fill="#63b8ff" stroke="#63b8ff" points="427.14,-137.54 420.75,-129.09 420.48,-139.68 427.14,-137.54"/>
</a>
</g>
</g>
</g>
</svg>
