<?xml version="1.0" encoding="UTF-8" standalone="no"?>
<!DOCTYPE svg PUBLIC "-//W3C//DTD SVG 1.1//EN"
 "http://www.w3.org/Graphics/SVG/1.1/DTD/svg11.dtd">
<!-- Generated by graphviz version 2.43.0 (0)
 -->
<!-- Title: Cpl/Text/StringItem.h Pages: 1 -->
<svg width="510pt" height="302pt"
 viewBox="0.00 0.00 510.00 302.00" xmlns="http://www.w3.org/2000/svg" xmlns:xlink="http://www.w3.org/1999/xlink">
<g id="graph0" class="graph" transform="scale(1 1) rotate(0) translate(4 298)">
<title>Cpl/Text/StringItem.h</title>
<!-- Node1 -->
<g id="Node000001" class="node">
<title>Node1</title>
<g id="a_Node000001"><a xlink:title=" ">
<polygon fill="#999999" stroke="#666666" points="356.5,-294 237.5,-294 237.5,-275 356.5,-275 356.5,-294"/>
<text text-anchor="middle" x="297" y="-282" font-family="Helvetica,sans-Serif" font-size="10.00">Cpl/Text/StringItem.h</text>
</a>
</g>
</g>
<!-- Node2 -->
<g id="Node000002" class="node">
<title>Node2</title>
<g id="a_Node000002"><a xlink:href="_map_item_8h.html" target="_top" xlink:title=" ">
<polygon fill="white" stroke="#666666" points="318,-239 180,-239 180,-220 318,-220 318,-239"/>
<text text-anchor="middle" x="249" y="-227" font-family="Helvetica,sans-Serif" font-size="10.00">Cpl/Container/MapItem.h</text>
</a>
</g>
</g>
<!-- Node1&#45;&gt;Node2 -->
<g id="edge1_Node000001_Node000002" class="edge">
<title>Node1&#45;&gt;Node2</title>
<g id="a_edge1_Node000001_Node000002"><a xlink:title=" ">
<path fill="none" stroke="#63b8ff" d="M289.07,-274.75C282.15,-267.11 271.93,-255.82 263.55,-246.56"/>
<polygon fill="#63b8ff" stroke="#63b8ff" points="266.09,-244.15 256.78,-239.09 260.9,-248.85 266.09,-244.15"/>
</a>
</g>
</g>
<!-- Node12 -->
<g id="Node000012" class="node">
<title>Node12</title>
<g id="a_Node000012"><a xlink:href="_text_2_string_8h.html" target="_top" xlink:title=" ">
<polygon fill="white" stroke="#666666" points="413,-184 317,-184 317,-165 413,-165 413,-184"/>
<text text-anchor="middle" x="365" y="-172" font-family="Helvetica,sans-Serif" font-size="10.00">Cpl/Text/String.h</text>
</a>
</g>
</g>
<!-- Node1&#45;&gt;Node12 -->
<g id="edge11_Node000001_Node000012" class="edge">
<title>Node1&#45;&gt;Node12</title>
<g id="a_edge11_Node000001_Node000012"><a xlink:title=" ">
<path fill="none" stroke="#63b8ff" d="M303.12,-274.73C309.28,-265.82 319,-251.58 327,-239 336.78,-223.62 347.38,-205.79 354.9,-192.94"/>
<polygon fill="#63b8ff" stroke="#63b8ff" points="357.98,-194.62 359.98,-184.22 351.93,-191.1 357.98,-194.62"/>
</a>
</g>
</g>
<!-- Node3 -->
<g id="Node000003" class="node">
<title>Node3</title>
<g id="a_Node000003"><a xlink:href="_dict_item_8h.html" target="_top" xlink:title=" ">
<polygon fill="white" stroke="#666666" points="298.5,-184 161.5,-184 161.5,-165 298.5,-165 298.5,-184"/>
<text text-anchor="middle" x="230" y="-172" font-family="Helvetica,sans-Serif" font-size="10.00">Cpl/Container/DictItem.h</text>
</a>
</g>
</g>
<!-- Node2&#45;&gt;Node3 -->
<g id="edge2_Node000002_Node000003" class="edge">
<title>Node2&#45;&gt;Node3</title>
<g id="a_edge2_Node000002_Node000003"><a xlink:title=" ">
<path fill="none" stroke="#63b8ff" d="M245.86,-219.75C243.32,-212.65 239.64,-202.4 236.47,-193.56"/>
<polygon fill="#63b8ff" stroke="#63b8ff" points="239.75,-192.32 233.08,-184.09 233.16,-194.68 239.75,-192.32"/>
</a>
</g>
</g>
<!-- Node4 -->
<g id="Node000004" class="node">
<title>Node4</title>
<g id="a_Node000004"><a xlink:href="_item_8h.html" target="_top" xlink:title=" ">
<polygon fill="white" stroke="#666666" points="181.5,-129 64.5,-129 64.5,-110 181.5,-110 181.5,-129"/>
<text text-anchor="middle" x="123" y="-117" font-family="Helvetica,sans-Serif" font-size="10.00">Cpl/Container/Item.h</text>
</a>
</g>
</g>
<!-- Node3&#45;&gt;Node4 -->
<g id="edge3_Node000003_Node000004" class="edge">
<title>Node3&#45;&gt;Node4</title>
<g id="a_edge3_Node000003_Node000004"><a xlink:title=" ">
<path fill="none" stroke="#63b8ff" d="M212.81,-164.98C195.75,-156.54 169.37,-143.47 149.6,-133.68"/>
<polygon fill="#63b8ff" stroke="#63b8ff" points="151.02,-130.47 140.5,-129.17 147.91,-136.75 151.02,-130.47"/>
</a>
</g>
</g>
<!-- Node5 -->
<g id="Node000005" class="node">
<title>Node5</title>
<g id="a_Node000005"><a xlink:href="_key_8h.html" target="_top" xlink:title=" ">
<polygon fill="white" stroke="#666666" points="310.5,-129 199.5,-129 199.5,-110 310.5,-110 310.5,-129"/>
<text text-anchor="middle" x="255" y="-117" font-family="Helvetica,sans-Serif" font-size="10.00">Cpl/Container/Key.h</text>
</a>
</g>
</g>
<!-- Node3&#45;&gt;Node5 -->
<g id="edge4_Node000003_Node000005" class="edge">
<title>Node3&#45;&gt;Node5</title>
<g id="a_edge4_Node000003_Node000005"><a xlink:title=" ">
<path fill="none" stroke="#63b8ff" d="M234.13,-164.75C237.51,-157.57 242.42,-147.18 246.62,-138.27"/>
<polygon fill="#63b8ff" stroke="#63b8ff" points="249.85,-139.63 250.95,-129.09 243.52,-136.64 249.85,-139.63"/>
</a>
</g>
</g>
<!-- Node6 -->
<g id="Node000006" class="node">
<title>Node6</title>
<g id="a_Node000006"><a xlink:href="_fatal_error_8h.html" target="_top" xlink:title=" ">
<polygon fill="white" stroke="#666666" points="139,-74 9,-74 9,-55 139,-55 139,-74"/>
<text text-anchor="middle" x="74" y="-62" font-family="Helvetica,sans-Serif" font-size="10.00">Cpl/System/FatalError.h</text>
</a>
</g>
</g>
<!-- Node5&#45;&gt;Node6 -->
<g id="edge5_Node000005_Node000006" class="edge">
<title>Node5&#45;&gt;Node6</title>
<g id="a_edge5_Node000005_Node000006"><a xlink:title=" ">
<path fill="none" stroke="#63b8ff" d="M225.92,-109.98C195.4,-101.05 147.24,-86.94 113.34,-77.02"/>
<polygon fill="#63b8ff" stroke="#63b8ff" points="113.89,-73.53 103.31,-74.08 111.92,-80.25 113.89,-73.53"/>
</a>
</g>
</g>
<!-- Node9 -->
<g id="Node000009" class="node">
<title>Node9</title>
<g id="a_Node000009"><a xlink:title=" ">
<polygon fill="#e0e0e0" stroke="#999999" points="210.5,-74 157.5,-74 157.5,-55 210.5,-55 210.5,-74"/>
<text text-anchor="middle" x="184" y="-62" font-family="Helvetica,sans-Serif" font-size="10.00">stdint.h</text>
</a>
</g>
</g>
<!-- Node5&#45;&gt;Node9 -->
<g id="edge8_Node000005_Node000009" class="edge">
<title>Node5&#45;&gt;Node9</title>
<g id="a_edge8_Node000005_Node000009"><a xlink:title=" ">
<path fill="none" stroke="#63b8ff" d="M243.59,-109.98C232.89,-102 216.66,-89.88 203.84,-80.31"/>
<polygon fill="#63b8ff" stroke="#63b8ff" points="205.72,-77.35 195.61,-74.17 201.53,-82.96 205.72,-77.35"/>
</a>
</g>
</g>
<!-- Node10 -->
<g id="Node000010" class="node">
<title>Node10</title>
<g id="a_Node000010"><a xlink:title=" ">
<polygon fill="#e0e0e0" stroke="#999999" points="281.5,-74 228.5,-74 228.5,-55 281.5,-55 281.5,-74"/>
<text text-anchor="middle" x="255" y="-62" font-family="Helvetica,sans-Serif" font-size="10.00">string.h</text>
</a>
</g>
</g>
<!-- Node5&#45;&gt;Node10 -->
<g id="edge9_Node000005_Node000010" class="edge">
<title>Node5&#45;&gt;Node10</title>
<g id="a_edge9_Node000005_Node000010"><a xlink:title=" ">
<path fill="none" stroke="#63b8ff" d="M255,-109.75C255,-102.8 255,-92.85 255,-84.13"/>
<polygon fill="#63b8ff" stroke="#63b8ff" points="258.5,-84.09 255,-74.09 251.5,-84.09 258.5,-84.09"/>
</a>
</g>
</g>
<!-- Node11 -->
<g id="Node000011" class="node">
<title>Node11</title>
<g id="a_Node000011"><a xlink:title=" ">
<polygon fill="#e0e0e0" stroke="#999999" points="384.5,-74 299.5,-74 299.5,-55 384.5,-55 384.5,-74"/>
<text text-anchor="middle" x="342" y="-62" font-family="Helvetica,sans-Serif" font-size="10.00">colony_map.h</text>
</a>
</g>
</g>
<!-- Node5&#45;&gt;Node11 -->
<g id="edge10_Node000005_Node000011" class="edge">
<title>Node5&#45;&gt;Node11</title>
<g id="a_edge10_Node000005_Node000011"><a xlink:title=" ">
<path fill="none" stroke="#63b8ff" d="M268.98,-109.98C282.47,-101.77 303.13,-89.18 319.04,-79.49"/>
<polygon fill="#63b8ff" stroke="#63b8ff" points="321.05,-82.36 327.77,-74.17 317.41,-76.38 321.05,-82.36"/>
</a>
</g>
</g>
<!-- Node7 -->
<g id="Node000007" class="node">
<title>Node7</title>
<g id="a_Node000007"><a xlink:title=" ">
<polygon fill="#e0e0e0" stroke="#999999" points="56,-19 0,-19 0,0 56,0 56,-19"/>
<text text-anchor="middle" x="28" y="-7" font-family="Helvetica,sans-Serif" font-size="10.00">stddef.h</text>
</a>
</g>
</g>
<!-- Node6&#45;&gt;Node7 -->
<g id="edge6_Node000006_Node000007" class="edge">
<title>Node6&#45;&gt;Node7</title>
<g id="a_edge6_Node000006_Node000007"><a xlink:title=" ">
<path fill="none" stroke="#63b8ff" d="M66.4,-54.75C59.84,-47.18 50.18,-36.05 42.19,-26.84"/>
<polygon fill="#63b8ff" stroke="#63b8ff" points="44.65,-24.35 35.45,-19.09 39.37,-28.94 44.65,-24.35"/>
</a>
</g>
</g>
<!-- Node8 -->
<g id="Node000008" class="node">
<title>Node8</title>
<g id="a_Node000008"><a xlink:title=" ">
<polygon fill="#e0e0e0" stroke="#999999" points="166,-19 74,-19 74,0 166,0 166,-19"/>
<text text-anchor="middle" x="120" y="-7" font-family="Helvetica,sans-Serif" font-size="10.00">colony_config.h</text>
</a>
</g>
</g>
<!-- Node6&#45;&gt;Node8 -->
<g id="edge7_Node000006_Node000008" class="edge">
<title>Node6&#45;&gt;Node8</title>
<g id="a_edge7_Node000006_Node000008"><a xlink:title=" ">
<path fill="none" stroke="#63b8ff" d="M81.6,-54.75C88.16,-47.18 97.82,-36.05 105.81,-26.84"/>
<polygon fill="#63b8ff" stroke="#63b8ff" points="108.63,-28.94 112.55,-19.09 103.35,-24.35 108.63,-28.94"/>
</a>
</g>
</g>
<!-- Node12&#45;&gt;Node5 -->
<g id="edge13_Node000012_Node000005" class="edge">
<title>Node12&#45;&gt;Node5</title>
<g id="a_edge13_Node000012_Node000005"><a xlink:title=" ">
<path fill="none" stroke="#63b8ff" d="M347.33,-164.98C329.71,-156.5 302.42,-143.35 282.07,-133.54"/>
<polygon fill="#63b8ff" stroke="#63b8ff" points="283.52,-130.36 272.99,-129.17 280.48,-136.66 283.52,-130.36"/>
</a>
</g>
</g>
<!-- Node12&#45;&gt;Node11 -->
<g id="edge12_Node000012_Node000011" class="edge">
<title>Node12&#45;&gt;Node11</title>
<g id="a_edge12_Node000012_Node000011"><a xlink:title=" ">
<path fill="none" stroke="#63b8ff" d="M363.12,-164.66C359.38,-147.09 350.93,-107.45 345.93,-83.95"/>
<polygon fill="#63b8ff" stroke="#63b8ff" points="349.35,-83.21 343.84,-74.16 342.5,-84.67 349.35,-83.21"/>
</a>
</g>
</g>
<!-- Node13 -->
<g id="Node000013" class="node">
<title>Node13</title>
<g id="a_Node000013"><a xlink:title=" ">
<polygon fill="#e0e0e0" stroke="#999999" points="424,-129 368,-129 368,-110 424,-110 424,-129"/>
<text text-anchor="middle" x="396" y="-117" font-family="Helvetica,sans-Serif" font-size="10.00">stdarg.h</text>
</a>
</g>
</g>
<!-- Node12&#45;&gt;Node13 -->
<g id="edge14_Node000012_Node000013" class="edge">
<title>Node12&#45;&gt;Node13</title>
<g id="a_edge14_Node000012_Node000013"><a xlink:title=" ">
<path fill="none" stroke="#63b8ff" d="M370.12,-164.75C374.36,-157.49 380.53,-146.95 385.78,-137.98"/>
<polygon fill="#63b8ff" stroke="#63b8ff" points="388.95,-139.49 390.98,-129.09 382.91,-135.95 388.95,-139.49"/>
</a>
</g>
</g>
<!-- Node14 -->
<g id="Node000014" class="node">
<title>Node14</title>
<g id="a_Node000014"><a xlink:title=" ">
<polygon fill="#e0e0e0" stroke="#999999" points="502,-129 442,-129 442,-110 502,-110 502,-129"/>
<text text-anchor="middle" x="472" y="-117" font-family="Helvetica,sans-Serif" font-size="10.00">iostream</text>
</a>
</g>
</g>
<!-- Node12&#45;&gt;Node14 -->
<g id="edge15_Node000012_Node000014" class="edge">
<title>Node12&#45;&gt;Node14</title>
<g id="a_edge15_Node000012_Node000014"><a xlink:title=" ">
<path fill="none" stroke="#63b8ff" d="M382.19,-164.98C399.25,-156.54 425.63,-143.47 445.4,-133.68"/>
<polygon fill="#63b8ff" stroke="#63b8ff" points="447.09,-136.75 454.5,-129.17 443.98,-130.47 447.09,-136.75"/>
</a>
</g>
</g>
</g>
</svg>
