<?xml version="1.0" encoding="UTF-8" standalone="no"?>
<!DOCTYPE svg PUBLIC "-//W3C//DTD SVG 1.1//EN"
 "http://www.w3.org/Graphics/SVG/1.1/DTD/svg11.dtd">
<!-- Generated by graphviz version 2.43.0 (0)
 -->
<!-- Title: Cpl/Text/Frame/StringDecoder.h Pages: 1 -->
<svg width="484pt" height="247pt"
 viewBox="0.00 0.00 484.00 247.00" xmlns="http://www.w3.org/2000/svg" xmlns:xlink="http://www.w3.org/1999/xlink">
<g id="graph0" class="graph" transform="scale(1 1) rotate(0) translate(4 243)">
<title>Cpl/Text/Frame/StringDecoder.h</title>
<!-- Node1 -->
<g id="Node000001" class="node">
<title>Node1</title>
<g id="a_Node000001"><a xlink:title=" ">
<polygon fill="#999999" stroke="#666666" points="258.5,-239 88.5,-239 88.5,-220 258.5,-220 258.5,-239"/>
<text text-anchor="middle" x="173.5" y="-227" font-family="Helvetica,sans-Serif" font-size="10.00">Cpl/Text/Frame/StringDecoder.h</text>
</a>
</g>
</g>
<!-- Node2 -->
<g id="Node000002" class="node">
<title>Node2</title>
<g id="a_Node000002"><a xlink:href="_decoder___8h.html" target="_top" xlink:title=" ">
<polygon fill="white" stroke="#666666" points="177,-184 30,-184 30,-165 177,-165 177,-184"/>
<text text-anchor="middle" x="103.5" y="-172" font-family="Helvetica,sans-Serif" font-size="10.00">Cpl/Text/Frame/Decoder_.h</text>
</a>
</g>
</g>
<!-- Node1&#45;&gt;Node2 -->
<g id="edge1_Node000001_Node000002" class="edge">
<title>Node1&#45;&gt;Node2</title>
<g id="a_edge1_Node000001_Node000002"><a xlink:title=" ">
<path fill="none" stroke="#63b8ff" d="M162.25,-219.98C151.7,-212 135.7,-199.88 123.06,-190.31"/>
<polygon fill="#63b8ff" stroke="#63b8ff" points="125.04,-187.42 114.95,-184.17 120.81,-193 125.04,-187.42"/>
</a>
</g>
</g>
<!-- Node5 -->
<g id="Node000005" class="node">
<title>Node5</title>
<g id="a_Node000005"><a xlink:href="_text_2_string_8h.html" target="_top" xlink:title=" ">
<polygon fill="white" stroke="#666666" points="312.5,-184 216.5,-184 216.5,-165 312.5,-165 312.5,-184"/>
<text text-anchor="middle" x="264.5" y="-172" font-family="Helvetica,sans-Serif" font-size="10.00">Cpl/Text/String.h</text>
</a>
</g>
</g>
<!-- Node1&#45;&gt;Node5 -->
<g id="edge4_Node000001_Node000005" class="edge">
<title>Node1&#45;&gt;Node5</title>
<g id="a_edge4_Node000001_Node000005"><a xlink:title=" ">
<path fill="none" stroke="#63b8ff" d="M188.12,-219.98C202.36,-211.69 224.25,-198.94 240.95,-189.22"/>
<polygon fill="#63b8ff" stroke="#63b8ff" points="242.73,-192.23 249.61,-184.17 239.21,-186.18 242.73,-192.23"/>
</a>
</g>
</g>
<!-- Node3 -->
<g id="Node000003" class="node">
<title>Node3</title>
<g id="a_Node000003"><a xlink:href="_decoder_8h.html" target="_top" xlink:title=" ">
<polygon fill="white" stroke="#666666" points="141,-129 0,-129 0,-110 141,-110 141,-129"/>
<text text-anchor="middle" x="70.5" y="-117" font-family="Helvetica,sans-Serif" font-size="10.00">Cpl/Text/Frame/Decoder.h</text>
</a>
</g>
</g>
<!-- Node2&#45;&gt;Node3 -->
<g id="edge2_Node000002_Node000003" class="edge">
<title>Node2&#45;&gt;Node3</title>
<g id="a_edge2_Node000002_Node000003"><a xlink:title=" ">
<path fill="none" stroke="#63b8ff" d="M98.05,-164.75C93.49,-157.42 86.83,-146.73 81.21,-137.7"/>
<polygon fill="#63b8ff" stroke="#63b8ff" points="84.1,-135.73 75.85,-129.09 78.16,-139.43 84.1,-135.73"/>
</a>
</g>
</g>
<!-- Node4 -->
<g id="Node000004" class="node">
<title>Node4</title>
<g id="a_Node000004"><a xlink:title=" ">
<polygon fill="#e0e0e0" stroke="#999999" points="82,-74 29,-74 29,-55 82,-55 82,-74"/>
<text text-anchor="middle" x="55.5" y="-62" font-family="Helvetica,sans-Serif" font-size="10.00">stdlib.h</text>
</a>
</g>
</g>
<!-- Node3&#45;&gt;Node4 -->
<g id="edge3_Node000003_Node000004" class="edge">
<title>Node3&#45;&gt;Node4</title>
<g id="a_edge3_Node000003_Node000004"><a xlink:title=" ">
<path fill="none" stroke="#63b8ff" d="M68.02,-109.75C66.04,-102.72 63.18,-92.62 60.69,-83.84"/>
<polygon fill="#63b8ff" stroke="#63b8ff" points="64.02,-82.76 57.93,-74.09 57.29,-84.66 64.02,-82.76"/>
</a>
</g>
</g>
<!-- Node6 -->
<g id="Node000006" class="node">
<title>Node6</title>
<g id="a_Node000006"><a xlink:title=" ">
<polygon fill="#e0e0e0" stroke="#999999" points="185,-74 100,-74 100,-55 185,-55 185,-74"/>
<text text-anchor="middle" x="142.5" y="-62" font-family="Helvetica,sans-Serif" font-size="10.00">colony_map.h</text>
</a>
</g>
</g>
<!-- Node5&#45;&gt;Node6 -->
<g id="edge5_Node000005_Node000006" class="edge">
<title>Node5&#45;&gt;Node6</title>
<g id="a_edge5_Node000005_Node000006"><a xlink:title=" ">
<path fill="none" stroke="#63b8ff" d="M250.36,-164.96C236.94,-156.56 216.49,-143 200.5,-129 183.91,-114.48 167.16,-95.58 155.96,-82.19"/>
<polygon fill="#63b8ff" stroke="#63b8ff" points="158.51,-79.78 149.45,-74.29 153.11,-84.23 158.51,-79.78"/>
</a>
</g>
</g>
<!-- Node7 -->
<g id="Node000007" class="node">
<title>Node7</title>
<g id="a_Node000007"><a xlink:href="_key_8h.html" target="_top" xlink:title=" ">
<polygon fill="white" stroke="#666666" points="320,-129 209,-129 209,-110 320,-110 320,-129"/>
<text text-anchor="middle" x="264.5" y="-117" font-family="Helvetica,sans-Serif" font-size="10.00">Cpl/Container/Key.h</text>
</a>
</g>
</g>
<!-- Node5&#45;&gt;Node7 -->
<g id="edge6_Node000005_Node000007" class="edge">
<title>Node5&#45;&gt;Node7</title>
<g id="a_edge6_Node000005_Node000007"><a xlink:title=" ">
<path fill="none" stroke="#63b8ff" d="M264.5,-164.75C264.5,-157.8 264.5,-147.85 264.5,-139.13"/>
<polygon fill="#63b8ff" stroke="#63b8ff" points="268,-139.09 264.5,-129.09 261,-139.09 268,-139.09"/>
</a>
</g>
</g>
<!-- Node13 -->
<g id="Node000013" class="node">
<title>Node13</title>
<g id="a_Node000013"><a xlink:title=" ">
<polygon fill="#e0e0e0" stroke="#999999" points="394.5,-129 338.5,-129 338.5,-110 394.5,-110 394.5,-129"/>
<text text-anchor="middle" x="366.5" y="-117" font-family="Helvetica,sans-Serif" font-size="10.00">stdarg.h</text>
</a>
</g>
</g>
<!-- Node5&#45;&gt;Node13 -->
<g id="edge13_Node000005_Node000013" class="edge">
<title>Node5&#45;&gt;Node13</title>
<g id="a_edge13_Node000005_Node000013"><a xlink:title=" ">
<path fill="none" stroke="#63b8ff" d="M280.89,-164.98C297.07,-156.57 322.07,-143.59 340.88,-133.81"/>
<polygon fill="#63b8ff" stroke="#63b8ff" points="342.55,-136.89 349.81,-129.17 339.33,-130.68 342.55,-136.89"/>
</a>
</g>
</g>
<!-- Node14 -->
<g id="Node000014" class="node">
<title>Node14</title>
<g id="a_Node000014"><a xlink:title=" ">
<polygon fill="#e0e0e0" stroke="#999999" points="472.5,-129 412.5,-129 412.5,-110 472.5,-110 472.5,-129"/>
<text text-anchor="middle" x="442.5" y="-117" font-family="Helvetica,sans-Serif" font-size="10.00">iostream</text>
</a>
</g>
</g>
<!-- Node5&#45;&gt;Node14 -->
<g id="edge14_Node000005_Node000014" class="edge">
<title>Node5&#45;&gt;Node14</title>
<g id="a_edge14_Node000005_Node000014"><a xlink:title=" ">
<path fill="none" stroke="#63b8ff" d="M293.1,-164.98C323.11,-156.05 370.48,-141.94 403.82,-132.02"/>
<polygon fill="#63b8ff" stroke="#63b8ff" points="405.09,-135.29 413.68,-129.08 403.09,-128.58 405.09,-135.29"/>
</a>
</g>
</g>
<!-- Node7&#45;&gt;Node6 -->
<g id="edge12_Node000007_Node000006" class="edge">
<title>Node7&#45;&gt;Node6</title>
<g id="a_edge12_Node000007_Node000006"><a xlink:title=" ">
<path fill="none" stroke="#63b8ff" d="M244.9,-109.98C225.18,-101.42 194.55,-88.11 171.92,-78.28"/>
<polygon fill="#63b8ff" stroke="#63b8ff" points="173.02,-74.94 162.46,-74.17 170.24,-81.37 173.02,-74.94"/>
</a>
</g>
</g>
<!-- Node8 -->
<g id="Node000008" class="node">
<title>Node8</title>
<g id="a_Node000008"><a xlink:href="_fatal_error_8h.html" target="_top" xlink:title=" ">
<polygon fill="white" stroke="#666666" points="333.5,-74 203.5,-74 203.5,-55 333.5,-55 333.5,-74"/>
<text text-anchor="middle" x="268.5" y="-62" font-family="Helvetica,sans-Serif" font-size="10.00">Cpl/System/FatalError.h</text>
</a>
</g>
</g>
<!-- Node7&#45;&gt;Node8 -->
<g id="edge7_Node000007_Node000008" class="edge">
<title>Node7&#45;&gt;Node8</title>
<g id="a_edge7_Node000007_Node000008"><a xlink:title=" ">
<path fill="none" stroke="#63b8ff" d="M265.16,-109.75C265.68,-102.8 266.44,-92.85 267.09,-84.13"/>
<polygon fill="#63b8ff" stroke="#63b8ff" points="270.59,-84.32 267.85,-74.09 263.61,-83.8 270.59,-84.32"/>
</a>
</g>
</g>
<!-- Node11 -->
<g id="Node000011" class="node">
<title>Node11</title>
<g id="a_Node000011"><a xlink:title=" ">
<polygon fill="#e0e0e0" stroke="#999999" points="405,-74 352,-74 352,-55 405,-55 405,-74"/>
<text text-anchor="middle" x="378.5" y="-62" font-family="Helvetica,sans-Serif" font-size="10.00">stdint.h</text>
</a>
</g>
</g>
<!-- Node7&#45;&gt;Node11 -->
<g id="edge10_Node000007_Node000011" class="edge">
<title>Node7&#45;&gt;Node11</title>
<g id="a_edge10_Node000007_Node000011"><a xlink:title=" ">
<path fill="none" stroke="#63b8ff" d="M282.82,-109.98C301.16,-101.46 329.61,-88.23 350.73,-78.41"/>
<polygon fill="#63b8ff" stroke="#63b8ff" points="352.26,-81.56 359.85,-74.17 349.31,-75.21 352.26,-81.56"/>
</a>
</g>
</g>
<!-- Node12 -->
<g id="Node000012" class="node">
<title>Node12</title>
<g id="a_Node000012"><a xlink:title=" ">
<polygon fill="#e0e0e0" stroke="#999999" points="476,-74 423,-74 423,-55 476,-55 476,-74"/>
<text text-anchor="middle" x="449.5" y="-62" font-family="Helvetica,sans-Serif" font-size="10.00">string.h</text>
</a>
</g>
</g>
<!-- Node7&#45;&gt;Node12 -->
<g id="edge11_Node000007_Node000012" class="edge">
<title>Node7&#45;&gt;Node12</title>
<g id="a_edge11_Node000007_Node000012"><a xlink:title=" ">
<path fill="none" stroke="#63b8ff" d="M294.22,-109.98C326.57,-100.72 378.32,-85.89 413.09,-75.93"/>
<polygon fill="#63b8ff" stroke="#63b8ff" points="414.2,-79.25 422.85,-73.13 412.28,-72.52 414.2,-79.25"/>
</a>
</g>
</g>
<!-- Node9 -->
<g id="Node000009" class="node">
<title>Node9</title>
<g id="a_Node000009"><a xlink:title=" ">
<polygon fill="#e0e0e0" stroke="#999999" points="250.5,-19 194.5,-19 194.5,0 250.5,0 250.5,-19"/>
<text text-anchor="middle" x="222.5" y="-7" font-family="Helvetica,sans-Serif" font-size="10.00">stddef.h</text>
</a>
</g>
</g>
<!-- Node8&#45;&gt;Node9 -->
<g id="edge8_Node000008_Node000009" class="edge">
<title>Node8&#45;&gt;Node9</title>
<g id="a_edge8_Node000008_Node000009"><a xlink:title=" ">
<path fill="none" stroke="#63b8ff" d="M260.9,-54.75C254.34,-47.18 244.68,-36.05 236.69,-26.84"/>
<polygon fill="#63b8ff" stroke="#63b8ff" points="239.15,-24.35 229.95,-19.09 233.87,-28.94 239.15,-24.35"/>
</a>
</g>
</g>
<!-- Node10 -->
<g id="Node000010" class="node">
<title>Node10</title>
<g id="a_Node000010"><a xlink:title=" ">
<polygon fill="#e0e0e0" stroke="#999999" points="360.5,-19 268.5,-19 268.5,0 360.5,0 360.5,-19"/>
<text text-anchor="middle" x="314.5" y="-7" font-family="Helvetica,sans-Serif" font-size="10.00">colony_config.h</text>
</a>
</g>
</g>
<!-- Node8&#45;&gt;Node10 -->
<g id="edge9_Node000008_Node000010" class="edge">
<title>Node8&#45;&gt;Node10</title>
<g id="a_edge9_Node000008_Node000010"><a xlink:title=" ">
<path fill="none" stroke="#63b8ff" d="M276.1,-54.75C282.66,-47.18 292.32,-36.05 300.31,-26.84"/>
<polygon fill="#63b8ff" stroke="#63b8ff" points="303.13,-28.94 307.05,-19.09 297.85,-24.35 303.13,-28.94"/>
</a>
</g>
</g>
</g>
</svg>
