<?xml version="1.0" encoding="UTF-8" standalone="no"?>
<!DOCTYPE svg PUBLIC "-//W3C//DTD SVG 1.1//EN"
 "http://www.w3.org/Graphics/SVG/1.1/DTD/svg11.dtd">
<!-- Generated by graphviz version 2.43.0 (0)
 -->
<!-- Title: Cpl/Dm/SubscriberComposer.h Pages: 1 -->
<svg width="1919pt" height="357pt"
 viewBox="0.00 0.00 1919.00 357.00" xmlns="http://www.w3.org/2000/svg" xmlns:xlink="http://www.w3.org/1999/xlink">
<g id="graph0" class="graph" transform="scale(1 1) rotate(0) translate(4 353)">
<title>Cpl/Dm/SubscriberComposer.h</title>
<!-- Node1 -->
<g id="Node000001" class="node">
<title>Node1</title>
<g id="a_Node000001"><a xlink:title=" ">
<polygon fill="#999999" stroke="#666666" points="1313.5,-349 1149.5,-349 1149.5,-330 1313.5,-330 1313.5,-349"/>
<text text-anchor="middle" x="1231.5" y="-337" font-family="Helvetica,sans-Serif" font-size="10.00">Cpl/Dm/SubscriberComposer.h</text>
</a>
</g>
</g>
<!-- Node2 -->
<g id="Node000002" class="node">
<title>Node2</title>
<g id="a_Node000002"><a xlink:href="_subscriber_8h.html" target="_top" xlink:title=" ">
<polygon fill="white" stroke="#666666" points="1289,-294 1174,-294 1174,-275 1289,-275 1289,-294"/>
<text text-anchor="middle" x="1231.5" y="-282" font-family="Helvetica,sans-Serif" font-size="10.00">Cpl/Dm/Subscriber.h</text>
</a>
</g>
</g>
<!-- Node1&#45;&gt;Node2 -->
<g id="edge1_Node000001_Node000002" class="edge">
<title>Node1&#45;&gt;Node2</title>
<g id="a_edge1_Node000001_Node000002"><a xlink:title=" ">
<path fill="none" stroke="#63b8ff" d="M1231.5,-329.75C1231.5,-322.8 1231.5,-312.85 1231.5,-304.13"/>
<polygon fill="#63b8ff" stroke="#63b8ff" points="1235,-304.09 1231.5,-294.09 1228,-304.09 1235,-304.09"/>
</a>
</g>
</g>
<!-- Node3 -->
<g id="Node000003" class="node">
<title>Node3</title>
<g id="a_Node000003"><a xlink:href="_subscriber_api_8h.html" target="_top" xlink:title=" ">
<polygon fill="white" stroke="#666666" points="1203,-129 1072,-129 1072,-110 1203,-110 1203,-129"/>
<text text-anchor="middle" x="1137.5" y="-117" font-family="Helvetica,sans-Serif" font-size="10.00">Cpl/Dm/SubscriberApi.h</text>
</a>
</g>
</g>
<!-- Node2&#45;&gt;Node3 -->
<g id="edge2_Node000002_Node000003" class="edge">
<title>Node2&#45;&gt;Node3</title>
<g id="a_edge2_Node000002_Node000003"><a xlink:title=" ">
<path fill="none" stroke="#63b8ff" d="M1226.45,-274.74C1211.59,-248.98 1167.85,-173.13 1147.78,-138.33"/>
<polygon fill="#63b8ff" stroke="#63b8ff" points="1150.61,-136.22 1142.58,-129.31 1144.54,-139.72 1150.61,-136.22"/>
</a>
</g>
</g>
<!-- Node5 -->
<g id="Node000005" class="node">
<title>Node5</title>
<g id="a_Node000005"><a xlink:title=" ">
<polygon fill="#e0e0e0" stroke="#999999" points="1334,-19 1281,-19 1281,0 1334,0 1334,-19"/>
<text text-anchor="middle" x="1307.5" y="-7" font-family="Helvetica,sans-Serif" font-size="10.00">stdint.h</text>
</a>
</g>
</g>
<!-- Node2&#45;&gt;Node5 -->
<g id="edge50_Node000002_Node000005" class="edge">
<title>Node2&#45;&gt;Node5</title>
<g id="a_edge50_Node000002_Node000005"><a xlink:title=" ">
<path fill="none" stroke="#63b8ff" d="M1243.38,-274.88C1264.75,-258.26 1307.5,-219.52 1307.5,-175.5 1307.5,-175.5 1307.5,-175.5 1307.5,-118.5 1307.5,-87.19 1307.5,-50.77 1307.5,-29.23"/>
<polygon fill="#63b8ff" stroke="#63b8ff" points="1311,-29.18 1307.5,-19.18 1304,-29.18 1311,-29.18"/>
</a>
</g>
</g>
<!-- Node6 -->
<g id="Node000006" class="node">
<title>Node6</title>
<g id="a_Node000006"><a xlink:href="_model_point_8h.html" target="_top" xlink:title=" ">
<polygon fill="white" stroke="#666666" points="1472,-239 1353,-239 1353,-220 1472,-220 1472,-239"/>
<text text-anchor="middle" x="1412.5" y="-227" font-family="Helvetica,sans-Serif" font-size="10.00">Cpl/Dm/ModelPoint.h</text>
</a>
</g>
</g>
<!-- Node2&#45;&gt;Node6 -->
<g id="edge5_Node000002_Node000006" class="edge">
<title>Node2&#45;&gt;Node6</title>
<g id="a_edge5_Node000002_Node000006"><a xlink:title=" ">
<path fill="none" stroke="#63b8ff" d="M1260.58,-274.98C1291.1,-266.05 1339.26,-251.94 1373.16,-242.02"/>
<polygon fill="#63b8ff" stroke="#63b8ff" points="1374.58,-245.25 1383.19,-239.08 1372.61,-238.53 1374.58,-245.25"/>
</a>
</g>
</g>
<!-- Node17 -->
<g id="Node000017" class="node">
<title>Node17</title>
<g id="a_Node000017"><a xlink:href="_dm_2_event_loop_8h.html" target="_top" xlink:title=" ">
<polygon fill="white" stroke="#666666" points="1002.5,-239 886.5,-239 886.5,-220 1002.5,-220 1002.5,-239"/>
<text text-anchor="middle" x="944.5" y="-227" font-family="Helvetica,sans-Serif" font-size="10.00">Cpl/Dm/EventLoop.h</text>
</a>
</g>
</g>
<!-- Node2&#45;&gt;Node17 -->
<g id="edge23_Node000002_Node000017" class="edge">
<title>Node2&#45;&gt;Node17</title>
<g id="a_edge23_Node000002_Node000017"><a xlink:title=" ">
<path fill="none" stroke="#63b8ff" d="M1185.39,-274.98C1135.22,-265.72 1054.99,-250.9 1001.06,-240.94"/>
<polygon fill="#63b8ff" stroke="#63b8ff" points="1001.44,-237.46 990.97,-239.08 1000.17,-244.34 1001.44,-237.46"/>
</a>
</g>
</g>
<!-- Node4 -->
<g id="Node000004" class="node">
<title>Node4</title>
<g id="a_Node000004"><a xlink:href="_item_8h.html" target="_top" xlink:title=" ">
<polygon fill="white" stroke="#666666" points="946,-19 829,-19 829,0 946,0 946,-19"/>
<text text-anchor="middle" x="887.5" y="-7" font-family="Helvetica,sans-Serif" font-size="10.00">Cpl/Container/Item.h</text>
</a>
</g>
</g>
<!-- Node3&#45;&gt;Node4 -->
<g id="edge3_Node000003_Node000004" class="edge">
<title>Node3&#45;&gt;Node4</title>
<g id="a_edge3_Node000003_Node000004"><a xlink:title=" ">
<path fill="none" stroke="#63b8ff" d="M1117.46,-109.84C1073.38,-90.8 967.82,-45.2 916.5,-23.03"/>
<polygon fill="#63b8ff" stroke="#63b8ff" points="917.85,-19.8 907.28,-19.05 915.08,-26.23 917.85,-19.8"/>
</a>
</g>
</g>
<!-- Node3&#45;&gt;Node5 -->
<g id="edge4_Node000003_Node000005" class="edge">
<title>Node3&#45;&gt;Node5</title>
<g id="a_edge4_Node000003_Node000005"><a xlink:title=" ">
<path fill="none" stroke="#63b8ff" d="M1128.4,-109.94C1115.73,-96.99 1095.8,-72.12 1109.5,-55 1129.32,-30.23 1219.24,-18.29 1270.83,-13.38"/>
<polygon fill="#63b8ff" stroke="#63b8ff" points="1271.26,-16.86 1280.91,-12.47 1270.63,-9.89 1271.26,-16.86"/>
</a>
</g>
</g>
<!-- Node6&#45;&gt;Node3 -->
<g id="edge19_Node000006_Node000003" class="edge">
<title>Node6&#45;&gt;Node3</title>
<g id="a_edge19_Node000006_Node000003"><a xlink:title=" ">
<path fill="none" stroke="#63b8ff" d="M1352.63,-221.87C1312.83,-215.81 1260.23,-204.52 1217.5,-184 1192.68,-172.08 1168.54,-151.27 1153.39,-136.73"/>
<polygon fill="#63b8ff" stroke="#63b8ff" points="1155.52,-133.92 1145.95,-129.39 1150.61,-138.9 1155.52,-133.92"/>
</a>
</g>
</g>
<!-- Node6&#45;&gt;Node4 -->
<g id="edge7_Node000006_Node000004" class="edge">
<title>Node6&#45;&gt;Node4</title>
<g id="a_edge7_Node000006_Node000004"><a xlink:title=" ">
<path fill="none" stroke="#63b8ff" d="M1401.88,-219.7C1391.14,-210.77 1374.09,-196.52 1359.5,-184 1293.54,-127.38 1291.58,-91.09 1212.5,-55 1168.16,-34.76 1037.8,-21.69 956.29,-15.25"/>
<polygon fill="#63b8ff" stroke="#63b8ff" points="956.35,-11.75 946.11,-14.46 955.81,-18.73 956.35,-11.75"/>
</a>
</g>
</g>
<!-- Node6&#45;&gt;Node5 -->
<g id="edge22_Node000006_Node000005" class="edge">
<title>Node6&#45;&gt;Node5</title>
<g id="a_edge22_Node000006_Node000005"><a xlink:title=" ">
<path fill="none" stroke="#63b8ff" d="M1402.81,-219.78C1393.92,-211.35 1380.91,-197.85 1372.5,-184 1356.02,-156.84 1326.28,-68.32 1313.55,-29.28"/>
<polygon fill="#63b8ff" stroke="#63b8ff" points="1316.72,-27.71 1310.31,-19.28 1310.06,-29.87 1316.72,-27.71"/>
</a>
</g>
</g>
<!-- Node7 -->
<g id="Node000007" class="node">
<title>Node7</title>
<g id="a_Node000007"><a xlink:title=" ">
<polygon fill="#e0e0e0" stroke="#999999" points="1637.5,-19 1545.5,-19 1545.5,0 1637.5,0 1637.5,-19"/>
<text text-anchor="middle" x="1591.5" y="-7" font-family="Helvetica,sans-Serif" font-size="10.00">colony_config.h</text>
</a>
</g>
</g>
<!-- Node6&#45;&gt;Node7 -->
<g id="edge6_Node000006_Node000007" class="edge">
<title>Node6&#45;&gt;Node7</title>
<g id="a_edge6_Node000006_Node000007"><a xlink:title=" ">
<path fill="none" stroke="#63b8ff" d="M1472.2,-221.5C1527.9,-211.44 1608.02,-187.17 1646.5,-129 1662.62,-104.63 1625.47,-99.09 1610.5,-74 1602.21,-60.1 1597.29,-42.31 1594.55,-29.1"/>
<polygon fill="#63b8ff" stroke="#63b8ff" points="1597.99,-28.46 1592.72,-19.26 1591.1,-29.73 1597.99,-28.46"/>
</a>
</g>
</g>
<!-- Node8 -->
<g id="Node000008" class="node">
<title>Node8</title>
<g id="a_Node000008"><a xlink:href="_text_2_string_8h.html" target="_top" xlink:title=" ">
<polygon fill="white" stroke="#666666" points="1477.5,-184 1381.5,-184 1381.5,-165 1477.5,-165 1477.5,-184"/>
<text text-anchor="middle" x="1429.5" y="-172" font-family="Helvetica,sans-Serif" font-size="10.00">Cpl/Text/String.h</text>
</a>
</g>
</g>
<!-- Node6&#45;&gt;Node8 -->
<g id="edge8_Node000006_Node000008" class="edge">
<title>Node6&#45;&gt;Node8</title>
<g id="a_edge8_Node000006_Node000008"><a xlink:title=" ">
<path fill="none" stroke="#63b8ff" d="M1415.31,-219.75C1417.56,-212.72 1420.8,-202.62 1423.62,-193.84"/>
<polygon fill="#63b8ff" stroke="#63b8ff" points="1427.02,-194.68 1426.75,-184.09 1420.36,-192.54 1427.02,-194.68"/>
</a>
</g>
</g>
<!-- Node12 -->
<g id="Node000012" class="node">
<title>Node12</title>
<g id="a_Node000012"><a xlink:title=" ">
<polygon fill="#e0e0e0" stroke="#999999" points="1758.5,-19 1702.5,-19 1702.5,0 1758.5,0 1758.5,-19"/>
<text text-anchor="middle" x="1730.5" y="-7" font-family="Helvetica,sans-Serif" font-size="10.00">stddef.h</text>
</a>
</g>
</g>
<!-- Node6&#45;&gt;Node12 -->
<g id="edge21_Node000006_Node000012" class="edge">
<title>Node6&#45;&gt;Node12</title>
<g id="a_edge21_Node000006_Node000012"><a xlink:title=" ">
<path fill="none" stroke="#63b8ff" d="M1472.07,-221.87C1512.76,-215.76 1567.12,-204.42 1611.5,-184 1685.63,-149.89 1721.97,-146.97 1758.5,-74 1766.38,-58.27 1756.16,-39.82 1745.93,-26.88"/>
<polygon fill="#63b8ff" stroke="#63b8ff" points="1748.55,-24.57 1739.39,-19.25 1743.24,-29.12 1748.55,-24.57"/>
</a>
</g>
</g>
<!-- Node16 -->
<g id="Node000016" class="node">
<title>Node16</title>
<g id="a_Node000016"><a xlink:href="_arduino_8h_source.html" target="_top" xlink:title=" ">
<polygon fill="white" stroke="#666666" points="1911,-184 1806,-184 1806,-165 1911,-165 1911,-184"/>
<text text-anchor="middle" x="1858.5" y="-172" font-family="Helvetica,sans-Serif" font-size="10.00">Cpl/Json/Arduino.h</text>
</a>
</g>
</g>
<!-- Node6&#45;&gt;Node16 -->
<g id="edge20_Node000006_Node000016" class="edge">
<title>Node6&#45;&gt;Node16</title>
<g id="a_edge20_Node000006_Node000016"><a xlink:title=" ">
<path fill="none" stroke="#63b8ff" d="M1472.26,-221.66C1546.95,-213.06 1678.72,-197.77 1791.5,-184 1792.95,-183.82 1794.43,-183.64 1795.91,-183.46"/>
<polygon fill="#63b8ff" stroke="#63b8ff" points="1796.35,-186.93 1805.84,-182.23 1795.48,-179.99 1796.35,-186.93"/>
</a>
</g>
</g>
<!-- Node9 -->
<g id="Node000009" class="node">
<title>Node9</title>
<g id="a_Node000009"><a xlink:title=" ">
<polygon fill="#e0e0e0" stroke="#999999" points="1203,-74 1118,-74 1118,-55 1203,-55 1203,-74"/>
<text text-anchor="middle" x="1160.5" y="-62" font-family="Helvetica,sans-Serif" font-size="10.00">colony_map.h</text>
</a>
</g>
</g>
<!-- Node8&#45;&gt;Node9 -->
<g id="edge9_Node000008_Node000009" class="edge">
<title>Node8&#45;&gt;Node9</title>
<g id="a_edge9_Node000008_Node000009"><a xlink:title=" ">
<path fill="none" stroke="#63b8ff" d="M1407.94,-164.84C1360.41,-145.76 1246.45,-100.01 1191.36,-77.89"/>
<polygon fill="#63b8ff" stroke="#63b8ff" points="1192.37,-74.52 1181.79,-74.05 1189.76,-81.02 1192.37,-74.52"/>
</a>
</g>
</g>
<!-- Node10 -->
<g id="Node000010" class="node">
<title>Node10</title>
<g id="a_Node000010"><a xlink:href="_key_8h.html" target="_top" xlink:title=" ">
<polygon fill="white" stroke="#666666" points="1485,-129 1374,-129 1374,-110 1485,-110 1485,-129"/>
<text text-anchor="middle" x="1429.5" y="-117" font-family="Helvetica,sans-Serif" font-size="10.00">Cpl/Container/Key.h</text>
</a>
</g>
</g>
<!-- Node8&#45;&gt;Node10 -->
<g id="edge10_Node000008_Node000010" class="edge">
<title>Node8&#45;&gt;Node10</title>
<g id="a_edge10_Node000008_Node000010"><a xlink:title=" ">
<path fill="none" stroke="#63b8ff" d="M1429.5,-164.75C1429.5,-157.8 1429.5,-147.85 1429.5,-139.13"/>
<polygon fill="#63b8ff" stroke="#63b8ff" points="1433,-139.09 1429.5,-129.09 1426,-139.09 1433,-139.09"/>
</a>
</g>
</g>
<!-- Node14 -->
<g id="Node000014" class="node">
<title>Node14</title>
<g id="a_Node000014"><a xlink:title=" ">
<polygon fill="#e0e0e0" stroke="#999999" points="1559.5,-129 1503.5,-129 1503.5,-110 1559.5,-110 1559.5,-129"/>
<text text-anchor="middle" x="1531.5" y="-117" font-family="Helvetica,sans-Serif" font-size="10.00">stdarg.h</text>
</a>
</g>
</g>
<!-- Node8&#45;&gt;Node14 -->
<g id="edge17_Node000008_Node000014" class="edge">
<title>Node8&#45;&gt;Node14</title>
<g id="a_edge17_Node000008_Node000014"><a xlink:title=" ">
<path fill="none" stroke="#63b8ff" d="M1445.89,-164.98C1462.07,-156.57 1487.07,-143.59 1505.88,-133.81"/>
<polygon fill="#63b8ff" stroke="#63b8ff" points="1507.55,-136.89 1514.81,-129.17 1504.33,-130.68 1507.55,-136.89"/>
</a>
</g>
</g>
<!-- Node15 -->
<g id="Node000015" class="node">
<title>Node15</title>
<g id="a_Node000015"><a xlink:title=" ">
<polygon fill="#e0e0e0" stroke="#999999" points="1637.5,-129 1577.5,-129 1577.5,-110 1637.5,-110 1637.5,-129"/>
<text text-anchor="middle" x="1607.5" y="-117" font-family="Helvetica,sans-Serif" font-size="10.00">iostream</text>
</a>
</g>
</g>
<!-- Node8&#45;&gt;Node15 -->
<g id="edge18_Node000008_Node000015" class="edge">
<title>Node8&#45;&gt;Node15</title>
<g id="a_edge18_Node000008_Node000015"><a xlink:title=" ">
<path fill="none" stroke="#63b8ff" d="M1458.1,-164.98C1488.11,-156.05 1535.48,-141.94 1568.82,-132.02"/>
<polygon fill="#63b8ff" stroke="#63b8ff" points="1570.09,-135.29 1578.68,-129.08 1568.09,-128.58 1570.09,-135.29"/>
</a>
</g>
</g>
<!-- Node10&#45;&gt;Node5 -->
<g id="edge14_Node000010_Node000005" class="edge">
<title>Node10&#45;&gt;Node5</title>
<g id="a_edge14_Node000010_Node000005"><a xlink:title=" ">
<path fill="none" stroke="#63b8ff" d="M1420.07,-109.78C1406.7,-97.47 1381.41,-74.31 1359.5,-55 1348.36,-45.18 1335.7,-34.34 1325.66,-25.82"/>
<polygon fill="#63b8ff" stroke="#63b8ff" points="1327.83,-23.07 1317.94,-19.28 1323.31,-28.41 1327.83,-23.07"/>
</a>
</g>
</g>
<!-- Node10&#45;&gt;Node9 -->
<g id="edge16_Node000010_Node000009" class="edge">
<title>Node10&#45;&gt;Node9</title>
<g id="a_edge16_Node000010_Node000009"><a xlink:title=" ">
<path fill="none" stroke="#63b8ff" d="M1386.28,-109.98C1339.18,-100.7 1263.8,-85.85 1213.25,-75.89"/>
<polygon fill="#63b8ff" stroke="#63b8ff" points="1213.66,-72.41 1203.17,-73.91 1212.3,-79.27 1213.66,-72.41"/>
</a>
</g>
</g>
<!-- Node11 -->
<g id="Node000011" class="node">
<title>Node11</title>
<g id="a_Node000011"><a xlink:href="_fatal_error_8h.html" target="_top" xlink:title=" ">
<polygon fill="white" stroke="#666666" points="1749.5,-74 1619.5,-74 1619.5,-55 1749.5,-55 1749.5,-74"/>
<text text-anchor="middle" x="1684.5" y="-62" font-family="Helvetica,sans-Serif" font-size="10.00">Cpl/System/FatalError.h</text>
</a>
</g>
</g>
<!-- Node10&#45;&gt;Node11 -->
<g id="edge11_Node000010_Node000011" class="edge">
<title>Node10&#45;&gt;Node11</title>
<g id="a_edge11_Node000010_Node000011"><a xlink:title=" ">
<path fill="none" stroke="#63b8ff" d="M1470.47,-109.98C1514.76,-100.78 1585.44,-86.09 1633.35,-76.13"/>
<polygon fill="#63b8ff" stroke="#63b8ff" points="1634.13,-79.54 1643.21,-74.08 1632.71,-72.69 1634.13,-79.54"/>
</a>
</g>
</g>
<!-- Node13 -->
<g id="Node000013" class="node">
<title>Node13</title>
<g id="a_Node000013"><a xlink:title=" ">
<polygon fill="#e0e0e0" stroke="#999999" points="1465,-74 1412,-74 1412,-55 1465,-55 1465,-74"/>
<text text-anchor="middle" x="1438.5" y="-62" font-family="Helvetica,sans-Serif" font-size="10.00">string.h</text>
</a>
</g>
</g>
<!-- Node10&#45;&gt;Node13 -->
<g id="edge15_Node000010_Node000013" class="edge">
<title>Node10&#45;&gt;Node13</title>
<g id="a_edge15_Node000010_Node000013"><a xlink:title=" ">
<path fill="none" stroke="#63b8ff" d="M1430.99,-109.75C1432.17,-102.8 1433.86,-92.85 1435.34,-84.13"/>
<polygon fill="#63b8ff" stroke="#63b8ff" points="1438.82,-84.53 1437.04,-74.09 1431.92,-83.36 1438.82,-84.53"/>
</a>
</g>
</g>
<!-- Node11&#45;&gt;Node7 -->
<g id="edge13_Node000011_Node000007" class="edge">
<title>Node11&#45;&gt;Node7</title>
<g id="a_edge13_Node000011_Node000007"><a xlink:title=" ">
<path fill="none" stroke="#63b8ff" d="M1669.56,-54.98C1655,-46.69 1632.63,-33.94 1615.57,-24.22"/>
<polygon fill="#63b8ff" stroke="#63b8ff" points="1617.14,-21.08 1606.71,-19.17 1613.67,-27.16 1617.14,-21.08"/>
</a>
</g>
</g>
<!-- Node11&#45;&gt;Node12 -->
<g id="edge12_Node000011_Node000012" class="edge">
<title>Node11&#45;&gt;Node12</title>
<g id="a_edge12_Node000011_Node000012"><a xlink:title=" ">
<path fill="none" stroke="#63b8ff" d="M1692.1,-54.75C1698.66,-47.18 1708.32,-36.05 1716.31,-26.84"/>
<polygon fill="#63b8ff" stroke="#63b8ff" points="1719.13,-28.94 1723.05,-19.09 1713.85,-24.35 1719.13,-28.94"/>
</a>
</g>
</g>
<!-- Node17&#45;&gt;Node3 -->
<g id="edge47_Node000017_Node000003" class="edge">
<title>Node17&#45;&gt;Node3</title>
<g id="a_edge47_Node000017_Node000003"><a xlink:title=" ">
<path fill="none" stroke="#63b8ff" d="M1002.83,-221.95C1033.75,-216.09 1070.93,-204.99 1098.5,-184 1113.74,-172.4 1124.4,-152.97 1130.68,-138.66"/>
<polygon fill="#63b8ff" stroke="#63b8ff" points="1133.95,-139.9 1134.48,-129.32 1127.46,-137.26 1133.95,-139.9"/>
</a>
</g>
</g>
<!-- Node18 -->
<g id="Node000018" class="node">
<title>Node18</title>
<g id="a_Node000018"><a xlink:href="_system_2_event_loop_8h.html" target="_top" xlink:title=" ">
<polygon fill="white" stroke="#666666" points="525,-184 390,-184 390,-165 525,-165 525,-184"/>
<text text-anchor="middle" x="457.5" y="-172" font-family="Helvetica,sans-Serif" font-size="10.00">Cpl/System/EventLoop.h</text>
</a>
</g>
</g>
<!-- Node17&#45;&gt;Node18 -->
<g id="edge24_Node000017_Node000018" class="edge">
<title>Node17&#45;&gt;Node18</title>
<g id="a_edge24_Node000017_Node000018"><a xlink:title=" ">
<path fill="none" stroke="#63b8ff" d="M886.24,-222.16C798.7,-212.63 633.1,-194.61 535.31,-183.97"/>
<polygon fill="#63b8ff" stroke="#63b8ff" points="535.51,-180.47 525.19,-182.87 534.76,-187.43 535.51,-180.47"/>
</a>
</g>
</g>
<!-- Node26 -->
<g id="Node000026" class="node">
<title>Node26</title>
<g id="a_Node000026"><a xlink:href="_d_list_8h.html" target="_top" xlink:title=" ">
<polygon fill="white" stroke="#666666" points="119,-74 0,-74 0,-55 119,-55 119,-74"/>
<text text-anchor="middle" x="59.5" y="-62" font-family="Helvetica,sans-Serif" font-size="10.00">Cpl/Container/DList.h</text>
</a>
</g>
</g>
<!-- Node17&#45;&gt;Node26 -->
<g id="edge46_Node000017_Node000026" class="edge">
<title>Node17&#45;&gt;Node26</title>
<g id="a_edge46_Node000017_Node000026"><a xlink:title=" ">
<path fill="none" stroke="#63b8ff" d="M886.33,-226.72C693.1,-220.22 81.7,-194.57 25.5,-129 13,-114.42 27.73,-94.48 41.52,-80.86"/>
<polygon fill="#63b8ff" stroke="#63b8ff" points="43.95,-83.38 48.91,-74.02 39.19,-78.25 43.95,-83.38"/>
</a>
</g>
</g>
<!-- Node27 -->
<g id="Node000027" class="node">
<title>Node27</title>
<g id="a_Node000027"><a xlink:href="_thread_8h.html" target="_top" xlink:title=" ">
<polygon fill="white" stroke="#666666" points="929.5,-184 811.5,-184 811.5,-165 929.5,-165 929.5,-184"/>
<text text-anchor="middle" x="870.5" y="-172" font-family="Helvetica,sans-Serif" font-size="10.00">Cpl/System/Thread.h</text>
</a>
</g>
</g>
<!-- Node17&#45;&gt;Node27 -->
<g id="edge40_Node000017_Node000027" class="edge">
<title>Node17&#45;&gt;Node27</title>
<g id="a_edge40_Node000017_Node000027"><a xlink:title=" ">
<path fill="none" stroke="#63b8ff" d="M932.61,-219.98C921.35,-211.92 904.21,-199.65 890.79,-190.03"/>
<polygon fill="#63b8ff" stroke="#63b8ff" points="892.77,-187.15 882.61,-184.17 888.7,-192.84 892.77,-187.15"/>
</a>
</g>
</g>
<!-- Node30 -->
<g id="Node000030" class="node">
<title>Node30</title>
<g id="a_Node000030"><a xlink:href="_notification_api___8h.html" target="_top" xlink:title=" ">
<polygon fill="white" stroke="#666666" points="1089.5,-184 947.5,-184 947.5,-165 1089.5,-165 1089.5,-184"/>
<text text-anchor="middle" x="1018.5" y="-172" font-family="Helvetica,sans-Serif" font-size="10.00">Cpl/Dm/NotificationApi_.h</text>
</a>
</g>
</g>
<!-- Node17&#45;&gt;Node30 -->
<g id="edge48_Node000017_Node000030" class="edge">
<title>Node17&#45;&gt;Node30</title>
<g id="a_edge48_Node000017_Node000030"><a xlink:title=" ">
<path fill="none" stroke="#63b8ff" d="M956.39,-219.98C967.65,-211.92 984.79,-199.65 998.21,-190.03"/>
<polygon fill="#63b8ff" stroke="#63b8ff" points="1000.3,-192.84 1006.39,-184.17 996.23,-187.15 1000.3,-192.84"/>
</a>
</g>
</g>
<!-- Node19 -->
<g id="Node000019" class="node">
<title>Node19</title>
<g id="a_Node000019"><a xlink:href="_runnable_8h.html" target="_top" xlink:title=" ">
<polygon fill="white" stroke="#666666" points="773.5,-129 643.5,-129 643.5,-110 773.5,-110 773.5,-129"/>
<text text-anchor="middle" x="708.5" y="-117" font-family="Helvetica,sans-Serif" font-size="10.00">Cpl/System/Runnable.h</text>
</a>
</g>
</g>
<!-- Node18&#45;&gt;Node19 -->
<g id="edge25_Node000018_Node000019" class="edge">
<title>Node18&#45;&gt;Node19</title>
<g id="a_edge25_Node000018_Node000019"><a xlink:title=" ">
<path fill="none" stroke="#63b8ff" d="M497.83,-164.98C541.34,-155.8 610.7,-141.15 657.85,-131.19"/>
<polygon fill="#63b8ff" stroke="#63b8ff" points="658.8,-134.57 667.86,-129.08 657.35,-127.72 658.8,-134.57"/>
</a>
</g>
</g>
<!-- Node20 -->
<g id="Node000020" class="node">
<title>Node20</title>
<g id="a_Node000020"><a xlink:href="_semaphore_8h.html" target="_top" xlink:title=" ">
<polygon fill="white" stroke="#666666" points="625.5,-129 485.5,-129 485.5,-110 625.5,-110 625.5,-129"/>
<text text-anchor="middle" x="555.5" y="-117" font-family="Helvetica,sans-Serif" font-size="10.00">Cpl/System/Semaphore.h</text>
</a>
</g>
</g>
<!-- Node18&#45;&gt;Node20 -->
<g id="edge26_Node000018_Node000020" class="edge">
<title>Node18&#45;&gt;Node20</title>
<g id="a_edge26_Node000018_Node000020"><a xlink:title=" ">
<path fill="none" stroke="#63b8ff" d="M473.25,-164.98C488.73,-156.61 512.59,-143.7 530.64,-133.95"/>
<polygon fill="#63b8ff" stroke="#63b8ff" points="532.34,-137.01 539.47,-129.17 529.01,-130.85 532.34,-137.01"/>
</a>
</g>
</g>
<!-- Node21 -->
<g id="Node000021" class="node">
<title>Node21</title>
<g id="a_Node000021"><a xlink:href="_signable_8h.html" target="_top" xlink:title=" ">
<polygon fill="white" stroke="#666666" points="826.5,-74 700.5,-74 700.5,-55 826.5,-55 826.5,-74"/>
<text text-anchor="middle" x="763.5" y="-62" font-family="Helvetica,sans-Serif" font-size="10.00">Cpl/System/Signable.h</text>
</a>
</g>
</g>
<!-- Node18&#45;&gt;Node21 -->
<g id="edge30_Node000018_Node000021" class="edge">
<title>Node18&#45;&gt;Node21</title>
<g id="a_edge30_Node000018_Node000021"><a xlink:title=" ">
<path fill="none" stroke="#63b8ff" d="M457.38,-164.56C457.71,-150.63 460.54,-123.91 476.5,-110 507.54,-82.95 615.78,-72.3 690.09,-68.14"/>
<polygon fill="#63b8ff" stroke="#63b8ff" points="690.54,-71.62 700.34,-67.59 690.17,-64.63 690.54,-71.62"/>
</a>
</g>
</g>
<!-- Node22 -->
<g id="Node000022" class="node">
<title>Node22</title>
<g id="a_Node000022"><a xlink:href="_event_flag_8h.html" target="_top" xlink:title=" ">
<polygon fill="white" stroke="#666666" points="606,-74 473,-74 473,-55 606,-55 606,-74"/>
<text text-anchor="middle" x="539.5" y="-62" font-family="Helvetica,sans-Serif" font-size="10.00">Cpl/System/EventFlag.h</text>
</a>
</g>
</g>
<!-- Node18&#45;&gt;Node22 -->
<g id="edge31_Node000018_Node000022" class="edge">
<title>Node18&#45;&gt;Node22</title>
<g id="a_edge31_Node000018_Node000022"><a xlink:title=" ">
<path fill="none" stroke="#63b8ff" d="M451.89,-164.99C444.18,-152.11 432.44,-127.32 443.5,-110 453.42,-94.47 470.3,-84.28 487.17,-77.62"/>
<polygon fill="#63b8ff" stroke="#63b8ff" points="488.81,-80.76 497.05,-74.1 486.46,-74.16 488.81,-80.76"/>
</a>
</g>
</g>
<!-- Node23 -->
<g id="Node000023" class="node">
<title>Node23</title>
<g id="a_Node000023"><a xlink:href="_shared_event_handler_8h.html" target="_top" xlink:title=" ">
<polygon fill="white" stroke="#666666" points="391,-129 208,-129 208,-110 391,-110 391,-129"/>
<text text-anchor="middle" x="299.5" y="-117" font-family="Helvetica,sans-Serif" font-size="10.00">Cpl/System/SharedEventHandler.h</text>
</a>
</g>
</g>
<!-- Node18&#45;&gt;Node23 -->
<g id="edge34_Node000018_Node000023" class="edge">
<title>Node18&#45;&gt;Node23</title>
<g id="a_edge34_Node000018_Node000023"><a xlink:title=" ">
<path fill="none" stroke="#63b8ff" d="M432.11,-164.98C405.7,-156.13 364.15,-142.19 334.61,-132.28"/>
<polygon fill="#63b8ff" stroke="#63b8ff" points="335.68,-128.94 325.08,-129.08 333.45,-135.58 335.68,-128.94"/>
</a>
</g>
</g>
<!-- Node24 -->
<g id="Node000024" class="node">
<title>Node24</title>
<g id="a_Node000024"><a xlink:href="_timer_manager_8h.html" target="_top" xlink:title=" ">
<polygon fill="white" stroke="#666666" points="190,-129 35,-129 35,-110 190,-110 190,-129"/>
<text text-anchor="middle" x="112.5" y="-117" font-family="Helvetica,sans-Serif" font-size="10.00">Cpl/System/TimerManager.h</text>
</a>
</g>
</g>
<!-- Node18&#45;&gt;Node24 -->
<g id="edge36_Node000018_Node000024" class="edge">
<title>Node18&#45;&gt;Node24</title>
<g id="a_edge36_Node000018_Node000024"><a xlink:title=" ">
<path fill="none" stroke="#63b8ff" d="M402.07,-164.98C341.05,-155.61 243.02,-140.55 178.19,-130.59"/>
<polygon fill="#63b8ff" stroke="#63b8ff" points="178.49,-127.1 168.08,-129.04 177.43,-134.02 178.49,-127.1"/>
</a>
</g>
</g>
<!-- Node20&#45;&gt;Node9 -->
<g id="edge27_Node000020_Node000009" class="edge">
<title>Node20&#45;&gt;Node9</title>
<g id="a_edge27_Node000020_Node000009"><a xlink:title=" ">
<path fill="none" stroke="#63b8ff" d="M625.7,-110.86C628.67,-110.57 631.62,-110.28 634.5,-110 807.5,-93.38 1012.84,-76.96 1107.67,-69.57"/>
<polygon fill="#63b8ff" stroke="#63b8ff" points="1108.16,-73.04 1117.86,-68.78 1107.62,-66.06 1108.16,-73.04"/>
</a>
</g>
</g>
<!-- Node20&#45;&gt;Node21 -->
<g id="edge28_Node000020_Node000021" class="edge">
<title>Node20&#45;&gt;Node21</title>
<g id="a_edge28_Node000020_Node000021"><a xlink:title=" ">
<path fill="none" stroke="#63b8ff" d="M588.92,-109.98C624.44,-100.93 680.77,-86.58 719.8,-76.64"/>
<polygon fill="#63b8ff" stroke="#63b8ff" points="720.99,-79.94 729.82,-74.08 719.26,-73.16 720.99,-79.94"/>
</a>
</g>
</g>
<!-- Node21&#45;&gt;Node4 -->
<g id="edge29_Node000021_Node000004" class="edge">
<title>Node21&#45;&gt;Node4</title>
<g id="a_edge29_Node000021_Node000004"><a xlink:title=" ">
<path fill="none" stroke="#63b8ff" d="M783.42,-54.98C803.55,-46.38 834.88,-32.99 857.91,-23.15"/>
<polygon fill="#63b8ff" stroke="#63b8ff" points="859.4,-26.32 867.21,-19.17 856.64,-19.88 859.4,-26.32"/>
</a>
</g>
</g>
<!-- Node22&#45;&gt;Node5 -->
<g id="edge33_Node000022_Node000005" class="edge">
<title>Node22&#45;&gt;Node5</title>
<g id="a_edge33_Node000022_Node000005"><a xlink:title=" ">
<path fill="none" stroke="#63b8ff" d="M606.31,-58.89C762.89,-48.08 1149.44,-21.41 1270.58,-13.05"/>
<polygon fill="#63b8ff" stroke="#63b8ff" points="1271.07,-16.52 1280.81,-12.34 1270.59,-9.54 1271.07,-16.52"/>
</a>
</g>
</g>
<!-- Node22&#45;&gt;Node7 -->
<g id="edge32_Node000022_Node000007" class="edge">
<title>Node22&#45;&gt;Node7</title>
<g id="a_edge32_Node000022_Node000007"><a xlink:title=" ">
<path fill="none" stroke="#63b8ff" d="M606.09,-59.68C632.65,-58.18 663.52,-56.47 691.5,-55 1010.42,-38.2 1393.01,-19.9 1534.93,-13.17"/>
<polygon fill="#63b8ff" stroke="#63b8ff" points="1535.3,-16.66 1545.13,-12.69 1534.97,-9.66 1535.3,-16.66"/>
</a>
</g>
</g>
<!-- Node23&#45;&gt;Node22 -->
<g id="edge35_Node000023_Node000022" class="edge">
<title>Node23&#45;&gt;Node22</title>
<g id="a_edge35_Node000023_Node000022"><a xlink:title=" ">
<path fill="none" stroke="#63b8ff" d="M338.06,-109.98C379.57,-100.82 445.71,-86.21 490.79,-76.26"/>
<polygon fill="#63b8ff" stroke="#63b8ff" points="491.63,-79.66 500.64,-74.08 490.12,-72.82 491.63,-79.66"/>
</a>
</g>
</g>
<!-- Node25 -->
<g id="Node000025" class="node">
<title>Node25</title>
<g id="a_Node000025"><a xlink:href="_counter___8h.html" target="_top" xlink:title=" ">
<polygon fill="white" stroke="#666666" points="303.5,-74 175.5,-74 175.5,-55 303.5,-55 303.5,-74"/>
<text text-anchor="middle" x="239.5" y="-62" font-family="Helvetica,sans-Serif" font-size="10.00">Cpl/System/Counter_.h</text>
</a>
</g>
</g>
<!-- Node24&#45;&gt;Node25 -->
<g id="edge37_Node000024_Node000025" class="edge">
<title>Node24&#45;&gt;Node25</title>
<g id="a_edge37_Node000024_Node000025"><a xlink:title=" ">
<path fill="none" stroke="#63b8ff" d="M132.9,-109.98C153.52,-101.38 185.61,-87.99 209.19,-78.15"/>
<polygon fill="#63b8ff" stroke="#63b8ff" points="210.84,-81.25 218.72,-74.17 208.15,-74.79 210.84,-81.25"/>
</a>
</g>
</g>
<!-- Node24&#45;&gt;Node26 -->
<g id="edge39_Node000024_Node000026" class="edge">
<title>Node24&#45;&gt;Node26</title>
<g id="a_edge39_Node000024_Node000026"><a xlink:title=" ">
<path fill="none" stroke="#63b8ff" d="M103.75,-109.75C96.03,-102.03 84.6,-90.6 75.28,-81.28"/>
<polygon fill="#63b8ff" stroke="#63b8ff" points="77.64,-78.69 68.09,-74.09 72.69,-83.64 77.64,-78.69"/>
</a>
</g>
</g>
<!-- Node25&#45;&gt;Node4 -->
<g id="edge38_Node000025_Node000004" class="edge">
<title>Node25&#45;&gt;Node4</title>
<g id="a_edge38_Node000025_Node000004"><a xlink:title=" ">
<path fill="none" stroke="#63b8ff" d="M303.7,-58.25C426.23,-48.23 692.4,-26.46 818.54,-16.14"/>
<polygon fill="#63b8ff" stroke="#63b8ff" points="819.16,-19.6 828.84,-15.3 818.59,-12.62 819.16,-19.6"/>
</a>
</g>
</g>
<!-- Node27&#45;&gt;Node9 -->
<g id="edge41_Node000027_Node000009" class="edge">
<title>Node27&#45;&gt;Node9</title>
<g id="a_edge41_Node000027_Node000009"><a xlink:title=" ">
<path fill="none" stroke="#63b8ff" d="M906.55,-164.96C938.13,-157.03 985.02,-144.19 1024.5,-129 1042.49,-122.08 1046.07,-118.24 1063.5,-110 1086.57,-99.09 1112.89,-87.04 1132.29,-78.23"/>
<polygon fill="#63b8ff" stroke="#63b8ff" points="1133.82,-81.38 1141.48,-74.07 1130.93,-75.01 1133.82,-81.38"/>
</a>
</g>
</g>
<!-- Node27&#45;&gt;Node19 -->
<g id="edge42_Node000027_Node000019" class="edge">
<title>Node27&#45;&gt;Node19</title>
<g id="a_edge42_Node000027_Node000019"><a xlink:title=" ">
<path fill="none" stroke="#63b8ff" d="M844.47,-164.98C817.39,-156.13 774.79,-142.19 744.49,-132.28"/>
<polygon fill="#63b8ff" stroke="#63b8ff" points="745.32,-128.87 734.73,-129.08 743.15,-135.52 745.32,-128.87"/>
</a>
</g>
</g>
<!-- Node27&#45;&gt;Node21 -->
<g id="edge43_Node000027_Node000021" class="edge">
<title>Node27&#45;&gt;Node21</title>
<g id="a_edge43_Node000027_Node000021"><a xlink:title=" ">
<path fill="none" stroke="#63b8ff" d="M860.24,-164.95C849.91,-156.22 833.68,-142.12 820.5,-129 805.17,-113.74 788.79,-95.23 777.54,-82.14"/>
<polygon fill="#63b8ff" stroke="#63b8ff" points="780.1,-79.75 770.95,-74.41 774.77,-84.29 780.1,-79.75"/>
</a>
</g>
</g>
<!-- Node28 -->
<g id="Node000028" class="node">
<title>Node28</title>
<g id="a_Node000028"><a xlink:href="_traverser_8h.html" target="_top" xlink:title=" ">
<polygon fill="white" stroke="#666666" points="943.5,-129 829.5,-129 829.5,-110 943.5,-110 943.5,-129"/>
<text text-anchor="middle" x="886.5" y="-117" font-family="Helvetica,sans-Serif" font-size="10.00">Cpl/Type/Traverser.h</text>
</a>
</g>
</g>
<!-- Node27&#45;&gt;Node28 -->
<g id="edge44_Node000027_Node000028" class="edge">
<title>Node27&#45;&gt;Node28</title>
<g id="a_edge44_Node000027_Node000028"><a xlink:title=" ">
<path fill="none" stroke="#63b8ff" d="M873.14,-164.75C875.26,-157.72 878.31,-147.62 880.96,-138.84"/>
<polygon fill="#63b8ff" stroke="#63b8ff" points="884.37,-139.67 883.91,-129.09 877.67,-137.65 884.37,-139.67"/>
</a>
</g>
</g>
<!-- Node29 -->
<g id="Node000029" class="node">
<title>Node29</title>
<g id="a_Node000029"><a xlink:title=" ">
<polygon fill="#e0e0e0" stroke="#999999" points="1015,-129 962,-129 962,-110 1015,-110 1015,-129"/>
<text text-anchor="middle" x="988.5" y="-117" font-family="Helvetica,sans-Serif" font-size="10.00">stdlib.h</text>
</a>
</g>
</g>
<!-- Node27&#45;&gt;Node29 -->
<g id="edge45_Node000027_Node000029" class="edge">
<title>Node27&#45;&gt;Node29</title>
<g id="a_edge45_Node000027_Node000029"><a xlink:title=" ">
<path fill="none" stroke="#63b8ff" d="M889.46,-164.98C908.53,-156.42 938.16,-143.11 960.05,-133.28"/>
<polygon fill="#63b8ff" stroke="#63b8ff" points="961.51,-136.46 969.2,-129.17 958.64,-130.07 961.51,-136.46"/>
</a>
</g>
</g>
<!-- Node30&#45;&gt;Node3 -->
<g id="edge49_Node000030_Node000003" class="edge">
<title>Node30&#45;&gt;Node3</title>
<g id="a_edge49_Node000030_Node000003"><a xlink:title=" ">
<path fill="none" stroke="#63b8ff" d="M1037.62,-164.98C1056.85,-156.42 1086.73,-143.11 1108.81,-133.28"/>
<polygon fill="#63b8ff" stroke="#63b8ff" points="1110.32,-136.44 1118.03,-129.17 1107.47,-130.04 1110.32,-136.44"/>
</a>
</g>
</g>
</g>
</svg>
