<?xml version="1.0" encoding="UTF-8" standalone="no"?>
<!DOCTYPE svg PUBLIC "-//W3C//DTD SVG 1.1//EN"
 "http://www.w3.org/Graphics/SVG/1.1/DTD/svg11.dtd">
<!-- Generated by graphviz version 2.43.0 (0)
 -->
<!-- Title: Cpl/System/Trace.h Pages: 1 -->
<svg width="1060pt" height="302pt"
 viewBox="0.00 0.00 1059.50 302.00" xmlns="http://www.w3.org/2000/svg" xmlns:xlink="http://www.w3.org/1999/xlink">
<g id="graph0" class="graph" transform="scale(1 1) rotate(0) translate(4 298)">
<title>Cpl/System/Trace.h</title>
<!-- Node1 -->
<g id="Node000001" class="node">
<title>Node1</title>
<g id="a_Node000001"><a xlink:title=" ">
<polygon fill="#999999" stroke="#666666" points="324,-294 214,-294 214,-275 324,-275 324,-294"/>
<text text-anchor="middle" x="269" y="-282" font-family="Helvetica,sans-Serif" font-size="10.00">Cpl/System/Trace.h</text>
</a>
</g>
</g>
<!-- Node2 -->
<g id="Node000002" class="node">
<title>Node2</title>
<g id="a_Node000002"><a xlink:title=" ">
<polygon fill="#e0e0e0" stroke="#999999" points="118,-19 26,-19 26,0 118,0 118,-19"/>
<text text-anchor="middle" x="72" y="-7" font-family="Helvetica,sans-Serif" font-size="10.00">colony_config.h</text>
</a>
</g>
</g>
<!-- Node1&#45;&gt;Node2 -->
<g id="edge1_Node000001_Node000002" class="edge">
<title>Node1&#45;&gt;Node2</title>
<g id="a_edge1_Node000001_Node000002"><a xlink:title=" ">
<path fill="none" stroke="#63b8ff" d="M223.37,-274.95C146.62,-259.26 0,-223.06 0,-175.5 0,-175.5 0,-175.5 0,-118.5 0,-89.04 2.82,-79.62 19,-55 26.84,-43.08 38.81,-32.64 49.39,-24.88"/>
<polygon fill="#63b8ff" stroke="#63b8ff" points="51.62,-27.59 57.83,-19.01 47.62,-21.84 51.62,-27.59"/>
</a>
</g>
</g>
<!-- Node3 -->
<g id="Node000003" class="node">
<title>Node3</title>
<g id="a_Node000003"><a xlink:href="_text_2_string_8h.html" target="_top" xlink:title=" ">
<polygon fill="white" stroke="#666666" points="278,-184 182,-184 182,-165 278,-165 278,-184"/>
<text text-anchor="middle" x="230" y="-172" font-family="Helvetica,sans-Serif" font-size="10.00">Cpl/Text/String.h</text>
</a>
</g>
</g>
<!-- Node1&#45;&gt;Node3 -->
<g id="edge2_Node000001_Node000003" class="edge">
<title>Node1&#45;&gt;Node3</title>
<g id="a_edge2_Node000001_Node000003"><a xlink:title=" ">
<path fill="none" stroke="#63b8ff" d="M265.66,-275C262.17,-266.07 256.58,-251.59 252,-239 246.5,-223.91 240.56,-206.68 236.23,-193.98"/>
<polygon fill="#63b8ff" stroke="#63b8ff" points="239.43,-192.51 232.9,-184.16 232.8,-194.75 239.43,-192.51"/>
</a>
</g>
</g>
<!-- Node12 -->
<g id="Node000012" class="node">
<title>Node12</title>
<g id="a_Node000012"><a xlink:href="_thread_8h.html" target="_top" xlink:title=" ">
<polygon fill="white" stroke="#666666" points="795,-239 677,-239 677,-220 795,-220 795,-239"/>
<text text-anchor="middle" x="736" y="-227" font-family="Helvetica,sans-Serif" font-size="10.00">Cpl/System/Thread.h</text>
</a>
</g>
</g>
<!-- Node1&#45;&gt;Node12 -->
<g id="edge13_Node000001_Node000012" class="edge">
<title>Node1&#45;&gt;Node12</title>
<g id="a_edge13_Node000001_Node000012"><a xlink:title=" ">
<path fill="none" stroke="#63b8ff" d="M324.4,-277.21C409.87,-267.51 573.71,-248.92 666.83,-238.35"/>
<polygon fill="#63b8ff" stroke="#63b8ff" points="667.46,-241.8 677,-237.2 666.67,-234.85 667.46,-241.8"/>
</a>
</g>
</g>
<!-- Node18 -->
<g id="Node000018" class="node">
<title>Node18</title>
<g id="a_Node000018"><a xlink:href="_output_8h.html" target="_top" xlink:title=" ">
<polygon fill="white" stroke="#666666" points="350.5,-239 261.5,-239 261.5,-220 350.5,-220 350.5,-239"/>
<text text-anchor="middle" x="306" y="-227" font-family="Helvetica,sans-Serif" font-size="10.00">Cpl/Io/Output.h</text>
</a>
</g>
</g>
<!-- Node1&#45;&gt;Node18 -->
<g id="edge20_Node000001_Node000018" class="edge">
<title>Node1&#45;&gt;Node18</title>
<g id="a_edge20_Node000001_Node000018"><a xlink:title=" ">
<path fill="none" stroke="#63b8ff" d="M275.11,-274.75C280.28,-267.34 287.85,-256.5 294.19,-247.41"/>
<polygon fill="#63b8ff" stroke="#63b8ff" points="297.15,-249.29 300,-239.09 291.41,-245.29 297.15,-249.29"/>
</a>
</g>
</g>
<!-- Node4 -->
<g id="Node000004" class="node">
<title>Node4</title>
<g id="a_Node000004"><a xlink:title=" ">
<polygon fill="#e0e0e0" stroke="#999999" points="404.5,-74 319.5,-74 319.5,-55 404.5,-55 404.5,-74"/>
<text text-anchor="middle" x="362" y="-62" font-family="Helvetica,sans-Serif" font-size="10.00">colony_map.h</text>
</a>
</g>
</g>
<!-- Node3&#45;&gt;Node4 -->
<g id="edge3_Node000003_Node000004" class="edge">
<title>Node3&#45;&gt;Node4</title>
<g id="a_edge3_Node000003_Node000004"><a xlink:title=" ">
<path fill="none" stroke="#63b8ff" d="M240.44,-164.84C255.22,-152.59 283.11,-129.51 307,-110 319.16,-100.07 332.89,-88.96 343.59,-80.33"/>
<polygon fill="#63b8ff" stroke="#63b8ff" points="345.84,-83 351.43,-74 341.45,-77.55 345.84,-83"/>
</a>
</g>
</g>
<!-- Node5 -->
<g id="Node000005" class="node">
<title>Node5</title>
<g id="a_Node000005"><a xlink:href="_key_8h.html" target="_top" xlink:title=" ">
<polygon fill="white" stroke="#666666" points="181.5,-129 70.5,-129 70.5,-110 181.5,-110 181.5,-129"/>
<text text-anchor="middle" x="126" y="-117" font-family="Helvetica,sans-Serif" font-size="10.00">Cpl/Container/Key.h</text>
</a>
</g>
</g>
<!-- Node3&#45;&gt;Node5 -->
<g id="edge4_Node000003_Node000005" class="edge">
<title>Node3&#45;&gt;Node5</title>
<g id="a_edge4_Node000003_Node000005"><a xlink:title=" ">
<path fill="none" stroke="#63b8ff" d="M213.29,-164.98C196.79,-156.57 171.3,-143.59 152.12,-133.81"/>
<polygon fill="#63b8ff" stroke="#63b8ff" points="153.51,-130.59 143.01,-129.17 150.33,-136.83 153.51,-130.59"/>
</a>
</g>
</g>
<!-- Node10 -->
<g id="Node000010" class="node">
<title>Node10</title>
<g id="a_Node000010"><a xlink:title=" ">
<polygon fill="#e0e0e0" stroke="#999999" points="372,-129 316,-129 316,-110 372,-110 372,-129"/>
<text text-anchor="middle" x="344" y="-117" font-family="Helvetica,sans-Serif" font-size="10.00">stdarg.h</text>
</a>
</g>
</g>
<!-- Node3&#45;&gt;Node10 -->
<g id="edge11_Node000003_Node000010" class="edge">
<title>Node3&#45;&gt;Node10</title>
<g id="a_edge11_Node000003_Node000010"><a xlink:title=" ">
<path fill="none" stroke="#63b8ff" d="M248.32,-164.98C266.66,-156.46 295.11,-143.23 316.23,-133.41"/>
<polygon fill="#63b8ff" stroke="#63b8ff" points="317.76,-136.56 325.35,-129.17 314.81,-130.21 317.76,-136.56"/>
</a>
</g>
</g>
<!-- Node11 -->
<g id="Node000011" class="node">
<title>Node11</title>
<g id="a_Node000011"><a xlink:title=" ">
<polygon fill="#e0e0e0" stroke="#999999" points="260,-129 200,-129 200,-110 260,-110 260,-129"/>
<text text-anchor="middle" x="230" y="-117" font-family="Helvetica,sans-Serif" font-size="10.00">iostream</text>
</a>
</g>
</g>
<!-- Node3&#45;&gt;Node11 -->
<g id="edge12_Node000003_Node000011" class="edge">
<title>Node3&#45;&gt;Node11</title>
<g id="a_edge12_Node000003_Node000011"><a xlink:title=" ">
<path fill="none" stroke="#63b8ff" d="M230,-164.75C230,-157.8 230,-147.85 230,-139.13"/>
<polygon fill="#63b8ff" stroke="#63b8ff" points="233.5,-139.09 230,-129.09 226.5,-139.09 233.5,-139.09"/>
</a>
</g>
</g>
<!-- Node5&#45;&gt;Node4 -->
<g id="edge10_Node000005_Node000004" class="edge">
<title>Node5&#45;&gt;Node4</title>
<g id="a_edge10_Node000005_Node000004"><a xlink:title=" ">
<path fill="none" stroke="#63b8ff" d="M163.92,-109.98C204.65,-100.84 269.5,-86.27 313.82,-76.32"/>
<polygon fill="#63b8ff" stroke="#63b8ff" points="314.8,-79.69 323.79,-74.08 313.26,-72.86 314.8,-79.69"/>
</a>
</g>
</g>
<!-- Node6 -->
<g id="Node000006" class="node">
<title>Node6</title>
<g id="a_Node000006"><a xlink:href="_fatal_error_8h.html" target="_top" xlink:title=" ">
<polygon fill="white" stroke="#666666" points="301,-74 171,-74 171,-55 301,-55 301,-74"/>
<text text-anchor="middle" x="236" y="-62" font-family="Helvetica,sans-Serif" font-size="10.00">Cpl/System/FatalError.h</text>
</a>
</g>
</g>
<!-- Node5&#45;&gt;Node6 -->
<g id="edge5_Node000005_Node000006" class="edge">
<title>Node5&#45;&gt;Node6</title>
<g id="a_edge5_Node000005_Node000006"><a xlink:title=" ">
<path fill="none" stroke="#63b8ff" d="M143.67,-109.98C161.29,-101.5 188.58,-88.35 208.93,-78.54"/>
<polygon fill="#63b8ff" stroke="#63b8ff" points="210.52,-81.66 218.01,-74.17 207.48,-75.36 210.52,-81.66"/>
</a>
</g>
</g>
<!-- Node8 -->
<g id="Node000008" class="node">
<title>Node8</title>
<g id="a_Node000008"><a xlink:title=" ">
<polygon fill="#e0e0e0" stroke="#999999" points="81.5,-74 28.5,-74 28.5,-55 81.5,-55 81.5,-74"/>
<text text-anchor="middle" x="55" y="-62" font-family="Helvetica,sans-Serif" font-size="10.00">stdint.h</text>
</a>
</g>
</g>
<!-- Node5&#45;&gt;Node8 -->
<g id="edge8_Node000005_Node000008" class="edge">
<title>Node5&#45;&gt;Node8</title>
<g id="a_edge8_Node000005_Node000008"><a xlink:title=" ">
<path fill="none" stroke="#63b8ff" d="M114.59,-109.98C103.89,-102 87.66,-89.88 74.84,-80.31"/>
<polygon fill="#63b8ff" stroke="#63b8ff" points="76.72,-77.35 66.61,-74.17 72.53,-82.96 76.72,-77.35"/>
</a>
</g>
</g>
<!-- Node9 -->
<g id="Node000009" class="node">
<title>Node9</title>
<g id="a_Node000009"><a xlink:title=" ">
<polygon fill="#e0e0e0" stroke="#999999" points="152.5,-74 99.5,-74 99.5,-55 152.5,-55 152.5,-74"/>
<text text-anchor="middle" x="126" y="-62" font-family="Helvetica,sans-Serif" font-size="10.00">string.h</text>
</a>
</g>
</g>
<!-- Node5&#45;&gt;Node9 -->
<g id="edge9_Node000005_Node000009" class="edge">
<title>Node5&#45;&gt;Node9</title>
<g id="a_edge9_Node000005_Node000009"><a xlink:title=" ">
<path fill="none" stroke="#63b8ff" d="M126,-109.75C126,-102.8 126,-92.85 126,-84.13"/>
<polygon fill="#63b8ff" stroke="#63b8ff" points="129.5,-84.09 126,-74.09 122.5,-84.09 129.5,-84.09"/>
</a>
</g>
</g>
<!-- Node6&#45;&gt;Node2 -->
<g id="edge7_Node000006_Node000002" class="edge">
<title>Node6&#45;&gt;Node2</title>
<g id="a_edge7_Node000006_Node000002"><a xlink:title=" ">
<path fill="none" stroke="#63b8ff" d="M209.65,-54.98C182.24,-46.13 139.11,-32.19 108.44,-22.28"/>
<polygon fill="#63b8ff" stroke="#63b8ff" points="109.15,-18.83 98.56,-19.08 107,-25.49 109.15,-18.83"/>
</a>
</g>
</g>
<!-- Node7 -->
<g id="Node000007" class="node">
<title>Node7</title>
<g id="a_Node000007"><a xlink:title=" ">
<polygon fill="#e0e0e0" stroke="#999999" points="264,-19 208,-19 208,0 264,0 264,-19"/>
<text text-anchor="middle" x="236" y="-7" font-family="Helvetica,sans-Serif" font-size="10.00">stddef.h</text>
</a>
</g>
</g>
<!-- Node6&#45;&gt;Node7 -->
<g id="edge6_Node000006_Node000007" class="edge">
<title>Node6&#45;&gt;Node7</title>
<g id="a_edge6_Node000006_Node000007"><a xlink:title=" ">
<path fill="none" stroke="#63b8ff" d="M236,-54.75C236,-47.8 236,-37.85 236,-29.13"/>
<polygon fill="#63b8ff" stroke="#63b8ff" points="239.5,-29.09 236,-19.09 232.5,-29.09 239.5,-29.09"/>
</a>
</g>
</g>
<!-- Node12&#45;&gt;Node4 -->
<g id="edge14_Node000012_Node000004" class="edge">
<title>Node12&#45;&gt;Node4</title>
<g id="a_edge14_Node000012_Node000004"><a xlink:title=" ">
<path fill="none" stroke="#63b8ff" d="M728.7,-219.67C709.24,-196.87 653.44,-135.95 592,-110 534.23,-85.6 462.62,-74.45 414.79,-69.44"/>
<polygon fill="#63b8ff" stroke="#63b8ff" points="414.96,-65.94 404.66,-68.43 414.27,-72.9 414.96,-65.94"/>
</a>
</g>
</g>
<!-- Node13 -->
<g id="Node000013" class="node">
<title>Node13</title>
<g id="a_Node000013"><a xlink:href="_runnable_8h.html" target="_top" xlink:title=" ">
<polygon fill="white" stroke="#666666" points="848,-184 718,-184 718,-165 848,-165 848,-184"/>
<text text-anchor="middle" x="783" y="-172" font-family="Helvetica,sans-Serif" font-size="10.00">Cpl/System/Runnable.h</text>
</a>
</g>
</g>
<!-- Node12&#45;&gt;Node13 -->
<g id="edge15_Node000012_Node000013" class="edge">
<title>Node12&#45;&gt;Node13</title>
<g id="a_edge15_Node000012_Node000013"><a xlink:title=" ">
<path fill="none" stroke="#63b8ff" d="M743.76,-219.75C750.47,-212.18 760.34,-201.05 768.51,-191.84"/>
<polygon fill="#63b8ff" stroke="#63b8ff" points="771.37,-193.89 775.38,-184.09 766.13,-189.25 771.37,-193.89"/>
</a>
</g>
</g>
<!-- Node14 -->
<g id="Node000014" class="node">
<title>Node14</title>
<g id="a_Node000014"><a xlink:href="_signable_8h.html" target="_top" xlink:title=" ">
<polygon fill="white" stroke="#666666" points="662,-184 536,-184 536,-165 662,-165 662,-184"/>
<text text-anchor="middle" x="599" y="-172" font-family="Helvetica,sans-Serif" font-size="10.00">Cpl/System/Signable.h</text>
</a>
</g>
</g>
<!-- Node12&#45;&gt;Node14 -->
<g id="edge16_Node000012_Node000014" class="edge">
<title>Node12&#45;&gt;Node14</title>
<g id="a_edge16_Node000012_Node000014"><a xlink:title=" ">
<path fill="none" stroke="#63b8ff" d="M713.99,-219.98C691.55,-211.3 656.52,-197.75 631.01,-187.88"/>
<polygon fill="#63b8ff" stroke="#63b8ff" points="632,-184.51 621.41,-184.17 629.48,-191.04 632,-184.51"/>
</a>
</g>
</g>
<!-- Node16 -->
<g id="Node000016" class="node">
<title>Node16</title>
<g id="a_Node000016"><a xlink:href="_traverser_8h.html" target="_top" xlink:title=" ">
<polygon fill="white" stroke="#666666" points="980,-184 866,-184 866,-165 980,-165 980,-184"/>
<text text-anchor="middle" x="923" y="-172" font-family="Helvetica,sans-Serif" font-size="10.00">Cpl/Type/Traverser.h</text>
</a>
</g>
</g>
<!-- Node12&#45;&gt;Node16 -->
<g id="edge18_Node000012_Node000016" class="edge">
<title>Node12&#45;&gt;Node16</title>
<g id="a_edge18_Node000012_Node000016"><a xlink:title=" ">
<path fill="none" stroke="#63b8ff" d="M766.04,-219.98C797.71,-211.01 847.77,-196.82 882.81,-186.89"/>
<polygon fill="#63b8ff" stroke="#63b8ff" points="884.05,-190.18 892.72,-184.08 882.14,-183.44 884.05,-190.18"/>
</a>
</g>
</g>
<!-- Node17 -->
<g id="Node000017" class="node">
<title>Node17</title>
<g id="a_Node000017"><a xlink:title=" ">
<polygon fill="#e0e0e0" stroke="#999999" points="1051.5,-184 998.5,-184 998.5,-165 1051.5,-165 1051.5,-184"/>
<text text-anchor="middle" x="1025" y="-172" font-family="Helvetica,sans-Serif" font-size="10.00">stdlib.h</text>
</a>
</g>
</g>
<!-- Node12&#45;&gt;Node17 -->
<g id="edge19_Node000012_Node000017" class="edge">
<title>Node12&#45;&gt;Node17</title>
<g id="a_edge19_Node000012_Node000017"><a xlink:title=" ">
<path fill="none" stroke="#63b8ff" d="M789.97,-219.94C839.1,-211.93 913.87,-199.22 988.28,-184.04"/>
<polygon fill="#63b8ff" stroke="#63b8ff" points="989.21,-187.43 998.3,-181.98 987.8,-180.57 989.21,-187.43"/>
</a>
</g>
</g>
<!-- Node15 -->
<g id="Node000015" class="node">
<title>Node15</title>
<g id="a_Node000015"><a xlink:href="_item_8h.html" target="_top" xlink:title=" ">
<polygon fill="white" stroke="#666666" points="582.5,-129 465.5,-129 465.5,-110 582.5,-110 582.5,-129"/>
<text text-anchor="middle" x="524" y="-117" font-family="Helvetica,sans-Serif" font-size="10.00">Cpl/Container/Item.h</text>
</a>
</g>
</g>
<!-- Node14&#45;&gt;Node15 -->
<g id="edge17_Node000014_Node000015" class="edge">
<title>Node14&#45;&gt;Node15</title>
<g id="a_edge17_Node000014_Node000015"><a xlink:title=" ">
<path fill="none" stroke="#63b8ff" d="M586.95,-164.98C575.54,-156.92 558.17,-144.65 544.57,-135.03"/>
<polygon fill="#63b8ff" stroke="#63b8ff" points="546.46,-132.08 536.27,-129.17 542.42,-137.8 546.46,-132.08"/>
</a>
</g>
</g>
<!-- Node18&#45;&gt;Node3 -->
<g id="edge21_Node000018_Node000003" class="edge">
<title>Node18&#45;&gt;Node3</title>
<g id="a_edge21_Node000018_Node000003"><a xlink:title=" ">
<path fill="none" stroke="#63b8ff" d="M293.79,-219.98C282.22,-211.92 264.62,-199.65 250.84,-190.03"/>
<polygon fill="#63b8ff" stroke="#63b8ff" points="252.64,-187.02 242.43,-184.17 248.63,-192.76 252.64,-187.02"/>
</a>
</g>
</g>
<!-- Node18&#45;&gt;Node10 -->
<g id="edge25_Node000018_Node000010" class="edge">
<title>Node18&#45;&gt;Node10</title>
<g id="a_edge25_Node000018_Node000010"><a xlink:title=" ">
<path fill="none" stroke="#63b8ff" d="M308.28,-219.77C311.57,-207.44 318.03,-184.26 325,-165 328.22,-156.11 332.27,-146.44 335.81,-138.39"/>
<polygon fill="#63b8ff" stroke="#63b8ff" points="339.02,-139.8 339.92,-129.25 332.63,-136.94 339.02,-139.8"/>
</a>
</g>
</g>
<!-- Node19 -->
<g id="Node000019" class="node">
<title>Node19</title>
<g id="a_Node000019"><a xlink:href="_close_8h.html" target="_top" xlink:title=" ">
<polygon fill="white" stroke="#666666" points="417.5,-184 334.5,-184 334.5,-165 417.5,-165 417.5,-184"/>
<text text-anchor="middle" x="376" y="-172" font-family="Helvetica,sans-Serif" font-size="10.00">Cpl/Io/Close.h</text>
</a>
</g>
</g>
<!-- Node18&#45;&gt;Node19 -->
<g id="edge22_Node000018_Node000019" class="edge">
<title>Node18&#45;&gt;Node19</title>
<g id="a_edge22_Node000018_Node000019"><a xlink:title=" ">
<path fill="none" stroke="#63b8ff" d="M317.25,-219.98C327.8,-212 343.8,-199.88 356.44,-190.31"/>
<polygon fill="#63b8ff" stroke="#63b8ff" points="358.69,-193 364.55,-184.17 354.46,-187.42 358.69,-193"/>
</a>
</g>
</g>
<!-- Node20 -->
<g id="Node000020" class="node">
<title>Node20</title>
<g id="a_Node000020"><a xlink:href="_is_eos_8h.html" target="_top" xlink:title=" ">
<polygon fill="white" stroke="#666666" points="518,-184 436,-184 436,-165 518,-165 518,-184"/>
<text text-anchor="middle" x="477" y="-172" font-family="Helvetica,sans-Serif" font-size="10.00">Cpl/Io/IsEos.h</text>
</a>
</g>
</g>
<!-- Node18&#45;&gt;Node20 -->
<g id="edge24_Node000018_Node000020" class="edge">
<title>Node18&#45;&gt;Node20</title>
<g id="a_edge24_Node000018_Node000020"><a xlink:title=" ">
<path fill="none" stroke="#63b8ff" d="M333.47,-219.98C362.18,-211.09 407.42,-197.07 439.42,-187.15"/>
<polygon fill="#63b8ff" stroke="#63b8ff" points="440.8,-190.39 449.31,-184.08 438.72,-183.7 440.8,-190.39"/>
</a>
</g>
</g>
<!-- Node19&#45;&gt;Node15 -->
<g id="edge23_Node000019_Node000015" class="edge">
<title>Node19&#45;&gt;Node15</title>
<g id="a_edge23_Node000019_Node000015"><a xlink:title=" ">
<path fill="none" stroke="#63b8ff" d="M399.78,-164.98C424.23,-156.23 462.53,-142.51 490.15,-132.62"/>
<polygon fill="#63b8ff" stroke="#63b8ff" points="491.55,-135.84 499.79,-129.17 489.19,-129.25 491.55,-135.84"/>
</a>
</g>
</g>
</g>
</svg>
