<?xml version="1.0" encoding="UTF-8" standalone="no"?>
<!DOCTYPE svg PUBLIC "-//W3C//DTD SVG 1.1//EN"
 "http://www.w3.org/Graphics/SVG/1.1/DTD/svg11.dtd">
<!-- Generated by graphviz version 2.43.0 (0)
 -->
<!-- Title: Cpl/System/Trace.h Pages: 1 -->
<svg width="572pt" height="148pt"
 viewBox="0.00 0.00 572.00 148.00" xmlns="http://www.w3.org/2000/svg" xmlns:xlink="http://www.w3.org/1999/xlink">
<g id="graph0" class="graph" transform="scale(1 1) rotate(0) translate(4 144)">
<title>Cpl/System/Trace.h</title>
<!-- Node1 -->
<g id="Node000001" class="node">
<title>Node1</title>
<g id="a_Node000001"><a xlink:title=" ">
<polygon fill="#999999" stroke="#666666" points="312.5,-140 202.5,-140 202.5,-121 312.5,-121 312.5,-140"/>
<text text-anchor="middle" x="257.5" y="-128" font-family="Helvetica,sans-Serif" font-size="10.00">Cpl/System/Trace.h</text>
</a>
</g>
</g>
<!-- Node2 -->
<g id="Node000002" class="node">
<title>Node2</title>
<g id="a_Node000002"><a xlink:href="_integer_expression_parser_8h.html" target="_top" xlink:title="This file contains a collection of methods that parses a null terminated string that contains an arit...">
<polygon fill="white" stroke="#666666" points="151,-85 0,-85 0,-55 151,-55 151,-85"/>
<text text-anchor="start" x="8" y="-73" font-family="Helvetica,sans-Serif" font-size="10.00">Cpl/Math/IntegerExpression</text>
<text text-anchor="middle" x="75.5" y="-62" font-family="Helvetica,sans-Serif" font-size="10.00">Parser.h</text>
</a>
</g>
</g>
<!-- Node1&#45;&gt;Node2 -->
<g id="edge1_Node000001_Node000002" class="edge">
<title>Node1&#45;&gt;Node2</title>
<g id="a_edge1_Node000001_Node000002"><a xlink:title=" ">
<path fill="none" stroke="#63b8ff" d="M221.19,-117.83C191.85,-108.4 150.43,-95.09 119.26,-85.06"/>
<polygon fill="#63b8ff" stroke="#63b8ff" points="220.44,-121.27 231.04,-120.99 222.59,-114.6 220.44,-121.27"/>
</a>
</g>
</g>
<!-- Node3 -->
<g id="Node000003" class="node">
<title>Node3</title>
<g id="a_Node000003"><a xlink:href="_real_expression_parser_8h.html" target="_top" xlink:title="This file contains a collection of methods that parses a null terminated string that contains an arit...">
<polygon fill="white" stroke="#666666" points="345.5,-79.5 169.5,-79.5 169.5,-60.5 345.5,-60.5 345.5,-79.5"/>
<text text-anchor="middle" x="257.5" y="-67.5" font-family="Helvetica,sans-Serif" font-size="10.00">Cpl/Math/RealExpressionParser.h</text>
</a>
</g>
</g>
<!-- Node1&#45;&gt;Node3 -->
<g id="edge2_Node000001_Node000003" class="edge">
<title>Node1&#45;&gt;Node3</title>
<g id="a_edge2_Node000001_Node000003"><a xlink:title=" ">
<path fill="none" stroke="#63b8ff" d="M257.5,-110.66C257.5,-100.24 257.5,-87.8 257.5,-79.67"/>
<polygon fill="#63b8ff" stroke="#63b8ff" points="254,-110.87 257.5,-120.87 261,-110.87 254,-110.87"/>
</a>
</g>
</g>
<!-- Node4 -->
<g id="Node000004" class="node">
<title>Node4</title>
<g id="a_Node000004"><a xlink:href="_system_2_private___8h.html" target="_top" xlink:title="This file contains a collection of classes, interfaces, etc.">
<polygon fill="white" stroke="#666666" points="487.5,-79.5 363.5,-79.5 363.5,-60.5 487.5,-60.5 487.5,-79.5"/>
<text text-anchor="middle" x="425.5" y="-67.5" font-family="Helvetica,sans-Serif" font-size="10.00">Cpl/System/Private_.h</text>
</a>
</g>
</g>
<!-- Node1&#45;&gt;Node4 -->
<g id="edge3_Node000001_Node000004" class="edge">
<title>Node1&#45;&gt;Node4</title>
<g id="a_edge3_Node000001_Node000004"><a xlink:title=" ">
<path fill="none" stroke="#63b8ff" d="M291.47,-117.67C323.96,-106.36 372.16,-89.57 401.04,-79.52"/>
<polygon fill="#63b8ff" stroke="#63b8ff" points="290.22,-114.4 281.93,-120.99 292.52,-121.01 290.22,-114.4"/>
</a>
</g>
</g>
<!-- Node5 -->
<g id="Node000005" class="node">
<title>Node5</title>
<g id="a_Node000005"><a xlink:href="_cpl_2_t_shell_2_maker_8h.html" target="_top" xlink:title=" ">
<polygon fill="white" stroke="#666666" points="409,-19 302,-19 302,0 409,0 409,-19"/>
<text text-anchor="middle" x="355.5" y="-7" font-family="Helvetica,sans-Serif" font-size="10.00">Cpl/TShell/Maker.h</text>
</a>
</g>
</g>
<!-- Node4&#45;&gt;Node5 -->
<g id="edge4_Node000004_Node000005" class="edge">
<title>Node4&#45;&gt;Node5</title>
<g id="a_edge4_Node000004_Node000005"><a xlink:title=" ">
<path fill="none" stroke="#63b8ff" d="M407.22,-53.72C394.05,-42.71 376.74,-28.25 365.87,-19.17"/>
<polygon fill="#63b8ff" stroke="#63b8ff" points="405.25,-56.64 415.17,-60.37 409.74,-51.27 405.25,-56.64"/>
</a>
</g>
</g>
<!-- Node6 -->
<g id="Node000006" class="node">
<title>Node6</title>
<g id="a_Node000006"><a xlink:href="_polled_maker_8h.html" target="_top" xlink:title=" ">
<polygon fill="white" stroke="#666666" points="564,-19 427,-19 427,0 564,0 564,-19"/>
<text text-anchor="middle" x="495.5" y="-7" font-family="Helvetica,sans-Serif" font-size="10.00">Cpl/TShell/PolledMaker.h</text>
</a>
</g>
</g>
<!-- Node4&#45;&gt;Node6 -->
<g id="edge5_Node000004_Node000006" class="edge">
<title>Node4&#45;&gt;Node6</title>
<g id="a_edge5_Node000004_Node000006"><a xlink:title=" ">
<path fill="none" stroke="#63b8ff" d="M443.78,-53.72C456.95,-42.71 474.26,-28.25 485.13,-19.17"/>
<polygon fill="#63b8ff" stroke="#63b8ff" points="441.26,-51.27 435.83,-60.37 445.75,-56.64 441.26,-51.27"/>
</a>
</g>
</g>
</g>
</svg>
