<?xml version="1.0" encoding="UTF-8" standalone="no"?>
<!DOCTYPE svg PUBLIC "-//W3C//DTD SVG 1.1//EN"
 "http://www.w3.org/Graphics/SVG/1.1/DTD/svg11.dtd">
<!-- Generated by graphviz version 2.43.0 (0)
 -->
<!-- Title: Driver/LED/TPipe/RedGreenBlue.h Pages: 1 -->
<svg width="623pt" height="423pt"
 viewBox="0.00 0.00 623.00 423.00" xmlns="http://www.w3.org/2000/svg" xmlns:xlink="http://www.w3.org/1999/xlink">
<g id="graph0" class="graph" transform="scale(1 1) rotate(0) translate(4 419)">
<title>Driver/LED/TPipe/RedGreenBlue.h</title>
<!-- Node1 -->
<g id="Node000001" class="node">
<title>Node1</title>
<g id="a_Node000001"><a xlink:title=" ">
<polygon fill="#999999" stroke="#666666" points="374.5,-415 225.5,-415 225.5,-385 374.5,-385 374.5,-415"/>
<text text-anchor="start" x="233.5" y="-403" font-family="Helvetica,sans-Serif" font-size="10.00">Driver/LED/TPipe/RedGreen</text>
<text text-anchor="middle" x="300" y="-392" font-family="Helvetica,sans-Serif" font-size="10.00">Blue.h</text>
</a>
</g>
</g>
<!-- Node2 -->
<g id="Node000002" class="node">
<title>Node2</title>
<g id="a_Node000002"><a xlink:href="_red_green_blue_8h.html" target="_top" xlink:title=" ">
<polygon fill="white" stroke="#666666" points="150,-184 0,-184 0,-165 150,-165 150,-184"/>
<text text-anchor="middle" x="75" y="-172" font-family="Helvetica,sans-Serif" font-size="10.00">Driver/LED/RedGreenBlue.h</text>
</a>
</g>
</g>
<!-- Node1&#45;&gt;Node2 -->
<g id="edge1_Node000001_Node000002" class="edge">
<title>Node1&#45;&gt;Node2</title>
<g id="a_edge1_Node000001_Node000002"><a xlink:title=" ">
<path fill="none" stroke="#63b8ff" d="M256.94,-384.85C215.08,-369.01 152.5,-339.43 115,-294 90.67,-264.52 80.88,-219.55 77.15,-194.33"/>
<polygon fill="#63b8ff" stroke="#63b8ff" points="80.6,-193.72 75.83,-184.26 73.66,-194.63 80.6,-193.72"/>
</a>
</g>
</g>
<!-- Node4 -->
<g id="Node000004" class="node">
<title>Node4</title>
<g id="a_Node000004"><a xlink:href="_tx_8h.html" target="_top" xlink:title=" ">
<polygon fill="white" stroke="#666666" points="429.5,-239 328.5,-239 328.5,-220 429.5,-220 429.5,-239"/>
<text text-anchor="middle" x="379" y="-227" font-family="Helvetica,sans-Serif" font-size="10.00">Driver/TPipe/Tx.h</text>
</a>
</g>
</g>
<!-- Node1&#45;&gt;Node4 -->
<g id="edge3_Node000001_Node000004" class="edge">
<title>Node1&#45;&gt;Node4</title>
<g id="a_edge3_Node000001_Node000004"><a xlink:title=" ">
<path fill="none" stroke="#63b8ff" d="M320.53,-384.85C332.95,-375.61 348.54,-362.75 360,-349 377.96,-327.44 383.88,-321.14 391,-294 394.96,-278.91 391.08,-261.48 386.7,-248.7"/>
<polygon fill="#63b8ff" stroke="#63b8ff" points="389.92,-247.3 383.07,-239.21 383.38,-249.8 389.92,-247.3"/>
</a>
</g>
</g>
<!-- Node14 -->
<g id="Node000014" class="node">
<title>Node14</title>
<g id="a_Node000014"><a xlink:href="format_8h.html" target="_top" xlink:title="This file contains some general purpose string formatting functions.">
<polygon fill="white" stroke="#666666" points="350.5,-349 249.5,-349 249.5,-330 350.5,-330 350.5,-349"/>
<text text-anchor="middle" x="300" y="-337" font-family="Helvetica,sans-Serif" font-size="10.00">Cpl/Text/format.h</text>
</a>
</g>
</g>
<!-- Node1&#45;&gt;Node14 -->
<g id="edge16_Node000001_Node000014" class="edge">
<title>Node1&#45;&gt;Node14</title>
<g id="a_edge16_Node000001_Node000014"><a xlink:title=" ">
<path fill="none" stroke="#63b8ff" d="M300,-384.84C300,-377.21 300,-367.7 300,-359.45"/>
<polygon fill="#63b8ff" stroke="#63b8ff" points="303.5,-359.27 300,-349.27 296.5,-359.27 303.5,-359.27"/>
</a>
</g>
</g>
<!-- Node15 -->
<g id="Node000015" class="node">
<title>Node15</title>
<g id="a_Node000015"><a xlink:href="_elapsed_time_8h.html" target="_top" xlink:title=" ">
<polygon fill="white" stroke="#666666" points="271.5,-294 124.5,-294 124.5,-275 271.5,-275 271.5,-294"/>
<text text-anchor="middle" x="198" y="-282" font-family="Helvetica,sans-Serif" font-size="10.00">Cpl/System/ElapsedTime.h</text>
</a>
</g>
</g>
<!-- Node1&#45;&gt;Node15 -->
<g id="edge28_Node000001_Node000015" class="edge">
<title>Node1&#45;&gt;Node15</title>
<g id="a_edge28_Node000001_Node000015"><a xlink:title=" ">
<path fill="none" stroke="#63b8ff" d="M280.76,-384.88C268.62,-375.46 253.02,-362.39 241,-349 228.12,-334.65 216.05,-316.21 207.99,-302.9"/>
<polygon fill="#63b8ff" stroke="#63b8ff" points="210.98,-301.08 202.89,-294.25 204.96,-304.64 210.98,-301.08"/>
</a>
</g>
</g>
<!-- Node18 -->
<g id="Node000018" class="node">
<title>Node18</title>
<g id="a_Node000018"><a xlink:href="_f_string_8h.html" target="_top" xlink:title=" ">
<polygon fill="white" stroke="#666666" points="565.5,-349 464.5,-349 464.5,-330 565.5,-330 565.5,-349"/>
<text text-anchor="middle" x="515" y="-337" font-family="Helvetica,sans-Serif" font-size="10.00">Cpl/Text/FString.h</text>
</a>
</g>
</g>
<!-- Node1&#45;&gt;Node18 -->
<g id="edge22_Node000001_Node000018" class="edge">
<title>Node1&#45;&gt;Node18</title>
<g id="a_edge22_Node000001_Node000018"><a xlink:title=" ">
<path fill="none" stroke="#63b8ff" d="M351.5,-384.99C388.92,-374.8 438.91,-361.2 473.73,-351.73"/>
<polygon fill="#63b8ff" stroke="#63b8ff" points="474.83,-355.06 483.56,-349.05 473,-348.3 474.83,-355.06"/>
</a>
</g>
</g>
<!-- Node3 -->
<g id="Node000003" class="node">
<title>Node3</title>
<g id="a_Node000003"><a xlink:title=" ">
<polygon fill="#e0e0e0" stroke="#999999" points="204.5,-74 151.5,-74 151.5,-55 204.5,-55 204.5,-74"/>
<text text-anchor="middle" x="178" y="-62" font-family="Helvetica,sans-Serif" font-size="10.00">stdint.h</text>
</a>
</g>
</g>
<!-- Node2&#45;&gt;Node3 -->
<g id="edge2_Node000002_Node000003" class="edge">
<title>Node2&#45;&gt;Node3</title>
<g id="a_edge2_Node000002_Node000003"><a xlink:title=" ">
<path fill="none" stroke="#63b8ff" d="M83.43,-164.66C100.79,-146.46 140.76,-104.55 162.77,-81.47"/>
<polygon fill="#63b8ff" stroke="#63b8ff" points="165.37,-83.81 169.74,-74.16 160.31,-78.98 165.37,-83.81"/>
</a>
</g>
</g>
<!-- Node5 -->
<g id="Node000005" class="node">
<title>Node5</title>
<g id="a_Node000005"><a xlink:href="_text_2_string_8h.html" target="_top" xlink:title=" ">
<polygon fill="white" stroke="#666666" points="427,-184 331,-184 331,-165 427,-165 427,-184"/>
<text text-anchor="middle" x="379" y="-172" font-family="Helvetica,sans-Serif" font-size="10.00">Cpl/Text/String.h</text>
</a>
</g>
</g>
<!-- Node4&#45;&gt;Node5 -->
<g id="edge4_Node000004_Node000005" class="edge">
<title>Node4&#45;&gt;Node5</title>
<g id="a_edge4_Node000004_Node000005"><a xlink:title=" ">
<path fill="none" stroke="#63b8ff" d="M379,-219.75C379,-212.8 379,-202.85 379,-194.13"/>
<polygon fill="#63b8ff" stroke="#63b8ff" points="382.5,-194.09 379,-184.09 375.5,-194.09 382.5,-194.09"/>
</a>
</g>
</g>
<!-- Node11 -->
<g id="Node000011" class="node">
<title>Node11</title>
<g id="a_Node000011"><a xlink:title=" ">
<polygon fill="#e0e0e0" stroke="#999999" points="548.5,-74 495.5,-74 495.5,-55 548.5,-55 548.5,-74"/>
<text text-anchor="middle" x="522" y="-62" font-family="Helvetica,sans-Serif" font-size="10.00">string.h</text>
</a>
</g>
</g>
<!-- Node4&#45;&gt;Node11 -->
<g id="edge15_Node000004_Node000011" class="edge">
<title>Node4&#45;&gt;Node11</title>
<g id="a_edge15_Node000004_Node000011"><a xlink:title=" ">
<path fill="none" stroke="#63b8ff" d="M392.98,-219.76C416.8,-204.22 465.42,-169.58 494,-129 503.76,-115.15 511.24,-97.35 516.01,-84.13"/>
<polygon fill="#63b8ff" stroke="#63b8ff" points="519.45,-84.87 519.36,-74.28 512.83,-82.62 519.45,-84.87"/>
</a>
</g>
</g>
<!-- Node6 -->
<g id="Node000006" class="node">
<title>Node6</title>
<g id="a_Node000006"><a xlink:title=" ">
<polygon fill="#e0e0e0" stroke="#999999" points="472.5,-74 387.5,-74 387.5,-55 472.5,-55 472.5,-74"/>
<text text-anchor="middle" x="430" y="-62" font-family="Helvetica,sans-Serif" font-size="10.00">colony_map.h</text>
</a>
</g>
</g>
<!-- Node5&#45;&gt;Node6 -->
<g id="edge5_Node000005_Node000006" class="edge">
<title>Node5&#45;&gt;Node6</title>
<g id="a_edge5_Node000005_Node000006"><a xlink:title=" ">
<path fill="none" stroke="#63b8ff" d="M424.46,-164.96C444.77,-158.64 466.84,-147.72 479,-129 490.54,-111.24 471.07,-92.16 453.36,-79.61"/>
<polygon fill="#63b8ff" stroke="#63b8ff" points="455.22,-76.64 444.95,-74 451.33,-82.46 455.22,-76.64"/>
</a>
</g>
</g>
<!-- Node7 -->
<g id="Node000007" class="node">
<title>Node7</title>
<g id="a_Node000007"><a xlink:href="_key_8h.html" target="_top" xlink:title=" ">
<polygon fill="white" stroke="#666666" points="317.5,-129 206.5,-129 206.5,-110 317.5,-110 317.5,-129"/>
<text text-anchor="middle" x="262" y="-117" font-family="Helvetica,sans-Serif" font-size="10.00">Cpl/Container/Key.h</text>
</a>
</g>
</g>
<!-- Node5&#45;&gt;Node7 -->
<g id="edge6_Node000005_Node000007" class="edge">
<title>Node5&#45;&gt;Node7</title>
<g id="a_edge6_Node000005_Node000007"><a xlink:title=" ">
<path fill="none" stroke="#63b8ff" d="M360.2,-164.98C341.38,-156.46 312.18,-143.23 290.5,-133.41"/>
<polygon fill="#63b8ff" stroke="#63b8ff" points="291.69,-130.11 281.14,-129.17 288.8,-136.48 291.69,-130.11"/>
</a>
</g>
</g>
<!-- Node12 -->
<g id="Node000012" class="node">
<title>Node12</title>
<g id="a_Node000012"><a xlink:title=" ">
<polygon fill="#e0e0e0" stroke="#999999" points="392,-129 336,-129 336,-110 392,-110 392,-129"/>
<text text-anchor="middle" x="364" y="-117" font-family="Helvetica,sans-Serif" font-size="10.00">stdarg.h</text>
</a>
</g>
</g>
<!-- Node5&#45;&gt;Node12 -->
<g id="edge13_Node000005_Node000012" class="edge">
<title>Node5&#45;&gt;Node12</title>
<g id="a_edge13_Node000005_Node000012"><a xlink:title=" ">
<path fill="none" stroke="#63b8ff" d="M376.52,-164.75C374.54,-157.72 371.68,-147.62 369.19,-138.84"/>
<polygon fill="#63b8ff" stroke="#63b8ff" points="372.52,-137.76 366.43,-129.09 365.79,-139.66 372.52,-137.76"/>
</a>
</g>
</g>
<!-- Node13 -->
<g id="Node000013" class="node">
<title>Node13</title>
<g id="a_Node000013"><a xlink:title=" ">
<polygon fill="#e0e0e0" stroke="#999999" points="470,-129 410,-129 410,-110 470,-110 470,-129"/>
<text text-anchor="middle" x="440" y="-117" font-family="Helvetica,sans-Serif" font-size="10.00">iostream</text>
</a>
</g>
</g>
<!-- Node5&#45;&gt;Node13 -->
<g id="edge14_Node000005_Node000013" class="edge">
<title>Node5&#45;&gt;Node13</title>
<g id="a_edge14_Node000005_Node000013"><a xlink:title=" ">
<path fill="none" stroke="#63b8ff" d="M388.8,-164.98C397.82,-157.15 411.41,-145.34 422.32,-135.86"/>
<polygon fill="#63b8ff" stroke="#63b8ff" points="424.77,-138.37 430.02,-129.17 420.18,-133.09 424.77,-138.37"/>
</a>
</g>
</g>
<!-- Node7&#45;&gt;Node3 -->
<g id="edge10_Node000007_Node000003" class="edge">
<title>Node7&#45;&gt;Node3</title>
<g id="a_edge10_Node000007_Node000003"><a xlink:title=" ">
<path fill="none" stroke="#63b8ff" d="M248.5,-109.98C235.6,-101.84 215.9,-89.41 200.6,-79.76"/>
<polygon fill="#63b8ff" stroke="#63b8ff" points="202.07,-76.55 191.74,-74.17 198.33,-82.47 202.07,-76.55"/>
</a>
</g>
</g>
<!-- Node7&#45;&gt;Node6 -->
<g id="edge12_Node000007_Node000006" class="edge">
<title>Node7&#45;&gt;Node6</title>
<g id="a_edge12_Node000007_Node000006"><a xlink:title=" ">
<path fill="none" stroke="#63b8ff" d="M288.99,-109.98C317.2,-101.09 361.64,-87.07 393.08,-77.15"/>
<polygon fill="#63b8ff" stroke="#63b8ff" points="394.31,-80.43 402.8,-74.08 392.21,-73.75 394.31,-80.43"/>
</a>
</g>
</g>
<!-- Node8 -->
<g id="Node000008" class="node">
<title>Node8</title>
<g id="a_Node000008"><a xlink:href="_fatal_error_8h.html" target="_top" xlink:title=" ">
<polygon fill="white" stroke="#666666" points="359,-74 229,-74 229,-55 359,-55 359,-74"/>
<text text-anchor="middle" x="294" y="-62" font-family="Helvetica,sans-Serif" font-size="10.00">Cpl/System/FatalError.h</text>
</a>
</g>
</g>
<!-- Node7&#45;&gt;Node8 -->
<g id="edge7_Node000007_Node000008" class="edge">
<title>Node7&#45;&gt;Node8</title>
<g id="a_edge7_Node000007_Node000008"><a xlink:title=" ">
<path fill="none" stroke="#63b8ff" d="M267.28,-109.75C271.71,-102.42 278.16,-91.73 283.62,-82.7"/>
<polygon fill="#63b8ff" stroke="#63b8ff" points="286.64,-84.46 288.81,-74.09 280.65,-80.84 286.64,-84.46"/>
</a>
</g>
</g>
<!-- Node7&#45;&gt;Node11 -->
<g id="edge11_Node000007_Node000011" class="edge">
<title>Node7&#45;&gt;Node11</title>
<g id="a_edge11_Node000007_Node000011"><a xlink:title=" ">
<path fill="none" stroke="#63b8ff" d="M305.02,-109.93C349.39,-101.06 420.57,-86.74 482,-74 483.08,-73.78 484.17,-73.55 485.28,-73.32"/>
<polygon fill="#63b8ff" stroke="#63b8ff" points="486.26,-76.69 495.33,-71.21 484.82,-69.84 486.26,-76.69"/>
</a>
</g>
</g>
<!-- Node9 -->
<g id="Node000009" class="node">
<title>Node9</title>
<g id="a_Node000009"><a xlink:title=" ">
<polygon fill="#e0e0e0" stroke="#999999" points="322,-19 266,-19 266,0 322,0 322,-19"/>
<text text-anchor="middle" x="294" y="-7" font-family="Helvetica,sans-Serif" font-size="10.00">stddef.h</text>
</a>
</g>
</g>
<!-- Node8&#45;&gt;Node9 -->
<g id="edge8_Node000008_Node000009" class="edge">
<title>Node8&#45;&gt;Node9</title>
<g id="a_edge8_Node000008_Node000009"><a xlink:title=" ">
<path fill="none" stroke="#63b8ff" d="M294,-54.75C294,-47.8 294,-37.85 294,-29.13"/>
<polygon fill="#63b8ff" stroke="#63b8ff" points="297.5,-29.09 294,-19.09 290.5,-29.09 297.5,-29.09"/>
</a>
</g>
</g>
<!-- Node10 -->
<g id="Node000010" class="node">
<title>Node10</title>
<g id="a_Node000010"><a xlink:title=" ">
<polygon fill="#e0e0e0" stroke="#999999" points="527,-19 435,-19 435,0 527,0 527,-19"/>
<text text-anchor="middle" x="481" y="-7" font-family="Helvetica,sans-Serif" font-size="10.00">colony_config.h</text>
</a>
</g>
</g>
<!-- Node8&#45;&gt;Node10 -->
<g id="edge9_Node000008_Node000010" class="edge">
<title>Node8&#45;&gt;Node10</title>
<g id="a_edge9_Node000008_Node000010"><a xlink:title=" ">
<path fill="none" stroke="#63b8ff" d="M324.04,-54.98C355.71,-46.01 405.77,-31.82 440.81,-21.89"/>
<polygon fill="#63b8ff" stroke="#63b8ff" points="442.05,-25.18 450.72,-19.08 440.14,-18.44 442.05,-25.18"/>
</a>
</g>
</g>
<!-- Node14&#45;&gt;Node5 -->
<g id="edge17_Node000014_Node000005" class="edge">
<title>Node14&#45;&gt;Node5</title>
<g id="a_edge17_Node000014_Node000005"><a xlink:title=" ">
<path fill="none" stroke="#63b8ff" d="M299.37,-329.71C298.32,-308.98 298.12,-256.02 320,-220 327.8,-207.16 340.82,-196.75 352.64,-189.24"/>
<polygon fill="#63b8ff" stroke="#63b8ff" points="354.54,-192.18 361.35,-184.07 350.96,-186.17 354.54,-192.18"/>
</a>
</g>
</g>
<!-- Node14&#45;&gt;Node15 -->
<g id="edge18_Node000014_Node000015" class="edge">
<title>Node14&#45;&gt;Node15</title>
<g id="a_edge18_Node000014_Node000015"><a xlink:title=" ">
<path fill="none" stroke="#63b8ff" d="M283.61,-329.98C267.43,-321.57 242.43,-308.59 223.62,-298.81"/>
<polygon fill="#63b8ff" stroke="#63b8ff" points="225.17,-295.68 214.69,-294.17 221.95,-301.89 225.17,-295.68"/>
</a>
</g>
</g>
<!-- Node17 -->
<g id="Node000017" class="node">
<title>Node17</title>
<g id="a_Node000017"><a xlink:title=" ">
<polygon fill="#e0e0e0" stroke="#999999" points="381.5,-294 328.5,-294 328.5,-275 381.5,-275 381.5,-294"/>
<text text-anchor="middle" x="355" y="-282" font-family="Helvetica,sans-Serif" font-size="10.00">stdlib.h</text>
</a>
</g>
</g>
<!-- Node14&#45;&gt;Node17 -->
<g id="edge21_Node000014_Node000017" class="edge">
<title>Node14&#45;&gt;Node17</title>
<g id="a_edge21_Node000014_Node000017"><a xlink:title=" ">
<path fill="none" stroke="#63b8ff" d="M309.08,-329.75C317.09,-322.03 328.96,-310.6 338.62,-301.28"/>
<polygon fill="#63b8ff" stroke="#63b8ff" points="341.31,-303.55 346.09,-294.09 336.46,-298.51 341.31,-303.55"/>
</a>
</g>
</g>
<!-- Node15&#45;&gt;Node3 -->
<g id="edge19_Node000015_Node000003" class="edge">
<title>Node15&#45;&gt;Node3</title>
<g id="a_edge19_Node000015_Node000003"><a xlink:title=" ">
<path fill="none" stroke="#63b8ff" d="M197.22,-274.95C194.28,-242.95 183.89,-129.68 179.73,-84.4"/>
<polygon fill="#63b8ff" stroke="#63b8ff" points="183.2,-83.86 178.8,-74.22 176.23,-84.5 183.2,-83.86"/>
</a>
</g>
</g>
<!-- Node16 -->
<g id="Node000016" class="node">
<title>Node16</title>
<g id="a_Node000016"><a xlink:title=" ">
<polygon fill="#e0e0e0" stroke="#999999" points="271.5,-239 206.5,-239 206.5,-220 271.5,-220 271.5,-239"/>
<text text-anchor="middle" x="239" y="-227" font-family="Helvetica,sans-Serif" font-size="10.00">memory.h</text>
</a>
</g>
</g>
<!-- Node15&#45;&gt;Node16 -->
<g id="edge20_Node000015_Node000016" class="edge">
<title>Node15&#45;&gt;Node16</title>
<g id="a_edge20_Node000015_Node000016"><a xlink:title=" ">
<path fill="none" stroke="#63b8ff" d="M204.77,-274.75C210.56,-267.26 219.06,-256.28 226.14,-247.13"/>
<polygon fill="#63b8ff" stroke="#63b8ff" points="229.01,-249.14 232.36,-239.09 223.47,-244.86 229.01,-249.14"/>
</a>
</g>
</g>
<!-- Node18&#45;&gt;Node11 -->
<g id="edge27_Node000018_Node000011" class="edge">
<title>Node18&#45;&gt;Node11</title>
<g id="a_edge27_Node000018_Node000011"><a xlink:title=" ">
<path fill="none" stroke="#63b8ff" d="M532.42,-329.86C561.07,-314.27 615,-278.54 615,-230.5 615,-230.5 615,-230.5 615,-173.5 615,-131.48 574.08,-97.69 546.53,-79.7"/>
<polygon fill="#63b8ff" stroke="#63b8ff" points="548.11,-76.56 537.78,-74.21 544.39,-82.49 548.11,-76.56"/>
</a>
</g>
</g>
<!-- Node19 -->
<g id="Node000019" class="node">
<title>Node19</title>
<g id="a_Node000019"><a xlink:href="_f_string___8h.html" target="_top" xlink:title=" ">
<polygon fill="white" stroke="#666666" points="568.5,-294 461.5,-294 461.5,-275 568.5,-275 568.5,-294"/>
<text text-anchor="middle" x="515" y="-282" font-family="Helvetica,sans-Serif" font-size="10.00">Cpl/Text/FString_.h</text>
</a>
</g>
</g>
<!-- Node18&#45;&gt;Node19 -->
<g id="edge23_Node000018_Node000019" class="edge">
<title>Node18&#45;&gt;Node19</title>
<g id="a_edge23_Node000018_Node000019"><a xlink:title=" ">
<path fill="none" stroke="#63b8ff" d="M515,-329.75C515,-322.8 515,-312.85 515,-304.13"/>
<polygon fill="#63b8ff" stroke="#63b8ff" points="518.5,-304.09 515,-294.09 511.5,-304.09 518.5,-304.09"/>
</a>
</g>
</g>
<!-- Node19&#45;&gt;Node10 -->
<g id="edge24_Node000019_Node000010" class="edge">
<title>Node19&#45;&gt;Node10</title>
<g id="a_edge24_Node000019_Node000010"><a xlink:title=" ">
<path fill="none" stroke="#63b8ff" d="M526.06,-274.74C535.78,-266.48 549.64,-253.28 558,-239 572.88,-213.58 577,-204.96 577,-175.5 577,-175.5 577,-175.5 577,-118.5 577,-89.04 576.26,-78.11 558,-55 546.82,-40.85 529.82,-30.36 514.64,-23.12"/>
<polygon fill="#63b8ff" stroke="#63b8ff" points="516.04,-19.91 505.48,-19.03 513.19,-26.31 516.04,-19.91"/>
</a>
</g>
</g>
<!-- Node20 -->
<g id="Node000020" class="node">
<title>Node20</title>
<g id="a_Node000020"><a xlink:href="_string___8h.html" target="_top" xlink:title=" ">
<polygon fill="white" stroke="#666666" points="548.5,-239 447.5,-239 447.5,-220 548.5,-220 548.5,-239"/>
<text text-anchor="middle" x="498" y="-227" font-family="Helvetica,sans-Serif" font-size="10.00">Cpl/Text/String_.h</text>
</a>
</g>
</g>
<!-- Node19&#45;&gt;Node20 -->
<g id="edge25_Node000019_Node000020" class="edge">
<title>Node19&#45;&gt;Node20</title>
<g id="a_edge25_Node000019_Node000020"><a xlink:title=" ">
<path fill="none" stroke="#63b8ff" d="M512.19,-274.75C509.94,-267.72 506.7,-257.62 503.88,-248.84"/>
<polygon fill="#63b8ff" stroke="#63b8ff" points="507.14,-247.54 500.75,-239.09 500.48,-249.68 507.14,-247.54"/>
</a>
</g>
</g>
<!-- Node20&#45;&gt;Node5 -->
<g id="edge26_Node000020_Node000005" class="edge">
<title>Node20&#45;&gt;Node5</title>
<g id="a_edge26_Node000020_Node000005"><a xlink:title=" ">
<path fill="none" stroke="#63b8ff" d="M478.88,-219.98C459.65,-211.42 429.77,-198.11 407.69,-188.28"/>
<polygon fill="#63b8ff" stroke="#63b8ff" points="409.03,-185.04 398.47,-184.17 406.18,-191.44 409.03,-185.04"/>
</a>
</g>
</g>
</g>
</svg>
