<?xml version="1.0" encoding="UTF-8" standalone="no"?>
<!DOCTYPE svg PUBLIC "-//W3C//DTD SVG 1.1//EN"
 "http://www.w3.org/Graphics/SVG/1.1/DTD/svg11.dtd">
<!-- Generated by graphviz version 2.43.0 (0)
 -->
<!-- Title: Cpl/Type/Traverser.h Pages: 1 -->
<svg width="2200pt" height="401pt"
 viewBox="0.00 0.00 2199.50 401.00" xmlns="http://www.w3.org/2000/svg" xmlns:xlink="http://www.w3.org/1999/xlink">
<g id="graph0" class="graph" transform="scale(1 1) rotate(0) translate(4 397)">
<title>Cpl/Type/Traverser.h</title>
<!-- Node1 -->
<g id="Node000001" class="node">
<title>Node1</title>
<g id="a_Node000001"><a xlink:title=" ">
<polygon fill="#999999" stroke="#666666" points="679,-393 565,-393 565,-374 679,-374 679,-393"/>
<text text-anchor="middle" x="622" y="-381" font-family="Helvetica,sans-Serif" font-size="10.00">Cpl/Type/Traverser.h</text>
</a>
</g>
</g>
<!-- Node2 -->
<g id="Node000002" class="node">
<title>Node2</title>
<g id="a_Node000002"><a xlink:href="_cpl_2_io_2_file_2_api_8h.html" target="_top" xlink:title=" ">
<polygon fill="white" stroke="#666666" points="276,-338 184,-338 184,-319 276,-319 276,-338"/>
<text text-anchor="middle" x="230" y="-326" font-family="Helvetica,sans-Serif" font-size="10.00">Cpl/Io/File/Api.h</text>
</a>
</g>
</g>
<!-- Node1&#45;&gt;Node2 -->
<g id="edge1_Node000001_Node000002" class="edge">
<title>Node1&#45;&gt;Node2</title>
<g id="a_edge1_Node000001_Node000002"><a xlink:title=" ">
<path fill="none" stroke="#63b8ff" d="M555.09,-373.45C475.58,-362.7 345.03,-345.05 276.05,-335.73"/>
<polygon fill="#63b8ff" stroke="#63b8ff" points="554.62,-376.92 565,-374.79 555.56,-369.98 554.62,-376.92"/>
</a>
</g>
</g>
<!-- Node6 -->
<g id="Node000006" class="node">
<title>Node6</title>
<g id="a_Node000006"><a xlink:href="_thread_8h.html" target="_top" xlink:title=" ">
<polygon fill="white" stroke="#666666" points="1196,-338 1078,-338 1078,-319 1196,-319 1196,-338"/>
<text text-anchor="middle" x="1137" y="-326" font-family="Helvetica,sans-Serif" font-size="10.00">Cpl/System/Thread.h</text>
</a>
</g>
</g>
<!-- Node1&#45;&gt;Node6 -->
<g id="edge5_Node000001_Node000006" class="edge">
<title>Node1&#45;&gt;Node6</title>
<g id="a_edge5_Node000001_Node000006"><a xlink:title=" ">
<path fill="none" stroke="#63b8ff" d="M689.21,-375.58C790.62,-365.15 981.13,-345.54 1077.68,-335.6"/>
<polygon fill="#63b8ff" stroke="#63b8ff" points="688.67,-372.12 679.08,-376.63 689.39,-379.08 688.67,-372.12"/>
</a>
</g>
</g>
<!-- Node3 -->
<g id="Node000003" class="node">
<title>Node3</title>
<g id="a_Node000003"><a xlink:href="_littlefs_2__api_2_dir_list___8h.html" target="_top" xlink:title=" ">
<polygon fill="white" stroke="#666666" points="221.5,-283 120.5,-283 120.5,-253 221.5,-253 221.5,-283"/>
<text text-anchor="start" x="128.5" y="-271" font-family="Helvetica,sans-Serif" font-size="10.00">Cpl/Io/File/Littlefs</text>
<text text-anchor="middle" x="171" y="-260" font-family="Helvetica,sans-Serif" font-size="10.00">/_api/DirList_.h</text>
</a>
</g>
</g>
<!-- Node2&#45;&gt;Node3 -->
<g id="edge2_Node000002_Node000003" class="edge">
<title>Node2&#45;&gt;Node3</title>
<g id="a_edge2_Node000002_Node000003"><a xlink:title=" ">
<path fill="none" stroke="#63b8ff" d="M214.06,-311.7C205.07,-302.78 193.93,-291.74 185.24,-283.11"/>
<polygon fill="#63b8ff" stroke="#63b8ff" points="211.73,-314.31 221.29,-318.87 216.66,-309.34 211.73,-314.31"/>
</a>
</g>
</g>
<!-- Node4 -->
<g id="Node000004" class="node">
<title>Node4</title>
<g id="a_Node000004"><a xlink:href="__posix_2__api_2_dir_list___8h.html" target="_top" xlink:title=" ">
<polygon fill="white" stroke="#666666" points="338.5,-283 239.5,-283 239.5,-253 338.5,-253 338.5,-283"/>
<text text-anchor="start" x="247.5" y="-271" font-family="Helvetica,sans-Serif" font-size="10.00">Cpl/Io/File/_posix</text>
<text text-anchor="middle" x="289" y="-260" font-family="Helvetica,sans-Serif" font-size="10.00">/_api/DirList_.h</text>
</a>
</g>
</g>
<!-- Node2&#45;&gt;Node4 -->
<g id="edge3_Node000002_Node000004" class="edge">
<title>Node2&#45;&gt;Node4</title>
<g id="a_edge3_Node000002_Node000004"><a xlink:title=" ">
<path fill="none" stroke="#63b8ff" d="M245.94,-311.7C254.93,-302.78 266.07,-291.74 274.76,-283.11"/>
<polygon fill="#63b8ff" stroke="#63b8ff" points="243.34,-309.34 238.71,-318.87 248.27,-314.31 243.34,-309.34"/>
</a>
</g>
</g>
<!-- Node5 -->
<g id="Node000005" class="node">
<title>Node5</title>
<g id="a_Node000005"><a xlink:href="__win32_2__api_2_dir_list___8h.html" target="_top" xlink:title=" ">
<polygon fill="white" stroke="#666666" points="102,-283 0,-283 0,-253 102,-253 102,-283"/>
<text text-anchor="start" x="8" y="-271" font-family="Helvetica,sans-Serif" font-size="10.00">Cpl/Io/File/_win32</text>
<text text-anchor="middle" x="51" y="-260" font-family="Helvetica,sans-Serif" font-size="10.00">/_api/DirList_.h</text>
</a>
</g>
</g>
<!-- Node2&#45;&gt;Node5 -->
<g id="edge4_Node000002_Node000005" class="edge">
<title>Node2&#45;&gt;Node5</title>
<g id="a_edge4_Node000002_Node000005"><a xlink:title=" ">
<path fill="none" stroke="#63b8ff" d="M194.29,-315.83C165.43,-306.4 124.7,-293.09 94.03,-283.06"/>
<polygon fill="#63b8ff" stroke="#63b8ff" points="193.38,-319.21 203.97,-318.99 195.55,-312.56 193.38,-319.21"/>
</a>
</g>
</g>
<!-- Node7 -->
<g id="Node000007" class="node">
<title>Node7</title>
<g id="a_Node000007"><a xlink:href="_dm_2_event_loop_8h.html" target="_top" xlink:title=" ">
<polygon fill="white" stroke="#666666" points="1384,-277.5 1268,-277.5 1268,-258.5 1384,-258.5 1384,-277.5"/>
<text text-anchor="middle" x="1326" y="-265.5" font-family="Helvetica,sans-Serif" font-size="10.00">Cpl/Dm/EventLoop.h</text>
</a>
</g>
</g>
<!-- Node6&#45;&gt;Node7 -->
<g id="edge6_Node000006_Node000007" class="edge">
<title>Node6&#45;&gt;Node7</title>
<g id="a_edge6_Node000006_Node000007"><a xlink:title=" ">
<path fill="none" stroke="#63b8ff" d="M1174.27,-315.96C1210.83,-304.65 1265.72,-287.66 1298.48,-277.52"/>
<polygon fill="#63b8ff" stroke="#63b8ff" points="1173,-312.69 1164.48,-318.99 1175.07,-319.38 1173,-312.69"/>
</a>
</g>
</g>
<!-- Node51 -->
<g id="Node000051" class="node">
<title>Node51</title>
<g id="a_Node000051"><a xlink:href="_stream_driver_8h.html" target="_top" xlink:title=" ">
<polygon fill="white" stroke="#666666" points="1528,-283 1402,-283 1402,-253 1528,-253 1528,-283"/>
<text text-anchor="start" x="1410" y="-271" font-family="Helvetica,sans-Serif" font-size="10.00">Cpl/Io/Serial/ST/M32F4</text>
<text text-anchor="middle" x="1465" y="-260" font-family="Helvetica,sans-Serif" font-size="10.00">/StreamDriver.h</text>
</a>
</g>
</g>
<!-- Node6&#45;&gt;Node51 -->
<g id="edge37_Node000006_Node000051" class="edge">
<title>Node6&#45;&gt;Node51</title>
<g id="a_edge37_Node000006_Node000051"><a xlink:title=" ">
<path fill="none" stroke="#63b8ff" d="M1198.1,-317.23C1250,-308.42 1326.45,-295.25 1393,-283 1395.88,-282.47 1398.82,-281.92 1401.8,-281.36"/>
<polygon fill="#63b8ff" stroke="#63b8ff" points="1197.33,-313.81 1188.05,-318.93 1198.5,-320.71 1197.33,-313.81"/>
</a>
</g>
</g>
<!-- Node53 -->
<g id="Node000053" class="node">
<title>Node53</title>
<g id="a_Node000053"><a xlink:href="_listener___8h.html" target="_top" xlink:title=" ">
<polygon fill="white" stroke="#666666" points="1682,-277.5 1546,-277.5 1546,-258.5 1682,-258.5 1682,-277.5"/>
<text text-anchor="middle" x="1614" y="-265.5" font-family="Helvetica,sans-Serif" font-size="10.00">Cpl/Io/Socket/Listener_.h</text>
</a>
</g>
</g>
<!-- Node6&#45;&gt;Node53 -->
<g id="edge39_Node000006_Node000053" class="edge">
<title>Node6&#45;&gt;Node53</title>
<g id="a_edge39_Node000006_Node000053"><a xlink:title=" ">
<path fill="none" stroke="#63b8ff" d="M1206.56,-321.23C1286.5,-313.69 1421.54,-299.9 1537,-283 1547.76,-281.43 1559.31,-279.47 1570.11,-277.52"/>
<polygon fill="#63b8ff" stroke="#63b8ff" points="1205.76,-317.79 1196.13,-322.21 1206.41,-324.76 1205.76,-317.79"/>
</a>
</g>
</g>
<!-- Node56 -->
<g id="Node000056" class="node">
<title>Node56</title>
<g id="a_Node000056"><a xlink:href="_bare_metal_2_thread_8h.html" target="_top" xlink:title=" ">
<polygon fill="white" stroke="#666666" points="1825.5,-283 1700.5,-283 1700.5,-253 1825.5,-253 1825.5,-283"/>
<text text-anchor="start" x="1708.5" y="-271" font-family="Helvetica,sans-Serif" font-size="10.00">Cpl/System/BareMetal</text>
<text text-anchor="middle" x="1763" y="-260" font-family="Helvetica,sans-Serif" font-size="10.00">/Thread.h</text>
</a>
</g>
</g>
<!-- Node6&#45;&gt;Node56 -->
<g id="edge42_Node000006_Node000056" class="edge">
<title>Node6&#45;&gt;Node56</title>
<g id="a_edge42_Node000006_Node000056"><a xlink:title=" ">
<path fill="none" stroke="#63b8ff" d="M1206.44,-324.42C1311.63,-319.19 1517.53,-306.76 1691,-283 1694.03,-282.59 1697.12,-282.13 1700.24,-281.63"/>
<polygon fill="#63b8ff" stroke="#63b8ff" points="1206.08,-320.93 1196.27,-324.92 1206.43,-327.93 1206.08,-320.93"/>
</a>
</g>
</g>
<!-- Node57 -->
<g id="Node000057" class="node">
<title>Node57</title>
<g id="a_Node000057"><a xlink:href="_cpp11_2_thread_8h.html" target="_top" xlink:title=" ">
<polygon fill="white" stroke="#666666" points="1996,-277.5 1844,-277.5 1844,-258.5 1996,-258.5 1996,-277.5"/>
<text text-anchor="middle" x="1920" y="-265.5" font-family="Helvetica,sans-Serif" font-size="10.00">Cpl/System/Cpp11/Thread.h</text>
</a>
</g>
</g>
<!-- Node6&#45;&gt;Node57 -->
<g id="edge43_Node000006_Node000057" class="edge">
<title>Node6&#45;&gt;Node57</title>
<g id="a_edge43_Node000006_Node000057"><a xlink:title=" ">
<path fill="none" stroke="#63b8ff" d="M1206.25,-325.37C1331.87,-321 1605.59,-309.14 1835,-283 1847.48,-281.58 1860.92,-279.58 1873.35,-277.54"/>
<polygon fill="#63b8ff" stroke="#63b8ff" points="1205.88,-321.88 1196.01,-325.72 1206.12,-328.88 1205.88,-321.88"/>
</a>
</g>
</g>
<!-- Node58 -->
<g id="Node000058" class="node">
<title>Node58</title>
<g id="a_Node000058"><a xlink:href="_free_r_t_o_s_2_thread_8h.html" target="_top" xlink:title=" ">
<polygon fill="white" stroke="#666666" points="2136,-283 2014,-283 2014,-253 2136,-253 2136,-283"/>
<text text-anchor="start" x="2022" y="-271" font-family="Helvetica,sans-Serif" font-size="10.00">Cpl/System/FreeRTOS</text>
<text text-anchor="middle" x="2075" y="-260" font-family="Helvetica,sans-Serif" font-size="10.00">/Thread.h</text>
</a>
</g>
</g>
<!-- Node6&#45;&gt;Node58 -->
<g id="edge44_Node000006_Node000058" class="edge">
<title>Node6&#45;&gt;Node58</title>
<g id="a_edge44_Node000006_Node000058"><a xlink:title=" ">
<path fill="none" stroke="#63b8ff" d="M1206.46,-327.38C1354.07,-326.36 1709.64,-319.91 2005,-283 2007.83,-282.65 2010.71,-282.24 2013.62,-281.8"/>
<polygon fill="#63b8ff" stroke="#63b8ff" points="1206.18,-323.88 1196.2,-327.44 1206.22,-330.88 1206.18,-323.88"/>
</a>
</g>
</g>
<!-- Node59 -->
<g id="Node000059" class="node">
<title>Node59</title>
<g id="a_Node000059"><a xlink:href="_posix_2_thread_8h.html" target="_top" xlink:title=" ">
<polygon fill="white" stroke="#666666" points="503.5,-277.5 356.5,-277.5 356.5,-258.5 503.5,-258.5 503.5,-277.5"/>
<text text-anchor="middle" x="430" y="-265.5" font-family="Helvetica,sans-Serif" font-size="10.00">Cpl/System/Posix/Thread.h</text>
</a>
</g>
</g>
<!-- Node6&#45;&gt;Node59 -->
<g id="edge45_Node000006_Node000059" class="edge">
<title>Node6&#45;&gt;Node59</title>
<g id="a_edge45_Node000006_Node000059"><a xlink:title=" ">
<path fill="none" stroke="#63b8ff" d="M1067.79,-324.73C952.44,-319.64 713.72,-307.03 513,-283 500.96,-281.56 488,-279.58 475.98,-277.56"/>
<polygon fill="#63b8ff" stroke="#63b8ff" points="1067.75,-328.24 1077.89,-325.18 1068.05,-321.24 1067.75,-328.24"/>
</a>
</g>
</g>
<!-- Node60 -->
<g id="Node000060" class="node">
<title>Node60</title>
<g id="a_Node000060"><a xlink:href="_system_2_trace_8h.html" target="_top" xlink:title=" ">
<polygon fill="white" stroke="#666666" points="632,-277.5 522,-277.5 522,-258.5 632,-258.5 632,-277.5"/>
<text text-anchor="middle" x="577" y="-265.5" font-family="Helvetica,sans-Serif" font-size="10.00">Cpl/System/Trace.h</text>
</a>
</g>
</g>
<!-- Node6&#45;&gt;Node60 -->
<g id="edge46_Node000006_Node000060" class="edge">
<title>Node6&#45;&gt;Node60</title>
<g id="a_edge46_Node000006_Node000060"><a xlink:title=" ">
<path fill="none" stroke="#63b8ff" d="M1067.65,-323.87C971.79,-318.25 793.55,-305.67 643,-283 633.39,-281.55 623.07,-279.57 613.51,-277.56"/>
<polygon fill="#63b8ff" stroke="#63b8ff" points="1067.61,-327.37 1077.8,-324.45 1068.01,-320.38 1067.61,-327.37"/>
</a>
</g>
</g>
<!-- Node66 -->
<g id="Node000066" class="node">
<title>Node66</title>
<g id="a_Node000066"><a xlink:href="_win32_2_thread_8h.html" target="_top" xlink:title=" ">
<polygon fill="white" stroke="#666666" points="804,-277.5 652,-277.5 652,-258.5 804,-258.5 804,-277.5"/>
<text text-anchor="middle" x="728" y="-265.5" font-family="Helvetica,sans-Serif" font-size="10.00">Cpl/System/Win32/Thread.h</text>
</a>
</g>
</g>
<!-- Node6&#45;&gt;Node66 -->
<g id="edge52_Node000006_Node000066" class="edge">
<title>Node6&#45;&gt;Node66</title>
<g id="a_edge52_Node000006_Node000066"><a xlink:title=" ">
<path fill="none" stroke="#63b8ff" d="M1067.58,-318.51C1001.93,-309.88 900.66,-296.24 813,-283 801.76,-281.3 789.7,-279.38 778.3,-277.51"/>
<polygon fill="#63b8ff" stroke="#63b8ff" points="1067.44,-322.02 1077.81,-319.85 1068.35,-315.08 1067.44,-322.02"/>
</a>
</g>
</g>
<!-- Node67 -->
<g id="Node000067" class="node">
<title>Node67</title>
<g id="a_Node000067"><a xlink:href="_threads_8h.html" target="_top" xlink:title=" ">
<polygon fill="white" stroke="#666666" points="964,-277.5 822,-277.5 822,-258.5 964,-258.5 964,-277.5"/>
<text text-anchor="middle" x="893" y="-265.5" font-family="Helvetica,sans-Serif" font-size="10.00">Cpl/TShell/Cmd/Threads.h</text>
</a>
</g>
</g>
<!-- Node6&#45;&gt;Node67 -->
<g id="edge53_Node000006_Node000067" class="edge">
<title>Node6&#45;&gt;Node67</title>
<g id="a_edge53_Node000006_Node000067"><a xlink:title=" ">
<path fill="none" stroke="#63b8ff" d="M1091.58,-316.61C1044.42,-305.3 971.64,-287.85 928.52,-277.52"/>
<polygon fill="#63b8ff" stroke="#63b8ff" points="1090.98,-320.07 1101.52,-318.99 1092.61,-313.26 1090.98,-320.07"/>
</a>
</g>
</g>
<!-- Node70 -->
<g id="Node000070" class="node">
<title>Node70</title>
<g id="a_Node000070"><a xlink:href="_restartable_8h.html" target="_top" xlink:title=" ">
<polygon fill="white" stroke="#666666" points="1117,-211.5 983,-211.5 983,-192.5 1117,-192.5 1117,-211.5"/>
<text text-anchor="middle" x="1050" y="-199.5" font-family="Helvetica,sans-Serif" font-size="10.00">Cpl/TShell/Restartable.h</text>
</a>
</g>
</g>
<!-- Node6&#45;&gt;Node70 -->
<g id="edge56_Node000006_Node000070" class="edge">
<title>Node6&#45;&gt;Node70</title>
<g id="a_edge56_Node000006_Node000070"><a xlink:title=" ">
<path fill="none" stroke="#63b8ff" d="M1067.83,-318.95C1046.05,-312.62 1024.24,-301.72 1011,-283 994.14,-259.16 1023.43,-226.92 1039.92,-211.67"/>
<polygon fill="#63b8ff" stroke="#63b8ff" points="1067.24,-322.41 1077.8,-321.54 1069.01,-315.64 1067.24,-322.41"/>
</a>
</g>
</g>
<!-- Node71 -->
<g id="Node000071" class="node">
<title>Node71</title>
<g id="a_Node000071"><a xlink:href="_socket_8h.html" target="_top" xlink:title=" ">
<polygon fill="white" stroke="#666666" points="1130,-277.5 1020,-277.5 1020,-258.5 1130,-258.5 1130,-277.5"/>
<text text-anchor="middle" x="1075" y="-265.5" font-family="Helvetica,sans-Serif" font-size="10.00">Cpl/TShell/Socket.h</text>
</a>
</g>
</g>
<!-- Node6&#45;&gt;Node71 -->
<g id="edge57_Node000006_Node000071" class="edge">
<title>Node6&#45;&gt;Node71</title>
<g id="a_edge57_Node000006_Node000071"><a xlink:title=" ">
<path fill="none" stroke="#63b8ff" d="M1120.48,-311.91C1108.85,-300.94 1093.72,-286.67 1084.19,-277.67"/>
<polygon fill="#63b8ff" stroke="#63b8ff" points="1118.18,-314.55 1127.85,-318.87 1122.98,-309.46 1118.18,-314.55"/>
</a>
</g>
</g>
<!-- Node72 -->
<g id="Node000072" class="node">
<title>Node72</title>
<g id="a_Node000072"><a xlink:href="_stdio_8h.html" target="_top" xlink:title=" ">
<polygon fill="white" stroke="#666666" points="1250,-277.5 1148,-277.5 1148,-258.5 1250,-258.5 1250,-277.5"/>
<text text-anchor="middle" x="1199" y="-265.5" font-family="Helvetica,sans-Serif" font-size="10.00">Cpl/TShell/Stdio.h</text>
</a>
</g>
</g>
<!-- Node6&#45;&gt;Node72 -->
<g id="edge58_Node000006_Node000072" class="edge">
<title>Node6&#45;&gt;Node72</title>
<g id="a_edge58_Node000006_Node000072"><a xlink:title=" ">
<path fill="none" stroke="#63b8ff" d="M1153.52,-311.91C1165.15,-300.94 1180.28,-286.67 1189.81,-277.67"/>
<polygon fill="#63b8ff" stroke="#63b8ff" points="1151.02,-309.46 1146.15,-318.87 1155.82,-314.55 1151.02,-309.46"/>
</a>
</g>
</g>
<!-- Node8 -->
<g id="Node000008" class="node">
<title>Node8</title>
<g id="a_Node000008"><a xlink:href="_dm_2_mailbox_server_8h.html" target="_top" xlink:title=" ">
<polygon fill="white" stroke="#666666" points="1269,-211.5 1135,-211.5 1135,-192.5 1269,-192.5 1269,-211.5"/>
<text text-anchor="middle" x="1202" y="-199.5" font-family="Helvetica,sans-Serif" font-size="10.00">Cpl/Dm/MailboxServer.h</text>
</a>
</g>
</g>
<!-- Node7&#45;&gt;Node8 -->
<g id="edge7_Node000007_Node000008" class="edge">
<title>Node7&#45;&gt;Node8</title>
<g id="a_edge7_Node000007_Node000008"><a xlink:title=" ">
<path fill="none" stroke="#63b8ff" d="M1300.22,-253.69C1275.79,-241.09 1239.81,-222.51 1218.85,-211.7"/>
<polygon fill="#63b8ff" stroke="#63b8ff" points="1298.79,-256.89 1309.28,-258.37 1302,-250.67 1298.79,-256.89"/>
</a>
</g>
</g>
<!-- Node28 -->
<g id="Node000028" class="node">
<title>Node28</title>
<g id="a_Node000028"><a xlink:href="_subscriber_8h.html" target="_top" xlink:title=" ">
<polygon fill="white" stroke="#666666" points="1402.5,-211.5 1287.5,-211.5 1287.5,-192.5 1402.5,-192.5 1402.5,-211.5"/>
<text text-anchor="middle" x="1345" y="-199.5" font-family="Helvetica,sans-Serif" font-size="10.00">Cpl/Dm/Subscriber.h</text>
</a>
</g>
</g>
<!-- Node7&#45;&gt;Node28 -->
<g id="edge31_Node000007_Node000028" class="edge">
<title>Node7&#45;&gt;Node28</title>
<g id="a_edge31_Node000007_Node000028"><a xlink:title=" ">
<path fill="none" stroke="#63b8ff" d="M1331.51,-248.45C1335.07,-236.43 1339.56,-221.32 1342.36,-211.91"/>
<polygon fill="#63b8ff" stroke="#63b8ff" points="1328.05,-247.79 1328.56,-258.37 1334.76,-249.78 1328.05,-247.79"/>
</a>
</g>
</g>
<!-- Node9 -->
<g id="Node000009" class="node">
<title>Node9</title>
<g id="a_Node000009"><a xlink:href="_dm_2_periodic_scheduler_8h.html" target="_top" xlink:title=" ">
<polygon fill="white" stroke="#666666" points="909.5,-145.5 758.5,-145.5 758.5,-126.5 909.5,-126.5 909.5,-145.5"/>
<text text-anchor="middle" x="834" y="-133.5" font-family="Helvetica,sans-Serif" font-size="10.00">Cpl/Dm/PeriodicScheduler.h</text>
</a>
</g>
</g>
<!-- Node8&#45;&gt;Node9 -->
<g id="edge8_Node000008_Node000009" class="edge">
<title>Node8&#45;&gt;Node9</title>
<g id="a_edge8_Node000008_Node000009"><a xlink:title=" ">
<path fill="none" stroke="#63b8ff" d="M1146.28,-190.65C1139.45,-189.41 1132.57,-188.17 1126,-187 1041.56,-171.99 943.23,-155.32 884.94,-145.52"/>
<polygon fill="#63b8ff" stroke="#63b8ff" points="1145.74,-194.11 1156.2,-192.47 1146.99,-187.23 1145.74,-194.11"/>
</a>
</g>
</g>
<!-- Node10 -->
<g id="Node000010" class="node">
<title>Node10</title>
<g id="a_Node000010"><a xlink:href="_log_sink_8h.html" target="_top" xlink:title=" ">
<polygon fill="white" stroke="#666666" points="1991,-79.5 1867,-79.5 1867,-60.5 1991,-60.5 1991,-79.5"/>
<text text-anchor="middle" x="1929" y="-67.5" font-family="Helvetica,sans-Serif" font-size="10.00">Cpl/Logging/LogSink.h</text>
</a>
</g>
</g>
<!-- Node8&#45;&gt;Node10 -->
<g id="edge9_Node000008_Node000010" class="edge">
<title>Node8&#45;&gt;Node10</title>
<g id="a_edge9_Node000008_Node000010"><a xlink:title=" ">
<path fill="none" stroke="#63b8ff" d="M1257.87,-190.62C1264.98,-189.36 1272.15,-188.13 1279,-187 1387.16,-169.19 1414.97,-169.6 1523,-151 1672.55,-125.25 1709.11,-114.35 1858,-85 1867,-83.23 1876.64,-81.33 1885.82,-79.52"/>
<polygon fill="#63b8ff" stroke="#63b8ff" points="1256.79,-187.25 1247.56,-192.46 1258.02,-194.14 1256.79,-187.25"/>
</a>
</g>
</g>
<!-- Node11 -->
<g id="Node000011" class="node">
<title>Node11</title>
<g id="a_Node000011"><a xlink:href="_manager_8h.html" target="_top" xlink:title=" ">
<polygon fill="white" stroke="#666666" points="1189.5,-145.5 1072.5,-145.5 1072.5,-126.5 1189.5,-126.5 1189.5,-145.5"/>
<text text-anchor="middle" x="1131" y="-133.5" font-family="Helvetica,sans-Serif" font-size="10.00">Cpl/MApp/Manager.h</text>
</a>
</g>
</g>
<!-- Node8&#45;&gt;Node11 -->
<g id="edge10_Node000008_Node000011" class="edge">
<title>Node8&#45;&gt;Node11</title>
<g id="a_edge10_Node000008_Node000011"><a xlink:title=" ">
<path fill="none" stroke="#63b8ff" d="M1184.62,-185.33C1170.87,-172.94 1152.17,-156.09 1140.88,-145.91"/>
<polygon fill="#63b8ff" stroke="#63b8ff" points="1182.65,-188.27 1192.42,-192.37 1187.34,-183.07 1182.65,-188.27"/>
</a>
</g>
</g>
<!-- Node12 -->
<g id="Node000012" class="node">
<title>Node12</title>
<g id="a_Node000012"><a xlink:href="_cpl_2_m_app_2_temperature_2_api_8h.html" target="_top" xlink:title=" ">
<polygon fill="white" stroke="#666666" points="1336,-151 1208,-151 1208,-121 1336,-121 1336,-151"/>
<text text-anchor="start" x="1216" y="-139" font-family="Helvetica,sans-Serif" font-size="10.00">Cpl/MApp/Temperature</text>
<text text-anchor="middle" x="1272" y="-128" font-family="Helvetica,sans-Serif" font-size="10.00">/Api.h</text>
</a>
</g>
</g>
<!-- Node8&#45;&gt;Node12 -->
<g id="edge11_Node000008_Node000012" class="edge">
<title>Node8&#45;&gt;Node12</title>
<g id="a_edge11_Node000008_Node000012"><a xlink:title=" ">
<path fill="none" stroke="#63b8ff" d="M1219.05,-185.41C1230.5,-174.94 1245.46,-161.26 1256.56,-151.12"/>
<polygon fill="#63b8ff" stroke="#63b8ff" points="1216.46,-183.04 1211.44,-192.37 1221.18,-188.2 1216.46,-183.04"/>
</a>
</g>
</g>
<!-- Node13 -->
<g id="Node000013" class="node">
<title>Node13</title>
<g id="a_Node000013"><a xlink:href="_chunk_8h.html" target="_top" xlink:title=" ">
<polygon fill="white" stroke="#666666" points="1054.5,-145.5 927.5,-145.5 927.5,-126.5 1054.5,-126.5 1054.5,-145.5"/>
<text text-anchor="middle" x="991" y="-133.5" font-family="Helvetica,sans-Serif" font-size="10.00">Cpl/Persistent/Chunk.h</text>
</a>
</g>
</g>
<!-- Node8&#45;&gt;Node13 -->
<g id="edge12_Node000008_Node000013" class="edge">
<title>Node8&#45;&gt;Node13</title>
<g id="a_edge12_Node000008_Node000013"><a xlink:title=" ">
<path fill="none" stroke="#63b8ff" d="M1163.77,-189.4C1122.16,-176.78 1056.59,-156.89 1019.34,-145.6"/>
<polygon fill="#63b8ff" stroke="#63b8ff" points="1162.96,-192.82 1173.54,-192.37 1164.99,-186.12 1162.96,-192.82"/>
</a>
</g>
</g>
<!-- Node22 -->
<g id="Node000022" class="node">
<title>Node22</title>
<g id="a_Node000022"><a xlink:href="_persistent_2_record_8h.html" target="_top" xlink:title=" ">
<polygon fill="white" stroke="#666666" points="706,-145.5 576,-145.5 576,-126.5 706,-126.5 706,-145.5"/>
<text text-anchor="middle" x="641" y="-133.5" font-family="Helvetica,sans-Serif" font-size="10.00">Cpl/Persistent/Record.h</text>
</a>
</g>
</g>
<!-- Node8&#45;&gt;Node22 -->
<g id="edge18_Node000008_Node000022" class="edge">
<title>Node8&#45;&gt;Node22</title>
<g id="a_edge18_Node000008_Node000022"><a xlink:title=" ">
<path fill="none" stroke="#63b8ff" d="M1149.63,-190.74C1141.73,-189.37 1133.66,-188.07 1126,-187 959.3,-163.73 916.26,-169.82 749,-151 734.35,-149.35 718.59,-147.41 703.78,-145.5"/>
<polygon fill="#63b8ff" stroke="#63b8ff" points="1149.04,-194.19 1159.5,-192.5 1150.27,-187.3 1149.04,-194.19"/>
</a>
</g>
</g>
<!-- Node23 -->
<g id="Node000023" class="node">
<title>Node23</title>
<g id="a_Node000023"><a xlink:href="_record_server_8h.html" target="_top" xlink:title=" ">
<polygon fill="white" stroke="#666666" points="590.5,-79.5 429.5,-79.5 429.5,-60.5 590.5,-60.5 590.5,-79.5"/>
<text text-anchor="middle" x="510" y="-67.5" font-family="Helvetica,sans-Serif" font-size="10.00">Cpl/Persistent/RecordServer.h</text>
</a>
</g>
</g>
<!-- Node8&#45;&gt;Node23 -->
<g id="edge23_Node000008_Node000023" class="edge">
<title>Node8&#45;&gt;Node23</title>
<g id="a_edge23_Node000008_Node000023"><a xlink:title=" ">
<path fill="none" stroke="#63b8ff" d="M1150.79,-190.72C1142.53,-189.3 1134.05,-188 1126,-187 1002.46,-171.7 675.76,-211.55 567,-151 537.95,-134.82 520.08,-96.87 513.22,-79.71"/>
<polygon fill="#63b8ff" stroke="#63b8ff" points="1150.26,-194.18 1160.72,-192.48 1151.49,-187.29 1150.26,-194.18"/>
</a>
</g>
</g>
<!-- Node24 -->
<g id="Node000024" class="node">
<title>Node24</title>
<g id="a_Node000024"><a xlink:href="_region_media_8h.html" target="_top" xlink:title=" ">
<polygon fill="white" stroke="#666666" points="1514,-145.5 1354,-145.5 1354,-126.5 1514,-126.5 1514,-145.5"/>
<text text-anchor="middle" x="1434" y="-133.5" font-family="Helvetica,sans-Serif" font-size="10.00">Cpl/Persistent/RegionMedia.h</text>
</a>
</g>
</g>
<!-- Node8&#45;&gt;Node24 -->
<g id="edge24_Node000008_Node000024" class="edge">
<title>Node8&#45;&gt;Node24</title>
<g id="a_edge24_Node000008_Node000024"><a xlink:title=" ">
<path fill="none" stroke="#63b8ff" d="M1243.17,-189.64C1288.88,-177.03 1361.62,-156.97 1402.84,-145.6"/>
<polygon fill="#63b8ff" stroke="#63b8ff" points="1242,-186.34 1233.29,-192.37 1243.86,-193.08 1242,-186.34"/>
</a>
</g>
</g>
<!-- Node14 -->
<g id="Node000014" class="node">
<title>Node14</title>
<g id="a_Node000014"><a xlink:href="_dm_2_persistent_2_record_8h.html" target="_top" xlink:title=" ">
<polygon fill="white" stroke="#666666" points="799,-19 649,-19 649,0 799,0 799,-19"/>
<text text-anchor="middle" x="724" y="-7" font-family="Helvetica,sans-Serif" font-size="10.00">Cpl/Dm/Persistent/Record.h</text>
</a>
</g>
</g>
<!-- Node13&#45;&gt;Node14 -->
<g id="edge13_Node000013_Node000014" class="edge">
<title>Node13&#45;&gt;Node14</title>
<g id="a_edge13_Node000013_Node000014"><a xlink:title=" ">
<path fill="none" stroke="#63b8ff" d="M947.2,-123.64C918.08,-115.15 879.55,-102.08 848,-85 828.77,-74.59 827.42,-66.78 809,-55 787.11,-41 760.33,-27.54 742.76,-19.16"/>
<polygon fill="#63b8ff" stroke="#63b8ff" points="946.5,-127.08 957.07,-126.45 948.41,-120.35 946.5,-127.08"/>
</a>
</g>
</g>
<!-- Node15 -->
<g id="Node000015" class="node">
<title>Node15</title>
<g id="a_Node000015"><a xlink:href="_crc_chunk_8h.html" target="_top" xlink:title=" ">
<polygon fill="white" stroke="#666666" points="1186.5,-79.5 1043.5,-79.5 1043.5,-60.5 1186.5,-60.5 1186.5,-79.5"/>
<text text-anchor="middle" x="1115" y="-67.5" font-family="Helvetica,sans-Serif" font-size="10.00">Cpl/Persistent/CrcChunk.h</text>
</a>
</g>
</g>
<!-- Node13&#45;&gt;Node15 -->
<g id="edge14_Node000013_Node000015" class="edge">
<title>Node13&#45;&gt;Node15</title>
<g id="a_edge14_Node000013_Node000015"><a xlink:title=" ">
<path fill="none" stroke="#63b8ff" d="M1016.78,-121.69C1041.21,-109.09 1077.19,-90.51 1098.15,-79.7"/>
<polygon fill="#63b8ff" stroke="#63b8ff" points="1015,-118.67 1007.72,-126.37 1018.21,-124.89 1015,-118.67"/>
</a>
</g>
</g>
<!-- Node16 -->
<g id="Node000016" class="node">
<title>Node16</title>
<g id="a_Node000016"><a xlink:href="_data_record_8h.html" target="_top" xlink:title=" ">
<polygon fill="#fff0f0" stroke="red" points="800.5,-79.5 647.5,-79.5 647.5,-60.5 800.5,-60.5 800.5,-79.5"/>
<text text-anchor="middle" x="724" y="-67.5" font-family="Helvetica,sans-Serif" font-size="10.00">Cpl/Persistent/DataRecord.h</text>
</a>
</g>
</g>
<!-- Node13&#45;&gt;Node16 -->
<g id="edge15_Node000013_Node000016" class="edge">
<title>Node13&#45;&gt;Node16</title>
<g id="a_edge15_Node000013_Node000016"><a xlink:title=" ">
<path fill="none" stroke="#63b8ff" d="M945.53,-124.1C892.94,-111.49 807.47,-91.01 759.52,-79.51"/>
<polygon fill="#63b8ff" stroke="#63b8ff" points="944.73,-127.51 955.27,-126.44 946.36,-120.7 944.73,-127.51"/>
</a>
</g>
</g>
<!-- Node18 -->
<g id="Node000018" class="node">
<title>Node18</title>
<g id="a_Node000018"><a xlink:href="_indexed_entry_record_8h.html" target="_top" xlink:title=" ">
<polygon fill="#fff0f0" stroke="red" points="1355.5,-85 1204.5,-85 1204.5,-55 1355.5,-55 1355.5,-85"/>
<text text-anchor="start" x="1212.5" y="-73" font-family="Helvetica,sans-Serif" font-size="10.00">Cpl/Persistent/IndexedEntry</text>
<text text-anchor="middle" x="1280" y="-62" font-family="Helvetica,sans-Serif" font-size="10.00">Record.h</text>
</a>
</g>
</g>
<!-- Node13&#45;&gt;Node18 -->
<g id="edge16_Node000013_Node000018" class="edge">
<title>Node13&#45;&gt;Node18</title>
<g id="a_edge16_Node000013_Node000018"><a xlink:title=" ">
<path fill="none" stroke="#63b8ff" d="M1039.64,-124.23C1088.3,-113.45 1163.38,-96.83 1216.67,-85.02"/>
<polygon fill="#63b8ff" stroke="#63b8ff" points="1038.68,-120.86 1029.68,-126.44 1040.2,-127.69 1038.68,-120.86"/>
</a>
</g>
</g>
<!-- Node21 -->
<g id="Node000021" class="node">
<title>Node21</title>
<g id="a_Node000021"><a xlink:href="_mirrored_chunk_8h.html" target="_top" xlink:title=" ">
<polygon fill="white" stroke="#666666" points="1025,-79.5 857,-79.5 857,-60.5 1025,-60.5 1025,-79.5"/>
<text text-anchor="middle" x="941" y="-67.5" font-family="Helvetica,sans-Serif" font-size="10.00">Cpl/Persistent/MirroredChunk.h</text>
</a>
</g>
</g>
<!-- Node13&#45;&gt;Node21 -->
<g id="edge17_Node000013_Node000021" class="edge">
<title>Node13&#45;&gt;Node21</title>
<g id="a_edge17_Node000013_Node000021"><a xlink:title=" ">
<path fill="none" stroke="#63b8ff" d="M977.93,-118.27C968.34,-105.99 955.69,-89.8 947.96,-79.91"/>
<polygon fill="#63b8ff" stroke="#63b8ff" points="975.34,-120.64 984.26,-126.37 980.86,-116.33 975.34,-120.64"/>
</a>
</g>
</g>
<!-- Node22&#45;&gt;Node14 -->
<g id="edge19_Node000022_Node000014" class="edge">
<title>Node22&#45;&gt;Node14</title>
<g id="a_edge19_Node000022_Node000014"><a xlink:title=" ">
<path fill="none" stroke="#63b8ff" d="M634.81,-116.35C630.3,-99.13 626.74,-73.51 638,-55 649.1,-36.76 670.35,-25.67 688.95,-19.12"/>
<polygon fill="#63b8ff" stroke="#63b8ff" points="631.56,-117.7 637.77,-126.29 638.27,-115.71 631.56,-117.7"/>
</a>
</g>
</g>
<!-- Node22&#45;&gt;Node16 -->
<g id="edge20_Node000022_Node000016" class="edge">
<title>Node22&#45;&gt;Node16</title>
<g id="a_edge20_Node000022_Node000016"><a xlink:title=" ">
<path fill="none" stroke="#63b8ff" d="M660.47,-119.99C676.72,-107.46 699.31,-90.04 712.72,-79.7"/>
<polygon fill="#63b8ff" stroke="#63b8ff" points="657.98,-117.49 652.19,-126.37 662.25,-123.03 657.98,-117.49"/>
</a>
</g>
</g>
<!-- Node22&#45;&gt;Node23 -->
<g id="edge21_Node000022_Node000023" class="edge">
<title>Node22&#45;&gt;Node23</title>
<g id="a_edge21_Node000022_Node000023"><a xlink:title=" ">
<path fill="none" stroke="#63b8ff" d="M614.11,-121.86C588.3,-109.25 550.04,-90.56 527.81,-79.7"/>
<polygon fill="#63b8ff" stroke="#63b8ff" points="612.81,-125.12 623.33,-126.37 615.88,-118.83 612.81,-125.12"/>
</a>
</g>
</g>
<!-- Node23&#45;&gt;Node14 -->
<g id="edge22_Node000023_Node000014" class="edge">
<title>Node23&#45;&gt;Node14</title>
<g id="a_edge22_Node000023_Node000014"><a xlink:title=" ">
<path fill="none" stroke="#63b8ff" d="M550.88,-57.82C592.27,-46.51 655.35,-29.27 692.85,-19.02"/>
<polygon fill="#63b8ff" stroke="#63b8ff" points="549.84,-54.48 541.12,-60.49 551.69,-61.23 549.84,-54.48"/>
</a>
</g>
</g>
<!-- Node24&#45;&gt;Node15 -->
<g id="edge25_Node000024_Node000015" class="edge">
<title>Node24&#45;&gt;Node15</title>
<g id="a_edge25_Node000024_Node000015"><a xlink:title=" ">
<path fill="none" stroke="#63b8ff" d="M1381.23,-124.41C1318.54,-111.84 1215.2,-91.1 1157.44,-79.51"/>
<polygon fill="#63b8ff" stroke="#63b8ff" points="1380.82,-127.9 1391.31,-126.44 1382.19,-121.04 1380.82,-127.9"/>
</a>
</g>
</g>
<!-- Node24&#45;&gt;Node18 -->
<g id="edge27_Node000024_Node000018" class="edge">
<title>Node24&#45;&gt;Node18</title>
<g id="a_edge27_Node000024_Node000018"><a xlink:title=" ">
<path fill="none" stroke="#63b8ff" d="M1403.93,-122.5C1378.1,-111.77 1340.87,-96.3 1313.97,-85.12"/>
<polygon fill="#63b8ff" stroke="#63b8ff" points="1402.65,-125.76 1413.23,-126.37 1405.34,-119.3 1402.65,-125.76"/>
</a>
</g>
</g>
<!-- Node24&#45;&gt;Node21 -->
<g id="edge28_Node000024_Node000021" class="edge">
<title>Node24&#45;&gt;Node21</title>
<g id="a_edge28_Node000024_Node000021"><a xlink:title=" ">
<path fill="none" stroke="#63b8ff" d="M1371.78,-124.88C1362.8,-123.52 1353.67,-122.18 1345,-121 1207.57,-102.22 1172.5,-103.22 1035,-85 1022.41,-83.33 1008.88,-81.4 996.13,-79.51"/>
<polygon fill="#63b8ff" stroke="#63b8ff" points="1371.4,-128.37 1381.81,-126.43 1372.46,-121.45 1371.4,-128.37"/>
</a>
</g>
</g>
<!-- Node25 -->
<g id="Node000025" class="node">
<title>Node25</title>
<g id="a_Node000025"><a xlink:href="_file_adapter_8h.html" target="_top" xlink:title=" ">
<polygon fill="white" stroke="#666666" points="1848.5,-79.5 1697.5,-79.5 1697.5,-60.5 1848.5,-60.5 1848.5,-79.5"/>
<text text-anchor="middle" x="1773" y="-67.5" font-family="Helvetica,sans-Serif" font-size="10.00">Cpl/Persistent/FileAdapter.h</text>
</a>
</g>
</g>
<!-- Node24&#45;&gt;Node25 -->
<g id="edge26_Node000024_Node000025" class="edge">
<title>Node24&#45;&gt;Node25</title>
<g id="a_edge26_Node000024_Node000025"><a xlink:title=" ">
<path fill="none" stroke="#63b8ff" d="M1489.25,-124.57C1555.79,-112.01 1666.26,-91.15 1727.9,-79.51"/>
<polygon fill="#63b8ff" stroke="#63b8ff" points="1488.54,-121.14 1479.37,-126.44 1489.84,-128.02 1488.54,-121.14"/>
</a>
</g>
</g>
<!-- Node26 -->
<g id="Node000026" class="node">
<title>Node26</title>
<g id="a_Node000026"><a xlink:href="_n_v_adapter_8h.html" target="_top" xlink:title=" ">
<polygon fill="white" stroke="#666666" points="1520.5,-79.5 1373.5,-79.5 1373.5,-60.5 1520.5,-60.5 1520.5,-79.5"/>
<text text-anchor="middle" x="1447" y="-67.5" font-family="Helvetica,sans-Serif" font-size="10.00">Cpl/Persistent/NVAdapter.h</text>
</a>
</g>
</g>
<!-- Node24&#45;&gt;Node26 -->
<g id="edge29_Node000024_Node000026" class="edge">
<title>Node24&#45;&gt;Node26</title>
<g id="a_edge29_Node000024_Node000026"><a xlink:title=" ">
<path fill="none" stroke="#63b8ff" d="M1437.77,-116.45C1440.21,-104.43 1443.28,-89.32 1445.19,-79.91"/>
<polygon fill="#63b8ff" stroke="#63b8ff" points="1434.31,-115.87 1435.75,-126.37 1441.17,-117.27 1434.31,-115.87"/>
</a>
</g>
</g>
<!-- Node27 -->
<g id="Node000027" class="node">
<title>Node27</title>
<g id="a_Node000027"><a xlink:href="_null_region_media_8h.html" target="_top" xlink:title=" ">
<polygon fill="white" stroke="#666666" points="1679,-85 1539,-85 1539,-55 1679,-55 1679,-85"/>
<text text-anchor="start" x="1547" y="-73" font-family="Helvetica,sans-Serif" font-size="10.00">Cpl/Persistent/NullRegion</text>
<text text-anchor="middle" x="1609" y="-62" font-family="Helvetica,sans-Serif" font-size="10.00">Media.h</text>
</a>
</g>
</g>
<!-- Node24&#45;&gt;Node27 -->
<g id="edge30_Node000024_Node000027" class="edge">
<title>Node24&#45;&gt;Node27</title>
<g id="a_edge30_Node000024_Node000027"><a xlink:title=" ">
<path fill="none" stroke="#63b8ff" d="M1467.01,-122.93C1496.4,-112.18 1539.43,-96.44 1570.4,-85.12"/>
<polygon fill="#63b8ff" stroke="#63b8ff" points="1465.79,-119.65 1457.6,-126.37 1468.2,-126.22 1465.79,-119.65"/>
</a>
</g>
</g>
<!-- Node29 -->
<g id="Node000029" class="node">
<title>Node29</title>
<g id="a_Node000029"><a xlink:href="_model_point_common___8h.html" target="_top" xlink:title=" ">
<polygon fill="#fff0f0" stroke="red" points="2191.5,-145.5 2022.5,-145.5 2022.5,-126.5 2191.5,-126.5 2191.5,-145.5"/>
<text text-anchor="middle" x="2107" y="-133.5" font-family="Helvetica,sans-Serif" font-size="10.00">Cpl/Dm/ModelPointCommon_.h</text>
</a>
</g>
</g>
<!-- Node28&#45;&gt;Node29 -->
<g id="edge32_Node000028_Node000029" class="edge">
<title>Node28&#45;&gt;Node29</title>
<g id="a_edge32_Node000028_Node000029"><a xlink:title=" ">
<path fill="none" stroke="#63b8ff" d="M1391.06,-190.45C1398.05,-189.12 1405.19,-187.91 1412,-187 1677.23,-151.54 1746.85,-178.74 2013,-151 2026.78,-149.56 2041.64,-147.56 2055.39,-145.52"/>
<polygon fill="#63b8ff" stroke="#63b8ff" points="1390.11,-187.07 1381,-192.47 1391.49,-193.94 1390.11,-187.07"/>
</a>
</g>
</g>
<!-- Node50 -->
<g id="Node000050" class="node">
<title>Node50</title>
<g id="a_Node000050"><a xlink:href="_subscriber_composer_8h.html" target="_top" xlink:title=" ">
<polygon fill="#fff0f0" stroke="red" points="2004,-145.5 1840,-145.5 1840,-126.5 2004,-126.5 2004,-145.5"/>
<text text-anchor="middle" x="1922" y="-133.5" font-family="Helvetica,sans-Serif" font-size="10.00">Cpl/Dm/SubscriberComposer.h</text>
</a>
</g>
</g>
<!-- Node28&#45;&gt;Node50 -->
<g id="edge34_Node000028_Node000050" class="edge">
<title>Node28&#45;&gt;Node50</title>
<g id="a_edge34_Node000028_Node000050"><a xlink:title=" ">
<path fill="none" stroke="#63b8ff" d="M1392.53,-190.41C1399.05,-189.15 1405.68,-187.97 1412,-187 1562.16,-164.02 1738.9,-149.45 1839.96,-142.3"/>
<polygon fill="#63b8ff" stroke="#63b8ff" points="1391.55,-187.03 1382.43,-192.43 1392.92,-193.9 1391.55,-187.03"/>
</a>
</g>
</g>
<!-- Node30 -->
<g id="Node000030" class="node">
<title>Node30</title>
<g id="a_Node000030"><a xlink:href="_array_8h.html" target="_top" xlink:title=" ">
<polygon fill="white" stroke="#666666" points="2160.5,-79.5 2053.5,-79.5 2053.5,-60.5 2160.5,-60.5 2160.5,-79.5"/>
<text text-anchor="middle" x="2107" y="-67.5" font-family="Helvetica,sans-Serif" font-size="10.00">Cpl/Dm/Mp/Array.h</text>
</a>
</g>
</g>
<!-- Node29&#45;&gt;Node30 -->
<g id="edge33_Node000029_Node000030" class="edge">
<title>Node29&#45;&gt;Node30</title>
<g id="a_edge33_Node000029_Node000030"><a xlink:title=" ">
<path fill="none" stroke="#63b8ff" d="M2107,-116.08C2107,-104.13 2107,-89.22 2107,-79.91"/>
<polygon fill="#63b8ff" stroke="#63b8ff" points="2103.5,-116.37 2107,-126.37 2110.5,-116.37 2103.5,-116.37"/>
</a>
</g>
</g>
<!-- Node50&#45;&gt;Node10 -->
<g id="edge36_Node000050_Node000010" class="edge">
<title>Node50&#45;&gt;Node10</title>
<g id="a_edge36_Node000050_Node000010"><a xlink:title=" ">
<path fill="none" stroke="#63b8ff" d="M1924.07,-116.08C1925.38,-104.13 1927.01,-89.22 1928.03,-79.91"/>
<polygon fill="#63b8ff" stroke="#63b8ff" points="1920.55,-116.05 1922.94,-126.37 1927.51,-116.81 1920.55,-116.05"/>
</a>
</g>
</g>
<!-- Node50&#45;&gt;Node14 -->
<g id="edge35_Node000050_Node000014" class="edge">
<title>Node50&#45;&gt;Node14</title>
<g id="a_edge35_Node000050_Node000014"><a xlink:title=" ">
<path fill="none" stroke="#63b8ff" d="M1950.54,-121.86C1981.26,-106.04 2022.84,-78.65 2000,-55 1958.14,-11.65 1066.35,-9.84 799.06,-10.28"/>
<polygon fill="#63b8ff" stroke="#63b8ff" points="1948.84,-118.8 1941.44,-126.38 1951.95,-125.07 1948.84,-118.8"/>
</a>
</g>
</g>
<!-- Node52 -->
<g id="Node000052" class="node">
<title>Node52</title>
<g id="a_Node000052"><a xlink:href="_serial_2_s_t_2_m32_f4_2_input_output_8h.html" target="_top" xlink:title=" ">
<polygon fill="white" stroke="#666666" points="1547,-217 1421,-217 1421,-187 1547,-187 1547,-217"/>
<text text-anchor="start" x="1429" y="-205" font-family="Helvetica,sans-Serif" font-size="10.00">Cpl/Io/Serial/ST/M32F4</text>
<text text-anchor="middle" x="1484" y="-194" font-family="Helvetica,sans-Serif" font-size="10.00">/InputOutput.h</text>
</a>
</g>
</g>
<!-- Node51&#45;&gt;Node52 -->
<g id="edge38_Node000051_Node000052" class="edge">
<title>Node51&#45;&gt;Node52</title>
<g id="a_edge38_Node000051_Node000052"><a xlink:title=" ">
<path fill="none" stroke="#63b8ff" d="M1472.09,-243.11C1474.69,-234.38 1477.53,-224.78 1479.8,-217.16"/>
<polygon fill="#63b8ff" stroke="#63b8ff" points="1468.71,-242.21 1469.22,-252.8 1475.42,-244.21 1468.71,-242.21"/>
</a>
</g>
</g>
<!-- Node54 -->
<g id="Node000054" class="node">
<title>Node54</title>
<g id="a_Node000054"><a xlink:href="_posix_2_listener_8h.html" target="_top" xlink:title=" ">
<polygon fill="white" stroke="#666666" points="1674.5,-217 1565.5,-217 1565.5,-187 1674.5,-187 1674.5,-217"/>
<text text-anchor="start" x="1573.5" y="-205" font-family="Helvetica,sans-Serif" font-size="10.00">Cpl/Io/Socket/Posix</text>
<text text-anchor="middle" x="1620" y="-194" font-family="Helvetica,sans-Serif" font-size="10.00">/Listener.h</text>
</a>
</g>
</g>
<!-- Node53&#45;&gt;Node54 -->
<g id="edge40_Node000053_Node000054" class="edge">
<title>Node53&#45;&gt;Node54</title>
<g id="a_edge40_Node000053_Node000054"><a xlink:title=" ">
<path fill="none" stroke="#63b8ff" d="M1615.75,-248.35C1616.68,-238.47 1617.8,-226.51 1618.65,-217.36"/>
<polygon fill="#63b8ff" stroke="#63b8ff" points="1612.26,-248.09 1614.81,-258.37 1619.23,-248.74 1612.26,-248.09"/>
</a>
</g>
</g>
<!-- Node55 -->
<g id="Node000055" class="node">
<title>Node55</title>
<g id="a_Node000055"><a xlink:href="_win32_2_listener_8h.html" target="_top" xlink:title=" ">
<polygon fill="white" stroke="#666666" points="1805.5,-217 1692.5,-217 1692.5,-187 1805.5,-187 1805.5,-217"/>
<text text-anchor="start" x="1700.5" y="-205" font-family="Helvetica,sans-Serif" font-size="10.00">Cpl/Io/Socket/Win32</text>
<text text-anchor="middle" x="1749" y="-194" font-family="Helvetica,sans-Serif" font-size="10.00">/Listener.h</text>
</a>
</g>
</g>
<!-- Node53&#45;&gt;Node55 -->
<g id="edge41_Node000053_Node000055" class="edge">
<title>Node53&#45;&gt;Node55</title>
<g id="a_edge41_Node000053_Node000055"><a xlink:title=" ">
<path fill="none" stroke="#63b8ff" d="M1641.26,-254.08C1663.87,-243.36 1695.95,-228.15 1719.22,-217.12"/>
<polygon fill="#63b8ff" stroke="#63b8ff" points="1639.74,-250.92 1632.21,-258.37 1642.74,-257.25 1639.74,-250.92"/>
</a>
</g>
</g>
<!-- Node61 -->
<g id="Node000061" class="node">
<title>Node61</title>
<g id="a_Node000061"><a xlink:href="_integer_expression_parser_8h.html" target="_top" xlink:title="This file contains a collection of methods that parses a null terminated string that contains an arit...">
<polygon fill="white" stroke="#666666" points="469.5,-217 318.5,-217 318.5,-187 469.5,-187 469.5,-217"/>
<text text-anchor="start" x="326.5" y="-205" font-family="Helvetica,sans-Serif" font-size="10.00">Cpl/Math/IntegerExpression</text>
<text text-anchor="middle" x="394" y="-194" font-family="Helvetica,sans-Serif" font-size="10.00">Parser.h</text>
</a>
</g>
</g>
<!-- Node60&#45;&gt;Node61 -->
<g id="edge47_Node000060_Node000061" class="edge">
<title>Node60&#45;&gt;Node61</title>
<g id="a_edge47_Node000060_Node000061"><a xlink:title=" ">
<path fill="none" stroke="#63b8ff" d="M542.48,-254.93C511.74,-244.18 466.75,-228.44 434.36,-217.12"/>
<polygon fill="#63b8ff" stroke="#63b8ff" points="541.72,-258.37 552.32,-258.37 544.04,-251.76 541.72,-258.37"/>
</a>
</g>
</g>
<!-- Node62 -->
<g id="Node000062" class="node">
<title>Node62</title>
<g id="a_Node000062"><a xlink:href="_real_expression_parser_8h.html" target="_top" xlink:title="This file contains a collection of methods that parses a null terminated string that contains an arit...">
<polygon fill="white" stroke="#666666" points="664,-211.5 488,-211.5 488,-192.5 664,-192.5 664,-211.5"/>
<text text-anchor="middle" x="576" y="-199.5" font-family="Helvetica,sans-Serif" font-size="10.00">Cpl/Math/RealExpressionParser.h</text>
</a>
</g>
</g>
<!-- Node60&#45;&gt;Node62 -->
<g id="edge48_Node000060_Node000062" class="edge">
<title>Node60&#45;&gt;Node62</title>
<g id="a_edge48_Node000060_Node000062"><a xlink:title=" ">
<path fill="none" stroke="#63b8ff" d="M576.7,-248.08C576.52,-236.13 576.28,-221.22 576.14,-211.91"/>
<polygon fill="#63b8ff" stroke="#63b8ff" points="573.21,-248.42 576.87,-258.37 580.21,-248.32 573.21,-248.42"/>
</a>
</g>
</g>
<!-- Node63 -->
<g id="Node000063" class="node">
<title>Node63</title>
<g id="a_Node000063"><a xlink:href="_system_2_private___8h.html" target="_top" xlink:title="This file contains a collection of classes, interfaces, etc.">
<polygon fill="white" stroke="#666666" points="300,-211.5 176,-211.5 176,-192.5 300,-192.5 300,-211.5"/>
<text text-anchor="middle" x="238" y="-199.5" font-family="Helvetica,sans-Serif" font-size="10.00">Cpl/System/Private_.h</text>
</a>
</g>
</g>
<!-- Node60&#45;&gt;Node63 -->
<g id="edge49_Node000060_Node000063" class="edge">
<title>Node60&#45;&gt;Node63</title>
<g id="a_edge49_Node000060_Node000063"><a xlink:title=" ">
<path fill="none" stroke="#63b8ff" d="M528.59,-256.37C523,-255.2 517.38,-254.06 512,-253 422.09,-235.35 399.06,-233.86 309,-217 299.86,-215.29 290.07,-213.4 280.78,-211.57"/>
<polygon fill="#63b8ff" stroke="#63b8ff" points="528.05,-259.83 538.55,-258.48 529.49,-252.98 528.05,-259.83"/>
</a>
</g>
</g>
<!-- Node64 -->
<g id="Node000064" class="node">
<title>Node64</title>
<g id="a_Node000064"><a xlink:href="_cpl_2_t_shell_2_maker_8h.html" target="_top" xlink:title=" ">
<polygon fill="white" stroke="#666666" points="221.5,-145.5 114.5,-145.5 114.5,-126.5 221.5,-126.5 221.5,-145.5"/>
<text text-anchor="middle" x="168" y="-133.5" font-family="Helvetica,sans-Serif" font-size="10.00">Cpl/TShell/Maker.h</text>
</a>
</g>
</g>
<!-- Node63&#45;&gt;Node64 -->
<g id="edge50_Node000063_Node000064" class="edge">
<title>Node63&#45;&gt;Node64</title>
<g id="a_edge50_Node000063_Node000064"><a xlink:title=" ">
<path fill="none" stroke="#63b8ff" d="M220.86,-185.33C207.31,-172.94 188.87,-156.09 177.74,-145.91"/>
<polygon fill="#63b8ff" stroke="#63b8ff" points="218.82,-188.2 228.56,-192.37 223.54,-183.04 218.82,-188.2"/>
</a>
</g>
</g>
<!-- Node65 -->
<g id="Node000065" class="node">
<title>Node65</title>
<g id="a_Node000065"><a xlink:href="_polled_maker_8h.html" target="_top" xlink:title=" ">
<polygon fill="white" stroke="#666666" points="376.5,-145.5 239.5,-145.5 239.5,-126.5 376.5,-126.5 376.5,-145.5"/>
<text text-anchor="middle" x="308" y="-133.5" font-family="Helvetica,sans-Serif" font-size="10.00">Cpl/TShell/PolledMaker.h</text>
</a>
</g>
</g>
<!-- Node63&#45;&gt;Node65 -->
<g id="edge51_Node000063_Node000065" class="edge">
<title>Node63&#45;&gt;Node65</title>
<g id="a_edge51_Node000063_Node000065"><a xlink:title=" ">
<path fill="none" stroke="#63b8ff" d="M255.14,-185.33C268.69,-172.94 287.13,-156.09 298.26,-145.91"/>
<polygon fill="#63b8ff" stroke="#63b8ff" points="252.46,-183.04 247.44,-192.37 257.18,-188.2 252.46,-183.04"/>
</a>
</g>
</g>
<!-- Node68 -->
<g id="Node000068" class="node">
<title>Node68</title>
<g id="a_Node000068"><a xlink:href="_free_r_t_o_s_2_threads_8h.html" target="_top" xlink:title=" ">
<polygon fill="white" stroke="#666666" points="965,-217 825,-217 825,-187 965,-187 965,-217"/>
<text text-anchor="start" x="833" y="-205" font-family="Helvetica,sans-Serif" font-size="10.00">Cpl/TShell/Cmd/FreeRTOS</text>
<text text-anchor="middle" x="895" y="-194" font-family="Helvetica,sans-Serif" font-size="10.00">/Threads.h</text>
</a>
</g>
</g>
<!-- Node67&#45;&gt;Node68 -->
<g id="edge54_Node000067_Node000068" class="edge">
<title>Node67&#45;&gt;Node68</title>
<g id="a_edge54_Node000067_Node000068"><a xlink:title=" ">
<path fill="none" stroke="#63b8ff" d="M893.58,-248.35C893.89,-238.47 894.27,-226.51 894.55,-217.36"/>
<polygon fill="#63b8ff" stroke="#63b8ff" points="890.08,-248.26 893.27,-258.37 897.08,-248.48 890.08,-248.26"/>
</a>
</g>
</g>
<!-- Node69 -->
<g id="Node000069" class="node">
<title>Node69</title>
<g id="a_Node000069"><a xlink:href="_win32_2_threads_8h.html" target="_top" xlink:title=" ">
<polygon fill="white" stroke="#666666" points="806.5,-217 681.5,-217 681.5,-187 806.5,-187 806.5,-217"/>
<text text-anchor="start" x="689.5" y="-205" font-family="Helvetica,sans-Serif" font-size="10.00">Cpl/TShell/Cmd/Win32</text>
<text text-anchor="middle" x="744" y="-194" font-family="Helvetica,sans-Serif" font-size="10.00">/Threads.h</text>
</a>
</g>
</g>
<!-- Node67&#45;&gt;Node69 -->
<g id="edge55_Node000067_Node000069" class="edge">
<title>Node67&#45;&gt;Node69</title>
<g id="a_edge55_Node000067_Node000069"><a xlink:title=" ">
<path fill="none" stroke="#63b8ff" d="M863.58,-254.36C838.6,-243.63 802.78,-228.25 776.86,-217.12"/>
<polygon fill="#63b8ff" stroke="#63b8ff" points="862.34,-257.64 872.91,-258.37 865.1,-251.21 862.34,-257.64"/>
</a>
</g>
</g>
<!-- Node72&#45;&gt;Node70 -->
<g id="edge59_Node000072_Node000070" class="edge">
<title>Node72&#45;&gt;Node70</title>
<g id="a_edge59_Node000072_Node000070"><a xlink:title=" ">
<path fill="none" stroke="#63b8ff" d="M1169.57,-254.36C1140.21,-241.75 1095.88,-222.71 1070.25,-211.7"/>
<polygon fill="#63b8ff" stroke="#63b8ff" points="1168.34,-257.64 1178.91,-258.37 1171.1,-251.21 1168.34,-257.64"/>
</a>
</g>
</g>
</g>
</svg>
