<?xml version="1.0" encoding="UTF-8" standalone="no"?>
<!DOCTYPE svg PUBLIC "-//W3C//DTD SVG 1.1//EN"
 "http://www.w3.org/Graphics/SVG/1.1/DTD/svg11.dtd">
<!-- Generated by graphviz version 2.43.0 (0)
 -->
<!-- Title: Driver/TPipe/Tx.h Pages: 1 -->
<svg width="406pt" height="247pt"
 viewBox="0.00 0.00 406.00 247.00" xmlns="http://www.w3.org/2000/svg" xmlns:xlink="http://www.w3.org/1999/xlink">
<g id="graph0" class="graph" transform="scale(1 1) rotate(0) translate(4 243)">
<title>Driver/TPipe/Tx.h</title>
<!-- Node1 -->
<g id="Node000001" class="node">
<title>Node1</title>
<g id="a_Node000001"><a xlink:title=" ">
<polygon fill="#999999" stroke="#666666" points="377,-239 276,-239 276,-220 377,-220 377,-239"/>
<text text-anchor="middle" x="326.5" y="-227" font-family="Helvetica,sans-Serif" font-size="10.00">Driver/TPipe/Tx.h</text>
</a>
</g>
</g>
<!-- Node2 -->
<g id="Node000002" class="node">
<title>Node2</title>
<g id="a_Node000002"><a xlink:href="_text_2_string_8h.html" target="_top" xlink:title=" ">
<polygon fill="white" stroke="#666666" points="307.5,-184 211.5,-184 211.5,-165 307.5,-165 307.5,-184"/>
<text text-anchor="middle" x="259.5" y="-172" font-family="Helvetica,sans-Serif" font-size="10.00">Cpl/Text/String.h</text>
</a>
</g>
</g>
<!-- Node1&#45;&gt;Node2 -->
<g id="edge1_Node000001_Node000002" class="edge">
<title>Node1&#45;&gt;Node2</title>
<g id="a_edge1_Node000001_Node000002"><a xlink:title=" ">
<path fill="none" stroke="#63b8ff" d="M315.74,-219.98C305.73,-212.07 290.61,-200.11 278.57,-190.58"/>
<polygon fill="#63b8ff" stroke="#63b8ff" points="280.47,-187.63 270.46,-184.17 276.13,-193.12 280.47,-187.63"/>
</a>
</g>
</g>
<!-- Node9 -->
<g id="Node000009" class="node">
<title>Node9</title>
<g id="a_Node000009"><a xlink:title=" ">
<polygon fill="#e0e0e0" stroke="#999999" points="398,-74 345,-74 345,-55 398,-55 398,-74"/>
<text text-anchor="middle" x="371.5" y="-62" font-family="Helvetica,sans-Serif" font-size="10.00">string.h</text>
</a>
</g>
</g>
<!-- Node1&#45;&gt;Node9 -->
<g id="edge12_Node000001_Node000009" class="edge">
<title>Node1&#45;&gt;Node9</title>
<g id="a_edge12_Node000001_Node000009"><a xlink:title=" ">
<path fill="none" stroke="#63b8ff" d="M332.29,-219.94C343.16,-203.31 366.25,-165.09 374.5,-129 377.89,-114.19 376.76,-96.94 375,-84.16"/>
<polygon fill="#63b8ff" stroke="#63b8ff" points="378.45,-83.57 373.39,-74.26 371.54,-84.69 378.45,-83.57"/>
</a>
</g>
</g>
<!-- Node3 -->
<g id="Node000003" class="node">
<title>Node3</title>
<g id="a_Node000003"><a xlink:title=" ">
<polygon fill="#e0e0e0" stroke="#999999" points="85,-74 0,-74 0,-55 85,-55 85,-74"/>
<text text-anchor="middle" x="42.5" y="-62" font-family="Helvetica,sans-Serif" font-size="10.00">colony_map.h</text>
</a>
</g>
</g>
<!-- Node2&#45;&gt;Node3 -->
<g id="edge2_Node000002_Node000003" class="edge">
<title>Node2&#45;&gt;Node3</title>
<g id="a_edge2_Node000002_Node000003"><a xlink:title=" ">
<path fill="none" stroke="#63b8ff" d="M211.19,-168.88C175.91,-163.63 128.22,-152.51 92.5,-129 74.98,-117.47 60.87,-97.75 52.16,-83.34"/>
<polygon fill="#63b8ff" stroke="#63b8ff" points="55.03,-81.31 47.02,-74.38 48.96,-84.79 55.03,-81.31"/>
</a>
</g>
</g>
<!-- Node4 -->
<g id="Node000004" class="node">
<title>Node4</title>
<g id="a_Node000004"><a xlink:href="_key_8h.html" target="_top" xlink:title=" ">
<polygon fill="white" stroke="#666666" points="213,-129 102,-129 102,-110 213,-110 213,-129"/>
<text text-anchor="middle" x="157.5" y="-117" font-family="Helvetica,sans-Serif" font-size="10.00">Cpl/Container/Key.h</text>
</a>
</g>
</g>
<!-- Node2&#45;&gt;Node4 -->
<g id="edge3_Node000002_Node000004" class="edge">
<title>Node2&#45;&gt;Node4</title>
<g id="a_edge3_Node000002_Node000004"><a xlink:title=" ">
<path fill="none" stroke="#63b8ff" d="M243.11,-164.98C226.93,-156.57 201.93,-143.59 183.12,-133.81"/>
<polygon fill="#63b8ff" stroke="#63b8ff" points="184.67,-130.68 174.19,-129.17 181.45,-136.89 184.67,-130.68"/>
</a>
</g>
</g>
<!-- Node10 -->
<g id="Node000010" class="node">
<title>Node10</title>
<g id="a_Node000010"><a xlink:title=" ">
<polygon fill="#e0e0e0" stroke="#999999" points="287.5,-129 231.5,-129 231.5,-110 287.5,-110 287.5,-129"/>
<text text-anchor="middle" x="259.5" y="-117" font-family="Helvetica,sans-Serif" font-size="10.00">stdarg.h</text>
</a>
</g>
</g>
<!-- Node2&#45;&gt;Node10 -->
<g id="edge10_Node000002_Node000010" class="edge">
<title>Node2&#45;&gt;Node10</title>
<g id="a_edge10_Node000002_Node000010"><a xlink:title=" ">
<path fill="none" stroke="#63b8ff" d="M259.5,-164.75C259.5,-157.8 259.5,-147.85 259.5,-139.13"/>
<polygon fill="#63b8ff" stroke="#63b8ff" points="263,-139.09 259.5,-129.09 256,-139.09 263,-139.09"/>
</a>
</g>
</g>
<!-- Node11 -->
<g id="Node000011" class="node">
<title>Node11</title>
<g id="a_Node000011"><a xlink:title=" ">
<polygon fill="#e0e0e0" stroke="#999999" points="365.5,-129 305.5,-129 305.5,-110 365.5,-110 365.5,-129"/>
<text text-anchor="middle" x="335.5" y="-117" font-family="Helvetica,sans-Serif" font-size="10.00">iostream</text>
</a>
</g>
</g>
<!-- Node2&#45;&gt;Node11 -->
<g id="edge11_Node000002_Node000011" class="edge">
<title>Node2&#45;&gt;Node11</title>
<g id="a_edge11_Node000002_Node000011"><a xlink:title=" ">
<path fill="none" stroke="#63b8ff" d="M271.71,-164.98C283.28,-156.92 300.88,-144.65 314.66,-135.03"/>
<polygon fill="#63b8ff" stroke="#63b8ff" points="316.87,-137.76 323.07,-129.17 312.86,-132.02 316.87,-137.76"/>
</a>
</g>
</g>
<!-- Node4&#45;&gt;Node3 -->
<g id="edge9_Node000004_Node000003" class="edge">
<title>Node4&#45;&gt;Node3</title>
<g id="a_edge9_Node000004_Node000003"><a xlink:title=" ">
<path fill="none" stroke="#63b8ff" d="M139.02,-109.98C120.52,-101.46 91.82,-88.23 70.52,-78.41"/>
<polygon fill="#63b8ff" stroke="#63b8ff" points="71.86,-75.18 61.31,-74.17 68.93,-81.53 71.86,-75.18"/>
</a>
</g>
</g>
<!-- Node5 -->
<g id="Node000005" class="node">
<title>Node5</title>
<g id="a_Node000005"><a xlink:href="_fatal_error_8h.html" target="_top" xlink:title=" ">
<polygon fill="white" stroke="#666666" points="233.5,-74 103.5,-74 103.5,-55 233.5,-55 233.5,-74"/>
<text text-anchor="middle" x="168.5" y="-62" font-family="Helvetica,sans-Serif" font-size="10.00">Cpl/System/FatalError.h</text>
</a>
</g>
</g>
<!-- Node4&#45;&gt;Node5 -->
<g id="edge4_Node000004_Node000005" class="edge">
<title>Node4&#45;&gt;Node5</title>
<g id="a_edge4_Node000004_Node000005"><a xlink:title=" ">
<path fill="none" stroke="#63b8ff" d="M159.32,-109.75C160.76,-102.8 162.82,-92.85 164.63,-84.13"/>
<polygon fill="#63b8ff" stroke="#63b8ff" points="168.11,-84.59 166.72,-74.09 161.26,-83.17 168.11,-84.59"/>
</a>
</g>
</g>
<!-- Node8 -->
<g id="Node000008" class="node">
<title>Node8</title>
<g id="a_Node000008"><a xlink:title=" ">
<polygon fill="#e0e0e0" stroke="#999999" points="305,-74 252,-74 252,-55 305,-55 305,-74"/>
<text text-anchor="middle" x="278.5" y="-62" font-family="Helvetica,sans-Serif" font-size="10.00">stdint.h</text>
</a>
</g>
</g>
<!-- Node4&#45;&gt;Node8 -->
<g id="edge7_Node000004_Node000008" class="edge">
<title>Node4&#45;&gt;Node8</title>
<g id="a_edge7_Node000004_Node000008"><a xlink:title=" ">
<path fill="none" stroke="#63b8ff" d="M176.94,-109.98C196.49,-101.42 226.88,-88.11 249.32,-78.28"/>
<polygon fill="#63b8ff" stroke="#63b8ff" points="250.95,-81.39 258.71,-74.17 248.14,-74.98 250.95,-81.39"/>
</a>
</g>
</g>
<!-- Node4&#45;&gt;Node9 -->
<g id="edge8_Node000004_Node000009" class="edge">
<title>Node4&#45;&gt;Node9</title>
<g id="a_edge8_Node000004_Node000009"><a xlink:title=" ">
<path fill="none" stroke="#63b8ff" d="M191.88,-109.98C231.12,-100.27 295.02,-84.44 335.09,-74.52"/>
<polygon fill="#63b8ff" stroke="#63b8ff" points="336.11,-77.87 344.98,-72.07 334.43,-71.08 336.11,-77.87"/>
</a>
</g>
</g>
<!-- Node6 -->
<g id="Node000006" class="node">
<title>Node6</title>
<g id="a_Node000006"><a xlink:title=" ">
<polygon fill="#e0e0e0" stroke="#999999" points="150.5,-19 94.5,-19 94.5,0 150.5,0 150.5,-19"/>
<text text-anchor="middle" x="122.5" y="-7" font-family="Helvetica,sans-Serif" font-size="10.00">stddef.h</text>
</a>
</g>
</g>
<!-- Node5&#45;&gt;Node6 -->
<g id="edge5_Node000005_Node000006" class="edge">
<title>Node5&#45;&gt;Node6</title>
<g id="a_edge5_Node000005_Node000006"><a xlink:title=" ">
<path fill="none" stroke="#63b8ff" d="M160.9,-54.75C154.34,-47.18 144.68,-36.05 136.69,-26.84"/>
<polygon fill="#63b8ff" stroke="#63b8ff" points="139.15,-24.35 129.95,-19.09 133.87,-28.94 139.15,-24.35"/>
</a>
</g>
</g>
<!-- Node7 -->
<g id="Node000007" class="node">
<title>Node7</title>
<g id="a_Node000007"><a xlink:title=" ">
<polygon fill="#e0e0e0" stroke="#999999" points="260.5,-19 168.5,-19 168.5,0 260.5,0 260.5,-19"/>
<text text-anchor="middle" x="214.5" y="-7" font-family="Helvetica,sans-Serif" font-size="10.00">colony_config.h</text>
</a>
</g>
</g>
<!-- Node5&#45;&gt;Node7 -->
<g id="edge6_Node000005_Node000007" class="edge">
<title>Node5&#45;&gt;Node7</title>
<g id="a_edge6_Node000005_Node000007"><a xlink:title=" ">
<path fill="none" stroke="#63b8ff" d="M176.1,-54.75C182.66,-47.18 192.32,-36.05 200.31,-26.84"/>
<polygon fill="#63b8ff" stroke="#63b8ff" points="203.13,-28.94 207.05,-19.09 197.85,-24.35 203.13,-28.94"/>
</a>
</g>
</g>
</g>
</svg>
