<?xml version="1.0" encoding="UTF-8" standalone="no"?>
<!DOCTYPE svg PUBLIC "-//W3C//DTD SVG 1.1//EN"
 "http://www.w3.org/Graphics/SVG/1.1/DTD/svg11.dtd">
<!-- Generated by graphviz version 2.43.0 (0)
 -->
<!-- Title: Cpl/TShell/Cmd/Wait.h Pages: 1 -->
<svg width="596pt" height="467pt"
 viewBox="0.00 0.00 596.00 467.00" xmlns="http://www.w3.org/2000/svg" xmlns:xlink="http://www.w3.org/1999/xlink">
<g id="graph0" class="graph" transform="scale(1 1) rotate(0) translate(4 463)">
<title>Cpl/TShell/Cmd/Wait.h</title>
<!-- Node1 -->
<g id="Node000001" class="node">
<title>Node1</title>
<g id="a_Node000001"><a xlink:title=" ">
<polygon fill="#999999" stroke="#666666" points="499.5,-459 374.5,-459 374.5,-440 499.5,-440 499.5,-459"/>
<text text-anchor="middle" x="437" y="-447" font-family="Helvetica,sans-Serif" font-size="10.00">Cpl/TShell/Cmd/Wait.h</text>
</a>
</g>
</g>
<!-- Node2 -->
<g id="Node000002" class="node">
<title>Node2</title>
<g id="a_Node000002"><a xlink:title=" ">
<polygon fill="#e0e0e0" stroke="#999999" points="588,-19 496,-19 496,0 588,0 588,-19"/>
<text text-anchor="middle" x="542" y="-7" font-family="Helvetica,sans-Serif" font-size="10.00">colony_config.h</text>
</a>
</g>
</g>
<!-- Node1&#45;&gt;Node2 -->
<g id="edge1_Node000001_Node000002" class="edge">
<title>Node1&#45;&gt;Node2</title>
<g id="a_edge1_Node000001_Node000002"><a xlink:title=" ">
<path fill="none" stroke="#63b8ff" d="M468.74,-439.95C510.87,-426.46 580,-395.88 580,-340.5 580,-340.5 580,-340.5 580,-118.5 580,-85.02 563.55,-48.84 552.3,-28.01"/>
<polygon fill="#63b8ff" stroke="#63b8ff" points="555.24,-26.1 547.28,-19.1 549.13,-29.53 555.24,-26.1"/>
</a>
</g>
</g>
<!-- Node3 -->
<g id="Node000003" class="node">
<title>Node3</title>
<g id="a_Node000003"><a xlink:href="_cmd_2_command_8h.html" target="_top" xlink:title=" ">
<polygon fill="white" stroke="#666666" points="461.5,-404 308.5,-404 308.5,-385 461.5,-385 461.5,-404"/>
<text text-anchor="middle" x="385" y="-392" font-family="Helvetica,sans-Serif" font-size="10.00">Cpl/TShell/Cmd/Command.h</text>
</a>
</g>
</g>
<!-- Node1&#45;&gt;Node3 -->
<g id="edge2_Node000001_Node000003" class="edge">
<title>Node1&#45;&gt;Node3</title>
<g id="a_edge2_Node000001_Node000003"><a xlink:title=" ">
<path fill="none" stroke="#63b8ff" d="M428.41,-439.75C420.84,-432.03 409.62,-420.6 400.49,-411.28"/>
<polygon fill="#63b8ff" stroke="#63b8ff" points="402.93,-408.78 393.43,-404.09 397.93,-413.68 402.93,-408.78"/>
</a>
</g>
</g>
<!-- Node3&#45;&gt;Node2 -->
<g id="edge3_Node000003_Node000002" class="edge">
<title>Node3&#45;&gt;Node2</title>
<g id="a_edge3_Node000003_Node000002"><a xlink:title=" ">
<path fill="none" stroke="#63b8ff" d="M423.41,-384.96C469.89,-372.1 542,-342.9 542,-285.5 542,-285.5 542,-285.5 542,-118.5 542,-87.19 542,-50.77 542,-29.23"/>
<polygon fill="#63b8ff" stroke="#63b8ff" points="545.5,-29.18 542,-19.18 538.5,-29.18 545.5,-29.18"/>
</a>
</g>
</g>
<!-- Node4 -->
<g id="Node000004" class="node">
<title>Node4</title>
<g id="a_Node000004"><a xlink:href="_command_8h.html" target="_top" xlink:title=" ">
<polygon fill="white" stroke="#666666" points="264,-294 136,-294 136,-275 264,-275 264,-294"/>
<text text-anchor="middle" x="200" y="-282" font-family="Helvetica,sans-Serif" font-size="10.00">Cpl/TShell/Command.h</text>
</a>
</g>
</g>
<!-- Node3&#45;&gt;Node4 -->
<g id="edge4_Node000003_Node000004" class="edge">
<title>Node3&#45;&gt;Node4</title>
<g id="a_edge4_Node000003_Node000004"><a xlink:title=" ">
<path fill="none" stroke="#63b8ff" d="M308.37,-387.51C278.59,-381.63 246.14,-370.37 223,-349 210.49,-337.45 204.78,-318.58 202.17,-304.4"/>
<polygon fill="#63b8ff" stroke="#63b8ff" points="205.6,-303.65 200.67,-294.27 198.67,-304.67 205.6,-303.65"/>
</a>
</g>
</g>
<!-- Node19 -->
<g id="Node000019" class="node">
<title>Node19</title>
<g id="a_Node000019"><a xlink:href="_context___8h.html" target="_top" xlink:title=" ">
<polygon fill="white" stroke="#666666" points="352.5,-349 231.5,-349 231.5,-330 352.5,-330 352.5,-349"/>
<text text-anchor="middle" x="292" y="-337" font-family="Helvetica,sans-Serif" font-size="10.00">Cpl/TShell/Context_.h</text>
</a>
</g>
</g>
<!-- Node3&#45;&gt;Node19 -->
<g id="edge23_Node000003_Node000019" class="edge">
<title>Node3&#45;&gt;Node19</title>
<g id="a_edge23_Node000003_Node000019"><a xlink:title=" ">
<path fill="none" stroke="#63b8ff" d="M370.06,-384.98C355.5,-376.69 333.13,-363.94 316.07,-354.22"/>
<polygon fill="#63b8ff" stroke="#63b8ff" points="317.64,-351.08 307.21,-349.17 314.17,-357.16 317.64,-351.08"/>
</a>
</g>
</g>
<!-- Node5 -->
<g id="Node000005" class="node">
<title>Node5</title>
<g id="a_Node000005"><a xlink:href="_item_8h.html" target="_top" xlink:title=" ">
<polygon fill="white" stroke="#666666" points="151.5,-129 34.5,-129 34.5,-110 151.5,-110 151.5,-129"/>
<text text-anchor="middle" x="93" y="-117" font-family="Helvetica,sans-Serif" font-size="10.00">Cpl/Container/Item.h</text>
</a>
</g>
</g>
<!-- Node4&#45;&gt;Node5 -->
<g id="edge5_Node000004_Node000005" class="edge">
<title>Node4&#45;&gt;Node5</title>
<g id="a_edge5_Node000004_Node000005"><a xlink:title=" ">
<path fill="none" stroke="#63b8ff" d="M170.73,-274.95C152.53,-268.12 130.17,-256.71 117,-239 94.96,-209.34 91.88,-164.44 92.11,-139.28"/>
<polygon fill="#63b8ff" stroke="#63b8ff" points="95.61,-139.33 92.39,-129.24 88.61,-139.13 95.61,-139.33"/>
</a>
</g>
</g>
<!-- Node6 -->
<g id="Node000006" class="node">
<title>Node6</title>
<g id="a_Node000006"><a xlink:href="_output_8h.html" target="_top" xlink:title=" ">
<polygon fill="white" stroke="#666666" points="349.5,-239 260.5,-239 260.5,-220 349.5,-220 349.5,-239"/>
<text text-anchor="middle" x="305" y="-227" font-family="Helvetica,sans-Serif" font-size="10.00">Cpl/Io/Output.h</text>
</a>
</g>
</g>
<!-- Node4&#45;&gt;Node6 -->
<g id="edge6_Node000004_Node000006" class="edge">
<title>Node4&#45;&gt;Node6</title>
<g id="a_edge6_Node000004_Node000006"><a xlink:title=" ">
<path fill="none" stroke="#63b8ff" d="M216.87,-274.98C233.61,-266.54 259.5,-253.47 278.89,-243.68"/>
<polygon fill="#63b8ff" stroke="#63b8ff" points="280.47,-246.8 287.82,-239.17 277.32,-240.55 280.47,-246.8"/>
</a>
</g>
</g>
<!-- Node18 -->
<g id="Node000018" class="node">
<title>Node18</title>
<g id="a_Node000018"><a xlink:href="_security_8h.html" target="_top" xlink:title=" ">
<polygon fill="white" stroke="#666666" points="242,-239 126,-239 126,-220 242,-220 242,-239"/>
<text text-anchor="middle" x="184" y="-227" font-family="Helvetica,sans-Serif" font-size="10.00">Cpl/TShell/Security.h</text>
</a>
</g>
</g>
<!-- Node4&#45;&gt;Node18 -->
<g id="edge22_Node000004_Node000018" class="edge">
<title>Node4&#45;&gt;Node18</title>
<g id="a_edge22_Node000004_Node000018"><a xlink:title=" ">
<path fill="none" stroke="#63b8ff" d="M197.36,-274.75C195.24,-267.72 192.19,-257.62 189.54,-248.84"/>
<polygon fill="#63b8ff" stroke="#63b8ff" points="192.83,-247.65 186.59,-239.09 186.13,-249.67 192.83,-247.65"/>
</a>
</g>
</g>
<!-- Node7 -->
<g id="Node000007" class="node">
<title>Node7</title>
<g id="a_Node000007"><a xlink:href="_text_2_string_8h.html" target="_top" xlink:title=" ">
<polygon fill="white" stroke="#666666" points="461,-184 365,-184 365,-165 461,-165 461,-184"/>
<text text-anchor="middle" x="413" y="-172" font-family="Helvetica,sans-Serif" font-size="10.00">Cpl/Text/String.h</text>
</a>
</g>
</g>
<!-- Node6&#45;&gt;Node7 -->
<g id="edge7_Node000006_Node000007" class="edge">
<title>Node6&#45;&gt;Node7</title>
<g id="a_edge7_Node000006_Node000007"><a xlink:title=" ">
<path fill="none" stroke="#63b8ff" d="M322.35,-219.98C339.57,-211.54 366.2,-198.47 386.15,-188.68"/>
<polygon fill="#63b8ff" stroke="#63b8ff" points="387.9,-191.72 395.33,-184.17 384.81,-185.43 387.9,-191.72"/>
</a>
</g>
</g>
<!-- Node14 -->
<g id="Node000014" class="node">
<title>Node14</title>
<g id="a_Node000014"><a xlink:title=" ">
<polygon fill="#e0e0e0" stroke="#999999" points="226,-129 170,-129 170,-110 226,-110 226,-129"/>
<text text-anchor="middle" x="198" y="-117" font-family="Helvetica,sans-Serif" font-size="10.00">stdarg.h</text>
</a>
</g>
</g>
<!-- Node6&#45;&gt;Node14 -->
<g id="edge21_Node000006_Node000014" class="edge">
<title>Node6&#45;&gt;Node14</title>
<g id="a_edge21_Node000006_Node000014"><a xlink:title=" ">
<path fill="none" stroke="#63b8ff" d="M260.48,-221.39C220.73,-214.03 166.85,-201.18 154,-184 141.76,-167.63 159.69,-148.24 176.21,-135.23"/>
<polygon fill="#63b8ff" stroke="#63b8ff" points="178.59,-137.82 184.55,-129.06 174.43,-132.19 178.59,-137.82"/>
</a>
</g>
</g>
<!-- Node16 -->
<g id="Node000016" class="node">
<title>Node16</title>
<g id="a_Node000016"><a xlink:href="_close_8h.html" target="_top" xlink:title=" ">
<polygon fill="white" stroke="#666666" points="346.5,-184 263.5,-184 263.5,-165 346.5,-165 346.5,-184"/>
<text text-anchor="middle" x="305" y="-172" font-family="Helvetica,sans-Serif" font-size="10.00">Cpl/Io/Close.h</text>
</a>
</g>
</g>
<!-- Node6&#45;&gt;Node16 -->
<g id="edge18_Node000006_Node000016" class="edge">
<title>Node6&#45;&gt;Node16</title>
<g id="a_edge18_Node000006_Node000016"><a xlink:title=" ">
<path fill="none" stroke="#63b8ff" d="M305,-219.75C305,-212.8 305,-202.85 305,-194.13"/>
<polygon fill="#63b8ff" stroke="#63b8ff" points="308.5,-194.09 305,-184.09 301.5,-194.09 308.5,-194.09"/>
</a>
</g>
</g>
<!-- Node17 -->
<g id="Node000017" class="node">
<title>Node17</title>
<g id="a_Node000017"><a xlink:href="_is_eos_8h.html" target="_top" xlink:title=" ">
<polygon fill="white" stroke="#666666" points="245,-184 163,-184 163,-165 245,-165 245,-184"/>
<text text-anchor="middle" x="204" y="-172" font-family="Helvetica,sans-Serif" font-size="10.00">Cpl/Io/IsEos.h</text>
</a>
</g>
</g>
<!-- Node6&#45;&gt;Node17 -->
<g id="edge20_Node000006_Node000017" class="edge">
<title>Node6&#45;&gt;Node17</title>
<g id="a_edge20_Node000006_Node000017"><a xlink:title=" ">
<path fill="none" stroke="#63b8ff" d="M288.77,-219.98C272.82,-211.61 248.22,-198.7 229.62,-188.95"/>
<polygon fill="#63b8ff" stroke="#63b8ff" points="231,-185.72 220.52,-184.17 227.75,-191.92 231,-185.72"/>
</a>
</g>
</g>
<!-- Node8 -->
<g id="Node000008" class="node">
<title>Node8</title>
<g id="a_Node000008"><a xlink:title=" ">
<polygon fill="#e0e0e0" stroke="#999999" points="222.5,-74 137.5,-74 137.5,-55 222.5,-55 222.5,-74"/>
<text text-anchor="middle" x="180" y="-62" font-family="Helvetica,sans-Serif" font-size="10.00">colony_map.h</text>
</a>
</g>
</g>
<!-- Node7&#45;&gt;Node8 -->
<g id="edge8_Node000007_Node000008" class="edge">
<title>Node7&#45;&gt;Node8</title>
<g id="a_edge8_Node000007_Node000008"><a xlink:title=" ">
<path fill="none" stroke="#63b8ff" d="M376.21,-164.95C347.3,-157.49 306.47,-145.31 273,-129 245.21,-115.46 216.27,-94.42 198.2,-80.31"/>
<polygon fill="#63b8ff" stroke="#63b8ff" points="200.27,-77.48 190.26,-74 195.91,-82.96 200.27,-77.48"/>
</a>
</g>
</g>
<!-- Node9 -->
<g id="Node000009" class="node">
<title>Node9</title>
<g id="a_Node000009"><a xlink:href="_key_8h.html" target="_top" xlink:title=" ">
<polygon fill="white" stroke="#666666" points="471.5,-129 360.5,-129 360.5,-110 471.5,-110 471.5,-129"/>
<text text-anchor="middle" x="416" y="-117" font-family="Helvetica,sans-Serif" font-size="10.00">Cpl/Container/Key.h</text>
</a>
</g>
</g>
<!-- Node7&#45;&gt;Node9 -->
<g id="edge9_Node000007_Node000009" class="edge">
<title>Node7&#45;&gt;Node9</title>
<g id="a_edge9_Node000007_Node000009"><a xlink:title=" ">
<path fill="none" stroke="#63b8ff" d="M413.5,-164.75C413.89,-157.8 414.45,-147.85 414.95,-139.13"/>
<polygon fill="#63b8ff" stroke="#63b8ff" points="418.44,-139.27 415.51,-129.09 411.45,-138.88 418.44,-139.27"/>
</a>
</g>
</g>
<!-- Node7&#45;&gt;Node14 -->
<g id="edge16_Node000007_Node000014" class="edge">
<title>Node7&#45;&gt;Node14</title>
<g id="a_edge16_Node000007_Node000014"><a xlink:title=" ">
<path fill="none" stroke="#63b8ff" d="M378.46,-164.98C339.5,-155.38 276.34,-139.81 236.01,-129.87"/>
<polygon fill="#63b8ff" stroke="#63b8ff" points="236.83,-126.47 226.28,-127.47 235.15,-133.26 236.83,-126.47"/>
</a>
</g>
</g>
<!-- Node15 -->
<g id="Node000015" class="node">
<title>Node15</title>
<g id="a_Node000015"><a xlink:title=" ">
<polygon fill="#e0e0e0" stroke="#999999" points="342,-129 282,-129 282,-110 342,-110 342,-129"/>
<text text-anchor="middle" x="312" y="-117" font-family="Helvetica,sans-Serif" font-size="10.00">iostream</text>
</a>
</g>
</g>
<!-- Node7&#45;&gt;Node15 -->
<g id="edge17_Node000007_Node000015" class="edge">
<title>Node7&#45;&gt;Node15</title>
<g id="a_edge17_Node000007_Node000015"><a xlink:title=" ">
<path fill="none" stroke="#63b8ff" d="M396.77,-164.98C380.82,-156.61 356.22,-143.7 337.62,-133.95"/>
<polygon fill="#63b8ff" stroke="#63b8ff" points="339,-130.72 328.52,-129.17 335.75,-136.92 339,-130.72"/>
</a>
</g>
</g>
<!-- Node9&#45;&gt;Node8 -->
<g id="edge15_Node000009_Node000008" class="edge">
<title>Node9&#45;&gt;Node8</title>
<g id="a_edge15_Node000009_Node000008"><a xlink:title=" ">
<path fill="none" stroke="#63b8ff" d="M378.08,-109.98C337.35,-100.84 272.5,-86.27 228.18,-76.32"/>
<polygon fill="#63b8ff" stroke="#63b8ff" points="228.74,-72.86 218.21,-74.08 227.2,-79.69 228.74,-72.86"/>
</a>
</g>
</g>
<!-- Node10 -->
<g id="Node000010" class="node">
<title>Node10</title>
<g id="a_Node000010"><a xlink:href="_fatal_error_8h.html" target="_top" xlink:title=" ">
<polygon fill="white" stroke="#666666" points="371,-74 241,-74 241,-55 371,-55 371,-74"/>
<text text-anchor="middle" x="306" y="-62" font-family="Helvetica,sans-Serif" font-size="10.00">Cpl/System/FatalError.h</text>
</a>
</g>
</g>
<!-- Node9&#45;&gt;Node10 -->
<g id="edge10_Node000009_Node000010" class="edge">
<title>Node9&#45;&gt;Node10</title>
<g id="a_edge10_Node000009_Node000010"><a xlink:title=" ">
<path fill="none" stroke="#63b8ff" d="M398.33,-109.98C380.71,-101.5 353.42,-88.35 333.07,-78.54"/>
<polygon fill="#63b8ff" stroke="#63b8ff" points="334.52,-75.36 323.99,-74.17 331.48,-81.66 334.52,-75.36"/>
</a>
</g>
</g>
<!-- Node12 -->
<g id="Node000012" class="node">
<title>Node12</title>
<g id="a_Node000012"><a xlink:title=" ">
<polygon fill="#e0e0e0" stroke="#999999" points="442.5,-74 389.5,-74 389.5,-55 442.5,-55 442.5,-74"/>
<text text-anchor="middle" x="416" y="-62" font-family="Helvetica,sans-Serif" font-size="10.00">stdint.h</text>
</a>
</g>
</g>
<!-- Node9&#45;&gt;Node12 -->
<g id="edge13_Node000009_Node000012" class="edge">
<title>Node9&#45;&gt;Node12</title>
<g id="a_edge13_Node000009_Node000012"><a xlink:title=" ">
<path fill="none" stroke="#63b8ff" d="M416,-109.75C416,-102.8 416,-92.85 416,-84.13"/>
<polygon fill="#63b8ff" stroke="#63b8ff" points="419.5,-84.09 416,-74.09 412.5,-84.09 419.5,-84.09"/>
</a>
</g>
</g>
<!-- Node13 -->
<g id="Node000013" class="node">
<title>Node13</title>
<g id="a_Node000013"><a xlink:title=" ">
<polygon fill="#e0e0e0" stroke="#999999" points="513.5,-74 460.5,-74 460.5,-55 513.5,-55 513.5,-74"/>
<text text-anchor="middle" x="487" y="-62" font-family="Helvetica,sans-Serif" font-size="10.00">string.h</text>
</a>
</g>
</g>
<!-- Node9&#45;&gt;Node13 -->
<g id="edge14_Node000009_Node000013" class="edge">
<title>Node9&#45;&gt;Node13</title>
<g id="a_edge14_Node000009_Node000013"><a xlink:title=" ">
<path fill="none" stroke="#63b8ff" d="M427.41,-109.98C438.11,-102 454.34,-89.88 467.16,-80.31"/>
<polygon fill="#63b8ff" stroke="#63b8ff" points="469.47,-82.96 475.39,-74.17 465.28,-77.35 469.47,-82.96"/>
</a>
</g>
</g>
<!-- Node10&#45;&gt;Node2 -->
<g id="edge12_Node000010_Node000002" class="edge">
<title>Node10&#45;&gt;Node2</title>
<g id="a_edge12_Node000010_Node000002"><a xlink:title=" ">
<path fill="none" stroke="#63b8ff" d="M343.92,-54.98C384.65,-45.84 449.5,-31.27 493.82,-21.32"/>
<polygon fill="#63b8ff" stroke="#63b8ff" points="494.8,-24.69 503.79,-19.08 493.26,-17.86 494.8,-24.69"/>
</a>
</g>
</g>
<!-- Node11 -->
<g id="Node000011" class="node">
<title>Node11</title>
<g id="a_Node000011"><a xlink:title=" ">
<polygon fill="#e0e0e0" stroke="#999999" points="334,-19 278,-19 278,0 334,0 334,-19"/>
<text text-anchor="middle" x="306" y="-7" font-family="Helvetica,sans-Serif" font-size="10.00">stddef.h</text>
</a>
</g>
</g>
<!-- Node10&#45;&gt;Node11 -->
<g id="edge11_Node000010_Node000011" class="edge">
<title>Node10&#45;&gt;Node11</title>
<g id="a_edge11_Node000010_Node000011"><a xlink:title=" ">
<path fill="none" stroke="#63b8ff" d="M306,-54.75C306,-47.8 306,-37.85 306,-29.13"/>
<polygon fill="#63b8ff" stroke="#63b8ff" points="309.5,-29.09 306,-19.09 302.5,-29.09 309.5,-29.09"/>
</a>
</g>
</g>
<!-- Node16&#45;&gt;Node5 -->
<g id="edge19_Node000016_Node000005" class="edge">
<title>Node16&#45;&gt;Node5</title>
<g id="a_edge19_Node000016_Node000005"><a xlink:title=" ">
<path fill="none" stroke="#63b8ff" d="M270.94,-164.98C234.58,-155.89 176.83,-141.46 137.03,-131.51"/>
<polygon fill="#63b8ff" stroke="#63b8ff" points="137.88,-128.11 127.33,-129.08 136.18,-134.9 137.88,-128.11"/>
</a>
</g>
</g>
<!-- Node19&#45;&gt;Node4 -->
<g id="edge31_Node000019_Node000004" class="edge">
<title>Node19&#45;&gt;Node4</title>
<g id="a_edge31_Node000019_Node000004"><a xlink:title=" ">
<path fill="none" stroke="#63b8ff" d="M277.22,-329.98C262.82,-321.69 240.69,-308.94 223.81,-299.22"/>
<polygon fill="#63b8ff" stroke="#63b8ff" points="225.46,-296.13 215.05,-294.17 221.97,-302.19 225.46,-296.13"/>
</a>
</g>
</g>
<!-- Node19&#45;&gt;Node18 -->
<g id="edge30_Node000019_Node000018" class="edge">
<title>Node19&#45;&gt;Node18</title>
<g id="a_edge30_Node000019_Node000018"><a xlink:title=" ">
<path fill="none" stroke="#63b8ff" d="M291.53,-329.67C290.39,-316.36 286.47,-291.03 273,-275 260.55,-260.19 241.95,-249.82 224.98,-242.84"/>
<polygon fill="#63b8ff" stroke="#63b8ff" points="225.82,-239.41 215.23,-239.11 223.32,-245.95 225.82,-239.41"/>
</a>
</g>
</g>
<!-- Node20 -->
<g id="Node000020" class="node">
<title>Node20</title>
<g id="a_Node000020"><a xlink:href="_processor_api_8h.html" target="_top" xlink:title=" ">
<polygon fill="white" stroke="#666666" points="460,-294 320,-294 320,-275 460,-275 460,-294"/>
<text text-anchor="middle" x="390" y="-282" font-family="Helvetica,sans-Serif" font-size="10.00">Cpl/TShell/ProcessorApi.h</text>
</a>
</g>
</g>
<!-- Node19&#45;&gt;Node20 -->
<g id="edge24_Node000019_Node000020" class="edge">
<title>Node19&#45;&gt;Node20</title>
<g id="a_edge24_Node000019_Node000020"><a xlink:title=" ">
<path fill="none" stroke="#63b8ff" d="M307.75,-329.98C323.23,-321.61 347.09,-308.7 365.14,-298.95"/>
<polygon fill="#63b8ff" stroke="#63b8ff" points="366.84,-302.01 373.97,-294.17 363.51,-295.85 366.84,-302.01"/>
</a>
</g>
</g>
<!-- Node22 -->
<g id="Node000022" class="node">
<title>Node22</title>
<g id="a_Node000022"><a xlink:href="_s_list_8h.html" target="_top" xlink:title=" ">
<polygon fill="white" stroke="#666666" points="118,-294 0,-294 0,-275 118,-275 118,-294"/>
<text text-anchor="middle" x="59" y="-282" font-family="Helvetica,sans-Serif" font-size="10.00">Cpl/Container/SList.h</text>
</a>
</g>
</g>
<!-- Node19&#45;&gt;Node22 -->
<g id="edge32_Node000019_Node000022" class="edge">
<title>Node19&#45;&gt;Node22</title>
<g id="a_edge32_Node000019_Node000022"><a xlink:title=" ">
<path fill="none" stroke="#63b8ff" d="M254.56,-329.98C214.35,-320.84 150.32,-306.27 106.56,-296.32"/>
<polygon fill="#63b8ff" stroke="#63b8ff" points="107.26,-292.89 96.73,-294.08 105.7,-299.71 107.26,-292.89"/>
</a>
</g>
</g>
<!-- Node20&#45;&gt;Node6 -->
<g id="edge29_Node000020_Node000006" class="edge">
<title>Node20&#45;&gt;Node6</title>
<g id="a_edge29_Node000020_Node000006"><a xlink:title=" ">
<path fill="none" stroke="#63b8ff" d="M376.34,-274.98C363.16,-266.77 342.97,-254.18 327.43,-244.49"/>
<polygon fill="#63b8ff" stroke="#63b8ff" points="329.24,-241.49 318.91,-239.17 325.54,-247.43 329.24,-241.49"/>
</a>
</g>
</g>
<!-- Node21 -->
<g id="Node000021" class="node">
<title>Node21</title>
<g id="a_Node000021"><a xlink:href="_input_8h.html" target="_top" xlink:title=" ">
<polygon fill="white" stroke="#666666" points="448.5,-239 367.5,-239 367.5,-220 448.5,-220 448.5,-239"/>
<text text-anchor="middle" x="408" y="-227" font-family="Helvetica,sans-Serif" font-size="10.00">Cpl/Io/Input.h</text>
</a>
</g>
</g>
<!-- Node20&#45;&gt;Node21 -->
<g id="edge25_Node000020_Node000021" class="edge">
<title>Node20&#45;&gt;Node21</title>
<g id="a_edge25_Node000020_Node000021"><a xlink:title=" ">
<path fill="none" stroke="#63b8ff" d="M392.97,-274.75C395.36,-267.72 398.79,-257.62 401.77,-248.84"/>
<polygon fill="#63b8ff" stroke="#63b8ff" points="405.18,-249.68 405.08,-239.09 398.55,-247.43 405.18,-249.68"/>
</a>
</g>
</g>
<!-- Node21&#45;&gt;Node7 -->
<g id="edge26_Node000021_Node000007" class="edge">
<title>Node21&#45;&gt;Node7</title>
<g id="a_edge26_Node000021_Node000007"><a xlink:title=" ">
<path fill="none" stroke="#63b8ff" d="M408.83,-219.75C409.48,-212.8 410.42,-202.85 411.24,-194.13"/>
<polygon fill="#63b8ff" stroke="#63b8ff" points="414.73,-194.37 412.19,-184.09 407.77,-193.72 414.73,-194.37"/>
</a>
</g>
</g>
<!-- Node21&#45;&gt;Node16 -->
<g id="edge27_Node000021_Node000016" class="edge">
<title>Node21&#45;&gt;Node16</title>
<g id="a_edge27_Node000021_Node000016"><a xlink:title=" ">
<path fill="none" stroke="#63b8ff" d="M391.45,-219.98C375.11,-211.57 349.87,-198.59 330.87,-188.81"/>
<polygon fill="#63b8ff" stroke="#63b8ff" points="332.34,-185.63 321.85,-184.17 329.14,-191.86 332.34,-185.63"/>
</a>
</g>
</g>
<!-- Node21&#45;&gt;Node17 -->
<g id="edge28_Node000021_Node000017" class="edge">
<title>Node21&#45;&gt;Node17</title>
<g id="a_edge28_Node000021_Node000017"><a xlink:title=" ">
<path fill="none" stroke="#63b8ff" d="M375.22,-219.98C340.38,-210.93 285.13,-196.58 246.86,-186.64"/>
<polygon fill="#63b8ff" stroke="#63b8ff" points="247.59,-183.21 237.03,-184.08 245.83,-189.98 247.59,-183.21"/>
</a>
</g>
</g>
<!-- Node22&#45;&gt;Node5 -->
<g id="edge33_Node000022_Node000005" class="edge">
<title>Node22&#45;&gt;Node5</title>
<g id="a_edge33_Node000022_Node000005"><a xlink:title=" ">
<path fill="none" stroke="#63b8ff" d="M60.68,-274.86C64.51,-255.29 74.23,-206.06 83,-165 84.84,-156.38 86.97,-146.83 88.8,-138.8"/>
<polygon fill="#63b8ff" stroke="#63b8ff" points="92.22,-139.55 91.03,-129.02 85.39,-137.99 92.22,-139.55"/>
</a>
</g>
</g>
</g>
</svg>
