<?xml version="1.0" encoding="UTF-8" standalone="no"?>
<!DOCTYPE svg PUBLIC "-//W3C//DTD SVG 1.1//EN"
 "http://www.w3.org/Graphics/SVG/1.1/DTD/svg11.dtd">
<!-- Generated by graphviz version 2.43.0 (0)
 -->
<!-- Title: Cpl/Text/atob.h Pages: 1 -->
<svg width="1251pt" height="335pt"
 viewBox="0.00 0.00 1250.50 335.00" xmlns="http://www.w3.org/2000/svg" xmlns:xlink="http://www.w3.org/1999/xlink">
<g id="graph0" class="graph" transform="scale(1 1) rotate(0) translate(4 331)">
<title>Cpl/Text/atob.h</title>
<!-- Node1 -->
<g id="Node000001" class="node">
<title>Node1</title>
<g id="a_Node000001"><a xlink:title="This file contains a collection of methods that wrap the standard C library functions for converting ...">
<polygon fill="#999999" stroke="#666666" points="263.5,-327 174.5,-327 174.5,-308 263.5,-308 263.5,-327"/>
<text text-anchor="middle" x="219" y="-315" font-family="Helvetica,sans-Serif" font-size="10.00">Cpl/Text/atob.h</text>
</a>
</g>
</g>
<!-- Node2 -->
<g id="Node000002" class="node">
<title>Node2</title>
<g id="a_Node000002"><a xlink:href="_bit_array16_8h.html" target="_top" xlink:title=" ">
<polygon fill="white" stroke="#666666" points="134,-217 0,-217 0,-198 134,-198 134,-217"/>
<text text-anchor="middle" x="67" y="-205" font-family="Helvetica,sans-Serif" font-size="10.00">Cpl/Dm/Mp/BitArray16.h</text>
</a>
</g>
</g>
<!-- Node1&#45;&gt;Node2 -->
<g id="edge1_Node000001_Node000002" class="edge">
<title>Node1&#45;&gt;Node2</title>
<g id="a_edge1_Node000001_Node000002"><a xlink:title=" ">
<path fill="none" stroke="#63b8ff" d="M198.6,-302.01C166.53,-279.22 105.31,-235.72 79.24,-217.2"/>
<polygon fill="#63b8ff" stroke="#63b8ff" points="196.64,-304.91 206.82,-307.84 200.69,-299.2 196.64,-304.91"/>
</a>
</g>
</g>
<!-- Node3 -->
<g id="Node000003" class="node">
<title>Node3</title>
<g id="a_Node000003"><a xlink:href="_bit_array32_8h.html" target="_top" xlink:title=" ">
<polygon fill="white" stroke="#666666" points="286,-217 152,-217 152,-198 286,-198 286,-217"/>
<text text-anchor="middle" x="219" y="-205" font-family="Helvetica,sans-Serif" font-size="10.00">Cpl/Dm/Mp/BitArray32.h</text>
</a>
</g>
</g>
<!-- Node1&#45;&gt;Node3 -->
<g id="edge2_Node000001_Node000003" class="edge">
<title>Node1&#45;&gt;Node3</title>
<g id="a_edge2_Node000001_Node000003"><a xlink:title=" ">
<path fill="none" stroke="#63b8ff" d="M219,-297.48C219,-273.84 219,-234.5 219,-217.16"/>
<polygon fill="#63b8ff" stroke="#63b8ff" points="215.5,-297.66 219,-307.66 222.5,-297.66 215.5,-297.66"/>
</a>
</g>
</g>
<!-- Node4 -->
<g id="Node000004" class="node">
<title>Node4</title>
<g id="a_Node000004"><a xlink:href="_numeric_8h.html" target="_top" xlink:title=" ">
<polygon fill="white" stroke="#666666" points="612,-272 488,-272 488,-253 612,-253 612,-272"/>
<text text-anchor="middle" x="550" y="-260" font-family="Helvetica,sans-Serif" font-size="10.00">Cpl/Dm/Mp/Numeric.h</text>
</a>
</g>
</g>
<!-- Node1&#45;&gt;Node4 -->
<g id="edge3_Node000001_Node000004" class="edge">
<title>Node1&#45;&gt;Node4</title>
<g id="a_edge3_Node000001_Node000004"><a xlink:title=" ">
<path fill="none" stroke="#63b8ff" d="M273.6,-307.76C335.43,-297.86 435.52,-281.83 496.78,-272.02"/>
<polygon fill="#63b8ff" stroke="#63b8ff" points="272.96,-304.32 263.64,-309.35 274.07,-311.23 272.96,-304.32"/>
</a>
</g>
</g>
<!-- Node4&#45;&gt;Node2 -->
<g id="edge4_Node000004_Node000002" class="edge">
<title>Node4&#45;&gt;Node2</title>
<g id="a_edge4_Node000004_Node000002"><a xlink:title=" ">
<path fill="none" stroke="#63b8ff" d="M477.8,-253.66C396.44,-244.81 260.21,-229.96 143,-217 140.1,-216.68 137.13,-216.35 134.14,-216.02"/>
<polygon fill="#63b8ff" stroke="#63b8ff" points="477.62,-257.16 487.94,-254.76 478.37,-250.2 477.62,-257.16"/>
</a>
</g>
</g>
<!-- Node4&#45;&gt;Node3 -->
<g id="edge5_Node000004_Node000003" class="edge">
<title>Node4&#45;&gt;Node3</title>
<g id="a_edge5_Node000004_Node000003"><a xlink:title=" ">
<path fill="none" stroke="#63b8ff" d="M486.74,-251.37C424.59,-241.42 330.8,-226.4 272.32,-217.04"/>
<polygon fill="#63b8ff" stroke="#63b8ff" points="486.39,-254.86 496.82,-252.98 487.5,-247.95 486.39,-254.86"/>
</a>
</g>
</g>
<!-- Node5 -->
<g id="Node000005" class="node">
<title>Node5</title>
<g id="a_Node000005"><a xlink:href="_double_8h.html" target="_top" xlink:title=" ">
<polygon fill="white" stroke="#666666" points="543.5,-217 426.5,-217 426.5,-198 543.5,-198 543.5,-217"/>
<text text-anchor="middle" x="485" y="-205" font-family="Helvetica,sans-Serif" font-size="10.00">Cpl/Dm/Mp/Double.h</text>
</a>
</g>
</g>
<!-- Node4&#45;&gt;Node5 -->
<g id="edge6_Node000004_Node000005" class="edge">
<title>Node4&#45;&gt;Node5</title>
<g id="a_edge6_Node000004_Node000005"><a xlink:title=" ">
<path fill="none" stroke="#63b8ff" d="M531.73,-246.6C520.08,-237.11 505.4,-225.13 495.63,-217.17"/>
<polygon fill="#63b8ff" stroke="#63b8ff" points="529.59,-249.38 539.56,-252.98 534.02,-243.95 529.59,-249.38"/>
</a>
</g>
</g>
<!-- Node6 -->
<g id="Node000006" class="node">
<title>Node6</title>
<g id="a_Node000006"><a xlink:href="_float_8h.html" target="_top" xlink:title=" ">
<polygon fill="white" stroke="#666666" points="668.5,-217 561.5,-217 561.5,-198 668.5,-198 668.5,-217"/>
<text text-anchor="middle" x="615" y="-205" font-family="Helvetica,sans-Serif" font-size="10.00">Cpl/Dm/Mp/Float.h</text>
</a>
</g>
</g>
<!-- Node4&#45;&gt;Node6 -->
<g id="edge7_Node000004_Node000006" class="edge">
<title>Node4&#45;&gt;Node6</title>
<g id="a_edge7_Node000004_Node000006"><a xlink:title=" ">
<path fill="none" stroke="#63b8ff" d="M568.27,-246.6C579.92,-237.11 594.6,-225.13 604.37,-217.17"/>
<polygon fill="#63b8ff" stroke="#63b8ff" points="565.98,-243.95 560.44,-252.98 570.41,-249.38 565.98,-243.95"/>
</a>
</g>
</g>
<!-- Node9 -->
<g id="Node000009" class="node">
<title>Node9</title>
<g id="a_Node000009"><a xlink:href="_int32_8h.html" target="_top" xlink:title=" ">
<polygon fill="white" stroke="#666666" points="793.5,-217 686.5,-217 686.5,-198 793.5,-198 793.5,-217"/>
<text text-anchor="middle" x="740" y="-205" font-family="Helvetica,sans-Serif" font-size="10.00">Cpl/Dm/Mp/Int32.h</text>
</a>
</g>
</g>
<!-- Node4&#45;&gt;Node9 -->
<g id="edge10_Node000004_Node000009" class="edge">
<title>Node4&#45;&gt;Node9</title>
<g id="a_edge10_Node000004_Node000009"><a xlink:title=" ">
<path fill="none" stroke="#63b8ff" d="M590.57,-250.18C626.1,-240.27 676.97,-226.08 709.23,-217.08"/>
<polygon fill="#63b8ff" stroke="#63b8ff" points="589.22,-246.93 580.53,-252.98 591.1,-253.67 589.22,-246.93"/>
</a>
</g>
</g>
<!-- Node10 -->
<g id="Node000010" class="node">
<title>Node10</title>
<g id="a_Node000010"><a xlink:href="_int64_8h.html" target="_top" xlink:title=" ">
<polygon fill="white" stroke="#666666" points="918.5,-217 811.5,-217 811.5,-198 918.5,-198 918.5,-217"/>
<text text-anchor="middle" x="865" y="-205" font-family="Helvetica,sans-Serif" font-size="10.00">Cpl/Dm/Mp/Int64.h</text>
</a>
</g>
</g>
<!-- Node4&#45;&gt;Node10 -->
<g id="edge11_Node000004_Node000010" class="edge">
<title>Node4&#45;&gt;Node10</title>
<g id="a_edge11_Node000004_Node000010"><a xlink:title=" ">
<path fill="none" stroke="#63b8ff" d="M610.56,-251.31C669.72,-241.36 758.71,-226.38 814.25,-217.04"/>
<polygon fill="#63b8ff" stroke="#63b8ff" points="609.89,-247.87 600.61,-252.98 611.05,-254.78 609.89,-247.87"/>
</a>
</g>
</g>
<!-- Node11 -->
<g id="Node000011" class="node">
<title>Node11</title>
<g id="a_Node000011"><a xlink:href="_uint32_8h.html" target="_top" xlink:title=" ">
<polygon fill="white" stroke="#666666" points="1051.5,-217 936.5,-217 936.5,-198 1051.5,-198 1051.5,-217"/>
<text text-anchor="middle" x="994" y="-205" font-family="Helvetica,sans-Serif" font-size="10.00">Cpl/Dm/Mp/Uint32.h</text>
</a>
</g>
</g>
<!-- Node4&#45;&gt;Node11 -->
<g id="edge12_Node000004_Node000011" class="edge">
<title>Node4&#45;&gt;Node11</title>
<g id="a_edge12_Node000004_Node000011"><a xlink:title=" ">
<path fill="none" stroke="#63b8ff" d="M622.46,-253.14C698.38,-244.33 821.1,-229.97 927,-217 930.03,-216.63 933.13,-216.25 936.26,-215.86"/>
<polygon fill="#63b8ff" stroke="#63b8ff" points="621.59,-249.71 612.06,-254.34 622.4,-256.67 621.59,-249.71"/>
</a>
</g>
</g>
<!-- Node17 -->
<g id="Node000017" class="node">
<title>Node17</title>
<g id="a_Node000017"><a xlink:href="_uint64_8h.html" target="_top" xlink:title=" ">
<polygon fill="white" stroke="#666666" points="1204.5,-217 1089.5,-217 1089.5,-198 1204.5,-198 1204.5,-217"/>
<text text-anchor="middle" x="1147" y="-205" font-family="Helvetica,sans-Serif" font-size="10.00">Cpl/Dm/Mp/Uint64.h</text>
</a>
</g>
</g>
<!-- Node4&#45;&gt;Node17 -->
<g id="edge19_Node000004_Node000017" class="edge">
<title>Node4&#45;&gt;Node17</title>
<g id="a_edge19_Node000004_Node000017"><a xlink:title=" ">
<path fill="none" stroke="#63b8ff" d="M622.21,-255.44C721.05,-247.08 904.01,-231.43 1060,-217 1069.52,-216.12 1079.62,-215.16 1089.45,-214.21"/>
<polygon fill="#63b8ff" stroke="#63b8ff" points="621.71,-251.97 612.04,-256.3 622.3,-258.94 621.71,-251.97"/>
</a>
</g>
</g>
<!-- Node19 -->
<g id="Node000019" class="node">
<title>Node19</title>
<g id="a_Node000019"><a xlink:href="_void_8h.html" target="_top" xlink:title=" ">
<polygon fill="white" stroke="#666666" points="408,-217 304,-217 304,-198 408,-198 408,-217"/>
<text text-anchor="middle" x="356" y="-205" font-family="Helvetica,sans-Serif" font-size="10.00">Cpl/Dm/Mp/Void.h</text>
</a>
</g>
</g>
<!-- Node4&#45;&gt;Node19 -->
<g id="edge22_Node000004_Node000019" class="edge">
<title>Node4&#45;&gt;Node19</title>
<g id="a_edge22_Node000004_Node000019"><a xlink:title=" ">
<path fill="none" stroke="#63b8ff" d="M509.04,-250.31C472.74,-240.39 420.5,-226.12 387.41,-217.08"/>
<polygon fill="#63b8ff" stroke="#63b8ff" points="508.26,-253.73 518.83,-252.98 510.11,-246.97 508.26,-253.73"/>
</a>
</g>
</g>
<!-- Node7 -->
<g id="Node000007" class="node">
<title>Node7</title>
<g id="a_Node000007"><a xlink:href="_cpl_2_m_app_2_temperature_2_api_8h.html" target="_top" xlink:title=" ">
<polygon fill="white" stroke="#666666" points="602,-162 474,-162 474,-132 602,-132 602,-162"/>
<text text-anchor="start" x="482" y="-150" font-family="Helvetica,sans-Serif" font-size="10.00">Cpl/MApp/Temperature</text>
<text text-anchor="middle" x="538" y="-139" font-family="Helvetica,sans-Serif" font-size="10.00">/Api.h</text>
</a>
</g>
</g>
<!-- Node6&#45;&gt;Node7 -->
<g id="edge8_Node000006_Node000007" class="edge">
<title>Node6&#45;&gt;Node7</title>
<g id="a_edge8_Node000006_Node000007"><a xlink:title=" ">
<path fill="none" stroke="#63b8ff" d="M595.61,-191.77C583.65,-182.68 568.39,-171.09 556.58,-162.11"/>
<polygon fill="#63b8ff" stroke="#63b8ff" points="593.56,-194.61 603.64,-197.87 597.79,-189.03 593.56,-194.61"/>
</a>
</g>
</g>
<!-- Node8 -->
<g id="Node000008" class="node">
<title>Node8</title>
<g id="a_Node000008"><a xlink:href="_driver_2_r_h_temp_2_simulated_2_api_8h.html" target="_top" xlink:title=" ">
<polygon fill="white" stroke="#666666" points="763.5,-162 620.5,-162 620.5,-132 763.5,-132 763.5,-162"/>
<text text-anchor="start" x="628.5" y="-150" font-family="Helvetica,sans-Serif" font-size="10.00">Driver/RHTemp/Simulated</text>
<text text-anchor="middle" x="692" y="-139" font-family="Helvetica,sans-Serif" font-size="10.00">/Api.h</text>
</a>
</g>
</g>
<!-- Node6&#45;&gt;Node8 -->
<g id="edge9_Node000006_Node000008" class="edge">
<title>Node6&#45;&gt;Node8</title>
<g id="a_edge9_Node000006_Node000008"><a xlink:title=" ">
<path fill="none" stroke="#63b8ff" d="M634.39,-191.77C646.35,-182.68 661.61,-171.09 673.42,-162.11"/>
<polygon fill="#63b8ff" stroke="#63b8ff" points="632.21,-189.03 626.36,-197.87 636.44,-194.61 632.21,-189.03"/>
</a>
</g>
</g>
<!-- Node12 -->
<g id="Node000012" class="node">
<title>Node12</title>
<g id="a_Node000012"><a xlink:href="_ring_buffer_m_p_8h.html" target="_top" xlink:title=" ">
<polygon fill="white" stroke="#666666" points="1073.5,-156.5 914.5,-156.5 914.5,-137.5 1073.5,-137.5 1073.5,-156.5"/>
<text text-anchor="middle" x="994" y="-144.5" font-family="Helvetica,sans-Serif" font-size="10.00">Cpl/Container/RingBufferMP.h</text>
</a>
</g>
</g>
<!-- Node11&#45;&gt;Node12 -->
<g id="edge13_Node000011_Node000012" class="edge">
<title>Node11&#45;&gt;Node12</title>
<g id="a_edge13_Node000011_Node000012"><a xlink:title=" ">
<path fill="none" stroke="#63b8ff" d="M994,-187.66C994,-177.24 994,-164.8 994,-156.67"/>
<polygon fill="#63b8ff" stroke="#63b8ff" points="990.5,-187.87 994,-197.87 997.5,-187.87 990.5,-187.87"/>
</a>
</g>
</g>
<!-- Node13 -->
<g id="Node000013" class="node">
<title>Node13</title>
<g id="a_Node000013"><a xlink:href="_cpl_2_logging_2_api_8h.html" target="_top" xlink:title=" ">
<polygon fill="white" stroke="#666666" points="930.5,-90.5 829.5,-90.5 829.5,-71.5 930.5,-71.5 930.5,-90.5"/>
<text text-anchor="middle" x="880" y="-78.5" font-family="Helvetica,sans-Serif" font-size="10.00">Cpl/Logging/Api.h</text>
</a>
</g>
</g>
<!-- Node11&#45;&gt;Node13 -->
<g id="edge18_Node000011_Node000013" class="edge">
<title>Node11&#45;&gt;Node13</title>
<g id="a_edge18_Node000011_Node000013"><a xlink:title=" ">
<path fill="none" stroke="#63b8ff" d="M953.49,-194.25C936.42,-187.25 917.63,-176.85 905,-162 886.89,-140.72 881.88,-106.36 880.51,-90.51"/>
<polygon fill="#63b8ff" stroke="#63b8ff" points="952.69,-197.69 963.28,-197.98 955.18,-191.14 952.69,-197.69"/>
</a>
</g>
</g>
<!-- Node12&#45;&gt;Node13 -->
<g id="edge14_Node000012_Node000013" class="edge">
<title>Node12&#45;&gt;Node13</title>
<g id="a_edge14_Node000012_Node000013"><a xlink:title=" ">
<path fill="none" stroke="#63b8ff" d="M969.7,-132.36C947.26,-119.76 914.59,-101.42 895.5,-90.7"/>
<polygon fill="#63b8ff" stroke="#63b8ff" points="968.19,-135.53 978.63,-137.37 971.62,-129.42 968.19,-135.53"/>
</a>
</g>
</g>
<!-- Node14 -->
<g id="Node000014" class="node">
<title>Node14</title>
<g id="a_Node000014"><a xlink:href="_log_sink_8h.html" target="_top" xlink:title=" ">
<polygon fill="white" stroke="#666666" points="1073,-90.5 949,-90.5 949,-71.5 1073,-71.5 1073,-90.5"/>
<text text-anchor="middle" x="1011" y="-78.5" font-family="Helvetica,sans-Serif" font-size="10.00">Cpl/Logging/LogSink.h</text>
</a>
</g>
</g>
<!-- Node12&#45;&gt;Node14 -->
<g id="edge15_Node000012_Node000014" class="edge">
<title>Node12&#45;&gt;Node14</title>
<g id="a_edge15_Node000012_Node000014"><a xlink:title=" ">
<path fill="none" stroke="#63b8ff" d="M998.93,-127.45C1002.12,-115.43 1006.13,-100.32 1008.63,-90.91"/>
<polygon fill="#63b8ff" stroke="#63b8ff" points="995.48,-126.81 996.29,-137.37 1002.24,-128.6 995.48,-126.81"/>
</a>
</g>
</g>
<!-- Node15 -->
<g id="Node000015" class="node">
<title>Node15</title>
<g id="a_Node000015"><a xlink:href="_indexed_entry_server_8h.html" target="_top" xlink:title=" ">
<polygon fill="white" stroke="#666666" points="1242.5,-96 1091.5,-96 1091.5,-66 1242.5,-66 1242.5,-96"/>
<text text-anchor="start" x="1099.5" y="-84" font-family="Helvetica,sans-Serif" font-size="10.00">Cpl/Persistent/IndexedEntry</text>
<text text-anchor="middle" x="1167" y="-73" font-family="Helvetica,sans-Serif" font-size="10.00">Server.h</text>
</a>
</g>
</g>
<!-- Node12&#45;&gt;Node15 -->
<g id="edge16_Node000012_Node000015" class="edge">
<title>Node12&#45;&gt;Node15</title>
<g id="a_edge16_Node000012_Node000015"><a xlink:title=" ">
<path fill="none" stroke="#63b8ff" d="M1027.01,-133.79C1056.06,-123.04 1098.35,-107.4 1128.84,-96.12"/>
<polygon fill="#63b8ff" stroke="#63b8ff" points="1025.5,-130.62 1017.33,-137.37 1027.92,-137.18 1025.5,-130.62"/>
</a>
</g>
</g>
<!-- Node16 -->
<g id="Node000016" class="node">
<title>Node16</title>
<g id="a_Node000016"><a xlink:href="_log_8h.html" target="_top" xlink:title=" ">
<polygon fill="white" stroke="#666666" points="1220.5,-30 1113.5,-30 1113.5,0 1220.5,0 1220.5,-30"/>
<text text-anchor="start" x="1121.5" y="-18" font-family="Helvetica,sans-Serif" font-size="10.00">Cpl/Logging/TShell</text>
<text text-anchor="middle" x="1167" y="-7" font-family="Helvetica,sans-Serif" font-size="10.00">/Log.h</text>
</a>
</g>
</g>
<!-- Node15&#45;&gt;Node16 -->
<g id="edge17_Node000015_Node000016" class="edge">
<title>Node15&#45;&gt;Node16</title>
<g id="a_edge17_Node000015_Node000016"><a xlink:title=" ">
<path fill="none" stroke="#63b8ff" d="M1167,-55.54C1167,-46.96 1167,-37.61 1167,-30.16"/>
<polygon fill="#63b8ff" stroke="#63b8ff" points="1163.5,-55.8 1167,-65.8 1170.5,-55.8 1163.5,-55.8"/>
</a>
</g>
</g>
<!-- Node18 -->
<g id="Node000018" class="node">
<title>Node18</title>
<g id="a_Node000018"><a xlink:href="_indexed_entry_record_8h.html" target="_top" xlink:title=" ">
<polygon fill="white" stroke="#666666" points="1242.5,-162 1091.5,-162 1091.5,-132 1242.5,-132 1242.5,-162"/>
<text text-anchor="start" x="1099.5" y="-150" font-family="Helvetica,sans-Serif" font-size="10.00">Cpl/Persistent/IndexedEntry</text>
<text text-anchor="middle" x="1167" y="-139" font-family="Helvetica,sans-Serif" font-size="10.00">Record.h</text>
</a>
</g>
</g>
<!-- Node17&#45;&gt;Node18 -->
<g id="edge20_Node000017_Node000018" class="edge">
<title>Node17&#45;&gt;Node18</title>
<g id="a_edge20_Node000017_Node000018"><a xlink:title=" ">
<path fill="none" stroke="#63b8ff" d="M1153.25,-188.22C1156.13,-179.79 1159.49,-169.95 1162.17,-162.11"/>
<polygon fill="#63b8ff" stroke="#63b8ff" points="1149.87,-187.27 1149.95,-197.87 1156.5,-189.54 1149.87,-187.27"/>
</a>
</g>
</g>
<!-- Node18&#45;&gt;Node15 -->
<g id="edge21_Node000018_Node000015" class="edge">
<title>Node18&#45;&gt;Node15</title>
<g id="a_edge21_Node000018_Node000015"><a xlink:title=" ">
<path fill="none" stroke="#63b8ff" d="M1167,-121.54C1167,-112.96 1167,-103.61 1167,-96.16"/>
<polygon fill="#63b8ff" stroke="#63b8ff" points="1163.5,-121.8 1167,-131.8 1170.5,-121.8 1163.5,-121.8"/>
</a>
</g>
</g>
</g>
</svg>
