<?xml version="1.0" encoding="UTF-8" standalone="no"?>
<!DOCTYPE svg PUBLIC "-//W3C//DTD SVG 1.1//EN"
 "http://www.w3.org/Graphics/SVG/1.1/DTD/svg11.dtd">
<!-- Generated by graphviz version 2.43.0 (0)
 -->
<!-- Title: Cpl/Container/citem.h Pages: 1 -->
<svg width="268pt" height="82pt"
 viewBox="0.00 0.00 267.50 82.00" xmlns="http://www.w3.org/2000/svg" xmlns:xlink="http://www.w3.org/1999/xlink">
<g id="graph0" class="graph" transform="scale(1 1) rotate(0) translate(4 78)">
<title>Cpl/Container/citem.h</title>
<!-- Node1 -->
<g id="Node000001" class="node">
<title>Node1</title>
<g id="a_Node000001"><a xlink:title="This file provides the definitions for creating a data structures that can be contained in a linked l...">
<polygon fill="#999999" stroke="#666666" points="190.5,-74 68.5,-74 68.5,-55 190.5,-55 190.5,-74"/>
<text text-anchor="middle" x="129.5" y="-62" font-family="Helvetica,sans-Serif" font-size="10.00">Cpl/Container/citem.h</text>
</a>
</g>
</g>
<!-- Node2 -->
<g id="Node000002" class="node">
<title>Node2</title>
<g id="a_Node000002"><a xlink:href="cdlist_8h.html" target="_top" xlink:title="This file defines a C&#45;based interfaces for Doubly linked lists that do not use/require dynamic memory...">
<polygon fill="white" stroke="#666666" points="121,-19 0,-19 0,0 121,0 121,-19"/>
<text text-anchor="middle" x="60.5" y="-7" font-family="Helvetica,sans-Serif" font-size="10.00">Cpl/Container/cdlist.h</text>
</a>
</g>
</g>
<!-- Node1&#45;&gt;Node2 -->
<g id="edge1_Node000001_Node000002" class="edge">
<title>Node1&#45;&gt;Node2</title>
<g id="a_edge1_Node000001_Node000002"><a xlink:title=" ">
<path fill="none" stroke="#63b8ff" d="M110.46,-48.88C98.04,-39.34 82.26,-27.21 71.79,-19.17"/>
<polygon fill="#63b8ff" stroke="#63b8ff" points="108.35,-51.67 118.41,-54.98 112.62,-46.12 108.35,-51.67"/>
</a>
</g>
</g>
<!-- Node3 -->
<g id="Node000003" class="node">
<title>Node3</title>
<g id="a_Node000003"><a xlink:href="cslist_8h.html" target="_top" xlink:title="This file defines a C&#45;based interfaces for Singly lists that do not use or require dynamic memory all...">
<polygon fill="white" stroke="#666666" points="259.5,-19 139.5,-19 139.5,0 259.5,0 259.5,-19"/>
<text text-anchor="middle" x="199.5" y="-7" font-family="Helvetica,sans-Serif" font-size="10.00">Cpl/Container/cslist.h</text>
</a>
</g>
</g>
<!-- Node1&#45;&gt;Node3 -->
<g id="edge2_Node000001_Node000003" class="edge">
<title>Node1&#45;&gt;Node3</title>
<g id="a_edge2_Node000001_Node000003"><a xlink:title=" ">
<path fill="none" stroke="#63b8ff" d="M148.81,-48.88C161.41,-39.34 177.43,-27.21 188.05,-19.17"/>
<polygon fill="#63b8ff" stroke="#63b8ff" points="146.61,-46.16 140.75,-54.98 150.83,-51.74 146.61,-46.16"/>
</a>
</g>
</g>
</g>
</svg>
