<?xml version="1.0" encoding="UTF-8" standalone="no"?>
<!DOCTYPE svg PUBLIC "-//W3C//DTD SVG 1.1//EN"
 "http://www.w3.org/Graphics/SVG/1.1/DTD/svg11.dtd">
<!-- Generated by graphviz version 2.43.0 (0)
 -->
<!-- Title: Cpl::Text::FString&lt; S &gt; Pages: 1 -->
<svg width="1052pt" height="253pt"
 viewBox="0.00 0.00 1052.00 252.50" xmlns="http://www.w3.org/2000/svg" xmlns:xlink="http://www.w3.org/1999/xlink">
<g id="graph0" class="graph" transform="scale(1 1) rotate(0) translate(4 248.5)">
<title>Cpl::Text::FString&lt; S &gt;</title>
<!-- Node1 -->
<g id="Node000001" class="node">
<title>Node1</title>
<g id="a_Node000001"><a xlink:title="This template class represents a NULL terminated string of a specific length.">
<polygon fill="#999999" stroke="#666666" points="680,-143 553,-143 553,-124 680,-124 680,-143"/>
<text text-anchor="middle" x="616.5" y="-131" font-family="Helvetica,sans-Serif" font-size="10.00">Cpl::Text::FString&lt; S &gt;</text>
</a>
</g>
</g>
<!-- Node6 -->
<g id="Node000006" class="node">
<title>Node6</title>
<g id="a_Node000006"><a xlink:href="class_cpl_1_1_text_1_1_f_string.html" target="_top" xlink:title=" ">
<polygon fill="white" stroke="#666666" points="1035,-244.5 874,-244.5 874,-214.5 1035,-214.5 1035,-244.5"/>
<text text-anchor="start" x="882" y="-232.5" font-family="Helvetica,sans-Serif" font-size="10.00">Cpl::Text::FString</text>
<text text-anchor="middle" x="954.5" y="-221.5" font-family="Helvetica,sans-Serif" font-size="10.00">&lt; CPL_IO_FILE_MAX_NAME &gt;</text>
</a>
</g>
</g>
<!-- Node1&#45;&gt;Node6 -->
<g id="edge5_Node000001_Node000006" class="edge">
<title>Node1&#45;&gt;Node6</title>
<g id="a_edge5_Node000001_Node000006"><a xlink:title=" ">
<path fill="none" stroke="orange" stroke-dasharray="5,2" d="M635.04,-150.36C650.38,-164.05 673.91,-182.65 698,-192.5 754.01,-215.4 822,-224.44 873.76,-227.86"/>
<polygon fill="orange" stroke="orange" points="637.14,-147.54 627.41,-143.34 632.41,-152.69 637.14,-147.54"/>
</a>
</g>
<text text-anchor="middle" x="772.5" y="-228.5" font-family="Helvetica,sans-Serif" font-size="10.00" fill="grey"> &lt; CPL_IO_FILE_MAX_NAME &gt;</text>
</g>
<!-- Node7 -->
<g id="Node000007" class="node">
<title>Node7</title>
<g id="a_Node000007"><a xlink:href="class_cpl_1_1_text_1_1_f_string.html" target="_top" xlink:title=" ">
<polygon fill="white" stroke="#666666" points="1003.5,-196.5 905.5,-196.5 905.5,-166.5 1003.5,-166.5 1003.5,-196.5"/>
<text text-anchor="start" x="913.5" y="-184.5" font-family="Helvetica,sans-Serif" font-size="10.00">Cpl::Text::FString</text>
<text text-anchor="middle" x="954.5" y="-173.5" font-family="Helvetica,sans-Serif" font-size="10.00">&lt; 64 &gt;</text>
</a>
</g>
</g>
<!-- Node1&#45;&gt;Node7 -->
<g id="edge6_Node000001_Node000007" class="edge">
<title>Node1&#45;&gt;Node7</title>
<g id="a_edge6_Node000001_Node000007"><a xlink:title=" ">
<path fill="none" stroke="orange" stroke-dasharray="5,2" d="M651.9,-146.51C666,-151.34 682.59,-156.39 698,-159.5 769.35,-173.9 853.78,-178.88 905.48,-180.6"/>
<polygon fill="orange" stroke="orange" points="652.73,-143.09 642.13,-143.06 650.4,-149.69 652.73,-143.09"/>
</a>
</g>
<text text-anchor="middle" x="772.5" y="-180.5" font-family="Helvetica,sans-Serif" font-size="10.00" fill="grey"> &lt; 64 &gt;</text>
</g>
<!-- Node8 -->
<g id="Node000008" class="node">
<title>Node8</title>
<g id="a_Node000008"><a xlink:href="class_cpl_1_1_text_1_1_f_string.html" target="_top" xlink:title=" ">
<polygon fill="white" stroke="#666666" points="1044,-148.5 865,-148.5 865,-118.5 1044,-118.5 1044,-148.5"/>
<text text-anchor="start" x="873" y="-136.5" font-family="Helvetica,sans-Serif" font-size="10.00">Cpl::Text::FString</text>
<text text-anchor="middle" x="954.5" y="-125.5" font-family="Helvetica,sans-Serif" font-size="10.00">&lt; configMAX_TASK_NAME_LEN &gt;</text>
</a>
</g>
</g>
<!-- Node1&#45;&gt;Node8 -->
<g id="edge7_Node000001_Node000008" class="edge">
<title>Node1&#45;&gt;Node8</title>
<g id="a_edge7_Node000001_Node000008"><a xlink:title=" ">
<path fill="none" stroke="orange" stroke-dasharray="5,2" d="M690.62,-133.5C741.78,-133.5 810.4,-133.5 864.7,-133.5"/>
<polygon fill="orange" stroke="orange" points="690.3,-130 680.3,-133.5 690.3,-137 690.3,-130"/>
</a>
</g>
<text text-anchor="start" x="707" y="-147.5" font-family="Helvetica,sans-Serif" font-size="10.00" fill="grey"> &lt; configMAX_TASK_NAME</text>
<text text-anchor="middle" x="772.5" y="-136.5" font-family="Helvetica,sans-Serif" font-size="10.00" fill="grey">_LEN &gt;</text>
</g>
<!-- Node9 -->
<g id="Node000009" class="node">
<title>Node9</title>
<g id="a_Node000009"><a xlink:href="class_cpl_1_1_text_1_1_f_string.html" target="_top" xlink:title=" ">
<polygon fill="white" stroke="#666666" points="1037,-100 872,-100 872,-59 1037,-59 1037,-100"/>
<text text-anchor="start" x="880" y="-88" font-family="Helvetica,sans-Serif" font-size="10.00">Cpl::Text::FString</text>
<text text-anchor="start" x="880" y="-77" font-family="Helvetica,sans-Serif" font-size="10.00">&lt; OPTION_CPL_TSHELL</text>
<text text-anchor="middle" x="954.5" y="-66" font-family="Helvetica,sans-Serif" font-size="10.00">_PROCESSOR_OUTPUT_SIZE &gt;</text>
</a>
</g>
</g>
<!-- Node1&#45;&gt;Node9 -->
<g id="edge8_Node000001_Node000009" class="edge">
<title>Node1&#45;&gt;Node9</title>
<g id="a_edge8_Node000001_Node000009"><a xlink:title=" ">
<path fill="none" stroke="orange" stroke-dasharray="5,2" d="M652.26,-120.57C666.29,-115.8 682.75,-110.76 698,-107.5 755.49,-95.2 821.48,-88.14 871.99,-84.19"/>
<polygon fill="orange" stroke="orange" points="650.81,-117.36 642.52,-123.96 653.12,-123.97 650.81,-117.36"/>
</a>
</g>
<text text-anchor="start" x="698" y="-121.5" font-family="Helvetica,sans-Serif" font-size="10.00" fill="grey"> &lt; OPTION_CPL_TSHELL</text>
<text text-anchor="middle" x="772.5" y="-110.5" font-family="Helvetica,sans-Serif" font-size="10.00" fill="grey">_PROCESSOR_OUTPUT_SIZE &gt;</text>
</g>
<!-- Node10 -->
<g id="Node000010" class="node">
<title>Node10</title>
<g id="a_Node000010"><a xlink:href="class_cpl_1_1_text_1_1_f_string.html" target="_top" xlink:title=" ">
<polygon fill="white" stroke="#666666" points="1032,-41 877,-41 877,0 1032,0 1032,-41"/>
<text text-anchor="start" x="885" y="-29" font-family="Helvetica,sans-Serif" font-size="10.00">Cpl::Text::FString</text>
<text text-anchor="start" x="885" y="-18" font-family="Helvetica,sans-Serif" font-size="10.00">&lt; OPTION_CPL_TSHELL</text>
<text text-anchor="middle" x="954.5" y="-7" font-family="Helvetica,sans-Serif" font-size="10.00">_PROCESSOR_INPUT_SIZE &gt;</text>
</a>
</g>
</g>
<!-- Node1&#45;&gt;Node10 -->
<g id="edge9_Node000001_Node000010" class="edge">
<title>Node1&#45;&gt;Node10</title>
<g id="a_edge9_Node000001_Node000010"><a xlink:title=" ">
<path fill="none" stroke="orange" stroke-dasharray="5,2" d="M631.75,-115.92C646.47,-99.06 671.04,-74.34 698,-61.5 754.18,-34.75 824.35,-24.94 876.94,-21.58"/>
<polygon fill="orange" stroke="orange" points="628.78,-114.02 624.99,-123.91 634.12,-118.54 628.78,-114.02"/>
</a>
</g>
<text text-anchor="start" x="703" y="-75.5" font-family="Helvetica,sans-Serif" font-size="10.00" fill="grey"> &lt; OPTION_CPL_TSHELL</text>
<text text-anchor="middle" x="772.5" y="-64.5" font-family="Helvetica,sans-Serif" font-size="10.00" fill="grey">_PROCESSOR_INPUT_SIZE &gt;</text>
</g>
<!-- Node2 -->
<g id="Node000002" class="node">
<title>Node2</title>
<g id="a_Node000002"><a xlink:href="class_cpl_1_1_text_1_1_f_string__.html" target="_top" xlink:title="This mostly concrete class implements a &quot;fixed storage&quot; String Type.">
<polygon fill="white" stroke="#666666" points="516,-143 412,-143 412,-124 516,-124 516,-143"/>
<text text-anchor="middle" x="464" y="-131" font-family="Helvetica,sans-Serif" font-size="10.00">Cpl::Text::FString_</text>
</a>
</g>
</g>
<!-- Node2&#45;&gt;Node1 -->
<g id="edge1_Node000001_Node000002" class="edge">
<title>Node2&#45;&gt;Node1</title>
<g id="a_edge1_Node000001_Node000002"><a xlink:title=" ">
<path fill="none" stroke="#63b8ff" d="M526.46,-133.5C535.19,-133.5 544.16,-133.5 552.91,-133.5"/>
<polygon fill="#63b8ff" stroke="#63b8ff" points="526.37,-130 516.37,-133.5 526.37,-137 526.37,-130"/>
</a>
</g>
</g>
<!-- Node3 -->
<g id="Node000003" class="node">
<title>Node3</title>
<g id="a_Node000003"><a xlink:href="class_cpl_1_1_text_1_1_string__.html" target="_top" xlink:title="This partially concrete class implements the portions of the String Api that is independent of the in...">
<polygon fill="white" stroke="#666666" points="375,-143 277,-143 277,-124 375,-124 375,-143"/>
<text text-anchor="middle" x="326" y="-131" font-family="Helvetica,sans-Serif" font-size="10.00">Cpl::Text::String_</text>
</a>
</g>
</g>
<!-- Node3&#45;&gt;Node2 -->
<g id="edge2_Node000002_Node000003" class="edge">
<title>Node3&#45;&gt;Node2</title>
<g id="a_edge2_Node000002_Node000003"><a xlink:title=" ">
<path fill="none" stroke="#63b8ff" d="M385.42,-133.5C394.13,-133.5 403.05,-133.5 411.6,-133.5"/>
<polygon fill="#63b8ff" stroke="#63b8ff" points="385.33,-130 375.33,-133.5 385.33,-137 385.33,-130"/>
</a>
</g>
</g>
<!-- Node4 -->
<g id="Node000004" class="node">
<title>Node4</title>
<g id="a_Node000004"><a xlink:href="class_cpl_1_1_text_1_1_string.html" target="_top" xlink:title="This abstract class defines the operations that can be before on a NULL terminated string.">
<polygon fill="white" stroke="#666666" points="240,-143 147,-143 147,-124 240,-124 240,-143"/>
<text text-anchor="middle" x="193.5" y="-131" font-family="Helvetica,sans-Serif" font-size="10.00">Cpl::Text::String</text>
</a>
</g>
</g>
<!-- Node4&#45;&gt;Node3 -->
<g id="edge3_Node000003_Node000004" class="edge">
<title>Node4&#45;&gt;Node3</title>
<g id="a_edge3_Node000003_Node000004"><a xlink:title=" ">
<path fill="none" stroke="#63b8ff" d="M250.38,-133.5C259.22,-133.5 268.3,-133.5 276.95,-133.5"/>
<polygon fill="#63b8ff" stroke="#63b8ff" points="250.14,-130 240.14,-133.5 250.14,-137 250.14,-130"/>
</a>
</g>
</g>
<!-- Node5 -->
<g id="Node000005" class="node">
<title>Node5</title>
<g id="a_Node000005"><a xlink:href="class_cpl_1_1_container_1_1_key.html" target="_top" xlink:title="This abstract class defines the interface that a contained object must support if it has comparable k...">
<polygon fill="white" stroke="#666666" points="110,-143 0,-143 0,-124 110,-124 110,-143"/>
<text text-anchor="middle" x="55" y="-131" font-family="Helvetica,sans-Serif" font-size="10.00">Cpl::Container::Key</text>
</a>
</g>
</g>
<!-- Node5&#45;&gt;Node4 -->
<g id="edge4_Node000004_Node000005" class="edge">
<title>Node5&#45;&gt;Node4</title>
<g id="a_edge4_Node000004_Node000005"><a xlink:title=" ">
<path fill="none" stroke="#63b8ff" d="M120.61,-133.5C129.42,-133.5 138.31,-133.5 146.7,-133.5"/>
<polygon fill="#63b8ff" stroke="#63b8ff" points="120.34,-130 110.34,-133.5 120.34,-137 120.34,-130"/>
</a>
</g>
</g>
</g>
</svg>
