<?xml version="1.0" encoding="UTF-8" standalone="no"?>
<!DOCTYPE svg PUBLIC "-//W3C//DTD SVG 1.1//EN"
 "http://www.w3.org/Graphics/SVG/1.1/DTD/svg11.dtd">
<!-- Generated by graphviz version 2.43.0 (0)
 -->
<!-- Title: Cpl::Dm::SubscriberComposer&lt; CONTEXT, MP &gt; Pages: 1 -->
<svg width="2057pt" height="378pt"
 viewBox="0.00 0.00 2057.00 377.50" xmlns="http://www.w3.org/2000/svg" xmlns:xlink="http://www.w3.org/1999/xlink">
<g id="graph0" class="graph" transform="scale(1 1) rotate(0) translate(4 373.5)">
<title>Cpl::Dm::SubscriberComposer&lt; CONTEXT, MP &gt;</title>
<!-- Node1 -->
<g id="Node000001" class="node">
<title>Node1</title>
<g id="a_Node000001"><a xlink:title="This template class is a composer pattern/class that manages the callback function for a Model Point&#39;...">
<polygon fill="#999999" stroke="#666666" points="2049,-65.5 1887,-65.5 1887,-35.5 2049,-35.5 2049,-65.5"/>
<text text-anchor="start" x="1895" y="-53.5" font-family="Helvetica,sans-Serif" font-size="10.00">Cpl::Dm::SubscriberComposer</text>
<text text-anchor="middle" x="1968" y="-42.5" font-family="Helvetica,sans-Serif" font-size="10.00">&lt; CONTEXT, MP &gt;</text>
</a>
</g>
</g>
<!-- Node2 -->
<g id="Node000002" class="node">
<title>Node2</title>
<g id="a_Node000002"><a xlink:href="class_cpl_1_1_dm_1_1_subscriber.html" target="_top" xlink:title="This template class defines a type safe Subscriber.">
<polygon fill="white" stroke="#666666" points="1850,-44.5 1737,-44.5 1737,-14.5 1850,-14.5 1850,-44.5"/>
<text text-anchor="start" x="1745" y="-32.5" font-family="Helvetica,sans-Serif" font-size="10.00">Cpl::Dm::Subscriber</text>
<text text-anchor="middle" x="1793.5" y="-21.5" font-family="Helvetica,sans-Serif" font-size="10.00">&lt; MP &gt;</text>
</a>
</g>
</g>
<!-- Node2&#45;&gt;Node1 -->
<g id="edge1_Node000001_Node000002" class="edge">
<title>Node2&#45;&gt;Node1</title>
<g id="a_edge1_Node000001_Node000002"><a xlink:title=" ">
<path fill="none" stroke="#63b8ff" d="M1860.1,-37.49C1868.82,-38.55 1877.84,-39.65 1886.76,-40.73"/>
<polygon fill="#63b8ff" stroke="#63b8ff" points="1860.38,-33.99 1850.03,-36.26 1859.53,-40.94 1860.38,-33.99"/>
</a>
</g>
</g>
<!-- Node3 -->
<g id="Node000003" class="node">
<title>Node3</title>
<g id="a_Node000003"><a xlink:href="class_cpl_1_1_dm_1_1_subscriber_base.html" target="_top" xlink:title="This mostly concrete class defines the Subscriber interface &#45; for change notifications &#45; to a Model P...">
<polygon fill="white" stroke="#666666" points="1615,-42 1478,-42 1478,-23 1615,-23 1615,-42"/>
<text text-anchor="middle" x="1546.5" y="-30" font-family="Helvetica,sans-Serif" font-size="10.00">Cpl::Dm::SubscriberBase</text>
</a>
</g>
</g>
<!-- Node3&#45;&gt;Node2 -->
<g id="edge2_Node000002_Node000003" class="edge">
<title>Node3&#45;&gt;Node2</title>
<g id="a_edge2_Node000002_Node000003"><a xlink:title=" ">
<path fill="none" stroke="#63b8ff" d="M1625.14,-31.55C1661.38,-31.11 1703.69,-30.59 1736.7,-30.18"/>
<polygon fill="#63b8ff" stroke="#63b8ff" points="1625.05,-28.05 1615.1,-31.67 1625.14,-35.05 1625.05,-28.05"/>
</a>
</g>
</g>
<!-- Node4 -->
<g id="Node000004" class="node">
<title>Node4</title>
<g id="a_Node000004"><a xlink:href="class_cpl_1_1_dm_1_1_subscriber_api.html" target="_top" xlink:title="This abstract class defines the Subscriber interface &#45; for change notifications &#45; to a Model Points d...">
<polygon fill="white" stroke="#666666" points="1356,-57 1228,-57 1228,-38 1356,-38 1356,-57"/>
<text text-anchor="middle" x="1292" y="-45" font-family="Helvetica,sans-Serif" font-size="10.00">Cpl::Dm::SubscriberApi</text>
</a>
</g>
</g>
<!-- Node4&#45;&gt;Node1 -->
<g id="edge26_Node000001_Node000004" class="edge">
<title>Node4&#45;&gt;Node1</title>
<g id="a_edge26_Node000001_Node000004"><a xlink:title=" ">
<path fill="none" stroke="#9a32cd" stroke-dasharray="5,2" d="M1366.3,-54.12C1368.9,-54.26 1371.47,-54.39 1374,-54.5 1412.19,-56.15 1421.78,-54.55 1460,-54.5 1641.78,-54.28 1687.25,-56.5 1869,-53.5 1874.79,-53.4 1880.76,-53.28 1886.78,-53.14"/>
<polygon fill="#9a32cd" stroke="#9a32cd" points="1366.4,-50.62 1356.2,-53.49 1365.96,-57.6 1366.4,-50.62"/>
</a>
</g>
<text text-anchor="middle" x="1676" y="-58.5" font-family="Helvetica,sans-Serif" font-size="10.00" fill="grey"> m_notificationCb</text>
</g>
<!-- Node4&#45;&gt;Node3 -->
<g id="edge3_Node000003_Node000004" class="edge">
<title>Node4&#45;&gt;Node3</title>
<g id="a_edge3_Node000003_Node000004"><a xlink:title=" ">
<path fill="none" stroke="#63b8ff" d="M1366.29,-43.15C1401.52,-41.05 1443.48,-38.56 1477.94,-36.51"/>
<polygon fill="#63b8ff" stroke="#63b8ff" points="1365.84,-39.67 1356.07,-43.75 1366.26,-46.65 1365.84,-39.67"/>
</a>
</g>
</g>
<!-- Node5 -->
<g id="Node000005" class="node">
<title>Node5</title>
<g id="a_Node000005"><a xlink:href="class_cpl_1_1_container_1_1_extended_item.html" target="_top" xlink:title="This class is used by the Container classes to implement a various types of DOUBLY linked containers.">
<polygon fill="white" stroke="#666666" points="695,-57 535,-57 535,-38 695,-38 695,-57"/>
<text text-anchor="middle" x="615" y="-45" font-family="Helvetica,sans-Serif" font-size="10.00">Cpl::Container::ExtendedItem</text>
</a>
</g>
</g>
<!-- Node5&#45;&gt;Node4 -->
<g id="edge4_Node000004_Node000005" class="edge">
<title>Node5&#45;&gt;Node4</title>
<g id="a_edge4_Node000004_Node000005"><a xlink:title=" ">
<path fill="none" stroke="#63b8ff" d="M705.25,-47.5C843.78,-47.5 1107.16,-47.5 1227.8,-47.5"/>
<polygon fill="#63b8ff" stroke="#63b8ff" points="705.08,-44 695.08,-47.5 705.08,-51 705.08,-44"/>
</a>
</g>
</g>
<!-- Node6 -->
<g id="Node000006" class="node">
<title>Node6</title>
<g id="a_Node000006"><a xlink:href="class_cpl_1_1_container_1_1_item.html" target="_top" xlink:title="This class is used by the Container classes to implement a various types of singly linked containers.">
<polygon fill="white" stroke="#666666" points="115,-57 1,-57 1,-38 115,-38 115,-57"/>
<text text-anchor="middle" x="58" y="-45" font-family="Helvetica,sans-Serif" font-size="10.00">Cpl::Container::Item</text>
</a>
</g>
</g>
<!-- Node6&#45;&gt;Node5 -->
<g id="edge5_Node000005_Node000006" class="edge">
<title>Node6&#45;&gt;Node5</title>
<g id="a_edge5_Node000005_Node000006"><a xlink:title=" ">
<path fill="none" stroke="#63b8ff" d="M125.25,-47.5C227.87,-47.5 424.89,-47.5 534.85,-47.5"/>
<polygon fill="#63b8ff" stroke="#63b8ff" points="125.01,-44 115.01,-47.5 125.01,-51 125.01,-44"/>
</a>
</g>
</g>
<!-- Node7 -->
<g id="Node000007" class="node">
<title>Node7</title>
<g id="a_Node000007"><a xlink:href="class_cpl_1_1_dm_1_1_model_point.html" target="_top" xlink:title="This mostly abstract class defines the interface for a Model Point.">
<polygon fill="white" stroke="#666666" points="673,-19 557,-19 557,0 673,0 673,-19"/>
<text text-anchor="middle" x="615" y="-7" font-family="Helvetica,sans-Serif" font-size="10.00">Cpl::Dm::ModelPoint</text>
</a>
</g>
</g>
<!-- Node6&#45;&gt;Node7 -->
<g id="edge7_Node000007_Node000006" class="edge">
<title>Node6&#45;&gt;Node7</title>
<g id="a_edge7_Node000007_Node000006"><a xlink:title=" ">
<path fill="none" stroke="#63b8ff" d="M125.3,-42.96C235.16,-35.44 453.07,-20.52 556.69,-13.42"/>
<polygon fill="#63b8ff" stroke="#63b8ff" points="124.75,-39.49 115.01,-43.66 125.23,-46.47 124.75,-39.49"/>
</a>
</g>
</g>
<!-- Node12 -->
<g id="Node000012" class="node">
<title>Node12</title>
<g id="a_Node000012"><a xlink:href="class_cpl_1_1_system_1_1_signable.html" target="_top" xlink:title="This abstract class defines the interface by which a client can cause an object that is waiting&#45;on&#45;a&#45;...">
<polygon fill="white" stroke="#666666" points="484,-162 361,-162 361,-143 484,-143 484,-162"/>
<text text-anchor="middle" x="422.5" y="-150" font-family="Helvetica,sans-Serif" font-size="10.00">Cpl::System::Signable</text>
</a>
</g>
</g>
<!-- Node6&#45;&gt;Node12 -->
<g id="edge13_Node000012_Node000006" class="edge">
<title>Node6&#45;&gt;Node12</title>
<g id="a_edge13_Node000012_Node000006"><a xlink:title=" ">
<path fill="none" stroke="#63b8ff" d="M101.61,-59.84C174.74,-81.02 322.6,-123.85 388.5,-142.94"/>
<polygon fill="#63b8ff" stroke="#63b8ff" points="102.39,-56.42 91.81,-57 100.44,-63.15 102.39,-56.42"/>
</a>
</g>
</g>
<!-- Node7&#45;&gt;Node3 -->
<g id="edge6_Node000003_Node000007" class="edge">
<title>Node7&#45;&gt;Node3</title>
<g id="a_edge6_Node000003_Node000007"><a xlink:title=" ">
<path fill="none" stroke="#9a32cd" stroke-dasharray="5,2" d="M683.37,-9.19C752.26,-8.89 862.34,-8.5 957.5,-8.5 957.5,-8.5 957.5,-8.5 1293,-8.5 1357.18,-8.5 1430.13,-16.28 1481.05,-22.98"/>
<polygon fill="#9a32cd" stroke="#9a32cd" points="683.09,-5.69 673.1,-9.23 683.12,-12.69 683.09,-5.69"/>
</a>
</g>
<text text-anchor="middle" x="1121.5" y="-11.5" font-family="Helvetica,sans-Serif" font-size="10.00" fill="grey"> m_point</text>
</g>
<!-- Node8 -->
<g id="Node000008" class="node">
<title>Node8</title>
<g id="a_Node000008"><a xlink:href="class_cpl_1_1_dm_1_1_event_loop.html" target="_top" xlink:title="This class extends the Cpl::System::EventLoop class to support the asynchronous change notification g...">
<polygon fill="white" stroke="#666666" points="1348.5,-240 1235.5,-240 1235.5,-221 1348.5,-221 1348.5,-240"/>
<text text-anchor="middle" x="1292" y="-228" font-family="Helvetica,sans-Serif" font-size="10.00">Cpl::Dm::EventLoop</text>
</a>
</g>
</g>
<!-- Node8&#45;&gt;Node3 -->
<g id="edge8_Node000003_Node000008" class="edge">
<title>Node8&#45;&gt;Node3</title>
<g id="a_edge8_Node000003_Node000008"><a xlink:title=" ">
<path fill="none" stroke="#9a32cd" stroke-dasharray="5,2" d="M1313.35,-214.54C1363.64,-175.1 1492.65,-73.94 1533.15,-42.19"/>
<polygon fill="#9a32cd" stroke="#9a32cd" points="1310.89,-212.03 1305.18,-220.95 1315.21,-217.53 1310.89,-212.03"/>
</a>
</g>
<text text-anchor="middle" x="1417" y="-169.5" font-family="Helvetica,sans-Serif" font-size="10.00" fill="grey"> m_eventLoopHdl</text>
</g>
<!-- Node9 -->
<g id="Node000009" class="node">
<title>Node9</title>
<g id="a_Node000009"><a xlink:href="class_cpl_1_1_system_1_1_event_loop.html" target="_top" xlink:title="This concrete class is a Runnable object that provides a event driven execution model for a thread.">
<polygon fill="white" stroke="#666666" points="1187.5,-218 1055.5,-218 1055.5,-199 1187.5,-199 1187.5,-218"/>
<text text-anchor="middle" x="1121.5" y="-206" font-family="Helvetica,sans-Serif" font-size="10.00">Cpl::System::EventLoop</text>
</a>
</g>
</g>
<!-- Node9&#45;&gt;Node8 -->
<g id="edge9_Node000008_Node000009" class="edge">
<title>Node9&#45;&gt;Node8</title>
<g id="a_edge9_Node000008_Node000009"><a xlink:title=" ">
<path fill="none" stroke="#63b8ff" d="M1197.71,-218.32C1210.37,-219.97 1223.29,-221.66 1235.34,-223.23"/>
<polygon fill="#63b8ff" stroke="#63b8ff" points="1198.02,-214.83 1187.65,-217.01 1197.11,-221.77 1198.02,-214.83"/>
</a>
</g>
</g>
<!-- Node10 -->
<g id="Node000010" class="node">
<title>Node10</title>
<g id="a_Node000010"><a xlink:href="class_cpl_1_1_system_1_1_runnable.html" target="_top" xlink:title="This is an abstract class defines the interface for an object that is &quot;executed&quot; when a Thread object...">
<polygon fill="white" stroke="#666666" points="852.5,-293 725.5,-293 725.5,-274 852.5,-274 852.5,-293"/>
<text text-anchor="middle" x="789" y="-281" font-family="Helvetica,sans-Serif" font-size="10.00">Cpl::System::Runnable</text>
</a>
</g>
</g>
<!-- Node10&#45;&gt;Node9 -->
<g id="edge10_Node000009_Node000010" class="edge">
<title>Node10&#45;&gt;Node9</title>
<g id="a_edge10_Node000009_Node000010"><a xlink:title=" ">
<path fill="none" stroke="#63b8ff" d="M862.87,-283.01C913.24,-280.07 980.53,-270.83 1034,-244.5 1043.87,-239.64 1042.42,-232.91 1052,-227.5 1058.77,-223.68 1066.36,-220.59 1073.95,-218.1"/>
<polygon fill="#63b8ff" stroke="#63b8ff" points="862.52,-279.53 852.71,-283.54 862.88,-286.52 862.52,-279.53"/>
</a>
</g>
</g>
<!-- Node11 -->
<g id="Node000011" class="node">
<title>Node11</title>
<g id="a_Node000011"><a xlink:href="class_cpl_1_1_system_1_1_event_flag.html" target="_top" xlink:title="This abstract class defines the interface to generated a &#39;Event Flag&#39;.">
<polygon fill="white" stroke="#666666" points="854,-330 724,-330 724,-311 854,-311 854,-330"/>
<text text-anchor="middle" x="789" y="-318" font-family="Helvetica,sans-Serif" font-size="10.00">Cpl::System::EventFlag</text>
</a>
</g>
</g>
<!-- Node11&#45;&gt;Node9 -->
<g id="edge11_Node000009_Node000011" class="edge">
<title>Node11&#45;&gt;Node9</title>
<g id="a_edge11_Node000009_Node000011"><a xlink:title=" ">
<path fill="none" stroke="#63b8ff" d="M864.12,-325.48C917.15,-325.06 987.16,-315.84 1034,-276.5 1051.77,-261.58 1034.94,-243.22 1052,-227.5 1056.17,-223.65 1061.06,-220.57 1066.27,-218.11"/>
<polygon fill="#63b8ff" stroke="#63b8ff" points="864.09,-321.98 854.08,-325.46 864.08,-328.98 864.09,-321.98"/>
</a>
</g>
</g>
<!-- Node12&#45;&gt;Node9 -->
<g id="edge12_Node000009_Node000012" class="edge">
<title>Node12&#45;&gt;Node9</title>
<g id="a_edge12_Node000009_Node000012"><a xlink:title=" ">
<path fill="none" stroke="#63b8ff" d="M471.37,-164.33C490.98,-168.78 513.97,-173.48 535,-176.5 722.43,-203.38 946.58,-208.09 1055.15,-208.66"/>
<polygon fill="#63b8ff" stroke="#63b8ff" points="471.98,-160.88 461.45,-162.04 470.41,-167.7 471.98,-160.88"/>
</a>
</g>
</g>
<!-- Node17 -->
<g id="Node000017" class="node">
<title>Node17</title>
<g id="a_Node000017"><a xlink:href="class_cpl_1_1_system_1_1_thread.html" target="_top" xlink:title="This abstract class defines the operations that can be performed on a thread.">
<polygon fill="white" stroke="#666666" points="846.5,-180 731.5,-180 731.5,-161 846.5,-161 846.5,-180"/>
<text text-anchor="middle" x="789" y="-168" font-family="Helvetica,sans-Serif" font-size="10.00">Cpl::System::Thread</text>
</a>
</g>
</g>
<!-- Node12&#45;&gt;Node17 -->
<g id="edge19_Node000017_Node000012" class="edge">
<title>Node12&#45;&gt;Node17</title>
<g id="a_edge19_Node000017_Node000012"><a xlink:title=" ">
<path fill="none" stroke="#63b8ff" d="M494.48,-156C563.7,-159.42 667.63,-164.56 731.46,-167.71"/>
<polygon fill="#63b8ff" stroke="#63b8ff" points="494.26,-152.49 484.1,-155.49 493.91,-159.48 494.26,-152.49"/>
</a>
</g>
</g>
<!-- Node19 -->
<g id="Node000019" class="node">
<title>Node19</title>
<g id="a_Node000019"><a xlink:href="class_cpl_1_1_system_1_1_semaphore.html" target="_top" xlink:title="This semaphore class defines the interface for a Counting Semaphore.">
<polygon fill="white" stroke="#666666" points="857.5,-143 720.5,-143 720.5,-124 857.5,-124 857.5,-143"/>
<text text-anchor="middle" x="789" y="-131" font-family="Helvetica,sans-Serif" font-size="10.00">Cpl::System::Semaphore</text>
</a>
</g>
</g>
<!-- Node12&#45;&gt;Node19 -->
<g id="edge22_Node000019_Node000012" class="edge">
<title>Node12&#45;&gt;Node19</title>
<g id="a_edge22_Node000019_Node000012"><a xlink:title=" ">
<path fill="none" stroke="#63b8ff" d="M494.32,-148.81C559.69,-145.4 656.12,-140.37 720.44,-137.02"/>
<polygon fill="#63b8ff" stroke="#63b8ff" points="493.9,-145.33 484.1,-149.34 494.27,-152.32 493.9,-145.33"/>
</a>
</g>
</g>
<!-- Node13 -->
<g id="Node000013" class="node">
<title>Node13</title>
<g id="a_Node000013"><a xlink:href="class_cpl_1_1_system_1_1_timer_manager.html" target="_top" xlink:title="This mostly concrete class implements manages a list of Software Timers.">
<polygon fill="white" stroke="#666666" points="865,-256 713,-256 713,-237 865,-237 865,-256"/>
<text text-anchor="middle" x="789" y="-244" font-family="Helvetica,sans-Serif" font-size="10.00">Cpl::System::TimerManager</text>
</a>
</g>
</g>
<!-- Node13&#45;&gt;Node9 -->
<g id="edge14_Node000009_Node000013" class="edge">
<title>Node13&#45;&gt;Node9</title>
<g id="a_edge14_Node000009_Node000013"><a xlink:title=" ">
<path fill="none" stroke="#63b8ff" d="M875.28,-239.43C922.2,-235.2 981.4,-229.34 1034,-222.5 1043.96,-221.21 1054.53,-219.65 1064.74,-218.05"/>
<polygon fill="#63b8ff" stroke="#63b8ff" points="874.81,-235.95 865.16,-240.33 875.43,-242.93 874.81,-235.95"/>
</a>
</g>
</g>
<!-- Node14 -->
<g id="Node000014" class="node">
<title>Node14</title>
<g id="a_Node000014"><a xlink:href="class_cpl_1_1_system_1_1_counter_source__.html" target="_top" xlink:title="This abstract class defines the interface for registering for an Counter object with the Timer Manage...">
<polygon fill="white" stroke="#666666" points="501.5,-256 343.5,-256 343.5,-237 501.5,-237 501.5,-256"/>
<text text-anchor="middle" x="422.5" y="-244" font-family="Helvetica,sans-Serif" font-size="10.00">Cpl::System::CounterSource_</text>
</a>
</g>
</g>
<!-- Node14&#45;&gt;Node13 -->
<g id="edge15_Node000013_Node000014" class="edge">
<title>Node14&#45;&gt;Node13</title>
<g id="a_edge15_Node000013_Node000014"><a xlink:title=" ">
<path fill="none" stroke="#63b8ff" d="M511.77,-246.5C573.24,-246.5 654.34,-246.5 712.74,-246.5"/>
<polygon fill="#63b8ff" stroke="#63b8ff" points="511.69,-243 501.69,-246.5 511.69,-250 511.69,-243"/>
</a>
</g>
</g>
<!-- Node15 -->
<g id="Node000015" class="node">
<title>Node15</title>
<g id="a_Node000015"><a xlink:href="class_cpl_1_1_container_1_1_d_list.html" target="_top" xlink:title=" ">
<polygon fill="white" stroke="#666666" points="517,-313.5 328,-313.5 328,-283.5 517,-283.5 517,-313.5"/>
<text text-anchor="start" x="336" y="-301.5" font-family="Helvetica,sans-Serif" font-size="10.00">Cpl::Container::DList</text>
<text text-anchor="middle" x="422.5" y="-290.5" font-family="Helvetica,sans-Serif" font-size="10.00">&lt; Cpl::System::CounterCallback_ &gt;</text>
</a>
</g>
</g>
<!-- Node15&#45;&gt;Node13 -->
<g id="edge16_Node000013_Node000015" class="edge">
<title>Node15&#45;&gt;Node13</title>
<g id="a_edge16_Node000013_Node000015"><a xlink:title=" ">
<path fill="none" stroke="#9a32cd" stroke-dasharray="5,2" d="M527.12,-284.25C577.76,-277.23 639.58,-268.55 695,-260.5 704.86,-259.07 715.3,-257.52 725.48,-256"/>
<polygon fill="#9a32cd" stroke="#9a32cd" points="526.57,-280.8 517.14,-285.64 527.53,-287.73 526.57,-280.8"/>
</a>
</g>
<text text-anchor="middle" x="615" y="-295.5" font-family="Helvetica,sans-Serif" font-size="10.00" fill="grey"> m_counters</text>
<text text-anchor="middle" x="615" y="-284.5" font-family="Helvetica,sans-Serif" font-size="10.00" fill="grey">m_pendingAttach</text>
</g>
<!-- Node16 -->
<g id="Node000016" class="node">
<title>Node16</title>
<g id="a_Node000016"><a xlink:href="class_cpl_1_1_container_1_1_d_list.html" target="_top" xlink:title="This template class implements a Doubly linked list which maintains the ordering imposed on it by the...">
<polygon fill="white" stroke="#666666" points="116,-358.5 0,-358.5 0,-328.5 116,-328.5 116,-358.5"/>
<text text-anchor="start" x="8" y="-346.5" font-family="Helvetica,sans-Serif" font-size="10.00">Cpl::Container::DList</text>
<text text-anchor="middle" x="58" y="-335.5" font-family="Helvetica,sans-Serif" font-size="10.00">&lt; ITEM &gt;</text>
</a>
</g>
</g>
<!-- Node16&#45;&gt;Node15 -->
<g id="edge17_Node000015_Node000016" class="edge">
<title>Node16&#45;&gt;Node15</title>
<g id="a_edge17_Node000015_Node000016"><a xlink:title=" ">
<path fill="none" stroke="orange" stroke-dasharray="5,2" d="M126.36,-334.48C128.94,-334.15 131.49,-333.82 134,-333.5 198.72,-325.25 271.69,-316.37 327.92,-309.62"/>
<polygon fill="orange" stroke="orange" points="125.78,-331.03 116.32,-335.79 126.69,-337.97 125.78,-331.03"/>
</a>
</g>
<text text-anchor="middle" x="222" y="-336.5" font-family="Helvetica,sans-Serif" font-size="10.00" fill="grey"> &lt; Cpl::System::CounterCallback_ &gt;</text>
</g>
<!-- Node21 -->
<g id="Node000021" class="node">
<title>Node21</title>
<g id="a_Node000021"><a xlink:href="class_cpl_1_1_container_1_1_d_list.html" target="_top" xlink:title=" ">
<polygon fill="white" stroke="#666666" points="1034,-369.5 883,-369.5 883,-339.5 1034,-339.5 1034,-369.5"/>
<text text-anchor="start" x="891" y="-357.5" font-family="Helvetica,sans-Serif" font-size="10.00">Cpl::Container::DList</text>
<text text-anchor="middle" x="958.5" y="-346.5" font-family="Helvetica,sans-Serif" font-size="10.00">&lt; Cpl::Dm::SubscriberApi &gt;</text>
</a>
</g>
</g>
<!-- Node16&#45;&gt;Node21 -->
<g id="edge25_Node000021_Node000016" class="edge">
<title>Node16&#45;&gt;Node21</title>
<g id="a_edge25_Node000021_Node000016"><a xlink:title=" ">
<path fill="none" stroke="orange" stroke-dasharray="5,2" d="M126.36,-344.4C128.94,-344.44 131.49,-344.47 134,-344.5 410.11,-348.02 738.29,-351.92 882.84,-353.62"/>
<polygon fill="orange" stroke="orange" points="126.37,-340.9 116.33,-344.27 126.28,-347.9 126.37,-340.9"/>
</a>
</g>
<text text-anchor="middle" x="422.5" y="-351.5" font-family="Helvetica,sans-Serif" font-size="10.00" fill="grey"> &lt; Cpl::Dm::SubscriberApi &gt;</text>
</g>
<!-- Node17&#45;&gt;Node9 -->
<g id="edge18_Node000009_Node000017" class="edge">
<title>Node17&#45;&gt;Node9</title>
<g id="a_edge18_Node000009_Node000017"><a xlink:title=" ">
<path fill="none" stroke="#9a32cd" stroke-dasharray="5,2" d="M856.83,-169.97C906.12,-170.57 974.64,-173.48 1034,-183.5 1054.19,-186.91 1076.37,-193.38 1093.21,-198.88"/>
<polygon fill="#9a32cd" stroke="#9a32cd" points="856.64,-166.47 846.61,-169.88 856.58,-173.47 856.64,-166.47"/>
</a>
</g>
<text text-anchor="middle" x="958.5" y="-186.5" font-family="Helvetica,sans-Serif" font-size="10.00" fill="grey"> m_myThreadPtr</text>
</g>
<!-- Node18 -->
<g id="Node000018" class="node">
<title>Node18</title>
<g id="a_Node000018"><a xlink:href="class_cpl_1_1_system_1_1_shared_event_handler_api.html" target="_top" xlink:title="This abstract class defines the interface for a Shared Event Handler.">
<polygon fill="white" stroke="#666666" points="860.5,-105.5 717.5,-105.5 717.5,-75.5 860.5,-75.5 860.5,-105.5"/>
<text text-anchor="start" x="725.5" y="-93.5" font-family="Helvetica,sans-Serif" font-size="10.00">Cpl::System::SharedEvent</text>
<text text-anchor="middle" x="789" y="-82.5" font-family="Helvetica,sans-Serif" font-size="10.00">HandlerApi</text>
</a>
</g>
</g>
<!-- Node18&#45;&gt;Node9 -->
<g id="edge20_Node000009_Node000018" class="edge">
<title>Node18&#45;&gt;Node9</title>
<g id="a_edge20_Node000009_Node000018"><a xlink:title=" ">
<path fill="none" stroke="#9a32cd" stroke-dasharray="5,2" d="M870.62,-86.26C920.12,-86.85 983.5,-93.5 1034,-118.5 1071.87,-137.25 1102.24,-179.66 1114.56,-198.8"/>
<polygon fill="#9a32cd" stroke="#9a32cd" points="870.6,-82.76 860.59,-86.23 870.58,-89.76 870.6,-82.76"/>
</a>
</g>
<text text-anchor="middle" x="958.5" y="-121.5" font-family="Helvetica,sans-Serif" font-size="10.00" fill="grey"> m_eventHandler</text>
</g>
<!-- Node19&#45;&gt;Node9 -->
<g id="edge21_Node000009_Node000019" class="edge">
<title>Node19&#45;&gt;Node9</title>
<g id="a_edge21_Node000009_Node000019"><a xlink:title=" ">
<path fill="none" stroke="#9a32cd" stroke-dasharray="5,2" d="M867.84,-132.09C916.67,-133.32 980.32,-138.85 1034,-156.5 1062.96,-166.02 1092.52,-186.62 1108.48,-198.84"/>
<polygon fill="#9a32cd" stroke="#9a32cd" points="867.72,-128.59 857.65,-131.89 867.58,-135.59 867.72,-128.59"/>
</a>
</g>
<text text-anchor="middle" x="958.5" y="-159.5" font-family="Helvetica,sans-Serif" font-size="10.00" fill="grey"> m_sema</text>
</g>
<!-- Node20 -->
<g id="Node000020" class="node">
<title>Node20</title>
<g id="a_Node000020"><a xlink:href="class_cpl_1_1_dm_1_1_notification_api__.html" target="_top" xlink:title="This class has PACKAGE Scope, i.e.">
<polygon fill="white" stroke="#666666" points="1191,-255 1052,-255 1052,-236 1191,-236 1191,-255"/>
<text text-anchor="middle" x="1121.5" y="-243" font-family="Helvetica,sans-Serif" font-size="10.00">Cpl::Dm::NotificationApi_</text>
</a>
</g>
</g>
<!-- Node20&#45;&gt;Node8 -->
<g id="edge23_Node000008_Node000020" class="edge">
<title>Node20&#45;&gt;Node8</title>
<g id="a_edge23_Node000008_Node000020"><a xlink:title=" ">
<path fill="none" stroke="#63b8ff" d="M1201.15,-238.5C1212.72,-237.47 1224.44,-236.43 1235.42,-235.45"/>
<polygon fill="#63b8ff" stroke="#63b8ff" points="1200.69,-235.03 1191.04,-239.4 1201.31,-242 1200.69,-235.03"/>
</a>
</g>
</g>
<!-- Node21&#45;&gt;Node8 -->
<g id="edge24_Node000008_Node000021" class="edge">
<title>Node21&#45;&gt;Node8</title>
<g id="a_edge24_Node000008_Node000021"><a xlink:title=" ">
<path fill="none" stroke="#9a32cd" stroke-dasharray="5,2" d="M1009.53,-335.79C1081.15,-309 1210.32,-260.68 1265.2,-240.15"/>
<polygon fill="#9a32cd" stroke="#9a32cd" points="1007.96,-332.64 999.82,-339.42 1010.41,-339.19 1007.96,-332.64"/>
</a>
</g>
<text text-anchor="middle" x="1121.5" y="-322.5" font-family="Helvetica,sans-Serif" font-size="10.00" fill="grey"> m_pendingMpNotifications</text>
</g>
</g>
</svg>
