<?xml version="1.0" encoding="UTF-8" standalone="no"?>
<!DOCTYPE svg PUBLIC "-//W3C//DTD SVG 1.1//EN"
 "http://www.w3.org/Graphics/SVG/1.1/DTD/svg11.dtd">
<!-- Generated by graphviz version 2.43.0 (0)
 -->
<!-- Title: Cpl::Itc::AtomicRequest&lt; ACCESS_API &gt; Pages: 1 -->
<svg width="139pt" height="159pt"
 viewBox="0.00 0.00 139.00 159.00" xmlns="http://www.w3.org/2000/svg" xmlns:xlink="http://www.w3.org/1999/xlink">
<g id="graph0" class="graph" transform="scale(1 1) rotate(0) translate(4 155)">
<title>Cpl::Itc::AtomicRequest&lt; ACCESS_API &gt;</title>
<!-- Node1 -->
<g id="Node000001" class="node">
<title>Node1</title>
<g id="a_Node000001"><a xlink:title="This concrete class define the &#39;Atomic&#39; Message request that allows a client to invoke multiple opera...">
<polygon fill="#999999" stroke="#666666" points="131,-96 0,-96 0,-66 131,-66 131,-96"/>
<text text-anchor="start" x="8" y="-84" font-family="Helvetica,sans-Serif" font-size="10.00">Cpl::Itc::AtomicRequest</text>
<text text-anchor="middle" x="65.5" y="-73" font-family="Helvetica,sans-Serif" font-size="10.00">&lt; ACCESS_API &gt;</text>
</a>
</g>
</g>
<!-- Node3 -->
<g id="Node000003" class="node">
<title>Node3</title>
<g id="a_Node000003"><a xlink:href="class_cpl_1_1_itc_1_1_atomic_sync.html" target="_top" xlink:title="This concrete class provides the ITC wrapper implementation for calling the &quot;Atomic Api&quot; synchronousl...">
<polygon fill="white" stroke="#666666" points="122.5,-30 8.5,-30 8.5,0 122.5,0 122.5,-30"/>
<text text-anchor="start" x="16.5" y="-18" font-family="Helvetica,sans-Serif" font-size="10.00">Cpl::Itc::AtomicSync</text>
<text text-anchor="middle" x="65.5" y="-7" font-family="Helvetica,sans-Serif" font-size="10.00">&lt; ACCESS_API &gt;</text>
</a>
</g>
</g>
<!-- Node1&#45;&gt;Node3 -->
<g id="edge2_Node000001_Node000003" class="edge">
<title>Node1&#45;&gt;Node3</title>
<g id="a_edge2_Node000001_Node000003"><a xlink:title=" ">
<path fill="none" stroke="#63b8ff" d="M65.5,-55.54C65.5,-46.96 65.5,-37.61 65.5,-30.16"/>
<polygon fill="#63b8ff" stroke="#63b8ff" points="62,-55.8 65.5,-65.8 69,-55.8 62,-55.8"/>
</a>
</g>
</g>
<!-- Node2 -->
<g id="Node000002" class="node">
<title>Node2</title>
<g id="a_Node000002"><a xlink:title=" ">
<polygon fill="white" stroke="#bfbfbf" points="103.5,-151 27.5,-151 27.5,-132 103.5,-132 103.5,-151"/>
<text text-anchor="middle" x="65.5" y="-139" font-family="Helvetica,sans-Serif" font-size="10.00">ACCESS_API</text>
</a>
</g>
</g>
<!-- Node2&#45;&gt;Node1 -->
<g id="edge1_Node000001_Node000002" class="edge">
<title>Node2&#45;&gt;Node1</title>
<g id="a_edge1_Node000001_Node000002"><a xlink:title=" ">
<path fill="none" stroke="#63b8ff" d="M65.5,-121.65C65.5,-113.36 65.5,-103.78 65.5,-96.11"/>
<polygon fill="#63b8ff" stroke="#63b8ff" points="62,-121.87 65.5,-131.87 69,-121.87 62,-121.87"/>
</a>
</g>
</g>
</g>
</svg>
