<?xml version="1.0" encoding="UTF-8" standalone="no"?>
<!DOCTYPE svg PUBLIC "-//W3C//DTD SVG 1.1//EN"
 "http://www.w3.org/Graphics/SVG/1.1/DTD/svg11.dtd">
<!-- Generated by graphviz version 2.43.0 (0)
 -->
<!-- Title: Driver::RHTemp::Simulated::Api Pages: 1 -->
<svg width="2018pt" height="199pt"
 viewBox="0.00 0.00 2018.00 199.00" xmlns="http://www.w3.org/2000/svg" xmlns:xlink="http://www.w3.org/1999/xlink">
<g id="graph0" class="graph" transform="scale(1 1) rotate(0) translate(4 195)">
<title>Driver::RHTemp::Simulated::Api</title>
<!-- Node1 -->
<g id="Node000001" class="node">
<title>Node1</title>
<g id="a_Node000001"><a xlink:title="This class implements the RH/Temperature driver interface using model points as the physical signals.">
<polygon fill="#999999" stroke="#666666" points="2010,-145 1840,-145 1840,-126 2010,-126 2010,-145"/>
<text text-anchor="middle" x="1925" y="-133" font-family="Helvetica,sans-Serif" font-size="10.00">Driver::RHTemp::Simulated::Api</text>
</a>
</g>
</g>
<!-- Node2 -->
<g id="Node000002" class="node">
<title>Node2</title>
<g id="a_Node000002"><a xlink:href="class_driver_1_1_r_h_temp_1_1_api.html" target="_top" xlink:title="This class defines an interface for reading and managing a combined RH and Temperature sensor.">
<polygon fill="white" stroke="#666666" points="1746,-182 1631,-182 1631,-163 1746,-163 1746,-182"/>
<text text-anchor="middle" x="1688.5" y="-170" font-family="Helvetica,sans-Serif" font-size="10.00">Driver::RHTemp::Api</text>
</a>
</g>
</g>
<!-- Node2&#45;&gt;Node1 -->
<g id="edge1_Node000001_Node000002" class="edge">
<title>Node2&#45;&gt;Node1</title>
<g id="a_edge1_Node000001_Node000002"><a xlink:title=" ">
<path fill="none" stroke="#63b8ff" d="M1756.27,-166.98C1777.36,-164.82 1800.72,-162.01 1822,-158.5 1843.49,-154.95 1867.25,-149.68 1886.42,-145.07"/>
<polygon fill="#63b8ff" stroke="#63b8ff" points="1755.72,-163.51 1746.11,-167.98 1756.41,-170.48 1755.72,-163.51"/>
</a>
</g>
</g>
<!-- Node3 -->
<g id="Node000003" class="node">
<title>Node3</title>
<g id="a_Node000003"><a xlink:href="class_cpl_1_1_dm_1_1_mp_1_1_float.html" target="_top" xlink:title="This class provides a concrete implementation for a Point who&#39;s data is a float.">
<polygon fill="white" stroke="#666666" points="1742,-145 1635,-145 1635,-126 1742,-126 1742,-145"/>
<text text-anchor="middle" x="1688.5" y="-133" font-family="Helvetica,sans-Serif" font-size="10.00">Cpl::Dm::Mp::Float</text>
</a>
</g>
</g>
<!-- Node3&#45;&gt;Node1 -->
<g id="edge2_Node000001_Node000003" class="edge">
<title>Node3&#45;&gt;Node1</title>
<g id="a_edge2_Node000001_Node000003"><a xlink:title=" ">
<path fill="none" stroke="#9a32cd" stroke-dasharray="5,2" d="M1752.18,-135.5C1779.07,-135.5 1810.89,-135.5 1839.79,-135.5"/>
<polygon fill="#9a32cd" stroke="#9a32cd" points="1752.13,-132 1742.13,-135.5 1752.13,-139 1752.13,-132"/>
</a>
</g>
<text text-anchor="middle" x="1793" y="-149.5" font-family="Helvetica,sans-Serif" font-size="10.00" fill="grey"> m_mpRh</text>
<text text-anchor="middle" x="1793" y="-138.5" font-family="Helvetica,sans-Serif" font-size="10.00" fill="grey">m_mpTemp</text>
</g>
<!-- Node4 -->
<g id="Node000004" class="node">
<title>Node4</title>
<g id="a_Node000004"><a xlink:href="class_cpl_1_1_dm_1_1_mp_1_1_numeric.html" target="_top" xlink:title=" ">
<polygon fill="white" stroke="#666666" points="1489,-153.5 1365,-153.5 1365,-123.5 1489,-123.5 1489,-153.5"/>
<text text-anchor="start" x="1373" y="-141.5" font-family="Helvetica,sans-Serif" font-size="10.00">Cpl::Dm::Mp::Numeric</text>
<text text-anchor="middle" x="1427" y="-130.5" font-family="Helvetica,sans-Serif" font-size="10.00">&lt; float, Float &gt;</text>
</a>
</g>
</g>
<!-- Node4&#45;&gt;Node3 -->
<g id="edge3_Node000003_Node000004" class="edge">
<title>Node4&#45;&gt;Node3</title>
<g id="a_edge3_Node000003_Node000004"><a xlink:title=" ">
<path fill="none" stroke="#63b8ff" d="M1499.24,-137.68C1542.05,-137.18 1595.61,-136.56 1634.64,-136.11"/>
<polygon fill="#63b8ff" stroke="#63b8ff" points="1499.13,-134.18 1489.17,-137.79 1499.21,-141.18 1499.13,-134.18"/>
</a>
</g>
</g>
<!-- Node5 -->
<g id="Node000005" class="node">
<title>Node5</title>
<g id="a_Node000005"><a xlink:href="class_cpl_1_1_dm_1_1_model_point_common__.html" target="_top" xlink:title="This concrete class provide common infrastructure for a Model Point.">
<polygon fill="white" stroke="#666666" points="1054,-148 888,-148 888,-129 1054,-129 1054,-148"/>
<text text-anchor="middle" x="971" y="-136" font-family="Helvetica,sans-Serif" font-size="10.00">Cpl::Dm::ModelPointCommon_</text>
</a>
</g>
</g>
<!-- Node5&#45;&gt;Node4 -->
<g id="edge4_Node000004_Node000005" class="edge">
<title>Node5&#45;&gt;Node4</title>
<g id="a_edge4_Node000004_Node000005"><a xlink:title=" ">
<path fill="none" stroke="#63b8ff" d="M1019.43,-150.32C1041.1,-155.13 1067.19,-160.12 1091,-162.5 1204.28,-173.81 1234.12,-168.33 1347,-153.5 1352.81,-152.74 1358.85,-151.82 1364.87,-150.82"/>
<polygon fill="#63b8ff" stroke="#63b8ff" points="1020.02,-146.86 1009.49,-148.05 1018.47,-153.69 1020.02,-146.86"/>
</a>
</g>
</g>
<!-- Node15 -->
<g id="Node000015" class="node">
<title>Node15</title>
<g id="a_Node000015"><a xlink:href="class_cpl_1_1_dm_1_1_mp_1_1_numeric.html" target="_top" xlink:title="This template class provides a mostly concrete implementation for a Model Point who&#39;s data is a C num...">
<polygon fill="white" stroke="#666666" points="1225,-153.5 1091,-153.5 1091,-123.5 1225,-123.5 1225,-153.5"/>
<text text-anchor="start" x="1099" y="-141.5" font-family="Helvetica,sans-Serif" font-size="10.00">Cpl::Dm::Mp::Numeric</text>
<text text-anchor="middle" x="1158" y="-130.5" font-family="Helvetica,sans-Serif" font-size="10.00">&lt; ELEMTYPE, MPTYPE &gt;</text>
</a>
</g>
</g>
<!-- Node5&#45;&gt;Node15 -->
<g id="edge15_Node000015_Node000005" class="edge">
<title>Node5&#45;&gt;Node15</title>
<g id="a_edge15_Node000015_Node000005"><a xlink:title=" ">
<path fill="none" stroke="#63b8ff" d="M1064.31,-138.5C1073.27,-138.5 1082.22,-138.5 1090.84,-138.5"/>
<polygon fill="#63b8ff" stroke="#63b8ff" points="1064.22,-135 1054.22,-138.5 1064.22,-142 1064.22,-135"/>
</a>
</g>
</g>
<!-- Node16 -->
<g id="Node000016" class="node">
<title>Node16</title>
<g id="a_Node000016"><a xlink:href="class_cpl_1_1_dm_1_1_mp_1_1_bool.html" target="_top" xlink:title="This class provides a concrete implementation for a Point who&#39;s data is a bool.">
<polygon fill="white" stroke="#666666" points="1347,-105 1243,-105 1243,-86 1347,-86 1347,-105"/>
<text text-anchor="middle" x="1295" y="-93" font-family="Helvetica,sans-Serif" font-size="10.00">Cpl::Dm::Mp::Bool</text>
</a>
</g>
</g>
<!-- Node5&#45;&gt;Node16 -->
<g id="edge17_Node000016_Node000005" class="edge">
<title>Node5&#45;&gt;Node16</title>
<g id="a_edge17_Node000016_Node000005"><a xlink:title=" ">
<path fill="none" stroke="#63b8ff" d="M1023.59,-126.86C1044.44,-122.48 1068.78,-117.77 1091,-114.5 1142.48,-106.92 1201.77,-101.78 1242.93,-98.78"/>
<polygon fill="#63b8ff" stroke="#63b8ff" points="1022.72,-123.47 1013.67,-128.97 1024.18,-130.31 1022.72,-123.47"/>
</a>
</g>
</g>
<!-- Node6 -->
<g id="Node000006" class="node">
<title>Node6</title>
<g id="a_Node000006"><a xlink:href="class_cpl_1_1_dm_1_1_model_point.html" target="_top" xlink:title="This mostly abstract class defines the interface for a Model Point.">
<polygon fill="white" stroke="#666666" points="738.5,-191 622.5,-191 622.5,-172 738.5,-172 738.5,-191"/>
<text text-anchor="middle" x="680.5" y="-179" font-family="Helvetica,sans-Serif" font-size="10.00">Cpl::Dm::ModelPoint</text>
</a>
</g>
</g>
<!-- Node6&#45;&gt;Node5 -->
<g id="edge5_Node000005_Node000006" class="edge">
<title>Node6&#45;&gt;Node5</title>
<g id="a_edge5_Node000005_Node000006"><a xlink:title=" ">
<path fill="none" stroke="#63b8ff" d="M748.73,-171.54C784.71,-166.2 829.77,-159.51 870,-153.5 881.81,-151.74 894.4,-149.85 906.52,-148.04"/>
<polygon fill="#63b8ff" stroke="#63b8ff" points="748.21,-168.08 738.84,-173 749.24,-175 748.21,-168.08"/>
</a>
</g>
</g>
<!-- Node7 -->
<g id="Node000007" class="node">
<title>Node7</title>
<g id="a_Node000007"><a xlink:href="class_cpl_1_1_container_1_1_item.html" target="_top" xlink:title="This class is used by the Container classes to implement a various types of singly linked containers.">
<polygon fill="white" stroke="#666666" points="411,-191 297,-191 297,-172 411,-172 411,-191"/>
<text text-anchor="middle" x="354" y="-179" font-family="Helvetica,sans-Serif" font-size="10.00">Cpl::Container::Item</text>
</a>
</g>
</g>
<!-- Node7&#45;&gt;Node6 -->
<g id="edge6_Node000006_Node000007" class="edge">
<title>Node7&#45;&gt;Node6</title>
<g id="a_edge6_Node000006_Node000007"><a xlink:title=" ">
<path fill="none" stroke="#63b8ff" d="M421.51,-181.5C480.67,-181.5 566.28,-181.5 622.4,-181.5"/>
<polygon fill="#63b8ff" stroke="#63b8ff" points="421.15,-178 411.15,-181.5 421.15,-185 421.15,-178"/>
</a>
</g>
</g>
<!-- Node8 -->
<g id="Node000008" class="node">
<title>Node8</title>
<g id="a_Node000008"><a xlink:href="class_cpl_1_1_container_1_1_d_list.html" target="_top" xlink:title=" ">
<polygon fill="white" stroke="#666666" points="756,-153.5 605,-153.5 605,-123.5 756,-123.5 756,-153.5"/>
<text text-anchor="start" x="613" y="-141.5" font-family="Helvetica,sans-Serif" font-size="10.00">Cpl::Container::DList</text>
<text text-anchor="middle" x="680.5" y="-130.5" font-family="Helvetica,sans-Serif" font-size="10.00">&lt; Cpl::Dm::SubscriberApi &gt;</text>
</a>
</g>
</g>
<!-- Node8&#45;&gt;Node5 -->
<g id="edge7_Node000005_Node000008" class="edge">
<title>Node8&#45;&gt;Node5</title>
<g id="a_edge7_Node000005_Node000008"><a xlink:title=" ">
<path fill="none" stroke="#9a32cd" stroke-dasharray="5,2" d="M766.28,-138.5C804.61,-138.5 849.75,-138.5 887.77,-138.5"/>
<polygon fill="#9a32cd" stroke="#9a32cd" points="766.17,-135 756.17,-138.5 766.17,-142 766.17,-135"/>
</a>
</g>
<text text-anchor="middle" x="822" y="-141.5" font-family="Helvetica,sans-Serif" font-size="10.00" fill="grey"> m_subscribers</text>
</g>
<!-- Node9 -->
<g id="Node000009" class="node">
<title>Node9</title>
<g id="a_Node000009"><a xlink:href="class_cpl_1_1_container_1_1_d_list.html" target="_top" xlink:title="This template class implements a Doubly linked list which maintains the ordering imposed on it by the...">
<polygon fill="white" stroke="#666666" points="412,-153.5 296,-153.5 296,-123.5 412,-123.5 412,-153.5"/>
<text text-anchor="start" x="304" y="-141.5" font-family="Helvetica,sans-Serif" font-size="10.00">Cpl::Container::DList</text>
<text text-anchor="middle" x="354" y="-130.5" font-family="Helvetica,sans-Serif" font-size="10.00">&lt; ITEM &gt;</text>
</a>
</g>
</g>
<!-- Node9&#45;&gt;Node8 -->
<g id="edge8_Node000008_Node000009" class="edge">
<title>Node9&#45;&gt;Node8</title>
<g id="a_edge8_Node000008_Node000009"><a xlink:title=" ">
<path fill="none" stroke="orange" stroke-dasharray="5,2" d="M422.28,-138.5C475.5,-138.5 549.75,-138.5 604.81,-138.5"/>
<polygon fill="orange" stroke="orange" points="422.27,-135 412.27,-138.5 422.27,-142 422.27,-135"/>
</a>
</g>
<text text-anchor="middle" x="518" y="-141.5" font-family="Helvetica,sans-Serif" font-size="10.00" fill="grey"> &lt; Cpl::Dm::SubscriberApi &gt;</text>
</g>
<!-- Node10 -->
<g id="Node000010" class="node">
<title>Node10</title>
<g id="a_Node000010"><a xlink:href="class_cpl_1_1_dm_1_1_model_database.html" target="_top" xlink:title="This concrete class implements a simple Model Database.">
<polygon fill="white" stroke="#666666" points="749.5,-84 611.5,-84 611.5,-65 749.5,-65 749.5,-84"/>
<text text-anchor="middle" x="680.5" y="-72" font-family="Helvetica,sans-Serif" font-size="10.00">Cpl::Dm::ModelDatabase</text>
</a>
</g>
</g>
<!-- Node10&#45;&gt;Node5 -->
<g id="edge9_Node000005_Node000010" class="edge">
<title>Node10&#45;&gt;Node5</title>
<g id="a_edge9_Node000005_Node000010"><a xlink:title=" ">
<path fill="none" stroke="#9a32cd" stroke-dasharray="5,2" d="M734.34,-86.22C789.67,-98.5 875.5,-117.54 926.88,-128.94"/>
<polygon fill="#9a32cd" stroke="#9a32cd" points="734.9,-82.76 724.38,-84.01 733.38,-89.6 734.9,-82.76"/>
</a>
</g>
<text text-anchor="middle" x="822" y="-118.5" font-family="Helvetica,sans-Serif" font-size="10.00" fill="grey"> m_modelDatabase</text>
</g>
<!-- Node11 -->
<g id="Node000011" class="node">
<title>Node11</title>
<g id="a_Node000011"><a xlink:href="class_cpl_1_1_dm_1_1_model_database_api.html" target="_top" xlink:title="This class defines the basic operations that can be performed on a Model Base.">
<polygon fill="white" stroke="#666666" points="431,-105 277,-105 277,-86 431,-86 431,-105"/>
<text text-anchor="middle" x="354" y="-93" font-family="Helvetica,sans-Serif" font-size="10.00">Cpl::Dm::ModelDatabaseApi</text>
</a>
</g>
</g>
<!-- Node11&#45;&gt;Node10 -->
<g id="edge10_Node000010_Node000011" class="edge">
<title>Node11&#45;&gt;Node10</title>
<g id="a_edge10_Node000010_Node000011"><a xlink:title=" ">
<path fill="none" stroke="#63b8ff" d="M441.19,-89.92C494.45,-86.48 561.83,-82.12 611.35,-78.91"/>
<polygon fill="#63b8ff" stroke="#63b8ff" points="440.83,-86.44 431.08,-90.58 441.29,-93.42 440.83,-86.44"/>
</a>
</g>
</g>
<!-- Node12 -->
<g id="Node000012" class="node">
<title>Node12</title>
<g id="a_Node000012"><a xlink:href="class_cpl_1_1_container_1_1_s_list.html" target="_top" xlink:title=" ">
<polygon fill="white" stroke="#666666" points="423.5,-67.5 284.5,-67.5 284.5,-37.5 423.5,-37.5 423.5,-67.5"/>
<text text-anchor="start" x="292.5" y="-55.5" font-family="Helvetica,sans-Serif" font-size="10.00">Cpl::Container::SList</text>
<text text-anchor="middle" x="354" y="-44.5" font-family="Helvetica,sans-Serif" font-size="10.00">&lt; Cpl::Dm::ModelPoint &gt;</text>
</a>
</g>
</g>
<!-- Node12&#45;&gt;Node10 -->
<g id="edge11_Node000010_Node000012" class="edge">
<title>Node12&#45;&gt;Node10</title>
<g id="a_edge11_Node000010_Node000012"><a xlink:title=" ">
<path fill="none" stroke="#9a32cd" stroke-dasharray="5,2" d="M433.83,-56.11C478.75,-58.37 536.06,-61.6 587,-65.5 594.88,-66.1 603.14,-66.81 611.33,-67.55"/>
<polygon fill="#9a32cd" stroke="#9a32cd" points="433.73,-52.6 423.57,-55.6 433.39,-59.6 433.73,-52.6"/>
</a>
</g>
<text text-anchor="middle" x="518" y="-68.5" font-family="Helvetica,sans-Serif" font-size="10.00" fill="grey"> m_list</text>
</g>
<!-- Node13 -->
<g id="Node000013" class="node">
<title>Node13</title>
<g id="a_Node000013"><a xlink:href="class_cpl_1_1_container_1_1_s_list.html" target="_top" xlink:title="This template class implements a singly linked list which maintains the ordering imposed on it by the...">
<polygon fill="white" stroke="#666666" points="115,-67.5 0,-67.5 0,-37.5 115,-37.5 115,-67.5"/>
<text text-anchor="start" x="8" y="-55.5" font-family="Helvetica,sans-Serif" font-size="10.00">Cpl::Container::SList</text>
<text text-anchor="middle" x="57.5" y="-44.5" font-family="Helvetica,sans-Serif" font-size="10.00">&lt; ITEM &gt;</text>
</a>
</g>
</g>
<!-- Node13&#45;&gt;Node12 -->
<g id="edge12_Node000012_Node000013" class="edge">
<title>Node13&#45;&gt;Node12</title>
<g id="a_edge12_Node000012_Node000013"><a xlink:title=" ">
<path fill="none" stroke="orange" stroke-dasharray="5,2" d="M125.47,-52.5C173.01,-52.5 236.61,-52.5 284.49,-52.5"/>
<polygon fill="orange" stroke="orange" points="125.28,-49 115.28,-52.5 125.28,-56 125.28,-49"/>
</a>
</g>
<text text-anchor="middle" x="196" y="-55.5" font-family="Helvetica,sans-Serif" font-size="10.00" fill="grey"> &lt; Cpl::Dm::ModelPoint &gt;</text>
</g>
<!-- Node14 -->
<g id="Node000014" class="node">
<title>Node14</title>
<g id="a_Node000014"><a xlink:href="class_cpl_1_1_system_1_1_mutex.html" target="_top" xlink:title="This mutex class defines the interface for a mutex that has &quot;recursive&quot; semantics.">
<polygon fill="white" stroke="#666666" points="410,-19 298,-19 298,0 410,0 410,-19"/>
<text text-anchor="middle" x="354" y="-7" font-family="Helvetica,sans-Serif" font-size="10.00">Cpl::System::Mutex</text>
</a>
</g>
</g>
<!-- Node14&#45;&gt;Node10 -->
<g id="edge13_Node000010_Node000014" class="edge">
<title>Node14&#45;&gt;Node10</title>
<g id="a_edge13_Node000010_Node000014"><a xlink:title=" ">
<path fill="none" stroke="#9a32cd" stroke-dasharray="5,2" d="M420.46,-14.9C467.31,-19.65 531.62,-27.96 587,-41.5 611.35,-47.45 638.23,-57.45 656.71,-64.89"/>
<polygon fill="#9a32cd" stroke="#9a32cd" points="420.74,-11.42 410.44,-13.92 420.05,-18.38 420.74,-11.42"/>
</a>
</g>
<text text-anchor="middle" x="518" y="-44.5" font-family="Helvetica,sans-Serif" font-size="10.00" fill="grey"> m_lock</text>
</g>
<!-- Node15&#45;&gt;Node4 -->
<g id="edge14_Node000004_Node000015" class="edge">
<title>Node15&#45;&gt;Node4</title>
<g id="a_edge14_Node000004_Node000015"><a xlink:title=" ">
<path fill="none" stroke="orange" stroke-dasharray="5,2" d="M1235.24,-138.5C1276.34,-138.5 1326.36,-138.5 1364.87,-138.5"/>
<polygon fill="orange" stroke="orange" points="1235,-135 1225,-138.5 1235,-142 1235,-135"/>
</a>
</g>
<text text-anchor="middle" x="1295" y="-141.5" font-family="Helvetica,sans-Serif" font-size="10.00" fill="grey"> &lt; float, Float &gt;</text>
</g>
<!-- Node16&#45;&gt;Node1 -->
<g id="edge16_Node000001_Node000016" class="edge">
<title>Node16&#45;&gt;Node1</title>
<g id="a_edge16_Node000001_Node000016"><a xlink:title=" ">
<path fill="none" stroke="#9a32cd" stroke-dasharray="5,2" d="M1357.18,-97.48C1443.81,-100.52 1607.15,-107.09 1746,-117.5 1776.66,-119.8 1810.23,-123.01 1839.87,-126.09"/>
<polygon fill="#9a32cd" stroke="#9a32cd" points="1357.12,-93.98 1347,-97.13 1356.88,-100.98 1357.12,-93.98"/>
</a>
</g>
<text text-anchor="middle" x="1560" y="-111.5" font-family="Helvetica,sans-Serif" font-size="10.00" fill="grey"> m_mpHeaterEnabled</text>
</g>
</g>
</svg>
