<?xml version="1.0" encoding="UTF-8" standalone="no"?>
<!DOCTYPE svg PUBLIC "-//W3C//DTD SVG 1.1//EN"
 "http://www.w3.org/Graphics/SVG/1.1/DTD/svg11.dtd">
<!-- Generated by graphviz version 2.43.0 (0)
 -->
<!-- Title: Cpl::Itc::MailboxServer Pages: 1 -->
<svg width="1216pt" height="382pt"
 viewBox="0.00 0.00 1216.00 381.50" xmlns="http://www.w3.org/2000/svg" xmlns:xlink="http://www.w3.org/1999/xlink">
<g id="graph0" class="graph" transform="scale(1 1) rotate(0) translate(4 377.5)">
<title>Cpl::Itc::MailboxServer</title>
<!-- Node1 -->
<g id="Node000001" class="node">
<title>Node1</title>
<g id="a_Node000001"><a xlink:title="This class collects the common functions of a generic server providing a mailbox and Event loop.">
<polygon fill="#999999" stroke="#666666" points="1208,-275.5 1081,-275.5 1081,-256.5 1208,-256.5 1208,-275.5"/>
<text text-anchor="middle" x="1144.5" y="-263.5" font-family="Helvetica,sans-Serif" font-size="10.00">Cpl::Itc::MailboxServer</text>
</a>
</g>
</g>
<!-- Node2 -->
<g id="Node000002" class="node">
<title>Node2</title>
<g id="a_Node000002"><a xlink:href="class_cpl_1_1_itc_1_1_mailbox.html" target="_top" xlink:title="This mailbox class implements an Inter Thread Communications message queue.">
<polygon fill="white" stroke="#666666" points="762.5,-334.5 667.5,-334.5 667.5,-315.5 762.5,-315.5 762.5,-334.5"/>
<text text-anchor="middle" x="715" y="-322.5" font-family="Helvetica,sans-Serif" font-size="10.00">Cpl::Itc::Mailbox</text>
</a>
</g>
</g>
<!-- Node2&#45;&gt;Node1 -->
<g id="edge1_Node000001_Node000002" class="edge">
<title>Node2&#45;&gt;Node1</title>
<g id="a_edge1_Node000001_Node000002"><a xlink:title=" ">
<path fill="none" stroke="#63b8ff" d="M772.93,-317.14C852.86,-306.11 997.83,-286.1 1080.78,-274.66"/>
<polygon fill="#63b8ff" stroke="#63b8ff" points="771.99,-313.74 762.56,-318.57 772.95,-320.67 771.99,-313.74"/>
</a>
</g>
</g>
<!-- Node3 -->
<g id="Node000003" class="node">
<title>Node3</title>
<g id="a_Node000003"><a xlink:href="class_cpl_1_1_itc_1_1_post_api.html" target="_top" xlink:title="This abstract class represents the interface used to send messages to a mailbox.">
<polygon fill="white" stroke="#666666" points="469,-373.5 376,-373.5 376,-354.5 469,-354.5 469,-373.5"/>
<text text-anchor="middle" x="422.5" y="-361.5" font-family="Helvetica,sans-Serif" font-size="10.00">Cpl::Itc::PostApi</text>
</a>
</g>
</g>
<!-- Node3&#45;&gt;Node2 -->
<g id="edge2_Node000002_Node000003" class="edge">
<title>Node3&#45;&gt;Node2</title>
<g id="a_edge2_Node000002_Node000003"><a xlink:title=" ">
<path fill="none" stroke="#63b8ff" d="M479.39,-356.5C533.91,-349.18 615.9,-338.17 667.11,-331.29"/>
<polygon fill="#63b8ff" stroke="#63b8ff" points="478.66,-353.06 469.21,-357.86 479.59,-360 478.66,-353.06"/>
</a>
</g>
</g>
<!-- Node4 -->
<g id="Node000004" class="node">
<title>Node4</title>
<g id="a_Node000004"><a xlink:href="class_cpl_1_1_container_1_1_s_list.html" target="_top" xlink:title=" ">
<polygon fill="white" stroke="#666666" points="480,-336 365,-336 365,-306 480,-306 480,-336"/>
<text text-anchor="start" x="373" y="-324" font-family="Helvetica,sans-Serif" font-size="10.00">Cpl::Container::SList</text>
<text text-anchor="middle" x="422.5" y="-313" font-family="Helvetica,sans-Serif" font-size="10.00">&lt; Message &gt;</text>
</a>
</g>
</g>
<!-- Node4&#45;&gt;Node2 -->
<g id="edge3_Node000002_Node000004" class="edge">
<title>Node4&#45;&gt;Node2</title>
<g id="a_edge3_Node000002_Node000004"><a xlink:title=" ">
<path fill="none" stroke="#63b8ff" d="M490.41,-321.92C544.64,-322.67 619.64,-323.7 667.49,-324.36"/>
<polygon fill="#63b8ff" stroke="#63b8ff" points="490.25,-318.42 480.2,-321.78 490.15,-325.42 490.25,-318.42"/>
</a>
</g>
</g>
<!-- Node5 -->
<g id="Node000005" class="node">
<title>Node5</title>
<g id="a_Node000005"><a xlink:href="class_cpl_1_1_container_1_1_s_list.html" target="_top" xlink:title="This template class implements a singly linked list which maintains the ordering imposed on it by the...">
<polygon fill="white" stroke="#666666" points="115.5,-336 0.5,-336 0.5,-306 115.5,-306 115.5,-336"/>
<text text-anchor="start" x="8.5" y="-324" font-family="Helvetica,sans-Serif" font-size="10.00">Cpl::Container::SList</text>
<text text-anchor="middle" x="58" y="-313" font-family="Helvetica,sans-Serif" font-size="10.00">&lt; ITEM &gt;</text>
</a>
</g>
</g>
<!-- Node5&#45;&gt;Node4 -->
<g id="edge4_Node000004_Node000005" class="edge">
<title>Node5&#45;&gt;Node4</title>
<g id="a_edge4_Node000004_Node000005"><a xlink:title=" ">
<path fill="none" stroke="orange" stroke-dasharray="5,2" d="M125.92,-321C194.6,-321 300.32,-321 364.96,-321"/>
<polygon fill="orange" stroke="orange" points="125.64,-317.5 115.64,-321 125.64,-324.5 125.64,-317.5"/>
</a>
</g>
<text text-anchor="middle" x="222" y="-324" font-family="Helvetica,sans-Serif" font-size="10.00" fill="grey"> &lt; Message &gt;</text>
</g>
<!-- Node6 -->
<g id="Node000006" class="node">
<title>Node6</title>
<g id="a_Node000006"><a xlink:href="class_cpl_1_1_system_1_1_signable.html" target="_top" xlink:title="This abstract class defines the interface by which a client can cause an object that is waiting&#45;on&#45;a&#45;...">
<polygon fill="white" stroke="#666666" points="484,-276.5 361,-276.5 361,-257.5 484,-257.5 484,-276.5"/>
<text text-anchor="middle" x="422.5" y="-264.5" font-family="Helvetica,sans-Serif" font-size="10.00">Cpl::System::Signable</text>
</a>
</g>
</g>
<!-- Node6&#45;&gt;Node2 -->
<g id="edge5_Node000002_Node000006" class="edge">
<title>Node6&#45;&gt;Node2</title>
<g id="a_edge5_Node000002_Node000006"><a xlink:title=" ">
<path fill="none" stroke="#9a32cd" stroke-dasharray="5,2" d="M481.01,-278.48C535.59,-289.38 616.59,-305.55 667.29,-315.67"/>
<polygon fill="#9a32cd" stroke="#9a32cd" points="481.64,-275.04 471.14,-276.51 480.27,-281.9 481.64,-275.04"/>
</a>
</g>
<text text-anchor="middle" x="578" y="-309" font-family="Helvetica,sans-Serif" font-size="10.00" fill="grey"> m_eventLoop</text>
</g>
<!-- Node8 -->
<g id="Node000008" class="node">
<title>Node8</title>
<g id="a_Node000008"><a xlink:href="class_cpl_1_1_system_1_1_event_loop.html" target="_top" xlink:title="This concrete class is a Runnable object that provides a event driven execution model for a thread.">
<polygon fill="white" stroke="#666666" points="1044,-194.5 912,-194.5 912,-175.5 1044,-175.5 1044,-194.5"/>
<text text-anchor="middle" x="978" y="-182.5" font-family="Helvetica,sans-Serif" font-size="10.00">Cpl::System::EventLoop</text>
</a>
</g>
</g>
<!-- Node6&#45;&gt;Node8 -->
<g id="edge10_Node000008_Node000006" class="edge">
<title>Node6&#45;&gt;Node8</title>
<g id="a_edge10_Node000008_Node000006"><a xlink:title=" ">
<path fill="none" stroke="#63b8ff" d="M494.14,-273.01C588.57,-278.42 759.61,-278.99 894,-228 918.43,-218.73 944.96,-204.11 961.29,-194.54"/>
<polygon fill="#63b8ff" stroke="#63b8ff" points="494.32,-269.51 484.13,-272.4 493.9,-276.5 494.32,-269.51"/>
</a>
</g>
</g>
<!-- Node15 -->
<g id="Node000015" class="node">
<title>Node15</title>
<g id="a_Node000015"><a xlink:href="class_cpl_1_1_system_1_1_thread.html" target="_top" xlink:title="This abstract class defines the operations that can be performed on a thread.">
<polygon fill="white" stroke="#666666" points="772.5,-171.5 657.5,-171.5 657.5,-152.5 772.5,-152.5 772.5,-171.5"/>
<text text-anchor="middle" x="715" y="-159.5" font-family="Helvetica,sans-Serif" font-size="10.00">Cpl::System::Thread</text>
</a>
</g>
</g>
<!-- Node6&#45;&gt;Node15 -->
<g id="edge16_Node000015_Node000006" class="edge">
<title>Node6&#45;&gt;Node15</title>
<g id="a_edge16_Node000015_Node000006"><a xlink:title=" ">
<path fill="none" stroke="#63b8ff" d="M453.41,-253.27C494.56,-234.78 571.23,-201.68 639,-180 648.69,-176.9 659.24,-174.05 669.28,-171.58"/>
<polygon fill="#63b8ff" stroke="#63b8ff" points="451.9,-250.12 444.23,-257.43 454.78,-256.5 451.9,-250.12"/>
</a>
</g>
</g>
<!-- Node17 -->
<g id="Node000017" class="node">
<title>Node17</title>
<g id="a_Node000017"><a xlink:href="class_cpl_1_1_system_1_1_semaphore.html" target="_top" xlink:title="This semaphore class defines the interface for a Counting Semaphore.">
<polygon fill="white" stroke="#666666" points="783.5,-134.5 646.5,-134.5 646.5,-115.5 783.5,-115.5 783.5,-134.5"/>
<text text-anchor="middle" x="715" y="-122.5" font-family="Helvetica,sans-Serif" font-size="10.00">Cpl::System::Semaphore</text>
</a>
</g>
</g>
<!-- Node6&#45;&gt;Node17 -->
<g id="edge19_Node000017_Node000006" class="edge">
<title>Node6&#45;&gt;Node17</title>
<g id="a_edge19_Node000017_Node000006"><a xlink:title=" ">
<path fill="none" stroke="#63b8ff" d="M441.85,-250.94C463.13,-232.89 499.81,-203.58 535,-184 578.42,-159.84 591.62,-157.95 639,-143 648.83,-139.9 659.54,-137.03 669.7,-134.55"/>
<polygon fill="#63b8ff" stroke="#63b8ff" points="439.53,-248.31 434.22,-257.48 444.09,-253.62 439.53,-248.31"/>
</a>
</g>
</g>
<!-- Node7 -->
<g id="Node000007" class="node">
<title>Node7</title>
<g id="a_Node000007"><a xlink:href="class_cpl_1_1_container_1_1_item.html" target="_top" xlink:title="This class is used by the Container classes to implement a various types of singly linked containers.">
<polygon fill="white" stroke="#666666" points="115,-276.5 1,-276.5 1,-257.5 115,-257.5 115,-276.5"/>
<text text-anchor="middle" x="58" y="-264.5" font-family="Helvetica,sans-Serif" font-size="10.00">Cpl::Container::Item</text>
</a>
</g>
</g>
<!-- Node7&#45;&gt;Node6 -->
<g id="edge6_Node000006_Node000007" class="edge">
<title>Node7&#45;&gt;Node6</title>
<g id="a_edge6_Node000006_Node000007"><a xlink:title=" ">
<path fill="none" stroke="#63b8ff" d="M125.31,-267C192.56,-267 295.76,-267 360.89,-267"/>
<polygon fill="#63b8ff" stroke="#63b8ff" points="125.24,-263.5 115.24,-267 125.24,-270.5 125.24,-263.5"/>
</a>
</g>
</g>
<!-- Node8&#45;&gt;Node1 -->
<g id="edge7_Node000001_Node000008" class="edge">
<title>Node8&#45;&gt;Node1</title>
<g id="a_edge7_Node000001_Node000008"><a xlink:title=" ">
<path fill="none" stroke="#63b8ff" d="M1007.74,-199.15C1041.1,-215.58 1095.21,-242.22 1124.01,-256.4"/>
<polygon fill="#63b8ff" stroke="#63b8ff" points="1009.03,-195.89 998.52,-194.61 1005.94,-202.17 1009.03,-195.89"/>
</a>
</g>
</g>
<!-- Node9 -->
<g id="Node000009" class="node">
<title>Node9</title>
<g id="a_Node000009"><a xlink:href="class_cpl_1_1_system_1_1_runnable.html" target="_top" xlink:title="This is an abstract class defines the interface for an object that is &quot;executed&quot; when a Thread object...">
<polygon fill="white" stroke="#666666" points="778.5,-245.5 651.5,-245.5 651.5,-226.5 778.5,-226.5 778.5,-245.5"/>
<text text-anchor="middle" x="715" y="-233.5" font-family="Helvetica,sans-Serif" font-size="10.00">Cpl::System::Runnable</text>
</a>
</g>
</g>
<!-- Node9&#45;&gt;Node8 -->
<g id="edge8_Node000008_Node000009" class="edge">
<title>Node9&#45;&gt;Node8</title>
<g id="a_edge8_Node000008_Node000009"><a xlink:title=" ">
<path fill="none" stroke="#63b8ff" d="M789.09,-225.05C821.36,-219.86 859.69,-213.22 894,-206 909.85,-202.66 927.25,-198.36 942.01,-194.52"/>
<polygon fill="#63b8ff" stroke="#63b8ff" points="788.17,-221.65 778.84,-226.68 789.27,-228.56 788.17,-221.65"/>
</a>
</g>
</g>
<!-- Node10 -->
<g id="Node000010" class="node">
<title>Node10</title>
<g id="a_Node000010"><a xlink:href="class_cpl_1_1_system_1_1_event_flag.html" target="_top" xlink:title="This abstract class defines the interface to generated a &#39;Event Flag&#39;.">
<polygon fill="white" stroke="#666666" points="780,-208.5 650,-208.5 650,-189.5 780,-189.5 780,-208.5"/>
<text text-anchor="middle" x="715" y="-196.5" font-family="Helvetica,sans-Serif" font-size="10.00">Cpl::System::EventFlag</text>
</a>
</g>
</g>
<!-- Node10&#45;&gt;Node8 -->
<g id="edge9_Node000008_Node000010" class="edge">
<title>Node10&#45;&gt;Node8</title>
<g id="a_edge9_Node000008_Node000010"><a xlink:title=" ">
<path fill="none" stroke="#63b8ff" d="M790.24,-195.02C828.53,-192.96 874.8,-190.48 911.7,-188.5"/>
<polygon fill="#63b8ff" stroke="#63b8ff" points="789.98,-191.53 780.18,-195.56 790.36,-198.52 789.98,-191.53"/>
</a>
</g>
</g>
<!-- Node11 -->
<g id="Node000011" class="node">
<title>Node11</title>
<g id="a_Node000011"><a xlink:href="class_cpl_1_1_system_1_1_timer_manager.html" target="_top" xlink:title="This mostly concrete class implements manages a list of Software Timers.">
<polygon fill="white" stroke="#666666" points="791,-48.5 639,-48.5 639,-29.5 791,-29.5 791,-48.5"/>
<text text-anchor="middle" x="715" y="-36.5" font-family="Helvetica,sans-Serif" font-size="10.00">Cpl::System::TimerManager</text>
</a>
</g>
</g>
<!-- Node11&#45;&gt;Node8 -->
<g id="edge11_Node000008_Node000011" class="edge">
<title>Node11&#45;&gt;Node8</title>
<g id="a_edge11_Node000008_Node000011"><a xlink:title=" ">
<path fill="none" stroke="#63b8ff" d="M786.99,-50.73C821.34,-58.77 861.96,-71.91 894,-93 928.86,-115.95 958.55,-156.95 970.89,-175.46"/>
<polygon fill="#63b8ff" stroke="#63b8ff" points="787.54,-47.27 777.01,-48.5 786.01,-54.1 787.54,-47.27"/>
</a>
</g>
</g>
<!-- Node12 -->
<g id="Node000012" class="node">
<title>Node12</title>
<g id="a_Node000012"><a xlink:href="class_cpl_1_1_system_1_1_counter_source__.html" target="_top" xlink:title="This abstract class defines the interface for registering for an Counter object with the Timer Manage...">
<polygon fill="white" stroke="#666666" points="501.5,-67.5 343.5,-67.5 343.5,-48.5 501.5,-48.5 501.5,-67.5"/>
<text text-anchor="middle" x="422.5" y="-55.5" font-family="Helvetica,sans-Serif" font-size="10.00">Cpl::System::CounterSource_</text>
</a>
</g>
</g>
<!-- Node12&#45;&gt;Node11 -->
<g id="edge12_Node000011_Node000012" class="edge">
<title>Node12&#45;&gt;Node11</title>
<g id="a_edge12_Node000011_Node000012"><a xlink:title=" ">
<path fill="none" stroke="#63b8ff" d="M511.87,-52.22C552.36,-49.57 599.86,-46.47 638.64,-43.93"/>
<polygon fill="#63b8ff" stroke="#63b8ff" points="511.48,-48.74 501.73,-52.88 511.94,-55.72 511.48,-48.74"/>
</a>
</g>
</g>
<!-- Node13 -->
<g id="Node000013" class="node">
<title>Node13</title>
<g id="a_Node000013"><a xlink:href="class_cpl_1_1_container_1_1_d_list.html" target="_top" xlink:title=" ">
<polygon fill="white" stroke="#666666" points="517,-30 328,-30 328,0 517,0 517,-30"/>
<text text-anchor="start" x="336" y="-18" font-family="Helvetica,sans-Serif" font-size="10.00">Cpl::Container::DList</text>
<text text-anchor="middle" x="422.5" y="-7" font-family="Helvetica,sans-Serif" font-size="10.00">&lt; Cpl::System::CounterCallback_ &gt;</text>
</a>
</g>
</g>
<!-- Node13&#45;&gt;Node11 -->
<g id="edge13_Node000011_Node000013" class="edge">
<title>Node13&#45;&gt;Node11</title>
<g id="a_edge13_Node000011_Node000013"><a xlink:title=" ">
<path fill="none" stroke="#9a32cd" stroke-dasharray="5,2" d="M527.32,-14.2C557.6,-14.89 590.69,-16.55 621,-20 638.85,-22.03 658.36,-25.78 674.88,-29.41"/>
<polygon fill="#9a32cd" stroke="#9a32cd" points="527.23,-10.7 517.17,-14 527.1,-17.69 527.23,-10.7"/>
</a>
</g>
<text text-anchor="middle" x="578" y="-34" font-family="Helvetica,sans-Serif" font-size="10.00" fill="grey"> m_counters</text>
<text text-anchor="middle" x="578" y="-23" font-family="Helvetica,sans-Serif" font-size="10.00" fill="grey">m_pendingAttach</text>
</g>
<!-- Node14 -->
<g id="Node000014" class="node">
<title>Node14</title>
<g id="a_Node000014"><a xlink:href="class_cpl_1_1_container_1_1_d_list.html" target="_top" xlink:title="This template class implements a Doubly linked list which maintains the ordering imposed on it by the...">
<polygon fill="white" stroke="#666666" points="116,-30 0,-30 0,0 116,0 116,-30"/>
<text text-anchor="start" x="8" y="-18" font-family="Helvetica,sans-Serif" font-size="10.00">Cpl::Container::DList</text>
<text text-anchor="middle" x="58" y="-7" font-family="Helvetica,sans-Serif" font-size="10.00">&lt; ITEM &gt;</text>
</a>
</g>
</g>
<!-- Node14&#45;&gt;Node13 -->
<g id="edge14_Node000013_Node000014" class="edge">
<title>Node14&#45;&gt;Node13</title>
<g id="a_edge14_Node000013_Node000014"><a xlink:title=" ">
<path fill="none" stroke="orange" stroke-dasharray="5,2" d="M126.32,-15C183,-15 264.69,-15 327.77,-15"/>
<polygon fill="orange" stroke="orange" points="126.04,-11.5 116.04,-15 126.04,-18.5 126.04,-11.5"/>
</a>
</g>
<text text-anchor="middle" x="222" y="-18" font-family="Helvetica,sans-Serif" font-size="10.00" fill="grey"> &lt; Cpl::System::CounterCallback_ &gt;</text>
</g>
<!-- Node15&#45;&gt;Node8 -->
<g id="edge15_Node000008_Node000015" class="edge">
<title>Node15&#45;&gt;Node8</title>
<g id="a_edge15_Node000008_Node000015"><a xlink:title=" ">
<path fill="none" stroke="#9a32cd" stroke-dasharray="5,2" d="M782.69,-166.13C816.14,-168.38 857.25,-171.45 894,-175 899.78,-175.56 905.78,-176.19 911.79,-176.85"/>
<polygon fill="#9a32cd" stroke="#9a32cd" points="782.78,-162.62 772.57,-165.45 782.32,-169.61 782.78,-162.62"/>
</a>
</g>
<text text-anchor="middle" x="851.5" y="-178" font-family="Helvetica,sans-Serif" font-size="10.00" fill="grey"> m_myThreadPtr</text>
</g>
<!-- Node16 -->
<g id="Node000016" class="node">
<title>Node16</title>
<g id="a_Node000016"><a xlink:href="class_cpl_1_1_system_1_1_shared_event_handler_api.html" target="_top" xlink:title="This abstract class defines the interface for a Shared Event Handler.">
<polygon fill="white" stroke="#666666" points="786.5,-97 643.5,-97 643.5,-67 786.5,-67 786.5,-97"/>
<text text-anchor="start" x="651.5" y="-85" font-family="Helvetica,sans-Serif" font-size="10.00">Cpl::System::SharedEvent</text>
<text text-anchor="middle" x="715" y="-74" font-family="Helvetica,sans-Serif" font-size="10.00">HandlerApi</text>
</a>
</g>
</g>
<!-- Node16&#45;&gt;Node8 -->
<g id="edge17_Node000008_Node000016" class="edge">
<title>Node16&#45;&gt;Node8</title>
<g id="a_edge17_Node000008_Node000016"><a xlink:title=" ">
<path fill="none" stroke="#9a32cd" stroke-dasharray="5,2" d="M796.69,-93.25C828.03,-99.48 863.62,-108.92 894,-123 923.37,-136.61 952.47,-161.73 967.16,-175.45"/>
<polygon fill="#9a32cd" stroke="#9a32cd" points="797.15,-89.78 786.67,-91.34 795.84,-96.65 797.15,-89.78"/>
</a>
</g>
<text text-anchor="middle" x="851.5" y="-126" font-family="Helvetica,sans-Serif" font-size="10.00" fill="grey"> m_eventHandler</text>
</g>
<!-- Node17&#45;&gt;Node8 -->
<g id="edge18_Node000008_Node000017" class="edge">
<title>Node17&#45;&gt;Node8</title>
<g id="a_edge18_Node000008_Node000017"><a xlink:title=" ">
<path fill="none" stroke="#9a32cd" stroke-dasharray="5,2" d="M793.86,-134.31C825.26,-138.94 861.64,-145.41 894,-154 915.11,-159.6 938.34,-168.53 954.84,-175.37"/>
<polygon fill="#9a32cd" stroke="#9a32cd" points="794.25,-130.83 783.85,-132.87 793.25,-137.76 794.25,-130.83"/>
</a>
</g>
<text text-anchor="middle" x="851.5" y="-157" font-family="Helvetica,sans-Serif" font-size="10.00" fill="grey"> m_sema</text>
</g>
</g>
</svg>
