<?xml version="1.0" encoding="UTF-8" standalone="no"?>
<!DOCTYPE svg PUBLIC "-//W3C//DTD SVG 1.1//EN"
 "http://www.w3.org/Graphics/SVG/1.1/DTD/svg11.dtd">
<!-- Generated by graphviz version 2.43.0 (0)
 -->
<!-- Title: Cpl::Memory::Pool_ Pages: 1 -->
<svg width="318pt" height="214pt"
 viewBox="0.00 0.00 318.00 214.00" xmlns="http://www.w3.org/2000/svg" xmlns:xlink="http://www.w3.org/1999/xlink">
<g id="graph0" class="graph" transform="scale(1 1) rotate(0) translate(4 210)">
<title>Cpl::Memory::Pool_</title>
<!-- Node1 -->
<g id="Node000001" class="node">
<title>Node1</title>
<g id="a_Node000001"><a xlink:title="This private concrete class implements a Memory Allocator using a pool of fixed size blocks.">
<polygon fill="#999999" stroke="#666666" points="190,-19 80,-19 80,0 190,0 190,-19"/>
<text text-anchor="middle" x="135" y="-7" font-family="Helvetica,sans-Serif" font-size="10.00">Cpl::Memory::Pool_</text>
</a>
</g>
</g>
<!-- Node2 -->
<g id="Node000002" class="node">
<title>Node2</title>
<g id="a_Node000002"><a xlink:href="class_cpl_1_1_memory_1_1_allocator.html" target="_top" xlink:title="This abstract class defines the interface for a Memory Allocator.">
<polygon fill="white" stroke="#666666" points="128,-107 0,-107 0,-88 128,-88 128,-107"/>
<text text-anchor="middle" x="64" y="-95" font-family="Helvetica,sans-Serif" font-size="10.00">Cpl::Memory::Allocator</text>
</a>
</g>
</g>
<!-- Node2&#45;&gt;Node1 -->
<g id="edge1_Node000001_Node000002" class="edge">
<title>Node2&#45;&gt;Node1</title>
<g id="a_edge1_Node000001_Node000002"><a xlink:title=" ">
<path fill="none" stroke="#63b8ff" d="M77.67,-79.94C92.71,-61.72 116.29,-33.17 127.96,-19.03"/>
<polygon fill="#63b8ff" stroke="#63b8ff" points="74.73,-78 71.07,-87.94 80.13,-82.46 74.73,-78"/>
</a>
</g>
</g>
<!-- Node3 -->
<g id="Node000003" class="node">
<title>Node3</title>
<g id="a_Node000003"><a xlink:href="class_cpl_1_1_container_1_1_item.html" target="_top" xlink:title="This class is used by the Container classes to implement a various types of singly linked containers.">
<polygon fill="white" stroke="#666666" points="121,-200.5 7,-200.5 7,-181.5 121,-181.5 121,-200.5"/>
<text text-anchor="middle" x="64" y="-188.5" font-family="Helvetica,sans-Serif" font-size="10.00">Cpl::Container::Item</text>
</a>
</g>
</g>
<!-- Node3&#45;&gt;Node2 -->
<g id="edge2_Node000002_Node000003" class="edge">
<title>Node3&#45;&gt;Node2</title>
<g id="a_edge2_Node000002_Node000003"><a xlink:title=" ">
<path fill="none" stroke="#63b8ff" d="M64,-171.04C64,-151.42 64,-121.66 64,-107.11"/>
<polygon fill="#63b8ff" stroke="#63b8ff" points="60.5,-171.23 64,-181.23 67.5,-171.23 60.5,-171.23"/>
</a>
</g>
</g>
<!-- Node4 -->
<g id="Node000004" class="node">
<title>Node4</title>
<g id="a_Node000004"><a xlink:href="class_cpl_1_1_container_1_1_d_list.html" target="_top" xlink:title=" ">
<polygon fill="white" stroke="#666666" points="268,-118 146,-118 146,-77 268,-77 268,-118"/>
<text text-anchor="start" x="154" y="-106" font-family="Helvetica,sans-Serif" font-size="10.00">Cpl::Container::DList</text>
<text text-anchor="start" x="154" y="-95" font-family="Helvetica,sans-Serif" font-size="10.00">&lt; Cpl::Memory::Pool_</text>
<text text-anchor="middle" x="207" y="-84" font-family="Helvetica,sans-Serif" font-size="10.00">::BlockInfo_ &gt;</text>
</a>
</g>
</g>
<!-- Node4&#45;&gt;Node1 -->
<g id="edge3_Node000001_Node000004" class="edge">
<title>Node4&#45;&gt;Node1</title>
<g id="a_edge3_Node000001_Node000004"><a xlink:title=" ">
<path fill="none" stroke="#9a32cd" stroke-dasharray="5,2" d="M183.94,-68.96C169.65,-51.88 152.21,-31.05 142.48,-19.43"/>
<polygon fill="#9a32cd" stroke="#9a32cd" points="181.56,-71.56 190.66,-76.99 186.93,-67.07 181.56,-71.56"/>
</a>
</g>
<text text-anchor="middle" x="215.5" y="-51" font-family="Helvetica,sans-Serif" font-size="10.00" fill="grey"> m_allocatedList</text>
<text text-anchor="middle" x="215.5" y="-40" font-family="Helvetica,sans-Serif" font-size="10.00" fill="grey">m_freeList</text>
</g>
<!-- Node5 -->
<g id="Node000005" class="node">
<title>Node5</title>
<g id="a_Node000005"><a xlink:href="class_cpl_1_1_container_1_1_d_list.html" target="_top" xlink:title="This template class implements a Doubly linked list which maintains the ordering imposed on it by the...">
<polygon fill="white" stroke="#666666" points="265,-206 149,-206 149,-176 265,-176 265,-206"/>
<text text-anchor="start" x="157" y="-194" font-family="Helvetica,sans-Serif" font-size="10.00">Cpl::Container::DList</text>
<text text-anchor="middle" x="207" y="-183" font-family="Helvetica,sans-Serif" font-size="10.00">&lt; ITEM &gt;</text>
</a>
</g>
</g>
<!-- Node5&#45;&gt;Node4 -->
<g id="edge4_Node000004_Node000005" class="edge">
<title>Node5&#45;&gt;Node4</title>
<g id="a_edge4_Node000004_Node000005"><a xlink:title=" ">
<path fill="none" stroke="orange" stroke-dasharray="5,2" d="M207,-165.69C207,-150.82 207,-132.05 207,-118.13"/>
<polygon fill="orange" stroke="orange" points="203.5,-165.7 207,-175.7 210.5,-165.7 203.5,-165.7"/>
</a>
</g>
<text text-anchor="start" x="207" y="-150" font-family="Helvetica,sans-Serif" font-size="10.00" fill="grey"> &lt; Cpl::Memory::Pool</text>
<text text-anchor="middle" x="258.5" y="-139" font-family="Helvetica,sans-Serif" font-size="10.00" fill="grey">_::BlockInfo_ &gt;</text>
</g>
</g>
</svg>
