<?xml version="1.0" encoding="UTF-8" standalone="no"?>
<!DOCTYPE svg PUBLIC "-//W3C//DTD SVG 1.1//EN"
 "http://www.w3.org/Graphics/SVG/1.1/DTD/svg11.dtd">
<!-- Generated by graphviz version 2.43.0 (0)
 -->
<!-- Title: Cpl::Persistent::NVAdapter Pages: 1 -->
<svg width="272pt" height="93pt"
 viewBox="0.00 0.00 271.50 93.00" xmlns="http://www.w3.org/2000/svg" xmlns:xlink="http://www.w3.org/1999/xlink">
<g id="graph0" class="graph" transform="scale(1 1) rotate(0) translate(4 89)">
<title>Cpl::Persistent::NVAdapter</title>
<!-- Node1 -->
<g id="Node000001" class="node">
<title>Node1</title>
<g id="a_Node000001"><a xlink:title="This concrete class implements the RegionMedia interface using the Driver::NV::Api interface.">
<polygon fill="#999999" stroke="#666666" points="221,-19 76,-19 76,0 221,0 221,-19"/>
<text text-anchor="middle" x="148.5" y="-7" font-family="Helvetica,sans-Serif" font-size="10.00">Cpl::Persistent::NVAdapter</text>
</a>
</g>
</g>
<!-- Node2 -->
<g id="Node000002" class="node">
<title>Node2</title>
<g id="a_Node000002"><a xlink:href="class_cpl_1_1_persistent_1_1_region_media.html" target="_top" xlink:title="This mostly abstract class defines the operations that can be performed on a persistent media.">
<polygon fill="white" stroke="#666666" points="157,-85 0,-85 0,-66 157,-66 157,-85"/>
<text text-anchor="middle" x="78.5" y="-73" font-family="Helvetica,sans-Serif" font-size="10.00">Cpl::Persistent::RegionMedia</text>
</a>
</g>
</g>
<!-- Node2&#45;&gt;Node1 -->
<g id="edge1_Node000001_Node000002" class="edge">
<title>Node2&#45;&gt;Node1</title>
<g id="a_edge1_Node000001_Node000002"><a xlink:title=" ">
<path fill="none" stroke="#63b8ff" d="M95.64,-58.83C109.19,-46.44 127.63,-29.59 138.76,-19.41"/>
<polygon fill="#63b8ff" stroke="#63b8ff" points="92.96,-56.54 87.94,-65.87 97.68,-61.7 92.96,-56.54"/>
</a>
</g>
</g>
<!-- Node3 -->
<g id="Node000003" class="node">
<title>Node3</title>
<g id="a_Node000003"><a xlink:href="class_driver_1_1_n_v_1_1_api.html" target="_top" xlink:title="This class defines the interface for a platform independent Non&#45;volatile storage driver.">
<polygon fill="white" stroke="#666666" points="263.5,-85 175.5,-85 175.5,-66 263.5,-66 263.5,-85"/>
<text text-anchor="middle" x="219.5" y="-73" font-family="Helvetica,sans-Serif" font-size="10.00">Driver::NV::Api</text>
</a>
</g>
</g>
<!-- Node3&#45;&gt;Node1 -->
<g id="edge2_Node000001_Node000003" class="edge">
<title>Node3&#45;&gt;Node1</title>
<g id="a_edge2_Node000001_Node000003"><a xlink:title=" ">
<path fill="none" stroke="#9a32cd" stroke-dasharray="5,2" d="M202.12,-58.83C188.37,-46.44 169.67,-29.59 158.38,-19.41"/>
<polygon fill="#9a32cd" stroke="#9a32cd" points="200.15,-61.77 209.92,-65.87 204.84,-56.57 200.15,-61.77"/>
</a>
</g>
<text text-anchor="middle" x="211" y="-40" font-family="Helvetica,sans-Serif" font-size="10.00" fill="grey"> m_driver</text>
</g>
</g>
</svg>
