<?xml version="1.0" encoding="UTF-8" standalone="no"?>
<!DOCTYPE svg PUBLIC "-//W3C//DTD SVG 1.1//EN"
 "http://www.w3.org/Graphics/SVG/1.1/DTD/svg11.dtd">
<!-- Generated by graphviz version 2.43.0 (0)
 -->
<!-- Title: Cpl::Container::RingBufferMP&lt; ITEM &gt; Pages: 1 -->
<svg width="1931pt" height="247pt"
 viewBox="0.00 0.00 1931.00 247.00" xmlns="http://www.w3.org/2000/svg" xmlns:xlink="http://www.w3.org/1999/xlink">
<g id="graph0" class="graph" transform="scale(1 1) rotate(0) translate(4 243)">
<title>Cpl::Container::RingBufferMP&lt; ITEM &gt;</title>
<!-- Node1 -->
<g id="Node000001" class="node">
<title>Node1</title>
<g id="a_Node000001"><a xlink:title="This template class implements a THREAD SAFE Ring Buffer AND it maintains/reports the number of eleme...">
<polygon fill="#999999" stroke="#666666" points="1923,-160 1780,-160 1780,-130 1923,-130 1923,-160"/>
<text text-anchor="start" x="1788" y="-148" font-family="Helvetica,sans-Serif" font-size="10.00">Cpl::Container::RingBuffer</text>
<text text-anchor="middle" x="1851.5" y="-137" font-family="Helvetica,sans-Serif" font-size="10.00">MP&lt; ITEM &gt;</text>
</a>
</g>
</g>
<!-- Node2 -->
<g id="Node000002" class="node">
<title>Node2</title>
<g id="a_Node000002"><a xlink:href="class_cpl_1_1_container_1_1_ring_buffer_m_t.html" target="_top" xlink:title="This template class implements a THREAD SAFE Ring Buffer.">
<polygon fill="white" stroke="#666666" points="752,-211 609,-211 609,-181 752,-181 752,-211"/>
<text text-anchor="start" x="617" y="-199" font-family="Helvetica,sans-Serif" font-size="10.00">Cpl::Container::RingBuffer</text>
<text text-anchor="middle" x="680.5" y="-188" font-family="Helvetica,sans-Serif" font-size="10.00">MT&lt; ITEM &gt;</text>
</a>
</g>
</g>
<!-- Node2&#45;&gt;Node1 -->
<g id="edge1_Node000001_Node000002" class="edge">
<title>Node2&#45;&gt;Node1</title>
<g id="a_edge1_Node000001_Node000002"><a xlink:title=" ">
<path fill="none" stroke="#63b8ff" d="M762.25,-182.22C819.95,-173.55 899.52,-164 970,-164 970,-164 970,-164 1584.5,-164 1650.82,-164 1726.21,-158.05 1779.75,-152.81"/>
<polygon fill="#63b8ff" stroke="#63b8ff" points="761.46,-178.8 752.1,-183.77 762.51,-185.72 761.46,-178.8"/>
</a>
</g>
</g>
<!-- Node3 -->
<g id="Node000003" class="node">
<title>Node3</title>
<g id="a_Node000003"><a xlink:href="class_cpl_1_1_container_1_1_ring_buffer.html" target="_top" xlink:title="This template class implements a Ring Buffer.">
<polygon fill="white" stroke="#666666" points="425.5,-239 282.5,-239 282.5,-209 425.5,-209 425.5,-239"/>
<text text-anchor="start" x="290.5" y="-227" font-family="Helvetica,sans-Serif" font-size="10.00">Cpl::Container::RingBuffer</text>
<text text-anchor="middle" x="354" y="-216" font-family="Helvetica,sans-Serif" font-size="10.00">&lt; ITEM &gt;</text>
</a>
</g>
</g>
<!-- Node3&#45;&gt;Node2 -->
<g id="edge2_Node000002_Node000003" class="edge">
<title>Node3&#45;&gt;Node2</title>
<g id="a_edge2_Node000002_Node000003"><a xlink:title=" ">
<path fill="none" stroke="#63b8ff" d="M435.81,-218.33C480.42,-215.05 536.81,-210.66 587,-206 594.08,-205.34 601.45,-204.62 608.82,-203.86"/>
<polygon fill="#63b8ff" stroke="#63b8ff" points="435.33,-214.86 425.61,-219.08 435.84,-221.84 435.33,-214.86"/>
</a>
</g>
</g>
<!-- Node4 -->
<g id="Node000004" class="node">
<title>Node4</title>
<g id="a_Node000004"><a xlink:href="class_cpl_1_1_system_1_1_mutex.html" target="_top" xlink:title="This mutex class defines the interface for a mutex that has &quot;recursive&quot; semantics.">
<polygon fill="white" stroke="#666666" points="410,-190.5 298,-190.5 298,-171.5 410,-171.5 410,-190.5"/>
<text text-anchor="middle" x="354" y="-178.5" font-family="Helvetica,sans-Serif" font-size="10.00">Cpl::System::Mutex</text>
</a>
</g>
</g>
<!-- Node4&#45;&gt;Node2 -->
<g id="edge3_Node000002_Node000004" class="edge">
<title>Node4&#45;&gt;Node2</title>
<g id="a_edge3_Node000002_Node000004"><a xlink:title=" ">
<path fill="none" stroke="#9a32cd" stroke-dasharray="5,2" d="M420.31,-184.02C474.96,-186.54 552.76,-190.14 608.85,-192.73"/>
<polygon fill="#9a32cd" stroke="#9a32cd" points="420.2,-180.51 410.05,-183.54 419.87,-187.5 420.2,-180.51"/>
</a>
</g>
<text text-anchor="middle" x="518" y="-194" font-family="Helvetica,sans-Serif" font-size="10.00" fill="grey"> m_lock</text>
</g>
<!-- Node12 -->
<g id="Node000012" class="node">
<title>Node12</title>
<g id="a_Node000012"><a xlink:href="class_cpl_1_1_dm_1_1_model_database.html" target="_top" xlink:title="This concrete class implements a simple Model Database.">
<polygon fill="white" stroke="#666666" points="749.5,-133.5 611.5,-133.5 611.5,-114.5 749.5,-114.5 749.5,-133.5"/>
<text text-anchor="middle" x="680.5" y="-121.5" font-family="Helvetica,sans-Serif" font-size="10.00">Cpl::Dm::ModelDatabase</text>
</a>
</g>
</g>
<!-- Node4&#45;&gt;Node12 -->
<g id="edge15_Node000012_Node000004" class="edge">
<title>Node4&#45;&gt;Node12</title>
<g id="a_edge15_Node000012_Node000004"><a xlink:title=" ">
<path fill="none" stroke="#9a32cd" stroke-dasharray="5,2" d="M419.47,-169.68C479.7,-159.1 568.6,-143.48 625.28,-133.52"/>
<polygon fill="#9a32cd" stroke="#9a32cd" points="418.56,-166.28 409.31,-171.46 419.77,-173.18 418.56,-166.28"/>
</a>
</g>
<text text-anchor="middle" x="518" y="-167" font-family="Helvetica,sans-Serif" font-size="10.00" fill="grey"> m_lock</text>
</g>
<!-- Node5 -->
<g id="Node000005" class="node">
<title>Node5</title>
<g id="a_Node000005"><a xlink:href="class_cpl_1_1_dm_1_1_mp_1_1_uint32.html" target="_top" xlink:title="This class provides a concrete implementation for a Point who&#39;s data is a uint32_t.">
<polygon fill="white" stroke="#666666" points="1641,-134.5 1526,-134.5 1526,-115.5 1641,-115.5 1641,-134.5"/>
<text text-anchor="middle" x="1583.5" y="-122.5" font-family="Helvetica,sans-Serif" font-size="10.00">Cpl::Dm::Mp::Uint32</text>
</a>
</g>
</g>
<!-- Node5&#45;&gt;Node1 -->
<g id="edge4_Node000001_Node000005" class="edge">
<title>Node5&#45;&gt;Node1</title>
<g id="a_edge4_Node000001_Node000005"><a xlink:title=" ">
<path fill="none" stroke="#9a32cd" stroke-dasharray="5,2" d="M1651.46,-130.03C1690.56,-132.97 1739.86,-136.68 1779.61,-139.67"/>
<polygon fill="#9a32cd" stroke="#9a32cd" points="1651.47,-126.53 1641.24,-129.27 1650.95,-133.51 1651.47,-126.53"/>
</a>
</g>
<text text-anchor="middle" x="1710.5" y="-140" font-family="Helvetica,sans-Serif" font-size="10.00" fill="grey"> m_mpElementCount</text>
</g>
<!-- Node6 -->
<g id="Node000006" class="node">
<title>Node6</title>
<g id="a_Node000006"><a xlink:href="class_cpl_1_1_dm_1_1_mp_1_1_numeric.html" target="_top" xlink:title=" ">
<polygon fill="white" stroke="#666666" points="1489,-131 1365,-131 1365,-101 1489,-101 1489,-131"/>
<text text-anchor="start" x="1373" y="-119" font-family="Helvetica,sans-Serif" font-size="10.00">Cpl::Dm::Mp::Numeric</text>
<text text-anchor="middle" x="1427" y="-108" font-family="Helvetica,sans-Serif" font-size="10.00">&lt; uint32_t, Uint32 &gt;</text>
</a>
</g>
</g>
<!-- Node6&#45;&gt;Node5 -->
<g id="edge5_Node000005_Node000006" class="edge">
<title>Node6&#45;&gt;Node5</title>
<g id="a_edge5_Node000005_Node000006"><a xlink:title=" ">
<path fill="none" stroke="#63b8ff" d="M1499.13,-120.14C1508.1,-120.67 1517.19,-121.2 1525.9,-121.7"/>
<polygon fill="#63b8ff" stroke="#63b8ff" points="1499.25,-116.64 1489.06,-119.56 1498.84,-123.63 1499.25,-116.64"/>
</a>
</g>
</g>
<!-- Node7 -->
<g id="Node000007" class="node">
<title>Node7</title>
<g id="a_Node000007"><a xlink:href="class_cpl_1_1_dm_1_1_model_point_common__.html" target="_top" xlink:title="This concrete class provide common infrastructure for a Model Point.">
<polygon fill="white" stroke="#666666" points="1054,-82.5 888,-82.5 888,-63.5 1054,-63.5 1054,-82.5"/>
<text text-anchor="middle" x="971" y="-70.5" font-family="Helvetica,sans-Serif" font-size="10.00">Cpl::Dm::ModelPointCommon_</text>
</a>
</g>
</g>
<!-- Node7&#45;&gt;Node6 -->
<g id="edge6_Node000006_Node000007" class="edge">
<title>Node7&#45;&gt;Node6</title>
<g id="a_edge6_Node000006_Node000007"><a xlink:title=" ">
<path fill="none" stroke="#63b8ff" d="M1022.03,-84.74C1043.19,-89.27 1068.19,-94.07 1091,-97 1186.19,-109.24 1297.6,-113.59 1364.94,-115.14"/>
<polygon fill="#63b8ff" stroke="#63b8ff" points="1022.49,-81.26 1011.97,-82.54 1021,-88.09 1022.49,-81.26"/>
</a>
</g>
</g>
<!-- Node16 -->
<g id="Node000016" class="node">
<title>Node16</title>
<g id="a_Node000016"><a xlink:href="class_cpl_1_1_dm_1_1_mp_1_1_numeric.html" target="_top" xlink:title="This template class provides a mostly concrete implementation for a Model Point who&#39;s data is a C num...">
<polygon fill="white" stroke="#666666" points="1225,-88 1091,-88 1091,-58 1225,-58 1225,-88"/>
<text text-anchor="start" x="1099" y="-76" font-family="Helvetica,sans-Serif" font-size="10.00">Cpl::Dm::Mp::Numeric</text>
<text text-anchor="middle" x="1158" y="-65" font-family="Helvetica,sans-Serif" font-size="10.00">&lt; ELEMTYPE, MPTYPE &gt;</text>
</a>
</g>
</g>
<!-- Node7&#45;&gt;Node16 -->
<g id="edge17_Node000016_Node000007" class="edge">
<title>Node7&#45;&gt;Node16</title>
<g id="a_edge17_Node000016_Node000007"><a xlink:title=" ">
<path fill="none" stroke="#63b8ff" d="M1064.31,-73C1073.27,-73 1082.22,-73 1090.84,-73"/>
<polygon fill="#63b8ff" stroke="#63b8ff" points="1064.22,-69.5 1054.22,-73 1064.22,-76.5 1064.22,-69.5"/>
</a>
</g>
</g>
<!-- Node8 -->
<g id="Node000008" class="node">
<title>Node8</title>
<g id="a_Node000008"><a xlink:href="class_cpl_1_1_dm_1_1_model_point.html" target="_top" xlink:title="This mostly abstract class defines the interface for a Model Point.">
<polygon fill="white" stroke="#666666" points="738.5,-78.5 622.5,-78.5 622.5,-59.5 738.5,-59.5 738.5,-78.5"/>
<text text-anchor="middle" x="680.5" y="-66.5" font-family="Helvetica,sans-Serif" font-size="10.00">Cpl::Dm::ModelPoint</text>
</a>
</g>
</g>
<!-- Node8&#45;&gt;Node7 -->
<g id="edge7_Node000007_Node000008" class="edge">
<title>Node8&#45;&gt;Node7</title>
<g id="a_edge7_Node000007_Node000008"><a xlink:title=" ">
<path fill="none" stroke="#63b8ff" d="M748.86,-69.93C790.38,-70.51 843.91,-71.25 887.91,-71.86"/>
<polygon fill="#63b8ff" stroke="#63b8ff" points="748.89,-66.43 738.84,-69.8 748.79,-73.43 748.89,-66.43"/>
</a>
</g>
</g>
<!-- Node9 -->
<g id="Node000009" class="node">
<title>Node9</title>
<g id="a_Node000009"><a xlink:href="class_cpl_1_1_container_1_1_item.html" target="_top" xlink:title="This class is used by the Container classes to implement a various types of singly linked containers.">
<polygon fill="white" stroke="#666666" points="411,-67.5 297,-67.5 297,-48.5 411,-48.5 411,-67.5"/>
<text text-anchor="middle" x="354" y="-55.5" font-family="Helvetica,sans-Serif" font-size="10.00">Cpl::Container::Item</text>
</a>
</g>
</g>
<!-- Node9&#45;&gt;Node8 -->
<g id="edge8_Node000008_Node000009" class="edge">
<title>Node9&#45;&gt;Node8</title>
<g id="a_edge8_Node000008_Node000009"><a xlink:title=" ">
<path fill="none" stroke="#63b8ff" d="M421.51,-60.25C480.67,-62.26 566.28,-65.16 622.4,-67.06"/>
<polygon fill="#63b8ff" stroke="#63b8ff" points="421.27,-56.74 411.15,-59.9 421.03,-63.74 421.27,-56.74"/>
</a>
</g>
</g>
<!-- Node10 -->
<g id="Node000010" class="node">
<title>Node10</title>
<g id="a_Node000010"><a xlink:href="class_cpl_1_1_container_1_1_d_list.html" target="_top" xlink:title=" ">
<polygon fill="white" stroke="#666666" points="756,-33 605,-33 605,-3 756,-3 756,-33"/>
<text text-anchor="start" x="613" y="-21" font-family="Helvetica,sans-Serif" font-size="10.00">Cpl::Container::DList</text>
<text text-anchor="middle" x="680.5" y="-10" font-family="Helvetica,sans-Serif" font-size="10.00">&lt; Cpl::Dm::SubscriberApi &gt;</text>
</a>
</g>
</g>
<!-- Node10&#45;&gt;Node7 -->
<g id="edge9_Node000007_Node000010" class="edge">
<title>Node10&#45;&gt;Node7</title>
<g id="a_edge9_Node000007_Node000010"><a xlink:title=" ">
<path fill="none" stroke="#9a32cd" stroke-dasharray="5,2" d="M766.02,-34.11C816.07,-43.66 877.79,-55.42 920.14,-63.5"/>
<polygon fill="#9a32cd" stroke="#9a32cd" points="766.65,-30.67 756.17,-32.24 765.34,-37.55 766.65,-30.67"/>
</a>
</g>
<text text-anchor="middle" x="822" y="-57" font-family="Helvetica,sans-Serif" font-size="10.00" fill="grey"> m_subscribers</text>
</g>
<!-- Node11 -->
<g id="Node000011" class="node">
<title>Node11</title>
<g id="a_Node000011"><a xlink:href="class_cpl_1_1_container_1_1_d_list.html" target="_top" xlink:title="This template class implements a Doubly linked list which maintains the ordering imposed on it by the...">
<polygon fill="white" stroke="#666666" points="412,-30 296,-30 296,0 412,0 412,-30"/>
<text text-anchor="start" x="304" y="-18" font-family="Helvetica,sans-Serif" font-size="10.00">Cpl::Container::DList</text>
<text text-anchor="middle" x="354" y="-7" font-family="Helvetica,sans-Serif" font-size="10.00">&lt; ITEM &gt;</text>
</a>
</g>
</g>
<!-- Node11&#45;&gt;Node10 -->
<g id="edge10_Node000010_Node000011" class="edge">
<title>Node11&#45;&gt;Node10</title>
<g id="a_edge10_Node000010_Node000011"><a xlink:title=" ">
<path fill="none" stroke="orange" stroke-dasharray="5,2" d="M422.28,-15.62C475.5,-16.11 549.75,-16.8 604.81,-17.31"/>
<polygon fill="orange" stroke="orange" points="422.3,-12.12 412.27,-15.53 422.23,-19.12 422.3,-12.12"/>
</a>
</g>
<text text-anchor="middle" x="518" y="-21" font-family="Helvetica,sans-Serif" font-size="10.00" fill="grey"> &lt; Cpl::Dm::SubscriberApi &gt;</text>
</g>
<!-- Node12&#45;&gt;Node7 -->
<g id="edge11_Node000007_Node000012" class="edge">
<title>Node12&#45;&gt;Node7</title>
<g id="a_edge11_Node000007_Node000012"><a xlink:title=" ">
<path fill="none" stroke="#9a32cd" stroke-dasharray="5,2" d="M745.38,-112.71C796.52,-103.67 867.46,-91.13 915.85,-82.57"/>
<polygon fill="#9a32cd" stroke="#9a32cd" points="744.66,-109.28 735.43,-114.47 745.88,-116.17 744.66,-109.28"/>
</a>
</g>
<text text-anchor="middle" x="822" y="-110" font-family="Helvetica,sans-Serif" font-size="10.00" fill="grey"> m_modelDatabase</text>
</g>
<!-- Node13 -->
<g id="Node000013" class="node">
<title>Node13</title>
<g id="a_Node000013"><a xlink:href="class_cpl_1_1_dm_1_1_model_database_api.html" target="_top" xlink:title="This class defines the basic operations that can be performed on a Model Base.">
<polygon fill="white" stroke="#666666" points="431,-104.5 277,-104.5 277,-85.5 431,-85.5 431,-104.5"/>
<text text-anchor="middle" x="354" y="-92.5" font-family="Helvetica,sans-Serif" font-size="10.00">Cpl::Dm::ModelDatabaseApi</text>
</a>
</g>
</g>
<!-- Node13&#45;&gt;Node12 -->
<g id="edge12_Node000012_Node000013" class="edge">
<title>Node13&#45;&gt;Node12</title>
<g id="a_edge12_Node000012_Node000013"><a xlink:title=" ">
<path fill="none" stroke="#63b8ff" d="M441.19,-102.7C494.45,-107.46 561.83,-113.48 611.35,-117.91"/>
<polygon fill="#63b8ff" stroke="#63b8ff" points="441.35,-99.2 431.08,-101.8 440.73,-106.18 441.35,-99.2"/>
</a>
</g>
</g>
<!-- Node14 -->
<g id="Node000014" class="node">
<title>Node14</title>
<g id="a_Node000014"><a xlink:href="class_cpl_1_1_container_1_1_s_list.html" target="_top" xlink:title=" ">
<polygon fill="white" stroke="#666666" points="423.5,-153 284.5,-153 284.5,-123 423.5,-123 423.5,-153"/>
<text text-anchor="start" x="292.5" y="-141" font-family="Helvetica,sans-Serif" font-size="10.00">Cpl::Container::SList</text>
<text text-anchor="middle" x="354" y="-130" font-family="Helvetica,sans-Serif" font-size="10.00">&lt; Cpl::Dm::ModelPoint &gt;</text>
</a>
</g>
</g>
<!-- Node14&#45;&gt;Node12 -->
<g id="edge13_Node000012_Node000014" class="edge">
<title>Node14&#45;&gt;Node12</title>
<g id="a_edge13_Node000012_Node000014"><a xlink:title=" ">
<path fill="none" stroke="#9a32cd" stroke-dasharray="5,2" d="M434.11,-130C439.15,-129.62 444.14,-129.28 449,-129 503.54,-125.8 565.45,-124.59 611.37,-124.16"/>
<polygon fill="#9a32cd" stroke="#9a32cd" points="433.44,-126.55 423.75,-130.83 433.99,-133.52 433.44,-126.55"/>
</a>
</g>
<text text-anchor="middle" x="518" y="-132" font-family="Helvetica,sans-Serif" font-size="10.00" fill="grey"> m_list</text>
</g>
<!-- Node15 -->
<g id="Node000015" class="node">
<title>Node15</title>
<g id="a_Node000015"><a xlink:href="class_cpl_1_1_container_1_1_s_list.html" target="_top" xlink:title="This template class implements a singly linked list which maintains the ordering imposed on it by the...">
<polygon fill="white" stroke="#666666" points="115,-153 0,-153 0,-123 115,-123 115,-153"/>
<text text-anchor="start" x="8" y="-141" font-family="Helvetica,sans-Serif" font-size="10.00">Cpl::Container::SList</text>
<text text-anchor="middle" x="57.5" y="-130" font-family="Helvetica,sans-Serif" font-size="10.00">&lt; ITEM &gt;</text>
</a>
</g>
</g>
<!-- Node15&#45;&gt;Node14 -->
<g id="edge14_Node000014_Node000015" class="edge">
<title>Node15&#45;&gt;Node14</title>
<g id="a_edge14_Node000014_Node000015"><a xlink:title=" ">
<path fill="none" stroke="orange" stroke-dasharray="5,2" d="M125.47,-138C173.01,-138 236.61,-138 284.49,-138"/>
<polygon fill="orange" stroke="orange" points="125.28,-134.5 115.28,-138 125.28,-141.5 125.28,-134.5"/>
</a>
</g>
<text text-anchor="middle" x="196" y="-141" font-family="Helvetica,sans-Serif" font-size="10.00" fill="grey"> &lt; Cpl::Dm::ModelPoint &gt;</text>
</g>
<!-- Node16&#45;&gt;Node6 -->
<g id="edge16_Node000006_Node000016" class="edge">
<title>Node16&#45;&gt;Node6</title>
<g id="a_edge16_Node000006_Node000016"><a xlink:title=" ">
<path fill="none" stroke="orange" stroke-dasharray="5,2" d="M1235.18,-76.63C1269.58,-79.21 1310.59,-83.58 1347,-91 1359.26,-93.5 1372.32,-97.19 1384.2,-100.97"/>
<polygon fill="orange" stroke="orange" points="1235.42,-73.14 1225.19,-75.92 1234.92,-80.12 1235.42,-73.14"/>
</a>
</g>
<text text-anchor="middle" x="1295" y="-94" font-family="Helvetica,sans-Serif" font-size="10.00" fill="grey"> &lt; uint32_t, Uint32 &gt;</text>
</g>
</g>
</svg>
