<?xml version="1.0" encoding="UTF-8" standalone="no"?>
<!DOCTYPE svg PUBLIC "-//W3C//DTD SVG 1.1//EN"
 "http://www.w3.org/Graphics/SVG/1.1/DTD/svg11.dtd">
<!-- Generated by graphviz version 2.43.0 (0)
 -->
<!-- Title: Cpl::Dm::Mp::BitArray_&lt; WORDSIZE, MPTYPE &gt; Pages: 1 -->
<svg width="1599pt" height="86pt"
 viewBox="0.00 0.00 1599.00 86.00" xmlns="http://www.w3.org/2000/svg" xmlns:xlink="http://www.w3.org/1999/xlink">
<g id="graph0" class="graph" transform="scale(1 1) rotate(0) translate(4 82)">
<title>Cpl::Dm::Mp::BitArray_&lt; WORDSIZE, MPTYPE &gt;</title>
<!-- Node1 -->
<g id="Node000001" class="node">
<title>Node1</title>
<g id="a_Node000001"><a xlink:title="This template class extends the Numeric&lt;&gt; class to provide bit operation on the numeric value.">
<polygon fill="#999999" stroke="#666666" points="1118,-54 975,-54 975,-24 1118,-24 1118,-54"/>
<text text-anchor="start" x="983" y="-42" font-family="Helvetica,sans-Serif" font-size="10.00">Cpl::Dm::Mp::BitArray</text>
<text text-anchor="middle" x="1046.5" y="-31" font-family="Helvetica,sans-Serif" font-size="10.00">_&lt; WORDSIZE, MPTYPE &gt;</text>
</a>
</g>
</g>
<!-- Node7 -->
<g id="Node000007" class="node">
<title>Node7</title>
<g id="a_Node000007"><a xlink:href="class_cpl_1_1_dm_1_1_mp_1_1_bit_array__.html" target="_top" xlink:title=" ">
<polygon fill="white" stroke="#666666" points="1420,-78 1278,-78 1278,-48 1420,-48 1420,-78"/>
<text text-anchor="start" x="1286" y="-66" font-family="Helvetica,sans-Serif" font-size="10.00">Cpl::Dm::Mp::BitArray</text>
<text text-anchor="middle" x="1349" y="-55" font-family="Helvetica,sans-Serif" font-size="10.00">_&lt; uint16_t, BitArray16 &gt;</text>
</a>
</g>
</g>
<!-- Node1&#45;&gt;Node7 -->
<g id="edge7_Node000001_Node000007" class="edge">
<title>Node1&#45;&gt;Node7</title>
<g id="a_edge7_Node000001_Node000007"><a xlink:title=" ">
<path fill="none" stroke="orange" stroke-dasharray="5,2" d="M1128.41,-45.46C1175.08,-49.19 1233.19,-53.83 1277.9,-57.4"/>
<polygon fill="orange" stroke="orange" points="1128.58,-41.96 1118.33,-44.66 1128.02,-48.94 1128.58,-41.96"/>
</a>
</g>
<text text-anchor="middle" x="1198" y="-58" font-family="Helvetica,sans-Serif" font-size="10.00" fill="grey"> &lt; uint16_t, BitArray16 &gt;</text>
</g>
<!-- Node9 -->
<g id="Node000009" class="node">
<title>Node9</title>
<g id="a_Node000009"><a xlink:href="class_cpl_1_1_dm_1_1_mp_1_1_bit_array__.html" target="_top" xlink:title=" ">
<polygon fill="white" stroke="#666666" points="1420,-30 1278,-30 1278,0 1420,0 1420,-30"/>
<text text-anchor="start" x="1286" y="-18" font-family="Helvetica,sans-Serif" font-size="10.00">Cpl::Dm::Mp::BitArray</text>
<text text-anchor="middle" x="1349" y="-7" font-family="Helvetica,sans-Serif" font-size="10.00">_&lt; uint32_t, BitArray32 &gt;</text>
</a>
</g>
</g>
<!-- Node1&#45;&gt;Node9 -->
<g id="edge9_Node000001_Node000009" class="edge">
<title>Node1&#45;&gt;Node9</title>
<g id="a_edge9_Node000001_Node000009"><a xlink:title=" ">
<path fill="none" stroke="orange" stroke-dasharray="5,2" d="M1128.22,-31.65C1130.85,-31.43 1133.44,-31.21 1136,-31 1183.27,-27.08 1236.5,-23.06 1277.8,-20.04"/>
<polygon fill="orange" stroke="orange" points="1127.68,-28.19 1118.02,-32.53 1128.28,-35.16 1127.68,-28.19"/>
</a>
</g>
<text text-anchor="middle" x="1198" y="-34" font-family="Helvetica,sans-Serif" font-size="10.00" fill="grey"> &lt; uint32_t, BitArray32 &gt;</text>
</g>
<!-- Node2 -->
<g id="Node000002" class="node">
<title>Node2</title>
<g id="a_Node000002"><a xlink:href="class_cpl_1_1_dm_1_1_mp_1_1_numeric.html" target="_top" xlink:title=" ">
<polygon fill="white" stroke="#666666" points="938,-54 801,-54 801,-24 938,-24 938,-54"/>
<text text-anchor="start" x="809" y="-42" font-family="Helvetica,sans-Serif" font-size="10.00">Cpl::Dm::Mp::Numeric</text>
<text text-anchor="middle" x="869.5" y="-31" font-family="Helvetica,sans-Serif" font-size="10.00">&lt; WORDSIZE, MPTYPE &gt;</text>
</a>
</g>
</g>
<!-- Node2&#45;&gt;Node1 -->
<g id="edge1_Node000001_Node000002" class="edge">
<title>Node2&#45;&gt;Node1</title>
<g id="a_edge1_Node000001_Node000002"><a xlink:title=" ">
<path fill="none" stroke="#63b8ff" d="M948.41,-39C957.21,-39 966.14,-39 974.84,-39"/>
<polygon fill="#63b8ff" stroke="#63b8ff" points="948.16,-35.5 938.16,-39 948.16,-42.5 948.16,-35.5"/>
</a>
</g>
</g>
<!-- Node3 -->
<g id="Node000003" class="node">
<title>Node3</title>
<g id="a_Node000003"><a xlink:href="class_cpl_1_1_dm_1_1_model_point_common__.html" target="_top" xlink:title="This concrete class provide common infrastructure for a Model Point.">
<polygon fill="white" stroke="#666666" points="470,-47.5 304,-47.5 304,-28.5 470,-28.5 470,-47.5"/>
<text text-anchor="middle" x="387" y="-35.5" font-family="Helvetica,sans-Serif" font-size="10.00">Cpl::Dm::ModelPointCommon_</text>
</a>
</g>
</g>
<!-- Node3&#45;&gt;Node2 -->
<g id="edge2_Node000002_Node000003" class="edge">
<title>Node3&#45;&gt;Node2</title>
<g id="a_edge2_Node000002_Node000003"><a xlink:title=" ">
<path fill="none" stroke="#63b8ff" d="M480.27,-40.77C482.87,-40.85 485.46,-40.92 488,-41 619.07,-44.88 651.98,-51.35 783,-46 788.8,-45.76 794.82,-45.44 800.86,-45.05"/>
<polygon fill="#63b8ff" stroke="#63b8ff" points="480.23,-37.27 470.13,-40.47 480.02,-44.26 480.23,-37.27"/>
</a>
</g>
</g>
<!-- Node6 -->
<g id="Node000006" class="node">
<title>Node6</title>
<g id="a_Node000006"><a xlink:href="class_cpl_1_1_dm_1_1_mp_1_1_numeric.html" target="_top" xlink:title="This template class provides a mostly concrete implementation for a Model Point who&#39;s data is a C num...">
<polygon fill="white" stroke="#666666" points="641,-32 507,-32 507,-2 641,-2 641,-32"/>
<text text-anchor="start" x="515" y="-20" font-family="Helvetica,sans-Serif" font-size="10.00">Cpl::Dm::Mp::Numeric</text>
<text text-anchor="middle" x="574" y="-9" font-family="Helvetica,sans-Serif" font-size="10.00">&lt; ELEMTYPE, MPTYPE &gt;</text>
</a>
</g>
</g>
<!-- Node3&#45;&gt;Node6 -->
<g id="edge6_Node000006_Node000003" class="edge">
<title>Node3&#45;&gt;Node6</title>
<g id="a_edge6_Node000006_Node000003"><a xlink:title=" ">
<path fill="none" stroke="#63b8ff" d="M480.31,-27.52C489.27,-26.51 498.22,-25.49 506.84,-24.51"/>
<polygon fill="#63b8ff" stroke="#63b8ff" points="479.76,-24.06 470.22,-28.67 480.55,-31.02 479.76,-24.06"/>
</a>
</g>
</g>
<!-- Node4 -->
<g id="Node000004" class="node">
<title>Node4</title>
<g id="a_Node000004"><a xlink:href="class_cpl_1_1_dm_1_1_model_point.html" target="_top" xlink:title="This mostly abstract class defines the interface for a Model Point.">
<polygon fill="white" stroke="#666666" points="267,-47.5 151,-47.5 151,-28.5 267,-28.5 267,-47.5"/>
<text text-anchor="middle" x="209" y="-35.5" font-family="Helvetica,sans-Serif" font-size="10.00">Cpl::Dm::ModelPoint</text>
</a>
</g>
</g>
<!-- Node4&#45;&gt;Node3 -->
<g id="edge3_Node000003_Node000004" class="edge">
<title>Node4&#45;&gt;Node3</title>
<g id="a_edge3_Node000003_Node000004"><a xlink:title=" ">
<path fill="none" stroke="#63b8ff" d="M277.23,-38C285.95,-38 294.96,-38 303.89,-38"/>
<polygon fill="#63b8ff" stroke="#63b8ff" points="277.14,-34.5 267.14,-38 277.14,-41.5 277.14,-34.5"/>
</a>
</g>
</g>
<!-- Node5 -->
<g id="Node000005" class="node">
<title>Node5</title>
<g id="a_Node000005"><a xlink:href="class_cpl_1_1_container_1_1_item.html" target="_top" xlink:title="This class is used by the Container classes to implement a various types of singly linked containers.">
<polygon fill="white" stroke="#666666" points="114,-47.5 0,-47.5 0,-28.5 114,-28.5 114,-47.5"/>
<text text-anchor="middle" x="57" y="-35.5" font-family="Helvetica,sans-Serif" font-size="10.00">Cpl::Container::Item</text>
</a>
</g>
</g>
<!-- Node5&#45;&gt;Node4 -->
<g id="edge4_Node000004_Node000005" class="edge">
<title>Node5&#45;&gt;Node4</title>
<g id="a_edge4_Node000004_Node000005"><a xlink:title=" ">
<path fill="none" stroke="#63b8ff" d="M124.51,-38C133.32,-38 142.28,-38 150.9,-38"/>
<polygon fill="#63b8ff" stroke="#63b8ff" points="124.28,-34.5 114.28,-38 124.28,-41.5 124.28,-34.5"/>
</a>
</g>
</g>
<!-- Node6&#45;&gt;Node2 -->
<g id="edge5_Node000002_Node000006" class="edge">
<title>Node6&#45;&gt;Node2</title>
<g id="a_edge5_Node000002_Node000006"><a xlink:title=" ">
<path fill="none" stroke="orange" stroke-dasharray="5,2" d="M651.23,-22.71C697.6,-26.19 756.29,-30.59 800.98,-33.94"/>
<polygon fill="orange" stroke="orange" points="651.47,-19.22 641.23,-21.96 650.94,-26.2 651.47,-19.22"/>
</a>
</g>
<text text-anchor="middle" x="721" y="-36" font-family="Helvetica,sans-Serif" font-size="10.00" fill="grey"> &lt; WORDSIZE, MPTYPE &gt;</text>
</g>
<!-- Node8 -->
<g id="Node000008" class="node">
<title>Node8</title>
<g id="a_Node000008"><a xlink:href="class_cpl_1_1_dm_1_1_mp_1_1_bit_array16.html" target="_top" xlink:title="This template class provides a concrete implementation for a Point who&#39;s data is a a bit array of N b...">
<polygon fill="white" stroke="#666666" points="1591,-72.5 1457,-72.5 1457,-53.5 1591,-53.5 1591,-72.5"/>
<text text-anchor="middle" x="1524" y="-60.5" font-family="Helvetica,sans-Serif" font-size="10.00">Cpl::Dm::Mp::BitArray16</text>
</a>
</g>
</g>
<!-- Node7&#45;&gt;Node8 -->
<g id="edge8_Node000007_Node000008" class="edge">
<title>Node7&#45;&gt;Node8</title>
<g id="a_edge8_Node000007_Node000008"><a xlink:title=" ">
<path fill="none" stroke="#63b8ff" d="M1430.63,-63C1439.42,-63 1448.3,-63 1456.89,-63"/>
<polygon fill="#63b8ff" stroke="#63b8ff" points="1430.37,-59.5 1420.37,-63 1430.37,-66.5 1430.37,-59.5"/>
</a>
</g>
</g>
<!-- Node10 -->
<g id="Node000010" class="node">
<title>Node10</title>
<g id="a_Node000010"><a xlink:href="class_cpl_1_1_dm_1_1_mp_1_1_bit_array32.html" target="_top" xlink:title="This template class provides a concrete implementation for a Point who&#39;s data is a a bit array of N b...">
<polygon fill="white" stroke="#666666" points="1591,-24.5 1457,-24.5 1457,-5.5 1591,-5.5 1591,-24.5"/>
<text text-anchor="middle" x="1524" y="-12.5" font-family="Helvetica,sans-Serif" font-size="10.00">Cpl::Dm::Mp::BitArray32</text>
</a>
</g>
</g>
<!-- Node9&#45;&gt;Node10 -->
<g id="edge10_Node000009_Node000010" class="edge">
<title>Node9&#45;&gt;Node10</title>
<g id="a_edge10_Node000009_Node000010"><a xlink:title=" ">
<path fill="none" stroke="#63b8ff" d="M1430.63,-15C1439.42,-15 1448.3,-15 1456.89,-15"/>
<polygon fill="#63b8ff" stroke="#63b8ff" points="1430.37,-11.5 1420.37,-15 1430.37,-18.5 1430.37,-11.5"/>
</a>
</g>
</g>
</g>
</svg>
