<?xml version="1.0" encoding="UTF-8" standalone="no"?>
<!DOCTYPE svg PUBLIC "-//W3C//DTD SVG 1.1//EN"
 "http://www.w3.org/Graphics/SVG/1.1/DTD/svg11.dtd">
<!-- Generated by graphviz version 2.43.0 (0)
 -->
<!-- Title: Cpl::Container::Stack&lt; ITEM &gt; Pages: 1 -->
<svg width="388pt" height="98pt"
 viewBox="0.00 0.00 388.00 97.50" xmlns="http://www.w3.org/2000/svg" xmlns:xlink="http://www.w3.org/1999/xlink">
<g id="graph0" class="graph" transform="scale(1 1) rotate(0) translate(4 93.5)">
<title>Cpl::Container::Stack&lt; ITEM &gt;</title>
<!-- Node1 -->
<g id="Node000001" class="node">
<title>Node1</title>
<g id="a_Node000001"><a xlink:title="This template class implements a Stack that has a fixed depth and stores copies of the data items.">
<polygon fill="#999999" stroke="#666666" points="119,-57 0,-57 0,-27 119,-27 119,-57"/>
<text text-anchor="start" x="8" y="-45" font-family="Helvetica,sans-Serif" font-size="10.00">Cpl::Container::Stack</text>
<text text-anchor="middle" x="59.5" y="-34" font-family="Helvetica,sans-Serif" font-size="10.00">&lt; ITEM &gt;</text>
</a>
</g>
</g>
<!-- Node2 -->
<g id="Node000002" class="node">
<title>Node2</title>
<g id="a_Node000002"><a xlink:href="class_cpl_1_1_container_1_1_stack.html" target="_top" xlink:title=" ">
<polygon fill="white" stroke="#666666" points="380,-89.5 261,-89.5 261,-48.5 380,-48.5 380,-89.5"/>
<text text-anchor="start" x="269" y="-77.5" font-family="Helvetica,sans-Serif" font-size="10.00">Cpl::Container::Stack</text>
<text text-anchor="start" x="269" y="-66.5" font-family="Helvetica,sans-Serif" font-size="10.00">&lt; Cpl::Io::File::DirList</text>
<text text-anchor="middle" x="320.5" y="-55.5" font-family="Helvetica,sans-Serif" font-size="10.00">_::DirEntry_T &gt;</text>
</a>
</g>
</g>
<!-- Node1&#45;&gt;Node2 -->
<g id="edge1_Node000001_Node000002" class="edge">
<title>Node1&#45;&gt;Node2</title>
<g id="a_edge1_Node000001_Node000002"><a xlink:title=" ">
<path fill="none" stroke="orange" stroke-dasharray="5,2" d="M129.46,-49.19C170.47,-53.46 221.94,-58.83 260.96,-62.9"/>
<polygon fill="orange" stroke="orange" points="129.58,-45.68 119.27,-48.13 128.85,-52.64 129.58,-45.68"/>
</a>
</g>
<text text-anchor="start" x="137" y="-75" font-family="Helvetica,sans-Serif" font-size="10.00" fill="grey"> &lt; Cpl::Io::File::DirList</text>
<text text-anchor="middle" x="190" y="-64" font-family="Helvetica,sans-Serif" font-size="10.00" fill="grey">_::DirEntry_T &gt;</text>
</g>
<!-- Node3 -->
<g id="Node000003" class="node">
<title>Node3</title>
<g id="a_Node000003"><a xlink:href="class_cpl_1_1_container_1_1_stack.html" target="_top" xlink:title=" ">
<polygon fill="white" stroke="#666666" points="380,-30 261,-30 261,0 380,0 380,-30"/>
<text text-anchor="start" x="269" y="-18" font-family="Helvetica,sans-Serif" font-size="10.00">Cpl::Container::Stack</text>
<text text-anchor="middle" x="320.5" y="-7" font-family="Helvetica,sans-Serif" font-size="10.00">&lt; OperatorValue &gt;</text>
</a>
</g>
</g>
<!-- Node1&#45;&gt;Node3 -->
<g id="edge2_Node000001_Node000003" class="edge">
<title>Node1&#45;&gt;Node3</title>
<g id="a_edge2_Node000001_Node000003"><a xlink:title=" ">
<path fill="none" stroke="orange" stroke-dasharray="5,2" d="M129.39,-34.79C131.96,-34.53 134.5,-34.26 137,-34 178.35,-29.69 224.96,-24.83 260.73,-21.11"/>
<polygon fill="orange" stroke="orange" points="128.97,-31.32 119.39,-35.84 129.7,-38.28 128.97,-31.32"/>
</a>
</g>
<text text-anchor="middle" x="190" y="-37" font-family="Helvetica,sans-Serif" font-size="10.00" fill="grey"> &lt; OperatorValue &gt;</text>
</g>
</g>
</svg>
