<?xml version="1.0" encoding="UTF-8" standalone="no"?>
<!DOCTYPE svg PUBLIC "-//W3C//DTD SVG 1.1//EN"
 "http://www.w3.org/Graphics/SVG/1.1/DTD/svg11.dtd">
<!-- Generated by graphviz version 2.43.0 (0)
 -->
<!-- Title: Driver::TPipe::Pipe Pages: 1 -->
<svg width="1042pt" height="267pt"
 viewBox="0.00 0.00 1042.00 267.00" xmlns="http://www.w3.org/2000/svg" xmlns:xlink="http://www.w3.org/1999/xlink">
<g id="graph0" class="graph" transform="scale(1 1) rotate(0) translate(4 263)">
<title>Driver::TPipe::Pipe</title>
<!-- Node1 -->
<g id="Node000001" class="node">
<title>Node1</title>
<g id="a_Node000001"><a xlink:title="This concrete class provides the implementation of TPipe.">
<polygon fill="#999999" stroke="#666666" points="1034,-135 927,-135 927,-116 1034,-116 1034,-135"/>
<text text-anchor="middle" x="980.5" y="-123" font-family="Helvetica,sans-Serif" font-size="10.00">Driver::TPipe::Pipe</text>
</a>
</g>
</g>
<!-- Node2 -->
<g id="Node000002" class="node">
<title>Node2</title>
<g id="a_Node000002"><a xlink:href="class_driver_1_1_t_pipe_1_1_tx.html" target="_top" xlink:title="This abstract class defines the &#39;Transmit Command&#39; interface for the TPipe.">
<polygon fill="white" stroke="#666666" points="778.5,-259 680.5,-259 680.5,-240 778.5,-240 778.5,-259"/>
<text text-anchor="middle" x="729.5" y="-247" font-family="Helvetica,sans-Serif" font-size="10.00">Driver::TPipe::Tx</text>
</a>
</g>
</g>
<!-- Node2&#45;&gt;Node1 -->
<g id="edge1_Node000001_Node000002" class="edge">
<title>Node2&#45;&gt;Node1</title>
<g id="a_edge1_Node000001_Node000002"><a xlink:title=" ">
<path fill="none" stroke="#63b8ff" d="M788.9,-239.82C799.06,-237.51 809.43,-234.75 819,-231.5 861.16,-217.17 871.95,-212.2 909,-187.5 932.87,-171.59 957.24,-148.25 970.14,-135.22"/>
<polygon fill="#63b8ff" stroke="#63b8ff" points="787.9,-236.45 778.86,-241.97 789.37,-243.3 787.9,-236.45"/>
</a>
</g>
</g>
<!-- Node3 -->
<g id="Node000003" class="node">
<title>Node3</title>
<g id="a_Node000003"><a xlink:href="class_cpl_1_1_container_1_1_map.html" target="_top" xlink:title=" ">
<polygon fill="white" stroke="#666666" points="819,-222 640,-222 640,-181 819,-181 819,-222"/>
<text text-anchor="start" x="648" y="-210" font-family="Helvetica,sans-Serif" font-size="10.00">Cpl::Container::Map</text>
<text text-anchor="start" x="648" y="-199" font-family="Helvetica,sans-Serif" font-size="10.00">&lt; Driver::TPipe::RxFrameHandler</text>
<text text-anchor="middle" x="729.5" y="-188" font-family="Helvetica,sans-Serif" font-size="10.00">Api &gt;</text>
</a>
</g>
</g>
<!-- Node3&#45;&gt;Node1 -->
<g id="edge2_Node000001_Node000003" class="edge">
<title>Node3&#45;&gt;Node1</title>
<g id="a_edge2_Node000001_Node000003"><a xlink:title=" ">
<path fill="none" stroke="#9a32cd" stroke-dasharray="5,2" d="M821.7,-178.31C849.86,-170.66 880.86,-161.72 909,-152.5 924.94,-147.27 942.57,-140.52 956.21,-135.08"/>
<polygon fill="#9a32cd" stroke="#9a32cd" points="820.6,-174.98 811.86,-180.96 822.43,-181.74 820.6,-174.98"/>
</a>
</g>
<text text-anchor="middle" x="873" y="-175.5" font-family="Helvetica,sans-Serif" font-size="10.00" fill="grey"> m_rxHandlers</text>
</g>
<!-- Node4 -->
<g id="Node000004" class="node">
<title>Node4</title>
<g id="a_Node000004"><a xlink:href="class_cpl_1_1_container_1_1_map.html" target="_top" xlink:title="This template class implements an Map using an AVL Binary tree (i.e.">
<polygon fill="white" stroke="#666666" points="460,-220.5 347,-220.5 347,-190.5 460,-190.5 460,-220.5"/>
<text text-anchor="start" x="355" y="-208.5" font-family="Helvetica,sans-Serif" font-size="10.00">Cpl::Container::Map</text>
<text text-anchor="middle" x="403.5" y="-197.5" font-family="Helvetica,sans-Serif" font-size="10.00">&lt; ITEM &gt;</text>
</a>
</g>
</g>
<!-- Node4&#45;&gt;Node3 -->
<g id="edge3_Node000003_Node000004" class="edge">
<title>Node4&#45;&gt;Node3</title>
<g id="a_edge3_Node000003_Node000004"><a xlink:title=" ">
<path fill="none" stroke="orange" stroke-dasharray="5,2" d="M470.34,-204.69C519.22,-204.08 586.4,-203.25 639.98,-202.59"/>
<polygon fill="orange" stroke="orange" points="470.15,-201.19 460.2,-204.81 470.24,-208.19 470.15,-201.19"/>
</a>
</g>
<text text-anchor="start" x="495" y="-217.5" font-family="Helvetica,sans-Serif" font-size="10.00" fill="grey"> &lt; Driver::TPipe::RxFrame</text>
<text text-anchor="middle" x="558.5" y="-206.5" font-family="Helvetica,sans-Serif" font-size="10.00" fill="grey">HandlerApi &gt;</text>
</g>
<!-- Node5 -->
<g id="Node000005" class="node">
<title>Node5</title>
<g id="a_Node000005"><a xlink:href="class_cpl_1_1_text_1_1_frame_1_1_stream_decoder.html" target="_top" xlink:title="This partially concrete class defines an interface a Text &quot;Decoder&quot; that has a Cpl::Io::Input stream ...">
<polygon fill="white" stroke="#666666" points="798,-162.5 661,-162.5 661,-132.5 798,-132.5 798,-162.5"/>
<text text-anchor="start" x="669" y="-150.5" font-family="Helvetica,sans-Serif" font-size="10.00">Cpl::Text::Frame::Stream</text>
<text text-anchor="middle" x="729.5" y="-139.5" font-family="Helvetica,sans-Serif" font-size="10.00">Decoder</text>
</a>
</g>
</g>
<!-- Node5&#45;&gt;Node1 -->
<g id="edge4_Node000001_Node000005" class="edge">
<title>Node5&#45;&gt;Node1</title>
<g id="a_edge4_Node000001_Node000005"><a xlink:title=" ">
<path fill="none" stroke="#9a32cd" stroke-dasharray="5,2" d="M808.36,-140.62C846.9,-137.22 892.41,-133.19 926.8,-130.16"/>
<polygon fill="#9a32cd" stroke="#9a32cd" points="807.86,-137.15 798.21,-141.52 808.48,-144.12 807.86,-137.15"/>
</a>
</g>
<text text-anchor="middle" x="873" y="-140.5" font-family="Helvetica,sans-Serif" font-size="10.00" fill="grey"> m_deframer</text>
</g>
<!-- Node6 -->
<g id="Node000006" class="node">
<title>Node6</title>
<g id="a_Node000006"><a xlink:href="class_cpl_1_1_text_1_1_frame_1_1_decoder__.html" target="_top" xlink:title="This private partially concrete class implements the basic/common logic for a frame decoder.">
<polygon fill="white" stroke="#666666" points="477,-172 330,-172 330,-153 477,-153 477,-172"/>
<text text-anchor="middle" x="403.5" y="-160" font-family="Helvetica,sans-Serif" font-size="10.00">Cpl::Text::Frame::Decoder_</text>
</a>
</g>
</g>
<!-- Node6&#45;&gt;Node5 -->
<g id="edge5_Node000005_Node000006" class="edge">
<title>Node6&#45;&gt;Node5</title>
<g id="a_edge5_Node000005_Node000006"><a xlink:title=" ">
<path fill="none" stroke="#63b8ff" d="M487.4,-158.66C541.15,-156.17 610.28,-152.97 660.73,-150.64"/>
<polygon fill="#63b8ff" stroke="#63b8ff" points="487.04,-155.17 477.21,-159.13 487.36,-162.17 487.04,-155.17"/>
</a>
</g>
</g>
<!-- Node7 -->
<g id="Node000007" class="node">
<title>Node7</title>
<g id="a_Node000007"><a xlink:href="class_cpl_1_1_text_1_1_frame_1_1_decoder.html" target="_top" xlink:title="This class defines an interface for &#39;receiving&#39; (decode) a frame.">
<polygon fill="white" stroke="#666666" points="293,-173 151,-173 151,-154 293,-154 293,-173"/>
<text text-anchor="middle" x="222" y="-161" font-family="Helvetica,sans-Serif" font-size="10.00">Cpl::Text::Frame::Decoder</text>
</a>
</g>
</g>
<!-- Node7&#45;&gt;Node6 -->
<g id="edge6_Node000006_Node000007" class="edge">
<title>Node7&#45;&gt;Node6</title>
<g id="a_edge6_Node000006_Node000007"><a xlink:title=" ">
<path fill="none" stroke="#63b8ff" d="M303.39,-163.05C312.16,-163 321.05,-162.95 329.72,-162.91"/>
<polygon fill="#63b8ff" stroke="#63b8ff" points="303.15,-159.55 293.17,-163.11 303.19,-166.55 303.15,-159.55"/>
</a>
</g>
</g>
<!-- Node8 -->
<g id="Node000008" class="node">
<title>Node8</title>
<g id="a_Node000008"><a xlink:href="class_cpl_1_1_io_1_1_input.html" target="_top" xlink:title="This partially abstract class defines a interface for operating on an input stream (example of a stre...">
<polygon fill="white" stroke="#666666" points="442.5,-135 364.5,-135 364.5,-116 442.5,-116 442.5,-135"/>
<text text-anchor="middle" x="403.5" y="-123" font-family="Helvetica,sans-Serif" font-size="10.00">Cpl::Io::Input</text>
</a>
</g>
</g>
<!-- Node8&#45;&gt;Node5 -->
<g id="edge7_Node000005_Node000008" class="edge">
<title>Node8&#45;&gt;Node5</title>
<g id="a_edge7_Node000005_Node000008"><a xlink:title=" ">
<path fill="none" stroke="#9a32cd" stroke-dasharray="5,2" d="M452.79,-127.63C496.89,-129.7 563.87,-133.17 622,-137.5 634.59,-138.44 648.01,-139.58 660.93,-140.76"/>
<polygon fill="#9a32cd" stroke="#9a32cd" points="452.79,-124.13 442.64,-127.16 452.47,-131.12 452.79,-124.13"/>
</a>
</g>
<text text-anchor="middle" x="558.5" y="-140.5" font-family="Helvetica,sans-Serif" font-size="10.00" fill="grey"> m_srcPtr</text>
</g>
<!-- Node9 -->
<g id="Node000009" class="node">
<title>Node9</title>
<g id="a_Node000009"><a xlink:href="class_cpl_1_1_io_1_1_close.html" target="_top" xlink:title="This abstract class defines a close operation that is intended to be used Input and Output streams/fi...">
<polygon fill="white" stroke="#666666" points="262,-129 182,-129 182,-110 262,-110 262,-129"/>
<text text-anchor="middle" x="222" y="-117" font-family="Helvetica,sans-Serif" font-size="10.00">Cpl::Io::Close</text>
</a>
</g>
</g>
<!-- Node9&#45;&gt;Node8 -->
<g id="edge8_Node000008_Node000009" class="edge">
<title>Node9&#45;&gt;Node8</title>
<g id="a_edge8_Node000008_Node000009"><a xlink:title=" ">
<path fill="none" stroke="#63b8ff" d="M272.66,-122.72C285.17,-123.42 298.57,-124.08 311,-124.5 328.46,-125.09 347.81,-125.36 364.21,-125.47"/>
<polygon fill="#63b8ff" stroke="#63b8ff" points="272.59,-119.21 262.41,-122.13 272.19,-126.2 272.59,-119.21"/>
</a>
</g>
</g>
<!-- Node15 -->
<g id="Node000015" class="node">
<title>Node15</title>
<g id="a_Node000015"><a xlink:href="class_cpl_1_1_io_1_1_output.html" target="_top" xlink:title="This partially abstract class defines a interface for operating on an output stream (example of a str...">
<polygon fill="white" stroke="#666666" points="446.5,-93 360.5,-93 360.5,-74 446.5,-74 446.5,-93"/>
<text text-anchor="middle" x="403.5" y="-81" font-family="Helvetica,sans-Serif" font-size="10.00">Cpl::Io::Output</text>
</a>
</g>
</g>
<!-- Node9&#45;&gt;Node15 -->
<g id="edge15_Node000015_Node000009" class="edge">
<title>Node9&#45;&gt;Node15</title>
<g id="a_edge15_Node000015_Node000009"><a xlink:title=" ">
<path fill="none" stroke="#63b8ff" d="M272.25,-109.62C299.89,-104.08 334,-97.24 360.38,-91.95"/>
<polygon fill="#63b8ff" stroke="#63b8ff" points="271.51,-106.2 262.39,-111.6 272.89,-113.06 271.51,-106.2"/>
</a>
</g>
</g>
<!-- Node10 -->
<g id="Node000010" class="node">
<title>Node10</title>
<g id="a_Node000010"><a xlink:href="class_cpl_1_1_container_1_1_item.html" target="_top" xlink:title="This class is used by the Container classes to implement a various types of singly linked containers.">
<polygon fill="white" stroke="#666666" points="114,-129 0,-129 0,-110 114,-110 114,-129"/>
<text text-anchor="middle" x="57" y="-117" font-family="Helvetica,sans-Serif" font-size="10.00">Cpl::Container::Item</text>
</a>
</g>
</g>
<!-- Node10&#45;&gt;Node9 -->
<g id="edge9_Node000009_Node000010" class="edge">
<title>Node10&#45;&gt;Node9</title>
<g id="a_edge9_Node000009_Node000010"><a xlink:title=" ">
<path fill="none" stroke="#63b8ff" d="M124.18,-119.5C143.73,-119.5 164.49,-119.5 181.76,-119.5"/>
<polygon fill="#63b8ff" stroke="#63b8ff" points="124.1,-116 114.1,-119.5 124.1,-123 124.1,-116"/>
</a>
</g>
</g>
<!-- Node11 -->
<g id="Node000011" class="node">
<title>Node11</title>
<g id="a_Node000011"><a xlink:href="class_cpl_1_1_io_1_1_is_eos.html" target="_top" xlink:title="This abstract class defines a isEos() operation that is intended to be used Input and Output streams.">
<polygon fill="white" stroke="#666666" points="261.5,-92 182.5,-92 182.5,-73 261.5,-73 261.5,-92"/>
<text text-anchor="middle" x="222" y="-80" font-family="Helvetica,sans-Serif" font-size="10.00">Cpl::Io::IsEos</text>
</a>
</g>
</g>
<!-- Node11&#45;&gt;Node8 -->
<g id="edge10_Node000008_Node000011" class="edge">
<title>Node11&#45;&gt;Node8</title>
<g id="a_edge10_Node000008_Node000011"><a xlink:title=" ">
<path fill="none" stroke="#63b8ff" d="M271.49,-94.12C300.66,-101.1 337.27,-109.87 364.36,-116.36"/>
<polygon fill="#63b8ff" stroke="#63b8ff" points="272.05,-90.65 261.51,-91.72 270.42,-97.46 272.05,-90.65"/>
</a>
</g>
</g>
<!-- Node11&#45;&gt;Node15 -->
<g id="edge16_Node000015_Node000011" class="edge">
<title>Node11&#45;&gt;Node15</title>
<g id="a_edge16_Node000015_Node000011"><a xlink:title=" ">
<path fill="none" stroke="#63b8ff" d="M271.56,-79.25C284.38,-78.52 298.21,-77.86 311,-77.5 327.07,-77.04 344.7,-77.88 360.17,-79.06"/>
<polygon fill="#63b8ff" stroke="#63b8ff" points="271.31,-75.75 261.53,-79.84 271.72,-82.74 271.31,-75.75"/>
</a>
</g>
</g>
<!-- Node12 -->
<g id="Node000012" class="node">
<title>Node12</title>
<g id="a_Node000012"><a xlink:href="class_cpl_1_1_text_1_1_frame_1_1_stream_encoder.html" target="_top" xlink:title="This concrete class implements the Encoder API where the Output destination is a Cpl::Io::Output stre...">
<polygon fill="white" stroke="#666666" points="798,-67.5 661,-67.5 661,-37.5 798,-37.5 798,-67.5"/>
<text text-anchor="start" x="669" y="-55.5" font-family="Helvetica,sans-Serif" font-size="10.00">Cpl::Text::Frame::Stream</text>
<text text-anchor="middle" x="729.5" y="-44.5" font-family="Helvetica,sans-Serif" font-size="10.00">Encoder</text>
</a>
</g>
</g>
<!-- Node12&#45;&gt;Node1 -->
<g id="edge11_Node000001_Node000012" class="edge">
<title>Node12&#45;&gt;Node1</title>
<g id="a_edge11_Node000001_Node000012"><a xlink:title=" ">
<path fill="none" stroke="#9a32cd" stroke-dasharray="5,2" d="M808.59,-56.35C840.53,-59.83 877.34,-66.35 909,-78.5 932.07,-87.35 955.22,-104.83 968.41,-115.79"/>
<polygon fill="#9a32cd" stroke="#9a32cd" points="808.7,-52.84 798.4,-55.32 808,-59.81 808.7,-52.84"/>
</a>
</g>
<text text-anchor="middle" x="873" y="-81.5" font-family="Helvetica,sans-Serif" font-size="10.00" fill="grey"> m_framer</text>
</g>
<!-- Node13 -->
<g id="Node000013" class="node">
<title>Node13</title>
<g id="a_Node000013"><a xlink:href="class_cpl_1_1_text_1_1_frame_1_1_encoder__.html" target="_top" xlink:title="This Private Namespace partially concrete class implements common/helper method for supporting the En...">
<polygon fill="white" stroke="#666666" points="476.5,-51 330.5,-51 330.5,-32 476.5,-32 476.5,-51"/>
<text text-anchor="middle" x="403.5" y="-39" font-family="Helvetica,sans-Serif" font-size="10.00">Cpl::Text::Frame::Encoder_</text>
</a>
</g>
</g>
<!-- Node13&#45;&gt;Node12 -->
<g id="edge12_Node000012_Node000013" class="edge">
<title>Node13&#45;&gt;Node12</title>
<g id="a_edge12_Node000012_Node000013"><a xlink:title=" ">
<path fill="none" stroke="#63b8ff" d="M487.01,-44.3C540.85,-46.13 610.26,-48.49 660.84,-50.2"/>
<polygon fill="#63b8ff" stroke="#63b8ff" points="486.92,-40.8 476.81,-43.95 486.68,-47.79 486.92,-40.8"/>
</a>
</g>
</g>
<!-- Node14 -->
<g id="Node000014" class="node">
<title>Node14</title>
<g id="a_Node000014"><a xlink:href="class_cpl_1_1_text_1_1_frame_1_1_encoder.html" target="_top" xlink:title="This class defines an interface for &#39;transmitted&#39; (encoding) a frame.">
<polygon fill="white" stroke="#666666" points="292,-48 152,-48 152,-29 292,-29 292,-48"/>
<text text-anchor="middle" x="222" y="-36" font-family="Helvetica,sans-Serif" font-size="10.00">Cpl::Text::Frame::Encoder</text>
</a>
</g>
</g>
<!-- Node14&#45;&gt;Node13 -->
<g id="edge13_Node000013_Node000014" class="edge">
<title>Node14&#45;&gt;Node13</title>
<g id="a_edge13_Node000013_Node000014"><a xlink:title=" ">
<path fill="none" stroke="#63b8ff" d="M302.24,-39.82C311.62,-39.98 321.15,-40.14 330.42,-40.3"/>
<polygon fill="#63b8ff" stroke="#63b8ff" points="302.2,-36.32 292.14,-39.66 302.08,-43.32 302.2,-36.32"/>
</a>
</g>
</g>
<!-- Node15&#45;&gt;Node1 -->
<g id="edge17_Node000001_Node000015" class="edge">
<title>Node15&#45;&gt;Node1</title>
<g id="a_edge17_Node000001_Node000015"><a xlink:title=" ">
<path fill="none" stroke="#9a32cd" stroke-dasharray="5,2" d="M456.71,-86.97C535.31,-92.23 688.72,-102.67 819,-112.5 854.96,-115.21 895.43,-118.49 926.74,-121.08"/>
<polygon fill="#9a32cd" stroke="#9a32cd" points="456.79,-83.47 446.58,-86.29 456.32,-90.45 456.79,-83.47"/>
</a>
</g>
<text text-anchor="middle" x="729.5" y="-115.5" font-family="Helvetica,sans-Serif" font-size="10.00" fill="grey"> m_outfdPtr</text>
</g>
<!-- Node15&#45;&gt;Node12 -->
<g id="edge14_Node000012_Node000015" class="edge">
<title>Node15&#45;&gt;Node12</title>
<g id="a_edge14_Node000012_Node000015"><a xlink:title=" ">
<path fill="none" stroke="#9a32cd" stroke-dasharray="5,2" d="M456.49,-78.53C511.96,-73.22 600.05,-64.79 660.88,-58.97"/>
<polygon fill="#9a32cd" stroke="#9a32cd" points="456.15,-75.04 446.53,-79.48 456.81,-82.01 456.15,-75.04"/>
</a>
</g>
<text text-anchor="middle" x="558.5" y="-77.5" font-family="Helvetica,sans-Serif" font-size="10.00" fill="grey"> m_dstPtr</text>
</g>
<!-- Node16 -->
<g id="Node000016" class="node">
<title>Node16</title>
<g id="a_Node000016"><a xlink:href="class_cpl_1_1_system_1_1_mutex.html" target="_top" xlink:title="This mutex class defines the interface for a mutex that has &quot;recursive&quot; semantics.">
<polygon fill="white" stroke="#666666" points="785.5,-19 673.5,-19 673.5,0 785.5,0 785.5,-19"/>
<text text-anchor="middle" x="729.5" y="-7" font-family="Helvetica,sans-Serif" font-size="10.00">Cpl::System::Mutex</text>
</a>
</g>
</g>
<!-- Node16&#45;&gt;Node1 -->
<g id="edge18_Node000001_Node000016" class="edge">
<title>Node16&#45;&gt;Node1</title>
<g id="a_edge18_Node000001_Node000016"><a xlink:title=" ">
<path fill="none" stroke="#9a32cd" stroke-dasharray="5,2" d="M795.88,-12.59C831.32,-16.67 874.74,-25.71 909,-45.5 939.46,-63.09 963.54,-98.64 973.93,-115.8"/>
<polygon fill="#9a32cd" stroke="#9a32cd" points="795.94,-9.08 785.64,-11.53 795.22,-16.04 795.94,-9.08"/>
</a>
</g>
<text text-anchor="middle" x="873" y="-48.5" font-family="Helvetica,sans-Serif" font-size="10.00" fill="grey"> m_lock</text>
</g>
</g>
</svg>
