<?xml version="1.0" encoding="UTF-8" standalone="no"?>
<!DOCTYPE svg PUBLIC "-//W3C//DTD SVG 1.1//EN"
 "http://www.w3.org/Graphics/SVG/1.1/DTD/svg11.dtd">
<!-- Generated by graphviz version 2.43.0 (0)
 -->
<!-- Title: Cpl::Io::Socket::Connector Pages: 1 -->
<svg width="266pt" height="93pt"
 viewBox="0.00 0.00 266.00 93.00" xmlns="http://www.w3.org/2000/svg" xmlns:xlink="http://www.w3.org/1999/xlink">
<g id="graph0" class="graph" transform="scale(1 1) rotate(0) translate(4 89)">
<title>Cpl::Io::Socket::Connector</title>
<!-- Node1 -->
<g id="Node000001" class="node">
<title>Node1</title>
<g id="a_Node000001"><a xlink:title="This abstract class defines the interface for establishing/requesting a SIMPLE socket connection,...">
<polygon fill="#999999" stroke="#666666" points="198.5,-85 57.5,-85 57.5,-66 198.5,-66 198.5,-85"/>
<text text-anchor="middle" x="128" y="-73" font-family="Helvetica,sans-Serif" font-size="10.00">Cpl::Io::Socket::Connector</text>
</a>
</g>
</g>
<!-- Node2 -->
<g id="Node000002" class="node">
<title>Node2</title>
<g id="a_Node000002"><a xlink:href="class_cpl_1_1_io_1_1_socket_1_1_posix_1_1_connector.html" target="_top" xlink:title="This concrete class implements the Cpl::Io::Socket::Connector interface using IPv4/IPv6 addressing fo...">
<polygon fill="white" stroke="#666666" points="118,-30 0,-30 0,0 118,0 118,-30"/>
<text text-anchor="start" x="8" y="-18" font-family="Helvetica,sans-Serif" font-size="10.00">Cpl::Io::Socket::Posix</text>
<text text-anchor="middle" x="59" y="-7" font-family="Helvetica,sans-Serif" font-size="10.00">::Connector</text>
</a>
</g>
</g>
<!-- Node1&#45;&gt;Node2 -->
<g id="edge1_Node000001_Node000002" class="edge">
<title>Node1&#45;&gt;Node2</title>
<g id="a_edge1_Node000001_Node000002"><a xlink:title=" ">
<path fill="none" stroke="#63b8ff" d="M109.99,-59.23C99.37,-50.23 86.02,-38.91 75.65,-30.11"/>
<polygon fill="#63b8ff" stroke="#63b8ff" points="107.93,-62.07 117.82,-65.87 112.45,-56.73 107.93,-62.07"/>
</a>
</g>
</g>
<!-- Node3 -->
<g id="Node000003" class="node">
<title>Node3</title>
<g id="a_Node000003"><a xlink:href="class_cpl_1_1_io_1_1_socket_1_1_win32_1_1_connector.html" target="_top" xlink:title="This concrete class implements the Cpl::Io::Socket::Connector interface using IPv4/IPv6 addressing fo...">
<polygon fill="white" stroke="#666666" points="258,-30 136,-30 136,0 258,0 258,-30"/>
<text text-anchor="start" x="144" y="-18" font-family="Helvetica,sans-Serif" font-size="10.00">Cpl::Io::Socket::Win32</text>
<text text-anchor="middle" x="197" y="-7" font-family="Helvetica,sans-Serif" font-size="10.00">::Connector</text>
</a>
</g>
</g>
<!-- Node1&#45;&gt;Node3 -->
<g id="edge2_Node000001_Node000003" class="edge">
<title>Node1&#45;&gt;Node3</title>
<g id="a_edge2_Node000001_Node000003"><a xlink:title=" ">
<path fill="none" stroke="#63b8ff" d="M146.01,-59.23C156.63,-50.23 169.98,-38.91 180.35,-30.11"/>
<polygon fill="#63b8ff" stroke="#63b8ff" points="143.55,-56.73 138.18,-65.87 148.07,-62.07 143.55,-56.73"/>
</a>
</g>
</g>
</g>
</svg>
