<?xml version="1.0" encoding="UTF-8" standalone="no"?>
<!DOCTYPE svg PUBLIC "-//W3C//DTD SVG 1.1//EN"
 "http://www.w3.org/Graphics/SVG/1.1/DTD/svg11.dtd">
<!-- Generated by graphviz version 2.43.0 (0)
 -->
<!-- Title: Cpl::Dm::Mp::BitArray32 Pages: 1 -->
<svg width="2193pt" height="200pt"
 viewBox="0.00 0.00 2193.00 199.50" xmlns="http://www.w3.org/2000/svg" xmlns:xlink="http://www.w3.org/1999/xlink">
<g id="graph0" class="graph" transform="scale(1 1) rotate(0) translate(4 195.5)">
<title>Cpl::Dm::Mp::BitArray32</title>
<!-- Node1 -->
<g id="Node000001" class="node">
<title>Node1</title>
<g id="a_Node000001"><a xlink:title="This template class provides a concrete implementation for a Point who&#39;s data is a a bit array of N b...">
<polygon fill="#999999" stroke="#666666" points="2185,-165 2051,-165 2051,-146 2185,-146 2185,-165"/>
<text text-anchor="middle" x="2118" y="-153" font-family="Helvetica,sans-Serif" font-size="10.00">Cpl::Dm::Mp::BitArray32</text>
</a>
</g>
</g>
<!-- Node2 -->
<g id="Node000002" class="node">
<title>Node2</title>
<g id="a_Node000002"><a xlink:href="class_cpl_1_1_dm_1_1_mp_1_1_bit_array__.html" target="_top" xlink:title=" ">
<polygon fill="white" stroke="#666666" points="2014,-170.5 1872,-170.5 1872,-140.5 2014,-140.5 2014,-170.5"/>
<text text-anchor="start" x="1880" y="-158.5" font-family="Helvetica,sans-Serif" font-size="10.00">Cpl::Dm::Mp::BitArray</text>
<text text-anchor="middle" x="1943" y="-147.5" font-family="Helvetica,sans-Serif" font-size="10.00">_&lt; uint32_t, BitArray32 &gt;</text>
</a>
</g>
</g>
<!-- Node2&#45;&gt;Node1 -->
<g id="edge1_Node000001_Node000002" class="edge">
<title>Node2&#45;&gt;Node1</title>
<g id="a_edge1_Node000001_Node000002"><a xlink:title=" ">
<path fill="none" stroke="#63b8ff" d="M2024.63,-155.5C2033.42,-155.5 2042.3,-155.5 2050.89,-155.5"/>
<polygon fill="#63b8ff" stroke="#63b8ff" points="2024.37,-152 2014.37,-155.5 2024.37,-159 2024.37,-152"/>
</a>
</g>
</g>
<!-- Node3 -->
<g id="Node000003" class="node">
<title>Node3</title>
<g id="a_Node000003"><a xlink:href="class_cpl_1_1_dm_1_1_mp_1_1_numeric.html" target="_top" xlink:title="This template class provides a mostly concrete implementation for a Model Point who&#39;s data is a C num...">
<polygon fill="white" stroke="#666666" points="1377,-191.5 1243,-191.5 1243,-161.5 1377,-161.5 1377,-191.5"/>
<text text-anchor="start" x="1251" y="-179.5" font-family="Helvetica,sans-Serif" font-size="10.00">Cpl::Dm::Mp::Numeric</text>
<text text-anchor="middle" x="1310" y="-168.5" font-family="Helvetica,sans-Serif" font-size="10.00">&lt; ELEMTYPE, MPTYPE &gt;</text>
</a>
</g>
</g>
<!-- Node3&#45;&gt;Node2 -->
<g id="edge2_Node000002_Node000003" class="edge">
<title>Node3&#45;&gt;Node2</title>
<g id="a_edge2_Node000002_Node000003"><a xlink:title=" ">
<path fill="none" stroke="#63b8ff" d="M1387.27,-175.82C1492.39,-174.59 1687.67,-171.25 1854,-162.5 1859.82,-162.19 1865.84,-161.82 1871.89,-161.42"/>
<polygon fill="#63b8ff" stroke="#63b8ff" points="1387.04,-172.32 1377.08,-175.94 1387.12,-179.32 1387.04,-172.32"/>
</a>
</g>
</g>
<!-- Node4 -->
<g id="Node000004" class="node">
<title>Node4</title>
<g id="a_Node000004"><a xlink:href="class_cpl_1_1_dm_1_1_model_point_common__.html" target="_top" xlink:title="This concrete class provide common infrastructure for a Model Point.">
<polygon fill="white" stroke="#666666" points="1054,-148 888,-148 888,-129 1054,-129 1054,-148"/>
<text text-anchor="middle" x="971" y="-136" font-family="Helvetica,sans-Serif" font-size="10.00">Cpl::Dm::ModelPointCommon_</text>
</a>
</g>
</g>
<!-- Node4&#45;&gt;Node3 -->
<g id="edge3_Node000003_Node000004" class="edge">
<title>Node4&#45;&gt;Node3</title>
<g id="a_edge3_Node000003_Node000004"><a xlink:title=" ">
<path fill="none" stroke="#63b8ff" d="M1047.39,-149.37C1055.69,-150.47 1064.02,-151.54 1072,-152.5 1129.58,-159.44 1195.21,-165.98 1242.78,-170.48"/>
<polygon fill="#63b8ff" stroke="#63b8ff" points="1047.69,-145.88 1037.31,-148.01 1046.75,-152.81 1047.69,-145.88"/>
</a>
</g>
</g>
<!-- Node15 -->
<g id="Node000015" class="node">
<title>Node15</title>
<g id="a_Node000015"><a xlink:href="class_cpl_1_1_dm_1_1_mp_1_1_numeric.html" target="_top" xlink:title=" ">
<polygon fill="white" stroke="#666666" points="1532,-148.5 1395,-148.5 1395,-118.5 1532,-118.5 1532,-148.5"/>
<text text-anchor="start" x="1403" y="-136.5" font-family="Helvetica,sans-Serif" font-size="10.00">Cpl::Dm::Mp::Numeric</text>
<text text-anchor="middle" x="1463.5" y="-125.5" font-family="Helvetica,sans-Serif" font-size="10.00">&lt; WORDSIZE, MPTYPE &gt;</text>
</a>
</g>
</g>
<!-- Node4&#45;&gt;Node15 -->
<g id="edge15_Node000015_Node000004" class="edge">
<title>Node4&#45;&gt;Node15</title>
<g id="a_edge15_Node000015_Node000004"><a xlink:title=" ">
<path fill="none" stroke="#63b8ff" d="M1064.11,-137.56C1160.28,-136.58 1308.83,-135.07 1394.76,-134.19"/>
<polygon fill="#63b8ff" stroke="#63b8ff" points="1064.06,-134.06 1054.1,-137.66 1064.13,-141.06 1064.06,-134.06"/>
</a>
</g>
</g>
<!-- Node16 -->
<g id="Node000016" class="node">
<title>Node16</title>
<g id="a_Node000016"><a xlink:href="class_cpl_1_1_dm_1_1_mp_1_1_numeric.html" target="_top" xlink:title="This template class provides a mostly concrete implementation for a Model Point who&#39;s data is a C num...">
<polygon fill="white" stroke="#666666" points="1225,-110.5 1091,-110.5 1091,-80.5 1225,-80.5 1225,-110.5"/>
<text text-anchor="start" x="1099" y="-98.5" font-family="Helvetica,sans-Serif" font-size="10.00">Cpl::Dm::Mp::Numeric</text>
<text text-anchor="middle" x="1158" y="-87.5" font-family="Helvetica,sans-Serif" font-size="10.00">&lt; ELEMTYPE, MPTYPE &gt;</text>
</a>
</g>
</g>
<!-- Node4&#45;&gt;Node16 -->
<g id="edge17_Node000016_Node000004" class="edge">
<title>Node4&#45;&gt;Node16</title>
<g id="a_edge17_Node000016_Node000004"><a xlink:title=" ">
<path fill="none" stroke="#63b8ff" d="M1022.95,-126.66C1044.43,-121.66 1069.68,-115.8 1092.44,-110.51"/>
<polygon fill="#63b8ff" stroke="#63b8ff" points="1022.01,-123.28 1013.06,-128.96 1023.59,-130.1 1022.01,-123.28"/>
</a>
</g>
</g>
<!-- Node5 -->
<g id="Node000005" class="node">
<title>Node5</title>
<g id="a_Node000005"><a xlink:href="class_cpl_1_1_dm_1_1_model_point.html" target="_top" xlink:title="This mostly abstract class defines the interface for a Model Point.">
<polygon fill="white" stroke="#666666" points="738.5,-191 622.5,-191 622.5,-172 738.5,-172 738.5,-191"/>
<text text-anchor="middle" x="680.5" y="-179" font-family="Helvetica,sans-Serif" font-size="10.00">Cpl::Dm::ModelPoint</text>
</a>
</g>
</g>
<!-- Node5&#45;&gt;Node4 -->
<g id="edge4_Node000004_Node000005" class="edge">
<title>Node5&#45;&gt;Node4</title>
<g id="a_edge4_Node000004_Node000005"><a xlink:title=" ">
<path fill="none" stroke="#63b8ff" d="M748.73,-171.54C784.71,-166.2 829.77,-159.51 870,-153.5 881.81,-151.74 894.4,-149.85 906.52,-148.04"/>
<polygon fill="#63b8ff" stroke="#63b8ff" points="748.21,-168.08 738.84,-173 749.24,-175 748.21,-168.08"/>
</a>
</g>
</g>
<!-- Node6 -->
<g id="Node000006" class="node">
<title>Node6</title>
<g id="a_Node000006"><a xlink:href="class_cpl_1_1_container_1_1_item.html" target="_top" xlink:title="This class is used by the Container classes to implement a various types of singly linked containers.">
<polygon fill="white" stroke="#666666" points="411,-191 297,-191 297,-172 411,-172 411,-191"/>
<text text-anchor="middle" x="354" y="-179" font-family="Helvetica,sans-Serif" font-size="10.00">Cpl::Container::Item</text>
</a>
</g>
</g>
<!-- Node6&#45;&gt;Node5 -->
<g id="edge5_Node000005_Node000006" class="edge">
<title>Node6&#45;&gt;Node5</title>
<g id="a_edge5_Node000005_Node000006"><a xlink:title=" ">
<path fill="none" stroke="#63b8ff" d="M421.51,-181.5C480.67,-181.5 566.28,-181.5 622.4,-181.5"/>
<polygon fill="#63b8ff" stroke="#63b8ff" points="421.15,-178 411.15,-181.5 421.15,-185 421.15,-178"/>
</a>
</g>
</g>
<!-- Node7 -->
<g id="Node000007" class="node">
<title>Node7</title>
<g id="a_Node000007"><a xlink:href="class_cpl_1_1_container_1_1_d_list.html" target="_top" xlink:title=" ">
<polygon fill="white" stroke="#666666" points="756,-153.5 605,-153.5 605,-123.5 756,-123.5 756,-153.5"/>
<text text-anchor="start" x="613" y="-141.5" font-family="Helvetica,sans-Serif" font-size="10.00">Cpl::Container::DList</text>
<text text-anchor="middle" x="680.5" y="-130.5" font-family="Helvetica,sans-Serif" font-size="10.00">&lt; Cpl::Dm::SubscriberApi &gt;</text>
</a>
</g>
</g>
<!-- Node7&#45;&gt;Node4 -->
<g id="edge6_Node000004_Node000007" class="edge">
<title>Node7&#45;&gt;Node4</title>
<g id="a_edge6_Node000004_Node000007"><a xlink:title=" ">
<path fill="none" stroke="#9a32cd" stroke-dasharray="5,2" d="M766.28,-138.5C804.61,-138.5 849.75,-138.5 887.77,-138.5"/>
<polygon fill="#9a32cd" stroke="#9a32cd" points="766.17,-135 756.17,-138.5 766.17,-142 766.17,-135"/>
</a>
</g>
<text text-anchor="middle" x="822" y="-141.5" font-family="Helvetica,sans-Serif" font-size="10.00" fill="grey"> m_subscribers</text>
</g>
<!-- Node8 -->
<g id="Node000008" class="node">
<title>Node8</title>
<g id="a_Node000008"><a xlink:href="class_cpl_1_1_container_1_1_d_list.html" target="_top" xlink:title="This template class implements a Doubly linked list which maintains the ordering imposed on it by the...">
<polygon fill="white" stroke="#666666" points="412,-153.5 296,-153.5 296,-123.5 412,-123.5 412,-153.5"/>
<text text-anchor="start" x="304" y="-141.5" font-family="Helvetica,sans-Serif" font-size="10.00">Cpl::Container::DList</text>
<text text-anchor="middle" x="354" y="-130.5" font-family="Helvetica,sans-Serif" font-size="10.00">&lt; ITEM &gt;</text>
</a>
</g>
</g>
<!-- Node8&#45;&gt;Node7 -->
<g id="edge7_Node000007_Node000008" class="edge">
<title>Node8&#45;&gt;Node7</title>
<g id="a_edge7_Node000007_Node000008"><a xlink:title=" ">
<path fill="none" stroke="orange" stroke-dasharray="5,2" d="M422.28,-138.5C475.5,-138.5 549.75,-138.5 604.81,-138.5"/>
<polygon fill="orange" stroke="orange" points="422.27,-135 412.27,-138.5 422.27,-142 422.27,-135"/>
</a>
</g>
<text text-anchor="middle" x="518" y="-141.5" font-family="Helvetica,sans-Serif" font-size="10.00" fill="grey"> &lt; Cpl::Dm::SubscriberApi &gt;</text>
</g>
<!-- Node9 -->
<g id="Node000009" class="node">
<title>Node9</title>
<g id="a_Node000009"><a xlink:href="class_cpl_1_1_dm_1_1_model_database.html" target="_top" xlink:title="This concrete class implements a simple Model Database.">
<polygon fill="white" stroke="#666666" points="749.5,-84 611.5,-84 611.5,-65 749.5,-65 749.5,-84"/>
<text text-anchor="middle" x="680.5" y="-72" font-family="Helvetica,sans-Serif" font-size="10.00">Cpl::Dm::ModelDatabase</text>
</a>
</g>
</g>
<!-- Node9&#45;&gt;Node4 -->
<g id="edge8_Node000004_Node000009" class="edge">
<title>Node9&#45;&gt;Node4</title>
<g id="a_edge8_Node000004_Node000009"><a xlink:title=" ">
<path fill="none" stroke="#9a32cd" stroke-dasharray="5,2" d="M734.34,-86.22C789.67,-98.5 875.5,-117.54 926.88,-128.94"/>
<polygon fill="#9a32cd" stroke="#9a32cd" points="734.9,-82.76 724.38,-84.01 733.38,-89.6 734.9,-82.76"/>
</a>
</g>
<text text-anchor="middle" x="822" y="-118.5" font-family="Helvetica,sans-Serif" font-size="10.00" fill="grey"> m_modelDatabase</text>
</g>
<!-- Node10 -->
<g id="Node000010" class="node">
<title>Node10</title>
<g id="a_Node000010"><a xlink:href="class_cpl_1_1_dm_1_1_model_database_api.html" target="_top" xlink:title="This class defines the basic operations that can be performed on a Model Base.">
<polygon fill="white" stroke="#666666" points="431,-105 277,-105 277,-86 431,-86 431,-105"/>
<text text-anchor="middle" x="354" y="-93" font-family="Helvetica,sans-Serif" font-size="10.00">Cpl::Dm::ModelDatabaseApi</text>
</a>
</g>
</g>
<!-- Node10&#45;&gt;Node9 -->
<g id="edge9_Node000009_Node000010" class="edge">
<title>Node10&#45;&gt;Node9</title>
<g id="a_edge9_Node000009_Node000010"><a xlink:title=" ">
<path fill="none" stroke="#63b8ff" d="M441.19,-89.92C494.45,-86.48 561.83,-82.12 611.35,-78.91"/>
<polygon fill="#63b8ff" stroke="#63b8ff" points="440.83,-86.44 431.08,-90.58 441.29,-93.42 440.83,-86.44"/>
</a>
</g>
</g>
<!-- Node11 -->
<g id="Node000011" class="node">
<title>Node11</title>
<g id="a_Node000011"><a xlink:href="class_cpl_1_1_container_1_1_s_list.html" target="_top" xlink:title=" ">
<polygon fill="white" stroke="#666666" points="423.5,-67.5 284.5,-67.5 284.5,-37.5 423.5,-37.5 423.5,-67.5"/>
<text text-anchor="start" x="292.5" y="-55.5" font-family="Helvetica,sans-Serif" font-size="10.00">Cpl::Container::SList</text>
<text text-anchor="middle" x="354" y="-44.5" font-family="Helvetica,sans-Serif" font-size="10.00">&lt; Cpl::Dm::ModelPoint &gt;</text>
</a>
</g>
</g>
<!-- Node11&#45;&gt;Node9 -->
<g id="edge10_Node000009_Node000011" class="edge">
<title>Node11&#45;&gt;Node9</title>
<g id="a_edge10_Node000009_Node000011"><a xlink:title=" ">
<path fill="none" stroke="#9a32cd" stroke-dasharray="5,2" d="M433.83,-56.11C478.75,-58.37 536.06,-61.6 587,-65.5 594.88,-66.1 603.14,-66.81 611.33,-67.55"/>
<polygon fill="#9a32cd" stroke="#9a32cd" points="433.73,-52.6 423.57,-55.6 433.39,-59.6 433.73,-52.6"/>
</a>
</g>
<text text-anchor="middle" x="518" y="-68.5" font-family="Helvetica,sans-Serif" font-size="10.00" fill="grey"> m_list</text>
</g>
<!-- Node12 -->
<g id="Node000012" class="node">
<title>Node12</title>
<g id="a_Node000012"><a xlink:href="class_cpl_1_1_container_1_1_s_list.html" target="_top" xlink:title="This template class implements a singly linked list which maintains the ordering imposed on it by the...">
<polygon fill="white" stroke="#666666" points="115,-67.5 0,-67.5 0,-37.5 115,-37.5 115,-67.5"/>
<text text-anchor="start" x="8" y="-55.5" font-family="Helvetica,sans-Serif" font-size="10.00">Cpl::Container::SList</text>
<text text-anchor="middle" x="57.5" y="-44.5" font-family="Helvetica,sans-Serif" font-size="10.00">&lt; ITEM &gt;</text>
</a>
</g>
</g>
<!-- Node12&#45;&gt;Node11 -->
<g id="edge11_Node000011_Node000012" class="edge">
<title>Node12&#45;&gt;Node11</title>
<g id="a_edge11_Node000011_Node000012"><a xlink:title=" ">
<path fill="none" stroke="orange" stroke-dasharray="5,2" d="M125.47,-52.5C173.01,-52.5 236.61,-52.5 284.49,-52.5"/>
<polygon fill="orange" stroke="orange" points="125.28,-49 115.28,-52.5 125.28,-56 125.28,-49"/>
</a>
</g>
<text text-anchor="middle" x="196" y="-55.5" font-family="Helvetica,sans-Serif" font-size="10.00" fill="grey"> &lt; Cpl::Dm::ModelPoint &gt;</text>
</g>
<!-- Node13 -->
<g id="Node000013" class="node">
<title>Node13</title>
<g id="a_Node000013"><a xlink:href="class_cpl_1_1_system_1_1_mutex.html" target="_top" xlink:title="This mutex class defines the interface for a mutex that has &quot;recursive&quot; semantics.">
<polygon fill="white" stroke="#666666" points="410,-19 298,-19 298,0 410,0 410,-19"/>
<text text-anchor="middle" x="354" y="-7" font-family="Helvetica,sans-Serif" font-size="10.00">Cpl::System::Mutex</text>
</a>
</g>
</g>
<!-- Node13&#45;&gt;Node9 -->
<g id="edge12_Node000009_Node000013" class="edge">
<title>Node13&#45;&gt;Node9</title>
<g id="a_edge12_Node000009_Node000013"><a xlink:title=" ">
<path fill="none" stroke="#9a32cd" stroke-dasharray="5,2" d="M420.46,-14.9C467.31,-19.65 531.62,-27.96 587,-41.5 611.35,-47.45 638.23,-57.45 656.71,-64.89"/>
<polygon fill="#9a32cd" stroke="#9a32cd" points="420.74,-11.42 410.44,-13.92 420.05,-18.38 420.74,-11.42"/>
</a>
</g>
<text text-anchor="middle" x="518" y="-44.5" font-family="Helvetica,sans-Serif" font-size="10.00" fill="grey"> m_lock</text>
</g>
<!-- Node14 -->
<g id="Node000014" class="node">
<title>Node14</title>
<g id="a_Node000014"><a xlink:href="class_cpl_1_1_dm_1_1_mp_1_1_bit_array__.html" target="_top" xlink:title="This template class extends the Numeric&lt;&gt; class to provide bit operation on the numeric value.">
<polygon fill="white" stroke="#666666" points="1712,-148.5 1569,-148.5 1569,-118.5 1712,-118.5 1712,-148.5"/>
<text text-anchor="start" x="1577" y="-136.5" font-family="Helvetica,sans-Serif" font-size="10.00">Cpl::Dm::Mp::BitArray</text>
<text text-anchor="middle" x="1640.5" y="-125.5" font-family="Helvetica,sans-Serif" font-size="10.00">_&lt; WORDSIZE, MPTYPE &gt;</text>
</a>
</g>
</g>
<!-- Node14&#45;&gt;Node2 -->
<g id="edge13_Node000002_Node000014" class="edge">
<title>Node14&#45;&gt;Node2</title>
<g id="a_edge13_Node000002_Node000014"><a xlink:title=" ">
<path fill="none" stroke="orange" stroke-dasharray="5,2" d="M1722.41,-139.42C1769.08,-142.84 1827.19,-147.09 1871.9,-150.37"/>
<polygon fill="orange" stroke="orange" points="1722.56,-135.93 1712.33,-138.69 1722.05,-142.91 1722.56,-135.93"/>
</a>
</g>
<text text-anchor="middle" x="1792" y="-151.5" font-family="Helvetica,sans-Serif" font-size="10.00" fill="grey"> &lt; uint32_t, BitArray32 &gt;</text>
</g>
<!-- Node15&#45;&gt;Node14 -->
<g id="edge14_Node000014_Node000015" class="edge">
<title>Node15&#45;&gt;Node14</title>
<g id="a_edge14_Node000014_Node000015"><a xlink:title=" ">
<path fill="none" stroke="#63b8ff" d="M1542.41,-133.5C1551.21,-133.5 1560.14,-133.5 1568.84,-133.5"/>
<polygon fill="#63b8ff" stroke="#63b8ff" points="1542.16,-130 1532.16,-133.5 1542.16,-137 1542.16,-130"/>
</a>
</g>
</g>
<!-- Node16&#45;&gt;Node15 -->
<g id="edge16_Node000015_Node000016" class="edge">
<title>Node16&#45;&gt;Node15</title>
<g id="a_edge16_Node000015_Node000016"><a xlink:title=" ">
<path fill="none" stroke="orange" stroke-dasharray="5,2" d="M1235.28,-99.04C1277.27,-101.68 1330.21,-106.14 1377,-113.5 1385.58,-114.85 1394.58,-116.59 1403.39,-118.48"/>
<polygon fill="orange" stroke="orange" points="1235.32,-95.53 1225.13,-98.42 1234.89,-102.52 1235.32,-95.53"/>
</a>
</g>
<text text-anchor="middle" x="1310" y="-116.5" font-family="Helvetica,sans-Serif" font-size="10.00" fill="grey"> &lt; WORDSIZE, MPTYPE &gt;</text>
</g>
</g>
</svg>
