<?xml version="1.0" encoding="UTF-8" standalone="no"?>
<!DOCTYPE svg PUBLIC "-//W3C//DTD SVG 1.1//EN"
 "http://www.w3.org/Graphics/SVG/1.1/DTD/svg11.dtd">
<!-- Generated by graphviz version 2.43.0 (0)
 -->
<!-- Title: Cpl::Text::DString Pages: 1 -->
<svg width="118pt" height="192pt"
 viewBox="0.00 0.00 118.00 192.00" xmlns="http://www.w3.org/2000/svg" xmlns:xlink="http://www.w3.org/1999/xlink">
<g id="graph0" class="graph" transform="scale(1 1) rotate(0) translate(4 188)">
<title>Cpl::Text::DString</title>
<!-- Node1 -->
<g id="Node000001" class="node">
<title>Node1</title>
<g id="a_Node000001"><a xlink:title="This concrete class implements a simple &quot;dynamic storage&quot; String Type.">
<polygon fill="#999999" stroke="#666666" points="105.5,-19 4.5,-19 4.5,0 105.5,0 105.5,-19"/>
<text text-anchor="middle" x="55" y="-7" font-family="Helvetica,sans-Serif" font-size="10.00">Cpl::Text::DString</text>
</a>
</g>
</g>
<!-- Node2 -->
<g id="Node000002" class="node">
<title>Node2</title>
<g id="a_Node000002"><a xlink:href="class_cpl_1_1_text_1_1_string__.html" target="_top" xlink:title="This partially concrete class implements the portions of the String Api that is independent of the in...">
<polygon fill="white" stroke="#666666" points="104,-74 6,-74 6,-55 104,-55 104,-74"/>
<text text-anchor="middle" x="55" y="-62" font-family="Helvetica,sans-Serif" font-size="10.00">Cpl::Text::String_</text>
</a>
</g>
</g>
<!-- Node2&#45;&gt;Node1 -->
<g id="edge1_Node000001_Node000002" class="edge">
<title>Node2&#45;&gt;Node1</title>
<g id="a_edge1_Node000001_Node000002"><a xlink:title=" ">
<path fill="none" stroke="#63b8ff" d="M55,-44.66C55,-35.93 55,-25.99 55,-19.09"/>
<polygon fill="#63b8ff" stroke="#63b8ff" points="51.5,-44.75 55,-54.75 58.5,-44.75 51.5,-44.75"/>
</a>
</g>
</g>
<!-- Node3 -->
<g id="Node000003" class="node">
<title>Node3</title>
<g id="a_Node000003"><a xlink:href="class_cpl_1_1_text_1_1_string.html" target="_top" xlink:title="This abstract class defines the operations that can be before on a NULL terminated string.">
<polygon fill="white" stroke="#666666" points="101.5,-129 8.5,-129 8.5,-110 101.5,-110 101.5,-129"/>
<text text-anchor="middle" x="55" y="-117" font-family="Helvetica,sans-Serif" font-size="10.00">Cpl::Text::String</text>
</a>
</g>
</g>
<!-- Node3&#45;&gt;Node2 -->
<g id="edge2_Node000002_Node000003" class="edge">
<title>Node3&#45;&gt;Node2</title>
<g id="a_edge2_Node000002_Node000003"><a xlink:title=" ">
<path fill="none" stroke="#63b8ff" d="M55,-99.66C55,-90.93 55,-80.99 55,-74.09"/>
<polygon fill="#63b8ff" stroke="#63b8ff" points="51.5,-99.75 55,-109.75 58.5,-99.75 51.5,-99.75"/>
</a>
</g>
</g>
<!-- Node4 -->
<g id="Node000004" class="node">
<title>Node4</title>
<g id="a_Node000004"><a xlink:href="class_cpl_1_1_container_1_1_key.html" target="_top" xlink:title="This abstract class defines the interface that a contained object must support if it has comparable k...">
<polygon fill="white" stroke="#666666" points="110,-184 0,-184 0,-165 110,-165 110,-184"/>
<text text-anchor="middle" x="55" y="-172" font-family="Helvetica,sans-Serif" font-size="10.00">Cpl::Container::Key</text>
</a>
</g>
</g>
<!-- Node4&#45;&gt;Node3 -->
<g id="edge3_Node000003_Node000004" class="edge">
<title>Node4&#45;&gt;Node3</title>
<g id="a_edge3_Node000003_Node000004"><a xlink:title=" ">
<path fill="none" stroke="#63b8ff" d="M55,-154.66C55,-145.93 55,-135.99 55,-129.09"/>
<polygon fill="#63b8ff" stroke="#63b8ff" points="51.5,-154.75 55,-164.75 58.5,-154.75 51.5,-154.75"/>
</a>
</g>
</g>
</g>
</svg>
