<?xml version="1.0" encoding="UTF-8" standalone="no"?>
<!DOCTYPE svg PUBLIC "-//W3C//DTD SVG 1.1//EN"
 "http://www.w3.org/Graphics/SVG/1.1/DTD/svg11.dtd">
<!-- Generated by graphviz version 2.43.0 (0)
 -->
<!-- Title: Cpl::Io::Tcp::AsyncListener::Client Pages: 1 -->
<svg width="291pt" height="328pt"
 viewBox="0.00 0.00 291.00 328.00" xmlns="http://www.w3.org/2000/svg" xmlns:xlink="http://www.w3.org/1999/xlink">
<g id="graph0" class="graph" transform="scale(1 1) rotate(0) translate(4 324)">
<title>Cpl::Io::Tcp::AsyncListener::Client</title>
<!-- Node1 -->
<g id="Node000001" class="node">
<title>Node1</title>
<g id="a_Node000001"><a xlink:title="This class defines the callback mechanism used for accepting incoming TCP connections.">
<polygon fill="#999999" stroke="#666666" points="239.5,-30 96.5,-30 96.5,0 239.5,0 239.5,-30"/>
<text text-anchor="start" x="104.5" y="-18" font-family="Helvetica,sans-Serif" font-size="10.00">Cpl::Io::Tcp::AsyncListener</text>
<text text-anchor="middle" x="168" y="-7" font-family="Helvetica,sans-Serif" font-size="10.00">::Client</text>
</a>
</g>
</g>
<!-- Node2 -->
<g id="Node000002" class="node">
<title>Node2</title>
<g id="a_Node000002"><a xlink:href="class_cpl_1_1_io_1_1_tcp_1_1_input_output.html" target="_top" xlink:title="This concrete class defines a platform independent implementation of an InputOutput stream used by th...">
<polygon fill="white" stroke="#666666" points="234.5,-86 101.5,-86 101.5,-67 234.5,-67 234.5,-86"/>
<text text-anchor="middle" x="168" y="-74" font-family="Helvetica,sans-Serif" font-size="10.00">Cpl::Io::Tcp::InputOutput</text>
</a>
</g>
</g>
<!-- Node2&#45;&gt;Node1 -->
<g id="edge1_Node000001_Node000002" class="edge">
<title>Node2&#45;&gt;Node1</title>
<g id="a_edge1_Node000001_Node000002"><a xlink:title=" ">
<path fill="none" stroke="#63b8ff" d="M168,-56.73C168,-48.09 168,-38 168,-30.02"/>
<polygon fill="#63b8ff" stroke="#63b8ff" points="164.5,-56.98 168,-66.98 171.5,-56.98 164.5,-56.98"/>
</a>
</g>
</g>
<!-- Node3 -->
<g id="Node000003" class="node">
<title>Node3</title>
<g id="a_Node000003"><a xlink:href="class_cpl_1_1_io_1_1_input_output.html" target="_top" xlink:title="This abstract class defines a interface for operating on an input&#45;output stream (example of a stream ...">
<polygon fill="white" stroke="#666666" points="160.5,-152 49.5,-152 49.5,-133 160.5,-133 160.5,-152"/>
<text text-anchor="middle" x="105" y="-140" font-family="Helvetica,sans-Serif" font-size="10.00">Cpl::Io::InputOutput</text>
</a>
</g>
</g>
<!-- Node3&#45;&gt;Node2 -->
<g id="edge2_Node000002_Node000003" class="edge">
<title>Node3&#45;&gt;Node2</title>
<g id="a_edge2_Node000002_Node000003"><a xlink:title=" ">
<path fill="none" stroke="#63b8ff" d="M120.77,-125.48C132.94,-113.12 149.31,-96.49 159.23,-86.41"/>
<polygon fill="#63b8ff" stroke="#63b8ff" points="118.02,-123.29 113.5,-132.87 123.01,-128.2 118.02,-123.29"/>
</a>
</g>
</g>
<!-- Node4 -->
<g id="Node000004" class="node">
<title>Node4</title>
<g id="a_Node000004"><a xlink:href="class_cpl_1_1_io_1_1_input.html" target="_top" xlink:title="This partially abstract class defines a interface for operating on an input stream (example of a stre...">
<polygon fill="white" stroke="#666666" points="95,-208 17,-208 17,-189 95,-189 95,-208"/>
<text text-anchor="middle" x="56" y="-196" font-family="Helvetica,sans-Serif" font-size="10.00">Cpl::Io::Input</text>
</a>
</g>
</g>
<!-- Node4&#45;&gt;Node3 -->
<g id="edge3_Node000003_Node000004" class="edge">
<title>Node4&#45;&gt;Node3</title>
<g id="a_edge3_Node000003_Node000004"><a xlink:title=" ">
<path fill="none" stroke="#63b8ff" d="M71.03,-180.93C79.62,-171.47 90.04,-159.98 97.06,-152.25"/>
<polygon fill="#63b8ff" stroke="#63b8ff" points="68.22,-178.83 64.09,-188.58 73.4,-183.53 68.22,-178.83"/>
</a>
</g>
</g>
<!-- Node5 -->
<g id="Node000005" class="node">
<title>Node5</title>
<g id="a_Node000005"><a xlink:href="class_cpl_1_1_io_1_1_close.html" target="_top" xlink:title="This abstract class defines a close operation that is intended to be used Input and Output streams/fi...">
<polygon fill="white" stroke="#666666" points="97,-264 17,-264 17,-245 97,-245 97,-264"/>
<text text-anchor="middle" x="57" y="-252" font-family="Helvetica,sans-Serif" font-size="10.00">Cpl::Io::Close</text>
</a>
</g>
</g>
<!-- Node5&#45;&gt;Node4 -->
<g id="edge4_Node000004_Node000005" class="edge">
<title>Node5&#45;&gt;Node4</title>
<g id="a_edge4_Node000004_Node000005"><a xlink:title=" ">
<path fill="none" stroke="#63b8ff" d="M56.64,-234.3C56.48,-225.41 56.29,-215.28 56.16,-208.25"/>
<polygon fill="#63b8ff" stroke="#63b8ff" points="53.15,-234.65 56.83,-244.58 60.15,-234.52 53.15,-234.65"/>
</a>
</g>
</g>
<!-- Node8 -->
<g id="Node000008" class="node">
<title>Node8</title>
<g id="a_Node000008"><a xlink:href="class_cpl_1_1_io_1_1_output.html" target="_top" xlink:title="This partially abstract class defines a interface for operating on an output stream (example of a str...">
<polygon fill="white" stroke="#666666" points="199,-208 113,-208 113,-189 199,-189 199,-208"/>
<text text-anchor="middle" x="156" y="-196" font-family="Helvetica,sans-Serif" font-size="10.00">Cpl::Io::Output</text>
</a>
</g>
</g>
<!-- Node5&#45;&gt;Node8 -->
<g id="edge8_Node000008_Node000005" class="edge">
<title>Node5&#45;&gt;Node8</title>
<g id="a_edge8_Node000008_Node000005"><a xlink:title=" ">
<path fill="none" stroke="#63b8ff" d="M81.84,-239.95C100.11,-229.98 124.42,-216.73 140.13,-208.15"/>
<polygon fill="#63b8ff" stroke="#63b8ff" points="80.01,-236.96 72.91,-244.82 83.36,-243.11 80.01,-236.96"/>
</a>
</g>
</g>
<!-- Node6 -->
<g id="Node000006" class="node">
<title>Node6</title>
<g id="a_Node000006"><a xlink:href="class_cpl_1_1_container_1_1_item.html" target="_top" xlink:title="This class is used by the Container classes to implement a various types of singly linked containers.">
<polygon fill="white" stroke="#666666" points="114,-320 0,-320 0,-301 114,-301 114,-320"/>
<text text-anchor="middle" x="57" y="-308" font-family="Helvetica,sans-Serif" font-size="10.00">Cpl::Container::Item</text>
</a>
</g>
</g>
<!-- Node6&#45;&gt;Node5 -->
<g id="edge5_Node000005_Node000006" class="edge">
<title>Node6&#45;&gt;Node5</title>
<g id="a_edge5_Node000005_Node000006"><a xlink:title=" ">
<path fill="none" stroke="#63b8ff" d="M57,-290.3C57,-281.41 57,-271.28 57,-264.25"/>
<polygon fill="#63b8ff" stroke="#63b8ff" points="53.5,-290.58 57,-300.58 60.5,-290.58 53.5,-290.58"/>
</a>
</g>
</g>
<!-- Node7 -->
<g id="Node000007" class="node">
<title>Node7</title>
<g id="a_Node000007"><a xlink:href="class_cpl_1_1_io_1_1_is_eos.html" target="_top" xlink:title="This abstract class defines a isEos() operation that is intended to be used Input and Output streams.">
<polygon fill="white" stroke="#666666" points="194.5,-264 115.5,-264 115.5,-245 194.5,-245 194.5,-264"/>
<text text-anchor="middle" x="155" y="-252" font-family="Helvetica,sans-Serif" font-size="10.00">Cpl::Io::IsEos</text>
</a>
</g>
</g>
<!-- Node7&#45;&gt;Node4 -->
<g id="edge6_Node000004_Node000007" class="edge">
<title>Node7&#45;&gt;Node4</title>
<g id="a_edge6_Node000004_Node000007"><a xlink:title=" ">
<path fill="none" stroke="#63b8ff" d="M130.16,-239.95C111.89,-229.98 87.58,-216.73 71.87,-208.15"/>
<polygon fill="#63b8ff" stroke="#63b8ff" points="128.64,-243.11 139.09,-244.82 131.99,-236.96 128.64,-243.11"/>
</a>
</g>
</g>
<!-- Node7&#45;&gt;Node8 -->
<g id="edge9_Node000008_Node000007" class="edge">
<title>Node7&#45;&gt;Node8</title>
<g id="a_edge9_Node000008_Node000007"><a xlink:title=" ">
<path fill="none" stroke="#63b8ff" d="M155.36,-234.3C155.52,-225.41 155.71,-215.28 155.84,-208.25"/>
<polygon fill="#63b8ff" stroke="#63b8ff" points="151.85,-234.52 155.17,-244.58 158.85,-234.65 151.85,-234.52"/>
</a>
</g>
</g>
<!-- Node8&#45;&gt;Node3 -->
<g id="edge7_Node000003_Node000008" class="edge">
<title>Node8&#45;&gt;Node3</title>
<g id="a_edge7_Node000003_Node000008"><a xlink:title=" ">
<path fill="none" stroke="#63b8ff" d="M140.62,-181.22C131.63,-171.7 120.64,-160.06 113.26,-152.25"/>
<polygon fill="#63b8ff" stroke="#63b8ff" points="138.17,-183.72 147.58,-188.58 143.26,-178.91 138.17,-183.72"/>
</a>
</g>
</g>
<!-- Node9 -->
<g id="Node000009" class="node">
<title>Node9</title>
<g id="a_Node000009"><a xlink:href="union_cpl_1_1_io_1_1_descriptor.html" target="_top" xlink:title="This union defines a &#39;IO descriptor&#39; in terms of a an integer and/or a void*.">
<polygon fill="white" stroke="#666666" points="283,-152 179,-152 179,-133 283,-133 283,-152"/>
<text text-anchor="middle" x="231" y="-140" font-family="Helvetica,sans-Serif" font-size="10.00">Cpl::Io::Descriptor</text>
</a>
</g>
</g>
<!-- Node9&#45;&gt;Node2 -->
<g id="edge10_Node000002_Node000009" class="edge">
<title>Node9&#45;&gt;Node2</title>
<g id="a_edge10_Node000002_Node000009"><a xlink:title=" ">
<path fill="none" stroke="#9a32cd" stroke-dasharray="5,2" d="M215.23,-125.48C203.06,-113.12 186.69,-96.49 176.77,-86.41"/>
<polygon fill="#9a32cd" stroke="#9a32cd" points="212.99,-128.2 222.5,-132.87 217.98,-123.29 212.99,-128.2"/>
</a>
</g>
<text text-anchor="middle" x="217" y="-107" font-family="Helvetica,sans-Serif" font-size="10.00" fill="grey"> m_fd</text>
</g>
</g>
</svg>
