<?xml version="1.0" encoding="UTF-8" standalone="no"?>
<!DOCTYPE svg PUBLIC "-//W3C//DTD SVG 1.1//EN"
 "http://www.w3.org/Graphics/SVG/1.1/DTD/svg11.dtd">
<!-- Generated by graphviz version 2.43.0 (0)
 -->
<!-- Title: Cpl::Io::LineWriter Pages: 1 -->
<svg width="273pt" height="223pt"
 viewBox="0.00 0.00 273.00 223.00" xmlns="http://www.w3.org/2000/svg" xmlns:xlink="http://www.w3.org/1999/xlink">
<g id="graph0" class="graph" transform="scale(1 1) rotate(0) translate(4 219)">
<title>Cpl::Io::LineWriter</title>
<!-- Node1 -->
<g id="Node000001" class="node">
<title>Node1</title>
<g id="a_Node000001"><a xlink:title="This concrete class implements a Line Writer stream using a previously opened Output stream.">
<polygon fill="#999999" stroke="#666666" points="129.5,-19 25.5,-19 25.5,0 129.5,0 129.5,-19"/>
<text text-anchor="middle" x="77.5" y="-7" font-family="Helvetica,sans-Serif" font-size="10.00">Cpl::Io::LineWriter</text>
</a>
</g>
</g>
<!-- Node2 -->
<g id="Node000002" class="node">
<title>Node2</title>
<g id="a_Node000002"><a xlink:href="class_cpl_1_1_io_1_1_line_writer_api.html" target="_top" xlink:title="This abstract class defines a interface for a stream line writer.">
<polygon fill="white" stroke="#666666" points="119,-122 0,-122 0,-103 119,-103 119,-122"/>
<text text-anchor="middle" x="59.5" y="-110" font-family="Helvetica,sans-Serif" font-size="10.00">Cpl::Io::LineWriterApi</text>
</a>
</g>
</g>
<!-- Node2&#45;&gt;Node1 -->
<g id="edge1_Node000001_Node000002" class="edge">
<title>Node2&#45;&gt;Node1</title>
<g id="a_edge1_Node000001_Node000002"><a xlink:title=" ">
<path fill="none" stroke="#63b8ff" d="M62.83,-92.81C66.75,-70.84 73.08,-35.32 75.97,-19.09"/>
<polygon fill="#63b8ff" stroke="#63b8ff" points="59.34,-92.43 61.03,-102.89 66.23,-93.66 59.34,-92.43"/>
</a>
</g>
</g>
<!-- Node3 -->
<g id="Node000003" class="node">
<title>Node3</title>
<g id="a_Node000003"><a xlink:href="class_cpl_1_1_container_1_1_item.html" target="_top" xlink:title="This class is used by the Container classes to implement a various types of singly linked containers.">
<polygon fill="white" stroke="#666666" points="128.5,-215 14.5,-215 14.5,-196 128.5,-196 128.5,-215"/>
<text text-anchor="middle" x="71.5" y="-203" font-family="Helvetica,sans-Serif" font-size="10.00">Cpl::Container::Item</text>
</a>
</g>
</g>
<!-- Node3&#45;&gt;Node2 -->
<g id="edge2_Node000002_Node000003" class="edge">
<title>Node3&#45;&gt;Node2</title>
<g id="a_edge2_Node000002_Node000003"><a xlink:title=" ">
<path fill="none" stroke="#63b8ff" d="M69.01,-185.64C66.44,-166.13 62.54,-136.53 60.63,-122.07"/>
<polygon fill="#63b8ff" stroke="#63b8ff" points="65.57,-186.32 70.35,-195.77 72.51,-185.4 65.57,-186.32"/>
</a>
</g>
</g>
<!-- Node5 -->
<g id="Node000005" class="node">
<title>Node5</title>
<g id="a_Node000005"><a xlink:href="class_cpl_1_1_io_1_1_close.html" target="_top" xlink:title="This abstract class defines a close operation that is intended to be used Input and Output streams/fi...">
<polygon fill="white" stroke="#666666" points="167.5,-159 87.5,-159 87.5,-140 167.5,-140 167.5,-159"/>
<text text-anchor="middle" x="127.5" y="-147" font-family="Helvetica,sans-Serif" font-size="10.00">Cpl::Io::Close</text>
</a>
</g>
</g>
<!-- Node3&#45;&gt;Node5 -->
<g id="edge5_Node000005_Node000003" class="edge">
<title>Node3&#45;&gt;Node5</title>
<g id="a_edge5_Node000005_Node000003"><a xlink:title=" ">
<path fill="none" stroke="#63b8ff" d="M87.83,-188.75C97.76,-179.17 110.09,-167.29 118.34,-159.33"/>
<polygon fill="#63b8ff" stroke="#63b8ff" points="85.27,-186.36 80.5,-195.82 90.13,-191.4 85.27,-186.36"/>
</a>
</g>
</g>
<!-- Node4 -->
<g id="Node000004" class="node">
<title>Node4</title>
<g id="a_Node000004"><a xlink:href="class_cpl_1_1_io_1_1_output.html" target="_top" xlink:title="This partially abstract class defines a interface for operating on an output stream (example of a str...">
<polygon fill="white" stroke="#666666" points="177.5,-85 91.5,-85 91.5,-66 177.5,-66 177.5,-85"/>
<text text-anchor="middle" x="134.5" y="-73" font-family="Helvetica,sans-Serif" font-size="10.00">Cpl::Io::Output</text>
</a>
</g>
</g>
<!-- Node4&#45;&gt;Node1 -->
<g id="edge3_Node000001_Node000004" class="edge">
<title>Node4&#45;&gt;Node1</title>
<g id="a_edge3_Node000001_Node000004"><a xlink:title=" ">
<path fill="none" stroke="#9a32cd" stroke-dasharray="5,2" d="M119.91,-58.12C108.94,-45.81 94.33,-29.39 85.43,-19.41"/>
<polygon fill="#9a32cd" stroke="#9a32cd" points="117.55,-60.73 126.81,-65.87 122.78,-56.07 117.55,-60.73"/>
</a>
</g>
<text text-anchor="middle" x="136" y="-40" font-family="Helvetica,sans-Serif" font-size="10.00" fill="grey"> m_stream</text>
</g>
<!-- Node5&#45;&gt;Node4 -->
<g id="edge4_Node000004_Node000005" class="edge">
<title>Node5&#45;&gt;Node4</title>
<g id="a_edge4_Node000004_Node000005"><a xlink:title=" ">
<path fill="none" stroke="#63b8ff" d="M129.33,-129.66C130.74,-115.21 132.61,-95.96 133.67,-85.03"/>
<polygon fill="#63b8ff" stroke="#63b8ff" points="125.81,-129.67 128.33,-139.96 132.78,-130.34 125.81,-129.67"/>
</a>
</g>
</g>
<!-- Node6 -->
<g id="Node000006" class="node">
<title>Node6</title>
<g id="a_Node000006"><a xlink:href="class_cpl_1_1_io_1_1_is_eos.html" target="_top" xlink:title="This abstract class defines a isEos() operation that is intended to be used Input and Output streams.">
<polygon fill="white" stroke="#666666" points="265,-159 186,-159 186,-140 265,-140 265,-159"/>
<text text-anchor="middle" x="225.5" y="-147" font-family="Helvetica,sans-Serif" font-size="10.00">Cpl::Io::IsEos</text>
</a>
</g>
</g>
<!-- Node6&#45;&gt;Node4 -->
<g id="edge6_Node000004_Node000006" class="edge">
<title>Node6&#45;&gt;Node4</title>
<g id="a_edge6_Node000004_Node000006"><a xlink:title=" ">
<path fill="none" stroke="#63b8ff" d="M206.66,-133.59C188.1,-118.91 160.39,-96.99 145.28,-85.03"/>
<polygon fill="#63b8ff" stroke="#63b8ff" points="204.69,-136.5 214.7,-139.96 209.03,-131.01 204.69,-136.5"/>
</a>
</g>
</g>
</g>
</svg>
