<?xml version="1.0" encoding="UTF-8" standalone="no"?>
<!DOCTYPE svg PUBLIC "-//W3C//DTD SVG 1.1//EN"
 "http://www.w3.org/Graphics/SVG/1.1/DTD/svg11.dtd">
<!-- Generated by graphviz version 2.43.0 (0)
 -->
<!-- Title: Cpl::Itc::PeriodicScheduler Pages: 1 -->
<svg width="1559pt" height="464pt"
 viewBox="0.00 0.00 1559.00 463.89" xmlns="http://www.w3.org/2000/svg" xmlns:xlink="http://www.w3.org/1999/xlink">
<g id="graph0" class="graph" transform="scale(1 1) rotate(0) translate(4 459.89)">
<title>Cpl::Itc::PeriodicScheduler</title>
<!-- Node1 -->
<g id="Node000001" class="node">
<title>Node1</title>
<g id="a_Node000001"><a xlink:title="This class extends the Cpl::Itc::MailboxServer class to add periodic scheduling to an event based &#39;th...">
<polygon fill="#999999" stroke="#666666" points="1551,-117.89 1408,-117.89 1408,-98.89 1551,-98.89 1551,-117.89"/>
<text text-anchor="middle" x="1479.5" y="-105.89" font-family="Helvetica,sans-Serif" font-size="10.00">Cpl::Itc::PeriodicScheduler</text>
</a>
</g>
</g>
<!-- Node2 -->
<g id="Node000002" class="node">
<title>Node2</title>
<g id="a_Node000002"><a xlink:href="class_cpl_1_1_itc_1_1_mailbox_server.html" target="_top" xlink:title="This class collects the common functions of a generic server providing a mailbox and Event loop.">
<polygon fill="white" stroke="#666666" points="1350.5,-250.89 1223.5,-250.89 1223.5,-231.89 1350.5,-231.89 1350.5,-250.89"/>
<text text-anchor="middle" x="1287" y="-238.89" font-family="Helvetica,sans-Serif" font-size="10.00">Cpl::Itc::MailboxServer</text>
</a>
</g>
</g>
<!-- Node2&#45;&gt;Node1 -->
<g id="edge1_Node000001_Node000002" class="edge">
<title>Node2&#45;&gt;Node1</title>
<g id="a_edge1_Node000001_Node000002"><a xlink:title=" ">
<path fill="none" stroke="#63b8ff" d="M1309.91,-226.1C1349.51,-198.45 1431.94,-140.9 1464.67,-118.05"/>
<polygon fill="#63b8ff" stroke="#63b8ff" points="1307.9,-223.24 1301.7,-231.83 1311.9,-228.97 1307.9,-223.24"/>
</a>
</g>
</g>
<!-- Node3 -->
<g id="Node000003" class="node">
<title>Node3</title>
<g id="a_Node000003"><a xlink:href="class_cpl_1_1_itc_1_1_mailbox.html" target="_top" xlink:title="This mailbox class implements an Inter Thread Communications message queue.">
<polygon fill="white" stroke="#666666" points="762.5,-413.89 667.5,-413.89 667.5,-394.89 762.5,-394.89 762.5,-413.89"/>
<text text-anchor="middle" x="715" y="-401.89" font-family="Helvetica,sans-Serif" font-size="10.00">Cpl::Itc::Mailbox</text>
</a>
</g>
</g>
<!-- Node3&#45;&gt;Node2 -->
<g id="edge2_Node000002_Node000003" class="edge">
<title>Node3&#45;&gt;Node2</title>
<g id="a_edge2_Node000002_Node000003"><a xlink:title=" ">
<path fill="none" stroke="#63b8ff" d="M759.25,-392.03C868.63,-360.75 1154.56,-278.98 1252.51,-250.97"/>
<polygon fill="#63b8ff" stroke="#63b8ff" points="758.18,-388.69 749.53,-394.81 760.11,-395.42 758.18,-388.69"/>
</a>
</g>
</g>
<!-- Node4 -->
<g id="Node000004" class="node">
<title>Node4</title>
<g id="a_Node000004"><a xlink:href="class_cpl_1_1_itc_1_1_post_api.html" target="_top" xlink:title="This abstract class represents the interface used to send messages to a mailbox.">
<polygon fill="white" stroke="#666666" points="469,-455.89 376,-455.89 376,-436.89 469,-436.89 469,-455.89"/>
<text text-anchor="middle" x="422.5" y="-443.89" font-family="Helvetica,sans-Serif" font-size="10.00">Cpl::Itc::PostApi</text>
</a>
</g>
</g>
<!-- Node4&#45;&gt;Node3 -->
<g id="edge3_Node000003_Node000004" class="edge">
<title>Node4&#45;&gt;Node3</title>
<g id="a_edge3_Node000003_Node000004"><a xlink:title=" ">
<path fill="none" stroke="#63b8ff" d="M479.39,-438.31C533.91,-430.43 615.9,-418.58 667.11,-411.17"/>
<polygon fill="#63b8ff" stroke="#63b8ff" points="478.61,-434.89 469.21,-439.79 479.61,-441.82 478.61,-434.89"/>
</a>
</g>
</g>
<!-- Node5 -->
<g id="Node000005" class="node">
<title>Node5</title>
<g id="a_Node000005"><a xlink:href="class_cpl_1_1_container_1_1_s_list.html" target="_top" xlink:title=" ">
<polygon fill="white" stroke="#666666" points="480,-418.39 365,-418.39 365,-388.39 480,-388.39 480,-418.39"/>
<text text-anchor="start" x="373" y="-406.39" font-family="Helvetica,sans-Serif" font-size="10.00">Cpl::Container::SList</text>
<text text-anchor="middle" x="422.5" y="-395.39" font-family="Helvetica,sans-Serif" font-size="10.00">&lt; Message &gt;</text>
</a>
</g>
</g>
<!-- Node5&#45;&gt;Node3 -->
<g id="edge4_Node000003_Node000005" class="edge">
<title>Node5&#45;&gt;Node3</title>
<g id="a_edge4_Node000003_Node000005"><a xlink:title=" ">
<path fill="none" stroke="#63b8ff" d="M490.41,-403.63C544.64,-403.81 619.64,-404.07 667.49,-404.23"/>
<polygon fill="#63b8ff" stroke="#63b8ff" points="490.21,-400.12 480.2,-403.59 490.19,-407.12 490.21,-400.12"/>
</a>
</g>
</g>
<!-- Node6 -->
<g id="Node000006" class="node">
<title>Node6</title>
<g id="a_Node000006"><a xlink:href="class_cpl_1_1_container_1_1_s_list.html" target="_top" xlink:title="This template class implements a singly linked list which maintains the ordering imposed on it by the...">
<polygon fill="white" stroke="#666666" points="115.5,-418.39 0.5,-418.39 0.5,-388.39 115.5,-388.39 115.5,-418.39"/>
<text text-anchor="start" x="8.5" y="-406.39" font-family="Helvetica,sans-Serif" font-size="10.00">Cpl::Container::SList</text>
<text text-anchor="middle" x="58" y="-395.39" font-family="Helvetica,sans-Serif" font-size="10.00">&lt; ITEM &gt;</text>
</a>
</g>
</g>
<!-- Node6&#45;&gt;Node5 -->
<g id="edge5_Node000005_Node000006" class="edge">
<title>Node6&#45;&gt;Node5</title>
<g id="a_edge5_Node000005_Node000006"><a xlink:title=" ">
<path fill="none" stroke="orange" stroke-dasharray="5,2" d="M125.92,-403.39C194.6,-403.39 300.32,-403.39 364.96,-403.39"/>
<polygon fill="orange" stroke="orange" points="125.64,-399.89 115.64,-403.39 125.64,-406.89 125.64,-399.89"/>
</a>
</g>
<text text-anchor="middle" x="222" y="-406.39" font-family="Helvetica,sans-Serif" font-size="10.00" fill="grey"> &lt; Message &gt;</text>
</g>
<!-- Node7 -->
<g id="Node000007" class="node">
<title>Node7</title>
<g id="a_Node000007"><a xlink:href="class_cpl_1_1_system_1_1_signable.html" target="_top" xlink:title="This abstract class defines the interface by which a client can cause an object that is waiting&#45;on&#45;a&#45;...">
<polygon fill="white" stroke="#666666" points="484,-337.89 361,-337.89 361,-318.89 484,-318.89 484,-337.89"/>
<text text-anchor="middle" x="422.5" y="-325.89" font-family="Helvetica,sans-Serif" font-size="10.00">Cpl::System::Signable</text>
</a>
</g>
</g>
<!-- Node7&#45;&gt;Node3 -->
<g id="edge6_Node000003_Node000007" class="edge">
<title>Node7&#45;&gt;Node3</title>
<g id="a_edge6_Node000003_Node000007"><a xlink:title=" ">
<path fill="none" stroke="#9a32cd" stroke-dasharray="5,2" d="M460.53,-341.3C482.11,-348.58 509.93,-357.56 535,-364.39 579.55,-376.54 631.06,-387.76 667.35,-395.2"/>
<polygon fill="#9a32cd" stroke="#9a32cd" points="461.38,-337.89 450.78,-337.98 459.12,-344.52 461.38,-337.89"/>
</a>
</g>
<text text-anchor="middle" x="578" y="-387.39" font-family="Helvetica,sans-Serif" font-size="10.00" fill="grey"> m_eventLoop</text>
</g>
<!-- Node9 -->
<g id="Node000009" class="node">
<title>Node9</title>
<g id="a_Node000009"><a xlink:href="class_cpl_1_1_system_1_1_event_loop.html" target="_top" xlink:title="This concrete class is a Runnable object that provides a event driven execution model for a thread.">
<polygon fill="white" stroke="#666666" points="1062,-250.89 930,-250.89 930,-231.89 1062,-231.89 1062,-250.89"/>
<text text-anchor="middle" x="996" y="-238.89" font-family="Helvetica,sans-Serif" font-size="10.00">Cpl::System::EventLoop</text>
</a>
</g>
</g>
<!-- Node7&#45;&gt;Node9 -->
<g id="edge11_Node000009_Node000007" class="edge">
<title>Node7&#45;&gt;Node9</title>
<g id="a_edge11_Node000009_Node000007"><a xlink:title=" ">
<path fill="none" stroke="#63b8ff" d="M494.33,-337.03C568.75,-344.36 688.93,-351.26 791,-334.39 867.8,-321.7 949.11,-272.08 981.01,-250.98"/>
<polygon fill="#63b8ff" stroke="#63b8ff" points="494.45,-333.52 484.14,-335.99 493.74,-340.49 494.45,-333.52"/>
</a>
</g>
</g>
<!-- Node16 -->
<g id="Node000016" class="node">
<title>Node16</title>
<g id="a_Node000016"><a xlink:href="class_cpl_1_1_system_1_1_thread.html" target="_top" xlink:title="This abstract class defines the operations that can be performed on a thread.">
<polygon fill="white" stroke="#666666" points="772.5,-250.89 657.5,-250.89 657.5,-231.89 772.5,-231.89 772.5,-250.89"/>
<text text-anchor="middle" x="715" y="-238.89" font-family="Helvetica,sans-Serif" font-size="10.00">Cpl::System::Thread</text>
</a>
</g>
</g>
<!-- Node7&#45;&gt;Node16 -->
<g id="edge17_Node000016_Node000007" class="edge">
<title>Node7&#45;&gt;Node16</title>
<g id="a_edge17_Node000016_Node000007"><a xlink:title=" ">
<path fill="none" stroke="#63b8ff" d="M461.67,-315.62C504.59,-301.42 576.46,-278.17 639,-260.39 650.5,-257.13 663.07,-253.83 674.57,-250.93"/>
<polygon fill="#63b8ff" stroke="#63b8ff" points="460.32,-312.38 451.93,-318.85 462.52,-319.02 460.32,-312.38"/>
</a>
</g>
</g>
<!-- Node18 -->
<g id="Node000018" class="node">
<title>Node18</title>
<g id="a_Node000018"><a xlink:href="class_cpl_1_1_system_1_1_semaphore.html" target="_top" xlink:title="This semaphore class defines the interface for a Counting Semaphore.">
<polygon fill="white" stroke="#666666" points="783.5,-213.89 646.5,-213.89 646.5,-194.89 783.5,-194.89 783.5,-213.89"/>
<text text-anchor="middle" x="715" y="-201.89" font-family="Helvetica,sans-Serif" font-size="10.00">Cpl::System::Semaphore</text>
</a>
</g>
</g>
<!-- Node7&#45;&gt;Node18 -->
<g id="edge20_Node000018_Node000007" class="edge">
<title>Node7&#45;&gt;Node18</title>
<g id="a_edge20_Node000018_Node000007"><a xlink:title=" ">
<path fill="none" stroke="#63b8ff" d="M446.5,-313.16C468.59,-298.91 503.22,-277.61 535,-262.39 579.52,-241.07 591.89,-238.15 639,-223.39 649.9,-219.98 661.82,-216.74 672.9,-213.94"/>
<polygon fill="#63b8ff" stroke="#63b8ff" points="444.31,-310.41 437.84,-318.79 448.13,-316.27 444.31,-310.41"/>
</a>
</g>
</g>
<!-- Node8 -->
<g id="Node000008" class="node">
<title>Node8</title>
<g id="a_Node000008"><a xlink:href="class_cpl_1_1_container_1_1_item.html" target="_top" xlink:title="This class is used by the Container classes to implement a various types of singly linked containers.">
<polygon fill="white" stroke="#666666" points="115,-337.89 1,-337.89 1,-318.89 115,-318.89 115,-337.89"/>
<text text-anchor="middle" x="58" y="-325.89" font-family="Helvetica,sans-Serif" font-size="10.00">Cpl::Container::Item</text>
</a>
</g>
</g>
<!-- Node8&#45;&gt;Node7 -->
<g id="edge7_Node000007_Node000008" class="edge">
<title>Node8&#45;&gt;Node7</title>
<g id="a_edge7_Node000007_Node000008"><a xlink:title=" ">
<path fill="none" stroke="#63b8ff" d="M125.31,-328.39C192.56,-328.39 295.76,-328.39 360.89,-328.39"/>
<polygon fill="#63b8ff" stroke="#63b8ff" points="125.24,-324.89 115.24,-328.39 125.24,-331.89 125.24,-324.89"/>
</a>
</g>
</g>
<!-- Node9&#45;&gt;Node2 -->
<g id="edge8_Node000002_Node000009" class="edge">
<title>Node9&#45;&gt;Node2</title>
<g id="a_edge8_Node000002_Node000009"><a xlink:title=" ">
<path fill="none" stroke="#63b8ff" d="M1072.35,-241.39C1119.35,-241.39 1179.13,-241.39 1223.5,-241.39"/>
<polygon fill="#63b8ff" stroke="#63b8ff" points="1072.22,-237.89 1062.22,-241.39 1072.22,-244.89 1072.22,-237.89"/>
</a>
</g>
</g>
<!-- Node10 -->
<g id="Node000010" class="node">
<title>Node10</title>
<g id="a_Node000010"><a xlink:href="class_cpl_1_1_system_1_1_runnable.html" target="_top" xlink:title="This is an abstract class defines the interface for an object that is &quot;executed&quot; when a Thread object...">
<polygon fill="white" stroke="#666666" points="778.5,-324.89 651.5,-324.89 651.5,-305.89 778.5,-305.89 778.5,-324.89"/>
<text text-anchor="middle" x="715" y="-312.89" font-family="Helvetica,sans-Serif" font-size="10.00">Cpl::System::Runnable</text>
</a>
</g>
</g>
<!-- Node10&#45;&gt;Node9 -->
<g id="edge9_Node000009_Node000010" class="edge">
<title>Node10&#45;&gt;Node9</title>
<g id="a_edge9_Node000009_Node000010"><a xlink:title=" ">
<path fill="none" stroke="#63b8ff" d="M774.71,-303.8C809.59,-296.52 854.58,-286.43 894,-275.39 919.83,-268.16 948.81,-258.22 969.07,-250.95"/>
<polygon fill="#63b8ff" stroke="#63b8ff" points="773.77,-300.42 764.69,-305.87 775.19,-307.27 773.77,-300.42"/>
</a>
</g>
</g>
<!-- Node11 -->
<g id="Node000011" class="node">
<title>Node11</title>
<g id="a_Node000011"><a xlink:href="class_cpl_1_1_system_1_1_event_flag.html" target="_top" xlink:title="This abstract class defines the interface to generated a &#39;Event Flag&#39;.">
<polygon fill="white" stroke="#666666" points="780,-287.89 650,-287.89 650,-268.89 780,-268.89 780,-287.89"/>
<text text-anchor="middle" x="715" y="-275.89" font-family="Helvetica,sans-Serif" font-size="10.00">Cpl::System::EventFlag</text>
</a>
</g>
</g>
<!-- Node11&#45;&gt;Node9 -->
<g id="edge10_Node000009_Node000011" class="edge">
<title>Node11&#45;&gt;Node9</title>
<g id="a_edge10_Node000009_Node000011"><a xlink:title=" ">
<path fill="none" stroke="#63b8ff" d="M790.46,-269.6C822.37,-265.73 860.03,-261.02 894,-256.39 906.47,-254.7 919.79,-252.79 932.54,-250.92"/>
<polygon fill="#63b8ff" stroke="#63b8ff" points="789.82,-266.16 780.31,-270.83 790.66,-273.1 789.82,-266.16"/>
</a>
</g>
</g>
<!-- Node12 -->
<g id="Node000012" class="node">
<title>Node12</title>
<g id="a_Node000012"><a xlink:href="class_cpl_1_1_system_1_1_timer_manager.html" target="_top" xlink:title="This mostly concrete class implements manages a list of Software Timers.">
<polygon fill="white" stroke="#666666" points="791,-127.89 639,-127.89 639,-108.89 791,-108.89 791,-127.89"/>
<text text-anchor="middle" x="715" y="-115.89" font-family="Helvetica,sans-Serif" font-size="10.00">Cpl::System::TimerManager</text>
</a>
</g>
</g>
<!-- Node12&#45;&gt;Node9 -->
<g id="edge12_Node000009_Node000012" class="edge">
<title>Node12&#45;&gt;Node9</title>
<g id="a_edge12_Node000009_Node000012"><a xlink:title=" ">
<path fill="none" stroke="#63b8ff" d="M766.56,-130.49C774.77,-132.66 783.15,-135 791,-137.39 837.52,-151.61 850.53,-152.57 894,-174.39 927.85,-191.39 964.03,-217.61 982.53,-231.68"/>
<polygon fill="#63b8ff" stroke="#63b8ff" points="767.24,-127.05 756.68,-127.94 765.49,-133.83 767.24,-127.05"/>
</a>
</g>
</g>
<!-- Node13 -->
<g id="Node000013" class="node">
<title>Node13</title>
<g id="a_Node000013"><a xlink:href="class_cpl_1_1_system_1_1_counter_source__.html" target="_top" xlink:title="This abstract class defines the interface for registering for an Counter object with the Timer Manage...">
<polygon fill="white" stroke="#666666" points="501.5,-147.89 343.5,-147.89 343.5,-128.89 501.5,-128.89 501.5,-147.89"/>
<text text-anchor="middle" x="422.5" y="-135.89" font-family="Helvetica,sans-Serif" font-size="10.00">Cpl::System::CounterSource_</text>
</a>
</g>
</g>
<!-- Node13&#45;&gt;Node12 -->
<g id="edge13_Node000012_Node000013" class="edge">
<title>Node13&#45;&gt;Node12</title>
<g id="a_edge13_Node000012_Node000013"><a xlink:title=" ">
<path fill="none" stroke="#63b8ff" d="M511.87,-132.31C552.36,-129.52 599.86,-126.25 638.64,-123.58"/>
<polygon fill="#63b8ff" stroke="#63b8ff" points="511.47,-128.83 501.73,-133.01 511.95,-135.81 511.47,-128.83"/>
</a>
</g>
</g>
<!-- Node14 -->
<g id="Node000014" class="node">
<title>Node14</title>
<g id="a_Node000014"><a xlink:href="class_cpl_1_1_container_1_1_d_list.html" target="_top" xlink:title=" ">
<polygon fill="white" stroke="#666666" points="517,-110.39 328,-110.39 328,-80.39 517,-80.39 517,-110.39"/>
<text text-anchor="start" x="336" y="-98.39" font-family="Helvetica,sans-Serif" font-size="10.00">Cpl::Container::DList</text>
<text text-anchor="middle" x="422.5" y="-87.39" font-family="Helvetica,sans-Serif" font-size="10.00">&lt; Cpl::System::CounterCallback_ &gt;</text>
</a>
</g>
</g>
<!-- Node14&#45;&gt;Node12 -->
<g id="edge14_Node000012_Node000014" class="edge">
<title>Node14&#45;&gt;Node12</title>
<g id="a_edge14_Node000012_Node000014"><a xlink:title=" ">
<path fill="none" stroke="#9a32cd" stroke-dasharray="5,2" d="M527.33,-93.15C557.61,-93.52 590.7,-94.94 621,-98.39 639.87,-100.55 660.55,-104.8 677.61,-108.83"/>
<polygon fill="#9a32cd" stroke="#9a32cd" points="527.21,-89.65 517.18,-93.06 527.14,-96.65 527.21,-89.65"/>
</a>
</g>
<text text-anchor="middle" x="578" y="-112.39" font-family="Helvetica,sans-Serif" font-size="10.00" fill="grey"> m_counters</text>
<text text-anchor="middle" x="578" y="-101.39" font-family="Helvetica,sans-Serif" font-size="10.00" fill="grey">m_pendingAttach</text>
</g>
<!-- Node15 -->
<g id="Node000015" class="node">
<title>Node15</title>
<g id="a_Node000015"><a xlink:href="class_cpl_1_1_container_1_1_d_list.html" target="_top" xlink:title="This template class implements a Doubly linked list which maintains the ordering imposed on it by the...">
<polygon fill="white" stroke="#666666" points="116,-110.39 0,-110.39 0,-80.39 116,-80.39 116,-110.39"/>
<text text-anchor="start" x="8" y="-98.39" font-family="Helvetica,sans-Serif" font-size="10.00">Cpl::Container::DList</text>
<text text-anchor="middle" x="58" y="-87.39" font-family="Helvetica,sans-Serif" font-size="10.00">&lt; ITEM &gt;</text>
</a>
</g>
</g>
<!-- Node15&#45;&gt;Node14 -->
<g id="edge15_Node000014_Node000015" class="edge">
<title>Node15&#45;&gt;Node14</title>
<g id="a_edge15_Node000014_Node000015"><a xlink:title=" ">
<path fill="none" stroke="orange" stroke-dasharray="5,2" d="M126.32,-95.39C183,-95.39 264.69,-95.39 327.77,-95.39"/>
<polygon fill="orange" stroke="orange" points="126.04,-91.89 116.04,-95.39 126.04,-98.89 126.04,-91.89"/>
</a>
</g>
<text text-anchor="middle" x="222" y="-98.39" font-family="Helvetica,sans-Serif" font-size="10.00" fill="grey"> &lt; Cpl::System::CounterCallback_ &gt;</text>
</g>
<!-- Node16&#45;&gt;Node9 -->
<g id="edge16_Node000009_Node000016" class="edge">
<title>Node16&#45;&gt;Node9</title>
<g id="a_edge16_Node000009_Node000016"><a xlink:title=" ">
<path fill="none" stroke="#9a32cd" stroke-dasharray="5,2" d="M782.95,-241.39C827.53,-241.39 885.8,-241.39 929.97,-241.39"/>
<polygon fill="#9a32cd" stroke="#9a32cd" points="782.8,-237.89 772.8,-241.39 782.8,-244.89 782.8,-237.89"/>
</a>
</g>
<text text-anchor="middle" x="851.5" y="-244.39" font-family="Helvetica,sans-Serif" font-size="10.00" fill="grey"> m_myThreadPtr</text>
</g>
<!-- Node17 -->
<g id="Node000017" class="node">
<title>Node17</title>
<g id="a_Node000017"><a xlink:href="class_cpl_1_1_system_1_1_shared_event_handler_api.html" target="_top" xlink:title="This abstract class defines the interface for a Shared Event Handler.">
<polygon fill="white" stroke="#666666" points="786.5,-176.39 643.5,-176.39 643.5,-146.39 786.5,-146.39 786.5,-176.39"/>
<text text-anchor="start" x="651.5" y="-164.39" font-family="Helvetica,sans-Serif" font-size="10.00">Cpl::System::SharedEvent</text>
<text text-anchor="middle" x="715" y="-153.39" font-family="Helvetica,sans-Serif" font-size="10.00">HandlerApi</text>
</a>
</g>
</g>
<!-- Node17&#45;&gt;Node9 -->
<g id="edge18_Node000009_Node000017" class="edge">
<title>Node17&#45;&gt;Node9</title>
<g id="a_edge18_Node000009_Node000017"><a xlink:title=" ">
<path fill="none" stroke="#9a32cd" stroke-dasharray="5,2" d="M796.71,-176.05C827.46,-182.42 862.64,-190.67 894,-200.39 922.56,-209.25 954.34,-222.79 974.48,-231.86"/>
<polygon fill="#9a32cd" stroke="#9a32cd" points="797.39,-172.62 786.89,-174.05 795.99,-179.48 797.39,-172.62"/>
</a>
</g>
<text text-anchor="middle" x="851.5" y="-203.39" font-family="Helvetica,sans-Serif" font-size="10.00" fill="grey"> m_eventHandler</text>
</g>
<!-- Node18&#45;&gt;Node9 -->
<g id="edge19_Node000009_Node000018" class="edge">
<title>Node18&#45;&gt;Node9</title>
<g id="a_edge19_Node000009_Node000018"><a xlink:title=" ">
<path fill="none" stroke="#9a32cd" stroke-dasharray="5,2" d="M793.61,-213.57C824.83,-217.37 861.15,-221.93 894,-226.39 906.47,-228.09 919.79,-230 932.54,-231.87"/>
<polygon fill="#9a32cd" stroke="#9a32cd" points="794.02,-210.09 783.67,-212.36 793.18,-217.04 794.02,-210.09"/>
</a>
</g>
<text text-anchor="middle" x="851.5" y="-229.39" font-family="Helvetica,sans-Serif" font-size="10.00" fill="grey"> m_sema</text>
</g>
<!-- Node19 -->
<g id="Node000019" class="node">
<title>Node19</title>
<g id="a_Node000019"><a xlink:href="class_cpl_1_1_system_1_1_periodic_scheduler.html" target="_top" xlink:title="This concrete class is a &#39;policy&#39; object that is used to add polled based, cooperative monotonic sche...">
<polygon fill="white" stroke="#666666" points="1371,-72.89 1203,-72.89 1203,-53.89 1371,-53.89 1371,-72.89"/>
<text text-anchor="middle" x="1287" y="-60.89" font-family="Helvetica,sans-Serif" font-size="10.00">Cpl::System::PeriodicScheduler</text>
</a>
</g>
</g>
<!-- Node19&#45;&gt;Node1 -->
<g id="edge21_Node000001_Node000019" class="edge">
<title>Node19&#45;&gt;Node1</title>
<g id="a_edge21_Node000001_Node000019"><a xlink:title=" ">
<path fill="none" stroke="#63b8ff" d="M1338.21,-75.26C1369.42,-82.63 1409,-91.98 1438.16,-98.87"/>
<polygon fill="#63b8ff" stroke="#63b8ff" points="1338.94,-71.83 1328.4,-72.94 1337.33,-78.64 1338.94,-71.83"/>
</a>
</g>
</g>
<!-- Node20 -->
<g id="Node000020" class="node">
<title>Node20</title>
<g id="a_Node000020"><a xlink:href="struct_cpl_1_1_system_1_1_periodic_scheduler_1_1_interval___t.html" target="_top" xlink:title="Defines an interval.">
<polygon fill="white" stroke="#666666" points="1080,-79.39 912,-79.39 912,-49.39 1080,-49.39 1080,-79.39"/>
<text text-anchor="start" x="920" y="-67.39" font-family="Helvetica,sans-Serif" font-size="10.00">Cpl::System::PeriodicScheduler</text>
<text text-anchor="middle" x="996" y="-56.39" font-family="Helvetica,sans-Serif" font-size="10.00">::Interval_T</text>
</a>
</g>
</g>
<!-- Node20&#45;&gt;Node19 -->
<g id="edge22_Node000019_Node000020" class="edge">
<title>Node20&#45;&gt;Node19</title>
<g id="a_edge22_Node000019_Node000020"><a xlink:title=" ">
<path fill="none" stroke="#9a32cd" stroke-dasharray="5,2" d="M1090.28,-64.07C1126.52,-63.95 1167.68,-63.8 1202.88,-63.68"/>
<polygon fill="#9a32cd" stroke="#9a32cd" points="1090.19,-60.57 1080.2,-64.11 1090.22,-67.57 1090.19,-60.57"/>
</a>
</g>
<text text-anchor="middle" x="1141.5" y="-77.39" font-family="Helvetica,sans-Serif" font-size="10.00" fill="grey"> m_intervals</text>
<text text-anchor="middle" x="1141.5" y="-66.39" font-family="Helvetica,sans-Serif" font-size="10.00" fill="grey">m_reportSlippage</text>
</g>
<!-- Node21 -->
<g id="Node000021" class="node">
<title>Node21</title>
<g id="a_Node000021"><a xlink:href="struct_cpl_1_1_system_1_1_elapsed_time_1_1_precision___t.html" target="_top" xlink:title="Data type for time in seconds with a &#39;fractional&#39; millisecond precision.">
<polygon fill="white" stroke="#666666" points="787,-75.39 643,-75.39 643,-45.39 787,-45.39 787,-75.39"/>
<text text-anchor="start" x="651" y="-63.39" font-family="Helvetica,sans-Serif" font-size="10.00">Cpl::System::ElapsedTime</text>
<text text-anchor="middle" x="715" y="-52.39" font-family="Helvetica,sans-Serif" font-size="10.00">::Precision_T</text>
</a>
</g>
</g>
<!-- Node21&#45;&gt;Node1 -->
<g id="edge25_Node000001_Node000021" class="edge">
<title>Node21&#45;&gt;Node1</title>
<g id="a_edge25_Node000001_Node000021"><a xlink:title=" ">
<path fill="none" stroke="#9a32cd" stroke-dasharray="5,2" d="M758.21,-79.16C773.85,-85.22 791.93,-91.19 809,-94.39 1024.09,-134.8 1284.87,-123.35 1407.84,-114.46"/>
<polygon fill="#9a32cd" stroke="#9a32cd" points="759.41,-75.87 748.82,-75.41 756.81,-82.37 759.41,-75.87"/>
</a>
</g>
<text text-anchor="middle" x="1141.5" y="-125.39" font-family="Helvetica,sans-Serif" font-size="10.00" fill="grey"> m_idleFunc</text>
</g>
<!-- Node21&#45;&gt;Node19 -->
<g id="edge24_Node000019_Node000021" class="edge">
<title>Node21&#45;&gt;Node19</title>
<g id="a_edge24_Node000019_Node000021"><a xlink:title=" ">
<path fill="none" stroke="#9a32cd" stroke-dasharray="5,2" d="M768.11,-42.26C807.17,-29.67 862.23,-14.01 912,-7.39 986.02,2.44 1005.99,2.49 1080,-7.39 1146.12,-16.22 1221.1,-40.32 1259.8,-53.85"/>
<polygon fill="#9a32cd" stroke="#9a32cd" points="766.96,-38.95 758.54,-45.39 769.13,-45.61 766.96,-38.95"/>
</a>
</g>
<text text-anchor="middle" x="996" y="-32.39" font-family="Helvetica,sans-Serif" font-size="10.00" fill="grey"> m_beginThreadFunc</text>
<text text-anchor="middle" x="996" y="-21.39" font-family="Helvetica,sans-Serif" font-size="10.00" fill="grey">m_endThreadFunc</text>
<text text-anchor="middle" x="996" y="-10.39" font-family="Helvetica,sans-Serif" font-size="10.00" fill="grey">m_nowFunc</text>
</g>
<!-- Node21&#45;&gt;Node20 -->
<g id="edge23_Node000020_Node000021" class="edge">
<title>Node21&#45;&gt;Node20</title>
<g id="a_edge23_Node000020_Node000021"><a xlink:title=" ">
<path fill="none" stroke="#9a32cd" stroke-dasharray="5,2" d="M797.15,-60.44C827.54,-60.56 862.35,-60.84 894,-61.39 899.79,-61.5 905.76,-61.62 911.78,-61.76"/>
<polygon fill="#9a32cd" stroke="#9a32cd" points="797.04,-56.94 787.03,-60.4 797.02,-63.94 797.04,-56.94"/>
</a>
</g>
<text text-anchor="middle" x="851.5" y="-86.39" font-family="Helvetica,sans-Serif" font-size="10.00" fill="grey"> callbackFunc</text>
<text text-anchor="middle" x="851.5" y="-75.39" font-family="Helvetica,sans-Serif" font-size="10.00" fill="grey">duration</text>
<text text-anchor="middle" x="851.5" y="-64.39" font-family="Helvetica,sans-Serif" font-size="10.00" fill="grey">timeMarker</text>
</g>
</g>
</svg>
