<?xml version="1.0" encoding="UTF-8" standalone="no"?>
<!DOCTYPE svg PUBLIC "-//W3C//DTD SVG 1.1//EN"
 "http://www.w3.org/Graphics/SVG/1.1/DTD/svg11.dtd">
<!-- Generated by graphviz version 2.43.0 (0)
 -->
<!-- Title: Cpl::MApp::Cmd Pages: 1 -->
<svg width="411pt" height="223pt"
 viewBox="0.00 0.00 411.00 223.00" xmlns="http://www.w3.org/2000/svg" xmlns:xlink="http://www.w3.org/1999/xlink">
<g id="graph0" class="graph" transform="scale(1 1) rotate(0) translate(4 219)">
<title>Cpl::MApp::Cmd</title>
<!-- Node1 -->
<g id="Node000001" class="node">
<title>Node1</title>
<g id="a_Node000001"><a xlink:title="The class implements a TShell command that interacts with the MApp Manager to start,...">
<polygon fill="#999999" stroke="#666666" points="237,-19 142,-19 142,0 237,0 237,-19"/>
<text text-anchor="middle" x="189.5" y="-7" font-family="Helvetica,sans-Serif" font-size="10.00">Cpl::MApp::Cmd</text>
</a>
</g>
</g>
<!-- Node2 -->
<g id="Node000002" class="node">
<title>Node2</title>
<g id="a_Node000002"><a xlink:href="class_cpl_1_1_t_shell_1_1_cmd_1_1_command.html" target="_top" xlink:title="This partially concrete class implements infrastructure and/or common functionality for a Shell comma...">
<polygon fill="white" stroke="#666666" points="153,-85 0,-85 0,-66 153,-66 153,-85"/>
<text text-anchor="middle" x="76.5" y="-73" font-family="Helvetica,sans-Serif" font-size="10.00">Cpl::TShell::Cmd::Command</text>
</a>
</g>
</g>
<!-- Node2&#45;&gt;Node1 -->
<g id="edge1_Node000001_Node000002" class="edge">
<title>Node2&#45;&gt;Node1</title>
<g id="a_edge1_Node000001_Node000002"><a xlink:title=" ">
<path fill="none" stroke="#63b8ff" d="M100.59,-60.86C122.83,-48.26 155.21,-29.92 174.14,-19.2"/>
<polygon fill="#63b8ff" stroke="#63b8ff" points="98.72,-57.89 91.74,-65.87 102.17,-63.99 98.72,-57.89"/>
</a>
</g>
</g>
<!-- Node3 -->
<g id="Node000003" class="node">
<title>Node3</title>
<g id="a_Node000003"><a xlink:href="class_cpl_1_1_t_shell_1_1_command.html" target="_top" xlink:title="This class defines the interface for a TShell command.">
<polygon fill="white" stroke="#666666" points="155,-159 30,-159 30,-140 155,-140 155,-159"/>
<text text-anchor="middle" x="92.5" y="-147" font-family="Helvetica,sans-Serif" font-size="10.00">Cpl::TShell::Command</text>
</a>
</g>
</g>
<!-- Node3&#45;&gt;Node2 -->
<g id="edge2_Node000002_Node000003" class="edge">
<title>Node3&#45;&gt;Node2</title>
<g id="a_edge2_Node000002_Node000003"><a xlink:title=" ">
<path fill="none" stroke="#63b8ff" d="M88.41,-130.08C85.19,-115.59 80.85,-96.07 78.4,-85.03"/>
<polygon fill="#63b8ff" stroke="#63b8ff" points="85.02,-130.96 90.6,-139.96 91.85,-129.44 85.02,-130.96"/>
</a>
</g>
</g>
<!-- Node4 -->
<g id="Node000004" class="node">
<title>Node4</title>
<g id="a_Node000004"><a xlink:href="class_cpl_1_1_container_1_1_item.html" target="_top" xlink:title="This class is used by the Container classes to implement a various types of singly linked containers.">
<polygon fill="white" stroke="#666666" points="197.5,-215 83.5,-215 83.5,-196 197.5,-196 197.5,-215"/>
<text text-anchor="middle" x="140.5" y="-203" font-family="Helvetica,sans-Serif" font-size="10.00">Cpl::Container::Item</text>
</a>
</g>
</g>
<!-- Node4&#45;&gt;Node3 -->
<g id="edge3_Node000003_Node000004" class="edge">
<title>Node4&#45;&gt;Node3</title>
<g id="a_edge3_Node000003_Node000004"><a xlink:title=" ">
<path fill="none" stroke="#63b8ff" d="M125.77,-187.93C117.36,-178.47 107.15,-166.98 100.28,-159.25"/>
<polygon fill="#63b8ff" stroke="#63b8ff" points="123.31,-190.43 132.57,-195.58 128.55,-185.78 123.31,-190.43"/>
</a>
</g>
</g>
<!-- Node6 -->
<g id="Node000006" class="node">
<title>Node6</title>
<g id="a_Node000006"><a xlink:href="class_cpl_1_1_m_app_1_1_m_app_api.html" target="_top" xlink:title="This abstract class defines the interface for a Micro Application (MApp).">
<polygon fill="white" stroke="#666666" points="245.5,-122 129.5,-122 129.5,-103 245.5,-103 245.5,-122"/>
<text text-anchor="middle" x="187.5" y="-110" font-family="Helvetica,sans-Serif" font-size="10.00">Cpl::MApp::MAppApi</text>
</a>
</g>
</g>
<!-- Node4&#45;&gt;Node6 -->
<g id="edge6_Node000006_Node000004" class="edge">
<title>Node4&#45;&gt;Node6</title>
<g id="a_edge6_Node000006_Node000004"><a xlink:title=" ">
<path fill="none" stroke="#63b8ff" d="M149.68,-186.73C159.74,-167.25 175.46,-136.8 183.08,-122.07"/>
<polygon fill="#63b8ff" stroke="#63b8ff" points="146.49,-185.28 145.01,-195.77 152.71,-188.5 146.49,-185.28"/>
</a>
</g>
</g>
<!-- Node5 -->
<g id="Node000005" class="node">
<title>Node5</title>
<g id="a_Node000005"><a xlink:href="class_cpl_1_1_m_app_1_1_manager_api.html" target="_top" xlink:title="This abstract class defines the &quot;manager&quot; interface to for starting, stopping, etc.">
<polygon fill="white" stroke="#666666" points="403,-85 272,-85 272,-66 403,-66 403,-85"/>
<text text-anchor="middle" x="337.5" y="-73" font-family="Helvetica,sans-Serif" font-size="10.00">Cpl::MApp::ManagerApi</text>
</a>
</g>
</g>
<!-- Node5&#45;&gt;Node1 -->
<g id="edge4_Node000001_Node000005" class="edge">
<title>Node5&#45;&gt;Node1</title>
<g id="a_edge4_Node000001_Node000005"><a xlink:title=" ">
<path fill="none" stroke="#9a32cd" stroke-dasharray="5,2" d="M308.27,-61.86C279.1,-49.25 235.07,-30.21 209.62,-19.2"/>
<polygon fill="#9a32cd" stroke="#9a32cd" points="306.97,-65.11 317.54,-65.87 309.75,-58.69 306.97,-65.11"/>
</a>
</g>
<text text-anchor="middle" x="317" y="-40" font-family="Helvetica,sans-Serif" font-size="10.00" fill="grey"> m_mappManager</text>
</g>
<!-- Node6&#45;&gt;Node1 -->
<g id="edge5_Node000001_Node000006" class="edge">
<title>Node6&#45;&gt;Node1</title>
<g id="a_edge5_Node000001_Node000006"><a xlink:title=" ">
<path fill="none" stroke="#9a32cd" stroke-dasharray="5,2" d="M187.87,-92.81C188.31,-70.84 189.01,-35.32 189.33,-19.09"/>
<polygon fill="#9a32cd" stroke="#9a32cd" points="184.37,-92.82 187.67,-102.89 191.37,-92.96 184.37,-92.82"/>
</a>
</g>
<text text-anchor="middle" x="220.5" y="-73" font-family="Helvetica,sans-Serif" font-size="10.00" fill="grey"> m_mappList</text>
</g>
</g>
</svg>
