<?xml version="1.0" encoding="UTF-8" standalone="no"?>
<!DOCTYPE svg PUBLIC "-//W3C//DTD SVG 1.1//EN"
 "http://www.w3.org/Graphics/SVG/1.1/DTD/svg11.dtd">
<!-- Generated by graphviz version 2.43.0 (0)
 -->
<!-- Title: Cpl::Itc::CloseSync Pages: 1 -->
<svg width="962pt" height="175pt"
 viewBox="0.00 0.00 962.00 175.39" xmlns="http://www.w3.org/2000/svg" xmlns:xlink="http://www.w3.org/1999/xlink">
<g id="graph0" class="graph" transform="scale(1 1) rotate(0) translate(4 171.39)">
<title>Cpl::Itc::CloseSync</title>
<!-- Node1 -->
<g id="Node000001" class="node">
<title>Node1</title>
<g id="a_Node000001"><a xlink:title="This partially concrete class implements the synchronous ITC close call for the CloseApi.">
<polygon fill="#999999" stroke="#666666" points="426,-105 319,-105 319,-86 426,-86 426,-105"/>
<text text-anchor="middle" x="372.5" y="-93" font-family="Helvetica,sans-Serif" font-size="10.00">Cpl::Itc::CloseSync</text>
</a>
</g>
</g>
<!-- Node7 -->
<g id="Node000007" class="node">
<title>Node7</title>
<g id="a_Node000007"><a xlink:href="class_cpl_1_1_persistent_1_1_indexed_entry_server.html" target="_top" xlink:title=" ">
<polygon fill="white" stroke="#666666" points="954,-132 809,-132 809,-91 954,-91 954,-132"/>
<text text-anchor="start" x="817" y="-120" font-family="Helvetica,sans-Serif" font-size="10.00">Cpl::Persistent::Indexed</text>
<text text-anchor="start" x="817" y="-109" font-family="Helvetica,sans-Serif" font-size="10.00">EntryServer&lt; Cpl::Logging</text>
<text text-anchor="middle" x="881.5" y="-98" font-family="Helvetica,sans-Serif" font-size="10.00">::EntryData_T &gt;</text>
</a>
</g>
</g>
<!-- Node1&#45;&gt;Node7 -->
<g id="edge6_Node000001_Node000007" class="edge">
<title>Node1&#45;&gt;Node7</title>
<g id="a_edge6_Node000001_Node000007"><a xlink:title=" ">
<path fill="none" stroke="#63b8ff" d="M392.41,-111.8C409.54,-125.41 436.15,-143.79 463,-151.5 584.6,-186.41 733.46,-155.51 816.56,-132.04"/>
<polygon fill="#63b8ff" stroke="#63b8ff" points="394.31,-108.83 384.36,-105.19 389.87,-114.24 394.31,-108.83"/>
</a>
</g>
</g>
<!-- Node8 -->
<g id="Node000008" class="node">
<title>Node8</title>
<g id="a_Node000008"><a xlink:href="class_cpl_1_1_logging_1_1_log_sink.html" target="_top" xlink:title="This class is responsible for consuming the application&#39;s Log buffer and &#39;dispatching&#39; log entries.">
<polygon fill="white" stroke="#666666" points="602.5,-142 481.5,-142 481.5,-123 602.5,-123 602.5,-142"/>
<text text-anchor="middle" x="542" y="-130" font-family="Helvetica,sans-Serif" font-size="10.00">Cpl::Logging::LogSink</text>
</a>
</g>
</g>
<!-- Node1&#45;&gt;Node8 -->
<g id="edge7_Node000001_Node000008" class="edge">
<title>Node1&#45;&gt;Node8</title>
<g id="a_edge7_Node000001_Node000008"><a xlink:title=" ">
<path fill="none" stroke="#63b8ff" d="M426.56,-107.22C449.5,-112.29 476,-118.14 497.72,-122.94"/>
<polygon fill="#63b8ff" stroke="#63b8ff" points="427.15,-103.77 416.64,-105.03 425.65,-110.6 427.15,-103.77"/>
</a>
</g>
</g>
<!-- Node9 -->
<g id="Node000009" class="node">
<title>Node9</title>
<g id="a_Node000009"><a xlink:href="class_cpl_1_1_m_app_1_1_manager.html" target="_top" xlink:title="This concrete class implements the MApp Manager.">
<polygon fill="white" stroke="#666666" points="599.5,-105 484.5,-105 484.5,-86 599.5,-86 599.5,-105"/>
<text text-anchor="middle" x="542" y="-93" font-family="Helvetica,sans-Serif" font-size="10.00">Cpl::MApp::Manager</text>
</a>
</g>
</g>
<!-- Node1&#45;&gt;Node9 -->
<g id="edge8_Node000001_Node000009" class="edge">
<title>Node1&#45;&gt;Node9</title>
<g id="a_edge8_Node000001_Node000009"><a xlink:title=" ">
<path fill="none" stroke="#63b8ff" d="M436.22,-95.5C452,-95.5 468.83,-95.5 484.29,-95.5"/>
<polygon fill="#63b8ff" stroke="#63b8ff" points="436.04,-92 426.04,-95.5 436.04,-99 436.04,-92"/>
</a>
</g>
</g>
<!-- Node10 -->
<g id="Node000010" class="node">
<title>Node10</title>
<g id="a_Node000010"><a xlink:href="class_cpl_1_1_persistent_1_1_indexed_entry_server.html" target="_top" xlink:title="This concrete template class implements the ITC messaging (and Model Point monitoring) needed to prov...">
<polygon fill="white" stroke="#666666" points="607.5,-67.5 476.5,-67.5 476.5,-37.5 607.5,-37.5 607.5,-67.5"/>
<text text-anchor="start" x="484.5" y="-55.5" font-family="Helvetica,sans-Serif" font-size="10.00">Cpl::Persistent::Indexed</text>
<text text-anchor="middle" x="542" y="-44.5" font-family="Helvetica,sans-Serif" font-size="10.00">EntryServer&lt; ENTRY &gt;</text>
</a>
</g>
</g>
<!-- Node1&#45;&gt;Node10 -->
<g id="edge9_Node000001_Node000010" class="edge">
<title>Node1&#45;&gt;Node10</title>
<g id="a_edge9_Node000001_Node000010"><a xlink:title=" ">
<path fill="none" stroke="#63b8ff" d="M420.43,-83.45C439.7,-78.51 462.22,-72.72 482.55,-67.51"/>
<polygon fill="#63b8ff" stroke="#63b8ff" points="419.49,-80.08 410.67,-85.96 421.23,-86.86 419.49,-80.08"/>
</a>
</g>
</g>
<!-- Node11 -->
<g id="Node000011" class="node">
<title>Node11</title>
<g id="a_Node000011"><a xlink:href="class_cpl_1_1_persistent_1_1_record_server.html" target="_top" xlink:title="This concrete class provides an Event driven Runnable object for executing the read/write operation t...">
<polygon fill="white" stroke="#666666" points="621,-19 463,-19 463,0 621,0 621,-19"/>
<text text-anchor="middle" x="542" y="-7" font-family="Helvetica,sans-Serif" font-size="10.00">Cpl::Persistent::RecordServer</text>
</a>
</g>
</g>
<!-- Node1&#45;&gt;Node11 -->
<g id="edge11_Node000001_Node000011" class="edge">
<title>Node1&#45;&gt;Node11</title>
<g id="a_edge11_Node000001_Node000011"><a xlink:title=" ">
<path fill="none" stroke="#63b8ff" d="M390.85,-79.1C407.93,-63.83 435.39,-41.52 463,-28.5 471.07,-24.69 479.98,-21.6 488.8,-19.11"/>
<polygon fill="#63b8ff" stroke="#63b8ff" points="388.37,-76.63 383.35,-85.96 393.09,-81.8 388.37,-76.63"/>
</a>
</g>
</g>
<!-- Node2 -->
<g id="Node000002" class="node">
<title>Node2</title>
<g id="a_Node000002"><a xlink:href="class_cpl_1_1_itc_1_1_open_sync.html" target="_top" xlink:title="This partially concrete class implements the synchronous ITC open call for the OpenApi.">
<polygon fill="white" stroke="#666666" points="273,-142 168,-142 168,-123 273,-123 273,-142"/>
<text text-anchor="middle" x="220.5" y="-130" font-family="Helvetica,sans-Serif" font-size="10.00">Cpl::Itc::OpenSync</text>
</a>
</g>
</g>
<!-- Node2&#45;&gt;Node1 -->
<g id="edge1_Node000001_Node000002" class="edge">
<title>Node2&#45;&gt;Node1</title>
<g id="a_edge1_Node000001_Node000002"><a xlink:title=" ">
<path fill="none" stroke="#63b8ff" d="M269.84,-120.57C290.19,-115.56 313.55,-109.79 332.74,-105.06"/>
<polygon fill="#63b8ff" stroke="#63b8ff" points="269,-117.18 260.13,-122.97 270.68,-123.97 269,-117.18"/>
</a>
</g>
</g>
<!-- Node3 -->
<g id="Node000003" class="node">
<title>Node3</title>
<g id="a_Node000003"><a xlink:href="class_cpl_1_1_itc_1_1_open_api.html" target="_top" xlink:title="This abstract class defines an open interface.">
<polygon fill="white" stroke="#666666" points="110,-160 12,-160 12,-141 110,-141 110,-160"/>
<text text-anchor="middle" x="61" y="-148" font-family="Helvetica,sans-Serif" font-size="10.00">Cpl::Itc::OpenApi</text>
</a>
</g>
</g>
<!-- Node3&#45;&gt;Node2 -->
<g id="edge2_Node000002_Node000003" class="edge">
<title>Node3&#45;&gt;Node2</title>
<g id="a_edge2_Node000002_Node000003"><a xlink:title=" ">
<path fill="none" stroke="#63b8ff" d="M120.19,-143.85C135.82,-142.06 152.61,-140.14 167.85,-138.4"/>
<polygon fill="#63b8ff" stroke="#63b8ff" points="119.65,-140.39 110.11,-145 120.44,-147.34 119.65,-140.39"/>
</a>
</g>
</g>
<!-- Node4 -->
<g id="Node000004" class="node">
<title>Node4</title>
<g id="a_Node000004"><a xlink:href="class_cpl_1_1_itc_1_1_open_request.html" target="_top" xlink:title="This abstract class define message types and payloads for a set of ITC services.">
<polygon fill="white" stroke="#666666" points="122,-123 0,-123 0,-104 122,-104 122,-123"/>
<text text-anchor="middle" x="61" y="-111" font-family="Helvetica,sans-Serif" font-size="10.00">Cpl::Itc::OpenRequest</text>
</a>
</g>
</g>
<!-- Node4&#45;&gt;Node2 -->
<g id="edge3_Node000002_Node000004" class="edge">
<title>Node4&#45;&gt;Node2</title>
<g id="a_edge3_Node000002_Node000004"><a xlink:title=" ">
<path fill="none" stroke="#63b8ff" d="M132.4,-121.99C144.36,-123.44 156.58,-124.91 167.94,-126.28"/>
<polygon fill="#63b8ff" stroke="#63b8ff" points="132.79,-118.51 122.44,-120.79 131.95,-125.46 132.79,-118.51"/>
</a>
</g>
</g>
<!-- Node5 -->
<g id="Node000005" class="node">
<title>Node5</title>
<g id="a_Node000005"><a xlink:href="class_cpl_1_1_itc_1_1_close_api.html" target="_top" xlink:title="This abstract class defines an close interface.">
<polygon fill="white" stroke="#666666" points="270,-105 171,-105 171,-86 270,-86 270,-105"/>
<text text-anchor="middle" x="220.5" y="-93" font-family="Helvetica,sans-Serif" font-size="10.00">Cpl::Itc::CloseApi</text>
</a>
</g>
</g>
<!-- Node5&#45;&gt;Node1 -->
<g id="edge4_Node000001_Node000005" class="edge">
<title>Node5&#45;&gt;Node1</title>
<g id="a_edge4_Node000001_Node000005"><a xlink:title=" ">
<path fill="none" stroke="#63b8ff" d="M280.25,-95.5C293,-95.5 306.41,-95.5 318.9,-95.5"/>
<polygon fill="#63b8ff" stroke="#63b8ff" points="280.2,-92 270.2,-95.5 280.2,-99 280.2,-92"/>
</a>
</g>
</g>
<!-- Node6 -->
<g id="Node000006" class="node">
<title>Node6</title>
<g id="a_Node000006"><a xlink:href="class_cpl_1_1_itc_1_1_close_request.html" target="_top" xlink:title="This abstract class define message types and payloads for a set of ITC services.">
<polygon fill="white" stroke="#666666" points="282,-68 159,-68 159,-49 282,-49 282,-68"/>
<text text-anchor="middle" x="220.5" y="-56" font-family="Helvetica,sans-Serif" font-size="10.00">Cpl::Itc::CloseRequest</text>
</a>
</g>
</g>
<!-- Node6&#45;&gt;Node1 -->
<g id="edge5_Node000001_Node000006" class="edge">
<title>Node6&#45;&gt;Node1</title>
<g id="a_edge5_Node000001_Node000006"><a xlink:title=" ">
<path fill="none" stroke="#63b8ff" d="M269.84,-70.43C290.19,-75.44 313.55,-81.21 332.74,-85.94"/>
<polygon fill="#63b8ff" stroke="#63b8ff" points="270.68,-67.03 260.13,-68.03 269,-73.82 270.68,-67.03"/>
</a>
</g>
</g>
<!-- Node10&#45;&gt;Node7 -->
<g id="edge10_Node000010_Node000007" class="edge">
<title>Node10&#45;&gt;Node7</title>
<g id="a_edge10_Node000010_Node000007"><a xlink:title=" ">
<path fill="none" stroke="orange" stroke-dasharray="5,2" d="M617.69,-65.56C674.63,-75.51 752.55,-89.13 808.74,-98.96"/>
<polygon fill="orange" stroke="orange" points="618.13,-62.08 607.67,-63.81 616.92,-68.98 618.13,-62.08"/>
</a>
</g>
<text text-anchor="middle" x="715" y="-98.5" font-family="Helvetica,sans-Serif" font-size="10.00" fill="grey"> &lt; Cpl::Logging::EntryData_T &gt;</text>
</g>
</g>
</svg>
