<?xml version="1.0" encoding="UTF-8" standalone="no"?>
<!DOCTYPE svg PUBLIC "-//W3C//DTD SVG 1.1//EN"
 "http://www.w3.org/Graphics/SVG/1.1/DTD/svg11.dtd">
<!-- Generated by graphviz version 2.43.0 (0)
 -->
<!-- Title: Cpl::TShell::Maker Pages: 1 -->
<svg width="1962pt" height="391pt"
 viewBox="0.00 0.00 1962.00 390.50" xmlns="http://www.w3.org/2000/svg" xmlns:xlink="http://www.w3.org/1999/xlink">
<g id="graph0" class="graph" transform="scale(1 1) rotate(0) translate(4 386.5)">
<title>Cpl::TShell::Maker</title>
<!-- Node1 -->
<g id="Node000001" class="node">
<title>Node1</title>
<g id="a_Node000001"><a xlink:title="This concrete class is a &quot;Maker&quot; that assembles the objects needed for a &#39;basic&#39; TShell Processor eng...">
<polygon fill="#999999" stroke="#666666" points="1954,-277.5 1850,-277.5 1850,-258.5 1954,-258.5 1954,-277.5"/>
<text text-anchor="middle" x="1902" y="-265.5" font-family="Helvetica,sans-Serif" font-size="10.00">Cpl::TShell::Maker</text>
</a>
</g>
</g>
<!-- Node2 -->
<g id="Node000002" class="node">
<title>Node2</title>
<g id="a_Node000002"><a xlink:href="class_cpl_1_1_text_1_1_frame_1_1_stream_encoder.html" target="_top" xlink:title="This concrete class implements the Encoder API where the Output destination is a Cpl::Io::Output stre...">
<polygon fill="white" stroke="#666666" points="1090,-282 953,-282 953,-252 1090,-252 1090,-282"/>
<text text-anchor="start" x="961" y="-270" font-family="Helvetica,sans-Serif" font-size="10.00">Cpl::Text::Frame::Stream</text>
<text text-anchor="middle" x="1021.5" y="-259" font-family="Helvetica,sans-Serif" font-size="10.00">Encoder</text>
</a>
</g>
</g>
<!-- Node2&#45;&gt;Node1 -->
<g id="edge1_Node000001_Node000002" class="edge">
<title>Node2&#45;&gt;Node1</title>
<g id="a_edge1_Node000001_Node000002"><a xlink:title=" ">
<path fill="none" stroke="#9a32cd" stroke-dasharray="5,2" d="M1100.58,-267.09C1277.04,-267.29 1702.65,-267.77 1849.87,-267.94"/>
<polygon fill="#9a32cd" stroke="#9a32cd" points="1100.34,-263.59 1090.34,-267.08 1100.34,-270.59 1100.34,-263.59"/>
</a>
</g>
<text text-anchor="middle" x="1468.5" y="-271" font-family="Helvetica,sans-Serif" font-size="10.00" fill="grey"> m_framer</text>
</g>
<!-- Node15 -->
<g id="Node000015" class="node">
<title>Node15</title>
<g id="a_Node000015"><a xlink:href="class_cpl_1_1_t_shell_1_1_processor.html" target="_top" xlink:title="This concrete class provides the implementation of Command Processor for a TShell engine.">
<polygon fill="white" stroke="#666666" points="1361,-197.5 1239,-197.5 1239,-178.5 1361,-178.5 1361,-197.5"/>
<text text-anchor="middle" x="1300" y="-185.5" font-family="Helvetica,sans-Serif" font-size="10.00">Cpl::TShell::Processor</text>
</a>
</g>
</g>
<!-- Node2&#45;&gt;Node15 -->
<g id="edge23_Node000015_Node000002" class="edge">
<title>Node2&#45;&gt;Node15</title>
<g id="a_edge23_Node000015_Node000002"><a xlink:title=" ">
<path fill="none" stroke="#9a32cd" stroke-dasharray="5,2" d="M1093.05,-249.43C1125.97,-240.98 1165.62,-230.42 1201,-220 1224.86,-212.97 1251.7,-204.14 1271.25,-197.54"/>
<polygon fill="#9a32cd" stroke="#9a32cd" points="1091.88,-246.12 1083.06,-251.99 1093.61,-252.9 1091.88,-246.12"/>
</a>
</g>
<text text-anchor="middle" x="1161.5" y="-245" font-family="Helvetica,sans-Serif" font-size="10.00" fill="grey"> m_framer</text>
</g>
<!-- Node3 -->
<g id="Node000003" class="node">
<title>Node3</title>
<g id="a_Node000003"><a xlink:href="class_cpl_1_1_text_1_1_frame_1_1_encoder__.html" target="_top" xlink:title="This Private Namespace partially concrete class implements common/helper method for supporting the En...">
<polygon fill="white" stroke="#666666" points="753.5,-258.5 607.5,-258.5 607.5,-239.5 753.5,-239.5 753.5,-258.5"/>
<text text-anchor="middle" x="680.5" y="-246.5" font-family="Helvetica,sans-Serif" font-size="10.00">Cpl::Text::Frame::Encoder_</text>
</a>
</g>
</g>
<!-- Node3&#45;&gt;Node2 -->
<g id="edge2_Node000002_Node000003" class="edge">
<title>Node3&#45;&gt;Node2</title>
<g id="a_edge2_Node000002_Node000003"><a xlink:title=" ">
<path fill="none" stroke="#63b8ff" d="M764.04,-253.38C822,-256.46 898.58,-260.53 952.92,-263.41"/>
<polygon fill="#63b8ff" stroke="#63b8ff" points="763.98,-249.87 753.81,-252.84 763.61,-256.86 763.98,-249.87"/>
</a>
</g>
</g>
<!-- Node4 -->
<g id="Node000004" class="node">
<title>Node4</title>
<g id="a_Node000004"><a xlink:href="class_cpl_1_1_text_1_1_frame_1_1_encoder.html" target="_top" xlink:title="This class defines an interface for &#39;transmitted&#39; (encoding) a frame.">
<polygon fill="white" stroke="#666666" points="569,-257.5 429,-257.5 429,-238.5 569,-238.5 569,-257.5"/>
<text text-anchor="middle" x="499" y="-245.5" font-family="Helvetica,sans-Serif" font-size="10.00">Cpl::Text::Frame::Encoder</text>
</a>
</g>
</g>
<!-- Node4&#45;&gt;Node3 -->
<g id="edge3_Node000003_Node000004" class="edge">
<title>Node4&#45;&gt;Node3</title>
<g id="a_edge3_Node000003_Node000004"><a xlink:title=" ">
<path fill="none" stroke="#63b8ff" d="M579.24,-248.44C588.62,-248.49 598.15,-248.55 607.42,-248.6"/>
<polygon fill="#63b8ff" stroke="#63b8ff" points="579.16,-244.94 569.14,-248.39 579.12,-251.94 579.16,-244.94"/>
</a>
</g>
</g>
<!-- Node5 -->
<g id="Node000005" class="node">
<title>Node5</title>
<g id="a_Node000005"><a xlink:href="class_cpl_1_1_io_1_1_output.html" target="_top" xlink:title="This partially abstract class defines a interface for operating on an output stream (example of a str...">
<polygon fill="white" stroke="#666666" points="723.5,-295.5 637.5,-295.5 637.5,-276.5 723.5,-276.5 723.5,-295.5"/>
<text text-anchor="middle" x="680.5" y="-283.5" font-family="Helvetica,sans-Serif" font-size="10.00">Cpl::Io::Output</text>
</a>
</g>
</g>
<!-- Node5&#45;&gt;Node2 -->
<g id="edge4_Node000002_Node000005" class="edge">
<title>Node5&#45;&gt;Node2</title>
<g id="a_edge4_Node000002_Node000005"><a xlink:title=" ">
<path fill="none" stroke="#9a32cd" stroke-dasharray="5,2" d="M733.93,-283.06C792.76,-279.76 888.36,-274.41 952.8,-270.79"/>
<polygon fill="#9a32cd" stroke="#9a32cd" points="733.54,-279.58 723.75,-283.63 733.93,-286.57 733.54,-279.58"/>
</a>
</g>
<text text-anchor="middle" x="846.5" y="-284" font-family="Helvetica,sans-Serif" font-size="10.00" fill="grey"> m_dstPtr</text>
</g>
<!-- Node6 -->
<g id="Node000006" class="node">
<title>Node6</title>
<g id="a_Node000006"><a xlink:href="class_cpl_1_1_io_1_1_close.html" target="_top" xlink:title="This abstract class defines a close operation that is intended to be used Input and Output streams/fi...">
<polygon fill="white" stroke="#666666" points="539,-300.5 459,-300.5 459,-281.5 539,-281.5 539,-300.5"/>
<text text-anchor="middle" x="499" y="-288.5" font-family="Helvetica,sans-Serif" font-size="10.00">Cpl::Io::Close</text>
</a>
</g>
</g>
<!-- Node6&#45;&gt;Node5 -->
<g id="edge5_Node000005_Node000006" class="edge">
<title>Node6&#45;&gt;Node5</title>
<g id="a_edge5_Node000005_Node000006"><a xlink:title=" ">
<path fill="none" stroke="#63b8ff" d="M549.67,-288.44C562.18,-287.88 575.58,-287.35 588,-287 604.04,-286.55 621.66,-286.3 637.13,-286.16"/>
<polygon fill="#63b8ff" stroke="#63b8ff" points="549.24,-284.96 539.41,-288.92 549.57,-291.95 549.24,-284.96"/>
</a>
</g>
</g>
<!-- Node13 -->
<g id="Node000013" class="node">
<title>Node13</title>
<g id="a_Node000013"><a xlink:href="class_cpl_1_1_io_1_1_input.html" target="_top" xlink:title="This partially abstract class defines a interface for operating on an input stream (example of a stre...">
<polygon fill="white" stroke="#666666" points="719.5,-339.5 641.5,-339.5 641.5,-320.5 719.5,-320.5 719.5,-339.5"/>
<text text-anchor="middle" x="680.5" y="-327.5" font-family="Helvetica,sans-Serif" font-size="10.00">Cpl::Io::Input</text>
</a>
</g>
</g>
<!-- Node6&#45;&gt;Node13 -->
<g id="edge13_Node000013_Node000006" class="edge">
<title>Node6&#45;&gt;Node13</title>
<g id="a_edge13_Node000013_Node000006"><a xlink:title=" ">
<path fill="none" stroke="#63b8ff" d="M549.34,-301.72C578.4,-308.03 614.59,-315.9 641.43,-321.73"/>
<polygon fill="#63b8ff" stroke="#63b8ff" points="549.91,-298.26 539.39,-299.56 548.42,-305.1 549.91,-298.26"/>
</a>
</g>
</g>
<!-- Node7 -->
<g id="Node000007" class="node">
<title>Node7</title>
<g id="a_Node000007"><a xlink:href="class_cpl_1_1_container_1_1_item.html" target="_top" xlink:title="This class is used by the Container classes to implement a various types of singly linked containers.">
<polygon fill="white" stroke="#666666" points="391,-300.5 277,-300.5 277,-281.5 391,-281.5 391,-300.5"/>
<text text-anchor="middle" x="334" y="-288.5" font-family="Helvetica,sans-Serif" font-size="10.00">Cpl::Container::Item</text>
</a>
</g>
</g>
<!-- Node7&#45;&gt;Node6 -->
<g id="edge6_Node000006_Node000007" class="edge">
<title>Node7&#45;&gt;Node6</title>
<g id="a_edge6_Node000006_Node000007"><a xlink:title=" ">
<path fill="none" stroke="#63b8ff" d="M401.18,-291C420.73,-291 441.49,-291 458.76,-291"/>
<polygon fill="#63b8ff" stroke="#63b8ff" points="401.1,-287.5 391.1,-291 401.1,-294.5 401.1,-287.5"/>
</a>
</g>
</g>
<!-- Node8 -->
<g id="Node000008" class="node">
<title>Node8</title>
<g id="a_Node000008"><a xlink:href="class_cpl_1_1_io_1_1_is_eos.html" target="_top" xlink:title="This abstract class defines a isEos() operation that is intended to be used Input and Output streams.">
<polygon fill="white" stroke="#666666" points="538.5,-341.5 459.5,-341.5 459.5,-322.5 538.5,-322.5 538.5,-341.5"/>
<text text-anchor="middle" x="499" y="-329.5" font-family="Helvetica,sans-Serif" font-size="10.00">Cpl::Io::IsEos</text>
</a>
</g>
</g>
<!-- Node8&#45;&gt;Node5 -->
<g id="edge7_Node000005_Node000008" class="edge">
<title>Node8&#45;&gt;Node5</title>
<g id="a_edge7_Node000005_Node000008"><a xlink:title=" ">
<path fill="none" stroke="#63b8ff" d="M546.95,-319.97C576.72,-312.34 614.69,-302.61 642.36,-295.52"/>
<polygon fill="#63b8ff" stroke="#63b8ff" points="546.01,-316.6 537.19,-322.47 547.75,-323.38 546.01,-316.6"/>
</a>
</g>
</g>
<!-- Node8&#45;&gt;Node13 -->
<g id="edge14_Node000013_Node000008" class="edge">
<title>Node8&#45;&gt;Node13</title>
<g id="a_edge14_Node000013_Node000008"><a xlink:title=" ">
<path fill="none" stroke="#63b8ff" d="M548.58,-333.3C561.4,-333.59 575.22,-333.85 588,-334 605.49,-334.2 624.84,-333.49 641.23,-332.61"/>
<polygon fill="#63b8ff" stroke="#63b8ff" points="548.63,-329.8 538.55,-333.07 548.46,-336.8 548.63,-329.8"/>
</a>
</g>
</g>
<!-- Node9 -->
<g id="Node000009" class="node">
<title>Node9</title>
<g id="a_Node000009"><a xlink:href="class_cpl_1_1_text_1_1_frame_1_1_line_decoder.html" target="_top" xlink:title=" ">
<polygon fill="white" stroke="#666666" points="1750,-337.5 1556,-337.5 1556,-296.5 1750,-296.5 1750,-337.5"/>
<text text-anchor="start" x="1564" y="-325.5" font-family="Helvetica,sans-Serif" font-size="10.00">Cpl::Text::Frame::LineDecoder</text>
<text text-anchor="start" x="1564" y="-314.5" font-family="Helvetica,sans-Serif" font-size="10.00">&lt; OPTION_CPL_TSHELL_PROCESSOR</text>
<text text-anchor="middle" x="1653" y="-303.5" font-family="Helvetica,sans-Serif" font-size="10.00">_INPUT_SIZE &gt;</text>
</a>
</g>
</g>
<!-- Node9&#45;&gt;Node1 -->
<g id="edge8_Node000001_Node000009" class="edge">
<title>Node9&#45;&gt;Node1</title>
<g id="a_edge8_Node000001_Node000009"><a xlink:title=" ">
<path fill="none" stroke="#9a32cd" stroke-dasharray="5,2" d="M1760.15,-296.24C1783.8,-291.58 1808.76,-286.64 1832,-282 1839.19,-280.56 1846.8,-279.03 1854.24,-277.53"/>
<polygon fill="#9a32cd" stroke="#9a32cd" points="1759.23,-292.85 1750.09,-298.22 1760.58,-299.72 1759.23,-292.85"/>
</a>
</g>
<text text-anchor="middle" x="1800" y="-297" font-family="Helvetica,sans-Serif" font-size="10.00" fill="grey"> m_deframer</text>
</g>
<!-- Node10 -->
<g id="Node000010" class="node">
<title>Node10</title>
<g id="a_Node000010"><a xlink:href="class_cpl_1_1_text_1_1_frame_1_1_stream_decoder.html" target="_top" xlink:title="This partially concrete class defines an interface a Text &quot;Decoder&quot; that has a Cpl::Io::Input stream ...">
<polygon fill="white" stroke="#666666" points="1090,-345 953,-345 953,-315 1090,-315 1090,-345"/>
<text text-anchor="start" x="961" y="-333" font-family="Helvetica,sans-Serif" font-size="10.00">Cpl::Text::Frame::Stream</text>
<text text-anchor="middle" x="1021.5" y="-322" font-family="Helvetica,sans-Serif" font-size="10.00">Decoder</text>
</a>
</g>
</g>
<!-- Node10&#45;&gt;Node9 -->
<g id="edge9_Node000009_Node000010" class="edge">
<title>Node10&#45;&gt;Node9</title>
<g id="a_edge9_Node000009_Node000010"><a xlink:title=" ">
<path fill="none" stroke="#63b8ff" d="M1100.41,-337.7C1201.57,-346.31 1383.49,-357.09 1538,-341 1546.25,-340.14 1554.78,-338.94 1563.29,-337.53"/>
<polygon fill="#63b8ff" stroke="#63b8ff" points="1100.54,-334.19 1090.27,-336.82 1099.93,-341.17 1100.54,-334.19"/>
</a>
</g>
</g>
<!-- Node14 -->
<g id="Node000014" class="node">
<title>Node14</title>
<g id="a_Node000014"><a xlink:href="class_cpl_1_1_text_1_1_frame_1_1_line_decoder.html" target="_top" xlink:title="This concrete template class provide a basic implementation of the Frame::Decoder interface that uses...">
<polygon fill="white" stroke="#666666" points="1381,-327 1219,-327 1219,-297 1381,-297 1381,-327"/>
<text text-anchor="start" x="1227" y="-315" font-family="Helvetica,sans-Serif" font-size="10.00">Cpl::Text::Frame::LineDecoder</text>
<text text-anchor="middle" x="1300" y="-304" font-family="Helvetica,sans-Serif" font-size="10.00">&lt; BUFSIZE &gt;</text>
</a>
</g>
</g>
<!-- Node10&#45;&gt;Node14 -->
<g id="edge16_Node000014_Node000010" class="edge">
<title>Node10&#45;&gt;Node14</title>
<g id="a_edge16_Node000014_Node000010"><a xlink:title=" ">
<path fill="none" stroke="#63b8ff" d="M1100.37,-324.93C1137.35,-322.52 1181.51,-319.65 1218.79,-317.22"/>
<polygon fill="#63b8ff" stroke="#63b8ff" points="1099.89,-321.45 1090.14,-325.6 1100.35,-328.44 1099.89,-321.45"/>
</a>
</g>
</g>
<!-- Node10&#45;&gt;Node15 -->
<g id="edge22_Node000015_Node000010" class="edge">
<title>Node10&#45;&gt;Node15</title>
<g id="a_edge22_Node000015_Node000010"><a xlink:title=" ">
<path fill="none" stroke="#9a32cd" stroke-dasharray="5,2" d="M1076.91,-311.39C1113.04,-298.15 1161,-278.89 1201,-257 1234.04,-238.92 1269.35,-211.91 1287.2,-197.64"/>
<polygon fill="#9a32cd" stroke="#9a32cd" points="1075.26,-308.26 1067.05,-314.96 1077.64,-314.84 1075.26,-308.26"/>
</a>
</g>
<text text-anchor="middle" x="1161.5" y="-295" font-family="Helvetica,sans-Serif" font-size="10.00" fill="grey"> m_deframer</text>
</g>
<!-- Node11 -->
<g id="Node000011" class="node">
<title>Node11</title>
<g id="a_Node000011"><a xlink:href="class_cpl_1_1_text_1_1_frame_1_1_decoder__.html" target="_top" xlink:title="This private partially concrete class implements the basic/common logic for a frame decoder.">
<polygon fill="white" stroke="#666666" points="754,-381.5 607,-381.5 607,-362.5 754,-362.5 754,-381.5"/>
<text text-anchor="middle" x="680.5" y="-369.5" font-family="Helvetica,sans-Serif" font-size="10.00">Cpl::Text::Frame::Decoder_</text>
</a>
</g>
</g>
<!-- Node11&#45;&gt;Node10 -->
<g id="edge10_Node000010_Node000011" class="edge">
<title>Node11&#45;&gt;Node10</title>
<g id="a_edge10_Node000010_Node000011"><a xlink:title=" ">
<path fill="none" stroke="#63b8ff" d="M764.13,-363.45C810.32,-358.48 868.92,-351.86 921,-345 931.31,-343.64 942.2,-342.11 952.84,-340.55"/>
<polygon fill="#63b8ff" stroke="#63b8ff" points="763.74,-359.98 754.17,-364.52 764.48,-366.94 763.74,-359.98"/>
</a>
</g>
</g>
<!-- Node12 -->
<g id="Node000012" class="node">
<title>Node12</title>
<g id="a_Node000012"><a xlink:href="class_cpl_1_1_text_1_1_frame_1_1_decoder.html" target="_top" xlink:title="This class defines an interface for &#39;receiving&#39; (decode) a frame.">
<polygon fill="white" stroke="#666666" points="570,-382.5 428,-382.5 428,-363.5 570,-363.5 570,-382.5"/>
<text text-anchor="middle" x="499" y="-370.5" font-family="Helvetica,sans-Serif" font-size="10.00">Cpl::Text::Frame::Decoder</text>
</a>
</g>
</g>
<!-- Node12&#45;&gt;Node11 -->
<g id="edge11_Node000011_Node000012" class="edge">
<title>Node12&#45;&gt;Node11</title>
<g id="a_edge11_Node000011_Node000012"><a xlink:title=" ">
<path fill="none" stroke="#63b8ff" d="M580.39,-372.55C589.16,-372.5 598.05,-372.45 606.72,-372.41"/>
<polygon fill="#63b8ff" stroke="#63b8ff" points="580.15,-369.05 570.17,-372.61 580.19,-376.05 580.15,-369.05"/>
</a>
</g>
</g>
<!-- Node13&#45;&gt;Node10 -->
<g id="edge12_Node000010_Node000013" class="edge">
<title>Node13&#45;&gt;Node10</title>
<g id="a_edge12_Node000010_Node000013"><a xlink:title=" ">
<path fill="none" stroke="#9a32cd" stroke-dasharray="5,2" d="M729.8,-330C788.24,-330 886.97,-330 952.93,-330"/>
<polygon fill="#9a32cd" stroke="#9a32cd" points="729.73,-326.5 719.73,-330 729.73,-333.5 729.73,-326.5"/>
</a>
</g>
<text text-anchor="middle" x="846.5" y="-333" font-family="Helvetica,sans-Serif" font-size="10.00" fill="grey"> m_srcPtr</text>
</g>
<!-- Node14&#45;&gt;Node9 -->
<g id="edge15_Node000009_Node000014" class="edge">
<title>Node14&#45;&gt;Node9</title>
<g id="a_edge15_Node000009_Node000014"><a xlink:title=" ">
<path fill="none" stroke="orange" stroke-dasharray="5,2" d="M1391.31,-313.29C1441.68,-314 1504.41,-314.9 1555.71,-315.63"/>
<polygon fill="orange" stroke="orange" points="1391.14,-309.78 1381.09,-313.14 1391.04,-316.78 1391.14,-309.78"/>
</a>
</g>
<text text-anchor="start" x="1399" y="-329" font-family="Helvetica,sans-Serif" font-size="10.00" fill="grey"> &lt; OPTION_CPL_TSHELL</text>
<text text-anchor="middle" x="1468.5" y="-318" font-family="Helvetica,sans-Serif" font-size="10.00" fill="grey">_PROCESSOR_INPUT_SIZE &gt;</text>
</g>
<!-- Node15&#45;&gt;Node1 -->
<g id="edge17_Node000001_Node000015" class="edge">
<title>Node15&#45;&gt;Node1</title>
<g id="a_edge17_Node000001_Node000015"><a xlink:title=" ">
<path fill="none" stroke="#9a32cd" stroke-dasharray="5,2" d="M1371.49,-196.38C1459.93,-206.96 1616.25,-225.84 1750,-243 1786.47,-247.68 1795.74,-247.9 1832,-254 1839.83,-255.32 1848.14,-256.87 1856.17,-258.45"/>
<polygon fill="#9a32cd" stroke="#9a32cd" points="1371.65,-192.88 1361.31,-195.16 1370.82,-199.83 1371.65,-192.88"/>
</a>
</g>
<text text-anchor="middle" x="1653" y="-246" font-family="Helvetica,sans-Serif" font-size="10.00" fill="grey"> m_processor</text>
</g>
<!-- Node16 -->
<g id="Node000016" class="node">
<title>Node16</title>
<g id="a_Node000016"><a xlink:href="class_cpl_1_1_t_shell_1_1_context__.html" target="_top" xlink:title="This Private Namespace class defines a &quot;Context&quot; for a TShell command.">
<polygon fill="white" stroke="#666666" points="1080.5,-74.5 962.5,-74.5 962.5,-55.5 1080.5,-55.5 1080.5,-74.5"/>
<text text-anchor="middle" x="1021.5" y="-62.5" font-family="Helvetica,sans-Serif" font-size="10.00">Cpl::TShell::Context_</text>
</a>
</g>
</g>
<!-- Node16&#45;&gt;Node15 -->
<g id="edge18_Node000015_Node000016" class="edge">
<title>Node16&#45;&gt;Node15</title>
<g id="a_edge18_Node000015_Node000016"><a xlink:title=" ">
<path fill="none" stroke="#63b8ff" d="M1076.7,-77.02C1085.88,-79.42 1095.27,-82.1 1104,-85 1148.42,-99.74 1159.53,-104.3 1201,-126 1232.4,-142.43 1266.94,-165.57 1285.47,-178.43"/>
<polygon fill="#63b8ff" stroke="#63b8ff" points="1077.41,-73.59 1066.85,-74.53 1075.69,-80.37 1077.41,-73.59"/>
</a>
</g>
</g>
<!-- Node17 -->
<g id="Node000017" class="node">
<title>Node17</title>
<g id="a_Node000017"><a xlink:href="class_cpl_1_1_t_shell_1_1_processor_api.html" target="_top" xlink:title="This class defines the interface a TShell Command Processor.">
<polygon fill="white" stroke="#666666" points="749,-67.5 612,-67.5 612,-48.5 749,-48.5 749,-67.5"/>
<text text-anchor="middle" x="680.5" y="-55.5" font-family="Helvetica,sans-Serif" font-size="10.00">Cpl::TShell::ProcessorApi</text>
</a>
</g>
</g>
<!-- Node17&#45;&gt;Node16 -->
<g id="edge19_Node000016_Node000017" class="edge">
<title>Node17&#45;&gt;Node16</title>
<g id="a_edge19_Node000016_Node000017"><a xlink:title=" ">
<path fill="none" stroke="#63b8ff" d="M759.39,-59.61C821.27,-60.89 906.42,-62.64 962.43,-63.8"/>
<polygon fill="#63b8ff" stroke="#63b8ff" points="759.36,-56.11 749.29,-59.4 759.21,-63.11 759.36,-56.11"/>
</a>
</g>
</g>
<!-- Node18 -->
<g id="Node000018" class="node">
<title>Node18</title>
<g id="a_Node000018"><a xlink:href="class_cpl_1_1_container_1_1_s_list.html" target="_top" xlink:title=" ">
<polygon fill="white" stroke="#666666" points="1095,-34 948,-34 948,-4 1095,-4 1095,-34"/>
<text text-anchor="start" x="956" y="-22" font-family="Helvetica,sans-Serif" font-size="10.00">Cpl::Container::SList</text>
<text text-anchor="middle" x="1021.5" y="-11" font-family="Helvetica,sans-Serif" font-size="10.00">&lt; Cpl::TShell::Command &gt;</text>
</a>
</g>
</g>
<!-- Node18&#45;&gt;Node15 -->
<g id="edge20_Node000015_Node000018" class="edge">
<title>Node18&#45;&gt;Node15</title>
<g id="a_edge20_Node000015_Node000018"><a xlink:title=" ">
<path fill="none" stroke="#9a32cd" stroke-dasharray="5,2" d="M1104.76,-35.87C1136.54,-44.84 1172.12,-58.04 1201,-77 1243.98,-105.21 1279.62,-157.09 1293.15,-178.44"/>
<polygon fill="#9a32cd" stroke="#9a32cd" points="1105.61,-32.48 1095.04,-33.23 1103.77,-39.23 1105.61,-32.48"/>
</a>
</g>
<text text-anchor="middle" x="1161.5" y="-80" font-family="Helvetica,sans-Serif" font-size="10.00" fill="grey"> m_commands</text>
</g>
<!-- Node19 -->
<g id="Node000019" class="node">
<title>Node19</title>
<g id="a_Node000019"><a xlink:href="class_cpl_1_1_container_1_1_s_list.html" target="_top" xlink:title="This template class implements a singly linked list which maintains the ordering imposed on it by the...">
<polygon fill="white" stroke="#666666" points="738,-30 623,-30 623,0 738,0 738,-30"/>
<text text-anchor="start" x="631" y="-18" font-family="Helvetica,sans-Serif" font-size="10.00">Cpl::Container::SList</text>
<text text-anchor="middle" x="680.5" y="-7" font-family="Helvetica,sans-Serif" font-size="10.00">&lt; ITEM &gt;</text>
</a>
</g>
</g>
<!-- Node19&#45;&gt;Node18 -->
<g id="edge21_Node000018_Node000019" class="edge">
<title>Node19&#45;&gt;Node18</title>
<g id="a_edge21_Node000018_Node000019"><a xlink:title=" ">
<path fill="none" stroke="orange" stroke-dasharray="5,2" d="M748.32,-15.79C805.86,-16.47 888.73,-17.45 947.89,-18.14"/>
<polygon fill="orange" stroke="orange" points="748.28,-12.29 738.24,-15.67 748.2,-19.29 748.28,-12.29"/>
</a>
</g>
<text text-anchor="middle" x="846.5" y="-21" font-family="Helvetica,sans-Serif" font-size="10.00" fill="grey"> &lt; Cpl::TShell::Command &gt;</text>
</g>
<!-- Node20 -->
<g id="Node000020" class="node">
<title>Node20</title>
<g id="a_Node000020"><a xlink:href="class_cpl_1_1_system_1_1_mutex.html" target="_top" xlink:title="This mutex class defines the interface for a mutex that has &quot;recursive&quot; semantics.">
<polygon fill="white" stroke="#666666" points="1077.5,-231.5 965.5,-231.5 965.5,-212.5 1077.5,-212.5 1077.5,-231.5"/>
<text text-anchor="middle" x="1021.5" y="-219.5" font-family="Helvetica,sans-Serif" font-size="10.00">Cpl::System::Mutex</text>
</a>
</g>
</g>
<!-- Node20&#45;&gt;Node15 -->
<g id="edge24_Node000015_Node000020" class="edge">
<title>Node20&#45;&gt;Node15</title>
<g id="a_edge24_Node000015_Node000020"><a xlink:title=" ">
<path fill="none" stroke="#9a32cd" stroke-dasharray="5,2" d="M1087.68,-213.37C1099.11,-211.89 1110.9,-210.38 1122,-209 1160.84,-204.16 1204.52,-198.97 1238.76,-194.97"/>
<polygon fill="#9a32cd" stroke="#9a32cd" points="1087.21,-209.9 1077.75,-214.66 1088.11,-216.84 1087.21,-209.9"/>
</a>
</g>
<text text-anchor="middle" x="1161.5" y="-212" font-family="Helvetica,sans-Serif" font-size="10.00" fill="grey"> m_outLock</text>
</g>
<!-- Node21 -->
<g id="Node000021" class="node">
<title>Node21</title>
<g id="a_Node000021"><a xlink:href="class_cpl_1_1_text_1_1_f_string.html" target="_top" xlink:title=" ">
<polygon fill="white" stroke="#666666" points="1104,-194.5 939,-194.5 939,-153.5 1104,-153.5 1104,-194.5"/>
<text text-anchor="start" x="947" y="-182.5" font-family="Helvetica,sans-Serif" font-size="10.00">Cpl::Text::FString</text>
<text text-anchor="start" x="947" y="-171.5" font-family="Helvetica,sans-Serif" font-size="10.00">&lt; OPTION_CPL_TSHELL</text>
<text text-anchor="middle" x="1021.5" y="-160.5" font-family="Helvetica,sans-Serif" font-size="10.00">_PROCESSOR_OUTPUT_SIZE &gt;</text>
</a>
</g>
</g>
<!-- Node21&#45;&gt;Node15 -->
<g id="edge25_Node000015_Node000021" class="edge">
<title>Node21&#45;&gt;Node15</title>
<g id="a_edge25_Node000015_Node000021"><a xlink:title=" ">
<path fill="none" stroke="#9a32cd" stroke-dasharray="5,2" d="M1114.45,-172.3C1142.28,-172.38 1172.91,-173.07 1201,-175 1213.24,-175.84 1226.29,-177.23 1238.74,-178.79"/>
<polygon fill="#9a32cd" stroke="#9a32cd" points="1114.34,-168.8 1104.33,-172.29 1114.33,-175.8 1114.34,-168.8"/>
</a>
</g>
<text text-anchor="middle" x="1161.5" y="-178" font-family="Helvetica,sans-Serif" font-size="10.00" fill="grey"> m_outputBuffer</text>
</g>
<!-- Node22 -->
<g id="Node000022" class="node">
<title>Node22</title>
<g id="a_Node000022"><a xlink:href="class_cpl_1_1_text_1_1_f_string__.html" target="_top" xlink:title="This mostly concrete class implements a &quot;fixed storage&quot; String Type.">
<polygon fill="white" stroke="#666666" points="551,-163.5 447,-163.5 447,-144.5 551,-144.5 551,-163.5"/>
<text text-anchor="middle" x="499" y="-151.5" font-family="Helvetica,sans-Serif" font-size="10.00">Cpl::Text::FString_</text>
</a>
</g>
</g>
<!-- Node22&#45;&gt;Node21 -->
<g id="edge26_Node000021_Node000022" class="edge">
<title>Node22&#45;&gt;Node21</title>
<g id="a_edge26_Node000021_Node000022"><a xlink:title=" ">
<path fill="none" stroke="#63b8ff" d="M551.46,-165.69C630.82,-182.21 787.84,-208.9 921,-195 926.88,-194.39 932.93,-193.57 939,-192.62"/>
<polygon fill="#63b8ff" stroke="#63b8ff" points="551.76,-162.18 541.25,-163.53 550.31,-169.02 551.76,-162.18"/>
</a>
</g>
</g>
<!-- Node26 -->
<g id="Node000026" class="node">
<title>Node26</title>
<g id="a_Node000026"><a xlink:href="class_cpl_1_1_text_1_1_f_string.html" target="_top" xlink:title="This template class represents a NULL terminated string of a specific length.">
<polygon fill="white" stroke="#666666" points="744,-163.5 617,-163.5 617,-144.5 744,-144.5 744,-163.5"/>
<text text-anchor="middle" x="680.5" y="-151.5" font-family="Helvetica,sans-Serif" font-size="10.00">Cpl::Text::FString&lt; S &gt;</text>
</a>
</g>
</g>
<!-- Node22&#45;&gt;Node26 -->
<g id="edge31_Node000026_Node000022" class="edge">
<title>Node22&#45;&gt;Node26</title>
<g id="a_edge31_Node000026_Node000022"><a xlink:title=" ">
<path fill="none" stroke="#63b8ff" d="M561.47,-154C579.37,-154 598.93,-154 616.9,-154"/>
<polygon fill="#63b8ff" stroke="#63b8ff" points="561.44,-150.5 551.44,-154 561.44,-157.5 561.44,-150.5"/>
</a>
</g>
</g>
<!-- Node27 -->
<g id="Node000027" class="node">
<title>Node27</title>
<g id="a_Node000027"><a xlink:href="class_cpl_1_1_text_1_1_f_string.html" target="_top" xlink:title=" ">
<polygon fill="white" stroke="#666666" points="1099,-135.5 944,-135.5 944,-94.5 1099,-94.5 1099,-135.5"/>
<text text-anchor="start" x="952" y="-123.5" font-family="Helvetica,sans-Serif" font-size="10.00">Cpl::Text::FString</text>
<text text-anchor="start" x="952" y="-112.5" font-family="Helvetica,sans-Serif" font-size="10.00">&lt; OPTION_CPL_TSHELL</text>
<text text-anchor="middle" x="1021.5" y="-101.5" font-family="Helvetica,sans-Serif" font-size="10.00">_PROCESSOR_INPUT_SIZE &gt;</text>
</a>
</g>
</g>
<!-- Node22&#45;&gt;Node27 -->
<g id="edge33_Node000027_Node000022" class="edge">
<title>Node22&#45;&gt;Node27</title>
<g id="a_edge33_Node000027_Node000022"><a xlink:title=" ">
<path fill="none" stroke="#63b8ff" d="M559.86,-142.7C575.2,-139.99 591.69,-137.24 607,-135 680.04,-124.32 698.31,-120.38 772,-116 829.49,-112.58 894.6,-112.46 943.75,-113.12"/>
<polygon fill="#63b8ff" stroke="#63b8ff" points="559.21,-139.27 549.98,-144.47 560.44,-146.16 559.21,-139.27"/>
</a>
</g>
</g>
<!-- Node23 -->
<g id="Node000023" class="node">
<title>Node23</title>
<g id="a_Node000023"><a xlink:href="class_cpl_1_1_text_1_1_string__.html" target="_top" xlink:title="This partially concrete class implements the portions of the String Api that is independent of the in...">
<polygon fill="white" stroke="#666666" points="383,-163.5 285,-163.5 285,-144.5 383,-144.5 383,-163.5"/>
<text text-anchor="middle" x="334" y="-151.5" font-family="Helvetica,sans-Serif" font-size="10.00">Cpl::Text::String_</text>
</a>
</g>
</g>
<!-- Node23&#45;&gt;Node22 -->
<g id="edge27_Node000022_Node000023" class="edge">
<title>Node23&#45;&gt;Node22</title>
<g id="a_edge27_Node000022_Node000023"><a xlink:title=" ">
<path fill="none" stroke="#63b8ff" d="M393.15,-154C410.71,-154 429.85,-154 446.91,-154"/>
<polygon fill="#63b8ff" stroke="#63b8ff" points="393.02,-150.5 383.02,-154 393.02,-157.5 393.02,-150.5"/>
</a>
</g>
</g>
<!-- Node24 -->
<g id="Node000024" class="node">
<title>Node24</title>
<g id="a_Node000024"><a xlink:href="class_cpl_1_1_text_1_1_string.html" target="_top" xlink:title="This abstract class defines the operations that can be before on a NULL terminated string.">
<polygon fill="white" stroke="#666666" points="240,-163.5 147,-163.5 147,-144.5 240,-144.5 240,-163.5"/>
<text text-anchor="middle" x="193.5" y="-151.5" font-family="Helvetica,sans-Serif" font-size="10.00">Cpl::Text::String</text>
</a>
</g>
</g>
<!-- Node24&#45;&gt;Node23 -->
<g id="edge28_Node000023_Node000024" class="edge">
<title>Node24&#45;&gt;Node23</title>
<g id="a_edge28_Node000023_Node000024"><a xlink:title=" ">
<path fill="none" stroke="#63b8ff" d="M250.53,-154C261.94,-154 273.84,-154 284.94,-154"/>
<polygon fill="#63b8ff" stroke="#63b8ff" points="250.23,-150.5 240.23,-154 250.23,-157.5 250.23,-150.5"/>
</a>
</g>
</g>
<!-- Node25 -->
<g id="Node000025" class="node">
<title>Node25</title>
<g id="a_Node000025"><a xlink:href="class_cpl_1_1_container_1_1_key.html" target="_top" xlink:title="This abstract class defines the interface that a contained object must support if it has comparable k...">
<polygon fill="white" stroke="#666666" points="110,-163.5 0,-163.5 0,-144.5 110,-144.5 110,-163.5"/>
<text text-anchor="middle" x="55" y="-151.5" font-family="Helvetica,sans-Serif" font-size="10.00">Cpl::Container::Key</text>
</a>
</g>
</g>
<!-- Node25&#45;&gt;Node24 -->
<g id="edge29_Node000024_Node000025" class="edge">
<title>Node25&#45;&gt;Node24</title>
<g id="a_edge29_Node000024_Node000025"><a xlink:title=" ">
<path fill="none" stroke="#63b8ff" d="M120.61,-154C129.42,-154 138.31,-154 146.7,-154"/>
<polygon fill="#63b8ff" stroke="#63b8ff" points="120.34,-150.5 110.34,-154 120.34,-157.5 120.34,-150.5"/>
</a>
</g>
</g>
<!-- Node26&#45;&gt;Node21 -->
<g id="edge30_Node000021_Node000026" class="edge">
<title>Node26&#45;&gt;Node21</title>
<g id="a_edge30_Node000021_Node000026"><a xlink:title=" ">
<path fill="none" stroke="orange" stroke-dasharray="5,2" d="M754.3,-158.29C808.5,-161.49 882.53,-165.86 938.77,-169.18"/>
<polygon fill="orange" stroke="orange" points="754.26,-154.79 744.07,-157.69 753.85,-161.77 754.26,-154.79"/>
</a>
</g>
<text text-anchor="start" x="772" y="-183" font-family="Helvetica,sans-Serif" font-size="10.00" fill="grey"> &lt; OPTION_CPL_TSHELL</text>
<text text-anchor="middle" x="846.5" y="-172" font-family="Helvetica,sans-Serif" font-size="10.00" fill="grey">_PROCESSOR_OUTPUT_SIZE &gt;</text>
</g>
<!-- Node26&#45;&gt;Node27 -->
<g id="edge34_Node000027_Node000026" class="edge">
<title>Node26&#45;&gt;Node27</title>
<g id="a_edge34_Node000027_Node000026"><a xlink:title=" ">
<path fill="none" stroke="orange" stroke-dasharray="5,2" d="M728.93,-142.2C742.74,-139.12 757.91,-136.08 772,-134 829.25,-125.53 894.51,-120.72 943.78,-118.07"/>
<polygon fill="orange" stroke="orange" points="728.12,-138.79 719.15,-144.43 729.68,-145.62 728.12,-138.79"/>
</a>
</g>
<text text-anchor="start" x="777" y="-148" font-family="Helvetica,sans-Serif" font-size="10.00" fill="grey"> &lt; OPTION_CPL_TSHELL</text>
<text text-anchor="middle" x="846.5" y="-137" font-family="Helvetica,sans-Serif" font-size="10.00" fill="grey">_PROCESSOR_INPUT_SIZE &gt;</text>
</g>
<!-- Node27&#45;&gt;Node15 -->
<g id="edge32_Node000015_Node000027" class="edge">
<title>Node27&#45;&gt;Node15</title>
<g id="a_edge32_Node000015_Node000027"><a xlink:title=" ">
<path fill="none" stroke="#9a32cd" stroke-dasharray="5,2" d="M1109.59,-126.69C1138.95,-131.67 1171.69,-138.36 1201,-147 1229.13,-155.3 1260.12,-169.1 1279.57,-178.37"/>
<polygon fill="#9a32cd" stroke="#9a32cd" points="1109.79,-123.18 1099.36,-125 1108.65,-130.08 1109.79,-123.18"/>
</a>
</g>
<text text-anchor="middle" x="1161.5" y="-161" font-family="Helvetica,sans-Serif" font-size="10.00" fill="grey"> m_tokenBuffer</text>
<text text-anchor="middle" x="1161.5" y="-150" font-family="Helvetica,sans-Serif" font-size="10.00" fill="grey">m_tokenBuffer2</text>
</g>
</g>
</svg>
