<?xml version="1.0" encoding="UTF-8" standalone="no"?>
<!DOCTYPE svg PUBLIC "-//W3C//DTD SVG 1.1//EN"
 "http://www.w3.org/Graphics/SVG/1.1/DTD/svg11.dtd">
<!-- Generated by graphviz version 2.43.0 (0)
 -->
<!-- Title: Cpl::Text::Frame::Decoder Pages: 1 -->
<svg width="1079pt" height="144pt"
 viewBox="0.00 0.00 1079.00 144.43" xmlns="http://www.w3.org/2000/svg" xmlns:xlink="http://www.w3.org/1999/xlink">
<g id="graph0" class="graph" transform="scale(1 1) rotate(0) translate(4 140.43)">
<title>Cpl::Text::Frame::Decoder</title>
<!-- Node1 -->
<g id="Node000001" class="node">
<title>Node1</title>
<g id="a_Node000001"><a xlink:title="This class defines an interface for &#39;receiving&#39; (decode) a frame.">
<polygon fill="#999999" stroke="#666666" points="142,-56 0,-56 0,-37 142,-37 142,-56"/>
<text text-anchor="middle" x="71" y="-44" font-family="Helvetica,sans-Serif" font-size="10.00">Cpl::Text::Frame::Decoder</text>
</a>
</g>
</g>
<!-- Node2 -->
<g id="Node000002" class="node">
<title>Node2</title>
<g id="a_Node000002"><a xlink:href="class_cpl_1_1_text_1_1_frame_1_1_decoder__.html" target="_top" xlink:title="This private partially concrete class implements the basic/common logic for a frame decoder.">
<polygon fill="white" stroke="#666666" points="326,-56 179,-56 179,-37 326,-37 326,-56"/>
<text text-anchor="middle" x="252.5" y="-44" font-family="Helvetica,sans-Serif" font-size="10.00">Cpl::Text::Frame::Decoder_</text>
</a>
</g>
</g>
<!-- Node1&#45;&gt;Node2 -->
<g id="edge1_Node000001_Node000002" class="edge">
<title>Node1&#45;&gt;Node2</title>
<g id="a_edge1_Node000001_Node000002"><a xlink:title=" ">
<path fill="none" stroke="#63b8ff" d="M152.39,-46.5C161.16,-46.5 170.05,-46.5 178.72,-46.5"/>
<polygon fill="#63b8ff" stroke="#63b8ff" points="152.17,-43 142.17,-46.5 152.17,-50 152.17,-43"/>
</a>
</g>
</g>
<!-- Node3 -->
<g id="Node000003" class="node">
<title>Node3</title>
<g id="a_Node000003"><a xlink:href="class_cpl_1_1_text_1_1_frame_1_1_stream_decoder.html" target="_top" xlink:title="This partially concrete class defines an interface a Text &quot;Decoder&quot; that has a Cpl::Io::Input stream ...">
<polygon fill="white" stroke="#666666" points="500,-97.5 363,-97.5 363,-67.5 500,-67.5 500,-97.5"/>
<text text-anchor="start" x="371" y="-85.5" font-family="Helvetica,sans-Serif" font-size="10.00">Cpl::Text::Frame::Stream</text>
<text text-anchor="middle" x="431.5" y="-74.5" font-family="Helvetica,sans-Serif" font-size="10.00">Decoder</text>
</a>
</g>
</g>
<!-- Node2&#45;&gt;Node3 -->
<g id="edge2_Node000002_Node000003" class="edge">
<title>Node2&#45;&gt;Node3</title>
<g id="a_edge2_Node000002_Node000003"><a xlink:title=" ">
<path fill="none" stroke="#63b8ff" d="M310.62,-58.12C327.31,-61.51 345.71,-65.26 362.99,-68.77"/>
<polygon fill="#63b8ff" stroke="#63b8ff" points="310.97,-54.62 300.47,-56.05 309.57,-61.48 310.97,-54.62"/>
</a>
</g>
</g>
<!-- Node8 -->
<g id="Node000008" class="node">
<title>Node8</title>
<g id="a_Node000008"><a xlink:href="class_cpl_1_1_text_1_1_frame_1_1_string_decoder.html" target="_top" xlink:title="This concrete class defines an interface a Text &quot;Decoder&quot; that accepts a null terminated string as it...">
<polygon fill="white" stroke="#666666" points="496.5,-49.5 366.5,-49.5 366.5,-19.5 496.5,-19.5 496.5,-49.5"/>
<text text-anchor="start" x="374.5" y="-37.5" font-family="Helvetica,sans-Serif" font-size="10.00">Cpl::Text::Frame::String</text>
<text text-anchor="middle" x="431.5" y="-26.5" font-family="Helvetica,sans-Serif" font-size="10.00">Decoder</text>
</a>
</g>
</g>
<!-- Node2&#45;&gt;Node8 -->
<g id="edge8_Node000002_Node000008" class="edge">
<title>Node2&#45;&gt;Node8</title>
<g id="a_edge8_Node000002_Node000008"><a xlink:title=" ">
<path fill="none" stroke="#63b8ff" d="M336.1,-40.9C346.26,-40.21 356.51,-39.52 366.34,-38.85"/>
<polygon fill="#63b8ff" stroke="#63b8ff" points="335.74,-37.42 326,-41.58 336.22,-44.4 335.74,-37.42"/>
</a>
</g>
</g>
<!-- Node4 -->
<g id="Node000004" class="node">
<title>Node4</title>
<g id="a_Node000004"><a xlink:href="class_cpl_1_1_text_1_1_frame_1_1_line_decoder.html" target="_top" xlink:title=" ">
<polygon fill="white" stroke="#666666" points="1071,-118 877,-118 877,-77 1071,-77 1071,-118"/>
<text text-anchor="start" x="885" y="-106" font-family="Helvetica,sans-Serif" font-size="10.00">Cpl::Text::Frame::LineDecoder</text>
<text text-anchor="start" x="885" y="-95" font-family="Helvetica,sans-Serif" font-size="10.00">&lt; OPTION_CPL_TSHELL_PROCESSOR</text>
<text text-anchor="middle" x="974" y="-84" font-family="Helvetica,sans-Serif" font-size="10.00">_INPUT_SIZE &gt;</text>
</a>
</g>
</g>
<!-- Node3&#45;&gt;Node4 -->
<g id="edge3_Node000003_Node000004" class="edge">
<title>Node3&#45;&gt;Node4</title>
<g id="a_edge3_Node000003_Node000004"><a xlink:title=" ">
<path fill="none" stroke="#63b8ff" d="M470.4,-101.81C489.78,-110.62 514.07,-120.06 537,-124.5 652.41,-146.82 787.9,-132.22 876.85,-117.22"/>
<polygon fill="#63b8ff" stroke="#63b8ff" points="471.85,-98.63 461.31,-97.57 468.89,-104.97 471.85,-98.63"/>
</a>
</g>
</g>
<!-- Node5 -->
<g id="Node000005" class="node">
<title>Node5</title>
<g id="a_Node000005"><a xlink:href="class_cpl_1_1_text_1_1_frame_1_1_ascii_decoder.html" target="_top" xlink:title="This concrete template class provide a basic implementation of the Frame::Decoder interface that uses...">
<polygon fill="white" stroke="#666666" points="702,-115.5 537,-115.5 537,-85.5 702,-85.5 702,-115.5"/>
<text text-anchor="start" x="545" y="-103.5" font-family="Helvetica,sans-Serif" font-size="10.00">Cpl::Text::Frame::AsciiDecoder</text>
<text text-anchor="middle" x="619.5" y="-92.5" font-family="Helvetica,sans-Serif" font-size="10.00">&lt; BUFSIZE &gt;</text>
</a>
</g>
</g>
<!-- Node3&#45;&gt;Node5 -->
<g id="edge4_Node000003_Node000005" class="edge">
<title>Node3&#45;&gt;Node5</title>
<g id="a_edge4_Node000003_Node000005"><a xlink:title=" ">
<path fill="none" stroke="#63b8ff" d="M510.38,-90.04C519.16,-90.89 528.12,-91.75 536.95,-92.61"/>
<polygon fill="#63b8ff" stroke="#63b8ff" points="510.47,-86.53 500.18,-89.05 509.79,-93.5 510.47,-86.53"/>
</a>
</g>
</g>
<!-- Node6 -->
<g id="Node000006" class="node">
<title>Node6</title>
<g id="a_Node000006"><a xlink:href="class_cpl_1_1_text_1_1_frame_1_1_line_decoder.html" target="_top" xlink:title="This concrete template class provide a basic implementation of the Frame::Decoder interface that uses...">
<polygon fill="white" stroke="#666666" points="700.5,-67.5 538.5,-67.5 538.5,-37.5 700.5,-37.5 700.5,-67.5"/>
<text text-anchor="start" x="546.5" y="-55.5" font-family="Helvetica,sans-Serif" font-size="10.00">Cpl::Text::Frame::LineDecoder</text>
<text text-anchor="middle" x="619.5" y="-44.5" font-family="Helvetica,sans-Serif" font-size="10.00">&lt; BUFSIZE &gt;</text>
</a>
</g>
</g>
<!-- Node3&#45;&gt;Node6 -->
<g id="edge5_Node000003_Node000006" class="edge">
<title>Node3&#45;&gt;Node6</title>
<g id="a_edge5_Node000003_Node000006"><a xlink:title=" ">
<path fill="none" stroke="#63b8ff" d="M510.14,-69.98C519.42,-68.48 528.91,-66.95 538.23,-65.45"/>
<polygon fill="#63b8ff" stroke="#63b8ff" points="509.49,-66.54 500.18,-71.58 510.61,-73.45 509.49,-66.54"/>
</a>
</g>
</g>
<!-- Node7 -->
<g id="Node000007" class="node">
<title>Node7</title>
<g id="a_Node000007"><a xlink:href="class_driver_1_1_t_pipe_1_1_maker.html" target="_top" xlink:title="This concrete class is a &quot;Maker&quot; that assembles the objects needed for TPipe.">
<polygon fill="white" stroke="#666666" points="677.5,-19 561.5,-19 561.5,0 677.5,0 677.5,-19"/>
<text text-anchor="middle" x="619.5" y="-7" font-family="Helvetica,sans-Serif" font-size="10.00">Driver::TPipe::Maker</text>
</a>
</g>
</g>
<!-- Node3&#45;&gt;Node7 -->
<g id="edge7_Node000003_Node000007" class="edge">
<title>Node3&#45;&gt;Node7</title>
<g id="a_edge7_Node000003_Node000007"><a xlink:title=" ">
<path fill="none" stroke="#63b8ff" d="M490.58,-63.33C493.82,-61.81 496.98,-60.19 500,-58.5 518.46,-48.14 517.98,-37.81 537,-28.5 544.83,-24.67 553.47,-21.59 562.1,-19.12"/>
<polygon fill="#63b8ff" stroke="#63b8ff" points="489.07,-60.17 481.32,-67.39 491.88,-66.58 489.07,-60.17"/>
</a>
</g>
</g>
<!-- Node6&#45;&gt;Node4 -->
<g id="edge6_Node000006_Node000004" class="edge">
<title>Node6&#45;&gt;Node4</title>
<g id="a_edge6_Node000006_Node000004"><a xlink:title=" ">
<path fill="none" stroke="orange" stroke-dasharray="5,2" d="M710.92,-64.04C761.76,-70.53 825.21,-78.63 876.94,-85.24"/>
<polygon fill="orange" stroke="orange" points="711.29,-60.56 700.93,-62.77 710.41,-67.51 711.29,-60.56"/>
</a>
</g>
<text text-anchor="start" x="720" y="-96.5" font-family="Helvetica,sans-Serif" font-size="10.00" fill="grey"> &lt; OPTION_CPL_TSHELL</text>
<text text-anchor="middle" x="789.5" y="-85.5" font-family="Helvetica,sans-Serif" font-size="10.00" fill="grey">_PROCESSOR_INPUT_SIZE &gt;</text>
</g>
</g>
</svg>
