<?xml version="1.0" encoding="UTF-8" standalone="no"?>
<!DOCTYPE svg PUBLIC "-//W3C//DTD SVG 1.1//EN"
 "http://www.w3.org/Graphics/SVG/1.1/DTD/svg11.dtd">
<!-- Generated by graphviz version 2.43.0 (0)
 -->
<!-- Title: Cpl::Itc::MailboxServer Pages: 1 -->
<svg width="937pt" height="224pt"
 viewBox="0.00 0.00 937.00 224.00" xmlns="http://www.w3.org/2000/svg" xmlns:xlink="http://www.w3.org/1999/xlink">
<g id="graph0" class="graph" transform="scale(1 1) rotate(0) translate(4 220)">
<title>Cpl::Itc::MailboxServer</title>
<!-- Node1 -->
<g id="Node000001" class="node">
<title>Node1</title>
<g id="a_Node000001"><a xlink:title="This class collects the common functions of a generic server providing a mailbox and Event loop.">
<polygon fill="#999999" stroke="#666666" points="749,-132 622,-132 622,-113 749,-113 749,-132"/>
<text text-anchor="middle" x="685.5" y="-120" font-family="Helvetica,sans-Serif" font-size="10.00">Cpl::Itc::MailboxServer</text>
</a>
</g>
</g>
<!-- Node13 -->
<g id="Node000013" class="node">
<title>Node13</title>
<g id="a_Node000013"><a xlink:href="class_cpl_1_1_itc_1_1_periodic_scheduler.html" target="_top" xlink:title="This class extends the Cpl::Itc::MailboxServer class to add periodic scheduling to an event based &#39;th...">
<polygon fill="white" stroke="#666666" points="929,-132 786,-132 786,-113 929,-113 929,-132"/>
<text text-anchor="middle" x="857.5" y="-120" font-family="Helvetica,sans-Serif" font-size="10.00">Cpl::Itc::PeriodicScheduler</text>
</a>
</g>
</g>
<!-- Node1&#45;&gt;Node13 -->
<g id="edge12_Node000001_Node000013" class="edge">
<title>Node1&#45;&gt;Node13</title>
<g id="a_edge12_Node000001_Node000013"><a xlink:title=" ">
<path fill="none" stroke="#63b8ff" d="M759.5,-122.5C768.26,-122.5 777.19,-122.5 785.92,-122.5"/>
<polygon fill="#63b8ff" stroke="#63b8ff" points="759.32,-119 749.32,-122.5 759.32,-126 759.32,-119"/>
</a>
</g>
</g>
<!-- Node2 -->
<g id="Node000002" class="node">
<title>Node2</title>
<g id="a_Node000002"><a xlink:href="class_cpl_1_1_itc_1_1_mailbox.html" target="_top" xlink:title="This mailbox class implements an Inter Thread Communications message queue.">
<polygon fill="white" stroke="#666666" points="566.5,-173 471.5,-173 471.5,-154 566.5,-154 566.5,-173"/>
<text text-anchor="middle" x="519" y="-161" font-family="Helvetica,sans-Serif" font-size="10.00">Cpl::Itc::Mailbox</text>
</a>
</g>
</g>
<!-- Node2&#45;&gt;Node1 -->
<g id="edge1_Node000001_Node000002" class="edge">
<title>Node2&#45;&gt;Node1</title>
<g id="a_edge1_Node000001_Node000002"><a xlink:title=" ">
<path fill="none" stroke="#63b8ff" d="M568.12,-151.51C593.02,-145.3 622.98,-137.83 646.27,-132.03"/>
<polygon fill="#63b8ff" stroke="#63b8ff" points="567.01,-148.18 558.15,-153.99 568.7,-154.97 567.01,-148.18"/>
</a>
</g>
</g>
<!-- Node3 -->
<g id="Node000003" class="node">
<title>Node3</title>
<g id="a_Node000003"><a xlink:href="class_cpl_1_1_itc_1_1_post_api.html" target="_top" xlink:title="This abstract class represents the interface used to send messages to a mailbox.">
<polygon fill="white" stroke="#666666" points="386.5,-216 293.5,-216 293.5,-197 386.5,-197 386.5,-216"/>
<text text-anchor="middle" x="340" y="-204" font-family="Helvetica,sans-Serif" font-size="10.00">Cpl::Itc::PostApi</text>
</a>
</g>
</g>
<!-- Node3&#45;&gt;Node2 -->
<g id="edge2_Node000002_Node000003" class="edge">
<title>Node3&#45;&gt;Node2</title>
<g id="a_edge2_Node000002_Node000003"><a xlink:title=" ">
<path fill="none" stroke="#63b8ff" d="M390.26,-194.53C418.22,-187.74 452.73,-179.36 478.83,-173.02"/>
<polygon fill="#63b8ff" stroke="#63b8ff" points="389.17,-191.2 380.28,-196.96 390.83,-198 389.17,-191.2"/>
</a>
</g>
</g>
<!-- Node4 -->
<g id="Node000004" class="node">
<title>Node4</title>
<g id="a_Node000004"><a xlink:href="class_cpl_1_1_container_1_1_s_list.html" target="_top" xlink:title=" ">
<polygon fill="white" stroke="#666666" points="397.5,-178.5 282.5,-178.5 282.5,-148.5 397.5,-148.5 397.5,-178.5"/>
<text text-anchor="start" x="290.5" y="-166.5" font-family="Helvetica,sans-Serif" font-size="10.00">Cpl::Container::SList</text>
<text text-anchor="middle" x="340" y="-155.5" font-family="Helvetica,sans-Serif" font-size="10.00">&lt; Message &gt;</text>
</a>
</g>
</g>
<!-- Node4&#45;&gt;Node2 -->
<g id="edge3_Node000002_Node000004" class="edge">
<title>Node4&#45;&gt;Node2</title>
<g id="a_edge3_Node000002_Node000004"><a xlink:title=" ">
<path fill="none" stroke="#63b8ff" d="M408.18,-163.5C429.29,-163.5 452.13,-163.5 471.48,-163.5"/>
<polygon fill="#63b8ff" stroke="#63b8ff" points="407.98,-160 397.98,-163.5 407.98,-167 407.98,-160"/>
</a>
</g>
</g>
<!-- Node5 -->
<g id="Node000005" class="node">
<title>Node5</title>
<g id="a_Node000005"><a xlink:href="class_cpl_1_1_container_1_1_s_list.html" target="_top" xlink:title="This template class implements a singly linked list which maintains the ordering imposed on it by the...">
<polygon fill="white" stroke="#666666" points="136.5,-178.5 21.5,-178.5 21.5,-148.5 136.5,-148.5 136.5,-178.5"/>
<text text-anchor="start" x="29.5" y="-166.5" font-family="Helvetica,sans-Serif" font-size="10.00">Cpl::Container::SList</text>
<text text-anchor="middle" x="79" y="-155.5" font-family="Helvetica,sans-Serif" font-size="10.00">&lt; ITEM &gt;</text>
</a>
</g>
</g>
<!-- Node5&#45;&gt;Node4 -->
<g id="edge4_Node000004_Node000005" class="edge">
<title>Node5&#45;&gt;Node4</title>
<g id="a_edge4_Node000004_Node000005"><a xlink:title=" ">
<path fill="none" stroke="orange" stroke-dasharray="5,2" d="M146.65,-163.5C188.61,-163.5 242.2,-163.5 282.16,-163.5"/>
<polygon fill="orange" stroke="orange" points="146.52,-160 136.52,-163.5 146.52,-167 146.52,-160"/>
</a>
</g>
<text text-anchor="middle" x="211" y="-166.5" font-family="Helvetica,sans-Serif" font-size="10.00" fill="grey"> &lt; Message &gt;</text>
</g>
<!-- Node6 -->
<g id="Node000006" class="node">
<title>Node6</title>
<g id="a_Node000006"><a xlink:href="class_cpl_1_1_system_1_1_event_loop.html" target="_top" xlink:title="This concrete class is a Runnable object that provides a event driven execution model for a thread.">
<polygon fill="white" stroke="#666666" points="585,-93 453,-93 453,-74 585,-74 585,-93"/>
<text text-anchor="middle" x="519" y="-81" font-family="Helvetica,sans-Serif" font-size="10.00">Cpl::System::EventLoop</text>
</a>
</g>
</g>
<!-- Node6&#45;&gt;Node1 -->
<g id="edge5_Node000001_Node000006" class="edge">
<title>Node6&#45;&gt;Node1</title>
<g id="a_edge5_Node000001_Node000006"><a xlink:title=" ">
<path fill="none" stroke="#63b8ff" d="M570.15,-95.39C593.96,-101.03 622.02,-107.69 644.39,-112.99"/>
<polygon fill="#63b8ff" stroke="#63b8ff" points="570.78,-91.94 560.24,-93.04 569.16,-98.75 570.78,-91.94"/>
</a>
</g>
</g>
<!-- Node7 -->
<g id="Node000007" class="node">
<title>Node7</title>
<g id="a_Node000007"><a xlink:href="class_cpl_1_1_system_1_1_runnable.html" target="_top" xlink:title="This is an abstract class defines the interface for an object that is &quot;executed&quot; when a Thread object...">
<polygon fill="white" stroke="#666666" points="403.5,-130 276.5,-130 276.5,-111 403.5,-111 403.5,-130"/>
<text text-anchor="middle" x="340" y="-118" font-family="Helvetica,sans-Serif" font-size="10.00">Cpl::System::Runnable</text>
</a>
</g>
</g>
<!-- Node7&#45;&gt;Node6 -->
<g id="edge6_Node000006_Node000007" class="edge">
<title>Node7&#45;&gt;Node6</title>
<g id="a_edge6_Node000006_Node000007"><a xlink:title=" ">
<path fill="none" stroke="#63b8ff" d="M396.42,-108.92C420.8,-103.82 449.11,-97.9 472.27,-93.06"/>
<polygon fill="#63b8ff" stroke="#63b8ff" points="395.65,-105.5 386.58,-110.97 397.09,-112.35 395.65,-105.5"/>
</a>
</g>
</g>
<!-- Node8 -->
<g id="Node000008" class="node">
<title>Node8</title>
<g id="a_Node000008"><a xlink:href="class_cpl_1_1_system_1_1_event_flag.html" target="_top" xlink:title="This abstract class defines the interface to generated a &#39;Event Flag&#39;.">
<polygon fill="white" stroke="#666666" points="405,-93 275,-93 275,-74 405,-74 405,-93"/>
<text text-anchor="middle" x="340" y="-81" font-family="Helvetica,sans-Serif" font-size="10.00">Cpl::System::EventFlag</text>
</a>
</g>
</g>
<!-- Node8&#45;&gt;Node6 -->
<g id="edge7_Node000006_Node000008" class="edge">
<title>Node8&#45;&gt;Node6</title>
<g id="a_edge7_Node000006_Node000008"><a xlink:title=" ">
<path fill="none" stroke="#63b8ff" d="M415.48,-83.5C427.9,-83.5 440.71,-83.5 452.88,-83.5"/>
<polygon fill="#63b8ff" stroke="#63b8ff" points="415.15,-80 405.15,-83.5 415.15,-87 415.15,-80"/>
</a>
</g>
</g>
<!-- Node9 -->
<g id="Node000009" class="node">
<title>Node9</title>
<g id="a_Node000009"><a xlink:href="class_cpl_1_1_system_1_1_signable.html" target="_top" xlink:title="This abstract class defines the interface by which a client can cause an object that is waiting&#45;on&#45;a&#45;...">
<polygon fill="white" stroke="#666666" points="401.5,-56 278.5,-56 278.5,-37 401.5,-37 401.5,-56"/>
<text text-anchor="middle" x="340" y="-44" font-family="Helvetica,sans-Serif" font-size="10.00">Cpl::System::Signable</text>
</a>
</g>
</g>
<!-- Node9&#45;&gt;Node6 -->
<g id="edge8_Node000006_Node000009" class="edge">
<title>Node9&#45;&gt;Node6</title>
<g id="a_edge8_Node000006_Node000009"><a xlink:title=" ">
<path fill="none" stroke="#63b8ff" d="M396.42,-58.08C420.8,-63.18 449.11,-69.1 472.27,-73.94"/>
<polygon fill="#63b8ff" stroke="#63b8ff" points="397.09,-54.65 386.58,-56.03 395.65,-61.5 397.09,-54.65"/>
</a>
</g>
</g>
<!-- Node10 -->
<g id="Node000010" class="node">
<title>Node10</title>
<g id="a_Node000010"><a xlink:href="class_cpl_1_1_container_1_1_item.html" target="_top" xlink:title="This class is used by the Container classes to implement a various types of singly linked containers.">
<polygon fill="white" stroke="#666666" points="136,-56 22,-56 22,-37 136,-37 136,-56"/>
<text text-anchor="middle" x="79" y="-44" font-family="Helvetica,sans-Serif" font-size="10.00">Cpl::Container::Item</text>
</a>
</g>
</g>
<!-- Node10&#45;&gt;Node9 -->
<g id="edge9_Node000009_Node000010" class="edge">
<title>Node10&#45;&gt;Node9</title>
<g id="a_edge9_Node000009_Node000010"><a xlink:title=" ">
<path fill="none" stroke="#63b8ff" d="M146.3,-46.5C187.01,-46.5 238.77,-46.5 278.39,-46.5"/>
<polygon fill="#63b8ff" stroke="#63b8ff" points="146.2,-43 136.2,-46.5 146.2,-50 146.2,-43"/>
</a>
</g>
</g>
<!-- Node11 -->
<g id="Node000011" class="node">
<title>Node11</title>
<g id="a_Node000011"><a xlink:href="class_cpl_1_1_system_1_1_timer_manager.html" target="_top" xlink:title="This mostly concrete class implements manages a list of Software Timers.">
<polygon fill="white" stroke="#666666" points="416,-19 264,-19 264,0 416,0 416,-19"/>
<text text-anchor="middle" x="340" y="-7" font-family="Helvetica,sans-Serif" font-size="10.00">Cpl::System::TimerManager</text>
</a>
</g>
</g>
<!-- Node11&#45;&gt;Node6 -->
<g id="edge10_Node000006_Node000011" class="edge">
<title>Node11&#45;&gt;Node6</title>
<g id="a_edge10_Node000006_Node000011"><a xlink:title=" ">
<path fill="none" stroke="#63b8ff" d="M398.98,-21.77C404.8,-23.49 410.56,-25.4 416,-27.5 448.79,-40.17 484.13,-61.49 503.4,-73.84"/>
<polygon fill="#63b8ff" stroke="#63b8ff" points="399.77,-18.35 389.19,-19.05 397.89,-25.1 399.77,-18.35"/>
</a>
</g>
</g>
<!-- Node12 -->
<g id="Node000012" class="node">
<title>Node12</title>
<g id="a_Node000012"><a xlink:href="class_cpl_1_1_system_1_1_counter_source__.html" target="_top" xlink:title="This abstract class defines the interface for registering for an Counter object with the Timer Manage...">
<polygon fill="white" stroke="#666666" points="158,-19 0,-19 0,0 158,0 158,-19"/>
<text text-anchor="middle" x="79" y="-7" font-family="Helvetica,sans-Serif" font-size="10.00">Cpl::System::CounterSource_</text>
</a>
</g>
</g>
<!-- Node12&#45;&gt;Node11 -->
<g id="edge11_Node000011_Node000012" class="edge">
<title>Node12&#45;&gt;Node11</title>
<g id="a_edge11_Node000011_Node000012"><a xlink:title=" ">
<path fill="none" stroke="#63b8ff" d="M168.43,-9.5C199.43,-9.5 233.95,-9.5 263.77,-9.5"/>
<polygon fill="#63b8ff" stroke="#63b8ff" points="168.06,-6 158.06,-9.5 168.06,-13 168.06,-6"/>
</a>
</g>
</g>
</g>
</svg>
