<?xml version="1.0" encoding="UTF-8" standalone="no"?>
<!DOCTYPE svg PUBLIC "-//W3C//DTD SVG 1.1//EN"
 "http://www.w3.org/Graphics/SVG/1.1/DTD/svg11.dtd">
<!-- Generated by graphviz version 2.43.0 (0)
 -->
<!-- Title: Cpl::TShell::PolledProcessor Pages: 1 -->
<svg width="1538pt" height="386pt"
 viewBox="0.00 0.00 1538.00 386.00" xmlns="http://www.w3.org/2000/svg" xmlns:xlink="http://www.w3.org/1999/xlink">
<g id="graph0" class="graph" transform="scale(1 1) rotate(0) translate(4 382)">
<title>Cpl::TShell::PolledProcessor</title>
<!-- Node1 -->
<g id="Node000001" class="node">
<title>Node1</title>
<g id="a_Node000001"><a xlink:title="This concrete class provides a non&#45;blocking implementation of Command PolledProcessor for a TShell en...">
<polygon fill="#999999" stroke="#666666" points="1530,-124 1378,-124 1378,-105 1530,-105 1530,-124"/>
<text text-anchor="middle" x="1454" y="-112" font-family="Helvetica,sans-Serif" font-size="10.00">Cpl::TShell::PolledProcessor</text>
</a>
</g>
</g>
<!-- Node2 -->
<g id="Node000002" class="node">
<title>Node2</title>
<g id="a_Node000002"><a xlink:href="class_cpl_1_1_t_shell_1_1_processor.html" target="_top" xlink:title="This concrete class provides the implementation of Command Processor for a TShell engine.">
<polygon fill="white" stroke="#666666" points="1341,-170 1219,-170 1219,-151 1341,-151 1341,-170"/>
<text text-anchor="middle" x="1280" y="-158" font-family="Helvetica,sans-Serif" font-size="10.00">Cpl::TShell::Processor</text>
</a>
</g>
</g>
<!-- Node2&#45;&gt;Node1 -->
<g id="edge1_Node000001_Node000002" class="edge">
<title>Node2&#45;&gt;Node1</title>
<g id="a_edge1_Node000001_Node000002"><a xlink:title=" ">
<path fill="none" stroke="#63b8ff" d="M1326.36,-148.37C1354.83,-140.76 1391.01,-131.08 1417.41,-124.02"/>
<polygon fill="#63b8ff" stroke="#63b8ff" points="1325.39,-145 1316.64,-150.97 1327.2,-151.77 1325.39,-145"/>
</a>
</g>
</g>
<!-- Node3 -->
<g id="Node000003" class="node">
<title>Node3</title>
<g id="a_Node000003"><a xlink:href="class_cpl_1_1_t_shell_1_1_context__.html" target="_top" xlink:title="This Private Namespace class defines a &quot;Context&quot; for a TShell command.">
<polygon fill="white" stroke="#666666" points="1080.5,-369 962.5,-369 962.5,-350 1080.5,-350 1080.5,-369"/>
<text text-anchor="middle" x="1021.5" y="-357" font-family="Helvetica,sans-Serif" font-size="10.00">Cpl::TShell::Context_</text>
</a>
</g>
</g>
<!-- Node3&#45;&gt;Node2 -->
<g id="edge2_Node000002_Node000003" class="edge">
<title>Node3&#45;&gt;Node2</title>
<g id="a_edge2_Node000002_Node000003"><a xlink:title=" ">
<path fill="none" stroke="#63b8ff" d="M1083.32,-347.48C1120.67,-337.59 1167.6,-320.35 1201,-291.5 1241.86,-256.2 1267.13,-193.97 1275.71,-170.15"/>
<polygon fill="#63b8ff" stroke="#63b8ff" points="1082.38,-344.11 1073.55,-349.96 1084.1,-350.89 1082.38,-344.11"/>
</a>
</g>
</g>
<!-- Node4 -->
<g id="Node000004" class="node">
<title>Node4</title>
<g id="a_Node000004"><a xlink:href="class_cpl_1_1_t_shell_1_1_processor_api.html" target="_top" xlink:title="This class defines the interface a TShell Command Processor.">
<polygon fill="white" stroke="#666666" points="749,-378 612,-378 612,-359 749,-359 749,-378"/>
<text text-anchor="middle" x="680.5" y="-366" font-family="Helvetica,sans-Serif" font-size="10.00">Cpl::TShell::ProcessorApi</text>
</a>
</g>
</g>
<!-- Node4&#45;&gt;Node3 -->
<g id="edge3_Node000003_Node000004" class="edge">
<title>Node4&#45;&gt;Node3</title>
<g id="a_edge3_Node000003_Node000004"><a xlink:title=" ">
<path fill="none" stroke="#63b8ff" d="M759.39,-366.43C821.27,-364.79 906.42,-362.53 962.43,-361.04"/>
<polygon fill="#63b8ff" stroke="#63b8ff" points="759.19,-362.94 749.29,-366.7 759.38,-369.93 759.19,-362.94"/>
</a>
</g>
</g>
<!-- Node5 -->
<g id="Node000005" class="node">
<title>Node5</title>
<g id="a_Node000005"><a xlink:href="class_cpl_1_1_container_1_1_s_list.html" target="_top" xlink:title=" ">
<polygon fill="white" stroke="#666666" points="1095,-203.5 948,-203.5 948,-173.5 1095,-173.5 1095,-203.5"/>
<text text-anchor="start" x="956" y="-191.5" font-family="Helvetica,sans-Serif" font-size="10.00">Cpl::Container::SList</text>
<text text-anchor="middle" x="1021.5" y="-180.5" font-family="Helvetica,sans-Serif" font-size="10.00">&lt; Cpl::TShell::Command &gt;</text>
</a>
</g>
</g>
<!-- Node5&#45;&gt;Node2 -->
<g id="edge4_Node000002_Node000005" class="edge">
<title>Node5&#45;&gt;Node2</title>
<g id="a_edge4_Node000002_Node000005"><a xlink:title=" ">
<path fill="none" stroke="#9a32cd" stroke-dasharray="5,2" d="M1105.57,-179.43C1142.52,-175.4 1185.21,-170.74 1218.98,-167.05"/>
<polygon fill="#9a32cd" stroke="#9a32cd" points="1104.88,-175.99 1095.32,-180.55 1105.64,-182.95 1104.88,-175.99"/>
</a>
</g>
<text text-anchor="middle" x="1161.5" y="-180.5" font-family="Helvetica,sans-Serif" font-size="10.00" fill="grey"> m_commands</text>
</g>
<!-- Node6 -->
<g id="Node000006" class="node">
<title>Node6</title>
<g id="a_Node000006"><a xlink:href="class_cpl_1_1_container_1_1_s_list.html" target="_top" xlink:title="This template class implements a singly linked list which maintains the ordering imposed on it by the...">
<polygon fill="white" stroke="#666666" points="738,-239.5 623,-239.5 623,-209.5 738,-209.5 738,-239.5"/>
<text text-anchor="start" x="631" y="-227.5" font-family="Helvetica,sans-Serif" font-size="10.00">Cpl::Container::SList</text>
<text text-anchor="middle" x="680.5" y="-216.5" font-family="Helvetica,sans-Serif" font-size="10.00">&lt; ITEM &gt;</text>
</a>
</g>
</g>
<!-- Node6&#45;&gt;Node5 -->
<g id="edge5_Node000005_Node000006" class="edge">
<title>Node6&#45;&gt;Node5</title>
<g id="a_edge5_Node000005_Node000006"><a xlink:title=" ">
<path fill="none" stroke="orange" stroke-dasharray="5,2" d="M748.32,-217.4C805.86,-211.29 888.73,-202.49 947.89,-196.21"/>
<polygon fill="orange" stroke="orange" points="747.82,-213.94 738.24,-218.47 748.55,-220.9 747.82,-213.94"/>
</a>
</g>
<text text-anchor="middle" x="846.5" y="-218.5" font-family="Helvetica,sans-Serif" font-size="10.00" fill="grey"> &lt; Cpl::TShell::Command &gt;</text>
</g>
<!-- Node7 -->
<g id="Node000007" class="node">
<title>Node7</title>
<g id="a_Node000007"><a xlink:href="class_cpl_1_1_text_1_1_frame_1_1_stream_decoder.html" target="_top" xlink:title="This partially concrete class defines an interface a Text &quot;Decoder&quot; that has a Cpl::Io::Input stream ...">
<polygon fill="white" stroke="#666666" points="1090,-31.5 953,-31.5 953,-1.5 1090,-1.5 1090,-31.5"/>
<text text-anchor="start" x="961" y="-19.5" font-family="Helvetica,sans-Serif" font-size="10.00">Cpl::Text::Frame::Stream</text>
<text text-anchor="middle" x="1021.5" y="-8.5" font-family="Helvetica,sans-Serif" font-size="10.00">Decoder</text>
</a>
</g>
</g>
<!-- Node7&#45;&gt;Node2 -->
<g id="edge6_Node000002_Node000007" class="edge">
<title>Node7&#45;&gt;Node2</title>
<g id="a_edge6_Node000002_Node000007"><a xlink:title=" ">
<path fill="none" stroke="#9a32cd" stroke-dasharray="5,2" d="M1100.38,-9.08C1133.6,-9.5 1171.43,-15.07 1201,-33.5 1246.01,-61.56 1268.95,-126.12 1276.31,-150.73"/>
<polygon fill="#9a32cd" stroke="#9a32cd" points="1100.23,-5.58 1090.24,-9.1 1100.24,-12.58 1100.23,-5.58"/>
</a>
</g>
<text text-anchor="middle" x="1161.5" y="-36.5" font-family="Helvetica,sans-Serif" font-size="10.00" fill="grey"> m_deframer</text>
</g>
<!-- Node8 -->
<g id="Node000008" class="node">
<title>Node8</title>
<g id="a_Node000008"><a xlink:href="class_cpl_1_1_text_1_1_frame_1_1_decoder__.html" target="_top" xlink:title="This private partially concrete class implements the basic/common logic for a frame decoder.">
<polygon fill="white" stroke="#666666" points="754,-19 607,-19 607,0 754,0 754,-19"/>
<text text-anchor="middle" x="680.5" y="-7" font-family="Helvetica,sans-Serif" font-size="10.00">Cpl::Text::Frame::Decoder_</text>
</a>
</g>
</g>
<!-- Node8&#45;&gt;Node7 -->
<g id="edge7_Node000007_Node000008" class="edge">
<title>Node8&#45;&gt;Node7</title>
<g id="a_edge7_Node000007_Node000008"><a xlink:title=" ">
<path fill="none" stroke="#63b8ff" d="M764.44,-11.21C822.31,-12.41 898.59,-13.98 952.8,-15.1"/>
<polygon fill="#63b8ff" stroke="#63b8ff" points="764.29,-7.71 754.22,-11 764.15,-14.71 764.29,-7.71"/>
</a>
</g>
</g>
<!-- Node9 -->
<g id="Node000009" class="node">
<title>Node9</title>
<g id="a_Node000009"><a xlink:href="class_cpl_1_1_text_1_1_frame_1_1_decoder.html" target="_top" xlink:title="This class defines an interface for &#39;receiving&#39; (decode) a frame.">
<polygon fill="white" stroke="#666666" points="570,-19 428,-19 428,0 570,0 570,-19"/>
<text text-anchor="middle" x="499" y="-7" font-family="Helvetica,sans-Serif" font-size="10.00">Cpl::Text::Frame::Decoder</text>
</a>
</g>
</g>
<!-- Node9&#45;&gt;Node8 -->
<g id="edge8_Node000008_Node000009" class="edge">
<title>Node9&#45;&gt;Node8</title>
<g id="a_edge8_Node000008_Node000009"><a xlink:title=" ">
<path fill="none" stroke="#63b8ff" d="M580.39,-9.5C589.16,-9.5 598.05,-9.5 606.72,-9.5"/>
<polygon fill="#63b8ff" stroke="#63b8ff" points="580.17,-6 570.17,-9.5 580.17,-13 580.17,-6"/>
</a>
</g>
</g>
<!-- Node10 -->
<g id="Node000010" class="node">
<title>Node10</title>
<g id="a_Node000010"><a xlink:href="class_cpl_1_1_io_1_1_input.html" target="_top" xlink:title="This partially abstract class defines a interface for operating on an input stream (example of a stre...">
<polygon fill="white" stroke="#666666" points="719.5,-56 641.5,-56 641.5,-37 719.5,-37 719.5,-56"/>
<text text-anchor="middle" x="680.5" y="-44" font-family="Helvetica,sans-Serif" font-size="10.00">Cpl::Io::Input</text>
</a>
</g>
</g>
<!-- Node10&#45;&gt;Node7 -->
<g id="edge9_Node000007_Node000010" class="edge">
<title>Node10&#45;&gt;Node7</title>
<g id="a_edge9_Node000007_Node000010"><a xlink:title=" ">
<path fill="none" stroke="#9a32cd" stroke-dasharray="5,2" d="M729.8,-42.23C788.24,-37.05 886.97,-28.32 952.93,-22.48"/>
<polygon fill="#9a32cd" stroke="#9a32cd" points="729.38,-38.75 719.73,-43.12 730,-45.72 729.38,-38.75"/>
</a>
</g>
<text text-anchor="middle" x="846.5" y="-41.5" font-family="Helvetica,sans-Serif" font-size="10.00" fill="grey"> m_srcPtr</text>
</g>
<!-- Node11 -->
<g id="Node000011" class="node">
<title>Node11</title>
<g id="a_Node000011"><a xlink:href="class_cpl_1_1_io_1_1_close.html" target="_top" xlink:title="This abstract class defines a close operation that is intended to be used Input and Output streams/fi...">
<polygon fill="white" stroke="#666666" points="539,-64 459,-64 459,-45 539,-45 539,-64"/>
<text text-anchor="middle" x="499" y="-52" font-family="Helvetica,sans-Serif" font-size="10.00">Cpl::Io::Close</text>
</a>
</g>
</g>
<!-- Node11&#45;&gt;Node10 -->
<g id="edge10_Node000010_Node000011" class="edge">
<title>Node11&#45;&gt;Node10</title>
<g id="a_edge10_Node000010_Node000011"><a xlink:title=" ">
<path fill="none" stroke="#63b8ff" d="M549.68,-52.23C562.19,-51.66 575.59,-51.05 588,-50.5 605.47,-49.72 624.82,-48.87 641.21,-48.16"/>
<polygon fill="#63b8ff" stroke="#63b8ff" points="549.26,-48.74 539.42,-52.69 549.57,-55.74 549.26,-48.74"/>
</a>
</g>
</g>
<!-- Node17 -->
<g id="Node000017" class="node">
<title>Node17</title>
<g id="a_Node000017"><a xlink:href="class_cpl_1_1_io_1_1_output.html" target="_top" xlink:title="This partially abstract class defines a interface for operating on an output stream (example of a str...">
<polygon fill="white" stroke="#666666" points="723.5,-112 637.5,-112 637.5,-93 723.5,-93 723.5,-112"/>
<text text-anchor="middle" x="680.5" y="-100" font-family="Helvetica,sans-Serif" font-size="10.00">Cpl::Io::Output</text>
</a>
</g>
</g>
<!-- Node11&#45;&gt;Node17 -->
<g id="edge17_Node000017_Node000011" class="edge">
<title>Node11&#45;&gt;Node17</title>
<g id="a_edge17_Node000017_Node000011"><a xlink:title=" ">
<path fill="none" stroke="#63b8ff" d="M545.83,-66.76C576.23,-74.89 615.56,-85.4 643.67,-92.92"/>
<polygon fill="#63b8ff" stroke="#63b8ff" points="546.46,-63.3 535.89,-64.1 544.65,-70.06 546.46,-63.3"/>
</a>
</g>
</g>
<!-- Node12 -->
<g id="Node000012" class="node">
<title>Node12</title>
<g id="a_Node000012"><a xlink:href="class_cpl_1_1_container_1_1_item.html" target="_top" xlink:title="This class is used by the Container classes to implement a various types of singly linked containers.">
<polygon fill="white" stroke="#666666" points="391,-64 277,-64 277,-45 391,-45 391,-64"/>
<text text-anchor="middle" x="334" y="-52" font-family="Helvetica,sans-Serif" font-size="10.00">Cpl::Container::Item</text>
</a>
</g>
</g>
<!-- Node12&#45;&gt;Node11 -->
<g id="edge11_Node000011_Node000012" class="edge">
<title>Node12&#45;&gt;Node11</title>
<g id="a_edge11_Node000011_Node000012"><a xlink:title=" ">
<path fill="none" stroke="#63b8ff" d="M401.18,-54.5C420.73,-54.5 441.49,-54.5 458.76,-54.5"/>
<polygon fill="#63b8ff" stroke="#63b8ff" points="401.1,-51 391.1,-54.5 401.1,-58 401.1,-51"/>
</a>
</g>
</g>
<!-- Node13 -->
<g id="Node000013" class="node">
<title>Node13</title>
<g id="a_Node000013"><a xlink:href="class_cpl_1_1_io_1_1_is_eos.html" target="_top" xlink:title="This abstract class defines a isEos() operation that is intended to be used Input and Output streams.">
<polygon fill="white" stroke="#666666" points="538.5,-111 459.5,-111 459.5,-92 538.5,-92 538.5,-111"/>
<text text-anchor="middle" x="499" y="-99" font-family="Helvetica,sans-Serif" font-size="10.00">Cpl::Io::IsEos</text>
</a>
</g>
</g>
<!-- Node13&#45;&gt;Node10 -->
<g id="edge12_Node000010_Node000013" class="edge">
<title>Node13&#45;&gt;Node10</title>
<g id="a_edge12_Node000010_Node000013"><a xlink:title=" ">
<path fill="none" stroke="#63b8ff" d="M540.96,-88.95C573.58,-78.96 618.54,-65.18 648.29,-56.06"/>
<polygon fill="#63b8ff" stroke="#63b8ff" points="539.8,-85.64 531.27,-91.92 541.85,-92.34 539.8,-85.64"/>
</a>
</g>
</g>
<!-- Node13&#45;&gt;Node17 -->
<g id="edge18_Node000017_Node000013" class="edge">
<title>Node13&#45;&gt;Node17</title>
<g id="a_edge18_Node000017_Node000013"><a xlink:title=" ">
<path fill="none" stroke="#63b8ff" d="M548.76,-101.77C576.45,-101.93 610.77,-102.12 637.29,-102.26"/>
<polygon fill="#63b8ff" stroke="#63b8ff" points="548.53,-98.27 538.51,-101.71 548.49,-105.27 548.53,-98.27"/>
</a>
</g>
</g>
<!-- Node14 -->
<g id="Node000014" class="node">
<title>Node14</title>
<g id="a_Node000014"><a xlink:href="class_cpl_1_1_text_1_1_frame_1_1_stream_encoder.html" target="_top" xlink:title="This concrete class implements the Encoder API where the Output destination is a Cpl::Io::Output stre...">
<polygon fill="white" stroke="#666666" points="1090,-155.5 953,-155.5 953,-125.5 1090,-125.5 1090,-155.5"/>
<text text-anchor="start" x="961" y="-143.5" font-family="Helvetica,sans-Serif" font-size="10.00">Cpl::Text::Frame::Stream</text>
<text text-anchor="middle" x="1021.5" y="-132.5" font-family="Helvetica,sans-Serif" font-size="10.00">Encoder</text>
</a>
</g>
</g>
<!-- Node14&#45;&gt;Node2 -->
<g id="edge13_Node000002_Node000014" class="edge">
<title>Node14&#45;&gt;Node2</title>
<g id="a_edge13_Node000002_Node000014"><a xlink:title=" ">
<path fill="none" stroke="#9a32cd" stroke-dasharray="5,2" d="M1100.75,-144.42C1131.97,-146.22 1168.21,-148.6 1201,-151.5 1206.84,-152.02 1212.92,-152.61 1218.99,-153.25"/>
<polygon fill="#9a32cd" stroke="#9a32cd" points="1100.55,-140.9 1090.37,-143.83 1100.16,-147.89 1100.55,-140.9"/>
</a>
</g>
<text text-anchor="middle" x="1161.5" y="-154.5" font-family="Helvetica,sans-Serif" font-size="10.00" fill="grey"> m_framer</text>
</g>
<!-- Node15 -->
<g id="Node000015" class="node">
<title>Node15</title>
<g id="a_Node000015"><a xlink:href="class_cpl_1_1_text_1_1_frame_1_1_encoder__.html" target="_top" xlink:title="This Private Namespace partially concrete class implements common/helper method for supporting the En...">
<polygon fill="white" stroke="#666666" points="753.5,-153 607.5,-153 607.5,-134 753.5,-134 753.5,-153"/>
<text text-anchor="middle" x="680.5" y="-141" font-family="Helvetica,sans-Serif" font-size="10.00">Cpl::Text::Frame::Encoder_</text>
</a>
</g>
</g>
<!-- Node15&#45;&gt;Node14 -->
<g id="edge14_Node000014_Node000015" class="edge">
<title>Node15&#45;&gt;Node14</title>
<g id="a_edge14_Node000014_Node000015"><a xlink:title=" ">
<path fill="none" stroke="#63b8ff" d="M763.81,-143.48C810.02,-143.39 868.72,-143.13 921,-142.5 931.28,-142.38 942.16,-142.2 952.8,-142.01"/>
<polygon fill="#63b8ff" stroke="#63b8ff" points="763.55,-139.98 753.55,-143.5 763.56,-146.98 763.55,-139.98"/>
</a>
</g>
</g>
<!-- Node16 -->
<g id="Node000016" class="node">
<title>Node16</title>
<g id="a_Node000016"><a xlink:href="class_cpl_1_1_text_1_1_frame_1_1_encoder.html" target="_top" xlink:title="This class defines an interface for &#39;transmitted&#39; (encoding) a frame.">
<polygon fill="white" stroke="#666666" points="569,-153 429,-153 429,-134 569,-134 569,-153"/>
<text text-anchor="middle" x="499" y="-141" font-family="Helvetica,sans-Serif" font-size="10.00">Cpl::Text::Frame::Encoder</text>
</a>
</g>
</g>
<!-- Node16&#45;&gt;Node15 -->
<g id="edge15_Node000015_Node000016" class="edge">
<title>Node16&#45;&gt;Node15</title>
<g id="a_edge15_Node000015_Node000016"><a xlink:title=" ">
<path fill="none" stroke="#63b8ff" d="M579.24,-143.5C588.62,-143.5 598.15,-143.5 607.42,-143.5"/>
<polygon fill="#63b8ff" stroke="#63b8ff" points="579.14,-140 569.14,-143.5 579.14,-147 579.14,-140"/>
</a>
</g>
</g>
<!-- Node17&#45;&gt;Node1 -->
<g id="edge30_Node000001_Node000017" class="edge">
<title>Node17&#45;&gt;Node1</title>
<g id="a_edge30_Node000001_Node000017"><a xlink:title=" ">
<path fill="none" stroke="#9a32cd" stroke-dasharray="5,2" d="M733.9,-103.31C867.62,-105.39 1221.94,-110.91 1377.72,-113.33"/>
<polygon fill="#9a32cd" stroke="#9a32cd" points="733.58,-99.81 723.53,-103.15 733.47,-106.81 733.58,-99.81"/>
</a>
</g>
<text text-anchor="middle" x="1161.5" y="-114.5" font-family="Helvetica,sans-Serif" font-size="10.00" fill="grey"> m_outFd</text>
</g>
<!-- Node17&#45;&gt;Node14 -->
<g id="edge16_Node000014_Node000017" class="edge">
<title>Node17&#45;&gt;Node14</title>
<g id="a_edge16_Node000014_Node000017"><a xlink:title=" ">
<path fill="none" stroke="#9a32cd" stroke-dasharray="5,2" d="M733.93,-108.38C792.76,-114.97 888.36,-125.69 952.8,-132.91"/>
<polygon fill="#9a32cd" stroke="#9a32cd" points="734.08,-104.87 723.75,-107.24 733.3,-111.83 734.08,-104.87"/>
</a>
</g>
<text text-anchor="middle" x="846.5" y="-132.5" font-family="Helvetica,sans-Serif" font-size="10.00" fill="grey"> m_dstPtr</text>
</g>
<!-- Node18 -->
<g id="Node000018" class="node">
<title>Node18</title>
<g id="a_Node000018"><a xlink:href="class_cpl_1_1_system_1_1_mutex.html" target="_top" xlink:title="This mutex class defines the interface for a mutex that has &quot;recursive&quot; semantics.">
<polygon fill="white" stroke="#666666" points="1077.5,-69 965.5,-69 965.5,-50 1077.5,-50 1077.5,-69"/>
<text text-anchor="middle" x="1021.5" y="-57" font-family="Helvetica,sans-Serif" font-size="10.00">Cpl::System::Mutex</text>
</a>
</g>
</g>
<!-- Node18&#45;&gt;Node2 -->
<g id="edge19_Node000002_Node000018" class="edge">
<title>Node18&#45;&gt;Node2</title>
<g id="a_edge19_Node000002_Node000018"><a xlink:title=" ">
<path fill="none" stroke="#9a32cd" stroke-dasharray="5,2" d="M1084.4,-48.89C1120.24,-45.68 1165.19,-46.84 1201,-64.5 1239.13,-83.31 1264.94,-130.45 1274.68,-150.85"/>
<polygon fill="#9a32cd" stroke="#9a32cd" points="1083.66,-45.45 1074.07,-49.96 1084.38,-52.41 1083.66,-45.45"/>
</a>
</g>
<text text-anchor="middle" x="1161.5" y="-67.5" font-family="Helvetica,sans-Serif" font-size="10.00" fill="grey"> m_outLock</text>
</g>
<!-- Node19 -->
<g id="Node000019" class="node">
<title>Node19</title>
<g id="a_Node000019"><a xlink:href="class_cpl_1_1_text_1_1_f_string.html" target="_top" xlink:title=" ">
<polygon fill="white" stroke="#666666" points="1104,-322 939,-322 939,-281 1104,-281 1104,-322"/>
<text text-anchor="start" x="947" y="-310" font-family="Helvetica,sans-Serif" font-size="10.00">Cpl::Text::FString</text>
<text text-anchor="start" x="947" y="-299" font-family="Helvetica,sans-Serif" font-size="10.00">&lt; OPTION_CPL_TSHELL</text>
<text text-anchor="middle" x="1021.5" y="-288" font-family="Helvetica,sans-Serif" font-size="10.00">_PROCESSOR_OUTPUT_SIZE &gt;</text>
</a>
</g>
</g>
<!-- Node19&#45;&gt;Node2 -->
<g id="edge20_Node000002_Node000019" class="edge">
<title>Node19&#45;&gt;Node2</title>
<g id="a_edge20_Node000002_Node000019"><a xlink:title=" ">
<path fill="none" stroke="#9a32cd" stroke-dasharray="5,2" d="M1114.21,-280.6C1143.32,-271.56 1174.74,-259.14 1201,-242.5 1232.53,-222.52 1260.23,-187.03 1272.41,-170.06"/>
<polygon fill="#9a32cd" stroke="#9a32cd" points="1113,-277.31 1104.43,-283.54 1115.02,-284.02 1113,-277.31"/>
</a>
</g>
<text text-anchor="middle" x="1161.5" y="-279.5" font-family="Helvetica,sans-Serif" font-size="10.00" fill="grey"> m_outputBuffer</text>
</g>
<!-- Node20 -->
<g id="Node000020" class="node">
<title>Node20</title>
<g id="a_Node000020"><a xlink:href="class_cpl_1_1_text_1_1_f_string__.html" target="_top" xlink:title="This mostly concrete class implements a &quot;fixed storage&quot; String Type.">
<polygon fill="white" stroke="#666666" points="551,-289 447,-289 447,-270 551,-270 551,-289"/>
<text text-anchor="middle" x="499" y="-277" font-family="Helvetica,sans-Serif" font-size="10.00">Cpl::Text::FString_</text>
</a>
</g>
</g>
<!-- Node20&#45;&gt;Node19 -->
<g id="edge21_Node000019_Node000020" class="edge">
<title>Node20&#45;&gt;Node19</title>
<g id="a_edge21_Node000019_Node000020"><a xlink:title=" ">
<path fill="none" stroke="#63b8ff" d="M559.63,-290.82C575.03,-293.54 591.6,-296.3 607,-298.5 745.37,-318.31 781.61,-326.95 921,-316.5 926.84,-316.06 932.85,-315.48 938.89,-314.81"/>
<polygon fill="#63b8ff" stroke="#63b8ff" points="560.16,-287.36 549.7,-289.04 558.93,-294.25 560.16,-287.36"/>
</a>
</g>
</g>
<!-- Node24 -->
<g id="Node000024" class="node">
<title>Node24</title>
<g id="a_Node000024"><a xlink:href="class_cpl_1_1_text_1_1_f_string.html" target="_top" xlink:title="This template class represents a NULL terminated string of a specific length.">
<polygon fill="white" stroke="#666666" points="744,-289 617,-289 617,-270 744,-270 744,-289"/>
<text text-anchor="middle" x="680.5" y="-277" font-family="Helvetica,sans-Serif" font-size="10.00">Cpl::Text::FString&lt; S &gt;</text>
</a>
</g>
</g>
<!-- Node20&#45;&gt;Node24 -->
<g id="edge26_Node000024_Node000020" class="edge">
<title>Node20&#45;&gt;Node24</title>
<g id="a_edge26_Node000024_Node000020"><a xlink:title=" ">
<path fill="none" stroke="#63b8ff" d="M561.47,-279.5C579.37,-279.5 598.93,-279.5 616.9,-279.5"/>
<polygon fill="#63b8ff" stroke="#63b8ff" points="561.44,-276 551.44,-279.5 561.44,-283 561.44,-276"/>
</a>
</g>
</g>
<!-- Node25 -->
<g id="Node000025" class="node">
<title>Node25</title>
<g id="a_Node000025"><a xlink:href="class_cpl_1_1_text_1_1_f_string.html" target="_top" xlink:title=" ">
<polygon fill="white" stroke="#666666" points="1099,-263 944,-263 944,-222 1099,-222 1099,-263"/>
<text text-anchor="start" x="952" y="-251" font-family="Helvetica,sans-Serif" font-size="10.00">Cpl::Text::FString</text>
<text text-anchor="start" x="952" y="-240" font-family="Helvetica,sans-Serif" font-size="10.00">&lt; OPTION_CPL_TSHELL</text>
<text text-anchor="middle" x="1021.5" y="-229" font-family="Helvetica,sans-Serif" font-size="10.00">_PROCESSOR_INPUT_SIZE &gt;</text>
</a>
</g>
</g>
<!-- Node20&#45;&gt;Node25 -->
<g id="edge28_Node000025_Node000020" class="edge">
<title>Node20&#45;&gt;Node25</title>
<g id="a_edge28_Node000025_Node000020"><a xlink:title=" ">
<path fill="none" stroke="#63b8ff" d="M515.98,-262.67C535.41,-243.51 570.18,-213.24 607,-200.5 738.9,-154.86 791.3,-143.93 921,-195.5 931.23,-199.57 929.65,-206.7 939,-212.5 944.51,-215.92 950.47,-219.03 956.57,-221.85"/>
<polygon fill="#63b8ff" stroke="#63b8ff" points="513.4,-260.3 508.86,-269.87 518.38,-265.22 513.4,-260.3"/>
</a>
</g>
</g>
<!-- Node21 -->
<g id="Node000021" class="node">
<title>Node21</title>
<g id="a_Node000021"><a xlink:href="class_cpl_1_1_text_1_1_string__.html" target="_top" xlink:title="This partially concrete class implements the portions of the String Api that is independent of the in...">
<polygon fill="white" stroke="#666666" points="383,-289 285,-289 285,-270 383,-270 383,-289"/>
<text text-anchor="middle" x="334" y="-277" font-family="Helvetica,sans-Serif" font-size="10.00">Cpl::Text::String_</text>
</a>
</g>
</g>
<!-- Node21&#45;&gt;Node20 -->
<g id="edge22_Node000020_Node000021" class="edge">
<title>Node21&#45;&gt;Node20</title>
<g id="a_edge22_Node000020_Node000021"><a xlink:title=" ">
<path fill="none" stroke="#63b8ff" d="M393.15,-279.5C410.71,-279.5 429.85,-279.5 446.91,-279.5"/>
<polygon fill="#63b8ff" stroke="#63b8ff" points="393.02,-276 383.02,-279.5 393.02,-283 393.02,-276"/>
</a>
</g>
</g>
<!-- Node22 -->
<g id="Node000022" class="node">
<title>Node22</title>
<g id="a_Node000022"><a xlink:href="class_cpl_1_1_text_1_1_string.html" target="_top" xlink:title="This abstract class defines the operations that can be before on a NULL terminated string.">
<polygon fill="white" stroke="#666666" points="240,-289 147,-289 147,-270 240,-270 240,-289"/>
<text text-anchor="middle" x="193.5" y="-277" font-family="Helvetica,sans-Serif" font-size="10.00">Cpl::Text::String</text>
</a>
</g>
</g>
<!-- Node22&#45;&gt;Node21 -->
<g id="edge23_Node000021_Node000022" class="edge">
<title>Node22&#45;&gt;Node21</title>
<g id="a_edge23_Node000021_Node000022"><a xlink:title=" ">
<path fill="none" stroke="#63b8ff" d="M250.53,-279.5C261.94,-279.5 273.84,-279.5 284.94,-279.5"/>
<polygon fill="#63b8ff" stroke="#63b8ff" points="250.23,-276 240.23,-279.5 250.23,-283 250.23,-276"/>
</a>
</g>
</g>
<!-- Node23 -->
<g id="Node000023" class="node">
<title>Node23</title>
<g id="a_Node000023"><a xlink:href="class_cpl_1_1_container_1_1_key.html" target="_top" xlink:title="This abstract class defines the interface that a contained object must support if it has comparable k...">
<polygon fill="white" stroke="#666666" points="110,-289 0,-289 0,-270 110,-270 110,-289"/>
<text text-anchor="middle" x="55" y="-277" font-family="Helvetica,sans-Serif" font-size="10.00">Cpl::Container::Key</text>
</a>
</g>
</g>
<!-- Node23&#45;&gt;Node22 -->
<g id="edge24_Node000022_Node000023" class="edge">
<title>Node23&#45;&gt;Node22</title>
<g id="a_edge24_Node000022_Node000023"><a xlink:title=" ">
<path fill="none" stroke="#63b8ff" d="M120.61,-279.5C129.42,-279.5 138.31,-279.5 146.7,-279.5"/>
<polygon fill="#63b8ff" stroke="#63b8ff" points="120.34,-276 110.34,-279.5 120.34,-283 120.34,-276"/>
</a>
</g>
</g>
<!-- Node24&#45;&gt;Node19 -->
<g id="edge25_Node000019_Node000024" class="edge">
<title>Node24&#45;&gt;Node19</title>
<g id="a_edge25_Node000019_Node000024"><a xlink:title=" ">
<path fill="none" stroke="orange" stroke-dasharray="5,2" d="M754.22,-283.91C801.7,-286.82 865.04,-290.78 921,-294.5 926.79,-294.88 932.77,-295.29 938.78,-295.7"/>
<polygon fill="orange" stroke="orange" points="754.23,-280.4 744.04,-283.28 753.81,-287.39 754.23,-280.4"/>
</a>
</g>
<text text-anchor="start" x="772" y="-308.5" font-family="Helvetica,sans-Serif" font-size="10.00" fill="grey"> &lt; OPTION_CPL_TSHELL</text>
<text text-anchor="middle" x="846.5" y="-297.5" font-family="Helvetica,sans-Serif" font-size="10.00" fill="grey">_PROCESSOR_OUTPUT_SIZE &gt;</text>
</g>
<!-- Node24&#45;&gt;Node25 -->
<g id="edge29_Node000025_Node000024" class="edge">
<title>Node24&#45;&gt;Node25</title>
<g id="a_edge29_Node000025_Node000024"><a xlink:title=" ">
<path fill="none" stroke="orange" stroke-dasharray="5,2" d="M726.22,-267.59C740.73,-264.14 756.96,-260.71 772,-258.5 829.21,-250.08 894.47,-246.09 943.75,-244.2"/>
<polygon fill="orange" stroke="orange" points="725.37,-264.2 716.49,-269.97 727.03,-271 725.37,-264.2"/>
</a>
</g>
<text text-anchor="start" x="777" y="-272.5" font-family="Helvetica,sans-Serif" font-size="10.00" fill="grey"> &lt; OPTION_CPL_TSHELL</text>
<text text-anchor="middle" x="846.5" y="-261.5" font-family="Helvetica,sans-Serif" font-size="10.00" fill="grey">_PROCESSOR_INPUT_SIZE &gt;</text>
</g>
<!-- Node25&#45;&gt;Node2 -->
<g id="edge27_Node000002_Node000025" class="edge">
<title>Node25&#45;&gt;Node2</title>
<g id="a_edge27_Node000002_Node000025"><a xlink:title=" ">
<path fill="none" stroke="#9a32cd" stroke-dasharray="5,2" d="M1108.94,-220.46C1138.38,-212.38 1171.33,-202.7 1201,-192.5 1220.52,-185.79 1242.2,-176.76 1257.74,-170.01"/>
<polygon fill="#9a32cd" stroke="#9a32cd" points="1107.83,-217.14 1099.1,-223.14 1109.67,-223.89 1107.83,-217.14"/>
</a>
</g>
<text text-anchor="middle" x="1161.5" y="-230.5" font-family="Helvetica,sans-Serif" font-size="10.00" fill="grey"> m_tokenBuffer</text>
<text text-anchor="middle" x="1161.5" y="-219.5" font-family="Helvetica,sans-Serif" font-size="10.00" fill="grey">m_tokenBuffer2</text>
</g>
</g>
</svg>
