<?xml version="1.0" encoding="UTF-8" standalone="no"?>
<!DOCTYPE svg PUBLIC "-//W3C//DTD SVG 1.1//EN"
 "http://www.w3.org/Graphics/SVG/1.1/DTD/svg11.dtd">
<!-- Generated by graphviz version 2.43.0 (0)
 -->
<!-- Title: Cpl::Io::File::InputOutput Pages: 1 -->
<svg width="1050pt" height="243pt"
 viewBox="0.00 0.00 1050.00 242.70" xmlns="http://www.w3.org/2000/svg" xmlns:xlink="http://www.w3.org/1999/xlink">
<g id="graph0" class="graph" transform="scale(1 1) rotate(0) translate(4 238.7)">
<title>Cpl::Io::File::InputOutput</title>
<!-- Node1 -->
<g id="Node000001" class="node">
<title>Node1</title>
<g id="a_Node000001"><a xlink:title="This concrete class provides a platform independent &#39;standard&#39; implementation of an InputOutputFileAp...">
<polygon fill="#999999" stroke="#666666" points="1042,-139.7 908,-139.7 908,-120.7 1042,-120.7 1042,-139.7"/>
<text text-anchor="middle" x="975" y="-127.7" font-family="Helvetica,sans-Serif" font-size="10.00">Cpl::Io::File::InputOutput</text>
</a>
</g>
</g>
<!-- Node2 -->
<g id="Node000002" class="node">
<title>Node2</title>
<g id="a_Node000002"><a xlink:href="class_cpl_1_1_io_1_1_file_1_1_input_output_api.html" target="_top" xlink:title="This abstract class defines the interface for a Random Access Input Output File.">
<polygon fill="white" stroke="#666666" points="819,-171.7 669,-171.7 669,-152.7 819,-152.7 819,-171.7"/>
<text text-anchor="middle" x="744" y="-159.7" font-family="Helvetica,sans-Serif" font-size="10.00">Cpl::Io::File::InputOutputApi</text>
</a>
</g>
</g>
<!-- Node2&#45;&gt;Node1 -->
<g id="edge1_Node000001_Node000002" class="edge">
<title>Node2&#45;&gt;Node1</title>
<g id="a_edge1_Node000001_Node000002"><a xlink:title=" ">
<path fill="none" stroke="#63b8ff" d="M823.08,-151.29C850.61,-147.44 881.29,-143.15 907.75,-139.45"/>
<polygon fill="#63b8ff" stroke="#63b8ff" points="822.51,-147.83 813.09,-152.68 823.48,-154.76 822.51,-147.83"/>
</a>
</g>
</g>
<!-- Node3 -->
<g id="Node000003" class="node">
<title>Node3</title>
<g id="a_Node000003"><a xlink:href="class_cpl_1_1_io_1_1_file_1_1_input_api.html" target="_top" xlink:title="This abstract class defines the interface for a Random Access Input File.">
<polygon fill="white" stroke="#666666" points="595,-208.7 478,-208.7 478,-189.7 595,-189.7 595,-208.7"/>
<text text-anchor="middle" x="536.5" y="-196.7" font-family="Helvetica,sans-Serif" font-size="10.00">Cpl::Io::File::InputApi</text>
</a>
</g>
</g>
<!-- Node3&#45;&gt;Node2 -->
<g id="edge2_Node000002_Node000003" class="edge">
<title>Node3&#45;&gt;Node2</title>
<g id="a_edge2_Node000002_Node000003"><a xlink:title=" ">
<path fill="none" stroke="#63b8ff" d="M600.33,-187.88C628.98,-182.73 662.53,-176.68 689.9,-171.76"/>
<polygon fill="#63b8ff" stroke="#63b8ff" points="599.64,-184.45 590.42,-189.67 600.88,-191.34 599.64,-184.45"/>
</a>
</g>
</g>
<!-- Node4 -->
<g id="Node000004" class="node">
<title>Node4</title>
<g id="a_Node000004"><a xlink:href="class_cpl_1_1_io_1_1_input.html" target="_top" xlink:title="This partially abstract class defines a interface for operating on an input stream (example of a stre...">
<polygon fill="white" stroke="#666666" points="369,-172.7 291,-172.7 291,-153.7 369,-153.7 369,-172.7"/>
<text text-anchor="middle" x="330" y="-160.7" font-family="Helvetica,sans-Serif" font-size="10.00">Cpl::Io::Input</text>
</a>
</g>
</g>
<!-- Node4&#45;&gt;Node3 -->
<g id="edge3_Node000003_Node000004" class="edge">
<title>Node4&#45;&gt;Node3</title>
<g id="a_edge3_Node000003_Node000004"><a xlink:title=" ">
<path fill="none" stroke="#63b8ff" d="M379.48,-171.73C410.11,-177.12 449.74,-184.1 481.39,-189.67"/>
<polygon fill="#63b8ff" stroke="#63b8ff" points="379.92,-168.25 369.46,-169.97 378.71,-175.15 379.92,-168.25"/>
</a>
</g>
</g>
<!-- Node12 -->
<g id="Node000012" class="node">
<title>Node12</title>
<g id="a_Node000012"><a xlink:href="class_cpl_1_1_io_1_1_input_output.html" target="_top" xlink:title="This abstract class defines a interface for operating on an input&#45;output stream (example of a stream ...">
<polygon fill="white" stroke="#666666" points="592,-134.7 481,-134.7 481,-115.7 592,-115.7 592,-134.7"/>
<text text-anchor="middle" x="536.5" y="-122.7" font-family="Helvetica,sans-Serif" font-size="10.00">Cpl::Io::InputOutput</text>
</a>
</g>
</g>
<!-- Node4&#45;&gt;Node12 -->
<g id="edge15_Node000012_Node000004" class="edge">
<title>Node4&#45;&gt;Node12</title>
<g id="a_edge15_Node000012_Node000004"><a xlink:title=" ">
<path fill="none" stroke="#63b8ff" d="M379.34,-154.21C410.86,-148.36 451.96,-140.72 484.08,-134.75"/>
<polygon fill="#63b8ff" stroke="#63b8ff" points="378.66,-150.78 369.46,-156.05 379.94,-157.66 378.66,-150.78"/>
</a>
</g>
</g>
<!-- Node13 -->
<g id="Node000013" class="node">
<title>Node13</title>
<g id="a_Node000013"><a xlink:href="class_cpl_1_1_io_1_1_stdio_1_1_input__.html" target="_top" xlink:title="This concrete class implements a Input stream using the underlying platform&#39;s native OS &#39;file interfa...">
<polygon fill="white" stroke="#666666" points="593.5,-97.7 479.5,-97.7 479.5,-78.7 593.5,-78.7 593.5,-97.7"/>
<text text-anchor="middle" x="536.5" y="-85.7" font-family="Helvetica,sans-Serif" font-size="10.00">Cpl::Io::Stdio::Input_</text>
</a>
</g>
</g>
<!-- Node4&#45;&gt;Node13 -->
<g id="edge18_Node000013_Node000004" class="edge">
<title>Node4&#45;&gt;Node13</title>
<g id="a_edge18_Node000013_Node000004"><a xlink:title=" ">
<path fill="none" stroke="#63b8ff" d="M362.56,-149.62C391.32,-137.48 435.13,-119.6 474,-106.2 482.62,-103.22 492.03,-100.31 500.84,-97.72"/>
<polygon fill="#63b8ff" stroke="#63b8ff" points="360.89,-146.53 353.05,-153.65 363.62,-152.97 360.89,-146.53"/>
</a>
</g>
</g>
<!-- Node5 -->
<g id="Node000005" class="node">
<title>Node5</title>
<g id="a_Node000005"><a xlink:href="class_cpl_1_1_io_1_1_close.html" target="_top" xlink:title="This abstract class defines a close operation that is intended to be used Input and Output streams/fi...">
<polygon fill="white" stroke="#666666" points="231,-156.7 151,-156.7 151,-137.7 231,-137.7 231,-156.7"/>
<text text-anchor="middle" x="191" y="-144.7" font-family="Helvetica,sans-Serif" font-size="10.00">Cpl::Io::Close</text>
</a>
</g>
</g>
<!-- Node5&#45;&gt;Node4 -->
<g id="edge4_Node000004_Node000005" class="edge">
<title>Node5&#45;&gt;Node4</title>
<g id="a_edge4_Node000004_Node000005"><a xlink:title=" ">
<path fill="none" stroke="#63b8ff" d="M241.62,-152.99C257.79,-154.88 275.47,-156.95 290.68,-158.72"/>
<polygon fill="#63b8ff" stroke="#63b8ff" points="241.6,-149.47 231.26,-151.78 240.79,-156.42 241.6,-149.47"/>
</a>
</g>
</g>
<!-- Node10 -->
<g id="Node000010" class="node">
<title>Node10</title>
<g id="a_Node000010"><a xlink:href="class_cpl_1_1_io_1_1_output.html" target="_top" xlink:title="This partially abstract class defines a interface for operating on an output stream (example of a str...">
<polygon fill="white" stroke="#666666" points="373,-97.7 287,-97.7 287,-78.7 373,-78.7 373,-97.7"/>
<text text-anchor="middle" x="330" y="-85.7" font-family="Helvetica,sans-Serif" font-size="10.00">Cpl::Io::Output</text>
</a>
</g>
</g>
<!-- Node5&#45;&gt;Node10 -->
<g id="edge10_Node000010_Node000005" class="edge">
<title>Node5&#45;&gt;Node10</title>
<g id="a_edge10_Node000010_Node000005"><a xlink:title=" ">
<path fill="none" stroke="#63b8ff" d="M223.54,-133.61C248.97,-122.66 284.11,-107.53 306.69,-97.8"/>
<polygon fill="#63b8ff" stroke="#63b8ff" points="222.12,-130.42 214.32,-137.59 224.89,-136.85 222.12,-130.42"/>
</a>
</g>
</g>
<!-- Node6 -->
<g id="Node000006" class="node">
<title>Node6</title>
<g id="a_Node000006"><a xlink:href="class_cpl_1_1_container_1_1_item.html" target="_top" xlink:title="This class is used by the Container classes to implement a various types of singly linked containers.">
<polygon fill="white" stroke="#666666" points="114,-156.7 0,-156.7 0,-137.7 114,-137.7 114,-156.7"/>
<text text-anchor="middle" x="57" y="-144.7" font-family="Helvetica,sans-Serif" font-size="10.00">Cpl::Container::Item</text>
</a>
</g>
</g>
<!-- Node6&#45;&gt;Node5 -->
<g id="edge5_Node000005_Node000006" class="edge">
<title>Node6&#45;&gt;Node5</title>
<g id="a_edge5_Node000005_Node000006"><a xlink:title=" ">
<path fill="none" stroke="#63b8ff" d="M124.55,-147.2C133.59,-147.2 142.63,-147.2 150.96,-147.2"/>
<polygon fill="#63b8ff" stroke="#63b8ff" points="124.36,-143.7 114.36,-147.2 124.36,-150.7 124.36,-143.7"/>
</a>
</g>
</g>
<!-- Node7 -->
<g id="Node000007" class="node">
<title>Node7</title>
<g id="a_Node000007"><a xlink:href="class_cpl_1_1_io_1_1_is_eos.html" target="_top" xlink:title="This abstract class defines a isEos() operation that is intended to be used Input and Output streams.">
<polygon fill="white" stroke="#666666" points="230.5,-113.7 151.5,-113.7 151.5,-94.7 230.5,-94.7 230.5,-113.7"/>
<text text-anchor="middle" x="191" y="-101.7" font-family="Helvetica,sans-Serif" font-size="10.00">Cpl::Io::IsEos</text>
</a>
</g>
</g>
<!-- Node7&#45;&gt;Node4 -->
<g id="edge6_Node000004_Node000007" class="edge">
<title>Node7&#45;&gt;Node4</title>
<g id="a_edge6_Node000004_Node000007"><a xlink:title=" ">
<path fill="none" stroke="#63b8ff" d="M223.54,-117.78C248.97,-128.73 284.11,-143.86 306.69,-153.59"/>
<polygon fill="#63b8ff" stroke="#63b8ff" points="224.89,-114.55 214.32,-113.81 222.12,-120.98 224.89,-114.55"/>
</a>
</g>
</g>
<!-- Node7&#45;&gt;Node10 -->
<g id="edge11_Node000010_Node000007" class="edge">
<title>Node7&#45;&gt;Node10</title>
<g id="a_edge11_Node000010_Node000007"><a xlink:title=" ">
<path fill="none" stroke="#63b8ff" d="M240.71,-98.51C255.81,-96.74 272.31,-94.82 286.92,-93.11"/>
<polygon fill="#63b8ff" stroke="#63b8ff" points="240.05,-95.06 230.53,-99.7 240.87,-102.01 240.05,-95.06"/>
</a>
</g>
</g>
<!-- Node8 -->
<g id="Node000008" class="node">
<title>Node8</title>
<g id="a_Node000008"><a xlink:href="class_cpl_1_1_io_1_1_file_1_1_object_api.html" target="_top" xlink:title="This abstract class defines the basic additional functionality, beyond that of a stream,...">
<polygon fill="white" stroke="#666666" points="392,-234.7 268,-234.7 268,-215.7 392,-215.7 392,-234.7"/>
<text text-anchor="middle" x="330" y="-222.7" font-family="Helvetica,sans-Serif" font-size="10.00">Cpl::Io::File::ObjectApi</text>
</a>
</g>
</g>
<!-- Node8&#45;&gt;Node3 -->
<g id="edge7_Node000003_Node000008" class="edge">
<title>Node8&#45;&gt;Node3</title>
<g id="a_edge7_Node000003_Node000008"><a xlink:title=" ">
<path fill="none" stroke="#63b8ff" d="M402.25,-228.27C419.9,-228.03 438.71,-226.92 456,-224.2 475.15,-221.18 496.04,-214.47 511.59,-208.76"/>
<polygon fill="#63b8ff" stroke="#63b8ff" points="402,-224.77 392.01,-228.31 402.03,-231.77 402,-224.77"/>
</a>
</g>
</g>
<!-- Node9 -->
<g id="Node000009" class="node">
<title>Node9</title>
<g id="a_Node000009"><a xlink:href="class_cpl_1_1_io_1_1_file_1_1_output_api.html" target="_top" xlink:title="This abstract class defines the interface for a Random Access Input File.">
<polygon fill="white" stroke="#666666" points="599,-171.7 474,-171.7 474,-152.7 599,-152.7 599,-171.7"/>
<text text-anchor="middle" x="536.5" y="-159.7" font-family="Helvetica,sans-Serif" font-size="10.00">Cpl::Io::File::OutputApi</text>
</a>
</g>
</g>
<!-- Node8&#45;&gt;Node9 -->
<g id="edge12_Node000009_Node000008" class="edge">
<title>Node8&#45;&gt;Node9</title>
<g id="a_edge12_Node000009_Node000008"><a xlink:title=" ">
<path fill="none" stroke="#63b8ff" d="M371.81,-212.62C410.9,-200.58 469.04,-182.67 504.48,-171.75"/>
<polygon fill="#63b8ff" stroke="#63b8ff" points="370.59,-209.34 362.06,-215.63 372.65,-216.03 370.59,-209.34"/>
</a>
</g>
</g>
<!-- Node9&#45;&gt;Node2 -->
<g id="edge8_Node000002_Node000009" class="edge">
<title>Node9&#45;&gt;Node2</title>
<g id="a_edge8_Node000002_Node000009"><a xlink:title=" ">
<path fill="none" stroke="#63b8ff" d="M609.34,-162.2C628.55,-162.2 649.35,-162.2 668.69,-162.2"/>
<polygon fill="#63b8ff" stroke="#63b8ff" points="609.16,-158.7 599.16,-162.2 609.16,-165.7 609.16,-158.7"/>
</a>
</g>
</g>
<!-- Node10&#45;&gt;Node9 -->
<g id="edge9_Node000009_Node000010" class="edge">
<title>Node10&#45;&gt;Node9</title>
<g id="a_edge9_Node000009_Node000010"><a xlink:title=" ">
<path fill="none" stroke="#63b8ff" d="M362.47,-101.77C376.89,-107.88 394.24,-115.08 410,-121.2 438.18,-132.14 445.26,-134.84 474,-144.2 482.89,-147.09 492.56,-150.02 501.55,-152.66"/>
<polygon fill="#63b8ff" stroke="#63b8ff" points="363.58,-98.44 353.01,-97.74 360.84,-104.88 363.58,-98.44"/>
</a>
</g>
</g>
<!-- Node10&#45;&gt;Node12 -->
<g id="edge16_Node000012_Node000010" class="edge">
<title>Node10&#45;&gt;Node12</title>
<g id="a_edge16_Node000012_Node000010"><a xlink:title=" ">
<path fill="none" stroke="#63b8ff" d="M383.38,-97.67C413.83,-103.18 452.09,-110.11 482.63,-115.63"/>
<polygon fill="#63b8ff" stroke="#63b8ff" points="383.84,-94.2 373.37,-95.86 382.59,-101.09 383.84,-94.2"/>
</a>
</g>
</g>
<!-- Node15 -->
<g id="Node000015" class="node">
<title>Node15</title>
<g id="a_Node000015"><a xlink:href="class_cpl_1_1_io_1_1_stdio_1_1_output__.html" target="_top" xlink:title="This concrete class implements a Output stream using the underlying platform&#39;s native OS &#39;file interf...">
<polygon fill="white" stroke="#666666" points="597.5,-60.7 475.5,-60.7 475.5,-41.7 597.5,-41.7 597.5,-60.7"/>
<text text-anchor="middle" x="536.5" y="-48.7" font-family="Helvetica,sans-Serif" font-size="10.00">Cpl::Io::Stdio::Output_</text>
</a>
</g>
</g>
<!-- Node10&#45;&gt;Node15 -->
<g id="edge21_Node000015_Node000010" class="edge">
<title>Node10&#45;&gt;Node15</title>
<g id="a_edge21_Node000015_Node000010"><a xlink:title=" ">
<path fill="none" stroke="#63b8ff" d="M383.38,-78.72C413.83,-73.21 452.09,-66.29 482.63,-60.76"/>
<polygon fill="#63b8ff" stroke="#63b8ff" points="382.59,-75.31 373.37,-80.53 383.84,-82.19 382.59,-75.31"/>
</a>
</g>
</g>
<!-- Node11 -->
<g id="Node000011" class="node">
<title>Node11</title>
<g id="a_Node000011"><a xlink:href="class_cpl_1_1_io_1_1_stdio_1_1_input_output__.html" target="_top" xlink:title="This concrete class implements a Input&#45;Output stream.">
<polygon fill="white" stroke="#666666" points="817.5,-121.7 670.5,-121.7 670.5,-102.7 817.5,-102.7 817.5,-121.7"/>
<text text-anchor="middle" x="744" y="-109.7" font-family="Helvetica,sans-Serif" font-size="10.00">Cpl::Io::Stdio::InputOutput_</text>
</a>
</g>
</g>
<!-- Node11&#45;&gt;Node1 -->
<g id="edge13_Node000001_Node000011" class="edge">
<title>Node11&#45;&gt;Node1</title>
<g id="a_edge13_Node000001_Node000011"><a xlink:title=" ">
<path fill="none" stroke="#9a32cd" stroke-dasharray="5,2" d="M827.87,-116.7C848.2,-117.98 869.9,-119.5 890,-121.2 895.85,-121.69 901.92,-122.25 908,-122.84"/>
<polygon fill="#9a32cd" stroke="#9a32cd" points="827.89,-113.19 817.7,-116.07 827.46,-120.18 827.89,-113.19"/>
</a>
</g>
<text text-anchor="middle" x="863.5" y="-124.2" font-family="Helvetica,sans-Serif" font-size="10.00" fill="grey"> m_stream</text>
</g>
<!-- Node12&#45;&gt;Node11 -->
<g id="edge14_Node000011_Node000012" class="edge">
<title>Node12&#45;&gt;Node11</title>
<g id="a_edge14_Node000011_Node000012"><a xlink:title=" ">
<path fill="none" stroke="#63b8ff" d="M602.12,-121.11C623.81,-119.74 648.14,-118.2 670.4,-116.79"/>
<polygon fill="#63b8ff" stroke="#63b8ff" points="601.79,-117.62 592.03,-121.75 602.23,-124.61 601.79,-117.62"/>
</a>
</g>
</g>
<!-- Node13&#45;&gt;Node11 -->
<g id="edge17_Node000011_Node000013" class="edge">
<title>Node13&#45;&gt;Node11</title>
<g id="a_edge17_Node000011_Node000013"><a xlink:title=" ">
<path fill="none" stroke="#9a32cd" stroke-dasharray="5,2" d="M603.86,-95.95C625.08,-98.42 648.67,-101.18 670.31,-103.71"/>
<polygon fill="#9a32cd" stroke="#9a32cd" points="603.99,-92.44 593.65,-94.75 603.18,-99.39 603.99,-92.44"/>
</a>
</g>
<text text-anchor="middle" x="634" y="-104.2" font-family="Helvetica,sans-Serif" font-size="10.00" fill="grey"> m_in</text>
</g>
<!-- Node14 -->
<g id="Node000014" class="node">
<title>Node14</title>
<g id="a_Node000014"><a xlink:href="union_cpl_1_1_io_1_1_descriptor.html" target="_top" xlink:title="This union defines a &#39;IO descriptor&#39; in terms of a an integer and/or a void*.">
<polygon fill="white" stroke="#666666" points="382,-29.7 278,-29.7 278,-10.7 382,-10.7 382,-29.7"/>
<text text-anchor="middle" x="330" y="-17.7" font-family="Helvetica,sans-Serif" font-size="10.00">Cpl::Io::Descriptor</text>
</a>
</g>
</g>
<!-- Node14&#45;&gt;Node13 -->
<g id="edge19_Node000013_Node000014" class="edge">
<title>Node14&#45;&gt;Node13</title>
<g id="a_edge19_Node000013_Node000014"><a xlink:title=" ">
<path fill="none" stroke="#9a32cd" stroke-dasharray="5,2" d="M367.72,-33.12C396.54,-43.19 437.73,-57.38 474,-69.2 483.67,-72.35 494.24,-75.66 503.84,-78.62"/>
<polygon fill="#9a32cd" stroke="#9a32cd" points="368.66,-29.74 358.07,-29.75 366.35,-36.35 368.66,-29.74"/>
</a>
</g>
<text text-anchor="middle" x="433" y="-66.2" font-family="Helvetica,sans-Serif" font-size="10.00" fill="grey"> m_inFd</text>
</g>
<!-- Node14&#45;&gt;Node15 -->
<g id="edge22_Node000015_Node000014" class="edge">
<title>Node14&#45;&gt;Node15</title>
<g id="a_edge22_Node000015_Node000014"><a xlink:title=" ">
<path fill="none" stroke="#9a32cd" stroke-dasharray="5,2" d="M368.12,-7.93C393.27,-1.44 427.07,3.72 456,-4.2 482.6,-11.47 509.34,-30.19 524.03,-41.69"/>
<polygon fill="#9a32cd" stroke="#9a32cd" points="366.95,-4.62 358.25,-10.66 368.82,-11.37 366.95,-4.62"/>
</a>
</g>
<text text-anchor="middle" x="433" y="-7.2" font-family="Helvetica,sans-Serif" font-size="10.00" fill="grey"> m_outFd</text>
</g>
<!-- Node15&#45;&gt;Node11 -->
<g id="edge20_Node000011_Node000015" class="edge">
<title>Node15&#45;&gt;Node11</title>
<g id="a_edge20_Node000011_Node000015"><a xlink:title=" ">
<path fill="none" stroke="#9a32cd" stroke-dasharray="5,2" d="M582.25,-63.47C603.18,-69.3 628.41,-76.45 651,-83.2 672.02,-89.47 695.62,-96.92 713.65,-102.69"/>
<polygon fill="#9a32cd" stroke="#9a32cd" points="582.92,-60.03 572.35,-60.73 581.05,-66.77 582.92,-60.03"/>
</a>
</g>
<text text-anchor="middle" x="634" y="-86.2" font-family="Helvetica,sans-Serif" font-size="10.00" fill="grey"> m_out</text>
</g>
</g>
</svg>
