<?xml version="1.0" encoding="UTF-8" standalone="no"?>
<!DOCTYPE svg PUBLIC "-//W3C//DTD SVG 1.1//EN"
 "http://www.w3.org/Graphics/SVG/1.1/DTD/svg11.dtd">
<!-- Generated by graphviz version 2.43.0 (0)
 -->
<!-- Title: Cpl::System::FreeRTOS::Thread Pages: 1 -->
<svg width="1269pt" height="126pt"
 viewBox="0.00 0.00 1269.00 126.00" xmlns="http://www.w3.org/2000/svg" xmlns:xlink="http://www.w3.org/1999/xlink">
<g id="graph0" class="graph" transform="scale(1 1) rotate(0) translate(4 122)">
<title>Cpl::System::FreeRTOS::Thread</title>
<!-- Node1 -->
<g id="Node000001" class="node">
<title>Node1</title>
<g id="a_Node000001"><a xlink:title="This concrete class implements a Thread object using FreeRTOS threads.">
<polygon fill="#999999" stroke="#666666" points="1261,-86.5 1133,-86.5 1133,-56.5 1261,-56.5 1261,-86.5"/>
<text text-anchor="start" x="1141" y="-74.5" font-family="Helvetica,sans-Serif" font-size="10.00">Cpl::System::FreeRTOS</text>
<text text-anchor="middle" x="1197" y="-63.5" font-family="Helvetica,sans-Serif" font-size="10.00">::Thread</text>
</a>
</g>
</g>
<!-- Node2 -->
<g id="Node000002" class="node">
<title>Node2</title>
<g id="a_Node000002"><a xlink:href="class_cpl_1_1_system_1_1_thread.html" target="_top" xlink:title="This abstract class defines the operations that can be performed on a thread.">
<polygon fill="white" stroke="#666666" points="1004,-118 889,-118 889,-99 1004,-99 1004,-118"/>
<text text-anchor="middle" x="946.5" y="-106" font-family="Helvetica,sans-Serif" font-size="10.00">Cpl::System::Thread</text>
</a>
</g>
</g>
<!-- Node2&#45;&gt;Node1 -->
<g id="edge1_Node000001_Node000002" class="edge">
<title>Node2&#45;&gt;Node1</title>
<g id="a_edge1_Node000001_Node000002"><a xlink:title=" ">
<path fill="none" stroke="#63b8ff" d="M1014.37,-100.53C1045.08,-96.67 1081.95,-91.73 1115,-86.5 1120.79,-85.58 1126.81,-84.58 1132.82,-83.53"/>
<polygon fill="#63b8ff" stroke="#63b8ff" points="1013.69,-97.09 1004.21,-101.8 1014.56,-104.04 1013.69,-97.09"/>
</a>
</g>
</g>
<!-- Node3 -->
<g id="Node000003" class="node">
<title>Node3</title>
<g id="a_Node000003"><a xlink:href="class_cpl_1_1_system_1_1_signable.html" target="_top" xlink:title="This abstract class defines the interface by which a client can cause an object that is waiting&#45;on&#45;a&#45;...">
<polygon fill="white" stroke="#666666" points="688,-118 565,-118 565,-99 688,-99 688,-118"/>
<text text-anchor="middle" x="626.5" y="-106" font-family="Helvetica,sans-Serif" font-size="10.00">Cpl::System::Signable</text>
</a>
</g>
</g>
<!-- Node3&#45;&gt;Node2 -->
<g id="edge2_Node000002_Node000003" class="edge">
<title>Node3&#45;&gt;Node2</title>
<g id="a_edge2_Node000002_Node000003"><a xlink:title=" ">
<path fill="none" stroke="#63b8ff" d="M698.16,-108.5C755.61,-108.5 835.61,-108.5 888.9,-108.5"/>
<polygon fill="#63b8ff" stroke="#63b8ff" points="698.06,-105 688.06,-108.5 698.06,-112 698.06,-105"/>
</a>
</g>
</g>
<!-- Node4 -->
<g id="Node000004" class="node">
<title>Node4</title>
<g id="a_Node000004"><a xlink:href="class_cpl_1_1_container_1_1_item.html" target="_top" xlink:title="This class is used by the Container classes to implement a various types of singly linked containers.">
<polygon fill="white" stroke="#666666" points="526,-118 412,-118 412,-99 526,-99 526,-118"/>
<text text-anchor="middle" x="469" y="-106" font-family="Helvetica,sans-Serif" font-size="10.00">Cpl::Container::Item</text>
</a>
</g>
</g>
<!-- Node4&#45;&gt;Node3 -->
<g id="edge3_Node000003_Node000004" class="edge">
<title>Node4&#45;&gt;Node3</title>
<g id="a_edge3_Node000003_Node000004"><a xlink:title=" ">
<path fill="none" stroke="#63b8ff" d="M536.34,-108.5C545.85,-108.5 555.59,-108.5 564.98,-108.5"/>
<polygon fill="#63b8ff" stroke="#63b8ff" points="536.14,-105 526.14,-108.5 536.14,-112 536.14,-105"/>
</a>
</g>
</g>
<!-- Node5 -->
<g id="Node000005" class="node">
<title>Node5</title>
<g id="a_Node000005"><a xlink:href="class_cpl_1_1_system_1_1_runnable.html" target="_top" xlink:title="This is an abstract class defines the interface for an object that is &quot;executed&quot; when a Thread object...">
<polygon fill="white" stroke="#666666" points="1010,-81 883,-81 883,-62 1010,-62 1010,-81"/>
<text text-anchor="middle" x="946.5" y="-69" font-family="Helvetica,sans-Serif" font-size="10.00">Cpl::System::Runnable</text>
</a>
</g>
</g>
<!-- Node5&#45;&gt;Node1 -->
<g id="edge4_Node000001_Node000005" class="edge">
<title>Node5&#45;&gt;Node1</title>
<g id="a_edge4_Node000001_Node000005"><a xlink:title=" ">
<path fill="none" stroke="#9a32cd" stroke-dasharray="5,2" d="M1020.55,-71.5C1056.2,-71.5 1098.66,-71.5 1132.88,-71.5"/>
<polygon fill="#9a32cd" stroke="#9a32cd" points="1020.21,-68 1010.21,-71.5 1020.21,-75 1020.21,-68"/>
</a>
</g>
<text text-anchor="middle" x="1084.5" y="-74.5" font-family="Helvetica,sans-Serif" font-size="10.00" fill="grey"> m_runnable</text>
</g>
<!-- Node6 -->
<g id="Node000006" class="node">
<title>Node6</title>
<g id="a_Node000006"><a xlink:href="class_cpl_1_1_text_1_1_f_string.html" target="_top" xlink:title=" ">
<polygon fill="white" stroke="#666666" points="1036,-43.5 857,-43.5 857,-13.5 1036,-13.5 1036,-43.5"/>
<text text-anchor="start" x="865" y="-31.5" font-family="Helvetica,sans-Serif" font-size="10.00">Cpl::Text::FString</text>
<text text-anchor="middle" x="946.5" y="-20.5" font-family="Helvetica,sans-Serif" font-size="10.00">&lt; configMAX_TASK_NAME_LEN &gt;</text>
</a>
</g>
</g>
<!-- Node6&#45;&gt;Node1 -->
<g id="edge5_Node000001_Node000006" class="edge">
<title>Node6&#45;&gt;Node1</title>
<g id="a_edge5_Node000001_Node000006"><a xlink:title=" ">
<path fill="none" stroke="#9a32cd" stroke-dasharray="5,2" d="M1046.17,-44.7C1068.8,-48.5 1092.74,-52.58 1115,-56.5 1120.77,-57.52 1126.78,-58.59 1132.79,-59.68"/>
<polygon fill="#9a32cd" stroke="#9a32cd" points="1046.66,-41.23 1036.22,-43.03 1045.5,-48.14 1046.66,-41.23"/>
</a>
</g>
<text text-anchor="middle" x="1084.5" y="-59.5" font-family="Helvetica,sans-Serif" font-size="10.00" fill="grey"> m_name</text>
</g>
<!-- Node7 -->
<g id="Node000007" class="node">
<title>Node7</title>
<g id="a_Node000007"><a xlink:href="class_cpl_1_1_text_1_1_f_string__.html" target="_top" xlink:title="This mostly concrete class implements a &quot;fixed storage&quot; String Type.">
<polygon fill="white" stroke="#666666" points="521,-42 417,-42 417,-23 521,-23 521,-42"/>
<text text-anchor="middle" x="469" y="-30" font-family="Helvetica,sans-Serif" font-size="10.00">Cpl::Text::FString_</text>
</a>
</g>
</g>
<!-- Node7&#45;&gt;Node6 -->
<g id="edge6_Node000006_Node000007" class="edge">
<title>Node7&#45;&gt;Node6</title>
<g id="a_edge6_Node000006_Node000007"><a xlink:title=" ">
<path fill="none" stroke="#63b8ff" d="M531.46,-33.65C604.71,-34.79 730.8,-36.04 839,-33.5 844.83,-33.36 850.84,-33.18 856.89,-32.98"/>
<polygon fill="#63b8ff" stroke="#63b8ff" points="531.1,-30.14 521.04,-33.48 530.99,-37.14 531.1,-30.14"/>
</a>
</g>
</g>
<!-- Node11 -->
<g id="Node000011" class="node">
<title>Node11</title>
<g id="a_Node000011"><a xlink:href="class_cpl_1_1_text_1_1_f_string.html" target="_top" xlink:title="This template class represents a NULL terminated string of a specific length.">
<polygon fill="white" stroke="#666666" points="690,-19 563,-19 563,0 690,0 690,-19"/>
<text text-anchor="middle" x="626.5" y="-7" font-family="Helvetica,sans-Serif" font-size="10.00">Cpl::Text::FString&lt; S &gt;</text>
</a>
</g>
</g>
<!-- Node7&#45;&gt;Node11 -->
<g id="edge11_Node000011_Node000007" class="edge">
<title>Node7&#45;&gt;Node11</title>
<g id="a_edge11_Node000011_Node000007"><a xlink:title=" ">
<path fill="none" stroke="#63b8ff" d="M531.49,-23.41C541.79,-21.88 552.5,-20.3 562.83,-18.77"/>
<polygon fill="#63b8ff" stroke="#63b8ff" points="530.73,-19.98 521.35,-24.91 531.75,-26.9 530.73,-19.98"/>
</a>
</g>
</g>
<!-- Node8 -->
<g id="Node000008" class="node">
<title>Node8</title>
<g id="a_Node000008"><a xlink:href="class_cpl_1_1_text_1_1_string__.html" target="_top" xlink:title="This partially concrete class implements the portions of the String Api that is independent of the in...">
<polygon fill="white" stroke="#666666" points="375,-42 277,-42 277,-23 375,-23 375,-42"/>
<text text-anchor="middle" x="326" y="-30" font-family="Helvetica,sans-Serif" font-size="10.00">Cpl::Text::String_</text>
</a>
</g>
</g>
<!-- Node8&#45;&gt;Node7 -->
<g id="edge7_Node000007_Node000008" class="edge">
<title>Node8&#45;&gt;Node7</title>
<g id="a_edge7_Node000007_Node000008"><a xlink:title=" ">
<path fill="none" stroke="#63b8ff" d="M385.37,-32.5C395.77,-32.5 406.53,-32.5 416.72,-32.5"/>
<polygon fill="#63b8ff" stroke="#63b8ff" points="385.13,-29 375.13,-32.5 385.13,-36 385.13,-29"/>
</a>
</g>
</g>
<!-- Node9 -->
<g id="Node000009" class="node">
<title>Node9</title>
<g id="a_Node000009"><a xlink:href="class_cpl_1_1_text_1_1_string.html" target="_top" xlink:title="This abstract class defines the operations that can be before on a NULL terminated string.">
<polygon fill="white" stroke="#666666" points="240,-42 147,-42 147,-23 240,-23 240,-42"/>
<text text-anchor="middle" x="193.5" y="-30" font-family="Helvetica,sans-Serif" font-size="10.00">Cpl::Text::String</text>
</a>
</g>
</g>
<!-- Node9&#45;&gt;Node8 -->
<g id="edge8_Node000008_Node000009" class="edge">
<title>Node9&#45;&gt;Node8</title>
<g id="a_edge8_Node000008_Node000009"><a xlink:title=" ">
<path fill="none" stroke="#63b8ff" d="M250.38,-32.5C259.22,-32.5 268.3,-32.5 276.95,-32.5"/>
<polygon fill="#63b8ff" stroke="#63b8ff" points="250.14,-29 240.14,-32.5 250.14,-36 250.14,-29"/>
</a>
</g>
</g>
<!-- Node10 -->
<g id="Node000010" class="node">
<title>Node10</title>
<g id="a_Node000010"><a xlink:href="class_cpl_1_1_container_1_1_key.html" target="_top" xlink:title="This abstract class defines the interface that a contained object must support if it has comparable k...">
<polygon fill="white" stroke="#666666" points="110,-42 0,-42 0,-23 110,-23 110,-42"/>
<text text-anchor="middle" x="55" y="-30" font-family="Helvetica,sans-Serif" font-size="10.00">Cpl::Container::Key</text>
</a>
</g>
</g>
<!-- Node10&#45;&gt;Node9 -->
<g id="edge9_Node000009_Node000010" class="edge">
<title>Node10&#45;&gt;Node9</title>
<g id="a_edge9_Node000009_Node000010"><a xlink:title=" ">
<path fill="none" stroke="#63b8ff" d="M120.61,-32.5C129.42,-32.5 138.31,-32.5 146.7,-32.5"/>
<polygon fill="#63b8ff" stroke="#63b8ff" points="120.34,-29 110.34,-32.5 120.34,-36 120.34,-29"/>
</a>
</g>
</g>
<!-- Node11&#45;&gt;Node6 -->
<g id="edge10_Node000006_Node000011" class="edge">
<title>Node11&#45;&gt;Node6</title>
<g id="a_edge10_Node000006_Node000011"><a xlink:title=" ">
<path fill="none" stroke="orange" stroke-dasharray="5,2" d="M700.22,-7.52C741.07,-7.08 792.95,-7.63 839,-11.5 845.25,-12.03 851.69,-12.7 858.16,-13.49"/>
<polygon fill="orange" stroke="orange" points="700.03,-4.03 690.08,-7.66 700.13,-11.02 700.03,-4.03"/>
</a>
</g>
<text text-anchor="start" x="708" y="-25.5" font-family="Helvetica,sans-Serif" font-size="10.00" fill="grey"> &lt; configMAX_TASK_NAME</text>
<text text-anchor="middle" x="773.5" y="-14.5" font-family="Helvetica,sans-Serif" font-size="10.00" fill="grey">_LEN &gt;</text>
</g>
</g>
</svg>
