<?xml version="1.0" encoding="UTF-8" standalone="no"?>
<!DOCTYPE svg PUBLIC "-//W3C//DTD SVG 1.1//EN"
 "http://www.w3.org/Graphics/SVG/1.1/DTD/svg11.dtd">
<!-- Generated by graphviz version 2.43.0 (0)
 -->
<!-- Title: Cpl::Io::Serial::ST::M32F4::InputOutput Pages: 1 -->
<svg width="1007pt" height="162pt"
 viewBox="0.00 0.00 1007.00 161.50" xmlns="http://www.w3.org/2000/svg" xmlns:xlink="http://www.w3.org/1999/xlink">
<g id="graph0" class="graph" transform="scale(1 1) rotate(0) translate(4 157.5)">
<title>Cpl::Io::Serial::ST::M32F4::InputOutput</title>
<!-- Node1 -->
<g id="Node000001" class="node">
<title>Node1</title>
<g id="a_Node000001"><a xlink:title="This concrete class implements the InputOutput stream interface built on top of ST HAL Layer/SDK.">
<polygon fill="#999999" stroke="#666666" points="995,-117 876,-117 876,-87 995,-87 995,-117"/>
<text text-anchor="start" x="884" y="-105" font-family="Helvetica,sans-Serif" font-size="10.00">Cpl::Io::Serial::ST</text>
<text text-anchor="middle" x="935.5" y="-94" font-family="Helvetica,sans-Serif" font-size="10.00">::M32F4::InputOutput</text>
</a>
</g>
</g>
<!-- Node2 -->
<g id="Node000002" class="node">
<title>Node2</title>
<g id="a_Node000002"><a xlink:href="class_cpl_1_1_io_1_1_input_output.html" target="_top" xlink:title="This abstract class defines a interface for operating on an input&#45;output stream (example of a stream ...">
<polygon fill="white" stroke="#666666" points="761,-124.5 650,-124.5 650,-105.5 761,-105.5 761,-124.5"/>
<text text-anchor="middle" x="705.5" y="-112.5" font-family="Helvetica,sans-Serif" font-size="10.00">Cpl::Io::InputOutput</text>
</a>
</g>
</g>
<!-- Node2&#45;&gt;Node1 -->
<g id="edge1_Node000001_Node000002" class="edge">
<title>Node2&#45;&gt;Node1</title>
<g id="a_edge1_Node000001_Node000002"><a xlink:title=" ">
<path fill="none" stroke="#63b8ff" d="M771.11,-111.32C804.08,-109.44 843.88,-107.17 875.95,-105.34"/>
<polygon fill="#63b8ff" stroke="#63b8ff" points="770.9,-107.82 761.11,-111.89 771.29,-114.81 770.9,-107.82"/>
</a>
</g>
</g>
<!-- Node3 -->
<g id="Node000003" class="node">
<title>Node3</title>
<g id="a_Node000003"><a xlink:href="class_cpl_1_1_io_1_1_input.html" target="_top" xlink:title="This partially abstract class defines a interface for operating on an input stream (example of a stre...">
<polygon fill="white" stroke="#666666" points="500.5,-153.5 422.5,-153.5 422.5,-134.5 500.5,-134.5 500.5,-153.5"/>
<text text-anchor="middle" x="461.5" y="-141.5" font-family="Helvetica,sans-Serif" font-size="10.00">Cpl::Io::Input</text>
</a>
</g>
</g>
<!-- Node3&#45;&gt;Node2 -->
<g id="edge2_Node000002_Node000003" class="edge">
<title>Node3&#45;&gt;Node2</title>
<g id="a_edge2_Node000002_Node000003"><a xlink:title=" ">
<path fill="none" stroke="#63b8ff" d="M510.7,-138.41C542.81,-134.67 585.94,-129.6 624,-125 632.39,-123.99 641.27,-122.9 649.95,-121.83"/>
<polygon fill="#63b8ff" stroke="#63b8ff" points="510.21,-134.94 500.69,-139.58 511.02,-141.9 510.21,-134.94"/>
</a>
</g>
</g>
<!-- Node4 -->
<g id="Node000004" class="node">
<title>Node4</title>
<g id="a_Node000004"><a xlink:href="class_cpl_1_1_io_1_1_close.html" target="_top" xlink:title="This abstract class defines a close operation that is intended to be used Input and Output streams/fi...">
<polygon fill="white" stroke="#666666" points="262.5,-144.5 182.5,-144.5 182.5,-125.5 262.5,-125.5 262.5,-144.5"/>
<text text-anchor="middle" x="222.5" y="-132.5" font-family="Helvetica,sans-Serif" font-size="10.00">Cpl::Io::Close</text>
</a>
</g>
</g>
<!-- Node4&#45;&gt;Node3 -->
<g id="edge3_Node000003_Node000004" class="edge">
<title>Node4&#45;&gt;Node3</title>
<g id="a_edge3_Node000003_Node000004"><a xlink:title=" ">
<path fill="none" stroke="#63b8ff" d="M272.62,-142.2C285.41,-143.78 299.2,-145.21 312,-146 349.44,-148.32 392.29,-147.36 422.31,-146.09"/>
<polygon fill="#63b8ff" stroke="#63b8ff" points="272.98,-138.72 262.61,-140.92 272.09,-145.66 272.98,-138.72"/>
</a>
</g>
</g>
<!-- Node7 -->
<g id="Node000007" class="node">
<title>Node7</title>
<g id="a_Node000007"><a xlink:href="class_cpl_1_1_io_1_1_output.html" target="_top" xlink:title="This partially abstract class defines a interface for operating on an output stream (example of a str...">
<polygon fill="white" stroke="#666666" points="504.5,-116.5 418.5,-116.5 418.5,-97.5 504.5,-97.5 504.5,-116.5"/>
<text text-anchor="middle" x="461.5" y="-104.5" font-family="Helvetica,sans-Serif" font-size="10.00">Cpl::Io::Output</text>
</a>
</g>
</g>
<!-- Node4&#45;&gt;Node7 -->
<g id="edge7_Node000007_Node000004" class="edge">
<title>Node4&#45;&gt;Node7</title>
<g id="a_edge7_Node000007_Node000004"><a xlink:title=" ">
<path fill="none" stroke="#63b8ff" d="M272.58,-129.2C315.53,-124.13 377.27,-116.83 418.1,-112.01"/>
<polygon fill="#63b8ff" stroke="#63b8ff" points="272.16,-125.73 262.64,-130.38 272.98,-132.68 272.16,-125.73"/>
</a>
</g>
</g>
<!-- Node5 -->
<g id="Node000005" class="node">
<title>Node5</title>
<g id="a_Node000005"><a xlink:href="class_cpl_1_1_container_1_1_item.html" target="_top" xlink:title="This class is used by the Container classes to implement a various types of singly linked containers.">
<polygon fill="white" stroke="#666666" points="114,-106.5 0,-106.5 0,-87.5 114,-87.5 114,-106.5"/>
<text text-anchor="middle" x="57" y="-94.5" font-family="Helvetica,sans-Serif" font-size="10.00">Cpl::Container::Item</text>
</a>
</g>
</g>
<!-- Node5&#45;&gt;Node4 -->
<g id="edge4_Node000004_Node000005" class="edge">
<title>Node5&#45;&gt;Node4</title>
<g id="a_edge4_Node000004_Node000005"><a xlink:title=" ">
<path fill="none" stroke="#63b8ff" d="M109.1,-108.88C132.7,-114.36 160.29,-120.77 182.23,-125.87"/>
<polygon fill="#63b8ff" stroke="#63b8ff" points="109.79,-105.44 99.26,-106.59 108.21,-112.26 109.79,-105.44"/>
</a>
</g>
</g>
<!-- Node10 -->
<g id="Node000010" class="node">
<title>Node10</title>
<g id="a_Node000010"><a xlink:href="class_cpl_1_1_system_1_1_signable.html" target="_top" xlink:title="This abstract class defines the interface by which a client can cause an object that is waiting&#45;on&#45;a&#45;...">
<polygon fill="white" stroke="#666666" points="284,-70.5 161,-70.5 161,-51.5 284,-51.5 284,-70.5"/>
<text text-anchor="middle" x="222.5" y="-58.5" font-family="Helvetica,sans-Serif" font-size="10.00">Cpl::System::Signable</text>
</a>
</g>
</g>
<!-- Node5&#45;&gt;Node10 -->
<g id="edge12_Node000010_Node000005" class="edge">
<title>Node5&#45;&gt;Node10</title>
<g id="a_edge12_Node000010_Node000005"><a xlink:title=" ">
<path fill="none" stroke="#63b8ff" d="M111.41,-85.24C133.05,-80.48 157.71,-75.05 178.2,-70.53"/>
<polygon fill="#63b8ff" stroke="#63b8ff" points="110.4,-81.88 101.39,-87.45 111.9,-88.71 110.4,-81.88"/>
</a>
</g>
</g>
<!-- Node6 -->
<g id="Node000006" class="node">
<title>Node6</title>
<g id="a_Node000006"><a xlink:href="class_cpl_1_1_io_1_1_is_eos.html" target="_top" xlink:title="This abstract class defines a isEos() operation that is intended to be used Input and Output streams.">
<polygon fill="white" stroke="#666666" points="262,-107.5 183,-107.5 183,-88.5 262,-88.5 262,-107.5"/>
<text text-anchor="middle" x="222.5" y="-95.5" font-family="Helvetica,sans-Serif" font-size="10.00">Cpl::Io::IsEos</text>
</a>
</g>
</g>
<!-- Node6&#45;&gt;Node3 -->
<g id="edge5_Node000003_Node000006" class="edge">
<title>Node6&#45;&gt;Node3</title>
<g id="a_edge5_Node000003_Node000006"><a xlink:title=" ">
<path fill="none" stroke="#63b8ff" d="M272.1,-107.43C316.56,-116.06 381.45,-128.66 422.3,-136.59"/>
<polygon fill="#63b8ff" stroke="#63b8ff" points="272.59,-103.96 262.11,-105.49 271.26,-110.83 272.59,-103.96"/>
</a>
</g>
</g>
<!-- Node6&#45;&gt;Node7 -->
<g id="edge8_Node000007_Node000006" class="edge">
<title>Node6&#45;&gt;Node7</title>
<g id="a_edge8_Node000007_Node000006"><a xlink:title=" ">
<path fill="none" stroke="#63b8ff" d="M272.56,-97.3C301.51,-97.15 338.86,-97.39 372,-99 387.1,-99.73 403.61,-101.08 418.23,-102.46"/>
<polygon fill="#63b8ff" stroke="#63b8ff" points="272.27,-93.81 262.3,-97.38 272.32,-100.81 272.27,-93.81"/>
</a>
</g>
</g>
<!-- Node7&#45;&gt;Node2 -->
<g id="edge6_Node000002_Node000007" class="edge">
<title>Node7&#45;&gt;Node2</title>
<g id="a_edge6_Node000002_Node000007"><a xlink:title=" ">
<path fill="none" stroke="#63b8ff" d="M514.69,-108.73C554.5,-110.04 609.2,-111.85 649.65,-113.19"/>
<polygon fill="#63b8ff" stroke="#63b8ff" points="514.76,-105.23 504.65,-108.39 514.53,-112.22 514.76,-105.23"/>
</a>
</g>
</g>
<!-- Node8 -->
<g id="Node000008" class="node">
<title>Node8</title>
<g id="a_Node000008"><a xlink:href="class_cpl_1_1_io_1_1_serial_1_1_s_t_1_1_m32_f4_1_1_stream_driver.html" target="_top" xlink:title="This concrete class implements a non&#45;busy&#45;wait blocking Transmit/Receive Stream UART driver with a SO...">
<polygon fill="white" stroke="#666666" points="769,-70 642,-70 642,-40 769,-40 769,-70"/>
<text text-anchor="start" x="650" y="-58" font-family="Helvetica,sans-Serif" font-size="10.00">Cpl::Io::Serial::ST</text>
<text text-anchor="middle" x="705.5" y="-47" font-family="Helvetica,sans-Serif" font-size="10.00">::M32F4::StreamDriver</text>
</a>
</g>
</g>
<!-- Node8&#45;&gt;Node1 -->
<g id="edge9_Node000001_Node000008" class="edge">
<title>Node8&#45;&gt;Node1</title>
<g id="a_edge9_Node000001_Node000008"><a xlink:title=" ">
<path fill="none" stroke="#9a32cd" stroke-dasharray="5,2" d="M779.07,-69.96C810.34,-76.41 846.43,-83.84 875.95,-89.93"/>
<polygon fill="#9a32cd" stroke="#9a32cd" points="779.6,-66.5 769.1,-67.91 778.19,-73.35 779.6,-66.5"/>
</a>
</g>
<text text-anchor="middle" x="820.5" y="-87" font-family="Helvetica,sans-Serif" font-size="10.00" fill="grey"> m_driver</text>
</g>
<!-- Node13 -->
<g id="Node000013" class="node">
<title>Node13</title>
<g id="a_Node000013"><a xlink:href="class_cpl_1_1_io_1_1_serial_1_1_s_t_1_1_m32_f4_1_1_stream_driver.html#struct_cpl_1_1_io_1_1_serial_1_1_s_t_1_1_m32_f4_1_1_stream_driver_1_1_hal_mapping___t" target="_top" xlink:title="Used to map a HAL UART Handle to an instance of this class.">
<polygon fill="white" stroke="#666666" points="999,-61.5 872,-61.5 872,-20.5 999,-20.5 999,-61.5"/>
<text text-anchor="start" x="880" y="-49.5" font-family="Helvetica,sans-Serif" font-size="10.00">Cpl::Io::Serial::ST</text>
<text text-anchor="start" x="880" y="-38.5" font-family="Helvetica,sans-Serif" font-size="10.00">::M32F4::StreamDriver</text>
<text text-anchor="middle" x="935.5" y="-27.5" font-family="Helvetica,sans-Serif" font-size="10.00">::HalMapping_T</text>
</a>
</g>
</g>
<!-- Node8&#45;&gt;Node13 -->
<g id="edge16_Node000013_Node000008" class="edge">
<title>Node8&#45;&gt;Node13</title>
<g id="a_edge16_Node000013_Node000008"><a xlink:title=" ">
<path fill="none" stroke="#9a32cd" stroke-dasharray="5,2" d="M760.49,-37.36C769.26,-35.14 778.32,-33.22 787,-32 814.69,-28.12 845.54,-29.18 871.84,-31.67"/>
<polygon fill="#9a32cd" stroke="#9a32cd" points="759.48,-34 750.73,-39.98 761.3,-40.76 759.48,-34"/>
</a>
</g>
<text text-anchor="middle" x="820.5" y="-35" font-family="Helvetica,sans-Serif" font-size="10.00" fill="grey"> driver</text>
</g>
<!-- Node9 -->
<g id="Node000009" class="node">
<title>Node9</title>
<g id="a_Node000009"><a xlink:href="class_cpl_1_1_system_1_1_thread.html" target="_top" xlink:title="This abstract class defines the operations that can be performed on a thread.">
<polygon fill="white" stroke="#666666" points="519,-69.5 404,-69.5 404,-50.5 519,-50.5 519,-69.5"/>
<text text-anchor="middle" x="461.5" y="-57.5" font-family="Helvetica,sans-Serif" font-size="10.00">Cpl::System::Thread</text>
</a>
</g>
</g>
<!-- Node9&#45;&gt;Node8 -->
<g id="edge10_Node000008_Node000009" class="edge">
<title>Node9&#45;&gt;Node8</title>
<g id="a_edge10_Node000008_Node000009"><a xlink:title=" ">
<path fill="none" stroke="#9a32cd" stroke-dasharray="5,2" d="M529.4,-58.62C564.5,-57.89 607.26,-57.01 641.74,-56.3"/>
<polygon fill="#9a32cd" stroke="#9a32cd" points="529.16,-55.12 519.24,-58.83 529.31,-62.12 529.16,-55.12"/>
</a>
</g>
<text text-anchor="middle" x="587.5" y="-73" font-family="Helvetica,sans-Serif" font-size="10.00" fill="grey"> m_rxWaiterPtr</text>
<text text-anchor="middle" x="587.5" y="-62" font-family="Helvetica,sans-Serif" font-size="10.00" fill="grey">m_txWaiterPtr</text>
</g>
<!-- Node10&#45;&gt;Node9 -->
<g id="edge11_Node000009_Node000010" class="edge">
<title>Node10&#45;&gt;Node9</title>
<g id="a_edge11_Node000009_Node000010"><a xlink:title=" ">
<path fill="none" stroke="#63b8ff" d="M294.36,-60.7C329.27,-60.55 370.79,-60.38 403.6,-60.24"/>
<polygon fill="#63b8ff" stroke="#63b8ff" points="294.21,-57.2 284.23,-60.74 294.24,-64.2 294.21,-57.2"/>
</a>
</g>
</g>
<!-- Node11 -->
<g id="Node000011" class="node">
<title>Node11</title>
<g id="a_Node000011"><a xlink:href="class_cpl_1_1_container_1_1_ring_buffer.html" target="_top" xlink:title=" ">
<polygon fill="white" stroke="#666666" points="533,-30 390,-30 390,0 533,0 533,-30"/>
<text text-anchor="start" x="398" y="-18" font-family="Helvetica,sans-Serif" font-size="10.00">Cpl::Container::RingBuffer</text>
<text text-anchor="middle" x="461.5" y="-7" font-family="Helvetica,sans-Serif" font-size="10.00">&lt; uint8_t &gt;</text>
</a>
</g>
</g>
<!-- Node11&#45;&gt;Node8 -->
<g id="edge13_Node000008_Node000011" class="edge">
<title>Node11&#45;&gt;Node8</title>
<g id="a_edge13_Node000008_Node000011"><a xlink:title=" ">
<path fill="none" stroke="#9a32cd" stroke-dasharray="5,2" d="M543.43,-19.97C569.32,-22.37 598.01,-25.89 624,-31 635.59,-33.28 647.91,-36.52 659.33,-39.88"/>
<polygon fill="#9a32cd" stroke="#9a32cd" points="543.55,-16.47 533.28,-19.07 542.93,-23.44 543.55,-16.47"/>
</a>
</g>
<text text-anchor="middle" x="587.5" y="-45" font-family="Helvetica,sans-Serif" font-size="10.00" fill="grey"> m_rxBuffer</text>
<text text-anchor="middle" x="587.5" y="-34" font-family="Helvetica,sans-Serif" font-size="10.00" fill="grey">m_txBuffer</text>
</g>
<!-- Node12 -->
<g id="Node000012" class="node">
<title>Node12</title>
<g id="a_Node000012"><a xlink:href="class_cpl_1_1_container_1_1_ring_buffer.html" target="_top" xlink:title="This template class implements a Ring Buffer.">
<polygon fill="white" stroke="#666666" points="294,-30 151,-30 151,0 294,0 294,-30"/>
<text text-anchor="start" x="159" y="-18" font-family="Helvetica,sans-Serif" font-size="10.00">Cpl::Container::RingBuffer</text>
<text text-anchor="middle" x="222.5" y="-7" font-family="Helvetica,sans-Serif" font-size="10.00">&lt; ITEM &gt;</text>
</a>
</g>
</g>
<!-- Node12&#45;&gt;Node11 -->
<g id="edge14_Node000011_Node000012" class="edge">
<title>Node12&#45;&gt;Node11</title>
<g id="a_edge14_Node000011_Node000012"><a xlink:title=" ">
<path fill="none" stroke="orange" stroke-dasharray="5,2" d="M304.34,-15C332.05,-15 362.82,-15 389.67,-15"/>
<polygon fill="orange" stroke="orange" points="304.29,-11.5 294.29,-15 304.29,-18.5 304.29,-11.5"/>
</a>
</g>
<text text-anchor="middle" x="342" y="-18" font-family="Helvetica,sans-Serif" font-size="10.00" fill="grey"> &lt; uint8_t &gt;</text>
</g>
<!-- Node13&#45;&gt;Node8 -->
<g id="edge15_Node000008_Node000013" class="edge">
<title>Node13&#45;&gt;Node8</title>
<g id="a_edge15_Node000008_Node000013"><a xlink:title=" ">
<path fill="none" stroke="#9a32cd" stroke-dasharray="5,2" d="M861.33,-45.49C831.61,-47.32 797.64,-49.4 769.1,-51.16"/>
<polygon fill="#9a32cd" stroke="#9a32cd" points="861.87,-48.97 871.64,-44.86 861.44,-41.98 861.87,-48.97"/>
</a>
</g>
<text text-anchor="middle" x="820.5" y="-53" font-family="Helvetica,sans-Serif" font-size="10.00" fill="grey"> m_mappings</text>
</g>
</g>
</svg>
