<?xml version="1.0" encoding="UTF-8" standalone="no"?>
<!DOCTYPE svg PUBLIC "-//W3C//DTD SVG 1.1//EN"
 "http://www.w3.org/Graphics/SVG/1.1/DTD/svg11.dtd">
<!-- Generated by graphviz version 2.43.0 (0)
 -->
<!-- Title: Cpl::Io::Close Pages: 1 -->
<svg width="909pt" height="543pt"
 viewBox="0.00 0.00 909.00 543.00" xmlns="http://www.w3.org/2000/svg" xmlns:xlink="http://www.w3.org/1999/xlink">
<g id="graph0" class="graph" transform="scale(1 1) rotate(0) translate(4 539)">
<title>Cpl::Io::Close</title>
<!-- Node1 -->
<g id="Node000001" class="node">
<title>Node1</title>
<g id="a_Node000001"><a xlink:title="This abstract class defines a close operation that is intended to be used Input and Output streams/fi...">
<polygon fill="#999999" stroke="#666666" points="230,-204 150,-204 150,-185 230,-185 230,-204"/>
<text text-anchor="middle" x="190" y="-192" font-family="Helvetica,sans-Serif" font-size="10.00">Cpl::Io::Close</text>
</a>
</g>
</g>
<!-- Node3 -->
<g id="Node000003" class="node">
<title>Node3</title>
<g id="a_Node000003"><a xlink:href="class_cpl_1_1_io_1_1_input.html" target="_top" xlink:title="This partially abstract class defines a interface for operating on an input stream (example of a stre...">
<polygon fill="white" stroke="#666666" points="348,-243 270,-243 270,-224 348,-224 348,-243"/>
<text text-anchor="middle" x="309" y="-231" font-family="Helvetica,sans-Serif" font-size="10.00">Cpl::Io::Input</text>
</a>
</g>
</g>
<!-- Node1&#45;&gt;Node3 -->
<g id="edge2_Node000001_Node000003" class="edge">
<title>Node1&#45;&gt;Node3</title>
<g id="a_edge2_Node000001_Node000003"><a xlink:title=" ">
<path fill="none" stroke="#63b8ff" d="M229.38,-207.29C245.63,-212.71 264.24,-218.91 279.27,-223.92"/>
<polygon fill="#63b8ff" stroke="#63b8ff" points="230.22,-203.88 219.62,-204.04 228,-210.52 230.22,-203.88"/>
</a>
</g>
</g>
<!-- Node21 -->
<g id="Node000021" class="node">
<title>Node21</title>
<g id="a_Node000021"><a xlink:href="class_cpl_1_1_io_1_1_output.html" target="_top" xlink:title="This partially abstract class defines a interface for operating on an output stream (example of a str...">
<polygon fill="white" stroke="#666666" points="352,-186 266,-186 266,-167 352,-167 352,-186"/>
<text text-anchor="middle" x="309" y="-174" font-family="Helvetica,sans-Serif" font-size="10.00">Cpl::Io::Output</text>
</a>
</g>
</g>
<!-- Node1&#45;&gt;Node21 -->
<g id="edge20_Node000001_Node000021" class="edge">
<title>Node1&#45;&gt;Node21</title>
<g id="a_edge20_Node000001_Node000021"><a xlink:title=" ">
<path fill="none" stroke="#63b8ff" d="M240.41,-186.9C248.86,-185.6 257.57,-184.26 265.81,-182.99"/>
<polygon fill="#63b8ff" stroke="#63b8ff" points="239.64,-183.48 230.28,-188.46 240.7,-190.39 239.64,-183.48"/>
</a>
</g>
</g>
<!-- Node2 -->
<g id="Node000002" class="node">
<title>Node2</title>
<g id="a_Node000002"><a xlink:href="class_cpl_1_1_container_1_1_item.html" target="_top" xlink:title="This class is used by the Container classes to implement a various types of singly linked containers.">
<polygon fill="white" stroke="#666666" points="114,-204 0,-204 0,-185 114,-185 114,-204"/>
<text text-anchor="middle" x="57" y="-192" font-family="Helvetica,sans-Serif" font-size="10.00">Cpl::Container::Item</text>
</a>
</g>
</g>
<!-- Node2&#45;&gt;Node1 -->
<g id="edge1_Node000001_Node000002" class="edge">
<title>Node2&#45;&gt;Node1</title>
<g id="a_edge1_Node000001_Node000002"><a xlink:title=" ">
<path fill="none" stroke="#63b8ff" d="M124.44,-194.5C133.09,-194.5 141.72,-194.5 149.72,-194.5"/>
<polygon fill="#63b8ff" stroke="#63b8ff" points="124.32,-191 114.32,-194.5 124.32,-198 124.32,-191"/>
</a>
</g>
</g>
<!-- Node4 -->
<g id="Node000004" class="node">
<title>Node4</title>
<g id="a_Node000004"><a xlink:href="class_cpl_1_1_io_1_1_file_1_1_input_api.html" target="_top" xlink:title="This abstract class defines the interface for a Random Access Input File.">
<polygon fill="white" stroke="#666666" points="515,-498 398,-498 398,-479 515,-479 515,-498"/>
<text text-anchor="middle" x="456.5" y="-486" font-family="Helvetica,sans-Serif" font-size="10.00">Cpl::Io::File::InputApi</text>
</a>
</g>
</g>
<!-- Node3&#45;&gt;Node4 -->
<g id="edge3_Node000003_Node000004" class="edge">
<title>Node3&#45;&gt;Node4</title>
<g id="a_edge3_Node000003_Node000004"><a xlink:title=" ">
<path fill="none" stroke="#63b8ff" d="M310.49,-253.36C312.72,-298.75 324.7,-410.73 388,-470.5 391.62,-473.91 395.8,-476.7 400.29,-478.96"/>
<polygon fill="#63b8ff" stroke="#63b8ff" points="313.98,-253.19 310.11,-243.33 306.99,-253.46 313.98,-253.19"/>
</a>
</g>
</g>
<!-- Node9 -->
<g id="Node000009" class="node">
<title>Node9</title>
<g id="a_Node000009"><a xlink:href="class_cpl_1_1_io_1_1_input_output.html" target="_top" xlink:title="This abstract class defines a interface for operating on an input&#45;output stream (example of a stream ...">
<polygon fill="white" stroke="#666666" points="512,-253 401,-253 401,-234 512,-234 512,-253"/>
<text text-anchor="middle" x="456.5" y="-241" font-family="Helvetica,sans-Serif" font-size="10.00">Cpl::Io::InputOutput</text>
</a>
</g>
</g>
<!-- Node3&#45;&gt;Node9 -->
<g id="edge8_Node000003_Node000009" class="edge">
<title>Node3&#45;&gt;Node9</title>
<g id="a_edge8_Node000003_Node000009"><a xlink:title=" ">
<path fill="none" stroke="#63b8ff" d="M358.35,-236.82C371.97,-237.76 386.88,-238.78 400.84,-239.74"/>
<polygon fill="#63b8ff" stroke="#63b8ff" points="358.44,-233.32 348.23,-236.13 357.96,-240.3 358.44,-233.32"/>
</a>
</g>
</g>
<!-- Node19 -->
<g id="Node000019" class="node">
<title>Node19</title>
<g id="a_Node000019"><a xlink:href="class_cpl_1_1_io_1_1_stdio_1_1_input__.html" target="_top" xlink:title="This concrete class implements a Input stream using the underlying platform&#39;s native OS &#39;file interfa...">
<polygon fill="white" stroke="#666666" points="513.5,-66 399.5,-66 399.5,-47 513.5,-47 513.5,-66"/>
<text text-anchor="middle" x="456.5" y="-54" font-family="Helvetica,sans-Serif" font-size="10.00">Cpl::Io::Stdio::Input_</text>
</a>
</g>
</g>
<!-- Node3&#45;&gt;Node19 -->
<g id="edge18_Node000003_Node000019" class="edge">
<title>Node3&#45;&gt;Node19</title>
<g id="a_edge18_Node000003_Node000019"><a xlink:title=" ">
<path fill="none" stroke="#63b8ff" d="M332.43,-217.21C339.54,-211.09 346.88,-203.63 352,-195.5 381.91,-148.03 347.76,-113.6 388,-74.5 391.48,-71.12 395.52,-68.36 399.86,-66.1"/>
<polygon fill="#63b8ff" stroke="#63b8ff" points="329.92,-214.74 324.33,-223.74 334.32,-220.19 329.92,-214.74"/>
</a>
</g>
</g>
<!-- Node5 -->
<g id="Node000005" class="node">
<title>Node5</title>
<g id="a_Node000005"><a xlink:href="class_cpl_1_1_io_1_1_file_1_1_input.html" target="_top" xlink:title="This concrete class provides a platform independent &#39;standard&#39; implementation of a Cpl::Io::File::Inp...">
<polygon fill="white" stroke="#666666" points="686.5,-535 585.5,-535 585.5,-516 686.5,-516 686.5,-535"/>
<text text-anchor="middle" x="636" y="-523" font-family="Helvetica,sans-Serif" font-size="10.00">Cpl::Io::File::Input</text>
</a>
</g>
</g>
<!-- Node4&#45;&gt;Node5 -->
<g id="edge4_Node000004_Node000005" class="edge">
<title>Node4&#45;&gt;Node5</title>
<g id="a_edge4_Node000004_Node000005"><a xlink:title=" ">
<path fill="none" stroke="#63b8ff" d="M513.07,-500.08C537.53,-505.18 565.91,-511.1 589.14,-515.94"/>
<polygon fill="#63b8ff" stroke="#63b8ff" points="513.71,-496.64 503.21,-498.03 512.29,-503.5 513.71,-496.64"/>
</a>
</g>
</g>
<!-- Node6 -->
<g id="Node000006" class="node">
<title>Node6</title>
<g id="a_Node000006"><a xlink:href="class_cpl_1_1_io_1_1_file_1_1_input_output_api.html" target="_top" xlink:title="This abstract class defines the interface for a Random Access Input Output File.">
<polygon fill="white" stroke="#666666" points="711,-498 561,-498 561,-479 711,-479 711,-498"/>
<text text-anchor="middle" x="636" y="-486" font-family="Helvetica,sans-Serif" font-size="10.00">Cpl::Io::File::InputOutputApi</text>
</a>
</g>
</g>
<!-- Node4&#45;&gt;Node6 -->
<g id="edge5_Node000004_Node000006" class="edge">
<title>Node4&#45;&gt;Node6</title>
<g id="a_edge5_Node000004_Node000006"><a xlink:title=" ">
<path fill="none" stroke="#63b8ff" d="M525.21,-488.5C536.86,-488.5 549.02,-488.5 560.83,-488.5"/>
<polygon fill="#63b8ff" stroke="#63b8ff" points="525.13,-485 515.13,-488.5 525.13,-492 525.13,-485"/>
</a>
</g>
</g>
<!-- Node7 -->
<g id="Node000007" class="node">
<title>Node7</title>
<g id="a_Node000007"><a xlink:href="class_cpl_1_1_io_1_1_file_1_1_input_output.html" target="_top" xlink:title="This concrete class provides a platform independent &#39;standard&#39; implementation of an InputOutputFileAp...">
<polygon fill="white" stroke="#666666" points="891,-516 757,-516 757,-497 891,-497 891,-516"/>
<text text-anchor="middle" x="824" y="-504" font-family="Helvetica,sans-Serif" font-size="10.00">Cpl::Io::File::InputOutput</text>
</a>
</g>
</g>
<!-- Node6&#45;&gt;Node7 -->
<g id="edge6_Node000006_Node000007" class="edge">
<title>Node6&#45;&gt;Node7</title>
<g id="a_edge6_Node000006_Node000007"><a xlink:title=" ">
<path fill="none" stroke="#63b8ff" d="M721.03,-496.63C733,-497.79 745.17,-498.97 756.73,-500.09"/>
<polygon fill="#63b8ff" stroke="#63b8ff" points="721.34,-493.15 711.05,-495.67 720.66,-500.11 721.34,-493.15"/>
</a>
</g>
</g>
<!-- Node8 -->
<g id="Node000008" class="node">
<title>Node8</title>
<g id="a_Node000008"><a xlink:href="class_cpl_1_1_io_1_1_file_1_1_null.html" target="_top" xlink:title="This concrete class implements a NULL InputOutputApi File that all of its input operations return &#39;En...">
<polygon fill="white" stroke="#666666" points="872,-479 776,-479 776,-460 872,-460 872,-479"/>
<text text-anchor="middle" x="824" y="-467" font-family="Helvetica,sans-Serif" font-size="10.00">Cpl::Io::File::Null</text>
</a>
</g>
</g>
<!-- Node6&#45;&gt;Node8 -->
<g id="edge7_Node000006_Node000008" class="edge">
<title>Node6&#45;&gt;Node8</title>
<g id="a_edge7_Node000006_Node000008"><a xlink:title=" ">
<path fill="none" stroke="#63b8ff" d="M721.13,-479.91C739.96,-477.98 759.27,-476.01 775.95,-474.31"/>
<polygon fill="#63b8ff" stroke="#63b8ff" points="720.64,-476.44 711.05,-480.94 721.35,-483.4 720.64,-476.44"/>
</a>
</g>
</g>
<!-- Node10 -->
<g id="Node000010" class="node">
<title>Node10</title>
<g id="a_Node000010"><a xlink:href="class_cpl_1_1_io_1_1_null.html" target="_top" xlink:title="This concrete class implements a NULL InputOutput stream &#45; that all of its input operations return &#39;E...">
<polygon fill="white" stroke="#666666" points="672.5,-424 599.5,-424 599.5,-405 672.5,-405 672.5,-424"/>
<text text-anchor="middle" x="636" y="-412" font-family="Helvetica,sans-Serif" font-size="10.00">Cpl::Io::Null</text>
</a>
</g>
</g>
<!-- Node9&#45;&gt;Node10 -->
<g id="edge9_Node000009_Node000010" class="edge">
<title>Node9&#45;&gt;Node10</title>
<g id="a_edge9_Node000009_Node000010"><a xlink:title=" ">
<path fill="none" stroke="#63b8ff" d="M464.92,-262.56C478.68,-295.29 511.34,-361.99 561,-396.5 572.18,-404.27 586.35,-408.7 599.28,-411.22"/>
<polygon fill="#63b8ff" stroke="#63b8ff" points="468.13,-261.16 461.12,-253.21 461.64,-263.79 468.13,-261.16"/>
</a>
</g>
</g>
<!-- Node11 -->
<g id="Node000011" class="node">
<title>Node11</title>
<g id="a_Node000011"><a xlink:href="class_cpl_1_1_io_1_1_ram_1_1_input_output.html" target="_top" xlink:title="This concrete class implements an InputOutput stream using a Ring Buffer.">
<polygon fill="white" stroke="#666666" points="706,-387 566,-387 566,-368 706,-368 706,-387"/>
<text text-anchor="middle" x="636" y="-375" font-family="Helvetica,sans-Serif" font-size="10.00">Cpl::Io::Ram::InputOutput</text>
</a>
</g>
</g>
<!-- Node9&#45;&gt;Node11 -->
<g id="edge10_Node000009_Node000011" class="edge">
<title>Node9&#45;&gt;Node11</title>
<g id="a_edge10_Node000009_Node000011"><a xlink:title=" ">
<path fill="none" stroke="#63b8ff" d="M468.79,-261.69C485.65,-287.28 519.87,-333.59 561,-358.5 567.35,-362.35 574.47,-365.42 581.71,-367.88"/>
<polygon fill="#63b8ff" stroke="#63b8ff" points="471.74,-259.79 463.38,-253.27 465.85,-263.58 471.74,-259.79"/>
</a>
</g>
</g>
<!-- Node12 -->
<g id="Node000012" class="node">
<title>Node12</title>
<g id="a_Node000012"><a xlink:href="class_cpl_1_1_io_1_1_serial_1_1_phony_stdio_1_1_input_output.html" target="_top" xlink:title="This concrete class implements the InputOutput stream interface built on top the C Library&#39;s fread/fw...">
<polygon fill="white" stroke="#666666" points="707,-349.5 565,-349.5 565,-319.5 707,-319.5 707,-349.5"/>
<text text-anchor="start" x="573" y="-337.5" font-family="Helvetica,sans-Serif" font-size="10.00">Cpl::Io::Serial::PhonyStdio</text>
<text text-anchor="middle" x="636" y="-326.5" font-family="Helvetica,sans-Serif" font-size="10.00">::InputOutput</text>
</a>
</g>
</g>
<!-- Node9&#45;&gt;Node12 -->
<g id="edge11_Node000009_Node000012" class="edge">
<title>Node9&#45;&gt;Node12</title>
<g id="a_edge11_Node000009_Node000012"><a xlink:title=" ">
<path fill="none" stroke="#63b8ff" d="M478.09,-259.14C498.33,-273.95 530.52,-296 561,-310.5 567.83,-313.75 575.21,-316.73 582.58,-319.39"/>
<polygon fill="#63b8ff" stroke="#63b8ff" points="480.05,-256.24 469.94,-253.1 475.88,-261.86 480.05,-256.24"/>
</a>
</g>
</g>
<!-- Node13 -->
<g id="Node000013" class="node">
<title>Node13</title>
<g id="a_Node000013"><a xlink:href="class_cpl_1_1_io_1_1_serial_1_1_s_t_1_1_m32_f4_1_1_input_output.html" target="_top" xlink:title="This concrete class implements the InputOutput stream interface built on top of ST HAL Layer/SDK.">
<polygon fill="white" stroke="#666666" points="695.5,-301.5 576.5,-301.5 576.5,-271.5 695.5,-271.5 695.5,-301.5"/>
<text text-anchor="start" x="584.5" y="-289.5" font-family="Helvetica,sans-Serif" font-size="10.00">Cpl::Io::Serial::ST</text>
<text text-anchor="middle" x="636" y="-278.5" font-family="Helvetica,sans-Serif" font-size="10.00">::M32F4::InputOutput</text>
</a>
</g>
</g>
<!-- Node9&#45;&gt;Node13 -->
<g id="edge12_Node000009_Node000013" class="edge">
<title>Node9&#45;&gt;Node13</title>
<g id="a_edge12_Node000009_Node000013"><a xlink:title=" ">
<path fill="none" stroke="#63b8ff" d="M506.83,-255.45C528.44,-260.68 553.95,-266.86 576.5,-272.33"/>
<polygon fill="#63b8ff" stroke="#63b8ff" points="507.44,-252 496.89,-253.04 505.79,-258.8 507.44,-252"/>
</a>
</g>
</g>
<!-- Node14 -->
<g id="Node000014" class="node">
<title>Node14</title>
<g id="a_Node000014"><a xlink:href="class_cpl_1_1_io_1_1_socket_1_1_input_output.html" target="_top" xlink:title="This concrete class provides a platform independent &#39;standard&#39; implementation of an InputOutput strea...">
<polygon fill="white" stroke="#666666" points="710.5,-253 561.5,-253 561.5,-234 710.5,-234 710.5,-253"/>
<text text-anchor="middle" x="636" y="-241" font-family="Helvetica,sans-Serif" font-size="10.00">Cpl::Io::Socket::InputOutput</text>
</a>
</g>
</g>
<!-- Node9&#45;&gt;Node14 -->
<g id="edge13_Node000009_Node000014" class="edge">
<title>Node9&#45;&gt;Node14</title>
<g id="a_edge13_Node000009_Node000014"><a xlink:title=" ">
<path fill="none" stroke="#63b8ff" d="M522.57,-243.5C535.14,-243.5 548.39,-243.5 561.21,-243.5"/>
<polygon fill="#63b8ff" stroke="#63b8ff" points="522.2,-240 512.2,-243.5 522.2,-247 522.2,-240"/>
</a>
</g>
</g>
<!-- Node15 -->
<g id="Node000015" class="node">
<title>Node15</title>
<g id="a_Node000015"><a xlink:href="class_cpl_1_1_io_1_1_stdio_1_1_input_output__.html" target="_top" xlink:title="This concrete class implements a Input&#45;Output stream.">
<polygon fill="white" stroke="#666666" points="709.5,-216 562.5,-216 562.5,-197 709.5,-197 709.5,-216"/>
<text text-anchor="middle" x="636" y="-204" font-family="Helvetica,sans-Serif" font-size="10.00">Cpl::Io::Stdio::InputOutput_</text>
</a>
</g>
</g>
<!-- Node9&#45;&gt;Node15 -->
<g id="edge14_Node000009_Node000015" class="edge">
<title>Node9&#45;&gt;Node15</title>
<g id="a_edge14_Node000009_Node000015"><a xlink:title=" ">
<path fill="none" stroke="#63b8ff" d="M513.07,-231.92C537.53,-226.82 565.91,-220.9 589.14,-216.06"/>
<polygon fill="#63b8ff" stroke="#63b8ff" points="512.29,-228.5 503.21,-233.97 513.71,-235.36 512.29,-228.5"/>
</a>
</g>
</g>
<!-- Node16 -->
<g id="Node000016" class="node">
<title>Node16</title>
<g id="a_Node000016"><a xlink:href="class_cpl_1_1_io_1_1_tcp_1_1_input_output.html" target="_top" xlink:title="This concrete class defines a platform independent implementation of an InputOutput stream used by th...">
<polygon fill="white" stroke="#666666" points="702.5,-179 569.5,-179 569.5,-160 702.5,-160 702.5,-179"/>
<text text-anchor="middle" x="636" y="-167" font-family="Helvetica,sans-Serif" font-size="10.00">Cpl::Io::Tcp::InputOutput</text>
</a>
</g>
</g>
<!-- Node9&#45;&gt;Node16 -->
<g id="edge15_Node000009_Node000016" class="edge">
<title>Node9&#45;&gt;Node16</title>
<g id="a_edge15_Node000009_Node000016"><a xlink:title=" ">
<path fill="none" stroke="#63b8ff" d="M480.97,-228.53C501.42,-216.04 532.23,-198.57 561,-187.5 569.51,-184.22 578.82,-181.41 587.86,-179.04"/>
<polygon fill="#63b8ff" stroke="#63b8ff" points="479,-225.63 472.34,-233.87 482.69,-231.58 479,-225.63"/>
</a>
</g>
</g>
<!-- Node17 -->
<g id="Node000017" class="node">
<title>Node17</title>
<g id="a_Node000017"><a xlink:href="class_cpl_1_1_io_1_1_tcp_1_1_async_connector_1_1_client.html" target="_top" xlink:title="This class defines the callback mechanism used for accepting incoming TCP connections.">
<polygon fill="white" stroke="#666666" points="901,-208.5 747,-208.5 747,-178.5 901,-178.5 901,-208.5"/>
<text text-anchor="start" x="755" y="-196.5" font-family="Helvetica,sans-Serif" font-size="10.00">Cpl::Io::Tcp::AsyncConnector</text>
<text text-anchor="middle" x="824" y="-185.5" font-family="Helvetica,sans-Serif" font-size="10.00">::Client</text>
</a>
</g>
</g>
<!-- Node16&#45;&gt;Node17 -->
<g id="edge16_Node000016_Node000017" class="edge">
<title>Node16&#45;&gt;Node17</title>
<g id="a_edge16_Node000016_Node000017"><a xlink:title=" ">
<path fill="none" stroke="#63b8ff" d="M712.79,-179.28C724.04,-180.73 735.63,-182.23 746.89,-183.68"/>
<polygon fill="#63b8ff" stroke="#63b8ff" points="712.94,-175.77 702.58,-177.96 712.05,-182.71 712.94,-175.77"/>
</a>
</g>
</g>
<!-- Node18 -->
<g id="Node000018" class="node">
<title>Node18</title>
<g id="a_Node000018"><a xlink:href="class_cpl_1_1_io_1_1_tcp_1_1_async_listener_1_1_client.html" target="_top" xlink:title="This class defines the callback mechanism used for accepting incoming TCP connections.">
<polygon fill="white" stroke="#666666" points="895.5,-160.5 752.5,-160.5 752.5,-130.5 895.5,-130.5 895.5,-160.5"/>
<text text-anchor="start" x="760.5" y="-148.5" font-family="Helvetica,sans-Serif" font-size="10.00">Cpl::Io::Tcp::AsyncListener</text>
<text text-anchor="middle" x="824" y="-137.5" font-family="Helvetica,sans-Serif" font-size="10.00">::Client</text>
</a>
</g>
</g>
<!-- Node16&#45;&gt;Node18 -->
<g id="edge17_Node000016_Node000018" class="edge">
<title>Node16&#45;&gt;Node18</title>
<g id="a_edge17_Node000016_Node000018"><a xlink:title=" ">
<path fill="none" stroke="#63b8ff" d="M712.52,-159.76C725.68,-158.06 739.31,-156.3 752.33,-154.62"/>
<polygon fill="#63b8ff" stroke="#63b8ff" points="712.05,-156.29 702.58,-161.04 712.94,-163.23 712.05,-156.29"/>
</a>
</g>
</g>
<!-- Node20 -->
<g id="Node000020" class="node">
<title>Node20</title>
<g id="a_Node000020"><a xlink:href="class_cpl_1_1_io_1_1_stdio_1_1_std_in.html" target="_top" xlink:title="This concrete class represents the C&#45;library &#39;stdin&#39; stream.">
<polygon fill="white" stroke="#666666" points="690.5,-19 581.5,-19 581.5,0 690.5,0 690.5,-19"/>
<text text-anchor="middle" x="636" y="-7" font-family="Helvetica,sans-Serif" font-size="10.00">Cpl::Io::Stdio::StdIn</text>
</a>
</g>
</g>
<!-- Node19&#45;&gt;Node20 -->
<g id="edge19_Node000019_Node000020" class="edge">
<title>Node19&#45;&gt;Node20</title>
<g id="a_edge19_Node000019_Node000020"><a xlink:title=" ">
<path fill="none" stroke="#63b8ff" d="M501.14,-44.2C526.61,-37.03 554.92,-29.09 561,-27.5 571.87,-24.66 583.68,-21.72 594.61,-19.06"/>
<polygon fill="#63b8ff" stroke="#63b8ff" points="499.88,-40.92 491.2,-47 501.77,-47.65 499.88,-40.92"/>
</a>
</g>
</g>
<!-- Node21&#45;&gt;Node9 -->
<g id="edge26_Node000021_Node000009" class="edge">
<title>Node21&#45;&gt;Node9</title>
<g id="a_edge26_Node000021_Node000009"><a xlink:title=" ">
<path fill="none" stroke="#63b8ff" d="M340.25,-190.43C368.51,-203.44 409.97,-222.53 434.69,-233.92"/>
<polygon fill="#63b8ff" stroke="#63b8ff" points="341.39,-187.1 330.85,-186.1 338.47,-193.46 341.39,-187.1"/>
</a>
</g>
</g>
<!-- Node22 -->
<g id="Node000022" class="node">
<title>Node22</title>
<g id="a_Node000022"><a xlink:href="class_cpl_1_1_io_1_1_atomic_output_api.html" target="_top" xlink:title="This abstract template class defines a interface for an Atomic outputs to a stream.">
<polygon fill="white" stroke="#666666" points="525,-151.5 388,-151.5 388,-121.5 525,-121.5 525,-151.5"/>
<text text-anchor="start" x="396" y="-139.5" font-family="Helvetica,sans-Serif" font-size="10.00">Cpl::Io::AtomicOutputApi</text>
<text text-anchor="middle" x="456.5" y="-128.5" font-family="Helvetica,sans-Serif" font-size="10.00">&lt; CONTEXT &gt;</text>
</a>
</g>
</g>
<!-- Node21&#45;&gt;Node22 -->
<g id="edge21_Node000021_Node000022" class="edge">
<title>Node21&#45;&gt;Node22</title>
<g id="a_edge21_Node000021_Node000022"><a xlink:title=" ">
<path fill="none" stroke="#63b8ff" d="M354.62,-164.23C369.19,-160.23 385.54,-155.73 400.76,-151.55"/>
<polygon fill="#63b8ff" stroke="#63b8ff" points="353.57,-160.89 344.85,-166.92 355.42,-167.64 353.57,-160.89"/>
</a>
</g>
</g>
<!-- Node24 -->
<g id="Node000024" class="node">
<title>Node24</title>
<g id="a_Node000024"><a xlink:href="class_cpl_1_1_io_1_1_file_1_1_output_api.html" target="_top" xlink:title="This abstract class defines the interface for a Random Access Input File.">
<polygon fill="white" stroke="#666666" points="519,-461 394,-461 394,-442 519,-442 519,-461"/>
<text text-anchor="middle" x="456.5" y="-449" font-family="Helvetica,sans-Serif" font-size="10.00">Cpl::Io::File::OutputApi</text>
</a>
</g>
</g>
<!-- Node21&#45;&gt;Node24 -->
<g id="edge23_Node000021_Node000024" class="edge">
<title>Node21&#45;&gt;Node24</title>
<g id="a_edge23_Node000021_Node000024"><a xlink:title=" ">
<path fill="none" stroke="#63b8ff" d="M330.75,-192.72C338.13,-199.23 346.07,-207.16 352,-215.5 407.98,-294.27 443.18,-408.13 452.81,-441.78"/>
<polygon fill="#63b8ff" stroke="#63b8ff" points="332.99,-190.03 323.08,-186.27 328.48,-195.39 332.99,-190.03"/>
</a>
</g>
</g>
<!-- Node26 -->
<g id="Node000026" class="node">
<title>Node26</title>
<g id="a_Node000026"><a xlink:href="class_cpl_1_1_io_1_1_stdio_1_1_output__.html" target="_top" xlink:title="This concrete class implements a Output stream using the underlying platform&#39;s native OS &#39;file interf...">
<polygon fill="white" stroke="#666666" points="517.5,-103 395.5,-103 395.5,-84 517.5,-84 517.5,-103"/>
<text text-anchor="middle" x="456.5" y="-91" font-family="Helvetica,sans-Serif" font-size="10.00">Cpl::Io::Stdio::Output_</text>
</a>
</g>
</g>
<!-- Node21&#45;&gt;Node26 -->
<g id="edge27_Node000021_Node000026" class="edge">
<title>Node21&#45;&gt;Node26</title>
<g id="a_edge27_Node000021_Node000026"><a xlink:title=" ">
<path fill="none" stroke="#63b8ff" d="M326.51,-159.46C341.36,-145.03 364.41,-124.8 388,-112.5 395.23,-108.73 403.3,-105.63 411.28,-103.11"/>
<polygon fill="#63b8ff" stroke="#63b8ff" points="323.77,-157.25 319.15,-166.78 328.71,-162.21 323.77,-157.25"/>
</a>
</g>
</g>
<!-- Node29 -->
<g id="Node000029" class="node">
<title>Node29</title>
<g id="a_Node000029"><a xlink:href="class_cpl_1_1_io_1_1_tee_output.html" target="_top" xlink:title="This concrete class implements a Output stream that outputs the data to MANY (or none) output streams...">
<polygon fill="white" stroke="#666666" points="508,-29 405,-29 405,-10 508,-10 508,-29"/>
<text text-anchor="middle" x="456.5" y="-17" font-family="Helvetica,sans-Serif" font-size="10.00">Cpl::Io::TeeOutput</text>
</a>
</g>
</g>
<!-- Node21&#45;&gt;Node29 -->
<g id="edge30_Node000021_Node000029" class="edge">
<title>Node21&#45;&gt;Node29</title>
<g id="a_edge30_Node000021_Node000029"><a xlink:title=" ">
<path fill="none" stroke="#63b8ff" d="M315.58,-156.85C325.21,-126.53 347.89,-68.63 388,-37.5 392.98,-33.63 398.73,-30.59 404.71,-28.21"/>
<polygon fill="#63b8ff" stroke="#63b8ff" points="312.15,-156.08 312.61,-166.66 318.85,-158.1 312.15,-156.08"/>
</a>
</g>
</g>
<!-- Node23 -->
<g id="Node000023" class="node">
<title>Node23</title>
<g id="a_Node000023"><a xlink:href="class_cpl_1_1_io_1_1_atomic_output.html" target="_top" xlink:title="This concrete template class implements the AtomicOutputApi using a mutex to enforce the &#39;atomic&#45;ness...">
<polygon fill="white" stroke="#666666" points="696.5,-141.5 575.5,-141.5 575.5,-111.5 696.5,-111.5 696.5,-141.5"/>
<text text-anchor="start" x="583.5" y="-129.5" font-family="Helvetica,sans-Serif" font-size="10.00">Cpl::Io::AtomicOutput</text>
<text text-anchor="middle" x="636" y="-118.5" font-family="Helvetica,sans-Serif" font-size="10.00">&lt; CONTEXT &gt;</text>
</a>
</g>
</g>
<!-- Node22&#45;&gt;Node23 -->
<g id="edge22_Node000022_Node000023" class="edge">
<title>Node22&#45;&gt;Node23</title>
<g id="a_edge22_Node000022_Node000023"><a xlink:title=" ">
<path fill="none" stroke="#63b8ff" d="M535.31,-132.12C548.76,-131.36 562.55,-130.58 575.42,-129.86"/>
<polygon fill="#63b8ff" stroke="#63b8ff" points="534.9,-128.63 525.11,-132.69 535.29,-135.62 534.9,-128.63"/>
</a>
</g>
</g>
<!-- Node24&#45;&gt;Node6 -->
<g id="edge24_Node000024_Node000006" class="edge">
<title>Node24&#45;&gt;Node6</title>
<g id="a_edge24_Node000024_Node000006"><a xlink:title=" ">
<path fill="none" stroke="#63b8ff" d="M513.07,-463.08C537.53,-468.18 565.91,-474.1 589.14,-478.94"/>
<polygon fill="#63b8ff" stroke="#63b8ff" points="513.71,-459.64 503.21,-461.03 512.29,-466.5 513.71,-459.64"/>
</a>
</g>
</g>
<!-- Node25 -->
<g id="Node000025" class="node">
<title>Node25</title>
<g id="a_Node000025"><a xlink:href="class_cpl_1_1_io_1_1_file_1_1_output.html" target="_top" xlink:title="This concrete class provides a platform independent &#39;standard&#39; implementation of a Cpl::Io::File::Out...">
<polygon fill="white" stroke="#666666" points="691,-461 581,-461 581,-442 691,-442 691,-461"/>
<text text-anchor="middle" x="636" y="-449" font-family="Helvetica,sans-Serif" font-size="10.00">Cpl::Io::File::Output</text>
</a>
</g>
</g>
<!-- Node24&#45;&gt;Node25 -->
<g id="edge25_Node000024_Node000025" class="edge">
<title>Node24&#45;&gt;Node25</title>
<g id="a_edge25_Node000024_Node000025"><a xlink:title=" ">
<path fill="none" stroke="#63b8ff" d="M529.13,-451.5C546.42,-451.5 564.6,-451.5 580.93,-451.5"/>
<polygon fill="#63b8ff" stroke="#63b8ff" points="529.08,-448 519.08,-451.5 529.08,-455 529.08,-448"/>
</a>
</g>
</g>
<!-- Node27 -->
<g id="Node000027" class="node">
<title>Node27</title>
<g id="a_Node000027"><a xlink:href="class_cpl_1_1_io_1_1_stdio_1_1_std_err.html" target="_top" xlink:title="This concrete class represents the C&#45;library &#39;stderr&#39; stream.">
<polygon fill="white" stroke="#666666" points="692.5,-93 579.5,-93 579.5,-74 692.5,-74 692.5,-93"/>
<text text-anchor="middle" x="636" y="-81" font-family="Helvetica,sans-Serif" font-size="10.00">Cpl::Io::Stdio::StdErr</text>
</a>
</g>
</g>
<!-- Node26&#45;&gt;Node27 -->
<g id="edge28_Node000026_Node000027" class="edge">
<title>Node26&#45;&gt;Node27</title>
<g id="a_edge28_Node000026_Node000027"><a xlink:title=" ">
<path fill="none" stroke="#63b8ff" d="M527.6,-89.55C544.82,-88.58 563.02,-87.55 579.45,-86.63"/>
<polygon fill="#63b8ff" stroke="#63b8ff" points="527.38,-86.06 517.59,-90.11 527.77,-93.05 527.38,-86.06"/>
</a>
</g>
</g>
<!-- Node28 -->
<g id="Node000028" class="node">
<title>Node28</title>
<g id="a_Node000028"><a xlink:href="class_cpl_1_1_io_1_1_stdio_1_1_std_out.html" target="_top" xlink:title="This concrete class represents the C&#45;library &#39;stdout&#39; stream.">
<polygon fill="white" stroke="#666666" points="694.5,-56 577.5,-56 577.5,-37 694.5,-37 694.5,-56"/>
<text text-anchor="middle" x="636" y="-44" font-family="Helvetica,sans-Serif" font-size="10.00">Cpl::Io::Stdio::StdOut</text>
</a>
</g>
</g>
<!-- Node26&#45;&gt;Node28 -->
<g id="edge29_Node000026_Node000028" class="edge">
<title>Node26&#45;&gt;Node28</title>
<g id="a_edge29_Node000026_Node000028"><a xlink:title=" ">
<path fill="none" stroke="#63b8ff" d="M501.14,-81.2C526.61,-74.03 554.92,-66.09 561,-64.5 571.87,-61.66 583.68,-58.72 594.61,-56.06"/>
<polygon fill="#63b8ff" stroke="#63b8ff" points="499.88,-77.92 491.2,-84 501.77,-84.65 499.88,-77.92"/>
</a>
</g>
</g>
</g>
</svg>
