<?xml version="1.0" encoding="UTF-8" standalone="no"?>
<!DOCTYPE svg PUBLIC "-//W3C//DTD SVG 1.1//EN"
 "http://www.w3.org/Graphics/SVG/1.1/DTD/svg11.dtd">
<!-- Generated by graphviz version 2.43.0 (0)
 -->
<!-- Title: Cpl::TShell::Cmd::Threads Pages: 1 -->
<svg width="310pt" height="269pt"
 viewBox="0.00 0.00 309.50 269.00" xmlns="http://www.w3.org/2000/svg" xmlns:xlink="http://www.w3.org/1999/xlink">
<g id="graph0" class="graph" transform="scale(1 1) rotate(0) translate(4 265)">
<title>Cpl::TShell::Cmd::Threads</title>
<!-- Node1 -->
<g id="Node000001" class="node">
<title>Node1</title>
<g id="a_Node000001"><a xlink:title="This class implements a Shell command.">
<polygon fill="#999999" stroke="#666666" points="225.5,-85 83.5,-85 83.5,-66 225.5,-66 225.5,-85"/>
<text text-anchor="middle" x="154.5" y="-73" font-family="Helvetica,sans-Serif" font-size="10.00">Cpl::TShell::Cmd::Threads</text>
</a>
</g>
</g>
<!-- Node6 -->
<g id="Node000006" class="node">
<title>Node6</title>
<g id="a_Node000006"><a xlink:href="class_cpl_1_1_t_shell_1_1_cmd_1_1_free_r_t_o_s_1_1_threads.html" target="_top" xlink:title="This class implements a TShell command.">
<polygon fill="white" stroke="#666666" points="149,-30 0,-30 0,0 149,0 149,-30"/>
<text text-anchor="start" x="8" y="-18" font-family="Helvetica,sans-Serif" font-size="10.00">Cpl::TShell::Cmd::FreeRTOS</text>
<text text-anchor="middle" x="74.5" y="-7" font-family="Helvetica,sans-Serif" font-size="10.00">::Threads</text>
</a>
</g>
</g>
<!-- Node1&#45;&gt;Node6 -->
<g id="edge5_Node000001_Node000006" class="edge">
<title>Node1&#45;&gt;Node6</title>
<g id="a_edge5_Node000001_Node000006"><a xlink:title=" ">
<path fill="none" stroke="#63b8ff" d="M134.35,-59.77C121.92,-50.68 106.07,-39.09 93.8,-30.11"/>
<polygon fill="#63b8ff" stroke="#63b8ff" points="132.56,-62.79 142.7,-65.87 136.69,-57.14 132.56,-62.79"/>
</a>
</g>
</g>
<!-- Node7 -->
<g id="Node000007" class="node">
<title>Node7</title>
<g id="a_Node000007"><a xlink:href="class_cpl_1_1_t_shell_1_1_cmd_1_1_win32_1_1_threads.html" target="_top" xlink:title="This class implements a TShell command.">
<polygon fill="white" stroke="#666666" points="301.5,-30 167.5,-30 167.5,0 301.5,0 301.5,-30"/>
<text text-anchor="start" x="175.5" y="-18" font-family="Helvetica,sans-Serif" font-size="10.00">Cpl::TShell::Cmd::Win32</text>
<text text-anchor="middle" x="234.5" y="-7" font-family="Helvetica,sans-Serif" font-size="10.00">::Threads</text>
</a>
</g>
</g>
<!-- Node1&#45;&gt;Node7 -->
<g id="edge6_Node000001_Node000007" class="edge">
<title>Node1&#45;&gt;Node7</title>
<g id="a_edge6_Node000001_Node000007"><a xlink:title=" ">
<path fill="none" stroke="#63b8ff" d="M174.65,-59.77C187.08,-50.68 202.93,-39.09 215.2,-30.11"/>
<polygon fill="#63b8ff" stroke="#63b8ff" points="172.31,-57.14 166.3,-65.87 176.44,-62.79 172.31,-57.14"/>
</a>
</g>
</g>
<!-- Node2 -->
<g id="Node000002" class="node">
<title>Node2</title>
<g id="a_Node000002"><a xlink:href="class_cpl_1_1_t_shell_1_1_cmd_1_1_command.html" target="_top" xlink:title="This partially concrete class implements infrastructure and/or common functionality for a Shell comma...">
<polygon fill="white" stroke="#666666" points="155,-145.5 2,-145.5 2,-126.5 155,-126.5 155,-145.5"/>
<text text-anchor="middle" x="78.5" y="-133.5" font-family="Helvetica,sans-Serif" font-size="10.00">Cpl::TShell::Cmd::Command</text>
</a>
</g>
</g>
<!-- Node2&#45;&gt;Node1 -->
<g id="edge1_Node000001_Node000002" class="edge">
<title>Node2&#45;&gt;Node1</title>
<g id="a_edge1_Node000001_Node000002"><a xlink:title=" ">
<path fill="none" stroke="#63b8ff" d="M97.94,-120.04C112.29,-108.99 131.32,-94.34 143.24,-85.17"/>
<polygon fill="#63b8ff" stroke="#63b8ff" points="95.5,-117.49 89.71,-126.37 99.77,-123.04 95.5,-117.49"/>
</a>
</g>
</g>
<!-- Node3 -->
<g id="Node000003" class="node">
<title>Node3</title>
<g id="a_Node000003"><a xlink:href="class_cpl_1_1_t_shell_1_1_command.html" target="_top" xlink:title="This class defines the interface for a TShell command.">
<polygon fill="white" stroke="#666666" points="141,-206 16,-206 16,-187 141,-187 141,-206"/>
<text text-anchor="middle" x="78.5" y="-194" font-family="Helvetica,sans-Serif" font-size="10.00">Cpl::TShell::Command</text>
</a>
</g>
</g>
<!-- Node3&#45;&gt;Node2 -->
<g id="edge2_Node000002_Node000003" class="edge">
<title>Node3&#45;&gt;Node2</title>
<g id="a_edge2_Node000002_Node000003"><a xlink:title=" ">
<path fill="none" stroke="#63b8ff" d="M78.5,-176.66C78.5,-166.24 78.5,-153.8 78.5,-145.67"/>
<polygon fill="#63b8ff" stroke="#63b8ff" points="75,-176.87 78.5,-186.87 82,-176.87 75,-176.87"/>
</a>
</g>
</g>
<!-- Node4 -->
<g id="Node000004" class="node">
<title>Node4</title>
<g id="a_Node000004"><a xlink:href="class_cpl_1_1_container_1_1_item.html" target="_top" xlink:title="This class is used by the Container classes to implement a various types of singly linked containers.">
<polygon fill="white" stroke="#666666" points="135.5,-261 21.5,-261 21.5,-242 135.5,-242 135.5,-261"/>
<text text-anchor="middle" x="78.5" y="-249" font-family="Helvetica,sans-Serif" font-size="10.00">Cpl::Container::Item</text>
</a>
</g>
</g>
<!-- Node4&#45;&gt;Node3 -->
<g id="edge3_Node000003_Node000004" class="edge">
<title>Node4&#45;&gt;Node3</title>
<g id="a_edge3_Node000003_Node000004"><a xlink:title=" ">
<path fill="none" stroke="#63b8ff" d="M78.5,-231.66C78.5,-222.93 78.5,-212.99 78.5,-206.09"/>
<polygon fill="#63b8ff" stroke="#63b8ff" points="75,-231.75 78.5,-241.75 82,-231.75 75,-231.75"/>
</a>
</g>
</g>
<!-- Node5 -->
<g id="Node000005" class="node">
<title>Node5</title>
<g id="a_Node000005"><a xlink:href="class_cpl_1_1_system_1_1_thread_1_1_traverser.html" target="_top" xlink:title="This abstract class defines the client interface for walking the list of threads, i....">
<polygon fill="white" stroke="#666666" points="288,-151 173,-151 173,-121 288,-121 288,-151"/>
<text text-anchor="start" x="181" y="-139" font-family="Helvetica,sans-Serif" font-size="10.00">Cpl::System::Thread</text>
<text text-anchor="middle" x="230.5" y="-128" font-family="Helvetica,sans-Serif" font-size="10.00">::Traverser</text>
</a>
</g>
</g>
<!-- Node5&#45;&gt;Node1 -->
<g id="edge4_Node000001_Node000005" class="edge">
<title>Node5&#45;&gt;Node1</title>
<g id="a_edge4_Node000001_Node000005"><a xlink:title=" ">
<path fill="none" stroke="#63b8ff" d="M203.91,-114.53C190.89,-104.51 175.91,-92.98 165.89,-85.27"/>
<polygon fill="#63b8ff" stroke="#63b8ff" points="202.04,-117.51 212.1,-120.84 206.31,-111.97 202.04,-117.51"/>
</a>
</g>
</g>
</g>
</svg>
