<?xml version="1.0" encoding="UTF-8" standalone="no"?>
<!DOCTYPE svg PUBLIC "-//W3C//DTD SVG 1.1//EN"
 "http://www.w3.org/Graphics/SVG/1.1/DTD/svg11.dtd">
<!-- Generated by graphviz version 2.43.0 (0)
 -->
<!-- Title: Cpl::Memory::Pool_::BlockInfo_ Pages: 1 -->
<svg width="168pt" height="148pt"
 viewBox="0.00 0.00 168.00 148.00" xmlns="http://www.w3.org/2000/svg" xmlns:xlink="http://www.w3.org/1999/xlink">
<g id="graph0" class="graph" transform="scale(1 1) rotate(0) translate(4 144)">
<title>Cpl::Memory::Pool_::BlockInfo_</title>
<!-- Node1 -->
<g id="Node000001" class="node">
<title>Node1</title>
<g id="a_Node000001"><a xlink:title="Helper class so I can put my blocks into to my standard containers.">
<polygon fill="#999999" stroke="#666666" points="135,-30 25,-30 25,0 135,0 135,-30"/>
<text text-anchor="start" x="33" y="-18" font-family="Helvetica,sans-Serif" font-size="10.00">Cpl::Memory::Pool_</text>
<text text-anchor="middle" x="80" y="-7" font-family="Helvetica,sans-Serif" font-size="10.00">::BlockInfo_</text>
</a>
</g>
</g>
<!-- Node2 -->
<g id="Node000002" class="node">
<title>Node2</title>
<g id="a_Node000002"><a xlink:href="class_cpl_1_1_container_1_1_extended_item.html" target="_top" xlink:title="This class is used by the Container classes to implement a various types of DOUBLY linked containers.">
<polygon fill="white" stroke="#666666" points="160,-85 0,-85 0,-66 160,-66 160,-85"/>
<text text-anchor="middle" x="80" y="-73" font-family="Helvetica,sans-Serif" font-size="10.00">Cpl::Container::ExtendedItem</text>
</a>
</g>
</g>
<!-- Node2&#45;&gt;Node1 -->
<g id="edge1_Node000001_Node000002" class="edge">
<title>Node2&#45;&gt;Node1</title>
<g id="a_edge1_Node000001_Node000002"><a xlink:title=" ">
<path fill="none" stroke="#63b8ff" d="M80,-55.65C80,-47.36 80,-37.78 80,-30.11"/>
<polygon fill="#63b8ff" stroke="#63b8ff" points="76.5,-55.87 80,-65.87 83.5,-55.87 76.5,-55.87"/>
</a>
</g>
</g>
<!-- Node3 -->
<g id="Node000003" class="node">
<title>Node3</title>
<g id="a_Node000003"><a xlink:href="class_cpl_1_1_container_1_1_item.html" target="_top" xlink:title="This class is used by the Container classes to implement a various types of singly linked containers.">
<polygon fill="white" stroke="#666666" points="137,-140 23,-140 23,-121 137,-121 137,-140"/>
<text text-anchor="middle" x="80" y="-128" font-family="Helvetica,sans-Serif" font-size="10.00">Cpl::Container::Item</text>
</a>
</g>
</g>
<!-- Node3&#45;&gt;Node2 -->
<g id="edge2_Node000002_Node000003" class="edge">
<title>Node3&#45;&gt;Node2</title>
<g id="a_edge2_Node000002_Node000003"><a xlink:title=" ">
<path fill="none" stroke="#63b8ff" d="M80,-110.66C80,-101.93 80,-91.99 80,-85.09"/>
<polygon fill="#63b8ff" stroke="#63b8ff" points="76.5,-110.75 80,-120.75 83.5,-110.75 76.5,-110.75"/>
</a>
</g>
</g>
</g>
</svg>
