<?xml version="1.0" encoding="UTF-8" standalone="no"?>
<!DOCTYPE svg PUBLIC "-//W3C//DTD SVG 1.1//EN"
 "http://www.w3.org/Graphics/SVG/1.1/DTD/svg11.dtd">
<!-- Generated by graphviz version 2.43.0 (0)
 -->
<!-- Title: Cpl::Text::FStringItem&lt; S &gt; Pages: 1 -->
<svg width="283pt" height="317pt"
 viewBox="0.00 0.00 283.00 317.00" xmlns="http://www.w3.org/2000/svg" xmlns:xlink="http://www.w3.org/1999/xlink">
<g id="graph0" class="graph" transform="scale(1 1) rotate(0) translate(4 313)">
<title>Cpl::Text::FStringItem&lt; S &gt;</title>
<!-- Node1 -->
<g id="Node000001" class="node">
<title>Node1</title>
<g id="a_Node000001"><a xlink:title="This template class implements the StringItem class for a &#39;String&#39; using a &#39;FString&#39; as the internal ...">
<polygon fill="#999999" stroke="#666666" points="222.5,-19 73.5,-19 73.5,0 222.5,0 222.5,-19"/>
<text text-anchor="middle" x="148" y="-7" font-family="Helvetica,sans-Serif" font-size="10.00">Cpl::Text::FStringItem&lt; S &gt;</text>
</a>
</g>
</g>
<!-- Node2 -->
<g id="Node000002" class="node">
<title>Node2</title>
<g id="a_Node000002"><a xlink:href="class_cpl_1_1_text_1_1_string_item.html" target="_top" xlink:title="This partially concrete provides a wrapper class that allows a String object to be stored directly in...">
<polygon fill="white" stroke="#666666" points="206,-75 90,-75 90,-56 206,-56 206,-75"/>
<text text-anchor="middle" x="148" y="-63" font-family="Helvetica,sans-Serif" font-size="10.00">Cpl::Text::StringItem</text>
</a>
</g>
</g>
<!-- Node2&#45;&gt;Node1 -->
<g id="edge1_Node000001_Node000002" class="edge">
<title>Node2&#45;&gt;Node1</title>
<g id="a_edge1_Node000001_Node000002"><a xlink:title=" ">
<path fill="none" stroke="#63b8ff" d="M148,-45.3C148,-36.41 148,-26.28 148,-19.25"/>
<polygon fill="#63b8ff" stroke="#63b8ff" points="144.5,-45.58 148,-55.58 151.5,-45.58 144.5,-45.58"/>
</a>
</g>
</g>
<!-- Node3 -->
<g id="Node000003" class="node">
<title>Node3</title>
<g id="a_Node000003"><a xlink:href="class_cpl_1_1_container_1_1_map_item.html" target="_top" xlink:title="This abstract class represents a item that can be contained in an Map (aka a sorted list implemented ...">
<polygon fill="white" stroke="#666666" points="150.5,-141 15.5,-141 15.5,-122 150.5,-122 150.5,-141"/>
<text text-anchor="middle" x="83" y="-129" font-family="Helvetica,sans-Serif" font-size="10.00">Cpl::Container::MapItem</text>
</a>
</g>
</g>
<!-- Node3&#45;&gt;Node2 -->
<g id="edge2_Node000002_Node000003" class="edge">
<title>Node3&#45;&gt;Node2</title>
<g id="a_edge2_Node000002_Node000003"><a xlink:title=" ">
<path fill="none" stroke="#63b8ff" d="M98.92,-114.83C111.5,-102.44 128.62,-85.59 138.96,-75.41"/>
<polygon fill="#63b8ff" stroke="#63b8ff" points="96.44,-112.36 91.77,-121.87 101.35,-117.35 96.44,-112.36"/>
</a>
</g>
</g>
<!-- Node4 -->
<g id="Node000004" class="node">
<title>Node4</title>
<g id="a_Node000004"><a xlink:href="class_cpl_1_1_container_1_1_dict_item.html" target="_top" xlink:title="This abstract class represents a item that can be contained in Dictionary.">
<polygon fill="white" stroke="#666666" points="147,-197 13,-197 13,-178 147,-178 147,-197"/>
<text text-anchor="middle" x="80" y="-185" font-family="Helvetica,sans-Serif" font-size="10.00">Cpl::Container::DictItem</text>
</a>
</g>
</g>
<!-- Node4&#45;&gt;Node3 -->
<g id="edge3_Node000003_Node000004" class="edge">
<title>Node4&#45;&gt;Node3</title>
<g id="a_edge3_Node000003_Node000004"><a xlink:title=" ">
<path fill="none" stroke="#63b8ff" d="M81.07,-167.3C81.56,-158.41 82.12,-148.28 82.51,-141.25"/>
<polygon fill="#63b8ff" stroke="#63b8ff" points="77.56,-167.4 80.5,-177.58 84.54,-167.79 77.56,-167.4"/>
</a>
</g>
</g>
<!-- Node5 -->
<g id="Node000005" class="node">
<title>Node5</title>
<g id="a_Node000005"><a xlink:href="class_cpl_1_1_container_1_1_extended_item.html" target="_top" xlink:title="This class is used by the Container classes to implement a various types of DOUBLY linked containers.">
<polygon fill="white" stroke="#666666" points="160,-253 0,-253 0,-234 160,-234 160,-253"/>
<text text-anchor="middle" x="80" y="-241" font-family="Helvetica,sans-Serif" font-size="10.00">Cpl::Container::ExtendedItem</text>
</a>
</g>
</g>
<!-- Node5&#45;&gt;Node4 -->
<g id="edge4_Node000004_Node000005" class="edge">
<title>Node5&#45;&gt;Node4</title>
<g id="a_edge4_Node000004_Node000005"><a xlink:title=" ">
<path fill="none" stroke="#63b8ff" d="M80,-223.3C80,-214.41 80,-204.28 80,-197.25"/>
<polygon fill="#63b8ff" stroke="#63b8ff" points="76.5,-223.58 80,-233.58 83.5,-223.58 76.5,-223.58"/>
</a>
</g>
</g>
<!-- Node6 -->
<g id="Node000006" class="node">
<title>Node6</title>
<g id="a_Node000006"><a xlink:href="class_cpl_1_1_container_1_1_item.html" target="_top" xlink:title="This class is used by the Container classes to implement a various types of singly linked containers.">
<polygon fill="white" stroke="#666666" points="137,-309 23,-309 23,-290 137,-290 137,-309"/>
<text text-anchor="middle" x="80" y="-297" font-family="Helvetica,sans-Serif" font-size="10.00">Cpl::Container::Item</text>
</a>
</g>
</g>
<!-- Node6&#45;&gt;Node5 -->
<g id="edge5_Node000005_Node000006" class="edge">
<title>Node6&#45;&gt;Node5</title>
<g id="a_edge5_Node000005_Node000006"><a xlink:title=" ">
<path fill="none" stroke="#63b8ff" d="M80,-279.3C80,-270.41 80,-260.28 80,-253.25"/>
<polygon fill="#63b8ff" stroke="#63b8ff" points="76.5,-279.58 80,-289.58 83.5,-279.58 76.5,-279.58"/>
</a>
</g>
</g>
<!-- Node7 -->
<g id="Node000007" class="node">
<title>Node7</title>
<g id="a_Node000007"><a xlink:href="class_cpl_1_1_text_1_1_string.html" target="_top" xlink:title="This abstract class defines the operations that can be before on a NULL terminated string.">
<polygon fill="white" stroke="#666666" points="265.5,-141 172.5,-141 172.5,-122 265.5,-122 265.5,-141"/>
<text text-anchor="middle" x="219" y="-129" font-family="Helvetica,sans-Serif" font-size="10.00">Cpl::Text::String</text>
</a>
</g>
</g>
<!-- Node7&#45;&gt;Node2 -->
<g id="edge6_Node000002_Node000007" class="edge">
<title>Node7&#45;&gt;Node2</title>
<g id="a_edge6_Node000002_Node000007"><a xlink:title=" ">
<path fill="none" stroke="#9a32cd" stroke-dasharray="5,2" d="M201.62,-114.83C187.87,-102.44 169.17,-85.59 157.88,-75.41"/>
<polygon fill="#9a32cd" stroke="#9a32cd" points="199.65,-117.77 209.42,-121.87 204.34,-112.57 199.65,-117.77"/>
</a>
</g>
<text text-anchor="middle" x="219.5" y="-96" font-family="Helvetica,sans-Serif" font-size="10.00" fill="grey"> m_myString</text>
</g>
<!-- Node8 -->
<g id="Node000008" class="node">
<title>Node8</title>
<g id="a_Node000008"><a xlink:href="class_cpl_1_1_container_1_1_key.html" target="_top" xlink:title="This abstract class defines the interface that a contained object must support if it has comparable k...">
<polygon fill="white" stroke="#666666" points="275,-197 165,-197 165,-178 275,-178 275,-197"/>
<text text-anchor="middle" x="220" y="-185" font-family="Helvetica,sans-Serif" font-size="10.00">Cpl::Container::Key</text>
</a>
</g>
</g>
<!-- Node8&#45;&gt;Node7 -->
<g id="edge7_Node000007_Node000008" class="edge">
<title>Node8&#45;&gt;Node7</title>
<g id="a_edge7_Node000007_Node000008"><a xlink:title=" ">
<path fill="none" stroke="#63b8ff" d="M219.64,-167.3C219.48,-158.41 219.29,-148.28 219.16,-141.25"/>
<polygon fill="#63b8ff" stroke="#63b8ff" points="216.15,-167.65 219.83,-177.58 223.15,-167.52 216.15,-167.65"/>
</a>
</g>
</g>
</g>
</svg>
