<?xml version="1.0" encoding="UTF-8" standalone="no"?>
<!DOCTYPE svg PUBLIC "-//W3C//DTD SVG 1.1//EN"
 "http://www.w3.org/Graphics/SVG/1.1/DTD/svg11.dtd">
<!-- Generated by graphviz version 2.43.0 (0)
 -->
<!-- Title: Cpl::System::TimerManager Pages: 1 -->
<svg width="799pt" height="76pt"
 viewBox="0.00 0.00 799.00 75.50" xmlns="http://www.w3.org/2000/svg" xmlns:xlink="http://www.w3.org/1999/xlink">
<g id="graph0" class="graph" transform="scale(1 1) rotate(0) translate(4 71.5)">
<title>Cpl::System::TimerManager</title>
<!-- Node1 -->
<g id="Node000001" class="node">
<title>Node1</title>
<g id="a_Node000001"><a xlink:title="This mostly concrete class implements manages a list of Software Timers.">
<polygon fill="#999999" stroke="#666666" points="791,-45.5 639,-45.5 639,-26.5 791,-26.5 791,-45.5"/>
<text text-anchor="middle" x="715" y="-33.5" font-family="Helvetica,sans-Serif" font-size="10.00">Cpl::System::TimerManager</text>
</a>
</g>
</g>
<!-- Node2 -->
<g id="Node000002" class="node">
<title>Node2</title>
<g id="a_Node000002"><a xlink:href="class_cpl_1_1_system_1_1_counter_source__.html" target="_top" xlink:title="This abstract class defines the interface for registering for an Counter object with the Timer Manage...">
<polygon fill="white" stroke="#666666" points="501.5,-67.5 343.5,-67.5 343.5,-48.5 501.5,-48.5 501.5,-67.5"/>
<text text-anchor="middle" x="422.5" y="-55.5" font-family="Helvetica,sans-Serif" font-size="10.00">Cpl::System::CounterSource_</text>
</a>
</g>
</g>
<!-- Node2&#45;&gt;Node1 -->
<g id="edge1_Node000001_Node000002" class="edge">
<title>Node2&#45;&gt;Node1</title>
<g id="a_edge1_Node000001_Node000002"><a xlink:title=" ">
<path fill="none" stroke="#63b8ff" d="M512.24,-52C546.26,-49.62 585.44,-46.79 621,-44 626.82,-43.54 632.84,-43.06 638.89,-42.56"/>
<polygon fill="#63b8ff" stroke="#63b8ff" points="511.58,-48.53 501.85,-52.72 512.07,-55.52 511.58,-48.53"/>
</a>
</g>
</g>
<!-- Node3 -->
<g id="Node000003" class="node">
<title>Node3</title>
<g id="a_Node000003"><a xlink:href="class_cpl_1_1_container_1_1_d_list.html" target="_top" xlink:title=" ">
<polygon fill="white" stroke="#666666" points="517,-30 328,-30 328,0 517,0 517,-30"/>
<text text-anchor="start" x="336" y="-18" font-family="Helvetica,sans-Serif" font-size="10.00">Cpl::Container::DList</text>
<text text-anchor="middle" x="422.5" y="-7" font-family="Helvetica,sans-Serif" font-size="10.00">&lt; Cpl::System::CounterCallback_ &gt;</text>
</a>
</g>
</g>
<!-- Node3&#45;&gt;Node1 -->
<g id="edge2_Node000001_Node000003" class="edge">
<title>Node3&#45;&gt;Node1</title>
<g id="a_edge2_Node000001_Node000003"><a xlink:title=" ">
<path fill="none" stroke="#9a32cd" stroke-dasharray="5,2" d="M527.22,-16.45C557.5,-17.48 590.61,-19.18 621,-22 632.87,-23.1 645.53,-24.71 657.57,-26.45"/>
<polygon fill="#9a32cd" stroke="#9a32cd" points="527.18,-12.95 517.07,-16.13 526.96,-19.95 527.18,-12.95"/>
</a>
</g>
<text text-anchor="middle" x="578" y="-36" font-family="Helvetica,sans-Serif" font-size="10.00" fill="grey"> m_counters</text>
<text text-anchor="middle" x="578" y="-25" font-family="Helvetica,sans-Serif" font-size="10.00" fill="grey">m_pendingAttach</text>
</g>
<!-- Node4 -->
<g id="Node000004" class="node">
<title>Node4</title>
<g id="a_Node000004"><a xlink:href="class_cpl_1_1_container_1_1_d_list.html" target="_top" xlink:title="This template class implements a Doubly linked list which maintains the ordering imposed on it by the...">
<polygon fill="white" stroke="#666666" points="116,-30 0,-30 0,0 116,0 116,-30"/>
<text text-anchor="start" x="8" y="-18" font-family="Helvetica,sans-Serif" font-size="10.00">Cpl::Container::DList</text>
<text text-anchor="middle" x="58" y="-7" font-family="Helvetica,sans-Serif" font-size="10.00">&lt; ITEM &gt;</text>
</a>
</g>
</g>
<!-- Node4&#45;&gt;Node3 -->
<g id="edge3_Node000003_Node000004" class="edge">
<title>Node4&#45;&gt;Node3</title>
<g id="a_edge3_Node000003_Node000004"><a xlink:title=" ">
<path fill="none" stroke="orange" stroke-dasharray="5,2" d="M126.32,-15C183,-15 264.69,-15 327.77,-15"/>
<polygon fill="orange" stroke="orange" points="126.04,-11.5 116.04,-15 126.04,-18.5 126.04,-11.5"/>
</a>
</g>
<text text-anchor="middle" x="222" y="-18" font-family="Helvetica,sans-Serif" font-size="10.00" fill="grey"> &lt; Cpl::System::CounterCallback_ &gt;</text>
</g>
</g>
</svg>
