<?xml version="1.0" encoding="UTF-8" standalone="no"?>
<!DOCTYPE svg PUBLIC "-//W3C//DTD SVG 1.1//EN"
 "http://www.w3.org/Graphics/SVG/1.1/DTD/svg11.dtd">
<!-- Generated by graphviz version 2.43.0 (0)
 -->
<!-- Title: Cpl::Io::File::Littlefs::FileMemoryPool Pages: 1 -->
<svg width="1630pt" height="260pt"
 viewBox="0.00 0.00 1630.00 259.50" xmlns="http://www.w3.org/2000/svg" xmlns:xlink="http://www.w3.org/1999/xlink">
<g id="graph0" class="graph" transform="scale(1 1) rotate(0) translate(4 255.5)">
<title>Cpl::Io::File::Littlefs::FileMemoryPool</title>
<!-- Node1 -->
<g id="Node000001" class="node">
<title>Node1</title>
<g id="a_Node000001"><a xlink:title="Memory pool for opened files.">
<polygon fill="#999999" stroke="#666666" points="1622,-130.5 1512,-130.5 1512,-100.5 1622,-100.5 1622,-130.5"/>
<text text-anchor="start" x="1520" y="-118.5" font-family="Helvetica,sans-Serif" font-size="10.00">Cpl::Io::File::Littlefs</text>
<text text-anchor="middle" x="1567" y="-107.5" font-family="Helvetica,sans-Serif" font-size="10.00">::FileMemoryPool</text>
</a>
</g>
</g>
<!-- Node2 -->
<g id="Node000002" class="node">
<title>Node2</title>
<g id="a_Node000002"><a xlink:href="class_cpl_1_1_memory_1_1_s_pool.html" target="_top" xlink:title=" ">
<polygon fill="white" stroke="#666666" points="1436,-147 1228,-147 1228,-84 1436,-84 1436,-147"/>
<text text-anchor="start" x="1236" y="-135" font-family="Helvetica,sans-Serif" font-size="10.00">Cpl::Memory::SPool</text>
<text text-anchor="start" x="1236" y="-124" font-family="Helvetica,sans-Serif" font-size="10.00">&lt; Cpl::Io::File::Littlefs</text>
<text text-anchor="start" x="1236" y="-113" font-family="Helvetica,sans-Serif" font-size="10.00">::FileDesc_T, OPTION_CPL</text>
<text text-anchor="start" x="1236" y="-102" font-family="Helvetica,sans-Serif" font-size="10.00">_IO_FILE_LITTLEFS_MAX_CONCURRENT</text>
<text text-anchor="middle" x="1332" y="-91" font-family="Helvetica,sans-Serif" font-size="10.00">_FILES &gt;</text>
</a>
</g>
</g>
<!-- Node2&#45;&gt;Node1 -->
<g id="edge1_Node000001_Node000002" class="edge">
<title>Node2&#45;&gt;Node1</title>
<g id="a_edge1_Node000001_Node000002"><a xlink:title=" ">
<path fill="none" stroke="#9a32cd" stroke-dasharray="5,2" d="M1446.32,-115.5C1469.14,-115.5 1492.12,-115.5 1511.75,-115.5"/>
<polygon fill="#9a32cd" stroke="#9a32cd" points="1446.21,-112 1436.21,-115.5 1446.21,-119 1446.21,-112"/>
</a>
</g>
<text text-anchor="middle" x="1474" y="-118.5" font-family="Helvetica,sans-Serif" font-size="10.00" fill="grey"> m_pool</text>
</g>
<!-- Node3 -->
<g id="Node000003" class="node">
<title>Node3</title>
<g id="a_Node000003"><a xlink:href="class_cpl_1_1_memory_1_1_allocator.html" target="_top" xlink:title="This abstract class defines the interface for a Memory Allocator.">
<polygon fill="white" stroke="#666666" points="399,-142 271,-142 271,-123 399,-123 399,-142"/>
<text text-anchor="middle" x="335" y="-130" font-family="Helvetica,sans-Serif" font-size="10.00">Cpl::Memory::Allocator</text>
</a>
</g>
</g>
<!-- Node3&#45;&gt;Node2 -->
<g id="edge2_Node000002_Node000003" class="edge">
<title>Node3&#45;&gt;Node2</title>
<g id="a_edge2_Node000002_Node000003"><a xlink:title=" ">
<path fill="none" stroke="#63b8ff" d="M385.76,-120.78C425.17,-112.12 481.76,-101.08 532,-96.5 781.07,-73.82 1075.51,-92.49 1227.95,-105.54"/>
<polygon fill="#63b8ff" stroke="#63b8ff" points="384.87,-117.39 375.87,-122.98 386.39,-124.22 384.87,-117.39"/>
</a>
</g>
</g>
<!-- Node9 -->
<g id="Node000009" class="node">
<title>Node9</title>
<g id="a_Node000009"><a xlink:href="class_cpl_1_1_memory_1_1_pool__.html" target="_top" xlink:title="This private concrete class implements a Memory Allocator using a pool of fixed size blocks.">
<polygon fill="white" stroke="#666666" points="675,-124 565,-124 565,-105 675,-105 675,-124"/>
<text text-anchor="middle" x="620" y="-112" font-family="Helvetica,sans-Serif" font-size="10.00">Cpl::Memory::Pool_</text>
</a>
</g>
</g>
<!-- Node3&#45;&gt;Node9 -->
<g id="edge10_Node000009_Node000003" class="edge">
<title>Node3&#45;&gt;Node9</title>
<g id="a_edge10_Node000009_Node000003"><a xlink:title=" ">
<path fill="none" stroke="#63b8ff" d="M409.29,-127.84C457.85,-124.75 520.49,-120.77 564.62,-117.96"/>
<polygon fill="#63b8ff" stroke="#63b8ff" points="408.92,-124.36 399.16,-128.48 409.36,-131.34 408.92,-124.36"/>
</a>
</g>
</g>
<!-- Node12 -->
<g id="Node000012" class="node">
<title>Node12</title>
<g id="a_Node000012"><a xlink:href="class_cpl_1_1_memory_1_1_s_pool.html" target="_top" xlink:title="This template class defines a concrete Allocator that STATICALLY allocates all of its Memory and can ...">
<polygon fill="white" stroke="#666666" points="982,-181.5 871,-181.5 871,-151.5 982,-151.5 982,-181.5"/>
<text text-anchor="start" x="879" y="-169.5" font-family="Helvetica,sans-Serif" font-size="10.00">Cpl::Memory::SPool</text>
<text text-anchor="middle" x="926.5" y="-158.5" font-family="Helvetica,sans-Serif" font-size="10.00">&lt; T, N &gt;</text>
</a>
</g>
</g>
<!-- Node3&#45;&gt;Node12 -->
<g id="edge14_Node000012_Node000003" class="edge">
<title>Node3&#45;&gt;Node12</title>
<g id="a_edge14_Node000012_Node000003"><a xlink:title=" ">
<path fill="none" stroke="#63b8ff" d="M409.41,-136.91C487.8,-141.61 615.67,-149.2 726,-155.5 775,-158.3 830.79,-161.36 870.88,-163.54"/>
<polygon fill="#63b8ff" stroke="#63b8ff" points="409.34,-133.4 399.15,-136.3 408.93,-140.39 409.34,-133.4"/>
</a>
</g>
</g>
<!-- Node4 -->
<g id="Node000004" class="node">
<title>Node4</title>
<g id="a_Node000004"><a xlink:href="class_cpl_1_1_container_1_1_item.html" target="_top" xlink:title="This class is used by the Container classes to implement a various types of singly linked containers.">
<polygon fill="white" stroke="#666666" points="115,-163 1,-163 1,-144 115,-144 115,-163"/>
<text text-anchor="middle" x="58" y="-151" font-family="Helvetica,sans-Serif" font-size="10.00">Cpl::Container::Item</text>
</a>
</g>
</g>
<!-- Node4&#45;&gt;Node3 -->
<g id="edge3_Node000003_Node000004" class="edge">
<title>Node4&#45;&gt;Node3</title>
<g id="a_edge3_Node000003_Node000004"><a xlink:title=" ">
<path fill="none" stroke="#63b8ff" d="M125.36,-148.43C169.47,-145.06 227.05,-140.67 270.55,-137.35"/>
<polygon fill="#63b8ff" stroke="#63b8ff" points="125.02,-144.95 115.31,-149.2 125.55,-151.93 125.02,-144.95"/>
</a>
</g>
</g>
<!-- Node8 -->
<g id="Node000008" class="node">
<title>Node8</title>
<g id="a_Node000008"><a xlink:href="class_cpl_1_1_container_1_1_extended_item.html" target="_top" xlink:title="This class is used by the Container classes to implement a various types of DOUBLY linked containers.">
<polygon fill="white" stroke="#666666" points="415,-203 255,-203 255,-184 415,-184 415,-203"/>
<text text-anchor="middle" x="335" y="-191" font-family="Helvetica,sans-Serif" font-size="10.00">Cpl::Container::ExtendedItem</text>
</a>
</g>
</g>
<!-- Node4&#45;&gt;Node8 -->
<g id="edge8_Node000008_Node000004" class="edge">
<title>Node4&#45;&gt;Node8</title>
<g id="a_edge8_Node000008_Node000004"><a xlink:title=" ">
<path fill="none" stroke="#63b8ff" d="M125.22,-163.13C168.68,-169.45 225.28,-177.69 268.58,-183.98"/>
<polygon fill="#63b8ff" stroke="#63b8ff" points="125.71,-159.67 115.31,-161.69 124.71,-166.59 125.71,-159.67"/>
</a>
</g>
</g>
<!-- Node5 -->
<g id="Node000005" class="node">
<title>Node5</title>
<g id="a_Node000005"><a xlink:href="namespace_cpl_1_1_memory.html#namespace_cpl_1_1_memory" target="_top" xlink:title=" ">
<polygon fill="white" stroke="#666666" points="1000,-41 853,-41 853,0 1000,0 1000,-41"/>
<text text-anchor="start" x="861" y="-29" font-family="Helvetica,sans-Serif" font-size="10.00">Cpl::Memory::AlignedClass</text>
<text text-anchor="start" x="861" y="-18" font-family="Helvetica,sans-Serif" font-size="10.00">&lt; Cpl::Io::File::Littlefs</text>
<text text-anchor="middle" x="926.5" y="-7" font-family="Helvetica,sans-Serif" font-size="10.00">::FileDesc_T &gt;</text>
</a>
</g>
</g>
<!-- Node5&#45;&gt;Node2 -->
<g id="edge4_Node000002_Node000005" class="edge">
<title>Node5&#45;&gt;Node2</title>
<g id="a_edge4_Node000002_Node000005"><a xlink:title=" ">
<path fill="none" stroke="#9a32cd" stroke-dasharray="5,2" d="M1010.13,-17.98C1067.48,-18.51 1144.95,-23.83 1210,-44.5 1237.74,-53.32 1265.95,-69.37 1288.14,-83.99"/>
<polygon fill="#9a32cd" stroke="#9a32cd" points="1010.04,-14.48 1000.03,-17.93 1010.01,-21.48 1010.04,-14.48"/>
</a>
</g>
<text text-anchor="middle" x="1114" y="-47.5" font-family="Helvetica,sans-Serif" font-size="10.00" fill="grey"> m_blocks</text>
</g>
<!-- Node6 -->
<g id="Node000006" class="node">
<title>Node6</title>
<g id="a_Node000006"><a xlink:href="namespace_cpl_1_1_memory.html#union_cpl_1_1_memory_1_1_aligned_class" target="_top" xlink:title="This type is used to create a memory block that is large enough to hold the memory footprint of ONE i...">
<polygon fill="white" stroke="#666666" points="708,-30 532,-30 532,-11 708,-11 708,-30"/>
<text text-anchor="middle" x="620" y="-18" font-family="Helvetica,sans-Serif" font-size="10.00">Cpl::Memory::AlignedClass&lt; T &gt;</text>
</a>
</g>
</g>
<!-- Node6&#45;&gt;Node5 -->
<g id="edge5_Node000005_Node000006" class="edge">
<title>Node6&#45;&gt;Node5</title>
<g id="a_edge5_Node000005_Node000006"><a xlink:title=" ">
<path fill="none" stroke="orange" stroke-dasharray="5,2" d="M718.31,-20.5C761.88,-20.5 812.39,-20.5 852.63,-20.5"/>
<polygon fill="orange" stroke="orange" points="718.26,-17 708.26,-20.5 718.26,-24 718.26,-17"/>
</a>
</g>
<text text-anchor="start" x="726" y="-34.5" font-family="Helvetica,sans-Serif" font-size="10.00" fill="grey"> &lt; Cpl::Io::File::Littlefs</text>
<text text-anchor="middle" x="780.5" y="-23.5" font-family="Helvetica,sans-Serif" font-size="10.00" fill="grey">::FileDesc_T &gt;</text>
</g>
<!-- Node7 -->
<g id="Node000007" class="node">
<title>Node7</title>
<g id="a_Node000007"><a xlink:href="class_cpl_1_1_memory_1_1_pool___1_1_block_info__.html" target="_top" xlink:title="Helper class so I can put my blocks into to my standard containers.">
<polygon fill="white" stroke="#666666" points="675,-227.5 565,-227.5 565,-197.5 675,-197.5 675,-227.5"/>
<text text-anchor="start" x="573" y="-215.5" font-family="Helvetica,sans-Serif" font-size="10.00">Cpl::Memory::Pool_</text>
<text text-anchor="middle" x="620" y="-204.5" font-family="Helvetica,sans-Serif" font-size="10.00">::BlockInfo_</text>
</a>
</g>
</g>
<!-- Node7&#45;&gt;Node2 -->
<g id="edge6_Node000002_Node000007" class="edge">
<title>Node7&#45;&gt;Node2</title>
<g id="a_edge6_Node000002_Node000007"><a xlink:title=" ">
<path fill="none" stroke="#9a32cd" stroke-dasharray="5,2" d="M685.18,-223.45C795.7,-239.68 1027.65,-262.12 1210,-201.5 1243.26,-190.44 1275.33,-166.86 1298.09,-147.19"/>
<polygon fill="#9a32cd" stroke="#9a32cd" points="685.6,-219.98 675.19,-221.95 684.56,-226.9 685.6,-219.98"/>
</a>
</g>
<text text-anchor="middle" x="926.5" y="-243.5" font-family="Helvetica,sans-Serif" font-size="10.00" fill="grey"> m_infoBlocks</text>
</g>
<!-- Node7&#45;&gt;Node12 -->
<g id="edge15_Node000012_Node000007" class="edge">
<title>Node7&#45;&gt;Node12</title>
<g id="a_edge15_Node000012_Node000007"><a xlink:title=" ">
<path fill="none" stroke="#9a32cd" stroke-dasharray="5,2" d="M685.04,-203.01C727.57,-196.69 784.63,-188.16 835,-180.5 846.63,-178.73 859.1,-176.81 870.95,-174.98"/>
<polygon fill="#9a32cd" stroke="#9a32cd" points="684.48,-199.56 675.1,-204.49 685.51,-206.48 684.48,-199.56"/>
</a>
</g>
<text text-anchor="middle" x="780.5" y="-198.5" font-family="Helvetica,sans-Serif" font-size="10.00" fill="grey"> m_infoBlocks</text>
</g>
<!-- Node8&#45;&gt;Node7 -->
<g id="edge7_Node000007_Node000008" class="edge">
<title>Node8&#45;&gt;Node7</title>
<g id="a_edge7_Node000007_Node000008"><a xlink:title=" ">
<path fill="none" stroke="#63b8ff" d="M425.44,-199.51C471.25,-202.58 525.5,-206.22 564.9,-208.87"/>
<polygon fill="#63b8ff" stroke="#63b8ff" points="425.42,-196 415.21,-198.82 424.95,-202.98 425.42,-196"/>
</a>
</g>
</g>
<!-- Node9&#45;&gt;Node2 -->
<g id="edge9_Node000002_Node000009" class="edge">
<title>Node9&#45;&gt;Node2</title>
<g id="a_edge9_Node000002_Node000009"><a xlink:title=" ">
<path fill="none" stroke="#9a32cd" stroke-dasharray="5,2" d="M685.28,-114.59C808.54,-114.76 1079.08,-115.15 1227.88,-115.35"/>
<polygon fill="#9a32cd" stroke="#9a32cd" points="685.25,-111.09 675.24,-114.58 685.24,-118.09 685.25,-111.09"/>
</a>
</g>
<text text-anchor="middle" x="926.5" y="-117.5" font-family="Helvetica,sans-Serif" font-size="10.00" fill="grey"> m_pool</text>
</g>
<!-- Node9&#45;&gt;Node12 -->
<g id="edge16_Node000012_Node000009" class="edge">
<title>Node9&#45;&gt;Node12</title>
<g id="a_edge16_Node000012_Node000009"><a xlink:title=" ">
<path fill="none" stroke="#9a32cd" stroke-dasharray="5,2" d="M685.3,-121.82C727.94,-127.1 785.02,-134.95 835,-144.5 846.59,-146.72 858.93,-149.46 870.65,-152.24"/>
<polygon fill="#9a32cd" stroke="#9a32cd" points="685.68,-118.35 675.33,-120.61 684.84,-125.29 685.68,-118.35"/>
</a>
</g>
<text text-anchor="middle" x="780.5" y="-147.5" font-family="Helvetica,sans-Serif" font-size="10.00" fill="grey"> m_pool</text>
</g>
<!-- Node10 -->
<g id="Node000010" class="node">
<title>Node10</title>
<g id="a_Node000010"><a xlink:href="class_cpl_1_1_container_1_1_d_list.html" target="_top" xlink:title=" ">
<polygon fill="white" stroke="#666666" points="396,-53 274,-53 274,-12 396,-12 396,-53"/>
<text text-anchor="start" x="282" y="-41" font-family="Helvetica,sans-Serif" font-size="10.00">Cpl::Container::DList</text>
<text text-anchor="start" x="282" y="-30" font-family="Helvetica,sans-Serif" font-size="10.00">&lt; Cpl::Memory::Pool_</text>
<text text-anchor="middle" x="335" y="-19" font-family="Helvetica,sans-Serif" font-size="10.00">::BlockInfo_ &gt;</text>
</a>
</g>
</g>
<!-- Node10&#45;&gt;Node9 -->
<g id="edge11_Node000009_Node000010" class="edge">
<title>Node10&#45;&gt;Node9</title>
<g id="a_edge11_Node000009_Node000010"><a xlink:title=" ">
<path fill="none" stroke="#9a32cd" stroke-dasharray="5,2" d="M405.76,-52.71C463.18,-69.35 542.04,-92.2 585.99,-104.94"/>
<polygon fill="#9a32cd" stroke="#9a32cd" points="406.6,-49.31 396.02,-49.89 404.65,-56.03 406.6,-49.31"/>
</a>
</g>
<text text-anchor="middle" x="473.5" y="-96.5" font-family="Helvetica,sans-Serif" font-size="10.00" fill="grey"> m_allocatedList</text>
<text text-anchor="middle" x="473.5" y="-85.5" font-family="Helvetica,sans-Serif" font-size="10.00" fill="grey">m_freeList</text>
</g>
<!-- Node11 -->
<g id="Node000011" class="node">
<title>Node11</title>
<g id="a_Node000011"><a xlink:href="class_cpl_1_1_container_1_1_d_list.html" target="_top" xlink:title="This template class implements a Doubly linked list which maintains the ordering imposed on it by the...">
<polygon fill="white" stroke="#666666" points="116,-47.5 0,-47.5 0,-17.5 116,-17.5 116,-47.5"/>
<text text-anchor="start" x="8" y="-35.5" font-family="Helvetica,sans-Serif" font-size="10.00">Cpl::Container::DList</text>
<text text-anchor="middle" x="58" y="-24.5" font-family="Helvetica,sans-Serif" font-size="10.00">&lt; ITEM &gt;</text>
</a>
</g>
</g>
<!-- Node11&#45;&gt;Node10 -->
<g id="edge12_Node000010_Node000011" class="edge">
<title>Node11&#45;&gt;Node10</title>
<g id="a_edge12_Node000010_Node000011"><a xlink:title=" ">
<path fill="none" stroke="orange" stroke-dasharray="5,2" d="M126.59,-32.5C171.68,-32.5 230.44,-32.5 273.9,-32.5"/>
<polygon fill="orange" stroke="orange" points="126.31,-29 116.31,-32.5 126.31,-36 126.31,-29"/>
</a>
</g>
<text text-anchor="start" x="134" y="-46.5" font-family="Helvetica,sans-Serif" font-size="10.00" fill="grey"> &lt; Cpl::Memory::Pool</text>
<text text-anchor="middle" x="185.5" y="-35.5" font-family="Helvetica,sans-Serif" font-size="10.00" fill="grey">_::BlockInfo_ &gt;</text>
</g>
<!-- Node12&#45;&gt;Node2 -->
<g id="edge13_Node000002_Node000012" class="edge">
<title>Node12&#45;&gt;Node2</title>
<g id="a_edge13_Node000002_Node000012"><a xlink:title=" ">
<path fill="none" stroke="orange" stroke-dasharray="5,2" d="M992.61,-158.27C1056.08,-150.25 1153.58,-137.92 1227.65,-128.56"/>
<polygon fill="orange" stroke="orange" points="991.82,-154.84 982.34,-159.57 992.7,-161.79 991.82,-154.84"/>
</a>
</g>
<text text-anchor="start" x="1018" y="-189.5" font-family="Helvetica,sans-Serif" font-size="10.00" fill="grey"> &lt; Cpl::Io::File::Littlefs</text>
<text text-anchor="start" x="1018" y="-178.5" font-family="Helvetica,sans-Serif" font-size="10.00" fill="grey">::FileDesc_T, OPTION_CPL</text>
<text text-anchor="start" x="1018" y="-167.5" font-family="Helvetica,sans-Serif" font-size="10.00" fill="grey">_IO_FILE_LITTLEFS_MAX_CONCURRENT</text>
<text text-anchor="middle" x="1114" y="-156.5" font-family="Helvetica,sans-Serif" font-size="10.00" fill="grey">_FILES &gt;</text>
</g>
</g>
</svg>
