<?xml version="1.0" encoding="UTF-8" standalone="no"?>
<!DOCTYPE svg PUBLIC "-//W3C//DTD SVG 1.1//EN"
 "http://www.w3.org/Graphics/SVG/1.1/DTD/svg11.dtd">
<!-- Generated by graphviz version 2.43.0 (0)
 -->
<!-- Title: Driver::NV::Onsemi::CAT24C512::Api Pages: 1 -->
<svg width="222pt" height="104pt"
 viewBox="0.00 0.00 222.00 104.00" xmlns="http://www.w3.org/2000/svg" xmlns:xlink="http://www.w3.org/1999/xlink">
<g id="graph0" class="graph" transform="scale(1 1) rotate(0) translate(4 100)">
<title>Driver::NV::Onsemi::CAT24C512::Api</title>
<!-- Node1 -->
<g id="Node000001" class="node">
<title>Node1</title>
<g id="a_Node000001"><a xlink:title="This class implements the Non&#45;volatile storage driver for the Onsemi CAT24C512 serial 512Kb (64KB) I2...">
<polygon fill="#999999" stroke="#666666" points="157,-30 47,-30 47,0 157,0 157,-30"/>
<text text-anchor="start" x="55" y="-18" font-family="Helvetica,sans-Serif" font-size="10.00">Driver::NV::Onsemi</text>
<text text-anchor="middle" x="102" y="-7" font-family="Helvetica,sans-Serif" font-size="10.00">::CAT24C512::Api</text>
</a>
</g>
</g>
<!-- Node2 -->
<g id="Node000002" class="node">
<title>Node2</title>
<g id="a_Node000002"><a xlink:href="class_driver_1_1_n_v_1_1_api.html" target="_top" xlink:title="This class defines the interface for a platform independent Non&#45;volatile storage driver.">
<polygon fill="white" stroke="#666666" points="88,-96 0,-96 0,-77 88,-77 88,-96"/>
<text text-anchor="middle" x="44" y="-84" font-family="Helvetica,sans-Serif" font-size="10.00">Driver::NV::Api</text>
</a>
</g>
</g>
<!-- Node2&#45;&gt;Node1 -->
<g id="edge1_Node000001_Node000002" class="edge">
<title>Node2&#45;&gt;Node1</title>
<g id="a_edge1_Node000001_Node000002"><a xlink:title=" ">
<path fill="none" stroke="#63b8ff" d="M57.62,-69.18C67.51,-57.33 80.76,-41.45 90.2,-30.14"/>
<polygon fill="#63b8ff" stroke="#63b8ff" points="54.83,-67.06 51.11,-76.98 60.21,-71.54 54.83,-67.06"/>
</a>
</g>
</g>
<!-- Node3 -->
<g id="Node000003" class="node">
<title>Node3</title>
<g id="a_Node000003"><a xlink:href="class_driver_1_1_i2_c_1_1_master.html" target="_top" xlink:title="This class defines a non&#45;platform specific interface for an I2C master device driver.">
<polygon fill="white" stroke="#666666" points="214,-96 106,-96 106,-77 214,-77 214,-96"/>
<text text-anchor="middle" x="160" y="-84" font-family="Helvetica,sans-Serif" font-size="10.00">Driver::I2C::Master</text>
</a>
</g>
</g>
<!-- Node3&#45;&gt;Node1 -->
<g id="edge2_Node000001_Node000003" class="edge">
<title>Node3&#45;&gt;Node1</title>
<g id="a_edge2_Node000001_Node000003"><a xlink:title=" ">
<path fill="none" stroke="#9a32cd" stroke-dasharray="5,2" d="M146.38,-69.18C136.49,-57.33 123.24,-41.45 113.8,-30.14"/>
<polygon fill="#9a32cd" stroke="#9a32cd" points="143.79,-71.54 152.89,-76.98 149.17,-67.06 143.79,-71.54"/>
</a>
</g>
<text text-anchor="middle" x="167.5" y="-51" font-family="Helvetica,sans-Serif" font-size="10.00" fill="grey"> m_i2cDriver</text>
</g>
</g>
</svg>
