<?xml version="1.0" encoding="UTF-8" standalone="no"?>
<!DOCTYPE svg PUBLIC "-//W3C//DTD SVG 1.1//EN"
 "http://www.w3.org/Graphics/SVG/1.1/DTD/svg11.dtd">
<!-- Generated by graphviz version 2.43.0 (0)
 -->
<!-- Title: Cpl::TShell::PolledMaker Pages: 1 -->
<svg width="1994pt" height="479pt"
 viewBox="0.00 0.00 1994.00 478.64" xmlns="http://www.w3.org/2000/svg" xmlns:xlink="http://www.w3.org/1999/xlink">
<g id="graph0" class="graph" transform="scale(1 1) rotate(0) translate(4 474.64)">
<title>Cpl::TShell::PolledMaker</title>
<!-- Node1 -->
<g id="Node000001" class="node">
<title>Node1</title>
<g id="a_Node000001"><a xlink:title="This concrete class is a &quot;Maker&quot; that assembles the objects needed for a &#39;basic&#39; TShell Processor eng...">
<polygon fill="#999999" stroke="#666666" points="1986,-324 1852,-324 1852,-305 1986,-305 1986,-324"/>
<text text-anchor="middle" x="1919" y="-312" font-family="Helvetica,sans-Serif" font-size="10.00">Cpl::TShell::PolledMaker</text>
</a>
</g>
</g>
<!-- Node2 -->
<g id="Node000002" class="node">
<title>Node2</title>
<g id="a_Node000002"><a xlink:href="class_cpl_1_1_text_1_1_frame_1_1_stream_encoder.html" target="_top" xlink:title="This concrete class implements the Encoder API where the Output destination is a Cpl::Io::Output stre...">
<polygon fill="white" stroke="#666666" points="1090,-291.5 953,-291.5 953,-261.5 1090,-261.5 1090,-291.5"/>
<text text-anchor="start" x="961" y="-279.5" font-family="Helvetica,sans-Serif" font-size="10.00">Cpl::Text::Frame::Stream</text>
<text text-anchor="middle" x="1021.5" y="-268.5" font-family="Helvetica,sans-Serif" font-size="10.00">Encoder</text>
</a>
</g>
</g>
<!-- Node2&#45;&gt;Node1 -->
<g id="edge1_Node000001_Node000002" class="edge">
<title>Node2&#45;&gt;Node1</title>
<g id="a_edge1_Node000001_Node000002"><a xlink:title=" ">
<path fill="none" stroke="#9a32cd" stroke-dasharray="5,2" d="M1100.15,-276.33C1233.29,-276.52 1513.68,-279.08 1750,-295.5 1783.67,-297.84 1821,-301.91 1851.89,-305.69"/>
<polygon fill="#9a32cd" stroke="#9a32cd" points="1100.05,-272.83 1090.04,-276.32 1100.04,-279.83 1100.05,-272.83"/>
</a>
</g>
<text text-anchor="middle" x="1468.5" y="-287.5" font-family="Helvetica,sans-Serif" font-size="10.00" fill="grey"> m_framer</text>
</g>
<!-- Node16 -->
<g id="Node000016" class="node">
<title>Node16</title>
<g id="a_Node000016"><a xlink:href="class_cpl_1_1_t_shell_1_1_processor.html" target="_top" xlink:title="This concrete class provides the implementation of Command Processor for a TShell engine.">
<polygon fill="white" stroke="#666666" points="1361,-209 1239,-209 1239,-190 1361,-190 1361,-209"/>
<text text-anchor="middle" x="1300" y="-197" font-family="Helvetica,sans-Serif" font-size="10.00">Cpl::TShell::Processor</text>
</a>
</g>
</g>
<!-- Node2&#45;&gt;Node16 -->
<g id="edge24_Node000016_Node000002" class="edge">
<title>Node2&#45;&gt;Node16</title>
<g id="a_edge24_Node000016_Node000002"><a xlink:title=" ">
<path fill="none" stroke="#9a32cd" stroke-dasharray="5,2" d="M1089.76,-258.84C1123.25,-249.94 1164.32,-238.86 1201,-228.5 1223.2,-222.23 1248.12,-214.85 1267.28,-209.1"/>
<polygon fill="#9a32cd" stroke="#9a32cd" points="1088.85,-255.46 1080.08,-261.41 1090.64,-262.23 1088.85,-255.46"/>
</a>
</g>
<text text-anchor="middle" x="1161.5" y="-253.5" font-family="Helvetica,sans-Serif" font-size="10.00" fill="grey"> m_framer</text>
</g>
<!-- Node3 -->
<g id="Node000003" class="node">
<title>Node3</title>
<g id="a_Node000003"><a xlink:href="class_cpl_1_1_text_1_1_frame_1_1_encoder__.html" target="_top" xlink:title="This Private Namespace partially concrete class implements common/helper method for supporting the En...">
<polygon fill="white" stroke="#666666" points="753.5,-286 607.5,-286 607.5,-267 753.5,-267 753.5,-286"/>
<text text-anchor="middle" x="680.5" y="-274" font-family="Helvetica,sans-Serif" font-size="10.00">Cpl::Text::Frame::Encoder_</text>
</a>
</g>
</g>
<!-- Node3&#45;&gt;Node2 -->
<g id="edge2_Node000002_Node000003" class="edge">
<title>Node3&#45;&gt;Node2</title>
<g id="a_edge2_Node000002_Node000003"><a xlink:title=" ">
<path fill="none" stroke="#63b8ff" d="M764.04,-276.5C822,-276.5 898.58,-276.5 952.92,-276.5"/>
<polygon fill="#63b8ff" stroke="#63b8ff" points="763.81,-273 753.81,-276.5 763.81,-280 763.81,-273"/>
</a>
</g>
</g>
<!-- Node4 -->
<g id="Node000004" class="node">
<title>Node4</title>
<g id="a_Node000004"><a xlink:href="class_cpl_1_1_text_1_1_frame_1_1_encoder.html" target="_top" xlink:title="This class defines an interface for &#39;transmitted&#39; (encoding) a frame.">
<polygon fill="white" stroke="#666666" points="569,-286 429,-286 429,-267 569,-267 569,-286"/>
<text text-anchor="middle" x="499" y="-274" font-family="Helvetica,sans-Serif" font-size="10.00">Cpl::Text::Frame::Encoder</text>
</a>
</g>
</g>
<!-- Node4&#45;&gt;Node3 -->
<g id="edge3_Node000003_Node000004" class="edge">
<title>Node4&#45;&gt;Node3</title>
<g id="a_edge3_Node000003_Node000004"><a xlink:title=" ">
<path fill="none" stroke="#63b8ff" d="M579.24,-276.5C588.62,-276.5 598.15,-276.5 607.42,-276.5"/>
<polygon fill="#63b8ff" stroke="#63b8ff" points="579.14,-273 569.14,-276.5 579.14,-280 579.14,-273"/>
</a>
</g>
</g>
<!-- Node5 -->
<g id="Node000005" class="node">
<title>Node5</title>
<g id="a_Node000005"><a xlink:href="class_cpl_1_1_io_1_1_output.html" target="_top" xlink:title="This partially abstract class defines a interface for operating on an output stream (example of a str...">
<polygon fill="white" stroke="#666666" points="723.5,-408 637.5,-408 637.5,-389 723.5,-389 723.5,-408"/>
<text text-anchor="middle" x="680.5" y="-396" font-family="Helvetica,sans-Serif" font-size="10.00">Cpl::Io::Output</text>
</a>
</g>
</g>
<!-- Node5&#45;&gt;Node2 -->
<g id="edge4_Node000002_Node000005" class="edge">
<title>Node5&#45;&gt;Node2</title>
<g id="a_edge4_Node000002_Node000005"><a xlink:title=" ">
<path fill="none" stroke="#9a32cd" stroke-dasharray="5,2" d="M733.97,-392.59C799.93,-384.77 906.34,-370.65 921,-359.5 936.2,-347.95 925.93,-334.42 939,-320.5 950.56,-308.19 966.35,-298.58 980.95,-291.52"/>
<polygon fill="#9a32cd" stroke="#9a32cd" points="733.28,-389.15 723.75,-393.79 734.09,-396.1 733.28,-389.15"/>
</a>
</g>
<text text-anchor="middle" x="846.5" y="-390.5" font-family="Helvetica,sans-Serif" font-size="10.00" fill="grey"> m_dstPtr</text>
</g>
<!-- Node15 -->
<g id="Node000015" class="node">
<title>Node15</title>
<g id="a_Node000015"><a xlink:href="class_cpl_1_1_t_shell_1_1_polled_processor.html" target="_top" xlink:title="This concrete class provides a non&#45;blocking implementation of Command PolledProcessor for a TShell en...">
<polygon fill="white" stroke="#666666" points="1729,-324 1577,-324 1577,-305 1729,-305 1729,-324"/>
<text text-anchor="middle" x="1653" y="-312" font-family="Helvetica,sans-Serif" font-size="10.00">Cpl::TShell::PolledProcessor</text>
</a>
</g>
</g>
<!-- Node5&#45;&gt;Node15 -->
<g id="edge36_Node000015_Node000005" class="edge">
<title>Node5&#45;&gt;Node15</title>
<g id="a_edge36_Node000015_Node000005"><a xlink:title=" ">
<path fill="none" stroke="#9a32cd" stroke-dasharray="5,2" d="M734.07,-400.54C746.51,-400.94 759.72,-401.3 772,-401.5 838.21,-402.6 854.78,-401.82 921,-401.5 1195.23,-400.17 1319.52,-561.24 1538,-395.5 1560.86,-378.16 1534.85,-352.89 1556,-333.5 1562.01,-327.99 1569.15,-323.88 1576.77,-320.83"/>
<polygon fill="#9a32cd" stroke="#9a32cd" points="733.96,-397.03 723.85,-400.19 733.73,-404.03 733.96,-397.03"/>
</a>
</g>
<text text-anchor="middle" x="1161.5" y="-450.5" font-family="Helvetica,sans-Serif" font-size="10.00" fill="grey"> m_outFd</text>
</g>
<!-- Node6 -->
<g id="Node000006" class="node">
<title>Node6</title>
<g id="a_Node000006"><a xlink:href="class_cpl_1_1_io_1_1_close.html" target="_top" xlink:title="This abstract class defines a close operation that is intended to be used Input and Output streams/fi...">
<polygon fill="white" stroke="#666666" points="539,-400 459,-400 459,-381 539,-381 539,-400"/>
<text text-anchor="middle" x="499" y="-388" font-family="Helvetica,sans-Serif" font-size="10.00">Cpl::Io::Close</text>
</a>
</g>
</g>
<!-- Node6&#45;&gt;Node5 -->
<g id="edge5_Node000005_Node000006" class="edge">
<title>Node6&#45;&gt;Node5</title>
<g id="a_edge5_Node000005_Node000006"><a xlink:title=" ">
<path fill="none" stroke="#63b8ff" d="M549.62,-392.71C577.19,-393.94 611.12,-395.45 637.38,-396.62"/>
<polygon fill="#63b8ff" stroke="#63b8ff" points="549.54,-389.2 539.39,-392.26 549.23,-396.2 549.54,-389.2"/>
</a>
</g>
</g>
<!-- Node13 -->
<g id="Node000013" class="node">
<title>Node13</title>
<g id="a_Node000013"><a xlink:href="class_cpl_1_1_io_1_1_input.html" target="_top" xlink:title="This partially abstract class defines a interface for operating on an input stream (example of a stre...">
<polygon fill="white" stroke="#666666" points="719.5,-354 641.5,-354 641.5,-335 719.5,-335 719.5,-354"/>
<text text-anchor="middle" x="680.5" y="-342" font-family="Helvetica,sans-Serif" font-size="10.00">Cpl::Io::Input</text>
</a>
</g>
</g>
<!-- Node6&#45;&gt;Node13 -->
<g id="edge13_Node000013_Node000006" class="edge">
<title>Node6&#45;&gt;Node13</title>
<g id="a_edge13_Node000013_Node000006"><a xlink:title=" ">
<path fill="none" stroke="#63b8ff" d="M546.95,-378.47C576.72,-370.84 614.69,-361.11 642.36,-354.02"/>
<polygon fill="#63b8ff" stroke="#63b8ff" points="546.01,-375.1 537.19,-380.97 547.75,-381.88 546.01,-375.1"/>
</a>
</g>
</g>
<!-- Node7 -->
<g id="Node000007" class="node">
<title>Node7</title>
<g id="a_Node000007"><a xlink:href="class_cpl_1_1_container_1_1_item.html" target="_top" xlink:title="This class is used by the Container classes to implement a various types of singly linked containers.">
<polygon fill="white" stroke="#666666" points="391,-400 277,-400 277,-381 391,-381 391,-400"/>
<text text-anchor="middle" x="334" y="-388" font-family="Helvetica,sans-Serif" font-size="10.00">Cpl::Container::Item</text>
</a>
</g>
</g>
<!-- Node7&#45;&gt;Node6 -->
<g id="edge6_Node000006_Node000007" class="edge">
<title>Node7&#45;&gt;Node6</title>
<g id="a_edge6_Node000006_Node000007"><a xlink:title=" ">
<path fill="none" stroke="#63b8ff" d="M401.18,-390.5C420.73,-390.5 441.49,-390.5 458.76,-390.5"/>
<polygon fill="#63b8ff" stroke="#63b8ff" points="401.1,-387 391.1,-390.5 401.1,-394 401.1,-387"/>
</a>
</g>
</g>
<!-- Node8 -->
<g id="Node000008" class="node">
<title>Node8</title>
<g id="a_Node000008"><a xlink:href="class_cpl_1_1_io_1_1_is_eos.html" target="_top" xlink:title="This abstract class defines a isEos() operation that is intended to be used Input and Output streams.">
<polygon fill="white" stroke="#666666" points="538.5,-357 459.5,-357 459.5,-338 538.5,-338 538.5,-357"/>
<text text-anchor="middle" x="499" y="-345" font-family="Helvetica,sans-Serif" font-size="10.00">Cpl::Io::IsEos</text>
</a>
</g>
</g>
<!-- Node8&#45;&gt;Node5 -->
<g id="edge7_Node000005_Node000008" class="edge">
<title>Node8&#45;&gt;Node5</title>
<g id="a_edge7_Node000005_Node000008"><a xlink:title=" ">
<path fill="none" stroke="#63b8ff" d="M543.59,-359.88C575.08,-368.83 616.98,-380.74 645.89,-388.95"/>
<polygon fill="#63b8ff" stroke="#63b8ff" points="544.34,-356.46 533.76,-357.09 542.43,-363.19 544.34,-356.46"/>
</a>
</g>
</g>
<!-- Node8&#45;&gt;Node13 -->
<g id="edge14_Node000013_Node000008" class="edge">
<title>Node8&#45;&gt;Node13</title>
<g id="a_edge14_Node000013_Node000008"><a xlink:title=" ">
<path fill="none" stroke="#63b8ff" d="M548.58,-346.29C561.4,-346 575.22,-345.72 588,-345.5 605.47,-345.21 624.82,-344.98 641.21,-344.82"/>
<polygon fill="#63b8ff" stroke="#63b8ff" points="548.47,-342.79 538.55,-346.53 548.63,-349.79 548.47,-342.79"/>
</a>
</g>
</g>
<!-- Node9 -->
<g id="Node000009" class="node">
<title>Node9</title>
<g id="a_Node000009"><a xlink:href="class_cpl_1_1_text_1_1_frame_1_1_line_decoder.html" target="_top" xlink:title=" ">
<polygon fill="white" stroke="#666666" points="1750,-383 1556,-383 1556,-342 1750,-342 1750,-383"/>
<text text-anchor="start" x="1564" y="-371" font-family="Helvetica,sans-Serif" font-size="10.00">Cpl::Text::Frame::LineDecoder</text>
<text text-anchor="start" x="1564" y="-360" font-family="Helvetica,sans-Serif" font-size="10.00">&lt; OPTION_CPL_TSHELL_PROCESSOR</text>
<text text-anchor="middle" x="1653" y="-349" font-family="Helvetica,sans-Serif" font-size="10.00">_INPUT_SIZE &gt;</text>
</a>
</g>
</g>
<!-- Node9&#45;&gt;Node1 -->
<g id="edge8_Node000001_Node000009" class="edge">
<title>Node9&#45;&gt;Node1</title>
<g id="a_edge8_Node000001_Node000009"><a xlink:title=" ">
<path fill="none" stroke="#9a32cd" stroke-dasharray="5,2" d="M1760.22,-343.19C1796.54,-336.58 1835.58,-329.49 1865.73,-324"/>
<polygon fill="#9a32cd" stroke="#9a32cd" points="1759.27,-339.8 1750.06,-345.04 1760.52,-346.69 1759.27,-339.8"/>
</a>
</g>
<text text-anchor="middle" x="1801" y="-343.5" font-family="Helvetica,sans-Serif" font-size="10.00" fill="grey"> m_deframer</text>
</g>
<!-- Node10 -->
<g id="Node000010" class="node">
<title>Node10</title>
<g id="a_Node000010"><a xlink:href="class_cpl_1_1_text_1_1_frame_1_1_stream_decoder.html" target="_top" xlink:title="This partially concrete class defines an interface a Text &quot;Decoder&quot; that has a Cpl::Io::Input stream ...">
<polygon fill="white" stroke="#666666" points="1090,-359.5 953,-359.5 953,-329.5 1090,-329.5 1090,-359.5"/>
<text text-anchor="start" x="961" y="-347.5" font-family="Helvetica,sans-Serif" font-size="10.00">Cpl::Text::Frame::Stream</text>
<text text-anchor="middle" x="1021.5" y="-336.5" font-family="Helvetica,sans-Serif" font-size="10.00">Decoder</text>
</a>
</g>
</g>
<!-- Node10&#45;&gt;Node9 -->
<g id="edge9_Node000009_Node000010" class="edge">
<title>Node10&#45;&gt;Node9</title>
<g id="a_edge9_Node000009_Node000010"><a xlink:title=" ">
<path fill="none" stroke="#63b8ff" d="M1100.68,-344.46C1173.31,-344.64 1284.49,-345.47 1381,-348.5 1439.04,-350.32 1504,-353.63 1555.78,-356.58"/>
<polygon fill="#63b8ff" stroke="#63b8ff" points="1100.25,-340.96 1090.24,-344.44 1100.24,-347.96 1100.25,-340.96"/>
</a>
</g>
</g>
<!-- Node14 -->
<g id="Node000014" class="node">
<title>Node14</title>
<g id="a_Node000014"><a xlink:href="class_cpl_1_1_text_1_1_frame_1_1_line_decoder.html" target="_top" xlink:title="This concrete template class provide a basic implementation of the Frame::Decoder interface that uses...">
<polygon fill="white" stroke="#666666" points="1381,-387.5 1219,-387.5 1219,-357.5 1381,-357.5 1381,-387.5"/>
<text text-anchor="start" x="1227" y="-375.5" font-family="Helvetica,sans-Serif" font-size="10.00">Cpl::Text::Frame::LineDecoder</text>
<text text-anchor="middle" x="1300" y="-364.5" font-family="Helvetica,sans-Serif" font-size="10.00">&lt; BUFSIZE &gt;</text>
</a>
</g>
</g>
<!-- Node10&#45;&gt;Node14 -->
<g id="edge16_Node000014_Node000010" class="edge">
<title>Node10&#45;&gt;Node14</title>
<g id="a_edge16_Node000014_Node000010"><a xlink:title=" ">
<path fill="none" stroke="#63b8ff" d="M1100.37,-352.39C1137.35,-356.13 1181.51,-360.6 1218.79,-364.38"/>
<polygon fill="#63b8ff" stroke="#63b8ff" points="1100.44,-348.87 1090.14,-351.35 1099.74,-355.84 1100.44,-348.87"/>
</a>
</g>
</g>
<!-- Node10&#45;&gt;Node16 -->
<g id="edge23_Node000016_Node000010" class="edge">
<title>Node10&#45;&gt;Node16</title>
<g id="a_edge23_Node000016_Node000010"><a xlink:title=" ">
<path fill="none" stroke="#9a32cd" stroke-dasharray="5,2" d="M1071.18,-325.67C1107.71,-310.9 1158.52,-288.97 1201,-265.5 1233.14,-247.75 1268.25,-222.55 1286.46,-209"/>
<polygon fill="#9a32cd" stroke="#9a32cd" points="1069.73,-322.48 1061.75,-329.46 1072.33,-328.98 1069.73,-322.48"/>
</a>
</g>
<text text-anchor="middle" x="1161.5" y="-306.5" font-family="Helvetica,sans-Serif" font-size="10.00" fill="grey"> m_deframer</text>
</g>
<!-- Node11 -->
<g id="Node000011" class="node">
<title>Node11</title>
<g id="a_Node000011"><a xlink:href="class_cpl_1_1_text_1_1_frame_1_1_decoder__.html" target="_top" xlink:title="This private partially concrete class implements the basic/common logic for a frame decoder.">
<polygon fill="white" stroke="#666666" points="754,-450 607,-450 607,-431 754,-431 754,-450"/>
<text text-anchor="middle" x="680.5" y="-438" font-family="Helvetica,sans-Serif" font-size="10.00">Cpl::Text::Frame::Decoder_</text>
</a>
</g>
</g>
<!-- Node11&#45;&gt;Node10 -->
<g id="edge10_Node000010_Node000011" class="edge">
<title>Node11&#45;&gt;Node10</title>
<g id="a_edge10_Node000010_Node000011"><a xlink:title=" ">
<path fill="none" stroke="#63b8ff" d="M764.26,-433.82C811.23,-428.28 870.54,-418.3 921,-400.5 949.6,-390.41 979.56,-372.38 999.03,-359.5"/>
<polygon fill="#63b8ff" stroke="#63b8ff" points="763.67,-430.37 754.13,-434.97 764.46,-437.32 763.67,-430.37"/>
</a>
</g>
</g>
<!-- Node12 -->
<g id="Node000012" class="node">
<title>Node12</title>
<g id="a_Node000012"><a xlink:href="class_cpl_1_1_text_1_1_frame_1_1_decoder.html" target="_top" xlink:title="This class defines an interface for &#39;receiving&#39; (decode) a frame.">
<polygon fill="white" stroke="#666666" points="570,-450 428,-450 428,-431 570,-431 570,-450"/>
<text text-anchor="middle" x="499" y="-438" font-family="Helvetica,sans-Serif" font-size="10.00">Cpl::Text::Frame::Decoder</text>
</a>
</g>
</g>
<!-- Node12&#45;&gt;Node11 -->
<g id="edge11_Node000011_Node000012" class="edge">
<title>Node12&#45;&gt;Node11</title>
<g id="a_edge11_Node000011_Node000012"><a xlink:title=" ">
<path fill="none" stroke="#63b8ff" d="M580.39,-440.5C589.16,-440.5 598.05,-440.5 606.72,-440.5"/>
<polygon fill="#63b8ff" stroke="#63b8ff" points="580.17,-437 570.17,-440.5 580.17,-444 580.17,-437"/>
</a>
</g>
</g>
<!-- Node13&#45;&gt;Node10 -->
<g id="edge12_Node000010_Node000013" class="edge">
<title>Node13&#45;&gt;Node10</title>
<g id="a_edge12_Node000010_Node000013"><a xlink:title=" ">
<path fill="none" stroke="#9a32cd" stroke-dasharray="5,2" d="M729.8,-344.5C788.24,-344.5 886.97,-344.5 952.93,-344.5"/>
<polygon fill="#9a32cd" stroke="#9a32cd" points="729.73,-341 719.73,-344.5 729.73,-348 729.73,-341"/>
</a>
</g>
<text text-anchor="middle" x="846.5" y="-347.5" font-family="Helvetica,sans-Serif" font-size="10.00" fill="grey"> m_srcPtr</text>
</g>
<!-- Node14&#45;&gt;Node9 -->
<g id="edge15_Node000009_Node000014" class="edge">
<title>Node14&#45;&gt;Node9</title>
<g id="a_edge15_Node000009_Node000014"><a xlink:title=" ">
<path fill="none" stroke="orange" stroke-dasharray="5,2" d="M1391.31,-369.93C1441.68,-368.49 1504.41,-366.7 1555.71,-365.24"/>
<polygon fill="orange" stroke="orange" points="1390.98,-366.43 1381.09,-370.22 1391.18,-373.43 1390.98,-366.43"/>
</a>
</g>
<text text-anchor="start" x="1399" y="-383.5" font-family="Helvetica,sans-Serif" font-size="10.00" fill="grey"> &lt; OPTION_CPL_TSHELL</text>
<text text-anchor="middle" x="1468.5" y="-372.5" font-family="Helvetica,sans-Serif" font-size="10.00" fill="grey">_PROCESSOR_INPUT_SIZE &gt;</text>
</g>
<!-- Node15&#45;&gt;Node1 -->
<g id="edge17_Node000001_Node000015" class="edge">
<title>Node15&#45;&gt;Node1</title>
<g id="a_edge17_Node000001_Node000015"><a xlink:title=" ">
<path fill="none" stroke="#9a32cd" stroke-dasharray="5,2" d="M1739.4,-314.5C1775.79,-314.5 1817.58,-314.5 1851.59,-314.5"/>
<polygon fill="#9a32cd" stroke="#9a32cd" points="1739.3,-311 1729.3,-314.5 1739.3,-318 1739.3,-311"/>
</a>
</g>
<text text-anchor="middle" x="1801" y="-317.5" font-family="Helvetica,sans-Serif" font-size="10.00" fill="grey"> m_processor</text>
</g>
<!-- Node16&#45;&gt;Node15 -->
<g id="edge18_Node000015_Node000016" class="edge">
<title>Node16&#45;&gt;Node15</title>
<g id="a_edge18_Node000015_Node000016"><a xlink:title=" ">
<path fill="none" stroke="#63b8ff" d="M1371.13,-210.88C1419.04,-219.84 1483.49,-234.21 1538,-254.5 1575.1,-268.31 1615.4,-291.7 1636.73,-304.83"/>
<polygon fill="#63b8ff" stroke="#63b8ff" points="1371.63,-207.42 1361.16,-209.05 1370.37,-214.3 1371.63,-207.42"/>
</a>
</g>
</g>
<!-- Node17 -->
<g id="Node000017" class="node">
<title>Node17</title>
<g id="a_Node000017"><a xlink:href="class_cpl_1_1_t_shell_1_1_context__.html" target="_top" xlink:title="This Private Namespace class defines a &quot;Context&quot; for a TShell command.">
<polygon fill="white" stroke="#666666" points="1080.5,-27 962.5,-27 962.5,-8 1080.5,-8 1080.5,-27"/>
<text text-anchor="middle" x="1021.5" y="-15" font-family="Helvetica,sans-Serif" font-size="10.00">Cpl::TShell::Context_</text>
</a>
</g>
</g>
<!-- Node17&#45;&gt;Node16 -->
<g id="edge19_Node000016_Node000017" class="edge">
<title>Node17&#45;&gt;Node16</title>
<g id="a_edge19_Node000016_Node000017"><a xlink:title=" ">
<path fill="none" stroke="#63b8ff" d="M1070.01,-29.97C1108.06,-41.58 1161.43,-61.62 1201,-91.5 1240.81,-121.55 1277.38,-169.31 1292.13,-189.72"/>
<polygon fill="#63b8ff" stroke="#63b8ff" points="1070.77,-26.55 1060.19,-27.06 1068.78,-33.26 1070.77,-26.55"/>
</a>
</g>
</g>
<!-- Node18 -->
<g id="Node000018" class="node">
<title>Node18</title>
<g id="a_Node000018"><a xlink:href="class_cpl_1_1_t_shell_1_1_processor_api.html" target="_top" xlink:title="This class defines the interface a TShell Command Processor.">
<polygon fill="white" stroke="#666666" points="749,-19 612,-19 612,0 749,0 749,-19"/>
<text text-anchor="middle" x="680.5" y="-7" font-family="Helvetica,sans-Serif" font-size="10.00">Cpl::TShell::ProcessorApi</text>
</a>
</g>
</g>
<!-- Node18&#45;&gt;Node17 -->
<g id="edge20_Node000017_Node000018" class="edge">
<title>Node18&#45;&gt;Node17</title>
<g id="a_edge20_Node000017_Node000018"><a xlink:title=" ">
<path fill="none" stroke="#63b8ff" d="M759.39,-11.34C821.27,-12.8 906.42,-14.81 962.43,-16.13"/>
<polygon fill="#63b8ff" stroke="#63b8ff" points="759.37,-7.84 749.29,-11.1 759.2,-14.83 759.37,-7.84"/>
</a>
</g>
</g>
<!-- Node19 -->
<g id="Node000019" class="node">
<title>Node19</title>
<g id="a_Node000019"><a xlink:href="class_cpl_1_1_container_1_1_s_list.html" target="_top" xlink:title=" ">
<polygon fill="white" stroke="#666666" points="1095,-201.5 948,-201.5 948,-171.5 1095,-171.5 1095,-201.5"/>
<text text-anchor="start" x="956" y="-189.5" font-family="Helvetica,sans-Serif" font-size="10.00">Cpl::Container::SList</text>
<text text-anchor="middle" x="1021.5" y="-178.5" font-family="Helvetica,sans-Serif" font-size="10.00">&lt; Cpl::TShell::Command &gt;</text>
</a>
</g>
</g>
<!-- Node19&#45;&gt;Node16 -->
<g id="edge21_Node000016_Node000019" class="edge">
<title>Node19&#45;&gt;Node16</title>
<g id="a_edge21_Node000016_Node000019"><a xlink:title=" ">
<path fill="none" stroke="#9a32cd" stroke-dasharray="5,2" d="M1105.19,-181.75C1135.38,-180.9 1169.78,-180.97 1201,-183.5 1217.15,-184.81 1234.66,-187.31 1250.34,-189.96"/>
<polygon fill="#9a32cd" stroke="#9a32cd" points="1105.01,-178.26 1095.12,-182.07 1105.23,-185.25 1105.01,-178.26"/>
</a>
</g>
<text text-anchor="middle" x="1161.5" y="-186.5" font-family="Helvetica,sans-Serif" font-size="10.00" fill="grey"> m_commands</text>
</g>
<!-- Node20 -->
<g id="Node000020" class="node">
<title>Node20</title>
<g id="a_Node000020"><a xlink:href="class_cpl_1_1_container_1_1_s_list.html" target="_top" xlink:title="This template class implements a singly linked list which maintains the ordering imposed on it by the...">
<polygon fill="white" stroke="#666666" points="738,-220.5 623,-220.5 623,-190.5 738,-190.5 738,-220.5"/>
<text text-anchor="start" x="631" y="-208.5" font-family="Helvetica,sans-Serif" font-size="10.00">Cpl::Container::SList</text>
<text text-anchor="middle" x="680.5" y="-197.5" font-family="Helvetica,sans-Serif" font-size="10.00">&lt; ITEM &gt;</text>
</a>
</g>
</g>
<!-- Node20&#45;&gt;Node19 -->
<g id="edge22_Node000019_Node000020" class="edge">
<title>Node20&#45;&gt;Node19</title>
<g id="a_edge22_Node000019_Node000020"><a xlink:title=" ">
<path fill="none" stroke="orange" stroke-dasharray="5,2" d="M748.32,-201.75C805.86,-198.53 888.73,-193.89 947.89,-190.57"/>
<polygon fill="orange" stroke="orange" points="748.03,-198.27 738.24,-202.32 748.42,-205.25 748.03,-198.27"/>
</a>
</g>
<text text-anchor="middle" x="846.5" y="-203.5" font-family="Helvetica,sans-Serif" font-size="10.00" fill="grey"> &lt; Cpl::TShell::Command &gt;</text>
</g>
<!-- Node21 -->
<g id="Node000021" class="node">
<title>Node21</title>
<g id="a_Node000021"><a xlink:href="class_cpl_1_1_system_1_1_mutex.html" target="_top" xlink:title="This mutex class defines the interface for a mutex that has &quot;recursive&quot; semantics.">
<polygon fill="white" stroke="#666666" points="1077.5,-239 965.5,-239 965.5,-220 1077.5,-220 1077.5,-239"/>
<text text-anchor="middle" x="1021.5" y="-227" font-family="Helvetica,sans-Serif" font-size="10.00">Cpl::System::Mutex</text>
</a>
</g>
</g>
<!-- Node21&#45;&gt;Node16 -->
<g id="edge25_Node000016_Node000021" class="edge">
<title>Node21&#45;&gt;Node16</title>
<g id="a_edge25_Node000016_Node000021"><a xlink:title=" ">
<path fill="none" stroke="#9a32cd" stroke-dasharray="5,2" d="M1087.67,-221.46C1099.11,-220.1 1110.9,-218.73 1122,-217.5 1160.83,-213.18 1204.51,-208.74 1238.76,-205.34"/>
<polygon fill="#9a32cd" stroke="#9a32cd" points="1087.25,-217.99 1077.74,-222.65 1088.09,-224.94 1087.25,-217.99"/>
</a>
</g>
<text text-anchor="middle" x="1161.5" y="-220.5" font-family="Helvetica,sans-Serif" font-size="10.00" fill="grey"> m_outLock</text>
</g>
<!-- Node22 -->
<g id="Node000022" class="node">
<title>Node22</title>
<g id="a_Node000022"><a xlink:href="class_cpl_1_1_text_1_1_f_string.html" target="_top" xlink:title=" ">
<polygon fill="white" stroke="#666666" points="1104,-153 939,-153 939,-112 1104,-112 1104,-153"/>
<text text-anchor="start" x="947" y="-141" font-family="Helvetica,sans-Serif" font-size="10.00">Cpl::Text::FString</text>
<text text-anchor="start" x="947" y="-130" font-family="Helvetica,sans-Serif" font-size="10.00">&lt; OPTION_CPL_TSHELL</text>
<text text-anchor="middle" x="1021.5" y="-119" font-family="Helvetica,sans-Serif" font-size="10.00">_PROCESSOR_OUTPUT_SIZE &gt;</text>
</a>
</g>
</g>
<!-- Node22&#45;&gt;Node16 -->
<g id="edge26_Node000016_Node000022" class="edge">
<title>Node22&#45;&gt;Node16</title>
<g id="a_edge26_Node000016_Node000022"><a xlink:title=" ">
<path fill="none" stroke="#9a32cd" stroke-dasharray="5,2" d="M1114.5,-147.54C1142.46,-152.77 1173.14,-159.19 1201,-166.5 1226.18,-173.1 1254.28,-182.81 1273.91,-189.99"/>
<polygon fill="#9a32cd" stroke="#9a32cd" points="1114.8,-144.04 1104.33,-145.66 1113.53,-150.92 1114.8,-144.04"/>
</a>
</g>
<text text-anchor="middle" x="1161.5" y="-169.5" font-family="Helvetica,sans-Serif" font-size="10.00" fill="grey"> m_outputBuffer</text>
</g>
<!-- Node23 -->
<g id="Node000023" class="node">
<title>Node23</title>
<g id="a_Node000023"><a xlink:href="class_cpl_1_1_text_1_1_f_string__.html" target="_top" xlink:title="This mostly concrete class implements a &quot;fixed storage&quot; String Type.">
<polygon fill="white" stroke="#666666" points="551,-115 447,-115 447,-96 551,-96 551,-115"/>
<text text-anchor="middle" x="499" y="-103" font-family="Helvetica,sans-Serif" font-size="10.00">Cpl::Text::FString_</text>
</a>
</g>
</g>
<!-- Node23&#45;&gt;Node22 -->
<g id="edge27_Node000022_Node000023" class="edge">
<title>Node23&#45;&gt;Node22</title>
<g id="a_edge27_Node000022_Node000023"><a xlink:title=" ">
<path fill="none" stroke="#63b8ff" d="M561.29,-115.99C576.24,-118.5 592.19,-121.13 607,-123.5 745.24,-145.6 781.45,-159.65 921,-148.5 926.84,-148.03 932.86,-147.41 938.91,-146.69"/>
<polygon fill="#63b8ff" stroke="#63b8ff" points="561.58,-112.49 551.13,-114.28 560.41,-119.39 561.58,-112.49"/>
</a>
</g>
</g>
<!-- Node27 -->
<g id="Node000027" class="node">
<title>Node27</title>
<g id="a_Node000027"><a xlink:href="class_cpl_1_1_text_1_1_f_string.html" target="_top" xlink:title="This template class represents a NULL terminated string of a specific length.">
<polygon fill="white" stroke="#666666" points="744,-115 617,-115 617,-96 744,-96 744,-115"/>
<text text-anchor="middle" x="680.5" y="-103" font-family="Helvetica,sans-Serif" font-size="10.00">Cpl::Text::FString&lt; S &gt;</text>
</a>
</g>
</g>
<!-- Node23&#45;&gt;Node27 -->
<g id="edge32_Node000027_Node000023" class="edge">
<title>Node23&#45;&gt;Node27</title>
<g id="a_edge32_Node000027_Node000023"><a xlink:title=" ">
<path fill="none" stroke="#63b8ff" d="M561.47,-105.5C579.37,-105.5 598.93,-105.5 616.9,-105.5"/>
<polygon fill="#63b8ff" stroke="#63b8ff" points="561.44,-102 551.44,-105.5 561.44,-109 561.44,-102"/>
</a>
</g>
</g>
<!-- Node28 -->
<g id="Node000028" class="node">
<title>Node28</title>
<g id="a_Node000028"><a xlink:href="class_cpl_1_1_text_1_1_f_string.html" target="_top" xlink:title=" ">
<polygon fill="white" stroke="#666666" points="1099,-94 944,-94 944,-53 1099,-53 1099,-94"/>
<text text-anchor="start" x="952" y="-82" font-family="Helvetica,sans-Serif" font-size="10.00">Cpl::Text::FString</text>
<text text-anchor="start" x="952" y="-71" font-family="Helvetica,sans-Serif" font-size="10.00">&lt; OPTION_CPL_TSHELL</text>
<text text-anchor="middle" x="1021.5" y="-60" font-family="Helvetica,sans-Serif" font-size="10.00">_PROCESSOR_INPUT_SIZE &gt;</text>
</a>
</g>
</g>
<!-- Node23&#45;&gt;Node28 -->
<g id="edge34_Node000028_Node000023" class="edge">
<title>Node23&#45;&gt;Node28</title>
<g id="a_edge34_Node000028_Node000023"><a xlink:title=" ">
<path fill="none" stroke="#63b8ff" d="M558.44,-94.13C574.17,-91.34 591.19,-88.57 607,-86.5 745.51,-68.36 781.31,-71.8 921,-72.5 928.43,-72.54 936.17,-72.59 943.91,-72.65"/>
<polygon fill="#63b8ff" stroke="#63b8ff" points="557.55,-90.73 548.33,-95.96 558.79,-97.62 557.55,-90.73"/>
</a>
</g>
</g>
<!-- Node24 -->
<g id="Node000024" class="node">
<title>Node24</title>
<g id="a_Node000024"><a xlink:href="class_cpl_1_1_text_1_1_string__.html" target="_top" xlink:title="This partially concrete class implements the portions of the String Api that is independent of the in...">
<polygon fill="white" stroke="#666666" points="383,-115 285,-115 285,-96 383,-96 383,-115"/>
<text text-anchor="middle" x="334" y="-103" font-family="Helvetica,sans-Serif" font-size="10.00">Cpl::Text::String_</text>
</a>
</g>
</g>
<!-- Node24&#45;&gt;Node23 -->
<g id="edge28_Node000023_Node000024" class="edge">
<title>Node24&#45;&gt;Node23</title>
<g id="a_edge28_Node000023_Node000024"><a xlink:title=" ">
<path fill="none" stroke="#63b8ff" d="M393.15,-105.5C410.71,-105.5 429.85,-105.5 446.91,-105.5"/>
<polygon fill="#63b8ff" stroke="#63b8ff" points="393.02,-102 383.02,-105.5 393.02,-109 393.02,-102"/>
</a>
</g>
</g>
<!-- Node25 -->
<g id="Node000025" class="node">
<title>Node25</title>
<g id="a_Node000025"><a xlink:href="class_cpl_1_1_text_1_1_string.html" target="_top" xlink:title="This abstract class defines the operations that can be before on a NULL terminated string.">
<polygon fill="white" stroke="#666666" points="240,-115 147,-115 147,-96 240,-96 240,-115"/>
<text text-anchor="middle" x="193.5" y="-103" font-family="Helvetica,sans-Serif" font-size="10.00">Cpl::Text::String</text>
</a>
</g>
</g>
<!-- Node25&#45;&gt;Node24 -->
<g id="edge29_Node000024_Node000025" class="edge">
<title>Node25&#45;&gt;Node24</title>
<g id="a_edge29_Node000024_Node000025"><a xlink:title=" ">
<path fill="none" stroke="#63b8ff" d="M250.53,-105.5C261.94,-105.5 273.84,-105.5 284.94,-105.5"/>
<polygon fill="#63b8ff" stroke="#63b8ff" points="250.23,-102 240.23,-105.5 250.23,-109 250.23,-102"/>
</a>
</g>
</g>
<!-- Node26 -->
<g id="Node000026" class="node">
<title>Node26</title>
<g id="a_Node000026"><a xlink:href="class_cpl_1_1_container_1_1_key.html" target="_top" xlink:title="This abstract class defines the interface that a contained object must support if it has comparable k...">
<polygon fill="white" stroke="#666666" points="110,-115 0,-115 0,-96 110,-96 110,-115"/>
<text text-anchor="middle" x="55" y="-103" font-family="Helvetica,sans-Serif" font-size="10.00">Cpl::Container::Key</text>
</a>
</g>
</g>
<!-- Node26&#45;&gt;Node25 -->
<g id="edge30_Node000025_Node000026" class="edge">
<title>Node26&#45;&gt;Node25</title>
<g id="a_edge30_Node000025_Node000026"><a xlink:title=" ">
<path fill="none" stroke="#63b8ff" d="M120.61,-105.5C129.42,-105.5 138.31,-105.5 146.7,-105.5"/>
<polygon fill="#63b8ff" stroke="#63b8ff" points="120.34,-102 110.34,-105.5 120.34,-109 120.34,-102"/>
</a>
</g>
</g>
<!-- Node27&#45;&gt;Node22 -->
<g id="edge31_Node000022_Node000027" class="edge">
<title>Node27&#45;&gt;Node22</title>
<g id="a_edge31_Node000022_Node000027"><a xlink:title=" ">
<path fill="none" stroke="orange" stroke-dasharray="5,2" d="M754.3,-111.3C808.5,-115.62 882.53,-121.51 938.77,-125.99"/>
<polygon fill="orange" stroke="orange" points="754.32,-107.79 744.07,-110.48 753.76,-114.77 754.32,-107.79"/>
</a>
</g>
<text text-anchor="start" x="772" y="-139.5" font-family="Helvetica,sans-Serif" font-size="10.00" fill="grey"> &lt; OPTION_CPL_TSHELL</text>
<text text-anchor="middle" x="846.5" y="-128.5" font-family="Helvetica,sans-Serif" font-size="10.00" fill="grey">_PROCESSOR_OUTPUT_SIZE &gt;</text>
</g>
<!-- Node27&#45;&gt;Node28 -->
<g id="edge35_Node000028_Node000027" class="edge">
<title>Node27&#45;&gt;Node28</title>
<g id="a_edge35_Node000028_Node000027"><a xlink:title=" ">
<path fill="none" stroke="orange" stroke-dasharray="5,2" d="M733.13,-93.94C745.78,-91.46 759.33,-89.11 772,-87.5 829.33,-80.22 894.59,-76.73 943.84,-75.05"/>
<polygon fill="orange" stroke="orange" points="732.31,-90.53 723.2,-95.94 733.7,-97.39 732.31,-90.53"/>
</a>
</g>
<text text-anchor="start" x="777" y="-101.5" font-family="Helvetica,sans-Serif" font-size="10.00" fill="grey"> &lt; OPTION_CPL_TSHELL</text>
<text text-anchor="middle" x="846.5" y="-90.5" font-family="Helvetica,sans-Serif" font-size="10.00" fill="grey">_PROCESSOR_INPUT_SIZE &gt;</text>
</g>
<!-- Node28&#45;&gt;Node16 -->
<g id="edge33_Node000016_Node000028" class="edge">
<title>Node28&#45;&gt;Node16</title>
<g id="a_edge33_Node000016_Node000028"><a xlink:title=" ">
<path fill="none" stroke="#9a32cd" stroke-dasharray="5,2" d="M1109.2,-90.62C1139.21,-98.39 1172.46,-109.13 1201,-123.5 1236.96,-141.6 1272.68,-173.81 1289.32,-189.86"/>
<polygon fill="#9a32cd" stroke="#9a32cd" points="1109.71,-87.14 1099.16,-88.1 1108,-93.93 1109.71,-87.14"/>
</a>
</g>
<text text-anchor="middle" x="1161.5" y="-137.5" font-family="Helvetica,sans-Serif" font-size="10.00" fill="grey"> m_tokenBuffer</text>
<text text-anchor="middle" x="1161.5" y="-126.5" font-family="Helvetica,sans-Serif" font-size="10.00" fill="grey">m_tokenBuffer2</text>
</g>
</g>
</svg>
