<?xml version="1.0" encoding="UTF-8" standalone="no"?>
<!DOCTYPE svg PUBLIC "-//W3C//DTD SVG 1.1//EN"
 "http://www.w3.org/Graphics/SVG/1.1/DTD/svg11.dtd">
<!-- Generated by graphviz version 2.43.0 (0)
 -->
<!-- Title: Cpl::Persistent::IndexedEntryRecord Pages: 1 -->
<svg width="2096pt" height="306pt"
 viewBox="0.00 0.00 2096.00 306.00" xmlns="http://www.w3.org/2000/svg" xmlns:xlink="http://www.w3.org/1999/xlink">
<g id="graph0" class="graph" transform="scale(1 1) rotate(0) translate(4 302)">
<title>Cpl::Persistent::IndexedEntryRecord</title>
<!-- Node1 -->
<g id="Node000001" class="node">
<title>Node1</title>
<g id="a_Node000001"><a xlink:title="This concrete class implements the Cpl::Persistent::Record interface to store a collection &#39;entries&#39;.">
<polygon fill="#999999" stroke="#666666" points="2088,-208.5 1957,-208.5 1957,-178.5 2088,-178.5 2088,-208.5"/>
<text text-anchor="start" x="1965" y="-196.5" font-family="Helvetica,sans-Serif" font-size="10.00">Cpl::Persistent::Indexed</text>
<text text-anchor="middle" x="2022.5" y="-185.5" font-family="Helvetica,sans-Serif" font-size="10.00">EntryRecord</text>
</a>
</g>
</g>
<!-- Node2 -->
<g id="Node000002" class="node">
<title>Node2</title>
<g id="a_Node000002"><a xlink:href="class_cpl_1_1_persistent_1_1_data_record.html" target="_top" xlink:title="This mostly concrete class implements the Cpl::Persistent::DataRecord interface where a DataRecord in...">
<polygon fill="white" stroke="#666666" points="1515,-261 1365,-261 1365,-242 1515,-242 1515,-261"/>
<text text-anchor="middle" x="1440" y="-249" font-family="Helvetica,sans-Serif" font-size="10.00">Cpl::Persistent::DataRecord</text>
</a>
</g>
</g>
<!-- Node2&#45;&gt;Node1 -->
<g id="edge1_Node000001_Node000002" class="edge">
<title>Node2&#45;&gt;Node1</title>
<g id="a_edge1_Node000001_Node000002"><a xlink:title=" ">
<path fill="none" stroke="#63b8ff" d="M1524.18,-262.05C1625.04,-271.8 1798.92,-278.75 1939,-233.5 1958.54,-227.19 1979.34,-217.08 1995.16,-208.61"/>
<polygon fill="#63b8ff" stroke="#63b8ff" points="1524.35,-258.55 1514.05,-261.04 1523.66,-265.52 1524.35,-258.55"/>
</a>
</g>
</g>
<!-- Node19 -->
<g id="Node000019" class="node">
<title>Node19</title>
<g id="a_Node000019"><a xlink:href="class_cpl_1_1_persistent_1_1_index_record.html" target="_top" xlink:title="This concrete class extends the Cpl::Persistent::DataRecord interface to store a latest/oldest &#39;recor...">
<polygon fill="white" stroke="#666666" points="1840.5,-241 1686.5,-241 1686.5,-222 1840.5,-222 1840.5,-241"/>
<text text-anchor="middle" x="1763.5" y="-229" font-family="Helvetica,sans-Serif" font-size="10.00">Cpl::Persistent::IndexRecord</text>
</a>
</g>
</g>
<!-- Node2&#45;&gt;Node19 -->
<g id="edge20_Node000019_Node000002" class="edge">
<title>Node2&#45;&gt;Node19</title>
<g id="a_edge20_Node000019_Node000002"><a xlink:title=" ">
<path fill="none" stroke="#63b8ff" d="M1525.3,-246.26C1575.25,-243.15 1638.05,-239.24 1686.48,-236.23"/>
<polygon fill="#63b8ff" stroke="#63b8ff" points="1524.93,-242.77 1515.16,-246.89 1525.36,-249.76 1524.93,-242.77"/>
</a>
</g>
</g>
<!-- Node3 -->
<g id="Node000003" class="node">
<title>Node3</title>
<g id="a_Node000003"><a xlink:href="class_cpl_1_1_persistent_1_1_record.html" target="_top" xlink:title="This abstract class defines the public interface for a Record instance.">
<polygon fill="white" stroke="#666666" points="1221.5,-298 1094.5,-298 1094.5,-279 1221.5,-279 1221.5,-298"/>
<text text-anchor="middle" x="1158" y="-286" font-family="Helvetica,sans-Serif" font-size="10.00">Cpl::Persistent::Record</text>
</a>
</g>
</g>
<!-- Node3&#45;&gt;Node2 -->
<g id="edge2_Node000002_Node000003" class="edge">
<title>Node3&#45;&gt;Node2</title>
<g id="a_edge2_Node000002_Node000003"><a xlink:title=" ">
<path fill="none" stroke="#63b8ff" d="M1231.86,-280.75C1266.75,-276.84 1309.09,-271.81 1347,-266.5 1358.7,-264.86 1371.21,-262.94 1383.11,-261.03"/>
<polygon fill="#63b8ff" stroke="#63b8ff" points="1231.31,-277.29 1221.76,-281.87 1232.08,-284.25 1231.31,-277.29"/>
</a>
</g>
</g>
<!-- Node4 -->
<g id="Node000004" class="node">
<title>Node4</title>
<g id="a_Node000004"><a xlink:href="class_cpl_1_1_persistent_1_1_payload.html" target="_top" xlink:title="This abstract class defines the interface accessing the &#39;data payload&#39; of an individual Record instan...">
<polygon fill="white" stroke="#666666" points="1223.5,-216 1092.5,-216 1092.5,-197 1223.5,-197 1223.5,-216"/>
<text text-anchor="middle" x="1158" y="-204" font-family="Helvetica,sans-Serif" font-size="10.00">Cpl::Persistent::Payload</text>
</a>
</g>
</g>
<!-- Node4&#45;&gt;Node1 -->
<g id="edge22_Node000001_Node000004" class="edge">
<title>Node4&#45;&gt;Node1</title>
<g id="a_edge22_Node000001_Node000004"><a xlink:title=" ">
<path fill="none" stroke="#9a32cd" stroke-dasharray="5,2" d="M1233.99,-205.37C1400.79,-202.86 1800.09,-196.84 1956.8,-194.48"/>
<polygon fill="#9a32cd" stroke="#9a32cd" points="1233.77,-201.87 1223.83,-205.52 1233.88,-208.87 1233.77,-201.87"/>
</a>
</g>
<text text-anchor="middle" x="1600" y="-203.5" font-family="Helvetica,sans-Serif" font-size="10.00" fill="grey"> m_entryPayloadHandlerPtr</text>
</g>
<!-- Node4&#45;&gt;Node2 -->
<g id="edge3_Node000002_Node000004" class="edge">
<title>Node4&#45;&gt;Node2</title>
<g id="a_edge3_Node000002_Node000004"><a xlink:title=" ">
<path fill="none" stroke="#63b8ff" d="M1228.38,-217.65C1274.88,-225.12 1335.46,-234.86 1379.7,-241.97"/>
<polygon fill="#63b8ff" stroke="#63b8ff" points="1228.81,-214.17 1218.38,-216.04 1227.7,-221.09 1228.81,-214.17"/>
</a>
</g>
</g>
<!-- Node5 -->
<g id="Node000005" class="node">
<title>Node5</title>
<g id="a_Node000005"><a xlink:href="class_cpl_1_1_persistent_1_1_chunk.html" target="_top" xlink:title="This abstract class defines the interface for a Chunk.">
<polygon fill="white" stroke="#666666" points="1220,-261 1096,-261 1096,-242 1220,-242 1220,-261"/>
<text text-anchor="middle" x="1158" y="-249" font-family="Helvetica,sans-Serif" font-size="10.00">Cpl::Persistent::Chunk</text>
</a>
</g>
</g>
<!-- Node5&#45;&gt;Node2 -->
<g id="edge4_Node000002_Node000005" class="edge">
<title>Node5&#45;&gt;Node2</title>
<g id="a_edge4_Node000002_Node000005"><a xlink:title=" ">
<path fill="none" stroke="#9a32cd" stroke-dasharray="5,2" d="M1230.33,-251.5C1271.5,-251.5 1323.2,-251.5 1364.84,-251.5"/>
<polygon fill="#9a32cd" stroke="#9a32cd" points="1230.1,-248 1220.1,-251.5 1230.1,-255 1230.1,-248"/>
</a>
</g>
<text text-anchor="middle" x="1295" y="-254.5" font-family="Helvetica,sans-Serif" font-size="10.00" fill="grey"> m_chunkHandler</text>
</g>
<!-- Node6 -->
<g id="Node000006" class="node">
<title>Node6</title>
<g id="a_Node000006"><a xlink:href="class_cpl_1_1_dm_1_1_mp_1_1_uint64.html" target="_top" xlink:title="This class provides a concrete implementation for a Point who&#39;s data is a uint64_t.">
<polygon fill="white" stroke="#666666" points="1821,-165 1706,-165 1706,-146 1821,-146 1821,-165"/>
<text text-anchor="middle" x="1763.5" y="-153" font-family="Helvetica,sans-Serif" font-size="10.00">Cpl::Dm::Mp::Uint64</text>
</a>
</g>
</g>
<!-- Node6&#45;&gt;Node1 -->
<g id="edge5_Node000001_Node000006" class="edge">
<title>Node6&#45;&gt;Node1</title>
<g id="a_edge5_Node000001_Node000006"><a xlink:title=" ">
<path fill="none" stroke="#9a32cd" stroke-dasharray="5,2" d="M1831.44,-157.04C1864.1,-158.67 1903.83,-161.94 1939,-168.5 1951.95,-170.91 1965.74,-174.62 1978.27,-178.45"/>
<polygon fill="#9a32cd" stroke="#9a32cd" points="1831.24,-153.53 1821.09,-156.57 1830.92,-160.52 1831.24,-153.53"/>
</a>
</g>
<text text-anchor="middle" x="1899.5" y="-171.5" font-family="Helvetica,sans-Serif" font-size="10.00" fill="grey"> m_mpIndex</text>
</g>
<!-- Node7 -->
<g id="Node000007" class="node">
<title>Node7</title>
<g id="a_Node000007"><a xlink:href="class_cpl_1_1_dm_1_1_mp_1_1_numeric.html" target="_top" xlink:title=" ">
<polygon fill="white" stroke="#666666" points="1502,-165.5 1378,-165.5 1378,-135.5 1502,-135.5 1502,-165.5"/>
<text text-anchor="start" x="1386" y="-153.5" font-family="Helvetica,sans-Serif" font-size="10.00">Cpl::Dm::Mp::Numeric</text>
<text text-anchor="middle" x="1440" y="-142.5" font-family="Helvetica,sans-Serif" font-size="10.00">&lt; uint64_t, Uint64 &gt;</text>
</a>
</g>
</g>
<!-- Node7&#45;&gt;Node6 -->
<g id="edge6_Node000006_Node000007" class="edge">
<title>Node7&#45;&gt;Node6</title>
<g id="a_edge6_Node000006_Node000007"><a xlink:title=" ">
<path fill="none" stroke="#63b8ff" d="M1512.47,-151.61C1570.74,-152.52 1651.95,-153.78 1705.81,-154.62"/>
<polygon fill="#63b8ff" stroke="#63b8ff" points="1512.28,-148.11 1502.23,-151.45 1512.17,-155.11 1512.28,-148.11"/>
</a>
</g>
</g>
<!-- Node8 -->
<g id="Node000008" class="node">
<title>Node8</title>
<g id="a_Node000008"><a xlink:href="class_cpl_1_1_dm_1_1_model_point_common__.html" target="_top" xlink:title="This concrete class provide common infrastructure for a Model Point.">
<polygon fill="white" stroke="#666666" points="1054,-147 888,-147 888,-128 1054,-128 1054,-147"/>
<text text-anchor="middle" x="971" y="-135" font-family="Helvetica,sans-Serif" font-size="10.00">Cpl::Dm::ModelPointCommon_</text>
</a>
</g>
</g>
<!-- Node8&#45;&gt;Node7 -->
<g id="edge7_Node000007_Node000008" class="edge">
<title>Node8&#45;&gt;Node7</title>
<g id="a_edge7_Node000007_Node000008"><a xlink:title=" ">
<path fill="none" stroke="#63b8ff" d="M1064.27,-140.27C1066.87,-140.35 1069.46,-140.42 1072,-140.5 1148,-142.75 1167,-143.42 1243,-145.5 1288.08,-146.73 1339.01,-148.03 1377.64,-148.99"/>
<polygon fill="#63b8ff" stroke="#63b8ff" points="1064.23,-136.77 1054.13,-139.97 1064.02,-143.76 1064.23,-136.77"/>
</a>
</g>
</g>
<!-- Node18 -->
<g id="Node000018" class="node">
<title>Node18</title>
<g id="a_Node000018"><a xlink:href="class_cpl_1_1_dm_1_1_mp_1_1_numeric.html" target="_top" xlink:title="This template class provides a mostly concrete implementation for a Model Point who&#39;s data is a C num...">
<polygon fill="white" stroke="#666666" points="1225,-131.5 1091,-131.5 1091,-101.5 1225,-101.5 1225,-131.5"/>
<text text-anchor="start" x="1099" y="-119.5" font-family="Helvetica,sans-Serif" font-size="10.00">Cpl::Dm::Mp::Numeric</text>
<text text-anchor="middle" x="1158" y="-108.5" font-family="Helvetica,sans-Serif" font-size="10.00">&lt; ELEMTYPE, MPTYPE &gt;</text>
</a>
</g>
</g>
<!-- Node8&#45;&gt;Node18 -->
<g id="edge18_Node000018_Node000008" class="edge">
<title>Node8&#45;&gt;Node18</title>
<g id="a_edge18_Node000018_Node000008"><a xlink:title=" ">
<path fill="none" stroke="#63b8ff" d="M1064.31,-127.02C1073.27,-126.01 1082.22,-124.99 1090.84,-124.01"/>
<polygon fill="#63b8ff" stroke="#63b8ff" points="1063.76,-123.56 1054.22,-128.17 1064.55,-130.52 1063.76,-123.56"/>
</a>
</g>
</g>
<!-- Node9 -->
<g id="Node000009" class="node">
<title>Node9</title>
<g id="a_Node000009"><a xlink:href="class_cpl_1_1_dm_1_1_model_point.html" target="_top" xlink:title="This mostly abstract class defines the interface for a Model Point.">
<polygon fill="white" stroke="#666666" points="738.5,-190 622.5,-190 622.5,-171 738.5,-171 738.5,-190"/>
<text text-anchor="middle" x="680.5" y="-178" font-family="Helvetica,sans-Serif" font-size="10.00">Cpl::Dm::ModelPoint</text>
</a>
</g>
</g>
<!-- Node9&#45;&gt;Node8 -->
<g id="edge8_Node000008_Node000009" class="edge">
<title>Node9&#45;&gt;Node8</title>
<g id="a_edge8_Node000008_Node000009"><a xlink:title=" ">
<path fill="none" stroke="#63b8ff" d="M748.73,-170.54C784.71,-165.2 829.77,-158.51 870,-152.5 881.81,-150.74 894.4,-148.85 906.52,-147.04"/>
<polygon fill="#63b8ff" stroke="#63b8ff" points="748.21,-167.08 738.84,-172 749.24,-174 748.21,-167.08"/>
</a>
</g>
</g>
<!-- Node10 -->
<g id="Node000010" class="node">
<title>Node10</title>
<g id="a_Node000010"><a xlink:href="class_cpl_1_1_container_1_1_item.html" target="_top" xlink:title="This class is used by the Container classes to implement a various types of singly linked containers.">
<polygon fill="white" stroke="#666666" points="411,-190 297,-190 297,-171 411,-171 411,-190"/>
<text text-anchor="middle" x="354" y="-178" font-family="Helvetica,sans-Serif" font-size="10.00">Cpl::Container::Item</text>
</a>
</g>
</g>
<!-- Node10&#45;&gt;Node9 -->
<g id="edge9_Node000009_Node000010" class="edge">
<title>Node10&#45;&gt;Node9</title>
<g id="a_edge9_Node000009_Node000010"><a xlink:title=" ">
<path fill="none" stroke="#63b8ff" d="M421.51,-180.5C480.67,-180.5 566.28,-180.5 622.4,-180.5"/>
<polygon fill="#63b8ff" stroke="#63b8ff" points="421.15,-177 411.15,-180.5 421.15,-184 421.15,-177"/>
</a>
</g>
</g>
<!-- Node11 -->
<g id="Node000011" class="node">
<title>Node11</title>
<g id="a_Node000011"><a xlink:href="class_cpl_1_1_container_1_1_d_list.html" target="_top" xlink:title=" ">
<polygon fill="white" stroke="#666666" points="756,-152.5 605,-152.5 605,-122.5 756,-122.5 756,-152.5"/>
<text text-anchor="start" x="613" y="-140.5" font-family="Helvetica,sans-Serif" font-size="10.00">Cpl::Container::DList</text>
<text text-anchor="middle" x="680.5" y="-129.5" font-family="Helvetica,sans-Serif" font-size="10.00">&lt; Cpl::Dm::SubscriberApi &gt;</text>
</a>
</g>
</g>
<!-- Node11&#45;&gt;Node8 -->
<g id="edge10_Node000008_Node000011" class="edge">
<title>Node11&#45;&gt;Node8</title>
<g id="a_edge10_Node000008_Node000011"><a xlink:title=" ">
<path fill="none" stroke="#9a32cd" stroke-dasharray="5,2" d="M766.28,-137.5C804.61,-137.5 849.75,-137.5 887.77,-137.5"/>
<polygon fill="#9a32cd" stroke="#9a32cd" points="766.17,-134 756.17,-137.5 766.17,-141 766.17,-134"/>
</a>
</g>
<text text-anchor="middle" x="822" y="-140.5" font-family="Helvetica,sans-Serif" font-size="10.00" fill="grey"> m_subscribers</text>
</g>
<!-- Node12 -->
<g id="Node000012" class="node">
<title>Node12</title>
<g id="a_Node000012"><a xlink:href="class_cpl_1_1_container_1_1_d_list.html" target="_top" xlink:title="This template class implements a Doubly linked list which maintains the ordering imposed on it by the...">
<polygon fill="white" stroke="#666666" points="412,-152.5 296,-152.5 296,-122.5 412,-122.5 412,-152.5"/>
<text text-anchor="start" x="304" y="-140.5" font-family="Helvetica,sans-Serif" font-size="10.00">Cpl::Container::DList</text>
<text text-anchor="middle" x="354" y="-129.5" font-family="Helvetica,sans-Serif" font-size="10.00">&lt; ITEM &gt;</text>
</a>
</g>
</g>
<!-- Node12&#45;&gt;Node11 -->
<g id="edge11_Node000011_Node000012" class="edge">
<title>Node12&#45;&gt;Node11</title>
<g id="a_edge11_Node000011_Node000012"><a xlink:title=" ">
<path fill="none" stroke="orange" stroke-dasharray="5,2" d="M422.28,-137.5C475.5,-137.5 549.75,-137.5 604.81,-137.5"/>
<polygon fill="orange" stroke="orange" points="422.27,-134 412.27,-137.5 422.27,-141 422.27,-134"/>
</a>
</g>
<text text-anchor="middle" x="518" y="-140.5" font-family="Helvetica,sans-Serif" font-size="10.00" fill="grey"> &lt; Cpl::Dm::SubscriberApi &gt;</text>
</g>
<!-- Node13 -->
<g id="Node000013" class="node">
<title>Node13</title>
<g id="a_Node000013"><a xlink:href="class_cpl_1_1_dm_1_1_model_database.html" target="_top" xlink:title="This concrete class implements a simple Model Database.">
<polygon fill="white" stroke="#666666" points="749.5,-77 611.5,-77 611.5,-58 749.5,-58 749.5,-77"/>
<text text-anchor="middle" x="680.5" y="-65" font-family="Helvetica,sans-Serif" font-size="10.00">Cpl::Dm::ModelDatabase</text>
</a>
</g>
</g>
<!-- Node13&#45;&gt;Node8 -->
<g id="edge12_Node000008_Node000013" class="edge">
<title>Node13&#45;&gt;Node8</title>
<g id="a_edge12_Node000008_Node000013"><a xlink:title=" ">
<path fill="none" stroke="#9a32cd" stroke-dasharray="5,2" d="M730.47,-79.38C786.84,-93.06 878.34,-115.26 930.41,-127.9"/>
<polygon fill="#9a32cd" stroke="#9a32cd" points="731.25,-75.97 720.71,-77.01 729.6,-82.77 731.25,-75.97"/>
</a>
</g>
<text text-anchor="middle" x="822" y="-116.5" font-family="Helvetica,sans-Serif" font-size="10.00" fill="grey"> m_modelDatabase</text>
</g>
<!-- Node14 -->
<g id="Node000014" class="node">
<title>Node14</title>
<g id="a_Node000014"><a xlink:href="class_cpl_1_1_dm_1_1_model_database_api.html" target="_top" xlink:title="This class defines the basic operations that can be performed on a Model Base.">
<polygon fill="white" stroke="#666666" points="431,-19 277,-19 277,0 431,0 431,-19"/>
<text text-anchor="middle" x="354" y="-7" font-family="Helvetica,sans-Serif" font-size="10.00">Cpl::Dm::ModelDatabaseApi</text>
</a>
</g>
</g>
<!-- Node14&#45;&gt;Node13 -->
<g id="edge13_Node000013_Node000014" class="edge">
<title>Node14&#45;&gt;Node13</title>
<g id="a_edge13_Node000013_Node000014"><a xlink:title=" ">
<path fill="none" stroke="#63b8ff" d="M441.26,-18.55C485.15,-23.87 539.18,-31.53 587,-41.5 608.07,-45.89 631.39,-52.46 649.35,-57.89"/>
<polygon fill="#63b8ff" stroke="#63b8ff" points="441.55,-15.06 431.2,-17.35 440.72,-22.01 441.55,-15.06"/>
</a>
</g>
</g>
<!-- Node15 -->
<g id="Node000015" class="node">
<title>Node15</title>
<g id="a_Node000015"><a xlink:href="class_cpl_1_1_container_1_1_s_list.html" target="_top" xlink:title=" ">
<polygon fill="white" stroke="#666666" points="423.5,-104.5 284.5,-104.5 284.5,-74.5 423.5,-74.5 423.5,-104.5"/>
<text text-anchor="start" x="292.5" y="-92.5" font-family="Helvetica,sans-Serif" font-size="10.00">Cpl::Container::SList</text>
<text text-anchor="middle" x="354" y="-81.5" font-family="Helvetica,sans-Serif" font-size="10.00">&lt; Cpl::Dm::ModelPoint &gt;</text>
</a>
</g>
</g>
<!-- Node15&#45;&gt;Node13 -->
<g id="edge14_Node000013_Node000015" class="edge">
<title>Node15&#45;&gt;Node13</title>
<g id="a_edge14_Node000013_Node000015"><a xlink:title=" ">
<path fill="none" stroke="#9a32cd" stroke-dasharray="5,2" d="M434.09,-84.14C488.34,-80.46 559.59,-75.63 611.34,-72.12"/>
<polygon fill="#9a32cd" stroke="#9a32cd" points="433.56,-80.67 423.82,-84.83 434.03,-87.65 433.56,-80.67"/>
</a>
</g>
<text text-anchor="middle" x="518" y="-86.5" font-family="Helvetica,sans-Serif" font-size="10.00" fill="grey"> m_list</text>
</g>
<!-- Node16 -->
<g id="Node000016" class="node">
<title>Node16</title>
<g id="a_Node000016"><a xlink:href="class_cpl_1_1_container_1_1_s_list.html" target="_top" xlink:title="This template class implements a singly linked list which maintains the ordering imposed on it by the...">
<polygon fill="white" stroke="#666666" points="115,-104.5 0,-104.5 0,-74.5 115,-74.5 115,-104.5"/>
<text text-anchor="start" x="8" y="-92.5" font-family="Helvetica,sans-Serif" font-size="10.00">Cpl::Container::SList</text>
<text text-anchor="middle" x="57.5" y="-81.5" font-family="Helvetica,sans-Serif" font-size="10.00">&lt; ITEM &gt;</text>
</a>
</g>
</g>
<!-- Node16&#45;&gt;Node15 -->
<g id="edge15_Node000015_Node000016" class="edge">
<title>Node16&#45;&gt;Node15</title>
<g id="a_edge15_Node000015_Node000016"><a xlink:title=" ">
<path fill="none" stroke="orange" stroke-dasharray="5,2" d="M125.47,-89.5C173.01,-89.5 236.61,-89.5 284.49,-89.5"/>
<polygon fill="orange" stroke="orange" points="125.28,-86 115.28,-89.5 125.28,-93 125.28,-86"/>
</a>
</g>
<text text-anchor="middle" x="196" y="-92.5" font-family="Helvetica,sans-Serif" font-size="10.00" fill="grey"> &lt; Cpl::Dm::ModelPoint &gt;</text>
</g>
<!-- Node17 -->
<g id="Node000017" class="node">
<title>Node17</title>
<g id="a_Node000017"><a xlink:href="class_cpl_1_1_system_1_1_mutex.html" target="_top" xlink:title="This mutex class defines the interface for a mutex that has &quot;recursive&quot; semantics.">
<polygon fill="white" stroke="#666666" points="410,-56 298,-56 298,-37 410,-37 410,-56"/>
<text text-anchor="middle" x="354" y="-44" font-family="Helvetica,sans-Serif" font-size="10.00">Cpl::System::Mutex</text>
</a>
</g>
</g>
<!-- Node17&#45;&gt;Node13 -->
<g id="edge16_Node000013_Node000017" class="edge">
<title>Node17&#45;&gt;Node13</title>
<g id="a_edge16_Node000013_Node000017"><a xlink:title=" ">
<path fill="none" stroke="#9a32cd" stroke-dasharray="5,2" d="M420.7,-45.3C467.24,-45.09 531.08,-46.09 587,-51.5 601.92,-52.94 618.07,-55.42 632.63,-57.99"/>
<polygon fill="#9a32cd" stroke="#9a32cd" points="420.43,-41.8 410.45,-45.37 420.47,-48.8 420.43,-41.8"/>
</a>
</g>
<text text-anchor="middle" x="518" y="-54.5" font-family="Helvetica,sans-Serif" font-size="10.00" fill="grey"> m_lock</text>
</g>
<!-- Node18&#45;&gt;Node7 -->
<g id="edge17_Node000007_Node000018" class="edge">
<title>Node18&#45;&gt;Node7</title>
<g id="a_edge17_Node000007_Node000018"><a xlink:title=" ">
<path fill="none" stroke="orange" stroke-dasharray="5,2" d="M1235.64,-122.5C1269.8,-125.52 1310.48,-129.58 1347,-134.5 1356.96,-135.84 1367.49,-137.47 1377.74,-139.17"/>
<polygon fill="orange" stroke="orange" points="1235.53,-118.97 1225.27,-121.6 1234.93,-125.95 1235.53,-118.97"/>
</a>
</g>
<text text-anchor="middle" x="1295" y="-137.5" font-family="Helvetica,sans-Serif" font-size="10.00" fill="grey"> &lt; uint64_t, Uint64 &gt;</text>
</g>
<!-- Node19&#45;&gt;Node1 -->
<g id="edge19_Node000001_Node000019" class="edge">
<title>Node19&#45;&gt;Node1</title>
<g id="a_edge19_Node000001_Node000019"><a xlink:title=" ">
<path fill="none" stroke="#9a32cd" stroke-dasharray="5,2" d="M1847.66,-220.6C1876.6,-216.67 1909.26,-212.07 1939,-207.5 1944.74,-206.62 1950.71,-205.67 1956.68,-204.7"/>
<polygon fill="#9a32cd" stroke="#9a32cd" points="1847.03,-217.16 1837.59,-221.97 1847.97,-224.09 1847.03,-217.16"/>
</a>
</g>
<text text-anchor="middle" x="1899.5" y="-221.5" font-family="Helvetica,sans-Serif" font-size="10.00" fill="grey"> m_indexRecord</text>
</g>
<!-- Node20 -->
<g id="Node000020" class="node">
<title>Node20</title>
<g id="a_Node000020"><a xlink:href="class_cpl_1_1_persistent_1_1_region_media.html" target="_top" xlink:title="This mostly abstract class defines the operations that can be performed on a persistent media.">
<polygon fill="white" stroke="#666666" points="1842,-128 1685,-128 1685,-109 1842,-109 1842,-128"/>
<text text-anchor="middle" x="1763.5" y="-116" font-family="Helvetica,sans-Serif" font-size="10.00">Cpl::Persistent::RegionMedia</text>
</a>
</g>
</g>
<!-- Node20&#45;&gt;Node1 -->
<g id="edge21_Node000001_Node000020" class="edge">
<title>Node20&#45;&gt;Node1</title>
<g id="a_edge21_Node000001_Node000020"><a xlink:title=" ">
<path fill="none" stroke="#9a32cd" stroke-dasharray="5,2" d="M1852.35,-124.86C1880.59,-128.67 1911.63,-134.76 1939,-144.5 1961.76,-152.6 1985.2,-167.24 2001.25,-178.42"/>
<polygon fill="#9a32cd" stroke="#9a32cd" points="1852.44,-121.34 1842.08,-123.55 1851.56,-128.29 1852.44,-121.34"/>
</a>
</g>
<text text-anchor="middle" x="1899.5" y="-147.5" font-family="Helvetica,sans-Serif" font-size="10.00" fill="grey"> m_entryRegion</text>
</g>
</g>
</svg>
