<?xml version="1.0" encoding="UTF-8" standalone="no"?>
<!DOCTYPE svg PUBLIC "-//W3C//DTD SVG 1.1//EN"
 "http://www.w3.org/Graphics/SVG/1.1/DTD/svg11.dtd">
<!-- Generated by graphviz version 2.43.0 (0)
 -->
<!-- Title: Driver::TPipe::Maker Pages: 1 -->
<svg width="1260pt" height="309pt"
 viewBox="0.00 0.00 1260.00 309.00" xmlns="http://www.w3.org/2000/svg" xmlns:xlink="http://www.w3.org/1999/xlink">
<g id="graph0" class="graph" transform="scale(1 1) rotate(0) translate(4 305)">
<title>Driver::TPipe::Maker</title>
<!-- Node1 -->
<g id="Node000001" class="node">
<title>Node1</title>
<g id="a_Node000001"><a xlink:title="This concrete class is a &quot;Maker&quot; that assembles the objects needed for TPipe.">
<polygon fill="#999999" stroke="#666666" points="1252,-220 1136,-220 1136,-201 1252,-201 1252,-220"/>
<text text-anchor="middle" x="1194" y="-208" font-family="Helvetica,sans-Serif" font-size="10.00">Driver::TPipe::Maker</text>
</a>
</g>
</g>
<!-- Node2 -->
<g id="Node000002" class="node">
<title>Node2</title>
<g id="a_Node000002"><a xlink:href="class_cpl_1_1_text_1_1_frame_1_1_stream_decoder.html" target="_top" xlink:title="This partially concrete class defines an interface a Text &quot;Decoder&quot; that has a Cpl::Io::Input stream ...">
<polygon fill="white" stroke="#666666" points="798,-280.5 661,-280.5 661,-250.5 798,-250.5 798,-280.5"/>
<text text-anchor="start" x="669" y="-268.5" font-family="Helvetica,sans-Serif" font-size="10.00">Cpl::Text::Frame::Stream</text>
<text text-anchor="middle" x="729.5" y="-257.5" font-family="Helvetica,sans-Serif" font-size="10.00">Decoder</text>
</a>
</g>
</g>
<!-- Node2&#45;&gt;Node1 -->
<g id="edge1_Node000001_Node000002" class="edge">
<title>Node2&#45;&gt;Node1</title>
<g id="a_edge1_Node000001_Node000002"><a xlink:title=" ">
<path fill="none" stroke="#63b8ff" d="M808.49,-258.52C886.87,-251.16 1011.07,-238.55 1118,-223.5 1125.33,-222.47 1133.04,-221.27 1140.61,-220.02"/>
<polygon fill="#63b8ff" stroke="#63b8ff" points="807.84,-255.06 798.21,-259.48 808.49,-262.03 807.84,-255.06"/>
</a>
</g>
</g>
<!-- Node13 -->
<g id="Node000013" class="node">
<title>Node13</title>
<g id="a_Node000013"><a xlink:href="class_driver_1_1_t_pipe_1_1_pipe.html" target="_top" xlink:title="This concrete class provides the implementation of TPipe.">
<polygon fill="white" stroke="#666666" points="1034,-161 927,-161 927,-142 1034,-142 1034,-161"/>
<text text-anchor="middle" x="980.5" y="-149" font-family="Helvetica,sans-Serif" font-size="10.00">Driver::TPipe::Pipe</text>
</a>
</g>
</g>
<!-- Node2&#45;&gt;Node13 -->
<g id="edge18_Node000013_Node000002" class="edge">
<title>Node2&#45;&gt;Node13</title>
<g id="a_edge18_Node000013_Node000002"><a xlink:title=" ">
<path fill="none" stroke="#9a32cd" stroke-dasharray="5,2" d="M786.49,-247.1C822.29,-234.54 869.3,-216.59 909,-196.5 929.86,-185.94 952.37,-170.87 966.2,-161.13"/>
<polygon fill="#9a32cd" stroke="#9a32cd" points="785,-243.91 776.7,-250.49 787.29,-250.52 785,-243.91"/>
</a>
</g>
<text text-anchor="middle" x="873" y="-229.5" font-family="Helvetica,sans-Serif" font-size="10.00" fill="grey"> m_deframer</text>
</g>
<!-- Node3 -->
<g id="Node000003" class="node">
<title>Node3</title>
<g id="a_Node000003"><a xlink:href="class_cpl_1_1_text_1_1_frame_1_1_decoder__.html" target="_top" xlink:title="This private partially concrete class implements the basic/common logic for a frame decoder.">
<polygon fill="white" stroke="#666666" points="477,-301 330,-301 330,-282 477,-282 477,-301"/>
<text text-anchor="middle" x="403.5" y="-289" font-family="Helvetica,sans-Serif" font-size="10.00">Cpl::Text::Frame::Decoder_</text>
</a>
</g>
</g>
<!-- Node3&#45;&gt;Node2 -->
<g id="edge2_Node000002_Node000003" class="edge">
<title>Node3&#45;&gt;Node2</title>
<g id="a_edge2_Node000002_Node000003"><a xlink:title=" ">
<path fill="none" stroke="#63b8ff" d="M487.13,-285.16C527.76,-282.02 577.45,-278.12 622,-274.5 634.58,-273.48 647.99,-272.36 660.9,-271.28"/>
<polygon fill="#63b8ff" stroke="#63b8ff" points="486.71,-281.69 477.01,-285.95 487.25,-288.67 486.71,-281.69"/>
</a>
</g>
</g>
<!-- Node4 -->
<g id="Node000004" class="node">
<title>Node4</title>
<g id="a_Node000004"><a xlink:href="class_cpl_1_1_text_1_1_frame_1_1_decoder.html" target="_top" xlink:title="This class defines an interface for &#39;receiving&#39; (decode) a frame.">
<polygon fill="white" stroke="#666666" points="293,-301 151,-301 151,-282 293,-282 293,-301"/>
<text text-anchor="middle" x="222" y="-289" font-family="Helvetica,sans-Serif" font-size="10.00">Cpl::Text::Frame::Decoder</text>
</a>
</g>
</g>
<!-- Node4&#45;&gt;Node3 -->
<g id="edge3_Node000003_Node000004" class="edge">
<title>Node4&#45;&gt;Node3</title>
<g id="a_edge3_Node000003_Node000004"><a xlink:title=" ">
<path fill="none" stroke="#63b8ff" d="M303.39,-291.5C312.16,-291.5 321.05,-291.5 329.72,-291.5"/>
<polygon fill="#63b8ff" stroke="#63b8ff" points="303.17,-288 293.17,-291.5 303.17,-295 303.17,-288"/>
</a>
</g>
</g>
<!-- Node5 -->
<g id="Node000005" class="node">
<title>Node5</title>
<g id="a_Node000005"><a xlink:href="class_cpl_1_1_io_1_1_input.html" target="_top" xlink:title="This partially abstract class defines a interface for operating on an input stream (example of a stre...">
<polygon fill="white" stroke="#666666" points="442.5,-264 364.5,-264 364.5,-245 442.5,-245 442.5,-264"/>
<text text-anchor="middle" x="403.5" y="-252" font-family="Helvetica,sans-Serif" font-size="10.00">Cpl::Io::Input</text>
</a>
</g>
</g>
<!-- Node5&#45;&gt;Node2 -->
<g id="edge4_Node000002_Node000005" class="edge">
<title>Node5&#45;&gt;Node2</title>
<g id="a_edge4_Node000002_Node000005"><a xlink:title=" ">
<path fill="none" stroke="#9a32cd" stroke-dasharray="5,2" d="M452.83,-256.14C508.04,-258.02 598.75,-261.1 660.94,-263.21"/>
<polygon fill="#9a32cd" stroke="#9a32cd" points="452.73,-252.64 442.62,-255.79 452.5,-259.63 452.73,-252.64"/>
</a>
</g>
<text text-anchor="middle" x="558.5" y="-265.5" font-family="Helvetica,sans-Serif" font-size="10.00" fill="grey"> m_srcPtr</text>
</g>
<!-- Node6 -->
<g id="Node000006" class="node">
<title>Node6</title>
<g id="a_Node000006"><a xlink:href="class_cpl_1_1_io_1_1_close.html" target="_top" xlink:title="This abstract class defines a close operation that is intended to be used Input and Output streams/fi...">
<polygon fill="white" stroke="#666666" points="262,-264 182,-264 182,-245 262,-245 262,-264"/>
<text text-anchor="middle" x="222" y="-252" font-family="Helvetica,sans-Serif" font-size="10.00">Cpl::Io::Close</text>
</a>
</g>
</g>
<!-- Node6&#45;&gt;Node5 -->
<g id="edge5_Node000005_Node000006" class="edge">
<title>Node6&#45;&gt;Node5</title>
<g id="a_edge5_Node000005_Node000006"><a xlink:title=" ">
<path fill="none" stroke="#63b8ff" d="M272.72,-254.5C301.71,-254.5 337.71,-254.5 364.43,-254.5"/>
<polygon fill="#63b8ff" stroke="#63b8ff" points="272.39,-251 262.39,-254.5 272.39,-258 272.39,-251"/>
</a>
</g>
</g>
<!-- Node12 -->
<g id="Node000012" class="node">
<title>Node12</title>
<g id="a_Node000012"><a xlink:href="class_cpl_1_1_io_1_1_output.html" target="_top" xlink:title="This partially abstract class defines a interface for operating on an output stream (example of a str...">
<polygon fill="white" stroke="#666666" points="446.5,-177 360.5,-177 360.5,-158 446.5,-158 446.5,-177"/>
<text text-anchor="middle" x="403.5" y="-165" font-family="Helvetica,sans-Serif" font-size="10.00">Cpl::Io::Output</text>
</a>
</g>
</g>
<!-- Node6&#45;&gt;Node12 -->
<g id="edge12_Node000012_Node000006" class="edge">
<title>Node6&#45;&gt;Node12</title>
<g id="a_edge12_Node000012_Node000006"><a xlink:title=" ">
<path fill="none" stroke="#63b8ff" d="M267.07,-241.43C275.99,-237.89 285.07,-233.59 293,-228.5 312.57,-215.94 310.2,-203.71 330,-191.5 339.93,-185.38 351.6,-180.63 362.64,-177.03"/>
<polygon fill="#63b8ff" stroke="#63b8ff" points="265.66,-238.22 257.5,-244.98 268.1,-244.78 265.66,-238.22"/>
</a>
</g>
</g>
<!-- Node7 -->
<g id="Node000007" class="node">
<title>Node7</title>
<g id="a_Node000007"><a xlink:href="class_cpl_1_1_container_1_1_item.html" target="_top" xlink:title="This class is used by the Container classes to implement a various types of singly linked containers.">
<polygon fill="white" stroke="#666666" points="114,-264 0,-264 0,-245 114,-245 114,-264"/>
<text text-anchor="middle" x="57" y="-252" font-family="Helvetica,sans-Serif" font-size="10.00">Cpl::Container::Item</text>
</a>
</g>
</g>
<!-- Node7&#45;&gt;Node6 -->
<g id="edge6_Node000006_Node000007" class="edge">
<title>Node7&#45;&gt;Node6</title>
<g id="a_edge6_Node000006_Node000007"><a xlink:title=" ">
<path fill="none" stroke="#63b8ff" d="M124.18,-254.5C143.73,-254.5 164.49,-254.5 181.76,-254.5"/>
<polygon fill="#63b8ff" stroke="#63b8ff" points="124.1,-251 114.1,-254.5 124.1,-258 124.1,-251"/>
</a>
</g>
</g>
<!-- Node8 -->
<g id="Node000008" class="node">
<title>Node8</title>
<g id="a_Node000008"><a xlink:href="class_cpl_1_1_io_1_1_is_eos.html" target="_top" xlink:title="This abstract class defines a isEos() operation that is intended to be used Input and Output streams.">
<polygon fill="white" stroke="#666666" points="261.5,-177 182.5,-177 182.5,-158 261.5,-158 261.5,-177"/>
<text text-anchor="middle" x="222" y="-165" font-family="Helvetica,sans-Serif" font-size="10.00">Cpl::Io::IsEos</text>
</a>
</g>
</g>
<!-- Node8&#45;&gt;Node5 -->
<g id="edge7_Node000005_Node000008" class="edge">
<title>Node8&#45;&gt;Node5</title>
<g id="a_edge7_Node000005_Node000008"><a xlink:title=" ">
<path fill="none" stroke="#63b8ff" d="M270.56,-180.51C278.34,-183.55 286.1,-187.2 293,-191.5 312.73,-203.81 310.36,-216.05 330,-228.5 340.96,-235.44 354.02,-240.86 366.02,-244.9"/>
<polygon fill="#63b8ff" stroke="#63b8ff" points="271.71,-177.2 261.12,-177.09 269.33,-183.79 271.71,-177.2"/>
</a>
</g>
</g>
<!-- Node8&#45;&gt;Node12 -->
<g id="edge13_Node000012_Node000008" class="edge">
<title>Node8&#45;&gt;Node12</title>
<g id="a_edge13_Node000012_Node000008"><a xlink:title=" ">
<path fill="none" stroke="#63b8ff" d="M271.76,-167.5C299.45,-167.5 333.77,-167.5 360.29,-167.5"/>
<polygon fill="#63b8ff" stroke="#63b8ff" points="271.51,-164 261.51,-167.5 271.51,-171 271.51,-164"/>
</a>
</g>
</g>
<!-- Node9 -->
<g id="Node000009" class="node">
<title>Node9</title>
<g id="a_Node000009"><a xlink:href="class_cpl_1_1_text_1_1_frame_1_1_stream_encoder.html" target="_top" xlink:title="This concrete class implements the Encoder API where the Output destination is a Cpl::Io::Output stre...">
<polygon fill="white" stroke="#666666" points="798,-218.5 661,-218.5 661,-188.5 798,-188.5 798,-218.5"/>
<text text-anchor="start" x="669" y="-206.5" font-family="Helvetica,sans-Serif" font-size="10.00">Cpl::Text::Frame::Stream</text>
<text text-anchor="middle" x="729.5" y="-195.5" font-family="Helvetica,sans-Serif" font-size="10.00">Encoder</text>
</a>
</g>
</g>
<!-- Node9&#45;&gt;Node1 -->
<g id="edge8_Node000001_Node000009" class="edge">
<title>Node9&#45;&gt;Node1</title>
<g id="a_edge8_Node000001_Node000009"><a xlink:title=" ">
<path fill="none" stroke="#9a32cd" stroke-dasharray="5,2" d="M808.4,-204.68C900.96,-206.08 1053.22,-208.38 1135.66,-209.63"/>
<polygon fill="#9a32cd" stroke="#9a32cd" points="808.3,-201.18 798.25,-204.53 808.19,-208.18 808.3,-201.18"/>
</a>
</g>
<text text-anchor="middle" x="980.5" y="-211.5" font-family="Helvetica,sans-Serif" font-size="10.00" fill="grey"> m_framer</text>
</g>
<!-- Node9&#45;&gt;Node13 -->
<g id="edge19_Node000013_Node000009" class="edge">
<title>Node9&#45;&gt;Node13</title>
<g id="a_edge19_Node000013_Node000009"><a xlink:title=" ">
<path fill="none" stroke="#9a32cd" stroke-dasharray="5,2" d="M808.24,-187.27C849.49,-178.65 898.76,-168.36 933.84,-161.04"/>
<polygon fill="#9a32cd" stroke="#9a32cd" points="807.28,-183.89 798.21,-189.36 808.72,-190.74 807.28,-183.89"/>
</a>
</g>
<text text-anchor="middle" x="873" y="-184.5" font-family="Helvetica,sans-Serif" font-size="10.00" fill="grey"> m_framer</text>
</g>
<!-- Node10 -->
<g id="Node000010" class="node">
<title>Node10</title>
<g id="a_Node000010"><a xlink:href="class_cpl_1_1_text_1_1_frame_1_1_encoder__.html" target="_top" xlink:title="This Private Namespace partially concrete class implements common/helper method for supporting the En...">
<polygon fill="white" stroke="#666666" points="476.5,-220 330.5,-220 330.5,-201 476.5,-201 476.5,-220"/>
<text text-anchor="middle" x="403.5" y="-208" font-family="Helvetica,sans-Serif" font-size="10.00">Cpl::Text::Frame::Encoder_</text>
</a>
</g>
</g>
<!-- Node10&#45;&gt;Node9 -->
<g id="edge9_Node000009_Node000010" class="edge">
<title>Node10&#45;&gt;Node9</title>
<g id="a_edge9_Node000009_Node000010"><a xlink:title=" ">
<path fill="none" stroke="#63b8ff" d="M487.01,-208.72C540.85,-207.55 610.26,-206.05 660.84,-204.96"/>
<polygon fill="#63b8ff" stroke="#63b8ff" points="486.73,-205.22 476.81,-208.94 486.88,-212.22 486.73,-205.22"/>
</a>
</g>
</g>
<!-- Node11 -->
<g id="Node000011" class="node">
<title>Node11</title>
<g id="a_Node000011"><a xlink:href="class_cpl_1_1_text_1_1_frame_1_1_encoder.html" target="_top" xlink:title="This class defines an interface for &#39;transmitted&#39; (encoding) a frame.">
<polygon fill="white" stroke="#666666" points="292,-220 152,-220 152,-201 292,-201 292,-220"/>
<text text-anchor="middle" x="222" y="-208" font-family="Helvetica,sans-Serif" font-size="10.00">Cpl::Text::Frame::Encoder</text>
</a>
</g>
</g>
<!-- Node11&#45;&gt;Node10 -->
<g id="edge10_Node000010_Node000011" class="edge">
<title>Node11&#45;&gt;Node10</title>
<g id="a_edge10_Node000010_Node000011"><a xlink:title=" ">
<path fill="none" stroke="#63b8ff" d="M302.24,-210.5C311.62,-210.5 321.15,-210.5 330.42,-210.5"/>
<polygon fill="#63b8ff" stroke="#63b8ff" points="302.14,-207 292.14,-210.5 302.14,-214 302.14,-207"/>
</a>
</g>
</g>
<!-- Node12&#45;&gt;Node9 -->
<g id="edge11_Node000009_Node000012" class="edge">
<title>Node12&#45;&gt;Node9</title>
<g id="a_edge11_Node000009_Node000012"><a xlink:title=" ">
<path fill="none" stroke="#9a32cd" stroke-dasharray="5,2" d="M456.79,-173.24C500.85,-178.08 565.55,-185.21 622,-191.5 634.57,-192.9 647.98,-194.41 660.9,-195.86"/>
<polygon fill="#9a32cd" stroke="#9a32cd" points="456.93,-169.73 446.61,-172.12 456.16,-176.69 456.93,-169.73"/>
</a>
</g>
<text text-anchor="middle" x="558.5" y="-194.5" font-family="Helvetica,sans-Serif" font-size="10.00" fill="grey"> m_dstPtr</text>
</g>
<!-- Node12&#45;&gt;Node13 -->
<g id="edge20_Node000013_Node000012" class="edge">
<title>Node12&#45;&gt;Node13</title>
<g id="a_edge20_Node000013_Node000012"><a xlink:title=" ">
<path fill="none" stroke="#9a32cd" stroke-dasharray="5,2" d="M456.91,-166.04C566.23,-163 817.52,-156.01 926.96,-152.96"/>
<polygon fill="#9a32cd" stroke="#9a32cd" points="456.68,-162.55 446.78,-166.32 456.87,-169.54 456.68,-162.55"/>
</a>
</g>
<text text-anchor="middle" x="729.5" y="-164.5" font-family="Helvetica,sans-Serif" font-size="10.00" fill="grey"> m_outfdPtr</text>
</g>
<!-- Node13&#45;&gt;Node1 -->
<g id="edge14_Node000001_Node000013" class="edge">
<title>Node13&#45;&gt;Node1</title>
<g id="a_edge14_Node000001_Node000013"><a xlink:title=" ">
<path fill="none" stroke="#9a32cd" stroke-dasharray="5,2" d="M1033.13,-163.36C1058.77,-169.5 1090.15,-177.4 1118,-185.5 1134.08,-190.17 1151.87,-196.07 1166.08,-200.96"/>
<polygon fill="#9a32cd" stroke="#9a32cd" points="1033.78,-159.92 1023.24,-161.01 1032.16,-166.73 1033.78,-159.92"/>
</a>
</g>
<text text-anchor="middle" x="1085" y="-188.5" font-family="Helvetica,sans-Serif" font-size="10.00" fill="grey"> m_processor</text>
</g>
<!-- Node14 -->
<g id="Node000014" class="node">
<title>Node14</title>
<g id="a_Node000014"><a xlink:href="class_driver_1_1_t_pipe_1_1_tx.html" target="_top" xlink:title="This abstract class defines the &#39;Transmit Command&#39; interface for the TPipe.">
<polygon fill="white" stroke="#666666" points="778.5,-19 680.5,-19 680.5,0 778.5,0 778.5,-19"/>
<text text-anchor="middle" x="729.5" y="-7" font-family="Helvetica,sans-Serif" font-size="10.00">Driver::TPipe::Tx</text>
</a>
</g>
</g>
<!-- Node14&#45;&gt;Node13 -->
<g id="edge15_Node000013_Node000014" class="edge">
<title>Node14&#45;&gt;Node13</title>
<g id="a_edge15_Node000013_Node000014"><a xlink:title=" ">
<path fill="none" stroke="#63b8ff" d="M789.05,-17.26C826.29,-24.53 873.93,-38.39 909,-64.5 938.79,-86.67 963.37,-124.19 973.93,-141.81"/>
<polygon fill="#63b8ff" stroke="#63b8ff" points="789.31,-13.74 778.84,-15.37 788.04,-20.63 789.31,-13.74"/>
</a>
</g>
</g>
<!-- Node15 -->
<g id="Node000015" class="node">
<title>Node15</title>
<g id="a_Node000015"><a xlink:href="class_cpl_1_1_container_1_1_map.html" target="_top" xlink:title=" ">
<polygon fill="white" stroke="#666666" points="819,-115 640,-115 640,-74 819,-74 819,-115"/>
<text text-anchor="start" x="648" y="-103" font-family="Helvetica,sans-Serif" font-size="10.00">Cpl::Container::Map</text>
<text text-anchor="start" x="648" y="-92" font-family="Helvetica,sans-Serif" font-size="10.00">&lt; Driver::TPipe::RxFrameHandler</text>
<text text-anchor="middle" x="729.5" y="-81" font-family="Helvetica,sans-Serif" font-size="10.00">Api &gt;</text>
</a>
</g>
</g>
<!-- Node15&#45;&gt;Node13 -->
<g id="edge16_Node000013_Node000015" class="edge">
<title>Node15&#45;&gt;Node13</title>
<g id="a_edge16_Node000013_Node000015"><a xlink:title=" ">
<path fill="none" stroke="#9a32cd" stroke-dasharray="5,2" d="M829.12,-109.21C855.27,-113.92 883.36,-119.71 909,-126.5 924.82,-130.69 942.14,-136.81 955.66,-141.95"/>
<polygon fill="#9a32cd" stroke="#9a32cd" points="829.65,-105.75 819.19,-107.46 828.43,-112.64 829.65,-105.75"/>
</a>
</g>
<text text-anchor="middle" x="873" y="-129.5" font-family="Helvetica,sans-Serif" font-size="10.00" fill="grey"> m_rxHandlers</text>
</g>
<!-- Node16 -->
<g id="Node000016" class="node">
<title>Node16</title>
<g id="a_Node000016"><a xlink:href="class_cpl_1_1_container_1_1_map.html" target="_top" xlink:title="This template class implements an Map using an AVL Binary tree (i.e.">
<polygon fill="white" stroke="#666666" points="460,-109.5 347,-109.5 347,-79.5 460,-79.5 460,-109.5"/>
<text text-anchor="start" x="355" y="-97.5" font-family="Helvetica,sans-Serif" font-size="10.00">Cpl::Container::Map</text>
<text text-anchor="middle" x="403.5" y="-86.5" font-family="Helvetica,sans-Serif" font-size="10.00">&lt; ITEM &gt;</text>
</a>
</g>
</g>
<!-- Node16&#45;&gt;Node15 -->
<g id="edge17_Node000015_Node000016" class="edge">
<title>Node16&#45;&gt;Node15</title>
<g id="a_edge17_Node000015_Node000016"><a xlink:title=" ">
<path fill="none" stroke="orange" stroke-dasharray="5,2" d="M470.34,-94.5C519.22,-94.5 586.4,-94.5 639.98,-94.5"/>
<polygon fill="orange" stroke="orange" points="470.2,-91 460.2,-94.5 470.2,-98 470.2,-91"/>
</a>
</g>
<text text-anchor="start" x="495" y="-108.5" font-family="Helvetica,sans-Serif" font-size="10.00" fill="grey"> &lt; Driver::TPipe::RxFrame</text>
<text text-anchor="middle" x="558.5" y="-97.5" font-family="Helvetica,sans-Serif" font-size="10.00" fill="grey">HandlerApi &gt;</text>
</g>
<!-- Node17 -->
<g id="Node000017" class="node">
<title>Node17</title>
<g id="a_Node000017"><a xlink:href="class_cpl_1_1_system_1_1_mutex.html" target="_top" xlink:title="This mutex class defines the interface for a mutex that has &quot;recursive&quot; semantics.">
<polygon fill="white" stroke="#666666" points="785.5,-56 673.5,-56 673.5,-37 785.5,-37 785.5,-56"/>
<text text-anchor="middle" x="729.5" y="-44" font-family="Helvetica,sans-Serif" font-size="10.00">Cpl::System::Mutex</text>
</a>
</g>
</g>
<!-- Node17&#45;&gt;Node13 -->
<g id="edge21_Node000013_Node000017" class="edge">
<title>Node17&#45;&gt;Node13</title>
<g id="a_edge21_Node000013_Node000017"><a xlink:title=" ">
<path fill="none" stroke="#9a32cd" stroke-dasharray="5,2" d="M795.83,-57.31C830.88,-64.92 873.95,-77.26 909,-96.5 932.41,-109.35 956.18,-129.76 969.27,-141.77"/>
<polygon fill="#9a32cd" stroke="#9a32cd" points="796.2,-53.81 785.7,-55.19 794.77,-60.67 796.2,-53.81"/>
</a>
</g>
<text text-anchor="middle" x="873" y="-99.5" font-family="Helvetica,sans-Serif" font-size="10.00" fill="grey"> m_lock</text>
</g>
</g>
</svg>
