<?xml version="1.0" encoding="UTF-8" standalone="no"?>
<!DOCTYPE svg PUBLIC "-//W3C//DTD SVG 1.1//EN"
 "http://www.w3.org/Graphics/SVG/1.1/DTD/svg11.dtd">
<!-- Generated by graphviz version 2.43.0 (0)
 -->
<!-- Title: Driver::TPipe::RxFrameHandler Pages: 1 -->
<svg width="350pt" height="339pt"
 viewBox="0.00 0.00 349.50 339.00" xmlns="http://www.w3.org/2000/svg" xmlns:xlink="http://www.w3.org/1999/xlink">
<g id="graph0" class="graph" transform="scale(1 1) rotate(0) translate(4 335)">
<title>Driver::TPipe::RxFrameHandler</title>
<!-- Node1 -->
<g id="Node000001" class="node">
<title>Node1</title>
<g id="a_Node000001"><a xlink:title="This partially concrete class provides functionality that is common to all Frame handlers.">
<polygon fill="#999999" stroke="#666666" points="264,-19 97,-19 97,0 264,0 264,-19"/>
<text text-anchor="middle" x="180.5" y="-7" font-family="Helvetica,sans-Serif" font-size="10.00">Driver::TPipe::RxFrameHandler</text>
</a>
</g>
</g>
<!-- Node2 -->
<g id="Node000002" class="node">
<title>Node2</title>
<g id="a_Node000002"><a xlink:href="class_driver_1_1_t_pipe_1_1_rx_frame_handler_api.html" target="_top" xlink:title="This abstract class defines the &#39;Received Frame Handler&#39; interface for the TPipe.">
<polygon fill="white" stroke="#666666" points="183,-90.5 0,-90.5 0,-71.5 183,-71.5 183,-90.5"/>
<text text-anchor="middle" x="91.5" y="-78.5" font-family="Helvetica,sans-Serif" font-size="10.00">Driver::TPipe::RxFrameHandlerApi</text>
</a>
</g>
</g>
<!-- Node2&#45;&gt;Node1 -->
<g id="edge1_Node000001_Node000002" class="edge">
<title>Node2&#45;&gt;Node1</title>
<g id="a_edge1_Node000001_Node000002"><a xlink:title=" ">
<path fill="none" stroke="#63b8ff" d="M110.47,-65.19C128.43,-51.16 154.77,-30.59 169.5,-19.09"/>
<polygon fill="#63b8ff" stroke="#63b8ff" points="108.14,-62.56 102.41,-71.48 112.45,-68.08 108.14,-62.56"/>
</a>
</g>
</g>
<!-- Node3 -->
<g id="Node000003" class="node">
<title>Node3</title>
<g id="a_Node000003"><a xlink:href="class_cpl_1_1_container_1_1_map_item.html" target="_top" xlink:title="This abstract class represents a item that can be contained in an Map (aka a sorted list implemented ...">
<polygon fill="white" stroke="#666666" points="159,-157.5 24,-157.5 24,-138.5 159,-138.5 159,-157.5"/>
<text text-anchor="middle" x="91.5" y="-145.5" font-family="Helvetica,sans-Serif" font-size="10.00">Cpl::Container::MapItem</text>
</a>
</g>
</g>
<!-- Node3&#45;&gt;Node2 -->
<g id="edge2_Node000002_Node000003" class="edge">
<title>Node3&#45;&gt;Node2</title>
<g id="a_edge2_Node000002_Node000003"><a xlink:title=" ">
<path fill="none" stroke="#63b8ff" d="M91.5,-128.04C91.5,-115.67 91.5,-100.12 91.5,-90.63"/>
<polygon fill="#63b8ff" stroke="#63b8ff" points="88,-128.23 91.5,-138.23 95,-128.23 88,-128.23"/>
</a>
</g>
</g>
<!-- Node4 -->
<g id="Node000004" class="node">
<title>Node4</title>
<g id="a_Node000004"><a xlink:href="class_cpl_1_1_container_1_1_dict_item.html" target="_top" xlink:title="This abstract class represents a item that can be contained in Dictionary.">
<polygon fill="white" stroke="#666666" points="158.5,-219 24.5,-219 24.5,-200 158.5,-200 158.5,-219"/>
<text text-anchor="middle" x="91.5" y="-207" font-family="Helvetica,sans-Serif" font-size="10.00">Cpl::Container::DictItem</text>
</a>
</g>
</g>
<!-- Node4&#45;&gt;Node3 -->
<g id="edge3_Node000003_Node000004" class="edge">
<title>Node4&#45;&gt;Node3</title>
<g id="a_edge3_Node000003_Node000004"><a xlink:title=" ">
<path fill="none" stroke="#63b8ff" d="M91.5,-189.82C91.5,-179 91.5,-165.9 91.5,-157.51"/>
<polygon fill="#63b8ff" stroke="#63b8ff" points="88,-189.98 91.5,-199.98 95,-189.98 88,-189.98"/>
</a>
</g>
</g>
<!-- Node5 -->
<g id="Node000005" class="node">
<title>Node5</title>
<g id="a_Node000005"><a xlink:href="class_cpl_1_1_container_1_1_extended_item.html" target="_top" xlink:title="This class is used by the Container classes to implement a various types of DOUBLY linked containers.">
<polygon fill="white" stroke="#666666" points="171.5,-275 11.5,-275 11.5,-256 171.5,-256 171.5,-275"/>
<text text-anchor="middle" x="91.5" y="-263" font-family="Helvetica,sans-Serif" font-size="10.00">Cpl::Container::ExtendedItem</text>
</a>
</g>
</g>
<!-- Node5&#45;&gt;Node4 -->
<g id="edge4_Node000004_Node000005" class="edge">
<title>Node5&#45;&gt;Node4</title>
<g id="a_edge4_Node000004_Node000005"><a xlink:title=" ">
<path fill="none" stroke="#63b8ff" d="M91.5,-245.3C91.5,-236.41 91.5,-226.28 91.5,-219.25"/>
<polygon fill="#63b8ff" stroke="#63b8ff" points="88,-245.58 91.5,-255.58 95,-245.58 88,-245.58"/>
</a>
</g>
</g>
<!-- Node6 -->
<g id="Node000006" class="node">
<title>Node6</title>
<g id="a_Node000006"><a xlink:href="class_cpl_1_1_container_1_1_item.html" target="_top" xlink:title="This class is used by the Container classes to implement a various types of singly linked containers.">
<polygon fill="white" stroke="#666666" points="148.5,-331 34.5,-331 34.5,-312 148.5,-312 148.5,-331"/>
<text text-anchor="middle" x="91.5" y="-319" font-family="Helvetica,sans-Serif" font-size="10.00">Cpl::Container::Item</text>
</a>
</g>
</g>
<!-- Node6&#45;&gt;Node5 -->
<g id="edge5_Node000005_Node000006" class="edge">
<title>Node6&#45;&gt;Node5</title>
<g id="a_edge5_Node000005_Node000006"><a xlink:title=" ">
<path fill="none" stroke="#63b8ff" d="M91.5,-301.3C91.5,-292.41 91.5,-282.28 91.5,-275.25"/>
<polygon fill="#63b8ff" stroke="#63b8ff" points="88,-301.58 91.5,-311.58 95,-301.58 88,-301.58"/>
</a>
</g>
</g>
<!-- Node7 -->
<g id="Node000007" class="node">
<title>Node7</title>
<g id="a_Node000007"><a xlink:href="class_cpl_1_1_container_1_1_key_literal_string.html" target="_top" xlink:title="This class provides a &#39;Key&#39; wrapper for a C string literal.">
<polygon fill="white" stroke="#666666" points="341.5,-96 201.5,-96 201.5,-66 341.5,-66 341.5,-96"/>
<text text-anchor="start" x="209.5" y="-84" font-family="Helvetica,sans-Serif" font-size="10.00">Cpl::Container::KeyLiteral</text>
<text text-anchor="middle" x="271.5" y="-73" font-family="Helvetica,sans-Serif" font-size="10.00">String</text>
</a>
</g>
</g>
<!-- Node7&#45;&gt;Node1 -->
<g id="edge6_Node000001_Node000007" class="edge">
<title>Node7&#45;&gt;Node1</title>
<g id="a_edge6_Node000001_Node000007"><a xlink:title=" ">
<path fill="none" stroke="#9a32cd" stroke-dasharray="5,2" d="M244.84,-59.64C227.16,-46.14 204.88,-29.12 191.72,-19.07"/>
<polygon fill="#9a32cd" stroke="#9a32cd" points="243.01,-62.65 253.08,-65.94 247.26,-57.08 243.01,-62.65"/>
</a>
</g>
<text text-anchor="middle" x="258.5" y="-40" font-family="Helvetica,sans-Serif" font-size="10.00" fill="grey"> m_mapKey</text>
</g>
<!-- Node8 -->
<g id="Node000008" class="node">
<title>Node8</title>
<g id="a_Node000008"><a xlink:href="class_cpl_1_1_container_1_1_key_string_buffer.html" target="_top" xlink:title="This class provides a &#39;Key&#39; wrapper for a array of Character of length N, i.e.">
<polygon fill="white" stroke="#666666" points="340.5,-163 202.5,-163 202.5,-133 340.5,-133 340.5,-163"/>
<text text-anchor="start" x="210.5" y="-151" font-family="Helvetica,sans-Serif" font-size="10.00">Cpl::Container::KeyString</text>
<text text-anchor="middle" x="271.5" y="-140" font-family="Helvetica,sans-Serif" font-size="10.00">Buffer</text>
</a>
</g>
</g>
<!-- Node8&#45;&gt;Node7 -->
<g id="edge7_Node000007_Node000008" class="edge">
<title>Node8&#45;&gt;Node7</title>
<g id="a_edge7_Node000007_Node000008"><a xlink:title=" ">
<path fill="none" stroke="#63b8ff" d="M271.5,-122.61C271.5,-113.65 271.5,-103.82 271.5,-96.08"/>
<polygon fill="#63b8ff" stroke="#63b8ff" points="268,-122.9 271.5,-132.9 275,-122.9 268,-122.9"/>
</a>
</g>
</g>
<!-- Node9 -->
<g id="Node000009" class="node">
<title>Node9</title>
<g id="a_Node000009"><a xlink:href="class_cpl_1_1_container_1_1_key.html" target="_top" xlink:title="This abstract class defines the interface that a contained object must support if it has comparable k...">
<polygon fill="white" stroke="#666666" points="326.5,-219 216.5,-219 216.5,-200 326.5,-200 326.5,-219"/>
<text text-anchor="middle" x="271.5" y="-207" font-family="Helvetica,sans-Serif" font-size="10.00">Cpl::Container::Key</text>
</a>
</g>
</g>
<!-- Node9&#45;&gt;Node8 -->
<g id="edge8_Node000008_Node000009" class="edge">
<title>Node9&#45;&gt;Node8</title>
<g id="a_edge8_Node000008_Node000009"><a xlink:title=" ">
<path fill="none" stroke="#63b8ff" d="M271.5,-189.73C271.5,-181.09 271.5,-171 271.5,-163.02"/>
<polygon fill="#63b8ff" stroke="#63b8ff" points="268,-189.98 271.5,-199.98 275,-189.98 268,-189.98"/>
</a>
</g>
</g>
</g>
</svg>
