<?xml version="1.0" encoding="UTF-8" standalone="no"?>
<!DOCTYPE svg PUBLIC "-//W3C//DTD SVG 1.1//EN"
 "http://www.w3.org/Graphics/SVG/1.1/DTD/svg11.dtd">
<!-- Generated by graphviz version 2.43.0 (0)
 -->
<!-- Title: Cpl::Dm::SubscriberComposer&lt; CONTEXT, MP &gt; Pages: 1 -->
<svg width="1368pt" height="167pt"
 viewBox="0.00 0.00 1368.00 167.00" xmlns="http://www.w3.org/2000/svg" xmlns:xlink="http://www.w3.org/1999/xlink">
<g id="graph0" class="graph" transform="scale(1 1) rotate(0) translate(4 163)">
<title>Cpl::Dm::SubscriberComposer&lt; CONTEXT, MP &gt;</title>
<!-- Node1 -->
<g id="Node000001" class="node">
<title>Node1</title>
<g id="a_Node000001"><a xlink:title="This template class is a composer pattern/class that manages the callback function for a Model Point&#39;...">
<polygon fill="#999999" stroke="#666666" points="999,-94.5 837,-94.5 837,-64.5 999,-64.5 999,-94.5"/>
<text text-anchor="start" x="845" y="-82.5" font-family="Helvetica,sans-Serif" font-size="10.00">Cpl::Dm::SubscriberComposer</text>
<text text-anchor="middle" x="918" y="-71.5" font-family="Helvetica,sans-Serif" font-size="10.00">&lt; CONTEXT, MP &gt;</text>
</a>
</g>
</g>
<!-- Node7 -->
<g id="Node000007" class="node">
<title>Node7</title>
<g id="a_Node000007"><a xlink:href="class_cpl_1_1_dm_1_1_subscriber_composer.html" target="_top" xlink:title=" ">
<polygon fill="white" stroke="#666666" points="1358,-159 1194,-159 1194,-118 1358,-118 1358,-159"/>
<text text-anchor="start" x="1202" y="-147" font-family="Helvetica,sans-Serif" font-size="10.00">Cpl::Dm::SubscriberComposer</text>
<text text-anchor="start" x="1202" y="-136" font-family="Helvetica,sans-Serif" font-size="10.00">&lt; Cpl::Dm::Persistent::Record,</text>
<text text-anchor="middle" x="1276" y="-125" font-family="Helvetica,sans-Serif" font-size="10.00"> Cpl::Dm::ModelPoint &gt;</text>
</a>
</g>
</g>
<!-- Node1&#45;&gt;Node7 -->
<g id="edge6_Node000001_Node000007" class="edge">
<title>Node1&#45;&gt;Node7</title>
<g id="a_edge6_Node000001_Node000007"><a xlink:title=" ">
<path fill="none" stroke="orange" stroke-dasharray="5,2" d="M980.53,-97.15C992.56,-100.22 1005.12,-103.18 1017,-105.5 1075.72,-116.99 1142.77,-125.43 1193.8,-130.89"/>
<polygon fill="orange" stroke="orange" points="981.14,-93.69 970.58,-94.55 979.37,-100.47 981.14,-93.69"/>
</a>
</g>
<text text-anchor="start" x="1017" y="-141.5" font-family="Helvetica,sans-Serif" font-size="10.00" fill="grey"> &lt; Cpl::Dm::Persistent</text>
<text text-anchor="middle" x="1095.5" y="-130.5" font-family="Helvetica,sans-Serif" font-size="10.00" fill="grey">::Record, Cpl::Dm::ModelPoint &gt;</text>
</g>
<!-- Node8 -->
<g id="Node000008" class="node">
<title>Node8</title>
<g id="a_Node000008"><a xlink:href="class_cpl_1_1_dm_1_1_subscriber_composer.html" target="_top" xlink:title=" ">
<polygon fill="white" stroke="#666666" points="1357,-100 1195,-100 1195,-59 1357,-59 1357,-100"/>
<text text-anchor="start" x="1203" y="-88" font-family="Helvetica,sans-Serif" font-size="10.00">Cpl::Dm::SubscriberComposer</text>
<text text-anchor="start" x="1203" y="-77" font-family="Helvetica,sans-Serif" font-size="10.00">&lt; Cpl::Logging::LogSink,</text>
<text text-anchor="middle" x="1276" y="-66" font-family="Helvetica,sans-Serif" font-size="10.00"> Cpl::Dm::Mp::Uint32 &gt;</text>
</a>
</g>
</g>
<!-- Node1&#45;&gt;Node8 -->
<g id="edge7_Node000001_Node000008" class="edge">
<title>Node1&#45;&gt;Node8</title>
<g id="a_edge7_Node000001_Node000008"><a xlink:title=" ">
<path fill="none" stroke="orange" stroke-dasharray="5,2" d="M1009.46,-79.5C1066.64,-79.5 1139.88,-79.5 1194.96,-79.5"/>
<polygon fill="orange" stroke="orange" points="1009.34,-76 999.34,-79.5 1009.34,-83 1009.34,-76"/>
</a>
</g>
<text text-anchor="start" x="1034.5" y="-93.5" font-family="Helvetica,sans-Serif" font-size="10.00" fill="grey"> &lt; Cpl::Logging::LogSink,</text>
<text text-anchor="middle" x="1095.5" y="-82.5" font-family="Helvetica,sans-Serif" font-size="10.00" fill="grey"> Cpl::Dm::Mp::Uint32 &gt;</text>
</g>
<!-- Node9 -->
<g id="Node000009" class="node">
<title>Node9</title>
<g id="a_Node000009"><a xlink:href="class_cpl_1_1_dm_1_1_subscriber_composer.html" target="_top" xlink:title=" ">
<polygon fill="white" stroke="#666666" points="1360,-41 1192,-41 1192,0 1360,0 1360,-41"/>
<text text-anchor="start" x="1200" y="-29" font-family="Helvetica,sans-Serif" font-size="10.00">Cpl::Dm::SubscriberComposer</text>
<text text-anchor="start" x="1200" y="-18" font-family="Helvetica,sans-Serif" font-size="10.00">&lt; Cpl::Persistent::IndexedEntry</text>
<text text-anchor="middle" x="1276" y="-7" font-family="Helvetica,sans-Serif" font-size="10.00">Server, Cpl::Dm::Mp::Uint32 &gt;</text>
</a>
</g>
</g>
<!-- Node1&#45;&gt;Node9 -->
<g id="edge8_Node000001_Node000009" class="edge">
<title>Node1&#45;&gt;Node9</title>
<g id="a_edge8_Node000001_Node000009"><a xlink:title=" ">
<path fill="none" stroke="orange" stroke-dasharray="5,2" d="M961.47,-60.54C978.42,-53.75 998.32,-46.74 1017,-42.5 1074.54,-29.45 1140.9,-24 1191.9,-21.78"/>
<polygon fill="orange" stroke="orange" points="959.78,-57.45 951.86,-64.49 962.44,-63.92 959.78,-57.45"/>
</a>
</g>
<text text-anchor="start" x="1039" y="-67.5" font-family="Helvetica,sans-Serif" font-size="10.00" fill="grey"> &lt; Cpl::Persistent::</text>
<text text-anchor="start" x="1039" y="-56.5" font-family="Helvetica,sans-Serif" font-size="10.00" fill="grey">IndexedEntryServer,</text>
<text text-anchor="middle" x="1095.5" y="-45.5" font-family="Helvetica,sans-Serif" font-size="10.00" fill="grey"> Cpl::Dm::Mp::Uint32 &gt;</text>
</g>
<!-- Node2 -->
<g id="Node000002" class="node">
<title>Node2</title>
<g id="a_Node000002"><a xlink:href="class_cpl_1_1_dm_1_1_subscriber.html" target="_top" xlink:title="This template class defines a type safe Subscriber.">
<polygon fill="white" stroke="#666666" points="800,-94.5 687,-94.5 687,-64.5 800,-64.5 800,-94.5"/>
<text text-anchor="start" x="695" y="-82.5" font-family="Helvetica,sans-Serif" font-size="10.00">Cpl::Dm::Subscriber</text>
<text text-anchor="middle" x="743.5" y="-71.5" font-family="Helvetica,sans-Serif" font-size="10.00">&lt; MP &gt;</text>
</a>
</g>
</g>
<!-- Node2&#45;&gt;Node1 -->
<g id="edge1_Node000001_Node000002" class="edge">
<title>Node2&#45;&gt;Node1</title>
<g id="a_edge1_Node000001_Node000002"><a xlink:title=" ">
<path fill="none" stroke="#63b8ff" d="M810.1,-79.5C818.82,-79.5 827.84,-79.5 836.76,-79.5"/>
<polygon fill="#63b8ff" stroke="#63b8ff" points="810.03,-76 800.03,-79.5 810.03,-83 810.03,-76"/>
</a>
</g>
</g>
<!-- Node3 -->
<g id="Node000003" class="node">
<title>Node3</title>
<g id="a_Node000003"><a xlink:href="class_cpl_1_1_dm_1_1_subscriber_base.html" target="_top" xlink:title="This mostly concrete class defines the Subscriber interface &#45; for change notifications &#45; to a Model P...">
<polygon fill="white" stroke="#666666" points="650,-89 513,-89 513,-70 650,-70 650,-89"/>
<text text-anchor="middle" x="581.5" y="-77" font-family="Helvetica,sans-Serif" font-size="10.00">Cpl::Dm::SubscriberBase</text>
</a>
</g>
</g>
<!-- Node3&#45;&gt;Node2 -->
<g id="edge2_Node000002_Node000003" class="edge">
<title>Node3&#45;&gt;Node2</title>
<g id="a_edge2_Node000002_Node000003"><a xlink:title=" ">
<path fill="none" stroke="#63b8ff" d="M660.62,-79.5C669.4,-79.5 678.22,-79.5 686.63,-79.5"/>
<polygon fill="#63b8ff" stroke="#63b8ff" points="660.35,-76 650.35,-79.5 660.35,-83 660.35,-76"/>
</a>
</g>
</g>
<!-- Node4 -->
<g id="Node000004" class="node">
<title>Node4</title>
<g id="a_Node000004"><a xlink:href="class_cpl_1_1_dm_1_1_subscriber_api.html" target="_top" xlink:title="This abstract class defines the Subscriber interface &#45; for change notifications &#45; to a Model Points d...">
<polygon fill="white" stroke="#666666" points="476,-89 348,-89 348,-70 476,-70 476,-89"/>
<text text-anchor="middle" x="412" y="-77" font-family="Helvetica,sans-Serif" font-size="10.00">Cpl::Dm::SubscriberApi</text>
</a>
</g>
</g>
<!-- Node4&#45;&gt;Node3 -->
<g id="edge3_Node000003_Node000004" class="edge">
<title>Node4&#45;&gt;Node3</title>
<g id="a_edge3_Node000003_Node000004"><a xlink:title=" ">
<path fill="none" stroke="#63b8ff" d="M486.52,-79.5C495.29,-79.5 504.21,-79.5 512.89,-79.5"/>
<polygon fill="#63b8ff" stroke="#63b8ff" points="486.32,-76 476.32,-79.5 486.32,-83 486.32,-76"/>
</a>
</g>
</g>
<!-- Node5 -->
<g id="Node000005" class="node">
<title>Node5</title>
<g id="a_Node000005"><a xlink:href="class_cpl_1_1_container_1_1_extended_item.html" target="_top" xlink:title="This class is used by the Container classes to implement a various types of DOUBLY linked containers.">
<polygon fill="white" stroke="#666666" points="311,-89 151,-89 151,-70 311,-70 311,-89"/>
<text text-anchor="middle" x="231" y="-77" font-family="Helvetica,sans-Serif" font-size="10.00">Cpl::Container::ExtendedItem</text>
</a>
</g>
</g>
<!-- Node5&#45;&gt;Node4 -->
<g id="edge4_Node000004_Node000005" class="edge">
<title>Node5&#45;&gt;Node4</title>
<g id="a_edge4_Node000004_Node000005"><a xlink:title=" ">
<path fill="none" stroke="#63b8ff" d="M321.22,-79.5C330.25,-79.5 339.29,-79.5 347.97,-79.5"/>
<polygon fill="#63b8ff" stroke="#63b8ff" points="321.03,-76 311.03,-79.5 321.03,-83 321.03,-76"/>
</a>
</g>
</g>
<!-- Node6 -->
<g id="Node000006" class="node">
<title>Node6</title>
<g id="a_Node000006"><a xlink:href="class_cpl_1_1_container_1_1_item.html" target="_top" xlink:title="This class is used by the Container classes to implement a various types of singly linked containers.">
<polygon fill="white" stroke="#666666" points="114,-89 0,-89 0,-70 114,-70 114,-89"/>
<text text-anchor="middle" x="57" y="-77" font-family="Helvetica,sans-Serif" font-size="10.00">Cpl::Container::Item</text>
</a>
</g>
</g>
<!-- Node6&#45;&gt;Node5 -->
<g id="edge5_Node000005_Node000006" class="edge">
<title>Node6&#45;&gt;Node5</title>
<g id="a_edge5_Node000005_Node000006"><a xlink:title=" ">
<path fill="none" stroke="#63b8ff" d="M124.33,-79.5C132.99,-79.5 141.93,-79.5 150.77,-79.5"/>
<polygon fill="#63b8ff" stroke="#63b8ff" points="124.32,-76 114.32,-79.5 124.32,-83 124.32,-76"/>
</a>
</g>
</g>
</g>
</svg>
