<?xml version="1.0" encoding="UTF-8" standalone="no"?>
<!DOCTYPE svg PUBLIC "-//W3C//DTD SVG 1.1//EN"
 "http://www.w3.org/Graphics/SVG/1.1/DTD/svg11.dtd">
<!-- Generated by graphviz version 2.43.0 (0)
 -->
<!-- Title: Cpl::Io::Serial::ST::M32F4::StreamDriver Pages: 1 -->
<svg width="1007pt" height="82pt"
 viewBox="0.00 0.00 1007.00 82.00" xmlns="http://www.w3.org/2000/svg" xmlns:xlink="http://www.w3.org/1999/xlink">
<g id="graph0" class="graph" transform="scale(1 1) rotate(0) translate(4 78)">
<title>Cpl::Io::Serial::ST::M32F4::StreamDriver</title>
<!-- Node1 -->
<g id="Node000001" class="node">
<title>Node1</title>
<g id="a_Node000001"><a xlink:title="This concrete class implements a non&#45;busy&#45;wait blocking Transmit/Receive Stream UART driver with a SO...">
<polygon fill="#999999" stroke="#666666" points="769,-52 642,-52 642,-22 769,-22 769,-52"/>
<text text-anchor="start" x="650" y="-40" font-family="Helvetica,sans-Serif" font-size="10.00">Cpl::Io::Serial::ST</text>
<text text-anchor="middle" x="705.5" y="-29" font-family="Helvetica,sans-Serif" font-size="10.00">::M32F4::StreamDriver</text>
</a>
</g>
</g>
<!-- Node7 -->
<g id="Node000007" class="node">
<title>Node7</title>
<g id="a_Node000007"><a xlink:href="class_cpl_1_1_io_1_1_serial_1_1_s_t_1_1_m32_f4_1_1_stream_driver.html#struct_cpl_1_1_io_1_1_serial_1_1_s_t_1_1_m32_f4_1_1_stream_driver_1_1_hal_mapping___t" target="_top" xlink:title="Used to map a HAL UART Handle to an instance of this class.">
<polygon fill="white" stroke="#666666" points="999,-57.5 872,-57.5 872,-16.5 999,-16.5 999,-57.5"/>
<text text-anchor="start" x="880" y="-45.5" font-family="Helvetica,sans-Serif" font-size="10.00">Cpl::Io::Serial::ST</text>
<text text-anchor="start" x="880" y="-34.5" font-family="Helvetica,sans-Serif" font-size="10.00">::M32F4::StreamDriver</text>
<text text-anchor="middle" x="935.5" y="-23.5" font-family="Helvetica,sans-Serif" font-size="10.00">::HalMapping_T</text>
</a>
</g>
</g>
<!-- Node1&#45;&gt;Node7 -->
<g id="edge7_Node000007_Node000001" class="edge">
<title>Node1&#45;&gt;Node7</title>
<g id="a_edge7_Node000007_Node000001"><a xlink:title=" ">
<path fill="none" stroke="#9a32cd" stroke-dasharray="5,2" d="M779.41,-37C809.09,-37 843.07,-37 871.64,-37"/>
<polygon fill="#9a32cd" stroke="#9a32cd" points="779.1,-33.5 769.1,-37 779.1,-40.5 779.1,-33.5"/>
</a>
</g>
<text text-anchor="middle" x="820.5" y="-40" font-family="Helvetica,sans-Serif" font-size="10.00" fill="grey"> driver</text>
</g>
<!-- Node2 -->
<g id="Node000002" class="node">
<title>Node2</title>
<g id="a_Node000002"><a xlink:href="class_cpl_1_1_system_1_1_thread.html" target="_top" xlink:title="This abstract class defines the operations that can be performed on a thread.">
<polygon fill="white" stroke="#666666" points="519,-69.5 404,-69.5 404,-50.5 519,-50.5 519,-69.5"/>
<text text-anchor="middle" x="461.5" y="-57.5" font-family="Helvetica,sans-Serif" font-size="10.00">Cpl::System::Thread</text>
</a>
</g>
</g>
<!-- Node2&#45;&gt;Node1 -->
<g id="edge1_Node000001_Node000002" class="edge">
<title>Node2&#45;&gt;Node1</title>
<g id="a_edge1_Node000001_Node000002"><a xlink:title=" ">
<path fill="none" stroke="#9a32cd" stroke-dasharray="5,2" d="M529.4,-53.64C564.5,-50.31 607.26,-46.24 641.74,-42.97"/>
<polygon fill="#9a32cd" stroke="#9a32cd" points="528.86,-50.18 519.24,-54.61 529.52,-57.15 528.86,-50.18"/>
</a>
</g>
<text text-anchor="middle" x="587.5" y="-66" font-family="Helvetica,sans-Serif" font-size="10.00" fill="grey"> m_rxWaiterPtr</text>
<text text-anchor="middle" x="587.5" y="-55" font-family="Helvetica,sans-Serif" font-size="10.00" fill="grey">m_txWaiterPtr</text>
</g>
<!-- Node3 -->
<g id="Node000003" class="node">
<title>Node3</title>
<g id="a_Node000003"><a xlink:href="class_cpl_1_1_system_1_1_signable.html" target="_top" xlink:title="This abstract class defines the interface by which a client can cause an object that is waiting&#45;on&#45;a&#45;...">
<polygon fill="white" stroke="#666666" points="284,-69.5 161,-69.5 161,-50.5 284,-50.5 284,-69.5"/>
<text text-anchor="middle" x="222.5" y="-57.5" font-family="Helvetica,sans-Serif" font-size="10.00">Cpl::System::Signable</text>
</a>
</g>
</g>
<!-- Node3&#45;&gt;Node2 -->
<g id="edge2_Node000002_Node000003" class="edge">
<title>Node3&#45;&gt;Node2</title>
<g id="a_edge2_Node000002_Node000003"><a xlink:title=" ">
<path fill="none" stroke="#63b8ff" d="M294.36,-60C329.27,-60 370.79,-60 403.6,-60"/>
<polygon fill="#63b8ff" stroke="#63b8ff" points="294.23,-56.5 284.23,-60 294.23,-63.5 294.23,-56.5"/>
</a>
</g>
</g>
<!-- Node4 -->
<g id="Node000004" class="node">
<title>Node4</title>
<g id="a_Node000004"><a xlink:href="class_cpl_1_1_container_1_1_item.html" target="_top" xlink:title="This class is used by the Container classes to implement a various types of singly linked containers.">
<polygon fill="white" stroke="#666666" points="114,-69.5 0,-69.5 0,-50.5 114,-50.5 114,-69.5"/>
<text text-anchor="middle" x="57" y="-57.5" font-family="Helvetica,sans-Serif" font-size="10.00">Cpl::Container::Item</text>
</a>
</g>
</g>
<!-- Node4&#45;&gt;Node3 -->
<g id="edge3_Node000003_Node000004" class="edge">
<title>Node4&#45;&gt;Node3</title>
<g id="a_edge3_Node000003_Node000004"><a xlink:title=" ">
<path fill="none" stroke="#63b8ff" d="M124.31,-60C136.42,-60 149,-60 160.94,-60"/>
<polygon fill="#63b8ff" stroke="#63b8ff" points="124.27,-56.5 114.27,-60 124.27,-63.5 124.27,-56.5"/>
</a>
</g>
</g>
<!-- Node5 -->
<g id="Node000005" class="node">
<title>Node5</title>
<g id="a_Node000005"><a xlink:href="class_cpl_1_1_container_1_1_ring_buffer.html" target="_top" xlink:title=" ">
<polygon fill="white" stroke="#666666" points="533,-30 390,-30 390,0 533,0 533,-30"/>
<text text-anchor="start" x="398" y="-18" font-family="Helvetica,sans-Serif" font-size="10.00">Cpl::Container::RingBuffer</text>
<text text-anchor="middle" x="461.5" y="-7" font-family="Helvetica,sans-Serif" font-size="10.00">&lt; uint8_t &gt;</text>
</a>
</g>
</g>
<!-- Node5&#45;&gt;Node1 -->
<g id="edge4_Node000001_Node000005" class="edge">
<title>Node5&#45;&gt;Node1</title>
<g id="a_edge4_Node000001_Node000005"><a xlink:title=" ">
<path fill="none" stroke="#9a32cd" stroke-dasharray="5,2" d="M543.26,-11.57C569.14,-11.52 597.86,-12.56 624,-16 634.02,-17.32 644.59,-19.48 654.64,-21.94"/>
<polygon fill="#9a32cd" stroke="#9a32cd" points="543.09,-8.07 533.11,-11.64 543.14,-15.07 543.09,-8.07"/>
</a>
</g>
<text text-anchor="middle" x="587.5" y="-30" font-family="Helvetica,sans-Serif" font-size="10.00" fill="grey"> m_rxBuffer</text>
<text text-anchor="middle" x="587.5" y="-19" font-family="Helvetica,sans-Serif" font-size="10.00" fill="grey">m_txBuffer</text>
</g>
<!-- Node6 -->
<g id="Node000006" class="node">
<title>Node6</title>
<g id="a_Node000006"><a xlink:href="class_cpl_1_1_container_1_1_ring_buffer.html" target="_top" xlink:title="This template class implements a Ring Buffer.">
<polygon fill="white" stroke="#666666" points="294,-30 151,-30 151,0 294,0 294,-30"/>
<text text-anchor="start" x="159" y="-18" font-family="Helvetica,sans-Serif" font-size="10.00">Cpl::Container::RingBuffer</text>
<text text-anchor="middle" x="222.5" y="-7" font-family="Helvetica,sans-Serif" font-size="10.00">&lt; ITEM &gt;</text>
</a>
</g>
</g>
<!-- Node6&#45;&gt;Node5 -->
<g id="edge5_Node000005_Node000006" class="edge">
<title>Node6&#45;&gt;Node5</title>
<g id="a_edge5_Node000005_Node000006"><a xlink:title=" ">
<path fill="none" stroke="orange" stroke-dasharray="5,2" d="M304.34,-15C332.05,-15 362.82,-15 389.67,-15"/>
<polygon fill="orange" stroke="orange" points="304.29,-11.5 294.29,-15 304.29,-18.5 304.29,-11.5"/>
</a>
</g>
<text text-anchor="middle" x="342" y="-18" font-family="Helvetica,sans-Serif" font-size="10.00" fill="grey"> &lt; uint8_t &gt;</text>
</g>
<!-- Node7&#45;&gt;Node1 -->
<g id="edge6_Node000001_Node000007" class="edge">
<title>Node7&#45;&gt;Node1</title>
<g id="a_edge6_Node000001_Node000007"><a xlink:title=" ">
<path fill="none" stroke="#9a32cd" stroke-dasharray="5,2" d="M861.73,-21.87C859.13,-21.54 856.54,-21.25 854,-21 824.37,-18.08 816.63,-18.08 787,-21 781.19,-21.57 775.17,-22.37 769.16,-23.31"/>
<polygon fill="#9a32cd" stroke="#9a32cd" points="861.44,-25.37 871.84,-23.31 862.43,-18.44 861.44,-25.37"/>
</a>
</g>
<text text-anchor="middle" x="820.5" y="-24" font-family="Helvetica,sans-Serif" font-size="10.00" fill="grey"> m_mappings</text>
</g>
</g>
</svg>
