<?xml version="1.0" encoding="UTF-8" standalone="no"?>
<!DOCTYPE svg PUBLIC "-//W3C//DTD SVG 1.1//EN"
 "http://www.w3.org/Graphics/SVG/1.1/DTD/svg11.dtd">
<!-- Generated by graphviz version 2.43.0 (0)
 -->
<!-- Title: Cpl::System::Signable Pages: 1 -->
<svg width="994pt" height="323pt"
 viewBox="0.00 0.00 994.00 322.50" xmlns="http://www.w3.org/2000/svg" xmlns:xlink="http://www.w3.org/1999/xlink">
<g id="graph0" class="graph" transform="scale(1 1) rotate(0) translate(4 318.5)">
<title>Cpl::System::Signable</title>
<!-- Node1 -->
<g id="Node000001" class="node">
<title>Node1</title>
<g id="a_Node000001"><a xlink:title="This abstract class defines the interface by which a client can cause an object that is waiting&#45;on&#45;a&#45;...">
<polygon fill="#999999" stroke="#666666" points="273,-202.5 150,-202.5 150,-183.5 273,-183.5 273,-202.5"/>
<text text-anchor="middle" x="211.5" y="-190.5" font-family="Helvetica,sans-Serif" font-size="10.00">Cpl::System::Signable</text>
</a>
</g>
</g>
<!-- Node3 -->
<g id="Node000003" class="node">
<title>Node3</title>
<g id="a_Node000003"><a xlink:href="class_cpl_1_1_system_1_1_event_loop.html" target="_top" xlink:title="This concrete class is a Runnable object that provides a event driven execution model for a thread.">
<polygon fill="white" stroke="#666666" points="443.5,-259.5 311.5,-259.5 311.5,-240.5 443.5,-240.5 443.5,-259.5"/>
<text text-anchor="middle" x="377.5" y="-247.5" font-family="Helvetica,sans-Serif" font-size="10.00">Cpl::System::EventLoop</text>
</a>
</g>
</g>
<!-- Node1&#45;&gt;Node3 -->
<g id="edge2_Node000001_Node000003" class="edge">
<title>Node1&#45;&gt;Node3</title>
<g id="a_edge2_Node000001_Node000003"><a xlink:title=" ">
<path fill="none" stroke="#63b8ff" d="M249.7,-205.93C279.87,-216.42 321.73,-230.96 348.96,-240.43"/>
<polygon fill="#63b8ff" stroke="#63b8ff" points="250.54,-202.52 239.95,-202.54 248.25,-209.13 250.54,-202.52"/>
</a>
</g>
</g>
<!-- Node10 -->
<g id="Node000010" class="node">
<title>Node10</title>
<g id="a_Node000010"><a xlink:href="class_cpl_1_1_system_1_1_semaphore.html" target="_top" xlink:title="This semaphore class defines the interface for a Counting Semaphore.">
<polygon fill="white" stroke="#666666" points="446,-202.5 309,-202.5 309,-183.5 446,-183.5 446,-202.5"/>
<text text-anchor="middle" x="377.5" y="-190.5" font-family="Helvetica,sans-Serif" font-size="10.00">Cpl::System::Semaphore</text>
</a>
</g>
</g>
<!-- Node1&#45;&gt;Node10 -->
<g id="edge9_Node000001_Node000010" class="edge">
<title>Node1&#45;&gt;Node10</title>
<g id="a_edge9_Node000001_Node000010"><a xlink:title=" ">
<path fill="none" stroke="#63b8ff" d="M283.36,-193C291.86,-193 300.52,-193 308.97,-193"/>
<polygon fill="#63b8ff" stroke="#63b8ff" points="283.1,-189.5 273.1,-193 283.1,-196.5 283.1,-189.5"/>
</a>
</g>
</g>
<!-- Node11 -->
<g id="Node000011" class="node">
<title>Node11</title>
<g id="a_Node000011"><a xlink:href="class_cpl_1_1_system_1_1_thread.html" target="_top" xlink:title="This abstract class defines the operations that can be performed on a thread.">
<polygon fill="white" stroke="#666666" points="435,-144.5 320,-144.5 320,-125.5 435,-125.5 435,-144.5"/>
<text text-anchor="middle" x="377.5" y="-132.5" font-family="Helvetica,sans-Serif" font-size="10.00">Cpl::System::Thread</text>
</a>
</g>
</g>
<!-- Node1&#45;&gt;Node11 -->
<g id="edge10_Node000001_Node000011" class="edge">
<title>Node1&#45;&gt;Node11</title>
<g id="a_edge10_Node000001_Node000011"><a xlink:title=" ">
<path fill="none" stroke="#63b8ff" d="M249.38,-179.96C279.73,-169.22 322.06,-154.25 349.38,-144.59"/>
<polygon fill="#63b8ff" stroke="#63b8ff" points="247.84,-176.79 239.58,-183.42 250.18,-183.39 247.84,-176.79"/>
</a>
</g>
</g>
<!-- Node2 -->
<g id="Node000002" class="node">
<title>Node2</title>
<g id="a_Node000002"><a xlink:href="class_cpl_1_1_container_1_1_item.html" target="_top" xlink:title="This class is used by the Container classes to implement a various types of singly linked containers.">
<polygon fill="white" stroke="#666666" points="114,-202.5 0,-202.5 0,-183.5 114,-183.5 114,-202.5"/>
<text text-anchor="middle" x="57" y="-190.5" font-family="Helvetica,sans-Serif" font-size="10.00">Cpl::Container::Item</text>
</a>
</g>
</g>
<!-- Node2&#45;&gt;Node1 -->
<g id="edge1_Node000001_Node000002" class="edge">
<title>Node2&#45;&gt;Node1</title>
<g id="a_edge1_Node000001_Node000002"><a xlink:title=" ">
<path fill="none" stroke="#63b8ff" d="M124.49,-193C132.9,-193 141.46,-193 149.77,-193"/>
<polygon fill="#63b8ff" stroke="#63b8ff" points="124.35,-189.5 114.35,-193 124.35,-196.5 124.35,-189.5"/>
</a>
</g>
</g>
<!-- Node4 -->
<g id="Node000004" class="node">
<title>Node4</title>
<g id="a_Node000004"><a xlink:href="class_cpl_1_1_dm_1_1_event_loop.html" target="_top" xlink:title="This class extends the Cpl::System::EventLoop class to support the asynchronous change notification g...">
<polygon fill="white" stroke="#666666" points="604,-296.5 491,-296.5 491,-277.5 604,-277.5 604,-296.5"/>
<text text-anchor="middle" x="547.5" y="-284.5" font-family="Helvetica,sans-Serif" font-size="10.00">Cpl::Dm::EventLoop</text>
</a>
</g>
</g>
<!-- Node3&#45;&gt;Node4 -->
<g id="edge3_Node000003_Node000004" class="edge">
<title>Node3&#45;&gt;Node4</title>
<g id="a_edge3_Node000003_Node000004"><a xlink:title=" ">
<path fill="none" stroke="#63b8ff" d="M431.72,-261.72C454.72,-266.79 481.3,-272.64 503.09,-277.44"/>
<polygon fill="#63b8ff" stroke="#63b8ff" points="432.28,-258.26 421.76,-259.53 430.78,-265.1 432.28,-258.26"/>
</a>
</g>
</g>
<!-- Node8 -->
<g id="Node000008" class="node">
<title>Node8</title>
<g id="a_Node000008"><a xlink:href="class_cpl_1_1_itc_1_1_mailbox_server.html" target="_top" xlink:title="This class collects the common functions of a generic server providing a mailbox and Event loop.">
<polygon fill="white" stroke="#666666" points="611,-259.5 484,-259.5 484,-240.5 611,-240.5 611,-259.5"/>
<text text-anchor="middle" x="547.5" y="-247.5" font-family="Helvetica,sans-Serif" font-size="10.00">Cpl::Itc::MailboxServer</text>
</a>
</g>
</g>
<!-- Node3&#45;&gt;Node8 -->
<g id="edge7_Node000003_Node000008" class="edge">
<title>Node3&#45;&gt;Node8</title>
<g id="a_edge7_Node000003_Node000008"><a xlink:title=" ">
<path fill="none" stroke="#63b8ff" d="M454.23,-250C464.18,-250 474.3,-250 484,-250"/>
<polygon fill="#63b8ff" stroke="#63b8ff" points="453.93,-246.5 443.93,-250 453.93,-253.5 453.93,-246.5"/>
</a>
</g>
</g>
<!-- Node5 -->
<g id="Node000005" class="node">
<title>Node5</title>
<g id="a_Node000005"><a xlink:href="class_cpl_1_1_dm_1_1_mailbox_server.html" target="_top" xlink:title="This class extends the Cpl::Dm::EventLoop and Cpl::Itc:Mailbox classes to support the asynchronous ch...">
<polygon fill="white" stroke="#666666" points="786.5,-296.5 654.5,-296.5 654.5,-277.5 786.5,-277.5 786.5,-296.5"/>
<text text-anchor="middle" x="720.5" y="-284.5" font-family="Helvetica,sans-Serif" font-size="10.00">Cpl::Dm::MailboxServer</text>
</a>
</g>
</g>
<!-- Node4&#45;&gt;Node5 -->
<g id="edge4_Node000004_Node000005" class="edge">
<title>Node4&#45;&gt;Node5</title>
<g id="a_edge4_Node000004_Node000005"><a xlink:title=" ">
<path fill="none" stroke="#63b8ff" d="M614.39,-287C627.53,-287 641.33,-287 654.44,-287"/>
<polygon fill="#63b8ff" stroke="#63b8ff" points="614.02,-283.5 604.02,-287 614.02,-290.5 614.02,-283.5"/>
</a>
</g>
</g>
<!-- Node6 -->
<g id="Node000006" class="node">
<title>Node6</title>
<g id="a_Node000006"><a xlink:href="class_cpl_1_1_dm_1_1_periodic_scheduler.html" target="_top" xlink:title="This class extends the Cpl::Dm::MailboxServer class to add periodic scheduling to an event based &#39;thr...">
<polygon fill="white" stroke="#666666" points="981.5,-314.5 832.5,-314.5 832.5,-295.5 981.5,-295.5 981.5,-314.5"/>
<text text-anchor="middle" x="907" y="-302.5" font-family="Helvetica,sans-Serif" font-size="10.00">Cpl::Dm::PeriodicScheduler</text>
</a>
</g>
</g>
<!-- Node5&#45;&gt;Node6 -->
<g id="edge5_Node000005_Node000006" class="edge">
<title>Node5&#45;&gt;Node6</title>
<g id="a_edge5_Node000005_Node000006"><a xlink:title=" ">
<path fill="none" stroke="#63b8ff" d="M796.77,-294.34C808.54,-295.49 820.69,-296.68 832.41,-297.82"/>
<polygon fill="#63b8ff" stroke="#63b8ff" points="796.84,-290.83 786.55,-293.35 796.16,-297.8 796.84,-290.83"/>
</a>
</g>
</g>
<!-- Node7 -->
<g id="Node000007" class="node">
<title>Node7</title>
<g id="a_Node000007"><a xlink:href="class_cpl_1_1_persistent_1_1_record_server.html" target="_top" xlink:title="This concrete class provides an Event driven Runnable object for executing the read/write operation t...">
<polygon fill="white" stroke="#666666" points="986,-277.5 828,-277.5 828,-258.5 986,-258.5 986,-277.5"/>
<text text-anchor="middle" x="907" y="-265.5" font-family="Helvetica,sans-Serif" font-size="10.00">Cpl::Persistent::RecordServer</text>
</a>
</g>
</g>
<!-- Node5&#45;&gt;Node7 -->
<g id="edge6_Node000005_Node000007" class="edge">
<title>Node5&#45;&gt;Node7</title>
<g id="a_edge6_Node000005_Node000007"><a xlink:title=" ">
<path fill="none" stroke="#63b8ff" d="M796.72,-279.25C807.02,-278.19 817.6,-277.1 827.94,-276.04"/>
<polygon fill="#63b8ff" stroke="#63b8ff" points="796.14,-275.8 786.55,-280.3 796.85,-282.76 796.14,-275.8"/>
</a>
</g>
</g>
<!-- Node9 -->
<g id="Node000009" class="node">
<title>Node9</title>
<g id="a_Node000009"><a xlink:href="class_cpl_1_1_itc_1_1_periodic_scheduler.html" target="_top" xlink:title="This class extends the Cpl::Itc::MailboxServer class to add periodic scheduling to an event based &#39;th...">
<polygon fill="white" stroke="#666666" points="792,-259.5 649,-259.5 649,-240.5 792,-240.5 792,-259.5"/>
<text text-anchor="middle" x="720.5" y="-247.5" font-family="Helvetica,sans-Serif" font-size="10.00">Cpl::Itc::PeriodicScheduler</text>
</a>
</g>
</g>
<!-- Node8&#45;&gt;Node9 -->
<g id="edge8_Node000008_Node000009" class="edge">
<title>Node8&#45;&gt;Node9</title>
<g id="a_edge8_Node000008_Node000009"><a xlink:title=" ">
<path fill="none" stroke="#63b8ff" d="M621.34,-250C630.41,-250 639.67,-250 648.71,-250"/>
<polygon fill="#63b8ff" stroke="#63b8ff" points="621.2,-246.5 611.2,-250 621.2,-253.5 621.2,-246.5"/>
</a>
</g>
</g>
<!-- Node12 -->
<g id="Node000012" class="node">
<title>Node12</title>
<g id="a_Node000012"><a xlink:href="class_cpl_1_1_system_1_1_bare_metal_1_1_thread.html" target="_top" xlink:title="This concrete class implements &#39;enough&#39; of a Thread object to support Cpl::System framework on a bare...">
<polygon fill="white" stroke="#666666" points="613,-222 482,-222 482,-192 613,-192 613,-222"/>
<text text-anchor="start" x="490" y="-210" font-family="Helvetica,sans-Serif" font-size="10.00">Cpl::System::BareMetal</text>
<text text-anchor="middle" x="547.5" y="-199" font-family="Helvetica,sans-Serif" font-size="10.00">::Thread</text>
</a>
</g>
</g>
<!-- Node11&#45;&gt;Node12 -->
<g id="edge11_Node000011_Node000012" class="edge">
<title>Node11&#45;&gt;Node12</title>
<g id="a_edge11_Node000011_Node000012"><a xlink:title=" ">
<path fill="none" stroke="#63b8ff" d="M407.3,-149.09C427.91,-159 456.43,-172.33 482,-183 489.28,-186.04 497.09,-189.1 504.68,-191.98"/>
<polygon fill="#63b8ff" stroke="#63b8ff" points="408.66,-145.86 398.14,-144.67 405.62,-152.17 408.66,-145.86"/>
</a>
</g>
</g>
<!-- Node13 -->
<g id="Node000013" class="node">
<title>Node13</title>
<g id="a_Node000013"><a xlink:href="class_cpl_1_1_system_1_1_cpp11_1_1_thread.html" target="_top" xlink:title="This concrete class implements a Thread object using C++11 threads.">
<polygon fill="white" stroke="#666666" points="603.5,-174 491.5,-174 491.5,-144 603.5,-144 603.5,-174"/>
<text text-anchor="start" x="499.5" y="-162" font-family="Helvetica,sans-Serif" font-size="10.00">Cpl::System::Cpp11</text>
<text text-anchor="middle" x="547.5" y="-151" font-family="Helvetica,sans-Serif" font-size="10.00">::Thread</text>
</a>
</g>
</g>
<!-- Node11&#45;&gt;Node13 -->
<g id="edge12_Node000011_Node000013" class="edge">
<title>Node11&#45;&gt;Node13</title>
<g id="a_edge12_Node000011_Node000013"><a xlink:title=" ">
<path fill="none" stroke="#63b8ff" d="M445.29,-144.54C460.57,-146.72 476.66,-149.02 491.39,-151.13"/>
<polygon fill="#63b8ff" stroke="#63b8ff" points="445.77,-141.07 435.38,-143.13 444.78,-148 445.77,-141.07"/>
</a>
</g>
</g>
<!-- Node14 -->
<g id="Node000014" class="node">
<title>Node14</title>
<g id="a_Node000014"><a xlink:href="class_cpl_1_1_system_1_1_free_r_t_o_s_1_1_thread.html" target="_top" xlink:title="This concrete class implements a Thread object using FreeRTOS threads.">
<polygon fill="white" stroke="#666666" points="611.5,-126 483.5,-126 483.5,-96 611.5,-96 611.5,-126"/>
<text text-anchor="start" x="491.5" y="-114" font-family="Helvetica,sans-Serif" font-size="10.00">Cpl::System::FreeRTOS</text>
<text text-anchor="middle" x="547.5" y="-103" font-family="Helvetica,sans-Serif" font-size="10.00">::Thread</text>
</a>
</g>
</g>
<!-- Node11&#45;&gt;Node14 -->
<g id="edge13_Node000011_Node000014" class="edge">
<title>Node11&#45;&gt;Node14</title>
<g id="a_edge13_Node000011_Node000014"><a xlink:title=" ">
<path fill="none" stroke="#63b8ff" d="M445.3,-125.46C457.83,-123.67 470.91,-121.8 483.33,-120.02"/>
<polygon fill="#63b8ff" stroke="#63b8ff" points="444.78,-122 435.38,-126.87 445.77,-128.93 444.78,-122"/>
</a>
</g>
</g>
<!-- Node15 -->
<g id="Node000015" class="node">
<title>Node15</title>
<g id="a_Node000015"><a xlink:href="class_cpl_1_1_system_1_1_posix_1_1_thread.html" target="_top" xlink:title="This concrete class implements a Thread object using Posix threads.">
<polygon fill="white" stroke="#666666" points="601,-78 494,-78 494,-48 601,-48 601,-78"/>
<text text-anchor="start" x="502" y="-66" font-family="Helvetica,sans-Serif" font-size="10.00">Cpl::System::Posix</text>
<text text-anchor="middle" x="547.5" y="-55" font-family="Helvetica,sans-Serif" font-size="10.00">::Thread</text>
</a>
</g>
</g>
<!-- Node11&#45;&gt;Node15 -->
<g id="edge14_Node000011_Node000015" class="edge">
<title>Node11&#45;&gt;Node15</title>
<g id="a_edge14_Node000011_Node000015"><a xlink:title=" ">
<path fill="none" stroke="#63b8ff" d="M407.3,-120.91C427.91,-111 456.43,-97.67 482,-87 489.28,-83.96 497.09,-80.9 504.68,-78.02"/>
<polygon fill="#63b8ff" stroke="#63b8ff" points="405.62,-117.83 398.14,-125.33 408.66,-124.14 405.62,-117.83"/>
</a>
</g>
</g>
<!-- Node16 -->
<g id="Node000016" class="node">
<title>Node16</title>
<g id="a_Node000016"><a xlink:href="class_cpl_1_1_system_1_1_win32_1_1_thread.html" target="_top" xlink:title="This concrete class implements a Thread object using Win32 threads NOTE: The class/implementation use...">
<polygon fill="white" stroke="#666666" points="603.5,-30 491.5,-30 491.5,0 603.5,0 603.5,-30"/>
<text text-anchor="start" x="499.5" y="-18" font-family="Helvetica,sans-Serif" font-size="10.00">Cpl::System::Win32</text>
<text text-anchor="middle" x="547.5" y="-7" font-family="Helvetica,sans-Serif" font-size="10.00">::Thread</text>
</a>
</g>
</g>
<!-- Node11&#45;&gt;Node16 -->
<g id="edge15_Node000011_Node000016" class="edge">
<title>Node11&#45;&gt;Node16</title>
<g id="a_edge15_Node000011_Node000016"><a xlink:title=" ">
<path fill="none" stroke="#63b8ff" d="M393.26,-117.64C412.02,-96.54 446.26,-61.01 482,-39 487.39,-35.68 493.32,-32.7 499.32,-30.08"/>
<polygon fill="#63b8ff" stroke="#63b8ff" points="390.59,-115.39 386.65,-125.22 395.86,-119.99 390.59,-115.39"/>
</a>
</g>
</g>
</g>
</svg>
