<?xml version="1.0" encoding="UTF-8" standalone="no"?>
<!DOCTYPE svg PUBLIC "-//W3C//DTD SVG 1.1//EN"
 "http://www.w3.org/Graphics/SVG/1.1/DTD/svg11.dtd">
<!-- Generated by graphviz version 2.43.0 (0)
 -->
<!-- Title: Cpl::Dm::Mp::NumericArray_&lt; ELEMTYPE, NUMELEMS, MPTYPE &gt; Pages: 1 -->
<svg width="1598pt" height="386pt"
 viewBox="0.00 0.00 1598.00 386.00" xmlns="http://www.w3.org/2000/svg" xmlns:xlink="http://www.w3.org/1999/xlink">
<g id="graph0" class="graph" transform="scale(1 1) rotate(0) translate(4 382)">
<title>Cpl::Dm::Mp::NumericArray_&lt; ELEMTYPE, NUMELEMS, MPTYPE &gt;</title>
<!-- Node1 -->
<g id="Node000001" class="node">
<title>Node1</title>
<g id="a_Node000001"><a xlink:title="This mostly concrete template class implements an &#39;numeric Array&#39; Model Point with an element size of...">
<polygon fill="#999999" stroke="#666666" points="1019,-202.5 869,-202.5 869,-161.5 1019,-161.5 1019,-202.5"/>
<text text-anchor="start" x="877" y="-190.5" font-family="Helvetica,sans-Serif" font-size="10.00">Cpl::Dm::Mp::NumericArray</text>
<text text-anchor="start" x="877" y="-179.5" font-family="Helvetica,sans-Serif" font-size="10.00">_&lt; ELEMTYPE, NUMELEMS,</text>
<text text-anchor="middle" x="944" y="-168.5" font-family="Helvetica,sans-Serif" font-size="10.00"> MPTYPE &gt;</text>
</a>
</g>
</g>
<!-- Node7 -->
<g id="Node000007" class="node">
<title>Node7</title>
<g id="a_Node000007"><a xlink:href="class_cpl_1_1_dm_1_1_mp_1_1_numeric_array__.html" target="_top" xlink:title=" ">
<polygon fill="white" stroke="#666666" points="1378,-366 1190,-366 1190,-336 1378,-336 1378,-366"/>
<text text-anchor="start" x="1198" y="-354" font-family="Helvetica,sans-Serif" font-size="10.00">Cpl::Dm::Mp::NumericArray</text>
<text text-anchor="middle" x="1284" y="-343" font-family="Helvetica,sans-Serif" font-size="10.00">_&lt; double, N, ArrayDouble&lt; N &gt; &gt;</text>
</a>
</g>
</g>
<!-- Node1&#45;&gt;Node7 -->
<g id="edge6_Node000001_Node000007" class="edge">
<title>Node1&#45;&gt;Node7</title>
<g id="a_edge6_Node000001_Node000007"><a xlink:title=" ">
<path fill="none" stroke="orange" stroke-dasharray="5,2" d="M956.01,-212.19C969.64,-244.89 996.18,-295.76 1037,-321 1082.2,-348.94 1141.04,-356.91 1189.84,-357.67"/>
<polygon fill="orange" stroke="orange" points="959.16,-210.65 952.19,-202.67 952.66,-213.25 959.16,-210.65"/>
</a>
</g>
<text text-anchor="start" x="1039.5" y="-370" font-family="Helvetica,sans-Serif" font-size="10.00" fill="grey"> &lt; double, N, ArrayDouble</text>
<text text-anchor="middle" x="1103.5" y="-359" font-family="Helvetica,sans-Serif" font-size="10.00" fill="grey">&lt; N &gt; &gt;</text>
</g>
<!-- Node9 -->
<g id="Node000009" class="node">
<title>Node9</title>
<g id="a_Node000009"><a xlink:href="class_cpl_1_1_dm_1_1_mp_1_1_numeric_array__.html" target="_top" xlink:title=" ">
<polygon fill="white" stroke="#666666" points="1367.5,-318 1200.5,-318 1200.5,-288 1367.5,-288 1367.5,-318"/>
<text text-anchor="start" x="1208.5" y="-306" font-family="Helvetica,sans-Serif" font-size="10.00">Cpl::Dm::Mp::NumericArray</text>
<text text-anchor="middle" x="1284" y="-295" font-family="Helvetica,sans-Serif" font-size="10.00">_&lt; float, N, ArrayFloat&lt; N &gt; &gt;</text>
</a>
</g>
</g>
<!-- Node1&#45;&gt;Node9 -->
<g id="edge8_Node000001_Node000009" class="edge">
<title>Node1&#45;&gt;Node9</title>
<g id="a_edge8_Node000001_Node000009"><a xlink:title=" ">
<path fill="none" stroke="orange" stroke-dasharray="5,2" d="M965.43,-210.58C982.13,-231.58 1007.72,-258.83 1037,-273 1065.08,-286.59 1140.27,-294.41 1200.2,-298.63"/>
<polygon fill="orange" stroke="orange" points="968.14,-208.37 959.26,-202.59 962.6,-212.65 968.14,-208.37"/>
</a>
</g>
<text text-anchor="start" x="1050" y="-309" font-family="Helvetica,sans-Serif" font-size="10.00" fill="grey"> &lt; float, N, ArrayFloat</text>
<text text-anchor="middle" x="1103.5" y="-298" font-family="Helvetica,sans-Serif" font-size="10.00" fill="grey">&lt; N &gt; &gt;</text>
</g>
<!-- Node11 -->
<g id="Node000011" class="node">
<title>Node11</title>
<g id="a_Node000011"><a xlink:href="class_cpl_1_1_dm_1_1_mp_1_1_numeric_array__.html" target="_top" xlink:title=" ">
<polygon fill="white" stroke="#666666" points="1373.5,-270 1194.5,-270 1194.5,-240 1373.5,-240 1373.5,-270"/>
<text text-anchor="start" x="1202.5" y="-258" font-family="Helvetica,sans-Serif" font-size="10.00">Cpl::Dm::Mp::NumericArray</text>
<text text-anchor="middle" x="1284" y="-247" font-family="Helvetica,sans-Serif" font-size="10.00">_&lt; int32_t, N, ArrayInt32&lt; N &gt; &gt;</text>
</a>
</g>
</g>
<!-- Node1&#45;&gt;Node11 -->
<g id="edge10_Node000001_Node000011" class="edge">
<title>Node1&#45;&gt;Node11</title>
<g id="a_edge10_Node000001_Node000011"><a xlink:title=" ">
<path fill="none" stroke="orange" stroke-dasharray="5,2" d="M992.78,-207.12C1006.71,-213.53 1022.18,-219.79 1037,-224 1088.03,-238.5 1146.95,-246.22 1194.33,-250.33"/>
<polygon fill="orange" stroke="orange" points="993.94,-203.8 983.4,-202.69 990.94,-210.13 993.94,-203.8"/>
</a>
</g>
<text text-anchor="start" x="1044" y="-261" font-family="Helvetica,sans-Serif" font-size="10.00" fill="grey"> &lt; int32_t, N, ArrayInt32</text>
<text text-anchor="middle" x="1103.5" y="-250" font-family="Helvetica,sans-Serif" font-size="10.00" fill="grey">&lt; N &gt; &gt;</text>
</g>
<!-- Node13 -->
<g id="Node000013" class="node">
<title>Node13</title>
<g id="a_Node000013"><a xlink:href="class_cpl_1_1_dm_1_1_mp_1_1_numeric_array__.html" target="_top" xlink:title=" ">
<polygon fill="white" stroke="#666666" points="1373.5,-222 1194.5,-222 1194.5,-192 1373.5,-192 1373.5,-222"/>
<text text-anchor="start" x="1202.5" y="-210" font-family="Helvetica,sans-Serif" font-size="10.00">Cpl::Dm::Mp::NumericArray</text>
<text text-anchor="middle" x="1284" y="-199" font-family="Helvetica,sans-Serif" font-size="10.00">_&lt; int64_t, N, ArrayInt64&lt; N &gt; &gt;</text>
</a>
</g>
</g>
<!-- Node1&#45;&gt;Node13 -->
<g id="edge12_Node000001_Node000013" class="edge">
<title>Node1&#45;&gt;Node13</title>
<g id="a_edge12_Node000001_Node000013"><a xlink:title=" ">
<path fill="none" stroke="orange" stroke-dasharray="5,2" d="M1029.36,-188.24C1079.61,-191.96 1143.31,-196.67 1194.3,-200.44"/>
<polygon fill="orange" stroke="orange" points="1029.41,-184.73 1019.18,-187.49 1028.89,-191.71 1029.41,-184.73"/>
</a>
</g>
<text text-anchor="start" x="1044" y="-212" font-family="Helvetica,sans-Serif" font-size="10.00" fill="grey"> &lt; int64_t, N, ArrayInt64</text>
<text text-anchor="middle" x="1103.5" y="-201" font-family="Helvetica,sans-Serif" font-size="10.00" fill="grey">&lt; N &gt; &gt;</text>
</g>
<!-- Node15 -->
<g id="Node000015" class="node">
<title>Node15</title>
<g id="a_Node000015"><a xlink:href="class_cpl_1_1_dm_1_1_mp_1_1_numeric_array__.html" target="_top" xlink:title=" ">
<polygon fill="white" stroke="#666666" points="1367.5,-174 1200.5,-174 1200.5,-144 1367.5,-144 1367.5,-174"/>
<text text-anchor="start" x="1208.5" y="-162" font-family="Helvetica,sans-Serif" font-size="10.00">Cpl::Dm::Mp::NumericArray</text>
<text text-anchor="middle" x="1284" y="-151" font-family="Helvetica,sans-Serif" font-size="10.00">_&lt; int8_t, N, ArrayInt8&lt; N &gt; &gt;</text>
</a>
</g>
</g>
<!-- Node1&#45;&gt;Node15 -->
<g id="edge14_Node000001_Node000015" class="edge">
<title>Node1&#45;&gt;Node15</title>
<g id="a_edge14_Node000001_Node000015"><a xlink:title=" ">
<path fill="none" stroke="orange" stroke-dasharray="5,2" d="M1029.24,-162.99C1031.85,-162.62 1034.44,-162.29 1037,-162 1091.22,-155.84 1152.58,-155.08 1200.46,-155.87"/>
<polygon fill="orange" stroke="orange" points="1028.45,-159.57 1019.1,-164.55 1029.52,-166.48 1028.45,-159.57"/>
</a>
</g>
<text text-anchor="start" x="1050" y="-176" font-family="Helvetica,sans-Serif" font-size="10.00" fill="grey"> &lt; int8_t, N, ArrayInt8</text>
<text text-anchor="middle" x="1103.5" y="-165" font-family="Helvetica,sans-Serif" font-size="10.00" fill="grey">&lt; N &gt; &gt;</text>
</g>
<!-- Node17 -->
<g id="Node000017" class="node">
<title>Node17</title>
<g id="a_Node000017"><a xlink:href="class_cpl_1_1_dm_1_1_mp_1_1_numeric_array__.html" target="_top" xlink:title=" ">
<polygon fill="white" stroke="#666666" points="1380,-126 1188,-126 1188,-96 1380,-96 1380,-126"/>
<text text-anchor="start" x="1196" y="-114" font-family="Helvetica,sans-Serif" font-size="10.00">Cpl::Dm::Mp::NumericArray</text>
<text text-anchor="middle" x="1284" y="-103" font-family="Helvetica,sans-Serif" font-size="10.00">_&lt; uint32_t, N, ArrayUint32&lt; N &gt; &gt;</text>
</a>
</g>
</g>
<!-- Node1&#45;&gt;Node17 -->
<g id="edge16_Node000001_Node000017" class="edge">
<title>Node1&#45;&gt;Node17</title>
<g id="a_edge16_Node000001_Node000017"><a xlink:title=" ">
<path fill="none" stroke="orange" stroke-dasharray="5,2" d="M982.31,-155.98C998.41,-146.09 1017.9,-135.82 1037,-130 1085.35,-115.27 1141.39,-110.08 1187.77,-108.77"/>
<polygon fill="orange" stroke="orange" points="980.32,-153.09 973.75,-161.4 984.07,-159.01 980.32,-153.09"/>
</a>
</g>
<text text-anchor="start" x="1037" y="-144" font-family="Helvetica,sans-Serif" font-size="10.00" fill="grey"> &lt; uint32_t, N, ArrayUint32</text>
<text text-anchor="middle" x="1103.5" y="-133" font-family="Helvetica,sans-Serif" font-size="10.00" fill="grey">&lt; N &gt; &gt;</text>
</g>
<!-- Node19 -->
<g id="Node000019" class="node">
<title>Node19</title>
<g id="a_Node000019"><a xlink:href="class_cpl_1_1_dm_1_1_mp_1_1_numeric_array__.html" target="_top" xlink:title=" ">
<polygon fill="white" stroke="#666666" points="1380,-78 1188,-78 1188,-48 1380,-48 1380,-78"/>
<text text-anchor="start" x="1196" y="-66" font-family="Helvetica,sans-Serif" font-size="10.00">Cpl::Dm::Mp::NumericArray</text>
<text text-anchor="middle" x="1284" y="-55" font-family="Helvetica,sans-Serif" font-size="10.00">_&lt; uint64_t, N, ArrayUint64&lt; N &gt; &gt;</text>
</a>
</g>
</g>
<!-- Node1&#45;&gt;Node19 -->
<g id="edge18_Node000001_Node000019" class="edge">
<title>Node1&#45;&gt;Node19</title>
<g id="a_edge18_Node000001_Node000019"><a xlink:title=" ">
<path fill="none" stroke="orange" stroke-dasharray="5,2" d="M963.39,-152.88C979.69,-129.86 1005.71,-99.15 1037,-84 1083.39,-61.53 1140.48,-55.54 1187.97,-55.5"/>
<polygon fill="orange" stroke="orange" points="960.4,-151.05 957.63,-161.28 966.17,-155.01 960.4,-151.05"/>
</a>
</g>
<text text-anchor="start" x="1037" y="-98" font-family="Helvetica,sans-Serif" font-size="10.00" fill="grey"> &lt; uint64_t, N, ArrayUint64</text>
<text text-anchor="middle" x="1103.5" y="-87" font-family="Helvetica,sans-Serif" font-size="10.00" fill="grey">&lt; N &gt; &gt;</text>
</g>
<!-- Node21 -->
<g id="Node000021" class="node">
<title>Node21</title>
<g id="a_Node000021"><a xlink:href="class_cpl_1_1_dm_1_1_mp_1_1_numeric_array__.html" target="_top" xlink:title=" ">
<polygon fill="white" stroke="#666666" points="1374,-30 1194,-30 1194,0 1374,0 1374,-30"/>
<text text-anchor="start" x="1202" y="-18" font-family="Helvetica,sans-Serif" font-size="10.00">Cpl::Dm::Mp::NumericArray</text>
<text text-anchor="middle" x="1284" y="-7" font-family="Helvetica,sans-Serif" font-size="10.00">_&lt; uint8_t, N, ArrayUint8&lt; N &gt; &gt;</text>
</a>
</g>
</g>
<!-- Node1&#45;&gt;Node21 -->
<g id="edge20_Node000001_Node000021" class="edge">
<title>Node1&#45;&gt;Node21</title>
<g id="a_edge20_Node000001_Node000021"><a xlink:title=" ">
<path fill="none" stroke="orange" stroke-dasharray="5,2" d="M953.94,-151.37C966.22,-115.39 992.07,-57.16 1037,-30 1083.5,-1.89 1144.41,2.02 1193.98,-1.17"/>
<polygon fill="orange" stroke="orange" points="950.46,-150.74 950.69,-161.33 957.12,-152.91 950.46,-150.74"/>
</a>
</g>
<text text-anchor="start" x="1043" y="-44" font-family="Helvetica,sans-Serif" font-size="10.00" fill="grey"> &lt; uint8_t, N, ArrayUint8</text>
<text text-anchor="middle" x="1103.5" y="-33" font-family="Helvetica,sans-Serif" font-size="10.00" fill="grey">&lt; N &gt; &gt;</text>
</g>
<!-- Node2 -->
<g id="Node000002" class="node">
<title>Node2</title>
<g id="a_Node000002"><a xlink:href="class_cpl_1_1_dm_1_1_mp_1_1_numeric_array_base__.html" target="_top" xlink:title="This template class extends the implementation of ArrayBase_ to support the toJSON() and fromJSON_() ...">
<polygon fill="white" stroke="#666666" points="832,-197 682,-197 682,-167 832,-167 832,-197"/>
<text text-anchor="start" x="690" y="-185" font-family="Helvetica,sans-Serif" font-size="10.00">Cpl::Dm::Mp::NumericArray</text>
<text text-anchor="middle" x="757" y="-174" font-family="Helvetica,sans-Serif" font-size="10.00">Base_&lt; ELEMTYPE &gt;</text>
</a>
</g>
</g>
<!-- Node2&#45;&gt;Node1 -->
<g id="edge1_Node000001_Node000002" class="edge">
<title>Node2&#45;&gt;Node1</title>
<g id="a_edge1_Node000001_Node000002"><a xlink:title=" ">
<path fill="none" stroke="#63b8ff" d="M842.44,-182C851.24,-182 860.13,-182 868.8,-182"/>
<polygon fill="#63b8ff" stroke="#63b8ff" points="842.18,-178.5 832.18,-182 842.18,-185.5 842.18,-178.5"/>
</a>
</g>
</g>
<!-- Node3 -->
<g id="Node000003" class="node">
<title>Node3</title>
<g id="a_Node000003"><a xlink:href="class_cpl_1_1_dm_1_1_mp_1_1_array_base__.html" target="_top" xlink:title="This a mostly concrete class provides &#39;common&#39; implementation for a Model Point who&#39;s data is a array...">
<polygon fill="white" stroke="#666666" points="645,-191.5 507,-191.5 507,-172.5 645,-172.5 645,-191.5"/>
<text text-anchor="middle" x="576" y="-179.5" font-family="Helvetica,sans-Serif" font-size="10.00">Cpl::Dm::Mp::ArrayBase_</text>
</a>
</g>
</g>
<!-- Node3&#45;&gt;Node2 -->
<g id="edge2_Node000002_Node000003" class="edge">
<title>Node3&#45;&gt;Node2</title>
<g id="a_edge2_Node000002_Node000003"><a xlink:title=" ">
<path fill="none" stroke="#63b8ff" d="M655.38,-182C664.13,-182 673.04,-182 681.74,-182"/>
<polygon fill="#63b8ff" stroke="#63b8ff" points="655.18,-178.5 645.18,-182 655.18,-185.5 655.18,-178.5"/>
</a>
</g>
</g>
<!-- Node4 -->
<g id="Node000004" class="node">
<title>Node4</title>
<g id="a_Node000004"><a xlink:href="class_cpl_1_1_dm_1_1_model_point_common__.html" target="_top" xlink:title="This concrete class provide common infrastructure for a Model Point.">
<polygon fill="white" stroke="#666666" points="470,-191.5 304,-191.5 304,-172.5 470,-172.5 470,-191.5"/>
<text text-anchor="middle" x="387" y="-179.5" font-family="Helvetica,sans-Serif" font-size="10.00">Cpl::Dm::ModelPointCommon_</text>
</a>
</g>
</g>
<!-- Node4&#45;&gt;Node3 -->
<g id="edge3_Node000003_Node000004" class="edge">
<title>Node4&#45;&gt;Node3</title>
<g id="a_edge3_Node000003_Node000004"><a xlink:title=" ">
<path fill="none" stroke="#63b8ff" d="M480.13,-182C489.1,-182 498.09,-182 506.76,-182"/>
<polygon fill="#63b8ff" stroke="#63b8ff" points="480.02,-178.5 470.02,-182 480.02,-185.5 480.02,-178.5"/>
</a>
</g>
</g>
<!-- Node5 -->
<g id="Node000005" class="node">
<title>Node5</title>
<g id="a_Node000005"><a xlink:href="class_cpl_1_1_dm_1_1_model_point.html" target="_top" xlink:title="This mostly abstract class defines the interface for a Model Point.">
<polygon fill="white" stroke="#666666" points="267,-191.5 151,-191.5 151,-172.5 267,-172.5 267,-191.5"/>
<text text-anchor="middle" x="209" y="-179.5" font-family="Helvetica,sans-Serif" font-size="10.00">Cpl::Dm::ModelPoint</text>
</a>
</g>
</g>
<!-- Node5&#45;&gt;Node4 -->
<g id="edge4_Node000004_Node000005" class="edge">
<title>Node5&#45;&gt;Node4</title>
<g id="a_edge4_Node000004_Node000005"><a xlink:title=" ">
<path fill="none" stroke="#63b8ff" d="M277.23,-182C285.95,-182 294.96,-182 303.89,-182"/>
<polygon fill="#63b8ff" stroke="#63b8ff" points="277.14,-178.5 267.14,-182 277.14,-185.5 277.14,-178.5"/>
</a>
</g>
</g>
<!-- Node6 -->
<g id="Node000006" class="node">
<title>Node6</title>
<g id="a_Node000006"><a xlink:href="class_cpl_1_1_container_1_1_item.html" target="_top" xlink:title="This class is used by the Container classes to implement a various types of singly linked containers.">
<polygon fill="white" stroke="#666666" points="114,-191.5 0,-191.5 0,-172.5 114,-172.5 114,-191.5"/>
<text text-anchor="middle" x="57" y="-179.5" font-family="Helvetica,sans-Serif" font-size="10.00">Cpl::Container::Item</text>
</a>
</g>
</g>
<!-- Node6&#45;&gt;Node5 -->
<g id="edge5_Node000005_Node000006" class="edge">
<title>Node6&#45;&gt;Node5</title>
<g id="a_edge5_Node000005_Node000006"><a xlink:title=" ">
<path fill="none" stroke="#63b8ff" d="M124.51,-182C133.32,-182 142.28,-182 150.9,-182"/>
<polygon fill="#63b8ff" stroke="#63b8ff" points="124.28,-178.5 114.28,-182 124.28,-185.5 124.28,-178.5"/>
</a>
</g>
</g>
<!-- Node8 -->
<g id="Node000008" class="node">
<title>Node8</title>
<g id="a_Node000008"><a xlink:href="class_cpl_1_1_dm_1_1_mp_1_1_array_double.html" target="_top" xlink:title="double Array">
<polygon fill="white" stroke="#666666" points="1590,-360.5 1417,-360.5 1417,-341.5 1590,-341.5 1590,-360.5"/>
<text text-anchor="middle" x="1503.5" y="-348.5" font-family="Helvetica,sans-Serif" font-size="10.00">Cpl::Dm::Mp::ArrayDouble&lt; N &gt;</text>
</a>
</g>
</g>
<!-- Node7&#45;&gt;Node8 -->
<g id="edge7_Node000007_Node000008" class="edge">
<title>Node7&#45;&gt;Node8</title>
<g id="a_edge7_Node000007_Node000008"><a xlink:title=" ">
<path fill="none" stroke="#63b8ff" d="M1388.43,-351C1397.91,-351 1407.44,-351 1416.73,-351"/>
<polygon fill="#63b8ff" stroke="#63b8ff" points="1388.19,-347.5 1378.19,-351 1388.19,-354.5 1388.19,-347.5"/>
</a>
</g>
</g>
<!-- Node10 -->
<g id="Node000010" class="node">
<title>Node10</title>
<g id="a_Node000010"><a xlink:href="class_cpl_1_1_dm_1_1_mp_1_1_array_float.html" target="_top" xlink:title="float Array">
<polygon fill="white" stroke="#666666" points="1585.5,-312.5 1421.5,-312.5 1421.5,-293.5 1585.5,-293.5 1585.5,-312.5"/>
<text text-anchor="middle" x="1503.5" y="-300.5" font-family="Helvetica,sans-Serif" font-size="10.00">Cpl::Dm::Mp::ArrayFloat&lt; N &gt;</text>
</a>
</g>
</g>
<!-- Node9&#45;&gt;Node10 -->
<g id="edge9_Node000009_Node000010" class="edge">
<title>Node9&#45;&gt;Node10</title>
<g id="a_edge9_Node000009_Node000010"><a xlink:title=" ">
<path fill="none" stroke="#63b8ff" d="M1377.56,-303C1392.16,-303 1407.15,-303 1421.46,-303"/>
<polygon fill="#63b8ff" stroke="#63b8ff" points="1377.54,-299.5 1367.54,-303 1377.54,-306.5 1377.54,-299.5"/>
</a>
</g>
</g>
<!-- Node12 -->
<g id="Node000012" class="node">
<title>Node12</title>
<g id="a_Node000012"><a xlink:href="class_cpl_1_1_dm_1_1_mp_1_1_array_int32.html" target="_top" xlink:title="int32_t Array">
<polygon fill="white" stroke="#666666" points="1585.5,-264.5 1421.5,-264.5 1421.5,-245.5 1585.5,-245.5 1585.5,-264.5"/>
<text text-anchor="middle" x="1503.5" y="-252.5" font-family="Helvetica,sans-Serif" font-size="10.00">Cpl::Dm::Mp::ArrayInt32&lt; N &gt;</text>
</a>
</g>
</g>
<!-- Node11&#45;&gt;Node12 -->
<g id="edge11_Node000011_Node000012" class="edge">
<title>Node11&#45;&gt;Node12</title>
<g id="a_edge11_Node000011_Node000012"><a xlink:title=" ">
<path fill="none" stroke="#63b8ff" d="M1383.8,-255C1396.37,-255 1409.11,-255 1421.35,-255"/>
<polygon fill="#63b8ff" stroke="#63b8ff" points="1383.78,-251.5 1373.78,-255 1383.78,-258.5 1383.78,-251.5"/>
</a>
</g>
</g>
<!-- Node14 -->
<g id="Node000014" class="node">
<title>Node14</title>
<g id="a_Node000014"><a xlink:href="class_cpl_1_1_dm_1_1_mp_1_1_array_int64.html" target="_top" xlink:title="int64_t Array">
<polygon fill="white" stroke="#666666" points="1585.5,-216.5 1421.5,-216.5 1421.5,-197.5 1585.5,-197.5 1585.5,-216.5"/>
<text text-anchor="middle" x="1503.5" y="-204.5" font-family="Helvetica,sans-Serif" font-size="10.00">Cpl::Dm::Mp::ArrayInt64&lt; N &gt;</text>
</a>
</g>
</g>
<!-- Node13&#45;&gt;Node14 -->
<g id="edge13_Node000013_Node000014" class="edge">
<title>Node13&#45;&gt;Node14</title>
<g id="a_edge13_Node000013_Node000014"><a xlink:title=" ">
<path fill="none" stroke="#63b8ff" d="M1383.8,-207C1396.37,-207 1409.11,-207 1421.35,-207"/>
<polygon fill="#63b8ff" stroke="#63b8ff" points="1383.78,-203.5 1373.78,-207 1383.78,-210.5 1383.78,-203.5"/>
</a>
</g>
</g>
<!-- Node16 -->
<g id="Node000016" class="node">
<title>Node16</title>
<g id="a_Node000016"><a xlink:href="class_cpl_1_1_dm_1_1_mp_1_1_array_int8.html" target="_top" xlink:title="int8_t Array">
<polygon fill="white" stroke="#666666" points="1582.5,-168.5 1424.5,-168.5 1424.5,-149.5 1582.5,-149.5 1582.5,-168.5"/>
<text text-anchor="middle" x="1503.5" y="-156.5" font-family="Helvetica,sans-Serif" font-size="10.00">Cpl::Dm::Mp::ArrayInt8&lt; N &gt;</text>
</a>
</g>
</g>
<!-- Node15&#45;&gt;Node16 -->
<g id="edge15_Node000015_Node000016" class="edge">
<title>Node15&#45;&gt;Node16</title>
<g id="a_edge15_Node000015_Node000016"><a xlink:title=" ">
<path fill="none" stroke="#63b8ff" d="M1377.67,-159C1393.21,-159 1409.2,-159 1424.32,-159"/>
<polygon fill="#63b8ff" stroke="#63b8ff" points="1377.54,-155.5 1367.54,-159 1377.54,-162.5 1377.54,-155.5"/>
</a>
</g>
</g>
<!-- Node18 -->
<g id="Node000018" class="node">
<title>Node18</title>
<g id="a_Node000018"><a xlink:href="class_cpl_1_1_dm_1_1_mp_1_1_array_uint32.html" target="_top" xlink:title="uint32_t Array">
<polygon fill="white" stroke="#666666" points="1589,-120.5 1418,-120.5 1418,-101.5 1589,-101.5 1589,-120.5"/>
<text text-anchor="middle" x="1503.5" y="-108.5" font-family="Helvetica,sans-Serif" font-size="10.00">Cpl::Dm::Mp::ArrayUint32&lt; N &gt;</text>
</a>
</g>
</g>
<!-- Node17&#45;&gt;Node18 -->
<g id="edge17_Node000017_Node000018" class="edge">
<title>Node17&#45;&gt;Node18</title>
<g id="a_edge17_Node000017_Node000018"><a xlink:title=" ">
<path fill="none" stroke="#63b8ff" d="M1390.14,-111C1399.44,-111 1408.77,-111 1417.86,-111"/>
<polygon fill="#63b8ff" stroke="#63b8ff" points="1390.08,-107.5 1380.08,-111 1390.08,-114.5 1390.08,-107.5"/>
</a>
</g>
</g>
<!-- Node20 -->
<g id="Node000020" class="node">
<title>Node20</title>
<g id="a_Node000020"><a xlink:href="class_cpl_1_1_dm_1_1_mp_1_1_array_uint64.html" target="_top" xlink:title="uint64_t Array">
<polygon fill="white" stroke="#666666" points="1589,-72.5 1418,-72.5 1418,-53.5 1589,-53.5 1589,-72.5"/>
<text text-anchor="middle" x="1503.5" y="-60.5" font-family="Helvetica,sans-Serif" font-size="10.00">Cpl::Dm::Mp::ArrayUint64&lt; N &gt;</text>
</a>
</g>
</g>
<!-- Node19&#45;&gt;Node20 -->
<g id="edge19_Node000019_Node000020" class="edge">
<title>Node19&#45;&gt;Node20</title>
<g id="a_edge19_Node000019_Node000020"><a xlink:title=" ">
<path fill="none" stroke="#63b8ff" d="M1390.14,-63C1399.44,-63 1408.77,-63 1417.86,-63"/>
<polygon fill="#63b8ff" stroke="#63b8ff" points="1390.08,-59.5 1380.08,-63 1390.08,-66.5 1390.08,-59.5"/>
</a>
</g>
</g>
<!-- Node22 -->
<g id="Node000022" class="node">
<title>Node22</title>
<g id="a_Node000022"><a xlink:href="class_cpl_1_1_dm_1_1_mp_1_1_array_uint8.html" target="_top" xlink:title="uint8_t Array">
<polygon fill="white" stroke="#666666" points="1586,-24.5 1421,-24.5 1421,-5.5 1586,-5.5 1586,-24.5"/>
<text text-anchor="middle" x="1503.5" y="-12.5" font-family="Helvetica,sans-Serif" font-size="10.00">Cpl::Dm::Mp::ArrayUint8&lt; N &gt;</text>
</a>
</g>
</g>
<!-- Node21&#45;&gt;Node22 -->
<g id="edge21_Node000021_Node000022" class="edge">
<title>Node21&#45;&gt;Node22</title>
<g id="a_edge21_Node000021_Node000022"><a xlink:title=" ">
<path fill="none" stroke="#63b8ff" d="M1384.32,-15C1396.56,-15 1408.96,-15 1420.89,-15"/>
<polygon fill="#63b8ff" stroke="#63b8ff" points="1384.09,-11.5 1374.09,-15 1384.09,-18.5 1384.09,-11.5"/>
</a>
</g>
</g>
</g>
</svg>
