<?xml version="1.0" encoding="UTF-8" standalone="no"?>
<!DOCTYPE svg PUBLIC "-//W3C//DTD SVG 1.1//EN"
 "http://www.w3.org/Graphics/SVG/1.1/DTD/svg11.dtd">
<!-- Generated by graphviz version 2.43.0 (0)
 -->
<!-- Title: Cpl::Itc::CloseSync Pages: 1 -->
<svg width="496pt" height="149pt"
 viewBox="0.00 0.00 495.50 149.00" xmlns="http://www.w3.org/2000/svg" xmlns:xlink="http://www.w3.org/1999/xlink">
<g id="graph0" class="graph" transform="scale(1 1) rotate(0) translate(4 145)">
<title>Cpl::Itc::CloseSync</title>
<!-- Node1 -->
<g id="Node000001" class="node">
<title>Node1</title>
<g id="a_Node000001"><a xlink:title="This partially concrete class implements the synchronous ITC close call for the CloseApi.">
<polygon fill="#999999" stroke="#666666" points="350.5,-19 243.5,-19 243.5,0 350.5,0 350.5,-19"/>
<text text-anchor="middle" x="297" y="-7" font-family="Helvetica,sans-Serif" font-size="10.00">Cpl::Itc::CloseSync</text>
</a>
</g>
</g>
<!-- Node2 -->
<g id="Node000002" class="node">
<title>Node2</title>
<g id="a_Node000002"><a xlink:href="class_cpl_1_1_itc_1_1_open_sync.html" target="_top" xlink:title="This partially concrete class implements the synchronous ITC open call for the OpenApi.">
<polygon fill="white" stroke="#666666" points="229.5,-75 124.5,-75 124.5,-56 229.5,-56 229.5,-75"/>
<text text-anchor="middle" x="177" y="-63" font-family="Helvetica,sans-Serif" font-size="10.00">Cpl::Itc::OpenSync</text>
</a>
</g>
</g>
<!-- Node2&#45;&gt;Node1 -->
<g id="edge1_Node000001_Node000002" class="edge">
<title>Node2&#45;&gt;Node1</title>
<g id="a_edge1_Node000001_Node000002"><a xlink:title=" ">
<path fill="none" stroke="#63b8ff" d="M205.37,-51.73C227.82,-41.63 258.54,-27.81 278.07,-19.02"/>
<polygon fill="#63b8ff" stroke="#63b8ff" points="203.7,-48.65 196.01,-55.94 206.57,-55.03 203.7,-48.65"/>
</a>
</g>
</g>
<!-- Node3 -->
<g id="Node000003" class="node">
<title>Node3</title>
<g id="a_Node000003"><a xlink:href="class_cpl_1_1_itc_1_1_open_api.html" target="_top" xlink:title="This abstract class defines an open interface.">
<polygon fill="white" stroke="#666666" points="98,-141 0,-141 0,-122 98,-122 98,-141"/>
<text text-anchor="middle" x="49" y="-129" font-family="Helvetica,sans-Serif" font-size="10.00">Cpl::Itc::OpenApi</text>
</a>
</g>
</g>
<!-- Node3&#45;&gt;Node2 -->
<g id="edge2_Node000002_Node000003" class="edge">
<title>Node3&#45;&gt;Node2</title>
<g id="a_edge2_Node000002_Node000003"><a xlink:title=" ">
<path fill="none" stroke="#63b8ff" d="M75.28,-117.36C100.5,-104.75 137.87,-86.06 159.6,-75.2"/>
<polygon fill="#63b8ff" stroke="#63b8ff" points="73.64,-114.27 66.26,-121.87 76.77,-120.53 73.64,-114.27"/>
</a>
</g>
</g>
<!-- Node4 -->
<g id="Node000004" class="node">
<title>Node4</title>
<g id="a_Node000004"><a xlink:href="class_cpl_1_1_itc_1_1_open_request.html" target="_top" xlink:title="This abstract class define message types and payloads for a set of ITC services.">
<polygon fill="white" stroke="#666666" points="238,-141 116,-141 116,-122 238,-122 238,-141"/>
<text text-anchor="middle" x="177" y="-129" font-family="Helvetica,sans-Serif" font-size="10.00">Cpl::Itc::OpenRequest</text>
</a>
</g>
</g>
<!-- Node4&#45;&gt;Node2 -->
<g id="edge3_Node000002_Node000004" class="edge">
<title>Node4&#45;&gt;Node2</title>
<g id="a_edge3_Node000002_Node000004"><a xlink:title=" ">
<path fill="none" stroke="#63b8ff" d="M177,-111.58C177,-99.63 177,-84.72 177,-75.41"/>
<polygon fill="#63b8ff" stroke="#63b8ff" points="173.5,-111.87 177,-121.87 180.5,-111.87 173.5,-111.87"/>
</a>
</g>
</g>
<!-- Node5 -->
<g id="Node000005" class="node">
<title>Node5</title>
<g id="a_Node000005"><a xlink:href="class_cpl_1_1_itc_1_1_post_api.html" target="_top" xlink:title="This abstract class represents the interface used to send messages to a mailbox.">
<polygon fill="white" stroke="#666666" points="349.5,-141 256.5,-141 256.5,-122 349.5,-122 349.5,-141"/>
<text text-anchor="middle" x="303" y="-129" font-family="Helvetica,sans-Serif" font-size="10.00">Cpl::Itc::PostApi</text>
</a>
</g>
</g>
<!-- Node5&#45;&gt;Node2 -->
<g id="edge4_Node000002_Node000005" class="edge">
<title>Node5&#45;&gt;Node2</title>
<g id="a_edge4_Node000002_Node000005"><a xlink:title=" ">
<path fill="none" stroke="#9a32cd" stroke-dasharray="5,2" d="M276.81,-117.19C251.98,-104.59 215.42,-86.01 194.13,-75.2"/>
<polygon fill="#9a32cd" stroke="#9a32cd" points="275.51,-120.46 286.01,-121.87 278.68,-114.22 275.51,-120.46"/>
</a>
</g>
<text text-anchor="middle" x="271" y="-96" font-family="Helvetica,sans-Serif" font-size="10.00" fill="grey"> m_mbox</text>
</g>
<!-- Node6 -->
<g id="Node000006" class="node">
<title>Node6</title>
<g id="a_Node000006"><a xlink:href="class_cpl_1_1_itc_1_1_close_api.html" target="_top" xlink:title="This abstract class defines an close interface.">
<polygon fill="white" stroke="#666666" points="346.5,-75 247.5,-75 247.5,-56 346.5,-56 346.5,-75"/>
<text text-anchor="middle" x="297" y="-63" font-family="Helvetica,sans-Serif" font-size="10.00">Cpl::Itc::CloseApi</text>
</a>
</g>
</g>
<!-- Node6&#45;&gt;Node1 -->
<g id="edge5_Node000001_Node000006" class="edge">
<title>Node6&#45;&gt;Node1</title>
<g id="a_edge5_Node000001_Node000006"><a xlink:title=" ">
<path fill="none" stroke="#63b8ff" d="M297,-45.3C297,-36.41 297,-26.28 297,-19.25"/>
<polygon fill="#63b8ff" stroke="#63b8ff" points="293.5,-45.58 297,-55.58 300.5,-45.58 293.5,-45.58"/>
</a>
</g>
</g>
<!-- Node7 -->
<g id="Node000007" class="node">
<title>Node7</title>
<g id="a_Node000007"><a xlink:href="class_cpl_1_1_itc_1_1_close_request.html" target="_top" xlink:title="This abstract class define message types and payloads for a set of ITC services.">
<polygon fill="white" stroke="#666666" points="487.5,-75 364.5,-75 364.5,-56 487.5,-56 487.5,-75"/>
<text text-anchor="middle" x="426" y="-63" font-family="Helvetica,sans-Serif" font-size="10.00">Cpl::Itc::CloseRequest</text>
</a>
</g>
</g>
<!-- Node7&#45;&gt;Node1 -->
<g id="edge6_Node000001_Node000007" class="edge">
<title>Node7&#45;&gt;Node1</title>
<g id="a_edge6_Node000001_Node000007"><a xlink:title=" ">
<path fill="none" stroke="#63b8ff" d="M396.15,-52C371.96,-41.88 338.54,-27.89 317.34,-19.02"/>
<polygon fill="#63b8ff" stroke="#63b8ff" points="394.98,-55.31 405.56,-55.94 397.69,-48.85 394.98,-55.31"/>
</a>
</g>
</g>
</g>
</svg>
