<?xml version="1.0" encoding="UTF-8" standalone="no"?>
<!DOCTYPE svg PUBLIC "-//W3C//DTD SVG 1.1//EN"
 "http://www.w3.org/Graphics/SVG/1.1/DTD/svg11.dtd">
<!-- Generated by graphviz version 2.43.0 (0)
 -->
<!-- Title: Cpl::Persistent::IndexedEntryRecord Pages: 1 -->
<svg width="284pt" height="148pt"
 viewBox="0.00 0.00 284.00 148.00" xmlns="http://www.w3.org/2000/svg" xmlns:xlink="http://www.w3.org/1999/xlink">
<g id="graph0" class="graph" transform="scale(1 1) rotate(0) translate(4 144)">
<title>Cpl::Persistent::IndexedEntryRecord</title>
<!-- Node1 -->
<g id="Node000001" class="node">
<title>Node1</title>
<g id="a_Node000001"><a xlink:title="This concrete class implements the Cpl::Persistent::Record interface to store a collection &#39;entries&#39;.">
<polygon fill="#999999" stroke="#666666" points="202,-30 71,-30 71,0 202,0 202,-30"/>
<text text-anchor="start" x="79" y="-18" font-family="Helvetica,sans-Serif" font-size="10.00">Cpl::Persistent::Indexed</text>
<text text-anchor="middle" x="136.5" y="-7" font-family="Helvetica,sans-Serif" font-size="10.00">EntryRecord</text>
</a>
</g>
</g>
<!-- Node2 -->
<g id="Node000002" class="node">
<title>Node2</title>
<g id="a_Node000002"><a xlink:href="class_cpl_1_1_persistent_1_1_data_record.html" target="_top" xlink:title="This mostly concrete class implements the Cpl::Persistent::DataRecord interface where a DataRecord in...">
<polygon fill="white" stroke="#666666" points="211.5,-85 61.5,-85 61.5,-66 211.5,-66 211.5,-85"/>
<text text-anchor="middle" x="136.5" y="-73" font-family="Helvetica,sans-Serif" font-size="10.00">Cpl::Persistent::DataRecord</text>
</a>
</g>
</g>
<!-- Node2&#45;&gt;Node1 -->
<g id="edge1_Node000001_Node000002" class="edge">
<title>Node2&#45;&gt;Node1</title>
<g id="a_edge1_Node000001_Node000002"><a xlink:title=" ">
<path fill="none" stroke="#63b8ff" d="M136.5,-55.65C136.5,-47.36 136.5,-37.78 136.5,-30.11"/>
<polygon fill="#63b8ff" stroke="#63b8ff" points="133,-55.87 136.5,-65.87 140,-55.87 133,-55.87"/>
</a>
</g>
</g>
<!-- Node3 -->
<g id="Node000003" class="node">
<title>Node3</title>
<g id="a_Node000003"><a xlink:href="class_cpl_1_1_persistent_1_1_record.html" target="_top" xlink:title="This abstract class defines the public interface for a Record instance.">
<polygon fill="white" stroke="#666666" points="127,-140 0,-140 0,-121 127,-121 127,-140"/>
<text text-anchor="middle" x="63.5" y="-128" font-family="Helvetica,sans-Serif" font-size="10.00">Cpl::Persistent::Record</text>
</a>
</g>
</g>
<!-- Node3&#45;&gt;Node2 -->
<g id="edge2_Node000002_Node000003" class="edge">
<title>Node3&#45;&gt;Node2</title>
<g id="a_edge2_Node000002_Node000003"><a xlink:title=" ">
<path fill="none" stroke="#63b8ff" d="M83.64,-114.88C96.78,-105.34 113.48,-93.21 124.56,-85.17"/>
<polygon fill="#63b8ff" stroke="#63b8ff" points="81.26,-112.28 75.23,-120.98 85.38,-117.94 81.26,-112.28"/>
</a>
</g>
</g>
<!-- Node4 -->
<g id="Node000004" class="node">
<title>Node4</title>
<g id="a_Node000004"><a xlink:href="class_cpl_1_1_persistent_1_1_payload.html" target="_top" xlink:title="This abstract class defines the interface accessing the &#39;data payload&#39; of an individual Record instan...">
<polygon fill="white" stroke="#666666" points="276,-140 145,-140 145,-121 276,-121 276,-140"/>
<text text-anchor="middle" x="210.5" y="-128" font-family="Helvetica,sans-Serif" font-size="10.00">Cpl::Persistent::Payload</text>
</a>
</g>
</g>
<!-- Node4&#45;&gt;Node2 -->
<g id="edge3_Node000002_Node000004" class="edge">
<title>Node4&#45;&gt;Node2</title>
<g id="a_edge3_Node000002_Node000004"><a xlink:title=" ">
<path fill="none" stroke="#63b8ff" d="M190.47,-115.15C177.09,-105.57 159.94,-93.29 148.61,-85.17"/>
<polygon fill="#63b8ff" stroke="#63b8ff" points="188.44,-118.01 198.61,-120.98 192.52,-112.32 188.44,-118.01"/>
</a>
</g>
</g>
</g>
</svg>
