<?xml version="1.0" encoding="UTF-8" standalone="no"?>
<!DOCTYPE svg PUBLIC "-//W3C//DTD SVG 1.1//EN"
 "http://www.w3.org/Graphics/SVG/1.1/DTD/svg11.dtd">
<!-- Generated by graphviz version 2.43.0 (0)
 -->
<!-- Title: Cpl::Dm::EventLoop Pages: 1 -->
<svg width="1323pt" height="345pt"
 viewBox="0.00 0.00 1323.00 344.50" xmlns="http://www.w3.org/2000/svg" xmlns:xlink="http://www.w3.org/1999/xlink">
<g id="graph0" class="graph" transform="scale(1 1) rotate(0) translate(4 340.5)">
<title>Cpl::Dm::EventLoop</title>
<!-- Node1 -->
<g id="Node000001" class="node">
<title>Node1</title>
<g id="a_Node000001"><a xlink:title="This class extends the Cpl::System::EventLoop class to support the asynchronous change notification g...">
<polygon fill="#999999" stroke="#666666" points="1315,-57 1202,-57 1202,-38 1315,-38 1315,-57"/>
<text text-anchor="middle" x="1258.5" y="-45" font-family="Helvetica,sans-Serif" font-size="10.00">Cpl::Dm::EventLoop</text>
</a>
</g>
</g>
<!-- Node2 -->
<g id="Node000002" class="node">
<title>Node2</title>
<g id="a_Node000002"><a xlink:href="class_cpl_1_1_system_1_1_event_loop.html" target="_top" xlink:title="This concrete class is a Runnable object that provides a event driven execution model for a thread.">
<polygon fill="white" stroke="#666666" points="1161.5,-197 1029.5,-197 1029.5,-178 1161.5,-178 1161.5,-197"/>
<text text-anchor="middle" x="1095.5" y="-185" font-family="Helvetica,sans-Serif" font-size="10.00">Cpl::System::EventLoop</text>
</a>
</g>
</g>
<!-- Node2&#45;&gt;Node1 -->
<g id="edge1_Node000001_Node000002" class="edge">
<title>Node2&#45;&gt;Node1</title>
<g id="a_edge1_Node000001_Node000002"><a xlink:title=" ">
<path fill="none" stroke="#63b8ff" d="M1115.34,-171.12C1149.15,-141.72 1219.16,-80.84 1246.36,-57.19"/>
<polygon fill="#63b8ff" stroke="#63b8ff" points="1112.82,-168.67 1107.57,-177.88 1117.41,-173.96 1112.82,-168.67"/>
</a>
</g>
</g>
<!-- Node3 -->
<g id="Node000003" class="node">
<title>Node3</title>
<g id="a_Node000003"><a xlink:href="class_cpl_1_1_system_1_1_runnable.html" target="_top" xlink:title="This is an abstract class defines the interface for an object that is &quot;executed&quot; when a Thread object...">
<polygon fill="white" stroke="#666666" points="843.5,-288 716.5,-288 716.5,-269 843.5,-269 843.5,-288"/>
<text text-anchor="middle" x="780" y="-276" font-family="Helvetica,sans-Serif" font-size="10.00">Cpl::System::Runnable</text>
</a>
</g>
</g>
<!-- Node3&#45;&gt;Node2 -->
<g id="edge2_Node000002_Node000003" class="edge">
<title>Node3&#45;&gt;Node2</title>
<g id="a_edge2_Node000002_Node000003"><a xlink:title=" ">
<path fill="none" stroke="#63b8ff" d="M853.96,-273.98C899.43,-269.38 958.49,-260.13 1008,-241.5 1037,-230.59 1066.77,-209.36 1082.71,-197.02"/>
<polygon fill="#63b8ff" stroke="#63b8ff" points="853.51,-270.51 843.89,-274.94 854.18,-277.48 853.51,-270.51"/>
</a>
</g>
</g>
<!-- Node4 -->
<g id="Node000004" class="node">
<title>Node4</title>
<g id="a_Node000004"><a xlink:href="class_cpl_1_1_system_1_1_event_flag.html" target="_top" xlink:title="This abstract class defines the interface to generated a &#39;Event Flag&#39;.">
<polygon fill="white" stroke="#666666" points="845,-251 715,-251 715,-232 845,-232 845,-251"/>
<text text-anchor="middle" x="780" y="-239" font-family="Helvetica,sans-Serif" font-size="10.00">Cpl::System::EventFlag</text>
</a>
</g>
</g>
<!-- Node4&#45;&gt;Node2 -->
<g id="edge3_Node000002_Node000004" class="edge">
<title>Node4&#45;&gt;Node2</title>
<g id="a_edge3_Node000002_Node000004"><a xlink:title=" ">
<path fill="none" stroke="#63b8ff" d="M855.42,-237.93C900.07,-234.72 957.76,-228.71 1008,-217.5 1030.03,-212.58 1054.23,-203.89 1071.42,-197.12"/>
<polygon fill="#63b8ff" stroke="#63b8ff" points="854.97,-234.45 845.23,-238.63 855.45,-241.43 854.97,-234.45"/>
</a>
</g>
</g>
<!-- Node5 -->
<g id="Node000005" class="node">
<title>Node5</title>
<g id="a_Node000005"><a xlink:href="class_cpl_1_1_system_1_1_signable.html" target="_top" xlink:title="This abstract class defines the interface by which a client can cause an object that is waiting&#45;on&#45;a&#45;...">
<polygon fill="white" stroke="#666666" points="484,-182 361,-182 361,-163 484,-163 484,-182"/>
<text text-anchor="middle" x="422.5" y="-170" font-family="Helvetica,sans-Serif" font-size="10.00">Cpl::System::Signable</text>
</a>
</g>
</g>
<!-- Node5&#45;&gt;Node2 -->
<g id="edge4_Node000002_Node000005" class="edge">
<title>Node5&#45;&gt;Node2</title>
<g id="a_edge4_Node000002_Node000005"><a xlink:title=" ">
<path fill="none" stroke="#63b8ff" d="M494.37,-180.36C507.85,-181.61 521.85,-182.74 535,-183.5 713.68,-193.88 924.98,-191.39 1029.39,-189.18"/>
<polygon fill="#63b8ff" stroke="#63b8ff" points="494.48,-176.85 484.19,-179.38 493.81,-183.82 494.48,-176.85"/>
</a>
</g>
</g>
<!-- Node11 -->
<g id="Node000011" class="node">
<title>Node11</title>
<g id="a_Node000011"><a xlink:href="class_cpl_1_1_system_1_1_thread.html" target="_top" xlink:title="This abstract class defines the operations that can be performed on a thread.">
<polygon fill="white" stroke="#666666" points="837.5,-175 722.5,-175 722.5,-156 837.5,-156 837.5,-175"/>
<text text-anchor="middle" x="780" y="-163" font-family="Helvetica,sans-Serif" font-size="10.00">Cpl::System::Thread</text>
</a>
</g>
</g>
<!-- Node5&#45;&gt;Node11 -->
<g id="edge11_Node000011_Node000005" class="edge">
<title>Node5&#45;&gt;Node11</title>
<g id="a_edge11_Node000011_Node000005"><a xlink:title=" ">
<path fill="none" stroke="#63b8ff" d="M494.26,-171.11C561.23,-169.79 660.47,-167.83 722.36,-166.62"/>
<polygon fill="#63b8ff" stroke="#63b8ff" points="494.14,-167.61 484.21,-171.3 494.28,-174.61 494.14,-167.61"/>
</a>
</g>
</g>
<!-- Node13 -->
<g id="Node000013" class="node">
<title>Node13</title>
<g id="a_Node000013"><a xlink:href="class_cpl_1_1_system_1_1_semaphore.html" target="_top" xlink:title="This semaphore class defines the interface for a Counting Semaphore.">
<polygon fill="white" stroke="#666666" points="848.5,-138 711.5,-138 711.5,-119 848.5,-119 848.5,-138"/>
<text text-anchor="middle" x="780" y="-126" font-family="Helvetica,sans-Serif" font-size="10.00">Cpl::System::Semaphore</text>
</a>
</g>
</g>
<!-- Node5&#45;&gt;Node13 -->
<g id="edge14_Node000013_Node000005" class="edge">
<title>Node5&#45;&gt;Node13</title>
<g id="a_edge14_Node000013_Node000005"><a xlink:title=" ">
<path fill="none" stroke="#63b8ff" d="M494.47,-163.72C557.56,-155.91 649.17,-144.57 711.27,-136.88"/>
<polygon fill="#63b8ff" stroke="#63b8ff" points="493.7,-160.28 484.21,-164.99 494.56,-167.23 493.7,-160.28"/>
</a>
</g>
</g>
<!-- Node6 -->
<g id="Node000006" class="node">
<title>Node6</title>
<g id="a_Node000006"><a xlink:href="class_cpl_1_1_container_1_1_item.html" target="_top" xlink:title="This class is used by the Container classes to implement a various types of singly linked containers.">
<polygon fill="white" stroke="#666666" points="115,-182 1,-182 1,-163 115,-163 115,-182"/>
<text text-anchor="middle" x="58" y="-170" font-family="Helvetica,sans-Serif" font-size="10.00">Cpl::Container::Item</text>
</a>
</g>
</g>
<!-- Node6&#45;&gt;Node5 -->
<g id="edge5_Node000005_Node000006" class="edge">
<title>Node6&#45;&gt;Node5</title>
<g id="a_edge5_Node000005_Node000006"><a xlink:title=" ">
<path fill="none" stroke="#63b8ff" d="M125.31,-172.5C192.56,-172.5 295.76,-172.5 360.89,-172.5"/>
<polygon fill="#63b8ff" stroke="#63b8ff" points="125.24,-169 115.24,-172.5 125.24,-176 125.24,-169"/>
</a>
</g>
</g>
<!-- Node7 -->
<g id="Node000007" class="node">
<title>Node7</title>
<g id="a_Node000007"><a xlink:href="class_cpl_1_1_system_1_1_timer_manager.html" target="_top" xlink:title="This mostly concrete class implements manages a list of Software Timers.">
<polygon fill="white" stroke="#666666" points="856,-101 704,-101 704,-82 856,-82 856,-101"/>
<text text-anchor="middle" x="780" y="-89" font-family="Helvetica,sans-Serif" font-size="10.00">Cpl::System::TimerManager</text>
</a>
</g>
</g>
<!-- Node7&#45;&gt;Node2 -->
<g id="edge6_Node000002_Node000007" class="edge">
<title>Node7&#45;&gt;Node2</title>
<g id="a_edge6_Node000002_Node000007"><a xlink:title=" ">
<path fill="none" stroke="#63b8ff" d="M866.13,-98.35C909.7,-103.87 962.91,-113.78 1008,-131.5 1037.3,-143.02 1067.2,-165.17 1083.02,-177.89"/>
<polygon fill="#63b8ff" stroke="#63b8ff" points="866.48,-94.87 856.13,-97.14 865.64,-101.82 866.48,-94.87"/>
</a>
</g>
</g>
<!-- Node8 -->
<g id="Node000008" class="node">
<title>Node8</title>
<g id="a_Node000008"><a xlink:href="class_cpl_1_1_system_1_1_counter_source__.html" target="_top" xlink:title="This abstract class defines the interface for registering for an Counter object with the Timer Manage...">
<polygon fill="white" stroke="#666666" points="501.5,-134 343.5,-134 343.5,-115 501.5,-115 501.5,-134"/>
<text text-anchor="middle" x="422.5" y="-122" font-family="Helvetica,sans-Serif" font-size="10.00">Cpl::System::CounterSource_</text>
</a>
</g>
</g>
<!-- Node8&#45;&gt;Node7 -->
<g id="edge7_Node000007_Node000008" class="edge">
<title>Node8&#45;&gt;Node7</title>
<g id="a_edge7_Node000007_Node000008"><a xlink:title=" ">
<path fill="none" stroke="#63b8ff" d="M511.56,-121.77C562.63,-119.53 628.1,-115.53 686,-108.5 701.32,-106.64 717.92,-103.85 732.81,-101.07"/>
<polygon fill="#63b8ff" stroke="#63b8ff" points="511.38,-118.27 501.54,-122.19 511.68,-125.27 511.38,-118.27"/>
</a>
</g>
</g>
<!-- Node9 -->
<g id="Node000009" class="node">
<title>Node9</title>
<g id="a_Node000009"><a xlink:href="class_cpl_1_1_container_1_1_d_list.html" target="_top" xlink:title=" ">
<polygon fill="white" stroke="#666666" points="517,-96.5 328,-96.5 328,-66.5 517,-66.5 517,-96.5"/>
<text text-anchor="start" x="336" y="-84.5" font-family="Helvetica,sans-Serif" font-size="10.00">Cpl::Container::DList</text>
<text text-anchor="middle" x="422.5" y="-73.5" font-family="Helvetica,sans-Serif" font-size="10.00">&lt; Cpl::System::CounterCallback_ &gt;</text>
</a>
</g>
</g>
<!-- Node9&#45;&gt;Node7 -->
<g id="edge8_Node000007_Node000009" class="edge">
<title>Node9&#45;&gt;Node7</title>
<g id="a_edge8_Node000007_Node000009"><a xlink:title=" ">
<path fill="none" stroke="#9a32cd" stroke-dasharray="5,2" d="M527.21,-82.65C575.49,-83.39 633.69,-84.6 686,-86.5 691.82,-86.71 697.84,-86.96 703.89,-87.24"/>
<polygon fill="#9a32cd" stroke="#9a32cd" points="527.12,-79.15 517.07,-82.5 527.01,-86.15 527.12,-79.15"/>
</a>
</g>
<text text-anchor="middle" x="610.5" y="-100.5" font-family="Helvetica,sans-Serif" font-size="10.00" fill="grey"> m_counters</text>
<text text-anchor="middle" x="610.5" y="-89.5" font-family="Helvetica,sans-Serif" font-size="10.00" fill="grey">m_pendingAttach</text>
</g>
<!-- Node10 -->
<g id="Node000010" class="node">
<title>Node10</title>
<g id="a_Node000010"><a xlink:href="class_cpl_1_1_container_1_1_d_list.html" target="_top" xlink:title="This template class implements a Doubly linked list which maintains the ordering imposed on it by the...">
<polygon fill="white" stroke="#666666" points="116,-73.5 0,-73.5 0,-43.5 116,-43.5 116,-73.5"/>
<text text-anchor="start" x="8" y="-61.5" font-family="Helvetica,sans-Serif" font-size="10.00">Cpl::Container::DList</text>
<text text-anchor="middle" x="58" y="-50.5" font-family="Helvetica,sans-Serif" font-size="10.00">&lt; ITEM &gt;</text>
</a>
</g>
</g>
<!-- Node10&#45;&gt;Node9 -->
<g id="edge9_Node000009_Node000010" class="edge">
<title>Node10&#45;&gt;Node9</title>
<g id="a_edge9_Node000009_Node000010"><a xlink:title=" ">
<path fill="none" stroke="orange" stroke-dasharray="5,2" d="M126.32,-62.77C183,-66.37 264.69,-71.55 327.77,-75.55"/>
<polygon fill="orange" stroke="orange" points="126.24,-59.26 116.04,-62.12 125.8,-66.25 126.24,-59.26"/>
</a>
</g>
<text text-anchor="middle" x="222" y="-77.5" font-family="Helvetica,sans-Serif" font-size="10.00" fill="grey"> &lt; Cpl::System::CounterCallback_ &gt;</text>
</g>
<!-- Node15 -->
<g id="Node000015" class="node">
<title>Node15</title>
<g id="a_Node000015"><a xlink:href="class_cpl_1_1_container_1_1_d_list.html" target="_top" xlink:title=" ">
<polygon fill="white" stroke="#666666" points="686,-55.5 535,-55.5 535,-25.5 686,-25.5 686,-55.5"/>
<text text-anchor="start" x="543" y="-43.5" font-family="Helvetica,sans-Serif" font-size="10.00">Cpl::Container::DList</text>
<text text-anchor="middle" x="610.5" y="-32.5" font-family="Helvetica,sans-Serif" font-size="10.00">&lt; Cpl::Dm::SubscriberApi &gt;</text>
</a>
</g>
</g>
<!-- Node10&#45;&gt;Node15 -->
<g id="edge17_Node000015_Node000010" class="edge">
<title>Node10&#45;&gt;Node15</title>
<g id="a_edge17_Node000015_Node000010"><a xlink:title=" ">
<path fill="none" stroke="orange" stroke-dasharray="5,2" d="M126.32,-49.15C128.91,-48.91 131.48,-48.69 134,-48.5 275.41,-37.92 441.1,-37.93 534.84,-39.09"/>
<polygon fill="orange" stroke="orange" points="125.85,-45.68 116.26,-50.17 126.56,-52.64 125.85,-45.68"/>
</a>
</g>
<text text-anchor="middle" x="222" y="-51.5" font-family="Helvetica,sans-Serif" font-size="10.00" fill="grey"> &lt; Cpl::Dm::SubscriberApi &gt;</text>
</g>
<!-- Node11&#45;&gt;Node2 -->
<g id="edge10_Node000002_Node000011" class="edge">
<title>Node11&#45;&gt;Node2</title>
<g id="a_edge10_Node000002_Node000011"><a xlink:title=" ">
<path fill="none" stroke="#9a32cd" stroke-dasharray="5,2" d="M848.22,-168.53C893.43,-170.77 954.34,-174.17 1008,-178.5 1014.92,-179.06 1022.15,-179.71 1029.35,-180.39"/>
<polygon fill="#9a32cd" stroke="#9a32cd" points="848.12,-165.02 837.96,-168.03 847.77,-172.01 848.12,-165.02"/>
</a>
</g>
<text text-anchor="middle" x="941" y="-181.5" font-family="Helvetica,sans-Serif" font-size="10.00" fill="grey"> m_myThreadPtr</text>
</g>
<!-- Node12 -->
<g id="Node000012" class="node">
<title>Node12</title>
<g id="a_Node000012"><a xlink:href="class_cpl_1_1_system_1_1_shared_event_handler_api.html" target="_top" xlink:title="This abstract class defines the interface for a Shared Event Handler.">
<polygon fill="white" stroke="#666666" points="851.5,-336.5 708.5,-336.5 708.5,-306.5 851.5,-306.5 851.5,-336.5"/>
<text text-anchor="start" x="716.5" y="-324.5" font-family="Helvetica,sans-Serif" font-size="10.00">Cpl::System::SharedEvent</text>
<text text-anchor="middle" x="780" y="-313.5" font-family="Helvetica,sans-Serif" font-size="10.00">HandlerApi</text>
</a>
</g>
</g>
<!-- Node12&#45;&gt;Node2 -->
<g id="edge12_Node000002_Node000012" class="edge">
<title>Node12&#45;&gt;Node2</title>
<g id="a_edge12_Node000002_Node000012"><a xlink:title=" ">
<path fill="none" stroke="#9a32cd" stroke-dasharray="5,2" d="M861.76,-314.14C906.88,-307.45 962.93,-294.71 1008,-270.5 1043.02,-251.69 1073.93,-214.75 1087.38,-197.2"/>
<polygon fill="#9a32cd" stroke="#9a32cd" points="861.13,-310.69 851.72,-315.56 862.11,-317.62 861.13,-310.69"/>
</a>
</g>
<text text-anchor="middle" x="941" y="-314.5" font-family="Helvetica,sans-Serif" font-size="10.00" fill="grey"> m_eventHandler</text>
</g>
<!-- Node13&#45;&gt;Node2 -->
<g id="edge13_Node000002_Node000013" class="edge">
<title>Node13&#45;&gt;Node2</title>
<g id="a_edge13_Node000002_Node000013"><a xlink:title=" ">
<path fill="none" stroke="#9a32cd" stroke-dasharray="5,2" d="M858.88,-133.2C903.07,-137 959.14,-143.73 1008,-155.5 1030.73,-160.97 1055.67,-170.61 1072.9,-177.88"/>
<polygon fill="#9a32cd" stroke="#9a32cd" points="859.04,-129.7 848.78,-132.36 858.46,-136.68 859.04,-129.7"/>
</a>
</g>
<text text-anchor="middle" x="941" y="-158.5" font-family="Helvetica,sans-Serif" font-size="10.00" fill="grey"> m_sema</text>
</g>
<!-- Node14 -->
<g id="Node000014" class="node">
<title>Node14</title>
<g id="a_Node000014"><a xlink:href="class_cpl_1_1_dm_1_1_notification_api__.html" target="_top" xlink:title="This class has PACKAGE Scope, i.e.">
<polygon fill="white" stroke="#666666" points="1165,-19 1026,-19 1026,0 1165,0 1165,-19"/>
<text text-anchor="middle" x="1095.5" y="-7" font-family="Helvetica,sans-Serif" font-size="10.00">Cpl::Dm::NotificationApi_</text>
</a>
</g>
</g>
<!-- Node14&#45;&gt;Node1 -->
<g id="edge15_Node000001_Node000014" class="edge">
<title>Node14&#45;&gt;Node1</title>
<g id="a_edge15_Node000001_Node000014"><a xlink:title=" ">
<path fill="none" stroke="#63b8ff" d="M1146.9,-21.4C1169.53,-26.74 1195.87,-32.95 1217.17,-37.98"/>
<polygon fill="#63b8ff" stroke="#63b8ff" points="1147.66,-17.98 1137.13,-19.09 1146.06,-24.79 1147.66,-17.98"/>
</a>
</g>
</g>
<!-- Node15&#45;&gt;Node1 -->
<g id="edge16_Node000001_Node000015" class="edge">
<title>Node15&#45;&gt;Node1</title>
<g id="a_edge16_Node000001_Node000015"><a xlink:title=" ">
<path fill="none" stroke="#9a32cd" stroke-dasharray="5,2" d="M696.48,-41.42C830.78,-42.88 1088.47,-45.67 1201.75,-46.9"/>
<polygon fill="#9a32cd" stroke="#9a32cd" points="696.27,-37.92 686.24,-41.31 696.2,-44.92 696.27,-37.92"/>
</a>
</g>
<text text-anchor="middle" x="941" y="-48.5" font-family="Helvetica,sans-Serif" font-size="10.00" fill="grey"> m_pendingMpNotifications</text>
</g>
</g>
</svg>
