<?xml version="1.0" encoding="UTF-8" standalone="no"?>
<!DOCTYPE svg PUBLIC "-//W3C//DTD SVG 1.1//EN"
 "http://www.w3.org/Graphics/SVG/1.1/DTD/svg11.dtd">
<!-- Generated by graphviz version 2.43.0 (0)
 -->
<!-- Title: Cpl::Io::AtomicOutputApi&lt; CONTEXT &gt; Pages: 1 -->
<svg width="203pt" height="269pt"
 viewBox="0.00 0.00 202.50 269.00" xmlns="http://www.w3.org/2000/svg" xmlns:xlink="http://www.w3.org/1999/xlink">
<g id="graph0" class="graph" transform="scale(1 1) rotate(0) translate(4 265)">
<title>Cpl::Io::AtomicOutputApi&lt; CONTEXT &gt;</title>
<!-- Node1 -->
<g id="Node000001" class="node">
<title>Node1</title>
<g id="a_Node000001"><a xlink:title="This abstract template class defines a interface for an Atomic outputs to a stream.">
<polygon fill="#999999" stroke="#666666" points="174.5,-96 37.5,-96 37.5,-66 174.5,-66 174.5,-96"/>
<text text-anchor="start" x="45.5" y="-84" font-family="Helvetica,sans-Serif" font-size="10.00">Cpl::Io::AtomicOutputApi</text>
<text text-anchor="middle" x="106" y="-73" font-family="Helvetica,sans-Serif" font-size="10.00">&lt; CONTEXT &gt;</text>
</a>
</g>
</g>
<!-- Node6 -->
<g id="Node000006" class="node">
<title>Node6</title>
<g id="a_Node000006"><a xlink:href="class_cpl_1_1_io_1_1_atomic_output.html" target="_top" xlink:title="This concrete template class implements the AtomicOutputApi using a mutex to enforce the &#39;atomic&#45;ness...">
<polygon fill="white" stroke="#666666" points="166.5,-30 45.5,-30 45.5,0 166.5,0 166.5,-30"/>
<text text-anchor="start" x="53.5" y="-18" font-family="Helvetica,sans-Serif" font-size="10.00">Cpl::Io::AtomicOutput</text>
<text text-anchor="middle" x="106" y="-7" font-family="Helvetica,sans-Serif" font-size="10.00">&lt; CONTEXT &gt;</text>
</a>
</g>
</g>
<!-- Node1&#45;&gt;Node6 -->
<g id="edge5_Node000001_Node000006" class="edge">
<title>Node1&#45;&gt;Node6</title>
<g id="a_edge5_Node000001_Node000006"><a xlink:title=" ">
<path fill="none" stroke="#63b8ff" d="M106,-55.54C106,-46.96 106,-37.61 106,-30.16"/>
<polygon fill="#63b8ff" stroke="#63b8ff" points="102.5,-55.8 106,-65.8 109.5,-55.8 102.5,-55.8"/>
</a>
</g>
</g>
<!-- Node2 -->
<g id="Node000002" class="node">
<title>Node2</title>
<g id="a_Node000002"><a xlink:href="class_cpl_1_1_io_1_1_output.html" target="_top" xlink:title="This partially abstract class defines a interface for operating on an output stream (example of a str...">
<polygon fill="white" stroke="#666666" points="149,-151 63,-151 63,-132 149,-132 149,-151"/>
<text text-anchor="middle" x="106" y="-139" font-family="Helvetica,sans-Serif" font-size="10.00">Cpl::Io::Output</text>
</a>
</g>
</g>
<!-- Node2&#45;&gt;Node1 -->
<g id="edge1_Node000001_Node000002" class="edge">
<title>Node2&#45;&gt;Node1</title>
<g id="a_edge1_Node000001_Node000002"><a xlink:title=" ">
<path fill="none" stroke="#63b8ff" d="M106,-121.65C106,-113.36 106,-103.78 106,-96.11"/>
<polygon fill="#63b8ff" stroke="#63b8ff" points="102.5,-121.87 106,-131.87 109.5,-121.87 102.5,-121.87"/>
</a>
</g>
</g>
<!-- Node3 -->
<g id="Node000003" class="node">
<title>Node3</title>
<g id="a_Node000003"><a xlink:href="class_cpl_1_1_io_1_1_close.html" target="_top" xlink:title="This abstract class defines a close operation that is intended to be used Input and Output streams/fi...">
<polygon fill="white" stroke="#666666" points="97,-206 17,-206 17,-187 97,-187 97,-206"/>
<text text-anchor="middle" x="57" y="-194" font-family="Helvetica,sans-Serif" font-size="10.00">Cpl::Io::Close</text>
</a>
</g>
</g>
<!-- Node3&#45;&gt;Node2 -->
<g id="edge2_Node000002_Node000003" class="edge">
<title>Node3&#45;&gt;Node2</title>
<g id="a_edge2_Node000002_Node000003"><a xlink:title=" ">
<path fill="none" stroke="#63b8ff" d="M72.03,-179.24C80.62,-169.95 91.04,-158.68 98.06,-151.09"/>
<polygon fill="#63b8ff" stroke="#63b8ff" points="69.31,-177.03 65.09,-186.75 74.45,-181.78 69.31,-177.03"/>
</a>
</g>
</g>
<!-- Node4 -->
<g id="Node000004" class="node">
<title>Node4</title>
<g id="a_Node000004"><a xlink:href="class_cpl_1_1_container_1_1_item.html" target="_top" xlink:title="This class is used by the Container classes to implement a various types of singly linked containers.">
<polygon fill="white" stroke="#666666" points="114,-261 0,-261 0,-242 114,-242 114,-261"/>
<text text-anchor="middle" x="57" y="-249" font-family="Helvetica,sans-Serif" font-size="10.00">Cpl::Container::Item</text>
</a>
</g>
</g>
<!-- Node4&#45;&gt;Node3 -->
<g id="edge3_Node000003_Node000004" class="edge">
<title>Node4&#45;&gt;Node3</title>
<g id="a_edge3_Node000003_Node000004"><a xlink:title=" ">
<path fill="none" stroke="#63b8ff" d="M57,-231.66C57,-222.93 57,-212.99 57,-206.09"/>
<polygon fill="#63b8ff" stroke="#63b8ff" points="53.5,-231.75 57,-241.75 60.5,-231.75 53.5,-231.75"/>
</a>
</g>
</g>
<!-- Node5 -->
<g id="Node000005" class="node">
<title>Node5</title>
<g id="a_Node000005"><a xlink:href="class_cpl_1_1_io_1_1_is_eos.html" target="_top" xlink:title="This abstract class defines a isEos() operation that is intended to be used Input and Output streams.">
<polygon fill="white" stroke="#666666" points="194.5,-206 115.5,-206 115.5,-187 194.5,-187 194.5,-206"/>
<text text-anchor="middle" x="155" y="-194" font-family="Helvetica,sans-Serif" font-size="10.00">Cpl::Io::IsEos</text>
</a>
</g>
</g>
<!-- Node5&#45;&gt;Node2 -->
<g id="edge4_Node000002_Node000005" class="edge">
<title>Node5&#45;&gt;Node2</title>
<g id="a_edge4_Node000002_Node000005"><a xlink:title=" ">
<path fill="none" stroke="#63b8ff" d="M139.97,-179.24C131.38,-169.95 120.96,-158.68 113.94,-151.09"/>
<polygon fill="#63b8ff" stroke="#63b8ff" points="137.55,-181.78 146.91,-186.75 142.69,-177.03 137.55,-181.78"/>
</a>
</g>
</g>
</g>
</svg>
