<?xml version="1.0" encoding="UTF-8" standalone="no"?>
<!DOCTYPE svg PUBLIC "-//W3C//DTD SVG 1.1//EN"
 "http://www.w3.org/Graphics/SVG/1.1/DTD/svg11.dtd">
<!-- Generated by graphviz version 2.43.0 (0)
 -->
<!-- Title: Cpl::TShell::Processor Pages: 1 -->
<svg width="1349pt" height="355pt"
 viewBox="0.00 0.00 1349.00 355.00" xmlns="http://www.w3.org/2000/svg" xmlns:xlink="http://www.w3.org/1999/xlink">
<g id="graph0" class="graph" transform="scale(1 1) rotate(0) translate(4 351)">
<title>Cpl::TShell::Processor</title>
<!-- Node1 -->
<g id="Node000001" class="node">
<title>Node1</title>
<g id="a_Node000001"><a xlink:title="This concrete class provides the implementation of Command Processor for a TShell engine.">
<polygon fill="#999999" stroke="#666666" points="1341,-187 1219,-187 1219,-168 1341,-168 1341,-187"/>
<text text-anchor="middle" x="1280" y="-175" font-family="Helvetica,sans-Serif" font-size="10.00">Cpl::TShell::Processor</text>
</a>
</g>
</g>
<!-- Node2 -->
<g id="Node000002" class="node">
<title>Node2</title>
<g id="a_Node000002"><a xlink:href="class_cpl_1_1_t_shell_1_1_context__.html" target="_top" xlink:title="This Private Namespace class defines a &quot;Context&quot; for a TShell command.">
<polygon fill="white" stroke="#666666" points="1080.5,-341 962.5,-341 962.5,-322 1080.5,-322 1080.5,-341"/>
<text text-anchor="middle" x="1021.5" y="-329" font-family="Helvetica,sans-Serif" font-size="10.00">Cpl::TShell::Context_</text>
</a>
</g>
</g>
<!-- Node2&#45;&gt;Node1 -->
<g id="edge1_Node000001_Node000002" class="edge">
<title>Node2&#45;&gt;Node1</title>
<g id="a_edge1_Node000001_Node000002"><a xlink:title=" ">
<path fill="none" stroke="#63b8ff" d="M1079.64,-319.3C1116.72,-309.4 1164.71,-292.71 1201,-266.5 1232.98,-243.4 1260.86,-204.89 1272.81,-187.08"/>
<polygon fill="#63b8ff" stroke="#63b8ff" points="1078.3,-316.03 1069.49,-321.91 1080.05,-322.81 1078.3,-316.03"/>
</a>
</g>
</g>
<!-- Node3 -->
<g id="Node000003" class="node">
<title>Node3</title>
<g id="a_Node000003"><a xlink:href="class_cpl_1_1_t_shell_1_1_processor_api.html" target="_top" xlink:title="This class defines the interface a TShell Command Processor.">
<polygon fill="white" stroke="#666666" points="749,-347 612,-347 612,-328 749,-328 749,-347"/>
<text text-anchor="middle" x="680.5" y="-335" font-family="Helvetica,sans-Serif" font-size="10.00">Cpl::TShell::ProcessorApi</text>
</a>
</g>
</g>
<!-- Node3&#45;&gt;Node2 -->
<g id="edge2_Node000002_Node000003" class="edge">
<title>Node3&#45;&gt;Node2</title>
<g id="a_edge2_Node000002_Node000003"><a xlink:title=" ">
<path fill="none" stroke="#63b8ff" d="M759.39,-336.12C821.27,-335.03 906.42,-333.52 962.43,-332.53"/>
<polygon fill="#63b8ff" stroke="#63b8ff" points="759.22,-332.62 749.29,-336.3 759.35,-339.62 759.22,-332.62"/>
</a>
</g>
</g>
<!-- Node4 -->
<g id="Node000004" class="node">
<title>Node4</title>
<g id="a_Node000004"><a xlink:href="class_cpl_1_1_container_1_1_s_list.html" target="_top" xlink:title=" ">
<polygon fill="white" stroke="#666666" points="1095,-298.5 948,-298.5 948,-268.5 1095,-268.5 1095,-298.5"/>
<text text-anchor="start" x="956" y="-286.5" font-family="Helvetica,sans-Serif" font-size="10.00">Cpl::Container::SList</text>
<text text-anchor="middle" x="1021.5" y="-275.5" font-family="Helvetica,sans-Serif" font-size="10.00">&lt; Cpl::TShell::Command &gt;</text>
</a>
</g>
</g>
<!-- Node4&#45;&gt;Node1 -->
<g id="edge3_Node000001_Node000004" class="edge">
<title>Node4&#45;&gt;Node1</title>
<g id="a_edge3_Node000001_Node000004"><a xlink:title=" ">
<path fill="none" stroke="#9a32cd" stroke-dasharray="5,2" d="M1083.07,-265.45C1118.12,-254.27 1162.74,-238.77 1201,-221.5 1223.67,-211.27 1248.47,-196.64 1263.89,-187.1"/>
<polygon fill="#9a32cd" stroke="#9a32cd" points="1081.93,-262.14 1073.45,-268.48 1084.04,-268.81 1081.93,-262.14"/>
</a>
</g>
<text text-anchor="middle" x="1161.5" y="-254.5" font-family="Helvetica,sans-Serif" font-size="10.00" fill="grey"> m_commands</text>
</g>
<!-- Node5 -->
<g id="Node000005" class="node">
<title>Node5</title>
<g id="a_Node000005"><a xlink:href="class_cpl_1_1_container_1_1_s_list.html" target="_top" xlink:title="This template class implements a singly linked list which maintains the ordering imposed on it by the...">
<polygon fill="white" stroke="#666666" points="738,-309.5 623,-309.5 623,-279.5 738,-279.5 738,-309.5"/>
<text text-anchor="start" x="631" y="-297.5" font-family="Helvetica,sans-Serif" font-size="10.00">Cpl::Container::SList</text>
<text text-anchor="middle" x="680.5" y="-286.5" font-family="Helvetica,sans-Serif" font-size="10.00">&lt; ITEM &gt;</text>
</a>
</g>
</g>
<!-- Node5&#45;&gt;Node4 -->
<g id="edge4_Node000004_Node000005" class="edge">
<title>Node5&#45;&gt;Node4</title>
<g id="a_edge4_Node000004_Node000005"><a xlink:title=" ">
<path fill="none" stroke="orange" stroke-dasharray="5,2" d="M748.32,-292.33C805.86,-290.46 888.73,-287.78 947.89,-285.86"/>
<polygon fill="orange" stroke="orange" points="748.12,-288.84 738.24,-292.66 748.35,-295.83 748.12,-288.84"/>
</a>
</g>
<text text-anchor="middle" x="846.5" y="-294.5" font-family="Helvetica,sans-Serif" font-size="10.00" fill="grey"> &lt; Cpl::TShell::Command &gt;</text>
</g>
<!-- Node6 -->
<g id="Node000006" class="node">
<title>Node6</title>
<g id="a_Node000006"><a xlink:href="class_cpl_1_1_text_1_1_frame_1_1_stream_decoder.html" target="_top" xlink:title="This partially concrete class defines an interface a Text &quot;Decoder&quot; that has a Cpl::Io::Input stream ...">
<polygon fill="white" stroke="#666666" points="1090,-240.5 953,-240.5 953,-210.5 1090,-210.5 1090,-240.5"/>
<text text-anchor="start" x="961" y="-228.5" font-family="Helvetica,sans-Serif" font-size="10.00">Cpl::Text::Frame::Stream</text>
<text text-anchor="middle" x="1021.5" y="-217.5" font-family="Helvetica,sans-Serif" font-size="10.00">Decoder</text>
</a>
</g>
</g>
<!-- Node6&#45;&gt;Node1 -->
<g id="edge5_Node000001_Node000006" class="edge">
<title>Node6&#45;&gt;Node1</title>
<g id="a_edge5_Node000001_Node000006"><a xlink:title=" ">
<path fill="none" stroke="#9a32cd" stroke-dasharray="5,2" d="M1100.3,-211.24C1131.6,-205.47 1168.03,-198.72 1201,-192.5 1210.21,-190.76 1220.04,-188.89 1229.5,-187.08"/>
<polygon fill="#9a32cd" stroke="#9a32cd" points="1099.53,-207.82 1090.33,-213.08 1100.8,-214.71 1099.53,-207.82"/>
</a>
</g>
<text text-anchor="middle" x="1161.5" y="-209.5" font-family="Helvetica,sans-Serif" font-size="10.00" fill="grey"> m_deframer</text>
</g>
<!-- Node7 -->
<g id="Node000007" class="node">
<title>Node7</title>
<g id="a_Node000007"><a xlink:href="class_cpl_1_1_text_1_1_frame_1_1_decoder__.html" target="_top" xlink:title="This private partially concrete class implements the basic/common logic for a frame decoder.">
<polygon fill="white" stroke="#666666" points="754,-261 607,-261 607,-242 754,-242 754,-261"/>
<text text-anchor="middle" x="680.5" y="-249" font-family="Helvetica,sans-Serif" font-size="10.00">Cpl::Text::Frame::Decoder_</text>
</a>
</g>
</g>
<!-- Node7&#45;&gt;Node6 -->
<g id="edge6_Node000006_Node000007" class="edge">
<title>Node7&#45;&gt;Node6</title>
<g id="a_edge6_Node000006_Node000007"><a xlink:title=" ">
<path fill="none" stroke="#63b8ff" d="M764.35,-246.01C810.49,-242.86 868.95,-238.7 921,-234.5 931.29,-233.67 942.17,-232.74 952.81,-231.8"/>
<polygon fill="#63b8ff" stroke="#63b8ff" points="763.85,-242.54 754.11,-246.71 764.32,-249.53 763.85,-242.54"/>
</a>
</g>
</g>
<!-- Node8 -->
<g id="Node000008" class="node">
<title>Node8</title>
<g id="a_Node000008"><a xlink:href="class_cpl_1_1_text_1_1_frame_1_1_decoder.html" target="_top" xlink:title="This class defines an interface for &#39;receiving&#39; (decode) a frame.">
<polygon fill="white" stroke="#666666" points="570,-268 428,-268 428,-249 570,-249 570,-268"/>
<text text-anchor="middle" x="499" y="-256" font-family="Helvetica,sans-Serif" font-size="10.00">Cpl::Text::Frame::Decoder</text>
</a>
</g>
</g>
<!-- Node8&#45;&gt;Node7 -->
<g id="edge7_Node000007_Node000008" class="edge">
<title>Node8&#45;&gt;Node7</title>
<g id="a_edge7_Node000007_Node000008"><a xlink:title=" ">
<path fill="none" stroke="#63b8ff" d="M580.39,-255.37C589.16,-255.02 598.05,-254.68 606.72,-254.34"/>
<polygon fill="#63b8ff" stroke="#63b8ff" points="580.03,-251.88 570.17,-255.76 580.3,-258.87 580.03,-251.88"/>
</a>
</g>
</g>
<!-- Node9 -->
<g id="Node000009" class="node">
<title>Node9</title>
<g id="a_Node000009"><a xlink:href="class_cpl_1_1_io_1_1_input.html" target="_top" xlink:title="This partially abstract class defines a interface for operating on an input stream (example of a stre...">
<polygon fill="white" stroke="#666666" points="719.5,-224 641.5,-224 641.5,-205 719.5,-205 719.5,-224"/>
<text text-anchor="middle" x="680.5" y="-212" font-family="Helvetica,sans-Serif" font-size="10.00">Cpl::Io::Input</text>
</a>
</g>
</g>
<!-- Node9&#45;&gt;Node6 -->
<g id="edge8_Node000006_Node000009" class="edge">
<title>Node9&#45;&gt;Node6</title>
<g id="a_edge8_Node000006_Node000009"><a xlink:title=" ">
<path fill="none" stroke="#9a32cd" stroke-dasharray="5,2" d="M729.8,-216.07C788.24,-217.96 886.97,-221.17 952.93,-223.31"/>
<polygon fill="#9a32cd" stroke="#9a32cd" points="729.84,-212.57 719.73,-215.74 729.61,-219.56 729.84,-212.57"/>
</a>
</g>
<text text-anchor="middle" x="846.5" y="-224.5" font-family="Helvetica,sans-Serif" font-size="10.00" fill="grey"> m_srcPtr</text>
</g>
<!-- Node10 -->
<g id="Node000010" class="node">
<title>Node10</title>
<g id="a_Node000010"><a xlink:href="class_cpl_1_1_io_1_1_close.html" target="_top" xlink:title="This abstract class defines a close operation that is intended to be used Input and Output streams/fi...">
<polygon fill="white" stroke="#666666" points="539,-180 459,-180 459,-161 539,-161 539,-180"/>
<text text-anchor="middle" x="499" y="-168" font-family="Helvetica,sans-Serif" font-size="10.00">Cpl::Io::Close</text>
</a>
</g>
</g>
<!-- Node10&#45;&gt;Node9 -->
<g id="edge9_Node000009_Node000010" class="edge">
<title>Node10&#45;&gt;Node9</title>
<g id="a_edge9_Node000009_Node000010"><a xlink:title=" ">
<path fill="none" stroke="#63b8ff" d="M548.9,-182.49C577.96,-189.61 614.29,-198.51 641.24,-205.12"/>
<polygon fill="#63b8ff" stroke="#63b8ff" points="549.49,-179.03 538.95,-180.05 547.83,-185.83 549.49,-179.03"/>
</a>
</g>
</g>
<!-- Node16 -->
<g id="Node000016" class="node">
<title>Node16</title>
<g id="a_Node000016"><a xlink:href="class_cpl_1_1_io_1_1_output.html" target="_top" xlink:title="This partially abstract class defines a interface for operating on an output stream (example of a str...">
<polygon fill="white" stroke="#666666" points="723.5,-187 637.5,-187 637.5,-168 723.5,-168 723.5,-187"/>
<text text-anchor="middle" x="680.5" y="-175" font-family="Helvetica,sans-Serif" font-size="10.00">Cpl::Io::Output</text>
</a>
</g>
</g>
<!-- Node10&#45;&gt;Node16 -->
<g id="edge16_Node000016_Node000010" class="edge">
<title>Node10&#45;&gt;Node16</title>
<g id="a_edge16_Node000016_Node000010"><a xlink:title=" ">
<path fill="none" stroke="#63b8ff" d="M549.51,-171.32C562.37,-171.62 576.2,-172 589,-172.5 604.72,-173.11 621.97,-174.01 637.16,-174.87"/>
<polygon fill="#63b8ff" stroke="#63b8ff" points="549.51,-167.82 539.44,-171.11 549.36,-174.82 549.51,-167.82"/>
</a>
</g>
</g>
<!-- Node11 -->
<g id="Node000011" class="node">
<title>Node11</title>
<g id="a_Node000011"><a xlink:href="class_cpl_1_1_container_1_1_item.html" target="_top" xlink:title="This class is used by the Container classes to implement a various types of singly linked containers.">
<polygon fill="white" stroke="#666666" points="391,-180 277,-180 277,-161 391,-161 391,-180"/>
<text text-anchor="middle" x="334" y="-168" font-family="Helvetica,sans-Serif" font-size="10.00">Cpl::Container::Item</text>
</a>
</g>
</g>
<!-- Node11&#45;&gt;Node10 -->
<g id="edge10_Node000010_Node000011" class="edge">
<title>Node11&#45;&gt;Node10</title>
<g id="a_edge10_Node000010_Node000011"><a xlink:title=" ">
<path fill="none" stroke="#63b8ff" d="M401.18,-170.5C420.73,-170.5 441.49,-170.5 458.76,-170.5"/>
<polygon fill="#63b8ff" stroke="#63b8ff" points="401.1,-167 391.1,-170.5 401.1,-174 401.1,-167"/>
</a>
</g>
</g>
<!-- Node12 -->
<g id="Node000012" class="node">
<title>Node12</title>
<g id="a_Node000012"><a xlink:href="class_cpl_1_1_io_1_1_is_eos.html" target="_top" xlink:title="This abstract class defines a isEos() operation that is intended to be used Input and Output streams.">
<polygon fill="white" stroke="#666666" points="538.5,-224 459.5,-224 459.5,-205 538.5,-205 538.5,-224"/>
<text text-anchor="middle" x="499" y="-212" font-family="Helvetica,sans-Serif" font-size="10.00">Cpl::Io::IsEos</text>
</a>
</g>
</g>
<!-- Node12&#45;&gt;Node9 -->
<g id="edge11_Node000009_Node000012" class="edge">
<title>Node12&#45;&gt;Node9</title>
<g id="a_edge11_Node000009_Node000012"><a xlink:title=" ">
<path fill="none" stroke="#63b8ff" d="M548.56,-217.75C561.38,-218.48 575.21,-219.14 588,-219.5 605.49,-220 624.85,-219.14 641.23,-218.01"/>
<polygon fill="#63b8ff" stroke="#63b8ff" points="548.72,-214.26 538.53,-217.16 548.31,-221.25 548.72,-214.26"/>
</a>
</g>
</g>
<!-- Node12&#45;&gt;Node16 -->
<g id="edge17_Node000016_Node000012" class="edge">
<title>Node12&#45;&gt;Node16</title>
<g id="a_edge17_Node000016_Node000012"><a xlink:title=" ">
<path fill="none" stroke="#63b8ff" d="M548.4,-204.52C576.15,-198.8 610.65,-191.69 637.29,-186.2"/>
<polygon fill="#63b8ff" stroke="#63b8ff" points="547.59,-201.12 538.51,-206.56 549.01,-207.97 547.59,-201.12"/>
</a>
</g>
</g>
<!-- Node13 -->
<g id="Node000013" class="node">
<title>Node13</title>
<g id="a_Node000013"><a xlink:href="class_cpl_1_1_text_1_1_frame_1_1_stream_encoder.html" target="_top" xlink:title="This concrete class implements the Encoder API where the Output destination is a Cpl::Io::Output stre...">
<polygon fill="white" stroke="#666666" points="1090,-192.5 953,-192.5 953,-162.5 1090,-162.5 1090,-192.5"/>
<text text-anchor="start" x="961" y="-180.5" font-family="Helvetica,sans-Serif" font-size="10.00">Cpl::Text::Frame::Stream</text>
<text text-anchor="middle" x="1021.5" y="-169.5" font-family="Helvetica,sans-Serif" font-size="10.00">Encoder</text>
</a>
</g>
</g>
<!-- Node13&#45;&gt;Node1 -->
<g id="edge12_Node000001_Node000013" class="edge">
<title>Node13&#45;&gt;Node1</title>
<g id="a_edge12_Node000001_Node000013"><a xlink:title=" ">
<path fill="none" stroke="#9a32cd" stroke-dasharray="5,2" d="M1100.25,-177.5C1138.29,-177.5 1183.4,-177.5 1218.78,-177.5"/>
<polygon fill="#9a32cd" stroke="#9a32cd" points="1100.23,-174 1090.23,-177.5 1100.23,-181 1100.23,-174"/>
</a>
</g>
<text text-anchor="middle" x="1161.5" y="-180.5" font-family="Helvetica,sans-Serif" font-size="10.00" fill="grey"> m_framer</text>
</g>
<!-- Node14 -->
<g id="Node000014" class="node">
<title>Node14</title>
<g id="a_Node000014"><a xlink:href="class_cpl_1_1_text_1_1_frame_1_1_encoder__.html" target="_top" xlink:title="This Private Namespace partially concrete class implements common/helper method for supporting the En...">
<polygon fill="white" stroke="#666666" points="753.5,-150 607.5,-150 607.5,-131 753.5,-131 753.5,-150"/>
<text text-anchor="middle" x="680.5" y="-138" font-family="Helvetica,sans-Serif" font-size="10.00">Cpl::Text::Frame::Encoder_</text>
</a>
</g>
</g>
<!-- Node14&#45;&gt;Node13 -->
<g id="edge13_Node000013_Node000014" class="edge">
<title>Node14&#45;&gt;Node13</title>
<g id="a_edge13_Node000013_Node000014"><a xlink:title=" ">
<path fill="none" stroke="#63b8ff" d="M764.04,-149.51C822,-155.84 898.58,-164.19 952.92,-170.12"/>
<polygon fill="#63b8ff" stroke="#63b8ff" points="764.13,-146 753.81,-148.39 763.37,-152.96 764.13,-146"/>
</a>
</g>
</g>
<!-- Node15 -->
<g id="Node000015" class="node">
<title>Node15</title>
<g id="a_Node000015"><a xlink:href="class_cpl_1_1_text_1_1_frame_1_1_encoder.html" target="_top" xlink:title="This class defines an interface for &#39;transmitted&#39; (encoding) a frame.">
<polygon fill="white" stroke="#666666" points="569,-143 429,-143 429,-124 569,-124 569,-143"/>
<text text-anchor="middle" x="499" y="-131" font-family="Helvetica,sans-Serif" font-size="10.00">Cpl::Text::Frame::Encoder</text>
</a>
</g>
</g>
<!-- Node15&#45;&gt;Node14 -->
<g id="edge14_Node000014_Node000015" class="edge">
<title>Node15&#45;&gt;Node14</title>
<g id="a_edge14_Node000014_Node000015"><a xlink:title=" ">
<path fill="none" stroke="#63b8ff" d="M579.24,-136.59C588.62,-136.96 598.15,-137.33 607.42,-137.69"/>
<polygon fill="#63b8ff" stroke="#63b8ff" points="579.27,-133.09 569.14,-136.2 579,-140.08 579.27,-133.09"/>
</a>
</g>
</g>
<!-- Node16&#45;&gt;Node13 -->
<g id="edge15_Node000013_Node000016" class="edge">
<title>Node16&#45;&gt;Node13</title>
<g id="a_edge15_Node000013_Node000016"><a xlink:title=" ">
<path fill="none" stroke="#9a32cd" stroke-dasharray="5,2" d="M733.93,-177.5C792.76,-177.5 888.36,-177.5 952.8,-177.5"/>
<polygon fill="#9a32cd" stroke="#9a32cd" points="733.75,-174 723.75,-177.5 733.75,-181 733.75,-174"/>
</a>
</g>
<text text-anchor="middle" x="846.5" y="-180.5" font-family="Helvetica,sans-Serif" font-size="10.00" fill="grey"> m_dstPtr</text>
</g>
<!-- Node17 -->
<g id="Node000017" class="node">
<title>Node17</title>
<g id="a_Node000017"><a xlink:href="class_cpl_1_1_system_1_1_mutex.html" target="_top" xlink:title="This mutex class defines the interface for a mutex that has &quot;recursive&quot; semantics.">
<polygon fill="white" stroke="#666666" points="1077.5,-144 965.5,-144 965.5,-125 1077.5,-125 1077.5,-144"/>
<text text-anchor="middle" x="1021.5" y="-132" font-family="Helvetica,sans-Serif" font-size="10.00">Cpl::System::Mutex</text>
</a>
</g>
</g>
<!-- Node17&#45;&gt;Node1 -->
<g id="edge18_Node000001_Node000017" class="edge">
<title>Node17&#45;&gt;Node1</title>
<g id="a_edge18_Node000001_Node000017"><a xlink:title=" ">
<path fill="none" stroke="#9a32cd" stroke-dasharray="5,2" d="M1087.88,-144.2C1121.7,-149.36 1163.61,-155.97 1201,-162.5 1210.64,-164.18 1220.94,-166.09 1230.78,-167.96"/>
<polygon fill="#9a32cd" stroke="#9a32cd" points="1088.08,-140.69 1077.66,-142.65 1087.02,-147.61 1088.08,-140.69"/>
</a>
</g>
<text text-anchor="middle" x="1161.5" y="-165.5" font-family="Helvetica,sans-Serif" font-size="10.00" fill="grey"> m_outLock</text>
</g>
<!-- Node18 -->
<g id="Node000018" class="node">
<title>Node18</title>
<g id="a_Node000018"><a xlink:href="class_cpl_1_1_text_1_1_f_string.html" target="_top" xlink:title=" ">
<polygon fill="white" stroke="#666666" points="1104,-107 939,-107 939,-66 1104,-66 1104,-107"/>
<text text-anchor="start" x="947" y="-95" font-family="Helvetica,sans-Serif" font-size="10.00">Cpl::Text::FString</text>
<text text-anchor="start" x="947" y="-84" font-family="Helvetica,sans-Serif" font-size="10.00">&lt; OPTION_CPL_TSHELL</text>
<text text-anchor="middle" x="1021.5" y="-73" font-family="Helvetica,sans-Serif" font-size="10.00">_PROCESSOR_OUTPUT_SIZE &gt;</text>
</a>
</g>
</g>
<!-- Node18&#45;&gt;Node1 -->
<g id="edge19_Node000001_Node000018" class="edge">
<title>Node18&#45;&gt;Node1</title>
<g id="a_edge19_Node000001_Node000018"><a xlink:title=" ">
<path fill="none" stroke="#9a32cd" stroke-dasharray="5,2" d="M1114.16,-106.62C1142.47,-114.04 1173.44,-123.39 1201,-134.5 1224.09,-143.81 1248.99,-158.42 1264.29,-167.98"/>
<polygon fill="#9a32cd" stroke="#9a32cd" points="1114.82,-103.18 1104.27,-104.08 1113.08,-109.96 1114.82,-103.18"/>
</a>
</g>
<text text-anchor="middle" x="1161.5" y="-137.5" font-family="Helvetica,sans-Serif" font-size="10.00" fill="grey"> m_outputBuffer</text>
</g>
<!-- Node19 -->
<g id="Node000019" class="node">
<title>Node19</title>
<g id="a_Node000019"><a xlink:href="class_cpl_1_1_text_1_1_f_string__.html" target="_top" xlink:title="This mostly concrete class implements a &quot;fixed storage&quot; String Type.">
<polygon fill="white" stroke="#666666" points="551,-55 447,-55 447,-36 551,-36 551,-55"/>
<text text-anchor="middle" x="499" y="-43" font-family="Helvetica,sans-Serif" font-size="10.00">Cpl::Text::FString_</text>
</a>
</g>
</g>
<!-- Node19&#45;&gt;Node18 -->
<g id="edge20_Node000018_Node000019" class="edge">
<title>Node19&#45;&gt;Node18</title>
<g id="a_edge20_Node000018_Node000019"><a xlink:title=" ">
<path fill="none" stroke="#63b8ff" d="M561.29,-55.99C576.24,-58.5 592.19,-61.13 607,-63.5 680.24,-75.21 698.04,-82.93 772,-88.5 838.04,-93.47 854.78,-89.17 921,-88.5 926.79,-88.44 932.76,-88.36 938.78,-88.27"/>
<polygon fill="#63b8ff" stroke="#63b8ff" points="561.58,-52.49 551.13,-54.28 560.41,-59.39 561.58,-52.49"/>
</a>
</g>
</g>
<!-- Node23 -->
<g id="Node000023" class="node">
<title>Node23</title>
<g id="a_Node000023"><a xlink:href="class_cpl_1_1_text_1_1_f_string.html" target="_top" xlink:title="This template class represents a NULL terminated string of a specific length.">
<polygon fill="white" stroke="#666666" points="744,-55 617,-55 617,-36 744,-36 744,-55"/>
<text text-anchor="middle" x="680.5" y="-43" font-family="Helvetica,sans-Serif" font-size="10.00">Cpl::Text::FString&lt; S &gt;</text>
</a>
</g>
</g>
<!-- Node19&#45;&gt;Node23 -->
<g id="edge25_Node000023_Node000019" class="edge">
<title>Node19&#45;&gt;Node23</title>
<g id="a_edge25_Node000023_Node000019"><a xlink:title=" ">
<path fill="none" stroke="#63b8ff" d="M561.47,-45.5C579.37,-45.5 598.93,-45.5 616.9,-45.5"/>
<polygon fill="#63b8ff" stroke="#63b8ff" points="561.44,-42 551.44,-45.5 561.44,-49 561.44,-42"/>
</a>
</g>
</g>
<!-- Node24 -->
<g id="Node000024" class="node">
<title>Node24</title>
<g id="a_Node000024"><a xlink:href="class_cpl_1_1_text_1_1_f_string.html" target="_top" xlink:title=" ">
<polygon fill="white" stroke="#666666" points="1099,-41 944,-41 944,0 1099,0 1099,-41"/>
<text text-anchor="start" x="952" y="-29" font-family="Helvetica,sans-Serif" font-size="10.00">Cpl::Text::FString</text>
<text text-anchor="start" x="952" y="-18" font-family="Helvetica,sans-Serif" font-size="10.00">&lt; OPTION_CPL_TSHELL</text>
<text text-anchor="middle" x="1021.5" y="-7" font-family="Helvetica,sans-Serif" font-size="10.00">_PROCESSOR_INPUT_SIZE &gt;</text>
</a>
</g>
</g>
<!-- Node19&#45;&gt;Node24 -->
<g id="edge27_Node000024_Node000019" class="edge">
<title>Node19&#45;&gt;Node24</title>
<g id="a_edge27_Node000024_Node000019"><a xlink:title=" ">
<path fill="none" stroke="#63b8ff" d="M558.68,-34.15C574.34,-31.38 591.28,-28.61 607,-26.5 745.48,-7.95 781.43,-5.2 921,-11.5 928.45,-11.84 936.21,-12.31 943.95,-12.87"/>
<polygon fill="#63b8ff" stroke="#63b8ff" points="557.82,-30.75 548.6,-35.97 559.06,-37.64 557.82,-30.75"/>
</a>
</g>
</g>
<!-- Node20 -->
<g id="Node000020" class="node">
<title>Node20</title>
<g id="a_Node000020"><a xlink:href="class_cpl_1_1_text_1_1_string__.html" target="_top" xlink:title="This partially concrete class implements the portions of the String Api that is independent of the in...">
<polygon fill="white" stroke="#666666" points="383,-55 285,-55 285,-36 383,-36 383,-55"/>
<text text-anchor="middle" x="334" y="-43" font-family="Helvetica,sans-Serif" font-size="10.00">Cpl::Text::String_</text>
</a>
</g>
</g>
<!-- Node20&#45;&gt;Node19 -->
<g id="edge21_Node000019_Node000020" class="edge">
<title>Node20&#45;&gt;Node19</title>
<g id="a_edge21_Node000019_Node000020"><a xlink:title=" ">
<path fill="none" stroke="#63b8ff" d="M393.15,-45.5C410.71,-45.5 429.85,-45.5 446.91,-45.5"/>
<polygon fill="#63b8ff" stroke="#63b8ff" points="393.02,-42 383.02,-45.5 393.02,-49 393.02,-42"/>
</a>
</g>
</g>
<!-- Node21 -->
<g id="Node000021" class="node">
<title>Node21</title>
<g id="a_Node000021"><a xlink:href="class_cpl_1_1_text_1_1_string.html" target="_top" xlink:title="This abstract class defines the operations that can be before on a NULL terminated string.">
<polygon fill="white" stroke="#666666" points="240,-55 147,-55 147,-36 240,-36 240,-55"/>
<text text-anchor="middle" x="193.5" y="-43" font-family="Helvetica,sans-Serif" font-size="10.00">Cpl::Text::String</text>
</a>
</g>
</g>
<!-- Node21&#45;&gt;Node20 -->
<g id="edge22_Node000020_Node000021" class="edge">
<title>Node21&#45;&gt;Node20</title>
<g id="a_edge22_Node000020_Node000021"><a xlink:title=" ">
<path fill="none" stroke="#63b8ff" d="M250.53,-45.5C261.94,-45.5 273.84,-45.5 284.94,-45.5"/>
<polygon fill="#63b8ff" stroke="#63b8ff" points="250.23,-42 240.23,-45.5 250.23,-49 250.23,-42"/>
</a>
</g>
</g>
<!-- Node22 -->
<g id="Node000022" class="node">
<title>Node22</title>
<g id="a_Node000022"><a xlink:href="class_cpl_1_1_container_1_1_key.html" target="_top" xlink:title="This abstract class defines the interface that a contained object must support if it has comparable k...">
<polygon fill="white" stroke="#666666" points="110,-55 0,-55 0,-36 110,-36 110,-55"/>
<text text-anchor="middle" x="55" y="-43" font-family="Helvetica,sans-Serif" font-size="10.00">Cpl::Container::Key</text>
</a>
</g>
</g>
<!-- Node22&#45;&gt;Node21 -->
<g id="edge23_Node000021_Node000022" class="edge">
<title>Node22&#45;&gt;Node21</title>
<g id="a_edge23_Node000021_Node000022"><a xlink:title=" ">
<path fill="none" stroke="#63b8ff" d="M120.61,-45.5C129.42,-45.5 138.31,-45.5 146.7,-45.5"/>
<polygon fill="#63b8ff" stroke="#63b8ff" points="120.34,-42 110.34,-45.5 120.34,-49 120.34,-42"/>
</a>
</g>
</g>
<!-- Node23&#45;&gt;Node18 -->
<g id="edge24_Node000018_Node000023" class="edge">
<title>Node23&#45;&gt;Node18</title>
<g id="a_edge24_Node000018_Node000023"><a xlink:title=" ">
<path fill="none" stroke="orange" stroke-dasharray="5,2" d="M754.46,-49.79C802.03,-53.1 865.38,-58.5 921,-66.5 926.84,-67.34 932.86,-68.3 938.91,-69.34"/>
<polygon fill="orange" stroke="orange" points="754.46,-46.28 744.25,-49.09 753.99,-53.26 754.46,-46.28"/>
</a>
</g>
<text text-anchor="start" x="772" y="-80.5" font-family="Helvetica,sans-Serif" font-size="10.00" fill="grey"> &lt; OPTION_CPL_TSHELL</text>
<text text-anchor="middle" x="846.5" y="-69.5" font-family="Helvetica,sans-Serif" font-size="10.00" fill="grey">_PROCESSOR_OUTPUT_SIZE &gt;</text>
</g>
<!-- Node23&#45;&gt;Node24 -->
<g id="edge28_Node000024_Node000023" class="edge">
<title>Node23&#45;&gt;Node24</title>
<g id="a_edge28_Node000024_Node000023"><a xlink:title=" ">
<path fill="none" stroke="orange" stroke-dasharray="5,2" d="M720.06,-32.95C735.96,-28.39 754.68,-23.79 772,-21.5 829.2,-13.93 894.47,-13.99 943.75,-15.79"/>
<polygon fill="orange" stroke="orange" points="718.65,-29.72 710.06,-35.92 720.64,-36.43 718.65,-29.72"/>
</a>
</g>
<text text-anchor="start" x="777" y="-35.5" font-family="Helvetica,sans-Serif" font-size="10.00" fill="grey"> &lt; OPTION_CPL_TSHELL</text>
<text text-anchor="middle" x="846.5" y="-24.5" font-family="Helvetica,sans-Serif" font-size="10.00" fill="grey">_PROCESSOR_INPUT_SIZE &gt;</text>
</g>
<!-- Node24&#45;&gt;Node1 -->
<g id="edge26_Node000001_Node000024" class="edge">
<title>Node24&#45;&gt;Node1</title>
<g id="a_edge26_Node000001_Node000024"><a xlink:title=" ">
<path fill="none" stroke="#9a32cd" stroke-dasharray="5,2" d="M1109.21,-40.18C1139.96,-49.76 1173.68,-63.45 1201,-82.5 1235.14,-106.3 1262.52,-148.96 1273.64,-167.94"/>
<polygon fill="#9a32cd" stroke="#9a32cd" points="1109.93,-36.74 1099.34,-37.21 1107.91,-43.44 1109.93,-36.74"/>
</a>
</g>
<text text-anchor="middle" x="1161.5" y="-96.5" font-family="Helvetica,sans-Serif" font-size="10.00" fill="grey"> m_tokenBuffer</text>
<text text-anchor="middle" x="1161.5" y="-85.5" font-family="Helvetica,sans-Serif" font-size="10.00" fill="grey">m_tokenBuffer2</text>
</g>
</g>
</svg>
