<?xml version="1.0" encoding="UTF-8" standalone="no"?>
<!DOCTYPE svg PUBLIC "-//W3C//DTD SVG 1.1//EN"
 "http://www.w3.org/Graphics/SVG/1.1/DTD/svg11.dtd">
<!-- Generated by graphviz version 2.43.0 (0)
 -->
<!-- Title: Cpl::Container::RingBufferMT&lt; ITEM &gt; Pages: 1 -->
<svg width="1067pt" height="207pt"
 viewBox="0.00 0.00 1067.00 207.00" xmlns="http://www.w3.org/2000/svg" xmlns:xlink="http://www.w3.org/1999/xlink">
<g id="graph0" class="graph" transform="scale(1 1) rotate(0) translate(4 203)">
<title>Cpl::Container::RingBufferMT&lt; ITEM &gt;</title>
<!-- Node1 -->
<g id="Node000001" class="node">
<title>Node1</title>
<g id="a_Node000001"><a xlink:title="This template class implements a THREAD SAFE Ring Buffer.">
<polygon fill="#999999" stroke="#666666" points="323,-121 180,-121 180,-91 323,-91 323,-121"/>
<text text-anchor="start" x="188" y="-109" font-family="Helvetica,sans-Serif" font-size="10.00">Cpl::Container::RingBuffer</text>
<text text-anchor="middle" x="251.5" y="-98" font-family="Helvetica,sans-Serif" font-size="10.00">MT&lt; ITEM &gt;</text>
</a>
</g>
</g>
<!-- Node3 -->
<g id="Node000003" class="node">
<title>Node3</title>
<g id="a_Node000003"><a xlink:href="class_cpl_1_1_container_1_1_ring_buffer_m_p.html" target="_top" xlink:title=" ">
<polygon fill="white" stroke="#666666" points="1059,-199 879,-199 879,-169 1059,-169 1059,-199"/>
<text text-anchor="start" x="887" y="-187" font-family="Helvetica,sans-Serif" font-size="10.00">Cpl::Container::RingBuffer</text>
<text text-anchor="middle" x="969" y="-176" font-family="Helvetica,sans-Serif" font-size="10.00">MP&lt; Cpl::Logging::EntryData_T &gt;</text>
</a>
</g>
</g>
<!-- Node1&#45;&gt;Node3 -->
<g id="edge2_Node000001_Node000003" class="edge">
<title>Node1&#45;&gt;Node3</title>
<g id="a_edge2_Node000001_Node000003"><a xlink:title=" ">
<path fill="none" stroke="#63b8ff" d="M293.2,-125.24C307.99,-131.63 325.01,-138.31 341,-143 563.49,-208.26 629.14,-186.08 861,-185 866.85,-184.97 872.88,-184.94 878.96,-184.9"/>
<polygon fill="#63b8ff" stroke="#63b8ff" points="294.4,-121.94 283.83,-121.1 291.57,-128.34 294.4,-121.94"/>
</a>
</g>
</g>
<!-- Node4 -->
<g id="Node000004" class="node">
<title>Node4</title>
<g id="a_Node000004"><a xlink:href="class_cpl_1_1_container_1_1_ring_buffer_m_p.html" target="_top" xlink:title=" ">
<polygon fill="white" stroke="#666666" points="1040.5,-142 897.5,-142 897.5,-112 1040.5,-112 1040.5,-142"/>
<text text-anchor="start" x="905.5" y="-130" font-family="Helvetica,sans-Serif" font-size="10.00">Cpl::Container::RingBuffer</text>
<text text-anchor="middle" x="969" y="-119" font-family="Helvetica,sans-Serif" font-size="10.00">MP&lt; ENTRY &gt;</text>
</a>
</g>
</g>
<!-- Node1&#45;&gt;Node4 -->
<g id="edge3_Node000001_Node000004" class="edge">
<title>Node1&#45;&gt;Node4</title>
<g id="a_edge3_Node000001_Node000004"><a xlink:title=" ">
<path fill="none" stroke="#63b8ff" d="M333.38,-108.37C474.6,-112.52 763.81,-121.01 897.44,-124.93"/>
<polygon fill="#63b8ff" stroke="#63b8ff" points="333.16,-104.87 323.06,-108.07 332.96,-111.86 333.16,-104.87"/>
</a>
</g>
</g>
<!-- Node5 -->
<g id="Node000005" class="node">
<title>Node5</title>
<g id="a_Node000005"><a xlink:href="class_cpl_1_1_container_1_1_ring_buffer_m_p.html" target="_top" xlink:title="This template class implements a THREAD SAFE Ring Buffer AND it maintains/reports the number of eleme...">
<polygon fill="white" stroke="#666666" points="672.5,-164 529.5,-164 529.5,-134 672.5,-134 672.5,-164"/>
<text text-anchor="start" x="537.5" y="-152" font-family="Helvetica,sans-Serif" font-size="10.00">Cpl::Container::RingBuffer</text>
<text text-anchor="middle" x="601" y="-141" font-family="Helvetica,sans-Serif" font-size="10.00">MP&lt; ITEM &gt;</text>
</a>
</g>
</g>
<!-- Node1&#45;&gt;Node5 -->
<g id="edge4_Node000001_Node000005" class="edge">
<title>Node1&#45;&gt;Node5</title>
<g id="a_edge4_Node000001_Node000005"><a xlink:title=" ">
<path fill="none" stroke="#63b8ff" d="M333.41,-118.95C335.97,-119.31 338.5,-119.66 341,-120 404.56,-128.58 477.14,-136.55 529.26,-141.95"/>
<polygon fill="#63b8ff" stroke="#63b8ff" points="333.86,-115.48 323.47,-117.52 332.86,-122.41 333.86,-115.48"/>
</a>
</g>
</g>
<!-- Node6 -->
<g id="Node000006" class="node">
<title>Node6</title>
<g id="a_Node000006"><a xlink:href="class_cpl_1_1_container_1_1_ring_buffer_m_t.html" target="_top" xlink:title=" ">
<polygon fill="white" stroke="#666666" points="691,-78 511,-78 511,-48 691,-48 691,-78"/>
<text text-anchor="start" x="519" y="-66" font-family="Helvetica,sans-Serif" font-size="10.00">Cpl::Container::RingBuffer</text>
<text text-anchor="middle" x="601" y="-55" font-family="Helvetica,sans-Serif" font-size="10.00">MT&lt; Cpl::Logging::EntryData_T &gt;</text>
</a>
</g>
</g>
<!-- Node1&#45;&gt;Node6 -->
<g id="edge7_Node000001_Node000006" class="edge">
<title>Node1&#45;&gt;Node6</title>
<g id="a_edge7_Node000001_Node000006"><a xlink:title=" ">
<path fill="none" stroke="orange" stroke-dasharray="5,2" d="M308.58,-88.29C319.25,-85.45 330.4,-82.84 341,-81 396.95,-71.26 460.57,-66.75 510.75,-64.68"/>
<polygon fill="orange" stroke="orange" points="307.64,-84.91 298.93,-90.94 309.5,-91.66 307.64,-84.91"/>
</a>
</g>
<text text-anchor="middle" x="417" y="-84" font-family="Helvetica,sans-Serif" font-size="10.00" fill="grey"> &lt; Cpl::Logging::EntryData_T &gt;</text>
</g>
<!-- Node7 -->
<g id="Node000007" class="node">
<title>Node7</title>
<g id="a_Node000007"><a xlink:href="class_cpl_1_1_container_1_1_ring_buffer_m_t.html" target="_top" xlink:title=" ">
<polygon fill="white" stroke="#666666" points="672.5,-30 529.5,-30 529.5,0 672.5,0 672.5,-30"/>
<text text-anchor="start" x="537.5" y="-18" font-family="Helvetica,sans-Serif" font-size="10.00">Cpl::Container::RingBuffer</text>
<text text-anchor="middle" x="601" y="-7" font-family="Helvetica,sans-Serif" font-size="10.00">MT&lt; ENTRY &gt;</text>
</a>
</g>
</g>
<!-- Node1&#45;&gt;Node7 -->
<g id="edge8_Node000001_Node000007" class="edge">
<title>Node1&#45;&gt;Node7</title>
<g id="a_edge8_Node000001_Node000007"><a xlink:title=" ">
<path fill="none" stroke="orange" stroke-dasharray="5,2" d="M279.86,-84.8C296.6,-72.94 318.98,-58.96 341,-51 402.26,-28.84 476.22,-20.21 529.4,-16.91"/>
<polygon fill="orange" stroke="orange" points="277.68,-82.06 271.65,-90.77 281.79,-87.72 277.68,-82.06"/>
</a>
</g>
<text text-anchor="middle" x="417" y="-54" font-family="Helvetica,sans-Serif" font-size="10.00" fill="grey"> &lt; ENTRY &gt;</text>
</g>
<!-- Node2 -->
<g id="Node000002" class="node">
<title>Node2</title>
<g id="a_Node000002"><a xlink:href="class_cpl_1_1_container_1_1_ring_buffer.html" target="_top" xlink:title="This template class implements a Ring Buffer.">
<polygon fill="white" stroke="#666666" points="143,-121 0,-121 0,-91 143,-91 143,-121"/>
<text text-anchor="start" x="8" y="-109" font-family="Helvetica,sans-Serif" font-size="10.00">Cpl::Container::RingBuffer</text>
<text text-anchor="middle" x="71.5" y="-98" font-family="Helvetica,sans-Serif" font-size="10.00">&lt; ITEM &gt;</text>
</a>
</g>
</g>
<!-- Node2&#45;&gt;Node1 -->
<g id="edge1_Node000001_Node000002" class="edge">
<title>Node2&#45;&gt;Node1</title>
<g id="a_edge1_Node000001_Node000002"><a xlink:title=" ">
<path fill="none" stroke="#63b8ff" d="M153.15,-106C162.1,-106 171.17,-106 179.98,-106"/>
<polygon fill="#63b8ff" stroke="#63b8ff" points="153.11,-102.5 143.11,-106 153.11,-109.5 153.11,-102.5"/>
</a>
</g>
</g>
<!-- Node5&#45;&gt;Node3 -->
<g id="edge5_Node000005_Node000003" class="edge">
<title>Node5&#45;&gt;Node3</title>
<g id="a_edge5_Node000005_Node000003"><a xlink:title=" ">
<path fill="none" stroke="orange" stroke-dasharray="5,2" d="M682.79,-156.73C740.81,-162.27 819.01,-169.75 878.85,-175.47"/>
<polygon fill="orange" stroke="orange" points="682.86,-153.22 672.57,-155.75 682.19,-160.18 682.86,-153.22"/>
</a>
</g>
<text text-anchor="middle" x="785" y="-176" font-family="Helvetica,sans-Serif" font-size="10.00" fill="grey"> &lt; Cpl::Logging::EntryData_T &gt;</text>
</g>
<!-- Node5&#45;&gt;Node4 -->
<g id="edge6_Node000005_Node000004" class="edge">
<title>Node5&#45;&gt;Node4</title>
<g id="a_edge6_Node000005_Node000004"><a xlink:title=" ">
<path fill="none" stroke="orange" stroke-dasharray="5,2" d="M683.02,-141.89C691.79,-141.21 700.58,-140.57 709,-140 772.68,-135.73 845.24,-132.2 897.33,-129.9"/>
<polygon fill="orange" stroke="orange" points="682.46,-138.43 672.77,-142.71 683.01,-145.41 682.46,-138.43"/>
</a>
</g>
<text text-anchor="middle" x="785" y="-143" font-family="Helvetica,sans-Serif" font-size="10.00" fill="grey"> &lt; ENTRY &gt;</text>
</g>
</g>
</svg>
