<?xml version="1.0" encoding="UTF-8" standalone="no"?>
<!DOCTYPE svg PUBLIC "-//W3C//DTD SVG 1.1//EN"
 "http://www.w3.org/Graphics/SVG/1.1/DTD/svg11.dtd">
<!-- Generated by graphviz version 2.43.0 (0)
 -->
<!-- Title: Cpl::Container::SList&lt; ITEM &gt; Pages: 1 -->
<svg width="936pt" height="281pt"
 viewBox="0.00 0.00 936.00 280.50" xmlns="http://www.w3.org/2000/svg" xmlns:xlink="http://www.w3.org/1999/xlink">
<g id="graph0" class="graph" transform="scale(1 1) rotate(0) translate(4 276.5)">
<title>Cpl::Container::SList&lt; ITEM &gt;</title>
<!-- Node1 -->
<g id="Node000001" class="node">
<title>Node1</title>
<g id="a_Node000001"><a xlink:title="This template class implements a singly linked list which maintains the ordering imposed on it by the...">
<polygon fill="#999999" stroke="#666666" points="115,-126 0,-126 0,-96 115,-96 115,-126"/>
<text text-anchor="start" x="8" y="-114" font-family="Helvetica,sans-Serif" font-size="10.00">Cpl::Container::SList</text>
<text text-anchor="middle" x="57.5" y="-103" font-family="Helvetica,sans-Serif" font-size="10.00">&lt; ITEM &gt;</text>
</a>
</g>
</g>
<!-- Node2 -->
<g id="Node000002" class="node">
<title>Node2</title>
<g id="a_Node000002"><a xlink:href="class_cpl_1_1_container_1_1_s_list.html" target="_top" xlink:title=" ">
<polygon fill="white" stroke="#666666" points="416,-222 301,-222 301,-192 416,-192 416,-222"/>
<text text-anchor="start" x="309" y="-210" font-family="Helvetica,sans-Serif" font-size="10.00">Cpl::Container::SList</text>
<text text-anchor="middle" x="358.5" y="-199" font-family="Helvetica,sans-Serif" font-size="10.00">&lt; Message &gt;</text>
</a>
</g>
</g>
<!-- Node1&#45;&gt;Node2 -->
<g id="edge1_Node000001_Node000002" class="edge">
<title>Node1&#45;&gt;Node2</title>
<g id="a_edge1_Node000001_Node000002"><a xlink:title=" ">
<path fill="none" stroke="orange" stroke-dasharray="5,2" d="M84.25,-132.47C97.95,-142.85 115.54,-154.64 133,-162 187.39,-184.94 254.22,-196.4 300.76,-201.99"/>
<polygon fill="orange" stroke="orange" points="86.3,-129.62 76.26,-126.23 82,-135.14 86.3,-129.62"/>
</a>
</g>
<text text-anchor="middle" x="200" y="-200" font-family="Helvetica,sans-Serif" font-size="10.00" fill="grey"> &lt; Message &gt;</text>
</g>
<!-- Node9 -->
<g id="Node000009" class="node">
<title>Node9</title>
<g id="a_Node000009"><a xlink:href="class_cpl_1_1_container_1_1_s_list.html" target="_top" xlink:title=" ">
<polygon fill="white" stroke="#666666" points="428,-174 289,-174 289,-144 428,-144 428,-174"/>
<text text-anchor="start" x="297" y="-162" font-family="Helvetica,sans-Serif" font-size="10.00">Cpl::Container::SList</text>
<text text-anchor="middle" x="358.5" y="-151" font-family="Helvetica,sans-Serif" font-size="10.00">&lt; Cpl::Dm::ModelPoint &gt;</text>
</a>
</g>
</g>
<!-- Node1&#45;&gt;Node9 -->
<g id="edge8_Node000001_Node000009" class="edge">
<title>Node1&#45;&gt;Node9</title>
<g id="a_edge8_Node000001_Node000009"><a xlink:title=" ">
<path fill="none" stroke="orange" stroke-dasharray="5,2" d="M125.38,-124.64C127.95,-125.11 130.5,-125.56 133,-126 185.01,-135.05 244.08,-143.67 288.57,-149.83"/>
<polygon fill="orange" stroke="orange" points="125.86,-121.17 115.39,-122.78 124.58,-128.05 125.86,-121.17"/>
</a>
</g>
<text text-anchor="middle" x="200" y="-150" font-family="Helvetica,sans-Serif" font-size="10.00" fill="grey"> &lt; Cpl::Dm::ModelPoint &gt;</text>
</g>
<!-- Node10 -->
<g id="Node000010" class="node">
<title>Node10</title>
<g id="a_Node000010"><a xlink:href="class_cpl_1_1_container_1_1_s_list.html" target="_top" xlink:title=" ">
<polygon fill="white" stroke="#666666" points="416,-126 301,-126 301,-96 416,-96 416,-126"/>
<text text-anchor="start" x="309" y="-114" font-family="Helvetica,sans-Serif" font-size="10.00">Cpl::Container::SList</text>
<text text-anchor="middle" x="358.5" y="-103" font-family="Helvetica,sans-Serif" font-size="10.00">&lt; Cpl::Io::Output &gt;</text>
</a>
</g>
</g>
<!-- Node1&#45;&gt;Node10 -->
<g id="edge9_Node000001_Node000010" class="edge">
<title>Node1&#45;&gt;Node10</title>
<g id="a_edge9_Node000001_Node000010"><a xlink:title=" ">
<path fill="none" stroke="orange" stroke-dasharray="5,2" d="M125.37,-111C178.15,-111 250.96,-111 300.89,-111"/>
<polygon fill="orange" stroke="orange" points="125.09,-107.5 115.09,-111 125.09,-114.5 125.09,-107.5"/>
</a>
</g>
<text text-anchor="middle" x="200" y="-114" font-family="Helvetica,sans-Serif" font-size="10.00" fill="grey"> &lt; Cpl::Io::Output &gt;</text>
</g>
<!-- Node11 -->
<g id="Node000011" class="node">
<title>Node11</title>
<g id="a_Node000011"><a xlink:href="class_cpl_1_1_container_1_1_s_list.html" target="_top" xlink:title=" ">
<polygon fill="white" stroke="#666666" points="427.5,-78 289.5,-78 289.5,-48 427.5,-48 427.5,-78"/>
<text text-anchor="start" x="297.5" y="-66" font-family="Helvetica,sans-Serif" font-size="10.00">Cpl::Container::SList</text>
<text text-anchor="middle" x="358.5" y="-55" font-family="Helvetica,sans-Serif" font-size="10.00">&lt; Cpl::MApp::MAppApi &gt;</text>
</a>
</g>
</g>
<!-- Node1&#45;&gt;Node11 -->
<g id="edge10_Node000001_Node000011" class="edge">
<title>Node1&#45;&gt;Node11</title>
<g id="a_edge10_Node000001_Node000011"><a xlink:title=" ">
<path fill="none" stroke="orange" stroke-dasharray="5,2" d="M125.38,-97.36C127.95,-96.89 130.5,-96.44 133,-96 185.2,-86.91 244.52,-78.27 289.07,-72.1"/>
<polygon fill="orange" stroke="orange" points="124.58,-93.95 115.39,-99.22 125.86,-100.83 124.58,-93.95"/>
</a>
</g>
<text text-anchor="middle" x="200" y="-99" font-family="Helvetica,sans-Serif" font-size="10.00" fill="grey"> &lt; Cpl::MApp::MAppApi &gt;</text>
</g>
<!-- Node12 -->
<g id="Node000012" class="node">
<title>Node12</title>
<g id="a_Node000012"><a xlink:href="class_cpl_1_1_container_1_1_s_list.html" target="_top" xlink:title=" ">
<polygon fill="white" stroke="#666666" points="432,-30 285,-30 285,0 432,0 432,-30"/>
<text text-anchor="start" x="293" y="-18" font-family="Helvetica,sans-Serif" font-size="10.00">Cpl::Container::SList</text>
<text text-anchor="middle" x="358.5" y="-7" font-family="Helvetica,sans-Serif" font-size="10.00">&lt; Cpl::TShell::Command &gt;</text>
</a>
</g>
</g>
<!-- Node1&#45;&gt;Node12 -->
<g id="edge11_Node000001_Node000012" class="edge">
<title>Node1&#45;&gt;Node12</title>
<g id="a_edge11_Node000001_Node000012"><a xlink:title=" ">
<path fill="none" stroke="orange" stroke-dasharray="5,2" d="M84.61,-89.79C98.29,-79.67 115.75,-68.23 133,-61 181.53,-40.68 239.83,-29.07 284.86,-22.61"/>
<polygon fill="orange" stroke="orange" points="82.46,-87.03 76.62,-95.87 86.7,-92.6 82.46,-87.03"/>
</a>
</g>
<text text-anchor="middle" x="200" y="-64" font-family="Helvetica,sans-Serif" font-size="10.00" fill="grey"> &lt; Cpl::TShell::Command &gt;</text>
</g>
<!-- Node3 -->
<g id="Node000003" class="node">
<title>Node3</title>
<g id="a_Node000003"><a xlink:href="class_cpl_1_1_itc_1_1_mailbox.html" target="_top" xlink:title="This mailbox class implements an Inter Thread Communications message queue.">
<polygon fill="white" stroke="#666666" points="564,-216.5 469,-216.5 469,-197.5 564,-197.5 564,-216.5"/>
<text text-anchor="middle" x="516.5" y="-204.5" font-family="Helvetica,sans-Serif" font-size="10.00">Cpl::Itc::Mailbox</text>
</a>
</g>
</g>
<!-- Node2&#45;&gt;Node3 -->
<g id="edge2_Node000002_Node000003" class="edge">
<title>Node2&#45;&gt;Node3</title>
<g id="a_edge2_Node000002_Node000003"><a xlink:title=" ">
<path fill="none" stroke="#63b8ff" d="M426.51,-207C440.75,-207 455.48,-207 468.77,-207"/>
<polygon fill="#63b8ff" stroke="#63b8ff" points="426.26,-203.5 416.26,-207 426.26,-210.5 426.26,-203.5"/>
</a>
</g>
</g>
<!-- Node4 -->
<g id="Node000004" class="node">
<title>Node4</title>
<g id="a_Node000004"><a xlink:href="class_cpl_1_1_dm_1_1_mailbox_server.html" target="_top" xlink:title="This class extends the Cpl::Dm::EventLoop and Cpl::Itc:Mailbox classes to support the asynchronous ch...">
<polygon fill="white" stroke="#666666" points="733,-235.5 601,-235.5 601,-216.5 733,-216.5 733,-235.5"/>
<text text-anchor="middle" x="667" y="-223.5" font-family="Helvetica,sans-Serif" font-size="10.00">Cpl::Dm::MailboxServer</text>
</a>
</g>
</g>
<!-- Node3&#45;&gt;Node4 -->
<g id="edge3_Node000003_Node000004" class="edge">
<title>Node3&#45;&gt;Node4</title>
<g id="a_edge3_Node000003_Node000004"><a xlink:title=" ">
<path fill="none" stroke="#63b8ff" d="M574.13,-214.25C582.86,-215.36 591.93,-216.52 600.82,-217.66"/>
<polygon fill="#63b8ff" stroke="#63b8ff" points="574.44,-210.76 564.08,-212.96 573.55,-217.7 574.44,-210.76"/>
</a>
</g>
</g>
<!-- Node7 -->
<g id="Node000007" class="node">
<title>Node7</title>
<g id="a_Node000007"><a xlink:href="class_cpl_1_1_itc_1_1_mailbox_server.html" target="_top" xlink:title="This class collects the common functions of a generic server providing a mailbox and Event loop.">
<polygon fill="white" stroke="#666666" points="730.5,-198.5 603.5,-198.5 603.5,-179.5 730.5,-179.5 730.5,-198.5"/>
<text text-anchor="middle" x="667" y="-186.5" font-family="Helvetica,sans-Serif" font-size="10.00">Cpl::Itc::MailboxServer</text>
</a>
</g>
</g>
<!-- Node3&#45;&gt;Node7 -->
<g id="edge6_Node000003_Node000007" class="edge">
<title>Node3&#45;&gt;Node7</title>
<g id="a_edge6_Node000003_Node000007"><a xlink:title=" ">
<path fill="none" stroke="#63b8ff" d="M574.2,-200.13C583.7,-198.98 593.61,-197.77 603.25,-196.61"/>
<polygon fill="#63b8ff" stroke="#63b8ff" points="573.59,-196.68 564.08,-201.35 574.43,-203.63 573.59,-196.68"/>
</a>
</g>
</g>
<!-- Node5 -->
<g id="Node000005" class="node">
<title>Node5</title>
<g id="a_Node000005"><a xlink:href="class_cpl_1_1_dm_1_1_periodic_scheduler.html" target="_top" xlink:title="This class extends the Cpl::Dm::MailboxServer class to add periodic scheduling to an event based &#39;thr...">
<polygon fill="white" stroke="#666666" points="923.5,-272.5 774.5,-272.5 774.5,-253.5 923.5,-253.5 923.5,-272.5"/>
<text text-anchor="middle" x="849" y="-260.5" font-family="Helvetica,sans-Serif" font-size="10.00">Cpl::Dm::PeriodicScheduler</text>
</a>
</g>
</g>
<!-- Node4&#45;&gt;Node5 -->
<g id="edge4_Node000004_Node000005" class="edge">
<title>Node4&#45;&gt;Node5</title>
<g id="a_edge4_Node000004_Node000005"><a xlink:title=" ">
<path fill="none" stroke="#63b8ff" d="M724.35,-237.58C749.16,-242.68 777.94,-248.6 801.49,-253.44"/>
<polygon fill="#63b8ff" stroke="#63b8ff" points="724.85,-234.11 714.35,-235.53 723.44,-240.97 724.85,-234.11"/>
</a>
</g>
</g>
<!-- Node6 -->
<g id="Node000006" class="node">
<title>Node6</title>
<g id="a_Node000006"><a xlink:href="class_cpl_1_1_persistent_1_1_record_server.html" target="_top" xlink:title="This concrete class provides an Event driven Runnable object for executing the read/write operation t...">
<polygon fill="white" stroke="#666666" points="928,-235.5 770,-235.5 770,-216.5 928,-216.5 928,-235.5"/>
<text text-anchor="middle" x="849" y="-223.5" font-family="Helvetica,sans-Serif" font-size="10.00">Cpl::Persistent::RecordServer</text>
</a>
</g>
</g>
<!-- Node4&#45;&gt;Node6 -->
<g id="edge5_Node000004_Node000006" class="edge">
<title>Node4&#45;&gt;Node6</title>
<g id="a_edge5_Node000004_Node000006"><a xlink:title=" ">
<path fill="none" stroke="#63b8ff" d="M743.38,-226C752.12,-226 761.04,-226 769.81,-226"/>
<polygon fill="#63b8ff" stroke="#63b8ff" points="743.24,-222.5 733.24,-226 743.24,-229.5 743.24,-222.5"/>
</a>
</g>
</g>
<!-- Node8 -->
<g id="Node000008" class="node">
<title>Node8</title>
<g id="a_Node000008"><a xlink:href="class_cpl_1_1_itc_1_1_periodic_scheduler.html" target="_top" xlink:title="This class extends the Cpl::Itc::MailboxServer class to add periodic scheduling to an event based &#39;th...">
<polygon fill="white" stroke="#666666" points="920.5,-198.5 777.5,-198.5 777.5,-179.5 920.5,-179.5 920.5,-198.5"/>
<text text-anchor="middle" x="849" y="-186.5" font-family="Helvetica,sans-Serif" font-size="10.00">Cpl::Itc::PeriodicScheduler</text>
</a>
</g>
</g>
<!-- Node7&#45;&gt;Node8 -->
<g id="edge7_Node000007_Node000008" class="edge">
<title>Node7&#45;&gt;Node8</title>
<g id="a_edge7_Node000007_Node000008"><a xlink:title=" ">
<path fill="none" stroke="#63b8ff" d="M741.06,-189C752.99,-189 765.33,-189 777.21,-189"/>
<polygon fill="#63b8ff" stroke="#63b8ff" points="740.7,-185.5 730.7,-189 740.7,-192.5 740.7,-185.5"/>
</a>
</g>
</g>
</g>
</svg>
