<?xml version="1.0" encoding="UTF-8" standalone="no"?>
<!DOCTYPE svg PUBLIC "-//W3C//DTD SVG 1.1//EN"
 "http://www.w3.org/Graphics/SVG/1.1/DTD/svg11.dtd">
<!-- Generated by graphviz version 2.43.0 (0)
 -->
<!-- Title: Cpl::Itc::CloseRequest Pages: 1 -->
<svg width="803pt" height="175pt"
 viewBox="0.00 0.00 803.00 175.39" xmlns="http://www.w3.org/2000/svg" xmlns:xlink="http://www.w3.org/1999/xlink">
<g id="graph0" class="graph" transform="scale(1 1) rotate(0) translate(4 171.39)">
<title>Cpl::Itc::CloseRequest</title>
<!-- Node1 -->
<g id="Node000001" class="node">
<title>Node1</title>
<g id="a_Node000001"><a xlink:title="This abstract class define message types and payloads for a set of ITC services.">
<polygon fill="#999999" stroke="#666666" points="123,-105 0,-105 0,-86 123,-86 123,-105"/>
<text text-anchor="middle" x="61.5" y="-93" font-family="Helvetica,sans-Serif" font-size="10.00">Cpl::Itc::CloseRequest</text>
</a>
</g>
</g>
<!-- Node2 -->
<g id="Node000002" class="node">
<title>Node2</title>
<g id="a_Node000002"><a xlink:href="class_cpl_1_1_itc_1_1_close_sync.html" target="_top" xlink:title="This partially concrete class implements the synchronous ITC close call for the CloseApi.">
<polygon fill="white" stroke="#666666" points="267,-105 160,-105 160,-86 267,-86 267,-105"/>
<text text-anchor="middle" x="213.5" y="-93" font-family="Helvetica,sans-Serif" font-size="10.00">Cpl::Itc::CloseSync</text>
</a>
</g>
</g>
<!-- Node1&#45;&gt;Node2 -->
<g id="edge1_Node000001_Node000002" class="edge">
<title>Node1&#45;&gt;Node2</title>
<g id="a_edge1_Node000001_Node000002"><a xlink:title=" ">
<path fill="none" stroke="#63b8ff" d="M133.17,-95.5C142.17,-95.5 151.25,-95.5 159.9,-95.5"/>
<polygon fill="#63b8ff" stroke="#63b8ff" points="133.08,-92 123.08,-95.5 133.08,-99 133.08,-92"/>
</a>
</g>
</g>
<!-- Node3 -->
<g id="Node000003" class="node">
<title>Node3</title>
<g id="a_Node000003"><a xlink:href="class_cpl_1_1_persistent_1_1_indexed_entry_server.html" target="_top" xlink:title=" ">
<polygon fill="white" stroke="#666666" points="795,-132 650,-132 650,-91 795,-91 795,-132"/>
<text text-anchor="start" x="658" y="-120" font-family="Helvetica,sans-Serif" font-size="10.00">Cpl::Persistent::Indexed</text>
<text text-anchor="start" x="658" y="-109" font-family="Helvetica,sans-Serif" font-size="10.00">EntryServer&lt; Cpl::Logging</text>
<text text-anchor="middle" x="722.5" y="-98" font-family="Helvetica,sans-Serif" font-size="10.00">::EntryData_T &gt;</text>
</a>
</g>
</g>
<!-- Node2&#45;&gt;Node3 -->
<g id="edge2_Node000002_Node000003" class="edge">
<title>Node2&#45;&gt;Node3</title>
<g id="a_edge2_Node000002_Node000003"><a xlink:title=" ">
<path fill="none" stroke="#63b8ff" d="M233.41,-111.8C250.54,-125.41 277.15,-143.79 304,-151.5 425.6,-186.41 574.46,-155.51 657.56,-132.04"/>
<polygon fill="#63b8ff" stroke="#63b8ff" points="235.31,-108.83 225.36,-105.19 230.87,-114.24 235.31,-108.83"/>
</a>
</g>
</g>
<!-- Node4 -->
<g id="Node000004" class="node">
<title>Node4</title>
<g id="a_Node000004"><a xlink:href="class_cpl_1_1_logging_1_1_log_sink.html" target="_top" xlink:title="This class is responsible for consuming the application&#39;s Log buffer and &#39;dispatching&#39; log entries.">
<polygon fill="white" stroke="#666666" points="443.5,-142 322.5,-142 322.5,-123 443.5,-123 443.5,-142"/>
<text text-anchor="middle" x="383" y="-130" font-family="Helvetica,sans-Serif" font-size="10.00">Cpl::Logging::LogSink</text>
</a>
</g>
</g>
<!-- Node2&#45;&gt;Node4 -->
<g id="edge3_Node000002_Node000004" class="edge">
<title>Node2&#45;&gt;Node4</title>
<g id="a_edge3_Node000002_Node000004"><a xlink:title=" ">
<path fill="none" stroke="#63b8ff" d="M267.56,-107.22C290.5,-112.29 317,-118.14 338.72,-122.94"/>
<polygon fill="#63b8ff" stroke="#63b8ff" points="268.15,-103.77 257.64,-105.03 266.65,-110.6 268.15,-103.77"/>
</a>
</g>
</g>
<!-- Node5 -->
<g id="Node000005" class="node">
<title>Node5</title>
<g id="a_Node000005"><a xlink:href="class_cpl_1_1_m_app_1_1_manager.html" target="_top" xlink:title="This concrete class implements the MApp Manager.">
<polygon fill="white" stroke="#666666" points="440.5,-105 325.5,-105 325.5,-86 440.5,-86 440.5,-105"/>
<text text-anchor="middle" x="383" y="-93" font-family="Helvetica,sans-Serif" font-size="10.00">Cpl::MApp::Manager</text>
</a>
</g>
</g>
<!-- Node2&#45;&gt;Node5 -->
<g id="edge4_Node000002_Node000005" class="edge">
<title>Node2&#45;&gt;Node5</title>
<g id="a_edge4_Node000002_Node000005"><a xlink:title=" ">
<path fill="none" stroke="#63b8ff" d="M277.22,-95.5C293,-95.5 309.83,-95.5 325.29,-95.5"/>
<polygon fill="#63b8ff" stroke="#63b8ff" points="277.04,-92 267.04,-95.5 277.04,-99 277.04,-92"/>
</a>
</g>
</g>
<!-- Node6 -->
<g id="Node000006" class="node">
<title>Node6</title>
<g id="a_Node000006"><a xlink:href="class_cpl_1_1_persistent_1_1_indexed_entry_server.html" target="_top" xlink:title="This concrete template class implements the ITC messaging (and Model Point monitoring) needed to prov...">
<polygon fill="white" stroke="#666666" points="448.5,-67.5 317.5,-67.5 317.5,-37.5 448.5,-37.5 448.5,-67.5"/>
<text text-anchor="start" x="325.5" y="-55.5" font-family="Helvetica,sans-Serif" font-size="10.00">Cpl::Persistent::Indexed</text>
<text text-anchor="middle" x="383" y="-44.5" font-family="Helvetica,sans-Serif" font-size="10.00">EntryServer&lt; ENTRY &gt;</text>
</a>
</g>
</g>
<!-- Node2&#45;&gt;Node6 -->
<g id="edge5_Node000002_Node000006" class="edge">
<title>Node2&#45;&gt;Node6</title>
<g id="a_edge5_Node000002_Node000006"><a xlink:title=" ">
<path fill="none" stroke="#63b8ff" d="M261.43,-83.45C280.7,-78.51 303.22,-72.72 323.55,-67.51"/>
<polygon fill="#63b8ff" stroke="#63b8ff" points="260.49,-80.08 251.67,-85.96 262.23,-86.86 260.49,-80.08"/>
</a>
</g>
</g>
<!-- Node7 -->
<g id="Node000007" class="node">
<title>Node7</title>
<g id="a_Node000007"><a xlink:href="class_cpl_1_1_persistent_1_1_record_server.html" target="_top" xlink:title="This concrete class provides an Event driven Runnable object for executing the read/write operation t...">
<polygon fill="white" stroke="#666666" points="462,-19 304,-19 304,0 462,0 462,-19"/>
<text text-anchor="middle" x="383" y="-7" font-family="Helvetica,sans-Serif" font-size="10.00">Cpl::Persistent::RecordServer</text>
</a>
</g>
</g>
<!-- Node2&#45;&gt;Node7 -->
<g id="edge7_Node000002_Node000007" class="edge">
<title>Node2&#45;&gt;Node7</title>
<g id="a_edge7_Node000002_Node000007"><a xlink:title=" ">
<path fill="none" stroke="#63b8ff" d="M231.85,-79.1C248.93,-63.83 276.39,-41.52 304,-28.5 312.07,-24.69 320.98,-21.6 329.8,-19.11"/>
<polygon fill="#63b8ff" stroke="#63b8ff" points="229.37,-76.63 224.35,-85.96 234.09,-81.8 229.37,-76.63"/>
</a>
</g>
</g>
<!-- Node6&#45;&gt;Node3 -->
<g id="edge6_Node000006_Node000003" class="edge">
<title>Node6&#45;&gt;Node3</title>
<g id="a_edge6_Node000006_Node000003"><a xlink:title=" ">
<path fill="none" stroke="orange" stroke-dasharray="5,2" d="M458.69,-65.56C515.63,-75.51 593.55,-89.13 649.74,-98.96"/>
<polygon fill="orange" stroke="orange" points="459.13,-62.08 448.67,-63.81 457.92,-68.98 459.13,-62.08"/>
</a>
</g>
<text text-anchor="middle" x="556" y="-98.5" font-family="Helvetica,sans-Serif" font-size="10.00" fill="grey"> &lt; Cpl::Logging::EntryData_T &gt;</text>
</g>
</g>
</svg>
