<?xml version="1.0" encoding="UTF-8" standalone="no"?>
<!DOCTYPE svg PUBLIC "-//W3C//DTD SVG 1.1//EN"
 "http://www.w3.org/Graphics/SVG/1.1/DTD/svg11.dtd">
<!-- Generated by graphviz version 2.43.0 (0)
 -->
<!-- Title: Cpl::Io::Socket::Listener_ Pages: 1 -->
<svg width="557pt" height="150pt"
 viewBox="0.00 0.00 557.00 150.00" xmlns="http://www.w3.org/2000/svg" xmlns:xlink="http://www.w3.org/1999/xlink">
<g id="graph0" class="graph" transform="scale(1 1) rotate(0) translate(4 146)">
<title>Cpl::Io::Socket::Listener_</title>
<!-- Node1 -->
<g id="Node000001" class="node">
<title>Node1</title>
<g id="a_Node000001"><a xlink:title="This private, mostly concrete helper class manages the top level threading aspects for a simple liste...">
<polygon fill="#999999" stroke="#666666" points="549,-81 413,-81 413,-62 549,-62 549,-81"/>
<text text-anchor="middle" x="481" y="-69" font-family="Helvetica,sans-Serif" font-size="10.00">Cpl::Io::Socket::Listener_</text>
</a>
</g>
</g>
<!-- Node2 -->
<g id="Node000002" class="node">
<title>Node2</title>
<g id="a_Node000002"><a xlink:href="class_cpl_1_1_io_1_1_socket_1_1_listener.html" target="_top" xlink:title="This abstract class defines the interface for a SIMPLE socket listener.">
<polygon fill="white" stroke="#666666" points="295,-142 164,-142 164,-123 295,-123 295,-142"/>
<text text-anchor="middle" x="229.5" y="-130" font-family="Helvetica,sans-Serif" font-size="10.00">Cpl::Io::Socket::Listener</text>
</a>
</g>
</g>
<!-- Node2&#45;&gt;Node1 -->
<g id="edge1_Node000001_Node000002" class="edge">
<title>Node2&#45;&gt;Node1</title>
<g id="a_edge1_Node000001_Node000002"><a xlink:title=" ">
<path fill="none" stroke="#63b8ff" d="M290.67,-121.01C321.94,-114.71 360.69,-106.38 395,-97.5 413.82,-92.63 434.71,-86.25 451.07,-81.04"/>
<polygon fill="#63b8ff" stroke="#63b8ff" points="289.92,-117.59 280.8,-122.98 291.29,-124.45 289.92,-117.59"/>
</a>
</g>
</g>
<!-- Node3 -->
<g id="Node000003" class="node">
<title>Node3</title>
<g id="a_Node000003"><a xlink:href="class_cpl_1_1_system_1_1_runnable.html" target="_top" xlink:title="This is an abstract class defines the interface for an object that is &quot;executed&quot; when a Thread object...">
<polygon fill="white" stroke="#666666" points="127,-142 0,-142 0,-123 127,-123 127,-142"/>
<text text-anchor="middle" x="63.5" y="-130" font-family="Helvetica,sans-Serif" font-size="10.00">Cpl::System::Runnable</text>
</a>
</g>
</g>
<!-- Node3&#45;&gt;Node2 -->
<g id="edge2_Node000002_Node000003" class="edge">
<title>Node3&#45;&gt;Node2</title>
<g id="a_edge2_Node000002_Node000003"><a xlink:title=" ">
<path fill="none" stroke="#63b8ff" d="M137.61,-132.5C146.35,-132.5 155.22,-132.5 163.83,-132.5"/>
<polygon fill="#63b8ff" stroke="#63b8ff" points="137.44,-129 127.44,-132.5 137.44,-136 137.44,-129"/>
</a>
</g>
</g>
<!-- Node4 -->
<g id="Node000004" class="node">
<title>Node4</title>
<g id="a_Node000004"><a xlink:href="class_cpl_1_1_io_1_1_socket_1_1_listener_1_1_client.html" target="_top" xlink:title="This class defines the callback mechanism used for accepting incoming socket connections.">
<polygon fill="white" stroke="#666666" points="295,-104.5 164,-104.5 164,-74.5 295,-74.5 295,-104.5"/>
<text text-anchor="start" x="172" y="-92.5" font-family="Helvetica,sans-Serif" font-size="10.00">Cpl::Io::Socket::Listener</text>
<text text-anchor="middle" x="229.5" y="-81.5" font-family="Helvetica,sans-Serif" font-size="10.00">::Client</text>
</a>
</g>
</g>
<!-- Node4&#45;&gt;Node1 -->
<g id="edge3_Node000001_Node000004" class="edge">
<title>Node4&#45;&gt;Node1</title>
<g id="a_edge3_Node000001_Node000004"><a xlink:title=" ">
<path fill="none" stroke="#9a32cd" stroke-dasharray="5,2" d="M305.45,-84.09C339.53,-81.63 379.53,-78.75 412.64,-76.36"/>
<polygon fill="#9a32cd" stroke="#9a32cd" points="304.8,-80.63 295.08,-84.84 305.3,-87.61 304.8,-80.63"/>
</a>
</g>
<text text-anchor="middle" x="354" y="-85.5" font-family="Helvetica,sans-Serif" font-size="10.00" fill="grey"> m_clientPtr</text>
</g>
<!-- Node5 -->
<g id="Node000005" class="node">
<title>Node5</title>
<g id="a_Node000005"><a xlink:href="class_cpl_1_1_system_1_1_signable.html" target="_top" xlink:title="This abstract class defines the interface by which a client can cause an object that is waiting&#45;on&#45;a&#45;...">
<polygon fill="white" stroke="#666666" points="291,-56 168,-56 168,-37 291,-37 291,-56"/>
<text text-anchor="middle" x="229.5" y="-44" font-family="Helvetica,sans-Serif" font-size="10.00">Cpl::System::Signable</text>
</a>
</g>
</g>
<!-- Node5&#45;&gt;Node1 -->
<g id="edge4_Node000001_Node000005" class="edge">
<title>Node5&#45;&gt;Node1</title>
<g id="a_edge4_Node000001_Node000005"><a xlink:title=" ">
<path fill="none" stroke="#9a32cd" stroke-dasharray="5,2" d="M301.13,-53.24C330.21,-56.04 364.23,-59.37 395,-62.5 400.76,-63.08 406.73,-63.7 412.73,-64.32"/>
<polygon fill="#9a32cd" stroke="#9a32cd" points="301.35,-49.74 291.06,-52.27 300.68,-56.71 301.35,-49.74"/>
</a>
</g>
<text text-anchor="middle" x="354" y="-65.5" font-family="Helvetica,sans-Serif" font-size="10.00" fill="grey"> m_myThreadPtr</text>
</g>
<!-- Node6 -->
<g id="Node000006" class="node">
<title>Node6</title>
<g id="a_Node000006"><a xlink:href="class_cpl_1_1_container_1_1_item.html" target="_top" xlink:title="This class is used by the Container classes to implement a various types of singly linked containers.">
<polygon fill="white" stroke="#666666" points="120.5,-56 6.5,-56 6.5,-37 120.5,-37 120.5,-56"/>
<text text-anchor="middle" x="63.5" y="-44" font-family="Helvetica,sans-Serif" font-size="10.00">Cpl::Container::Item</text>
</a>
</g>
</g>
<!-- Node6&#45;&gt;Node5 -->
<g id="edge5_Node000005_Node000006" class="edge">
<title>Node6&#45;&gt;Node5</title>
<g id="a_edge5_Node000005_Node000006"><a xlink:title=" ">
<path fill="none" stroke="#63b8ff" d="M131.01,-46.5C143.16,-46.5 155.78,-46.5 167.75,-46.5"/>
<polygon fill="#63b8ff" stroke="#63b8ff" points="130.94,-43 120.94,-46.5 130.94,-50 130.94,-43"/>
</a>
</g>
</g>
<!-- Node7 -->
<g id="Node000007" class="node">
<title>Node7</title>
<g id="a_Node000007"><a xlink:href="class_cpl_1_1_system_1_1_mutex.html" target="_top" xlink:title="This mutex class defines the interface for a mutex that has &quot;recursive&quot; semantics.">
<polygon fill="white" stroke="#666666" points="285.5,-19 173.5,-19 173.5,0 285.5,0 285.5,-19"/>
<text text-anchor="middle" x="229.5" y="-7" font-family="Helvetica,sans-Serif" font-size="10.00">Cpl::System::Mutex</text>
</a>
</g>
</g>
<!-- Node7&#45;&gt;Node1 -->
<g id="edge6_Node000001_Node000007" class="edge">
<title>Node7&#45;&gt;Node1</title>
<g id="a_edge6_Node000001_Node000007"><a xlink:title=" ">
<path fill="none" stroke="#9a32cd" stroke-dasharray="5,2" d="M295.65,-17.98C326.14,-22.71 362.75,-29.49 395,-38.5 417.26,-44.72 441.78,-54.58 458.74,-61.9"/>
<polygon fill="#9a32cd" stroke="#9a32cd" points="295.97,-14.49 285.56,-16.45 294.92,-21.41 295.97,-14.49"/>
</a>
</g>
<text text-anchor="middle" x="354" y="-41.5" font-family="Helvetica,sans-Serif" font-size="10.00" fill="grey"> m_lock</text>
</g>
</g>
</svg>
