<?xml version="1.0" encoding="UTF-8" standalone="no"?>
<!DOCTYPE svg PUBLIC "-//W3C//DTD SVG 1.1//EN"
 "http://www.w3.org/Graphics/SVG/1.1/DTD/svg11.dtd">
<!-- Generated by graphviz version 2.43.0 (0)
 -->
<!-- Title: Cpl::System::SimTick Pages: 1 -->
<svg width="219pt" height="205pt"
 viewBox="0.00 0.00 218.50 205.00" xmlns="http://www.w3.org/2000/svg" xmlns:xlink="http://www.w3.org/1999/xlink">
<g id="graph0" class="graph" transform="scale(1 1) rotate(0) translate(4 201)">
<title>Cpl::System::SimTick</title>
<!-- Node1 -->
<g id="Node000001" class="node">
<title>Node1</title>
<g id="a_Node000001"><a xlink:title="This class define the interface to provide a simulates system tick (in milliseconds) to the applicati...">
<polygon fill="#999999" stroke="#666666" points="121,-19 1,-19 1,0 121,0 121,-19"/>
<text text-anchor="middle" x="61" y="-7" font-family="Helvetica,sans-Serif" font-size="10.00">Cpl::System::SimTick</text>
</a>
</g>
</g>
<!-- Node2 -->
<g id="Node000002" class="node">
<title>Node2</title>
<g id="a_Node000002"><a xlink:href="class_cpl_1_1_container_1_1_item.html" target="_top" xlink:title="This class is used by the Container classes to implement a various types of singly linked containers.">
<polygon fill="white" stroke="#666666" points="114,-197 0,-197 0,-178 114,-178 114,-197"/>
<text text-anchor="middle" x="57" y="-185" font-family="Helvetica,sans-Serif" font-size="10.00">Cpl::Container::Item</text>
</a>
</g>
</g>
<!-- Node2&#45;&gt;Node1 -->
<g id="edge1_Node000001_Node000002" class="edge">
<title>Node2&#45;&gt;Node1</title>
<g id="a_edge1_Node000001_Node000002"><a xlink:title=" ">
<path fill="none" stroke="#63b8ff" d="M57.44,-167.34C58.3,-129.47 60.19,-46.36 60.8,-19.24"/>
<polygon fill="#63b8ff" stroke="#63b8ff" points="53.93,-167.45 57.2,-177.53 60.93,-167.61 53.93,-167.45"/>
</a>
</g>
</g>
<!-- Node4 -->
<g id="Node000004" class="node">
<title>Node4</title>
<g id="a_Node000004"><a xlink:href="class_cpl_1_1_system_1_1_signable.html" target="_top" xlink:title="This abstract class defines the interface by which a client can cause an object that is waiting&#45;on&#45;a&#45;...">
<polygon fill="white" stroke="#666666" points="199.5,-141 76.5,-141 76.5,-122 199.5,-122 199.5,-141"/>
<text text-anchor="middle" x="138" y="-129" font-family="Helvetica,sans-Serif" font-size="10.00">Cpl::System::Signable</text>
</a>
</g>
</g>
<!-- Node2&#45;&gt;Node4 -->
<g id="edge4_Node000004_Node000002" class="edge">
<title>Node2&#45;&gt;Node4</title>
<g id="a_edge4_Node000004_Node000002"><a xlink:title=" ">
<path fill="none" stroke="#63b8ff" d="M78.57,-172.12C93.36,-162.26 112.51,-149.49 125.02,-141.15"/>
<polygon fill="#63b8ff" stroke="#63b8ff" points="76.39,-169.36 70.01,-177.82 80.28,-175.19 76.39,-169.36"/>
</a>
</g>
</g>
<!-- Node3 -->
<g id="Node000003" class="node">
<title>Node3</title>
<g id="a_Node000003"><a xlink:href="class_cpl_1_1_system_1_1_semaphore.html" target="_top" xlink:title="This semaphore class defines the interface for a Counting Semaphore.">
<polygon fill="white" stroke="#666666" points="210.5,-85 73.5,-85 73.5,-66 210.5,-66 210.5,-85"/>
<text text-anchor="middle" x="142" y="-73" font-family="Helvetica,sans-Serif" font-size="10.00">Cpl::System::Semaphore</text>
</a>
</g>
</g>
<!-- Node3&#45;&gt;Node1 -->
<g id="edge2_Node000001_Node000003" class="edge">
<title>Node3&#45;&gt;Node1</title>
<g id="a_edge2_Node000001_Node000003"><a xlink:title=" ">
<path fill="none" stroke="#9a32cd" stroke-dasharray="5,2" d="M123,-59.49C107.14,-46.96 85.09,-29.54 72.01,-19.2"/>
<polygon fill="#9a32cd" stroke="#9a32cd" points="121.06,-62.42 131.08,-65.87 125.4,-56.92 121.06,-62.42"/>
</a>
</g>
<text text-anchor="middle" x="130.5" y="-40" font-family="Helvetica,sans-Serif" font-size="10.00" fill="grey"> m_waiter</text>
</g>
<!-- Node4&#45;&gt;Node3 -->
<g id="edge3_Node000003_Node000004" class="edge">
<title>Node4&#45;&gt;Node3</title>
<g id="a_edge3_Node000003_Node000004"><a xlink:title=" ">
<path fill="none" stroke="#63b8ff" d="M139.4,-111.6C140.06,-102.64 140.83,-92.36 141.35,-85.25"/>
<polygon fill="#63b8ff" stroke="#63b8ff" points="135.91,-111.35 138.66,-121.58 142.89,-111.87 135.91,-111.35"/>
</a>
</g>
</g>
</g>
</svg>
