<?xml version="1.0" encoding="UTF-8" standalone="no"?>
<!DOCTYPE svg PUBLIC "-//W3C//DTD SVG 1.1//EN"
 "http://www.w3.org/Graphics/SVG/1.1/DTD/svg11.dtd">
<!-- Generated by graphviz version 2.43.0 (0)
 -->
<!-- Title: Cpl::Container::Key Pages: 1 -->
<svg width="1139pt" height="376pt"
 viewBox="0.00 0.00 1139.00 375.50" xmlns="http://www.w3.org/2000/svg" xmlns:xlink="http://www.w3.org/1999/xlink">
<g id="graph0" class="graph" transform="scale(1 1) rotate(0) translate(4 371.5)">
<title>Cpl::Container::Key</title>
<!-- Node1 -->
<g id="Node000001" class="node">
<title>Node1</title>
<g id="a_Node000001"><a xlink:title="This abstract class defines the interface that a contained object must support if it has comparable k...">
<polygon fill="#999999" stroke="#666666" points="110,-219 0,-219 0,-200 110,-200 110,-219"/>
<text text-anchor="middle" x="55" y="-207" font-family="Helvetica,sans-Serif" font-size="10.00">Cpl::Container::Key</text>
</a>
</g>
</g>
<!-- Node2 -->
<g id="Node000002" class="node">
<title>Node2</title>
<g id="a_Node000002"><a xlink:href="class_cpl_1_1_container_1_1_key_plain_type.html" target="_top" xlink:title="This template class is used to generate Key classes for most of the C/C++ primitive data types.">
<polygon fill="white" stroke="#666666" points="283,-272.5 149,-272.5 149,-242.5 283,-242.5 283,-272.5"/>
<text text-anchor="start" x="157" y="-260.5" font-family="Helvetica,sans-Serif" font-size="10.00">Cpl::Container::KeyPlain</text>
<text text-anchor="middle" x="216" y="-249.5" font-family="Helvetica,sans-Serif" font-size="10.00">Type&lt; DATATYPE &gt;</text>
</a>
</g>
</g>
<!-- Node1&#45;&gt;Node2 -->
<g id="edge1_Node000001_Node000002" class="edge">
<title>Node1&#45;&gt;Node2</title>
<g id="a_edge1_Node000001_Node000002"><a xlink:title=" ">
<path fill="none" stroke="#63b8ff" d="M97.55,-222.04C118.23,-228.29 143.39,-235.88 165.1,-242.44"/>
<polygon fill="#63b8ff" stroke="#63b8ff" points="98.38,-218.64 87.79,-219.1 96.36,-225.34 98.38,-218.64"/>
</a>
</g>
</g>
<!-- Node3 -->
<g id="Node000003" class="node">
<title>Node3</title>
<g id="a_Node000003"><a xlink:href="class_cpl_1_1_container_1_1_key_string_buffer.html" target="_top" xlink:title="This class provides a &#39;Key&#39; wrapper for a array of Character of length N, i.e.">
<polygon fill="white" stroke="#666666" points="285,-224.5 147,-224.5 147,-194.5 285,-194.5 285,-224.5"/>
<text text-anchor="start" x="155" y="-212.5" font-family="Helvetica,sans-Serif" font-size="10.00">Cpl::Container::KeyString</text>
<text text-anchor="middle" x="216" y="-201.5" font-family="Helvetica,sans-Serif" font-size="10.00">Buffer</text>
</a>
</g>
</g>
<!-- Node1&#45;&gt;Node3 -->
<g id="edge2_Node000001_Node000003" class="edge">
<title>Node1&#45;&gt;Node3</title>
<g id="a_edge2_Node000001_Node000003"><a xlink:title=" ">
<path fill="none" stroke="#63b8ff" d="M120.39,-209.5C129.12,-209.5 138.11,-209.5 146.91,-209.5"/>
<polygon fill="#63b8ff" stroke="#63b8ff" points="120.27,-206 110.27,-209.5 120.27,-213 120.27,-206"/>
</a>
</g>
</g>
<!-- Node5 -->
<g id="Node000005" class="node">
<title>Node5</title>
<g id="a_Node000005"><a xlink:href="class_cpl_1_1_text_1_1_string.html" target="_top" xlink:title="This abstract class defines the operations that can be before on a NULL terminated string.">
<polygon fill="white" stroke="#666666" points="262.5,-176 169.5,-176 169.5,-157 262.5,-157 262.5,-176"/>
<text text-anchor="middle" x="216" y="-164" font-family="Helvetica,sans-Serif" font-size="10.00">Cpl::Text::String</text>
</a>
</g>
</g>
<!-- Node1&#45;&gt;Node5 -->
<g id="edge4_Node000001_Node000005" class="edge">
<title>Node1&#45;&gt;Node5</title>
<g id="a_edge4_Node000001_Node000005"><a xlink:title=" ">
<path fill="none" stroke="#63b8ff" d="M101.24,-197.26C126.18,-190.52 156.67,-182.27 179.81,-176.02"/>
<polygon fill="#63b8ff" stroke="#63b8ff" points="100.03,-193.97 91.29,-199.96 101.85,-200.72 100.03,-193.97"/>
</a>
</g>
</g>
<!-- Node4 -->
<g id="Node000004" class="node">
<title>Node4</title>
<g id="a_Node000004"><a xlink:href="class_cpl_1_1_container_1_1_key_literal_string.html" target="_top" xlink:title="This class provides a &#39;Key&#39; wrapper for a C string literal.">
<polygon fill="white" stroke="#666666" points="462,-224.5 322,-224.5 322,-194.5 462,-194.5 462,-224.5"/>
<text text-anchor="start" x="330" y="-212.5" font-family="Helvetica,sans-Serif" font-size="10.00">Cpl::Container::KeyLiteral</text>
<text text-anchor="middle" x="392" y="-201.5" font-family="Helvetica,sans-Serif" font-size="10.00">String</text>
</a>
</g>
</g>
<!-- Node3&#45;&gt;Node4 -->
<g id="edge3_Node000003_Node000004" class="edge">
<title>Node3&#45;&gt;Node4</title>
<g id="a_edge3_Node000003_Node000004"><a xlink:title=" ">
<path fill="none" stroke="#63b8ff" d="M295.49,-209.5C304.26,-209.5 313.14,-209.5 321.78,-209.5"/>
<polygon fill="#63b8ff" stroke="#63b8ff" points="295.27,-206 285.27,-209.5 295.27,-213 295.27,-206"/>
</a>
</g>
</g>
<!-- Node6 -->
<g id="Node000006" class="node">
<title>Node6</title>
<g id="a_Node000006"><a xlink:href="class_cpl_1_1_text_1_1_string__.html" target="_top" xlink:title="This partially concrete class implements the portions of the String Api that is independent of the in...">
<polygon fill="white" stroke="#666666" points="441,-176 343,-176 343,-157 441,-157 441,-176"/>
<text text-anchor="middle" x="392" y="-164" font-family="Helvetica,sans-Serif" font-size="10.00">Cpl::Text::String_</text>
</a>
</g>
</g>
<!-- Node5&#45;&gt;Node6 -->
<g id="edge5_Node000005_Node000006" class="edge">
<title>Node5&#45;&gt;Node6</title>
<g id="a_edge5_Node000005_Node000006"><a xlink:title=" ">
<path fill="none" stroke="#63b8ff" d="M272.82,-166.5C295.37,-166.5 321.14,-166.5 342.85,-166.5"/>
<polygon fill="#63b8ff" stroke="#63b8ff" points="272.72,-163 262.72,-166.5 272.72,-170 272.72,-163"/>
</a>
</g>
</g>
<!-- Node7 -->
<g id="Node000007" class="node">
<title>Node7</title>
<g id="a_Node000007"><a xlink:href="class_cpl_1_1_text_1_1_d_string.html" target="_top" xlink:title="This concrete class implements a simple &quot;dynamic storage&quot; String Type.">
<polygon fill="white" stroke="#666666" points="601.5,-195 500.5,-195 500.5,-176 601.5,-176 601.5,-195"/>
<text text-anchor="middle" x="551" y="-183" font-family="Helvetica,sans-Serif" font-size="10.00">Cpl::Text::DString</text>
</a>
</g>
</g>
<!-- Node6&#45;&gt;Node7 -->
<g id="edge6_Node000006_Node000007" class="edge">
<title>Node6&#45;&gt;Node7</title>
<g id="a_edge6_Node000006_Node000007"><a xlink:title=" ">
<path fill="none" stroke="#63b8ff" d="M451.72,-173.61C467.75,-175.55 484.95,-177.63 500.42,-179.5"/>
<polygon fill="#63b8ff" stroke="#63b8ff" points="451.73,-170.08 441.39,-172.36 450.89,-177.03 451.73,-170.08"/>
</a>
</g>
</g>
<!-- Node8 -->
<g id="Node000008" class="node">
<title>Node8</title>
<g id="a_Node000008"><a xlink:href="class_cpl_1_1_text_1_1_f_string__.html" target="_top" xlink:title="This mostly concrete class implements a &quot;fixed storage&quot; String Type.">
<polygon fill="white" stroke="#666666" points="603,-158 499,-158 499,-139 603,-139 603,-158"/>
<text text-anchor="middle" x="551" y="-146" font-family="Helvetica,sans-Serif" font-size="10.00">Cpl::Text::FString_</text>
</a>
</g>
</g>
<!-- Node6&#45;&gt;Node8 -->
<g id="edge7_Node000006_Node000008" class="edge">
<title>Node6&#45;&gt;Node8</title>
<g id="a_edge7_Node000006_Node000008"><a xlink:title=" ">
<path fill="none" stroke="#63b8ff" d="M451.42,-159.8C466.97,-158.02 483.65,-156.11 498.78,-154.37"/>
<polygon fill="#63b8ff" stroke="#63b8ff" points="450.92,-156.34 441.39,-160.95 451.72,-163.29 450.92,-156.34"/>
</a>
</g>
</g>
<!-- Node9 -->
<g id="Node000009" class="node">
<title>Node9</title>
<g id="a_Node000009"><a xlink:href="class_cpl_1_1_text_1_1_f_string.html" target="_top" xlink:title=" ">
<polygon fill="white" stroke="#666666" points="1122,-294.5 961,-294.5 961,-264.5 1122,-264.5 1122,-294.5"/>
<text text-anchor="start" x="969" y="-282.5" font-family="Helvetica,sans-Serif" font-size="10.00">Cpl::Text::FString</text>
<text text-anchor="middle" x="1041.5" y="-271.5" font-family="Helvetica,sans-Serif" font-size="10.00">&lt; CPL_IO_FILE_MAX_NAME &gt;</text>
</a>
</g>
</g>
<!-- Node8&#45;&gt;Node9 -->
<g id="edge8_Node000008_Node000009" class="edge">
<title>Node8&#45;&gt;Node9</title>
<g id="a_edge8_Node000008_Node000009"><a xlink:title=" ">
<path fill="none" stroke="#63b8ff" d="M596.41,-162.91C598.72,-164.31 600.94,-165.84 603,-167.5 626.78,-186.72 618.35,-203.91 640,-225.5 694.03,-279.4 711.71,-296.21 785,-317.5 848.59,-335.97 868.75,-328.79 934,-317.5 959.34,-313.11 986.63,-303.27 1007.25,-294.7"/>
<polygon fill="#63b8ff" stroke="#63b8ff" points="597.59,-159.58 587.1,-158.12 594.38,-165.81 597.59,-159.58"/>
</a>
</g>
</g>
<!-- Node10 -->
<g id="Node000010" class="node">
<title>Node10</title>
<g id="a_Node000010"><a xlink:href="class_cpl_1_1_text_1_1_f_string.html" target="_top" xlink:title=" ">
<polygon fill="white" stroke="#666666" points="1090.5,-367.5 992.5,-367.5 992.5,-337.5 1090.5,-337.5 1090.5,-367.5"/>
<text text-anchor="start" x="1000.5" y="-355.5" font-family="Helvetica,sans-Serif" font-size="10.00">Cpl::Text::FString</text>
<text text-anchor="middle" x="1041.5" y="-344.5" font-family="Helvetica,sans-Serif" font-size="10.00">&lt; 64 &gt;</text>
</a>
</g>
</g>
<!-- Node8&#45;&gt;Node10 -->
<g id="edge9_Node000008_Node000010" class="edge">
<title>Node8&#45;&gt;Node10</title>
<g id="a_edge9_Node000008_Node000010"><a xlink:title=" ">
<path fill="none" stroke="#63b8ff" d="M598.48,-163.45C600.09,-164.69 601.6,-166.04 603,-167.5 640.1,-206.32 602.9,-243.69 640,-282.5 732.42,-379.2 907.47,-371.09 992.17,-360.36"/>
<polygon fill="#63b8ff" stroke="#63b8ff" points="600.13,-160.35 589.8,-158.04 596.43,-166.29 600.13,-160.35"/>
</a>
</g>
</g>
<!-- Node11 -->
<g id="Node000011" class="node">
<title>Node11</title>
<g id="a_Node000011"><a xlink:href="class_cpl_1_1_text_1_1_f_string.html" target="_top" xlink:title=" ">
<polygon fill="white" stroke="#666666" points="1131,-165.5 952,-165.5 952,-135.5 1131,-135.5 1131,-165.5"/>
<text text-anchor="start" x="960" y="-153.5" font-family="Helvetica,sans-Serif" font-size="10.00">Cpl::Text::FString</text>
<text text-anchor="middle" x="1041.5" y="-142.5" font-family="Helvetica,sans-Serif" font-size="10.00">&lt; configMAX_TASK_NAME_LEN &gt;</text>
</a>
</g>
</g>
<!-- Node8&#45;&gt;Node11 -->
<g id="edge10_Node000008_Node000011" class="edge">
<title>Node8&#45;&gt;Node11</title>
<g id="a_edge10_Node000008_Node000011"><a xlink:title=" ">
<path fill="none" stroke="#63b8ff" d="M584.68,-135.16C651.25,-109.86 807.03,-60.17 934,-92.5 966.44,-100.76 999.67,-121.13 1020.19,-135.39"/>
<polygon fill="#63b8ff" stroke="#63b8ff" points="583.21,-131.98 575.15,-138.85 585.74,-138.51 583.21,-131.98"/>
</a>
</g>
</g>
<!-- Node12 -->
<g id="Node000012" class="node">
<title>Node12</title>
<g id="a_Node000012"><a xlink:href="class_cpl_1_1_text_1_1_f_string.html" target="_top" xlink:title=" ">
<polygon fill="white" stroke="#666666" points="1124,-89 959,-89 959,-48 1124,-48 1124,-89"/>
<text text-anchor="start" x="967" y="-77" font-family="Helvetica,sans-Serif" font-size="10.00">Cpl::Text::FString</text>
<text text-anchor="start" x="967" y="-66" font-family="Helvetica,sans-Serif" font-size="10.00">&lt; OPTION_CPL_TSHELL</text>
<text text-anchor="middle" x="1041.5" y="-55" font-family="Helvetica,sans-Serif" font-size="10.00">_PROCESSOR_OUTPUT_SIZE &gt;</text>
</a>
</g>
</g>
<!-- Node8&#45;&gt;Node12 -->
<g id="edge11_Node000008_Node000012" class="edge">
<title>Node8&#45;&gt;Node12</title>
<g id="a_edge11_Node000008_Node000012"><a xlink:title=" ">
<path fill="none" stroke="#63b8ff" d="M568.32,-131.61C584.75,-115.89 611.65,-93.43 640,-83.5 745.4,-46.59 876.06,-50.07 958.88,-57.8"/>
<polygon fill="#63b8ff" stroke="#63b8ff" points="565.8,-129.19 561.14,-138.71 570.71,-134.17 565.8,-129.19"/>
</a>
</g>
</g>
<!-- Node13 -->
<g id="Node000013" class="node">
<title>Node13</title>
<g id="a_Node000013"><a xlink:href="class_cpl_1_1_text_1_1_f_string.html" target="_top" xlink:title=" ">
<polygon fill="white" stroke="#666666" points="1119,-239 964,-239 964,-198 1119,-198 1119,-239"/>
<text text-anchor="start" x="972" y="-227" font-family="Helvetica,sans-Serif" font-size="10.00">Cpl::Text::FString</text>
<text text-anchor="start" x="972" y="-216" font-family="Helvetica,sans-Serif" font-size="10.00">&lt; OPTION_CPL_TSHELL</text>
<text text-anchor="middle" x="1041.5" y="-205" font-family="Helvetica,sans-Serif" font-size="10.00">_PROCESSOR_INPUT_SIZE &gt;</text>
</a>
</g>
</g>
<!-- Node8&#45;&gt;Node13 -->
<g id="edge12_Node000008_Node000013" class="edge">
<title>Node8&#45;&gt;Node13</title>
<g id="a_edge12_Node000008_Node000013"><a xlink:title=" ">
<path fill="none" stroke="#63b8ff" d="M613.27,-140.71C690.23,-133.17 825.36,-127.42 934,-162.5 943.15,-165.45 943.68,-169.68 952,-174.5 966.11,-182.67 981.93,-190.83 996.26,-197.87"/>
<polygon fill="#63b8ff" stroke="#63b8ff" points="612.86,-137.23 603.27,-141.73 613.57,-144.2 612.86,-137.23"/>
</a>
</g>
</g>
<!-- Node14 -->
<g id="Node000014" class="node">
<title>Node14</title>
<g id="a_Node000014"><a xlink:href="class_cpl_1_1_text_1_1_d_f_string.html" target="_top" xlink:title="This concrete class is a mix of FString and a DString &#45; the initial memory is dynamically allocated &#45;...">
<polygon fill="white" stroke="#666666" points="756.5,-19 650.5,-19 650.5,0 756.5,0 756.5,-19"/>
<text text-anchor="middle" x="703.5" y="-7" font-family="Helvetica,sans-Serif" font-size="10.00">Cpl::Text::DFString</text>
</a>
</g>
</g>
<!-- Node8&#45;&gt;Node14 -->
<g id="edge13_Node000008_Node000014" class="edge">
<title>Node8&#45;&gt;Node14</title>
<g id="a_edge13_Node000008_Node000014"><a xlink:title=" ">
<path fill="none" stroke="#63b8ff" d="M558.53,-129.12C568.16,-103.46 588.61,-58.55 621,-33.5 629.52,-26.91 639.8,-22.13 650.16,-18.66"/>
<polygon fill="#63b8ff" stroke="#63b8ff" points="555.13,-128.23 555.06,-138.82 561.72,-130.58 555.13,-128.23"/>
</a>
</g>
</g>
<!-- Node15 -->
<g id="Node000015" class="node">
<title>Node15</title>
<g id="a_Node000015"><a xlink:href="class_cpl_1_1_text_1_1_f_string.html" target="_top" xlink:title="This template class represents a NULL terminated string of a specific length.">
<polygon fill="white" stroke="#666666" points="767,-216 640,-216 640,-197 767,-197 767,-216"/>
<text text-anchor="middle" x="703.5" y="-204" font-family="Helvetica,sans-Serif" font-size="10.00">Cpl::Text::FString&lt; S &gt;</text>
</a>
</g>
</g>
<!-- Node8&#45;&gt;Node15 -->
<g id="edge14_Node000008_Node000015" class="edge">
<title>Node8&#45;&gt;Node15</title>
<g id="a_edge14_Node000008_Node000015"><a xlink:title=" ">
<path fill="none" stroke="#63b8ff" d="M587.68,-161.7C592.83,-163.63 598.05,-165.61 603,-167.5 628.82,-177.37 658.29,-188.96 678.42,-196.93"/>
<polygon fill="#63b8ff" stroke="#63b8ff" points="588.57,-158.3 577.98,-158.08 586.12,-164.86 588.57,-158.3"/>
</a>
</g>
</g>
<!-- Node15&#45;&gt;Node9 -->
<g id="edge15_Node000015_Node000009" class="edge">
<title>Node15&#45;&gt;Node9</title>
<g id="a_edge15_Node000015_Node000009"><a xlink:title=" ">
<path fill="none" stroke="orange" stroke-dasharray="5,2" d="M732.85,-220.52C748,-227.48 767.16,-235.45 785,-240.5 842.75,-256.83 909.9,-266.74 960.86,-272.48"/>
<polygon fill="orange" stroke="orange" points="734.07,-217.22 723.53,-216.13 731.09,-223.56 734.07,-217.22"/>
</a>
</g>
<text text-anchor="middle" x="859.5" y="-271.5" font-family="Helvetica,sans-Serif" font-size="10.00" fill="grey"> &lt; CPL_IO_FILE_MAX_NAME &gt;</text>
</g>
<!-- Node15&#45;&gt;Node10 -->
<g id="edge16_Node000015_Node000010" class="edge">
<title>Node15&#45;&gt;Node10</title>
<g id="a_edge16_Node000015_Node000010"><a xlink:title=" ">
<path fill="none" stroke="orange" stroke-dasharray="5,2" d="M718.17,-223.94C732.86,-241.51 757.78,-268.15 785,-283.5 851.24,-320.85 938.61,-338.75 992.12,-346.73"/>
<polygon fill="orange" stroke="orange" points="720.84,-221.68 711.82,-216.13 715.42,-226.1 720.84,-221.68"/>
</a>
</g>
<text text-anchor="middle" x="859.5" y="-338.5" font-family="Helvetica,sans-Serif" font-size="10.00" fill="grey"> &lt; 64 &gt;</text>
</g>
<!-- Node15&#45;&gt;Node11 -->
<g id="edge17_Node000015_Node000011" class="edge">
<title>Node15&#45;&gt;Node11</title>
<g id="a_edge17_Node000015_Node000011"><a xlink:title=" ">
<path fill="none" stroke="orange" stroke-dasharray="5,2" d="M742.33,-193.82C755.69,-189.72 770.9,-185.46 785,-182.5 839.9,-170.96 902.38,-163.04 951.81,-157.97"/>
<polygon fill="orange" stroke="orange" points="741.01,-190.56 732.52,-196.9 743.11,-197.24 741.01,-190.56"/>
</a>
</g>
<text text-anchor="start" x="794" y="-196.5" font-family="Helvetica,sans-Serif" font-size="10.00" fill="grey"> &lt; configMAX_TASK_NAME</text>
<text text-anchor="middle" x="859.5" y="-185.5" font-family="Helvetica,sans-Serif" font-size="10.00" fill="grey">_LEN &gt;</text>
</g>
<!-- Node15&#45;&gt;Node12 -->
<g id="edge18_Node000015_Node000012" class="edge">
<title>Node15&#45;&gt;Node12</title>
<g id="a_edge18_Node000015_Node000012"><a xlink:title=" ">
<path fill="none" stroke="orange" stroke-dasharray="5,2" d="M719.2,-188.92C734.11,-172.23 758.67,-147.64 785,-133.5 839.13,-104.43 906.76,-87.97 958.83,-78.89"/>
<polygon fill="orange" stroke="orange" points="716.24,-186.99 712.33,-196.83 721.53,-191.58 716.24,-186.99"/>
</a>
</g>
<text text-anchor="start" x="785" y="-147.5" font-family="Helvetica,sans-Serif" font-size="10.00" fill="grey"> &lt; OPTION_CPL_TSHELL</text>
<text text-anchor="middle" x="859.5" y="-136.5" font-family="Helvetica,sans-Serif" font-size="10.00" fill="grey">_PROCESSOR_OUTPUT_SIZE &gt;</text>
</g>
<!-- Node15&#45;&gt;Node13 -->
<g id="edge19_Node000015_Node000013" class="edge">
<title>Node15&#45;&gt;Node13</title>
<g id="a_edge19_Node000015_Node000013"><a xlink:title=" ">
<path fill="none" stroke="orange" stroke-dasharray="5,2" d="M777.34,-209.1C832.42,-211.07 907.87,-213.76 963.86,-215.76"/>
<polygon fill="orange" stroke="orange" points="777.42,-205.6 767.3,-208.74 777.17,-212.6 777.42,-205.6"/>
</a>
</g>
<text text-anchor="start" x="790" y="-228.5" font-family="Helvetica,sans-Serif" font-size="10.00" fill="grey"> &lt; OPTION_CPL_TSHELL</text>
<text text-anchor="middle" x="859.5" y="-217.5" font-family="Helvetica,sans-Serif" font-size="10.00" fill="grey">_PROCESSOR_INPUT_SIZE &gt;</text>
</g>
</g>
</svg>
