<?xml version="1.0" encoding="UTF-8" standalone="no"?>
<!DOCTYPE svg PUBLIC "-//W3C//DTD SVG 1.1//EN"
 "http://www.w3.org/Graphics/SVG/1.1/DTD/svg11.dtd">
<!-- Generated by graphviz version 2.43.0 (0)
 -->
<!-- Title: Cpl::Text::DStringItem Pages: 1 -->
<svg width="376pt" height="317pt"
 viewBox="0.00 0.00 376.00 317.00" xmlns="http://www.w3.org/2000/svg" xmlns:xlink="http://www.w3.org/1999/xlink">
<g id="graph0" class="graph" transform="scale(1 1) rotate(0) translate(4 313)">
<title>Cpl::Text::DStringItem</title>
<!-- Node1 -->
<g id="Node000001" class="node">
<title>Node1</title>
<g id="a_Node000001"><a xlink:title="This concrete class implements the StringItem class for a &#39;String&#39; using a &#39;DString&#39; as the internal ...">
<polygon fill="#999999" stroke="#666666" points="308.5,-19 185.5,-19 185.5,0 308.5,0 308.5,-19"/>
<text text-anchor="middle" x="247" y="-7" font-family="Helvetica,sans-Serif" font-size="10.00">Cpl::Text::DStringItem</text>
</a>
</g>
</g>
<!-- Node2 -->
<g id="Node000002" class="node">
<title>Node2</title>
<g id="a_Node000002"><a xlink:href="class_cpl_1_1_text_1_1_string_item.html" target="_top" xlink:title="This partially concrete provides a wrapper class that allows a String object to be stored directly in...">
<polygon fill="white" stroke="#666666" points="242,-85 126,-85 126,-66 242,-66 242,-85"/>
<text text-anchor="middle" x="184" y="-73" font-family="Helvetica,sans-Serif" font-size="10.00">Cpl::Text::StringItem</text>
</a>
</g>
</g>
<!-- Node2&#45;&gt;Node1 -->
<g id="edge1_Node000001_Node000002" class="edge">
<title>Node2&#45;&gt;Node1</title>
<g id="a_edge1_Node000001_Node000002"><a xlink:title=" ">
<path fill="none" stroke="#63b8ff" d="M199.77,-58.48C211.94,-46.12 228.31,-29.49 238.23,-19.41"/>
<polygon fill="#63b8ff" stroke="#63b8ff" points="197.02,-56.29 192.5,-65.87 202.01,-61.2 197.02,-56.29"/>
</a>
</g>
</g>
<!-- Node3 -->
<g id="Node000003" class="node">
<title>Node3</title>
<g id="a_Node000003"><a xlink:href="class_cpl_1_1_container_1_1_map_item.html" target="_top" xlink:title="This abstract class represents a item that can be contained in an Map (aka a sorted list implemented ...">
<polygon fill="white" stroke="#666666" points="147.5,-141 12.5,-141 12.5,-122 147.5,-122 147.5,-141"/>
<text text-anchor="middle" x="80" y="-129" font-family="Helvetica,sans-Serif" font-size="10.00">Cpl::Container::MapItem</text>
</a>
</g>
</g>
<!-- Node3&#45;&gt;Node2 -->
<g id="edge2_Node000002_Node000003" class="edge">
<title>Node3&#45;&gt;Node2</title>
<g id="a_edge2_Node000002_Node000003"><a xlink:title=" ">
<path fill="none" stroke="#63b8ff" d="M105.83,-117.09C125.06,-107.11 150.74,-93.77 167.33,-85.15"/>
<polygon fill="#63b8ff" stroke="#63b8ff" points="103.97,-114.11 96.71,-121.82 107.2,-120.32 103.97,-114.11"/>
</a>
</g>
</g>
<!-- Node4 -->
<g id="Node000004" class="node">
<title>Node4</title>
<g id="a_Node000004"><a xlink:href="class_cpl_1_1_container_1_1_dict_item.html" target="_top" xlink:title="This abstract class represents a item that can be contained in Dictionary.">
<polygon fill="white" stroke="#666666" points="147,-197 13,-197 13,-178 147,-178 147,-197"/>
<text text-anchor="middle" x="80" y="-185" font-family="Helvetica,sans-Serif" font-size="10.00">Cpl::Container::DictItem</text>
</a>
</g>
</g>
<!-- Node4&#45;&gt;Node3 -->
<g id="edge3_Node000003_Node000004" class="edge">
<title>Node4&#45;&gt;Node3</title>
<g id="a_edge3_Node000003_Node000004"><a xlink:title=" ">
<path fill="none" stroke="#63b8ff" d="M80,-167.3C80,-158.41 80,-148.28 80,-141.25"/>
<polygon fill="#63b8ff" stroke="#63b8ff" points="76.5,-167.58 80,-177.58 83.5,-167.58 76.5,-167.58"/>
</a>
</g>
</g>
<!-- Node5 -->
<g id="Node000005" class="node">
<title>Node5</title>
<g id="a_Node000005"><a xlink:href="class_cpl_1_1_container_1_1_extended_item.html" target="_top" xlink:title="This class is used by the Container classes to implement a various types of DOUBLY linked containers.">
<polygon fill="white" stroke="#666666" points="160,-253 0,-253 0,-234 160,-234 160,-253"/>
<text text-anchor="middle" x="80" y="-241" font-family="Helvetica,sans-Serif" font-size="10.00">Cpl::Container::ExtendedItem</text>
</a>
</g>
</g>
<!-- Node5&#45;&gt;Node4 -->
<g id="edge4_Node000004_Node000005" class="edge">
<title>Node5&#45;&gt;Node4</title>
<g id="a_edge4_Node000004_Node000005"><a xlink:title=" ">
<path fill="none" stroke="#63b8ff" d="M80,-223.3C80,-214.41 80,-204.28 80,-197.25"/>
<polygon fill="#63b8ff" stroke="#63b8ff" points="76.5,-223.58 80,-233.58 83.5,-223.58 76.5,-223.58"/>
</a>
</g>
</g>
<!-- Node6 -->
<g id="Node000006" class="node">
<title>Node6</title>
<g id="a_Node000006"><a xlink:href="class_cpl_1_1_container_1_1_item.html" target="_top" xlink:title="This class is used by the Container classes to implement a various types of singly linked containers.">
<polygon fill="white" stroke="#666666" points="137,-309 23,-309 23,-290 137,-290 137,-309"/>
<text text-anchor="middle" x="80" y="-297" font-family="Helvetica,sans-Serif" font-size="10.00">Cpl::Container::Item</text>
</a>
</g>
</g>
<!-- Node6&#45;&gt;Node5 -->
<g id="edge5_Node000005_Node000006" class="edge">
<title>Node6&#45;&gt;Node5</title>
<g id="a_edge5_Node000005_Node000006"><a xlink:title=" ">
<path fill="none" stroke="#63b8ff" d="M80,-279.3C80,-270.41 80,-260.28 80,-253.25"/>
<polygon fill="#63b8ff" stroke="#63b8ff" points="76.5,-279.58 80,-289.58 83.5,-279.58 76.5,-279.58"/>
</a>
</g>
</g>
<!-- Node7 -->
<g id="Node000007" class="node">
<title>Node7</title>
<g id="a_Node000007"><a xlink:href="class_cpl_1_1_text_1_1_string.html" target="_top" xlink:title="This abstract class defines the operations that can be before on a NULL terminated string.">
<polygon fill="white" stroke="#666666" points="319.5,-197 226.5,-197 226.5,-178 319.5,-178 319.5,-197"/>
<text text-anchor="middle" x="273" y="-185" font-family="Helvetica,sans-Serif" font-size="10.00">Cpl::Text::String</text>
</a>
</g>
</g>
<!-- Node7&#45;&gt;Node2 -->
<g id="edge6_Node000002_Node000007" class="edge">
<title>Node7&#45;&gt;Node2</title>
<g id="a_edge6_Node000002_Node000007"><a xlink:title=" ">
<path fill="none" stroke="#9a32cd" stroke-dasharray="5,2" d="M235.68,-173.84C220.05,-166.64 203.18,-156 193,-141 181.45,-123.97 181.77,-98.56 182.93,-85.28"/>
<polygon fill="#9a32cd" stroke="#9a32cd" points="234.61,-177.19 245.18,-177.89 237.35,-170.75 234.61,-177.19"/>
</a>
</g>
<text text-anchor="middle" x="224.5" y="-129" font-family="Helvetica,sans-Serif" font-size="10.00" fill="grey"> m_myString</text>
</g>
<!-- Node10 -->
<g id="Node000010" class="node">
<title>Node10</title>
<g id="a_Node000010"><a xlink:href="class_cpl_1_1_text_1_1_string__.html" target="_top" xlink:title="This partially concrete class implements the portions of the String Api that is independent of the in...">
<polygon fill="white" stroke="#666666" points="363,-141 265,-141 265,-122 363,-122 363,-141"/>
<text text-anchor="middle" x="314" y="-129" font-family="Helvetica,sans-Serif" font-size="10.00">Cpl::Text::String_</text>
</a>
</g>
</g>
<!-- Node7&#45;&gt;Node10 -->
<g id="edge10_Node000010_Node000007" class="edge">
<title>Node7&#45;&gt;Node10</title>
<g id="a_edge10_Node000010_Node000007"><a xlink:title=" ">
<path fill="none" stroke="#63b8ff" d="M286.02,-169.36C293.12,-160 301.6,-148.83 307.36,-141.25"/>
<polygon fill="#63b8ff" stroke="#63b8ff" points="283.03,-167.5 279.77,-177.58 288.61,-171.74 283.03,-167.5"/>
</a>
</g>
</g>
<!-- Node8 -->
<g id="Node000008" class="node">
<title>Node8</title>
<g id="a_Node000008"><a xlink:href="class_cpl_1_1_container_1_1_key.html" target="_top" xlink:title="This abstract class defines the interface that a contained object must support if it has comparable k...">
<polygon fill="white" stroke="#666666" points="328,-253 218,-253 218,-234 328,-234 328,-253"/>
<text text-anchor="middle" x="273" y="-241" font-family="Helvetica,sans-Serif" font-size="10.00">Cpl::Container::Key</text>
</a>
</g>
</g>
<!-- Node8&#45;&gt;Node7 -->
<g id="edge7_Node000007_Node000008" class="edge">
<title>Node8&#45;&gt;Node7</title>
<g id="a_edge7_Node000007_Node000008"><a xlink:title=" ">
<path fill="none" stroke="#63b8ff" d="M273,-223.3C273,-214.41 273,-204.28 273,-197.25"/>
<polygon fill="#63b8ff" stroke="#63b8ff" points="269.5,-223.58 273,-233.58 276.5,-223.58 269.5,-223.58"/>
</a>
</g>
</g>
<!-- Node9 -->
<g id="Node000009" class="node">
<title>Node9</title>
<g id="a_Node000009"><a xlink:href="class_cpl_1_1_text_1_1_d_string.html" target="_top" xlink:title="This concrete class implements a simple &quot;dynamic storage&quot; String Type.">
<polygon fill="white" stroke="#666666" points="362.5,-85 261.5,-85 261.5,-66 362.5,-66 362.5,-85"/>
<text text-anchor="middle" x="312" y="-73" font-family="Helvetica,sans-Serif" font-size="10.00">Cpl::Text::DString</text>
</a>
</g>
</g>
<!-- Node9&#45;&gt;Node1 -->
<g id="edge8_Node000001_Node000009" class="edge">
<title>Node9&#45;&gt;Node1</title>
<g id="a_edge8_Node000001_Node000009"><a xlink:title=" ">
<path fill="none" stroke="#9a32cd" stroke-dasharray="5,2" d="M296.08,-58.83C283.5,-46.44 266.38,-29.59 256.04,-19.41"/>
<polygon fill="#9a32cd" stroke="#9a32cd" points="293.65,-61.35 303.23,-65.87 298.56,-56.36 293.65,-61.35"/>
</a>
</g>
<text text-anchor="middle" x="325.5" y="-40" font-family="Helvetica,sans-Serif" font-size="10.00" fill="grey"> m_internalString</text>
</g>
<!-- Node10&#45;&gt;Node9 -->
<g id="edge9_Node000009_Node000010" class="edge">
<title>Node10&#45;&gt;Node9</title>
<g id="a_edge9_Node000009_Node000010"><a xlink:title=" ">
<path fill="none" stroke="#63b8ff" d="M313.29,-111.3C312.96,-102.41 312.58,-92.28 312.32,-85.25"/>
<polygon fill="#63b8ff" stroke="#63b8ff" points="309.8,-111.72 313.67,-121.58 316.8,-111.46 309.8,-111.72"/>
</a>
</g>
</g>
</g>
</svg>
