<?xml version="1.0" encoding="UTF-8" standalone="no"?>
<!DOCTYPE svg PUBLIC "-//W3C//DTD SVG 1.1//EN"
 "http://www.w3.org/Graphics/SVG/1.1/DTD/svg11.dtd">
<!-- Generated by graphviz version 2.43.0 (0)
 -->
<!-- Title: Cpl::Container::RingBuffer&lt; ITEM &gt; Pages: 1 -->
<svg width="1240pt" height="376pt"
 viewBox="0.00 0.00 1240.00 376.00" xmlns="http://www.w3.org/2000/svg" xmlns:xlink="http://www.w3.org/1999/xlink">
<g id="graph0" class="graph" transform="scale(1 1) rotate(0) translate(4 372)">
<title>Cpl::Container::RingBuffer&lt; ITEM &gt;</title>
<!-- Node1 -->
<g id="Node000001" class="node">
<title>Node1</title>
<g id="a_Node000001"><a xlink:title="This template class implements a Ring Buffer.">
<polygon fill="#999999" stroke="#666666" points="143,-147 0,-147 0,-117 143,-117 143,-147"/>
<text text-anchor="start" x="8" y="-135" font-family="Helvetica,sans-Serif" font-size="10.00">Cpl::Container::RingBuffer</text>
<text text-anchor="middle" x="71.5" y="-124" font-family="Helvetica,sans-Serif" font-size="10.00">&lt; ITEM &gt;</text>
</a>
</g>
</g>
<!-- Node2 -->
<g id="Node000002" class="node">
<title>Node2</title>
<g id="a_Node000002"><a xlink:href="class_cpl_1_1_container_1_1_ring_buffer_m_t.html" target="_top" xlink:title=" ">
<polygon fill="white" stroke="#666666" points="864,-368 684,-368 684,-338 864,-338 864,-368"/>
<text text-anchor="start" x="692" y="-356" font-family="Helvetica,sans-Serif" font-size="10.00">Cpl::Container::RingBuffer</text>
<text text-anchor="middle" x="774" y="-345" font-family="Helvetica,sans-Serif" font-size="10.00">MT&lt; Cpl::Logging::EntryData_T &gt;</text>
</a>
</g>
</g>
<!-- Node1&#45;&gt;Node2 -->
<g id="edge1_Node000001_Node000002" class="edge">
<title>Node1&#45;&gt;Node2</title>
<g id="a_edge1_Node000001_Node000002"><a xlink:title=" ">
<path fill="none" stroke="#63b8ff" d="M96.95,-154C114.04,-168.62 137.85,-187.52 161,-201 307.73,-286.42 347.87,-312 514,-347 569.67,-358.73 633.57,-360.33 683.96,-358.95"/>
<polygon fill="#63b8ff" stroke="#63b8ff" points="98.98,-151.13 89.14,-147.22 94.39,-156.42 98.98,-151.13"/>
</a>
</g>
</g>
<!-- Node3 -->
<g id="Node000003" class="node">
<title>Node3</title>
<g id="a_Node000003"><a xlink:href="class_cpl_1_1_container_1_1_ring_buffer_m_t.html" target="_top" xlink:title=" ">
<polygon fill="white" stroke="#666666" points="845.5,-177 702.5,-177 702.5,-147 845.5,-147 845.5,-177"/>
<text text-anchor="start" x="710.5" y="-165" font-family="Helvetica,sans-Serif" font-size="10.00">Cpl::Container::RingBuffer</text>
<text text-anchor="middle" x="774" y="-154" font-family="Helvetica,sans-Serif" font-size="10.00">MT&lt; ENTRY &gt;</text>
</a>
</g>
</g>
<!-- Node1&#45;&gt;Node3 -->
<g id="edge2_Node000001_Node000003" class="edge">
<title>Node1&#45;&gt;Node3</title>
<g id="a_edge2_Node000001_Node000003"><a xlink:title=" ">
<path fill="none" stroke="#63b8ff" d="M153.21,-139.48C155.84,-139.66 158.44,-139.84 161,-140 356.77,-152.36 588.24,-158.33 702.26,-160.7"/>
<polygon fill="#63b8ff" stroke="#63b8ff" points="153.23,-135.97 143,-138.72 152.71,-142.95 153.23,-135.97"/>
</a>
</g>
</g>
<!-- Node4 -->
<g id="Node000004" class="node">
<title>Node4</title>
<g id="a_Node000004"><a xlink:href="class_cpl_1_1_container_1_1_ring_buffer_m_t.html" target="_top" xlink:title="This template class implements a THREAD SAFE Ring Buffer.">
<polygon fill="white" stroke="#666666" points="485,-241 342,-241 342,-211 485,-211 485,-241"/>
<text text-anchor="start" x="350" y="-229" font-family="Helvetica,sans-Serif" font-size="10.00">Cpl::Container::RingBuffer</text>
<text text-anchor="middle" x="413.5" y="-218" font-family="Helvetica,sans-Serif" font-size="10.00">MT&lt; ITEM &gt;</text>
</a>
</g>
</g>
<!-- Node1&#45;&gt;Node4 -->
<g id="edge3_Node000001_Node000004" class="edge">
<title>Node1&#45;&gt;Node4</title>
<g id="a_edge3_Node000001_Node000004"><a xlink:title=" ">
<path fill="none" stroke="#63b8ff" d="M115.63,-151.15C129.89,-157.05 145.97,-163.24 161,-168 221.02,-187 290.92,-202.61 341.77,-212.83"/>
<polygon fill="#63b8ff" stroke="#63b8ff" points="116.65,-147.79 106.08,-147.14 113.94,-154.24 116.65,-147.79"/>
</a>
</g>
</g>
<!-- Node8 -->
<g id="Node000008" class="node">
<title>Node8</title>
<g id="a_Node000008"><a xlink:href="class_cpl_1_1_container_1_1_ring_buffer.html" target="_top" xlink:title=" ">
<polygon fill="white" stroke="#666666" points="485,-126 342,-126 342,-96 485,-96 485,-126"/>
<text text-anchor="start" x="350" y="-114" font-family="Helvetica,sans-Serif" font-size="10.00">Cpl::Container::RingBuffer</text>
<text text-anchor="middle" x="413.5" y="-103" font-family="Helvetica,sans-Serif" font-size="10.00">&lt; uint8_t &gt;</text>
</a>
</g>
</g>
<!-- Node1&#45;&gt;Node8 -->
<g id="edge11_Node000001_Node000008" class="edge">
<title>Node1&#45;&gt;Node8</title>
<g id="a_edge11_Node000001_Node000008"><a xlink:title=" ">
<path fill="none" stroke="orange" stroke-dasharray="5,2" d="M153.47,-127C210.77,-123.46 286.86,-118.76 341.73,-115.37"/>
<polygon fill="orange" stroke="orange" points="153.13,-123.51 143.36,-127.62 153.56,-130.5 153.13,-123.51"/>
</a>
</g>
<text text-anchor="middle" x="237" y="-129" font-family="Helvetica,sans-Serif" font-size="10.00" fill="grey"> &lt; uint8_t &gt;</text>
</g>
<!-- Node9 -->
<g id="Node000009" class="node">
<title>Node9</title>
<g id="a_Node000009"><a xlink:href="class_cpl_1_1_container_1_1_ring_buffer.html" target="_top" xlink:title=" ">
<polygon fill="white" stroke="#666666" points="496,-78 331,-78 331,-48 496,-48 496,-78"/>
<text text-anchor="start" x="339" y="-66" font-family="Helvetica,sans-Serif" font-size="10.00">Cpl::Container::RingBuffer</text>
<text text-anchor="middle" x="413.5" y="-55" font-family="Helvetica,sans-Serif" font-size="10.00">&lt; Cpl::Logging::EntryData_T &gt;</text>
</a>
</g>
</g>
<!-- Node1&#45;&gt;Node9 -->
<g id="edge12_Node000001_Node000009" class="edge">
<title>Node1&#45;&gt;Node9</title>
<g id="a_edge12_Node000001_Node000009"><a xlink:title=" ">
<path fill="none" stroke="orange" stroke-dasharray="5,2" d="M121.63,-113.66C134.33,-109.39 148.07,-105.17 161,-102 217,-88.27 281.27,-78.41 330.81,-72.03"/>
<polygon fill="orange" stroke="orange" points="120.47,-110.36 112.16,-116.92 122.75,-116.98 120.47,-110.36"/>
</a>
</g>
<text text-anchor="middle" x="237" y="-105" font-family="Helvetica,sans-Serif" font-size="10.00" fill="grey"> &lt; Cpl::Logging::EntryData_T &gt;</text>
</g>
<!-- Node10 -->
<g id="Node000010" class="node">
<title>Node10</title>
<g id="a_Node000010"><a xlink:href="class_cpl_1_1_container_1_1_ring_buffer.html" target="_top" xlink:title=" ">
<polygon fill="white" stroke="#666666" points="485,-30 342,-30 342,0 485,0 485,-30"/>
<text text-anchor="start" x="350" y="-18" font-family="Helvetica,sans-Serif" font-size="10.00">Cpl::Container::RingBuffer</text>
<text text-anchor="middle" x="413.5" y="-7" font-family="Helvetica,sans-Serif" font-size="10.00">&lt; ENTRY &gt;</text>
</a>
</g>
</g>
<!-- Node1&#45;&gt;Node10 -->
<g id="edge13_Node000001_Node000010" class="edge">
<title>Node1&#45;&gt;Node10</title>
<g id="a_edge13_Node000001_Node000010"><a xlink:title=" ">
<path fill="none" stroke="orange" stroke-dasharray="5,2" d="M93.25,-109.48C109.92,-92.84 134.8,-71.06 161,-59 218.38,-32.58 289.8,-21.94 341.86,-17.7"/>
<polygon fill="orange" stroke="orange" points="90.68,-107.11 86.2,-116.71 95.69,-112 90.68,-107.11"/>
</a>
</g>
<text text-anchor="middle" x="237" y="-62" font-family="Helvetica,sans-Serif" font-size="10.00" fill="grey"> &lt; ENTRY &gt;</text>
</g>
<!-- Node4&#45;&gt;Node2 -->
<g id="edge9_Node000004_Node000002" class="edge">
<title>Node4&#45;&gt;Node2</title>
<g id="a_edge9_Node000004_Node000002"><a xlink:title=" ">
<path fill="none" stroke="orange" stroke-dasharray="5,2" d="M433.54,-248.8C451.92,-269.16 481.66,-298 514,-313 575.98,-341.75 598.48,-325.53 666,-336 671.85,-336.91 677.89,-337.85 683.97,-338.8"/>
<polygon fill="orange" stroke="orange" points="436.08,-246.39 426.84,-241.2 430.83,-251.02 436.08,-246.39"/>
</a>
</g>
<text text-anchor="middle" x="590" y="-339" font-family="Helvetica,sans-Serif" font-size="10.00" fill="grey"> &lt; Cpl::Logging::EntryData_T &gt;</text>
</g>
<!-- Node4&#45;&gt;Node3 -->
<g id="edge10_Node000004_Node000003" class="edge">
<title>Node4&#45;&gt;Node3</title>
<g id="a_edge10_Node000004_Node000003"><a xlink:title=" ">
<path fill="none" stroke="orange" stroke-dasharray="5,2" d="M456.74,-207.03C474.15,-199.97 494.72,-192.56 514,-188 576.67,-173.17 649.82,-166.79 702.36,-164.05"/>
<polygon fill="orange" stroke="orange" points="455.32,-203.83 447.42,-210.9 458,-210.29 455.32,-203.83"/>
</a>
</g>
<text text-anchor="middle" x="590" y="-191" font-family="Helvetica,sans-Serif" font-size="10.00" fill="grey"> &lt; ENTRY &gt;</text>
</g>
<!-- Node5 -->
<g id="Node000005" class="node">
<title>Node5</title>
<g id="a_Node000005"><a xlink:href="class_cpl_1_1_container_1_1_ring_buffer_m_p.html" target="_top" xlink:title=" ">
<polygon fill="white" stroke="#666666" points="1232,-245 1052,-245 1052,-215 1232,-215 1232,-245"/>
<text text-anchor="start" x="1060" y="-233" font-family="Helvetica,sans-Serif" font-size="10.00">Cpl::Container::RingBuffer</text>
<text text-anchor="middle" x="1142" y="-222" font-family="Helvetica,sans-Serif" font-size="10.00">MP&lt; Cpl::Logging::EntryData_T &gt;</text>
</a>
</g>
</g>
<!-- Node4&#45;&gt;Node5 -->
<g id="edge4_Node000004_Node000005" class="edge">
<title>Node4&#45;&gt;Node5</title>
<g id="a_edge4_Node000004_Node000005"><a xlink:title=" ">
<path fill="none" stroke="#63b8ff" d="M495.48,-226.29C585.48,-226.63 735.13,-227.25 864,-228 926.76,-228.37 997.51,-228.88 1051.81,-229.29"/>
<polygon fill="#63b8ff" stroke="#63b8ff" points="495.36,-222.79 485.35,-226.25 495.33,-229.79 495.36,-222.79"/>
</a>
</g>
</g>
<!-- Node6 -->
<g id="Node000006" class="node">
<title>Node6</title>
<g id="a_Node000006"><a xlink:href="class_cpl_1_1_container_1_1_ring_buffer_m_p.html" target="_top" xlink:title=" ">
<polygon fill="white" stroke="#666666" points="1213.5,-302 1070.5,-302 1070.5,-272 1213.5,-272 1213.5,-302"/>
<text text-anchor="start" x="1078.5" y="-290" font-family="Helvetica,sans-Serif" font-size="10.00">Cpl::Container::RingBuffer</text>
<text text-anchor="middle" x="1142" y="-279" font-family="Helvetica,sans-Serif" font-size="10.00">MP&lt; ENTRY &gt;</text>
</a>
</g>
</g>
<!-- Node4&#45;&gt;Node6 -->
<g id="edge5_Node000004_Node000006" class="edge">
<title>Node4&#45;&gt;Node6</title>
<g id="a_edge5_Node000004_Node000006"><a xlink:title=" ">
<path fill="none" stroke="#63b8ff" d="M477.43,-243.61C489.51,-246.66 502.1,-249.61 514,-252 741.14,-297.55 802.34,-289.08 1034,-288 1045.8,-287.94 1058.32,-287.86 1070.49,-287.75"/>
<polygon fill="#63b8ff" stroke="#63b8ff" points="477.98,-240.14 467.42,-241.04 476.24,-246.92 477.98,-240.14"/>
</a>
</g>
</g>
<!-- Node7 -->
<g id="Node000007" class="node">
<title>Node7</title>
<g id="a_Node000007"><a xlink:href="class_cpl_1_1_container_1_1_ring_buffer_m_p.html" target="_top" xlink:title="This template class implements a THREAD SAFE Ring Buffer AND it maintains/reports the number of eleme...">
<polygon fill="white" stroke="#666666" points="845.5,-267 702.5,-267 702.5,-237 845.5,-237 845.5,-267"/>
<text text-anchor="start" x="710.5" y="-255" font-family="Helvetica,sans-Serif" font-size="10.00">Cpl::Container::RingBuffer</text>
<text text-anchor="middle" x="774" y="-244" font-family="Helvetica,sans-Serif" font-size="10.00">MP&lt; ITEM &gt;</text>
</a>
</g>
</g>
<!-- Node4&#45;&gt;Node7 -->
<g id="edge6_Node000004_Node000007" class="edge">
<title>Node4&#45;&gt;Node7</title>
<g id="a_edge6_Node000004_Node000007"><a xlink:title=" ">
<path fill="none" stroke="#63b8ff" d="M495.5,-231.87C557.73,-236.39 642.83,-242.56 702.32,-246.87"/>
<polygon fill="#63b8ff" stroke="#63b8ff" points="495.56,-228.37 485.33,-231.14 495.05,-235.35 495.56,-228.37"/>
</a>
</g>
</g>
<!-- Node7&#45;&gt;Node5 -->
<g id="edge7_Node000007_Node000005" class="edge">
<title>Node7&#45;&gt;Node5</title>
<g id="a_edge7_Node000007_Node000005"><a xlink:title=" ">
<path fill="none" stroke="orange" stroke-dasharray="5,2" d="M856.02,-244.89C864.79,-244.21 873.58,-243.57 882,-243 938.49,-239.21 1001.97,-236 1051.95,-233.73"/>
<polygon fill="orange" stroke="orange" points="855.46,-241.43 845.77,-245.71 856.01,-248.41 855.46,-241.43"/>
</a>
</g>
<text text-anchor="middle" x="958" y="-246" font-family="Helvetica,sans-Serif" font-size="10.00" fill="grey"> &lt; Cpl::Logging::EntryData_T &gt;</text>
</g>
<!-- Node7&#45;&gt;Node6 -->
<g id="edge8_Node000007_Node000006" class="edge">
<title>Node7&#45;&gt;Node6</title>
<g id="a_edge8_Node000007_Node000006"><a xlink:title=" ">
<path fill="none" stroke="orange" stroke-dasharray="5,2" d="M855.65,-259.71C919.88,-265.85 1008.89,-274.37 1070.34,-280.24"/>
<polygon fill="orange" stroke="orange" points="855.86,-256.22 845.57,-258.75 855.19,-263.18 855.86,-256.22"/>
</a>
</g>
<text text-anchor="middle" x="958" y="-279" font-family="Helvetica,sans-Serif" font-size="10.00" fill="grey"> &lt; ENTRY &gt;</text>
</g>
</g>
</svg>
