<?xml version="1.0" encoding="UTF-8" standalone="no"?>
<!DOCTYPE svg PUBLIC "-//W3C//DTD SVG 1.1//EN"
 "http://www.w3.org/Graphics/SVG/1.1/DTD/svg11.dtd">
<!-- Generated by graphviz version 2.43.0 (0)
 -->
<!-- Title: Driver::TPipe::Maker Pages: 1 -->
<svg width="155pt" height="203pt"
 viewBox="0.00 0.00 155.00 203.00" xmlns="http://www.w3.org/2000/svg" xmlns:xlink="http://www.w3.org/1999/xlink">
<g id="graph0" class="graph" transform="scale(1 1) rotate(0) translate(4 199)">
<title>Driver::TPipe::Maker</title>
<!-- Node1 -->
<g id="Node000001" class="node">
<title>Node1</title>
<g id="a_Node000001"><a xlink:title="This concrete class is a &quot;Maker&quot; that assembles the objects needed for TPipe.">
<polygon fill="#999999" stroke="#666666" points="131.5,-19 15.5,-19 15.5,0 131.5,0 131.5,-19"/>
<text text-anchor="middle" x="73.5" y="-7" font-family="Helvetica,sans-Serif" font-size="10.00">Driver::TPipe::Maker</text>
</a>
</g>
</g>
<!-- Node2 -->
<g id="Node000002" class="node">
<title>Node2</title>
<g id="a_Node000002"><a xlink:href="class_cpl_1_1_text_1_1_frame_1_1_stream_decoder.html" target="_top" xlink:title="This partially concrete class defines an interface a Text &quot;Decoder&quot; that has a Cpl::Io::Input stream ...">
<polygon fill="white" stroke="#666666" points="142,-85 5,-85 5,-55 142,-55 142,-85"/>
<text text-anchor="start" x="13" y="-73" font-family="Helvetica,sans-Serif" font-size="10.00">Cpl::Text::Frame::Stream</text>
<text text-anchor="middle" x="73.5" y="-62" font-family="Helvetica,sans-Serif" font-size="10.00">Decoder</text>
</a>
</g>
</g>
<!-- Node2&#45;&gt;Node1 -->
<g id="edge1_Node000001_Node000002" class="edge">
<title>Node2&#45;&gt;Node1</title>
<g id="a_edge1_Node000001_Node000002"><a xlink:title=" ">
<path fill="none" stroke="#63b8ff" d="M73.5,-44.75C73.5,-35.72 73.5,-26.03 73.5,-19.27"/>
<polygon fill="#63b8ff" stroke="#63b8ff" points="70,-44.84 73.5,-54.84 77,-44.84 70,-44.84"/>
</a>
</g>
</g>
<!-- Node3 -->
<g id="Node000003" class="node">
<title>Node3</title>
<g id="a_Node000003"><a xlink:href="class_cpl_1_1_text_1_1_frame_1_1_decoder__.html" target="_top" xlink:title="This private partially concrete class implements the basic/common logic for a frame decoder.">
<polygon fill="white" stroke="#666666" points="147,-140 0,-140 0,-121 147,-121 147,-140"/>
<text text-anchor="middle" x="73.5" y="-128" font-family="Helvetica,sans-Serif" font-size="10.00">Cpl::Text::Frame::Decoder_</text>
</a>
</g>
</g>
<!-- Node3&#45;&gt;Node2 -->
<g id="edge2_Node000002_Node000003" class="edge">
<title>Node3&#45;&gt;Node2</title>
<g id="a_edge2_Node000002_Node000003"><a xlink:title=" ">
<path fill="none" stroke="#63b8ff" d="M73.5,-110.65C73.5,-102.36 73.5,-92.78 73.5,-85.11"/>
<polygon fill="#63b8ff" stroke="#63b8ff" points="70,-110.87 73.5,-120.87 77,-110.87 70,-110.87"/>
</a>
</g>
</g>
<!-- Node4 -->
<g id="Node000004" class="node">
<title>Node4</title>
<g id="a_Node000004"><a xlink:href="class_cpl_1_1_text_1_1_frame_1_1_decoder.html" target="_top" xlink:title="This class defines an interface for &#39;receiving&#39; (decode) a frame.">
<polygon fill="white" stroke="#666666" points="144.5,-195 2.5,-195 2.5,-176 144.5,-176 144.5,-195"/>
<text text-anchor="middle" x="73.5" y="-183" font-family="Helvetica,sans-Serif" font-size="10.00">Cpl::Text::Frame::Decoder</text>
</a>
</g>
</g>
<!-- Node4&#45;&gt;Node3 -->
<g id="edge3_Node000003_Node000004" class="edge">
<title>Node4&#45;&gt;Node3</title>
<g id="a_edge3_Node000003_Node000004"><a xlink:title=" ">
<path fill="none" stroke="#63b8ff" d="M73.5,-165.66C73.5,-156.93 73.5,-146.99 73.5,-140.09"/>
<polygon fill="#63b8ff" stroke="#63b8ff" points="70,-165.75 73.5,-175.75 77,-165.75 70,-165.75"/>
</a>
</g>
</g>
</g>
</svg>
