<?xml version="1.0" encoding="UTF-8" standalone="no"?>
<!DOCTYPE svg PUBLIC "-//W3C//DTD SVG 1.1//EN"
 "http://www.w3.org/Graphics/SVG/1.1/DTD/svg11.dtd">
<!-- Generated by graphviz version 2.43.0 (0)
 -->
<!-- Title: Cpl::Io::Tcp::InputOutput Pages: 1 -->
<svg width="324pt" height="313pt"
 viewBox="0.00 0.00 323.50 313.00" xmlns="http://www.w3.org/2000/svg" xmlns:xlink="http://www.w3.org/1999/xlink">
<g id="graph0" class="graph" transform="scale(1 1) rotate(0) translate(4 309)">
<title>Cpl::Io::Tcp::InputOutput</title>
<!-- Node1 -->
<g id="Node000001" class="node">
<title>Node1</title>
<g id="a_Node000001"><a xlink:title="This concrete class defines a platform independent implementation of an InputOutput stream used by th...">
<polygon fill="#999999" stroke="#666666" points="226.5,-85 93.5,-85 93.5,-66 226.5,-66 226.5,-85"/>
<text text-anchor="middle" x="160" y="-73" font-family="Helvetica,sans-Serif" font-size="10.00">Cpl::Io::Tcp::InputOutput</text>
</a>
</g>
</g>
<!-- Node8 -->
<g id="Node000008" class="node">
<title>Node8</title>
<g id="a_Node000008"><a xlink:href="class_cpl_1_1_io_1_1_tcp_1_1_async_connector_1_1_client.html" target="_top" xlink:title="This class defines the callback mechanism used for accepting incoming TCP connections.">
<polygon fill="white" stroke="#666666" points="154,-30 0,-30 0,0 154,0 154,-30"/>
<text text-anchor="start" x="8" y="-18" font-family="Helvetica,sans-Serif" font-size="10.00">Cpl::Io::Tcp::AsyncConnector</text>
<text text-anchor="middle" x="77" y="-7" font-family="Helvetica,sans-Serif" font-size="10.00">::Client</text>
</a>
</g>
</g>
<!-- Node1&#45;&gt;Node8 -->
<g id="edge9_Node000001_Node000008" class="edge">
<title>Node1&#45;&gt;Node8</title>
<g id="a_edge9_Node000001_Node000008"><a xlink:title=" ">
<path fill="none" stroke="#63b8ff" d="M139.47,-60.03C126.52,-50.9 109.88,-39.17 97.03,-30.11"/>
<polygon fill="#63b8ff" stroke="#63b8ff" points="137.56,-62.97 147.75,-65.87 141.6,-57.25 137.56,-62.97"/>
</a>
</g>
</g>
<!-- Node9 -->
<g id="Node000009" class="node">
<title>Node9</title>
<g id="a_Node000009"><a xlink:href="class_cpl_1_1_io_1_1_tcp_1_1_async_listener_1_1_client.html" target="_top" xlink:title="This class defines the callback mechanism used for accepting incoming TCP connections.">
<polygon fill="white" stroke="#666666" points="315.5,-30 172.5,-30 172.5,0 315.5,0 315.5,-30"/>
<text text-anchor="start" x="180.5" y="-18" font-family="Helvetica,sans-Serif" font-size="10.00">Cpl::Io::Tcp::AsyncListener</text>
<text text-anchor="middle" x="244" y="-7" font-family="Helvetica,sans-Serif" font-size="10.00">::Client</text>
</a>
</g>
</g>
<!-- Node1&#45;&gt;Node9 -->
<g id="edge10_Node000001_Node000009" class="edge">
<title>Node1&#45;&gt;Node9</title>
<g id="a_edge10_Node000001_Node000009"><a xlink:title=" ">
<path fill="none" stroke="#63b8ff" d="M180.78,-60.03C193.88,-50.9 210.73,-39.17 223.73,-30.11"/>
<polygon fill="#63b8ff" stroke="#63b8ff" points="178.6,-57.28 172.39,-65.87 182.6,-63.03 178.6,-57.28"/>
</a>
</g>
</g>
<!-- Node2 -->
<g id="Node000002" class="node">
<title>Node2</title>
<g id="a_Node000002"><a xlink:href="class_cpl_1_1_io_1_1_input_output.html" target="_top" xlink:title="This abstract class defines a interface for operating on an input&#45;output stream (example of a stream ...">
<polygon fill="white" stroke="#666666" points="215.5,-140 104.5,-140 104.5,-121 215.5,-121 215.5,-140"/>
<text text-anchor="middle" x="160" y="-128" font-family="Helvetica,sans-Serif" font-size="10.00">Cpl::Io::InputOutput</text>
</a>
</g>
</g>
<!-- Node2&#45;&gt;Node1 -->
<g id="edge1_Node000001_Node000002" class="edge">
<title>Node2&#45;&gt;Node1</title>
<g id="a_edge1_Node000001_Node000002"><a xlink:title=" ">
<path fill="none" stroke="#63b8ff" d="M160,-110.66C160,-101.93 160,-91.99 160,-85.09"/>
<polygon fill="#63b8ff" stroke="#63b8ff" points="156.5,-110.75 160,-120.75 163.5,-110.75 156.5,-110.75"/>
</a>
</g>
</g>
<!-- Node3 -->
<g id="Node000003" class="node">
<title>Node3</title>
<g id="a_Node000003"><a xlink:href="class_cpl_1_1_io_1_1_input.html" target="_top" xlink:title="This partially abstract class defines a interface for operating on an input stream (example of a stre...">
<polygon fill="white" stroke="#666666" points="149,-195 71,-195 71,-176 149,-176 149,-195"/>
<text text-anchor="middle" x="110" y="-183" font-family="Helvetica,sans-Serif" font-size="10.00">Cpl::Io::Input</text>
</a>
</g>
</g>
<!-- Node3&#45;&gt;Node2 -->
<g id="edge2_Node000002_Node000003" class="edge">
<title>Node3&#45;&gt;Node2</title>
<g id="a_edge2_Node000002_Node000003"><a xlink:title=" ">
<path fill="none" stroke="#63b8ff" d="M125.34,-168.24C134.1,-158.95 144.74,-147.68 151.9,-140.09"/>
<polygon fill="#63b8ff" stroke="#63b8ff" points="122.57,-166.07 118.26,-175.75 127.66,-170.88 122.57,-166.07"/>
</a>
</g>
</g>
<!-- Node4 -->
<g id="Node000004" class="node">
<title>Node4</title>
<g id="a_Node000004"><a xlink:href="class_cpl_1_1_io_1_1_close.html" target="_top" xlink:title="This abstract class defines a close operation that is intended to be used Input and Output streams/fi...">
<polygon fill="white" stroke="#666666" points="151,-250 71,-250 71,-231 151,-231 151,-250"/>
<text text-anchor="middle" x="111" y="-238" font-family="Helvetica,sans-Serif" font-size="10.00">Cpl::Io::Close</text>
</a>
</g>
</g>
<!-- Node4&#45;&gt;Node3 -->
<g id="edge3_Node000003_Node000004" class="edge">
<title>Node4&#45;&gt;Node3</title>
<g id="a_edge3_Node000003_Node000004"><a xlink:title=" ">
<path fill="none" stroke="#63b8ff" d="M110.64,-220.66C110.48,-211.93 110.29,-201.99 110.16,-195.09"/>
<polygon fill="#63b8ff" stroke="#63b8ff" points="107.15,-220.82 110.83,-230.75 114.15,-220.68 107.15,-220.82"/>
</a>
</g>
</g>
<!-- Node7 -->
<g id="Node000007" class="node">
<title>Node7</title>
<g id="a_Node000007"><a xlink:href="class_cpl_1_1_io_1_1_output.html" target="_top" xlink:title="This partially abstract class defines a interface for operating on an output stream (example of a str...">
<polygon fill="white" stroke="#666666" points="253,-195 167,-195 167,-176 253,-176 253,-195"/>
<text text-anchor="middle" x="210" y="-183" font-family="Helvetica,sans-Serif" font-size="10.00">Cpl::Io::Output</text>
</a>
</g>
</g>
<!-- Node4&#45;&gt;Node7 -->
<g id="edge7_Node000007_Node000004" class="edge">
<title>Node4&#45;&gt;Node7</title>
<g id="a_edge7_Node000007_Node000004"><a xlink:title=" ">
<path fill="none" stroke="#63b8ff" d="M135.78,-226.23C153.94,-216.51 178.06,-203.6 193.8,-195.17"/>
<polygon fill="#63b8ff" stroke="#63b8ff" points="134.07,-223.18 126.91,-230.98 137.37,-229.35 134.07,-223.18"/>
</a>
</g>
</g>
<!-- Node5 -->
<g id="Node000005" class="node">
<title>Node5</title>
<g id="a_Node000005"><a xlink:href="class_cpl_1_1_container_1_1_item.html" target="_top" xlink:title="This class is used by the Container classes to implement a various types of singly linked containers.">
<polygon fill="white" stroke="#666666" points="168,-305 54,-305 54,-286 168,-286 168,-305"/>
<text text-anchor="middle" x="111" y="-293" font-family="Helvetica,sans-Serif" font-size="10.00">Cpl::Container::Item</text>
</a>
</g>
</g>
<!-- Node5&#45;&gt;Node4 -->
<g id="edge4_Node000004_Node000005" class="edge">
<title>Node5&#45;&gt;Node4</title>
<g id="a_edge4_Node000004_Node000005"><a xlink:title=" ">
<path fill="none" stroke="#63b8ff" d="M111,-275.66C111,-266.93 111,-256.99 111,-250.09"/>
<polygon fill="#63b8ff" stroke="#63b8ff" points="107.5,-275.75 111,-285.75 114.5,-275.75 107.5,-275.75"/>
</a>
</g>
</g>
<!-- Node6 -->
<g id="Node000006" class="node">
<title>Node6</title>
<g id="a_Node000006"><a xlink:href="class_cpl_1_1_io_1_1_is_eos.html" target="_top" xlink:title="This abstract class defines a isEos() operation that is intended to be used Input and Output streams.">
<polygon fill="white" stroke="#666666" points="248.5,-250 169.5,-250 169.5,-231 248.5,-231 248.5,-250"/>
<text text-anchor="middle" x="209" y="-238" font-family="Helvetica,sans-Serif" font-size="10.00">Cpl::Io::IsEos</text>
</a>
</g>
</g>
<!-- Node6&#45;&gt;Node3 -->
<g id="edge5_Node000003_Node000006" class="edge">
<title>Node6&#45;&gt;Node3</title>
<g id="a_edge5_Node000003_Node000006"><a xlink:title=" ">
<path fill="none" stroke="#63b8ff" d="M184.22,-226.23C166.06,-216.51 141.94,-203.6 126.2,-195.17"/>
<polygon fill="#63b8ff" stroke="#63b8ff" points="182.63,-229.35 193.09,-230.98 185.93,-223.18 182.63,-229.35"/>
</a>
</g>
</g>
<!-- Node6&#45;&gt;Node7 -->
<g id="edge8_Node000007_Node000006" class="edge">
<title>Node6&#45;&gt;Node7</title>
<g id="a_edge8_Node000007_Node000006"><a xlink:title=" ">
<path fill="none" stroke="#63b8ff" d="M209.36,-220.66C209.52,-211.93 209.71,-201.99 209.84,-195.09"/>
<polygon fill="#63b8ff" stroke="#63b8ff" points="205.85,-220.68 209.17,-230.75 212.85,-220.82 205.85,-220.68"/>
</a>
</g>
</g>
<!-- Node7&#45;&gt;Node2 -->
<g id="edge6_Node000002_Node000007" class="edge">
<title>Node7&#45;&gt;Node2</title>
<g id="a_edge6_Node000002_Node000007"><a xlink:title=" ">
<path fill="none" stroke="#63b8ff" d="M194.66,-168.24C185.9,-158.95 175.26,-147.68 168.1,-140.09"/>
<polygon fill="#63b8ff" stroke="#63b8ff" points="192.34,-170.88 201.74,-175.75 197.43,-166.07 192.34,-170.88"/>
</a>
</g>
</g>
</g>
</svg>
