<?xml version="1.0" encoding="UTF-8" standalone="no"?>
<!DOCTYPE svg PUBLIC "-//W3C//DTD SVG 1.1//EN"
 "http://www.w3.org/Graphics/SVG/1.1/DTD/svg11.dtd">
<!-- Generated by graphviz version 2.43.0 (0)
 -->
<!-- Title: Driver::RHTemp::TShellCmd Pages: 1 -->
<svg width="294pt" height="205pt"
 viewBox="0.00 0.00 294.00 205.00" xmlns="http://www.w3.org/2000/svg" xmlns:xlink="http://www.w3.org/1999/xlink">
<g id="graph0" class="graph" transform="scale(1 1) rotate(0) translate(4 201)">
<title>Driver::RHTemp::TShellCmd</title>
<!-- Node1 -->
<g id="Node000001" class="node">
<title>Node1</title>
<g id="a_Node000001"><a xlink:title="This class implements a TShell command that exercises the RH/Temp driver.">
<polygon fill="#999999" stroke="#666666" points="266.5,-19 114.5,-19 114.5,0 266.5,0 266.5,-19"/>
<text text-anchor="middle" x="190.5" y="-7" font-family="Helvetica,sans-Serif" font-size="10.00">Driver::RHTemp::TShellCmd</text>
</a>
</g>
</g>
<!-- Node2 -->
<g id="Node000002" class="node">
<title>Node2</title>
<g id="a_Node000002"><a xlink:href="class_cpl_1_1_t_shell_1_1_cmd_1_1_command.html" target="_top" xlink:title="This partially concrete class implements infrastructure and/or common functionality for a Shell comma...">
<polygon fill="white" stroke="#666666" points="153,-85 0,-85 0,-66 153,-66 153,-85"/>
<text text-anchor="middle" x="76.5" y="-73" font-family="Helvetica,sans-Serif" font-size="10.00">Cpl::TShell::Cmd::Command</text>
</a>
</g>
</g>
<!-- Node2&#45;&gt;Node1 -->
<g id="edge1_Node000001_Node000002" class="edge">
<title>Node2&#45;&gt;Node1</title>
<g id="a_edge1_Node000001_Node000002"><a xlink:title=" ">
<path fill="none" stroke="#63b8ff" d="M100.8,-60.86C123.24,-48.26 155.91,-29.92 175,-19.2"/>
<polygon fill="#63b8ff" stroke="#63b8ff" points="98.88,-57.92 91.87,-65.87 102.31,-64.03 98.88,-57.92"/>
</a>
</g>
</g>
<!-- Node3 -->
<g id="Node000003" class="node">
<title>Node3</title>
<g id="a_Node000003"><a xlink:href="class_cpl_1_1_t_shell_1_1_command.html" target="_top" xlink:title="This class defines the interface for a TShell command.">
<polygon fill="white" stroke="#666666" points="139,-141 14,-141 14,-122 139,-122 139,-141"/>
<text text-anchor="middle" x="76.5" y="-129" font-family="Helvetica,sans-Serif" font-size="10.00">Cpl::TShell::Command</text>
</a>
</g>
</g>
<!-- Node3&#45;&gt;Node2 -->
<g id="edge2_Node000002_Node000003" class="edge">
<title>Node3&#45;&gt;Node2</title>
<g id="a_edge2_Node000002_Node000003"><a xlink:title=" ">
<path fill="none" stroke="#63b8ff" d="M76.5,-111.3C76.5,-102.41 76.5,-92.28 76.5,-85.25"/>
<polygon fill="#63b8ff" stroke="#63b8ff" points="73,-111.58 76.5,-121.58 80,-111.58 73,-111.58"/>
</a>
</g>
</g>
<!-- Node4 -->
<g id="Node000004" class="node">
<title>Node4</title>
<g id="a_Node000004"><a xlink:href="class_cpl_1_1_container_1_1_item.html" target="_top" xlink:title="This class is used by the Container classes to implement a various types of singly linked containers.">
<polygon fill="white" stroke="#666666" points="133.5,-197 19.5,-197 19.5,-178 133.5,-178 133.5,-197"/>
<text text-anchor="middle" x="76.5" y="-185" font-family="Helvetica,sans-Serif" font-size="10.00">Cpl::Container::Item</text>
</a>
</g>
</g>
<!-- Node4&#45;&gt;Node3 -->
<g id="edge3_Node000003_Node000004" class="edge">
<title>Node4&#45;&gt;Node3</title>
<g id="a_edge3_Node000003_Node000004"><a xlink:title=" ">
<path fill="none" stroke="#63b8ff" d="M76.5,-167.3C76.5,-158.41 76.5,-148.28 76.5,-141.25"/>
<polygon fill="#63b8ff" stroke="#63b8ff" points="73,-167.58 76.5,-177.58 80,-167.58 73,-167.58"/>
</a>
</g>
</g>
<!-- Node5 -->
<g id="Node000005" class="node">
<title>Node5</title>
<g id="a_Node000005"><a xlink:href="class_driver_1_1_r_h_temp_1_1_api.html" target="_top" xlink:title="This class defines an interface for reading and managing a combined RH and Temperature sensor.">
<polygon fill="white" stroke="#666666" points="286,-85 171,-85 171,-66 286,-66 286,-85"/>
<text text-anchor="middle" x="228.5" y="-73" font-family="Helvetica,sans-Serif" font-size="10.00">Driver::RHTemp::Api</text>
</a>
</g>
</g>
<!-- Node5&#45;&gt;Node1 -->
<g id="edge4_Node000001_Node000005" class="edge">
<title>Node5&#45;&gt;Node1</title>
<g id="a_edge4_Node000001_Node000005"><a xlink:title=" ">
<path fill="none" stroke="#9a32cd" stroke-dasharray="5,2" d="M218.14,-57.05C210.9,-44.86 201.55,-29.11 195.79,-19.41"/>
<polygon fill="#9a32cd" stroke="#9a32cd" points="215.26,-59.06 223.38,-65.87 221.28,-55.48 215.26,-59.06"/>
</a>
</g>
<text text-anchor="middle" x="235" y="-40" font-family="Helvetica,sans-Serif" font-size="10.00" fill="grey"> m_driver</text>
</g>
</g>
</svg>
