<?xml version="1.0" encoding="UTF-8" standalone="no"?>
<!DOCTYPE svg PUBLIC "-//W3C//DTD SVG 1.1//EN"
 "http://www.w3.org/Graphics/SVG/1.1/DTD/svg11.dtd">
<!-- Generated by graphviz version 2.43.0 (0)
 -->
<!-- Title: Cpl::MApp::Manager Pages: 1 -->
<svg width="912pt" height="395pt"
 viewBox="0.00 0.00 912.00 394.50" xmlns="http://www.w3.org/2000/svg" xmlns:xlink="http://www.w3.org/1999/xlink">
<g id="graph0" class="graph" transform="scale(1 1) rotate(0) translate(4 390.5)">
<title>Cpl::MApp::Manager</title>
<!-- Node1 -->
<g id="Node000001" class="node">
<title>Node1</title>
<g id="a_Node000001"><a xlink:title="This concrete class implements the MApp Manager.">
<polygon fill="#999999" stroke="#666666" points="904,-201.5 789,-201.5 789,-182.5 904,-182.5 904,-201.5"/>
<text text-anchor="middle" x="846.5" y="-189.5" font-family="Helvetica,sans-Serif" font-size="10.00">Cpl::MApp::Manager</text>
</a>
</g>
</g>
<!-- Node2 -->
<g id="Node000002" class="node">
<title>Node2</title>
<g id="a_Node000002"><a xlink:href="class_cpl_1_1_m_app_1_1_manager_api.html" target="_top" xlink:title="This abstract class defines the &quot;manager&quot; interface to for starting, stopping, etc.">
<polygon fill="white" stroke="#666666" points="640.5,-349.5 509.5,-349.5 509.5,-330.5 640.5,-330.5 640.5,-349.5"/>
<text text-anchor="middle" x="575" y="-337.5" font-family="Helvetica,sans-Serif" font-size="10.00">Cpl::MApp::ManagerApi</text>
</a>
</g>
</g>
<!-- Node2&#45;&gt;Node1 -->
<g id="edge1_Node000001_Node000002" class="edge">
<title>Node2&#45;&gt;Node1</title>
<g id="a_edge1_Node000001_Node000002"><a xlink:title=" ">
<path fill="none" stroke="#63b8ff" d="M650.9,-329.06C689.45,-320.66 735.64,-306.07 771,-281 802.56,-258.62 828.69,-219.75 839.78,-201.71"/>
<polygon fill="#63b8ff" stroke="#63b8ff" points="649.84,-325.7 640.76,-331.16 651.26,-332.56 649.84,-325.7"/>
</a>
</g>
</g>
<!-- Node3 -->
<g id="Node000003" class="node">
<title>Node3</title>
<g id="a_Node000003"><a xlink:href="class_cpl_1_1_itc_1_1_close_sync.html" target="_top" xlink:title="This partially concrete class implements the synchronous ITC close call for the CloseApi.">
<polygon fill="white" stroke="#666666" points="628.5,-312.5 521.5,-312.5 521.5,-293.5 628.5,-293.5 628.5,-312.5"/>
<text text-anchor="middle" x="575" y="-300.5" font-family="Helvetica,sans-Serif" font-size="10.00">Cpl::Itc::CloseSync</text>
</a>
</g>
</g>
<!-- Node3&#45;&gt;Node1 -->
<g id="edge2_Node000001_Node000003" class="edge">
<title>Node3&#45;&gt;Node1</title>
<g id="a_edge2_Node000001_Node000003"><a xlink:title=" ">
<path fill="none" stroke="#63b8ff" d="M638.91,-293.67C678.48,-286.03 729.68,-272.83 771,-251 796.67,-237.43 822.26,-214.63 835.74,-201.71"/>
<polygon fill="#63b8ff" stroke="#63b8ff" points="638.05,-290.27 628.86,-295.54 639.33,-297.15 638.05,-290.27"/>
</a>
</g>
</g>
<!-- Node4 -->
<g id="Node000004" class="node">
<title>Node4</title>
<g id="a_Node000004"><a xlink:href="class_cpl_1_1_itc_1_1_open_sync.html" target="_top" xlink:title="This partially concrete class implements the synchronous ITC open call for the OpenApi.">
<polygon fill="white" stroke="#666666" points="318,-349.5 213,-349.5 213,-330.5 318,-330.5 318,-349.5"/>
<text text-anchor="middle" x="265.5" y="-337.5" font-family="Helvetica,sans-Serif" font-size="10.00">Cpl::Itc::OpenSync</text>
</a>
</g>
</g>
<!-- Node4&#45;&gt;Node3 -->
<g id="edge3_Node000003_Node000004" class="edge">
<title>Node4&#45;&gt;Node3</title>
<g id="a_edge3_Node000003_Node000004"><a xlink:title=" ">
<path fill="none" stroke="#63b8ff" d="M328.35,-333.35C368.7,-328.93 422.51,-322.88 470,-317 486.72,-314.93 504.94,-312.53 521.39,-310.3"/>
<polygon fill="#63b8ff" stroke="#63b8ff" points="327.95,-329.88 318.39,-334.44 328.71,-336.84 327.95,-329.88"/>
</a>
</g>
</g>
<!-- Node5 -->
<g id="Node000005" class="node">
<title>Node5</title>
<g id="a_Node000005"><a xlink:href="class_cpl_1_1_itc_1_1_open_api.html" target="_top" xlink:title="This abstract class defines an open interface.">
<polygon fill="white" stroke="#666666" points="110,-386.5 12,-386.5 12,-367.5 110,-367.5 110,-386.5"/>
<text text-anchor="middle" x="61" y="-374.5" font-family="Helvetica,sans-Serif" font-size="10.00">Cpl::Itc::OpenApi</text>
</a>
</g>
</g>
<!-- Node5&#45;&gt;Node4 -->
<g id="edge4_Node000004_Node000005" class="edge">
<title>Node5&#45;&gt;Node4</title>
<g id="a_edge4_Node000004_Node000005"><a xlink:title=" ">
<path fill="none" stroke="#63b8ff" d="M120.3,-366.35C149.48,-361.02 184.5,-354.62 212.72,-349.46"/>
<polygon fill="#63b8ff" stroke="#63b8ff" points="119.45,-362.94 110.25,-368.18 120.71,-369.83 119.45,-362.94"/>
</a>
</g>
</g>
<!-- Node6 -->
<g id="Node000006" class="node">
<title>Node6</title>
<g id="a_Node000006"><a xlink:href="class_cpl_1_1_itc_1_1_open_request.html" target="_top" xlink:title="This abstract class define message types and payloads for a set of ITC services.">
<polygon fill="white" stroke="#666666" points="122,-349.5 0,-349.5 0,-330.5 122,-330.5 122,-349.5"/>
<text text-anchor="middle" x="61" y="-337.5" font-family="Helvetica,sans-Serif" font-size="10.00">Cpl::Itc::OpenRequest</text>
</a>
</g>
</g>
<!-- Node6&#45;&gt;Node4 -->
<g id="edge5_Node000004_Node000006" class="edge">
<title>Node6&#45;&gt;Node4</title>
<g id="a_edge5_Node000004_Node000006"><a xlink:title=" ">
<path fill="none" stroke="#63b8ff" d="M132.53,-340C158.91,-340 188.37,-340 212.75,-340"/>
<polygon fill="#63b8ff" stroke="#63b8ff" points="132.21,-336.5 122.21,-340 132.21,-343.5 132.21,-336.5"/>
</a>
</g>
</g>
<!-- Node7 -->
<g id="Node000007" class="node">
<title>Node7</title>
<g id="a_Node000007"><a xlink:href="class_cpl_1_1_itc_1_1_post_api.html" target="_top" xlink:title="This abstract class represents the interface used to send messages to a mailbox.">
<polygon fill="white" stroke="#666666" points="107.5,-312.5 14.5,-312.5 14.5,-293.5 107.5,-293.5 107.5,-312.5"/>
<text text-anchor="middle" x="61" y="-300.5" font-family="Helvetica,sans-Serif" font-size="10.00">Cpl::Itc::PostApi</text>
</a>
</g>
</g>
<!-- Node7&#45;&gt;Node4 -->
<g id="edge6_Node000004_Node000007" class="edge">
<title>Node7&#45;&gt;Node4</title>
<g id="a_edge6_Node000004_Node000007"><a xlink:title=" ">
<path fill="none" stroke="#9a32cd" stroke-dasharray="5,2" d="M117.57,-312.7C138.97,-316.47 163.63,-320.88 186,-325 195.42,-326.73 205.46,-328.62 215.11,-330.46"/>
<polygon fill="#9a32cd" stroke="#9a32cd" points="118.12,-309.24 107.67,-310.95 116.91,-316.14 118.12,-309.24"/>
</a>
</g>
<text text-anchor="middle" x="163" y="-328" font-family="Helvetica,sans-Serif" font-size="10.00" fill="grey"> m_mbox</text>
</g>
<!-- Node8 -->
<g id="Node000008" class="node">
<title>Node8</title>
<g id="a_Node000008"><a xlink:href="class_cpl_1_1_itc_1_1_close_api.html" target="_top" xlink:title="This abstract class defines an close interface.">
<polygon fill="white" stroke="#666666" points="315,-312.5 216,-312.5 216,-293.5 315,-293.5 315,-312.5"/>
<text text-anchor="middle" x="265.5" y="-300.5" font-family="Helvetica,sans-Serif" font-size="10.00">Cpl::Itc::CloseApi</text>
</a>
</g>
</g>
<!-- Node8&#45;&gt;Node3 -->
<g id="edge7_Node000003_Node000008" class="edge">
<title>Node8&#45;&gt;Node3</title>
<g id="a_edge7_Node000003_Node000008"><a xlink:title=" ">
<path fill="none" stroke="#63b8ff" d="M325.46,-303C382.13,-303 466.95,-303 521.38,-303"/>
<polygon fill="#63b8ff" stroke="#63b8ff" points="325.22,-299.5 315.22,-303 325.22,-306.5 325.22,-299.5"/>
</a>
</g>
</g>
<!-- Node9 -->
<g id="Node000009" class="node">
<title>Node9</title>
<g id="a_Node000009"><a xlink:href="class_cpl_1_1_itc_1_1_close_request.html" target="_top" xlink:title="This abstract class define message types and payloads for a set of ITC services.">
<polygon fill="white" stroke="#666666" points="327,-275.5 204,-275.5 204,-256.5 327,-256.5 327,-275.5"/>
<text text-anchor="middle" x="265.5" y="-263.5" font-family="Helvetica,sans-Serif" font-size="10.00">Cpl::Itc::CloseRequest</text>
</a>
</g>
</g>
<!-- Node9&#45;&gt;Node3 -->
<g id="edge8_Node000003_Node000009" class="edge">
<title>Node9&#45;&gt;Node3</title>
<g id="a_edge8_Node000003_Node000009"><a xlink:title=" ">
<path fill="none" stroke="#63b8ff" d="M337.47,-274.54C393.57,-281.29 470.61,-290.56 521.32,-296.66"/>
<polygon fill="#63b8ff" stroke="#63b8ff" points="337.6,-271.03 327.25,-273.31 336.76,-277.98 337.6,-271.03"/>
</a>
</g>
</g>
<!-- Node10 -->
<g id="Node000010" class="node">
<title>Node10</title>
<g id="a_Node000010"><a xlink:href="class_cpl_1_1_m_app_1_1_start_m_app_request.html" target="_top" xlink:title="This abstract class define ITC message type and payload for the application to start a MApp.">
<polygon fill="white" stroke="#666666" points="656.5,-275.5 493.5,-275.5 493.5,-256.5 656.5,-256.5 656.5,-275.5"/>
<text text-anchor="middle" x="575" y="-263.5" font-family="Helvetica,sans-Serif" font-size="10.00">Cpl::MApp::StartMAppRequest</text>
</a>
</g>
</g>
<!-- Node10&#45;&gt;Node1 -->
<g id="edge9_Node000001_Node000010" class="edge">
<title>Node10&#45;&gt;Node1</title>
<g id="a_edge9_Node000001_Node000010"><a xlink:title=" ">
<path fill="none" stroke="#63b8ff" d="M651.18,-254.67C687.84,-248.12 732.26,-238.63 771,-226 791,-219.48 812.78,-209.13 827.59,-201.56"/>
<polygon fill="#63b8ff" stroke="#63b8ff" points="650.31,-251.27 641.06,-256.44 651.52,-258.16 650.31,-251.27"/>
</a>
</g>
</g>
<!-- Node11 -->
<g id="Node000011" class="node">
<title>Node11</title>
<g id="a_Node000011"><a xlink:href="class_cpl_1_1_m_app_1_1_stop_m_app_request.html" target="_top" xlink:title="This abstract class define ITC message type and payload for the application to stop the current MApp.">
<polygon fill="white" stroke="#666666" points="655.5,-238.5 494.5,-238.5 494.5,-219.5 655.5,-219.5 655.5,-238.5"/>
<text text-anchor="middle" x="575" y="-226.5" font-family="Helvetica,sans-Serif" font-size="10.00">Cpl::MApp::StopMAppRequest</text>
</a>
</g>
</g>
<!-- Node11&#45;&gt;Node1 -->
<g id="edge10_Node000001_Node000011" class="edge">
<title>Node11&#45;&gt;Node1</title>
<g id="a_edge10_Node000001_Node000011"><a xlink:title=" ">
<path fill="none" stroke="#63b8ff" d="M665.97,-219.69C699.06,-215.92 736.8,-211.22 771,-206 779.59,-204.69 788.7,-203.12 797.49,-201.52"/>
<polygon fill="#63b8ff" stroke="#63b8ff" points="665.41,-216.23 655.86,-220.83 666.19,-223.19 665.41,-216.23"/>
</a>
</g>
</g>
<!-- Node12 -->
<g id="Node000012" class="node">
<title>Node12</title>
<g id="a_Node000012"><a xlink:href="class_cpl_1_1_m_app_1_1_stop_all_m_app_request.html" target="_top" xlink:title="This abstract class define ITC message type and payload for the application to stop the current MApp.">
<polygon fill="white" stroke="#666666" points="662,-201.5 488,-201.5 488,-182.5 662,-182.5 662,-201.5"/>
<text text-anchor="middle" x="575" y="-189.5" font-family="Helvetica,sans-Serif" font-size="10.00">Cpl::MApp::StopAllMAppRequest</text>
</a>
</g>
</g>
<!-- Node12&#45;&gt;Node1 -->
<g id="edge11_Node000001_Node000012" class="edge">
<title>Node12&#45;&gt;Node1</title>
<g id="a_edge11_Node000001_Node000012"><a xlink:title=" ">
<path fill="none" stroke="#63b8ff" d="M672.34,-192C711.34,-192 755.01,-192 788.74,-192"/>
<polygon fill="#63b8ff" stroke="#63b8ff" points="672.01,-188.5 662.01,-192 672.01,-195.5 672.01,-188.5"/>
</a>
</g>
</g>
<!-- Node13 -->
<g id="Node000013" class="node">
<title>Node13</title>
<g id="a_Node000013"><a xlink:href="class_cpl_1_1_m_app_1_1_get_available_m_app_request.html" target="_top" xlink:title="This abstract class define ITC message type and payload for the application to get list of all of the...">
<polygon fill="white" stroke="#666666" points="656,-164 494,-164 494,-134 656,-134 656,-164"/>
<text text-anchor="start" x="502" y="-152" font-family="Helvetica,sans-Serif" font-size="10.00">Cpl::MApp::GetAvailableMApp</text>
<text text-anchor="middle" x="575" y="-141" font-family="Helvetica,sans-Serif" font-size="10.00">Request</text>
</a>
</g>
</g>
<!-- Node13&#45;&gt;Node1 -->
<g id="edge12_Node000001_Node000013" class="edge">
<title>Node13&#45;&gt;Node1</title>
<g id="a_edge12_Node000001_Node000013"><a xlink:title=" ">
<path fill="none" stroke="#63b8ff" d="M666.02,-163.36C706.56,-169.83 753.19,-177.27 788.76,-182.95"/>
<polygon fill="#63b8ff" stroke="#63b8ff" points="666.56,-159.9 656.13,-161.78 665.45,-166.82 666.56,-159.9"/>
</a>
</g>
</g>
<!-- Node14 -->
<g id="Node000014" class="node">
<title>Node14</title>
<g id="a_Node000014"><a xlink:href="class_cpl_1_1_m_app_1_1_get_started_m_app_request.html" target="_top" xlink:title="This abstract class define ITC message type and payload for the application to Get a list of started ...">
<polygon fill="white" stroke="#666666" points="651,-116 499,-116 499,-86 651,-86 651,-116"/>
<text text-anchor="start" x="507" y="-104" font-family="Helvetica,sans-Serif" font-size="10.00">Cpl::MApp::GetStartedMApp</text>
<text text-anchor="middle" x="575" y="-93" font-family="Helvetica,sans-Serif" font-size="10.00">Request</text>
</a>
</g>
</g>
<!-- Node14&#45;&gt;Node1 -->
<g id="edge13_Node000001_Node000014" class="edge">
<title>Node14&#45;&gt;Node1</title>
<g id="a_edge13_Node000001_Node000014"><a xlink:title=" ">
<path fill="none" stroke="#63b8ff" d="M641.69,-118.93C648.56,-120.92 655.43,-122.97 662,-125 710.88,-140.1 723.03,-144.22 771,-162 788.52,-168.49 808.11,-176.41 822.8,-182.48"/>
<polygon fill="#63b8ff" stroke="#63b8ff" points="642.22,-115.44 631.65,-116.05 640.29,-122.17 642.22,-115.44"/>
</a>
</g>
</g>
<!-- Node15 -->
<g id="Node000015" class="node">
<title>Node15</title>
<g id="a_Node000015"><a xlink:href="class_cpl_1_1_m_app_1_1_lookup_m_app_request.html" target="_top" xlink:title="This abstract class define ITC message type and payload for the application to look&#45;up a MApp by name...">
<polygon fill="white" stroke="#666666" points="662,-67.5 488,-67.5 488,-48.5 662,-48.5 662,-67.5"/>
<text text-anchor="middle" x="575" y="-55.5" font-family="Helvetica,sans-Serif" font-size="10.00">Cpl::MApp::LookupMAppRequest</text>
</a>
</g>
</g>
<!-- Node15&#45;&gt;Node1 -->
<g id="edge14_Node000001_Node000015" class="edge">
<title>Node15&#45;&gt;Node1</title>
<g id="a_edge14_Node000001_Node000015"><a xlink:title=" ">
<path fill="none" stroke="#63b8ff" d="M637.21,-69.9C645.61,-72 654.07,-74.37 662,-77 712.42,-93.71 726.39,-97.17 771,-126 797.12,-142.88 823.34,-168.65 836.61,-182.47"/>
<polygon fill="#63b8ff" stroke="#63b8ff" points="637.94,-66.47 627.4,-67.55 636.31,-73.28 637.94,-66.47"/>
</a>
</g>
</g>
<!-- Node16 -->
<g id="Node000016" class="node">
<title>Node16</title>
<g id="a_Node000016"><a xlink:href="class_cpl_1_1_container_1_1_s_list.html" target="_top" xlink:title=" ">
<polygon fill="white" stroke="#666666" points="644,-30 506,-30 506,0 644,0 644,-30"/>
<text text-anchor="start" x="514" y="-18" font-family="Helvetica,sans-Serif" font-size="10.00">Cpl::Container::SList</text>
<text text-anchor="middle" x="575" y="-7" font-family="Helvetica,sans-Serif" font-size="10.00">&lt; Cpl::MApp::MAppApi &gt;</text>
</a>
</g>
</g>
<!-- Node16&#45;&gt;Node1 -->
<g id="edge15_Node000001_Node000016" class="edge">
<title>Node16&#45;&gt;Node1</title>
<g id="a_edge15_Node000001_Node000016"><a xlink:title=" ">
<path fill="none" stroke="#9a32cd" stroke-dasharray="5,2" d="M654.15,-16.94C692.53,-21.38 737.58,-32.15 771,-57 815.25,-89.9 836.53,-157.27 843.15,-182.33"/>
<polygon fill="#9a32cd" stroke="#9a32cd" points="654.34,-13.45 644.03,-15.9 653.62,-20.41 654.34,-13.45"/>
</a>
</g>
<text text-anchor="middle" x="725.5" y="-71" font-family="Helvetica,sans-Serif" font-size="10.00" fill="grey"> m_inactiveMApps</text>
<text text-anchor="middle" x="725.5" y="-60" font-family="Helvetica,sans-Serif" font-size="10.00" fill="grey">m_startedMApps</text>
</g>
<!-- Node17 -->
<g id="Node000017" class="node">
<title>Node17</title>
<g id="a_Node000017"><a xlink:href="class_cpl_1_1_container_1_1_s_list.html" target="_top" xlink:title="This template class implements a singly linked list which maintains the ordering imposed on it by the...">
<polygon fill="white" stroke="#666666" points="323,-30 208,-30 208,0 323,0 323,-30"/>
<text text-anchor="start" x="216" y="-18" font-family="Helvetica,sans-Serif" font-size="10.00">Cpl::Container::SList</text>
<text text-anchor="middle" x="265.5" y="-7" font-family="Helvetica,sans-Serif" font-size="10.00">&lt; ITEM &gt;</text>
</a>
</g>
</g>
<!-- Node17&#45;&gt;Node16 -->
<g id="edge16_Node000016_Node000017" class="edge">
<title>Node17&#45;&gt;Node16</title>
<g id="a_edge16_Node000016_Node000017"><a xlink:title=" ">
<path fill="none" stroke="orange" stroke-dasharray="5,2" d="M333.52,-15C384.52,-15 454.45,-15 505.76,-15"/>
<polygon fill="orange" stroke="orange" points="333.26,-11.5 323.26,-15 333.26,-18.5 333.26,-11.5"/>
</a>
</g>
<text text-anchor="middle" x="407.5" y="-18" font-family="Helvetica,sans-Serif" font-size="10.00" fill="grey"> &lt; Cpl::MApp::MAppApi &gt;</text>
</g>
</g>
</svg>
