<?xml version="1.0" encoding="UTF-8" standalone="no"?>
<!DOCTYPE svg PUBLIC "-//W3C//DTD SVG 1.1//EN"
 "http://www.w3.org/Graphics/SVG/1.1/DTD/svg11.dtd">
<!-- Generated by graphviz version 2.43.0 (0)
 -->
<!-- Title: Driver::NV::Gang Pages: 1 -->
<svg width="109pt" height="93pt"
 viewBox="0.00 0.00 109.00 93.00" xmlns="http://www.w3.org/2000/svg" xmlns:xlink="http://www.w3.org/1999/xlink">
<g id="graph0" class="graph" transform="scale(1 1) rotate(0) translate(4 89)">
<title>Driver::NV::Gang</title>
<!-- Node1 -->
<g id="Node000001" class="node">
<title>Node1</title>
<g id="a_Node000001"><a xlink:title="This class implements the Non&#45;volatile storage driver using a collection of NV drivers to provide a &#39;...">
<polygon fill="#999999" stroke="#666666" points="98,-19 0,-19 0,0 98,0 98,-19"/>
<text text-anchor="middle" x="49" y="-7" font-family="Helvetica,sans-Serif" font-size="10.00">Driver::NV::Gang</text>
</a>
</g>
</g>
<!-- Node2 -->
<g id="Node000002" class="node">
<title>Node2</title>
<g id="a_Node000002"><a xlink:href="class_driver_1_1_n_v_1_1_api.html" target="_top" xlink:title="This class defines the interface for a platform independent Non&#45;volatile storage driver.">
<polygon fill="white" stroke="#666666" points="93,-85 5,-85 5,-66 93,-66 93,-85"/>
<text text-anchor="middle" x="49" y="-73" font-family="Helvetica,sans-Serif" font-size="10.00">Driver::NV::Api</text>
</a>
</g>
</g>
<!-- Node2&#45;&gt;Node1 -->
<g id="edge1_Node000001_Node000002" class="edge">
<title>Node2&#45;&gt;Node1</title>
<g id="a_edge1_Node000001_Node000002"><a xlink:title=" ">
<path fill="none" stroke="#63b8ff" d="M47.4,-55.69C47.24,-53.11 47.09,-50.49 47,-48 46.63,-38.1 47.4,-26.73 48.09,-19.14"/>
<polygon fill="#63b8ff" stroke="#63b8ff" points="43.92,-55.97 48.17,-65.68 50.9,-55.44 43.92,-55.97"/>
</a>
</g>
</g>
<!-- Node2&#45;&gt;Node1 -->
<g id="edge2_Node000001_Node000002" class="edge">
<title>Node2&#45;&gt;Node1</title>
<g id="a_edge2_Node000001_Node000002"><a xlink:title=" ">
<path fill="none" stroke="#9a32cd" stroke-dasharray="5,2" d="M49,-55.58C49,-43.63 49,-28.72 49,-19.41"/>
<polygon fill="#9a32cd" stroke="#9a32cd" points="45.5,-55.87 49,-65.87 52.5,-55.87 45.5,-55.87"/>
</a>
</g>
<text text-anchor="middle" x="75" y="-40" font-family="Helvetica,sans-Serif" font-size="10.00" fill="grey"> m_drivers</text>
</g>
</g>
</svg>
