<?xml version="1.0" encoding="UTF-8" standalone="no"?>
<!DOCTYPE svg PUBLIC "-//W3C//DTD SVG 1.1//EN"
 "http://www.w3.org/Graphics/SVG/1.1/DTD/svg11.dtd">
<!-- Generated by graphviz version 2.43.0 (0)
 -->
<!-- Title: Cpl::Io::InputOutput Pages: 1 -->
<svg width="882pt" height="302pt"
 viewBox="0.00 0.00 882.00 301.50" xmlns="http://www.w3.org/2000/svg" xmlns:xlink="http://www.w3.org/1999/xlink">
<g id="graph0" class="graph" transform="scale(1 1) rotate(0) translate(4 297.5)">
<title>Cpl::Io::InputOutput</title>
<!-- Node1 -->
<g id="Node000001" class="node">
<title>Node1</title>
<g id="a_Node000001"><a xlink:title="This abstract class defines a interface for operating on an input&#45;output stream (example of a stream ...">
<polygon fill="#999999" stroke="#666666" points="499,-165.5 388,-165.5 388,-146.5 499,-146.5 499,-165.5"/>
<text text-anchor="middle" x="443.5" y="-153.5" font-family="Helvetica,sans-Serif" font-size="10.00">Cpl::Io::InputOutput</text>
</a>
</g>
</g>
<!-- Node7 -->
<g id="Node000007" class="node">
<title>Node7</title>
<g id="a_Node000007"><a xlink:href="class_cpl_1_1_io_1_1_null.html" target="_top" xlink:title="This concrete class implements a NULL InputOutput stream &#45; that all of its input operations return &#39;E...">
<polygon fill="white" stroke="#666666" points="646,-293.5 573,-293.5 573,-274.5 646,-274.5 646,-293.5"/>
<text text-anchor="middle" x="609.5" y="-281.5" font-family="Helvetica,sans-Serif" font-size="10.00">Cpl::Io::Null</text>
</a>
</g>
</g>
<!-- Node1&#45;&gt;Node7 -->
<g id="edge8_Node000001_Node000007" class="edge">
<title>Node1&#45;&gt;Node7</title>
<g id="a_edge8_Node000001_Node000007"><a xlink:title=" ">
<path fill="none" stroke="#63b8ff" d="M454.56,-174.49C469.01,-199.25 498.04,-242.76 535,-266 546.23,-273.06 560.04,-277.35 572.65,-279.96"/>
<polygon fill="#63b8ff" stroke="#63b8ff" points="457.56,-172.69 449.59,-165.71 451.47,-176.14 457.56,-172.69"/>
</a>
</g>
</g>
<!-- Node8 -->
<g id="Node000008" class="node">
<title>Node8</title>
<g id="a_Node000008"><a xlink:href="class_cpl_1_1_io_1_1_ram_1_1_input_output.html" target="_top" xlink:title="This concrete class implements an InputOutput stream using a Ring Buffer.">
<polygon fill="white" stroke="#666666" points="679.5,-256.5 539.5,-256.5 539.5,-237.5 679.5,-237.5 679.5,-256.5"/>
<text text-anchor="middle" x="609.5" y="-244.5" font-family="Helvetica,sans-Serif" font-size="10.00">Cpl::Io::Ram::InputOutput</text>
</a>
</g>
</g>
<!-- Node1&#45;&gt;Node8 -->
<g id="edge9_Node000001_Node000008" class="edge">
<title>Node1&#45;&gt;Node8</title>
<g id="a_edge9_Node000001_Node000008"><a xlink:title=" ">
<path fill="none" stroke="#63b8ff" d="M461.61,-173.31C478.75,-189.7 506.59,-213.83 535,-228 542.67,-231.82 551.18,-234.93 559.61,-237.44"/>
<polygon fill="#63b8ff" stroke="#63b8ff" points="463.7,-170.46 454.1,-165.97 458.81,-175.47 463.7,-170.46"/>
</a>
</g>
</g>
<!-- Node9 -->
<g id="Node000009" class="node">
<title>Node9</title>
<g id="a_Node000009"><a xlink:href="class_cpl_1_1_io_1_1_serial_1_1_phony_stdio_1_1_input_output.html" target="_top" xlink:title="This concrete class implements the InputOutput stream interface built on top the C Library&#39;s fread/fw...">
<polygon fill="white" stroke="#666666" points="680.5,-219 538.5,-219 538.5,-189 680.5,-189 680.5,-219"/>
<text text-anchor="start" x="546.5" y="-207" font-family="Helvetica,sans-Serif" font-size="10.00">Cpl::Io::Serial::PhonyStdio</text>
<text text-anchor="middle" x="609.5" y="-196" font-family="Helvetica,sans-Serif" font-size="10.00">::InputOutput</text>
</a>
</g>
</g>
<!-- Node1&#45;&gt;Node9 -->
<g id="edge10_Node000001_Node000009" class="edge">
<title>Node1&#45;&gt;Node9</title>
<g id="a_edge10_Node000001_Node000009"><a xlink:title=" ">
<path fill="none" stroke="#63b8ff" d="M487.07,-168.46C508.45,-174.72 534.53,-182.35 557.03,-188.94"/>
<polygon fill="#63b8ff" stroke="#63b8ff" points="487.87,-165.05 477.29,-165.6 485.91,-171.77 487.87,-165.05"/>
</a>
</g>
</g>
<!-- Node10 -->
<g id="Node000010" class="node">
<title>Node10</title>
<g id="a_Node000010"><a xlink:href="class_cpl_1_1_io_1_1_serial_1_1_s_t_1_1_m32_f4_1_1_input_output.html" target="_top" xlink:title="This concrete class implements the InputOutput stream interface built on top of ST HAL Layer/SDK.">
<polygon fill="white" stroke="#666666" points="669,-171 550,-171 550,-141 669,-141 669,-171"/>
<text text-anchor="start" x="558" y="-159" font-family="Helvetica,sans-Serif" font-size="10.00">Cpl::Io::Serial::ST</text>
<text text-anchor="middle" x="609.5" y="-148" font-family="Helvetica,sans-Serif" font-size="10.00">::M32F4::InputOutput</text>
</a>
</g>
</g>
<!-- Node1&#45;&gt;Node10 -->
<g id="edge11_Node000001_Node000010" class="edge">
<title>Node1&#45;&gt;Node10</title>
<g id="a_edge11_Node000001_Node000010"><a xlink:title=" ">
<path fill="none" stroke="#63b8ff" d="M509.22,-156C522.65,-156 536.72,-156 549.91,-156"/>
<polygon fill="#63b8ff" stroke="#63b8ff" points="509.11,-152.5 499.11,-156 509.11,-159.5 509.11,-152.5"/>
</a>
</g>
</g>
<!-- Node11 -->
<g id="Node000011" class="node">
<title>Node11</title>
<g id="a_Node000011"><a xlink:href="class_cpl_1_1_io_1_1_socket_1_1_input_output.html" target="_top" xlink:title="This concrete class provides a platform independent &#39;standard&#39; implementation of an InputOutput strea...">
<polygon fill="white" stroke="#666666" points="684,-122.5 535,-122.5 535,-103.5 684,-103.5 684,-122.5"/>
<text text-anchor="middle" x="609.5" y="-110.5" font-family="Helvetica,sans-Serif" font-size="10.00">Cpl::Io::Socket::InputOutput</text>
</a>
</g>
</g>
<!-- Node1&#45;&gt;Node11 -->
<g id="edge12_Node000001_Node000011" class="edge">
<title>Node1&#45;&gt;Node11</title>
<g id="a_edge12_Node000001_Node000011"><a xlink:title=" ">
<path fill="none" stroke="#63b8ff" d="M489.86,-143.91C504.28,-140.08 520.31,-135.85 535,-132 546.86,-128.9 559.8,-125.54 571.47,-122.52"/>
<polygon fill="#63b8ff" stroke="#63b8ff" points="488.93,-140.54 480.16,-146.49 490.73,-147.3 488.93,-140.54"/>
</a>
</g>
</g>
<!-- Node12 -->
<g id="Node000012" class="node">
<title>Node12</title>
<g id="a_Node000012"><a xlink:href="class_cpl_1_1_io_1_1_stdio_1_1_input_output__.html" target="_top" xlink:title="This concrete class implements a Input&#45;Output stream.">
<polygon fill="white" stroke="#666666" points="683,-85.5 536,-85.5 536,-66.5 683,-66.5 683,-85.5"/>
<text text-anchor="middle" x="609.5" y="-73.5" font-family="Helvetica,sans-Serif" font-size="10.00">Cpl::Io::Stdio::InputOutput_</text>
</a>
</g>
</g>
<!-- Node1&#45;&gt;Node12 -->
<g id="edge13_Node000001_Node000012" class="edge">
<title>Node1&#45;&gt;Node12</title>
<g id="a_edge13_Node000001_Node000012"><a xlink:title=" ">
<path fill="none" stroke="#63b8ff" d="M463.46,-139.97C480.97,-125.93 508.25,-105.96 535,-94 542.56,-90.62 550.84,-87.82 559.05,-85.51"/>
<polygon fill="#63b8ff" stroke="#63b8ff" points="461.22,-137.28 455.69,-146.32 465.65,-142.7 461.22,-137.28"/>
</a>
</g>
</g>
<!-- Node13 -->
<g id="Node000013" class="node">
<title>Node13</title>
<g id="a_Node000013"><a xlink:href="class_cpl_1_1_io_1_1_tcp_1_1_input_output.html" target="_top" xlink:title="This concrete class defines a platform independent implementation of an InputOutput stream used by th...">
<polygon fill="white" stroke="#666666" points="676,-48.5 543,-48.5 543,-29.5 676,-29.5 676,-48.5"/>
<text text-anchor="middle" x="609.5" y="-36.5" font-family="Helvetica,sans-Serif" font-size="10.00">Cpl::Io::Tcp::InputOutput</text>
</a>
</g>
</g>
<!-- Node1&#45;&gt;Node13 -->
<g id="edge14_Node000001_Node000013" class="edge">
<title>Node1&#45;&gt;Node13</title>
<g id="a_edge14_Node000001_Node000013"><a xlink:title=" ">
<path fill="none" stroke="#63b8ff" d="M456.11,-137.76C471.41,-115.26 500.47,-77.47 535,-57 540.76,-53.58 547.15,-50.81 553.68,-48.57"/>
<polygon fill="#63b8ff" stroke="#63b8ff" points="453.01,-136.1 450.42,-146.38 458.85,-139.96 453.01,-136.1"/>
</a>
</g>
</g>
<!-- Node2 -->
<g id="Node000002" class="node">
<title>Node2</title>
<g id="a_Node000002"><a xlink:href="class_cpl_1_1_io_1_1_input.html" target="_top" xlink:title="This partially abstract class defines a interface for operating on an input stream (example of a stre...">
<polygon fill="white" stroke="#666666" points="348,-184.5 270,-184.5 270,-165.5 348,-165.5 348,-184.5"/>
<text text-anchor="middle" x="309" y="-172.5" font-family="Helvetica,sans-Serif" font-size="10.00">Cpl::Io::Input</text>
</a>
</g>
</g>
<!-- Node2&#45;&gt;Node1 -->
<g id="edge1_Node000001_Node000002" class="edge">
<title>Node2&#45;&gt;Node1</title>
<g id="a_edge1_Node000001_Node000002"><a xlink:title=" ">
<path fill="none" stroke="#63b8ff" d="M358.36,-168.07C367.83,-166.71 377.83,-165.27 387.51,-163.89"/>
<polygon fill="#63b8ff" stroke="#63b8ff" points="357.73,-164.62 348.32,-169.5 358.72,-171.55 357.73,-164.62"/>
</a>
</g>
</g>
<!-- Node3 -->
<g id="Node000003" class="node">
<title>Node3</title>
<g id="a_Node000003"><a xlink:href="class_cpl_1_1_io_1_1_close.html" target="_top" xlink:title="This abstract class defines a close operation that is intended to be used Input and Output streams/fi...">
<polygon fill="white" stroke="#666666" points="230,-184.5 150,-184.5 150,-165.5 230,-165.5 230,-184.5"/>
<text text-anchor="middle" x="190" y="-172.5" font-family="Helvetica,sans-Serif" font-size="10.00">Cpl::Io::Close</text>
</a>
</g>
</g>
<!-- Node3&#45;&gt;Node2 -->
<g id="edge2_Node000002_Node000003" class="edge">
<title>Node3&#45;&gt;Node2</title>
<g id="a_edge2_Node000002_Node000003"><a xlink:title=" ">
<path fill="none" stroke="#63b8ff" d="M240.37,-175C250.21,-175 260.41,-175 269.81,-175"/>
<polygon fill="#63b8ff" stroke="#63b8ff" points="240.28,-171.5 230.28,-175 240.28,-178.5 240.28,-171.5"/>
</a>
</g>
</g>
<!-- Node6 -->
<g id="Node000006" class="node">
<title>Node6</title>
<g id="a_Node000006"><a xlink:href="class_cpl_1_1_io_1_1_output.html" target="_top" xlink:title="This partially abstract class defines a interface for operating on an output stream (example of a str...">
<polygon fill="white" stroke="#666666" points="352,-147.5 266,-147.5 266,-128.5 352,-128.5 352,-147.5"/>
<text text-anchor="middle" x="309" y="-135.5" font-family="Helvetica,sans-Serif" font-size="10.00">Cpl::Io::Output</text>
</a>
</g>
</g>
<!-- Node3&#45;&gt;Node6 -->
<g id="edge6_Node000006_Node000003" class="edge">
<title>Node3&#45;&gt;Node6</title>
<g id="a_edge6_Node000006_Node000003"><a xlink:title=" ">
<path fill="none" stroke="#63b8ff" d="M230.85,-162.4C246.13,-157.57 263.3,-152.13 277.57,-147.62"/>
<polygon fill="#63b8ff" stroke="#63b8ff" points="229.61,-159.12 221.13,-165.47 231.72,-165.79 229.61,-159.12"/>
</a>
</g>
</g>
<!-- Node4 -->
<g id="Node000004" class="node">
<title>Node4</title>
<g id="a_Node000004"><a xlink:href="class_cpl_1_1_container_1_1_item.html" target="_top" xlink:title="This class is used by the Container classes to implement a various types of singly linked containers.">
<polygon fill="white" stroke="#666666" points="114,-184.5 0,-184.5 0,-165.5 114,-165.5 114,-184.5"/>
<text text-anchor="middle" x="57" y="-172.5" font-family="Helvetica,sans-Serif" font-size="10.00">Cpl::Container::Item</text>
</a>
</g>
</g>
<!-- Node4&#45;&gt;Node3 -->
<g id="edge3_Node000003_Node000004" class="edge">
<title>Node4&#45;&gt;Node3</title>
<g id="a_edge3_Node000003_Node000004"><a xlink:title=" ">
<path fill="none" stroke="#63b8ff" d="M124.44,-175C133.09,-175 141.72,-175 149.72,-175"/>
<polygon fill="#63b8ff" stroke="#63b8ff" points="124.32,-171.5 114.32,-175 124.32,-178.5 124.32,-171.5"/>
</a>
</g>
</g>
<!-- Node5 -->
<g id="Node000005" class="node">
<title>Node5</title>
<g id="a_Node000005"><a xlink:href="class_cpl_1_1_io_1_1_is_eos.html" target="_top" xlink:title="This abstract class defines a isEos() operation that is intended to be used Input and Output streams.">
<polygon fill="white" stroke="#666666" points="229.5,-147.5 150.5,-147.5 150.5,-128.5 229.5,-128.5 229.5,-147.5"/>
<text text-anchor="middle" x="190" y="-135.5" font-family="Helvetica,sans-Serif" font-size="10.00">Cpl::Io::IsEos</text>
</a>
</g>
</g>
<!-- Node5&#45;&gt;Node2 -->
<g id="edge4_Node000002_Node000005" class="edge">
<title>Node5&#45;&gt;Node2</title>
<g id="a_edge4_Node000002_Node000005"><a xlink:title=" ">
<path fill="none" stroke="#63b8ff" d="M230.85,-150.6C246.13,-155.43 263.3,-160.87 277.57,-165.38"/>
<polygon fill="#63b8ff" stroke="#63b8ff" points="231.72,-147.21 221.13,-147.53 229.61,-153.88 231.72,-147.21"/>
</a>
</g>
</g>
<!-- Node5&#45;&gt;Node6 -->
<g id="edge7_Node000006_Node000005" class="edge">
<title>Node5&#45;&gt;Node6</title>
<g id="a_edge7_Node000006_Node000005"><a xlink:title=" ">
<path fill="none" stroke="#63b8ff" d="M239.64,-138C248.32,-138 257.3,-138 265.78,-138"/>
<polygon fill="#63b8ff" stroke="#63b8ff" points="239.63,-134.5 229.63,-138 239.63,-141.5 239.63,-134.5"/>
</a>
</g>
</g>
<!-- Node6&#45;&gt;Node1 -->
<g id="edge5_Node000001_Node000006" class="edge">
<title>Node6&#45;&gt;Node1</title>
<g id="a_edge5_Node000001_Node000006"><a xlink:title=" ">
<path fill="none" stroke="#63b8ff" d="M362.24,-145.1C370.55,-146.23 379.17,-147.4 387.54,-148.53"/>
<polygon fill="#63b8ff" stroke="#63b8ff" points="362.67,-141.62 352.29,-143.74 361.73,-148.56 362.67,-141.62"/>
</a>
</g>
</g>
<!-- Node14 -->
<g id="Node000014" class="node">
<title>Node14</title>
<g id="a_Node000014"><a xlink:href="class_cpl_1_1_io_1_1_tcp_1_1_async_connector_1_1_client.html" target="_top" xlink:title="This class defines the callback mechanism used for accepting incoming TCP connections.">
<polygon fill="white" stroke="#666666" points="874,-78 720,-78 720,-48 874,-48 874,-78"/>
<text text-anchor="start" x="728" y="-66" font-family="Helvetica,sans-Serif" font-size="10.00">Cpl::Io::Tcp::AsyncConnector</text>
<text text-anchor="middle" x="797" y="-55" font-family="Helvetica,sans-Serif" font-size="10.00">::Client</text>
</a>
</g>
</g>
<!-- Node13&#45;&gt;Node14 -->
<g id="edge15_Node000013_Node000014" class="edge">
<title>Node13&#45;&gt;Node14</title>
<g id="a_edge15_Node000013_Node000014"><a xlink:title=" ">
<path fill="none" stroke="#63b8ff" d="M686.26,-48.8C697.38,-50.24 708.84,-51.72 719.97,-53.16"/>
<polygon fill="#63b8ff" stroke="#63b8ff" points="686.53,-45.31 676.16,-47.5 685.63,-52.25 686.53,-45.31"/>
</a>
</g>
</g>
<!-- Node15 -->
<g id="Node000015" class="node">
<title>Node15</title>
<g id="a_Node000015"><a xlink:href="class_cpl_1_1_io_1_1_tcp_1_1_async_listener_1_1_client.html" target="_top" xlink:title="This class defines the callback mechanism used for accepting incoming TCP connections.">
<polygon fill="white" stroke="#666666" points="868.5,-30 725.5,-30 725.5,0 868.5,0 868.5,-30"/>
<text text-anchor="start" x="733.5" y="-18" font-family="Helvetica,sans-Serif" font-size="10.00">Cpl::Io::Tcp::AsyncListener</text>
<text text-anchor="middle" x="797" y="-7" font-family="Helvetica,sans-Serif" font-size="10.00">::Client</text>
</a>
</g>
</g>
<!-- Node13&#45;&gt;Node15 -->
<g id="edge16_Node000013_Node000015" class="edge">
<title>Node13&#45;&gt;Node15</title>
<g id="a_edge16_Node000013_Node000015"><a xlink:title=" ">
<path fill="none" stroke="#63b8ff" d="M686.39,-29.18C699.29,-27.51 712.63,-25.79 725.39,-24.14"/>
<polygon fill="#63b8ff" stroke="#63b8ff" points="685.63,-25.75 676.16,-30.5 686.53,-32.69 685.63,-25.75"/>
</a>
</g>
</g>
</g>
</svg>
