<?xml version="1.0" encoding="UTF-8" standalone="no"?>
<!DOCTYPE svg PUBLIC "-//W3C//DTD SVG 1.1//EN"
 "http://www.w3.org/Graphics/SVG/1.1/DTD/svg11.dtd">
<!-- Generated by graphviz version 2.43.0 (0)
 -->
<!-- Title: Cpl::MApp::Temperature::Api Pages: 1 -->
<svg width="304pt" height="247pt"
 viewBox="0.00 0.00 303.50 247.00" xmlns="http://www.w3.org/2000/svg" xmlns:xlink="http://www.w3.org/1999/xlink">
<g id="graph0" class="graph" transform="scale(1 1) rotate(0) translate(4 243)">
<title>Cpl::MApp::Temperature::Api</title>
<!-- Node1 -->
<g id="Node000001" class="node">
<title>Node1</title>
<g id="a_Node000001"><a xlink:title="This concrete class implements MApp the polls a model point for a temperature value and periodically ...">
<polygon fill="#999999" stroke="#666666" points="220.5,-19 65.5,-19 65.5,0 220.5,0 220.5,-19"/>
<text text-anchor="middle" x="143" y="-7" font-family="Helvetica,sans-Serif" font-size="10.00">Cpl::MApp::Temperature::Api</text>
</a>
</g>
</g>
<!-- Node2 -->
<g id="Node000002" class="node">
<title>Node2</title>
<g id="a_Node000002"><a xlink:href="class_cpl_1_1_m_app_1_1_m_app__.html" target="_top" xlink:title="This partial concrete class provide common infrastructure that is common to all MApp instances.">
<polygon fill="white" stroke="#666666" points="132.5,-74 27.5,-74 27.5,-55 132.5,-55 132.5,-74"/>
<text text-anchor="middle" x="80" y="-62" font-family="Helvetica,sans-Serif" font-size="10.00">Cpl::MApp::MApp_</text>
</a>
</g>
</g>
<!-- Node2&#45;&gt;Node1 -->
<g id="edge1_Node000001_Node000002" class="edge">
<title>Node2&#45;&gt;Node1</title>
<g id="a_edge1_Node000001_Node000002"><a xlink:title=" ">
<path fill="none" stroke="#63b8ff" d="M98.04,-48.32C109.27,-38.87 123.32,-27.06 132.69,-19.17"/>
<polygon fill="#63b8ff" stroke="#63b8ff" points="95.52,-45.87 90.12,-54.98 100.03,-51.23 95.52,-45.87"/>
</a>
</g>
</g>
<!-- Node3 -->
<g id="Node000003" class="node">
<title>Node3</title>
<g id="a_Node000003"><a xlink:href="class_cpl_1_1_m_app_1_1_m_app_api.html" target="_top" xlink:title="This abstract class defines the interface for a Micro Application (MApp).">
<polygon fill="white" stroke="#666666" points="116,-184 0,-184 0,-165 116,-165 116,-184"/>
<text text-anchor="middle" x="58" y="-172" font-family="Helvetica,sans-Serif" font-size="10.00">Cpl::MApp::MAppApi</text>
</a>
</g>
</g>
<!-- Node3&#45;&gt;Node2 -->
<g id="edge2_Node000002_Node000003" class="edge">
<title>Node3&#45;&gt;Node2</title>
<g id="a_edge2_Node000002_Node000003"><a xlink:title=" ">
<path fill="none" stroke="#63b8ff" d="M61.81,-154.8C66.62,-131.2 74.69,-91.58 78.24,-74.16"/>
<polygon fill="#63b8ff" stroke="#63b8ff" points="58.37,-154.16 59.8,-164.66 65.23,-155.56 58.37,-154.16"/>
</a>
</g>
</g>
<!-- Node4 -->
<g id="Node000004" class="node">
<title>Node4</title>
<g id="a_Node000004"><a xlink:href="class_cpl_1_1_container_1_1_item.html" target="_top" xlink:title="This class is used by the Container classes to implement a various types of singly linked containers.">
<polygon fill="white" stroke="#666666" points="193,-239 79,-239 79,-220 193,-220 193,-239"/>
<text text-anchor="middle" x="136" y="-227" font-family="Helvetica,sans-Serif" font-size="10.00">Cpl::Container::Item</text>
</a>
</g>
</g>
<!-- Node4&#45;&gt;Node3 -->
<g id="edge3_Node000003_Node000004" class="edge">
<title>Node4&#45;&gt;Node3</title>
<g id="a_edge3_Node000003_Node000004"><a xlink:title=" ">
<path fill="none" stroke="#63b8ff" d="M114.88,-214.15C100.79,-204.57 82.71,-192.29 70.76,-184.17"/>
<polygon fill="#63b8ff" stroke="#63b8ff" points="113.23,-217.26 123.47,-219.98 117.16,-211.47 113.23,-217.26"/>
</a>
</g>
</g>
<!-- Node7 -->
<g id="Node000007" class="node">
<title>Node7</title>
<g id="a_Node000007"><a xlink:href="class_cpl_1_1_container_1_1_extended_item.html" target="_top" xlink:title="This class is used by the Container classes to implement a various types of DOUBLY linked containers.">
<polygon fill="white" stroke="#666666" points="294,-184 134,-184 134,-165 294,-165 294,-184"/>
<text text-anchor="middle" x="214" y="-172" font-family="Helvetica,sans-Serif" font-size="10.00">Cpl::Container::ExtendedItem</text>
</a>
</g>
</g>
<!-- Node4&#45;&gt;Node7 -->
<g id="edge7_Node000007_Node000004" class="edge">
<title>Node4&#45;&gt;Node7</title>
<g id="a_edge7_Node000007_Node000004"><a xlink:title=" ">
<path fill="none" stroke="#63b8ff" d="M157.12,-214.15C171.21,-204.57 189.29,-192.29 201.24,-184.17"/>
<polygon fill="#63b8ff" stroke="#63b8ff" points="154.84,-211.47 148.53,-219.98 158.77,-217.26 154.84,-211.47"/>
</a>
</g>
</g>
<!-- Node5 -->
<g id="Node000005" class="node">
<title>Node5</title>
<g id="a_Node000005"><a xlink:href="class_cpl_1_1_system_1_1_timer.html" target="_top" xlink:title="This mostly concrete interface defines the operations that can be performed on a software timer.">
<polygon fill="white" stroke="#666666" points="265,-74 155,-74 155,-55 265,-55 265,-74"/>
<text text-anchor="middle" x="210" y="-62" font-family="Helvetica,sans-Serif" font-size="10.00">Cpl::System::Timer</text>
</a>
</g>
</g>
<!-- Node5&#45;&gt;Node1 -->
<g id="edge4_Node000001_Node000005" class="edge">
<title>Node5&#45;&gt;Node1</title>
<g id="a_edge4_Node000001_Node000005"><a xlink:title=" ">
<path fill="none" stroke="#63b8ff" d="M191.17,-48.6C179.16,-39.11 164.03,-27.13 153.96,-19.17"/>
<polygon fill="#63b8ff" stroke="#63b8ff" points="189.22,-51.53 199.24,-54.98 193.56,-46.04 189.22,-51.53"/>
</a>
</g>
</g>
<!-- Node6 -->
<g id="Node000006" class="node">
<title>Node6</title>
<g id="a_Node000006"><a xlink:href="class_cpl_1_1_system_1_1_counter_callback__.html" target="_top" xlink:title="This abstract class defines the call&#45;back interface for a Counter object.">
<polygon fill="white" stroke="#666666" points="295.5,-129 128.5,-129 128.5,-110 295.5,-110 295.5,-129"/>
<text text-anchor="middle" x="212" y="-117" font-family="Helvetica,sans-Serif" font-size="10.00">Cpl::System::CounterCallback_</text>
</a>
</g>
</g>
<!-- Node6&#45;&gt;Node5 -->
<g id="edge5_Node000005_Node000006" class="edge">
<title>Node6&#45;&gt;Node5</title>
<g id="a_edge5_Node000005_Node000006"><a xlink:title=" ">
<path fill="none" stroke="#63b8ff" d="M211.29,-99.66C210.96,-90.93 210.58,-80.99 210.32,-74.09"/>
<polygon fill="#63b8ff" stroke="#63b8ff" points="207.8,-99.89 211.67,-109.75 214.79,-99.62 207.8,-99.89"/>
</a>
</g>
</g>
<!-- Node7&#45;&gt;Node6 -->
<g id="edge6_Node000006_Node000007" class="edge">
<title>Node7&#45;&gt;Node6</title>
<g id="a_edge6_Node000006_Node000007"><a xlink:title=" ">
<path fill="none" stroke="#63b8ff" d="M213.29,-154.66C212.96,-145.93 212.58,-135.99 212.32,-129.09"/>
<polygon fill="#63b8ff" stroke="#63b8ff" points="209.8,-154.89 213.67,-164.75 216.79,-154.62 209.8,-154.89"/>
</a>
</g>
</g>
</g>
</svg>
