<?xml version="1.0" encoding="UTF-8" standalone="no"?>
<!DOCTYPE svg PUBLIC "-//W3C//DTD SVG 1.1//EN"
 "http://www.w3.org/Graphics/SVG/1.1/DTD/svg11.dtd">
<!-- Generated by graphviz version 2.43.0 (0)
 -->
<!-- Title: Cpl::Io::Stdio::StdErr Pages: 1 -->
<svg width="279pt" height="261pt"
 viewBox="0.00 0.00 279.00 261.00" xmlns="http://www.w3.org/2000/svg" xmlns:xlink="http://www.w3.org/1999/xlink">
<g id="graph0" class="graph" transform="scale(1 1) rotate(0) translate(4 257)">
<title>Cpl::Io::Stdio::StdErr</title>
<!-- Node1 -->
<g id="Node000001" class="node">
<title>Node1</title>
<g id="a_Node000001"><a xlink:title="This concrete class represents the C&#45;library &#39;stderr&#39; stream.">
<polygon fill="#999999" stroke="#666666" points="218.5,-19 105.5,-19 105.5,0 218.5,0 218.5,-19"/>
<text text-anchor="middle" x="162" y="-7" font-family="Helvetica,sans-Serif" font-size="10.00">Cpl::Io::Stdio::StdErr</text>
</a>
</g>
</g>
<!-- Node2 -->
<g id="Node000002" class="node">
<title>Node2</title>
<g id="a_Node000002"><a xlink:href="class_cpl_1_1_io_1_1_stdio_1_1_output__.html" target="_top" xlink:title="This concrete class implements a Output stream using the underlying platform&#39;s native OS &#39;file interf...">
<polygon fill="white" stroke="#666666" points="223,-75 101,-75 101,-56 223,-56 223,-75"/>
<text text-anchor="middle" x="162" y="-63" font-family="Helvetica,sans-Serif" font-size="10.00">Cpl::Io::Stdio::Output_</text>
</a>
</g>
</g>
<!-- Node2&#45;&gt;Node1 -->
<g id="edge1_Node000001_Node000002" class="edge">
<title>Node2&#45;&gt;Node1</title>
<g id="a_edge1_Node000001_Node000002"><a xlink:title=" ">
<path fill="none" stroke="#63b8ff" d="M162,-45.3C162,-36.41 162,-26.28 162,-19.25"/>
<polygon fill="#63b8ff" stroke="#63b8ff" points="158.5,-45.58 162,-55.58 165.5,-45.58 158.5,-45.58"/>
</a>
</g>
</g>
<!-- Node3 -->
<g id="Node000003" class="node">
<title>Node3</title>
<g id="a_Node000003"><a xlink:href="class_cpl_1_1_io_1_1_output.html" target="_top" xlink:title="This partially abstract class defines a interface for operating on an output stream (example of a str...">
<polygon fill="white" stroke="#666666" points="149,-141 63,-141 63,-122 149,-122 149,-141"/>
<text text-anchor="middle" x="106" y="-129" font-family="Helvetica,sans-Serif" font-size="10.00">Cpl::Io::Output</text>
</a>
</g>
</g>
<!-- Node3&#45;&gt;Node2 -->
<g id="edge2_Node000002_Node000003" class="edge">
<title>Node3&#45;&gt;Node2</title>
<g id="a_edge2_Node000002_Node000003"><a xlink:title=" ">
<path fill="none" stroke="#63b8ff" d="M120.33,-114.12C131.11,-101.81 145.47,-85.39 154.21,-75.41"/>
<polygon fill="#63b8ff" stroke="#63b8ff" points="117.5,-112.04 113.55,-121.87 122.77,-116.65 117.5,-112.04"/>
</a>
</g>
</g>
<!-- Node4 -->
<g id="Node000004" class="node">
<title>Node4</title>
<g id="a_Node000004"><a xlink:href="class_cpl_1_1_io_1_1_close.html" target="_top" xlink:title="This abstract class defines a close operation that is intended to be used Input and Output streams/fi...">
<polygon fill="white" stroke="#666666" points="97,-197 17,-197 17,-178 97,-178 97,-197"/>
<text text-anchor="middle" x="57" y="-185" font-family="Helvetica,sans-Serif" font-size="10.00">Cpl::Io::Close</text>
</a>
</g>
</g>
<!-- Node4&#45;&gt;Node3 -->
<g id="edge3_Node000003_Node000004" class="edge">
<title>Node4&#45;&gt;Node3</title>
<g id="a_edge3_Node000003_Node000004"><a xlink:title=" ">
<path fill="none" stroke="#63b8ff" d="M72.03,-169.93C80.62,-160.47 91.04,-148.98 98.06,-141.25"/>
<polygon fill="#63b8ff" stroke="#63b8ff" points="69.22,-167.83 65.09,-177.58 74.4,-172.53 69.22,-167.83"/>
</a>
</g>
</g>
<!-- Node5 -->
<g id="Node000005" class="node">
<title>Node5</title>
<g id="a_Node000005"><a xlink:href="class_cpl_1_1_container_1_1_item.html" target="_top" xlink:title="This class is used by the Container classes to implement a various types of singly linked containers.">
<polygon fill="white" stroke="#666666" points="114,-253 0,-253 0,-234 114,-234 114,-253"/>
<text text-anchor="middle" x="57" y="-241" font-family="Helvetica,sans-Serif" font-size="10.00">Cpl::Container::Item</text>
</a>
</g>
</g>
<!-- Node5&#45;&gt;Node4 -->
<g id="edge4_Node000004_Node000005" class="edge">
<title>Node5&#45;&gt;Node4</title>
<g id="a_edge4_Node000004_Node000005"><a xlink:title=" ">
<path fill="none" stroke="#63b8ff" d="M57,-223.3C57,-214.41 57,-204.28 57,-197.25"/>
<polygon fill="#63b8ff" stroke="#63b8ff" points="53.5,-223.58 57,-233.58 60.5,-223.58 53.5,-223.58"/>
</a>
</g>
</g>
<!-- Node6 -->
<g id="Node000006" class="node">
<title>Node6</title>
<g id="a_Node000006"><a xlink:href="class_cpl_1_1_io_1_1_is_eos.html" target="_top" xlink:title="This abstract class defines a isEos() operation that is intended to be used Input and Output streams.">
<polygon fill="white" stroke="#666666" points="194.5,-197 115.5,-197 115.5,-178 194.5,-178 194.5,-197"/>
<text text-anchor="middle" x="155" y="-185" font-family="Helvetica,sans-Serif" font-size="10.00">Cpl::Io::IsEos</text>
</a>
</g>
</g>
<!-- Node6&#45;&gt;Node3 -->
<g id="edge5_Node000003_Node000006" class="edge">
<title>Node6&#45;&gt;Node3</title>
<g id="a_edge5_Node000003_Node000006"><a xlink:title=" ">
<path fill="none" stroke="#63b8ff" d="M139.97,-169.93C131.38,-160.47 120.96,-148.98 113.94,-141.25"/>
<polygon fill="#63b8ff" stroke="#63b8ff" points="137.6,-172.53 146.91,-177.58 142.78,-167.83 137.6,-172.53"/>
</a>
</g>
</g>
<!-- Node7 -->
<g id="Node000007" class="node">
<title>Node7</title>
<g id="a_Node000007"><a xlink:href="union_cpl_1_1_io_1_1_descriptor.html" target="_top" xlink:title="This union defines a &#39;IO descriptor&#39; in terms of a an integer and/or a void*.">
<polygon fill="white" stroke="#666666" points="271,-141 167,-141 167,-122 271,-122 271,-141"/>
<text text-anchor="middle" x="219" y="-129" font-family="Helvetica,sans-Serif" font-size="10.00">Cpl::Io::Descriptor</text>
</a>
</g>
</g>
<!-- Node7&#45;&gt;Node2 -->
<g id="edge6_Node000002_Node000007" class="edge">
<title>Node7&#45;&gt;Node2</title>
<g id="a_edge6_Node000002_Node000007"><a xlink:title=" ">
<path fill="none" stroke="#9a32cd" stroke-dasharray="5,2" d="M204.41,-114.12C193.44,-101.81 178.83,-85.39 169.93,-75.41"/>
<polygon fill="#9a32cd" stroke="#9a32cd" points="202.05,-116.73 211.31,-121.87 207.28,-112.07 202.05,-116.73"/>
</a>
</g>
<text text-anchor="middle" x="216" y="-96" font-family="Helvetica,sans-Serif" font-size="10.00" fill="grey"> m_outFd</text>
</g>
</g>
</svg>
