<?xml version="1.0" encoding="UTF-8" standalone="no"?>
<!DOCTYPE svg PUBLIC "-//W3C//DTD SVG 1.1//EN"
 "http://www.w3.org/Graphics/SVG/1.1/DTD/svg11.dtd">
<!-- Generated by graphviz version 2.43.0 (0)
 -->
<!-- Title: Cpl::Io::Socket::Listener::Client Pages: 1 -->
<svg width="264pt" height="104pt"
 viewBox="0.00 0.00 264.00 104.00" xmlns="http://www.w3.org/2000/svg" xmlns:xlink="http://www.w3.org/1999/xlink">
<g id="graph0" class="graph" transform="scale(1 1) rotate(0) translate(4 100)">
<title>Cpl::Io::Socket::Listener::Client</title>
<!-- Node1 -->
<g id="Node000001" class="node">
<title>Node1</title>
<g id="a_Node000001"><a xlink:title="This class defines the callback mechanism used for accepting incoming socket connections.">
<polygon fill="#999999" stroke="#666666" points="199,-96 68,-96 68,-66 199,-66 199,-96"/>
<text text-anchor="start" x="76" y="-84" font-family="Helvetica,sans-Serif" font-size="10.00">Cpl::Io::Socket::Listener</text>
<text text-anchor="middle" x="133.5" y="-73" font-family="Helvetica,sans-Serif" font-size="10.00">::Client</text>
</a>
</g>
</g>
<!-- Node2 -->
<g id="Node000002" class="node">
<title>Node2</title>
<g id="a_Node000002"><a xlink:href="class_cpl_1_1_io_1_1_socket_1_1_listener_client_sync.html" target="_top" xlink:title="This partially concrete class implements the synchronous ITC open call for the OpenApi.">
<polygon fill="white" stroke="#666666" points="131,-30 0,-30 0,0 131,0 131,-30"/>
<text text-anchor="start" x="8" y="-18" font-family="Helvetica,sans-Serif" font-size="10.00">Cpl::Io::Socket::Listener</text>
<text text-anchor="middle" x="65.5" y="-7" font-family="Helvetica,sans-Serif" font-size="10.00">ClientSync</text>
</a>
</g>
</g>
<!-- Node1&#45;&gt;Node2 -->
<g id="edge1_Node000001_Node000002" class="edge">
<title>Node1&#45;&gt;Node2</title>
<g id="a_edge1_Node000001_Node000002"><a xlink:title=" ">
<path fill="none" stroke="#63b8ff" d="M111.11,-58.92C101.08,-49.49 89.52,-38.61 80.55,-30.16"/>
<polygon fill="#63b8ff" stroke="#63b8ff" points="108.73,-61.49 118.41,-65.8 113.53,-56.39 108.73,-61.49"/>
</a>
</g>
</g>
<!-- Node3 -->
<g id="Node000003" class="node">
<title>Node3</title>
<g id="a_Node000003"><a xlink:href="class_cpl_1_1_t_shell_1_1_socket.html" target="_top" xlink:title="This concrete class provides a socket listener/server and &#39;threading wrapper&#39; for running a TShell Co...">
<polygon fill="white" stroke="#666666" points="256,-24.5 149,-24.5 149,-5.5 256,-5.5 256,-24.5"/>
<text text-anchor="middle" x="202.5" y="-12.5" font-family="Helvetica,sans-Serif" font-size="10.00">Cpl::TShell::Socket</text>
</a>
</g>
</g>
<!-- Node1&#45;&gt;Node3 -->
<g id="edge2_Node000001_Node000003" class="edge">
<title>Node1&#45;&gt;Node3</title>
<g id="a_edge2_Node000001_Node000003"><a xlink:title=" ">
<path fill="none" stroke="#63b8ff" d="M156.21,-58.93C168.7,-47.35 183.52,-33.61 192.96,-24.84"/>
<polygon fill="#63b8ff" stroke="#63b8ff" points="153.76,-56.43 148.81,-65.8 158.53,-61.56 153.76,-56.43"/>
</a>
</g>
</g>
</g>
</svg>
