<?xml version="1.0" encoding="UTF-8" standalone="no"?>
<!DOCTYPE svg PUBLIC "-//W3C//DTD SVG 1.1//EN"
 "http://www.w3.org/Graphics/SVG/1.1/DTD/svg11.dtd">
<!-- Generated by graphviz version 2.43.0 (0)
 -->
<!-- Title: Cpl::Io::File::Littlefs::BdSpi Pages: 1 -->
<svg width="349pt" height="113pt"
 viewBox="0.00 0.00 349.00 112.50" xmlns="http://www.w3.org/2000/svg" xmlns:xlink="http://www.w3.org/1999/xlink">
<g id="graph0" class="graph" transform="scale(1 1) rotate(0) translate(4 108.5)">
<title>Cpl::Io::File::Littlefs::BdSpi</title>
<!-- Node1 -->
<g id="Node000001" class="node">
<title>Node1</title>
<g id="a_Node000001"><a xlink:title="Concrete Block Driver for a &#39;traditional&#39; SPI based NOR flash.">
<polygon fill="#999999" stroke="#666666" points="341,-61.5 231,-61.5 231,-31.5 341,-31.5 341,-61.5"/>
<text text-anchor="start" x="239" y="-49.5" font-family="Helvetica,sans-Serif" font-size="10.00">Cpl::Io::File::Littlefs</text>
<text text-anchor="middle" x="286" y="-38.5" font-family="Helvetica,sans-Serif" font-size="10.00">::BdSpi</text>
</a>
</g>
</g>
<!-- Node2 -->
<g id="Node000002" class="node">
<title>Node2</title>
<g id="a_Node000002"><a xlink:href="class_cpl_1_1_io_1_1_file_1_1_littlefs_1_1_block_driver_api.html" target="_top" xlink:title="This partial abstract class defines the interface for block drivers.">
<polygon fill="white" stroke="#666666" points="136,-104.5 26,-104.5 26,-74.5 136,-74.5 136,-104.5"/>
<text text-anchor="start" x="34" y="-92.5" font-family="Helvetica,sans-Serif" font-size="10.00">Cpl::Io::File::Littlefs</text>
<text text-anchor="middle" x="81" y="-81.5" font-family="Helvetica,sans-Serif" font-size="10.00">::BlockDriverApi</text>
</a>
</g>
</g>
<!-- Node2&#45;&gt;Node1 -->
<g id="edge1_Node000001_Node000002" class="edge">
<title>Node2&#45;&gt;Node1</title>
<g id="a_edge1_Node000001_Node000002"><a xlink:title=" ">
<path fill="none" stroke="#63b8ff" d="M145.95,-75.95C173.18,-70.19 204.59,-63.53 230.66,-58.01"/>
<polygon fill="#63b8ff" stroke="#63b8ff" points="145.19,-72.54 136.13,-78.03 146.64,-79.38 145.19,-72.54"/>
</a>
</g>
</g>
<!-- Node3 -->
<g id="Node000003" class="node">
<title>Node3</title>
<g id="a_Node000003"><a xlink:href="class_driver_1_1_s_p_i_1_1_master_half_duplex.html" target="_top" xlink:title="This class defines a non&#45;platform specific interface for an SPI master device driver using HALF&#45;DUPLE...">
<polygon fill="white" stroke="#666666" points="162,-56 0,-56 0,-37 162,-37 162,-56"/>
<text text-anchor="middle" x="81" y="-44" font-family="Helvetica,sans-Serif" font-size="10.00">Driver::SPI::MasterHalfDuplex</text>
</a>
</g>
</g>
<!-- Node3&#45;&gt;Node1 -->
<g id="edge2_Node000001_Node000003" class="edge">
<title>Node3&#45;&gt;Node1</title>
<g id="a_edge2_Node000001_Node000003"><a xlink:title=" ">
<path fill="none" stroke="#9a32cd" stroke-dasharray="5,2" d="M172.31,-46.5C192.32,-46.5 212.91,-46.5 230.93,-46.5"/>
<polygon fill="#9a32cd" stroke="#9a32cd" points="172.23,-43 162.23,-46.5 172.23,-50 172.23,-43"/>
</a>
</g>
<text text-anchor="middle" x="196.5" y="-49.5" font-family="Helvetica,sans-Serif" font-size="10.00" fill="grey"> m_spi</text>
</g>
<!-- Node4 -->
<g id="Node000004" class="node">
<title>Node4</title>
<g id="a_Node000004"><a xlink:href="class_driver_1_1_d_i_o_1_1_out.html" target="_top" xlink:title="This class defines a generic interface for controlling a single Digital output signal.">
<polygon fill="white" stroke="#666666" points="128,-19 34,-19 34,0 128,0 128,-19"/>
<text text-anchor="middle" x="81" y="-7" font-family="Helvetica,sans-Serif" font-size="10.00">Driver::DIO::Out</text>
</a>
</g>
</g>
<!-- Node4&#45;&gt;Node1 -->
<g id="edge3_Node000001_Node000004" class="edge">
<title>Node4&#45;&gt;Node1</title>
<g id="a_edge3_Node000001_Node000004"><a xlink:title=" ">
<path fill="none" stroke="#9a32cd" stroke-dasharray="5,2" d="M138.17,-18.44C161.37,-22.26 188.52,-26.9 213,-31.5 218.77,-32.59 224.79,-33.77 230.79,-34.97"/>
<polygon fill="#9a32cd" stroke="#9a32cd" points="138.59,-14.96 128.15,-16.8 137.46,-21.87 138.59,-14.96"/>
</a>
</g>
<text text-anchor="middle" x="196.5" y="-34.5" font-family="Helvetica,sans-Serif" font-size="10.00" fill="grey"> m_cs</text>
</g>
</g>
</svg>
