<?xml version="1.0" encoding="UTF-8" standalone="no"?>
<!DOCTYPE svg PUBLIC "-//W3C//DTD SVG 1.1//EN"
 "http://www.w3.org/Graphics/SVG/1.1/DTD/svg11.dtd">
<!-- Generated by graphviz version 2.43.0 (0)
 -->
<!-- Title: Cpl::TShell::Cmd::Threads Pages: 1 -->
<svg width="440pt" height="216pt"
 viewBox="0.00 0.00 440.00 216.00" xmlns="http://www.w3.org/2000/svg" xmlns:xlink="http://www.w3.org/1999/xlink">
<g id="graph0" class="graph" transform="scale(1 1) rotate(0) translate(4 212)">
<title>Cpl::TShell::Cmd::Threads</title>
<!-- Node1 -->
<g id="Node000001" class="node">
<title>Node1</title>
<g id="a_Node000001"><a xlink:title="This class implements a Shell command.">
<polygon fill="#999999" stroke="#666666" points="299.5,-19 157.5,-19 157.5,0 299.5,0 299.5,-19"/>
<text text-anchor="middle" x="228.5" y="-7" font-family="Helvetica,sans-Serif" font-size="10.00">Cpl::TShell::Cmd::Threads</text>
</a>
</g>
</g>
<!-- Node2 -->
<g id="Node000002" class="node">
<title>Node2</title>
<g id="a_Node000002"><a xlink:href="class_cpl_1_1_t_shell_1_1_cmd_1_1_command.html" target="_top" xlink:title="This partially concrete class implements infrastructure and/or common functionality for a Shell comma...">
<polygon fill="white" stroke="#666666" points="153,-90.5 0,-90.5 0,-71.5 153,-71.5 153,-90.5"/>
<text text-anchor="middle" x="76.5" y="-78.5" font-family="Helvetica,sans-Serif" font-size="10.00">Cpl::TShell::Cmd::Command</text>
</a>
</g>
</g>
<!-- Node2&#45;&gt;Node1 -->
<g id="edge1_Node000001_Node000002" class="edge">
<title>Node2&#45;&gt;Node1</title>
<g id="a_edge1_Node000001_Node000002"><a xlink:title=" ">
<path fill="none" stroke="#63b8ff" d="M104.41,-67.24C135.02,-53.24 183.3,-31.17 209.71,-19.09"/>
<polygon fill="#63b8ff" stroke="#63b8ff" points="102.78,-64.14 95.14,-71.48 105.69,-70.5 102.78,-64.14"/>
</a>
</g>
</g>
<!-- Node3 -->
<g id="Node000003" class="node">
<title>Node3</title>
<g id="a_Node000003"><a xlink:href="class_cpl_1_1_t_shell_1_1_command.html" target="_top" xlink:title="This class defines the interface for a TShell command.">
<polygon fill="white" stroke="#666666" points="139,-152 14,-152 14,-133 139,-133 139,-152"/>
<text text-anchor="middle" x="76.5" y="-140" font-family="Helvetica,sans-Serif" font-size="10.00">Cpl::TShell::Command</text>
</a>
</g>
</g>
<!-- Node3&#45;&gt;Node2 -->
<g id="edge2_Node000002_Node000003" class="edge">
<title>Node3&#45;&gt;Node2</title>
<g id="a_edge2_Node000002_Node000003"><a xlink:title=" ">
<path fill="none" stroke="#63b8ff" d="M76.5,-122.82C76.5,-112 76.5,-98.9 76.5,-90.51"/>
<polygon fill="#63b8ff" stroke="#63b8ff" points="73,-122.98 76.5,-132.98 80,-122.98 73,-122.98"/>
</a>
</g>
</g>
<!-- Node4 -->
<g id="Node000004" class="node">
<title>Node4</title>
<g id="a_Node000004"><a xlink:href="class_cpl_1_1_container_1_1_item.html" target="_top" xlink:title="This class is used by the Container classes to implement a various types of singly linked containers.">
<polygon fill="white" stroke="#666666" points="133.5,-208 19.5,-208 19.5,-189 133.5,-189 133.5,-208"/>
<text text-anchor="middle" x="76.5" y="-196" font-family="Helvetica,sans-Serif" font-size="10.00">Cpl::Container::Item</text>
</a>
</g>
</g>
<!-- Node4&#45;&gt;Node3 -->
<g id="edge3_Node000003_Node000004" class="edge">
<title>Node4&#45;&gt;Node3</title>
<g id="a_edge3_Node000003_Node000004"><a xlink:title=" ">
<path fill="none" stroke="#63b8ff" d="M76.5,-178.3C76.5,-169.41 76.5,-159.28 76.5,-152.25"/>
<polygon fill="#63b8ff" stroke="#63b8ff" points="73,-178.58 76.5,-188.58 80,-178.58 73,-178.58"/>
</a>
</g>
</g>
<!-- Node5 -->
<g id="Node000005" class="node">
<title>Node5</title>
<g id="a_Node000005"><a xlink:href="class_cpl_1_1_system_1_1_thread_1_1_traverser.html" target="_top" xlink:title="This abstract class defines the client interface for walking the list of threads, i....">
<polygon fill="white" stroke="#666666" points="286,-96 171,-96 171,-66 286,-66 286,-96"/>
<text text-anchor="start" x="179" y="-84" font-family="Helvetica,sans-Serif" font-size="10.00">Cpl::System::Thread</text>
<text text-anchor="middle" x="228.5" y="-73" font-family="Helvetica,sans-Serif" font-size="10.00">::Traverser</text>
</a>
</g>
</g>
<!-- Node5&#45;&gt;Node1 -->
<g id="edge4_Node000001_Node000005" class="edge">
<title>Node5&#45;&gt;Node1</title>
<g id="a_edge4_Node000001_Node000005"><a xlink:title=" ">
<path fill="none" stroke="#63b8ff" d="M228.5,-55.56C228.5,-42.95 228.5,-28.35 228.5,-19.27"/>
<polygon fill="#63b8ff" stroke="#63b8ff" points="225,-55.94 228.5,-65.94 232,-55.94 225,-55.94"/>
</a>
</g>
</g>
<!-- Node6 -->
<g id="Node000006" class="node">
<title>Node6</title>
<g id="a_Node000006"><a xlink:href="class_cpl_1_1_t_shell_1_1_context__.html" target="_top" xlink:title="This Private Namespace class defines a &quot;Context&quot; for a TShell command.">
<polygon fill="white" stroke="#666666" points="422.5,-90.5 304.5,-90.5 304.5,-71.5 422.5,-71.5 422.5,-90.5"/>
<text text-anchor="middle" x="363.5" y="-78.5" font-family="Helvetica,sans-Serif" font-size="10.00">Cpl::TShell::Context_</text>
</a>
</g>
</g>
<!-- Node6&#45;&gt;Node1 -->
<g id="edge5_Node000001_Node000006" class="edge">
<title>Node6&#45;&gt;Node1</title>
<g id="a_edge5_Node000001_Node000006"><a xlink:title=" ">
<path fill="none" stroke="#9a32cd" stroke-dasharray="5,2" d="M338.01,-66.87C310.79,-52.86 268.44,-31.06 245.19,-19.09"/>
<polygon fill="#9a32cd" stroke="#9a32cd" points="336.45,-70.01 346.95,-71.48 339.66,-63.79 336.45,-70.01"/>
</a>
</g>
<text text-anchor="middle" x="335" y="-40" font-family="Helvetica,sans-Serif" font-size="10.00" fill="grey"> m_contextPtr</text>
</g>
<!-- Node7 -->
<g id="Node000007" class="node">
<title>Node7</title>
<g id="a_Node000007"><a xlink:href="class_cpl_1_1_t_shell_1_1_processor_api.html" target="_top" xlink:title="This class defines the interface a TShell Command Processor.">
<polygon fill="white" stroke="#666666" points="432,-152 295,-152 295,-133 432,-133 432,-152"/>
<text text-anchor="middle" x="363.5" y="-140" font-family="Helvetica,sans-Serif" font-size="10.00">Cpl::TShell::ProcessorApi</text>
</a>
</g>
</g>
<!-- Node7&#45;&gt;Node6 -->
<g id="edge6_Node000006_Node000007" class="edge">
<title>Node7&#45;&gt;Node6</title>
<g id="a_edge6_Node000006_Node000007"><a xlink:title=" ">
<path fill="none" stroke="#63b8ff" d="M363.5,-122.82C363.5,-112 363.5,-98.9 363.5,-90.51"/>
<polygon fill="#63b8ff" stroke="#63b8ff" points="360,-122.98 363.5,-132.98 367,-122.98 360,-122.98"/>
</a>
</g>
</g>
</g>
</svg>
