<?xml version="1.0" encoding="UTF-8" standalone="no"?>
<!DOCTYPE svg PUBLIC "-//W3C//DTD SVG 1.1//EN"
 "http://www.w3.org/Graphics/SVG/1.1/DTD/svg11.dtd">
<!-- Generated by graphviz version 2.43.0 (0)
 -->
<!-- Title: Cpl::Io::IsEos Pages: 1 -->
<svg width="758pt" height="543pt"
 viewBox="0.00 0.00 758.00 543.00" xmlns="http://www.w3.org/2000/svg" xmlns:xlink="http://www.w3.org/1999/xlink">
<g id="graph0" class="graph" transform="scale(1 1) rotate(0) translate(4 539)">
<title>Cpl::Io::IsEos</title>
<!-- Node1 -->
<g id="Node000001" class="node">
<title>Node1</title>
<g id="a_Node000001"><a xlink:title="This abstract class defines a isEos() operation that is intended to be used Input and Output streams.">
<polygon fill="#999999" stroke="#666666" points="79,-204 0,-204 0,-185 79,-185 79,-204"/>
<text text-anchor="middle" x="39.5" y="-192" font-family="Helvetica,sans-Serif" font-size="10.00">Cpl::Io::IsEos</text>
</a>
</g>
</g>
<!-- Node2 -->
<g id="Node000002" class="node">
<title>Node2</title>
<g id="a_Node000002"><a xlink:href="class_cpl_1_1_io_1_1_input.html" target="_top" xlink:title="This partially abstract class defines a interface for operating on an input stream (example of a stre...">
<polygon fill="white" stroke="#666666" points="197,-243 119,-243 119,-224 197,-224 197,-243"/>
<text text-anchor="middle" x="158" y="-231" font-family="Helvetica,sans-Serif" font-size="10.00">Cpl::Io::Input</text>
</a>
</g>
</g>
<!-- Node1&#45;&gt;Node2 -->
<g id="edge1_Node000001_Node000002" class="edge">
<title>Node1&#45;&gt;Node2</title>
<g id="a_edge1_Node000001_Node000002"><a xlink:title=" ">
<path fill="none" stroke="#63b8ff" d="M78.72,-207.29C94.9,-212.71 113.42,-218.91 128.39,-223.92"/>
<polygon fill="#63b8ff" stroke="#63b8ff" points="79.59,-203.9 69,-204.04 77.37,-210.53 79.59,-203.9"/>
</a>
</g>
</g>
<!-- Node20 -->
<g id="Node000020" class="node">
<title>Node20</title>
<g id="a_Node000020"><a xlink:href="class_cpl_1_1_io_1_1_output.html" target="_top" xlink:title="This partially abstract class defines a interface for operating on an output stream (example of a str...">
<polygon fill="white" stroke="#666666" points="201,-186 115,-186 115,-167 201,-167 201,-186"/>
<text text-anchor="middle" x="158" y="-174" font-family="Helvetica,sans-Serif" font-size="10.00">Cpl::Io::Output</text>
</a>
</g>
</g>
<!-- Node1&#45;&gt;Node20 -->
<g id="edge19_Node000001_Node000020" class="edge">
<title>Node1&#45;&gt;Node20</title>
<g id="a_edge19_Node000001_Node000020"><a xlink:title=" ">
<path fill="none" stroke="#63b8ff" d="M89.4,-186.95C97.83,-185.64 106.53,-184.3 114.77,-183.02"/>
<polygon fill="#63b8ff" stroke="#63b8ff" points="88.64,-183.52 79.29,-188.51 89.71,-190.44 88.64,-183.52"/>
</a>
</g>
</g>
<!-- Node3 -->
<g id="Node000003" class="node">
<title>Node3</title>
<g id="a_Node000003"><a xlink:href="class_cpl_1_1_io_1_1_file_1_1_input_api.html" target="_top" xlink:title="This abstract class defines the interface for a Random Access Input File.">
<polygon fill="white" stroke="#666666" points="364,-498 247,-498 247,-479 364,-479 364,-498"/>
<text text-anchor="middle" x="305.5" y="-486" font-family="Helvetica,sans-Serif" font-size="10.00">Cpl::Io::File::InputApi</text>
</a>
</g>
</g>
<!-- Node2&#45;&gt;Node3 -->
<g id="edge2_Node000002_Node000003" class="edge">
<title>Node2&#45;&gt;Node3</title>
<g id="a_edge2_Node000002_Node000003"><a xlink:title=" ">
<path fill="none" stroke="#63b8ff" d="M159.49,-253.36C161.72,-298.75 173.7,-410.73 237,-470.5 240.62,-473.91 244.8,-476.7 249.29,-478.96"/>
<polygon fill="#63b8ff" stroke="#63b8ff" points="162.98,-253.19 159.11,-243.33 155.99,-253.46 162.98,-253.19"/>
</a>
</g>
</g>
<!-- Node8 -->
<g id="Node000008" class="node">
<title>Node8</title>
<g id="a_Node000008"><a xlink:href="class_cpl_1_1_io_1_1_input_output.html" target="_top" xlink:title="This abstract class defines a interface for operating on an input&#45;output stream (example of a stream ...">
<polygon fill="white" stroke="#666666" points="361,-253 250,-253 250,-234 361,-234 361,-253"/>
<text text-anchor="middle" x="305.5" y="-241" font-family="Helvetica,sans-Serif" font-size="10.00">Cpl::Io::InputOutput</text>
</a>
</g>
</g>
<!-- Node2&#45;&gt;Node8 -->
<g id="edge7_Node000002_Node000008" class="edge">
<title>Node2&#45;&gt;Node8</title>
<g id="a_edge7_Node000002_Node000008"><a xlink:title=" ">
<path fill="none" stroke="#63b8ff" d="M207.35,-236.82C220.97,-237.76 235.88,-238.78 249.84,-239.74"/>
<polygon fill="#63b8ff" stroke="#63b8ff" points="207.44,-233.32 197.23,-236.13 206.96,-240.3 207.44,-233.32"/>
</a>
</g>
</g>
<!-- Node18 -->
<g id="Node000018" class="node">
<title>Node18</title>
<g id="a_Node000018"><a xlink:href="class_cpl_1_1_io_1_1_stdio_1_1_input__.html" target="_top" xlink:title="This concrete class implements a Input stream using the underlying platform&#39;s native OS &#39;file interfa...">
<polygon fill="white" stroke="#666666" points="362.5,-66 248.5,-66 248.5,-47 362.5,-47 362.5,-66"/>
<text text-anchor="middle" x="305.5" y="-54" font-family="Helvetica,sans-Serif" font-size="10.00">Cpl::Io::Stdio::Input_</text>
</a>
</g>
</g>
<!-- Node2&#45;&gt;Node18 -->
<g id="edge17_Node000002_Node000018" class="edge">
<title>Node2&#45;&gt;Node18</title>
<g id="a_edge17_Node000002_Node000018"><a xlink:title=" ">
<path fill="none" stroke="#63b8ff" d="M181.42,-217.21C188.53,-211.09 195.87,-203.63 201,-195.5 230.74,-148.42 197.29,-114.54 237,-75.5 240.91,-71.66 245.53,-68.58 250.49,-66.12"/>
<polygon fill="#63b8ff" stroke="#63b8ff" points="178.91,-214.73 173.33,-223.73 183.31,-220.18 178.91,-214.73"/>
</a>
</g>
</g>
<!-- Node4 -->
<g id="Node000004" class="node">
<title>Node4</title>
<g id="a_Node000004"><a xlink:href="class_cpl_1_1_io_1_1_file_1_1_input.html" target="_top" xlink:title="This concrete class provides a platform independent &#39;standard&#39; implementation of a Cpl::Io::File::Inp...">
<polygon fill="white" stroke="#666666" points="535.5,-535 434.5,-535 434.5,-516 535.5,-516 535.5,-535"/>
<text text-anchor="middle" x="485" y="-523" font-family="Helvetica,sans-Serif" font-size="10.00">Cpl::Io::File::Input</text>
</a>
</g>
</g>
<!-- Node3&#45;&gt;Node4 -->
<g id="edge3_Node000003_Node000004" class="edge">
<title>Node3&#45;&gt;Node4</title>
<g id="a_edge3_Node000003_Node000004"><a xlink:title=" ">
<path fill="none" stroke="#63b8ff" d="M362.07,-500.08C386.53,-505.18 414.91,-511.1 438.14,-515.94"/>
<polygon fill="#63b8ff" stroke="#63b8ff" points="362.71,-496.64 352.21,-498.03 361.29,-503.5 362.71,-496.64"/>
</a>
</g>
</g>
<!-- Node5 -->
<g id="Node000005" class="node">
<title>Node5</title>
<g id="a_Node000005"><a xlink:href="class_cpl_1_1_io_1_1_file_1_1_input_output_api.html" target="_top" xlink:title="This abstract class defines the interface for a Random Access Input Output File.">
<polygon fill="white" stroke="#666666" points="560,-498 410,-498 410,-479 560,-479 560,-498"/>
<text text-anchor="middle" x="485" y="-486" font-family="Helvetica,sans-Serif" font-size="10.00">Cpl::Io::File::InputOutputApi</text>
</a>
</g>
</g>
<!-- Node3&#45;&gt;Node5 -->
<g id="edge4_Node000003_Node000005" class="edge">
<title>Node3&#45;&gt;Node5</title>
<g id="a_edge4_Node000003_Node000005"><a xlink:title=" ">
<path fill="none" stroke="#63b8ff" d="M374.21,-488.5C385.86,-488.5 398.02,-488.5 409.83,-488.5"/>
<polygon fill="#63b8ff" stroke="#63b8ff" points="374.13,-485 364.13,-488.5 374.13,-492 374.13,-485"/>
</a>
</g>
</g>
<!-- Node6 -->
<g id="Node000006" class="node">
<title>Node6</title>
<g id="a_Node000006"><a xlink:href="class_cpl_1_1_io_1_1_file_1_1_input_output.html" target="_top" xlink:title="This concrete class provides a platform independent &#39;standard&#39; implementation of an InputOutputFileAp...">
<polygon fill="white" stroke="#666666" points="740,-516 606,-516 606,-497 740,-497 740,-516"/>
<text text-anchor="middle" x="673" y="-504" font-family="Helvetica,sans-Serif" font-size="10.00">Cpl::Io::File::InputOutput</text>
</a>
</g>
</g>
<!-- Node5&#45;&gt;Node6 -->
<g id="edge5_Node000005_Node000006" class="edge">
<title>Node5&#45;&gt;Node6</title>
<g id="a_edge5_Node000005_Node000006"><a xlink:title=" ">
<path fill="none" stroke="#63b8ff" d="M570.03,-496.63C582,-497.79 594.17,-498.97 605.73,-500.09"/>
<polygon fill="#63b8ff" stroke="#63b8ff" points="570.34,-493.15 560.05,-495.67 569.66,-500.11 570.34,-493.15"/>
</a>
</g>
</g>
<!-- Node7 -->
<g id="Node000007" class="node">
<title>Node7</title>
<g id="a_Node000007"><a xlink:href="class_cpl_1_1_io_1_1_file_1_1_null.html" target="_top" xlink:title="This concrete class implements a NULL InputOutputApi File that all of its input operations return &#39;En...">
<polygon fill="white" stroke="#666666" points="721,-479 625,-479 625,-460 721,-460 721,-479"/>
<text text-anchor="middle" x="673" y="-467" font-family="Helvetica,sans-Serif" font-size="10.00">Cpl::Io::File::Null</text>
</a>
</g>
</g>
<!-- Node5&#45;&gt;Node7 -->
<g id="edge6_Node000005_Node000007" class="edge">
<title>Node5&#45;&gt;Node7</title>
<g id="a_edge6_Node000005_Node000007"><a xlink:title=" ">
<path fill="none" stroke="#63b8ff" d="M570.13,-479.91C588.96,-477.98 608.27,-476.01 624.95,-474.31"/>
<polygon fill="#63b8ff" stroke="#63b8ff" points="569.64,-476.44 560.05,-480.94 570.35,-483.4 569.64,-476.44"/>
</a>
</g>
</g>
<!-- Node9 -->
<g id="Node000009" class="node">
<title>Node9</title>
<g id="a_Node000009"><a xlink:href="class_cpl_1_1_io_1_1_null.html" target="_top" xlink:title="This concrete class implements a NULL InputOutput stream &#45; that all of its input operations return &#39;E...">
<polygon fill="white" stroke="#666666" points="521.5,-424 448.5,-424 448.5,-405 521.5,-405 521.5,-424"/>
<text text-anchor="middle" x="485" y="-412" font-family="Helvetica,sans-Serif" font-size="10.00">Cpl::Io::Null</text>
</a>
</g>
</g>
<!-- Node8&#45;&gt;Node9 -->
<g id="edge8_Node000008_Node000009" class="edge">
<title>Node8&#45;&gt;Node9</title>
<g id="a_edge8_Node000008_Node000009"><a xlink:title=" ">
<path fill="none" stroke="#63b8ff" d="M313.92,-262.56C327.68,-295.29 360.34,-361.99 410,-396.5 421.18,-404.27 435.35,-408.7 448.28,-411.22"/>
<polygon fill="#63b8ff" stroke="#63b8ff" points="317.13,-261.16 310.12,-253.21 310.64,-263.79 317.13,-261.16"/>
</a>
</g>
</g>
<!-- Node10 -->
<g id="Node000010" class="node">
<title>Node10</title>
<g id="a_Node000010"><a xlink:href="class_cpl_1_1_io_1_1_ram_1_1_input_output.html" target="_top" xlink:title="This concrete class implements an InputOutput stream using a Ring Buffer.">
<polygon fill="white" stroke="#666666" points="555,-387 415,-387 415,-368 555,-368 555,-387"/>
<text text-anchor="middle" x="485" y="-375" font-family="Helvetica,sans-Serif" font-size="10.00">Cpl::Io::Ram::InputOutput</text>
</a>
</g>
</g>
<!-- Node8&#45;&gt;Node10 -->
<g id="edge9_Node000008_Node000010" class="edge">
<title>Node8&#45;&gt;Node10</title>
<g id="a_edge9_Node000008_Node000010"><a xlink:title=" ">
<path fill="none" stroke="#63b8ff" d="M317.79,-261.69C334.65,-287.28 368.87,-333.59 410,-358.5 416.35,-362.35 423.47,-365.42 430.71,-367.88"/>
<polygon fill="#63b8ff" stroke="#63b8ff" points="320.74,-259.79 312.38,-253.27 314.85,-263.58 320.74,-259.79"/>
</a>
</g>
</g>
<!-- Node11 -->
<g id="Node000011" class="node">
<title>Node11</title>
<g id="a_Node000011"><a xlink:href="class_cpl_1_1_io_1_1_serial_1_1_phony_stdio_1_1_input_output.html" target="_top" xlink:title="This concrete class implements the InputOutput stream interface built on top the C Library&#39;s fread/fw...">
<polygon fill="white" stroke="#666666" points="556,-349.5 414,-349.5 414,-319.5 556,-319.5 556,-349.5"/>
<text text-anchor="start" x="422" y="-337.5" font-family="Helvetica,sans-Serif" font-size="10.00">Cpl::Io::Serial::PhonyStdio</text>
<text text-anchor="middle" x="485" y="-326.5" font-family="Helvetica,sans-Serif" font-size="10.00">::InputOutput</text>
</a>
</g>
</g>
<!-- Node8&#45;&gt;Node11 -->
<g id="edge10_Node000008_Node000011" class="edge">
<title>Node8&#45;&gt;Node11</title>
<g id="a_edge10_Node000008_Node000011"><a xlink:title=" ">
<path fill="none" stroke="#63b8ff" d="M327.09,-259.14C347.33,-273.95 379.52,-296 410,-310.5 416.83,-313.75 424.21,-316.73 431.58,-319.39"/>
<polygon fill="#63b8ff" stroke="#63b8ff" points="329.05,-256.24 318.94,-253.1 324.88,-261.86 329.05,-256.24"/>
</a>
</g>
</g>
<!-- Node12 -->
<g id="Node000012" class="node">
<title>Node12</title>
<g id="a_Node000012"><a xlink:href="class_cpl_1_1_io_1_1_serial_1_1_s_t_1_1_m32_f4_1_1_input_output.html" target="_top" xlink:title="This concrete class implements the InputOutput stream interface built on top of ST HAL Layer/SDK.">
<polygon fill="white" stroke="#666666" points="544.5,-301.5 425.5,-301.5 425.5,-271.5 544.5,-271.5 544.5,-301.5"/>
<text text-anchor="start" x="433.5" y="-289.5" font-family="Helvetica,sans-Serif" font-size="10.00">Cpl::Io::Serial::ST</text>
<text text-anchor="middle" x="485" y="-278.5" font-family="Helvetica,sans-Serif" font-size="10.00">::M32F4::InputOutput</text>
</a>
</g>
</g>
<!-- Node8&#45;&gt;Node12 -->
<g id="edge11_Node000008_Node000012" class="edge">
<title>Node8&#45;&gt;Node12</title>
<g id="a_edge11_Node000008_Node000012"><a xlink:title=" ">
<path fill="none" stroke="#63b8ff" d="M355.83,-255.45C377.44,-260.68 402.95,-266.86 425.5,-272.33"/>
<polygon fill="#63b8ff" stroke="#63b8ff" points="356.44,-252 345.89,-253.04 354.79,-258.8 356.44,-252"/>
</a>
</g>
</g>
<!-- Node13 -->
<g id="Node000013" class="node">
<title>Node13</title>
<g id="a_Node000013"><a xlink:href="class_cpl_1_1_io_1_1_socket_1_1_input_output.html" target="_top" xlink:title="This concrete class provides a platform independent &#39;standard&#39; implementation of an InputOutput strea...">
<polygon fill="white" stroke="#666666" points="559.5,-253 410.5,-253 410.5,-234 559.5,-234 559.5,-253"/>
<text text-anchor="middle" x="485" y="-241" font-family="Helvetica,sans-Serif" font-size="10.00">Cpl::Io::Socket::InputOutput</text>
</a>
</g>
</g>
<!-- Node8&#45;&gt;Node13 -->
<g id="edge12_Node000008_Node000013" class="edge">
<title>Node8&#45;&gt;Node13</title>
<g id="a_edge12_Node000008_Node000013"><a xlink:title=" ">
<path fill="none" stroke="#63b8ff" d="M371.57,-243.5C384.14,-243.5 397.39,-243.5 410.21,-243.5"/>
<polygon fill="#63b8ff" stroke="#63b8ff" points="371.2,-240 361.2,-243.5 371.2,-247 371.2,-240"/>
</a>
</g>
</g>
<!-- Node14 -->
<g id="Node000014" class="node">
<title>Node14</title>
<g id="a_Node000014"><a xlink:href="class_cpl_1_1_io_1_1_stdio_1_1_input_output__.html" target="_top" xlink:title="This concrete class implements a Input&#45;Output stream.">
<polygon fill="white" stroke="#666666" points="558.5,-216 411.5,-216 411.5,-197 558.5,-197 558.5,-216"/>
<text text-anchor="middle" x="485" y="-204" font-family="Helvetica,sans-Serif" font-size="10.00">Cpl::Io::Stdio::InputOutput_</text>
</a>
</g>
</g>
<!-- Node8&#45;&gt;Node14 -->
<g id="edge13_Node000008_Node000014" class="edge">
<title>Node8&#45;&gt;Node14</title>
<g id="a_edge13_Node000008_Node000014"><a xlink:title=" ">
<path fill="none" stroke="#63b8ff" d="M362.07,-231.92C386.53,-226.82 414.91,-220.9 438.14,-216.06"/>
<polygon fill="#63b8ff" stroke="#63b8ff" points="361.29,-228.5 352.21,-233.97 362.71,-235.36 361.29,-228.5"/>
</a>
</g>
</g>
<!-- Node15 -->
<g id="Node000015" class="node">
<title>Node15</title>
<g id="a_Node000015"><a xlink:href="class_cpl_1_1_io_1_1_tcp_1_1_input_output.html" target="_top" xlink:title="This concrete class defines a platform independent implementation of an InputOutput stream used by th...">
<polygon fill="white" stroke="#666666" points="551.5,-179 418.5,-179 418.5,-160 551.5,-160 551.5,-179"/>
<text text-anchor="middle" x="485" y="-167" font-family="Helvetica,sans-Serif" font-size="10.00">Cpl::Io::Tcp::InputOutput</text>
</a>
</g>
</g>
<!-- Node8&#45;&gt;Node15 -->
<g id="edge14_Node000008_Node000015" class="edge">
<title>Node8&#45;&gt;Node15</title>
<g id="a_edge14_Node000008_Node000015"><a xlink:title=" ">
<path fill="none" stroke="#63b8ff" d="M330.39,-228.7C350.89,-216.53 381.54,-199.54 410,-188.5 419.4,-184.86 429.74,-181.7 439.63,-179.07"/>
<polygon fill="#63b8ff" stroke="#63b8ff" points="328.49,-225.76 321.73,-233.92 332.11,-231.76 328.49,-225.76"/>
</a>
</g>
</g>
<!-- Node16 -->
<g id="Node000016" class="node">
<title>Node16</title>
<g id="a_Node000016"><a xlink:href="class_cpl_1_1_io_1_1_tcp_1_1_async_connector_1_1_client.html" target="_top" xlink:title="This class defines the callback mechanism used for accepting incoming TCP connections.">
<polygon fill="white" stroke="#666666" points="750,-208.5 596,-208.5 596,-178.5 750,-178.5 750,-208.5"/>
<text text-anchor="start" x="604" y="-196.5" font-family="Helvetica,sans-Serif" font-size="10.00">Cpl::Io::Tcp::AsyncConnector</text>
<text text-anchor="middle" x="673" y="-185.5" font-family="Helvetica,sans-Serif" font-size="10.00">::Client</text>
</a>
</g>
</g>
<!-- Node15&#45;&gt;Node16 -->
<g id="edge15_Node000015_Node000016" class="edge">
<title>Node15&#45;&gt;Node16</title>
<g id="a_edge15_Node000015_Node000016"><a xlink:title=" ">
<path fill="none" stroke="#63b8ff" d="M561.79,-179.28C573.04,-180.73 584.63,-182.23 595.89,-183.68"/>
<polygon fill="#63b8ff" stroke="#63b8ff" points="561.94,-175.77 551.58,-177.96 561.05,-182.71 561.94,-175.77"/>
</a>
</g>
</g>
<!-- Node17 -->
<g id="Node000017" class="node">
<title>Node17</title>
<g id="a_Node000017"><a xlink:href="class_cpl_1_1_io_1_1_tcp_1_1_async_listener_1_1_client.html" target="_top" xlink:title="This class defines the callback mechanism used for accepting incoming TCP connections.">
<polygon fill="white" stroke="#666666" points="744.5,-160.5 601.5,-160.5 601.5,-130.5 744.5,-130.5 744.5,-160.5"/>
<text text-anchor="start" x="609.5" y="-148.5" font-family="Helvetica,sans-Serif" font-size="10.00">Cpl::Io::Tcp::AsyncListener</text>
<text text-anchor="middle" x="673" y="-137.5" font-family="Helvetica,sans-Serif" font-size="10.00">::Client</text>
</a>
</g>
</g>
<!-- Node15&#45;&gt;Node17 -->
<g id="edge16_Node000015_Node000017" class="edge">
<title>Node15&#45;&gt;Node17</title>
<g id="a_edge16_Node000015_Node000017"><a xlink:title=" ">
<path fill="none" stroke="#63b8ff" d="M561.52,-159.76C574.68,-158.06 588.31,-156.3 601.33,-154.62"/>
<polygon fill="#63b8ff" stroke="#63b8ff" points="561.05,-156.29 551.58,-161.04 561.94,-163.23 561.05,-156.29"/>
</a>
</g>
</g>
<!-- Node19 -->
<g id="Node000019" class="node">
<title>Node19</title>
<g id="a_Node000019"><a xlink:href="class_cpl_1_1_io_1_1_stdio_1_1_std_in.html" target="_top" xlink:title="This concrete class represents the C&#45;library &#39;stdin&#39; stream.">
<polygon fill="white" stroke="#666666" points="539.5,-19 430.5,-19 430.5,0 539.5,0 539.5,-19"/>
<text text-anchor="middle" x="485" y="-7" font-family="Helvetica,sans-Serif" font-size="10.00">Cpl::Io::Stdio::StdIn</text>
</a>
</g>
</g>
<!-- Node18&#45;&gt;Node19 -->
<g id="edge18_Node000018_Node000019" class="edge">
<title>Node18&#45;&gt;Node19</title>
<g id="a_edge18_Node000018_Node000019"><a xlink:title=" ">
<path fill="none" stroke="#63b8ff" d="M350.14,-44.2C375.61,-37.03 403.92,-29.09 410,-27.5 420.87,-24.66 432.68,-21.72 443.61,-19.06"/>
<polygon fill="#63b8ff" stroke="#63b8ff" points="348.88,-40.92 340.2,-47 350.77,-47.65 348.88,-40.92"/>
</a>
</g>
</g>
<!-- Node20&#45;&gt;Node8 -->
<g id="edge25_Node000020_Node000008" class="edge">
<title>Node20&#45;&gt;Node8</title>
<g id="a_edge25_Node000020_Node000008"><a xlink:title=" ">
<path fill="none" stroke="#63b8ff" d="M189.25,-190.43C217.51,-203.44 258.97,-222.53 283.69,-233.92"/>
<polygon fill="#63b8ff" stroke="#63b8ff" points="190.39,-187.1 179.85,-186.1 187.47,-193.46 190.39,-187.1"/>
</a>
</g>
</g>
<!-- Node21 -->
<g id="Node000021" class="node">
<title>Node21</title>
<g id="a_Node000021"><a xlink:href="class_cpl_1_1_io_1_1_atomic_output_api.html" target="_top" xlink:title="This abstract template class defines a interface for an Atomic outputs to a stream.">
<polygon fill="white" stroke="#666666" points="374,-151.5 237,-151.5 237,-121.5 374,-121.5 374,-151.5"/>
<text text-anchor="start" x="245" y="-139.5" font-family="Helvetica,sans-Serif" font-size="10.00">Cpl::Io::AtomicOutputApi</text>
<text text-anchor="middle" x="305.5" y="-128.5" font-family="Helvetica,sans-Serif" font-size="10.00">&lt; CONTEXT &gt;</text>
</a>
</g>
</g>
<!-- Node20&#45;&gt;Node21 -->
<g id="edge20_Node000020_Node000021" class="edge">
<title>Node20&#45;&gt;Node21</title>
<g id="a_edge20_Node000020_Node000021"><a xlink:title=" ">
<path fill="none" stroke="#63b8ff" d="M203.62,-164.23C218.19,-160.23 234.54,-155.73 249.76,-151.55"/>
<polygon fill="#63b8ff" stroke="#63b8ff" points="202.57,-160.89 193.85,-166.92 204.42,-167.64 202.57,-160.89"/>
</a>
</g>
</g>
<!-- Node23 -->
<g id="Node000023" class="node">
<title>Node23</title>
<g id="a_Node000023"><a xlink:href="class_cpl_1_1_io_1_1_file_1_1_output_api.html" target="_top" xlink:title="This abstract class defines the interface for a Random Access Input File.">
<polygon fill="white" stroke="#666666" points="368,-461 243,-461 243,-442 368,-442 368,-461"/>
<text text-anchor="middle" x="305.5" y="-449" font-family="Helvetica,sans-Serif" font-size="10.00">Cpl::Io::File::OutputApi</text>
</a>
</g>
</g>
<!-- Node20&#45;&gt;Node23 -->
<g id="edge22_Node000020_Node000023" class="edge">
<title>Node20&#45;&gt;Node23</title>
<g id="a_edge22_Node000020_Node000023"><a xlink:title=" ">
<path fill="none" stroke="#63b8ff" d="M179.75,-192.72C187.13,-199.23 195.07,-207.16 201,-215.5 256.98,-294.27 292.18,-408.13 301.81,-441.78"/>
<polygon fill="#63b8ff" stroke="#63b8ff" points="181.99,-190.03 172.08,-186.27 177.48,-195.39 181.99,-190.03"/>
</a>
</g>
</g>
<!-- Node25 -->
<g id="Node000025" class="node">
<title>Node25</title>
<g id="a_Node000025"><a xlink:href="class_cpl_1_1_io_1_1_stdio_1_1_output__.html" target="_top" xlink:title="This concrete class implements a Output stream using the underlying platform&#39;s native OS &#39;file interf...">
<polygon fill="white" stroke="#666666" points="366.5,-103 244.5,-103 244.5,-84 366.5,-84 366.5,-103"/>
<text text-anchor="middle" x="305.5" y="-91" font-family="Helvetica,sans-Serif" font-size="10.00">Cpl::Io::Stdio::Output_</text>
</a>
</g>
</g>
<!-- Node20&#45;&gt;Node25 -->
<g id="edge26_Node000020_Node000025" class="edge">
<title>Node20&#45;&gt;Node25</title>
<g id="a_edge26_Node000020_Node000025"><a xlink:title=" ">
<path fill="none" stroke="#63b8ff" d="M175.51,-159.46C190.36,-145.03 213.41,-124.8 237,-112.5 244.23,-108.73 252.3,-105.63 260.28,-103.11"/>
<polygon fill="#63b8ff" stroke="#63b8ff" points="172.77,-157.25 168.15,-166.78 177.71,-162.21 172.77,-157.25"/>
</a>
</g>
</g>
<!-- Node28 -->
<g id="Node000028" class="node">
<title>Node28</title>
<g id="a_Node000028"><a xlink:href="class_cpl_1_1_io_1_1_tee_output.html" target="_top" xlink:title="This concrete class implements a Output stream that outputs the data to MANY (or none) output streams...">
<polygon fill="white" stroke="#666666" points="357,-29 254,-29 254,-10 357,-10 357,-29"/>
<text text-anchor="middle" x="305.5" y="-17" font-family="Helvetica,sans-Serif" font-size="10.00">Cpl::Io::TeeOutput</text>
</a>
</g>
</g>
<!-- Node20&#45;&gt;Node28 -->
<g id="edge29_Node000020_Node000028" class="edge">
<title>Node20&#45;&gt;Node28</title>
<g id="a_edge29_Node000020_Node000028"><a xlink:title=" ">
<path fill="none" stroke="#63b8ff" d="M164.58,-156.85C174.21,-126.53 196.89,-68.63 237,-37.5 241.98,-33.63 247.73,-30.59 253.71,-28.21"/>
<polygon fill="#63b8ff" stroke="#63b8ff" points="161.15,-156.08 161.61,-166.66 167.85,-158.1 161.15,-156.08"/>
</a>
</g>
</g>
<!-- Node22 -->
<g id="Node000022" class="node">
<title>Node22</title>
<g id="a_Node000022"><a xlink:href="class_cpl_1_1_io_1_1_atomic_output.html" target="_top" xlink:title="This concrete template class implements the AtomicOutputApi using a mutex to enforce the &#39;atomic&#45;ness...">
<polygon fill="white" stroke="#666666" points="545.5,-141.5 424.5,-141.5 424.5,-111.5 545.5,-111.5 545.5,-141.5"/>
<text text-anchor="start" x="432.5" y="-129.5" font-family="Helvetica,sans-Serif" font-size="10.00">Cpl::Io::AtomicOutput</text>
<text text-anchor="middle" x="485" y="-118.5" font-family="Helvetica,sans-Serif" font-size="10.00">&lt; CONTEXT &gt;</text>
</a>
</g>
</g>
<!-- Node21&#45;&gt;Node22 -->
<g id="edge21_Node000021_Node000022" class="edge">
<title>Node21&#45;&gt;Node22</title>
<g id="a_edge21_Node000021_Node000022"><a xlink:title=" ">
<path fill="none" stroke="#63b8ff" d="M384.31,-132.12C397.76,-131.36 411.55,-130.58 424.42,-129.86"/>
<polygon fill="#63b8ff" stroke="#63b8ff" points="383.9,-128.63 374.11,-132.69 384.29,-135.62 383.9,-128.63"/>
</a>
</g>
</g>
<!-- Node23&#45;&gt;Node5 -->
<g id="edge23_Node000023_Node000005" class="edge">
<title>Node23&#45;&gt;Node5</title>
<g id="a_edge23_Node000023_Node000005"><a xlink:title=" ">
<path fill="none" stroke="#63b8ff" d="M362.07,-463.08C386.53,-468.18 414.91,-474.1 438.14,-478.94"/>
<polygon fill="#63b8ff" stroke="#63b8ff" points="362.71,-459.64 352.21,-461.03 361.29,-466.5 362.71,-459.64"/>
</a>
</g>
</g>
<!-- Node24 -->
<g id="Node000024" class="node">
<title>Node24</title>
<g id="a_Node000024"><a xlink:href="class_cpl_1_1_io_1_1_file_1_1_output.html" target="_top" xlink:title="This concrete class provides a platform independent &#39;standard&#39; implementation of a Cpl::Io::File::Out...">
<polygon fill="white" stroke="#666666" points="540,-461 430,-461 430,-442 540,-442 540,-461"/>
<text text-anchor="middle" x="485" y="-449" font-family="Helvetica,sans-Serif" font-size="10.00">Cpl::Io::File::Output</text>
</a>
</g>
</g>
<!-- Node23&#45;&gt;Node24 -->
<g id="edge24_Node000023_Node000024" class="edge">
<title>Node23&#45;&gt;Node24</title>
<g id="a_edge24_Node000023_Node000024"><a xlink:title=" ">
<path fill="none" stroke="#63b8ff" d="M378.13,-451.5C395.42,-451.5 413.6,-451.5 429.93,-451.5"/>
<polygon fill="#63b8ff" stroke="#63b8ff" points="378.08,-448 368.08,-451.5 378.08,-455 378.08,-448"/>
</a>
</g>
</g>
<!-- Node26 -->
<g id="Node000026" class="node">
<title>Node26</title>
<g id="a_Node000026"><a xlink:href="class_cpl_1_1_io_1_1_stdio_1_1_std_err.html" target="_top" xlink:title="This concrete class represents the C&#45;library &#39;stderr&#39; stream.">
<polygon fill="white" stroke="#666666" points="541.5,-93 428.5,-93 428.5,-74 541.5,-74 541.5,-93"/>
<text text-anchor="middle" x="485" y="-81" font-family="Helvetica,sans-Serif" font-size="10.00">Cpl::Io::Stdio::StdErr</text>
</a>
</g>
</g>
<!-- Node25&#45;&gt;Node26 -->
<g id="edge27_Node000025_Node000026" class="edge">
<title>Node25&#45;&gt;Node26</title>
<g id="a_edge27_Node000025_Node000026"><a xlink:title=" ">
<path fill="none" stroke="#63b8ff" d="M376.6,-89.55C393.82,-88.58 412.02,-87.55 428.45,-86.63"/>
<polygon fill="#63b8ff" stroke="#63b8ff" points="376.38,-86.06 366.59,-90.11 376.77,-93.05 376.38,-86.06"/>
</a>
</g>
</g>
<!-- Node27 -->
<g id="Node000027" class="node">
<title>Node27</title>
<g id="a_Node000027"><a xlink:href="class_cpl_1_1_io_1_1_stdio_1_1_std_out.html" target="_top" xlink:title="This concrete class represents the C&#45;library &#39;stdout&#39; stream.">
<polygon fill="white" stroke="#666666" points="543.5,-56 426.5,-56 426.5,-37 543.5,-37 543.5,-56"/>
<text text-anchor="middle" x="485" y="-44" font-family="Helvetica,sans-Serif" font-size="10.00">Cpl::Io::Stdio::StdOut</text>
</a>
</g>
</g>
<!-- Node25&#45;&gt;Node27 -->
<g id="edge28_Node000025_Node000027" class="edge">
<title>Node25&#45;&gt;Node27</title>
<g id="a_edge28_Node000025_Node000027"><a xlink:title=" ">
<path fill="none" stroke="#63b8ff" d="M352.34,-81.35C359.59,-79.4 367,-77.41 374,-75.5 390.02,-71.14 393.96,-69.79 410,-65.5 421.79,-62.35 434.66,-59.01 446.32,-56.02"/>
<polygon fill="#63b8ff" stroke="#63b8ff" points="351.36,-77.98 342.6,-83.95 353.16,-84.75 351.36,-77.98"/>
</a>
</g>
</g>
</g>
</svg>
