<?xml version="1.0" encoding="UTF-8" standalone="no"?>
<!DOCTYPE svg PUBLIC "-//W3C//DTD SVG 1.1//EN"
 "http://www.w3.org/Graphics/SVG/1.1/DTD/svg11.dtd">
<!-- Generated by graphviz version 2.43.0 (0)
 -->
<!-- Title: Cpl::Container::DList&lt; ITEM &gt; Pages: 1 -->
<svg width="525pt" height="194pt"
 viewBox="0.00 0.00 525.00 194.00" xmlns="http://www.w3.org/2000/svg" xmlns:xlink="http://www.w3.org/1999/xlink">
<g id="graph0" class="graph" transform="scale(1 1) rotate(0) translate(4 190)">
<title>Cpl::Container::DList&lt; ITEM &gt;</title>
<!-- Node1 -->
<g id="Node000001" class="node">
<title>Node1</title>
<g id="a_Node000001"><a xlink:title="This template class implements a Doubly linked list which maintains the ordering imposed on it by the...">
<polygon fill="#999999" stroke="#666666" points="116,-111 0,-111 0,-81 116,-81 116,-111"/>
<text text-anchor="start" x="8" y="-99" font-family="Helvetica,sans-Serif" font-size="10.00">Cpl::Container::DList</text>
<text text-anchor="middle" x="58" y="-88" font-family="Helvetica,sans-Serif" font-size="10.00">&lt; ITEM &gt;</text>
</a>
</g>
</g>
<!-- Node2 -->
<g id="Node000002" class="node">
<title>Node2</title>
<g id="a_Node000002"><a xlink:href="class_cpl_1_1_container_1_1_d_list.html" target="_top" xlink:title=" ">
<polygon fill="white" stroke="#666666" points="500.5,-186 344.5,-186 344.5,-156 500.5,-156 500.5,-186"/>
<text text-anchor="start" x="352.5" y="-174" font-family="Helvetica,sans-Serif" font-size="10.00">Cpl::Container::DList</text>
<text text-anchor="middle" x="422.5" y="-163" font-family="Helvetica,sans-Serif" font-size="10.00">&lt; Cpl::Container::DictItem &gt;</text>
</a>
</g>
</g>
<!-- Node1&#45;&gt;Node2 -->
<g id="edge1_Node000001_Node000002" class="edge">
<title>Node1&#45;&gt;Node2</title>
<g id="a_edge1_Node000001_Node000002"><a xlink:title=" ">
<path fill="none" stroke="orange" stroke-dasharray="5,2" d="M97.55,-115.33C109.04,-120.44 121.82,-125.5 134,-129 203.69,-149.02 285.77,-159.8 344.35,-165.41"/>
<polygon fill="orange" stroke="orange" points="98.79,-112.05 88.24,-111.06 95.87,-118.41 98.79,-112.05"/>
</a>
</g>
<text text-anchor="middle" x="222" y="-163" font-family="Helvetica,sans-Serif" font-size="10.00" fill="grey"> &lt; Cpl::Container::DictItem &gt;</text>
</g>
<!-- Node3 -->
<g id="Node000003" class="node">
<title>Node3</title>
<g id="a_Node000003"><a xlink:href="class_cpl_1_1_container_1_1_d_list.html" target="_top" xlink:title=" ">
<polygon fill="white" stroke="#666666" points="498,-138 347,-138 347,-108 498,-108 498,-138"/>
<text text-anchor="start" x="355" y="-126" font-family="Helvetica,sans-Serif" font-size="10.00">Cpl::Container::DList</text>
<text text-anchor="middle" x="422.5" y="-115" font-family="Helvetica,sans-Serif" font-size="10.00">&lt; Cpl::Dm::SubscriberApi &gt;</text>
</a>
</g>
</g>
<!-- Node1&#45;&gt;Node3 -->
<g id="edge2_Node000001_Node000003" class="edge">
<title>Node1&#45;&gt;Node3</title>
<g id="a_edge2_Node000001_Node000003"><a xlink:title=" ">
<path fill="none" stroke="orange" stroke-dasharray="5,2" d="M126.2,-101.01C188.81,-105.67 282,-112.61 346.89,-117.44"/>
<polygon fill="orange" stroke="orange" points="126.27,-97.5 116.04,-100.25 125.75,-104.48 126.27,-97.5"/>
</a>
</g>
<text text-anchor="middle" x="222" y="-117" font-family="Helvetica,sans-Serif" font-size="10.00" fill="grey"> &lt; Cpl::Dm::SubscriberApi &gt;</text>
</g>
<!-- Node4 -->
<g id="Node000004" class="node">
<title>Node4</title>
<g id="a_Node000004"><a xlink:href="class_cpl_1_1_container_1_1_d_list.html" target="_top" xlink:title=" ">
<polygon fill="white" stroke="#666666" points="483.5,-89.5 361.5,-89.5 361.5,-48.5 483.5,-48.5 483.5,-89.5"/>
<text text-anchor="start" x="369.5" y="-77.5" font-family="Helvetica,sans-Serif" font-size="10.00">Cpl::Container::DList</text>
<text text-anchor="start" x="369.5" y="-66.5" font-family="Helvetica,sans-Serif" font-size="10.00">&lt; Cpl::Memory::Pool_</text>
<text text-anchor="middle" x="422.5" y="-55.5" font-family="Helvetica,sans-Serif" font-size="10.00">::BlockInfo_ &gt;</text>
</a>
</g>
</g>
<!-- Node1&#45;&gt;Node4 -->
<g id="edge3_Node000001_Node000004" class="edge">
<title>Node1&#45;&gt;Node4</title>
<g id="a_edge3_Node000001_Node000004"><a xlink:title=" ">
<path fill="none" stroke="orange" stroke-dasharray="5,2" d="M115.92,-78.46C121.98,-77.07 128.09,-75.88 134,-75 211.91,-63.47 302.97,-63.87 361.39,-65.88"/>
<polygon fill="orange" stroke="orange" points="114.69,-75.16 105.82,-80.94 116.36,-81.95 114.69,-75.16"/>
</a>
</g>
<text text-anchor="start" x="170.5" y="-89" font-family="Helvetica,sans-Serif" font-size="10.00" fill="grey"> &lt; Cpl::Memory::Pool</text>
<text text-anchor="middle" x="222" y="-78" font-family="Helvetica,sans-Serif" font-size="10.00" fill="grey">_::BlockInfo_ &gt;</text>
</g>
<!-- Node5 -->
<g id="Node000005" class="node">
<title>Node5</title>
<g id="a_Node000005"><a xlink:href="class_cpl_1_1_container_1_1_d_list.html" target="_top" xlink:title=" ">
<polygon fill="white" stroke="#666666" points="517,-30 328,-30 328,0 517,0 517,-30"/>
<text text-anchor="start" x="336" y="-18" font-family="Helvetica,sans-Serif" font-size="10.00">Cpl::Container::DList</text>
<text text-anchor="middle" x="422.5" y="-7" font-family="Helvetica,sans-Serif" font-size="10.00">&lt; Cpl::System::CounterCallback_ &gt;</text>
</a>
</g>
</g>
<!-- Node1&#45;&gt;Node5 -->
<g id="edge4_Node000001_Node000005" class="edge">
<title>Node1&#45;&gt;Node5</title>
<g id="a_edge4_Node000001_Node000005"><a xlink:title=" ">
<path fill="none" stroke="orange" stroke-dasharray="5,2" d="M86.22,-74.84C99.83,-65.36 117,-54.99 134,-49 196.34,-27.04 270.49,-18.67 327.88,-15.72"/>
<polygon fill="orange" stroke="orange" points="83.89,-72.2 77.82,-80.88 87.98,-77.88 83.89,-72.2"/>
</a>
</g>
<text text-anchor="middle" x="222" y="-52" font-family="Helvetica,sans-Serif" font-size="10.00" fill="grey"> &lt; Cpl::System::CounterCallback_ &gt;</text>
</g>
</g>
</svg>
