<?xml version="1.0" encoding="UTF-8" standalone="no"?>
<!DOCTYPE svg PUBLIC "-//W3C//DTD SVG 1.1//EN"
 "http://www.w3.org/Graphics/SVG/1.1/DTD/svg11.dtd">
<!-- Generated by graphviz version 2.43.0 (0)
 -->
<!-- Title: Driver::LED::TPipe::RedGreeBlue Pages: 1 -->
<svg width="272pt" height="104pt"
 viewBox="0.00 0.00 271.50 104.00" xmlns="http://www.w3.org/2000/svg" xmlns:xlink="http://www.w3.org/1999/xlink">
<g id="graph0" class="graph" transform="scale(1 1) rotate(0) translate(4 100)">
<title>Driver::LED::TPipe::RedGreeBlue</title>
<!-- Node1 -->
<g id="Node000001" class="node">
<title>Node1</title>
<g id="a_Node000001"><a xlink:title="This concrete class implements the Red&#45;Green&#45;Blue LED interface by sending the LED state over the TPi...">
<polygon fill="#999999" stroke="#666666" points="195.5,-30 91.5,-30 91.5,0 195.5,0 195.5,-30"/>
<text text-anchor="start" x="99.5" y="-18" font-family="Helvetica,sans-Serif" font-size="10.00">Driver::LED::TPipe</text>
<text text-anchor="middle" x="143.5" y="-7" font-family="Helvetica,sans-Serif" font-size="10.00">::RedGreeBlue</text>
</a>
</g>
</g>
<!-- Node2 -->
<g id="Node000002" class="node">
<title>Node2</title>
<g id="a_Node000002"><a xlink:href="class_driver_1_1_l_e_d_1_1_red_green_blue.html" target="_top" xlink:title="This abstract class defines a basic interface for a single Red&#45;Green&#45;Blue LED where the application c...">
<polygon fill="white" stroke="#666666" points="147,-96 0,-96 0,-77 147,-77 147,-96"/>
<text text-anchor="middle" x="73.5" y="-84" font-family="Helvetica,sans-Serif" font-size="10.00">Driver::LED::RedGreenBlue</text>
</a>
</g>
</g>
<!-- Node2&#45;&gt;Node1 -->
<g id="edge1_Node000001_Node000002" class="edge">
<title>Node2&#45;&gt;Node1</title>
<g id="a_edge1_Node000001_Node000002"><a xlink:title=" ">
<path fill="none" stroke="#63b8ff" d="M89.24,-69.87C101.25,-57.95 117.64,-41.67 129.26,-30.14"/>
<polygon fill="#63b8ff" stroke="#63b8ff" points="86.71,-67.45 82.08,-76.98 91.65,-72.42 86.71,-67.45"/>
</a>
</g>
</g>
<!-- Node3 -->
<g id="Node000003" class="node">
<title>Node3</title>
<g id="a_Node000003"><a xlink:href="class_driver_1_1_t_pipe_1_1_tx.html" target="_top" xlink:title="This abstract class defines the &#39;Transmit Command&#39; interface for the TPipe.">
<polygon fill="white" stroke="#666666" points="263.5,-96 165.5,-96 165.5,-77 263.5,-77 263.5,-96"/>
<text text-anchor="middle" x="214.5" y="-84" font-family="Helvetica,sans-Serif" font-size="10.00">Driver::TPipe::Tx</text>
</a>
</g>
</g>
<!-- Node3&#45;&gt;Node1 -->
<g id="edge2_Node000001_Node000003" class="edge">
<title>Node3&#45;&gt;Node1</title>
<g id="a_edge2_Node000001_Node000003"><a xlink:title=" ">
<path fill="none" stroke="#9a32cd" stroke-dasharray="5,2" d="M198.53,-69.87C186.35,-57.95 169.72,-41.67 157.94,-30.14"/>
<polygon fill="#9a32cd" stroke="#9a32cd" points="196.2,-72.48 205.79,-76.98 201.1,-67.48 196.2,-72.48"/>
</a>
</g>
<text text-anchor="middle" x="206" y="-51" font-family="Helvetica,sans-Serif" font-size="10.00" fill="grey"> m_tpipe</text>
</g>
</g>
</svg>
