<?xml version="1.0" encoding="UTF-8" standalone="no"?>
<!DOCTYPE svg PUBLIC "-//W3C//DTD SVG 1.1//EN"
 "http://www.w3.org/Graphics/SVG/1.1/DTD/svg11.dtd">
<!-- Generated by graphviz version 2.43.0 (0)
 -->
<!-- Title: Cpl::MApp::Manager Pages: 1 -->
<svg width="650pt" height="327pt"
 viewBox="0.00 0.00 650.00 327.00" xmlns="http://www.w3.org/2000/svg" xmlns:xlink="http://www.w3.org/1999/xlink">
<g id="graph0" class="graph" transform="scale(1 1) rotate(0) translate(4 323)">
<title>Cpl::MApp::Manager</title>
<!-- Node1 -->
<g id="Node000001" class="node">
<title>Node1</title>
<g id="a_Node000001"><a xlink:title="This concrete class implements the MApp Manager.">
<polygon fill="#999999" stroke="#666666" points="642,-171 527,-171 527,-152 642,-152 642,-171"/>
<text text-anchor="middle" x="584.5" y="-159" font-family="Helvetica,sans-Serif" font-size="10.00">Cpl::MApp::Manager</text>
</a>
</g>
</g>
<!-- Node2 -->
<g id="Node000002" class="node">
<title>Node2</title>
<g id="a_Node000002"><a xlink:href="class_cpl_1_1_m_app_1_1_manager_api.html" target="_top" xlink:title="This abstract class defines the &quot;manager&quot; interface to for starting, stopping, etc.">
<polygon fill="white" stroke="#666666" points="469.5,-301 338.5,-301 338.5,-282 469.5,-282 469.5,-301"/>
<text text-anchor="middle" x="404" y="-289" font-family="Helvetica,sans-Serif" font-size="10.00">Cpl::MApp::ManagerApi</text>
</a>
</g>
</g>
<!-- Node2&#45;&gt;Node1 -->
<g id="edge1_Node000001_Node000002" class="edge">
<title>Node2&#45;&gt;Node1</title>
<g id="a_edge1_Node000001_Node000002"><a xlink:title=" ">
<path fill="none" stroke="#63b8ff" d="M479.38,-278.45C483.42,-276.71 487.33,-274.74 491,-272.5 534.07,-246.29 566.53,-192.81 578.49,-171.04"/>
<polygon fill="#63b8ff" stroke="#63b8ff" points="477.86,-275.29 469.75,-282.11 480.34,-281.83 477.86,-275.29"/>
</a>
</g>
</g>
<!-- Node3 -->
<g id="Node000003" class="node">
<title>Node3</title>
<g id="a_Node000003"><a xlink:href="class_cpl_1_1_itc_1_1_close_sync.html" target="_top" xlink:title="This partially concrete class implements the synchronous ITC close call for the CloseApi.">
<polygon fill="white" stroke="#666666" points="457.5,-264 350.5,-264 350.5,-245 457.5,-245 457.5,-264"/>
<text text-anchor="middle" x="404" y="-252" font-family="Helvetica,sans-Serif" font-size="10.00">Cpl::Itc::CloseSync</text>
</a>
</g>
</g>
<!-- Node3&#45;&gt;Node1 -->
<g id="edge2_Node000001_Node000003" class="edge">
<title>Node3&#45;&gt;Node1</title>
<g id="a_edge2_Node000001_Node000003"><a xlink:title=" ">
<path fill="none" stroke="#63b8ff" d="M467.53,-244.24C475.62,-241.89 483.64,-239.02 491,-235.5 525.69,-218.91 559.06,-187.07 574.52,-171.11"/>
<polygon fill="#63b8ff" stroke="#63b8ff" points="466.44,-240.91 457.67,-246.86 468.23,-247.68 466.44,-240.91"/>
</a>
</g>
</g>
<!-- Node4 -->
<g id="Node000004" class="node">
<title>Node4</title>
<g id="a_Node000004"><a xlink:href="class_cpl_1_1_itc_1_1_open_sync.html" target="_top" xlink:title="This partially concrete class implements the synchronous ITC open call for the OpenApi.">
<polygon fill="white" stroke="#666666" points="272,-301 167,-301 167,-282 272,-282 272,-301"/>
<text text-anchor="middle" x="219.5" y="-289" font-family="Helvetica,sans-Serif" font-size="10.00">Cpl::Itc::OpenSync</text>
</a>
</g>
</g>
<!-- Node4&#45;&gt;Node3 -->
<g id="edge3_Node000003_Node000004" class="edge">
<title>Node4&#45;&gt;Node3</title>
<g id="a_edge3_Node000003_Node000004"><a xlink:title=" ">
<path fill="none" stroke="#63b8ff" d="M277.3,-279.98C302.52,-274.87 331.86,-268.92 355.84,-264.06"/>
<polygon fill="#63b8ff" stroke="#63b8ff" points="276.6,-276.55 267.5,-281.97 277.99,-283.41 276.6,-276.55"/>
</a>
</g>
</g>
<!-- Node5 -->
<g id="Node000005" class="node">
<title>Node5</title>
<g id="a_Node000005"><a xlink:href="class_cpl_1_1_itc_1_1_open_api.html" target="_top" xlink:title="This abstract class defines an open interface.">
<polygon fill="white" stroke="#666666" points="110,-319 12,-319 12,-300 110,-300 110,-319"/>
<text text-anchor="middle" x="61" y="-307" font-family="Helvetica,sans-Serif" font-size="10.00">Cpl::Itc::OpenApi</text>
</a>
</g>
</g>
<!-- Node5&#45;&gt;Node4 -->
<g id="edge4_Node000004_Node000005" class="edge">
<title>Node5&#45;&gt;Node4</title>
<g id="a_edge4_Node000004_Node000005"><a xlink:title=" ">
<path fill="none" stroke="#63b8ff" d="M120.57,-302.76C135.79,-301.01 152.07,-299.14 166.9,-297.44"/>
<polygon fill="#63b8ff" stroke="#63b8ff" points="119.77,-299.33 110.23,-303.95 120.57,-306.29 119.77,-299.33"/>
</a>
</g>
</g>
<!-- Node6 -->
<g id="Node000006" class="node">
<title>Node6</title>
<g id="a_Node000006"><a xlink:href="class_cpl_1_1_itc_1_1_open_request.html" target="_top" xlink:title="This abstract class define message types and payloads for a set of ITC services.">
<polygon fill="white" stroke="#666666" points="122,-282 0,-282 0,-263 122,-263 122,-282"/>
<text text-anchor="middle" x="61" y="-270" font-family="Helvetica,sans-Serif" font-size="10.00">Cpl::Itc::OpenRequest</text>
</a>
</g>
</g>
<!-- Node6&#45;&gt;Node4 -->
<g id="edge5_Node000004_Node000006" class="edge">
<title>Node6&#45;&gt;Node4</title>
<g id="a_edge5_Node000004_Node000006"><a xlink:title=" ">
<path fill="none" stroke="#63b8ff" d="M132.19,-281.02C143.82,-282.43 155.69,-283.87 166.76,-285.22"/>
<polygon fill="#63b8ff" stroke="#63b8ff" points="132.41,-277.52 122.06,-279.79 131.56,-284.47 132.41,-277.52"/>
</a>
</g>
</g>
<!-- Node7 -->
<g id="Node000007" class="node">
<title>Node7</title>
<g id="a_Node000007"><a xlink:href="class_cpl_1_1_itc_1_1_close_api.html" target="_top" xlink:title="This abstract class defines an close interface.">
<polygon fill="white" stroke="#666666" points="269,-264 170,-264 170,-245 269,-245 269,-264"/>
<text text-anchor="middle" x="219.5" y="-252" font-family="Helvetica,sans-Serif" font-size="10.00">Cpl::Itc::CloseApi</text>
</a>
</g>
</g>
<!-- Node7&#45;&gt;Node3 -->
<g id="edge6_Node000003_Node000007" class="edge">
<title>Node7&#45;&gt;Node3</title>
<g id="a_edge6_Node000003_Node000007"><a xlink:title=" ">
<path fill="none" stroke="#63b8ff" d="M279.64,-254.5C302.44,-254.5 328.3,-254.5 350.44,-254.5"/>
<polygon fill="#63b8ff" stroke="#63b8ff" points="279.41,-251 269.41,-254.5 279.41,-258 279.41,-251"/>
</a>
</g>
</g>
<!-- Node8 -->
<g id="Node000008" class="node">
<title>Node8</title>
<g id="a_Node000008"><a xlink:href="class_cpl_1_1_itc_1_1_close_request.html" target="_top" xlink:title="This abstract class define message types and payloads for a set of ITC services.">
<polygon fill="white" stroke="#666666" points="281,-227 158,-227 158,-208 281,-208 281,-227"/>
<text text-anchor="middle" x="219.5" y="-215" font-family="Helvetica,sans-Serif" font-size="10.00">Cpl::Itc::CloseRequest</text>
</a>
</g>
</g>
<!-- Node8&#45;&gt;Node3 -->
<g id="edge7_Node000003_Node000008" class="edge">
<title>Node8&#45;&gt;Node3</title>
<g id="a_edge7_Node000003_Node000008"><a xlink:title=" ">
<path fill="none" stroke="#63b8ff" d="M277.3,-229.02C302.52,-234.13 331.86,-240.08 355.84,-244.94"/>
<polygon fill="#63b8ff" stroke="#63b8ff" points="277.99,-225.59 267.5,-227.03 276.6,-232.45 277.99,-225.59"/>
</a>
</g>
</g>
<!-- Node9 -->
<g id="Node000009" class="node">
<title>Node9</title>
<g id="a_Node000009"><a xlink:href="class_cpl_1_1_m_app_1_1_start_m_app_request.html" target="_top" xlink:title="This abstract class define ITC message type and payload for the application to start a MApp.">
<polygon fill="white" stroke="#666666" points="485.5,-227 322.5,-227 322.5,-208 485.5,-208 485.5,-227"/>
<text text-anchor="middle" x="404" y="-215" font-family="Helvetica,sans-Serif" font-size="10.00">Cpl::MApp::StartMAppRequest</text>
</a>
</g>
</g>
<!-- Node9&#45;&gt;Node1 -->
<g id="edge8_Node000001_Node000009" class="edge">
<title>Node9&#45;&gt;Node1</title>
<g id="a_edge8_Node000001_Node000009"><a xlink:title=" ">
<path fill="none" stroke="#63b8ff" d="M464.83,-205.6C473.66,-203.47 482.61,-201.09 491,-198.5 516.12,-190.76 544.02,-179.16 562.54,-171.02"/>
<polygon fill="#63b8ff" stroke="#63b8ff" points="463.87,-202.23 454.93,-207.91 465.46,-209.05 463.87,-202.23"/>
</a>
</g>
</g>
<!-- Node10 -->
<g id="Node000010" class="node">
<title>Node10</title>
<g id="a_Node000010"><a xlink:href="class_cpl_1_1_m_app_1_1_stop_m_app_request.html" target="_top" xlink:title="This abstract class define ITC message type and payload for the application to stop the current MApp.">
<polygon fill="white" stroke="#666666" points="484.5,-190 323.5,-190 323.5,-171 484.5,-171 484.5,-190"/>
<text text-anchor="middle" x="404" y="-178" font-family="Helvetica,sans-Serif" font-size="10.00">Cpl::MApp::StopMAppRequest</text>
</a>
</g>
</g>
<!-- Node10&#45;&gt;Node1 -->
<g id="edge9_Node000001_Node000010" class="edge">
<title>Node10&#45;&gt;Node1</title>
<g id="a_edge9_Node000001_Node000010"><a xlink:title=" ">
<path fill="none" stroke="#63b8ff" d="M494.63,-170.96C505.58,-169.79 516.52,-168.63 526.79,-167.54"/>
<polygon fill="#63b8ff" stroke="#63b8ff" points="494.17,-167.49 484.59,-172.03 494.91,-174.45 494.17,-167.49"/>
</a>
</g>
</g>
<!-- Node11 -->
<g id="Node000011" class="node">
<title>Node11</title>
<g id="a_Node000011"><a xlink:href="class_cpl_1_1_m_app_1_1_stop_all_m_app_request.html" target="_top" xlink:title="This abstract class define ITC message type and payload for the application to stop the current MApp.">
<polygon fill="white" stroke="#666666" points="491,-153 317,-153 317,-134 491,-134 491,-153"/>
<text text-anchor="middle" x="404" y="-141" font-family="Helvetica,sans-Serif" font-size="10.00">Cpl::MApp::StopAllMAppRequest</text>
</a>
</g>
</g>
<!-- Node11&#45;&gt;Node1 -->
<g id="edge10_Node000001_Node000011" class="edge">
<title>Node11&#45;&gt;Node1</title>
<g id="a_edge10_Node000001_Node000011"><a xlink:title=" ">
<path fill="none" stroke="#63b8ff" d="M501.34,-153.22C510.04,-154.09 518.64,-154.96 526.82,-155.78"/>
<polygon fill="#63b8ff" stroke="#63b8ff" points="501.41,-149.7 491.11,-152.18 500.71,-156.67 501.41,-149.7"/>
</a>
</g>
</g>
<!-- Node12 -->
<g id="Node000012" class="node">
<title>Node12</title>
<g id="a_Node000012"><a xlink:href="class_cpl_1_1_m_app_1_1_get_available_m_app_request.html" target="_top" xlink:title="This abstract class define ITC message type and payload for the application to get list of all of the...">
<polygon fill="white" stroke="#666666" points="485,-115.5 323,-115.5 323,-85.5 485,-85.5 485,-115.5"/>
<text text-anchor="start" x="331" y="-103.5" font-family="Helvetica,sans-Serif" font-size="10.00">Cpl::MApp::GetAvailableMApp</text>
<text text-anchor="middle" x="404" y="-92.5" font-family="Helvetica,sans-Serif" font-size="10.00">Request</text>
</a>
</g>
</g>
<!-- Node12&#45;&gt;Node1 -->
<g id="edge11_Node000001_Node000012" class="edge">
<title>Node12&#45;&gt;Node1</title>
<g id="a_edge11_Node000001_Node000012"><a xlink:title=" ">
<path fill="none" stroke="#63b8ff" d="M472.19,-118.49C478.58,-120.43 484.93,-122.45 491,-124.5 515.41,-132.76 542.74,-143.94 561.32,-151.84"/>
<polygon fill="#63b8ff" stroke="#63b8ff" points="472.75,-115.01 462.17,-115.52 470.76,-121.72 472.75,-115.01"/>
</a>
</g>
</g>
<!-- Node13 -->
<g id="Node000013" class="node">
<title>Node13</title>
<g id="a_Node000013"><a xlink:href="class_cpl_1_1_m_app_1_1_get_started_m_app_request.html" target="_top" xlink:title="This abstract class define ITC message type and payload for the application to Get a list of started ...">
<polygon fill="white" stroke="#666666" points="480,-67.5 328,-67.5 328,-37.5 480,-37.5 480,-67.5"/>
<text text-anchor="start" x="336" y="-55.5" font-family="Helvetica,sans-Serif" font-size="10.00">Cpl::MApp::GetStartedMApp</text>
<text text-anchor="middle" x="404" y="-44.5" font-family="Helvetica,sans-Serif" font-size="10.00">Request</text>
</a>
</g>
</g>
<!-- Node13&#45;&gt;Node1 -->
<g id="edge12_Node000001_Node000013" class="edge">
<title>Node13&#45;&gt;Node1</title>
<g id="a_edge12_Node000001_Node000013"><a xlink:title=" ">
<path fill="none" stroke="#63b8ff" d="M480.9,-71.47C484.38,-73.02 487.76,-74.7 491,-76.5 527.4,-96.75 560.98,-134.1 575.68,-151.76"/>
<polygon fill="#63b8ff" stroke="#63b8ff" points="482.12,-68.18 471.54,-67.63 479.46,-74.66 482.12,-68.18"/>
</a>
</g>
</g>
<!-- Node14 -->
<g id="Node000014" class="node">
<title>Node14</title>
<g id="a_Node000014"><a xlink:href="class_cpl_1_1_m_app_1_1_lookup_m_app_request.html" target="_top" xlink:title="This abstract class define ITC message type and payload for the application to look&#45;up a MApp by name...">
<polygon fill="white" stroke="#666666" points="491,-19 317,-19 317,0 491,0 491,-19"/>
<text text-anchor="middle" x="404" y="-7" font-family="Helvetica,sans-Serif" font-size="10.00">Cpl::MApp::LookupMAppRequest</text>
</a>
</g>
</g>
<!-- Node14&#45;&gt;Node1 -->
<g id="edge13_Node000001_Node000014" class="edge">
<title>Node14&#45;&gt;Node1</title>
<g id="a_edge13_Node000001_Node000014"><a xlink:title=" ">
<path fill="none" stroke="#63b8ff" d="M481.7,-23.16C484.93,-24.75 488.05,-26.53 491,-28.5 539.14,-60.75 569.7,-127.22 579.8,-151.95"/>
<polygon fill="#63b8ff" stroke="#63b8ff" points="482.88,-19.86 472.31,-19.14 480.13,-26.3 482.88,-19.86"/>
</a>
</g>
</g>
</g>
</svg>
