<?xml version="1.0" encoding="UTF-8" standalone="no"?>
<!DOCTYPE svg PUBLIC "-//W3C//DTD SVG 1.1//EN"
 "http://www.w3.org/Graphics/SVG/1.1/DTD/svg11.dtd">
<!-- Generated by graphviz version 2.43.0 (0)
 -->
<!-- Title: Cpl::Io::LineReader Pages: 1 -->
<svg width="276pt" height="223pt"
 viewBox="0.00 0.00 275.50 223.00" xmlns="http://www.w3.org/2000/svg" xmlns:xlink="http://www.w3.org/1999/xlink">
<g id="graph0" class="graph" transform="scale(1 1) rotate(0) translate(4 219)">
<title>Cpl::Io::LineReader</title>
<!-- Node1 -->
<g id="Node000001" class="node">
<title>Node1</title>
<g id="a_Node000001"><a xlink:title="This concrete class implements a Line Reader stream using a previously opened Input stream.">
<polygon fill="#999999" stroke="#666666" points="137,-19 29,-19 29,0 137,0 137,-19"/>
<text text-anchor="middle" x="83" y="-7" font-family="Helvetica,sans-Serif" font-size="10.00">Cpl::Io::LineReader</text>
</a>
</g>
</g>
<!-- Node2 -->
<g id="Node000002" class="node">
<title>Node2</title>
<g id="a_Node000002"><a xlink:href="class_cpl_1_1_io_1_1_line_reader_api.html" target="_top" xlink:title="This abstract class defines a interface for a stream line reader.">
<polygon fill="white" stroke="#666666" points="124,-122 0,-122 0,-103 124,-103 124,-122"/>
<text text-anchor="middle" x="62" y="-110" font-family="Helvetica,sans-Serif" font-size="10.00">Cpl::Io::LineReaderApi</text>
</a>
</g>
</g>
<!-- Node2&#45;&gt;Node1 -->
<g id="edge1_Node000001_Node000002" class="edge">
<title>Node2&#45;&gt;Node1</title>
<g id="a_edge1_Node000001_Node000002"><a xlink:title=" ">
<path fill="none" stroke="#63b8ff" d="M65.89,-92.81C70.45,-70.84 77.84,-35.32 81.21,-19.09"/>
<polygon fill="#63b8ff" stroke="#63b8ff" points="62.4,-92.39 63.79,-102.89 69.25,-93.81 62.4,-92.39"/>
</a>
</g>
</g>
<!-- Node3 -->
<g id="Node000003" class="node">
<title>Node3</title>
<g id="a_Node000003"><a xlink:href="class_cpl_1_1_container_1_1_item.html" target="_top" xlink:title="This class is used by the Container classes to implement a various types of singly linked containers.">
<polygon fill="white" stroke="#666666" points="131,-215 17,-215 17,-196 131,-196 131,-215"/>
<text text-anchor="middle" x="74" y="-203" font-family="Helvetica,sans-Serif" font-size="10.00">Cpl::Container::Item</text>
</a>
</g>
</g>
<!-- Node3&#45;&gt;Node2 -->
<g id="edge2_Node000002_Node000003" class="edge">
<title>Node3&#45;&gt;Node2</title>
<g id="a_edge2_Node000002_Node000003"><a xlink:title=" ">
<path fill="none" stroke="#63b8ff" d="M71.51,-185.64C68.94,-166.13 65.04,-136.53 63.13,-122.07"/>
<polygon fill="#63b8ff" stroke="#63b8ff" points="68.07,-186.32 72.85,-195.77 75.01,-185.4 68.07,-186.32"/>
</a>
</g>
</g>
<!-- Node5 -->
<g id="Node000005" class="node">
<title>Node5</title>
<g id="a_Node000005"><a xlink:href="class_cpl_1_1_io_1_1_close.html" target="_top" xlink:title="This abstract class defines a close operation that is intended to be used Input and Output streams/fi...">
<polygon fill="white" stroke="#666666" points="170,-159 90,-159 90,-140 170,-140 170,-159"/>
<text text-anchor="middle" x="130" y="-147" font-family="Helvetica,sans-Serif" font-size="10.00">Cpl::Io::Close</text>
</a>
</g>
</g>
<!-- Node3&#45;&gt;Node5 -->
<g id="edge5_Node000005_Node000003" class="edge">
<title>Node3&#45;&gt;Node5</title>
<g id="a_edge5_Node000005_Node000003"><a xlink:title=" ">
<path fill="none" stroke="#63b8ff" d="M90.33,-188.75C100.26,-179.17 112.59,-167.29 120.84,-159.33"/>
<polygon fill="#63b8ff" stroke="#63b8ff" points="87.77,-186.36 83,-195.82 92.63,-191.4 87.77,-186.36"/>
</a>
</g>
</g>
<!-- Node4 -->
<g id="Node000004" class="node">
<title>Node4</title>
<g id="a_Node000004"><a xlink:href="class_cpl_1_1_io_1_1_input.html" target="_top" xlink:title="This partially abstract class defines a interface for operating on an input stream (example of a stre...">
<polygon fill="white" stroke="#666666" points="178,-85 100,-85 100,-66 178,-66 178,-85"/>
<text text-anchor="middle" x="139" y="-73" font-family="Helvetica,sans-Serif" font-size="10.00">Cpl::Io::Input</text>
</a>
</g>
</g>
<!-- Node4&#45;&gt;Node1 -->
<g id="edge3_Node000001_Node000004" class="edge">
<title>Node4&#45;&gt;Node1</title>
<g id="a_edge3_Node000001_Node000004"><a xlink:title=" ">
<path fill="none" stroke="#9a32cd" stroke-dasharray="5,2" d="M124.67,-58.12C113.89,-45.81 99.53,-29.39 90.79,-19.41"/>
<polygon fill="#9a32cd" stroke="#9a32cd" points="122.23,-60.65 131.45,-65.87 127.5,-56.04 122.23,-60.65"/>
</a>
</g>
<text text-anchor="middle" x="141.5" y="-40" font-family="Helvetica,sans-Serif" font-size="10.00" fill="grey"> m_stream</text>
</g>
<!-- Node5&#45;&gt;Node4 -->
<g id="edge4_Node000004_Node000005" class="edge">
<title>Node5&#45;&gt;Node4</title>
<g id="a_edge4_Node000004_Node000005"><a xlink:title=" ">
<path fill="none" stroke="#63b8ff" d="M132.36,-129.66C134.16,-115.21 136.57,-95.96 137.93,-85.03"/>
<polygon fill="#63b8ff" stroke="#63b8ff" points="128.84,-129.6 131.07,-139.96 135.78,-130.47 128.84,-129.6"/>
</a>
</g>
</g>
<!-- Node6 -->
<g id="Node000006" class="node">
<title>Node6</title>
<g id="a_Node000006"><a xlink:href="class_cpl_1_1_io_1_1_is_eos.html" target="_top" xlink:title="This abstract class defines a isEos() operation that is intended to be used Input and Output streams.">
<polygon fill="white" stroke="#666666" points="267.5,-159 188.5,-159 188.5,-140 267.5,-140 267.5,-159"/>
<text text-anchor="middle" x="228" y="-147" font-family="Helvetica,sans-Serif" font-size="10.00">Cpl::Io::IsEos</text>
</a>
</g>
</g>
<!-- Node6&#45;&gt;Node4 -->
<g id="edge6_Node000004_Node000006" class="edge">
<title>Node6&#45;&gt;Node4</title>
<g id="a_edge6_Node000004_Node000006"><a xlink:title=" ">
<path fill="none" stroke="#63b8ff" d="M209.33,-133.39C191.18,-118.71 164.26,-96.93 149.55,-85.03"/>
<polygon fill="#63b8ff" stroke="#63b8ff" points="207.47,-136.39 217.44,-139.96 211.87,-130.95 207.47,-136.39"/>
</a>
</g>
</g>
</g>
</svg>
