<?xml version="1.0" encoding="UTF-8" standalone="no"?>
<!DOCTYPE svg PUBLIC "-//W3C//DTD SVG 1.1//EN"
 "http://www.w3.org/Graphics/SVG/1.1/DTD/svg11.dtd">
<!-- Generated by graphviz version 2.43.0 (0)
 -->
<!-- Title: Cpl::Persistent::CrcChunk Pages: 1 -->
<svg width="308pt" height="93pt"
 viewBox="0.00 0.00 307.50 93.00" xmlns="http://www.w3.org/2000/svg" xmlns:xlink="http://www.w3.org/1999/xlink">
<g id="graph0" class="graph" transform="scale(1 1) rotate(0) translate(4 89)">
<title>Cpl::Persistent::CrcChunk</title>
<!-- Node1 -->
<g id="Node000001" class="node">
<title>Node1</title>
<g id="a_Node000001"><a xlink:title="This concrete class implements the Chunk interface by using a 32Bit CRC for ensuring data integrity.">
<polygon fill="#999999" stroke="#666666" points="211,-19 71,-19 71,0 211,0 211,-19"/>
<text text-anchor="middle" x="141" y="-7" font-family="Helvetica,sans-Serif" font-size="10.00">Cpl::Persistent::CrcChunk</text>
</a>
</g>
</g>
<!-- Node2 -->
<g id="Node000002" class="node">
<title>Node2</title>
<g id="a_Node000002"><a xlink:href="class_cpl_1_1_persistent_1_1_chunk.html" target="_top" xlink:title="This abstract class defines the interface for a Chunk.">
<polygon fill="white" stroke="#666666" points="124,-85 0,-85 0,-66 124,-66 124,-85"/>
<text text-anchor="middle" x="62" y="-73" font-family="Helvetica,sans-Serif" font-size="10.00">Cpl::Persistent::Chunk</text>
</a>
</g>
</g>
<!-- Node2&#45;&gt;Node1 -->
<g id="edge1_Node000001_Node000002" class="edge">
<title>Node2&#45;&gt;Node1</title>
<g id="a_edge1_Node000001_Node000002"><a xlink:title=" ">
<path fill="none" stroke="#63b8ff" d="M80.53,-59.49C96,-46.96 117.5,-29.54 130.26,-19.2"/>
<polygon fill="#63b8ff" stroke="#63b8ff" points="78.22,-56.85 72.65,-65.87 82.63,-62.29 78.22,-56.85"/>
</a>
</g>
</g>
<!-- Node3 -->
<g id="Node000003" class="node">
<title>Node3</title>
<g id="a_Node000003"><a xlink:href="class_cpl_1_1_persistent_1_1_region_media.html" target="_top" xlink:title="This mostly abstract class defines the operations that can be performed on a persistent media.">
<polygon fill="white" stroke="#666666" points="299.5,-85 142.5,-85 142.5,-66 299.5,-66 299.5,-85"/>
<text text-anchor="middle" x="221" y="-73" font-family="Helvetica,sans-Serif" font-size="10.00">Cpl::Persistent::RegionMedia</text>
</a>
</g>
</g>
<!-- Node3&#45;&gt;Node1 -->
<g id="edge2_Node000001_Node000003" class="edge">
<title>Node3&#45;&gt;Node1</title>
<g id="a_edge2_Node000001_Node000003"><a xlink:title=" ">
<path fill="none" stroke="#9a32cd" stroke-dasharray="5,2" d="M202.23,-59.49C186.57,-46.96 164.8,-29.54 151.87,-19.2"/>
<polygon fill="#9a32cd" stroke="#9a32cd" points="200.22,-62.35 210.21,-65.87 204.59,-56.89 200.22,-62.35"/>
</a>
</g>
<text text-anchor="middle" x="210.5" y="-40" font-family="Helvetica,sans-Serif" font-size="10.00" fill="grey"> m_region</text>
</g>
</g>
</svg>
