<?xml version="1.0" encoding="UTF-8" standalone="no"?>
<!DOCTYPE svg PUBLIC "-//W3C//DTD SVG 1.1//EN"
 "http://www.w3.org/Graphics/SVG/1.1/DTD/svg11.dtd">
<!-- Generated by graphviz version 2.43.0 (0)
 -->
<!-- Title: Cpl::Persistent::MirroredChunk Pages: 1 -->
<svg width="308pt" height="126pt"
 viewBox="0.00 0.00 307.50 126.00" xmlns="http://www.w3.org/2000/svg" xmlns:xlink="http://www.w3.org/1999/xlink">
<g id="graph0" class="graph" transform="scale(1 1) rotate(0) translate(4 122)">
<title>Cpl::Persistent::MirroredChunk</title>
<!-- Node1 -->
<g id="Node000001" class="node">
<title>Node1</title>
<g id="a_Node000001"><a xlink:title="This concrete class implements the Chunk interface by storing two copies of the Record&#39;s data.">
<polygon fill="#999999" stroke="#666666" points="208,-30 74,-30 74,0 208,0 208,-30"/>
<text text-anchor="start" x="82" y="-18" font-family="Helvetica,sans-Serif" font-size="10.00">Cpl::Persistent::Mirrored</text>
<text text-anchor="middle" x="141" y="-7" font-family="Helvetica,sans-Serif" font-size="10.00">Chunk</text>
</a>
</g>
</g>
<!-- Node2 -->
<g id="Node000002" class="node">
<title>Node2</title>
<g id="a_Node000002"><a xlink:href="class_cpl_1_1_persistent_1_1_chunk.html" target="_top" xlink:title="This abstract class defines the interface for a Chunk.">
<polygon fill="white" stroke="#666666" points="124,-118 0,-118 0,-99 124,-99 124,-118"/>
<text text-anchor="middle" x="62" y="-106" font-family="Helvetica,sans-Serif" font-size="10.00">Cpl::Persistent::Chunk</text>
</a>
</g>
</g>
<!-- Node2&#45;&gt;Node1 -->
<g id="edge1_Node000001_Node000002" class="edge">
<title>Node2&#45;&gt;Node1</title>
<g id="a_edge1_Node000001_Node000002"><a xlink:title=" ">
<path fill="none" stroke="#63b8ff" d="M76.17,-91.09C91.13,-73.76 114.48,-46.71 128.7,-30.25"/>
<polygon fill="#63b8ff" stroke="#63b8ff" points="73.46,-88.87 69.57,-98.73 78.76,-93.44 73.46,-88.87"/>
</a>
</g>
</g>
<!-- Node3 -->
<g id="Node000003" class="node">
<title>Node3</title>
<g id="a_Node000003"><a xlink:href="class_cpl_1_1_persistent_1_1_region_media.html" target="_top" xlink:title="This mostly abstract class defines the operations that can be performed on a persistent media.">
<polygon fill="white" stroke="#666666" points="299.5,-118 142.5,-118 142.5,-99 299.5,-99 299.5,-118"/>
<text text-anchor="middle" x="221" y="-106" font-family="Helvetica,sans-Serif" font-size="10.00">Cpl::Persistent::RegionMedia</text>
</a>
</g>
</g>
<!-- Node3&#45;&gt;Node1 -->
<g id="edge2_Node000001_Node000003" class="edge">
<title>Node3&#45;&gt;Node1</title>
<g id="a_edge2_Node000001_Node000003"><a xlink:title=" ">
<path fill="none" stroke="#9a32cd" stroke-dasharray="5,2" d="M206.65,-91.09C191.5,-73.76 167.85,-46.71 153.46,-30.25"/>
<polygon fill="#9a32cd" stroke="#9a32cd" points="204.11,-93.5 213.33,-98.73 209.38,-88.89 204.11,-93.5"/>
</a>
</g>
<text text-anchor="middle" x="240.5" y="-73" font-family="Helvetica,sans-Serif" font-size="10.00" fill="grey"> m_currentRegion</text>
<text text-anchor="middle" x="240.5" y="-62" font-family="Helvetica,sans-Serif" font-size="10.00" fill="grey">m_regionA</text>
<text text-anchor="middle" x="240.5" y="-51" font-family="Helvetica,sans-Serif" font-size="10.00" fill="grey">m_regionB</text>
</g>
</g>
</svg>
