<?xml version="1.0" encoding="UTF-8" standalone="no"?>
<!DOCTYPE svg PUBLIC "-//W3C//DTD SVG 1.1//EN"
 "http://www.w3.org/Graphics/SVG/1.1/DTD/svg11.dtd">
<!-- Generated by graphviz version 2.43.0 (0)
 -->
<!-- Title: Cpl::Dm::MailboxServer Pages: 1 -->
<svg width="1492pt" height="357pt"
 viewBox="0.00 0.00 1492.00 356.50" xmlns="http://www.w3.org/2000/svg" xmlns:xlink="http://www.w3.org/1999/xlink">
<g id="graph0" class="graph" transform="scale(1 1) rotate(0) translate(4 352.5)">
<title>Cpl::Dm::MailboxServer</title>
<!-- Node1 -->
<g id="Node000001" class="node">
<title>Node1</title>
<g id="a_Node000001"><a xlink:title="This class extends the Cpl::Dm::EventLoop and Cpl::Itc:Mailbox classes to support the asynchronous ch...">
<polygon fill="#999999" stroke="#666666" points="1484,-44 1352,-44 1352,-25 1484,-25 1484,-44"/>
<text text-anchor="middle" x="1418" y="-32" font-family="Helvetica,sans-Serif" font-size="10.00">Cpl::Dm::MailboxServer</text>
</a>
</g>
</g>
<!-- Node2 -->
<g id="Node000002" class="node">
<title>Node2</title>
<g id="a_Node000002"><a xlink:href="class_cpl_1_1_dm_1_1_event_loop.html" target="_top" xlink:title="This class extends the Cpl::System::EventLoop class to support the asynchronous change notification g...">
<polygon fill="white" stroke="#666666" points="1315,-167 1202,-167 1202,-148 1315,-148 1315,-167"/>
<text text-anchor="middle" x="1258.5" y="-155" font-family="Helvetica,sans-Serif" font-size="10.00">Cpl::Dm::EventLoop</text>
</a>
</g>
</g>
<!-- Node2&#45;&gt;Node1 -->
<g id="edge1_Node000001_Node000002" class="edge">
<title>Node2&#45;&gt;Node1</title>
<g id="a_edge1_Node000001_Node000002"><a xlink:title=" ">
<path fill="none" stroke="#63b8ff" d="M1279.95,-141.53C1313.14,-115.61 1377.72,-65.17 1404.7,-44.11"/>
<polygon fill="#63b8ff" stroke="#63b8ff" points="1277.59,-138.93 1271.86,-147.85 1281.89,-144.45 1277.59,-138.93"/>
</a>
</g>
</g>
<!-- Node3 -->
<g id="Node000003" class="node">
<title>Node3</title>
<g id="a_Node000003"><a xlink:href="class_cpl_1_1_system_1_1_event_loop.html" target="_top" xlink:title="This concrete class is a Runnable object that provides a event driven execution model for a thread.">
<polygon fill="white" stroke="#666666" points="1161.5,-189 1029.5,-189 1029.5,-170 1161.5,-170 1161.5,-189"/>
<text text-anchor="middle" x="1095.5" y="-177" font-family="Helvetica,sans-Serif" font-size="10.00">Cpl::System::EventLoop</text>
</a>
</g>
</g>
<!-- Node3&#45;&gt;Node2 -->
<g id="edge2_Node000002_Node000003" class="edge">
<title>Node3&#45;&gt;Node2</title>
<g id="a_edge2_Node000002_Node000003"><a xlink:title=" ">
<path fill="none" stroke="#63b8ff" d="M1171.62,-169.23C1181.79,-167.85 1192.06,-166.44 1201.8,-165.11"/>
<polygon fill="#63b8ff" stroke="#63b8ff" points="1170.95,-165.79 1161.52,-170.62 1171.9,-172.73 1170.95,-165.79"/>
</a>
</g>
</g>
<!-- Node4 -->
<g id="Node000004" class="node">
<title>Node4</title>
<g id="a_Node000004"><a xlink:href="class_cpl_1_1_system_1_1_runnable.html" target="_top" xlink:title="This is an abstract class defines the interface for an object that is &quot;executed&quot; when a Thread object...">
<polygon fill="white" stroke="#666666" points="843.5,-263 716.5,-263 716.5,-244 843.5,-244 843.5,-263"/>
<text text-anchor="middle" x="780" y="-251" font-family="Helvetica,sans-Serif" font-size="10.00">Cpl::System::Runnable</text>
</a>
</g>
</g>
<!-- Node4&#45;&gt;Node3 -->
<g id="edge3_Node000003_Node000004" class="edge">
<title>Node4&#45;&gt;Node3</title>
<g id="a_edge3_Node000003_Node000004"><a xlink:title=" ">
<path fill="none" stroke="#63b8ff" d="M853.49,-245.66C898.53,-239.73 957.31,-230.08 1008,-215.5 1031.76,-208.66 1057.8,-197.25 1075.04,-189.11"/>
<polygon fill="#63b8ff" stroke="#63b8ff" points="852.99,-242.19 843.51,-246.94 853.88,-249.13 852.99,-242.19"/>
</a>
</g>
</g>
<!-- Node5 -->
<g id="Node000005" class="node">
<title>Node5</title>
<g id="a_Node000005"><a xlink:href="class_cpl_1_1_system_1_1_event_flag.html" target="_top" xlink:title="This abstract class defines the interface to generated a &#39;Event Flag&#39;.">
<polygon fill="white" stroke="#666666" points="845,-226 715,-226 715,-207 845,-207 845,-226"/>
<text text-anchor="middle" x="780" y="-214" font-family="Helvetica,sans-Serif" font-size="10.00">Cpl::System::EventFlag</text>
</a>
</g>
</g>
<!-- Node5&#45;&gt;Node3 -->
<g id="edge4_Node000003_Node000005" class="edge">
<title>Node5&#45;&gt;Node3</title>
<g id="a_edge4_Node000003_Node000005"><a xlink:title=" ">
<path fill="none" stroke="#63b8ff" d="M855.37,-210.71C899.77,-206.9 957.22,-201.35 1008,-194.5 1019.48,-192.95 1031.77,-191 1043.37,-189.02"/>
<polygon fill="#63b8ff" stroke="#63b8ff" points="854.91,-207.24 845.24,-211.57 855.5,-214.21 854.91,-207.24"/>
</a>
</g>
</g>
<!-- Node6 -->
<g id="Node000006" class="node">
<title>Node6</title>
<g id="a_Node000006"><a xlink:href="class_cpl_1_1_system_1_1_signable.html" target="_top" xlink:title="This abstract class defines the interface by which a client can cause an object that is waiting&#45;on&#45;a&#45;...">
<polygon fill="white" stroke="#666666" points="484,-132 361,-132 361,-113 484,-113 484,-132"/>
<text text-anchor="middle" x="422.5" y="-120" font-family="Helvetica,sans-Serif" font-size="10.00">Cpl::System::Signable</text>
</a>
</g>
</g>
<!-- Node6&#45;&gt;Node3 -->
<g id="edge5_Node000003_Node000006" class="edge">
<title>Node6&#45;&gt;Node3</title>
<g id="a_edge5_Node000003_Node000006"><a xlink:title=" ">
<path fill="none" stroke="#63b8ff" d="M494.54,-128.53C625.52,-139.66 903.18,-163.25 1029.49,-173.98"/>
<polygon fill="#63b8ff" stroke="#63b8ff" points="494.49,-125.02 484.23,-127.66 493.9,-131.99 494.49,-125.02"/>
</a>
</g>
</g>
<!-- Node12 -->
<g id="Node000012" class="node">
<title>Node12</title>
<g id="a_Node000012"><a xlink:href="class_cpl_1_1_system_1_1_thread.html" target="_top" xlink:title="This abstract class defines the operations that can be performed on a thread.">
<polygon fill="white" stroke="#666666" points="837.5,-113 722.5,-113 722.5,-94 837.5,-94 837.5,-113"/>
<text text-anchor="middle" x="780" y="-101" font-family="Helvetica,sans-Serif" font-size="10.00">Cpl::System::Thread</text>
</a>
</g>
</g>
<!-- Node6&#45;&gt;Node12 -->
<g id="edge12_Node000012_Node000006" class="edge">
<title>Node6&#45;&gt;Node12</title>
<g id="a_edge12_Node000012_Node000006"><a xlink:title=" ">
<path fill="none" stroke="#63b8ff" d="M494.26,-118.72C561.23,-115.14 660.47,-109.84 722.36,-106.53"/>
<polygon fill="#63b8ff" stroke="#63b8ff" points="494.01,-115.23 484.21,-119.26 494.38,-122.22 494.01,-115.23"/>
</a>
</g>
</g>
<!-- Node14 -->
<g id="Node000014" class="node">
<title>Node14</title>
<g id="a_Node000014"><a xlink:href="class_cpl_1_1_system_1_1_semaphore.html" target="_top" xlink:title="This semaphore class defines the interface for a Counting Semaphore.">
<polygon fill="white" stroke="#666666" points="848.5,-189 711.5,-189 711.5,-170 848.5,-170 848.5,-189"/>
<text text-anchor="middle" x="780" y="-177" font-family="Helvetica,sans-Serif" font-size="10.00">Cpl::System::Semaphore</text>
</a>
</g>
</g>
<!-- Node6&#45;&gt;Node14 -->
<g id="edge15_Node000014_Node000006" class="edge">
<title>Node6&#45;&gt;Node14</title>
<g id="a_edge15_Node000014_Node000006"><a xlink:title=" ">
<path fill="none" stroke="#63b8ff" d="M460.35,-135.32C481.87,-142.33 509.69,-150.56 535,-155.5 594.01,-167.03 662.18,-173.14 711.44,-176.3"/>
<polygon fill="#63b8ff" stroke="#63b8ff" points="461.23,-131.93 450.63,-132.11 459.03,-138.57 461.23,-131.93"/>
</a>
</g>
</g>
<!-- Node17 -->
<g id="Node000017" class="node">
<title>Node17</title>
<g id="a_Node000017"><a xlink:href="class_cpl_1_1_itc_1_1_mailbox.html" target="_top" xlink:title="This mailbox class implements an Inter Thread Communications message queue.">
<polygon fill="white" stroke="#666666" points="827.5,-27 732.5,-27 732.5,-8 827.5,-8 827.5,-27"/>
<text text-anchor="middle" x="780" y="-15" font-family="Helvetica,sans-Serif" font-size="10.00">Cpl::Itc::Mailbox</text>
</a>
</g>
</g>
<!-- Node6&#45;&gt;Node17 -->
<g id="edge23_Node000017_Node000006" class="edge">
<title>Node6&#45;&gt;Node17</title>
<g id="a_edge23_Node000017_Node000006"><a xlink:title=" ">
<path fill="none" stroke="#9a32cd" stroke-dasharray="5,2" d="M471.47,-110.43C541.82,-92.56 666.75,-60.14 686,-50.5 695.06,-45.96 694.89,-40.95 704,-36.5 712.81,-32.19 722.69,-28.8 732.32,-26.15"/>
<polygon fill="#9a32cd" stroke="#9a32cd" points="470.34,-107.1 461.51,-112.95 472.06,-113.89 470.34,-107.1"/>
</a>
</g>
<text text-anchor="middle" x="610.5" y="-97.5" font-family="Helvetica,sans-Serif" font-size="10.00" fill="grey"> m_eventLoop</text>
</g>
<!-- Node7 -->
<g id="Node000007" class="node">
<title>Node7</title>
<g id="a_Node000007"><a xlink:href="class_cpl_1_1_container_1_1_item.html" target="_top" xlink:title="This class is used by the Container classes to implement a various types of singly linked containers.">
<polygon fill="white" stroke="#666666" points="115,-132 1,-132 1,-113 115,-113 115,-132"/>
<text text-anchor="middle" x="58" y="-120" font-family="Helvetica,sans-Serif" font-size="10.00">Cpl::Container::Item</text>
</a>
</g>
</g>
<!-- Node7&#45;&gt;Node6 -->
<g id="edge6_Node000006_Node000007" class="edge">
<title>Node7&#45;&gt;Node6</title>
<g id="a_edge6_Node000006_Node000007"><a xlink:title=" ">
<path fill="none" stroke="#63b8ff" d="M125.31,-122.5C192.56,-122.5 295.76,-122.5 360.89,-122.5"/>
<polygon fill="#63b8ff" stroke="#63b8ff" points="125.24,-119 115.24,-122.5 125.24,-126 125.24,-119"/>
</a>
</g>
</g>
<!-- Node8 -->
<g id="Node000008" class="node">
<title>Node8</title>
<g id="a_Node000008"><a xlink:href="class_cpl_1_1_system_1_1_timer_manager.html" target="_top" xlink:title="This mostly concrete class implements manages a list of Software Timers.">
<polygon fill="white" stroke="#666666" points="856,-300 704,-300 704,-281 856,-281 856,-300"/>
<text text-anchor="middle" x="780" y="-288" font-family="Helvetica,sans-Serif" font-size="10.00">Cpl::System::TimerManager</text>
</a>
</g>
</g>
<!-- Node8&#45;&gt;Node3 -->
<g id="edge7_Node000003_Node000008" class="edge">
<title>Node8&#45;&gt;Node3</title>
<g id="a_edge7_Node000003_Node000008"><a xlink:title=" ">
<path fill="none" stroke="#63b8ff" d="M866.08,-281.17C909.86,-274.24 963.28,-262.41 1008,-242.5 1038.72,-228.82 1069.24,-202.99 1084.49,-189.03"/>
<polygon fill="#63b8ff" stroke="#63b8ff" points="865.39,-277.73 856.03,-282.7 866.44,-284.65 865.39,-277.73"/>
</a>
</g>
</g>
<!-- Node9 -->
<g id="Node000009" class="node">
<title>Node9</title>
<g id="a_Node000009"><a xlink:href="class_cpl_1_1_system_1_1_counter_source__.html" target="_top" xlink:title="This abstract class defines the interface for registering for an Counter object with the Timer Manage...">
<polygon fill="white" stroke="#666666" points="501.5,-257 343.5,-257 343.5,-238 501.5,-238 501.5,-257"/>
<text text-anchor="middle" x="422.5" y="-245" font-family="Helvetica,sans-Serif" font-size="10.00">Cpl::System::CounterSource_</text>
</a>
</g>
</g>
<!-- Node9&#45;&gt;Node8 -->
<g id="edge8_Node000008_Node000009" class="edge">
<title>Node9&#45;&gt;Node8</title>
<g id="a_edge8_Node000008_Node000009"><a xlink:title=" ">
<path fill="none" stroke="#63b8ff" d="M511.59,-258.15C570.69,-265.3 647.71,-274.62 703.91,-281.42"/>
<polygon fill="#63b8ff" stroke="#63b8ff" points="511.86,-254.66 501.52,-256.94 511.02,-261.61 511.86,-254.66"/>
</a>
</g>
</g>
<!-- Node10 -->
<g id="Node000010" class="node">
<title>Node10</title>
<g id="a_Node000010"><a xlink:href="class_cpl_1_1_container_1_1_d_list.html" target="_top" xlink:title=" ">
<polygon fill="white" stroke="#666666" points="517,-305.5 328,-305.5 328,-275.5 517,-275.5 517,-305.5"/>
<text text-anchor="start" x="336" y="-293.5" font-family="Helvetica,sans-Serif" font-size="10.00">Cpl::Container::DList</text>
<text text-anchor="middle" x="422.5" y="-282.5" font-family="Helvetica,sans-Serif" font-size="10.00">&lt; Cpl::System::CounterCallback_ &gt;</text>
</a>
</g>
</g>
<!-- Node10&#45;&gt;Node8 -->
<g id="edge9_Node000008_Node000010" class="edge">
<title>Node10&#45;&gt;Node8</title>
<g id="a_edge9_Node000008_Node000010"><a xlink:title=" ">
<path fill="none" stroke="#9a32cd" stroke-dasharray="5,2" d="M527.29,-287.62C529.88,-287.57 532.46,-287.53 535,-287.5 602.11,-286.6 618.9,-286.42 686,-287.5 691.81,-287.59 697.83,-287.72 703.88,-287.87"/>
<polygon fill="#9a32cd" stroke="#9a32cd" points="527.12,-284.12 517.18,-287.8 527.24,-291.12 527.12,-284.12"/>
</a>
</g>
<text text-anchor="middle" x="610.5" y="-301.5" font-family="Helvetica,sans-Serif" font-size="10.00" fill="grey"> m_counters</text>
<text text-anchor="middle" x="610.5" y="-290.5" font-family="Helvetica,sans-Serif" font-size="10.00" fill="grey">m_pendingAttach</text>
</g>
<!-- Node11 -->
<g id="Node000011" class="node">
<title>Node11</title>
<g id="a_Node000011"><a xlink:href="class_cpl_1_1_container_1_1_d_list.html" target="_top" xlink:title="This template class implements a Doubly linked list which maintains the ordering imposed on it by the...">
<polygon fill="white" stroke="#666666" points="116,-330.5 0,-330.5 0,-300.5 116,-300.5 116,-330.5"/>
<text text-anchor="start" x="8" y="-318.5" font-family="Helvetica,sans-Serif" font-size="10.00">Cpl::Container::DList</text>
<text text-anchor="middle" x="58" y="-307.5" font-family="Helvetica,sans-Serif" font-size="10.00">&lt; ITEM &gt;</text>
</a>
</g>
</g>
<!-- Node11&#45;&gt;Node10 -->
<g id="edge10_Node000010_Node000011" class="edge">
<title>Node11&#45;&gt;Node10</title>
<g id="a_edge10_Node000010_Node000011"><a xlink:title=" ">
<path fill="none" stroke="orange" stroke-dasharray="5,2" d="M126.28,-301.5C128.88,-301.13 131.46,-300.8 134,-300.5 198.49,-292.98 271.62,-290.52 327.99,-289.92"/>
<polygon fill="orange" stroke="orange" points="125.52,-298.08 116.18,-303.07 126.59,-304.99 125.52,-298.08"/>
</a>
</g>
<text text-anchor="middle" x="222" y="-303.5" font-family="Helvetica,sans-Serif" font-size="10.00" fill="grey"> &lt; Cpl::System::CounterCallback_ &gt;</text>
</g>
<!-- Node16 -->
<g id="Node000016" class="node">
<title>Node16</title>
<g id="a_Node000016"><a xlink:href="class_cpl_1_1_container_1_1_d_list.html" target="_top" xlink:title=" ">
<polygon fill="white" stroke="#666666" points="686,-348.5 535,-348.5 535,-318.5 686,-318.5 686,-348.5"/>
<text text-anchor="start" x="543" y="-336.5" font-family="Helvetica,sans-Serif" font-size="10.00">Cpl::Container::DList</text>
<text text-anchor="middle" x="610.5" y="-325.5" font-family="Helvetica,sans-Serif" font-size="10.00">&lt; Cpl::Dm::SubscriberApi &gt;</text>
</a>
</g>
</g>
<!-- Node11&#45;&gt;Node16 -->
<g id="edge18_Node000016_Node000011" class="edge">
<title>Node11&#45;&gt;Node16</title>
<g id="a_edge18_Node000016_Node000011"><a xlink:title=" ">
<path fill="none" stroke="orange" stroke-dasharray="5,2" d="M126.1,-317.69C229.47,-321.07 426.95,-327.53 534.75,-331.06"/>
<polygon fill="orange" stroke="orange" points="126.21,-314.2 116.1,-317.37 125.98,-321.19 126.21,-314.2"/>
</a>
</g>
<text text-anchor="middle" x="222" y="-325.5" font-family="Helvetica,sans-Serif" font-size="10.00" fill="grey"> &lt; Cpl::Dm::SubscriberApi &gt;</text>
</g>
<!-- Node12&#45;&gt;Node3 -->
<g id="edge11_Node000003_Node000012" class="edge">
<title>Node12&#45;&gt;Node3</title>
<g id="a_edge11_Node000003_Node000012"><a xlink:title=" ">
<path fill="none" stroke="#9a32cd" stroke-dasharray="5,2" d="M830.35,-92.19C880.01,-83.8 956.44,-79.4 1008,-116.5 1025.48,-129.08 1009.86,-147.24 1026,-161.5 1029.87,-164.92 1034.31,-167.7 1039.04,-169.96"/>
<polygon fill="#9a32cd" stroke="#9a32cd" points="829.7,-88.75 820.48,-93.97 830.94,-95.64 829.7,-88.75"/>
</a>
</g>
<text text-anchor="middle" x="941" y="-119.5" font-family="Helvetica,sans-Serif" font-size="10.00" fill="grey"> m_myThreadPtr</text>
</g>
<!-- Node13 -->
<g id="Node000013" class="node">
<title>Node13</title>
<g id="a_Node000013"><a xlink:href="class_cpl_1_1_system_1_1_shared_event_handler_api.html" target="_top" xlink:title="This abstract class defines the interface for a Shared Event Handler.">
<polygon fill="white" stroke="#666666" points="851.5,-75.5 708.5,-75.5 708.5,-45.5 851.5,-45.5 851.5,-75.5"/>
<text text-anchor="start" x="716.5" y="-63.5" font-family="Helvetica,sans-Serif" font-size="10.00">Cpl::System::SharedEvent</text>
<text text-anchor="middle" x="780" y="-52.5" font-family="Helvetica,sans-Serif" font-size="10.00">HandlerApi</text>
</a>
</g>
</g>
<!-- Node13&#45;&gt;Node3 -->
<g id="edge13_Node000003_Node000013" class="edge">
<title>Node13&#45;&gt;Node3</title>
<g id="a_edge13_Node000003_Node000013"><a xlink:title=" ">
<path fill="none" stroke="#9a32cd" stroke-dasharray="5,2" d="M848.53,-43.7C898.44,-35.58 964.92,-34.41 1008,-71.5 1038.91,-98.12 998.03,-131.81 1026,-161.5 1029.2,-164.9 1032.97,-167.69 1037.05,-169.97"/>
<polygon fill="#9a32cd" stroke="#9a32cd" points="847.71,-40.29 838.46,-45.46 848.92,-47.18 847.71,-40.29"/>
</a>
</g>
<text text-anchor="middle" x="941" y="-74.5" font-family="Helvetica,sans-Serif" font-size="10.00" fill="grey"> m_eventHandler</text>
</g>
<!-- Node14&#45;&gt;Node3 -->
<g id="edge14_Node000003_Node000014" class="edge">
<title>Node14&#45;&gt;Node3</title>
<g id="a_edge14_Node000003_Node000014"><a xlink:title=" ">
<path fill="none" stroke="#9a32cd" stroke-dasharray="5,2" d="M858.91,-179.5C911.4,-179.5 979.82,-179.5 1029.4,-179.5"/>
<polygon fill="#9a32cd" stroke="#9a32cd" points="858.64,-176 848.64,-179.5 858.64,-183 858.64,-176"/>
</a>
</g>
<text text-anchor="middle" x="941" y="-182.5" font-family="Helvetica,sans-Serif" font-size="10.00" fill="grey"> m_sema</text>
</g>
<!-- Node15 -->
<g id="Node000015" class="node">
<title>Node15</title>
<g id="a_Node000015"><a xlink:href="class_cpl_1_1_dm_1_1_notification_api__.html" target="_top" xlink:title="This class has PACKAGE Scope, i.e.">
<polygon fill="white" stroke="#666666" points="1165,-152 1026,-152 1026,-133 1165,-133 1165,-152"/>
<text text-anchor="middle" x="1095.5" y="-140" font-family="Helvetica,sans-Serif" font-size="10.00">Cpl::Dm::NotificationApi_</text>
</a>
</g>
</g>
<!-- Node15&#45;&gt;Node2 -->
<g id="edge16_Node000002_Node000015" class="edge">
<title>Node15&#45;&gt;Node2</title>
<g id="a_edge16_Node000002_Node000015"><a xlink:title=" ">
<path fill="none" stroke="#63b8ff" d="M1175.26,-149.84C1184.16,-150.67 1193.09,-151.5 1201.61,-152.29"/>
<polygon fill="#63b8ff" stroke="#63b8ff" points="1175.53,-146.35 1165.25,-148.9 1174.88,-153.32 1175.53,-146.35"/>
</a>
</g>
</g>
<!-- Node16&#45;&gt;Node2 -->
<g id="edge17_Node000002_Node000016" class="edge">
<title>Node16&#45;&gt;Node2</title>
<g id="a_edge17_Node000002_Node000016"><a xlink:title=" ">
<path fill="none" stroke="#9a32cd" stroke-dasharray="5,2" d="M696.37,-327.86C743.57,-324.06 803.26,-318.12 856,-309.5 924.41,-298.31 942.47,-297.12 1008,-274.5 1098.9,-243.12 1200.87,-188.89 1240.49,-167.04"/>
<polygon fill="#9a32cd" stroke="#9a32cd" points="695.88,-324.39 686.19,-328.67 696.43,-331.37 695.88,-324.39"/>
</a>
</g>
<text text-anchor="middle" x="941" y="-308.5" font-family="Helvetica,sans-Serif" font-size="10.00" fill="grey"> m_pendingMpNotifications</text>
</g>
<!-- Node17&#45;&gt;Node1 -->
<g id="edge19_Node000001_Node000017" class="edge">
<title>Node17&#45;&gt;Node1</title>
<g id="a_edge19_Node000001_Node000017"><a xlink:title=" ">
<path fill="none" stroke="#63b8ff" d="M837.76,-19.02C955.67,-22.17 1226.54,-29.41 1351.56,-32.75"/>
<polygon fill="#63b8ff" stroke="#63b8ff" points="837.6,-15.51 827.51,-18.74 837.41,-22.51 837.6,-15.51"/>
</a>
</g>
</g>
<!-- Node18 -->
<g id="Node000018" class="node">
<title>Node18</title>
<g id="a_Node000018"><a xlink:href="class_cpl_1_1_itc_1_1_post_api.html" target="_top" xlink:title="This abstract class represents the interface used to send messages to a mailbox.">
<polygon fill="white" stroke="#666666" points="469,-19 376,-19 376,0 469,0 469,-19"/>
<text text-anchor="middle" x="422.5" y="-7" font-family="Helvetica,sans-Serif" font-size="10.00">Cpl::Itc::PostApi</text>
</a>
</g>
</g>
<!-- Node18&#45;&gt;Node17 -->
<g id="edge20_Node000017_Node000018" class="edge">
<title>Node18&#45;&gt;Node17</title>
<g id="a_edge20_Node000017_Node000018"><a xlink:title=" ">
<path fill="none" stroke="#63b8ff" d="M479.6,-10.76C549.37,-12.33 667.21,-14.98 732.3,-16.45"/>
<polygon fill="#63b8ff" stroke="#63b8ff" points="479.32,-7.26 469.25,-10.53 479.17,-14.25 479.32,-7.26"/>
</a>
</g>
</g>
<!-- Node19 -->
<g id="Node000019" class="node">
<title>Node19</title>
<g id="a_Node000019"><a xlink:href="class_cpl_1_1_container_1_1_s_list.html" target="_top" xlink:title=" ">
<polygon fill="white" stroke="#666666" points="480,-67.5 365,-67.5 365,-37.5 480,-37.5 480,-67.5"/>
<text text-anchor="start" x="373" y="-55.5" font-family="Helvetica,sans-Serif" font-size="10.00">Cpl::Container::SList</text>
<text text-anchor="middle" x="422.5" y="-44.5" font-family="Helvetica,sans-Serif" font-size="10.00">&lt; Message &gt;</text>
</a>
</g>
</g>
<!-- Node19&#45;&gt;Node17 -->
<g id="edge21_Node000017_Node000019" class="edge">
<title>Node19&#45;&gt;Node17</title>
<g id="a_edge21_Node000017_Node000019"><a xlink:title=" ">
<path fill="none" stroke="#63b8ff" d="M490.09,-46.9C543.18,-42.32 619.4,-35.48 686,-28.5 701.04,-26.92 717.42,-25.04 732.19,-23.28"/>
<polygon fill="#63b8ff" stroke="#63b8ff" points="489.79,-43.42 480.12,-47.76 490.39,-50.39 489.79,-43.42"/>
</a>
</g>
</g>
<!-- Node20 -->
<g id="Node000020" class="node">
<title>Node20</title>
<g id="a_Node000020"><a xlink:href="class_cpl_1_1_container_1_1_s_list.html" target="_top" xlink:title="This template class implements a singly linked list which maintains the ordering imposed on it by the...">
<polygon fill="white" stroke="#666666" points="115.5,-67.5 0.5,-67.5 0.5,-37.5 115.5,-37.5 115.5,-67.5"/>
<text text-anchor="start" x="8.5" y="-55.5" font-family="Helvetica,sans-Serif" font-size="10.00">Cpl::Container::SList</text>
<text text-anchor="middle" x="58" y="-44.5" font-family="Helvetica,sans-Serif" font-size="10.00">&lt; ITEM &gt;</text>
</a>
</g>
</g>
<!-- Node20&#45;&gt;Node19 -->
<g id="edge22_Node000019_Node000020" class="edge">
<title>Node20&#45;&gt;Node19</title>
<g id="a_edge22_Node000019_Node000020"><a xlink:title=" ">
<path fill="none" stroke="orange" stroke-dasharray="5,2" d="M125.92,-52.5C194.6,-52.5 300.32,-52.5 364.96,-52.5"/>
<polygon fill="orange" stroke="orange" points="125.64,-49 115.64,-52.5 125.64,-56 125.64,-49"/>
</a>
</g>
<text text-anchor="middle" x="222" y="-55.5" font-family="Helvetica,sans-Serif" font-size="10.00" fill="grey"> &lt; Message &gt;</text>
</g>
</g>
</svg>
