<?xml version="1.0" encoding="UTF-8" standalone="no"?>
<!DOCTYPE svg PUBLIC "-//W3C//DTD SVG 1.1//EN"
 "http://www.w3.org/Graphics/SVG/1.1/DTD/svg11.dtd">
<!-- Generated by graphviz version 2.43.0 (0)
 -->
<!-- Title: Cpl::Dm::Subscriber&lt; MP &gt; Pages: 1 -->
<svg width="1841pt" height="387pt"
 viewBox="0.00 0.00 1841.00 387.00" xmlns="http://www.w3.org/2000/svg" xmlns:xlink="http://www.w3.org/1999/xlink">
<g id="graph0" class="graph" transform="scale(1 1) rotate(0) translate(4 383)">
<title>Cpl::Dm::Subscriber&lt; MP &gt;</title>
<!-- Node1 -->
<g id="Node000001" class="node">
<title>Node1</title>
<g id="a_Node000001"><a xlink:title="This template class defines a type safe Subscriber.">
<polygon fill="#999999" stroke="#666666" points="1833,-337 1720,-337 1720,-307 1833,-307 1833,-337"/>
<text text-anchor="start" x="1728" y="-325" font-family="Helvetica,sans-Serif" font-size="10.00">Cpl::Dm::Subscriber</text>
<text text-anchor="middle" x="1776.5" y="-314" font-family="Helvetica,sans-Serif" font-size="10.00">&lt; MP &gt;</text>
</a>
</g>
</g>
<!-- Node2 -->
<g id="Node000002" class="node">
<title>Node2</title>
<g id="a_Node000002"><a xlink:href="class_cpl_1_1_dm_1_1_subscriber_base.html" target="_top" xlink:title="This mostly concrete class defines the Subscriber interface &#45; for change notifications &#45; to a Model P...">
<polygon fill="white" stroke="#666666" points="1683,-331.5 1546,-331.5 1546,-312.5 1683,-312.5 1683,-331.5"/>
<text text-anchor="middle" x="1614.5" y="-319.5" font-family="Helvetica,sans-Serif" font-size="10.00">Cpl::Dm::SubscriberBase</text>
</a>
</g>
</g>
<!-- Node2&#45;&gt;Node1 -->
<g id="edge1_Node000001_Node000002" class="edge">
<title>Node2&#45;&gt;Node1</title>
<g id="a_edge1_Node000001_Node000002"><a xlink:title=" ">
<path fill="none" stroke="#63b8ff" d="M1693.62,-322C1702.4,-322 1711.22,-322 1719.63,-322"/>
<polygon fill="#63b8ff" stroke="#63b8ff" points="1693.35,-318.5 1683.35,-322 1693.35,-325.5 1693.35,-318.5"/>
</a>
</g>
</g>
<!-- Node3 -->
<g id="Node000003" class="node">
<title>Node3</title>
<g id="a_Node000003"><a xlink:href="class_cpl_1_1_dm_1_1_subscriber_api.html" target="_top" xlink:title="This abstract class defines the Subscriber interface &#45; for change notifications &#45; to a Model Points d...">
<polygon fill="white" stroke="#666666" points="1293,-331.5 1165,-331.5 1165,-312.5 1293,-312.5 1293,-331.5"/>
<text text-anchor="middle" x="1229" y="-319.5" font-family="Helvetica,sans-Serif" font-size="10.00">Cpl::Dm::SubscriberApi</text>
</a>
</g>
</g>
<!-- Node3&#45;&gt;Node2 -->
<g id="edge2_Node000002_Node000003" class="edge">
<title>Node3&#45;&gt;Node2</title>
<g id="a_edge2_Node000002_Node000003"><a xlink:title=" ">
<path fill="none" stroke="#63b8ff" d="M1303.39,-322C1373.37,-322 1477.88,-322 1545.88,-322"/>
<polygon fill="#63b8ff" stroke="#63b8ff" points="1303.33,-318.5 1293.33,-322 1303.33,-325.5 1303.33,-318.5"/>
</a>
</g>
</g>
<!-- Node4 -->
<g id="Node000004" class="node">
<title>Node4</title>
<g id="a_Node000004"><a xlink:href="class_cpl_1_1_container_1_1_extended_item.html" target="_top" xlink:title="This class is used by the Container classes to implement a various types of DOUBLY linked containers.">
<polygon fill="white" stroke="#666666" points="502.5,-331.5 342.5,-331.5 342.5,-312.5 502.5,-312.5 502.5,-331.5"/>
<text text-anchor="middle" x="422.5" y="-319.5" font-family="Helvetica,sans-Serif" font-size="10.00">Cpl::Container::ExtendedItem</text>
</a>
</g>
</g>
<!-- Node4&#45;&gt;Node3 -->
<g id="edge3_Node000003_Node000004" class="edge">
<title>Node4&#45;&gt;Node3</title>
<g id="a_edge3_Node000003_Node000004"><a xlink:title=" ">
<path fill="none" stroke="#63b8ff" d="M512.91,-322C677.06,-322 1022.66,-322 1164.85,-322"/>
<polygon fill="#63b8ff" stroke="#63b8ff" points="512.84,-318.5 502.84,-322 512.84,-325.5 512.84,-318.5"/>
</a>
</g>
</g>
<!-- Node5 -->
<g id="Node000005" class="node">
<title>Node5</title>
<g id="a_Node000005"><a xlink:href="class_cpl_1_1_container_1_1_item.html" target="_top" xlink:title="This class is used by the Container classes to implement a various types of singly linked containers.">
<polygon fill="white" stroke="#666666" points="115,-331.5 1,-331.5 1,-312.5 115,-312.5 115,-331.5"/>
<text text-anchor="middle" x="58" y="-319.5" font-family="Helvetica,sans-Serif" font-size="10.00">Cpl::Container::Item</text>
</a>
</g>
</g>
<!-- Node5&#45;&gt;Node4 -->
<g id="edge4_Node000004_Node000005" class="edge">
<title>Node5&#45;&gt;Node4</title>
<g id="a_edge4_Node000004_Node000005"><a xlink:title=" ">
<path fill="none" stroke="#63b8ff" d="M125.54,-322C186.67,-322 277.36,-322 342.22,-322"/>
<polygon fill="#63b8ff" stroke="#63b8ff" points="125.24,-318.5 115.24,-322 125.24,-325.5 125.24,-318.5"/>
</a>
</g>
</g>
<!-- Node6 -->
<g id="Node000006" class="node">
<title>Node6</title>
<g id="a_Node000006"><a xlink:href="class_cpl_1_1_dm_1_1_model_point.html" target="_top" xlink:title="This mostly abstract class defines the interface for a Model Point.">
<polygon fill="white" stroke="#666666" points="651,-375.5 535,-375.5 535,-356.5 651,-356.5 651,-375.5"/>
<text text-anchor="middle" x="593" y="-363.5" font-family="Helvetica,sans-Serif" font-size="10.00">Cpl::Dm::ModelPoint</text>
</a>
</g>
</g>
<!-- Node5&#45;&gt;Node6 -->
<g id="edge6_Node000006_Node000005" class="edge">
<title>Node5&#45;&gt;Node6</title>
<g id="a_edge6_Node000006_Node000005"><a xlink:title=" ">
<path fill="none" stroke="#63b8ff" d="M115.16,-333.23C121.5,-334.28 127.88,-335.23 134,-336 277.5,-354.03 447.74,-361.57 534.67,-364.44"/>
<polygon fill="#63b8ff" stroke="#63b8ff" points="115.72,-329.78 105.27,-331.53 114.53,-336.68 115.72,-329.78"/>
</a>
</g>
</g>
<!-- Node11 -->
<g id="Node000011" class="node">
<title>Node11</title>
<g id="a_Node000011"><a xlink:href="class_cpl_1_1_system_1_1_signable.html" target="_top" xlink:title="This abstract class defines the interface by which a client can cause an object that is waiting&#45;on&#45;a&#45;...">
<polygon fill="white" stroke="#666666" points="484,-195.5 361,-195.5 361,-176.5 484,-176.5 484,-195.5"/>
<text text-anchor="middle" x="422.5" y="-183.5" font-family="Helvetica,sans-Serif" font-size="10.00">Cpl::System::Signable</text>
</a>
</g>
</g>
<!-- Node5&#45;&gt;Node11 -->
<g id="edge12_Node000011_Node000005" class="edge">
<title>Node5&#45;&gt;Node11</title>
<g id="a_edge12_Node000011_Node000005"><a xlink:title=" ">
<path fill="none" stroke="#63b8ff" d="M94.12,-308.82C166.86,-281.54 332.5,-219.39 396.04,-195.55"/>
<polygon fill="#63b8ff" stroke="#63b8ff" points="92.62,-305.65 84.49,-312.44 95.08,-312.2 92.62,-305.65"/>
</a>
</g>
</g>
<!-- Node6&#45;&gt;Node2 -->
<g id="edge5_Node000002_Node000006" class="edge">
<title>Node6&#45;&gt;Node2</title>
<g id="a_edge5_Node000002_Node000006"><a xlink:title=" ">
<path fill="none" stroke="#9a32cd" stroke-dasharray="5,2" d="M661.2,-366.66C725.85,-367.25 826.36,-368 913.5,-368 913.5,-368 913.5,-368 1368.5,-368 1446.83,-368 1536.87,-345 1582.91,-331.53"/>
<polygon fill="#9a32cd" stroke="#9a32cd" points="661.17,-363.16 651.14,-366.57 661.1,-370.16 661.17,-363.16"/>
</a>
</g>
<text text-anchor="middle" x="1077.5" y="-371" font-family="Helvetica,sans-Serif" font-size="10.00" fill="grey"> m_point</text>
</g>
<!-- Node7 -->
<g id="Node000007" class="node">
<title>Node7</title>
<g id="a_Node000007"><a xlink:href="class_cpl_1_1_dm_1_1_event_loop.html" target="_top" xlink:title="This class extends the Cpl::System::EventLoop class to support the asynchronous change notification g...">
<polygon fill="white" stroke="#666666" points="1424,-204.5 1311,-204.5 1311,-185.5 1424,-185.5 1424,-204.5"/>
<text text-anchor="middle" x="1367.5" y="-192.5" font-family="Helvetica,sans-Serif" font-size="10.00">Cpl::Dm::EventLoop</text>
</a>
</g>
</g>
<!-- Node7&#45;&gt;Node2 -->
<g id="edge7_Node000002_Node000007" class="edge">
<title>Node7&#45;&gt;Node2</title>
<g id="a_edge7_Node000002_Node000007"><a xlink:title=" ">
<path fill="none" stroke="#9a32cd" stroke-dasharray="5,2" d="M1395.92,-209.21C1446.22,-235.29 1552.01,-290.12 1594.87,-312.34"/>
<polygon fill="#9a32cd" stroke="#9a32cd" points="1397.4,-206.04 1386.91,-204.55 1394.18,-212.26 1397.4,-206.04"/>
</a>
</g>
<text text-anchor="middle" x="1485" y="-280" font-family="Helvetica,sans-Serif" font-size="10.00" fill="grey"> m_eventLoopHdl</text>
</g>
<!-- Node8 -->
<g id="Node000008" class="node">
<title>Node8</title>
<g id="a_Node000008"><a xlink:href="class_cpl_1_1_system_1_1_event_loop.html" target="_top" xlink:title="This concrete class is a Runnable object that provides a event driven execution model for a thread.">
<polygon fill="white" stroke="#666666" points="1143.5,-182.5 1011.5,-182.5 1011.5,-163.5 1143.5,-163.5 1143.5,-182.5"/>
<text text-anchor="middle" x="1077.5" y="-170.5" font-family="Helvetica,sans-Serif" font-size="10.00">Cpl::System::EventLoop</text>
</a>
</g>
</g>
<!-- Node8&#45;&gt;Node7 -->
<g id="edge8_Node000007_Node000008" class="edge">
<title>Node8&#45;&gt;Node7</title>
<g id="a_edge8_Node000007_Node000008"><a xlink:title=" ">
<path fill="none" stroke="#63b8ff" d="M1154.1,-178.78C1203.18,-182.52 1266.05,-187.33 1310.63,-190.73"/>
<polygon fill="#63b8ff" stroke="#63b8ff" points="1154.09,-175.26 1143.85,-177.99 1153.56,-182.24 1154.09,-175.26"/>
</a>
</g>
</g>
<!-- Node9 -->
<g id="Node000009" class="node">
<title>Node9</title>
<g id="a_Node000009"><a xlink:href="class_cpl_1_1_system_1_1_runnable.html" target="_top" xlink:title="This is an abstract class defines the interface for an object that is &quot;executed&quot; when a Thread object...">
<polygon fill="white" stroke="#666666" points="808.5,-293.5 681.5,-293.5 681.5,-274.5 808.5,-274.5 808.5,-293.5"/>
<text text-anchor="middle" x="745" y="-281.5" font-family="Helvetica,sans-Serif" font-size="10.00">Cpl::System::Runnable</text>
</a>
</g>
</g>
<!-- Node9&#45;&gt;Node8 -->
<g id="edge9_Node000008_Node000009" class="edge">
<title>Node9&#45;&gt;Node8</title>
<g id="a_edge9_Node000008_Node000009"><a xlink:title=" ">
<path fill="none" stroke="#63b8ff" d="M818.76,-291.86C872.09,-293.54 943.07,-286.73 990,-247 1009.63,-230.38 989.4,-209.77 1008,-192 1012.02,-188.16 1016.74,-185.09 1021.79,-182.63"/>
<polygon fill="#63b8ff" stroke="#63b8ff" points="818.82,-288.36 808.68,-291.43 818.52,-295.35 818.82,-288.36"/>
</a>
</g>
</g>
<!-- Node10 -->
<g id="Node000010" class="node">
<title>Node10</title>
<g id="a_Node000010"><a xlink:href="class_cpl_1_1_system_1_1_event_flag.html" target="_top" xlink:title="This abstract class defines the interface to generated a &#39;Event Flag&#39;.">
<polygon fill="white" stroke="#666666" points="810,-256.5 680,-256.5 680,-237.5 810,-237.5 810,-256.5"/>
<text text-anchor="middle" x="745" y="-244.5" font-family="Helvetica,sans-Serif" font-size="10.00">Cpl::System::EventFlag</text>
</a>
</g>
</g>
<!-- Node10&#45;&gt;Node8 -->
<g id="edge10_Node000008_Node000010" class="edge">
<title>Node10&#45;&gt;Node8</title>
<g id="a_edge10_Node000008_Node000010"><a xlink:title=" ">
<path fill="none" stroke="#63b8ff" d="M820.5,-252.2C871.46,-252.39 938.81,-245.78 990,-216 1001.53,-209.3 996.99,-199.52 1008,-192 1013.71,-188.1 1020.2,-185 1026.85,-182.54"/>
<polygon fill="#63b8ff" stroke="#63b8ff" points="820.25,-248.69 810.21,-252.06 820.16,-255.69 820.25,-248.69"/>
</a>
</g>
</g>
<!-- Node11&#45;&gt;Node8 -->
<g id="edge11_Node000008_Node000011" class="edge">
<title>Node11&#45;&gt;Node8</title>
<g id="a_edge11_Node000008_Node000011"><a xlink:title=" ">
<path fill="none" stroke="#63b8ff" d="M490.23,-174.92C539.48,-167.33 608.21,-157.95 669,-154 789.68,-146.17 930.66,-157.24 1011.18,-165.48"/>
<polygon fill="#63b8ff" stroke="#63b8ff" points="489.68,-171.47 480.34,-176.46 490.76,-178.38 489.68,-171.47"/>
</a>
</g>
</g>
<!-- Node16 -->
<g id="Node000016" class="node">
<title>Node16</title>
<g id="a_Node000016"><a xlink:href="class_cpl_1_1_system_1_1_thread.html" target="_top" xlink:title="This abstract class defines the operations that can be performed on a thread.">
<polygon fill="white" stroke="#666666" points="802.5,-219.5 687.5,-219.5 687.5,-200.5 802.5,-200.5 802.5,-219.5"/>
<text text-anchor="middle" x="745" y="-207.5" font-family="Helvetica,sans-Serif" font-size="10.00">Cpl::System::Thread</text>
</a>
</g>
</g>
<!-- Node11&#45;&gt;Node16 -->
<g id="edge18_Node000016_Node000011" class="edge">
<title>Node11&#45;&gt;Node16</title>
<g id="a_edge18_Node000016_Node000011"><a xlink:title=" ">
<path fill="none" stroke="#63b8ff" d="M494.36,-191.31C552.43,-195.65 633.53,-201.73 687.35,-205.76"/>
<polygon fill="#63b8ff" stroke="#63b8ff" points="494.39,-187.8 484.16,-190.54 493.87,-194.78 494.39,-187.8"/>
</a>
</g>
</g>
<!-- Node18 -->
<g id="Node000018" class="node">
<title>Node18</title>
<g id="a_Node000018"><a xlink:href="class_cpl_1_1_system_1_1_semaphore.html" target="_top" xlink:title="This semaphore class defines the interface for a Counting Semaphore.">
<polygon fill="white" stroke="#666666" points="813.5,-182.5 676.5,-182.5 676.5,-163.5 813.5,-163.5 813.5,-182.5"/>
<text text-anchor="middle" x="745" y="-170.5" font-family="Helvetica,sans-Serif" font-size="10.00">Cpl::System::Semaphore</text>
</a>
</g>
</g>
<!-- Node11&#45;&gt;Node18 -->
<g id="edge21_Node000018_Node000011" class="edge">
<title>Node11&#45;&gt;Node18</title>
<g id="a_edge21_Node000018_Node000011"><a xlink:title=" ">
<path fill="none" stroke="#63b8ff" d="M494.39,-183.12C548.63,-180.92 622.96,-177.91 676.38,-175.74"/>
<polygon fill="#63b8ff" stroke="#63b8ff" points="494.01,-179.64 484.16,-183.54 494.29,-186.63 494.01,-179.64"/>
</a>
</g>
</g>
<!-- Node12 -->
<g id="Node000012" class="node">
<title>Node12</title>
<g id="a_Node000012"><a xlink:href="class_cpl_1_1_system_1_1_timer_manager.html" target="_top" xlink:title="This mostly concrete class implements manages a list of Software Timers.">
<polygon fill="white" stroke="#666666" points="821,-58.5 669,-58.5 669,-39.5 821,-39.5 821,-58.5"/>
<text text-anchor="middle" x="745" y="-46.5" font-family="Helvetica,sans-Serif" font-size="10.00">Cpl::System::TimerManager</text>
</a>
</g>
</g>
<!-- Node12&#45;&gt;Node8 -->
<g id="edge13_Node000008_Node000012" class="edge">
<title>Node12&#45;&gt;Node8</title>
<g id="a_edge13_Node000008_Node000012"><a xlink:title=" ">
<path fill="none" stroke="#63b8ff" d="M831.24,-47.85C880.06,-50.37 941.14,-59.11 990,-84 1009.2,-93.78 1051.2,-142.6 1068.65,-163.49"/>
<polygon fill="#63b8ff" stroke="#63b8ff" points="831.16,-44.34 821.01,-47.4 830.85,-51.33 831.16,-44.34"/>
</a>
</g>
</g>
<!-- Node13 -->
<g id="Node000013" class="node">
<title>Node13</title>
<g id="a_Node000013"><a xlink:href="class_cpl_1_1_system_1_1_counter_source__.html" target="_top" xlink:title="This abstract class defines the interface for registering for an Counter object with the Timer Manage...">
<polygon fill="white" stroke="#666666" points="501.5,-58.5 343.5,-58.5 343.5,-39.5 501.5,-39.5 501.5,-58.5"/>
<text text-anchor="middle" x="422.5" y="-46.5" font-family="Helvetica,sans-Serif" font-size="10.00">Cpl::System::CounterSource_</text>
</a>
</g>
</g>
<!-- Node13&#45;&gt;Node12 -->
<g id="edge14_Node000012_Node000013" class="edge">
<title>Node13&#45;&gt;Node12</title>
<g id="a_edge14_Node000012_Node000013"><a xlink:title=" ">
<path fill="none" stroke="#63b8ff" d="M511.92,-49C561.2,-49 621.92,-49 668.89,-49"/>
<polygon fill="#63b8ff" stroke="#63b8ff" points="511.9,-45.5 501.9,-49 511.9,-52.5 511.9,-45.5"/>
</a>
</g>
</g>
<!-- Node14 -->
<g id="Node000014" class="node">
<title>Node14</title>
<g id="a_Node000014"><a xlink:href="class_cpl_1_1_container_1_1_d_list.html" target="_top" xlink:title=" ">
<polygon fill="white" stroke="#666666" points="517,-107 328,-107 328,-77 517,-77 517,-107"/>
<text text-anchor="start" x="336" y="-95" font-family="Helvetica,sans-Serif" font-size="10.00">Cpl::Container::DList</text>
<text text-anchor="middle" x="422.5" y="-84" font-family="Helvetica,sans-Serif" font-size="10.00">&lt; Cpl::System::CounterCallback_ &gt;</text>
</a>
</g>
</g>
<!-- Node14&#45;&gt;Node12 -->
<g id="edge15_Node000012_Node000014" class="edge">
<title>Node14&#45;&gt;Node12</title>
<g id="a_edge15_Node000012_Node000014"><a xlink:title=" ">
<path fill="none" stroke="#9a32cd" stroke-dasharray="5,2" d="M527.36,-79.26C566.18,-74.37 610.63,-68.61 651,-63 661.03,-61.61 671.65,-60.07 682,-58.53"/>
<polygon fill="#9a32cd" stroke="#9a32cd" points="526.58,-75.83 517.09,-80.55 527.45,-82.78 526.58,-75.83"/>
</a>
</g>
<text text-anchor="middle" x="593" y="-92" font-family="Helvetica,sans-Serif" font-size="10.00" fill="grey"> m_counters</text>
<text text-anchor="middle" x="593" y="-81" font-family="Helvetica,sans-Serif" font-size="10.00" fill="grey">m_pendingAttach</text>
</g>
<!-- Node15 -->
<g id="Node000015" class="node">
<title>Node15</title>
<g id="a_Node000015"><a xlink:href="class_cpl_1_1_container_1_1_d_list.html" target="_top" xlink:title="This template class implements a Doubly linked list which maintains the ordering imposed on it by the...">
<polygon fill="white" stroke="#666666" points="116,-46 0,-46 0,-16 116,-16 116,-46"/>
<text text-anchor="start" x="8" y="-34" font-family="Helvetica,sans-Serif" font-size="10.00">Cpl::Container::DList</text>
<text text-anchor="middle" x="58" y="-23" font-family="Helvetica,sans-Serif" font-size="10.00">&lt; ITEM &gt;</text>
</a>
</g>
</g>
<!-- Node15&#45;&gt;Node14 -->
<g id="edge16_Node000014_Node000015" class="edge">
<title>Node15&#45;&gt;Node14</title>
<g id="a_edge16_Node000014_Node000015"><a xlink:title=" ">
<path fill="none" stroke="orange" stroke-dasharray="5,2" d="M126.2,-42.31C184.27,-52.08 268.63,-66.28 332.33,-76.99"/>
<polygon fill="orange" stroke="orange" points="126.48,-38.81 116.04,-40.6 125.32,-45.71 126.48,-38.81"/>
</a>
</g>
<text text-anchor="middle" x="222" y="-76" font-family="Helvetica,sans-Serif" font-size="10.00" fill="grey"> &lt; Cpl::System::CounterCallback_ &gt;</text>
</g>
<!-- Node20 -->
<g id="Node000020" class="node">
<title>Node20</title>
<g id="a_Node000020"><a xlink:href="class_cpl_1_1_container_1_1_d_list.html" target="_top" xlink:title=" ">
<polygon fill="white" stroke="#666666" points="990,-30 839,-30 839,0 990,0 990,-30"/>
<text text-anchor="start" x="847" y="-18" font-family="Helvetica,sans-Serif" font-size="10.00">Cpl::Container::DList</text>
<text text-anchor="middle" x="914.5" y="-7" font-family="Helvetica,sans-Serif" font-size="10.00">&lt; Cpl::Dm::SubscriberApi &gt;</text>
</a>
</g>
</g>
<!-- Node15&#45;&gt;Node20 -->
<g id="edge24_Node000020_Node000015" class="edge">
<title>Node15&#45;&gt;Node20</title>
<g id="a_edge24_Node000020_Node000015"><a xlink:title=" ">
<path fill="none" stroke="orange" stroke-dasharray="5,2" d="M126.38,-27.29C180.78,-24.46 259.29,-20.77 328,-19 511.42,-14.28 727.26,-14.23 838.62,-14.61"/>
<polygon fill="orange" stroke="orange" points="125.98,-23.8 116.18,-27.82 126.35,-30.79 125.98,-23.8"/>
</a>
</g>
<text text-anchor="middle" x="422.5" y="-22" font-family="Helvetica,sans-Serif" font-size="10.00" fill="grey"> &lt; Cpl::Dm::SubscriberApi &gt;</text>
</g>
<!-- Node16&#45;&gt;Node8 -->
<g id="edge17_Node000008_Node000016" class="edge">
<title>Node16&#45;&gt;Node8</title>
<g id="a_edge17_Node000008_Node000016"><a xlink:title=" ">
<path fill="none" stroke="#9a32cd" stroke-dasharray="5,2" d="M812.96,-204.34C862.05,-199.97 930.25,-193.42 990,-186 998.29,-184.97 1007.01,-183.78 1015.59,-182.55"/>
<polygon fill="#9a32cd" stroke="#9a32cd" points="812.44,-200.87 802.79,-205.24 813.06,-207.85 812.44,-200.87"/>
</a>
</g>
<text text-anchor="middle" x="914.5" y="-204" font-family="Helvetica,sans-Serif" font-size="10.00" fill="grey"> m_myThreadPtr</text>
</g>
<!-- Node17 -->
<g id="Node000017" class="node">
<title>Node17</title>
<g id="a_Node000017"><a xlink:href="class_cpl_1_1_system_1_1_shared_event_handler_api.html" target="_top" xlink:title="This abstract class defines the interface for a Shared Event Handler.">
<polygon fill="white" stroke="#666666" points="816.5,-107 673.5,-107 673.5,-77 816.5,-77 816.5,-107"/>
<text text-anchor="start" x="681.5" y="-95" font-family="Helvetica,sans-Serif" font-size="10.00">Cpl::System::SharedEvent</text>
<text text-anchor="middle" x="745" y="-84" font-family="Helvetica,sans-Serif" font-size="10.00">HandlerApi</text>
</a>
</g>
</g>
<!-- Node17&#45;&gt;Node8 -->
<g id="edge19_Node000008_Node000017" class="edge">
<title>Node17&#45;&gt;Node8</title>
<g id="a_edge19_Node000008_Node000017"><a xlink:title=" ">
<path fill="none" stroke="#9a32cd" stroke-dasharray="5,2" d="M826.68,-86.98C875.38,-86.59 937.88,-90.88 990,-110 1021.74,-121.64 1052.07,-148.57 1066.95,-163.17"/>
<polygon fill="#9a32cd" stroke="#9a32cd" points="826.45,-83.48 816.5,-87.12 826.56,-90.48 826.45,-83.48"/>
</a>
</g>
<text text-anchor="middle" x="914.5" y="-113" font-family="Helvetica,sans-Serif" font-size="10.00" fill="grey"> m_eventHandler</text>
</g>
<!-- Node18&#45;&gt;Node8 -->
<g id="edge20_Node000008_Node000018" class="edge">
<title>Node18&#45;&gt;Node8</title>
<g id="a_edge20_Node000008_Node000018"><a xlink:title=" ">
<path fill="none" stroke="#9a32cd" stroke-dasharray="5,2" d="M823.75,-173C880.86,-173 957.56,-173 1011.44,-173"/>
<polygon fill="#9a32cd" stroke="#9a32cd" points="823.68,-169.5 813.68,-173 823.68,-176.5 823.68,-169.5"/>
</a>
</g>
<text text-anchor="middle" x="914.5" y="-176" font-family="Helvetica,sans-Serif" font-size="10.00" fill="grey"> m_sema</text>
</g>
<!-- Node19 -->
<g id="Node000019" class="node">
<title>Node19</title>
<g id="a_Node000019"><a xlink:href="class_cpl_1_1_dm_1_1_notification_api__.html" target="_top" xlink:title="This class has PACKAGE Scope, i.e.">
<polygon fill="white" stroke="#666666" points="1147,-219.5 1008,-219.5 1008,-200.5 1147,-200.5 1147,-219.5"/>
<text text-anchor="middle" x="1077.5" y="-207.5" font-family="Helvetica,sans-Serif" font-size="10.00">Cpl::Dm::NotificationApi_</text>
</a>
</g>
</g>
<!-- Node19&#45;&gt;Node7 -->
<g id="edge22_Node000007_Node000019" class="edge">
<title>Node19&#45;&gt;Node7</title>
<g id="a_edge22_Node000007_Node000019"><a xlink:title=" ">
<path fill="none" stroke="#63b8ff" d="M1157.31,-205.9C1206.01,-203.36 1267.32,-200.17 1310.95,-197.89"/>
<polygon fill="#63b8ff" stroke="#63b8ff" points="1156.92,-202.41 1147.12,-206.43 1157.29,-209.4 1156.92,-202.41"/>
</a>
</g>
</g>
<!-- Node20&#45;&gt;Node7 -->
<g id="edge23_Node000007_Node000020" class="edge">
<title>Node20&#45;&gt;Node7</title>
<g id="a_edge23_Node000007_Node000020"><a xlink:title=" ">
<path fill="none" stroke="#9a32cd" stroke-dasharray="5,2" d="M962.58,-33.79C1057.95,-71.85 1271,-156.89 1342.55,-185.44"/>
<polygon fill="#9a32cd" stroke="#9a32cd" points="963.76,-30.49 953.18,-30.04 961.17,-36.99 963.76,-30.49"/>
</a>
</g>
<text text-anchor="middle" x="1077.5" y="-108" font-family="Helvetica,sans-Serif" font-size="10.00" fill="grey"> m_pendingMpNotifications</text>
</g>
</g>
</svg>
