<?xml version="1.0" encoding="UTF-8" standalone="no"?>
<!DOCTYPE svg PUBLIC "-//W3C//DTD SVG 1.1//EN"
 "http://www.w3.org/Graphics/SVG/1.1/DTD/svg11.dtd">
<!-- Generated by graphviz version 2.43.0 (0)
 -->
<!-- Title: Cpl::MApp::MApp_ Pages: 1 -->
<svg width="124pt" height="137pt"
 viewBox="0.00 0.00 124.00 137.00" xmlns="http://www.w3.org/2000/svg" xmlns:xlink="http://www.w3.org/1999/xlink">
<g id="graph0" class="graph" transform="scale(1 1) rotate(0) translate(4 133)">
<title>Cpl::MApp::MApp_</title>
<!-- Node1 -->
<g id="Node000001" class="node">
<title>Node1</title>
<g id="a_Node000001"><a xlink:title="This partial concrete class provide common infrastructure that is common to all MApp instances.">
<polygon fill="#999999" stroke="#666666" points="110.5,-19 5.5,-19 5.5,0 110.5,0 110.5,-19"/>
<text text-anchor="middle" x="58" y="-7" font-family="Helvetica,sans-Serif" font-size="10.00">Cpl::MApp::MApp_</text>
</a>
</g>
</g>
<!-- Node2 -->
<g id="Node000002" class="node">
<title>Node2</title>
<g id="a_Node000002"><a xlink:href="class_cpl_1_1_m_app_1_1_m_app_api.html" target="_top" xlink:title="This abstract class defines the interface for a Micro Application (MApp).">
<polygon fill="white" stroke="#666666" points="116,-74 0,-74 0,-55 116,-55 116,-74"/>
<text text-anchor="middle" x="58" y="-62" font-family="Helvetica,sans-Serif" font-size="10.00">Cpl::MApp::MAppApi</text>
</a>
</g>
</g>
<!-- Node2&#45;&gt;Node1 -->
<g id="edge1_Node000001_Node000002" class="edge">
<title>Node2&#45;&gt;Node1</title>
<g id="a_edge1_Node000001_Node000002"><a xlink:title=" ">
<path fill="none" stroke="#63b8ff" d="M58,-44.66C58,-35.93 58,-25.99 58,-19.09"/>
<polygon fill="#63b8ff" stroke="#63b8ff" points="54.5,-44.75 58,-54.75 61.5,-44.75 54.5,-44.75"/>
</a>
</g>
</g>
<!-- Node3 -->
<g id="Node000003" class="node">
<title>Node3</title>
<g id="a_Node000003"><a xlink:href="class_cpl_1_1_container_1_1_item.html" target="_top" xlink:title="This class is used by the Container classes to implement a various types of singly linked containers.">
<polygon fill="white" stroke="#666666" points="115,-129 1,-129 1,-110 115,-110 115,-129"/>
<text text-anchor="middle" x="58" y="-117" font-family="Helvetica,sans-Serif" font-size="10.00">Cpl::Container::Item</text>
</a>
</g>
</g>
<!-- Node3&#45;&gt;Node2 -->
<g id="edge2_Node000002_Node000003" class="edge">
<title>Node3&#45;&gt;Node2</title>
<g id="a_edge2_Node000002_Node000003"><a xlink:title=" ">
<path fill="none" stroke="#63b8ff" d="M58,-99.66C58,-90.93 58,-80.99 58,-74.09"/>
<polygon fill="#63b8ff" stroke="#63b8ff" points="54.5,-99.75 58,-109.75 61.5,-99.75 54.5,-99.75"/>
</a>
</g>
</g>
</g>
</svg>
