<?xml version="1.0" encoding="UTF-8" standalone="no"?>
<!DOCTYPE svg PUBLIC "-//W3C//DTD SVG 1.1//EN"
 "http://www.w3.org/Graphics/SVG/1.1/DTD/svg11.dtd">
<!-- Generated by graphviz version 2.43.0 (0)
 -->
<!-- Title: Cpl::Io::Input Pages: 1 -->
<svg width="881pt" height="383pt"
 viewBox="0.00 0.00 881.00 383.00" xmlns="http://www.w3.org/2000/svg" xmlns:xlink="http://www.w3.org/1999/xlink">
<g id="graph0" class="graph" transform="scale(1 1) rotate(0) translate(4 379)">
<title>Cpl::Io::Input</title>
<!-- Node1 -->
<g id="Node000001" class="node">
<title>Node1</title>
<g id="a_Node000001"><a xlink:title="This partially abstract class defines a interface for operating on an input stream (example of a stre...">
<polygon fill="#999999" stroke="#666666" points="344,-173 266,-173 266,-154 344,-154 344,-173"/>
<text text-anchor="middle" x="305" y="-161" font-family="Helvetica,sans-Serif" font-size="10.00">Cpl::Io::Input</text>
</a>
</g>
</g>
<!-- Node5 -->
<g id="Node000005" class="node">
<title>Node5</title>
<g id="a_Node000005"><a xlink:href="class_cpl_1_1_io_1_1_file_1_1_input_api.html" target="_top" xlink:title="This abstract class defines the interface for a Random Access Input File.">
<polygon fill="white" stroke="#666666" points="497,-338 380,-338 380,-319 497,-319 497,-338"/>
<text text-anchor="middle" x="438.5" y="-326" font-family="Helvetica,sans-Serif" font-size="10.00">Cpl::Io::File::InputApi</text>
</a>
</g>
</g>
<!-- Node1&#45;&gt;Node5 -->
<g id="edge4_Node000001_Node000005" class="edge">
<title>Node1&#45;&gt;Node5</title>
<g id="a_edge4_Node000001_Node000005"><a xlink:title=" ">
<path fill="none" stroke="#63b8ff" d="M320.12,-181.22C347.84,-216 408.51,-292.13 429.87,-318.93"/>
<polygon fill="#63b8ff" stroke="#63b8ff" points="322.8,-178.97 313.83,-173.33 317.33,-183.33 322.8,-178.97"/>
</a>
</g>
</g>
<!-- Node10 -->
<g id="Node000010" class="node">
<title>Node10</title>
<g id="a_Node000010"><a xlink:href="class_cpl_1_1_io_1_1_input_output.html" target="_top" xlink:title="This abstract class defines a interface for operating on an input&#45;output stream (example of a stream ...">
<polygon fill="white" stroke="#666666" points="494,-173 383,-173 383,-154 494,-154 494,-173"/>
<text text-anchor="middle" x="438.5" y="-161" font-family="Helvetica,sans-Serif" font-size="10.00">Cpl::Io::InputOutput</text>
</a>
</g>
</g>
<!-- Node1&#45;&gt;Node10 -->
<g id="edge9_Node000001_Node000010" class="edge">
<title>Node1&#45;&gt;Node10</title>
<g id="a_edge9_Node000001_Node000010"><a xlink:title=" ">
<path fill="none" stroke="#63b8ff" d="M354.29,-163.5C363.61,-163.5 373.42,-163.5 382.92,-163.5"/>
<polygon fill="#63b8ff" stroke="#63b8ff" points="354.04,-160 344.04,-163.5 354.04,-167 354.04,-160"/>
</a>
</g>
</g>
<!-- Node20 -->
<g id="Node000020" class="node">
<title>Node20</title>
<g id="a_Node000020"><a xlink:href="class_cpl_1_1_io_1_1_stdio_1_1_input__.html" target="_top" xlink:title="This concrete class implements a Input stream using the underlying platform&#39;s native OS &#39;file interfa...">
<polygon fill="white" stroke="#666666" points="495.5,-78 381.5,-78 381.5,-59 495.5,-59 495.5,-78"/>
<text text-anchor="middle" x="438.5" y="-66" font-family="Helvetica,sans-Serif" font-size="10.00">Cpl::Io::Stdio::Input_</text>
</a>
</g>
</g>
<!-- Node1&#45;&gt;Node20 -->
<g id="edge19_Node000001_Node000020" class="edge">
<title>Node1&#45;&gt;Node20</title>
<g id="a_edge19_Node000001_Node000020"><a xlink:title=" ">
<path fill="none" stroke="#63b8ff" d="M327.77,-147.77C355.21,-127.95 401.52,-94.49 424.19,-78.11"/>
<polygon fill="#63b8ff" stroke="#63b8ff" points="325.63,-145 319.58,-153.69 329.73,-150.67 325.63,-145"/>
</a>
</g>
</g>
<!-- Node2 -->
<g id="Node000002" class="node">
<title>Node2</title>
<g id="a_Node000002"><a xlink:href="class_cpl_1_1_io_1_1_close.html" target="_top" xlink:title="This abstract class defines a close operation that is intended to be used Input and Output streams/fi...">
<polygon fill="white" stroke="#666666" points="230,-192 150,-192 150,-173 230,-173 230,-192"/>
<text text-anchor="middle" x="190" y="-180" font-family="Helvetica,sans-Serif" font-size="10.00">Cpl::Io::Close</text>
</a>
</g>
</g>
<!-- Node2&#45;&gt;Node1 -->
<g id="edge1_Node000001_Node000002" class="edge">
<title>Node2&#45;&gt;Node1</title>
<g id="a_edge1_Node000001_Node000002"><a xlink:title=" ">
<path fill="none" stroke="#63b8ff" d="M240.09,-174.25C248.64,-172.81 257.42,-171.33 265.63,-169.95"/>
<polygon fill="#63b8ff" stroke="#63b8ff" points="239.49,-170.8 230.2,-175.91 240.65,-177.7 239.49,-170.8"/>
</a>
</g>
</g>
<!-- Node3 -->
<g id="Node000003" class="node">
<title>Node3</title>
<g id="a_Node000003"><a xlink:href="class_cpl_1_1_container_1_1_item.html" target="_top" xlink:title="This class is used by the Container classes to implement a various types of singly linked containers.">
<polygon fill="white" stroke="#666666" points="114,-192 0,-192 0,-173 114,-173 114,-192"/>
<text text-anchor="middle" x="57" y="-180" font-family="Helvetica,sans-Serif" font-size="10.00">Cpl::Container::Item</text>
</a>
</g>
</g>
<!-- Node3&#45;&gt;Node2 -->
<g id="edge2_Node000002_Node000003" class="edge">
<title>Node3&#45;&gt;Node2</title>
<g id="a_edge2_Node000002_Node000003"><a xlink:title=" ">
<path fill="none" stroke="#63b8ff" d="M124.44,-182.5C133.09,-182.5 141.72,-182.5 149.72,-182.5"/>
<polygon fill="#63b8ff" stroke="#63b8ff" points="124.32,-179 114.32,-182.5 124.32,-186 124.32,-179"/>
</a>
</g>
</g>
<!-- Node4 -->
<g id="Node000004" class="node">
<title>Node4</title>
<g id="a_Node000004"><a xlink:href="class_cpl_1_1_io_1_1_is_eos.html" target="_top" xlink:title="This abstract class defines a isEos() operation that is intended to be used Input and Output streams.">
<polygon fill="white" stroke="#666666" points="229.5,-155 150.5,-155 150.5,-136 229.5,-136 229.5,-155"/>
<text text-anchor="middle" x="190" y="-143" font-family="Helvetica,sans-Serif" font-size="10.00">Cpl::Io::IsEos</text>
</a>
</g>
</g>
<!-- Node4&#45;&gt;Node1 -->
<g id="edge3_Node000001_Node000004" class="edge">
<title>Node4&#45;&gt;Node1</title>
<g id="a_edge3_Node000001_Node000004"><a xlink:title=" ">
<path fill="none" stroke="#63b8ff" d="M239.72,-153.26C248.51,-154.66 257.56,-156.1 265.98,-157.44"/>
<polygon fill="#63b8ff" stroke="#63b8ff" points="240,-149.76 229.57,-151.64 238.9,-156.67 240,-149.76"/>
</a>
</g>
</g>
<!-- Node6 -->
<g id="Node000006" class="node">
<title>Node6</title>
<g id="a_Node000006"><a xlink:href="class_cpl_1_1_io_1_1_file_1_1_input.html" target="_top" xlink:title="This concrete class provides a platform independent &#39;standard&#39; implementation of a Cpl::Io::File::Inp...">
<polygon fill="white" stroke="#666666" points="658.5,-375 557.5,-375 557.5,-356 658.5,-356 658.5,-375"/>
<text text-anchor="middle" x="608" y="-363" font-family="Helvetica,sans-Serif" font-size="10.00">Cpl::Io::File::Input</text>
</a>
</g>
</g>
<!-- Node5&#45;&gt;Node6 -->
<g id="edge5_Node000005_Node000006" class="edge">
<title>Node5&#45;&gt;Node6</title>
<g id="a_edge5_Node000005_Node000006"><a xlink:title=" ">
<path fill="none" stroke="#63b8ff" d="M492.56,-340.22C515.5,-345.29 542,-351.14 563.72,-355.94"/>
<polygon fill="#63b8ff" stroke="#63b8ff" points="493.15,-336.77 482.64,-338.03 491.65,-343.6 493.15,-336.77"/>
</a>
</g>
</g>
<!-- Node7 -->
<g id="Node000007" class="node">
<title>Node7</title>
<g id="a_Node000007"><a xlink:href="class_cpl_1_1_io_1_1_file_1_1_input_output_api.html" target="_top" xlink:title="This abstract class defines the interface for a Random Access Input Output File.">
<polygon fill="white" stroke="#666666" points="683,-338 533,-338 533,-319 683,-319 683,-338"/>
<text text-anchor="middle" x="608" y="-326" font-family="Helvetica,sans-Serif" font-size="10.00">Cpl::Io::File::InputOutputApi</text>
</a>
</g>
</g>
<!-- Node5&#45;&gt;Node7 -->
<g id="edge6_Node000005_Node000007" class="edge">
<title>Node5&#45;&gt;Node7</title>
<g id="a_edge6_Node000005_Node000007"><a xlink:title=" ">
<path fill="none" stroke="#63b8ff" d="M507.32,-328.5C515.77,-328.5 524.44,-328.5 532.98,-328.5"/>
<polygon fill="#63b8ff" stroke="#63b8ff" points="507.14,-325 497.14,-328.5 507.14,-332 507.14,-325"/>
</a>
</g>
</g>
<!-- Node8 -->
<g id="Node000008" class="node">
<title>Node8</title>
<g id="a_Node000008"><a xlink:href="class_cpl_1_1_io_1_1_file_1_1_input_output.html" target="_top" xlink:title="This concrete class provides a platform independent &#39;standard&#39; implementation of an InputOutputFileAp...">
<polygon fill="white" stroke="#666666" points="863,-356 729,-356 729,-337 863,-337 863,-356"/>
<text text-anchor="middle" x="796" y="-344" font-family="Helvetica,sans-Serif" font-size="10.00">Cpl::Io::File::InputOutput</text>
</a>
</g>
</g>
<!-- Node7&#45;&gt;Node8 -->
<g id="edge7_Node000007_Node000008" class="edge">
<title>Node7&#45;&gt;Node8</title>
<g id="a_edge7_Node000007_Node000008"><a xlink:title=" ">
<path fill="none" stroke="#63b8ff" d="M693.03,-336.63C705,-337.79 717.17,-338.97 728.73,-340.09"/>
<polygon fill="#63b8ff" stroke="#63b8ff" points="693.34,-333.15 683.05,-335.67 692.66,-340.11 693.34,-333.15"/>
</a>
</g>
</g>
<!-- Node9 -->
<g id="Node000009" class="node">
<title>Node9</title>
<g id="a_Node000009"><a xlink:href="class_cpl_1_1_io_1_1_file_1_1_null.html" target="_top" xlink:title="This concrete class implements a NULL InputOutputApi File that all of its input operations return &#39;En...">
<polygon fill="white" stroke="#666666" points="844,-319 748,-319 748,-300 844,-300 844,-319"/>
<text text-anchor="middle" x="796" y="-307" font-family="Helvetica,sans-Serif" font-size="10.00">Cpl::Io::File::Null</text>
</a>
</g>
</g>
<!-- Node7&#45;&gt;Node9 -->
<g id="edge8_Node000007_Node000009" class="edge">
<title>Node7&#45;&gt;Node9</title>
<g id="a_edge8_Node000007_Node000009"><a xlink:title=" ">
<path fill="none" stroke="#63b8ff" d="M693.13,-319.91C711.96,-317.98 731.27,-316.01 747.95,-314.31"/>
<polygon fill="#63b8ff" stroke="#63b8ff" points="692.64,-316.44 683.05,-320.94 693.35,-323.4 692.64,-316.44"/>
</a>
</g>
</g>
<!-- Node11 -->
<g id="Node000011" class="node">
<title>Node11</title>
<g id="a_Node000011"><a xlink:href="class_cpl_1_1_io_1_1_null.html" target="_top" xlink:title="This concrete class implements a NULL InputOutput stream &#45; that all of its input operations return &#39;E...">
<polygon fill="white" stroke="#666666" points="644.5,-301 571.5,-301 571.5,-282 644.5,-282 644.5,-301"/>
<text text-anchor="middle" x="608" y="-289" font-family="Helvetica,sans-Serif" font-size="10.00">Cpl::Io::Null</text>
</a>
</g>
</g>
<!-- Node10&#45;&gt;Node11 -->
<g id="edge10_Node000010_Node000011" class="edge">
<title>Node10&#45;&gt;Node11</title>
<g id="a_edge10_Node000010_Node000011"><a xlink:title=" ">
<path fill="none" stroke="#63b8ff" d="M450.04,-181.99C465.15,-206.76 495.33,-250.28 533,-273.5 544.48,-280.58 558.56,-284.87 571.34,-287.48"/>
<polygon fill="#63b8ff" stroke="#63b8ff" points="452.95,-180.03 444.84,-173.21 446.92,-183.6 452.95,-180.03"/>
</a>
</g>
</g>
<!-- Node12 -->
<g id="Node000012" class="node">
<title>Node12</title>
<g id="a_Node000012"><a xlink:href="class_cpl_1_1_io_1_1_ram_1_1_input_output.html" target="_top" xlink:title="This concrete class implements an InputOutput stream using a Ring Buffer.">
<polygon fill="white" stroke="#666666" points="678,-264 538,-264 538,-245 678,-245 678,-264"/>
<text text-anchor="middle" x="608" y="-252" font-family="Helvetica,sans-Serif" font-size="10.00">Cpl::Io::Ram::InputOutput</text>
</a>
</g>
</g>
<!-- Node10&#45;&gt;Node12 -->
<g id="edge11_Node000010_Node000012" class="edge">
<title>Node10&#45;&gt;Node12</title>
<g id="a_edge11_Node000010_Node000012"><a xlink:title=" ">
<path fill="none" stroke="#63b8ff" d="M456.51,-180.09C474.22,-196.47 503.46,-221.09 533,-235.5 540.87,-239.34 549.6,-242.46 558.22,-244.98"/>
<polygon fill="#63b8ff" stroke="#63b8ff" points="458.9,-177.53 449.23,-173.21 454.09,-182.62 458.9,-177.53"/>
</a>
</g>
</g>
<!-- Node13 -->
<g id="Node000013" class="node">
<title>Node13</title>
<g id="a_Node000013"><a xlink:href="class_cpl_1_1_io_1_1_serial_1_1_phony_stdio_1_1_input_output.html" target="_top" xlink:title="This concrete class implements the InputOutput stream interface built on top the C Library&#39;s fread/fw...">
<polygon fill="white" stroke="#666666" points="679,-226.5 537,-226.5 537,-196.5 679,-196.5 679,-226.5"/>
<text text-anchor="start" x="545" y="-214.5" font-family="Helvetica,sans-Serif" font-size="10.00">Cpl::Io::Serial::PhonyStdio</text>
<text text-anchor="middle" x="608" y="-203.5" font-family="Helvetica,sans-Serif" font-size="10.00">::InputOutput</text>
</a>
</g>
</g>
<!-- Node10&#45;&gt;Node13 -->
<g id="edge12_Node000010_Node000013" class="edge">
<title>Node10&#45;&gt;Node13</title>
<g id="a_edge12_Node000010_Node000013"><a xlink:title=" ">
<path fill="none" stroke="#63b8ff" d="M482.68,-175.87C504.58,-182.15 531.35,-189.82 554.44,-196.44"/>
<polygon fill="#63b8ff" stroke="#63b8ff" points="483.57,-172.49 472.99,-173.1 481.64,-179.22 483.57,-172.49"/>
</a>
</g>
</g>
<!-- Node14 -->
<g id="Node000014" class="node">
<title>Node14</title>
<g id="a_Node000014"><a xlink:href="class_cpl_1_1_io_1_1_serial_1_1_s_t_1_1_m32_f4_1_1_input_output.html" target="_top" xlink:title="This concrete class implements the InputOutput stream interface built on top of ST HAL Layer/SDK.">
<polygon fill="white" stroke="#666666" points="667.5,-178.5 548.5,-178.5 548.5,-148.5 667.5,-148.5 667.5,-178.5"/>
<text text-anchor="start" x="556.5" y="-166.5" font-family="Helvetica,sans-Serif" font-size="10.00">Cpl::Io::Serial::ST</text>
<text text-anchor="middle" x="608" y="-155.5" font-family="Helvetica,sans-Serif" font-size="10.00">::M32F4::InputOutput</text>
</a>
</g>
</g>
<!-- Node10&#45;&gt;Node14 -->
<g id="edge13_Node000010_Node000014" class="edge">
<title>Node10&#45;&gt;Node14</title>
<g id="a_edge13_Node000010_Node000014"><a xlink:title=" ">
<path fill="none" stroke="#63b8ff" d="M504.65,-163.5C519.03,-163.5 534.18,-163.5 548.28,-163.5"/>
<polygon fill="#63b8ff" stroke="#63b8ff" points="504.35,-160 494.35,-163.5 504.35,-167 504.35,-160"/>
</a>
</g>
</g>
<!-- Node15 -->
<g id="Node000015" class="node">
<title>Node15</title>
<g id="a_Node000015"><a xlink:href="class_cpl_1_1_io_1_1_socket_1_1_input_output.html" target="_top" xlink:title="This concrete class provides a platform independent &#39;standard&#39; implementation of an InputOutput strea...">
<polygon fill="white" stroke="#666666" points="682.5,-130 533.5,-130 533.5,-111 682.5,-111 682.5,-130"/>
<text text-anchor="middle" x="608" y="-118" font-family="Helvetica,sans-Serif" font-size="10.00">Cpl::Io::Socket::InputOutput</text>
</a>
</g>
</g>
<!-- Node10&#45;&gt;Node15 -->
<g id="edge14_Node000010_Node000015" class="edge">
<title>Node10&#45;&gt;Node15</title>
<g id="a_edge14_Node000010_Node000015"><a xlink:title=" ">
<path fill="none" stroke="#63b8ff" d="M486.46,-151.44C512.86,-144.67 545.34,-136.33 569.93,-130.02"/>
<polygon fill="#63b8ff" stroke="#63b8ff" points="485.49,-148.08 476.67,-153.96 487.23,-154.86 485.49,-148.08"/>
</a>
</g>
</g>
<!-- Node16 -->
<g id="Node000016" class="node">
<title>Node16</title>
<g id="a_Node000016"><a xlink:href="class_cpl_1_1_io_1_1_stdio_1_1_input_output__.html" target="_top" xlink:title="This concrete class implements a Input&#45;Output stream.">
<polygon fill="white" stroke="#666666" points="681.5,-93 534.5,-93 534.5,-74 681.5,-74 681.5,-93"/>
<text text-anchor="middle" x="608" y="-81" font-family="Helvetica,sans-Serif" font-size="10.00">Cpl::Io::Stdio::InputOutput_</text>
</a>
</g>
</g>
<!-- Node10&#45;&gt;Node16 -->
<g id="edge15_Node000010_Node000016" class="edge">
<title>Node10&#45;&gt;Node16</title>
<g id="a_edge15_Node000010_Node000016"><a xlink:title=" ">
<path fill="none" stroke="#63b8ff" d="M459.17,-147.49C477.33,-133.46 505.55,-113.5 533,-101.5 540.63,-98.16 548.99,-95.38 557.25,-93.08"/>
<polygon fill="#63b8ff" stroke="#63b8ff" points="456.81,-144.9 451.12,-153.84 461.14,-150.4 456.81,-144.9"/>
</a>
</g>
</g>
<!-- Node17 -->
<g id="Node000017" class="node">
<title>Node17</title>
<g id="a_Node000017"><a xlink:href="class_cpl_1_1_io_1_1_tcp_1_1_input_output.html" target="_top" xlink:title="This concrete class defines a platform independent implementation of an InputOutput stream used by th...">
<polygon fill="white" stroke="#666666" points="674.5,-56 541.5,-56 541.5,-37 674.5,-37 674.5,-56"/>
<text text-anchor="middle" x="608" y="-44" font-family="Helvetica,sans-Serif" font-size="10.00">Cpl::Io::Tcp::InputOutput</text>
</a>
</g>
</g>
<!-- Node10&#45;&gt;Node17 -->
<g id="edge16_Node000010_Node000017" class="edge">
<title>Node10&#45;&gt;Node17</title>
<g id="a_edge16_Node000010_Node000017"><a xlink:title=" ">
<path fill="none" stroke="#63b8ff" d="M451.42,-145.56C467.32,-123.1 497.61,-85.06 533,-64.5 538.83,-61.11 545.28,-58.36 551.86,-56.13"/>
<polygon fill="#63b8ff" stroke="#63b8ff" points="448.48,-143.66 445.69,-153.88 454.25,-147.63 448.48,-143.66"/>
</a>
</g>
</g>
<!-- Node18 -->
<g id="Node000018" class="node">
<title>Node18</title>
<g id="a_Node000018"><a xlink:href="class_cpl_1_1_io_1_1_tcp_1_1_async_connector_1_1_client.html" target="_top" xlink:title="This class defines the callback mechanism used for accepting incoming TCP connections.">
<polygon fill="white" stroke="#666666" points="873,-85.5 719,-85.5 719,-55.5 873,-55.5 873,-85.5"/>
<text text-anchor="start" x="727" y="-73.5" font-family="Helvetica,sans-Serif" font-size="10.00">Cpl::Io::Tcp::AsyncConnector</text>
<text text-anchor="middle" x="796" y="-62.5" font-family="Helvetica,sans-Serif" font-size="10.00">::Client</text>
</a>
</g>
</g>
<!-- Node17&#45;&gt;Node18 -->
<g id="edge17_Node000017_Node000018" class="edge">
<title>Node17&#45;&gt;Node18</title>
<g id="a_edge17_Node000017_Node000018"><a xlink:title=" ">
<path fill="none" stroke="#63b8ff" d="M684.79,-56.28C696.04,-57.73 707.63,-59.23 718.89,-60.68"/>
<polygon fill="#63b8ff" stroke="#63b8ff" points="684.94,-52.77 674.58,-54.96 684.05,-59.71 684.94,-52.77"/>
</a>
</g>
</g>
<!-- Node19 -->
<g id="Node000019" class="node">
<title>Node19</title>
<g id="a_Node000019"><a xlink:href="class_cpl_1_1_io_1_1_tcp_1_1_async_listener_1_1_client.html" target="_top" xlink:title="This class defines the callback mechanism used for accepting incoming TCP connections.">
<polygon fill="white" stroke="#666666" points="867.5,-37.5 724.5,-37.5 724.5,-7.5 867.5,-7.5 867.5,-37.5"/>
<text text-anchor="start" x="732.5" y="-25.5" font-family="Helvetica,sans-Serif" font-size="10.00">Cpl::Io::Tcp::AsyncListener</text>
<text text-anchor="middle" x="796" y="-14.5" font-family="Helvetica,sans-Serif" font-size="10.00">::Client</text>
</a>
</g>
</g>
<!-- Node17&#45;&gt;Node19 -->
<g id="edge18_Node000017_Node000019" class="edge">
<title>Node17&#45;&gt;Node19</title>
<g id="a_edge18_Node000017_Node000019"><a xlink:title=" ">
<path fill="none" stroke="#63b8ff" d="M684.52,-36.76C697.68,-35.06 711.31,-33.3 724.33,-31.62"/>
<polygon fill="#63b8ff" stroke="#63b8ff" points="684.05,-33.29 674.58,-38.04 684.94,-40.23 684.05,-33.29"/>
</a>
</g>
</g>
<!-- Node21 -->
<g id="Node000021" class="node">
<title>Node21</title>
<g id="a_Node000021"><a xlink:href="class_cpl_1_1_io_1_1_stdio_1_1_std_in.html" target="_top" xlink:title="This concrete class represents the C&#45;library &#39;stdin&#39; stream.">
<polygon fill="white" stroke="#666666" points="662.5,-19 553.5,-19 553.5,0 662.5,0 662.5,-19"/>
<text text-anchor="middle" x="608" y="-7" font-family="Helvetica,sans-Serif" font-size="10.00">Cpl::Io::Stdio::StdIn</text>
</a>
</g>
</g>
<!-- Node20&#45;&gt;Node21 -->
<g id="edge20_Node000020_Node000021" class="edge">
<title>Node20&#45;&gt;Node21</title>
<g id="a_edge20_Node000020_Node000021"><a xlink:title=" ">
<path fill="none" stroke="#63b8ff" d="M468.01,-54.44C486.27,-45.83 510.65,-35.05 533,-27.5 542.39,-24.32 552.64,-21.47 562.42,-19.01"/>
<polygon fill="#63b8ff" stroke="#63b8ff" points="466.32,-51.37 458.81,-58.85 469.34,-57.69 466.32,-51.37"/>
</a>
</g>
</g>
</g>
</svg>
