<?xml version="1.0" encoding="UTF-8" standalone="no"?>
<!DOCTYPE svg PUBLIC "-//W3C//DTD SVG 1.1//EN"
 "http://www.w3.org/Graphics/SVG/1.1/DTD/svg11.dtd">
<!-- Generated by graphviz version 2.43.0 (0)
 -->
<!-- Title: Cpl::System::PeriodicScheduler Pages: 1 -->
<svg width="352pt" height="217pt"
 viewBox="0.00 0.00 352.00 217.00" xmlns="http://www.w3.org/2000/svg" xmlns:xlink="http://www.w3.org/1999/xlink">
<g id="graph0" class="graph" transform="scale(1 1) rotate(0) translate(4 213)">
<title>Cpl::System::PeriodicScheduler</title>
<!-- Node1 -->
<g id="Node000001" class="node">
<title>Node1</title>
<g id="a_Node000001"><a xlink:title="This concrete class is a &#39;policy&#39; object that is used to add polled based, cooperative monotonic sche...">
<polygon fill="#999999" stroke="#666666" points="199,-19 31,-19 31,0 199,0 199,-19"/>
<text text-anchor="middle" x="115" y="-7" font-family="Helvetica,sans-Serif" font-size="10.00">Cpl::System::PeriodicScheduler</text>
</a>
</g>
</g>
<!-- Node2 -->
<g id="Node000002" class="node">
<title>Node2</title>
<g id="a_Node000002"><a xlink:href="struct_cpl_1_1_system_1_1_periodic_scheduler_1_1_interval___t.html" target="_top" xlink:title="Defines an interval.">
<polygon fill="white" stroke="#666666" points="344,-108.5 176,-108.5 176,-78.5 344,-78.5 344,-108.5"/>
<text text-anchor="start" x="184" y="-96.5" font-family="Helvetica,sans-Serif" font-size="10.00">Cpl::System::PeriodicScheduler</text>
<text text-anchor="middle" x="260" y="-85.5" font-family="Helvetica,sans-Serif" font-size="10.00">::Interval_T</text>
</a>
</g>
</g>
<!-- Node2&#45;&gt;Node1 -->
<g id="edge1_Node000001_Node000002" class="edge">
<title>Node2&#45;&gt;Node1</title>
<g id="a_edge1_Node000001_Node000002"><a xlink:title=" ">
<path fill="none" stroke="#9a32cd" stroke-dasharray="5,2" d="M226.12,-73.34C195.84,-56.22 152.88,-31.92 130.27,-19.13"/>
<polygon fill="#9a32cd" stroke="#9a32cd" points="224.65,-76.53 235.07,-78.4 228.09,-70.43 224.65,-76.53"/>
</a>
</g>
<text text-anchor="middle" x="243.5" y="-51" font-family="Helvetica,sans-Serif" font-size="10.00" fill="grey"> m_intervals</text>
<text text-anchor="middle" x="243.5" y="-40" font-family="Helvetica,sans-Serif" font-size="10.00" fill="grey">m_reportSlippage</text>
</g>
<!-- Node3 -->
<g id="Node000003" class="node">
<title>Node3</title>
<g id="a_Node000003"><a xlink:href="struct_cpl_1_1_system_1_1_elapsed_time_1_1_precision___t.html" target="_top" xlink:title="Data type for time in seconds with a &#39;fractional&#39; millisecond precision.">
<polygon fill="white" stroke="#666666" points="144,-209 0,-209 0,-179 144,-179 144,-209"/>
<text text-anchor="start" x="8" y="-197" font-family="Helvetica,sans-Serif" font-size="10.00">Cpl::System::ElapsedTime</text>
<text text-anchor="middle" x="72" y="-186" font-family="Helvetica,sans-Serif" font-size="10.00">::Precision_T</text>
</a>
</g>
</g>
<!-- Node3&#45;&gt;Node1 -->
<g id="edge3_Node000001_Node000003" class="edge">
<title>Node3&#45;&gt;Node1</title>
<g id="a_edge3_Node000001_Node000003"><a xlink:title=" ">
<path fill="none" stroke="#9a32cd" stroke-dasharray="5,2" d="M65.43,-169.02C60.04,-145.07 54.8,-107.53 65,-77 72.96,-53.16 93.2,-31.01 105.35,-19.26"/>
<polygon fill="#9a32cd" stroke="#9a32cd" points="62.09,-170.1 67.86,-178.99 68.89,-168.45 62.09,-170.1"/>
</a>
</g>
<text text-anchor="middle" x="116" y="-102" font-family="Helvetica,sans-Serif" font-size="10.00" fill="grey"> m_beginThreadFunc</text>
<text text-anchor="middle" x="116" y="-91" font-family="Helvetica,sans-Serif" font-size="10.00" fill="grey">m_endThreadFunc</text>
<text text-anchor="middle" x="116" y="-80" font-family="Helvetica,sans-Serif" font-size="10.00" fill="grey">m_nowFunc</text>
</g>
<!-- Node3&#45;&gt;Node2 -->
<g id="edge2_Node000002_Node000003" class="edge">
<title>Node3&#45;&gt;Node2</title>
<g id="a_edge2_Node000002_Node000003"><a xlink:title=" ">
<path fill="none" stroke="#9a32cd" stroke-dasharray="5,2" d="M108.25,-174.01C144.78,-154.87 200.33,-125.76 233.11,-108.59"/>
<polygon fill="#9a32cd" stroke="#9a32cd" points="106.17,-171.15 98.94,-178.89 109.42,-177.35 106.17,-171.15"/>
</a>
</g>
<text text-anchor="middle" x="226.5" y="-153" font-family="Helvetica,sans-Serif" font-size="10.00" fill="grey"> callbackFunc</text>
<text text-anchor="middle" x="226.5" y="-142" font-family="Helvetica,sans-Serif" font-size="10.00" fill="grey">duration</text>
<text text-anchor="middle" x="226.5" y="-131" font-family="Helvetica,sans-Serif" font-size="10.00" fill="grey">timeMarker</text>
</g>
</g>
</svg>
