<?xml version="1.0" encoding="UTF-8" standalone="no"?>
<!DOCTYPE svg PUBLIC "-//W3C//DTD SVG 1.1//EN"
 "http://www.w3.org/Graphics/SVG/1.1/DTD/svg11.dtd">
<!-- Generated by graphviz version 2.43.0 (0)
 -->
<!-- Title: Cpl::Dm::Mp::Pointer_&lt; MPTYPE &gt; Pages: 1 -->
<svg width="241pt" height="483pt"
 viewBox="0.00 0.00 241.00 483.00" xmlns="http://www.w3.org/2000/svg" xmlns:xlink="http://www.w3.org/1999/xlink">
<g id="graph0" class="graph" transform="scale(1 1) rotate(0) translate(4 479)">
<title>Cpl::Dm::Mp::Pointer_&lt; MPTYPE &gt;</title>
<!-- Node1 -->
<g id="Node000001" class="node">
<title>Node1</title>
<g id="a_Node000001"><a xlink:title="This template class extends the implementation of Numeric&lt;&gt; class to support the pointers instead of ...">
<polygon fill="#999999" stroke="#666666" points="145.5,-163 28.5,-163 28.5,-133 145.5,-133 145.5,-163"/>
<text text-anchor="start" x="36.5" y="-151" font-family="Helvetica,sans-Serif" font-size="10.00">Cpl::Dm::Mp::Pointer</text>
<text text-anchor="middle" x="87" y="-140" font-family="Helvetica,sans-Serif" font-size="10.00">_&lt; MPTYPE &gt;</text>
</a>
</g>
</g>
<!-- Node7 -->
<g id="Node000007" class="node">
<title>Node7</title>
<g id="a_Node000007"><a xlink:href="class_cpl_1_1_dm_1_1_mp_1_1_pointer__.html" target="_top" xlink:title=" ">
<polygon fill="white" stroke="#666666" points="145.5,-86 28.5,-86 28.5,-56 145.5,-56 145.5,-86"/>
<text text-anchor="start" x="36.5" y="-74" font-family="Helvetica,sans-Serif" font-size="10.00">Cpl::Dm::Mp::Pointer</text>
<text text-anchor="middle" x="87" y="-63" font-family="Helvetica,sans-Serif" font-size="10.00">_&lt; Void &gt;</text>
</a>
</g>
</g>
<!-- Node1&#45;&gt;Node7 -->
<g id="edge7_Node000001_Node000007" class="edge">
<title>Node1&#45;&gt;Node7</title>
<g id="a_edge7_Node000001_Node000007"><a xlink:title=" ">
<path fill="none" stroke="orange" stroke-dasharray="5,2" d="M87,-122.54C87,-110.45 87,-96.29 87,-86.04"/>
<polygon fill="orange" stroke="orange" points="83.5,-122.89 87,-132.89 90.5,-122.89 83.5,-122.89"/>
</a>
</g>
<text text-anchor="middle" x="110.5" y="-107" font-family="Helvetica,sans-Serif" font-size="10.00" fill="grey"> &lt; Void &gt;</text>
</g>
<!-- Node2 -->
<g id="Node000002" class="node">
<title>Node2</title>
<g id="a_Node000002"><a xlink:href="class_cpl_1_1_dm_1_1_mp_1_1_numeric.html" target="_top" xlink:title=" ">
<polygon fill="white" stroke="#666666" points="149,-230 25,-230 25,-200 149,-200 149,-230"/>
<text text-anchor="start" x="33" y="-218" font-family="Helvetica,sans-Serif" font-size="10.00">Cpl::Dm::Mp::Numeric</text>
<text text-anchor="middle" x="87" y="-207" font-family="Helvetica,sans-Serif" font-size="10.00">&lt; size_t, MPTYPE &gt;</text>
</a>
</g>
</g>
<!-- Node2&#45;&gt;Node1 -->
<g id="edge1_Node000001_Node000002" class="edge">
<title>Node2&#45;&gt;Node1</title>
<g id="a_edge1_Node000001_Node000002"><a xlink:title=" ">
<path fill="none" stroke="#63b8ff" d="M87,-189.61C87,-180.65 87,-170.82 87,-163.08"/>
<polygon fill="#63b8ff" stroke="#63b8ff" points="83.5,-189.9 87,-199.9 90.5,-189.9 83.5,-189.9"/>
</a>
</g>
</g>
<!-- Node3 -->
<g id="Node000003" class="node">
<title>Node3</title>
<g id="a_Node000003"><a xlink:href="class_cpl_1_1_dm_1_1_model_point_common__.html" target="_top" xlink:title="This concrete class provide common infrastructure for a Model Point.">
<polygon fill="white" stroke="#666666" points="166,-363 0,-363 0,-344 166,-344 166,-363"/>
<text text-anchor="middle" x="83" y="-351" font-family="Helvetica,sans-Serif" font-size="10.00">Cpl::Dm::ModelPointCommon_</text>
</a>
</g>
</g>
<!-- Node3&#45;&gt;Node2 -->
<g id="edge2_Node000002_Node000003" class="edge">
<title>Node3&#45;&gt;Node2</title>
<g id="a_edge2_Node000002_Node000003"><a xlink:title=" ">
<path fill="none" stroke="#63b8ff" d="M83.55,-333.65C84.37,-305.91 85.87,-254.7 86.59,-230.02"/>
<polygon fill="#63b8ff" stroke="#63b8ff" points="80.04,-333.86 83.25,-343.96 87.04,-334.07 80.04,-333.86"/>
</a>
</g>
</g>
<!-- Node6 -->
<g id="Node000006" class="node">
<title>Node6</title>
<g id="a_Node000006"><a xlink:href="class_cpl_1_1_dm_1_1_mp_1_1_numeric.html" target="_top" xlink:title="This template class provides a mostly concrete implementation for a Model Point who&#39;s data is a C num...">
<polygon fill="white" stroke="#666666" points="233,-307 99,-307 99,-277 233,-277 233,-307"/>
<text text-anchor="start" x="107" y="-295" font-family="Helvetica,sans-Serif" font-size="10.00">Cpl::Dm::Mp::Numeric</text>
<text text-anchor="middle" x="166" y="-284" font-family="Helvetica,sans-Serif" font-size="10.00">&lt; ELEMTYPE, MPTYPE &gt;</text>
</a>
</g>
</g>
<!-- Node3&#45;&gt;Node6 -->
<g id="edge6_Node000006_Node000003" class="edge">
<title>Node3&#45;&gt;Node6</title>
<g id="a_edge6_Node000006_Node000003"><a xlink:title=" ">
<path fill="none" stroke="#63b8ff" d="M103.27,-337.97C116.41,-328.55 133.44,-316.34 146.44,-307.02"/>
<polygon fill="#63b8ff" stroke="#63b8ff" points="100.98,-335.3 94.89,-343.98 105.06,-340.99 100.98,-335.3"/>
</a>
</g>
</g>
<!-- Node4 -->
<g id="Node000004" class="node">
<title>Node4</title>
<g id="a_Node000004"><a xlink:href="class_cpl_1_1_dm_1_1_model_point.html" target="_top" xlink:title="This mostly abstract class defines the interface for a Model Point.">
<polygon fill="white" stroke="#666666" points="141,-419 25,-419 25,-400 141,-400 141,-419"/>
<text text-anchor="middle" x="83" y="-407" font-family="Helvetica,sans-Serif" font-size="10.00">Cpl::Dm::ModelPoint</text>
</a>
</g>
</g>
<!-- Node4&#45;&gt;Node3 -->
<g id="edge3_Node000003_Node000004" class="edge">
<title>Node4&#45;&gt;Node3</title>
<g id="a_edge3_Node000003_Node000004"><a xlink:title=" ">
<path fill="none" stroke="#63b8ff" d="M83,-389.3C83,-380.41 83,-370.28 83,-363.25"/>
<polygon fill="#63b8ff" stroke="#63b8ff" points="79.5,-389.58 83,-399.58 86.5,-389.58 79.5,-389.58"/>
</a>
</g>
</g>
<!-- Node5 -->
<g id="Node000005" class="node">
<title>Node5</title>
<g id="a_Node000005"><a xlink:href="class_cpl_1_1_container_1_1_item.html" target="_top" xlink:title="This class is used by the Container classes to implement a various types of singly linked containers.">
<polygon fill="white" stroke="#666666" points="140,-475 26,-475 26,-456 140,-456 140,-475"/>
<text text-anchor="middle" x="83" y="-463" font-family="Helvetica,sans-Serif" font-size="10.00">Cpl::Container::Item</text>
</a>
</g>
</g>
<!-- Node5&#45;&gt;Node4 -->
<g id="edge4_Node000004_Node000005" class="edge">
<title>Node5&#45;&gt;Node4</title>
<g id="a_edge4_Node000004_Node000005"><a xlink:title=" ">
<path fill="none" stroke="#63b8ff" d="M83,-445.3C83,-436.41 83,-426.28 83,-419.25"/>
<polygon fill="#63b8ff" stroke="#63b8ff" points="79.5,-445.58 83,-455.58 86.5,-445.58 79.5,-445.58"/>
</a>
</g>
</g>
<!-- Node6&#45;&gt;Node2 -->
<g id="edge5_Node000002_Node000006" class="edge">
<title>Node6&#45;&gt;Node2</title>
<g id="a_edge5_Node000002_Node000006"><a xlink:title=" ">
<path fill="none" stroke="orange" stroke-dasharray="5,2" d="M143.69,-269.82C130.27,-257.08 113.58,-241.24 101.79,-230.04"/>
<polygon fill="orange" stroke="orange" points="141.48,-272.55 151.14,-276.89 146.3,-267.47 141.48,-272.55"/>
</a>
</g>
<text text-anchor="middle" x="181" y="-251" font-family="Helvetica,sans-Serif" font-size="10.00" fill="grey"> &lt; size_t, MPTYPE &gt;</text>
</g>
<!-- Node8 -->
<g id="Node000008" class="node">
<title>Node8</title>
<g id="a_Node000008"><a xlink:href="class_cpl_1_1_dm_1_1_mp_1_1_void.html" target="_top" xlink:title="This class provides a concrete implementation for a Point who&#39;s data is a void pointer.">
<polygon fill="white" stroke="#666666" points="139,-19 35,-19 35,0 139,0 139,-19"/>
<text text-anchor="middle" x="87" y="-7" font-family="Helvetica,sans-Serif" font-size="10.00">Cpl::Dm::Mp::Void</text>
</a>
</g>
</g>
<!-- Node7&#45;&gt;Node8 -->
<g id="edge8_Node000007_Node000008" class="edge">
<title>Node7&#45;&gt;Node8</title>
<g id="a_edge8_Node000007_Node000008"><a xlink:title=" ">
<path fill="none" stroke="#63b8ff" d="M87,-45.79C87,-36.36 87,-26.15 87,-19.16"/>
<polygon fill="#63b8ff" stroke="#63b8ff" points="83.5,-45.9 87,-55.9 90.5,-45.9 83.5,-45.9"/>
</a>
</g>
</g>
</g>
</svg>
