<?xml version="1.0" encoding="UTF-8" standalone="no"?>
<!DOCTYPE svg PUBLIC "-//W3C//DTD SVG 1.1//EN"
 "http://www.w3.org/Graphics/SVG/1.1/DTD/svg11.dtd">
<!-- Generated by graphviz version 2.43.0 (0)
 -->
<!-- Title: Graphical Class Hierarchy Pages: 1 -->
<svg width="823pt" height="327pt"
 viewBox="0.00 0.00 823.00 326.50" xmlns="http://www.w3.org/2000/svg" xmlns:xlink="http://www.w3.org/1999/xlink">
<g id="graph0" class="graph" transform="scale(1 1) rotate(0) translate(4 322.5)">
<title>Graphical Class Hierarchy</title>
<!-- Node0 -->
<g id="Node000000" class="node">
<title>Node0</title>
<g id="a_Node000000"><a xlink:href="class_cpl_1_1_container_1_1_key.html" target="_top" xlink:title="This abstract class defines the interface that a contained object must support if it has comparable k...">
<polygon fill="white" stroke="#666666" points="110,-224 0,-224 0,-205 110,-205 110,-224"/>
<text text-anchor="middle" x="55" y="-212" font-family="Helvetica,sans-Serif" font-size="10.00">Cpl::Container::Key</text>
</a>
</g>
</g>
<!-- Node1 -->
<g id="Node000001" class="node">
<title>Node1</title>
<g id="a_Node000001"><a xlink:href="class_cpl_1_1_container_1_1_key_plain_type.html" target="_top" xlink:title="This template class is used to generate Key classes for most of the C/C++ primitive data types.">
<polygon fill="white" stroke="#666666" points="282,-277.5 148,-277.5 148,-247.5 282,-247.5 282,-277.5"/>
<text text-anchor="start" x="156" y="-265.5" font-family="Helvetica,sans-Serif" font-size="10.00">Cpl::Container::KeyPlain</text>
<text text-anchor="middle" x="215" y="-254.5" font-family="Helvetica,sans-Serif" font-size="10.00">Type&lt; DATATYPE &gt;</text>
</a>
</g>
</g>
<!-- Node0&#45;&gt;Node1 -->
<g id="edge8_Node000000_Node000001" class="edge">
<title>Node0&#45;&gt;Node1</title>
<g id="a_edge8_Node000000_Node000001"><a xlink:title=" ">
<path fill="none" stroke="#63b8ff" d="M97.29,-227.04C117.84,-233.29 142.84,-240.88 164.42,-247.44"/>
<polygon fill="#63b8ff" stroke="#63b8ff" points="98.18,-223.66 87.59,-224.1 96.14,-230.35 98.18,-223.66"/>
</a>
</g>
</g>
<!-- Node2 -->
<g id="Node000002" class="node">
<title>Node2</title>
<g id="a_Node000002"><a xlink:href="class_cpl_1_1_container_1_1_key_string_buffer.html" target="_top" xlink:title="This class provides a &#39;Key&#39; wrapper for a array of Character of length N, i.e.">
<polygon fill="white" stroke="#666666" points="284,-229.5 146,-229.5 146,-199.5 284,-199.5 284,-229.5"/>
<text text-anchor="start" x="154" y="-217.5" font-family="Helvetica,sans-Serif" font-size="10.00">Cpl::Container::KeyString</text>
<text text-anchor="middle" x="215" y="-206.5" font-family="Helvetica,sans-Serif" font-size="10.00">Buffer</text>
</a>
</g>
</g>
<!-- Node0&#45;&gt;Node2 -->
<g id="edge9_Node000000_Node000002" class="edge">
<title>Node0&#45;&gt;Node2</title>
<g id="a_edge9_Node000000_Node000002"><a xlink:title=" ">
<path fill="none" stroke="#63b8ff" d="M120.45,-214.5C128.82,-214.5 137.42,-214.5 145.85,-214.5"/>
<polygon fill="#63b8ff" stroke="#63b8ff" points="120.37,-211 110.37,-214.5 120.37,-218 120.37,-211"/>
</a>
</g>
</g>
<!-- Node4 -->
<g id="Node000004" class="node">
<title>Node4</title>
<g id="a_Node000004"><a xlink:href="class_cpl_1_1_text_1_1_string.html" target="_top" xlink:title="This abstract class defines the operations that can be before on a NULL terminated string.">
<polygon fill="white" stroke="#666666" points="261.5,-181 168.5,-181 168.5,-162 261.5,-162 261.5,-181"/>
<text text-anchor="middle" x="215" y="-169" font-family="Helvetica,sans-Serif" font-size="10.00">Cpl::Text::String</text>
</a>
</g>
</g>
<!-- Node0&#45;&gt;Node4 -->
<g id="edge11_Node000000_Node000004" class="edge">
<title>Node0&#45;&gt;Node4</title>
<g id="a_edge11_Node000000_Node000004"><a xlink:title=" ">
<path fill="none" stroke="#63b8ff" d="M100.96,-202.26C125.74,-195.52 156.04,-187.27 179.03,-181.02"/>
<polygon fill="#63b8ff" stroke="#63b8ff" points="99.8,-198.95 91.07,-204.96 101.63,-205.71 99.8,-198.95"/>
</a>
</g>
</g>
<!-- Node3 -->
<g id="Node000003" class="node">
<title>Node3</title>
<g id="a_Node000003"><a xlink:href="class_cpl_1_1_container_1_1_key_literal_string.html" target="_top" xlink:title="This class provides a &#39;Key&#39; wrapper for a C string literal.">
<polygon fill="white" stroke="#666666" points="460,-229.5 320,-229.5 320,-199.5 460,-199.5 460,-229.5"/>
<text text-anchor="start" x="328" y="-217.5" font-family="Helvetica,sans-Serif" font-size="10.00">Cpl::Container::KeyLiteral</text>
<text text-anchor="middle" x="390" y="-206.5" font-family="Helvetica,sans-Serif" font-size="10.00">String</text>
</a>
</g>
</g>
<!-- Node2&#45;&gt;Node3 -->
<g id="edge10_Node000002_Node000003" class="edge">
<title>Node2&#45;&gt;Node3</title>
<g id="a_edge10_Node000002_Node000003"><a xlink:title=" ">
<path fill="none" stroke="#63b8ff" d="M294.62,-214.5C303.09,-214.5 311.65,-214.5 319.99,-214.5"/>
<polygon fill="#63b8ff" stroke="#63b8ff" points="294.37,-211 284.37,-214.5 294.37,-218 294.37,-211"/>
</a>
</g>
</g>
<!-- Node5 -->
<g id="Node000005" class="node">
<title>Node5</title>
<g id="a_Node000005"><a xlink:href="class_cpl_1_1_text_1_1_string__.html" target="_top" xlink:title="This partially concrete class implements the portions of the String Api that is independent of the in...">
<polygon fill="white" stroke="#666666" points="439,-181 341,-181 341,-162 439,-162 439,-181"/>
<text text-anchor="middle" x="390" y="-169" font-family="Helvetica,sans-Serif" font-size="10.00">Cpl::Text::String_</text>
</a>
</g>
</g>
<!-- Node4&#45;&gt;Node5 -->
<g id="edge12_Node000004_Node000005" class="edge">
<title>Node4&#45;&gt;Node5</title>
<g id="a_edge12_Node000004_Node000005"><a xlink:title=" ">
<path fill="none" stroke="#63b8ff" d="M272.17,-171.5C294.3,-171.5 319.47,-171.5 340.76,-171.5"/>
<polygon fill="#63b8ff" stroke="#63b8ff" points="271.91,-168 261.91,-171.5 271.91,-175 271.91,-168"/>
</a>
</g>
</g>
<!-- Node6 -->
<g id="Node000006" class="node">
<title>Node6</title>
<g id="a_Node000006"><a xlink:href="class_cpl_1_1_text_1_1_d_string.html" target="_top" xlink:title="This concrete class implements a simple &quot;dynamic storage&quot; String Type.">
<polygon fill="white" stroke="#666666" points="598.5,-200 497.5,-200 497.5,-181 598.5,-181 598.5,-200"/>
<text text-anchor="middle" x="548" y="-188" font-family="Helvetica,sans-Serif" font-size="10.00">Cpl::Text::DString</text>
</a>
</g>
</g>
<!-- Node5&#45;&gt;Node6 -->
<g id="edge13_Node000005_Node000006" class="edge">
<title>Node5&#45;&gt;Node6</title>
<g id="a_edge13_Node000005_Node000006"><a xlink:title=" ">
<path fill="none" stroke="#63b8ff" d="M449.29,-178.6C465.14,-180.53 482.15,-182.6 497.46,-184.47"/>
<polygon fill="#63b8ff" stroke="#63b8ff" points="449.43,-175.09 439.08,-177.36 448.58,-182.04 449.43,-175.09"/>
</a>
</g>
</g>
<!-- Node7 -->
<g id="Node000007" class="node">
<title>Node7</title>
<g id="a_Node000007"><a xlink:href="class_cpl_1_1_text_1_1_f_string__.html" target="_top" xlink:title="This mostly concrete class implements a &quot;fixed storage&quot; String Type.">
<polygon fill="white" stroke="#666666" points="600,-163 496,-163 496,-144 600,-144 600,-163"/>
<text text-anchor="middle" x="548" y="-151" font-family="Helvetica,sans-Serif" font-size="10.00">Cpl::Text::FString_</text>
</a>
</g>
</g>
<!-- Node5&#45;&gt;Node7 -->
<g id="edge14_Node000005_Node000007" class="edge">
<title>Node5&#45;&gt;Node7</title>
<g id="a_edge14_Node000005_Node000007"><a xlink:title=" ">
<path fill="none" stroke="#63b8ff" d="M449.43,-164.76C464.68,-163 481,-161.12 495.83,-159.4"/>
<polygon fill="#63b8ff" stroke="#63b8ff" points="448.61,-161.33 439.08,-165.95 449.41,-168.28 448.61,-161.33"/>
</a>
</g>
</g>
<!-- Node8 -->
<g id="Node000008" class="node">
<title>Node8</title>
<g id="a_Node000008"><a xlink:href="class_cpl_1_1_text_1_1_f_string.html" target="_top" xlink:title=" ">
<polygon fill="white" stroke="#666666" points="806,-318.5 645,-318.5 645,-288.5 806,-288.5 806,-318.5"/>
<text text-anchor="start" x="653" y="-306.5" font-family="Helvetica,sans-Serif" font-size="10.00">Cpl::Text::FString</text>
<text text-anchor="middle" x="725.5" y="-295.5" font-family="Helvetica,sans-Serif" font-size="10.00">&lt; CPL_IO_FILE_MAX_NAME &gt;</text>
</a>
</g>
</g>
<!-- Node7&#45;&gt;Node8 -->
<g id="edge15_Node000007_Node000008" class="edge">
<title>Node7&#45;&gt;Node8</title>
<g id="a_edge15_Node000007_Node000008"><a xlink:title=" ">
<path fill="none" stroke="#63b8ff" d="M595.45,-168.47C597.07,-169.71 598.59,-171.05 600,-172.5 634.91,-208.54 599.48,-245.1 636,-279.5 639.59,-282.88 643.61,-285.8 647.9,-288.31"/>
<polygon fill="#63b8ff" stroke="#63b8ff" points="597.09,-165.37 586.75,-163.08 593.41,-171.32 597.09,-165.37"/>
</a>
</g>
</g>
<!-- Node9 -->
<g id="Node000009" class="node">
<title>Node9</title>
<g id="a_Node000009"><a xlink:href="class_cpl_1_1_text_1_1_f_string.html" target="_top" xlink:title=" ">
<polygon fill="white" stroke="#666666" points="774.5,-270.5 676.5,-270.5 676.5,-240.5 774.5,-240.5 774.5,-270.5"/>
<text text-anchor="start" x="684.5" y="-258.5" font-family="Helvetica,sans-Serif" font-size="10.00">Cpl::Text::FString</text>
<text text-anchor="middle" x="725.5" y="-247.5" font-family="Helvetica,sans-Serif" font-size="10.00">&lt; 64 &gt;</text>
</a>
</g>
</g>
<!-- Node7&#45;&gt;Node9 -->
<g id="edge16_Node000007_Node000009" class="edge">
<title>Node7&#45;&gt;Node9</title>
<g id="a_edge16_Node000007_Node000009"><a xlink:title=" ">
<path fill="none" stroke="#63b8ff" d="M593.45,-167.86C595.75,-169.27 597.96,-170.82 600,-172.5 623.7,-192.05 611.43,-213.06 636,-231.5 647.71,-240.29 662.44,-245.86 676.5,-249.4"/>
<polygon fill="#63b8ff" stroke="#63b8ff" points="594.65,-164.54 584.16,-163.04 591.42,-170.75 594.65,-164.54"/>
</a>
</g>
</g>
<!-- Node10 -->
<g id="Node000010" class="node">
<title>Node10</title>
<g id="a_Node000010"><a xlink:href="class_cpl_1_1_text_1_1_f_string.html" target="_top" xlink:title=" ">
<polygon fill="white" stroke="#666666" points="815,-222.5 636,-222.5 636,-192.5 815,-192.5 815,-222.5"/>
<text text-anchor="start" x="644" y="-210.5" font-family="Helvetica,sans-Serif" font-size="10.00">Cpl::Text::FString</text>
<text text-anchor="middle" x="725.5" y="-199.5" font-family="Helvetica,sans-Serif" font-size="10.00">&lt; configMAX_TASK_NAME_LEN &gt;</text>
</a>
</g>
</g>
<!-- Node7&#45;&gt;Node10 -->
<g id="edge17_Node000007_Node000010" class="edge">
<title>Node7&#45;&gt;Node10</title>
<g id="a_edge17_Node000007_Node000010"><a xlink:title=" ">
<path fill="none" stroke="#63b8ff" d="M584.91,-166.49C600.53,-171.98 619.09,-178.3 636,-183.5 645.89,-186.54 656.46,-189.59 666.74,-192.44"/>
<polygon fill="#63b8ff" stroke="#63b8ff" points="585.71,-163.06 575.12,-163.02 583.37,-169.66 585.71,-163.06"/>
</a>
</g>
</g>
<!-- Node11 -->
<g id="Node000011" class="node">
<title>Node11</title>
<g id="a_Node000011"><a xlink:href="class_cpl_1_1_text_1_1_f_string.html" target="_top" xlink:title=" ">
<polygon fill="white" stroke="#666666" points="808,-174 643,-174 643,-133 808,-133 808,-174"/>
<text text-anchor="start" x="651" y="-162" font-family="Helvetica,sans-Serif" font-size="10.00">Cpl::Text::FString</text>
<text text-anchor="start" x="651" y="-151" font-family="Helvetica,sans-Serif" font-size="10.00">&lt; OPTION_CPL_TSHELL</text>
<text text-anchor="middle" x="725.5" y="-140" font-family="Helvetica,sans-Serif" font-size="10.00">_PROCESSOR_OUTPUT_SIZE &gt;</text>
</a>
</g>
</g>
<!-- Node7&#45;&gt;Node11 -->
<g id="edge18_Node000007_Node000011" class="edge">
<title>Node7&#45;&gt;Node11</title>
<g id="a_edge18_Node000007_Node000011"><a xlink:title=" ">
<path fill="none" stroke="#63b8ff" d="M610.48,-153.5C620.94,-153.5 631.94,-153.5 642.82,-153.5"/>
<polygon fill="#63b8ff" stroke="#63b8ff" points="610.23,-150 600.23,-153.5 610.23,-157 610.23,-150"/>
</a>
</g>
</g>
<!-- Node12 -->
<g id="Node000012" class="node">
<title>Node12</title>
<g id="a_Node000012"><a xlink:href="class_cpl_1_1_text_1_1_f_string.html" target="_top" xlink:title=" ">
<polygon fill="white" stroke="#666666" points="803,-115 648,-115 648,-74 803,-74 803,-115"/>
<text text-anchor="start" x="656" y="-103" font-family="Helvetica,sans-Serif" font-size="10.00">Cpl::Text::FString</text>
<text text-anchor="start" x="656" y="-92" font-family="Helvetica,sans-Serif" font-size="10.00">&lt; OPTION_CPL_TSHELL</text>
<text text-anchor="middle" x="725.5" y="-81" font-family="Helvetica,sans-Serif" font-size="10.00">_PROCESSOR_INPUT_SIZE &gt;</text>
</a>
</g>
</g>
<!-- Node7&#45;&gt;Node12 -->
<g id="edge19_Node000007_Node000012" class="edge">
<title>Node7&#45;&gt;Node12</title>
<g id="a_edge19_Node000007_Node000012"><a xlink:title=" ">
<path fill="none" stroke="#63b8ff" d="M587.31,-140.62C609.49,-133.16 637.94,-123.6 663.17,-115.12"/>
<polygon fill="#63b8ff" stroke="#63b8ff" points="585.95,-137.39 577.59,-143.89 588.18,-144.02 585.95,-137.39"/>
</a>
</g>
</g>
<!-- Node13 -->
<g id="Node000013" class="node">
<title>Node13</title>
<g id="a_Node000013"><a xlink:href="class_cpl_1_1_text_1_1_d_f_string.html" target="_top" xlink:title="This concrete class is a mix of FString and a DString &#45; the initial memory is dynamically allocated &#45;...">
<polygon fill="white" stroke="#666666" points="778.5,-56 672.5,-56 672.5,-37 778.5,-37 778.5,-56"/>
<text text-anchor="middle" x="725.5" y="-44" font-family="Helvetica,sans-Serif" font-size="10.00">Cpl::Text::DFString</text>
</a>
</g>
</g>
<!-- Node7&#45;&gt;Node13 -->
<g id="edge20_Node000007_Node000013" class="edge">
<title>Node7&#45;&gt;Node13</title>
<g id="a_edge20_Node000007_Node000013"><a xlink:title=" ">
<path fill="none" stroke="#63b8ff" d="M561.52,-135.65C576.73,-115.37 604.33,-82.86 636,-65.5 647.02,-59.46 659.8,-55.34 672.16,-52.53"/>
<polygon fill="#63b8ff" stroke="#63b8ff" points="558.67,-133.61 555.61,-143.75 564.33,-137.74 558.67,-133.61"/>
</a>
</g>
</g>
<!-- Node14 -->
<g id="Node000014" class="node">
<title>Node14</title>
<g id="a_Node000014"><a xlink:href="class_cpl_1_1_text_1_1_f_string.html" target="_top" xlink:title="This template class represents a NULL terminated string of a specific length.">
<polygon fill="white" stroke="#666666" points="789,-19 662,-19 662,0 789,0 789,-19"/>
<text text-anchor="middle" x="725.5" y="-7" font-family="Helvetica,sans-Serif" font-size="10.00">Cpl::Text::FString&lt; S &gt;</text>
</a>
</g>
</g>
<!-- Node7&#45;&gt;Node14 -->
<g id="edge21_Node000007_Node000014" class="edge">
<title>Node7&#45;&gt;Node14</title>
<g id="a_edge21_Node000007_Node000014"><a xlink:title=" ">
<path fill="none" stroke="#63b8ff" d="M556.71,-134.17C569.02,-105.96 595.87,-54 636,-27.5 643.72,-22.4 652.58,-18.7 661.65,-16.02"/>
<polygon fill="#63b8ff" stroke="#63b8ff" points="553.35,-133.14 552.71,-143.71 559.8,-135.84 553.35,-133.14"/>
</a>
</g>
</g>
</g>
</svg>
