<?xml version="1.0" encoding="UTF-8" standalone="no"?>
<!DOCTYPE svg PUBLIC "-//W3C//DTD SVG 1.1//EN"
 "http://www.w3.org/Graphics/SVG/1.1/DTD/svg11.dtd">
<!-- Generated by graphviz version 2.43.0 (0)
 -->
<!-- Title: Graphical Class Hierarchy Pages: 1 -->
<svg width="327pt" height="101pt"
 viewBox="0.00 0.00 327.00 101.00" xmlns="http://www.w3.org/2000/svg" xmlns:xlink="http://www.w3.org/1999/xlink">
<g id="graph0" class="graph" transform="scale(1 1) rotate(0) translate(4 97)">
<title>Graphical Class Hierarchy</title>
<!-- Node0 -->
<g id="Node000000" class="node">
<title>Node0</title>
<g id="a_Node000000"><a xlink:href="class_cpl_1_1_itc_1_1_return_handler.html" target="_top" xlink:title="This abstract class represents the action that is executed by a server thread in response to the serv...">
<polygon fill="white" stroke="#666666" points="127,-56 0,-56 0,-37 127,-37 127,-56"/>
<text text-anchor="middle" x="63.5" y="-44" font-family="Helvetica,sans-Serif" font-size="10.00">Cpl::Itc::ReturnHandler</text>
</a>
</g>
</g>
<!-- Node1 -->
<g id="Node000001" class="node">
<title>Node1</title>
<g id="a_Node000001"><a xlink:href="class_cpl_1_1_itc_1_1_async_return_handler.html" target="_top" xlink:title="This class implements an asynchronous ReturnHandler.">
<polygon fill="white" stroke="#666666" points="319,-93 163,-93 163,-74 319,-74 319,-93"/>
<text text-anchor="middle" x="241" y="-81" font-family="Helvetica,sans-Serif" font-size="10.00">Cpl::Itc::AsyncReturnHandler</text>
</a>
</g>
</g>
<!-- Node0&#45;&gt;Node1 -->
<g id="edge38_Node000000_Node000001" class="edge">
<title>Node0&#45;&gt;Node1</title>
<g id="a_edge38_Node000000_Node000001"><a xlink:title=" ">
<path fill="none" stroke="#63b8ff" d="M119.77,-58.15C143.88,-63.23 171.79,-69.12 194.65,-73.94"/>
<polygon fill="#63b8ff" stroke="#63b8ff" points="120.2,-54.67 109.7,-56.03 118.76,-61.52 120.2,-54.67"/>
</a>
</g>
</g>
<!-- Node2 -->
<g id="Node000002" class="node">
<title>Node2</title>
<g id="a_Node000002"><a xlink:href="class_cpl_1_1_itc_1_1_null_return_handler.html" target="_top" xlink:title="This class implements a Null ReturnHandler.">
<polygon fill="white" stroke="#666666" points="314,-56 168,-56 168,-37 314,-37 314,-56"/>
<text text-anchor="middle" x="241" y="-44" font-family="Helvetica,sans-Serif" font-size="10.00">Cpl::Itc::NullReturnHandler</text>
</a>
</g>
</g>
<!-- Node0&#45;&gt;Node2 -->
<g id="edge39_Node000000_Node000002" class="edge">
<title>Node0&#45;&gt;Node2</title>
<g id="a_edge39_Node000000_Node000002"><a xlink:title=" ">
<path fill="none" stroke="#63b8ff" d="M137.62,-46.5C147.57,-46.5 157.78,-46.5 167.72,-46.5"/>
<polygon fill="#63b8ff" stroke="#63b8ff" points="137.36,-43 127.36,-46.5 137.36,-50 137.36,-43"/>
</a>
</g>
</g>
<!-- Node3 -->
<g id="Node000003" class="node">
<title>Node3</title>
<g id="a_Node000003"><a xlink:href="class_cpl_1_1_itc_1_1_sync_return_handler.html" target="_top" xlink:title="This class implements a synchronous ReturnHandler.">
<polygon fill="white" stroke="#666666" points="316,-19 166,-19 166,0 316,0 316,-19"/>
<text text-anchor="middle" x="241" y="-7" font-family="Helvetica,sans-Serif" font-size="10.00">Cpl::Itc::SyncReturnHandler</text>
</a>
</g>
</g>
<!-- Node0&#45;&gt;Node3 -->
<g id="edge40_Node000000_Node000003" class="edge">
<title>Node0&#45;&gt;Node3</title>
<g id="a_edge40_Node000000_Node000003"><a xlink:title=" ">
<path fill="none" stroke="#63b8ff" d="M119.77,-34.85C143.88,-29.77 171.79,-23.88 194.65,-19.06"/>
<polygon fill="#63b8ff" stroke="#63b8ff" points="118.76,-31.48 109.7,-36.97 120.2,-38.33 118.76,-31.48"/>
</a>
</g>
</g>
</g>
</svg>
