<?xml version="1.0" encoding="UTF-8" standalone="no"?>
<!DOCTYPE svg PUBLIC "-//W3C//DTD SVG 1.1//EN"
 "http://www.w3.org/Graphics/SVG/1.1/DTD/svg11.dtd">
<!-- Generated by graphviz version 2.43.0 (0)
 -->
<!-- Title: Graphical Class Hierarchy Pages: 1 -->
<svg width="583pt" height="182pt"
 viewBox="0.00 0.00 583.00 182.00" xmlns="http://www.w3.org/2000/svg" xmlns:xlink="http://www.w3.org/1999/xlink">
<g id="graph0" class="graph" transform="scale(1 1) rotate(0) translate(4 178)">
<title>Graphical Class Hierarchy</title>
<!-- Node0 -->
<g id="Node000000" class="node">
<title>Node0</title>
<g id="a_Node000000"><a xlink:href="class_cpl_1_1_container_1_1_ring_buffer.html" target="_top" xlink:title="This template class implements a Ring Buffer.">
<polygon fill="white" stroke="#666666" points="143,-126 0,-126 0,-96 143,-96 143,-126"/>
<text text-anchor="start" x="8" y="-114" font-family="Helvetica,sans-Serif" font-size="10.00">Cpl::Container::RingBuffer</text>
<text text-anchor="middle" x="71.5" y="-103" font-family="Helvetica,sans-Serif" font-size="10.00">&lt; ITEM &gt;</text>
</a>
</g>
</g>
<!-- Node1 -->
<g id="Node000001" class="node">
<title>Node1</title>
<g id="a_Node000001"><a xlink:href="class_cpl_1_1_container_1_1_ring_buffer_m_t.html" target="_top" xlink:title=" ">
<polygon fill="white" stroke="#666666" points="359,-174 179,-174 179,-144 359,-144 359,-174"/>
<text text-anchor="start" x="187" y="-162" font-family="Helvetica,sans-Serif" font-size="10.00">Cpl::Container::RingBuffer</text>
<text text-anchor="middle" x="269" y="-151" font-family="Helvetica,sans-Serif" font-size="10.00">MT&lt; Cpl::Logging::EntryData_T &gt;</text>
</a>
</g>
</g>
<!-- Node0&#45;&gt;Node1 -->
<g id="edge22_Node000000_Node000001" class="edge">
<title>Node0&#45;&gt;Node1</title>
<g id="a_edge22_Node000000_Node000001"><a xlink:title=" ">
<path fill="none" stroke="#63b8ff" d="M143.54,-128.44C164.3,-133.54 186.81,-139.07 206.9,-144"/>
<polygon fill="#63b8ff" stroke="#63b8ff" points="144.37,-125.04 133.82,-126.06 142.7,-131.84 144.37,-125.04"/>
</a>
</g>
</g>
<!-- Node2 -->
<g id="Node000002" class="node">
<title>Node2</title>
<g id="a_Node000002"><a xlink:href="class_cpl_1_1_container_1_1_ring_buffer_m_t.html" target="_top" xlink:title=" ">
<polygon fill="white" stroke="#666666" points="340.5,-126 197.5,-126 197.5,-96 340.5,-96 340.5,-126"/>
<text text-anchor="start" x="205.5" y="-114" font-family="Helvetica,sans-Serif" font-size="10.00">Cpl::Container::RingBuffer</text>
<text text-anchor="middle" x="269" y="-103" font-family="Helvetica,sans-Serif" font-size="10.00">MT&lt; ENTRY &gt;</text>
</a>
</g>
</g>
<!-- Node0&#45;&gt;Node2 -->
<g id="edge23_Node000000_Node000002" class="edge">
<title>Node0&#45;&gt;Node2</title>
<g id="a_edge23_Node000000_Node000002"><a xlink:title=" ">
<path fill="none" stroke="#63b8ff" d="M153.1,-111C167.73,-111 182.88,-111 197.2,-111"/>
<polygon fill="#63b8ff" stroke="#63b8ff" points="153.08,-107.5 143.08,-111 153.08,-114.5 153.08,-107.5"/>
</a>
</g>
</g>
<!-- Node3 -->
<g id="Node000003" class="node">
<title>Node3</title>
<g id="a_Node000003"><a xlink:href="class_cpl_1_1_container_1_1_ring_buffer_m_t.html" target="_top" xlink:title="This template class implements a THREAD SAFE Ring Buffer.">
<polygon fill="white" stroke="#666666" points="340.5,-78 197.5,-78 197.5,-48 340.5,-48 340.5,-78"/>
<text text-anchor="start" x="205.5" y="-66" font-family="Helvetica,sans-Serif" font-size="10.00">Cpl::Container::RingBuffer</text>
<text text-anchor="middle" x="269" y="-55" font-family="Helvetica,sans-Serif" font-size="10.00">MT&lt; ITEM &gt;</text>
</a>
</g>
</g>
<!-- Node0&#45;&gt;Node3 -->
<g id="edge24_Node000000_Node000003" class="edge">
<title>Node0&#45;&gt;Node3</title>
<g id="a_edge24_Node000000_Node000003"><a xlink:title=" ">
<path fill="none" stroke="#63b8ff" d="M143.54,-93.56C164.3,-88.46 186.81,-82.93 206.9,-78"/>
<polygon fill="#63b8ff" stroke="#63b8ff" points="142.7,-90.16 133.82,-95.94 144.37,-96.96 142.7,-90.16"/>
</a>
</g>
</g>
<!-- Node4 -->
<g id="Node000004" class="node">
<title>Node4</title>
<g id="a_Node000004"><a xlink:href="class_cpl_1_1_container_1_1_ring_buffer_m_p.html" target="_top" xlink:title=" ">
<polygon fill="white" stroke="#666666" points="575,-126 395,-126 395,-96 575,-96 575,-126"/>
<text text-anchor="start" x="403" y="-114" font-family="Helvetica,sans-Serif" font-size="10.00">Cpl::Container::RingBuffer</text>
<text text-anchor="middle" x="485" y="-103" font-family="Helvetica,sans-Serif" font-size="10.00">MP&lt; Cpl::Logging::EntryData_T &gt;</text>
</a>
</g>
</g>
<!-- Node3&#45;&gt;Node4 -->
<g id="edge25_Node000003_Node000004" class="edge">
<title>Node3&#45;&gt;Node4</title>
<g id="a_edge25_Node000003_Node000004"><a xlink:title=" ">
<path fill="none" stroke="#63b8ff" d="M347.14,-80.3C370.04,-85.44 394.92,-91.02 417.11,-96"/>
<polygon fill="#63b8ff" stroke="#63b8ff" points="347.65,-76.83 337.12,-78.06 346.12,-83.66 347.65,-76.83"/>
</a>
</g>
</g>
<!-- Node5 -->
<g id="Node000005" class="node">
<title>Node5</title>
<g id="a_Node000005"><a xlink:href="class_cpl_1_1_container_1_1_ring_buffer_m_p.html" target="_top" xlink:title=" ">
<polygon fill="white" stroke="#666666" points="556.5,-78 413.5,-78 413.5,-48 556.5,-48 556.5,-78"/>
<text text-anchor="start" x="421.5" y="-66" font-family="Helvetica,sans-Serif" font-size="10.00">Cpl::Container::RingBuffer</text>
<text text-anchor="middle" x="485" y="-55" font-family="Helvetica,sans-Serif" font-size="10.00">MP&lt; ENTRY &gt;</text>
</a>
</g>
</g>
<!-- Node3&#45;&gt;Node5 -->
<g id="edge26_Node000003_Node000005" class="edge">
<title>Node3&#45;&gt;Node5</title>
<g id="a_edge26_Node000003_Node000005"><a xlink:title=" ">
<path fill="none" stroke="#63b8ff" d="M350.67,-63C371.3,-63 393.33,-63 413.41,-63"/>
<polygon fill="#63b8ff" stroke="#63b8ff" points="350.66,-59.5 340.66,-63 350.66,-66.5 350.66,-59.5"/>
</a>
</g>
</g>
<!-- Node6 -->
<g id="Node000006" class="node">
<title>Node6</title>
<g id="a_Node000006"><a xlink:href="class_cpl_1_1_container_1_1_ring_buffer_m_p.html" target="_top" xlink:title="This template class implements a THREAD SAFE Ring Buffer AND it maintains/reports the number of eleme...">
<polygon fill="white" stroke="#666666" points="556.5,-30 413.5,-30 413.5,0 556.5,0 556.5,-30"/>
<text text-anchor="start" x="421.5" y="-18" font-family="Helvetica,sans-Serif" font-size="10.00">Cpl::Container::RingBuffer</text>
<text text-anchor="middle" x="485" y="-7" font-family="Helvetica,sans-Serif" font-size="10.00">MP&lt; ITEM &gt;</text>
</a>
</g>
</g>
<!-- Node3&#45;&gt;Node6 -->
<g id="edge27_Node000003_Node000006" class="edge">
<title>Node3&#45;&gt;Node6</title>
<g id="a_edge27_Node000003_Node000006"><a xlink:title=" ">
<path fill="none" stroke="#63b8ff" d="M347.14,-45.7C370.04,-40.56 394.92,-34.98 417.11,-30"/>
<polygon fill="#63b8ff" stroke="#63b8ff" points="346.12,-42.34 337.12,-47.94 347.65,-49.17 346.12,-42.34"/>
</a>
</g>
</g>
</g>
</svg>
