<?xml version="1.0" encoding="UTF-8" standalone="no"?>
<!DOCTYPE svg PUBLIC "-//W3C//DTD SVG 1.1//EN"
 "http://www.w3.org/Graphics/SVG/1.1/DTD/svg11.dtd">
<!-- Generated by graphviz version 2.43.0 (0)
 -->
<!-- Title: Graphical Class Hierarchy Pages: 1 -->
<svg width="350pt" height="113pt"
 viewBox="0.00 0.00 350.00 112.50" xmlns="http://www.w3.org/2000/svg" xmlns:xlink="http://www.w3.org/1999/xlink">
<g id="graph0" class="graph" transform="scale(1 1) rotate(0) translate(4 108.5)">
<title>Graphical Class Hierarchy</title>
<!-- Node0 -->
<g id="Node000000" class="node">
<title>Node0</title>
<g id="a_Node000000"><a xlink:href="class_cpl_1_1_persistent_1_1_region_media.html" target="_top" xlink:title="This mostly abstract class defines the operations that can be performed on a persistent media.">
<polygon fill="white" stroke="#666666" points="157,-67.5 0,-67.5 0,-48.5 157,-48.5 157,-67.5"/>
<text text-anchor="middle" x="78.5" y="-55.5" font-family="Helvetica,sans-Serif" font-size="10.00">Cpl::Persistent::RegionMedia</text>
</a>
</g>
</g>
<!-- Node1 -->
<g id="Node000001" class="node">
<title>Node1</title>
<g id="a_Node000001"><a xlink:href="class_cpl_1_1_persistent_1_1_file_adapter.html" target="_top" xlink:title="This concrete class implements the RegionMedia interface using the Cpl::Io::File interfaces.">
<polygon fill="white" stroke="#666666" points="342,-104.5 193,-104.5 193,-85.5 342,-85.5 342,-104.5"/>
<text text-anchor="middle" x="267.5" y="-92.5" font-family="Helvetica,sans-Serif" font-size="10.00">Cpl::Persistent::FileAdapter</text>
</a>
</g>
</g>
<!-- Node0&#45;&gt;Node1 -->
<g id="edge276_Node000000_Node000001" class="edge">
<title>Node0&#45;&gt;Node1</title>
<g id="a_edge276_Node000000_Node000001"><a xlink:title=" ">
<path fill="none" stroke="#63b8ff" d="M137.7,-69.52C163.55,-74.63 193.6,-80.58 218.18,-85.44"/>
<polygon fill="#63b8ff" stroke="#63b8ff" points="138.15,-66.04 127.66,-67.53 136.79,-72.9 138.15,-66.04"/>
</a>
</g>
</g>
<!-- Node2 -->
<g id="Node000002" class="node">
<title>Node2</title>
<g id="a_Node000002"><a xlink:href="class_cpl_1_1_persistent_1_1_n_v_adapter.html" target="_top" xlink:title="This concrete class implements the RegionMedia interface using the Driver::NV::Api interface.">
<polygon fill="white" stroke="#666666" points="340,-67.5 195,-67.5 195,-48.5 340,-48.5 340,-67.5"/>
<text text-anchor="middle" x="267.5" y="-55.5" font-family="Helvetica,sans-Serif" font-size="10.00">Cpl::Persistent::NVAdapter</text>
</a>
</g>
</g>
<!-- Node0&#45;&gt;Node2 -->
<g id="edge277_Node000000_Node000002" class="edge">
<title>Node0&#45;&gt;Node2</title>
<g id="a_edge277_Node000000_Node000002"><a xlink:title=" ">
<path fill="none" stroke="#63b8ff" d="M167.46,-58C176.6,-58 185.81,-58 194.75,-58"/>
<polygon fill="#63b8ff" stroke="#63b8ff" points="167.18,-54.5 157.18,-58 167.18,-61.5 167.18,-54.5"/>
</a>
</g>
</g>
<!-- Node3 -->
<g id="Node000003" class="node">
<title>Node3</title>
<g id="a_Node000003"><a xlink:href="class_cpl_1_1_persistent_1_1_null_region_media.html" target="_top" xlink:title="This concrete class provides a &#39;null&#39; implementation of the RegionMedia interface.">
<polygon fill="white" stroke="#666666" points="340.5,-30 194.5,-30 194.5,0 340.5,0 340.5,-30"/>
<text text-anchor="start" x="202.5" y="-18" font-family="Helvetica,sans-Serif" font-size="10.00">Cpl::Persistent::NullRegion</text>
<text text-anchor="middle" x="267.5" y="-7" font-family="Helvetica,sans-Serif" font-size="10.00">Media</text>
</a>
</g>
</g>
<!-- Node0&#45;&gt;Node3 -->
<g id="edge278_Node000000_Node000003" class="edge">
<title>Node0&#45;&gt;Node3</title>
<g id="a_edge278_Node000000_Node000003"><a xlink:title=" ">
<path fill="none" stroke="#63b8ff" d="M131,-46.16C152.71,-41.16 178.24,-35.3 201.24,-30.01"/>
<polygon fill="#63b8ff" stroke="#63b8ff" points="129.96,-42.8 121,-48.46 131.53,-49.63 129.96,-42.8"/>
</a>
</g>
</g>
</g>
</svg>
