<?xml version="1.0" encoding="UTF-8" standalone="no"?>
<!DOCTYPE svg PUBLIC "-//W3C//DTD SVG 1.1//EN"
 "http://www.w3.org/Graphics/SVG/1.1/DTD/svg11.dtd">
<!-- Generated by graphviz version 2.43.0 (0)
 -->
<!-- Title: Graphical Class Hierarchy Pages: 1 -->
<svg width="308pt" height="76pt"
 viewBox="0.00 0.00 308.00 75.50" xmlns="http://www.w3.org/2000/svg" xmlns:xlink="http://www.w3.org/1999/xlink">
<g id="graph0" class="graph" transform="scale(1 1) rotate(0) translate(4 71.5)">
<title>Graphical Class Hierarchy</title>
<!-- Node0 -->
<g id="Node000000" class="node">
<title>Node0</title>
<g id="a_Node000000"><a xlink:href="class_cpl_1_1_persistent_1_1_chunk.html" target="_top" xlink:title="This abstract class defines the interface for a Chunk.">
<polygon fill="white" stroke="#666666" points="124,-45.5 0,-45.5 0,-26.5 124,-26.5 124,-45.5"/>
<text text-anchor="middle" x="62" y="-33.5" font-family="Helvetica,sans-Serif" font-size="10.00">Cpl::Persistent::Chunk</text>
</a>
</g>
</g>
<!-- Node1 -->
<g id="Node000001" class="node">
<title>Node1</title>
<g id="a_Node000001"><a xlink:href="class_cpl_1_1_persistent_1_1_crc_chunk.html" target="_top" xlink:title="This concrete class implements the Chunk interface by using a 32Bit CRC for ensuring data integrity.">
<polygon fill="white" stroke="#666666" points="300,-67.5 160,-67.5 160,-48.5 300,-48.5 300,-67.5"/>
<text text-anchor="middle" x="230" y="-55.5" font-family="Helvetica,sans-Serif" font-size="10.00">Cpl::Persistent::CrcChunk</text>
</a>
</g>
</g>
<!-- Node0&#45;&gt;Node1 -->
<g id="edge41_Node000000_Node000001" class="edge">
<title>Node0&#45;&gt;Node1</title>
<g id="a_edge41_Node000000_Node000001"><a xlink:title=" ">
<path fill="none" stroke="#63b8ff" d="M134.48,-45.47C142.88,-46.59 151.43,-47.72 159.8,-48.83"/>
<polygon fill="#63b8ff" stroke="#63b8ff" points="134.71,-41.97 124.34,-44.13 133.79,-48.91 134.71,-41.97"/>
</a>
</g>
</g>
<!-- Node2 -->
<g id="Node000002" class="node">
<title>Node2</title>
<g id="a_Node000002"><a xlink:href="class_cpl_1_1_persistent_1_1_mirrored_chunk.html" target="_top" xlink:title="This concrete class implements the Chunk interface by storing two copies of the Record&#39;s data.">
<polygon fill="white" stroke="#666666" points="297,-30 163,-30 163,0 297,0 297,-30"/>
<text text-anchor="start" x="171" y="-18" font-family="Helvetica,sans-Serif" font-size="10.00">Cpl::Persistent::Mirrored</text>
<text text-anchor="middle" x="230" y="-7" font-family="Helvetica,sans-Serif" font-size="10.00">Chunk</text>
</a>
</g>
</g>
<!-- Node0&#45;&gt;Node2 -->
<g id="edge42_Node000000_Node000002" class="edge">
<title>Node0&#45;&gt;Node2</title>
<g id="a_edge42_Node000000_Node000002"><a xlink:title=" ">
<path fill="none" stroke="#63b8ff" d="M134.48,-26.96C143.91,-25.76 153.55,-24.54 162.89,-23.36"/>
<polygon fill="#63b8ff" stroke="#63b8ff" points="133.82,-23.51 124.34,-28.24 134.7,-30.46 133.82,-23.51"/>
</a>
</g>
</g>
</g>
</svg>
