<?xml version="1.0" encoding="UTF-8" standalone="no"?>
<!DOCTYPE svg PUBLIC "-//W3C//DTD SVG 1.1//EN"
 "http://www.w3.org/Graphics/SVG/1.1/DTD/svg11.dtd">
<!-- Generated by graphviz version 2.43.0 (0)
 -->
<!-- Title: Graphical Class Hierarchy Pages: 1 -->
<svg width="401pt" height="86pt"
 viewBox="0.00 0.00 401.00 86.00" xmlns="http://www.w3.org/2000/svg" xmlns:xlink="http://www.w3.org/1999/xlink">
<g id="graph0" class="graph" transform="scale(1 1) rotate(0) translate(4 82)">
<title>Graphical Class Hierarchy</title>
<!-- Node0 -->
<g id="Node000000" class="node">
<title>Node0</title>
<g id="a_Node000000"><a xlink:title=" ">
<polygon fill="#e0e0e0" stroke="#999999" points="76,-72.5 0,-72.5 0,-53.5 76,-53.5 76,-72.5"/>
<text text-anchor="middle" x="38" y="-60.5" font-family="Helvetica,sans-Serif" font-size="10.00">ACCESS_API</text>
</a>
</g>
</g>
<!-- Node1 -->
<g id="Node000001" class="node">
<title>Node1</title>
<g id="a_Node000001"><a xlink:href="class_cpl_1_1_itc_1_1_atomic_request.html" target="_top" xlink:title="This concrete class define the &#39;Atomic&#39; Message request that allows a client to invoke multiple opera...">
<polygon fill="white" stroke="#666666" points="243,-78 112,-78 112,-48 243,-48 243,-78"/>
<text text-anchor="start" x="120" y="-66" font-family="Helvetica,sans-Serif" font-size="10.00">Cpl::Itc::AtomicRequest</text>
<text text-anchor="middle" x="177.5" y="-55" font-family="Helvetica,sans-Serif" font-size="10.00">&lt; ACCESS_API &gt;</text>
</a>
</g>
</g>
<!-- Node0&#45;&gt;Node1 -->
<g id="edge1_Node000000_Node000001" class="edge">
<title>Node0&#45;&gt;Node1</title>
<g id="a_edge1_Node000000_Node000001"><a xlink:title=" ">
<path fill="none" stroke="#63b8ff" d="M86.38,-63C94.64,-63 103.35,-63 111.97,-63"/>
<polygon fill="#63b8ff" stroke="#63b8ff" points="86.21,-59.5 76.21,-63 86.21,-66.5 86.21,-59.5"/>
</a>
</g>
</g>
<!-- Node2 -->
<g id="Node000002" class="node">
<title>Node2</title>
<g id="a_Node000002"><a xlink:href="class_cpl_1_1_itc_1_1_atomic_sync.html" target="_top" xlink:title="This concrete class provides the ITC wrapper implementation for calling the &quot;Atomic Api&quot; synchronousl...">
<polygon fill="white" stroke="#666666" points="393,-54 279,-54 279,-24 393,-24 393,-54"/>
<text text-anchor="start" x="287" y="-42" font-family="Helvetica,sans-Serif" font-size="10.00">Cpl::Itc::AtomicSync</text>
<text text-anchor="middle" x="336" y="-31" font-family="Helvetica,sans-Serif" font-size="10.00">&lt; ACCESS_API &gt;</text>
</a>
</g>
</g>
<!-- Node1&#45;&gt;Node2 -->
<g id="edge2_Node000001_Node000002" class="edge">
<title>Node1&#45;&gt;Node2</title>
<g id="a_edge2_Node000001_Node000002"><a xlink:title=" ">
<path fill="none" stroke="#63b8ff" d="M253.08,-51.56C261.66,-50.25 270.3,-48.92 278.59,-47.65"/>
<polygon fill="#63b8ff" stroke="#63b8ff" points="252.41,-48.12 243.06,-53.1 253.47,-55.04 252.41,-48.12"/>
</a>
</g>
</g>
<!-- Node3 -->
<g id="Node000003" class="node">
<title>Node3</title>
<g id="a_Node000003"><a xlink:href="class_cpl_1_1_itc_1_1_atomic_api.html" target="_top" xlink:title="This abstract class provides an interface to allow a client to call the server synchronously to have ...">
<polygon fill="white" stroke="#666666" points="231,-30 124,-30 124,0 231,0 231,-30"/>
<text text-anchor="start" x="132" y="-18" font-family="Helvetica,sans-Serif" font-size="10.00">Cpl::Itc::AtomicApi</text>
<text text-anchor="middle" x="177.5" y="-7" font-family="Helvetica,sans-Serif" font-size="10.00">&lt; ACCESS_API &gt;</text>
</a>
</g>
</g>
<!-- Node3&#45;&gt;Node2 -->
<g id="edge3_Node000003_Node000002" class="edge">
<title>Node3&#45;&gt;Node2</title>
<g id="a_edge3_Node000003_Node000002"><a xlink:title=" ">
<path fill="none" stroke="#63b8ff" d="M240.94,-24.58C253.46,-26.5 266.54,-28.5 278.84,-30.39"/>
<polygon fill="#63b8ff" stroke="#63b8ff" points="241.46,-21.11 231.05,-23.06 240.4,-28.03 241.46,-21.11"/>
</a>
</g>
</g>
</g>
</svg>
