<?xml version="1.0" encoding="UTF-8" standalone="no"?>
<!DOCTYPE svg PUBLIC "-//W3C//DTD SVG 1.1//EN"
 "http://www.w3.org/Graphics/SVG/1.1/DTD/svg11.dtd">
<!-- Generated by graphviz version 2.43.0 (0)
 -->
<!-- Title: Cpl/Math/real.h Pages: 1 -->
<svg width="228pt" height="82pt"
 viewBox="0.00 0.00 228.00 82.00" xmlns="http://www.w3.org/2000/svg" xmlns:xlink="http://www.w3.org/1999/xlink">
<g id="graph0" class="graph" transform="scale(1 1) rotate(0) translate(4 78)">
<title>Cpl/Math/real.h</title>
<!-- Node1 -->
<g id="Node000001" class="node">
<title>Node1</title>
<g id="a_Node000001"><a xlink:title="This file contains a collection of methods comparing, manipulating, etc.">
<polygon fill="#999999" stroke="#666666" points="179.5,-74 88.5,-74 88.5,-55 179.5,-55 179.5,-74"/>
<text text-anchor="middle" x="134" y="-62" font-family="Helvetica,sans-Serif" font-size="10.00">Cpl/Math/real.h</text>
</a>
</g>
</g>
<!-- Node2 -->
<g id="Node000002" class="node">
<title>Node2</title>
<g id="a_Node000002"><a xlink:title=" ">
<polygon fill="#e0e0e0" stroke="#999999" points="92,-19 0,-19 0,0 92,0 92,-19"/>
<text text-anchor="middle" x="46" y="-7" font-family="Helvetica,sans-Serif" font-size="10.00">colony_config.h</text>
</a>
</g>
</g>
<!-- Node1&#45;&gt;Node2 -->
<g id="edge1_Node000001_Node000002" class="edge">
<title>Node1&#45;&gt;Node2</title>
<g id="a_edge1_Node000001_Node000002"><a xlink:title=" ">
<path fill="none" stroke="#63b8ff" d="M119.86,-54.98C106.21,-46.77 85.31,-34.18 69.22,-24.49"/>
<polygon fill="#63b8ff" stroke="#63b8ff" points="70.77,-21.33 60.4,-19.17 67.16,-27.33 70.77,-21.33"/>
</a>
</g>
</g>
<!-- Node3 -->
<g id="Node000003" class="node">
<title>Node3</title>
<g id="a_Node000003"><a xlink:title=" ">
<polygon fill="#e0e0e0" stroke="#999999" points="157.5,-19 110.5,-19 110.5,0 157.5,0 157.5,-19"/>
<text text-anchor="middle" x="134" y="-7" font-family="Helvetica,sans-Serif" font-size="10.00">cmath</text>
</a>
</g>
</g>
<!-- Node1&#45;&gt;Node3 -->
<g id="edge2_Node000001_Node000003" class="edge">
<title>Node1&#45;&gt;Node3</title>
<g id="a_edge2_Node000001_Node000003"><a xlink:title=" ">
<path fill="none" stroke="#63b8ff" d="M134,-54.75C134,-47.8 134,-37.85 134,-29.13"/>
<polygon fill="#63b8ff" stroke="#63b8ff" points="137.5,-29.09 134,-19.09 130.5,-29.09 137.5,-29.09"/>
</a>
</g>
</g>
<!-- Node4 -->
<g id="Node000004" class="node">
<title>Node4</title>
<g id="a_Node000004"><a xlink:title=" ">
<polygon fill="#e0e0e0" stroke="#999999" points="220,-19 176,-19 176,0 220,0 220,-19"/>
<text text-anchor="middle" x="198" y="-7" font-family="Helvetica,sans-Serif" font-size="10.00">cfloat</text>
</a>
</g>
</g>
<!-- Node1&#45;&gt;Node4 -->
<g id="edge3_Node000001_Node000004" class="edge">
<title>Node1&#45;&gt;Node4</title>
<g id="a_edge3_Node000001_Node000004"><a xlink:title=" ">
<path fill="none" stroke="#63b8ff" d="M144.28,-54.98C153.84,-47.07 168.28,-35.11 179.78,-25.58"/>
<polygon fill="#63b8ff" stroke="#63b8ff" points="182.06,-28.24 187.53,-19.17 177.6,-22.85 182.06,-28.24"/>
</a>
</g>
</g>
</g>
</svg>
