<?xml version="1.0" encoding="UTF-8" standalone="no"?>
<!DOCTYPE svg PUBLIC "-//W3C//DTD SVG 1.1//EN"
 "http://www.w3.org/Graphics/SVG/1.1/DTD/svg11.dtd">
<!-- Generated by graphviz version 2.43.0 (0)
 -->
<!-- Title: Cpl::Io::File::DirList_::DirEntry_T Pages: 1 -->
<svg width="281pt" height="405pt"
 viewBox="0.00 0.00 280.50 405.00" xmlns="http://www.w3.org/2000/svg" xmlns:xlink="http://www.w3.org/1999/xlink">
<g id="graph0" class="graph" transform="scale(1 1) rotate(0) translate(4 401)">
<title>Cpl::Io::File::DirList_::DirEntry_T</title>
<!-- Node1 -->
<g id="Node000001" class="node">
<title>Node1</title>
<g id="a_Node000001"><a xlink:title="Structure to hold the directory name and depth.">
<polygon fill="#999999" stroke="#666666" points="134.5,-30 26.5,-30 26.5,0 134.5,0 134.5,-30"/>
<text text-anchor="start" x="34.5" y="-18" font-family="Helvetica,sans-Serif" font-size="10.00">Cpl::Io::File::DirList</text>
<text text-anchor="middle" x="80.5" y="-7" font-family="Helvetica,sans-Serif" font-size="10.00">_::DirEntry_T</text>
</a>
</g>
</g>
<!-- Node2 -->
<g id="Node000002" class="node">
<title>Node2</title>
<g id="a_Node000002"><a xlink:href="class_cpl_1_1_text_1_1_f_string.html" target="_top" xlink:title=" ">
<polygon fill="white" stroke="#666666" points="161,-107 0,-107 0,-77 161,-77 161,-107"/>
<text text-anchor="start" x="8" y="-95" font-family="Helvetica,sans-Serif" font-size="10.00">Cpl::Text::FString</text>
<text text-anchor="middle" x="80.5" y="-84" font-family="Helvetica,sans-Serif" font-size="10.00">&lt; CPL_IO_FILE_MAX_NAME &gt;</text>
</a>
</g>
</g>
<!-- Node2&#45;&gt;Node1 -->
<g id="edge1_Node000001_Node000002" class="edge">
<title>Node2&#45;&gt;Node1</title>
<g id="a_edge1_Node000001_Node000002"><a xlink:title=" ">
<path fill="none" stroke="#9a32cd" stroke-dasharray="5,2" d="M80.5,-66.54C80.5,-54.45 80.5,-40.29 80.5,-30.04"/>
<polygon fill="#9a32cd" stroke="#9a32cd" points="77,-66.89 80.5,-76.89 84,-66.89 77,-66.89"/>
</a>
</g>
<text text-anchor="middle" x="103.5" y="-51" font-family="Helvetica,sans-Serif" font-size="10.00" fill="grey"> m_name</text>
</g>
<!-- Node3 -->
<g id="Node000003" class="node">
<title>Node3</title>
<g id="a_Node000003"><a xlink:href="class_cpl_1_1_text_1_1_f_string__.html" target="_top" xlink:title="This mostly concrete class implements a &quot;fixed storage&quot; String Type.">
<polygon fill="white" stroke="#666666" points="128.5,-229 24.5,-229 24.5,-210 128.5,-210 128.5,-229"/>
<text text-anchor="middle" x="76.5" y="-217" font-family="Helvetica,sans-Serif" font-size="10.00">Cpl::Text::FString_</text>
</a>
</g>
</g>
<!-- Node3&#45;&gt;Node2 -->
<g id="edge2_Node000002_Node000003" class="edge">
<title>Node3&#45;&gt;Node2</title>
<g id="a_edge2_Node000002_Node000003"><a xlink:title=" ">
<path fill="none" stroke="#63b8ff" d="M77.1,-199.76C77.9,-174.48 79.32,-130.02 80.05,-107.27"/>
<polygon fill="#63b8ff" stroke="#63b8ff" points="73.6,-199.77 76.77,-209.87 80.59,-199.99 73.6,-199.77"/>
</a>
</g>
</g>
<!-- Node7 -->
<g id="Node000007" class="node">
<title>Node7</title>
<g id="a_Node000007"><a xlink:href="class_cpl_1_1_text_1_1_f_string.html" target="_top" xlink:title="This template class represents a NULL terminated string of a specific length.">
<polygon fill="white" stroke="#666666" points="220,-173 93,-173 93,-154 220,-154 220,-173"/>
<text text-anchor="middle" x="156.5" y="-161" font-family="Helvetica,sans-Serif" font-size="10.00">Cpl::Text::FString&lt; S &gt;</text>
</a>
</g>
</g>
<!-- Node3&#45;&gt;Node7 -->
<g id="edge7_Node000007_Node000003" class="edge">
<title>Node3&#45;&gt;Node7</title>
<g id="a_edge7_Node000007_Node000003"><a xlink:title=" ">
<path fill="none" stroke="#63b8ff" d="M97.8,-204.12C112.42,-194.26 131.33,-181.49 143.68,-173.15"/>
<polygon fill="#63b8ff" stroke="#63b8ff" points="95.68,-201.33 89.35,-209.82 99.6,-207.13 95.68,-201.33"/>
</a>
</g>
</g>
<!-- Node4 -->
<g id="Node000004" class="node">
<title>Node4</title>
<g id="a_Node000004"><a xlink:href="class_cpl_1_1_text_1_1_string__.html" target="_top" xlink:title="This partially concrete class implements the portions of the String Api that is independent of the in...">
<polygon fill="white" stroke="#666666" points="125.5,-285 27.5,-285 27.5,-266 125.5,-266 125.5,-285"/>
<text text-anchor="middle" x="76.5" y="-273" font-family="Helvetica,sans-Serif" font-size="10.00">Cpl::Text::String_</text>
</a>
</g>
</g>
<!-- Node4&#45;&gt;Node3 -->
<g id="edge3_Node000003_Node000004" class="edge">
<title>Node4&#45;&gt;Node3</title>
<g id="a_edge3_Node000003_Node000004"><a xlink:title=" ">
<path fill="none" stroke="#63b8ff" d="M76.5,-255.3C76.5,-246.41 76.5,-236.28 76.5,-229.25"/>
<polygon fill="#63b8ff" stroke="#63b8ff" points="73,-255.58 76.5,-265.58 80,-255.58 73,-255.58"/>
</a>
</g>
</g>
<!-- Node5 -->
<g id="Node000005" class="node">
<title>Node5</title>
<g id="a_Node000005"><a xlink:href="class_cpl_1_1_text_1_1_string.html" target="_top" xlink:title="This abstract class defines the operations that can be before on a NULL terminated string.">
<polygon fill="white" stroke="#666666" points="123,-341 30,-341 30,-322 123,-322 123,-341"/>
<text text-anchor="middle" x="76.5" y="-329" font-family="Helvetica,sans-Serif" font-size="10.00">Cpl::Text::String</text>
</a>
</g>
</g>
<!-- Node5&#45;&gt;Node4 -->
<g id="edge4_Node000004_Node000005" class="edge">
<title>Node5&#45;&gt;Node4</title>
<g id="a_edge4_Node000004_Node000005"><a xlink:title=" ">
<path fill="none" stroke="#63b8ff" d="M76.5,-311.3C76.5,-302.41 76.5,-292.28 76.5,-285.25"/>
<polygon fill="#63b8ff" stroke="#63b8ff" points="73,-311.58 76.5,-321.58 80,-311.58 73,-311.58"/>
</a>
</g>
</g>
<!-- Node6 -->
<g id="Node000006" class="node">
<title>Node6</title>
<g id="a_Node000006"><a xlink:href="class_cpl_1_1_container_1_1_key.html" target="_top" xlink:title="This abstract class defines the interface that a contained object must support if it has comparable k...">
<polygon fill="white" stroke="#666666" points="131.5,-397 21.5,-397 21.5,-378 131.5,-378 131.5,-397"/>
<text text-anchor="middle" x="76.5" y="-385" font-family="Helvetica,sans-Serif" font-size="10.00">Cpl::Container::Key</text>
</a>
</g>
</g>
<!-- Node6&#45;&gt;Node5 -->
<g id="edge5_Node000005_Node000006" class="edge">
<title>Node6&#45;&gt;Node5</title>
<g id="a_edge5_Node000005_Node000006"><a xlink:title=" ">
<path fill="none" stroke="#63b8ff" d="M76.5,-367.3C76.5,-358.41 76.5,-348.28 76.5,-341.25"/>
<polygon fill="#63b8ff" stroke="#63b8ff" points="73,-367.58 76.5,-377.58 80,-367.58 73,-367.58"/>
</a>
</g>
</g>
<!-- Node7&#45;&gt;Node2 -->
<g id="edge6_Node000002_Node000007" class="edge">
<title>Node7&#45;&gt;Node2</title>
<g id="a_edge6_Node000002_Node000007"><a xlink:title=" ">
<path fill="none" stroke="orange" stroke-dasharray="5,2" d="M139.78,-147.21C126.71,-135.26 108.69,-118.78 95.96,-107.14"/>
<polygon fill="orange" stroke="orange" points="137.44,-149.81 147.18,-153.98 142.16,-144.65 137.44,-149.81"/>
</a>
</g>
<text text-anchor="middle" x="198.5" y="-128" font-family="Helvetica,sans-Serif" font-size="10.00" fill="grey"> &lt; CPL_IO_FILE_MAX_NAME &gt;</text>
</g>
</g>
</svg>
