<?xml version="1.0" encoding="UTF-8" standalone="no"?>
<!DOCTYPE svg PUBLIC "-//W3C//DTD SVG 1.1//EN"
 "http://www.w3.org/Graphics/SVG/1.1/DTD/svg11.dtd">
<!-- Generated by graphviz version 2.43.0 (0)
 -->
<!-- Title: Cpl::Dm::Persistent::Record::Item_T Pages: 1 -->
<svg width="2642pt" height="552pt"
 viewBox="0.00 0.00 2642.00 551.50" xmlns="http://www.w3.org/2000/svg" xmlns:xlink="http://www.w3.org/1999/xlink">
<g id="graph0" class="graph" transform="scale(1 1) rotate(0) translate(4 547.5)">
<title>Cpl::Dm::Persistent::Record::Item_T</title>
<!-- Node1 -->
<g id="Node000001" class="node">
<title>Node1</title>
<g id="a_Node000001"><a xlink:title="This data structure associates a Data Model subscriber instance with a Model Point instance.">
<polygon fill="#999999" stroke="#666666" points="1717.5,-276.5 1607.5,-276.5 1607.5,-246.5 1717.5,-246.5 1717.5,-276.5"/>
<text text-anchor="start" x="1615.5" y="-264.5" font-family="Helvetica,sans-Serif" font-size="10.00">Cpl::Dm::Persistent</text>
<text text-anchor="middle" x="1662.5" y="-253.5" font-family="Helvetica,sans-Serif" font-size="10.00">::Record::Item_T</text>
</a>
</g>
</g>
<!-- Node23 -->
<g id="Node000023" class="node">
<title>Node23</title>
<g id="a_Node000023"><a xlink:href="class_cpl_1_1_dm_1_1_persistent_1_1_record.html" target="_top" xlink:title="This mostly concrete class implements the Cpl::Persistent::Record interface where a Record instance c...">
<polygon fill="white" stroke="#666666" points="1964.5,-176.5 1854.5,-176.5 1854.5,-146.5 1964.5,-146.5 1964.5,-176.5"/>
<text text-anchor="start" x="1862.5" y="-164.5" font-family="Helvetica,sans-Serif" font-size="10.00">Cpl::Dm::Persistent</text>
<text text-anchor="middle" x="1909.5" y="-153.5" font-family="Helvetica,sans-Serif" font-size="10.00">::Record</text>
</a>
</g>
</g>
<!-- Node1&#45;&gt;Node23 -->
<g id="edge37_Node000023_Node000001" class="edge">
<title>Node1&#45;&gt;Node23</title>
<g id="a_edge37_Node000023_Node000001"><a xlink:title=" ">
<path fill="none" stroke="#9a32cd" stroke-dasharray="5,2" d="M1719.22,-243.29C1767.15,-227.58 1829.43,-207.02 1835,-204.5 1852.64,-196.51 1871.48,-185.44 1885.66,-176.53"/>
<polygon fill="#9a32cd" stroke="#9a32cd" points="1717.96,-240.02 1709.55,-246.46 1720.14,-246.67 1717.96,-240.02"/>
</a>
</g>
<text text-anchor="middle" x="1792" y="-235.5" font-family="Helvetica,sans-Serif" font-size="10.00" fill="grey"> m_items</text>
</g>
<!-- Node2 -->
<g id="Node000002" class="node">
<title>Node2</title>
<g id="a_Node000002"><a xlink:href="class_cpl_1_1_dm_1_1_model_point.html" target="_top" xlink:title="This mostly abstract class defines the interface for a Model Point.">
<polygon fill="white" stroke="#666666" points="1446.5,-293 1330.5,-293 1330.5,-274 1446.5,-274 1446.5,-293"/>
<text text-anchor="middle" x="1388.5" y="-281" font-family="Helvetica,sans-Serif" font-size="10.00">Cpl::Dm::ModelPoint</text>
</a>
</g>
</g>
<!-- Node2&#45;&gt;Node1 -->
<g id="edge1_Node000001_Node000002" class="edge">
<title>Node2&#45;&gt;Node1</title>
<g id="a_edge1_Node000001_Node000002"><a xlink:title=" ">
<path fill="none" stroke="#9a32cd" stroke-dasharray="5,2" d="M1456.49,-278.08C1502.93,-274.33 1563.97,-269.39 1607.33,-265.88"/>
<polygon fill="#9a32cd" stroke="#9a32cd" points="1456.21,-274.59 1446.52,-278.89 1456.77,-281.57 1456.21,-274.59"/>
</a>
</g>
<text text-anchor="middle" x="1533" y="-277.5" font-family="Helvetica,sans-Serif" font-size="10.00" fill="grey"> mpPtr</text>
</g>
<!-- Node4 -->
<g id="Node000004" class="node">
<title>Node4</title>
<g id="a_Node000004"><a xlink:href="class_cpl_1_1_dm_1_1_subscriber_composer.html" target="_top" xlink:title=" ">
<polygon fill="white" stroke="#666666" points="2634,-325 2470,-325 2470,-284 2634,-284 2634,-325"/>
<text text-anchor="start" x="2478" y="-313" font-family="Helvetica,sans-Serif" font-size="10.00">Cpl::Dm::SubscriberComposer</text>
<text text-anchor="start" x="2478" y="-302" font-family="Helvetica,sans-Serif" font-size="10.00">&lt; Cpl::Dm::Persistent::Record,</text>
<text text-anchor="middle" x="2552" y="-291" font-family="Helvetica,sans-Serif" font-size="10.00"> Cpl::Dm::ModelPoint &gt;</text>
</a>
</g>
</g>
<!-- Node2&#45;&gt;Node4 -->
<g id="edge39_Node000004_Node000002" class="edge">
<title>Node2&#45;&gt;Node4</title>
<g id="a_edge39_Node000004_Node000002"><a xlink:title=" ">
<path fill="none" stroke="#9a32cd" stroke-dasharray="5,2" d="M1456.68,-291.58C1511.66,-297.5 1591.5,-304.5 1661.5,-304.5 1661.5,-304.5 1661.5,-304.5 2197,-304.5 2290.57,-304.5 2398.05,-304.5 2469.8,-304.5"/>
<polygon fill="#9a32cd" stroke="#9a32cd" points="1457.03,-288.1 1446.71,-290.49 1456.27,-295.06 1457.03,-288.1"/>
</a>
</g>
<text text-anchor="middle" x="1909.5" y="-307.5" font-family="Helvetica,sans-Serif" font-size="10.00" fill="grey"> m_notificationCb</text>
</g>
<!-- Node6 -->
<g id="Node000006" class="node">
<title>Node6</title>
<g id="a_Node000006"><a xlink:href="class_cpl_1_1_dm_1_1_subscriber_base.html" target="_top" xlink:title="This mostly concrete class defines the Subscriber interface &#45; for change notifications &#45; to a Model P...">
<polygon fill="white" stroke="#666666" points="1731,-373 1594,-373 1594,-354 1731,-354 1731,-373"/>
<text text-anchor="middle" x="1662.5" y="-361" font-family="Helvetica,sans-Serif" font-size="10.00">Cpl::Dm::SubscriberBase</text>
</a>
</g>
</g>
<!-- Node2&#45;&gt;Node6 -->
<g id="edge9_Node000006_Node000002" class="edge">
<title>Node2&#45;&gt;Node6</title>
<g id="a_edge9_Node000006_Node000002"><a xlink:title=" ">
<path fill="none" stroke="#9a32cd" stroke-dasharray="5,2" d="M1428.07,-296.13C1446.73,-302.15 1469.48,-309.36 1490,-315.5 1536.8,-329.5 1591.16,-344.5 1625.92,-353.94"/>
<polygon fill="#9a32cd" stroke="#9a32cd" points="1429.03,-292.77 1418.44,-293.01 1426.88,-299.43 1429.03,-292.77"/>
</a>
</g>
<text text-anchor="middle" x="1533" y="-342.5" font-family="Helvetica,sans-Serif" font-size="10.00" fill="grey"> m_point</text>
</g>
<!-- Node3 -->
<g id="Node000003" class="node">
<title>Node3</title>
<g id="a_Node000003"><a xlink:href="class_cpl_1_1_container_1_1_item.html" target="_top" xlink:title="This class is used by the Container classes to implement a various types of singly linked containers.">
<polygon fill="white" stroke="#666666" points="115,-251 1,-251 1,-232 115,-232 115,-251"/>
<text text-anchor="middle" x="58" y="-239" font-family="Helvetica,sans-Serif" font-size="10.00">Cpl::Container::Item</text>
</a>
</g>
</g>
<!-- Node3&#45;&gt;Node2 -->
<g id="edge2_Node000002_Node000003" class="edge">
<title>Node3&#45;&gt;Node2</title>
<g id="a_edge2_Node000002_Node000003"><a xlink:title=" ">
<path fill="none" stroke="#63b8ff" d="M125.58,-241.5C198.29,-241.5 318.18,-241.5 421.5,-241.5 421.5,-241.5 421.5,-241.5 1107,-241.5 1194.16,-241.5 1294.88,-261.58 1348.75,-273.97"/>
<polygon fill="#63b8ff" stroke="#63b8ff" points="125.2,-238 115.2,-241.5 125.2,-245 125.2,-238"/>
</a>
</g>
</g>
<!-- Node8 -->
<g id="Node000008" class="node">
<title>Node8</title>
<g id="a_Node000008"><a xlink:href="class_cpl_1_1_container_1_1_extended_item.html" target="_top" xlink:title="This class is used by the Container classes to implement a various types of DOUBLY linked containers.">
<polygon fill="white" stroke="#666666" points="1186,-213 1026,-213 1026,-194 1186,-194 1186,-213"/>
<text text-anchor="middle" x="1106" y="-201" font-family="Helvetica,sans-Serif" font-size="10.00">Cpl::Container::ExtendedItem</text>
</a>
</g>
</g>
<!-- Node3&#45;&gt;Node8 -->
<g id="edge8_Node000008_Node000003" class="edge">
<title>Node3&#45;&gt;Node8</title>
<g id="a_edge8_Node000008_Node000003"><a xlink:title=" ">
<path fill="none" stroke="#63b8ff" d="M113.58,-230.26C120.43,-229.16 127.36,-228.2 134,-227.5 463.75,-192.87 859.78,-197.28 1025.74,-201.19"/>
<polygon fill="#63b8ff" stroke="#63b8ff" points="112.91,-226.83 103.64,-231.96 114.09,-233.73 112.91,-226.83"/>
</a>
</g>
</g>
<!-- Node13 -->
<g id="Node000013" class="node">
<title>Node13</title>
<g id="a_Node000013"><a xlink:href="class_cpl_1_1_system_1_1_signable.html" target="_top" xlink:title="This abstract class defines the interface by which a client can cause an object that is waiting&#45;on&#45;a&#45;...">
<polygon fill="white" stroke="#666666" points="484,-426 361,-426 361,-407 484,-407 484,-426"/>
<text text-anchor="middle" x="422.5" y="-414" font-family="Helvetica,sans-Serif" font-size="10.00">Cpl::System::Signable</text>
</a>
</g>
</g>
<!-- Node3&#45;&gt;Node13 -->
<g id="edge15_Node000013_Node000003" class="edge">
<title>Node3&#45;&gt;Node13</title>
<g id="a_edge15_Node000013_Node000003"><a xlink:title=" ">
<path fill="none" stroke="#63b8ff" d="M62.76,-261.23C70.12,-293.83 89.73,-358.34 134,-388.5 202.49,-435.16 302.35,-433.25 364.55,-426.03"/>
<polygon fill="#63b8ff" stroke="#63b8ff" points="66.13,-260.21 60.65,-251.14 59.27,-261.64 66.13,-260.21"/>
</a>
</g>
</g>
<!-- Node4&#45;&gt;Node1 -->
<g id="edge3_Node000001_Node000004" class="edge">
<title>Node4&#45;&gt;Node1</title>
<g id="a_edge3_Node000001_Node000004"><a xlink:title=" ">
<path fill="none" stroke="#9a32cd" stroke-dasharray="5,2" d="M2459.69,-291.23C2457.1,-290.97 2454.53,-290.73 2452,-290.5 2176.72,-266.04 1845.61,-262.12 1717.63,-261.56"/>
<polygon fill="#9a32cd" stroke="#9a32cd" points="2459.45,-294.73 2469.77,-292.32 2460.2,-287.77 2459.45,-294.73"/>
</a>
</g>
<text text-anchor="middle" x="2040.5" y="-271.5" font-family="Helvetica,sans-Serif" font-size="10.00" fill="grey"> observerPtr</text>
</g>
<!-- Node5 -->
<g id="Node000005" class="node">
<title>Node5</title>
<g id="a_Node000005"><a xlink:href="class_cpl_1_1_dm_1_1_subscriber.html" target="_top" xlink:title="This template class defines a type safe Subscriber.">
<polygon fill="white" stroke="#666666" points="2097,-358.5 1984,-358.5 1984,-328.5 2097,-328.5 2097,-358.5"/>
<text text-anchor="start" x="1992" y="-346.5" font-family="Helvetica,sans-Serif" font-size="10.00">Cpl::Dm::Subscriber</text>
<text text-anchor="middle" x="2040.5" y="-335.5" font-family="Helvetica,sans-Serif" font-size="10.00">&lt; MP &gt;</text>
</a>
</g>
</g>
<!-- Node5&#45;&gt;Node4 -->
<g id="edge4_Node000004_Node000005" class="edge">
<title>Node5&#45;&gt;Node4</title>
<g id="a_edge4_Node000004_Node000005"><a xlink:title=" ">
<path fill="none" stroke="#63b8ff" d="M2107.12,-341.12C2188.28,-337.8 2330.57,-330.76 2452,-318.5 2457.79,-317.92 2463.75,-317.24 2469.75,-316.52"/>
<polygon fill="#63b8ff" stroke="#63b8ff" points="2106.91,-337.62 2097.05,-341.52 2107.19,-344.62 2106.91,-337.62"/>
</a>
</g>
</g>
<!-- Node6&#45;&gt;Node5 -->
<g id="edge5_Node000005_Node000006" class="edge">
<title>Node6&#45;&gt;Node5</title>
<g id="a_edge5_Node000005_Node000006"><a xlink:title=" ">
<path fill="none" stroke="#63b8ff" d="M1741.57,-359.35C1813.86,-355.5 1919.57,-349.88 1983.71,-346.47"/>
<polygon fill="#63b8ff" stroke="#63b8ff" points="1740.96,-355.87 1731.16,-359.9 1741.33,-362.87 1740.96,-355.87"/>
</a>
</g>
</g>
<!-- Node32 -->
<g id="Node000032" class="node">
<title>Node32</title>
<g id="a_Node000032"><a xlink:href="class_cpl_1_1_dm_1_1_subscriber.html" target="_top" xlink:title="This template class defines a type safe Subscriber.">
<polygon fill="white" stroke="#666666" points="1966,-401.5 1853,-401.5 1853,-371.5 1966,-371.5 1966,-401.5"/>
<text text-anchor="start" x="1861" y="-389.5" font-family="Helvetica,sans-Serif" font-size="10.00">Cpl::Dm::Subscriber</text>
<text text-anchor="middle" x="1909.5" y="-378.5" font-family="Helvetica,sans-Serif" font-size="10.00">&lt; MP &gt;</text>
</a>
</g>
</g>
<!-- Node6&#45;&gt;Node32 -->
<g id="edge42_Node000032_Node000006" class="edge">
<title>Node6&#45;&gt;Node32</title>
<g id="a_edge42_Node000032_Node000006"><a xlink:title=" ">
<path fill="none" stroke="#63b8ff" d="M1741.14,-370.79C1777.38,-374.19 1819.69,-378.16 1852.7,-381.26"/>
<polygon fill="#63b8ff" stroke="#63b8ff" points="1741.38,-367.3 1731.1,-369.85 1740.72,-374.27 1741.38,-367.3"/>
</a>
</g>
</g>
<!-- Node7 -->
<g id="Node000007" class="node">
<title>Node7</title>
<g id="a_Node000007"><a xlink:href="class_cpl_1_1_dm_1_1_subscriber_api.html" target="_top" xlink:title="This abstract class defines the Subscriber interface &#45; for change notifications &#45; to a Model Points d...">
<polygon fill="white" stroke="#666666" points="1452.5,-371 1324.5,-371 1324.5,-352 1452.5,-352 1452.5,-371"/>
<text text-anchor="middle" x="1388.5" y="-359" font-family="Helvetica,sans-Serif" font-size="10.00">Cpl::Dm::SubscriberApi</text>
</a>
</g>
</g>
<!-- Node7&#45;&gt;Node6 -->
<g id="edge6_Node000006_Node000007" class="edge">
<title>Node7&#45;&gt;Node6</title>
<g id="a_edge6_Node000006_Node000007"><a xlink:title=" ">
<path fill="none" stroke="#63b8ff" d="M1462.71,-362.04C1503.4,-362.34 1553.7,-362.71 1593.52,-363"/>
<polygon fill="#63b8ff" stroke="#63b8ff" points="1462.61,-358.54 1452.59,-361.96 1462.56,-365.54 1462.61,-358.54"/>
</a>
</g>
</g>
<!-- Node31 -->
<g id="Node000031" class="node">
<title>Node31</title>
<g id="a_Node000031"><a xlink:href="class_cpl_1_1_dm_1_1_subscriber_composer.html" target="_top" xlink:title="This template class is a composer pattern/class that manages the callback function for a Model Point&#39;...">
<polygon fill="white" stroke="#666666" points="2277,-401.5 2115,-401.5 2115,-371.5 2277,-371.5 2277,-401.5"/>
<text text-anchor="start" x="2123" y="-389.5" font-family="Helvetica,sans-Serif" font-size="10.00">Cpl::Dm::SubscriberComposer</text>
<text text-anchor="middle" x="2196" y="-378.5" font-family="Helvetica,sans-Serif" font-size="10.00">&lt; CONTEXT, MP &gt;</text>
</a>
</g>
</g>
<!-- Node7&#45;&gt;Node31 -->
<g id="edge43_Node000031_Node000007" class="edge">
<title>Node7&#45;&gt;Node31</title>
<g id="a_edge43_Node000031_Node000007"><a xlink:title=" ">
<path fill="none" stroke="#9a32cd" stroke-dasharray="5,2" d="M1460.3,-374.68C1464.36,-376.39 1468.3,-378.32 1472,-380.5 1482.3,-386.57 1479.14,-395.48 1490,-400.5 1682.09,-489.24 1754.55,-418.56 1966,-410.5 2024.35,-408.28 2038.96,-406.85 2097,-400.5 2102.81,-399.86 2108.8,-399.15 2114.83,-398.39"/>
<polygon fill="#9a32cd" stroke="#9a32cd" points="1461.22,-371.29 1450.62,-371.08 1458.78,-377.85 1461.22,-371.29"/>
</a>
</g>
<text text-anchor="middle" x="1792" y="-440.5" font-family="Helvetica,sans-Serif" font-size="10.00" fill="grey"> m_notificationCb</text>
</g>
<!-- Node8&#45;&gt;Node7 -->
<g id="edge7_Node000007_Node000008" class="edge">
<title>Node8&#45;&gt;Node7</title>
<g id="a_edge7_Node000007_Node000008"><a xlink:title=" ">
<path fill="none" stroke="#63b8ff" d="M1132.84,-218.05C1189.49,-249.96 1323.32,-325.35 1370.6,-351.98"/>
<polygon fill="#63b8ff" stroke="#63b8ff" points="1134.55,-215 1124.12,-213.15 1131.12,-221.1 1134.55,-215"/>
</a>
</g>
</g>
<!-- Node29 -->
<g id="Node000029" class="node">
<title>Node29</title>
<g id="a_Node000029"><a xlink:href="class_cpl_1_1_system_1_1_counter_callback__.html" target="_top" xlink:title="This abstract class defines the call&#45;back interface for a Counter object.">
<polygon fill="white" stroke="#666666" points="1472,-200 1305,-200 1305,-181 1472,-181 1472,-200"/>
<text text-anchor="middle" x="1388.5" y="-188" font-family="Helvetica,sans-Serif" font-size="10.00">Cpl::System::CounterCallback_</text>
</a>
</g>
</g>
<!-- Node8&#45;&gt;Node29 -->
<g id="edge35_Node000029_Node000008" class="edge">
<title>Node8&#45;&gt;Node29</title>
<g id="a_edge35_Node000029_Node000008"><a xlink:title=" ">
<path fill="none" stroke="#63b8ff" d="M1196.37,-199.36C1231.04,-197.75 1270.5,-195.92 1304.53,-194.35"/>
<polygon fill="#63b8ff" stroke="#63b8ff" points="1196.08,-195.87 1186.26,-199.83 1196.41,-202.86 1196.08,-195.87"/>
</a>
</g>
</g>
<!-- Node9 -->
<g id="Node000009" class="node">
<title>Node9</title>
<g id="a_Node000009"><a xlink:href="class_cpl_1_1_dm_1_1_event_loop.html" target="_top" xlink:title="This class extends the Cpl::System::EventLoop class to support the asynchronous change notification g...">
<polygon fill="white" stroke="#666666" points="1445,-408 1332,-408 1332,-389 1445,-389 1445,-408"/>
<text text-anchor="middle" x="1388.5" y="-396" font-family="Helvetica,sans-Serif" font-size="10.00">Cpl::Dm::EventLoop</text>
</a>
</g>
</g>
<!-- Node9&#45;&gt;Node6 -->
<g id="edge10_Node000006_Node000009" class="edge">
<title>Node9&#45;&gt;Node6</title>
<g id="a_edge10_Node000006_Node000009"><a xlink:title=" ">
<path fill="none" stroke="#9a32cd" stroke-dasharray="5,2" d="M1455.32,-390.66C1491.04,-386.33 1535.96,-380.78 1576,-375.5 1581.94,-374.72 1588.12,-373.88 1594.31,-373.04"/>
<polygon fill="#9a32cd" stroke="#9a32cd" points="1454.53,-387.22 1445.02,-391.9 1455.37,-394.17 1454.53,-387.22"/>
</a>
</g>
<text text-anchor="middle" x="1533" y="-388.5" font-family="Helvetica,sans-Serif" font-size="10.00" fill="grey"> m_eventLoopHdl</text>
</g>
<!-- Node10 -->
<g id="Node000010" class="node">
<title>Node10</title>
<g id="a_Node000010"><a xlink:href="class_cpl_1_1_system_1_1_event_loop.html" target="_top" xlink:title="This concrete class is a Runnable object that provides a event driven execution model for a thread.">
<polygon fill="white" stroke="#666666" points="1172,-408 1040,-408 1040,-389 1172,-389 1172,-408"/>
<text text-anchor="middle" x="1106" y="-396" font-family="Helvetica,sans-Serif" font-size="10.00">Cpl::System::EventLoop</text>
</a>
</g>
</g>
<!-- Node10&#45;&gt;Node9 -->
<g id="edge11_Node000009_Node000010" class="edge">
<title>Node10&#45;&gt;Node9</title>
<g id="a_edge11_Node000009_Node000010"><a xlink:title=" ">
<path fill="none" stroke="#63b8ff" d="M1182.21,-398.5C1229.29,-398.5 1288.94,-398.5 1331.79,-398.5"/>
<polygon fill="#63b8ff" stroke="#63b8ff" points="1182.06,-395 1172.06,-398.5 1182.06,-402 1182.06,-395"/>
</a>
</g>
</g>
<!-- Node11 -->
<g id="Node000011" class="node">
<title>Node11</title>
<g id="a_Node000011"><a xlink:href="class_cpl_1_1_system_1_1_runnable.html" target="_top" xlink:title="This is an abstract class defines the interface for an object that is &quot;executed&quot; when a Thread object...">
<polygon fill="white" stroke="#666666" points="843.5,-289 716.5,-289 716.5,-270 843.5,-270 843.5,-289"/>
<text text-anchor="middle" x="780" y="-277" font-family="Helvetica,sans-Serif" font-size="10.00">Cpl::System::Runnable</text>
</a>
</g>
</g>
<!-- Node11&#45;&gt;Node10 -->
<g id="edge12_Node000010_Node000011" class="edge">
<title>Node11&#45;&gt;Node10</title>
<g id="a_edge12_Node000010_Node000011"><a xlink:title=" ">
<path fill="none" stroke="#63b8ff" d="M853.86,-272.45C903.15,-271.78 966.58,-279.5 1008,-316.5 1030.04,-336.18 1004.59,-360.14 1026,-380.5 1030.08,-384.38 1034.81,-387.48 1039.89,-389.96"/>
<polygon fill="#63b8ff" stroke="#63b8ff" points="853.47,-268.96 843.56,-272.72 853.65,-275.96 853.47,-268.96"/>
</a>
</g>
</g>
<!-- Node12 -->
<g id="Node000012" class="node">
<title>Node12</title>
<g id="a_Node000012"><a xlink:href="class_cpl_1_1_system_1_1_event_flag.html" target="_top" xlink:title="This abstract class defines the interface to generated a &#39;Event Flag&#39;.">
<polygon fill="white" stroke="#666666" points="845,-524 715,-524 715,-505 845,-505 845,-524"/>
<text text-anchor="middle" x="780" y="-512" font-family="Helvetica,sans-Serif" font-size="10.00">Cpl::System::EventFlag</text>
</a>
</g>
</g>
<!-- Node12&#45;&gt;Node10 -->
<g id="edge13_Node000010_Node000012" class="edge">
<title>Node12&#45;&gt;Node10</title>
<g id="a_edge13_Node000010_Node000012"><a xlink:title=" ">
<path fill="none" stroke="#63b8ff" d="M855.25,-518.49C901.2,-518.15 960.33,-512.49 1008,-490.5 1049.31,-471.45 1084.22,-427.64 1098.32,-408.15"/>
<polygon fill="#63b8ff" stroke="#63b8ff" points="855.06,-514.99 845.06,-518.48 855.05,-521.99 855.06,-514.99"/>
</a>
</g>
</g>
<!-- Node13&#45;&gt;Node10 -->
<g id="edge14_Node000010_Node000013" class="edge">
<title>Node13&#45;&gt;Node10</title>
<g id="a_edge14_Node000010_Node000013"><a xlink:title=" ">
<path fill="none" stroke="#63b8ff" d="M494.27,-420.16C604.41,-424.92 823.39,-430.64 1008,-412.5 1020.02,-411.32 1032.84,-409.72 1045.08,-408.02"/>
<polygon fill="#63b8ff" stroke="#63b8ff" points="494.42,-416.66 484.27,-419.71 494.11,-423.65 494.42,-416.66"/>
</a>
</g>
</g>
<!-- Node18 -->
<g id="Node000018" class="node">
<title>Node18</title>
<g id="a_Node000018"><a xlink:href="class_cpl_1_1_system_1_1_thread.html" target="_top" xlink:title="This abstract class defines the operations that can be performed on a thread.">
<polygon fill="white" stroke="#666666" points="837.5,-363 722.5,-363 722.5,-344 837.5,-344 837.5,-363"/>
<text text-anchor="middle" x="780" y="-351" font-family="Helvetica,sans-Serif" font-size="10.00">Cpl::System::Thread</text>
</a>
</g>
</g>
<!-- Node13&#45;&gt;Node18 -->
<g id="edge21_Node000018_Node000013" class="edge">
<title>Node13&#45;&gt;Node18</title>
<g id="a_edge21_Node000018_Node000013"><a xlink:title=" ">
<path fill="none" stroke="#63b8ff" d="M494.22,-407.5C547.23,-400.33 621.44,-389.37 686,-376.5 696.68,-374.37 720.79,-368.4 741.78,-363.07"/>
<polygon fill="#63b8ff" stroke="#63b8ff" points="493.69,-404.04 484.25,-408.84 494.62,-410.98 493.69,-404.04"/>
</a>
</g>
</g>
<!-- Node20 -->
<g id="Node000020" class="node">
<title>Node20</title>
<g id="a_Node000020"><a xlink:href="class_cpl_1_1_system_1_1_semaphore.html" target="_top" xlink:title="This semaphore class defines the interface for a Counting Semaphore.">
<polygon fill="white" stroke="#666666" points="848.5,-487 711.5,-487 711.5,-468 848.5,-468 848.5,-487"/>
<text text-anchor="middle" x="780" y="-475" font-family="Helvetica,sans-Serif" font-size="10.00">Cpl::System::Semaphore</text>
</a>
</g>
</g>
<!-- Node13&#45;&gt;Node20 -->
<g id="edge24_Node000020_Node000013" class="edge">
<title>Node13&#45;&gt;Node20</title>
<g id="a_edge24_Node000020_Node000013"><a xlink:title=" ">
<path fill="none" stroke="#63b8ff" d="M456.49,-429.6C478.41,-437.76 508.01,-447.77 535,-453.5 593.81,-465.99 662.01,-472 711.33,-474.88"/>
<polygon fill="#63b8ff" stroke="#63b8ff" points="457.59,-426.27 447,-426 455.11,-432.82 457.59,-426.27"/>
</a>
</g>
</g>
<!-- Node14 -->
<g id="Node000014" class="node">
<title>Node14</title>
<g id="a_Node000014"><a xlink:href="class_cpl_1_1_system_1_1_timer_manager.html" target="_top" xlink:title="This mostly concrete class implements manages a list of Software Timers.">
<polygon fill="white" stroke="#666666" points="856,-326 704,-326 704,-307 856,-307 856,-326"/>
<text text-anchor="middle" x="780" y="-314" font-family="Helvetica,sans-Serif" font-size="10.00">Cpl::System::TimerManager</text>
</a>
</g>
</g>
<!-- Node14&#45;&gt;Node10 -->
<g id="edge16_Node000010_Node000014" class="edge">
<title>Node14&#45;&gt;Node10</title>
<g id="a_edge16_Node000010_Node000014"><a xlink:title=" ">
<path fill="none" stroke="#63b8ff" d="M866.12,-319.2C910.86,-323.82 965.16,-334.7 1008,-359.5 1018.64,-365.66 1015.48,-374.15 1026,-380.5 1031.66,-383.92 1037.9,-386.69 1044.33,-388.93"/>
<polygon fill="#63b8ff" stroke="#63b8ff" points="866.42,-315.71 856.14,-318.26 865.77,-322.68 866.42,-315.71"/>
</a>
</g>
</g>
<!-- Node28 -->
<g id="Node000028" class="node">
<title>Node28</title>
<g id="a_Node000028"><a xlink:href="class_cpl_1_1_system_1_1_timer.html" target="_top" xlink:title="This mostly concrete interface defines the operations that can be performed on a software timer.">
<polygon fill="white" stroke="#666666" points="1717.5,-142 1607.5,-142 1607.5,-123 1717.5,-123 1717.5,-142"/>
<text text-anchor="middle" x="1662.5" y="-130" font-family="Helvetica,sans-Serif" font-size="10.00">Cpl::System::Timer</text>
</a>
</g>
</g>
<!-- Node14&#45;&gt;Node28 -->
<g id="edge36_Node000028_Node000014" class="edge">
<title>Node14&#45;&gt;Node28</title>
<g id="a_edge36_Node000028_Node000014"><a xlink:title=" ">
<path fill="none" stroke="#9a32cd" stroke-dasharray="5,2" d="M841.23,-304.05C846.3,-302.4 851.29,-300.55 856,-298.5 939.17,-262.25 940.32,-215.32 1026,-185.5 1231.2,-114.08 1495.26,-121.02 1607.34,-128.14"/>
<polygon fill="#9a32cd" stroke="#9a32cd" points="840,-300.76 831.42,-306.98 842.01,-307.47 840,-300.76"/>
</a>
</g>
<text text-anchor="middle" x="1245.5" y="-144.5" font-family="Helvetica,sans-Serif" font-size="10.00" fill="grey"> m_timingSource</text>
</g>
<!-- Node15 -->
<g id="Node000015" class="node">
<title>Node15</title>
<g id="a_Node000015"><a xlink:href="class_cpl_1_1_system_1_1_counter_source__.html" target="_top" xlink:title="This abstract class defines the interface for registering for an Counter object with the Timer Manage...">
<polygon fill="white" stroke="#666666" points="501.5,-326 343.5,-326 343.5,-307 501.5,-307 501.5,-326"/>
<text text-anchor="middle" x="422.5" y="-314" font-family="Helvetica,sans-Serif" font-size="10.00">Cpl::System::CounterSource_</text>
</a>
</g>
</g>
<!-- Node15&#45;&gt;Node14 -->
<g id="edge17_Node000014_Node000015" class="edge">
<title>Node15&#45;&gt;Node14</title>
<g id="a_edge17_Node000014_Node000015"><a xlink:title=" ">
<path fill="none" stroke="#63b8ff" d="M511.59,-316.5C570.69,-316.5 647.71,-316.5 703.91,-316.5"/>
<polygon fill="#63b8ff" stroke="#63b8ff" points="511.52,-313 501.52,-316.5 511.52,-320 511.52,-313"/>
</a>
</g>
</g>
<!-- Node16 -->
<g id="Node000016" class="node">
<title>Node16</title>
<g id="a_Node000016"><a xlink:href="class_cpl_1_1_container_1_1_d_list.html" target="_top" xlink:title=" ">
<polygon fill="white" stroke="#666666" points="517,-380.5 328,-380.5 328,-350.5 517,-350.5 517,-380.5"/>
<text text-anchor="start" x="336" y="-368.5" font-family="Helvetica,sans-Serif" font-size="10.00">Cpl::Container::DList</text>
<text text-anchor="middle" x="422.5" y="-357.5" font-family="Helvetica,sans-Serif" font-size="10.00">&lt; Cpl::System::CounterCallback_ &gt;</text>
</a>
</g>
</g>
<!-- Node16&#45;&gt;Node14 -->
<g id="edge18_Node000014_Node000016" class="edge">
<title>Node16&#45;&gt;Node14</title>
<g id="a_edge18_Node000014_Node000016"><a xlink:title=" ">
<path fill="none" stroke="#9a32cd" stroke-dasharray="5,2" d="M527.25,-352.08C575.53,-345.72 633.73,-337.92 686,-330.5 695.94,-329.09 706.47,-327.55 716.74,-326.02"/>
<polygon fill="#9a32cd" stroke="#9a32cd" points="526.56,-348.64 517.1,-353.41 527.47,-355.58 526.56,-348.64"/>
</a>
</g>
<text text-anchor="middle" x="610.5" y="-364.5" font-family="Helvetica,sans-Serif" font-size="10.00" fill="grey"> m_counters</text>
<text text-anchor="middle" x="610.5" y="-353.5" font-family="Helvetica,sans-Serif" font-size="10.00" fill="grey">m_pendingAttach</text>
</g>
<!-- Node17 -->
<g id="Node000017" class="node">
<title>Node17</title>
<g id="a_Node000017"><a xlink:href="class_cpl_1_1_container_1_1_d_list.html" target="_top" xlink:title="This template class implements a Doubly linked list which maintains the ordering imposed on it by the...">
<polygon fill="white" stroke="#666666" points="116,-440.5 0,-440.5 0,-410.5 116,-410.5 116,-440.5"/>
<text text-anchor="start" x="8" y="-428.5" font-family="Helvetica,sans-Serif" font-size="10.00">Cpl::Container::DList</text>
<text text-anchor="middle" x="58" y="-417.5" font-family="Helvetica,sans-Serif" font-size="10.00">&lt; ITEM &gt;</text>
</a>
</g>
</g>
<!-- Node17&#45;&gt;Node16 -->
<g id="edge19_Node000016_Node000017" class="edge">
<title>Node17&#45;&gt;Node16</title>
<g id="a_edge19_Node000016_Node000017"><a xlink:title=" ">
<path fill="none" stroke="orange" stroke-dasharray="5,2" d="M126.11,-414.39C183.65,-404.87 267.06,-391.06 330.58,-380.55"/>
<polygon fill="orange" stroke="orange" points="125.33,-410.97 116.04,-416.06 126.48,-417.88 125.33,-410.97"/>
</a>
</g>
<text text-anchor="middle" x="222" y="-415.5" font-family="Helvetica,sans-Serif" font-size="10.00" fill="grey"> &lt; Cpl::System::CounterCallback_ &gt;</text>
</g>
<!-- Node22 -->
<g id="Node000022" class="node">
<title>Node22</title>
<g id="a_Node000022"><a xlink:href="class_cpl_1_1_container_1_1_d_list.html" target="_top" xlink:title=" ">
<polygon fill="white" stroke="#666666" points="686,-541.5 535,-541.5 535,-511.5 686,-511.5 686,-541.5"/>
<text text-anchor="start" x="543" y="-529.5" font-family="Helvetica,sans-Serif" font-size="10.00">Cpl::Container::DList</text>
<text text-anchor="middle" x="610.5" y="-518.5" font-family="Helvetica,sans-Serif" font-size="10.00">&lt; Cpl::Dm::SubscriberApi &gt;</text>
</a>
</g>
</g>
<!-- Node17&#45;&gt;Node22 -->
<g id="edge27_Node000022_Node000017" class="edge">
<title>Node17&#45;&gt;Node22</title>
<g id="a_edge27_Node000022_Node000017"><a xlink:title=" ">
<path fill="none" stroke="orange" stroke-dasharray="5,2" d="M126.1,-437.81C229.47,-456.78 426.95,-493.01 534.75,-512.79"/>
<polygon fill="orange" stroke="orange" points="126.56,-434.34 116.1,-435.98 125.3,-441.22 126.56,-434.34"/>
</a>
</g>
<text text-anchor="middle" x="222" y="-472.5" font-family="Helvetica,sans-Serif" font-size="10.00" fill="grey"> &lt; Cpl::Dm::SubscriberApi &gt;</text>
</g>
<!-- Node18&#45;&gt;Node10 -->
<g id="edge20_Node000010_Node000018" class="edge">
<title>Node18&#45;&gt;Node10</title>
<g id="a_edge20_Node000010_Node000018"><a xlink:title=" ">
<path fill="none" stroke="#9a32cd" stroke-dasharray="5,2" d="M847.54,-360.81C892.85,-366 954.14,-373.46 1008,-381.5 1022.8,-383.71 1038.81,-386.39 1053.48,-388.97"/>
<polygon fill="#9a32cd" stroke="#9a32cd" points="847.88,-357.32 837.55,-359.67 847.09,-364.28 847.88,-357.32"/>
</a>
</g>
<text text-anchor="middle" x="941" y="-384.5" font-family="Helvetica,sans-Serif" font-size="10.00" fill="grey"> m_myThreadPtr</text>
</g>
<!-- Node19 -->
<g id="Node000019" class="node">
<title>Node19</title>
<g id="a_Node000019"><a xlink:href="class_cpl_1_1_system_1_1_shared_event_handler_api.html" target="_top" xlink:title="This abstract class defines the interface for a Shared Event Handler.">
<polygon fill="white" stroke="#666666" points="851.5,-411.5 708.5,-411.5 708.5,-381.5 851.5,-381.5 851.5,-411.5"/>
<text text-anchor="start" x="716.5" y="-399.5" font-family="Helvetica,sans-Serif" font-size="10.00">Cpl::System::SharedEvent</text>
<text text-anchor="middle" x="780" y="-388.5" font-family="Helvetica,sans-Serif" font-size="10.00">HandlerApi</text>
</a>
</g>
</g>
<!-- Node19&#45;&gt;Node10 -->
<g id="edge22_Node000010_Node000019" class="edge">
<title>Node19&#45;&gt;Node10</title>
<g id="a_edge22_Node000010_Node000019"><a xlink:title=" ">
<path fill="none" stroke="#9a32cd" stroke-dasharray="5,2" d="M861.77,-397C916.77,-397.34 988.63,-397.78 1039.96,-398.1"/>
<polygon fill="#9a32cd" stroke="#9a32cd" points="861.72,-393.5 851.7,-396.94 861.68,-400.5 861.72,-393.5"/>
</a>
</g>
<text text-anchor="middle" x="941" y="-400.5" font-family="Helvetica,sans-Serif" font-size="10.00" fill="grey"> m_eventHandler</text>
</g>
<!-- Node20&#45;&gt;Node10 -->
<g id="edge23_Node000010_Node000020" class="edge">
<title>Node20&#45;&gt;Node10</title>
<g id="a_edge23_Node000010_Node000020"><a xlink:title=" ">
<path fill="none" stroke="#9a32cd" stroke-dasharray="5,2" d="M858.73,-477.1C903.34,-474.96 959.87,-468.95 1008,-453.5 1040.44,-443.09 1074.12,-421 1092.01,-408.21"/>
<polygon fill="#9a32cd" stroke="#9a32cd" points="858.38,-473.62 848.54,-477.54 858.68,-480.61 858.38,-473.62"/>
</a>
</g>
<text text-anchor="middle" x="941" y="-478.5" font-family="Helvetica,sans-Serif" font-size="10.00" fill="grey"> m_sema</text>
</g>
<!-- Node21 -->
<g id="Node000021" class="node">
<title>Node21</title>
<g id="a_Node000021"><a xlink:href="class_cpl_1_1_dm_1_1_notification_api__.html" target="_top" xlink:title="This class has PACKAGE Scope, i.e.">
<polygon fill="white" stroke="#666666" points="1175.5,-371 1036.5,-371 1036.5,-352 1175.5,-352 1175.5,-371"/>
<text text-anchor="middle" x="1106" y="-359" font-family="Helvetica,sans-Serif" font-size="10.00">Cpl::Dm::NotificationApi_</text>
</a>
</g>
</g>
<!-- Node21&#45;&gt;Node9 -->
<g id="edge25_Node000009_Node000021" class="edge">
<title>Node21&#45;&gt;Node9</title>
<g id="a_edge25_Node000009_Node000021"><a xlink:title=" ">
<path fill="none" stroke="#63b8ff" d="M1185.67,-371.88C1232.2,-378.01 1290.01,-385.64 1331.82,-391.16"/>
<polygon fill="#63b8ff" stroke="#63b8ff" points="1185.99,-368.39 1175.62,-370.55 1185.07,-375.33 1185.99,-368.39"/>
</a>
</g>
</g>
<!-- Node22&#45;&gt;Node9 -->
<g id="edge26_Node000009_Node000022" class="edge">
<title>Node22&#45;&gt;Node9</title>
<g id="a_edge26_Node000009_Node000022"><a xlink:title=" ">
<path fill="none" stroke="#9a32cd" stroke-dasharray="5,2" d="M696.3,-533.17C698.89,-533.29 701.47,-533.4 704,-533.5 771.51,-536.05 788.54,-537.04 856,-533.5 923.84,-529.94 941.48,-531.29 1008,-517.5 1145.25,-489.05 1303.46,-430.89 1363.09,-408.03"/>
<polygon fill="#9a32cd" stroke="#9a32cd" points="696.36,-529.67 686.19,-532.64 695.99,-536.66 696.36,-529.67"/>
</a>
</g>
<text text-anchor="middle" x="941" y="-535.5" font-family="Helvetica,sans-Serif" font-size="10.00" fill="grey"> m_pendingMpNotifications</text>
</g>
<!-- Node23&#45;&gt;Node4 -->
<g id="edge28_Node000004_Node000023" class="edge">
<title>Node23&#45;&gt;Node4</title>
<g id="a_edge28_Node000004_Node000023"><a xlink:title=" ">
<path fill="none" stroke="#9a32cd" stroke-dasharray="5,2" d="M1975.17,-163.29C2078.8,-167.93 2287.15,-184.61 2452,-244.5 2477.88,-253.9 2504.41,-270.42 2523.49,-283.75"/>
<polygon fill="#9a32cd" stroke="#9a32cd" points="1975.01,-159.78 1964.87,-162.85 1974.71,-166.77 1975.01,-159.78"/>
</a>
</g>
<text text-anchor="middle" x="2196" y="-199.5" font-family="Helvetica,sans-Serif" font-size="10.00" fill="grey"> m_context</text>
</g>
<!-- Node24 -->
<g id="Node000024" class="node">
<title>Node24</title>
<g id="a_Node000024"><a xlink:href="class_cpl_1_1_persistent_1_1_record.html" target="_top" xlink:title="This abstract class defines the public interface for a Record instance.">
<polygon fill="white" stroke="#666666" points="1726,-19 1599,-19 1599,0 1726,0 1726,-19"/>
<text text-anchor="middle" x="1662.5" y="-7" font-family="Helvetica,sans-Serif" font-size="10.00">Cpl::Persistent::Record</text>
</a>
</g>
</g>
<!-- Node24&#45;&gt;Node23 -->
<g id="edge29_Node000023_Node000024" class="edge">
<title>Node24&#45;&gt;Node23</title>
<g id="a_edge29_Node000023_Node000024"><a xlink:title=" ">
<path fill="none" stroke="#63b8ff" d="M1736.12,-20.05C1768.6,-27.42 1806.02,-39.81 1835,-60.5 1866.94,-83.31 1890.46,-124.35 1901.5,-146.45"/>
<polygon fill="#63b8ff" stroke="#63b8ff" points="1736.72,-16.6 1726.21,-17.92 1735.25,-23.44 1736.72,-16.6"/>
</a>
</g>
</g>
<!-- Node25 -->
<g id="Node000025" class="node">
<title>Node25</title>
<g id="a_Node000025"><a xlink:href="class_cpl_1_1_persistent_1_1_payload.html" target="_top" xlink:title="This abstract class defines the interface accessing the &#39;data payload&#39; of an individual Record instan...">
<polygon fill="white" stroke="#666666" points="1728,-228 1597,-228 1597,-209 1728,-209 1728,-228"/>
<text text-anchor="middle" x="1662.5" y="-216" font-family="Helvetica,sans-Serif" font-size="10.00">Cpl::Persistent::Payload</text>
</a>
</g>
</g>
<!-- Node25&#45;&gt;Node23 -->
<g id="edge30_Node000023_Node000025" class="edge">
<title>Node25&#45;&gt;Node23</title>
<g id="a_edge30_Node000023_Node000025"><a xlink:title=" ">
<path fill="none" stroke="#63b8ff" d="M1721.01,-206.89C1754.39,-199.95 1797.19,-190.72 1835,-181.5 1841.3,-179.97 1847.87,-178.29 1854.4,-176.57"/>
<polygon fill="#63b8ff" stroke="#63b8ff" points="1720.05,-203.51 1710.97,-208.97 1721.47,-210.37 1720.05,-203.51"/>
</a>
</g>
</g>
<!-- Node26 -->
<g id="Node000026" class="node">
<title>Node26</title>
<g id="a_Node000026"><a xlink:href="class_cpl_1_1_dm_1_1_persistent_1_1_flush_request.html" target="_top" xlink:title="This abstract class define ITC message type and payload for the application to request flushing the R...">
<polygon fill="white" stroke="#666666" points="1717.5,-190.5 1607.5,-190.5 1607.5,-160.5 1717.5,-160.5 1717.5,-190.5"/>
<text text-anchor="start" x="1615.5" y="-178.5" font-family="Helvetica,sans-Serif" font-size="10.00">Cpl::Dm::Persistent</text>
<text text-anchor="middle" x="1662.5" y="-167.5" font-family="Helvetica,sans-Serif" font-size="10.00">::FlushRequest</text>
</a>
</g>
</g>
<!-- Node26&#45;&gt;Node23 -->
<g id="edge31_Node000023_Node000026" class="edge">
<title>Node26&#45;&gt;Node23</title>
<g id="a_edge31_Node000023_Node000026"><a xlink:title=" ">
<path fill="none" stroke="#63b8ff" d="M1727.59,-171.84C1766.92,-169.59 1816.75,-166.74 1854.15,-164.61"/>
<polygon fill="#63b8ff" stroke="#63b8ff" points="1727.35,-168.35 1717.57,-172.41 1727.75,-175.33 1727.35,-168.35"/>
</a>
</g>
</g>
<!-- Node27 -->
<g id="Node000027" class="node">
<title>Node27</title>
<g id="a_Node000027"><a xlink:href="class_cpl_1_1_dm_1_1_persistent_1_1_erase_request.html" target="_top" xlink:title="This abstract class define ITC message type and payload for the application to request invalidating/c...">
<polygon fill="white" stroke="#666666" points="1717.5,-104.5 1607.5,-104.5 1607.5,-74.5 1717.5,-74.5 1717.5,-104.5"/>
<text text-anchor="start" x="1615.5" y="-92.5" font-family="Helvetica,sans-Serif" font-size="10.00">Cpl::Dm::Persistent</text>
<text text-anchor="middle" x="1662.5" y="-81.5" font-family="Helvetica,sans-Serif" font-size="10.00">::EraseRequest</text>
</a>
</g>
</g>
<!-- Node27&#45;&gt;Node23 -->
<g id="edge32_Node000023_Node000027" class="edge">
<title>Node27&#45;&gt;Node23</title>
<g id="a_edge32_Node000023_Node000027"><a xlink:title=" ">
<path fill="none" stroke="#63b8ff" d="M1727.44,-107.36C1759.74,-116.49 1799.51,-127.88 1835,-138.5 1843.45,-141.03 1852.43,-143.78 1861.11,-146.48"/>
<polygon fill="#63b8ff" stroke="#63b8ff" points="1728.24,-103.95 1717.67,-104.6 1726.34,-110.69 1728.24,-103.95"/>
</a>
</g>
</g>
<!-- Node28&#45;&gt;Node23 -->
<g id="edge33_Node000023_Node000028" class="edge">
<title>Node28&#45;&gt;Node23</title>
<g id="a_edge33_Node000023_Node000028"><a xlink:title=" ">
<path fill="none" stroke="#63b8ff" d="M1727.59,-140.09C1766.92,-144.74 1816.75,-150.64 1854.15,-155.07"/>
<polygon fill="#63b8ff" stroke="#63b8ff" points="1727.91,-136.6 1717.57,-138.9 1727.09,-143.55 1727.91,-136.6"/>
</a>
</g>
</g>
<!-- Node29&#45;&gt;Node28 -->
<g id="edge34_Node000028_Node000029" class="edge">
<title>Node29&#45;&gt;Node28</title>
<g id="a_edge34_Node000028_Node000029"><a xlink:title=" ">
<path fill="none" stroke="#63b8ff" d="M1443.93,-178.89C1494.7,-168.07 1569.52,-152.11 1616.86,-142.02"/>
<polygon fill="#63b8ff" stroke="#63b8ff" points="1443.16,-175.48 1434.11,-180.99 1444.62,-182.32 1443.16,-175.48"/>
</a>
</g>
</g>
<!-- Node30 -->
<g id="Node000030" class="node">
<title>Node30</title>
<g id="a_Node000030"><a xlink:href="class_cpl_1_1_persistent_1_1_chunk.html" target="_top" xlink:title="This abstract class defines the interface for a Chunk.">
<polygon fill="white" stroke="#666666" points="1724.5,-56 1600.5,-56 1600.5,-37 1724.5,-37 1724.5,-56"/>
<text text-anchor="middle" x="1662.5" y="-44" font-family="Helvetica,sans-Serif" font-size="10.00">Cpl::Persistent::Chunk</text>
</a>
</g>
</g>
<!-- Node30&#45;&gt;Node23 -->
<g id="edge38_Node000023_Node000030" class="edge">
<title>Node30&#45;&gt;Node23</title>
<g id="a_edge38_Node000023_Node000030"><a xlink:title=" ">
<path fill="none" stroke="#9a32cd" stroke-dasharray="5,2" d="M1724.72,-58.35C1758.63,-66.53 1800.73,-79.42 1835,-98.5 1858.05,-111.33 1880.48,-132.12 1894.37,-146.28"/>
<polygon fill="#9a32cd" stroke="#9a32cd" points="1725.46,-54.93 1714.93,-56.06 1723.87,-61.74 1725.46,-54.93"/>
</a>
</g>
<text text-anchor="middle" x="1792" y="-101.5" font-family="Helvetica,sans-Serif" font-size="10.00" fill="grey"> m_chunkHandler</text>
</g>
<!-- Node31&#45;&gt;Node4 -->
<g id="edge40_Node000004_Node000031" class="edge">
<title>Node31&#45;&gt;Node4</title>
<g id="a_edge40_Node000004_Node000031"><a xlink:title=" ">
<path fill="none" stroke="orange" stroke-dasharray="5,2" d="M2287.29,-383.92C2336.83,-380.51 2398.82,-372.97 2452,-356.5 2475.55,-349.2 2500.1,-336.35 2518.86,-325.25"/>
<polygon fill="orange" stroke="orange" points="2286.99,-380.43 2277.24,-384.56 2287.44,-387.41 2286.99,-380.43"/>
</a>
</g>
<text text-anchor="start" x="2295" y="-396.5" font-family="Helvetica,sans-Serif" font-size="10.00" fill="grey"> &lt; Cpl::Dm::Persistent</text>
<text text-anchor="middle" x="2373.5" y="-385.5" font-family="Helvetica,sans-Serif" font-size="10.00" fill="grey">::Record, Cpl::Dm::ModelPoint &gt;</text>
</g>
<!-- Node32&#45;&gt;Node31 -->
<g id="edge41_Node000031_Node000032" class="edge">
<title>Node32&#45;&gt;Node31</title>
<g id="a_edge41_Node000031_Node000032"><a xlink:title=" ">
<path fill="none" stroke="#63b8ff" d="M1976.25,-386.5C2017.54,-386.5 2071.07,-386.5 2114.84,-386.5"/>
<polygon fill="#63b8ff" stroke="#63b8ff" points="1976.03,-383 1966.03,-386.5 1976.03,-390 1976.03,-383"/>
</a>
</g>
</g>
</g>
</svg>
