<?xml version="1.0" encoding="UTF-8" standalone="no"?>
<!DOCTYPE svg PUBLIC "-//W3C//DTD SVG 1.1//EN"
 "http://www.w3.org/Graphics/SVG/1.1/DTD/svg11.dtd">
<!-- Generated by graphviz version 2.38.0 (20140413.2041)
 -->
<!-- Title: AsyncReturnHandler.h Pages: 1 -->
<svg width="241pt" height="196pt"
 viewBox="0.00 0.00 241.00 196.00" xmlns="http://www.w3.org/2000/svg" xmlns:xlink="http://www.w3.org/1999/xlink">
<g id="graph0" class="graph" transform="scale(1 1) rotate(0) translate(4 192)">
<title>AsyncReturnHandler.h</title>
<polygon fill="white" stroke="none" points="-4,4 -4,-192 237,-192 237,4 -4,4"/>
<!-- Node1 -->
<g id="node1" class="node"><title>Node1</title>
<polygon fill="#bfbfbf" stroke="black" points="62.5,-168.5 62.5,-187.5 176.5,-187.5 176.5,-168.5 62.5,-168.5"/>
<text text-anchor="middle" x="119.5" y="-175.5" font-family="Helvetica,sans-Serif" font-size="10.00">AsyncReturnHandler.h</text>
</g>
<!-- Node2 -->
<g id="node2" class="node"><title>Node2</title>
<g id="a_node2"><a xlink:href="_return_handler_8h.html" target="_top" xlink:title="Cpl/Itc/ReturnHandler.h">
<polygon fill="white" stroke="black" points="0,-112.5 0,-131.5 117,-131.5 117,-112.5 0,-112.5"/>
<text text-anchor="middle" x="58.5" y="-119.5" font-family="Helvetica,sans-Serif" font-size="10.00">Cpl/Itc/ReturnHandler.h</text>
</a>
</g>
</g>
<!-- Node1&#45;&gt;Node2 -->
<g id="edge1" class="edge"><title>Node1&#45;&gt;Node2</title>
<path fill="none" stroke="midnightblue" d="M109.699,-168.324C100.682,-160.341 87.094,-148.313 76.182,-138.653"/>
<polygon fill="midnightblue" stroke="midnightblue" points="78.2866,-135.842 68.479,-131.834 73.6467,-141.083 78.2866,-135.842"/>
</g>
<!-- Node3 -->
<g id="node3" class="node"><title>Node3</title>
<g id="a_node3"><a xlink:href="_post_api_8h.html" target="_top" xlink:title="Cpl/Itc/PostApi.h">
<polygon fill="white" stroke="black" points="135.5,-112.5 135.5,-131.5 225.5,-131.5 225.5,-112.5 135.5,-112.5"/>
<text text-anchor="middle" x="180.5" y="-119.5" font-family="Helvetica,sans-Serif" font-size="10.00">Cpl/Itc/PostApi.h</text>
</a>
</g>
</g>
<!-- Node1&#45;&gt;Node3 -->
<g id="edge2" class="edge"><title>Node1&#45;&gt;Node3</title>
<path fill="none" stroke="midnightblue" d="M129.301,-168.324C138.318,-160.341 151.906,-148.313 162.818,-138.653"/>
<polygon fill="midnightblue" stroke="midnightblue" points="165.353,-141.083 170.521,-131.834 160.713,-135.842 165.353,-141.083"/>
</g>
<!-- Node4 -->
<g id="node4" class="node"><title>Node4</title>
<g id="a_node4"><a xlink:href="_message_8h.html" target="_top" xlink:title="Cpl/Itc/Message.h">
<polygon fill="white" stroke="black" points="133,-56.5 133,-75.5 228,-75.5 228,-56.5 133,-56.5"/>
<text text-anchor="middle" x="180.5" y="-63.5" font-family="Helvetica,sans-Serif" font-size="10.00">Cpl/Itc/Message.h</text>
</a>
</g>
</g>
<!-- Node3&#45;&gt;Node4 -->
<g id="edge3" class="edge"><title>Node3&#45;&gt;Node4</title>
<path fill="none" stroke="midnightblue" d="M180.5,-112.083C180.5,-105.006 180.5,-94.8611 180.5,-85.9865"/>
<polygon fill="midnightblue" stroke="midnightblue" points="184,-85.751 180.5,-75.7511 177,-85.7511 184,-85.751"/>
</g>
<!-- Node5 -->
<g id="node5" class="node"><title>Node5</title>
<g id="a_node5"><a xlink:href="_item_8h.html" target="_top" xlink:title="Cpl/Container/Item.h">
<polygon fill="white" stroke="black" points="128,-0.5 128,-19.5 233,-19.5 233,-0.5 128,-0.5"/>
<text text-anchor="middle" x="180.5" y="-7.5" font-family="Helvetica,sans-Serif" font-size="10.00">Cpl/Container/Item.h</text>
</a>
</g>
</g>
<!-- Node4&#45;&gt;Node5 -->
<g id="edge4" class="edge"><title>Node4&#45;&gt;Node5</title>
<path fill="none" stroke="midnightblue" d="M180.5,-56.083C180.5,-49.0059 180.5,-38.8611 180.5,-29.9865"/>
<polygon fill="midnightblue" stroke="midnightblue" points="184,-29.751 180.5,-19.7511 177,-29.7511 184,-29.751"/>
</g>
</g>
</svg>
