<?xml version="1.0" encoding="UTF-8" standalone="no"?>
<!DOCTYPE svg PUBLIC "-//W3C//DTD SVG 1.1//EN"
 "http://www.w3.org/Graphics/SVG/1.1/DTD/svg11.dtd">
<!-- Generated by graphviz version 2.38.0 (20140413.2041)
 -->
<!-- Title: AsyncReturnHandler.h Pages: 1 -->
<svg width="280pt" height="252pt"
 viewBox="0.00 0.00 279.50 252.00" xmlns="http://www.w3.org/2000/svg" xmlns:xlink="http://www.w3.org/1999/xlink">
<g id="graph0" class="graph" transform="scale(1 1) rotate(0) translate(4 248)">
<title>AsyncReturnHandler.h</title>
<polygon fill="white" stroke="none" points="-4,4 -4,-248 275.5,-248 275.5,4 -4,4"/>
<!-- Node1 -->
<g id="node1" class="node"><title>Node1</title>
<polygon fill="#bfbfbf" stroke="black" points="82,-224.5 82,-243.5 196,-243.5 196,-224.5 82,-224.5"/>
<text text-anchor="middle" x="139" y="-231.5" font-family="Helvetica,sans-Serif" font-size="10.00">AsyncReturnHandler.h</text>
</g>
<!-- Node2 -->
<g id="node2" class="node"><title>Node2</title>
<g id="a_node2"><a xlink:href="_response_message_8h.html" target="_top" xlink:title="ResponseMessage.h">
<polygon fill="white" stroke="black" points="85,-168.5 85,-187.5 193,-187.5 193,-168.5 85,-168.5"/>
<text text-anchor="middle" x="139" y="-175.5" font-family="Helvetica,sans-Serif" font-size="10.00">ResponseMessage.h</text>
</a>
</g>
</g>
<!-- Node1&#45;&gt;Node2 -->
<g id="edge1" class="edge"><title>Node1&#45;&gt;Node2</title>
<path fill="none" stroke="midnightblue" d="M139,-213.805C139,-204.91 139,-194.78 139,-187.751"/>
<polygon fill="midnightblue" stroke="midnightblue" points="135.5,-214.083 139,-224.083 142.5,-214.083 135.5,-214.083"/>
</g>
<!-- Node3 -->
<g id="node3" class="node"><title>Node3</title>
<g id="a_node3"><a xlink:href="_atomic_request_8h.html" target="_top" xlink:title="AtomicRequest.h">
<polygon fill="white" stroke="black" points="6,-112.5 6,-131.5 98,-131.5 98,-112.5 6,-112.5"/>
<text text-anchor="middle" x="52" y="-119.5" font-family="Helvetica,sans-Serif" font-size="10.00">AtomicRequest.h</text>
</a>
</g>
</g>
<!-- Node2&#45;&gt;Node3 -->
<g id="edge2" class="edge"><title>Node2&#45;&gt;Node3</title>
<path fill="none" stroke="midnightblue" d="M116.284,-162.901C100.331,-152.999 79.5025,-140.071 65.9434,-131.655"/>
<polygon fill="midnightblue" stroke="midnightblue" points="114.68,-166.024 125.022,-168.324 118.371,-160.077 114.68,-166.024"/>
</g>
<!-- Node5 -->
<g id="node5" class="node"><title>Node5</title>
<g id="a_node5"><a xlink:href="_close_request_8h.html" target="_top" xlink:title="CloseRequest.h">
<polygon fill="white" stroke="black" points="96,-56.5 96,-75.5 182,-75.5 182,-56.5 96,-56.5"/>
<text text-anchor="middle" x="139" y="-63.5" font-family="Helvetica,sans-Serif" font-size="10.00">CloseRequest.h</text>
</a>
</g>
</g>
<!-- Node2&#45;&gt;Node5 -->
<g id="edge4" class="edge"><title>Node2&#45;&gt;Node5</title>
<path fill="none" stroke="midnightblue" d="M139,-158.348C139,-134.254 139,-93.3079 139,-75.5914"/>
<polygon fill="midnightblue" stroke="midnightblue" points="135.5,-158.368 139,-168.368 142.5,-158.369 135.5,-158.368"/>
</g>
<!-- Node7 -->
<g id="node7" class="node"><title>Node7</title>
<g id="a_node7"><a xlink:href="_open_request_8h.html" target="_top" xlink:title="OpenRequest.h">
<polygon fill="white" stroke="black" points="180,-112.5 180,-131.5 264,-131.5 264,-112.5 180,-112.5"/>
<text text-anchor="middle" x="222" y="-119.5" font-family="Helvetica,sans-Serif" font-size="10.00">OpenRequest.h</text>
</a>
</g>
</g>
<!-- Node2&#45;&gt;Node7 -->
<g id="edge6" class="edge"><title>Node2&#45;&gt;Node7</title>
<path fill="none" stroke="midnightblue" d="M161.099,-162.622C176.262,-152.757 195.883,-139.992 208.698,-131.655"/>
<polygon fill="midnightblue" stroke="midnightblue" points="158.809,-159.937 152.335,-168.324 162.626,-165.804 158.809,-159.937"/>
</g>
<!-- Node4 -->
<g id="node4" class="node"><title>Node4</title>
<g id="a_node4"><a xlink:href="_atomic_sync_8h.html" target="_top" xlink:title="AtomicSync.h">
<polygon fill="white" stroke="black" points="0,-56.5 0,-75.5 78,-75.5 78,-56.5 0,-56.5"/>
<text text-anchor="middle" x="39" y="-63.5" font-family="Helvetica,sans-Serif" font-size="10.00">AtomicSync.h</text>
</a>
</g>
</g>
<!-- Node3&#45;&gt;Node4 -->
<g id="edge3" class="edge"><title>Node3&#45;&gt;Node4</title>
<path fill="none" stroke="midnightblue" d="M47.4501,-102.101C45.2919,-93.1357 42.8176,-82.8579 41.1067,-75.7511"/>
<polygon fill="midnightblue" stroke="midnightblue" points="44.1099,-103.18 49.8533,-112.083 50.9155,-101.542 44.1099,-103.18"/>
</g>
<!-- Node6 -->
<g id="node6" class="node"><title>Node6</title>
<g id="a_node6"><a xlink:href="_close_sync_8h.html" target="_top" xlink:title="CloseSync.h">
<polygon fill="white" stroke="black" points="151,-0.5 151,-19.5 223,-19.5 223,-0.5 151,-0.5"/>
<text text-anchor="middle" x="187" y="-7.5" font-family="Helvetica,sans-Serif" font-size="10.00">CloseSync.h</text>
</a>
</g>
</g>
<!-- Node5&#45;&gt;Node6 -->
<g id="edge5" class="edge"><title>Node5&#45;&gt;Node6</title>
<path fill="none" stroke="midnightblue" d="M153.728,-48.4314C162.14,-38.9673 172.349,-27.4827 179.221,-19.7511"/>
<polygon fill="midnightblue" stroke="midnightblue" points="150.954,-46.2836 146.926,-56.083 156.186,-50.9342 150.954,-46.2836"/>
</g>
<!-- Node8 -->
<g id="node8" class="node"><title>Node8</title>
<g id="a_node8"><a xlink:href="_open_sync_8h.html" target="_top" xlink:title="OpenSync.h">
<polygon fill="white" stroke="black" points="200.5,-56.5 200.5,-75.5 271.5,-75.5 271.5,-56.5 200.5,-56.5"/>
<text text-anchor="middle" x="236" y="-63.5" font-family="Helvetica,sans-Serif" font-size="10.00">OpenSync.h</text>
</a>
</g>
</g>
<!-- Node7&#45;&gt;Node8 -->
<g id="edge7" class="edge"><title>Node7&#45;&gt;Node8</title>
<path fill="none" stroke="midnightblue" d="M226.823,-102.396C229.165,-93.362 231.868,-82.936 233.731,-75.7511"/>
<polygon fill="midnightblue" stroke="midnightblue" points="223.434,-101.525 224.312,-112.083 230.21,-103.281 223.434,-101.525"/>
</g>
<!-- Node8&#45;&gt;Node6 -->
<g id="edge8" class="edge"><title>Node8&#45;&gt;Node6</title>
<path fill="none" stroke="midnightblue" d="M220.966,-48.4314C212.378,-38.9673 201.957,-27.4827 194.941,-19.7511"/>
<polygon fill="midnightblue" stroke="midnightblue" points="218.597,-51.0293 227.909,-56.083 223.781,-46.3254 218.597,-51.0293"/>
</g>
</g>
</svg>
