<?xml version="1.0" encoding="UTF-8" standalone="no"?>
<!DOCTYPE svg PUBLIC "-//W3C//DTD SVG 1.1//EN"
 "http://www.w3.org/Graphics/SVG/1.1/DTD/svg11.dtd">
<!-- Generated by graphviz version 2.38.0 (20140413.2041)
 -->
<!-- Title: AtomicCallback.h Pages: 1 -->
<svg width="188pt" height="140pt"
 viewBox="0.00 0.00 188.00 140.00" xmlns="http://www.w3.org/2000/svg" xmlns:xlink="http://www.w3.org/1999/xlink">
<g id="graph0" class="graph" transform="scale(1 1) rotate(0) translate(4 136)">
<title>AtomicCallback.h</title>
<polygon fill="white" stroke="none" points="-4,4 -4,-136 184,-136 184,4 -4,4"/>
<!-- Node1 -->
<g id="node1" class="node"><title>Node1</title>
<polygon fill="#bfbfbf" stroke="black" points="37.5,-112.5 37.5,-131.5 130.5,-131.5 130.5,-112.5 37.5,-112.5"/>
<text text-anchor="middle" x="84" y="-119.5" font-family="Helvetica,sans-Serif" font-size="10.00">AtomicCallback.h</text>
</g>
<!-- Node2 -->
<g id="node2" class="node"><title>Node2</title>
<g id="a_node2"><a xlink:href="_atomic_api_8h.html" target="_top" xlink:title="AtomicApi.h">
<polygon fill="white" stroke="black" points="0,-56.5 0,-75.5 70,-75.5 70,-56.5 0,-56.5"/>
<text text-anchor="middle" x="35" y="-63.5" font-family="Helvetica,sans-Serif" font-size="10.00">AtomicApi.h</text>
</a>
</g>
</g>
<!-- Node1&#45;&gt;Node2 -->
<g id="edge1" class="edge"><title>Node1&#45;&gt;Node2</title>
<path fill="none" stroke="midnightblue" d="M68.9655,-104.431C60.3778,-94.9673 49.9565,-83.4827 42.9408,-75.7511"/>
<polygon fill="midnightblue" stroke="midnightblue" points="66.5967,-107.029 75.9086,-112.083 71.7807,-102.325 66.5967,-107.029"/>
</g>
<!-- Node4 -->
<g id="node4" class="node"><title>Node4</title>
<g id="a_node4"><a xlink:href="_atomic_request_8h.html" target="_top" xlink:title="AtomicRequest.h">
<polygon fill="white" stroke="black" points="88,-56.5 88,-75.5 180,-75.5 180,-56.5 88,-56.5"/>
<text text-anchor="middle" x="134" y="-63.5" font-family="Helvetica,sans-Serif" font-size="10.00">AtomicRequest.h</text>
</a>
</g>
</g>
<!-- Node1&#45;&gt;Node4 -->
<g id="edge3" class="edge"><title>Node1&#45;&gt;Node4</title>
<path fill="none" stroke="midnightblue" d="M99.0763,-104.718C107.889,-95.1997 118.666,-83.5608 125.897,-75.7511"/>
<polygon fill="midnightblue" stroke="midnightblue" points="96.4824,-102.367 92.2565,-112.083 101.619,-107.123 96.4824,-102.367"/>
</g>
<!-- Node3 -->
<g id="node3" class="node"><title>Node3</title>
<g id="a_node3"><a xlink:href="_atomic_sync_8h.html" target="_top" xlink:title="AtomicSync.h">
<polygon fill="white" stroke="black" points="45,-0.5 45,-19.5 123,-19.5 123,-0.5 45,-0.5"/>
<text text-anchor="middle" x="84" y="-7.5" font-family="Helvetica,sans-Serif" font-size="10.00">AtomicSync.h</text>
</a>
</g>
</g>
<!-- Node2&#45;&gt;Node3 -->
<g id="edge2" class="edge"><title>Node2&#45;&gt;Node3</title>
<path fill="none" stroke="midnightblue" d="M50.0345,-48.4314C58.6222,-38.9673 69.0435,-27.4827 76.0592,-19.7511"/>
<polygon fill="midnightblue" stroke="midnightblue" points="47.2193,-46.3254 43.0914,-56.083 52.4033,-51.0293 47.2193,-46.3254"/>
</g>
<!-- Node4&#45;&gt;Node3 -->
<g id="edge4" class="edge"><title>Node4&#45;&gt;Node3</title>
<path fill="none" stroke="midnightblue" d="M118.924,-48.7175C110.111,-39.1997 99.3341,-27.5608 92.1028,-19.7511"/>
<polygon fill="midnightblue" stroke="midnightblue" points="116.381,-51.1233 125.744,-56.083 121.518,-46.3674 116.381,-51.1233"/>
</g>
</g>
</svg>
