<?xml version="1.0" encoding="UTF-8" standalone="no"?>
<!DOCTYPE svg PUBLIC "-//W3C//DTD SVG 1.1//EN"
 "http://www.w3.org/Graphics/SVG/1.1/DTD/svg11.dtd">
<!-- Generated by graphviz version 2.38.0 (20140413.2041)
 -->
<!-- Title: AtomicOutput.h Pages: 1 -->
<svg width="464pt" height="364pt"
 viewBox="0.00 0.00 464.00 364.00" xmlns="http://www.w3.org/2000/svg" xmlns:xlink="http://www.w3.org/1999/xlink">
<g id="graph0" class="graph" transform="scale(1 1) rotate(0) translate(4 360)">
<title>AtomicOutput.h</title>
<polygon fill="white" stroke="none" points="-4,4 -4,-360 460,-360 460,4 -4,4"/>
<!-- Node1 -->
<g id="node1" class="node"><title>Node1</title>
<polygon fill="#bfbfbf" stroke="black" points="281.5,-336.5 281.5,-355.5 366.5,-355.5 366.5,-336.5 281.5,-336.5"/>
<text text-anchor="middle" x="324" y="-343.5" font-family="Helvetica,sans-Serif" font-size="10.00">AtomicOutput.h</text>
</g>
<!-- Node2 -->
<g id="node2" class="node"><title>Node2</title>
<g id="a_node2"><a xlink:href="_atomic_output_api_8h.html" target="_top" xlink:title="Cpl/Io/AtomicOutputApi.h">
<polygon fill="white" stroke="black" points="204.5,-280.5 204.5,-299.5 331.5,-299.5 331.5,-280.5 204.5,-280.5"/>
<text text-anchor="middle" x="268" y="-287.5" font-family="Helvetica,sans-Serif" font-size="10.00">Cpl/Io/AtomicOutputApi.h</text>
</a>
</g>
</g>
<!-- Node1&#45;&gt;Node2 -->
<g id="edge1" class="edge"><title>Node1&#45;&gt;Node2</title>
<path fill="none" stroke="midnightblue" d="M315.003,-336.324C306.806,-328.42 294.494,-316.548 284.528,-306.938"/>
<polygon fill="midnightblue" stroke="midnightblue" points="286.789,-304.256 277.161,-299.834 281.93,-309.295 286.789,-304.256"/>
</g>
<!-- Node15 -->
<g id="node15" class="node"><title>Node15</title>
<g id="a_node15"><a xlink:href="_mutex_8h.html" target="_top" xlink:title="Cpl/System/Mutex.h">
<polygon fill="white" stroke="black" points="350,-224.5 350,-243.5 456,-243.5 456,-224.5 350,-224.5"/>
<text text-anchor="middle" x="403" y="-231.5" font-family="Helvetica,sans-Serif" font-size="10.00">Cpl/System/Mutex.h</text>
</a>
</g>
</g>
<!-- Node1&#45;&gt;Node15 -->
<g id="edge16" class="edge"><title>Node1&#45;&gt;Node15</title>
<path fill="none" stroke="midnightblue" d="M330.199,-336.368C343.236,-318.215 373.697,-275.802 390.798,-251.99"/>
<polygon fill="midnightblue" stroke="midnightblue" points="393.839,-253.755 396.83,-243.591 388.154,-249.672 393.839,-253.755"/>
</g>
<!-- Node3 -->
<g id="node3" class="node"><title>Node3</title>
<g id="a_node3"><a xlink:href="_output_8h.html" target="_top" xlink:title="Cpl/Io/Output.h">
<polygon fill="white" stroke="black" points="185,-224.5 185,-243.5 267,-243.5 267,-224.5 185,-224.5"/>
<text text-anchor="middle" x="226" y="-231.5" font-family="Helvetica,sans-Serif" font-size="10.00">Cpl/Io/Output.h</text>
</a>
</g>
</g>
<!-- Node2&#45;&gt;Node3 -->
<g id="edge2" class="edge"><title>Node2&#45;&gt;Node3</title>
<path fill="none" stroke="midnightblue" d="M261.065,-280.083C255.071,-272.377 246.248,-261.033 238.952,-251.653"/>
<polygon fill="midnightblue" stroke="midnightblue" points="241.709,-249.496 232.806,-243.751 236.183,-253.793 241.709,-249.496"/>
</g>
<!-- Node4 -->
<g id="node4" class="node"><title>Node4</title>
<g id="a_node4"><a xlink:href="_string_8h.html" target="_top" xlink:title="Cpl/Text/String.h">
<polygon fill="white" stroke="black" points="149.5,-168.5 149.5,-187.5 238.5,-187.5 238.5,-168.5 149.5,-168.5"/>
<text text-anchor="middle" x="194" y="-175.5" font-family="Helvetica,sans-Serif" font-size="10.00">Cpl/Text/String.h</text>
</a>
</g>
</g>
<!-- Node3&#45;&gt;Node4 -->
<g id="edge3" class="edge"><title>Node3&#45;&gt;Node4</title>
<path fill="none" stroke="midnightblue" d="M220.716,-224.083C216.289,-216.613 209.837,-205.724 204.382,-196.52"/>
<polygon fill="midnightblue" stroke="midnightblue" points="207.295,-194.57 199.186,-187.751 201.273,-198.138 207.295,-194.57"/>
</g>
<!-- Node5 -->
<g id="node5" class="node"><title>Node5</title>
<polygon fill="white" stroke="#bfbfbf" points="0,-112.5 0,-131.5 52,-131.5 52,-112.5 0,-112.5"/>
<text text-anchor="middle" x="26" y="-119.5" font-family="Helvetica,sans-Serif" font-size="10.00">stdarg.h</text>
</g>
<!-- Node3&#45;&gt;Node5 -->
<g id="edge15" class="edge"><title>Node3&#45;&gt;Node5</title>
<path fill="none" stroke="midnightblue" d="M209.096,-224.383C191.684,-215.455 163.807,-201.01 140,-188 108.372,-170.716 72.2981,-149.971 49.3523,-136.643"/>
<polygon fill="midnightblue" stroke="midnightblue" points="51.065,-133.59 40.6616,-131.585 47.5439,-139.64 51.065,-133.59"/>
</g>
<!-- Node13 -->
<g id="node13" class="node"><title>Node13</title>
<g id="a_node13"><a xlink:href="_close_8h.html" target="_top" xlink:title="Cpl/Io/Close.h">
<polygon fill="white" stroke="black" points="286.5,-168.5 286.5,-187.5 363.5,-187.5 363.5,-168.5 286.5,-168.5"/>
<text text-anchor="middle" x="325" y="-175.5" font-family="Helvetica,sans-Serif" font-size="10.00">Cpl/Io/Close.h</text>
</a>
</g>
</g>
<!-- Node3&#45;&gt;Node13 -->
<g id="edge13" class="edge"><title>Node3&#45;&gt;Node13</title>
<path fill="none" stroke="midnightblue" d="M241.906,-224.324C257.638,-215.743 281.942,-202.486 300.209,-192.522"/>
<polygon fill="midnightblue" stroke="midnightblue" points="302.03,-195.516 309.133,-187.655 298.678,-189.37 302.03,-195.516"/>
</g>
<!-- Node4&#45;&gt;Node5 -->
<g id="edge4" class="edge"><title>Node4&#45;&gt;Node5</title>
<path fill="none" stroke="midnightblue" d="M167.38,-168.444C138.911,-159.293 93.5979,-144.728 61.9687,-134.561"/>
<polygon fill="midnightblue" stroke="midnightblue" points="62.8104,-131.156 52.219,-131.428 60.6682,-137.82 62.8104,-131.156"/>
</g>
<!-- Node6 -->
<g id="node6" class="node"><title>Node6</title>
<polygon fill="white" stroke="#bfbfbf" points="70,-112.5 70,-131.5 124,-131.5 124,-112.5 70,-112.5"/>
<text text-anchor="middle" x="97" y="-119.5" font-family="Helvetica,sans-Serif" font-size="10.00">iostream</text>
</g>
<!-- Node4&#45;&gt;Node6 -->
<g id="edge5" class="edge"><title>Node4&#45;&gt;Node6</title>
<path fill="none" stroke="midnightblue" d="M178.415,-168.324C163.001,-159.743 139.188,-146.486 121.29,-136.522"/>
<polygon fill="midnightblue" stroke="midnightblue" points="122.986,-133.461 112.546,-131.655 119.581,-139.577 122.986,-133.461"/>
</g>
<!-- Node7 -->
<g id="node7" class="node"><title>Node7</title>
<g id="a_node7"><a xlink:href="_key_8h.html" target="_top" xlink:title="Cpl/Container/Key.h">
<polygon fill="white" stroke="black" points="142,-112.5 142,-131.5 246,-131.5 246,-112.5 142,-112.5"/>
<text text-anchor="middle" x="194" y="-119.5" font-family="Helvetica,sans-Serif" font-size="10.00">Cpl/Container/Key.h</text>
</a>
</g>
</g>
<!-- Node4&#45;&gt;Node7 -->
<g id="edge6" class="edge"><title>Node4&#45;&gt;Node7</title>
<path fill="none" stroke="midnightblue" d="M194,-168.083C194,-161.006 194,-150.861 194,-141.986"/>
<polygon fill="midnightblue" stroke="midnightblue" points="197.5,-141.751 194,-131.751 190.5,-141.751 197.5,-141.751"/>
</g>
<!-- Node12 -->
<g id="node12" class="node"><title>Node12</title>
<polygon fill="white" stroke="#bfbfbf" points="236.5,-56.5 236.5,-75.5 313.5,-75.5 313.5,-56.5 236.5,-56.5"/>
<text text-anchor="middle" x="275" y="-63.5" font-family="Helvetica,sans-Serif" font-size="10.00">colony_map.h</text>
</g>
<!-- Node4&#45;&gt;Node12 -->
<g id="edge12" class="edge"><title>Node4&#45;&gt;Node12</title>
<path fill="none" stroke="midnightblue" d="M211.117,-168.37C224.854,-160.615 243.657,-147.995 255,-132 264.711,-118.306 269.805,-99.772 272.414,-85.9988"/>
<polygon fill="midnightblue" stroke="midnightblue" points="275.929,-86.1902 274.069,-75.7599 269.018,-85.0735 275.929,-86.1902"/>
</g>
<!-- Node8 -->
<g id="node8" class="node"><title>Node8</title>
<g id="a_node8"><a xlink:href="_fatal_error_8h.html" target="_top" xlink:title="Cpl/System/FatalError.h">
<polygon fill="white" stroke="black" points="29,-56.5 29,-75.5 151,-75.5 151,-56.5 29,-56.5"/>
<text text-anchor="middle" x="90" y="-63.5" font-family="Helvetica,sans-Serif" font-size="10.00">Cpl/System/FatalError.h</text>
</a>
</g>
</g>
<!-- Node7&#45;&gt;Node8 -->
<g id="edge7" class="edge"><title>Node7&#45;&gt;Node8</title>
<path fill="none" stroke="midnightblue" d="M177.291,-112.324C160.688,-103.703 134.998,-90.3643 115.78,-80.3855"/>
<polygon fill="midnightblue" stroke="midnightblue" points="117.156,-77.1565 106.668,-75.6545 113.93,-83.3689 117.156,-77.1565"/>
</g>
<!-- Node11 -->
<g id="node11" class="node"><title>Node11</title>
<polygon fill="white" stroke="#bfbfbf" points="169.5,-56.5 169.5,-75.5 218.5,-75.5 218.5,-56.5 169.5,-56.5"/>
<text text-anchor="middle" x="194" y="-63.5" font-family="Helvetica,sans-Serif" font-size="10.00">stdint.h</text>
</g>
<!-- Node7&#45;&gt;Node11 -->
<g id="edge10" class="edge"><title>Node7&#45;&gt;Node11</title>
<path fill="none" stroke="midnightblue" d="M194,-112.083C194,-105.006 194,-94.8611 194,-85.9865"/>
<polygon fill="midnightblue" stroke="midnightblue" points="197.5,-85.751 194,-75.7511 190.5,-85.7511 197.5,-85.751"/>
</g>
<!-- Node7&#45;&gt;Node12 -->
<g id="edge11" class="edge"><title>Node7&#45;&gt;Node12</title>
<path fill="none" stroke="midnightblue" d="M207.014,-112.324C219.532,-103.979 238.682,-91.2122 253.471,-81.3524"/>
<polygon fill="midnightblue" stroke="midnightblue" points="255.639,-84.1137 262.018,-75.6545 251.756,-78.2894 255.639,-84.1137"/>
</g>
<!-- Node9 -->
<g id="node9" class="node"><title>Node9</title>
<polygon fill="white" stroke="#bfbfbf" points="21.5,-0.5 21.5,-19.5 72.5,-19.5 72.5,-0.5 21.5,-0.5"/>
<text text-anchor="middle" x="47" y="-7.5" font-family="Helvetica,sans-Serif" font-size="10.00">stddef.h</text>
</g>
<!-- Node8&#45;&gt;Node9 -->
<g id="edge8" class="edge"><title>Node8&#45;&gt;Node9</title>
<path fill="none" stroke="midnightblue" d="M82.8994,-56.083C76.763,-48.3768 67.7303,-37.0333 60.2608,-27.6531"/>
<polygon fill="midnightblue" stroke="midnightblue" points="62.9357,-25.3936 53.9685,-19.7511 57.4598,-29.7542 62.9357,-25.3936"/>
</g>
<!-- Node10 -->
<g id="node10" class="node"><title>Node10</title>
<polygon fill="white" stroke="#bfbfbf" points="91,-0.5 91,-19.5 175,-19.5 175,-0.5 91,-0.5"/>
<text text-anchor="middle" x="133" y="-7.5" font-family="Helvetica,sans-Serif" font-size="10.00">colony_config.h</text>
</g>
<!-- Node8&#45;&gt;Node10 -->
<g id="edge9" class="edge"><title>Node8&#45;&gt;Node10</title>
<path fill="none" stroke="midnightblue" d="M97.1006,-56.083C103.237,-48.3768 112.27,-37.0333 119.739,-27.6531"/>
<polygon fill="midnightblue" stroke="midnightblue" points="122.54,-29.7542 126.032,-19.7511 117.064,-25.3936 122.54,-29.7542"/>
</g>
<!-- Node14 -->
<g id="node14" class="node"><title>Node14</title>
<g id="a_node14"><a xlink:href="_item_8h.html" target="_top" xlink:title="Cpl/Container/Item.h">
<polygon fill="white" stroke="black" points="302.5,-112.5 302.5,-131.5 407.5,-131.5 407.5,-112.5 302.5,-112.5"/>
<text text-anchor="middle" x="355" y="-119.5" font-family="Helvetica,sans-Serif" font-size="10.00">Cpl/Container/Item.h</text>
</a>
</g>
</g>
<!-- Node13&#45;&gt;Node14 -->
<g id="edge14" class="edge"><title>Node13&#45;&gt;Node14</title>
<path fill="none" stroke="midnightblue" d="M329.954,-168.083C334.104,-160.613 340.153,-149.724 345.267,-140.52"/>
<polygon fill="midnightblue" stroke="midnightblue" points="348.341,-142.192 350.138,-131.751 342.222,-138.793 348.341,-142.192"/>
</g>
<!-- Node15&#45;&gt;Node12 -->
<g id="edge17" class="edge"><title>Node15&#45;&gt;Node12</title>
<path fill="none" stroke="midnightblue" d="M407.653,-224.359C418.463,-202.977 442.484,-146.809 417,-112 395.84,-83.0977 356.009,-72.2975 323.904,-68.4719"/>
<polygon fill="midnightblue" stroke="midnightblue" points="324.085,-64.9725 313.786,-67.4607 323.388,-71.9378 324.085,-64.9725"/>
</g>
</g>
</svg>
