<?xml version="1.0" encoding="UTF-8" standalone="no"?>
<!DOCTYPE svg PUBLIC "-//W3C//DTD SVG 1.1//EN"
 "http://www.w3.org/Graphics/SVG/1.1/DTD/svg11.dtd">
<!-- Generated by graphviz version 2.38.0 (20140413.2041)
 -->
<!-- Title: CloseSync.h Pages: 1 -->
<svg width="474pt" height="476pt"
 viewBox="0.00 0.00 474.00 476.00" xmlns="http://www.w3.org/2000/svg" xmlns:xlink="http://www.w3.org/1999/xlink">
<g id="graph0" class="graph" transform="scale(1 1) rotate(0) translate(4 472)">
<title>CloseSync.h</title>
<polygon fill="white" stroke="none" points="-4,4 -4,-472 470,-472 470,4 -4,4"/>
<!-- Node1 -->
<g id="node1" class="node"><title>Node1</title>
<polygon fill="#bfbfbf" stroke="black" points="250.5,-448.5 250.5,-467.5 322.5,-467.5 322.5,-448.5 250.5,-448.5"/>
<text text-anchor="middle" x="286.5" y="-455.5" font-family="Helvetica,sans-Serif" font-size="10.00">CloseSync.h</text>
</g>
<!-- Node2 -->
<g id="node2" class="node"><title>Node2</title>
<g id="a_node2"><a xlink:href="_open_sync_8h.html" target="_top" xlink:title="Cpl/Itc/OpenSync.h">
<polygon fill="white" stroke="black" points="236,-392.5 236,-411.5 337,-411.5 337,-392.5 236,-392.5"/>
<text text-anchor="middle" x="286.5" y="-399.5" font-family="Helvetica,sans-Serif" font-size="10.00">Cpl/Itc/OpenSync.h</text>
</a>
</g>
</g>
<!-- Node1&#45;&gt;Node2 -->
<g id="edge1" class="edge"><title>Node1&#45;&gt;Node2</title>
<path fill="none" stroke="midnightblue" d="M286.5,-448.083C286.5,-441.006 286.5,-430.861 286.5,-421.986"/>
<polygon fill="midnightblue" stroke="midnightblue" points="290,-421.751 286.5,-411.751 283,-421.751 290,-421.751"/>
</g>
<!-- Node14 -->
<g id="node14" class="node"><title>Node14</title>
<g id="a_node14"><a xlink:href="_close_request_8h.html" target="_top" xlink:title="Cpl/Itc/CloseRequest.h">
<polygon fill="white" stroke="black" points="105.5,-336.5 105.5,-355.5 221.5,-355.5 221.5,-336.5 105.5,-336.5"/>
<text text-anchor="middle" x="163.5" y="-343.5" font-family="Helvetica,sans-Serif" font-size="10.00">Cpl/Itc/CloseRequest.h</text>
</a>
</g>
</g>
<!-- Node1&#45;&gt;Node14 -->
<g id="edge18" class="edge"><title>Node1&#45;&gt;Node14</title>
<path fill="none" stroke="midnightblue" d="M273.64,-448.245C261.174,-439.554 241.936,-425.6 226.5,-412 208.923,-396.514 190.456,-377.024 178.094,-363.444"/>
<polygon fill="midnightblue" stroke="midnightblue" points="180.541,-360.93 171.249,-355.84 175.339,-365.614 180.541,-360.93"/>
</g>
<!-- Node15 -->
<g id="node15" class="node"><title>Node15</title>
<g id="a_node15"><a xlink:href="_close_api_8h.html" target="_top" xlink:title="Cpl/Itc/CloseApi.h">
<polygon fill="white" stroke="black" points="355,-392.5 355,-411.5 450,-411.5 450,-392.5 355,-392.5"/>
<text text-anchor="middle" x="402.5" y="-399.5" font-family="Helvetica,sans-Serif" font-size="10.00">Cpl/Itc/CloseApi.h</text>
</a>
</g>
</g>
<!-- Node1&#45;&gt;Node15 -->
<g id="edge22" class="edge"><title>Node1&#45;&gt;Node15</title>
<path fill="none" stroke="midnightblue" d="M304.881,-448.444C323.716,-439.675 353.231,-425.935 374.879,-415.858"/>
<polygon fill="midnightblue" stroke="midnightblue" points="376.617,-418.91 384.205,-411.516 373.662,-412.564 376.617,-418.91"/>
</g>
<!-- Node3 -->
<g id="node3" class="node"><title>Node3</title>
<g id="a_node3"><a xlink:href="_open_api_8h.html" target="_top" xlink:title="Cpl/Itc/OpenApi.h">
<polygon fill="white" stroke="black" points="240,-336.5 240,-355.5 333,-355.5 333,-336.5 240,-336.5"/>
<text text-anchor="middle" x="286.5" y="-343.5" font-family="Helvetica,sans-Serif" font-size="10.00">Cpl/Itc/OpenApi.h</text>
</a>
</g>
</g>
<!-- Node2&#45;&gt;Node3 -->
<g id="edge2" class="edge"><title>Node2&#45;&gt;Node3</title>
<path fill="none" stroke="midnightblue" d="M286.5,-392.083C286.5,-385.006 286.5,-374.861 286.5,-365.986"/>
<polygon fill="midnightblue" stroke="midnightblue" points="290,-365.751 286.5,-355.751 283,-365.751 290,-365.751"/>
</g>
<!-- Node4 -->
<g id="node4" class="node"><title>Node4</title>
<g id="a_node4"><a xlink:href="_open_request_8h.html" target="_top" xlink:title="Cpl/Itc/OpenRequest.h">
<polygon fill="white" stroke="black" points="351,-336.5 351,-355.5 466,-355.5 466,-336.5 351,-336.5"/>
<text text-anchor="middle" x="408.5" y="-343.5" font-family="Helvetica,sans-Serif" font-size="10.00">Cpl/Itc/OpenRequest.h</text>
</a>
</g>
</g>
<!-- Node2&#45;&gt;Node4 -->
<g id="edge3" class="edge"><title>Node2&#45;&gt;Node4</title>
<path fill="none" stroke="midnightblue" d="M305.831,-392.444C325.82,-383.596 357.243,-369.687 380.064,-359.586"/>
<polygon fill="midnightblue" stroke="midnightblue" points="381.532,-362.764 389.259,-355.516 378.698,-356.363 381.532,-362.764"/>
</g>
<!-- Node5 -->
<g id="node5" class="node"><title>Node5</title>
<g id="a_node5"><a xlink:href="_request_message_8h.html" target="_top" xlink:title="Cpl/Itc/RequestMessage.h">
<polygon fill="white" stroke="black" points="187,-224.5 187,-243.5 318,-243.5 318,-224.5 187,-224.5"/>
<text text-anchor="middle" x="252.5" y="-231.5" font-family="Helvetica,sans-Serif" font-size="10.00">Cpl/Itc/RequestMessage.h</text>
</a>
</g>
</g>
<!-- Node4&#45;&gt;Node5 -->
<g id="edge4" class="edge"><title>Node4&#45;&gt;Node5</title>
<path fill="none" stroke="midnightblue" d="M398.457,-336.37C383.301,-323.503 353.483,-298.791 326.5,-280 310.406,-268.792 291.503,-257.324 276.83,-248.77"/>
<polygon fill="midnightblue" stroke="midnightblue" points="278.282,-245.567 267.871,-243.601 274.784,-251.63 278.282,-245.567"/>
</g>
<!-- Node10 -->
<g id="node10" class="node"><title>Node10</title>
<g id="a_node10"><a xlink:href="_s_a_p_8h.html" target="_top" xlink:title="Cpl/Itc/SAP.h">
<polygon fill="white" stroke="black" points="308.5,-168.5 308.5,-187.5 384.5,-187.5 384.5,-168.5 308.5,-168.5"/>
<text text-anchor="middle" x="346.5" y="-175.5" font-family="Helvetica,sans-Serif" font-size="10.00">Cpl/Itc/SAP.h</text>
</a>
</g>
</g>
<!-- Node4&#45;&gt;Node10 -->
<g id="edge17" class="edge"><title>Node4&#45;&gt;Node10</title>
<path fill="none" stroke="midnightblue" d="M405.167,-336.075C395.365,-309.832 366.499,-232.545 353.266,-197.117"/>
<polygon fill="midnightblue" stroke="midnightblue" points="356.478,-195.711 349.7,-187.568 349.92,-198.161 356.478,-195.711"/>
</g>
<!-- Node12 -->
<g id="node12" class="node"><title>Node12</title>
<g id="a_node12"><a xlink:href="_response_message_8h.html" target="_top" xlink:title="Cpl/Itc/ResponseMessage.h">
<polygon fill="white" stroke="black" points="179,-280.5 179,-299.5 318,-299.5 318,-280.5 179,-280.5"/>
<text text-anchor="middle" x="248.5" y="-287.5" font-family="Helvetica,sans-Serif" font-size="10.00">Cpl/Itc/ResponseMessage.h</text>
</a>
</g>
</g>
<!-- Node4&#45;&gt;Node12 -->
<g id="edge12" class="edge"><title>Node4&#45;&gt;Node12</title>
<path fill="none" stroke="midnightblue" d="M383.148,-336.444C356.231,-327.359 313.504,-312.939 283.413,-302.783"/>
<polygon fill="midnightblue" stroke="midnightblue" points="284.328,-299.398 273.734,-299.516 282.09,-306.031 284.328,-299.398"/>
</g>
<!-- Node6 -->
<g id="node6" class="node"><title>Node6</title>
<g id="a_node6"><a xlink:href="_service_message_8h.html" target="_top" xlink:title="Cpl/Itc/ServiceMessage.h">
<polygon fill="white" stroke="black" points="0,-168.5 0,-187.5 127,-187.5 127,-168.5 0,-168.5"/>
<text text-anchor="middle" x="63.5" y="-175.5" font-family="Helvetica,sans-Serif" font-size="10.00">Cpl/Itc/ServiceMessage.h</text>
</a>
</g>
</g>
<!-- Node5&#45;&gt;Node6 -->
<g id="edge5" class="edge"><title>Node5&#45;&gt;Node6</title>
<path fill="none" stroke="midnightblue" d="M222.552,-224.444C190.342,-215.241 138.966,-200.562 103.358,-190.388"/>
<polygon fill="midnightblue" stroke="midnightblue" points="103.884,-186.898 93.3075,-187.516 101.961,-193.629 103.884,-186.898"/>
</g>
<!-- Node5&#45;&gt;Node10 -->
<g id="edge9" class="edge"><title>Node5&#45;&gt;Node10</title>
<path fill="none" stroke="midnightblue" d="M267.603,-224.324C282.403,-215.822 305.194,-202.729 322.482,-192.797"/>
<polygon fill="midnightblue" stroke="midnightblue" points="324.507,-195.671 331.435,-187.655 321.02,-189.601 324.507,-195.671"/>
</g>
<!-- Node7 -->
<g id="node7" class="node"><title>Node7</title>
<g id="a_node7"><a xlink:href="_message_8h.html" target="_top" xlink:title="Cpl/Itc/Message.h">
<polygon fill="white" stroke="black" points="120,-56.5 120,-75.5 215,-75.5 215,-56.5 120,-56.5"/>
<text text-anchor="middle" x="167.5" y="-63.5" font-family="Helvetica,sans-Serif" font-size="10.00">Cpl/Itc/Message.h</text>
</a>
</g>
</g>
<!-- Node6&#45;&gt;Node7 -->
<g id="edge6" class="edge"><title>Node6&#45;&gt;Node7</title>
<path fill="none" stroke="midnightblue" d="M63.9189,-168.446C64.994,-155.009 68.8279,-128.765 82.5,-112 94.5855,-97.1808 112.869,-86.6148 129.386,-79.4623"/>
<polygon fill="midnightblue" stroke="midnightblue" points="130.887,-82.631 138.847,-75.6392 128.264,-76.1409 130.887,-82.631"/>
</g>
<!-- Node9 -->
<g id="node9" class="node"><title>Node9</title>
<g id="a_node9"><a xlink:href="_return_handler_8h.html" target="_top" xlink:title="Cpl/Itc/ReturnHandler.h">
<polygon fill="white" stroke="black" points="92,-112.5 92,-131.5 209,-131.5 209,-112.5 92,-112.5"/>
<text text-anchor="middle" x="150.5" y="-119.5" font-family="Helvetica,sans-Serif" font-size="10.00">Cpl/Itc/ReturnHandler.h</text>
</a>
</g>
</g>
<!-- Node6&#45;&gt;Node9 -->
<g id="edge8" class="edge"><title>Node6&#45;&gt;Node9</title>
<path fill="none" stroke="midnightblue" d="M77.4781,-168.324C91.0496,-159.9 111.88,-146.971 127.825,-137.074"/>
<polygon fill="midnightblue" stroke="midnightblue" points="129.906,-139.902 136.557,-131.655 126.214,-133.954 129.906,-139.902"/>
</g>
<!-- Node8 -->
<g id="node8" class="node"><title>Node8</title>
<g id="a_node8"><a xlink:href="_item_8h.html" target="_top" xlink:title="Cpl/Container/Item.h">
<polygon fill="white" stroke="black" points="115,-0.5 115,-19.5 220,-19.5 220,-0.5 115,-0.5"/>
<text text-anchor="middle" x="167.5" y="-7.5" font-family="Helvetica,sans-Serif" font-size="10.00">Cpl/Container/Item.h</text>
</a>
</g>
</g>
<!-- Node7&#45;&gt;Node8 -->
<g id="edge7" class="edge"><title>Node7&#45;&gt;Node8</title>
<path fill="none" stroke="midnightblue" d="M167.5,-56.083C167.5,-49.0059 167.5,-38.8611 167.5,-29.9865"/>
<polygon fill="midnightblue" stroke="midnightblue" points="171,-29.751 167.5,-19.7511 164,-29.7511 171,-29.751"/>
</g>
<!-- Node11 -->
<g id="node11" class="node"><title>Node11</title>
<g id="a_node11"><a xlink:href="_post_api_8h.html" target="_top" xlink:title="Cpl/Itc/PostApi.h">
<polygon fill="white" stroke="black" points="227.5,-112.5 227.5,-131.5 317.5,-131.5 317.5,-112.5 227.5,-112.5"/>
<text text-anchor="middle" x="272.5" y="-119.5" font-family="Helvetica,sans-Serif" font-size="10.00">Cpl/Itc/PostApi.h</text>
</a>
</g>
</g>
<!-- Node10&#45;&gt;Node11 -->
<g id="edge10" class="edge"><title>Node10&#45;&gt;Node11</title>
<path fill="none" stroke="midnightblue" d="M334.611,-168.324C323.35,-160.107 306.213,-147.602 292.791,-137.807"/>
<polygon fill="midnightblue" stroke="midnightblue" points="294.747,-134.901 284.606,-131.834 290.62,-140.556 294.747,-134.901"/>
</g>
<!-- Node11&#45;&gt;Node7 -->
<g id="edge11" class="edge"><title>Node11&#45;&gt;Node7</title>
<path fill="none" stroke="midnightblue" d="M255.63,-112.324C238.791,-103.664 212.693,-90.2424 193.262,-80.249"/>
<polygon fill="midnightblue" stroke="midnightblue" points="194.822,-77.1155 184.328,-75.6545 191.62,-83.3405 194.822,-77.1155"/>
</g>
<!-- Node12&#45;&gt;Node5 -->
<g id="edge16" class="edge"><title>Node12&#45;&gt;Node5</title>
<path fill="none" stroke="midnightblue" d="M249.161,-280.083C249.685,-273.006 250.436,-262.861 251.094,-253.986"/>
<polygon fill="midnightblue" stroke="midnightblue" points="254.603,-253.982 251.852,-243.751 247.623,-253.465 254.603,-253.982"/>
</g>
<!-- Node13 -->
<g id="node13" class="node"><title>Node13</title>
<g id="a_node13"><a xlink:href="_async_return_handler_8h.html" target="_top" xlink:title="Cpl/Itc/AsyncReturnHandler.h">
<polygon fill="white" stroke="black" points="145,-168.5 145,-187.5 290,-187.5 290,-168.5 145,-168.5"/>
<text text-anchor="middle" x="217.5" y="-175.5" font-family="Helvetica,sans-Serif" font-size="10.00">Cpl/Itc/AsyncReturnHandler.h</text>
</a>
</g>
</g>
<!-- Node12&#45;&gt;Node13 -->
<g id="edge13" class="edge"><title>Node12&#45;&gt;Node13</title>
<path fill="none" stroke="midnightblue" d="M223.339,-280.378C207.081,-273.343 187.207,-261.645 177.5,-244 167.908,-226.564 183.338,-207.215 197.732,-194.198"/>
<polygon fill="midnightblue" stroke="midnightblue" points="200.078,-196.798 205.457,-187.67 195.559,-191.452 200.078,-196.798"/>
</g>
<!-- Node13&#45;&gt;Node9 -->
<g id="edge14" class="edge"><title>Node13&#45;&gt;Node9</title>
<path fill="none" stroke="midnightblue" d="M206.735,-168.324C196.734,-160.263 181.613,-148.077 169.57,-138.369"/>
<polygon fill="midnightblue" stroke="midnightblue" points="171.443,-135.384 161.461,-131.834 167.05,-140.834 171.443,-135.384"/>
</g>
<!-- Node13&#45;&gt;Node11 -->
<g id="edge15" class="edge"><title>Node13&#45;&gt;Node11</title>
<path fill="none" stroke="midnightblue" d="M226.582,-168.083C234.671,-160.141 246.695,-148.335 256.41,-138.797"/>
<polygon fill="midnightblue" stroke="midnightblue" points="258.903,-141.254 263.587,-131.751 253.999,-136.26 258.903,-141.254"/>
</g>
<!-- Node14&#45;&gt;Node5 -->
<g id="edge19" class="edge"><title>Node14&#45;&gt;Node5</title>
<path fill="none" stroke="midnightblue" d="M161.868,-336.162C159.903,-322.807 158.145,-297.218 169.5,-280 179.439,-264.929 196.19,-254.496 212.051,-247.501"/>
<polygon fill="midnightblue" stroke="midnightblue" points="213.786,-250.574 221.742,-243.578 211.16,-244.086 213.786,-250.574"/>
</g>
<!-- Node14&#45;&gt;Node10 -->
<g id="edge21" class="edge"><title>Node14&#45;&gt;Node10</title>
<path fill="none" stroke="midnightblue" d="M217.876,-336.432C259.408,-328.752 311.921,-316.205 326.5,-300 351.93,-271.734 351.614,-224.025 349.097,-197.753"/>
<polygon fill="midnightblue" stroke="midnightblue" points="352.551,-197.155 347.911,-187.63 345.598,-197.969 352.551,-197.155"/>
</g>
<!-- Node14&#45;&gt;Node12 -->
<g id="edge20" class="edge"><title>Node14&#45;&gt;Node12</title>
<path fill="none" stroke="midnightblue" d="M177.157,-336.324C190.416,-327.9 210.768,-314.971 226.346,-305.074"/>
<polygon fill="midnightblue" stroke="midnightblue" points="228.313,-307.971 234.877,-299.655 224.56,-302.063 228.313,-307.971"/>
</g>
</g>
</svg>
