<?xml version="1.0" encoding="UTF-8" standalone="no"?>
<!DOCTYPE svg PUBLIC "-//W3C//DTD SVG 1.1//EN"
 "http://www.w3.org/Graphics/SVG/1.1/DTD/svg11.dtd">
<!-- Generated by graphviz version 2.38.0 (20140413.2041)
 -->
<!-- Title: Close.h Pages: 1 -->
<svg width="700pt" height="308pt"
 viewBox="0.00 0.00 699.50 308.00" xmlns="http://www.w3.org/2000/svg" xmlns:xlink="http://www.w3.org/1999/xlink">
<g id="graph0" class="graph" transform="scale(1 1) rotate(0) translate(4 304)">
<title>Close.h</title>
<polygon fill="white" stroke="none" points="-4,4 -4,-304 695.5,-304 695.5,4 -4,4"/>
<!-- Node1 -->
<g id="node1" class="node"><title>Node1</title>
<polygon fill="#bfbfbf" stroke="black" points="303,-280.5 303,-299.5 353,-299.5 353,-280.5 303,-280.5"/>
<text text-anchor="middle" x="328" y="-287.5" font-family="Helvetica,sans-Serif" font-size="10.00">Close.h</text>
</g>
<!-- Node2 -->
<g id="node2" class="node"><title>Node2</title>
<g id="a_node2"><a xlink:href="_input_8h.html" target="_top" xlink:title="Input.h">
<polygon fill="white" stroke="black" points="163,-224.5 163,-243.5 209,-243.5 209,-224.5 163,-224.5"/>
<text text-anchor="middle" x="186" y="-231.5" font-family="Helvetica,sans-Serif" font-size="10.00">Input.h</text>
</a>
</g>
</g>
<!-- Node1&#45;&gt;Node2 -->
<g id="edge1" class="edge"><title>Node1&#45;&gt;Node2</title>
<path fill="none" stroke="midnightblue" d="M295.845,-276.772C269.172,-266.629 231.931,-252.467 208.395,-243.516"/>
<polygon fill="midnightblue" stroke="midnightblue" points="294.909,-280.16 305.5,-280.444 297.397,-273.618 294.909,-280.16"/>
</g>
<!-- Node13 -->
<g id="node13" class="node"><title>Node13</title>
<g id="a_node13"><a xlink:href="_output_8h.html" target="_top" xlink:title="Output.h">
<polygon fill="white" stroke="black" points="372,-224.5 372,-243.5 426,-243.5 426,-224.5 372,-224.5"/>
<text text-anchor="middle" x="399" y="-231.5" font-family="Helvetica,sans-Serif" font-size="10.00">Output.h</text>
</a>
</g>
</g>
<!-- Node1&#45;&gt;Node13 -->
<g id="edge13" class="edge"><title>Node1&#45;&gt;Node13</title>
<path fill="none" stroke="midnightblue" d="M347.59,-274.101C360.368,-264.382 376.613,-252.027 387.385,-243.834"/>
<polygon fill="midnightblue" stroke="midnightblue" points="345.248,-271.484 339.407,-280.324 349.486,-277.056 345.248,-271.484"/>
</g>
<!-- Node3 -->
<g id="node3" class="node"><title>Node3</title>
<g id="a_node3"><a xlink:href="_input_api_8h.html" target="_top" xlink:title="InputApi.h">
<polygon fill="white" stroke="black" points="0,-168.5 0,-187.5 60,-187.5 60,-168.5 0,-168.5"/>
<text text-anchor="middle" x="30" y="-175.5" font-family="Helvetica,sans-Serif" font-size="10.00">InputApi.h</text>
</a>
</g>
</g>
<!-- Node2&#45;&gt;Node3 -->
<g id="edge2" class="edge"><title>Node2&#45;&gt;Node3</title>
<path fill="none" stroke="midnightblue" d="M153.17,-221.636C123.755,-211.454 81.2626,-196.745 54.6595,-187.536"/>
<polygon fill="midnightblue" stroke="midnightblue" points="152.387,-225.068 162.982,-225.032 154.677,-218.453 152.387,-225.068"/>
</g>
<!-- Node7 -->
<g id="node7" class="node"><title>Node7</title>
<g id="a_node7"><a xlink:href="_input_output_8h.html" target="_top" xlink:title="InputOutput.h">
<polygon fill="white" stroke="black" points="256.5,-168.5 256.5,-187.5 331.5,-187.5 331.5,-168.5 256.5,-168.5"/>
<text text-anchor="middle" x="294" y="-175.5" font-family="Helvetica,sans-Serif" font-size="10.00">InputOutput.h</text>
</a>
</g>
</g>
<!-- Node2&#45;&gt;Node7 -->
<g id="edge6" class="edge"><title>Node2&#45;&gt;Node7</title>
<path fill="none" stroke="midnightblue" d="M212.548,-219.726C232.546,-209.727 259.387,-196.307 276.691,-187.655"/>
<polygon fill="midnightblue" stroke="midnightblue" points="210.731,-216.721 203.352,-224.324 213.862,-222.982 210.731,-216.721"/>
</g>
<!-- Node12 -->
<g id="node12" class="node"><title>Node12</title>
<g id="a_node12"><a xlink:href="_line_reader_8h.html" target="_top" xlink:title="LineReader.h">
<polygon fill="white" stroke="black" points="78,-168.5 78,-187.5 152,-187.5 152,-168.5 78,-168.5"/>
<text text-anchor="middle" x="115" y="-175.5" font-family="Helvetica,sans-Serif" font-size="10.00">LineReader.h</text>
</a>
</g>
</g>
<!-- Node2&#45;&gt;Node12 -->
<g id="edge12" class="edge"><title>Node2&#45;&gt;Node12</title>
<path fill="none" stroke="midnightblue" d="M166.41,-218.101C153.632,-208.382 137.387,-196.027 126.615,-187.834"/>
<polygon fill="midnightblue" stroke="midnightblue" points="164.514,-221.056 174.593,-224.324 168.752,-215.484 164.514,-221.056"/>
</g>
<!-- Node4 -->
<g id="node4" class="node"><title>Node4</title>
<g id="a_node4"><a xlink:href="_file_2_input_8h.html" target="_top" xlink:title="Input.h">
<polygon fill="white" stroke="black" points="5,-112.5 5,-131.5 51,-131.5 51,-112.5 5,-112.5"/>
<text text-anchor="middle" x="28" y="-119.5" font-family="Helvetica,sans-Serif" font-size="10.00">Input.h</text>
</a>
</g>
</g>
<!-- Node3&#45;&gt;Node4 -->
<g id="edge3" class="edge"><title>Node3&#45;&gt;Node4</title>
<path fill="none" stroke="midnightblue" d="M29.2891,-157.805C28.9596,-148.91 28.5844,-138.78 28.3241,-131.751"/>
<polygon fill="midnightblue" stroke="midnightblue" points="25.8019,-158.219 29.6697,-168.083 32.7971,-157.96 25.8019,-158.219"/>
</g>
<!-- Node5 -->
<g id="node5" class="node"><title>Node5</title>
<g id="a_node5"><a xlink:href="_input_output_api_8h.html" target="_top" xlink:title="InputOutputApi.h">
<polygon fill="white" stroke="black" points="69.5,-112.5 69.5,-131.5 158.5,-131.5 158.5,-112.5 69.5,-112.5"/>
<text text-anchor="middle" x="114" y="-119.5" font-family="Helvetica,sans-Serif" font-size="10.00">InputOutputApi.h</text>
</a>
</g>
</g>
<!-- Node3&#45;&gt;Node5 -->
<g id="edge4" class="edge"><title>Node3&#45;&gt;Node5</title>
<path fill="none" stroke="midnightblue" d="M51.9325,-162.901C67.3355,-152.999 87.4458,-140.071 100.537,-131.655"/>
<polygon fill="midnightblue" stroke="midnightblue" points="50.0152,-159.972 43.4961,-168.324 53.8005,-165.86 50.0152,-159.972"/>
</g>
<!-- Node6 -->
<g id="node6" class="node"><title>Node6</title>
<g id="a_node6"><a xlink:href="_file_2_input_output_8h.html" target="_top" xlink:title="InputOutput.h">
<polygon fill="white" stroke="black" points="76.5,-56.5 76.5,-75.5 151.5,-75.5 151.5,-56.5 76.5,-56.5"/>
<text text-anchor="middle" x="114" y="-63.5" font-family="Helvetica,sans-Serif" font-size="10.00">InputOutput.h</text>
</a>
</g>
</g>
<!-- Node5&#45;&gt;Node6 -->
<g id="edge5" class="edge"><title>Node5&#45;&gt;Node6</title>
<path fill="none" stroke="midnightblue" d="M114,-101.805C114,-92.9102 114,-82.7798 114,-75.7511"/>
<polygon fill="midnightblue" stroke="midnightblue" points="110.5,-102.083 114,-112.083 117.5,-102.083 110.5,-102.083"/>
</g>
<!-- Node8 -->
<g id="node8" class="node"><title>Node8</title>
<g id="a_node8"><a xlink:href="_io_2_null_8h.html" target="_top" xlink:title="Null.h">
<polygon fill="white" stroke="black" points="249.5,-112.5 249.5,-131.5 290.5,-131.5 290.5,-112.5 249.5,-112.5"/>
<text text-anchor="middle" x="270" y="-119.5" font-family="Helvetica,sans-Serif" font-size="10.00">Null.h</text>
</a>
</g>
</g>
<!-- Node7&#45;&gt;Node8 -->
<g id="edge7" class="edge"><title>Node7&#45;&gt;Node8</title>
<path fill="none" stroke="midnightblue" d="M285.862,-158.69C281.817,-149.589 277.117,-139.014 273.889,-131.751"/>
<polygon fill="midnightblue" stroke="midnightblue" points="282.777,-160.366 290.037,-168.083 289.174,-157.523 282.777,-160.366"/>
</g>
<!-- Node9 -->
<g id="node9" class="node"><title>Node9</title>
<g id="a_node9"><a xlink:href="_socket_2_input_output_8h.html" target="_top" xlink:title="InputOutput.h">
<polygon fill="white" stroke="black" points="308.5,-112.5 308.5,-131.5 383.5,-131.5 383.5,-112.5 308.5,-112.5"/>
<text text-anchor="middle" x="346" y="-119.5" font-family="Helvetica,sans-Serif" font-size="10.00">InputOutput.h</text>
</a>
</g>
</g>
<!-- Node7&#45;&gt;Node9 -->
<g id="edge8" class="edge"><title>Node7&#45;&gt;Node9</title>
<path fill="none" stroke="midnightblue" d="M309.679,-160.718C318.845,-151.2 330.053,-139.561 337.573,-131.751"/>
<polygon fill="midnightblue" stroke="midnightblue" points="307.002,-158.452 302.587,-168.083 312.044,-163.308 307.002,-158.452"/>
</g>
<!-- Node10 -->
<g id="node10" class="node"><title>Node10</title>
<g id="a_node10"><a xlink:href="_factory_8h.html" target="_top" xlink:title="Factory.h">
<polygon fill="white" stroke="black" points="345,-56.5 345,-75.5 403,-75.5 403,-56.5 345,-56.5"/>
<text text-anchor="middle" x="374" y="-63.5" font-family="Helvetica,sans-Serif" font-size="10.00">Factory.h</text>
</a>
</g>
</g>
<!-- Node9&#45;&gt;Node10 -->
<g id="edge9" class="edge"><title>Node9&#45;&gt;Node10</title>
<path fill="none" stroke="midnightblue" d="M355.342,-102.983C360.095,-93.8168 365.656,-83.0922 369.462,-75.7511"/>
<polygon fill="midnightblue" stroke="midnightblue" points="352.12,-101.594 350.624,-112.083 358.334,-104.817 352.12,-101.594"/>
</g>
<!-- Node11 -->
<g id="node11" class="node"><title>Node11</title>
<g id="a_node11"><a xlink:href="_stream_pool_8h.html" target="_top" xlink:title="StreamPool.h">
<polygon fill="white" stroke="black" points="307,-0.5 307,-19.5 383,-19.5 383,-0.5 307,-0.5"/>
<text text-anchor="middle" x="345" y="-7.5" font-family="Helvetica,sans-Serif" font-size="10.00">StreamPool.h</text>
</a>
</g>
</g>
<!-- Node9&#45;&gt;Node11 -->
<g id="edge11" class="edge"><title>Node9&#45;&gt;Node11</title>
<path fill="none" stroke="midnightblue" d="M340.963,-102.625C338.992,-94.5284 336.973,-84.8602 336,-76 333.787,-55.8426 339.003,-32.2917 342.386,-19.8117"/>
<polygon fill="midnightblue" stroke="midnightblue" points="337.617,-103.667 343.518,-112.467 344.393,-101.908 337.617,-103.667"/>
</g>
<!-- Node10&#45;&gt;Node11 -->
<g id="edge10" class="edge"><title>Node10&#45;&gt;Node11</title>
<path fill="none" stroke="midnightblue" d="M364.324,-46.9827C359.402,-37.8168 353.642,-27.0922 349.7,-19.7511"/>
<polygon fill="midnightblue" stroke="midnightblue" points="361.396,-48.929 369.211,-56.083 367.563,-45.6171 361.396,-48.929"/>
</g>
<!-- Node13&#45;&gt;Node7 -->
<g id="edge19" class="edge"><title>Node13&#45;&gt;Node7</title>
<path fill="none" stroke="midnightblue" d="M373.19,-219.726C353.747,-209.727 327.652,-196.307 310.828,-187.655"/>
<polygon fill="midnightblue" stroke="midnightblue" points="371.636,-222.863 382.13,-224.324 374.838,-216.638 371.636,-222.863"/>
</g>
<!-- Node14 -->
<g id="node14" class="node"><title>Node14</title>
<g id="a_node14"><a xlink:href="_atomic_output_api_8h.html" target="_top" xlink:title="AtomicOutputApi.h">
<polygon fill="white" stroke="black" points="349.5,-168.5 349.5,-187.5 448.5,-187.5 448.5,-168.5 349.5,-168.5"/>
<text text-anchor="middle" x="399" y="-175.5" font-family="Helvetica,sans-Serif" font-size="10.00">AtomicOutputApi.h</text>
</a>
</g>
</g>
<!-- Node13&#45;&gt;Node14 -->
<g id="edge14" class="edge"><title>Node13&#45;&gt;Node14</title>
<path fill="none" stroke="midnightblue" d="M399,-213.805C399,-204.91 399,-194.78 399,-187.751"/>
<polygon fill="midnightblue" stroke="midnightblue" points="395.5,-214.083 399,-224.083 402.5,-214.083 395.5,-214.083"/>
</g>
<!-- Node16 -->
<g id="node16" class="node"><title>Node16</title>
<g id="a_node16"><a xlink:href="_output_api_8h.html" target="_top" xlink:title="OutputApi.h">
<polygon fill="white" stroke="black" points="170,-168.5 170,-187.5 238,-187.5 238,-168.5 170,-168.5"/>
<text text-anchor="middle" x="204" y="-175.5" font-family="Helvetica,sans-Serif" font-size="10.00">OutputApi.h</text>
</a>
</g>
</g>
<!-- Node13&#45;&gt;Node16 -->
<g id="edge16" class="edge"><title>Node13&#45;&gt;Node16</title>
<path fill="none" stroke="midnightblue" d="M362.031,-222.763C325.177,-212.557 269.232,-197.064 234.737,-187.512"/>
<polygon fill="midnightblue" stroke="midnightblue" points="361.315,-226.196 371.886,-225.492 363.183,-219.45 361.315,-226.196"/>
</g>
<!-- Node18 -->
<g id="node18" class="node"><title>Node18</title>
<g id="a_node18"><a xlink:href="_line_writer_8h.html" target="_top" xlink:title="LineWriter.h">
<polygon fill="white" stroke="black" points="466.5,-168.5 466.5,-187.5 535.5,-187.5 535.5,-168.5 466.5,-168.5"/>
<text text-anchor="middle" x="501" y="-175.5" font-family="Helvetica,sans-Serif" font-size="10.00">LineWriter.h</text>
</a>
</g>
</g>
<!-- Node13&#45;&gt;Node18 -->
<g id="edge20" class="edge"><title>Node13&#45;&gt;Node18</title>
<path fill="none" stroke="midnightblue" d="M424.331,-219.59C443.19,-209.605 468.384,-196.267 484.653,-187.655"/>
<polygon fill="midnightblue" stroke="midnightblue" points="422.588,-216.552 415.388,-224.324 425.864,-222.738 422.588,-216.552"/>
</g>
<!-- Node19 -->
<g id="node19" class="node"><title>Node19</title>
<g id="a_node19"><a xlink:href="_tee_output_8h.html" target="_top" xlink:title="TeeOutput.h">
<polygon fill="white" stroke="black" points="554,-168.5 554,-187.5 624,-187.5 624,-168.5 554,-168.5"/>
<text text-anchor="middle" x="589" y="-175.5" font-family="Helvetica,sans-Serif" font-size="10.00">TeeOutput.h</text>
</a>
</g>
</g>
<!-- Node13&#45;&gt;Node19 -->
<g id="edge21" class="edge"><title>Node13&#45;&gt;Node19</title>
<path fill="none" stroke="midnightblue" d="M436.299,-222.399C472.197,-212.197 525.79,-196.965 559.007,-187.524"/>
<polygon fill="midnightblue" stroke="midnightblue" points="434.885,-219.163 426.222,-225.263 436.798,-225.896 434.885,-219.163"/>
</g>
<!-- Node20 -->
<g id="node20" class="node"><title>Node20</title>
<g id="a_node20"><a xlink:href="_trace_8h.html" target="_top" xlink:title="Trace.h">
<polygon fill="white" stroke="black" points="642.5,-168.5 642.5,-187.5 691.5,-187.5 691.5,-168.5 642.5,-168.5"/>
<text text-anchor="middle" x="667" y="-175.5" font-family="Helvetica,sans-Serif" font-size="10.00">Trace.h</text>
</a>
</g>
</g>
<!-- Node13&#45;&gt;Node20 -->
<g id="edge22" class="edge"><title>Node13&#45;&gt;Node20</title>
<path fill="none" stroke="midnightblue" d="M436.023,-226.692C482.293,-218.622 563.819,-203.789 633,-188 635.977,-187.321 639.087,-186.563 642.166,-185.785"/>
<polygon fill="midnightblue" stroke="midnightblue" points="435.405,-223.247 426.15,-228.404 436.601,-230.144 435.405,-223.247"/>
</g>
<!-- Node15 -->
<g id="node15" class="node"><title>Node15</title>
<g id="a_node15"><a xlink:href="_atomic_output_8h.html" target="_top" xlink:title="AtomicOutput.h">
<polygon fill="white" stroke="black" points="401.5,-112.5 401.5,-131.5 486.5,-131.5 486.5,-112.5 401.5,-112.5"/>
<text text-anchor="middle" x="444" y="-119.5" font-family="Helvetica,sans-Serif" font-size="10.00">AtomicOutput.h</text>
</a>
</g>
</g>
<!-- Node14&#45;&gt;Node15 -->
<g id="edge15" class="edge"><title>Node14&#45;&gt;Node15</title>
<path fill="none" stroke="midnightblue" d="M413.047,-160.144C420.887,-150.736 430.329,-139.405 436.707,-131.751"/>
<polygon fill="midnightblue" stroke="midnightblue" points="410.144,-158.16 406.431,-168.083 415.521,-162.641 410.144,-158.16"/>
</g>
<!-- Node16&#45;&gt;Node5 -->
<g id="edge17" class="edge"><title>Node16&#45;&gt;Node5</title>
<path fill="none" stroke="midnightblue" d="M180.962,-163.177C164.401,-153.241 142.582,-140.149 128.424,-131.655"/>
<polygon fill="midnightblue" stroke="midnightblue" points="179.164,-166.18 189.54,-168.324 182.766,-160.178 179.164,-166.18"/>
</g>
<!-- Node17 -->
<g id="node17" class="node"><title>Node17</title>
<g id="a_node17"><a xlink:href="_file_2_output_8h.html" target="_top" xlink:title="Output.h">
<polygon fill="white" stroke="black" points="177,-112.5 177,-131.5 231,-131.5 231,-112.5 177,-112.5"/>
<text text-anchor="middle" x="204" y="-119.5" font-family="Helvetica,sans-Serif" font-size="10.00">Output.h</text>
</a>
</g>
</g>
<!-- Node16&#45;&gt;Node17 -->
<g id="edge18" class="edge"><title>Node16&#45;&gt;Node17</title>
<path fill="none" stroke="midnightblue" d="M204,-157.805C204,-148.91 204,-138.78 204,-131.751"/>
<polygon fill="midnightblue" stroke="midnightblue" points="200.5,-158.083 204,-168.083 207.5,-158.083 200.5,-158.083"/>
</g>
<!-- Node21 -->
<g id="node21" class="node"><title>Node21</title>
<g id="a_node21"><a xlink:href="_local_8h.html" target="_top" xlink:title="Local.h">
<polygon fill="white" stroke="black" points="643,-112.5 643,-131.5 691,-131.5 691,-112.5 643,-112.5"/>
<text text-anchor="middle" x="667" y="-119.5" font-family="Helvetica,sans-Serif" font-size="10.00">Local.h</text>
</a>
</g>
</g>
<!-- Node20&#45;&gt;Node21 -->
<g id="edge23" class="edge"><title>Node20&#45;&gt;Node21</title>
<path fill="none" stroke="midnightblue" d="M667,-157.805C667,-148.91 667,-138.78 667,-131.751"/>
<polygon fill="midnightblue" stroke="midnightblue" points="663.5,-158.083 667,-168.083 670.5,-158.083 663.5,-158.083"/>
</g>
</g>
</svg>
