<?xml version="1.0" encoding="UTF-8" standalone="no"?>
<!DOCTYPE svg PUBLIC "-//W3C//DTD SVG 1.1//EN"
 "http://www.w3.org/Graphics/SVG/1.1/DTD/svg11.dtd">
<!-- Generated by graphviz version 2.38.0 (20140413.2041)
 -->
<!-- Title: Api.h Pages: 1 -->
<svg width="347pt" height="308pt"
 viewBox="0.00 0.00 347.45 308.00" xmlns="http://www.w3.org/2000/svg" xmlns:xlink="http://www.w3.org/1999/xlink">
<g id="graph0" class="graph" transform="scale(1 1) rotate(0) translate(4 304)">
<title>Api.h</title>
<polygon fill="white" stroke="none" points="-4,4 -4,-304 343.454,-304 343.454,4 -4,4"/>
<!-- Node1 -->
<g id="node1" class="node"><title>Node1</title>
<polygon fill="#bfbfbf" stroke="black" points="112.454,-280.5 112.454,-299.5 151.454,-299.5 151.454,-280.5 112.454,-280.5"/>
<text text-anchor="middle" x="131.954" y="-287.5" font-family="Helvetica,sans-Serif" font-size="10.00">Api.h</text>
</g>
<!-- Node2 -->
<g id="node2" class="node"><title>Node2</title>
<polygon fill="white" stroke="#bfbfbf" points="2.45445,-56.5 2.45445,-75.5 79.4545,-75.5 79.4545,-56.5 2.45445,-56.5"/>
<text text-anchor="middle" x="40.9545" y="-63.5" font-family="Helvetica,sans-Serif" font-size="10.00">colony_map.h</text>
</g>
<!-- Node1&#45;&gt;Node2 -->
<g id="edge1" class="edge"><title>Node1&#45;&gt;Node2</title>
<path fill="none" stroke="midnightblue" d="M112.042,-287.633C85.255,-284.619 38.391,-274.959 15.9545,-244 -19.351,-195.284 13.1524,-118.847 31.011,-84.6111"/>
<polygon fill="midnightblue" stroke="midnightblue" points="34.1122,-86.2342 35.7921,-75.7734 27.9554,-82.9034 34.1122,-86.2342"/>
</g>
<!-- Node3 -->
<g id="node3" class="node"><title>Node3</title>
<g id="a_node3"><a xlink:href="_f_string_8h.html" target="_top" xlink:title="Cpl/Text/FString.h">
<polygon fill="white" stroke="black" points="25.4545,-224.5 25.4545,-243.5 120.454,-243.5 120.454,-224.5 25.4545,-224.5"/>
<text text-anchor="middle" x="72.9545" y="-231.5" font-family="Helvetica,sans-Serif" font-size="10.00">Cpl/Text/FString.h</text>
</a>
</g>
</g>
<!-- Node1&#45;&gt;Node3 -->
<g id="edge2" class="edge"><title>Node1&#45;&gt;Node3</title>
<path fill="none" stroke="midnightblue" d="M122.475,-280.324C113.753,-272.341 100.611,-260.313 90.0567,-250.653"/>
<polygon fill="midnightblue" stroke="midnightblue" points="92.3461,-248.004 82.6063,-243.834 87.62,-253.167 92.3461,-248.004"/>
</g>
<!-- Node13 -->
<g id="node13" class="node"><title>Node13</title>
<g id="a_node13"><a xlink:href="_traverser_8h.html" target="_top" xlink:title="Cpl/Type/Traverser.h">
<polygon fill="white" stroke="black" points="138.454,-224.5 138.454,-243.5 243.454,-243.5 243.454,-224.5 138.454,-224.5"/>
<text text-anchor="middle" x="190.954" y="-231.5" font-family="Helvetica,sans-Serif" font-size="10.00">Cpl/Type/Traverser.h</text>
</a>
</g>
</g>
<!-- Node1&#45;&gt;Node13 -->
<g id="edge14" class="edge"><title>Node1&#45;&gt;Node13</title>
<path fill="none" stroke="midnightblue" d="M141.434,-280.324C150.156,-272.341 163.298,-260.313 173.852,-250.653"/>
<polygon fill="midnightblue" stroke="midnightblue" points="176.289,-253.167 181.303,-243.834 171.563,-248.004 176.289,-253.167"/>
</g>
<!-- Node14 -->
<g id="node14" class="node"><title>Node14</title>
<polygon fill="white" stroke="#bfbfbf" points="261.954,-224.5 261.954,-243.5 305.954,-243.5 305.954,-224.5 261.954,-224.5"/>
<text text-anchor="middle" x="283.954" y="-231.5" font-family="Helvetica,sans-Serif" font-size="10.00">time.h</text>
</g>
<!-- Node1&#45;&gt;Node14 -->
<g id="edge15" class="edge"><title>Node1&#45;&gt;Node14</title>
<path fill="none" stroke="midnightblue" d="M151.515,-282.051C176.944,-273.017 221.686,-257.122 252.058,-246.331"/>
<polygon fill="midnightblue" stroke="midnightblue" points="253.508,-249.531 261.759,-242.885 251.164,-242.935 253.508,-249.531"/>
</g>
<!-- Node4 -->
<g id="node4" class="node"><title>Node4</title>
<polygon fill="white" stroke="#bfbfbf" points="22.4545,-168.5 22.4545,-187.5 123.454,-187.5 123.454,-168.5 22.4545,-168.5"/>
<text text-anchor="middle" x="72.9545" y="-175.5" font-family="Helvetica,sans-Serif" font-size="10.00">Cpl/Text/FString_.h</text>
</g>
<!-- Node3&#45;&gt;Node4 -->
<g id="edge3" class="edge"><title>Node3&#45;&gt;Node4</title>
<path fill="none" stroke="midnightblue" d="M72.9545,-224.083C72.9545,-217.006 72.9545,-206.861 72.9545,-197.986"/>
<polygon fill="midnightblue" stroke="midnightblue" points="76.4546,-197.751 72.9545,-187.751 69.4546,-197.751 76.4546,-197.751"/>
</g>
<!-- Node5 -->
<g id="node5" class="node"><title>Node5</title>
<g id="a_node5"><a xlink:href="_string_8h.html" target="_top" xlink:title="string.h">
<polygon fill="white" stroke="black" points="141.454,-168.5 141.454,-187.5 190.454,-187.5 190.454,-168.5 141.454,-168.5"/>
<text text-anchor="middle" x="165.954" y="-175.5" font-family="Helvetica,sans-Serif" font-size="10.00">string.h</text>
</a>
</g>
</g>
<!-- Node3&#45;&gt;Node5 -->
<g id="edge4" class="edge"><title>Node3&#45;&gt;Node5</title>
<path fill="none" stroke="midnightblue" d="M87.8965,-224.324C102.54,-215.822 125.088,-202.729 142.192,-192.797"/>
<polygon fill="midnightblue" stroke="midnightblue" points="144.159,-195.703 151.049,-187.655 140.644,-189.649 144.159,-195.703"/>
</g>
<!-- Node5&#45;&gt;Node2 -->
<g id="edge13" class="edge"><title>Node5&#45;&gt;Node2</title>
<path fill="none" stroke="midnightblue" d="M141.438,-169.315C113.78,-160.192 71.1806,-144.624 59.9545,-132 48.6113,-119.244 44.0232,-100.05 42.1764,-85.8233"/>
<polygon fill="midnightblue" stroke="midnightblue" points="45.6441,-85.3172 41.2065,-75.6965 38.676,-85.9847 45.6441,-85.3172"/>
</g>
<!-- Node6 -->
<g id="node6" class="node"><title>Node6</title>
<polygon fill="white" stroke="#bfbfbf" points="68.9545,-112.5 68.9545,-131.5 120.954,-131.5 120.954,-112.5 68.9545,-112.5"/>
<text text-anchor="middle" x="94.9545" y="-119.5" font-family="Helvetica,sans-Serif" font-size="10.00">stdarg.h</text>
</g>
<!-- Node5&#45;&gt;Node6 -->
<g id="edge5" class="edge"><title>Node5&#45;&gt;Node6</title>
<path fill="none" stroke="midnightblue" d="M154.547,-168.324C143.846,-160.185 127.614,-147.839 114.792,-138.087"/>
<polygon fill="midnightblue" stroke="midnightblue" points="116.648,-135.102 106.569,-131.834 112.41,-140.673 116.648,-135.102"/>
</g>
<!-- Node7 -->
<g id="node7" class="node"><title>Node7</title>
<polygon fill="white" stroke="#bfbfbf" points="138.954,-112.5 138.954,-131.5 192.954,-131.5 192.954,-112.5 138.954,-112.5"/>
<text text-anchor="middle" x="165.954" y="-119.5" font-family="Helvetica,sans-Serif" font-size="10.00">iostream</text>
</g>
<!-- Node5&#45;&gt;Node7 -->
<g id="edge6" class="edge"><title>Node5&#45;&gt;Node7</title>
<path fill="none" stroke="midnightblue" d="M165.954,-168.083C165.954,-161.006 165.954,-150.861 165.954,-141.986"/>
<polygon fill="midnightblue" stroke="midnightblue" points="169.455,-141.751 165.954,-131.751 162.455,-141.751 169.455,-141.751"/>
</g>
<!-- Node8 -->
<g id="node8" class="node"><title>Node8</title>
<g id="a_node8"><a xlink:href="_key_8h.html" target="_top" xlink:title="Cpl/Container/Key.h">
<polygon fill="white" stroke="black" points="210.954,-112.5 210.954,-131.5 314.954,-131.5 314.954,-112.5 210.954,-112.5"/>
<text text-anchor="middle" x="262.954" y="-119.5" font-family="Helvetica,sans-Serif" font-size="10.00">Cpl/Container/Key.h</text>
</a>
</g>
</g>
<!-- Node5&#45;&gt;Node8 -->
<g id="edge7" class="edge"><title>Node5&#45;&gt;Node8</title>
<path fill="none" stroke="midnightblue" d="M181.539,-168.324C196.954,-159.743 220.767,-146.486 238.664,-136.522"/>
<polygon fill="midnightblue" stroke="midnightblue" points="240.374,-139.577 247.408,-131.655 236.969,-133.461 240.374,-139.577"/>
</g>
<!-- Node8&#45;&gt;Node2 -->
<g id="edge12" class="edge"><title>Node8&#45;&gt;Node2</title>
<path fill="none" stroke="midnightblue" d="M227.778,-112.444C189.375,-103.102 127.779,-88.1194 85.8994,-77.9326"/>
<polygon fill="midnightblue" stroke="midnightblue" points="86.5104,-74.4792 75.9664,-75.5164 84.8559,-81.2809 86.5104,-74.4792"/>
</g>
<!-- Node9 -->
<g id="node9" class="node"><title>Node9</title>
<g id="a_node9"><a xlink:href="_fatal_error_8h.html" target="_top" xlink:title="Cpl/System/FatalError.h">
<polygon fill="white" stroke="black" points="149.954,-56.5 149.954,-75.5 271.954,-75.5 271.954,-56.5 149.954,-56.5"/>
<text text-anchor="middle" x="210.954" y="-63.5" font-family="Helvetica,sans-Serif" font-size="10.00">Cpl/System/FatalError.h</text>
</a>
</g>
</g>
<!-- Node8&#45;&gt;Node9 -->
<g id="edge8" class="edge"><title>Node8&#45;&gt;Node9</title>
<path fill="none" stroke="midnightblue" d="M254.368,-112.083C246.795,-104.22 235.576,-92.5688 226.44,-83.0813"/>
<polygon fill="midnightblue" stroke="midnightblue" points="228.839,-80.5266 219.381,-75.7511 223.797,-85.3821 228.839,-80.5266"/>
</g>
<!-- Node12 -->
<g id="node12" class="node"><title>Node12</title>
<polygon fill="white" stroke="#bfbfbf" points="290.454,-56.5 290.454,-75.5 339.454,-75.5 339.454,-56.5 290.454,-56.5"/>
<text text-anchor="middle" x="314.954" y="-63.5" font-family="Helvetica,sans-Serif" font-size="10.00">stdint.h</text>
</g>
<!-- Node8&#45;&gt;Node12 -->
<g id="edge11" class="edge"><title>Node8&#45;&gt;Node12</title>
<path fill="none" stroke="midnightblue" d="M271.541,-112.083C279.113,-104.22 290.333,-92.5688 299.469,-83.0813"/>
<polygon fill="midnightblue" stroke="midnightblue" points="302.112,-85.3821 306.527,-75.7511 297.07,-80.5266 302.112,-85.3821"/>
</g>
<!-- Node10 -->
<g id="node10" class="node"><title>Node10</title>
<polygon fill="white" stroke="#bfbfbf" points="142.454,-0.5 142.454,-19.5 193.454,-19.5 193.454,-0.5 142.454,-0.5"/>
<text text-anchor="middle" x="167.954" y="-7.5" font-family="Helvetica,sans-Serif" font-size="10.00">stddef.h</text>
</g>
<!-- Node9&#45;&gt;Node10 -->
<g id="edge9" class="edge"><title>Node9&#45;&gt;Node10</title>
<path fill="none" stroke="midnightblue" d="M203.854,-56.083C197.717,-48.3768 188.685,-37.0333 181.215,-27.6531"/>
<polygon fill="midnightblue" stroke="midnightblue" points="183.89,-25.3936 174.923,-19.7511 178.414,-29.7542 183.89,-25.3936"/>
</g>
<!-- Node11 -->
<g id="node11" class="node"><title>Node11</title>
<polygon fill="white" stroke="#bfbfbf" points="211.954,-0.5 211.954,-19.5 295.954,-19.5 295.954,-0.5 211.954,-0.5"/>
<text text-anchor="middle" x="253.954" y="-7.5" font-family="Helvetica,sans-Serif" font-size="10.00">colony_config.h</text>
</g>
<!-- Node9&#45;&gt;Node11 -->
<g id="edge10" class="edge"><title>Node9&#45;&gt;Node11</title>
<path fill="none" stroke="midnightblue" d="M218.055,-56.083C224.191,-48.3768 233.224,-37.0333 240.694,-27.6531"/>
<polygon fill="midnightblue" stroke="midnightblue" points="243.495,-29.7542 246.986,-19.7511 238.019,-25.3936 243.495,-29.7542"/>
</g>
</g>
</svg>
