<?xml version="1.0" encoding="UTF-8" standalone="no"?>
<!DOCTYPE svg PUBLIC "-//W3C//DTD SVG 1.1//EN"
 "http://www.w3.org/Graphics/SVG/1.1/DTD/svg11.dtd">
<!-- Generated by graphviz version 2.38.0 (20140413.2041)
 -->
<!-- Title: Thread.h Pages: 1 -->
<svg width="835pt" height="308pt"
 viewBox="0.00 0.00 834.75 308.00" xmlns="http://www.w3.org/2000/svg" xmlns:xlink="http://www.w3.org/1999/xlink">
<g id="graph0" class="graph" transform="scale(1 1) rotate(0) translate(4 304)">
<title>Thread.h</title>
<polygon fill="white" stroke="none" points="-4,4 -4,-304 830.753,-304 830.753,4 -4,4"/>
<!-- Node1 -->
<g id="node1" class="node"><title>Node1</title>
<polygon fill="#bfbfbf" stroke="black" points="471.253,-280.5 471.253,-299.5 525.253,-299.5 525.253,-280.5 471.253,-280.5"/>
<text text-anchor="middle" x="498.253" y="-287.5" font-family="Helvetica,sans-Serif" font-size="10.00">Thread.h</text>
</g>
<!-- Node2 -->
<g id="node2" class="node"><title>Node2</title>
<g id="a_node2"><a xlink:href="_thread_8h.html" target="_top" xlink:title="Cpl/System/Thread.h">
<polygon fill="white" stroke="black" points="196.253,-224.5 196.253,-243.5 304.253,-243.5 304.253,-224.5 196.253,-224.5"/>
<text text-anchor="middle" x="250.253" y="-231.5" font-family="Helvetica,sans-Serif" font-size="10.00">Cpl/System/Thread.h</text>
</a>
</g>
</g>
<!-- Node1&#45;&gt;Node2 -->
<g id="edge1" class="edge"><title>Node1&#45;&gt;Node2</title>
<path fill="none" stroke="midnightblue" d="M471.241,-283.118C430.048,-274.149 350.891,-256.913 299.349,-245.69"/>
<polygon fill="midnightblue" stroke="midnightblue" points="299.944,-242.238 289.428,-243.53 298.454,-249.077 299.944,-242.238"/>
</g>
<!-- Node9 -->
<g id="node9" class="node"><title>Node9</title>
<g id="a_node9"><a xlink:href="_semaphore_8h.html" target="_top" xlink:title="Cpl/System/Semaphore.h">
<polygon fill="white" stroke="black" points="369.253,-224.5 369.253,-243.5 497.253,-243.5 497.253,-224.5 369.253,-224.5"/>
<text text-anchor="middle" x="433.253" y="-231.5" font-family="Helvetica,sans-Serif" font-size="10.00">Cpl/System/Semaphore.h</text>
</a>
</g>
</g>
<!-- Node1&#45;&gt;Node9 -->
<g id="edge8" class="edge"><title>Node1&#45;&gt;Node9</title>
<path fill="none" stroke="midnightblue" d="M487.81,-280.324C478.107,-272.263 463.438,-260.077 451.754,-250.369"/>
<polygon fill="midnightblue" stroke="midnightblue" points="453.815,-247.532 443.887,-243.834 449.342,-252.916 453.815,-247.532"/>
</g>
<!-- Node10 -->
<g id="node10" class="node"><title>Node10</title>
<g id="a_node10"><a xlink:href="_f_string_8h.html" target="_top" xlink:title="Cpl/Text/FString.h">
<polygon fill="white" stroke="black" points="515.753,-224.5 515.753,-243.5 610.753,-243.5 610.753,-224.5 515.753,-224.5"/>
<text text-anchor="middle" x="563.253" y="-231.5" font-family="Helvetica,sans-Serif" font-size="10.00">Cpl/Text/FString.h</text>
</a>
</g>
</g>
<!-- Node1&#45;&gt;Node10 -->
<g id="edge11" class="edge"><title>Node1&#45;&gt;Node10</title>
<path fill="none" stroke="midnightblue" d="M508.697,-280.324C518.4,-272.263 533.069,-260.077 544.753,-250.369"/>
<polygon fill="midnightblue" stroke="midnightblue" points="547.165,-252.916 552.62,-243.834 542.692,-247.532 547.165,-252.916"/>
</g>
<!-- Node20 -->
<g id="node20" class="node"><title>Node20</title>
<polygon fill="white" stroke="#bfbfbf" points="629.253,-224.5 629.253,-243.5 673.253,-243.5 673.253,-224.5 629.253,-224.5"/>
<text text-anchor="middle" x="651.253" y="-231.5" font-family="Helvetica,sans-Serif" font-size="10.00">thread</text>
</g>
<!-- Node1&#45;&gt;Node20 -->
<g id="edge23" class="edge"><title>Node1&#45;&gt;Node20</title>
<path fill="none" stroke="midnightblue" d="M522.497,-280.444C548.727,-271.186 590.658,-256.387 619.502,-246.207"/>
<polygon fill="midnightblue" stroke="midnightblue" points="620.846,-249.444 629.111,-242.815 618.516,-242.843 620.846,-249.444"/>
</g>
<!-- Node3 -->
<g id="node3" class="node"><title>Node3</title>
<polygon fill="white" stroke="#bfbfbf" points="466.753,-56.5 466.753,-75.5 543.753,-75.5 543.753,-56.5 466.753,-56.5"/>
<text text-anchor="middle" x="505.253" y="-63.5" font-family="Helvetica,sans-Serif" font-size="10.00">colony_map.h</text>
</g>
<!-- Node2&#45;&gt;Node3 -->
<g id="edge2" class="edge"><title>Node2&#45;&gt;Node3</title>
<path fill="none" stroke="midnightblue" d="M196.183,-230.924C131.291,-227.165 28.1975,-216.721 4.25348,-188 -1.43839,-181.172 -1.3767,-174.878 4.25348,-168 61.2051,-98.4213 341.995,-75.708 456.505,-69.2645"/>
<polygon fill="midnightblue" stroke="midnightblue" points="456.937,-72.7462 466.732,-68.7076 456.556,-65.7566 456.937,-72.7462"/>
</g>
<!-- Node4 -->
<g id="node4" class="node"><title>Node4</title>
<g id="a_node4"><a xlink:href="_runnable_8h.html" target="_top" xlink:title="Cpl/System/Runnable.h">
<polygon fill="white" stroke="black" points="13.7535,-168.5 13.7535,-187.5 132.753,-187.5 132.753,-168.5 13.7535,-168.5"/>
<text text-anchor="middle" x="73.2535" y="-175.5" font-family="Helvetica,sans-Serif" font-size="10.00">Cpl/System/Runnable.h</text>
</a>
</g>
</g>
<!-- Node2&#45;&gt;Node4 -->
<g id="edge3" class="edge"><title>Node2&#45;&gt;Node4</title>
<path fill="none" stroke="midnightblue" d="M222.207,-224.444C192.172,-215.28 144.34,-200.688 111.011,-190.519"/>
<polygon fill="midnightblue" stroke="midnightblue" points="111.755,-187.087 101.168,-187.516 109.712,-193.782 111.755,-187.087"/>
</g>
<!-- Node5 -->
<g id="node5" class="node"><title>Node5</title>
<g id="a_node5"><a xlink:href="_signable_8h.html" target="_top" xlink:title="Cpl/System/Signable.h">
<polygon fill="white" stroke="black" points="340.253,-168.5 340.253,-187.5 456.253,-187.5 456.253,-168.5 340.253,-168.5"/>
<text text-anchor="middle" x="398.253" y="-175.5" font-family="Helvetica,sans-Serif" font-size="10.00">Cpl/System/Signable.h</text>
</a>
</g>
</g>
<!-- Node2&#45;&gt;Node5 -->
<g id="edge4" class="edge"><title>Node2&#45;&gt;Node5</title>
<path fill="none" stroke="midnightblue" d="M273.705,-224.444C298.386,-215.438 337.439,-201.189 365.23,-191.049"/>
<polygon fill="midnightblue" stroke="midnightblue" points="366.718,-194.232 374.912,-187.516 364.318,-187.656 366.718,-194.232"/>
</g>
<!-- Node7 -->
<g id="node7" class="node"><title>Node7</title>
<g id="a_node7"><a xlink:href="_traverser_8h.html" target="_top" xlink:title="Cpl/Type/Traverser.h">
<polygon fill="white" stroke="black" points="150.753,-168.5 150.753,-187.5 255.753,-187.5 255.753,-168.5 150.753,-168.5"/>
<text text-anchor="middle" x="203.253" y="-175.5" font-family="Helvetica,sans-Serif" font-size="10.00">Cpl/Type/Traverser.h</text>
</a>
</g>
</g>
<!-- Node2&#45;&gt;Node7 -->
<g id="edge6" class="edge"><title>Node2&#45;&gt;Node7</title>
<path fill="none" stroke="midnightblue" d="M242.492,-224.083C235.717,-216.298 225.71,-204.801 217.498,-195.367"/>
<polygon fill="midnightblue" stroke="midnightblue" points="220.076,-192.996 210.87,-187.751 214.795,-197.592 220.076,-192.996"/>
</g>
<!-- Node8 -->
<g id="node8" class="node"><title>Node8</title>
<polygon fill="white" stroke="#bfbfbf" points="274.253,-168.5 274.253,-187.5 322.253,-187.5 322.253,-168.5 274.253,-168.5"/>
<text text-anchor="middle" x="298.253" y="-175.5" font-family="Helvetica,sans-Serif" font-size="10.00">stdlib.h</text>
</g>
<!-- Node2&#45;&gt;Node8 -->
<g id="edge7" class="edge"><title>Node2&#45;&gt;Node8</title>
<path fill="none" stroke="midnightblue" d="M258.18,-224.083C265.1,-216.298 275.319,-204.801 283.705,-195.367"/>
<polygon fill="midnightblue" stroke="midnightblue" points="286.447,-197.55 290.475,-187.751 281.215,-192.9 286.447,-197.55"/>
</g>
<!-- Node6 -->
<g id="node6" class="node"><title>Node6</title>
<g id="a_node6"><a xlink:href="_item_8h.html" target="_top" xlink:title="Cpl/Container/Item.h">
<polygon fill="white" stroke="black" points="345.753,-112.5 345.753,-131.5 450.753,-131.5 450.753,-112.5 345.753,-112.5"/>
<text text-anchor="middle" x="398.253" y="-119.5" font-family="Helvetica,sans-Serif" font-size="10.00">Cpl/Container/Item.h</text>
</a>
</g>
</g>
<!-- Node5&#45;&gt;Node6 -->
<g id="edge5" class="edge"><title>Node5&#45;&gt;Node6</title>
<path fill="none" stroke="midnightblue" d="M398.253,-168.083C398.253,-161.006 398.253,-150.861 398.253,-141.986"/>
<polygon fill="midnightblue" stroke="midnightblue" points="401.754,-141.751 398.253,-131.751 394.754,-141.751 401.754,-141.751"/>
</g>
<!-- Node9&#45;&gt;Node3 -->
<g id="edge9" class="edge"><title>Node9&#45;&gt;Node3</title>
<path fill="none" stroke="midnightblue" d="M440.723,-224.206C447.825,-215.487 458.411,-201.513 465.253,-188 482.682,-153.579 494.927,-109.907 500.963,-85.5585"/>
<polygon fill="midnightblue" stroke="midnightblue" points="504.433,-86.0982 503.36,-75.5579 497.626,-84.4668 504.433,-86.0982"/>
</g>
<!-- Node9&#45;&gt;Node5 -->
<g id="edge10" class="edge"><title>Node9&#45;&gt;Node5</title>
<path fill="none" stroke="midnightblue" d="M427.474,-224.083C422.581,-216.534 415.426,-205.495 409.421,-196.23"/>
<polygon fill="midnightblue" stroke="midnightblue" points="412.302,-194.239 403.925,-187.751 406.427,-198.046 412.302,-194.239"/>
</g>
<!-- Node11 -->
<g id="node11" class="node"><title>Node11</title>
<polygon fill="white" stroke="#bfbfbf" points="512.753,-168.5 512.753,-187.5 613.753,-187.5 613.753,-168.5 512.753,-168.5"/>
<text text-anchor="middle" x="563.253" y="-175.5" font-family="Helvetica,sans-Serif" font-size="10.00">Cpl/Text/FString_.h</text>
</g>
<!-- Node10&#45;&gt;Node11 -->
<g id="edge12" class="edge"><title>Node10&#45;&gt;Node11</title>
<path fill="none" stroke="midnightblue" d="M563.253,-224.083C563.253,-217.006 563.253,-206.861 563.253,-197.986"/>
<polygon fill="midnightblue" stroke="midnightblue" points="566.754,-197.751 563.253,-187.751 559.754,-197.751 566.754,-197.751"/>
</g>
<!-- Node12 -->
<g id="node12" class="node"><title>Node12</title>
<g id="a_node12"><a xlink:href="_string_8h.html" target="_top" xlink:title="string.h">
<polygon fill="white" stroke="black" points="631.753,-168.5 631.753,-187.5 680.753,-187.5 680.753,-168.5 631.753,-168.5"/>
<text text-anchor="middle" x="656.253" y="-175.5" font-family="Helvetica,sans-Serif" font-size="10.00">string.h</text>
</a>
</g>
</g>
<!-- Node10&#45;&gt;Node12 -->
<g id="edge13" class="edge"><title>Node10&#45;&gt;Node12</title>
<path fill="none" stroke="midnightblue" d="M578.196,-224.324C592.839,-215.822 615.387,-202.729 632.491,-192.797"/>
<polygon fill="midnightblue" stroke="midnightblue" points="634.458,-195.703 641.349,-187.655 630.943,-189.649 634.458,-195.703"/>
</g>
<!-- Node12&#45;&gt;Node3 -->
<g id="edge22" class="edge"><title>Node12&#45;&gt;Node3</title>
<path fill="none" stroke="midnightblue" d="M631.65,-168.776C603.792,-159.135 560.548,-143.069 547.253,-132 531.966,-119.271 520.313,-99.523 513.204,-85.133"/>
<polygon fill="midnightblue" stroke="midnightblue" points="516.241,-83.3637 508.843,-75.7789 509.896,-86.3213 516.241,-83.3637"/>
</g>
<!-- Node13 -->
<g id="node13" class="node"><title>Node13</title>
<polygon fill="white" stroke="#bfbfbf" points="556.253,-112.5 556.253,-131.5 608.253,-131.5 608.253,-112.5 556.253,-112.5"/>
<text text-anchor="middle" x="582.253" y="-119.5" font-family="Helvetica,sans-Serif" font-size="10.00">stdarg.h</text>
</g>
<!-- Node12&#45;&gt;Node13 -->
<g id="edge14" class="edge"><title>Node12&#45;&gt;Node13</title>
<path fill="none" stroke="midnightblue" d="M644.364,-168.324C633.103,-160.107 615.967,-147.602 602.544,-137.807"/>
<polygon fill="midnightblue" stroke="midnightblue" points="604.5,-134.901 594.359,-131.834 600.374,-140.556 604.5,-134.901"/>
</g>
<!-- Node14 -->
<g id="node14" class="node"><title>Node14</title>
<polygon fill="white" stroke="#bfbfbf" points="626.253,-112.5 626.253,-131.5 680.253,-131.5 680.253,-112.5 626.253,-112.5"/>
<text text-anchor="middle" x="653.253" y="-119.5" font-family="Helvetica,sans-Serif" font-size="10.00">iostream</text>
</g>
<!-- Node12&#45;&gt;Node14 -->
<g id="edge15" class="edge"><title>Node12&#45;&gt;Node14</title>
<path fill="none" stroke="midnightblue" d="M655.758,-168.083C655.365,-161.006 654.801,-150.861 654.308,-141.986"/>
<polygon fill="midnightblue" stroke="midnightblue" points="657.789,-141.542 653.74,-131.751 650.8,-141.93 657.789,-141.542"/>
</g>
<!-- Node15 -->
<g id="node15" class="node"><title>Node15</title>
<g id="a_node15"><a xlink:href="_key_8h.html" target="_top" xlink:title="Cpl/Container/Key.h">
<polygon fill="white" stroke="black" points="698.253,-112.5 698.253,-131.5 802.253,-131.5 802.253,-112.5 698.253,-112.5"/>
<text text-anchor="middle" x="750.253" y="-119.5" font-family="Helvetica,sans-Serif" font-size="10.00">Cpl/Container/Key.h</text>
</a>
</g>
</g>
<!-- Node12&#45;&gt;Node15 -->
<g id="edge16" class="edge"><title>Node12&#45;&gt;Node15</title>
<path fill="none" stroke="midnightblue" d="M671.356,-168.324C686.157,-159.822 708.948,-146.729 726.236,-136.797"/>
<polygon fill="midnightblue" stroke="midnightblue" points="728.261,-139.671 735.188,-131.655 724.774,-133.601 728.261,-139.671"/>
</g>
<!-- Node15&#45;&gt;Node3 -->
<g id="edge21" class="edge"><title>Node15&#45;&gt;Node3</title>
<path fill="none" stroke="midnightblue" d="M711.433,-112.444C668.693,-103.023 599.922,-87.8656 553.687,-77.6752"/>
<polygon fill="midnightblue" stroke="midnightblue" points="554.412,-74.251 543.893,-75.5164 552.905,-81.0869 554.412,-74.251"/>
</g>
<!-- Node16 -->
<g id="node16" class="node"><title>Node16</title>
<g id="a_node16"><a xlink:href="_fatal_error_8h.html" target="_top" xlink:title="Cpl/System/FatalError.h">
<polygon fill="white" stroke="black" points="637.253,-56.5 637.253,-75.5 759.253,-75.5 759.253,-56.5 637.253,-56.5"/>
<text text-anchor="middle" x="698.253" y="-63.5" font-family="Helvetica,sans-Serif" font-size="10.00">Cpl/System/FatalError.h</text>
</a>
</g>
</g>
<!-- Node15&#45;&gt;Node16 -->
<g id="edge17" class="edge"><title>Node15&#45;&gt;Node16</title>
<path fill="none" stroke="midnightblue" d="M741.667,-112.083C734.095,-104.22 722.875,-92.5688 713.739,-83.0813"/>
<polygon fill="midnightblue" stroke="midnightblue" points="716.138,-80.5266 706.68,-75.7511 711.096,-85.3821 716.138,-80.5266"/>
</g>
<!-- Node19 -->
<g id="node19" class="node"><title>Node19</title>
<polygon fill="white" stroke="#bfbfbf" points="777.753,-56.5 777.753,-75.5 826.753,-75.5 826.753,-56.5 777.753,-56.5"/>
<text text-anchor="middle" x="802.253" y="-63.5" font-family="Helvetica,sans-Serif" font-size="10.00">stdint.h</text>
</g>
<!-- Node15&#45;&gt;Node19 -->
<g id="edge20" class="edge"><title>Node15&#45;&gt;Node19</title>
<path fill="none" stroke="midnightblue" d="M758.84,-112.083C766.412,-104.22 777.632,-92.5688 786.768,-83.0813"/>
<polygon fill="midnightblue" stroke="midnightblue" points="789.411,-85.3821 793.827,-75.7511 784.369,-80.5266 789.411,-85.3821"/>
</g>
<!-- Node17 -->
<g id="node17" class="node"><title>Node17</title>
<polygon fill="white" stroke="#bfbfbf" points="629.753,-0.5 629.753,-19.5 680.753,-19.5 680.753,-0.5 629.753,-0.5"/>
<text text-anchor="middle" x="655.253" y="-7.5" font-family="Helvetica,sans-Serif" font-size="10.00">stddef.h</text>
</g>
<!-- Node16&#45;&gt;Node17 -->
<g id="edge18" class="edge"><title>Node16&#45;&gt;Node17</title>
<path fill="none" stroke="midnightblue" d="M691.153,-56.083C685.016,-48.3768 675.984,-37.0333 668.514,-27.6531"/>
<polygon fill="midnightblue" stroke="midnightblue" points="671.189,-25.3936 662.222,-19.7511 665.713,-29.7542 671.189,-25.3936"/>
</g>
<!-- Node18 -->
<g id="node18" class="node"><title>Node18</title>
<polygon fill="white" stroke="#bfbfbf" points="699.253,-0.5 699.253,-19.5 783.253,-19.5 783.253,-0.5 699.253,-0.5"/>
<text text-anchor="middle" x="741.253" y="-7.5" font-family="Helvetica,sans-Serif" font-size="10.00">colony_config.h</text>
</g>
<!-- Node16&#45;&gt;Node18 -->
<g id="edge19" class="edge"><title>Node16&#45;&gt;Node18</title>
<path fill="none" stroke="midnightblue" d="M705.354,-56.083C711.49,-48.3768 720.523,-37.0333 727.993,-27.6531"/>
<polygon fill="midnightblue" stroke="midnightblue" points="730.794,-29.7542 734.285,-19.7511 725.318,-25.3936 730.794,-29.7542"/>
</g>
</g>
</svg>
