<?xml version="1.0" encoding="UTF-8" standalone="no"?>
<!DOCTYPE svg PUBLIC "-//W3C//DTD SVG 1.1//EN"
 "http://www.w3.org/Graphics/SVG/1.1/DTD/svg11.dtd">
<!-- Generated by graphviz version 2.38.0 (20140413.2041)
 -->
<!-- Title: FStringItem.h Pages: 1 -->
<svg width="427pt" height="364pt"
 viewBox="0.00 0.00 427.00 364.00" xmlns="http://www.w3.org/2000/svg" xmlns:xlink="http://www.w3.org/1999/xlink">
<g id="graph0" class="graph" transform="scale(1 1) rotate(0) translate(4 360)">
<title>FStringItem.h</title>
<polygon fill="white" stroke="none" points="-4,4 -4,-360 423,-360 423,4 -4,4"/>
<!-- Node1 -->
<g id="node1" class="node"><title>Node1</title>
<polygon fill="#bfbfbf" stroke="black" points="214,-336.5 214,-355.5 289,-355.5 289,-336.5 214,-336.5"/>
<text text-anchor="middle" x="251.5" y="-343.5" font-family="Helvetica,sans-Serif" font-size="10.00">FStringItem.h</text>
</g>
<!-- Node2 -->
<g id="node2" class="node"><title>Node2</title>
<g id="a_node2"><a xlink:href="_string_item_8h.html" target="_top" xlink:title="Cpl/Text/StringItem.h">
<polygon fill="white" stroke="black" points="137.5,-280.5 137.5,-299.5 245.5,-299.5 245.5,-280.5 137.5,-280.5"/>
<text text-anchor="middle" x="191.5" y="-287.5" font-family="Helvetica,sans-Serif" font-size="10.00">Cpl/Text/StringItem.h</text>
</a>
</g>
</g>
<!-- Node1&#45;&gt;Node2 -->
<g id="edge1" class="edge"><title>Node1&#45;&gt;Node2</title>
<path fill="none" stroke="midnightblue" d="M241.86,-336.324C232.99,-328.341 219.625,-316.313 208.892,-306.653"/>
<polygon fill="midnightblue" stroke="midnightblue" points="211.09,-303.922 201.315,-299.834 206.407,-309.125 211.09,-303.922"/>
</g>
<!-- Node15 -->
<g id="node15" class="node"><title>Node15</title>
<g id="a_node15"><a xlink:href="_f_string_8h.html" target="_top" xlink:title="Cpl/Text/FString.h">
<polygon fill="white" stroke="black" points="264,-280.5 264,-299.5 359,-299.5 359,-280.5 264,-280.5"/>
<text text-anchor="middle" x="311.5" y="-287.5" font-family="Helvetica,sans-Serif" font-size="10.00">Cpl/Text/FString.h</text>
</a>
</g>
</g>
<!-- Node1&#45;&gt;Node15 -->
<g id="edge16" class="edge"><title>Node1&#45;&gt;Node15</title>
<path fill="none" stroke="midnightblue" d="M261.14,-336.324C270.01,-328.341 283.375,-316.313 294.108,-306.653"/>
<polygon fill="midnightblue" stroke="midnightblue" points="296.593,-309.125 301.685,-299.834 291.91,-303.922 296.593,-309.125"/>
</g>
<!-- Node3 -->
<g id="node3" class="node"><title>Node3</title>
<g id="a_node3"><a xlink:href="_map_item_8h.html" target="_top" xlink:title="Cpl/Container/MapItem.h">
<polygon fill="white" stroke="black" points="67.5,-224.5 67.5,-243.5 191.5,-243.5 191.5,-224.5 67.5,-224.5"/>
<text text-anchor="middle" x="129.5" y="-231.5" font-family="Helvetica,sans-Serif" font-size="10.00">Cpl/Container/MapItem.h</text>
</a>
</g>
</g>
<!-- Node2&#45;&gt;Node3 -->
<g id="edge2" class="edge"><title>Node2&#45;&gt;Node3</title>
<path fill="none" stroke="midnightblue" d="M181.539,-280.324C172.373,-272.341 158.563,-260.313 147.472,-250.653"/>
<polygon fill="midnightblue" stroke="midnightblue" points="149.482,-247.762 139.643,-243.834 144.885,-253.041 149.482,-247.762"/>
</g>
<!-- Node12 -->
<g id="node12" class="node"><title>Node12</title>
<g id="a_node12"><a xlink:href="_string_8h.html" target="_top" xlink:title="Cpl/Text/String.h">
<polygon fill="white" stroke="black" points="211,-224.5 211,-243.5 300,-243.5 300,-224.5 211,-224.5"/>
<text text-anchor="middle" x="255.5" y="-231.5" font-family="Helvetica,sans-Serif" font-size="10.00">Cpl/Text/String.h</text>
</a>
</g>
</g>
<!-- Node2&#45;&gt;Node12 -->
<g id="edge11" class="edge"><title>Node2&#45;&gt;Node12</title>
<path fill="none" stroke="midnightblue" d="M201.783,-280.324C211.336,-272.263 225.78,-260.077 237.284,-250.369"/>
<polygon fill="midnightblue" stroke="midnightblue" points="239.644,-252.958 245.03,-243.834 235.13,-247.608 239.644,-252.958"/>
</g>
<!-- Node4 -->
<g id="node4" class="node"><title>Node4</title>
<g id="a_node4"><a xlink:href="_dict_item_8h.html" target="_top" xlink:title="Cpl/Container/DictItem.h">
<polygon fill="white" stroke="black" points="67.5,-168.5 67.5,-187.5 189.5,-187.5 189.5,-168.5 67.5,-168.5"/>
<text text-anchor="middle" x="128.5" y="-175.5" font-family="Helvetica,sans-Serif" font-size="10.00">Cpl/Container/DictItem.h</text>
</a>
</g>
</g>
<!-- Node3&#45;&gt;Node4 -->
<g id="edge3" class="edge"><title>Node3&#45;&gt;Node4</title>
<path fill="none" stroke="midnightblue" d="M129.335,-224.083C129.204,-217.006 129.016,-206.861 128.852,-197.986"/>
<polygon fill="midnightblue" stroke="midnightblue" points="132.347,-197.685 128.662,-187.751 125.348,-197.814 132.347,-197.685"/>
</g>
<!-- Node5 -->
<g id="node5" class="node"><title>Node5</title>
<g id="a_node5"><a xlink:href="_item_8h.html" target="_top" xlink:title="Cpl/Container/Item.h">
<polygon fill="white" stroke="black" points="0,-112.5 0,-131.5 105,-131.5 105,-112.5 0,-112.5"/>
<text text-anchor="middle" x="52.5" y="-119.5" font-family="Helvetica,sans-Serif" font-size="10.00">Cpl/Container/Item.h</text>
</a>
</g>
</g>
<!-- Node4&#45;&gt;Node5 -->
<g id="edge4" class="edge"><title>Node4&#45;&gt;Node5</title>
<path fill="none" stroke="midnightblue" d="M116.289,-168.324C104.724,-160.107 87.1246,-147.602 73.3393,-137.807"/>
<polygon fill="midnightblue" stroke="midnightblue" points="75.112,-134.773 64.9329,-131.834 71.0575,-140.479 75.112,-134.773"/>
</g>
<!-- Node6 -->
<g id="node6" class="node"><title>Node6</title>
<g id="a_node6"><a xlink:href="_key_8h.html" target="_top" xlink:title="Cpl/Container/Key.h">
<polygon fill="white" stroke="black" points="123.5,-112.5 123.5,-131.5 227.5,-131.5 227.5,-112.5 123.5,-112.5"/>
<text text-anchor="middle" x="175.5" y="-119.5" font-family="Helvetica,sans-Serif" font-size="10.00">Cpl/Container/Key.h</text>
</a>
</g>
</g>
<!-- Node4&#45;&gt;Node6 -->
<g id="edge5" class="edge"><title>Node4&#45;&gt;Node6</title>
<path fill="none" stroke="midnightblue" d="M136.261,-168.083C143.037,-160.298 153.043,-148.801 161.255,-139.367"/>
<polygon fill="midnightblue" stroke="midnightblue" points="163.958,-141.592 167.883,-131.751 158.678,-136.996 163.958,-141.592"/>
</g>
<!-- Node7 -->
<g id="node7" class="node"><title>Node7</title>
<g id="a_node7"><a xlink:href="_fatal_error_8h.html" target="_top" xlink:title="Cpl/System/FatalError.h">
<polygon fill="white" stroke="black" points="9.5,-56.5 9.5,-75.5 131.5,-75.5 131.5,-56.5 9.5,-56.5"/>
<text text-anchor="middle" x="70.5" y="-63.5" font-family="Helvetica,sans-Serif" font-size="10.00">Cpl/System/FatalError.h</text>
</a>
</g>
</g>
<!-- Node6&#45;&gt;Node7 -->
<g id="edge6" class="edge"><title>Node6&#45;&gt;Node7</title>
<path fill="none" stroke="midnightblue" d="M158.63,-112.324C141.791,-103.664 115.693,-90.2424 96.262,-80.249"/>
<polygon fill="midnightblue" stroke="midnightblue" points="97.8218,-77.1155 87.3282,-75.6545 94.6204,-83.3405 97.8218,-77.1155"/>
</g>
<!-- Node10 -->
<g id="node10" class="node"><title>Node10</title>
<polygon fill="white" stroke="#bfbfbf" points="150,-56.5 150,-75.5 199,-75.5 199,-56.5 150,-56.5"/>
<text text-anchor="middle" x="174.5" y="-63.5" font-family="Helvetica,sans-Serif" font-size="10.00">stdint.h</text>
</g>
<!-- Node6&#45;&gt;Node10 -->
<g id="edge9" class="edge"><title>Node6&#45;&gt;Node10</title>
<path fill="none" stroke="midnightblue" d="M175.335,-112.083C175.204,-105.006 175.016,-94.8611 174.852,-85.9865"/>
<polygon fill="midnightblue" stroke="midnightblue" points="178.347,-85.6845 174.662,-75.7511 171.348,-85.8142 178.347,-85.6845"/>
</g>
<!-- Node11 -->
<g id="node11" class="node"><title>Node11</title>
<polygon fill="white" stroke="#bfbfbf" points="217,-56.5 217,-75.5 294,-75.5 294,-56.5 217,-56.5"/>
<text text-anchor="middle" x="255.5" y="-63.5" font-family="Helvetica,sans-Serif" font-size="10.00">colony_map.h</text>
</g>
<!-- Node6&#45;&gt;Node11 -->
<g id="edge10" class="edge"><title>Node6&#45;&gt;Node11</title>
<path fill="none" stroke="midnightblue" d="M188.353,-112.324C200.716,-103.979 219.63,-91.2122 234.237,-81.3524"/>
<polygon fill="midnightblue" stroke="midnightblue" points="236.348,-84.1503 242.679,-75.6545 232.432,-78.3483 236.348,-84.1503"/>
</g>
<!-- Node8 -->
<g id="node8" class="node"><title>Node8</title>
<polygon fill="white" stroke="#bfbfbf" points="2,-0.5 2,-19.5 53,-19.5 53,-0.5 2,-0.5"/>
<text text-anchor="middle" x="27.5" y="-7.5" font-family="Helvetica,sans-Serif" font-size="10.00">stddef.h</text>
</g>
<!-- Node7&#45;&gt;Node8 -->
<g id="edge7" class="edge"><title>Node7&#45;&gt;Node8</title>
<path fill="none" stroke="midnightblue" d="M63.3994,-56.083C57.263,-48.3768 48.2303,-37.0333 40.7608,-27.6531"/>
<polygon fill="midnightblue" stroke="midnightblue" points="43.4357,-25.3936 34.4685,-19.7511 37.9598,-29.7542 43.4357,-25.3936"/>
</g>
<!-- Node9 -->
<g id="node9" class="node"><title>Node9</title>
<polygon fill="white" stroke="#bfbfbf" points="71.5,-0.5 71.5,-19.5 155.5,-19.5 155.5,-0.5 71.5,-0.5"/>
<text text-anchor="middle" x="113.5" y="-7.5" font-family="Helvetica,sans-Serif" font-size="10.00">colony_config.h</text>
</g>
<!-- Node7&#45;&gt;Node9 -->
<g id="edge8" class="edge"><title>Node7&#45;&gt;Node9</title>
<path fill="none" stroke="midnightblue" d="M77.6006,-56.083C83.737,-48.3768 92.7697,-37.0333 100.239,-27.6531"/>
<polygon fill="midnightblue" stroke="midnightblue" points="103.04,-29.7542 106.532,-19.7511 97.5643,-25.3936 103.04,-29.7542"/>
</g>
<!-- Node12&#45;&gt;Node6 -->
<g id="edge14" class="edge"><title>Node12&#45;&gt;Node6</title>
<path fill="none" stroke="midnightblue" d="M249.223,-224.368C236.02,-206.215 205.174,-163.802 187.856,-139.99"/>
<polygon fill="midnightblue" stroke="midnightblue" points="190.461,-137.62 181.748,-131.591 184.799,-141.737 190.461,-137.62"/>
</g>
<!-- Node12&#45;&gt;Node11 -->
<g id="edge15" class="edge"><title>Node12&#45;&gt;Node11</title>
<path fill="none" stroke="midnightblue" d="M255.5,-224.075C255.5,-197.945 255.5,-121.211 255.5,-85.577"/>
<polygon fill="midnightblue" stroke="midnightblue" points="259,-85.5681 255.5,-75.5681 252,-85.5681 259,-85.5681"/>
</g>
<!-- Node13 -->
<g id="node13" class="node"><title>Node13</title>
<polygon fill="white" stroke="#bfbfbf" points="283.5,-168.5 283.5,-187.5 335.5,-187.5 335.5,-168.5 283.5,-168.5"/>
<text text-anchor="middle" x="309.5" y="-175.5" font-family="Helvetica,sans-Serif" font-size="10.00">stdarg.h</text>
</g>
<!-- Node12&#45;&gt;Node13 -->
<g id="edge12" class="edge"><title>Node12&#45;&gt;Node13</title>
<path fill="none" stroke="midnightblue" d="M264.417,-224.083C272.28,-216.22 283.931,-204.569 293.419,-195.081"/>
<polygon fill="midnightblue" stroke="midnightblue" points="296.153,-197.297 300.749,-187.751 291.203,-192.347 296.153,-197.297"/>
</g>
<!-- Node14 -->
<g id="node14" class="node"><title>Node14</title>
<polygon fill="white" stroke="#bfbfbf" points="353.5,-168.5 353.5,-187.5 407.5,-187.5 407.5,-168.5 353.5,-168.5"/>
<text text-anchor="middle" x="380.5" y="-175.5" font-family="Helvetica,sans-Serif" font-size="10.00">iostream</text>
</g>
<!-- Node12&#45;&gt;Node14 -->
<g id="edge13" class="edge"><title>Node12&#45;&gt;Node14</title>
<path fill="none" stroke="midnightblue" d="M275.307,-224.444C295.787,-215.596 327.983,-201.687 351.365,-191.586"/>
<polygon fill="midnightblue" stroke="midnightblue" points="352.994,-194.695 360.786,-187.516 350.218,-188.269 352.994,-194.695"/>
</g>
<!-- Node15&#45;&gt;Node12 -->
<g id="edge18" class="edge"><title>Node15&#45;&gt;Node12</title>
<path fill="none" stroke="midnightblue" d="M302.503,-280.324C294.306,-272.42 281.994,-260.548 272.028,-250.938"/>
<polygon fill="midnightblue" stroke="midnightblue" points="274.289,-248.256 264.661,-243.834 269.43,-253.295 274.289,-248.256"/>
</g>
<!-- Node16 -->
<g id="node16" class="node"><title>Node16</title>
<polygon fill="white" stroke="#bfbfbf" points="318,-224.5 318,-243.5 419,-243.5 419,-224.5 318,-224.5"/>
<text text-anchor="middle" x="368.5" y="-231.5" font-family="Helvetica,sans-Serif" font-size="10.00">Cpl/Text/FString_.h</text>
</g>
<!-- Node15&#45;&gt;Node16 -->
<g id="edge17" class="edge"><title>Node15&#45;&gt;Node16</title>
<path fill="none" stroke="midnightblue" d="M320.658,-280.324C329.001,-272.42 341.532,-260.548 351.677,-250.938"/>
<polygon fill="midnightblue" stroke="midnightblue" points="354.323,-253.252 359.175,-243.834 349.509,-248.171 354.323,-253.252"/>
</g>
</g>
</svg>
