<?xml version="1.0" encoding="UTF-8" standalone="no"?>
<!DOCTYPE svg PUBLIC "-//W3C//DTD SVG 1.1//EN"
 "http://www.w3.org/Graphics/SVG/1.1/DTD/svg11.dtd">
<!-- Generated by graphviz version 2.38.0 (20140413.2041)
 -->
<!-- Title: FString.h Pages: 1 -->
<svg width="377pt" height="84pt"
 viewBox="0.00 0.00 377.00 84.00" xmlns="http://www.w3.org/2000/svg" xmlns:xlink="http://www.w3.org/1999/xlink">
<g id="graph0" class="graph" transform="scale(1 1) rotate(0) translate(4 80)">
<title>FString.h</title>
<polygon fill="white" stroke="none" points="-4,4 -4,-80 373,-80 373,4 -4,4"/>
<!-- Node1 -->
<g id="node1" class="node"><title>Node1</title>
<polygon fill="#bfbfbf" stroke="black" points="148.5,-56.5 148.5,-75.5 204.5,-75.5 204.5,-56.5 148.5,-56.5"/>
<text text-anchor="middle" x="176.5" y="-63.5" font-family="Helvetica,sans-Serif" font-size="10.00">FString.h</text>
</g>
<!-- Node2 -->
<g id="node2" class="node"><title>Node2</title>
<g id="a_node2"><a xlink:href="_cpl_2_io_2_file_2_api_8h.html" target="_top" xlink:title="Api.h">
<polygon fill="white" stroke="black" points="0,-0.5 0,-19.5 39,-19.5 39,-0.5 0,-0.5"/>
<text text-anchor="middle" x="19.5" y="-7.5" font-family="Helvetica,sans-Serif" font-size="10.00">Api.h</text>
</a>
</g>
</g>
<!-- Node1&#45;&gt;Node2 -->
<g id="edge1" class="edge"><title>Node1&#45;&gt;Node2</title>
<path fill="none" stroke="midnightblue" d="M141.93,-53.1096C110.438,-42.2781 65.0353,-26.6618 39.2897,-17.8067"/>
<polygon fill="midnightblue" stroke="midnightblue" points="141.028,-56.5007 151.623,-56.4435 143.305,-49.8813 141.028,-56.5007"/>
</g>
<!-- Node3 -->
<g id="node3" class="node"><title>Node3</title>
<g id="a_node3"><a xlink:href="_line_reader_8h.html" target="_top" xlink:title="LineReader.h">
<polygon fill="white" stroke="black" points="57.5,-0.5 57.5,-19.5 131.5,-19.5 131.5,-0.5 57.5,-0.5"/>
<text text-anchor="middle" x="94.5" y="-7.5" font-family="Helvetica,sans-Serif" font-size="10.00">LineReader.h</text>
</a>
</g>
</g>
<!-- Node1&#45;&gt;Node3 -->
<g id="edge2" class="edge"><title>Node1&#45;&gt;Node3</title>
<path fill="none" stroke="midnightblue" d="M154.667,-50.6221C139.687,-40.7574 120.303,-27.9919 107.642,-19.6545"/>
<polygon fill="midnightblue" stroke="midnightblue" points="153.049,-53.7471 163.325,-56.324 156.899,-47.9009 153.049,-53.7471"/>
</g>
<!-- Node4 -->
<g id="node4" class="node"><title>Node4</title>
<g id="a_node4"><a xlink:href="_cpp11_2_thread_8h.html" target="_top" xlink:title="Thread.h">
<polygon fill="white" stroke="black" points="149.5,-0.5 149.5,-19.5 203.5,-19.5 203.5,-0.5 149.5,-0.5"/>
<text text-anchor="middle" x="176.5" y="-7.5" font-family="Helvetica,sans-Serif" font-size="10.00">Thread.h</text>
</a>
</g>
</g>
<!-- Node1&#45;&gt;Node4 -->
<g id="edge3" class="edge"><title>Node1&#45;&gt;Node4</title>
<path fill="none" stroke="midnightblue" d="M176.5,-45.8045C176.5,-36.9102 176.5,-26.7798 176.5,-19.7511"/>
<polygon fill="midnightblue" stroke="midnightblue" points="173,-46.083 176.5,-56.083 180,-46.083 173,-46.083"/>
</g>
<!-- Node5 -->
<g id="node5" class="node"><title>Node5</title>
<g id="a_node5"><a xlink:href="_win32_2_thread_8h.html" target="_top" xlink:title="Thread.h">
<polygon fill="white" stroke="black" points="221.5,-0.5 221.5,-19.5 275.5,-19.5 275.5,-0.5 221.5,-0.5"/>
<text text-anchor="middle" x="248.5" y="-7.5" font-family="Helvetica,sans-Serif" font-size="10.00">Thread.h</text>
</a>
</g>
</g>
<!-- Node1&#45;&gt;Node5 -->
<g id="edge4" class="edge"><title>Node1&#45;&gt;Node5</title>
<path fill="none" stroke="midnightblue" d="M196.366,-50.1008C209.323,-40.3824 225.797,-28.0269 236.721,-19.8339"/>
<polygon fill="midnightblue" stroke="midnightblue" points="193.968,-47.5239 188.068,-56.324 198.168,-53.1239 193.968,-47.5239"/>
</g>
<!-- Node6 -->
<g id="node6" class="node"><title>Node6</title>
<g id="a_node6"><a xlink:href="_f_string_item_8h.html" target="_top" xlink:title="FStringItem.h">
<polygon fill="white" stroke="black" points="294,-0.5 294,-19.5 369,-19.5 369,-0.5 294,-0.5"/>
<text text-anchor="middle" x="331.5" y="-7.5" font-family="Helvetica,sans-Serif" font-size="10.00">FStringItem.h</text>
</a>
</g>
</g>
<!-- Node1&#45;&gt;Node6 -->
<g id="edge5" class="edge"><title>Node1&#45;&gt;Node6</title>
<path fill="none" stroke="midnightblue" d="M210.832,-53.0392C239.997,-42.8786 281.137,-28.5457 307.055,-19.5164"/>
<polygon fill="midnightblue" stroke="midnightblue" points="209.352,-49.8484 201.06,-56.4435 211.655,-56.4587 209.352,-49.8484"/>
</g>
</g>
</svg>
