<?xml version="1.0" encoding="UTF-8" standalone="no"?>
<!DOCTYPE svg PUBLIC "-//W3C//DTD SVG 1.1//EN"
 "http://www.w3.org/Graphics/SVG/1.1/DTD/svg11.dtd">
<!-- Generated by graphviz version 2.38.0 (20140413.2041)
 -->
<!-- Title: Factory.h Pages: 1 -->
<svg width="416pt" height="420pt"
 viewBox="0.00 0.00 415.50 420.00" xmlns="http://www.w3.org/2000/svg" xmlns:xlink="http://www.w3.org/1999/xlink">
<g id="graph0" class="graph" transform="scale(1 1) rotate(0) translate(4 416)">
<title>Factory.h</title>
<polygon fill="white" stroke="none" points="-4,4 -4,-416 411.5,-416 411.5,4 -4,4"/>
<!-- Node1 -->
<g id="node1" class="node"><title>Node1</title>
<polygon fill="#bfbfbf" stroke="black" points="260.5,-392.5 260.5,-411.5 318.5,-411.5 318.5,-392.5 260.5,-392.5"/>
<text text-anchor="middle" x="289.5" y="-399.5" font-family="Helvetica,sans-Serif" font-size="10.00">Factory.h</text>
</g>
<!-- Node2 -->
<g id="node2" class="node"><title>Node2</title>
<g id="a_node2"><a xlink:href="_socket_2_input_output_8h.html" target="_top" xlink:title="Cpl/Io/Socket/InputOutput.h">
<polygon fill="white" stroke="black" points="173,-336.5 173,-355.5 310,-355.5 310,-336.5 173,-336.5"/>
<text text-anchor="middle" x="241.5" y="-343.5" font-family="Helvetica,sans-Serif" font-size="10.00">Cpl/Io/Socket/InputOutput.h</text>
</a>
</g>
</g>
<!-- Node1&#45;&gt;Node2 -->
<g id="edge1" class="edge"><title>Node1&#45;&gt;Node2</title>
<path fill="none" stroke="midnightblue" d="M281.574,-392.083C274.654,-384.298 264.435,-372.801 256.048,-363.367"/>
<polygon fill="midnightblue" stroke="midnightblue" points="258.538,-360.9 249.279,-355.751 253.306,-365.55 258.538,-360.9"/>
</g>
<!-- Node17 -->
<g id="node17" class="node"><title>Node17</title>
<g id="a_node17"><a xlink:href="_descriptor_8h.html" target="_top" xlink:title="Cpl/Io/Descriptor.h">
<polygon fill="white" stroke="black" points="290,-280.5 290,-299.5 387,-299.5 387,-280.5 290,-280.5"/>
<text text-anchor="middle" x="338.5" y="-287.5" font-family="Helvetica,sans-Serif" font-size="10.00">Cpl/Io/Descriptor.h</text>
</a>
</g>
</g>
<!-- Node1&#45;&gt;Node17 -->
<g id="edge21" class="edge"><title>Node1&#45;&gt;Node17</title>
<path fill="none" stroke="midnightblue" d="M296.029,-392.45C302.467,-383.69 312.227,-369.483 318.5,-356 325.504,-340.946 330.848,-322.817 334.243,-309.534"/>
<polygon fill="midnightblue" stroke="midnightblue" points="337.674,-310.233 336.629,-299.69 330.871,-308.584 337.674,-310.233"/>
</g>
<!-- Node3 -->
<g id="node3" class="node"><title>Node3</title>
<g id="a_node3"><a xlink:href="_input_output_8h.html" target="_top" xlink:title="Cpl/Io/InputOutput.h">
<polygon fill="white" stroke="black" points="169,-280.5 169,-299.5 272,-299.5 272,-280.5 169,-280.5"/>
<text text-anchor="middle" x="220.5" y="-287.5" font-family="Helvetica,sans-Serif" font-size="10.00">Cpl/Io/InputOutput.h</text>
</a>
</g>
</g>
<!-- Node2&#45;&gt;Node3 -->
<g id="edge2" class="edge"><title>Node2&#45;&gt;Node3</title>
<path fill="none" stroke="midnightblue" d="M238.032,-336.083C235.188,-328.77 231.071,-318.181 227.54,-309.103"/>
<polygon fill="midnightblue" stroke="midnightblue" points="230.79,-307.803 223.903,-299.751 224.266,-310.34 230.79,-307.803"/>
</g>
<!-- Node2&#45;&gt;Node17 -->
<g id="edge20" class="edge"><title>Node2&#45;&gt;Node17</title>
<path fill="none" stroke="midnightblue" d="M257.085,-336.324C272.499,-327.743 296.312,-314.486 314.21,-304.522"/>
<polygon fill="midnightblue" stroke="midnightblue" points="315.919,-307.577 322.954,-299.655 312.514,-301.461 315.919,-307.577"/>
</g>
<!-- Node4 -->
<g id="node4" class="node"><title>Node4</title>
<g id="a_node4"><a xlink:href="_input_8h.html" target="_top" xlink:title="Cpl/Io/Input.h">
<polygon fill="white" stroke="black" points="135.5,-224.5 135.5,-243.5 209.5,-243.5 209.5,-224.5 135.5,-224.5"/>
<text text-anchor="middle" x="172.5" y="-231.5" font-family="Helvetica,sans-Serif" font-size="10.00">Cpl/Io/Input.h</text>
</a>
</g>
</g>
<!-- Node3&#45;&gt;Node4 -->
<g id="edge3" class="edge"><title>Node3&#45;&gt;Node4</title>
<path fill="none" stroke="midnightblue" d="M212.574,-280.083C205.654,-272.298 195.435,-260.801 187.048,-251.367"/>
<polygon fill="midnightblue" stroke="midnightblue" points="189.538,-248.9 180.279,-243.751 184.306,-253.55 189.538,-248.9"/>
</g>
<!-- Node16 -->
<g id="node16" class="node"><title>Node16</title>
<g id="a_node16"><a xlink:href="_output_8h.html" target="_top" xlink:title="Cpl/Io/Output.h">
<polygon fill="white" stroke="black" points="227.5,-224.5 227.5,-243.5 309.5,-243.5 309.5,-224.5 227.5,-224.5"/>
<text text-anchor="middle" x="268.5" y="-231.5" font-family="Helvetica,sans-Serif" font-size="10.00">Cpl/Io/Output.h</text>
</a>
</g>
</g>
<!-- Node3&#45;&gt;Node16 -->
<g id="edge16" class="edge"><title>Node3&#45;&gt;Node16</title>
<path fill="none" stroke="midnightblue" d="M228.426,-280.083C235.346,-272.298 245.565,-260.801 253.952,-251.367"/>
<polygon fill="midnightblue" stroke="midnightblue" points="256.694,-253.55 260.721,-243.751 251.462,-248.9 256.694,-253.55"/>
</g>
<!-- Node5 -->
<g id="node5" class="node"><title>Node5</title>
<g id="a_node5"><a xlink:href="_string_8h.html" target="_top" xlink:title="Cpl/Text/String.h">
<polygon fill="white" stroke="black" points="224,-168.5 224,-187.5 313,-187.5 313,-168.5 224,-168.5"/>
<text text-anchor="middle" x="268.5" y="-175.5" font-family="Helvetica,sans-Serif" font-size="10.00">Cpl/Text/String.h</text>
</a>
</g>
</g>
<!-- Node4&#45;&gt;Node5 -->
<g id="edge4" class="edge"><title>Node4&#45;&gt;Node5</title>
<path fill="none" stroke="midnightblue" d="M187.924,-224.324C203.04,-215.822 226.315,-202.729 243.971,-192.797"/>
<polygon fill="midnightblue" stroke="midnightblue" points="246.114,-195.608 253.114,-187.655 242.683,-189.507 246.114,-195.608"/>
</g>
<!-- Node14 -->
<g id="node14" class="node"><title>Node14</title>
<g id="a_node14"><a xlink:href="_close_8h.html" target="_top" xlink:title="Cpl/Io/Close.h">
<polygon fill="white" stroke="black" points="129,-168.5 129,-187.5 206,-187.5 206,-168.5 129,-168.5"/>
<text text-anchor="middle" x="167.5" y="-175.5" font-family="Helvetica,sans-Serif" font-size="10.00">Cpl/Io/Close.h</text>
</a>
</g>
</g>
<!-- Node4&#45;&gt;Node14 -->
<g id="edge14" class="edge"><title>Node4&#45;&gt;Node14</title>
<path fill="none" stroke="midnightblue" d="M171.674,-224.083C171.019,-217.006 170.08,-206.861 169.258,-197.986"/>
<polygon fill="midnightblue" stroke="midnightblue" points="172.717,-197.386 168.31,-187.751 165.747,-198.031 172.717,-197.386"/>
</g>
<!-- Node6 -->
<g id="node6" class="node"><title>Node6</title>
<polygon fill="white" stroke="#bfbfbf" points="355.5,-112.5 355.5,-131.5 407.5,-131.5 407.5,-112.5 355.5,-112.5"/>
<text text-anchor="middle" x="381.5" y="-119.5" font-family="Helvetica,sans-Serif" font-size="10.00">stdarg.h</text>
</g>
<!-- Node5&#45;&gt;Node6 -->
<g id="edge5" class="edge"><title>Node5&#45;&gt;Node6</title>
<path fill="none" stroke="midnightblue" d="M286.405,-168.444C304.754,-159.675 333.505,-145.935 354.594,-135.858"/>
<polygon fill="midnightblue" stroke="midnightblue" points="356.165,-138.986 363.679,-131.516 353.147,-132.67 356.165,-138.986"/>
</g>
<!-- Node7 -->
<g id="node7" class="node"><title>Node7</title>
<polygon fill="white" stroke="#bfbfbf" points="283.5,-112.5 283.5,-131.5 337.5,-131.5 337.5,-112.5 283.5,-112.5"/>
<text text-anchor="middle" x="310.5" y="-119.5" font-family="Helvetica,sans-Serif" font-size="10.00">iostream</text>
</g>
<!-- Node5&#45;&gt;Node7 -->
<g id="edge6" class="edge"><title>Node5&#45;&gt;Node7</title>
<path fill="none" stroke="midnightblue" d="M275.435,-168.083C281.429,-160.377 290.252,-149.033 297.548,-139.653"/>
<polygon fill="midnightblue" stroke="midnightblue" points="300.317,-141.793 303.694,-131.751 294.791,-137.496 300.317,-141.793"/>
</g>
<!-- Node8 -->
<g id="node8" class="node"><title>Node8</title>
<g id="a_node8"><a xlink:href="_key_8h.html" target="_top" xlink:title="Cpl/Container/Key.h">
<polygon fill="white" stroke="black" points="123.5,-112.5 123.5,-131.5 227.5,-131.5 227.5,-112.5 123.5,-112.5"/>
<text text-anchor="middle" x="175.5" y="-119.5" font-family="Helvetica,sans-Serif" font-size="10.00">Cpl/Container/Key.h</text>
</a>
</g>
</g>
<!-- Node5&#45;&gt;Node8 -->
<g id="edge7" class="edge"><title>Node5&#45;&gt;Node8</title>
<path fill="none" stroke="midnightblue" d="M253.558,-168.324C238.915,-159.822 216.366,-146.729 199.262,-136.797"/>
<polygon fill="midnightblue" stroke="midnightblue" points="200.81,-133.649 190.405,-131.655 197.295,-139.703 200.81,-133.649"/>
</g>
<!-- Node13 -->
<g id="node13" class="node"><title>Node13</title>
<polygon fill="white" stroke="#bfbfbf" points="236,-56.5 236,-75.5 313,-75.5 313,-56.5 236,-56.5"/>
<text text-anchor="middle" x="274.5" y="-63.5" font-family="Helvetica,sans-Serif" font-size="10.00">colony_map.h</text>
</g>
<!-- Node5&#45;&gt;Node13 -->
<g id="edge13" class="edge"><title>Node5&#45;&gt;Node13</title>
<path fill="none" stroke="midnightblue" d="M268.971,-168.368C269.939,-150.617 272.173,-109.666 273.486,-85.5974"/>
<polygon fill="midnightblue" stroke="midnightblue" points="276.981,-85.7672 274.031,-75.5914 269.992,-85.3859 276.981,-85.7672"/>
</g>
<!-- Node9 -->
<g id="node9" class="node"><title>Node9</title>
<g id="a_node9"><a xlink:href="_fatal_error_8h.html" target="_top" xlink:title="Cpl/System/FatalError.h">
<polygon fill="white" stroke="black" points="95.5,-56.5 95.5,-75.5 217.5,-75.5 217.5,-56.5 95.5,-56.5"/>
<text text-anchor="middle" x="156.5" y="-63.5" font-family="Helvetica,sans-Serif" font-size="10.00">Cpl/System/FatalError.h</text>
</a>
</g>
</g>
<!-- Node8&#45;&gt;Node9 -->
<g id="edge8" class="edge"><title>Node8&#45;&gt;Node9</title>
<path fill="none" stroke="midnightblue" d="M172.363,-112.083C169.817,-104.849 166.144,-94.4087 162.973,-85.3968"/>
<polygon fill="midnightblue" stroke="midnightblue" points="166.2,-84.0225 159.579,-75.7511 159.597,-86.3459 166.2,-84.0225"/>
</g>
<!-- Node12 -->
<g id="node12" class="node"><title>Node12</title>
<polygon fill="white" stroke="#bfbfbf" points="28,-56.5 28,-75.5 77,-75.5 77,-56.5 28,-56.5"/>
<text text-anchor="middle" x="52.5" y="-63.5" font-family="Helvetica,sans-Serif" font-size="10.00">stdint.h</text>
</g>
<!-- Node8&#45;&gt;Node12 -->
<g id="edge11" class="edge"><title>Node8&#45;&gt;Node12</title>
<path fill="none" stroke="midnightblue" d="M156.01,-112.444C135.858,-103.596 104.177,-89.6875 81.1692,-79.5865"/>
<polygon fill="midnightblue" stroke="midnightblue" points="82.462,-76.3316 71.8985,-75.5164 79.648,-82.7411 82.462,-76.3316"/>
</g>
<!-- Node8&#45;&gt;Node13 -->
<g id="edge12" class="edge"><title>Node8&#45;&gt;Node13</title>
<path fill="none" stroke="midnightblue" d="M191.406,-112.324C207.138,-103.743 231.442,-90.486 249.709,-80.5224"/>
<polygon fill="midnightblue" stroke="midnightblue" points="251.53,-83.5157 258.633,-75.6545 248.178,-77.3704 251.53,-83.5157"/>
</g>
<!-- Node10 -->
<g id="node10" class="node"><title>Node10</title>
<polygon fill="white" stroke="#bfbfbf" points="88,-0.5 88,-19.5 139,-19.5 139,-0.5 88,-0.5"/>
<text text-anchor="middle" x="113.5" y="-7.5" font-family="Helvetica,sans-Serif" font-size="10.00">stddef.h</text>
</g>
<!-- Node9&#45;&gt;Node10 -->
<g id="edge9" class="edge"><title>Node9&#45;&gt;Node10</title>
<path fill="none" stroke="midnightblue" d="M149.399,-56.083C143.263,-48.3768 134.23,-37.0333 126.761,-27.6531"/>
<polygon fill="midnightblue" stroke="midnightblue" points="129.436,-25.3936 120.468,-19.7511 123.96,-29.7542 129.436,-25.3936"/>
</g>
<!-- Node11 -->
<g id="node11" class="node"><title>Node11</title>
<polygon fill="white" stroke="#bfbfbf" points="157.5,-0.5 157.5,-19.5 241.5,-19.5 241.5,-0.5 157.5,-0.5"/>
<text text-anchor="middle" x="199.5" y="-7.5" font-family="Helvetica,sans-Serif" font-size="10.00">colony_config.h</text>
</g>
<!-- Node9&#45;&gt;Node11 -->
<g id="edge10" class="edge"><title>Node9&#45;&gt;Node11</title>
<path fill="none" stroke="midnightblue" d="M163.601,-56.083C169.737,-48.3768 178.77,-37.0333 186.239,-27.6531"/>
<polygon fill="midnightblue" stroke="midnightblue" points="189.04,-29.7542 192.532,-19.7511 183.564,-25.3936 189.04,-29.7542"/>
</g>
<!-- Node15 -->
<g id="node15" class="node"><title>Node15</title>
<g id="a_node15"><a xlink:href="_item_8h.html" target="_top" xlink:title="Cpl/Container/Item.h">
<polygon fill="white" stroke="black" points="0,-112.5 0,-131.5 105,-131.5 105,-112.5 0,-112.5"/>
<text text-anchor="middle" x="52.5" y="-119.5" font-family="Helvetica,sans-Serif" font-size="10.00">Cpl/Container/Item.h</text>
</a>
</g>
</g>
<!-- Node14&#45;&gt;Node15 -->
<g id="edge15" class="edge"><title>Node14&#45;&gt;Node15</title>
<path fill="none" stroke="midnightblue" d="M149.278,-168.444C130.604,-159.675 101.344,-145.935 79.8826,-135.858"/>
<polygon fill="midnightblue" stroke="midnightblue" points="81.1763,-132.599 70.6368,-131.516 78.2009,-138.935 81.1763,-132.599"/>
</g>
<!-- Node16&#45;&gt;Node5 -->
<g id="edge17" class="edge"><title>Node16&#45;&gt;Node5</title>
<path fill="none" stroke="midnightblue" d="M268.5,-224.083C268.5,-217.006 268.5,-206.861 268.5,-197.986"/>
<polygon fill="midnightblue" stroke="midnightblue" points="272,-197.751 268.5,-187.751 265,-197.751 272,-197.751"/>
</g>
<!-- Node16&#45;&gt;Node6 -->
<g id="edge19" class="edge"><title>Node16&#45;&gt;Node6</title>
<path fill="none" stroke="midnightblue" d="M279.39,-224.402C290.344,-215.606 307.563,-201.37 321.5,-188 337.864,-172.301 355.311,-153.088 367.149,-139.637"/>
<polygon fill="midnightblue" stroke="midnightblue" points="370.114,-141.562 374.05,-131.725 364.839,-136.961 370.114,-141.562"/>
</g>
<!-- Node16&#45;&gt;Node14 -->
<g id="edge18" class="edge"><title>Node16&#45;&gt;Node14</title>
<path fill="none" stroke="midnightblue" d="M252.273,-224.324C236.149,-215.703 211.2,-202.364 192.536,-192.386"/>
<polygon fill="midnightblue" stroke="midnightblue" points="194.156,-189.283 183.687,-187.655 190.856,-195.456 194.156,-189.283"/>
</g>
</g>
</svg>
