<?xml version="1.0" encoding="UTF-8" standalone="no"?>
<!DOCTYPE svg PUBLIC "-//W3C//DTD SVG 1.1//EN"
 "http://www.w3.org/Graphics/SVG/1.1/DTD/svg11.dtd">
<!-- Generated by graphviz version 2.38.0 (20140413.2041)
 -->
<!-- Title: InputApi.h Pages: 1 -->
<svg width="162pt" height="140pt"
 viewBox="0.00 0.00 161.50 140.00" xmlns="http://www.w3.org/2000/svg" xmlns:xlink="http://www.w3.org/1999/xlink">
<g id="graph0" class="graph" transform="scale(1 1) rotate(0) translate(4 136)">
<title>InputApi.h</title>
<polygon fill="white" stroke="none" points="-4,4 -4,-136 157.5,-136 157.5,4 -4,4"/>
<!-- Node1 -->
<g id="node1" class="node"><title>Node1</title>
<polygon fill="#bfbfbf" stroke="black" points="36,-112.5 36,-131.5 96,-131.5 96,-112.5 36,-112.5"/>
<text text-anchor="middle" x="66" y="-119.5" font-family="Helvetica,sans-Serif" font-size="10.00">InputApi.h</text>
</g>
<!-- Node2 -->
<g id="node2" class="node"><title>Node2</title>
<g id="a_node2"><a xlink:href="_file_2_input_8h.html" target="_top" xlink:title="Input.h">
<polygon fill="white" stroke="black" points="0,-56.5 0,-75.5 46,-75.5 46,-56.5 0,-56.5"/>
<text text-anchor="middle" x="23" y="-63.5" font-family="Helvetica,sans-Serif" font-size="10.00">Input.h</text>
</a>
</g>
</g>
<!-- Node1&#45;&gt;Node2 -->
<g id="edge1" class="edge"><title>Node1&#45;&gt;Node2</title>
<path fill="none" stroke="midnightblue" d="M52.5776,-104.144C45.0858,-94.7357 36.0629,-83.4046 29.9685,-75.7511"/>
<polygon fill="midnightblue" stroke="midnightblue" points="49.9321,-106.44 58.8994,-112.083 55.4081,-102.08 49.9321,-106.44"/>
</g>
<!-- Node3 -->
<g id="node3" class="node"><title>Node3</title>
<g id="a_node3"><a xlink:href="_input_output_api_8h.html" target="_top" xlink:title="InputOutputApi.h">
<polygon fill="white" stroke="black" points="64.5,-56.5 64.5,-75.5 153.5,-75.5 153.5,-56.5 64.5,-56.5"/>
<text text-anchor="middle" x="109" y="-63.5" font-family="Helvetica,sans-Serif" font-size="10.00">InputOutputApi.h</text>
</a>
</g>
</g>
<!-- Node1&#45;&gt;Node3 -->
<g id="edge2" class="edge"><title>Node1&#45;&gt;Node3</title>
<path fill="none" stroke="midnightblue" d="M79.4224,-104.144C86.9142,-94.7357 95.9371,-83.4046 102.032,-75.7511"/>
<polygon fill="midnightblue" stroke="midnightblue" points="76.5919,-102.08 73.1006,-112.083 82.0679,-106.44 76.5919,-102.08"/>
</g>
<!-- Node4 -->
<g id="node4" class="node"><title>Node4</title>
<g id="a_node4"><a xlink:href="_file_2_input_output_8h.html" target="_top" xlink:title="InputOutput.h">
<polygon fill="white" stroke="black" points="71.5,-0.5 71.5,-19.5 146.5,-19.5 146.5,-0.5 71.5,-0.5"/>
<text text-anchor="middle" x="109" y="-7.5" font-family="Helvetica,sans-Serif" font-size="10.00">InputOutput.h</text>
</a>
</g>
</g>
<!-- Node3&#45;&gt;Node4 -->
<g id="edge3" class="edge"><title>Node3&#45;&gt;Node4</title>
<path fill="none" stroke="midnightblue" d="M109,-45.8045C109,-36.9102 109,-26.7798 109,-19.7511"/>
<polygon fill="midnightblue" stroke="midnightblue" points="105.5,-46.083 109,-56.083 112.5,-46.083 105.5,-46.083"/>
</g>
</g>
</svg>
