<?xml version="1.0" encoding="UTF-8" standalone="no"?>
<!DOCTYPE svg PUBLIC "-//W3C//DTD SVG 1.1//EN"
 "http://www.w3.org/Graphics/SVG/1.1/DTD/svg11.dtd">
<!-- Generated by graphviz version 2.38.0 (20140413.2041)
 -->
<!-- Title: Hal.h Pages: 1 -->
<svg width="152pt" height="140pt"
 viewBox="0.00 0.00 152.00 140.00" xmlns="http://www.w3.org/2000/svg" xmlns:xlink="http://www.w3.org/1999/xlink">
<g id="graph0" class="graph" transform="scale(1 1) rotate(0) translate(4 136)">
<title>Hal.h</title>
<polygon fill="white" stroke="none" points="-4,4 -4,-136 148,-136 148,4 -4,4"/>
<!-- Node1 -->
<g id="node1" class="node"><title>Node1</title>
<polygon fill="#bfbfbf" stroke="black" points="45,-112.5 45,-131.5 84,-131.5 84,-112.5 45,-112.5"/>
<text text-anchor="middle" x="64.5" y="-119.5" font-family="Helvetica,sans-Serif" font-size="10.00">Hal.h</text>
</g>
<!-- Node2 -->
<g id="node2" class="node"><title>Node2</title>
<g id="a_node2"><a xlink:href="_driver_2_uart_2_hal_8h.html" target="_top" xlink:title="Cpl/Driver/Uart/Hal.h">
<polygon fill="white" stroke="black" points="12.5,-56.5 12.5,-75.5 116.5,-75.5 116.5,-56.5 12.5,-56.5"/>
<text text-anchor="middle" x="64.5" y="-63.5" font-family="Helvetica,sans-Serif" font-size="10.00">Cpl/Driver/Uart/Hal.h</text>
</a>
</g>
</g>
<!-- Node1&#45;&gt;Node2 -->
<g id="edge1" class="edge"><title>Node1&#45;&gt;Node2</title>
<path fill="none" stroke="midnightblue" d="M64.5,-112.083C64.5,-105.006 64.5,-94.8611 64.5,-85.9865"/>
<polygon fill="midnightblue" stroke="midnightblue" points="68.0001,-85.751 64.5,-75.7511 61.0001,-85.7511 68.0001,-85.751"/>
</g>
<!-- Node3 -->
<g id="node3" class="node"><title>Node3</title>
<polygon fill="white" stroke="#bfbfbf" points="0,-0.5 0,-19.5 49,-19.5 49,-0.5 0,-0.5"/>
<text text-anchor="middle" x="24.5" y="-7.5" font-family="Helvetica,sans-Serif" font-size="10.00">stdint.h</text>
</g>
<!-- Node2&#45;&gt;Node3 -->
<g id="edge2" class="edge"><title>Node2&#45;&gt;Node3</title>
<path fill="none" stroke="midnightblue" d="M57.8948,-56.083C52.2448,-48.4554 43.9552,-37.2645 37.0488,-27.9408"/>
<polygon fill="midnightblue" stroke="midnightblue" points="39.7471,-25.7034 30.9823,-19.7511 34.1221,-29.87 39.7471,-25.7034"/>
</g>
<!-- Node4 -->
<g id="node4" class="node"><title>Node4</title>
<polygon fill="white" stroke="#bfbfbf" points="67,-0.5 67,-19.5 144,-19.5 144,-0.5 67,-0.5"/>
<text text-anchor="middle" x="105.5" y="-7.5" font-family="Helvetica,sans-Serif" font-size="10.00">colony_map.h</text>
</g>
<!-- Node2&#45;&gt;Node4 -->
<g id="edge3" class="edge"><title>Node2&#45;&gt;Node4</title>
<path fill="none" stroke="midnightblue" d="M71.2703,-56.083C77.0616,-48.4554 85.5585,-37.2645 92.6375,-27.9408"/>
<polygon fill="midnightblue" stroke="midnightblue" points="95.5961,-29.8321 98.8557,-19.7511 90.021,-25.5991 95.5961,-29.8321"/>
</g>
</g>
</svg>
