<?xml version="1.0" encoding="UTF-8" standalone="no"?>
<!DOCTYPE svg PUBLIC "-//W3C//DTD SVG 1.1//EN"
 "http://www.w3.org/Graphics/SVG/1.1/DTD/svg11.dtd">
<!-- Generated by graphviz version 2.38.0 (20140413.2041)
 -->
<!-- Title: Item.h Pages: 1 -->
<svg width="1904pt" height="364pt"
 viewBox="0.00 0.00 1904.00 364.00" xmlns="http://www.w3.org/2000/svg" xmlns:xlink="http://www.w3.org/1999/xlink">
<g id="graph0" class="graph" transform="scale(1 1) rotate(0) translate(4 360)">
<title>Item.h</title>
<polygon fill="white" stroke="none" points="-4,4 -4,-360 1900,-360 1900,4 -4,4"/>
<!-- Node1 -->
<g id="node1" class="node"><title>Node1</title>
<polygon fill="#bfbfbf" stroke="black" points="966,-336.5 966,-355.5 1010,-355.5 1010,-336.5 966,-336.5"/>
<text text-anchor="middle" x="988" y="-343.5" font-family="Helvetica,sans-Serif" font-size="10.00">Item.h</text>
</g>
<!-- Node2 -->
<g id="node2" class="node"><title>Node2</title>
<g id="a_node2"><a xlink:href="_dict_item_8h.html" target="_top" xlink:title="DictItem.h">
<polygon fill="white" stroke="black" points="208.5,-280.5 208.5,-299.5 269.5,-299.5 269.5,-280.5 208.5,-280.5"/>
<text text-anchor="middle" x="239" y="-287.5" font-family="Helvetica,sans-Serif" font-size="10.00">DictItem.h</text>
</a>
</g>
</g>
<!-- Node1&#45;&gt;Node2 -->
<g id="edge1" class="edge"><title>Node1&#45;&gt;Node2</title>
<path fill="none" stroke="midnightblue" d="M955.687,-342.67C832.105,-333.761 390.301,-301.908 269.639,-293.209"/>
<polygon fill="midnightblue" stroke="midnightblue" points="955.764,-346.185 965.989,-343.413 956.267,-339.203 955.764,-346.185"/>
</g>
<!-- Node8 -->
<g id="node8" class="node"><title>Node8</title>
<g id="a_node8"><a xlink:href="_s_list_8h.html" target="_top" xlink:title="SList.h">
<polygon fill="white" stroke="black" points="893.5,-224.5 893.5,-243.5 940.5,-243.5 940.5,-224.5 893.5,-224.5"/>
<text text-anchor="middle" x="917" y="-231.5" font-family="Helvetica,sans-Serif" font-size="10.00">SList.h</text>
</a>
</g>
</g>
<!-- Node1&#45;&gt;Node8 -->
<g id="edge7" class="edge"><title>Node1&#45;&gt;Node8</title>
<path fill="none" stroke="midnightblue" d="M977,-327.957C961.613,-304.118 934.239,-261.709 922.545,-243.591"/>
<polygon fill="midnightblue" stroke="midnightblue" points="974.065,-329.865 982.429,-336.368 979.946,-326.069 974.065,-329.865"/>
</g>
<!-- Node12 -->
<g id="node12" class="node"><title>Node12</title>
<g id="a_node12"><a xlink:href="_close_8h.html" target="_top" xlink:title="Close.h">
<polygon fill="white" stroke="black" points="628,-280.5 628,-299.5 678,-299.5 678,-280.5 628,-280.5"/>
<text text-anchor="middle" x="653" y="-287.5" font-family="Helvetica,sans-Serif" font-size="10.00">Close.h</text>
</a>
</g>
</g>
<!-- Node1&#45;&gt;Node12 -->
<g id="edge11" class="edge"><title>Node1&#45;&gt;Node12</title>
<path fill="none" stroke="midnightblue" d="M955.85,-339.818C889.398,-329.106 738.122,-304.721 678.159,-295.055"/>
<polygon fill="midnightblue" stroke="midnightblue" points="955.331,-343.279 965.76,-341.415 956.445,-336.368 955.331,-343.279"/>
</g>
<!-- Node28 -->
<g id="node28" class="node"><title>Node28</title>
<g id="a_node28"><a xlink:href="_line_reader_api_8h.html" target="_top" xlink:title="LineReaderApi.h">
<polygon fill="white" stroke="black" points="444,-280.5 444,-299.5 532,-299.5 532,-280.5 444,-280.5"/>
<text text-anchor="middle" x="488" y="-287.5" font-family="Helvetica,sans-Serif" font-size="10.00">LineReaderApi.h</text>
</a>
</g>
</g>
<!-- Node1&#45;&gt;Node28 -->
<g id="edge30" class="edge"><title>Node1&#45;&gt;Node28</title>
<path fill="none" stroke="midnightblue" d="M955.855,-341.528C869.33,-332.184 631.365,-306.483 532.242,-295.778"/>
<polygon fill="midnightblue" stroke="midnightblue" points="955.552,-345.016 965.87,-342.61 956.304,-338.056 955.552,-345.016"/>
</g>
<!-- Node29 -->
<g id="node29" class="node"><title>Node29</title>
<g id="a_node29"><a xlink:href="_line_writer_api_8h.html" target="_top" xlink:title="LineWriterApi.h">
<polygon fill="white" stroke="black" points="788.5,-280.5 788.5,-299.5 871.5,-299.5 871.5,-280.5 788.5,-280.5"/>
<text text-anchor="middle" x="830" y="-287.5" font-family="Helvetica,sans-Serif" font-size="10.00">LineWriterApi.h</text>
</a>
</g>
</g>
<!-- Node1&#45;&gt;Node29 -->
<g id="edge32" class="edge"><title>Node1&#45;&gt;Node29</title>
<path fill="none" stroke="midnightblue" d="M956.177,-334.124C926.376,-323.939 882.44,-308.923 855.057,-299.564"/>
<polygon fill="midnightblue" stroke="midnightblue" points="955.103,-337.455 965.698,-337.378 957.367,-330.832 955.103,-337.455"/>
</g>
<!-- Node30 -->
<g id="node30" class="node"><title>Node30</title>
<g id="a_node30"><a xlink:href="_message_8h.html" target="_top" xlink:title="Message.h">
<polygon fill="white" stroke="black" points="1110.5,-280.5 1110.5,-299.5 1175.5,-299.5 1175.5,-280.5 1110.5,-280.5"/>
<text text-anchor="middle" x="1143" y="-287.5" font-family="Helvetica,sans-Serif" font-size="10.00">Message.h</text>
</a>
</g>
</g>
<!-- Node1&#45;&gt;Node30 -->
<g id="edge34" class="edge"><title>Node1&#45;&gt;Node30</title>
<path fill="none" stroke="midnightblue" d="M1019.95,-333.869C1049.21,-323.675 1091.9,-308.803 1118.53,-299.524"/>
<polygon fill="midnightblue" stroke="midnightblue" points="1018.5,-330.668 1010.21,-337.263 1020.8,-337.278 1018.5,-330.668"/>
</g>
<!-- Node38 -->
<g id="node38" class="node"><title>Node38</title>
<g id="a_node38"><a xlink:href="_allocator_8h.html" target="_top" xlink:title="Allocator.h">
<polygon fill="white" stroke="black" points="1746.5,-280.5 1746.5,-299.5 1809.5,-299.5 1809.5,-280.5 1746.5,-280.5"/>
<text text-anchor="middle" x="1778" y="-287.5" font-family="Helvetica,sans-Serif" font-size="10.00">Allocator.h</text>
</a>
</g>
</g>
<!-- Node1&#45;&gt;Node38 -->
<g id="edge45" class="edge"><title>Node1&#45;&gt;Node38</title>
<path fill="none" stroke="midnightblue" d="M1020.13,-344.579C1123.7,-342.896 1458.01,-334.932 1732,-300 1736.68,-299.403 1741.6,-298.615 1746.42,-297.752"/>
<polygon fill="midnightblue" stroke="midnightblue" points="1019.95,-341.081 1010.01,-344.735 1020.06,-348.08 1019.95,-341.081"/>
</g>
<!-- Node39 -->
<g id="node39" class="node"><title>Node39</title>
<g id="a_node39"><a xlink:href="_shutdown_8h.html" target="_top" xlink:title="Shutdown.h">
<polygon fill="white" stroke="black" points="1828,-280.5 1828,-299.5 1896,-299.5 1896,-280.5 1828,-280.5"/>
<text text-anchor="middle" x="1862" y="-287.5" font-family="Helvetica,sans-Serif" font-size="10.00">Shutdown.h</text>
</a>
</g>
</g>
<!-- Node1&#45;&gt;Node39 -->
<g id="edge46" class="edge"><title>Node1&#45;&gt;Node39</title>
<path fill="none" stroke="midnightblue" d="M1020.52,-345.013C1132.2,-344.682 1510.17,-340.441 1819,-300 1821.87,-299.624 1824.84,-299.161 1827.81,-298.645"/>
<polygon fill="midnightblue" stroke="midnightblue" points="1020.26,-341.514 1010.26,-345.035 1020.27,-348.514 1020.26,-341.514"/>
</g>
<!-- Node40 -->
<g id="node40" class="node"><title>Node40</title>
<g id="a_node40"><a xlink:href="_signable_8h.html" target="_top" xlink:title="Signable.h">
<polygon fill="white" stroke="black" points="1446,-280.5 1446,-299.5 1508,-299.5 1508,-280.5 1446,-280.5"/>
<text text-anchor="middle" x="1477" y="-287.5" font-family="Helvetica,sans-Serif" font-size="10.00">Signable.h</text>
</a>
</g>
</g>
<!-- Node1&#45;&gt;Node40 -->
<g id="edge47" class="edge"><title>Node1&#45;&gt;Node40</title>
<path fill="none" stroke="midnightblue" d="M1020.34,-341.428C1109.5,-331.582 1358,-304.141 1445.79,-294.446"/>
<polygon fill="midnightblue" stroke="midnightblue" points="1019.84,-337.963 1010.28,-342.539 1020.61,-344.921 1019.84,-337.963"/>
</g>
<!-- Node44 -->
<g id="node44" class="node"><title>Node44</title>
<g id="a_node44"><a xlink:href="_sim_tick_8h.html" target="_top" xlink:title="SimTick.h">
<polygon fill="white" stroke="black" points="1708,-168.5 1708,-187.5 1768,-187.5 1768,-168.5 1708,-168.5"/>
<text text-anchor="middle" x="1738" y="-175.5" font-family="Helvetica,sans-Serif" font-size="10.00">SimTick.h</text>
</a>
</g>
</g>
<!-- Node1&#45;&gt;Node44 -->
<g id="edge62" class="edge"><title>Node1&#45;&gt;Node44</title>
<path fill="none" stroke="midnightblue" d="M1020.12,-345.51C1103.4,-346.14 1332.64,-343.45 1517,-300 1582.63,-284.532 1599.83,-278.098 1658,-244 1686.41,-227.349 1715.31,-201.055 1729.32,-187.581"/>
<polygon fill="midnightblue" stroke="midnightblue" points="1020.06,-342.009 1010.03,-345.411 1019.99,-349.009 1020.06,-342.009"/>
</g>
<!-- Node49 -->
<g id="node49" class="node"><title>Node49</title>
<g id="a_node49"><a xlink:href="_counter_8h.html" target="_top" xlink:title="Counter.h">
<polygon fill="white" stroke="black" points="958.5,-224.5 958.5,-243.5 1017.5,-243.5 1017.5,-224.5 958.5,-224.5"/>
<text text-anchor="middle" x="988" y="-231.5" font-family="Helvetica,sans-Serif" font-size="10.00">Counter.h</text>
</a>
</g>
</g>
<!-- Node1&#45;&gt;Node49 -->
<g id="edge63" class="edge"><title>Node1&#45;&gt;Node49</title>
<path fill="none" stroke="midnightblue" d="M988,-326.348C988,-302.254 988,-261.308 988,-243.591"/>
<polygon fill="midnightblue" stroke="midnightblue" points="984.5,-326.368 988,-336.368 991.5,-326.369 984.5,-326.368"/>
</g>
<!-- Node3 -->
<g id="node3" class="node"><title>Node3</title>
<g id="a_node3"><a xlink:href="_map_item_8h.html" target="_top" xlink:title="MapItem.h">
<polygon fill="white" stroke="black" points="147,-224.5 147,-243.5 209,-243.5 209,-224.5 147,-224.5"/>
<text text-anchor="middle" x="178" y="-231.5" font-family="Helvetica,sans-Serif" font-size="10.00">MapItem.h</text>
</a>
</g>
</g>
<!-- Node2&#45;&gt;Node3 -->
<g id="edge2" class="edge"><title>Node2&#45;&gt;Node3</title>
<path fill="none" stroke="midnightblue" d="M221.533,-273.537C210.656,-263.909 197.056,-251.869 187.979,-243.834"/>
<polygon fill="midnightblue" stroke="midnightblue" points="219.392,-276.316 229.199,-280.324 224.032,-271.075 219.392,-276.316"/>
</g>
<!-- Node4 -->
<g id="node4" class="node"><title>Node4</title>
<g id="a_node4"><a xlink:href="_string_item_8h.html" target="_top" xlink:title="StringItem.h">
<polygon fill="white" stroke="black" points="109.5,-168.5 109.5,-187.5 178.5,-187.5 178.5,-168.5 109.5,-168.5"/>
<text text-anchor="middle" x="144" y="-175.5" font-family="Helvetica,sans-Serif" font-size="10.00">StringItem.h</text>
</a>
</g>
</g>
<!-- Node3&#45;&gt;Node4 -->
<g id="edge3" class="edge"><title>Node3&#45;&gt;Node4</title>
<path fill="none" stroke="midnightblue" d="M167.023,-215.566C161.173,-206.275 154.23,-195.248 149.51,-187.751"/>
<polygon fill="midnightblue" stroke="midnightblue" points="164.096,-217.486 172.386,-224.083 170.019,-213.756 164.096,-217.486"/>
</g>
<!-- Node5 -->
<g id="node5" class="node"><title>Node5</title>
<g id="a_node5"><a xlink:href="_d_f_string_item_8h.html" target="_top" xlink:title="DFStringItem.h">
<polygon fill="white" stroke="black" points="0,-112.5 0,-131.5 82,-131.5 82,-112.5 0,-112.5"/>
<text text-anchor="middle" x="41" y="-119.5" font-family="Helvetica,sans-Serif" font-size="10.00">DFStringItem.h</text>
</a>
</g>
</g>
<!-- Node4&#45;&gt;Node5 -->
<g id="edge4" class="edge"><title>Node4&#45;&gt;Node5</title>
<path fill="none" stroke="midnightblue" d="M118.421,-163.59C99.3766,-153.605 73.9356,-140.267 57.5077,-131.655"/>
<polygon fill="midnightblue" stroke="midnightblue" points="116.969,-166.78 127.451,-168.324 120.22,-160.581 116.969,-166.78"/>
</g>
<!-- Node6 -->
<g id="node6" class="node"><title>Node6</title>
<g id="a_node6"><a xlink:href="_d_string_item_8h.html" target="_top" xlink:title="DStringItem.h">
<polygon fill="white" stroke="black" points="100,-112.5 100,-131.5 176,-131.5 176,-112.5 100,-112.5"/>
<text text-anchor="middle" x="138" y="-119.5" font-family="Helvetica,sans-Serif" font-size="10.00">DStringItem.h</text>
</a>
</g>
</g>
<!-- Node4&#45;&gt;Node6 -->
<g id="edge5" class="edge"><title>Node4&#45;&gt;Node6</title>
<path fill="none" stroke="midnightblue" d="M141.9,-158.101C140.904,-149.136 139.762,-138.858 138.972,-131.751"/>
<polygon fill="midnightblue" stroke="midnightblue" points="138.426,-158.531 143.009,-168.083 145.383,-157.758 138.426,-158.531"/>
</g>
<!-- Node7 -->
<g id="node7" class="node"><title>Node7</title>
<g id="a_node7"><a xlink:href="_f_string_item_8h.html" target="_top" xlink:title="FStringItem.h">
<polygon fill="white" stroke="black" points="194.5,-112.5 194.5,-131.5 269.5,-131.5 269.5,-112.5 194.5,-112.5"/>
<text text-anchor="middle" x="232" y="-119.5" font-family="Helvetica,sans-Serif" font-size="10.00">FStringItem.h</text>
</a>
</g>
</g>
<!-- Node4&#45;&gt;Node7 -->
<g id="edge6" class="edge"><title>Node4&#45;&gt;Node7</title>
<path fill="none" stroke="midnightblue" d="M166.977,-162.901C183.113,-152.999 204.181,-140.071 217.896,-131.655"/>
<polygon fill="midnightblue" stroke="midnightblue" points="164.831,-160.111 158.139,-168.324 168.493,-166.077 164.831,-160.111"/>
</g>
<!-- Node9 -->
<g id="node9" class="node"><title>Node9</title>
<g id="a_node9"><a xlink:href="_tee_output_8h.html" target="_top" xlink:title="TeeOutput.h">
<polygon fill="white" stroke="black" points="757,-168.5 757,-187.5 827,-187.5 827,-168.5 757,-168.5"/>
<text text-anchor="middle" x="792" y="-175.5" font-family="Helvetica,sans-Serif" font-size="10.00">TeeOutput.h</text>
</a>
</g>
</g>
<!-- Node8&#45;&gt;Node9 -->
<g id="edge8" class="edge"><title>Node8&#45;&gt;Node9</title>
<path fill="none" stroke="midnightblue" d="M887.759,-220.368C864.35,-210.255 832.159,-196.349 811.714,-187.516"/>
<polygon fill="midnightblue" stroke="midnightblue" points="886.625,-223.691 897.193,-224.444 889.401,-217.265 886.625,-223.691"/>
</g>
<!-- Node10 -->
<g id="node10" class="node"><title>Node10</title>
<g id="a_node10"><a xlink:href="_mailbox_8h.html" target="_top" xlink:title="Mailbox.h">
<polygon fill="white" stroke="black" points="1043.5,-168.5 1043.5,-187.5 1102.5,-187.5 1102.5,-168.5 1043.5,-168.5"/>
<text text-anchor="middle" x="1073" y="-175.5" font-family="Helvetica,sans-Serif" font-size="10.00">Mailbox.h</text>
</a>
</g>
</g>
<!-- Node8&#45;&gt;Node10 -->
<g id="edge9" class="edge"><title>Node8&#45;&gt;Node10</title>
<path fill="none" stroke="midnightblue" d="M950.51,-221.401C979.885,-211.232 1021.91,-196.685 1048.31,-187.547"/>
<polygon fill="midnightblue" stroke="midnightblue" points="948.998,-218.22 940.693,-224.799 951.288,-224.835 948.998,-218.22"/>
</g>
<!-- Node11 -->
<g id="node11" class="node"><title>Node11</title>
<g id="a_node11"><a xlink:href="_mailbox_server_8h.html" target="_top" xlink:title="MailboxServer.h">
<polygon fill="white" stroke="black" points="987,-112.5 987,-131.5 1073,-131.5 1073,-112.5 987,-112.5"/>
<text text-anchor="middle" x="1030" y="-119.5" font-family="Helvetica,sans-Serif" font-size="10.00">MailboxServer.h</text>
</a>
</g>
</g>
<!-- Node10&#45;&gt;Node11 -->
<g id="edge10" class="edge"><title>Node10&#45;&gt;Node11</title>
<path fill="none" stroke="midnightblue" d="M1059.58,-160.144C1052.09,-150.736 1043.06,-139.405 1036.97,-131.751"/>
<polygon fill="midnightblue" stroke="midnightblue" points="1056.93,-162.44 1065.9,-168.083 1062.41,-158.08 1056.93,-162.44"/>
</g>
<!-- Node13 -->
<g id="node13" class="node"><title>Node13</title>
<g id="a_node13"><a xlink:href="_input_8h.html" target="_top" xlink:title="Input.h">
<polygon fill="white" stroke="black" points="441,-224.5 441,-243.5 487,-243.5 487,-224.5 441,-224.5"/>
<text text-anchor="middle" x="464" y="-231.5" font-family="Helvetica,sans-Serif" font-size="10.00">Input.h</text>
</a>
</g>
</g>
<!-- Node12&#45;&gt;Node13 -->
<g id="edge12" class="edge"><title>Node12&#45;&gt;Node13</title>
<path fill="none" stroke="midnightblue" d="M618.235,-279.067C580.075,-268.164 519.889,-250.968 487.124,-241.607"/>
<polygon fill="midnightblue" stroke="midnightblue" points="617.325,-282.447 627.902,-281.829 619.249,-275.717 617.325,-282.447"/>
</g>
<!-- Node21 -->
<g id="node21" class="node"><title>Node21</title>
<g id="a_node21"><a xlink:href="_output_8h.html" target="_top" xlink:title="Output.h">
<polygon fill="white" stroke="black" points="626,-224.5 626,-243.5 680,-243.5 680,-224.5 626,-224.5"/>
<text text-anchor="middle" x="653" y="-231.5" font-family="Helvetica,sans-Serif" font-size="10.00">Output.h</text>
</a>
</g>
</g>
<!-- Node12&#45;&gt;Node21 -->
<g id="edge20" class="edge"><title>Node12&#45;&gt;Node21</title>
<path fill="none" stroke="midnightblue" d="M653,-269.805C653,-260.91 653,-250.78 653,-243.751"/>
<polygon fill="midnightblue" stroke="midnightblue" points="649.5,-270.083 653,-280.083 656.5,-270.083 649.5,-270.083"/>
</g>
<!-- Node14 -->
<g id="node14" class="node"><title>Node14</title>
<g id="a_node14"><a xlink:href="_input_api_8h.html" target="_top" xlink:title="InputApi.h">
<polygon fill="white" stroke="black" points="295,-168.5 295,-187.5 355,-187.5 355,-168.5 295,-168.5"/>
<text text-anchor="middle" x="325" y="-175.5" font-family="Helvetica,sans-Serif" font-size="10.00">InputApi.h</text>
</a>
</g>
</g>
<!-- Node13&#45;&gt;Node14 -->
<g id="edge13" class="edge"><title>Node13&#45;&gt;Node14</title>
<path fill="none" stroke="midnightblue" d="M432.524,-220.772C406.415,-210.629 369.961,-196.467 346.922,-187.516"/>
<polygon fill="midnightblue" stroke="midnightblue" points="431.386,-224.085 441.975,-224.444 433.921,-217.56 431.386,-224.085"/>
</g>
<!-- Node17 -->
<g id="node17" class="node"><title>Node17</title>
<g id="a_node17"><a xlink:href="_input_output_8h.html" target="_top" xlink:title="InputOutput.h">
<polygon fill="white" stroke="black" points="459.5,-168.5 459.5,-187.5 534.5,-187.5 534.5,-168.5 459.5,-168.5"/>
<text text-anchor="middle" x="497" y="-175.5" font-family="Helvetica,sans-Serif" font-size="10.00">InputOutput.h</text>
</a>
</g>
</g>
<!-- Node13&#45;&gt;Node17 -->
<g id="edge16" class="edge"><title>Node13&#45;&gt;Node17</title>
<path fill="none" stroke="midnightblue" d="M474.832,-215.275C480.472,-206.045 487.118,-195.17 491.652,-187.751"/>
<polygon fill="midnightblue" stroke="midnightblue" points="471.677,-213.725 469.449,-224.083 477.65,-217.375 471.677,-213.725"/>
</g>
<!-- Node20 -->
<g id="node20" class="node"><title>Node20</title>
<g id="a_node20"><a xlink:href="_line_reader_8h.html" target="_top" xlink:title="LineReader.h">
<polygon fill="white" stroke="black" points="203,-168.5 203,-187.5 277,-187.5 277,-168.5 203,-168.5"/>
<text text-anchor="middle" x="240" y="-175.5" font-family="Helvetica,sans-Serif" font-size="10.00">LineReader.h</text>
</a>
</g>
</g>
<!-- Node13&#45;&gt;Node20 -->
<g id="edge19" class="edge"><title>Node13&#45;&gt;Node20</title>
<path fill="none" stroke="midnightblue" d="M430.968,-225.037C389.366,-215.008 318.172,-197.845 275.457,-187.548"/>
<polygon fill="midnightblue" stroke="midnightblue" points="430.33,-228.483 440.872,-227.424 431.971,-221.678 430.33,-228.483"/>
</g>
<!-- Node15 -->
<g id="node15" class="node"><title>Node15</title>
<g id="a_node15"><a xlink:href="_file_2_input_8h.html" target="_top" xlink:title="Input.h">
<polygon fill="white" stroke="black" points="288,-112.5 288,-131.5 334,-131.5 334,-112.5 288,-112.5"/>
<text text-anchor="middle" x="311" y="-119.5" font-family="Helvetica,sans-Serif" font-size="10.00">Input.h</text>
</a>
</g>
</g>
<!-- Node14&#45;&gt;Node15 -->
<g id="edge14" class="edge"><title>Node14&#45;&gt;Node15</title>
<path fill="none" stroke="midnightblue" d="M320.177,-158.396C317.835,-149.362 315.132,-138.936 313.269,-131.751"/>
<polygon fill="midnightblue" stroke="midnightblue" points="316.79,-159.281 322.688,-168.083 323.566,-157.525 316.79,-159.281"/>
</g>
<!-- Node16 -->
<g id="node16" class="node"><title>Node16</title>
<g id="a_node16"><a xlink:href="_input_output_api_8h.html" target="_top" xlink:title="InputOutputApi.h">
<polygon fill="white" stroke="red" points="352.5,-112.5 352.5,-131.5 441.5,-131.5 441.5,-112.5 352.5,-112.5"/>
<text text-anchor="middle" x="397" y="-119.5" font-family="Helvetica,sans-Serif" font-size="10.00">InputOutputApi.h</text>
</a>
</g>
</g>
<!-- Node14&#45;&gt;Node16 -->
<g id="edge15" class="edge"><title>Node14&#45;&gt;Node16</title>
<path fill="none" stroke="midnightblue" d="M344.866,-162.101C357.823,-152.382 374.297,-140.027 385.221,-131.834"/>
<polygon fill="midnightblue" stroke="midnightblue" points="342.468,-159.524 336.568,-168.324 346.668,-165.124 342.468,-159.524"/>
</g>
<!-- Node18 -->
<g id="node18" class="node"><title>Node18</title>
<g id="a_node18"><a xlink:href="_io_2_null_8h.html" target="_top" xlink:title="Null.h">
<polygon fill="white" stroke="black" points="552.5,-112.5 552.5,-131.5 593.5,-131.5 593.5,-112.5 552.5,-112.5"/>
<text text-anchor="middle" x="573" y="-119.5" font-family="Helvetica,sans-Serif" font-size="10.00">Null.h</text>
</a>
</g>
</g>
<!-- Node17&#45;&gt;Node18 -->
<g id="edge17" class="edge"><title>Node17&#45;&gt;Node18</title>
<path fill="none" stroke="midnightblue" d="M517.576,-162.38C531.312,-152.62 548.925,-140.106 560.567,-131.834"/>
<polygon fill="midnightblue" stroke="midnightblue" points="515.335,-159.679 509.211,-168.324 519.39,-165.385 515.335,-159.679"/>
</g>
<!-- Node19 -->
<g id="node19" class="node"><title>Node19</title>
<g id="a_node19"><a xlink:href="_socket_2_input_output_8h.html" target="_top" xlink:title="InputOutput.h">
<polygon fill="white" stroke="red" points="459.5,-112.5 459.5,-131.5 534.5,-131.5 534.5,-112.5 459.5,-112.5"/>
<text text-anchor="middle" x="497" y="-119.5" font-family="Helvetica,sans-Serif" font-size="10.00">InputOutput.h</text>
</a>
</g>
</g>
<!-- Node17&#45;&gt;Node19 -->
<g id="edge18" class="edge"><title>Node17&#45;&gt;Node19</title>
<path fill="none" stroke="midnightblue" d="M497,-157.805C497,-148.91 497,-138.78 497,-131.751"/>
<polygon fill="midnightblue" stroke="midnightblue" points="493.5,-158.083 497,-168.083 500.5,-158.083 493.5,-158.083"/>
</g>
<!-- Node21&#45;&gt;Node9 -->
<g id="edge27" class="edge"><title>Node21&#45;&gt;Node9</title>
<path fill="none" stroke="midnightblue" d="M684.476,-220.772C710.585,-210.629 747.039,-196.467 770.078,-187.516"/>
<polygon fill="midnightblue" stroke="midnightblue" points="683.079,-217.56 675.025,-224.444 685.614,-224.085 683.079,-217.56"/>
</g>
<!-- Node21&#45;&gt;Node17 -->
<g id="edge25" class="edge"><title>Node21&#45;&gt;Node17</title>
<path fill="none" stroke="midnightblue" d="M618.83,-221.172C589.456,-211.004 547.802,-196.585 521.603,-187.516"/>
<polygon fill="midnightblue" stroke="midnightblue" points="617.687,-224.48 628.281,-224.444 619.976,-217.865 617.687,-224.48"/>
</g>
<!-- Node22 -->
<g id="node22" class="node"><title>Node22</title>
<g id="a_node22"><a xlink:href="_atomic_output_api_8h.html" target="_top" xlink:title="AtomicOutputApi.h">
<polygon fill="white" stroke="black" points="552.5,-168.5 552.5,-187.5 651.5,-187.5 651.5,-168.5 552.5,-168.5"/>
<text text-anchor="middle" x="602" y="-175.5" font-family="Helvetica,sans-Serif" font-size="10.00">AtomicOutputApi.h</text>
</a>
</g>
</g>
<!-- Node21&#45;&gt;Node22 -->
<g id="edge21" class="edge"><title>Node21&#45;&gt;Node22</title>
<path fill="none" stroke="midnightblue" d="M637.622,-216.718C628.633,-207.2 617.641,-195.561 610.265,-187.751"/>
<polygon fill="midnightblue" stroke="midnightblue" points="635.168,-219.216 644.578,-224.083 640.257,-214.41 635.168,-219.216"/>
</g>
<!-- Node24 -->
<g id="node24" class="node"><title>Node24</title>
<g id="a_node24"><a xlink:href="_output_api_8h.html" target="_top" xlink:title="OutputApi.h">
<polygon fill="white" stroke="red" points="373,-168.5 373,-187.5 441,-187.5 441,-168.5 373,-168.5"/>
<text text-anchor="middle" x="407" y="-175.5" font-family="Helvetica,sans-Serif" font-size="10.00">OutputApi.h</text>
</a>
</g>
</g>
<!-- Node21&#45;&gt;Node24 -->
<g id="edge23" class="edge"><title>Node21&#45;&gt;Node24</title>
<path fill="none" stroke="midnightblue" d="M615.868,-224.849C568.431,-214.436 486.987,-196.558 441.07,-186.479"/>
<polygon fill="midnightblue" stroke="midnightblue" points="615.216,-228.289 625.734,-227.015 616.717,-221.452 615.216,-228.289"/>
</g>
<!-- Node25 -->
<g id="node25" class="node"><title>Node25</title>
<g id="a_node25"><a xlink:href="_line_writer_8h.html" target="_top" xlink:title="LineWriter.h">
<polygon fill="white" stroke="black" points="669.5,-168.5 669.5,-187.5 738.5,-187.5 738.5,-168.5 669.5,-168.5"/>
<text text-anchor="middle" x="704" y="-175.5" font-family="Helvetica,sans-Serif" font-size="10.00">LineWriter.h</text>
</a>
</g>
</g>
<!-- Node21&#45;&gt;Node25 -->
<g id="edge26" class="edge"><title>Node21&#45;&gt;Node25</title>
<path fill="none" stroke="midnightblue" d="M668.378,-216.718C677.367,-207.2 688.359,-195.561 695.735,-187.751"/>
<polygon fill="midnightblue" stroke="midnightblue" points="665.743,-214.41 661.422,-224.083 670.832,-219.216 665.743,-214.41"/>
</g>
<!-- Node26 -->
<g id="node26" class="node"><title>Node26</title>
<g id="a_node26"><a xlink:href="_trace_8h.html" target="_top" xlink:title="Trace.h">
<polygon fill="white" stroke="black" points="883.5,-168.5 883.5,-187.5 932.5,-187.5 932.5,-168.5 883.5,-168.5"/>
<text text-anchor="middle" x="908" y="-175.5" font-family="Helvetica,sans-Serif" font-size="10.00">Trace.h</text>
</a>
</g>
</g>
<!-- Node21&#45;&gt;Node26 -->
<g id="edge28" class="edge"><title>Node21&#45;&gt;Node26</title>
<path fill="none" stroke="midnightblue" d="M690.256,-225.11C743.051,-213.93 838.204,-193.78 883.173,-184.258"/>
<polygon fill="midnightblue" stroke="midnightblue" points="689.347,-221.725 680.289,-227.221 690.798,-228.573 689.347,-221.725"/>
</g>
<!-- Node23 -->
<g id="node23" class="node"><title>Node23</title>
<g id="a_node23"><a xlink:href="_atomic_output_8h.html" target="_top" xlink:title="AtomicOutput.h">
<polygon fill="white" stroke="black" points="611.5,-112.5 611.5,-131.5 696.5,-131.5 696.5,-112.5 611.5,-112.5"/>
<text text-anchor="middle" x="654" y="-119.5" font-family="Helvetica,sans-Serif" font-size="10.00">AtomicOutput.h</text>
</a>
</g>
</g>
<!-- Node22&#45;&gt;Node23 -->
<g id="edge22" class="edge"><title>Node22&#45;&gt;Node23</title>
<path fill="none" stroke="midnightblue" d="M617.679,-160.718C626.845,-151.2 638.053,-139.561 645.573,-131.751"/>
<polygon fill="midnightblue" stroke="midnightblue" points="615.002,-158.452 610.587,-168.083 620.044,-163.308 615.002,-158.452"/>
</g>
<!-- Node24&#45;&gt;Node16 -->
<g id="edge24" class="edge"><title>Node24&#45;&gt;Node16</title>
<path fill="none" stroke="midnightblue" d="M403.5,-158.101C401.84,-149.136 399.937,-138.858 398.621,-131.751"/>
<polygon fill="midnightblue" stroke="midnightblue" points="400.086,-158.888 405.349,-168.083 406.969,-157.613 400.086,-158.888"/>
</g>
<!-- Node27 -->
<g id="node27" class="node"><title>Node27</title>
<g id="a_node27"><a xlink:href="_local_8h.html" target="_top" xlink:title="Local.h">
<polygon fill="white" stroke="black" points="857,-112.5 857,-131.5 905,-131.5 905,-112.5 857,-112.5"/>
<text text-anchor="middle" x="881" y="-119.5" font-family="Helvetica,sans-Serif" font-size="10.00">Local.h</text>
</a>
</g>
</g>
<!-- Node26&#45;&gt;Node27 -->
<g id="edge29" class="edge"><title>Node26&#45;&gt;Node27</title>
<path fill="none" stroke="midnightblue" d="M898.991,-158.983C894.408,-149.817 889.046,-139.092 885.376,-131.751"/>
<polygon fill="midnightblue" stroke="midnightblue" points="895.939,-160.704 903.541,-168.083 902.2,-157.573 895.939,-160.704"/>
</g>
<!-- Node28&#45;&gt;Node20 -->
<g id="edge31" class="edge"><title>Node28&#45;&gt;Node20</title>
<path fill="none" stroke="midnightblue" d="M459.378,-276.305C408.325,-253.66 302.837,-206.871 259.37,-187.591"/>
<polygon fill="midnightblue" stroke="midnightblue" points="457.98,-279.513 468.54,-280.368 460.818,-273.114 457.98,-279.513"/>
</g>
<!-- Node29&#45;&gt;Node25 -->
<g id="edge33" class="edge"><title>Node29&#45;&gt;Node25</title>
<path fill="none" stroke="midnightblue" d="M812.259,-273.512C785.335,-250.007 735.053,-206.11 713.841,-187.591"/>
<polygon fill="midnightblue" stroke="midnightblue" points="810.278,-276.428 820.113,-280.368 814.882,-271.155 810.278,-276.428"/>
</g>
<!-- Node31 -->
<g id="node31" class="node"><title>Node31</title>
<g id="a_node31"><a xlink:href="_post_api_8h.html" target="_top" xlink:title="PostApi.h">
<polygon fill="white" stroke="black" points="1113.5,-224.5 1113.5,-243.5 1172.5,-243.5 1172.5,-224.5 1113.5,-224.5"/>
<text text-anchor="middle" x="1143" y="-231.5" font-family="Helvetica,sans-Serif" font-size="10.00">PostApi.h</text>
</a>
</g>
</g>
<!-- Node30&#45;&gt;Node31 -->
<g id="edge35" class="edge"><title>Node30&#45;&gt;Node31</title>
<path fill="none" stroke="midnightblue" d="M1143,-269.805C1143,-260.91 1143,-250.78 1143,-243.751"/>
<polygon fill="midnightblue" stroke="midnightblue" points="1139.5,-270.083 1143,-280.083 1146.5,-270.083 1139.5,-270.083"/>
</g>
<!-- Node37 -->
<g id="node37" class="node"><title>Node37</title>
<g id="a_node37"><a xlink:href="_service_message_8h.html" target="_top" xlink:title="ServiceMessage.h">
<polygon fill="white" stroke="black" points="1235,-224.5 1235,-243.5 1331,-243.5 1331,-224.5 1235,-224.5"/>
<text text-anchor="middle" x="1283" y="-231.5" font-family="Helvetica,sans-Serif" font-size="10.00">ServiceMessage.h</text>
</a>
</g>
</g>
<!-- Node30&#45;&gt;Node37 -->
<g id="edge43" class="edge"><title>Node30&#45;&gt;Node37</title>
<path fill="none" stroke="midnightblue" d="M1174.7,-276.772C1201,-266.629 1237.72,-252.467 1260.92,-243.516"/>
<polygon fill="midnightblue" stroke="midnightblue" points="1173.25,-273.579 1165.18,-280.444 1175.77,-280.11 1173.25,-273.579"/>
</g>
<!-- Node31&#45;&gt;Node10 -->
<g id="edge37" class="edge"><title>Node31&#45;&gt;Node10</title>
<path fill="none" stroke="midnightblue" d="M1123.69,-218.101C1111.09,-208.382 1095.07,-196.027 1084.45,-187.834"/>
<polygon fill="midnightblue" stroke="midnightblue" points="1121.7,-220.987 1131.75,-224.324 1125.97,-215.445 1121.7,-220.987"/>
</g>
<!-- Node32 -->
<g id="node32" class="node"><title>Node32</title>
<g id="a_node32"><a xlink:href="_async_return_handler_8h.html" target="_top" xlink:title="AsyncReturnHandler.h">
<polygon fill="white" stroke="red" points="1184,-168.5 1184,-187.5 1298,-187.5 1298,-168.5 1184,-168.5"/>
<text text-anchor="middle" x="1241" y="-175.5" font-family="Helvetica,sans-Serif" font-size="10.00">AsyncReturnHandler.h</text>
</a>
</g>
</g>
<!-- Node31&#45;&gt;Node32 -->
<g id="edge36" class="edge"><title>Node31&#45;&gt;Node32</title>
<path fill="none" stroke="midnightblue" d="M1167.59,-219.453C1185.68,-209.483 1209.73,-196.228 1225.29,-187.655"/>
<polygon fill="midnightblue" stroke="midnightblue" points="1165.81,-216.432 1158.75,-224.324 1169.19,-222.563 1165.81,-216.432"/>
</g>
<!-- Node33 -->
<g id="node33" class="node"><title>Node33</title>
<g id="a_node33"><a xlink:href="_s_a_p_8h.html" target="_top" xlink:title="SAP.h">
<polygon fill="white" stroke="red" points="1120.5,-168.5 1120.5,-187.5 1165.5,-187.5 1165.5,-168.5 1120.5,-168.5"/>
<text text-anchor="middle" x="1143" y="-175.5" font-family="Helvetica,sans-Serif" font-size="10.00">SAP.h</text>
</a>
</g>
</g>
<!-- Node31&#45;&gt;Node33 -->
<g id="edge38" class="edge"><title>Node31&#45;&gt;Node33</title>
<path fill="none" stroke="midnightblue" d="M1143,-213.805C1143,-204.91 1143,-194.78 1143,-187.751"/>
<polygon fill="midnightblue" stroke="midnightblue" points="1139.5,-214.083 1143,-224.083 1146.5,-214.083 1139.5,-214.083"/>
</g>
<!-- Node34 -->
<g id="node34" class="node"><title>Node34</title>
<g id="a_node34"><a xlink:href="_atomic_request_8h.html" target="_top" xlink:title="AtomicRequest.h">
<polygon fill="white" stroke="black" points="1266,-56.5 1266,-75.5 1358,-75.5 1358,-56.5 1266,-56.5"/>
<text text-anchor="middle" x="1312" y="-63.5" font-family="Helvetica,sans-Serif" font-size="10.00">AtomicRequest.h</text>
</a>
</g>
</g>
<!-- Node33&#45;&gt;Node34 -->
<g id="edge39" class="edge"><title>Node33&#45;&gt;Node34</title>
<path fill="none" stroke="midnightblue" d="M1163.92,-162.704C1183.48,-149.403 1213.56,-129.117 1240,-112 1259.92,-99.1037 1283.26,-84.63 1297.84,-75.6637"/>
<polygon fill="midnightblue" stroke="midnightblue" points="1161.77,-159.935 1155.47,-168.458 1165.71,-165.72 1161.77,-159.935"/>
</g>
<!-- Node36 -->
<g id="node36" class="node"><title>Node36</title>
<g id="a_node36"><a xlink:href="_request_message_8h.html" target="_top" xlink:title="RequestMessage.h">
<polygon fill="white" stroke="red" points="1249.5,-112.5 1249.5,-131.5 1350.5,-131.5 1350.5,-112.5 1249.5,-112.5"/>
<text text-anchor="middle" x="1300" y="-119.5" font-family="Helvetica,sans-Serif" font-size="10.00">RequestMessage.h</text>
</a>
</g>
</g>
<!-- Node33&#45;&gt;Node36 -->
<g id="edge41" class="edge"><title>Node33&#45;&gt;Node36</title>
<path fill="none" stroke="midnightblue" d="M1175.3,-165.891C1204.88,-155.715 1248.06,-140.864 1275.07,-131.576"/>
<polygon fill="midnightblue" stroke="midnightblue" points="1174.15,-162.586 1165.83,-169.148 1176.42,-169.205 1174.15,-162.586"/>
</g>
<!-- Node35 -->
<g id="node35" class="node"><title>Node35</title>
<g id="a_node35"><a xlink:href="_atomic_sync_8h.html" target="_top" xlink:title="AtomicSync.h">
<polygon fill="white" stroke="black" points="1322,-0.5 1322,-19.5 1400,-19.5 1400,-0.5 1322,-0.5"/>
<text text-anchor="middle" x="1361" y="-7.5" font-family="Helvetica,sans-Serif" font-size="10.00">AtomicSync.h</text>
</a>
</g>
</g>
<!-- Node34&#45;&gt;Node35 -->
<g id="edge40" class="edge"><title>Node34&#45;&gt;Node35</title>
<path fill="none" stroke="midnightblue" d="M1327.03,-48.4314C1335.62,-38.9673 1346.04,-27.4827 1353.06,-19.7511"/>
<polygon fill="midnightblue" stroke="midnightblue" points="1324.22,-46.3254 1320.09,-56.083 1329.4,-51.0293 1324.22,-46.3254"/>
</g>
<!-- Node36&#45;&gt;Node34 -->
<g id="edge42" class="edge"><title>Node36&#45;&gt;Node34</title>
<path fill="none" stroke="midnightblue" d="M1304.2,-102.101C1306.19,-93.1357 1308.48,-82.8579 1310.06,-75.7511"/>
<polygon fill="midnightblue" stroke="midnightblue" points="1300.73,-101.562 1301.98,-112.083 1307.57,-103.08 1300.73,-101.562"/>
</g>
<!-- Node37&#45;&gt;Node36 -->
<g id="edge44" class="edge"><title>Node37&#45;&gt;Node36</title>
<path fill="none" stroke="midnightblue" d="M1294.76,-215.769C1299.56,-207.71 1304.56,-197.755 1307,-188 1311.95,-168.18 1306.48,-144.097 1302.79,-131.544"/>
<polygon fill="midnightblue" stroke="midnightblue" points="1291.79,-213.917 1289.37,-224.232 1297.69,-217.678 1291.79,-213.917"/>
</g>
<!-- Node40&#45;&gt;Node10 -->
<g id="edge48" class="edge"><title>Node40&#45;&gt;Node10</title>
<path fill="none" stroke="midnightblue" d="M1435.68,-288.911C1349.94,-287.959 1156.32,-281.58 1104,-244 1085.11,-230.433 1077.31,-202.268 1074.45,-187.879"/>
<polygon fill="midnightblue" stroke="midnightblue" points="1435.8,-292.413 1445.83,-289.004 1435.86,-285.413 1435.8,-292.413"/>
</g>
<!-- Node41 -->
<g id="node41" class="node"><title>Node41</title>
<g id="a_node41"><a xlink:href="_sync_return_handler_8h.html" target="_top" xlink:title="SyncReturnHandler.h">
<polygon fill="white" stroke="black" points="1368.5,-112.5 1368.5,-131.5 1477.5,-131.5 1477.5,-112.5 1368.5,-112.5"/>
<text text-anchor="middle" x="1423" y="-119.5" font-family="Helvetica,sans-Serif" font-size="10.00">SyncReturnHandler.h</text>
</a>
</g>
</g>
<!-- Node40&#45;&gt;Node41 -->
<g id="edge49" class="edge"><title>Node40&#45;&gt;Node41</title>
<path fill="none" stroke="midnightblue" d="M1518.38,-286.152C1552.54,-281.843 1600.5,-271.041 1633,-244 1660.67,-220.976 1683.97,-195.718 1661,-168 1638.16,-140.437 1540.44,-129.632 1477.53,-125.487"/>
<polygon fill="midnightblue" stroke="midnightblue" points="1517.8,-282.695 1508.26,-287.292 1518.59,-289.651 1517.8,-282.695"/>
</g>
<!-- Node42 -->
<g id="node42" class="node"><title>Node42</title>
<g id="a_node42"><a xlink:href="_semaphore_8h.html" target="_top" xlink:title="Semaphore.h">
<polygon fill="white" stroke="black" points="1550,-224.5 1550,-243.5 1624,-243.5 1624,-224.5 1550,-224.5"/>
<text text-anchor="middle" x="1587" y="-231.5" font-family="Helvetica,sans-Serif" font-size="10.00">Semaphore.h</text>
</a>
</g>
</g>
<!-- Node40&#45;&gt;Node42 -->
<g id="edge52" class="edge"><title>Node40&#45;&gt;Node42</title>
<path fill="none" stroke="midnightblue" d="M1503.76,-275.862C1524.16,-265.849 1551.67,-252.346 1569.37,-243.655"/>
<polygon fill="midnightblue" stroke="midnightblue" points="1502.11,-272.775 1494.67,-280.324 1505.19,-279.059 1502.11,-272.775"/>
</g>
<!-- Node46 -->
<g id="node46" class="node"><title>Node46</title>
<g id="a_node46"><a xlink:href="_thread_8h.html" target="_top" xlink:title="Thread.h">
<polygon fill="white" stroke="black" points="1450,-224.5 1450,-243.5 1504,-243.5 1504,-224.5 1450,-224.5"/>
<text text-anchor="middle" x="1477" y="-231.5" font-family="Helvetica,sans-Serif" font-size="10.00">Thread.h</text>
</a>
</g>
</g>
<!-- Node40&#45;&gt;Node46 -->
<g id="edge56" class="edge"><title>Node40&#45;&gt;Node46</title>
<path fill="none" stroke="midnightblue" d="M1477,-269.805C1477,-260.91 1477,-250.78 1477,-243.751"/>
<polygon fill="midnightblue" stroke="midnightblue" points="1473.5,-270.083 1477,-280.083 1480.5,-270.083 1473.5,-270.083"/>
</g>
<!-- Node41&#45;&gt;Node34 -->
<g id="edge50" class="edge"><title>Node41&#45;&gt;Node34</title>
<path fill="none" stroke="midnightblue" d="M1395.99,-107.862C1375.41,-97.8492 1347.66,-84.3458 1329.79,-75.6545"/>
<polygon fill="midnightblue" stroke="midnightblue" points="1394.64,-111.097 1405.17,-112.324 1397.7,-104.802 1394.64,-111.097"/>
</g>
<!-- Node41&#45;&gt;Node35 -->
<g id="edge51" class="edge"><title>Node41&#45;&gt;Node35</title>
<path fill="none" stroke="midnightblue" d="M1413.22,-103.64C1399.75,-79.7436 1376.01,-37.6286 1365.84,-19.5914"/>
<polygon fill="midnightblue" stroke="midnightblue" points="1410.18,-105.376 1418.13,-112.368 1416.27,-101.938 1410.18,-105.376"/>
</g>
<!-- Node43 -->
<g id="node43" class="node"><title>Node43</title>
<g id="a_node43"><a xlink:href="_cpp11_2_thread_8h.html" target="_top" xlink:title="Thread.h">
<polygon fill="white" stroke="black" points="1598,-168.5 1598,-187.5 1652,-187.5 1652,-168.5 1598,-168.5"/>
<text text-anchor="middle" x="1625" y="-175.5" font-family="Helvetica,sans-Serif" font-size="10.00">Thread.h</text>
</a>
</g>
</g>
<!-- Node42&#45;&gt;Node43 -->
<g id="edge53" class="edge"><title>Node42&#45;&gt;Node43</title>
<path fill="none" stroke="midnightblue" d="M1599.06,-215.855C1605.64,-206.505 1613.51,-195.327 1618.84,-187.751"/>
<polygon fill="midnightblue" stroke="midnightblue" points="1596.17,-213.891 1593.27,-224.083 1601.89,-217.919 1596.17,-213.891"/>
</g>
<!-- Node42&#45;&gt;Node44 -->
<g id="edge54" class="edge"><title>Node42&#45;&gt;Node44</title>
<path fill="none" stroke="midnightblue" d="M1620.45,-221.039C1648.86,-210.879 1688.94,-196.546 1714.19,-187.516"/>
<polygon fill="midnightblue" stroke="midnightblue" points="1619.16,-217.781 1610.93,-224.444 1621.52,-224.372 1619.16,-217.781"/>
</g>
<!-- Node45 -->
<g id="node45" class="node"><title>Node45</title>
<g id="a_node45"><a xlink:href="_win32_2_thread_8h.html" target="_top" xlink:title="Thread.h">
<polygon fill="white" stroke="black" points="1526,-168.5 1526,-187.5 1580,-187.5 1580,-168.5 1526,-168.5"/>
<text text-anchor="middle" x="1553" y="-175.5" font-family="Helvetica,sans-Serif" font-size="10.00">Thread.h</text>
</a>
</g>
</g>
<!-- Node42&#45;&gt;Node45 -->
<g id="edge55" class="edge"><title>Node42&#45;&gt;Node45</title>
<path fill="none" stroke="midnightblue" d="M1576.02,-215.566C1570.17,-206.275 1563.23,-195.248 1558.51,-187.751"/>
<polygon fill="midnightblue" stroke="midnightblue" points="1573.1,-217.486 1581.39,-224.083 1579.02,-213.756 1573.1,-217.486"/>
</g>
<!-- Node46&#45;&gt;Node26 -->
<g id="edge60" class="edge"><title>Node46&#45;&gt;Node26</title>
<path fill="none" stroke="midnightblue" d="M1439.58,-230.234C1326.13,-221.793 990.714,-196.429 942,-188 938.992,-187.479 935.861,-186.819 932.772,-186.093"/>
<polygon fill="midnightblue" stroke="midnightblue" points="1439.62,-233.746 1449.85,-230.997 1440.14,-226.766 1439.62,-233.746"/>
</g>
<!-- Node46&#45;&gt;Node43 -->
<g id="edge59" class="edge"><title>Node46&#45;&gt;Node43</title>
<path fill="none" stroke="midnightblue" d="M1510.15,-220.906C1537.97,-210.754 1577.02,-196.506 1601.66,-187.516"/>
<polygon fill="midnightblue" stroke="midnightblue" points="1508.65,-217.728 1500.45,-224.444 1511.04,-224.304 1508.65,-217.728"/>
</g>
<!-- Node46&#45;&gt;Node45 -->
<g id="edge61" class="edge"><title>Node46&#45;&gt;Node45</title>
<path fill="none" stroke="midnightblue" d="M1497.58,-218.38C1511.31,-208.62 1528.93,-196.106 1540.57,-187.834"/>
<polygon fill="midnightblue" stroke="midnightblue" points="1495.34,-215.679 1489.21,-224.324 1499.39,-221.385 1495.34,-215.679"/>
</g>
<!-- Node47 -->
<g id="node47" class="node"><title>Node47</title>
<g id="a_node47"><a xlink:href="_receiver_8h.html" target="_top" xlink:title="Receiver.h">
<polygon fill="white" stroke="black" points="1446,-168.5 1446,-187.5 1508,-187.5 1508,-168.5 1446,-168.5"/>
<text text-anchor="middle" x="1477" y="-175.5" font-family="Helvetica,sans-Serif" font-size="10.00">Receiver.h</text>
</a>
</g>
</g>
<!-- Node46&#45;&gt;Node47 -->
<g id="edge57" class="edge"><title>Node46&#45;&gt;Node47</title>
<path fill="none" stroke="midnightblue" d="M1477,-213.805C1477,-204.91 1477,-194.78 1477,-187.751"/>
<polygon fill="midnightblue" stroke="midnightblue" points="1473.5,-214.083 1477,-224.083 1480.5,-214.083 1473.5,-214.083"/>
</g>
<!-- Node48 -->
<g id="node48" class="node"><title>Node48</title>
<g id="a_node48"><a xlink:href="_transmitter_8h.html" target="_top" xlink:title="Transmitter.h">
<polygon fill="white" stroke="black" points="1354,-168.5 1354,-187.5 1428,-187.5 1428,-168.5 1354,-168.5"/>
<text text-anchor="middle" x="1391" y="-175.5" font-family="Helvetica,sans-Serif" font-size="10.00">Transmitter.h</text>
</a>
</g>
</g>
<!-- Node46&#45;&gt;Node48 -->
<g id="edge58" class="edge"><title>Node46&#45;&gt;Node48</title>
<path fill="none" stroke="midnightblue" d="M1454.55,-218.901C1438.78,-208.999 1418.19,-196.071 1404.78,-187.655"/>
<polygon fill="midnightblue" stroke="midnightblue" points="1452.85,-221.97 1463.18,-224.324 1456.57,-216.042 1452.85,-221.97"/>
</g>
<!-- Node49&#45;&gt;Node27 -->
<g id="edge66" class="edge"><title>Node49&#45;&gt;Node27</title>
<path fill="none" stroke="midnightblue" d="M948.856,-222.645C919.473,-213.988 882.845,-201 874,-188 862.38,-170.921 870.82,-145.273 876.671,-131.873"/>
<polygon fill="midnightblue" stroke="midnightblue" points="947.916,-226.016 958.493,-225.409 949.845,-219.288 947.916,-226.016"/>
</g>
<!-- Node50 -->
<g id="node50" class="node"><title>Node50</title>
<g id="a_node50"><a xlink:href="_counter_list_8h.html" target="_top" xlink:title="CounterList.h">
<polygon fill="white" stroke="black" points="951,-168.5 951,-187.5 1025,-187.5 1025,-168.5 951,-168.5"/>
<text text-anchor="middle" x="988" y="-175.5" font-family="Helvetica,sans-Serif" font-size="10.00">CounterList.h</text>
</a>
</g>
</g>
<!-- Node49&#45;&gt;Node50 -->
<g id="edge64" class="edge"><title>Node49&#45;&gt;Node50</title>
<path fill="none" stroke="midnightblue" d="M988,-213.805C988,-204.91 988,-194.78 988,-187.751"/>
<polygon fill="midnightblue" stroke="midnightblue" points="984.5,-214.083 988,-224.083 991.5,-214.083 984.5,-214.083"/>
</g>
<!-- Node50&#45;&gt;Node11 -->
<g id="edge65" class="edge"><title>Node50&#45;&gt;Node11</title>
<path fill="none" stroke="midnightblue" d="M1001.11,-160.144C1008.43,-150.736 1017.24,-139.405 1023.19,-131.751"/>
<polygon fill="midnightblue" stroke="midnightblue" points="998.312,-158.041 994.935,-168.083 1003.84,-162.338 998.312,-158.041"/>
</g>
</g>
</svg>
