<?xml version="1.0" encoding="UTF-8" standalone="no"?>
<!DOCTYPE svg PUBLIC "-//W3C//DTD SVG 1.1//EN"
 "http://www.w3.org/Graphics/SVG/1.1/DTD/svg11.dtd">
<!-- Generated by graphviz version 2.38.0 (20140413.2041)
 -->
<!-- Title: LineWriter.h Pages: 1 -->
<svg width="603pt" height="308pt"
 viewBox="0.00 0.00 603.00 308.00" xmlns="http://www.w3.org/2000/svg" xmlns:xlink="http://www.w3.org/1999/xlink">
<g id="graph0" class="graph" transform="scale(1 1) rotate(0) translate(4 304)">
<title>LineWriter.h</title>
<polygon fill="white" stroke="none" points="-4,4 -4,-304 599,-304 599,4 -4,4"/>
<!-- Node1 -->
<g id="node1" class="node"><title>Node1</title>
<polygon fill="#bfbfbf" stroke="black" points="387,-280.5 387,-299.5 456,-299.5 456,-280.5 387,-280.5"/>
<text text-anchor="middle" x="421.5" y="-287.5" font-family="Helvetica,sans-Serif" font-size="10.00">LineWriter.h</text>
</g>
<!-- Node2 -->
<g id="node2" class="node"><title>Node2</title>
<g id="a_node2"><a xlink:href="_line_writer_api_8h.html" target="_top" xlink:title="Cpl/Io/LineWriterApi.h">
<polygon fill="white" stroke="black" points="251,-224.5 251,-243.5 362,-243.5 362,-224.5 251,-224.5"/>
<text text-anchor="middle" x="306.5" y="-231.5" font-family="Helvetica,sans-Serif" font-size="10.00">Cpl/Io/LineWriterApi.h</text>
</a>
</g>
</g>
<!-- Node1&#45;&gt;Node2 -->
<g id="edge1" class="edge"><title>Node1&#45;&gt;Node2</title>
<path fill="none" stroke="midnightblue" d="M403.278,-280.444C384.604,-271.675 355.344,-257.935 333.883,-247.858"/>
<polygon fill="midnightblue" stroke="midnightblue" points="335.176,-244.599 324.637,-243.516 332.201,-250.935 335.176,-244.599"/>
</g>
<!-- Node13 -->
<g id="node13" class="node"><title>Node13</title>
<g id="a_node13"><a xlink:href="_output_8h.html" target="_top" xlink:title="Cpl/Io/Output.h">
<polygon fill="white" stroke="black" points="380.5,-224.5 380.5,-243.5 462.5,-243.5 462.5,-224.5 380.5,-224.5"/>
<text text-anchor="middle" x="421.5" y="-231.5" font-family="Helvetica,sans-Serif" font-size="10.00">Cpl/Io/Output.h</text>
</a>
</g>
</g>
<!-- Node1&#45;&gt;Node13 -->
<g id="edge14" class="edge"><title>Node1&#45;&gt;Node13</title>
<path fill="none" stroke="midnightblue" d="M421.5,-280.083C421.5,-273.006 421.5,-262.861 421.5,-253.986"/>
<polygon fill="midnightblue" stroke="midnightblue" points="425,-253.751 421.5,-243.751 418,-253.751 425,-253.751"/>
</g>
<!-- Node15 -->
<g id="node15" class="node"><title>Node15</title>
<g id="a_node15"><a xlink:href="_new_line_8h.html" target="_top" xlink:title="Cpl/Io/NewLine.h">
<polygon fill="white" stroke="black" points="506,-168.5 506,-187.5 595,-187.5 595,-168.5 506,-168.5"/>
<text text-anchor="middle" x="550.5" y="-175.5" font-family="Helvetica,sans-Serif" font-size="10.00">Cpl/Io/NewLine.h</text>
</a>
</g>
</g>
<!-- Node1&#45;&gt;Node15 -->
<g id="edge19" class="edge"><title>Node1&#45;&gt;Node15</title>
<path fill="none" stroke="midnightblue" d="M431.622,-280.368C453.476,-261.733 505.312,-217.532 532.752,-194.134"/>
<polygon fill="midnightblue" stroke="midnightblue" points="535.086,-196.743 540.425,-187.591 530.544,-191.417 535.086,-196.743"/>
</g>
<!-- Node3 -->
<g id="node3" class="node"><title>Node3</title>
<g id="a_node3"><a xlink:href="_string_8h.html" target="_top" xlink:title="Cpl/Text/String.h">
<polygon fill="white" stroke="black" points="189,-168.5 189,-187.5 278,-187.5 278,-168.5 189,-168.5"/>
<text text-anchor="middle" x="233.5" y="-175.5" font-family="Helvetica,sans-Serif" font-size="10.00">Cpl/Text/String.h</text>
</a>
</g>
</g>
<!-- Node2&#45;&gt;Node3 -->
<g id="edge2" class="edge"><title>Node2&#45;&gt;Node3</title>
<path fill="none" stroke="midnightblue" d="M294.771,-224.324C283.663,-216.107 266.758,-203.602 253.517,-193.807"/>
<polygon fill="midnightblue" stroke="midnightblue" points="255.563,-190.967 245.442,-187.834 251.4,-196.595 255.563,-190.967"/>
</g>
<!-- Node4 -->
<g id="node4" class="node"><title>Node4</title>
<polygon fill="white" stroke="#bfbfbf" points="316.5,-112.5 316.5,-131.5 368.5,-131.5 368.5,-112.5 316.5,-112.5"/>
<text text-anchor="middle" x="342.5" y="-119.5" font-family="Helvetica,sans-Serif" font-size="10.00">stdarg.h</text>
</g>
<!-- Node2&#45;&gt;Node4 -->
<g id="edge13" class="edge"><title>Node2&#45;&gt;Node4</title>
<path fill="none" stroke="midnightblue" d="M309.325,-224.368C315.161,-206.537 328.658,-165.295 336.52,-141.272"/>
<polygon fill="midnightblue" stroke="midnightblue" points="339.904,-142.184 339.688,-131.591 333.251,-140.007 339.904,-142.184"/>
</g>
<!-- Node12 -->
<g id="node12" class="node"><title>Node12</title>
<g id="a_node12"><a xlink:href="_item_8h.html" target="_top" xlink:title="Cpl/Container/Item.h">
<polygon fill="white" stroke="black" points="392,-112.5 392,-131.5 497,-131.5 497,-112.5 392,-112.5"/>
<text text-anchor="middle" x="444.5" y="-119.5" font-family="Helvetica,sans-Serif" font-size="10.00">Cpl/Container/Item.h</text>
</a>
</g>
</g>
<!-- Node2&#45;&gt;Node12 -->
<g id="edge12" class="edge"><title>Node2&#45;&gt;Node12</title>
<path fill="none" stroke="midnightblue" d="M317.329,-224.368C340.808,-205.653 396.638,-161.151 425.892,-137.832"/>
<polygon fill="midnightblue" stroke="midnightblue" points="428.084,-140.561 433.722,-131.591 423.72,-135.088 428.084,-140.561"/>
</g>
<!-- Node3&#45;&gt;Node4 -->
<g id="edge3" class="edge"><title>Node3&#45;&gt;Node4</title>
<path fill="none" stroke="midnightblue" d="M251.013,-168.324C268.572,-159.625 295.831,-146.12 316.031,-136.113"/>
<polygon fill="midnightblue" stroke="midnightblue" points="317.624,-139.23 325.031,-131.655 314.516,-132.958 317.624,-139.23"/>
</g>
<!-- Node5 -->
<g id="node5" class="node"><title>Node5</title>
<polygon fill="white" stroke="#bfbfbf" points="206.5,-112.5 206.5,-131.5 260.5,-131.5 260.5,-112.5 206.5,-112.5"/>
<text text-anchor="middle" x="233.5" y="-119.5" font-family="Helvetica,sans-Serif" font-size="10.00">iostream</text>
</g>
<!-- Node3&#45;&gt;Node5 -->
<g id="edge4" class="edge"><title>Node3&#45;&gt;Node5</title>
<path fill="none" stroke="midnightblue" d="M233.5,-168.083C233.5,-161.006 233.5,-150.861 233.5,-141.986"/>
<polygon fill="midnightblue" stroke="midnightblue" points="237,-141.751 233.5,-131.751 230,-141.751 237,-141.751"/>
</g>
<!-- Node6 -->
<g id="node6" class="node"><title>Node6</title>
<g id="a_node6"><a xlink:href="_key_8h.html" target="_top" xlink:title="Cpl/Container/Key.h">
<polygon fill="white" stroke="black" points="84.5,-112.5 84.5,-131.5 188.5,-131.5 188.5,-112.5 84.5,-112.5"/>
<text text-anchor="middle" x="136.5" y="-119.5" font-family="Helvetica,sans-Serif" font-size="10.00">Cpl/Container/Key.h</text>
</a>
</g>
</g>
<!-- Node3&#45;&gt;Node6 -->
<g id="edge5" class="edge"><title>Node3&#45;&gt;Node6</title>
<path fill="none" stroke="midnightblue" d="M217.915,-168.324C202.501,-159.743 178.688,-146.486 160.79,-136.522"/>
<polygon fill="midnightblue" stroke="midnightblue" points="162.486,-133.461 152.046,-131.655 159.081,-139.577 162.486,-133.461"/>
</g>
<!-- Node11 -->
<g id="node11" class="node"><title>Node11</title>
<polygon fill="white" stroke="#bfbfbf" points="250,-56.5 250,-75.5 327,-75.5 327,-56.5 250,-56.5"/>
<text text-anchor="middle" x="288.5" y="-63.5" font-family="Helvetica,sans-Serif" font-size="10.00">colony_map.h</text>
</g>
<!-- Node3&#45;&gt;Node11 -->
<g id="edge11" class="edge"><title>Node3&#45;&gt;Node11</title>
<path fill="none" stroke="midnightblue" d="M242.081,-168.431C250.203,-159.879 262.206,-146.025 269.5,-132 277.128,-117.332 282.109,-99.1649 285.049,-85.7692"/>
<polygon fill="midnightblue" stroke="midnightblue" points="288.51,-86.3147 287.052,-75.8206 281.647,-84.933 288.51,-86.3147"/>
</g>
<!-- Node7 -->
<g id="node7" class="node"><title>Node7</title>
<g id="a_node7"><a xlink:href="_fatal_error_8h.html" target="_top" xlink:title="Cpl/System/FatalError.h">
<polygon fill="white" stroke="black" points="7.5,-56.5 7.5,-75.5 129.5,-75.5 129.5,-56.5 7.5,-56.5"/>
<text text-anchor="middle" x="68.5" y="-63.5" font-family="Helvetica,sans-Serif" font-size="10.00">Cpl/System/FatalError.h</text>
</a>
</g>
</g>
<!-- Node6&#45;&gt;Node7 -->
<g id="edge6" class="edge"><title>Node6&#45;&gt;Node7</title>
<path fill="none" stroke="midnightblue" d="M125.575,-112.324C115.325,-104.185 99.7794,-91.8395 87.499,-82.0874"/>
<polygon fill="midnightblue" stroke="midnightblue" points="89.6319,-79.3119 79.6242,-75.8339 85.2787,-84.7937 89.6319,-79.3119"/>
</g>
<!-- Node10 -->
<g id="node10" class="node"><title>Node10</title>
<polygon fill="white" stroke="#bfbfbf" points="148,-56.5 148,-75.5 197,-75.5 197,-56.5 148,-56.5"/>
<text text-anchor="middle" x="172.5" y="-63.5" font-family="Helvetica,sans-Serif" font-size="10.00">stdint.h</text>
</g>
<!-- Node6&#45;&gt;Node10 -->
<g id="edge9" class="edge"><title>Node6&#45;&gt;Node10</title>
<path fill="none" stroke="midnightblue" d="M142.445,-112.083C147.477,-104.534 154.837,-93.4948 161.013,-84.2298"/>
<polygon fill="midnightblue" stroke="midnightblue" points="164.031,-86.0131 166.666,-75.7511 158.207,-82.1301 164.031,-86.0131"/>
</g>
<!-- Node6&#45;&gt;Node11 -->
<g id="edge10" class="edge"><title>Node6&#45;&gt;Node11</title>
<path fill="none" stroke="midnightblue" d="M160.585,-112.444C186.045,-103.399 226.394,-89.064 254.959,-78.9158"/>
<polygon fill="midnightblue" stroke="midnightblue" points="256.277,-82.1622 264.528,-75.5164 253.933,-75.5661 256.277,-82.1622"/>
</g>
<!-- Node8 -->
<g id="node8" class="node"><title>Node8</title>
<polygon fill="white" stroke="#bfbfbf" points="0,-0.5 0,-19.5 51,-19.5 51,-0.5 0,-0.5"/>
<text text-anchor="middle" x="25.5" y="-7.5" font-family="Helvetica,sans-Serif" font-size="10.00">stddef.h</text>
</g>
<!-- Node7&#45;&gt;Node8 -->
<g id="edge7" class="edge"><title>Node7&#45;&gt;Node8</title>
<path fill="none" stroke="midnightblue" d="M61.3994,-56.083C55.263,-48.3768 46.2303,-37.0333 38.7608,-27.6531"/>
<polygon fill="midnightblue" stroke="midnightblue" points="41.4357,-25.3936 32.4685,-19.7511 35.9598,-29.7542 41.4357,-25.3936"/>
</g>
<!-- Node9 -->
<g id="node9" class="node"><title>Node9</title>
<polygon fill="white" stroke="#bfbfbf" points="69.5,-0.5 69.5,-19.5 153.5,-19.5 153.5,-0.5 69.5,-0.5"/>
<text text-anchor="middle" x="111.5" y="-7.5" font-family="Helvetica,sans-Serif" font-size="10.00">colony_config.h</text>
</g>
<!-- Node7&#45;&gt;Node9 -->
<g id="edge8" class="edge"><title>Node7&#45;&gt;Node9</title>
<path fill="none" stroke="midnightblue" d="M75.6006,-56.083C81.737,-48.3768 90.7697,-37.0333 98.2392,-27.6531"/>
<polygon fill="midnightblue" stroke="midnightblue" points="101.04,-29.7542 104.532,-19.7511 95.5643,-25.3936 101.04,-29.7542"/>
</g>
<!-- Node13&#45;&gt;Node3 -->
<g id="edge15" class="edge"><title>Node13&#45;&gt;Node3</title>
<path fill="none" stroke="midnightblue" d="M391.711,-224.444C359.671,-215.241 308.567,-200.562 273.147,-190.388"/>
<polygon fill="midnightblue" stroke="midnightblue" points="273.727,-186.913 263.15,-187.516 271.795,-193.641 273.727,-186.913"/>
</g>
<!-- Node13&#45;&gt;Node4 -->
<g id="edge18" class="edge"><title>Node13&#45;&gt;Node4</title>
<path fill="none" stroke="midnightblue" d="M415.301,-224.368C402.264,-206.215 371.803,-163.802 354.702,-139.99"/>
<polygon fill="midnightblue" stroke="midnightblue" points="357.346,-137.672 348.67,-131.591 351.661,-141.755 357.346,-137.672"/>
</g>
<!-- Node14 -->
<g id="node14" class="node"><title>Node14</title>
<g id="a_node14"><a xlink:href="_close_8h.html" target="_top" xlink:title="Cpl/Io/Close.h">
<polygon fill="white" stroke="black" points="411,-168.5 411,-187.5 488,-187.5 488,-168.5 411,-168.5"/>
<text text-anchor="middle" x="449.5" y="-175.5" font-family="Helvetica,sans-Serif" font-size="10.00">Cpl/Io/Close.h</text>
</a>
</g>
</g>
<!-- Node13&#45;&gt;Node14 -->
<g id="edge16" class="edge"><title>Node13&#45;&gt;Node14</title>
<path fill="none" stroke="midnightblue" d="M426.124,-224.083C429.956,-216.691 435.524,-205.953 440.265,-196.811"/>
<polygon fill="midnightblue" stroke="midnightblue" points="443.466,-198.24 444.962,-187.751 437.252,-195.018 443.466,-198.24"/>
</g>
<!-- Node14&#45;&gt;Node12 -->
<g id="edge17" class="edge"><title>Node14&#45;&gt;Node12</title>
<path fill="none" stroke="midnightblue" d="M448.674,-168.083C448.019,-161.006 447.08,-150.861 446.258,-141.986"/>
<polygon fill="midnightblue" stroke="midnightblue" points="449.717,-141.386 445.31,-131.751 442.747,-142.031 449.717,-141.386"/>
</g>
<!-- Node15&#45;&gt;Node11 -->
<g id="edge20" class="edge"><title>Node15&#45;&gt;Node11</title>
<path fill="none" stroke="midnightblue" d="M547.021,-168.239C540.896,-154.021 526.786,-126.094 505.5,-112 454.798,-78.4284 383.991,-69.1574 337.229,-66.9778"/>
<polygon fill="midnightblue" stroke="midnightblue" points="337.174,-63.4734 327.05,-66.5975 336.913,-70.4685 337.174,-63.4734"/>
</g>
</g>
</svg>
