<?xml version="1.0" encoding="UTF-8" standalone="no"?>
<!DOCTYPE svg PUBLIC "-//W3C//DTD SVG 1.1//EN"
 "http://www.w3.org/Graphics/SVG/1.1/DTD/svg11.dtd">
<!-- Generated by graphviz version 2.38.0 (20140413.2041)
 -->
<!-- Title: LineWriterApi.h Pages: 1 -->
<svg width="321pt" height="252pt"
 viewBox="0.00 0.00 320.50 252.00" xmlns="http://www.w3.org/2000/svg" xmlns:xlink="http://www.w3.org/1999/xlink">
<g id="graph0" class="graph" transform="scale(1 1) rotate(0) translate(4 248)">
<title>LineWriterApi.h</title>
<polygon fill="white" stroke="none" points="-4,4 -4,-248 316.5,-248 316.5,4 -4,4"/>
<!-- Node1 -->
<g id="node1" class="node"><title>Node1</title>
<polygon fill="#bfbfbf" stroke="black" points="57.5,-224.5 57.5,-243.5 140.5,-243.5 140.5,-224.5 57.5,-224.5"/>
<text text-anchor="middle" x="99" y="-231.5" font-family="Helvetica,sans-Serif" font-size="10.00">LineWriterApi.h</text>
</g>
<!-- Node2 -->
<g id="node2" class="node"><title>Node2</title>
<g id="a_node2"><a xlink:href="_string_8h.html" target="_top" xlink:title="Cpl/Text/String.h">
<polygon fill="white" stroke="black" points="54.5,-168.5 54.5,-187.5 143.5,-187.5 143.5,-168.5 54.5,-168.5"/>
<text text-anchor="middle" x="99" y="-175.5" font-family="Helvetica,sans-Serif" font-size="10.00">Cpl/Text/String.h</text>
</a>
</g>
</g>
<!-- Node1&#45;&gt;Node2 -->
<g id="edge1" class="edge"><title>Node1&#45;&gt;Node2</title>
<path fill="none" stroke="midnightblue" d="M99,-224.083C99,-217.006 99,-206.861 99,-197.986"/>
<polygon fill="midnightblue" stroke="midnightblue" points="102.5,-197.751 99,-187.751 95.5001,-197.751 102.5,-197.751"/>
</g>
<!-- Node3 -->
<g id="node3" class="node"><title>Node3</title>
<polygon fill="white" stroke="#bfbfbf" points="0,-112.5 0,-131.5 52,-131.5 52,-112.5 0,-112.5"/>
<text text-anchor="middle" x="26" y="-119.5" font-family="Helvetica,sans-Serif" font-size="10.00">stdarg.h</text>
</g>
<!-- Node1&#45;&gt;Node3 -->
<g id="edge12" class="edge"><title>Node1&#45;&gt;Node3</title>
<path fill="none" stroke="midnightblue" d="M84.5396,-224.435C72.2994,-216.469 55.1689,-203.514 45,-188 35.8356,-174.019 30.9901,-155.517 28.493,-141.829"/>
<polygon fill="midnightblue" stroke="midnightblue" points="31.9071,-141.007 26.9045,-131.668 24.9911,-142.088 31.9071,-141.007"/>
</g>
<!-- Node11 -->
<g id="node11" class="node"><title>Node11</title>
<g id="a_node11"><a xlink:href="_item_8h.html" target="_top" xlink:title="Cpl/Container/Item.h">
<polygon fill="white" stroke="black" points="161.5,-168.5 161.5,-187.5 266.5,-187.5 266.5,-168.5 161.5,-168.5"/>
<text text-anchor="middle" x="214" y="-175.5" font-family="Helvetica,sans-Serif" font-size="10.00">Cpl/Container/Item.h</text>
</a>
</g>
</g>
<!-- Node1&#45;&gt;Node11 -->
<g id="edge11" class="edge"><title>Node1&#45;&gt;Node11</title>
<path fill="none" stroke="midnightblue" d="M117.222,-224.444C135.896,-215.675 165.156,-201.935 186.617,-191.858"/>
<polygon fill="midnightblue" stroke="midnightblue" points="188.299,-194.935 195.863,-187.516 185.324,-188.599 188.299,-194.935"/>
</g>
<!-- Node2&#45;&gt;Node3 -->
<g id="edge2" class="edge"><title>Node2&#45;&gt;Node3</title>
<path fill="none" stroke="midnightblue" d="M87.2713,-168.324C76.1626,-160.107 59.2578,-147.602 46.0167,-137.807"/>
<polygon fill="midnightblue" stroke="midnightblue" points="48.0631,-134.967 37.9421,-131.834 43.9001,-140.595 48.0631,-134.967"/>
</g>
<!-- Node4 -->
<g id="node4" class="node"><title>Node4</title>
<polygon fill="white" stroke="#bfbfbf" points="70,-112.5 70,-131.5 124,-131.5 124,-112.5 70,-112.5"/>
<text text-anchor="middle" x="97" y="-119.5" font-family="Helvetica,sans-Serif" font-size="10.00">iostream</text>
</g>
<!-- Node2&#45;&gt;Node4 -->
<g id="edge3" class="edge"><title>Node2&#45;&gt;Node4</title>
<path fill="none" stroke="midnightblue" d="M98.6697,-168.083C98.4076,-161.006 98.0319,-150.861 97.7032,-141.986"/>
<polygon fill="midnightblue" stroke="midnightblue" points="101.192,-141.615 97.3241,-131.751 94.1967,-141.874 101.192,-141.615"/>
</g>
<!-- Node5 -->
<g id="node5" class="node"><title>Node5</title>
<g id="a_node5"><a xlink:href="_key_8h.html" target="_top" xlink:title="Cpl/Container/Key.h">
<polygon fill="white" stroke="black" points="142,-112.5 142,-131.5 246,-131.5 246,-112.5 142,-112.5"/>
<text text-anchor="middle" x="194" y="-119.5" font-family="Helvetica,sans-Serif" font-size="10.00">Cpl/Container/Key.h</text>
</a>
</g>
</g>
<!-- Node2&#45;&gt;Node5 -->
<g id="edge4" class="edge"><title>Node2&#45;&gt;Node5</title>
<path fill="none" stroke="midnightblue" d="M114.263,-168.324C129.221,-159.822 152.255,-146.729 169.727,-136.797"/>
<polygon fill="midnightblue" stroke="midnightblue" points="171.81,-139.639 178.774,-131.655 168.351,-133.553 171.81,-139.639"/>
</g>
<!-- Node10 -->
<g id="node10" class="node"><title>Node10</title>
<polygon fill="white" stroke="#bfbfbf" points="235.5,-56.5 235.5,-75.5 312.5,-75.5 312.5,-56.5 235.5,-56.5"/>
<text text-anchor="middle" x="274" y="-63.5" font-family="Helvetica,sans-Serif" font-size="10.00">colony_map.h</text>
</g>
<!-- Node2&#45;&gt;Node10 -->
<g id="edge10" class="edge"><title>Node2&#45;&gt;Node10</title>
<path fill="none" stroke="midnightblue" d="M143.529,-169.099C183.852,-161.09 239.276,-147.668 255,-132 267.091,-119.951 271.579,-100.662 273.199,-86.2207"/>
<polygon fill="midnightblue" stroke="midnightblue" points="276.714,-86.1432 273.973,-75.9091 269.734,-85.6189 276.714,-86.1432"/>
</g>
<!-- Node6 -->
<g id="node6" class="node"><title>Node6</title>
<g id="a_node6"><a xlink:href="_fatal_error_8h.html" target="_top" xlink:title="Cpl/System/FatalError.h">
<polygon fill="white" stroke="black" points="28,-56.5 28,-75.5 150,-75.5 150,-56.5 28,-56.5"/>
<text text-anchor="middle" x="89" y="-63.5" font-family="Helvetica,sans-Serif" font-size="10.00">Cpl/System/FatalError.h</text>
</a>
</g>
</g>
<!-- Node5&#45;&gt;Node6 -->
<g id="edge5" class="edge"><title>Node5&#45;&gt;Node6</title>
<path fill="none" stroke="midnightblue" d="M177.13,-112.324C160.291,-103.664 134.193,-90.2424 114.762,-80.249"/>
<polygon fill="midnightblue" stroke="midnightblue" points="116.322,-77.1155 105.828,-75.6545 113.12,-83.3405 116.322,-77.1155"/>
</g>
<!-- Node9 -->
<g id="node9" class="node"><title>Node9</title>
<polygon fill="white" stroke="#bfbfbf" points="168.5,-56.5 168.5,-75.5 217.5,-75.5 217.5,-56.5 168.5,-56.5"/>
<text text-anchor="middle" x="193" y="-63.5" font-family="Helvetica,sans-Serif" font-size="10.00">stdint.h</text>
</g>
<!-- Node5&#45;&gt;Node9 -->
<g id="edge8" class="edge"><title>Node5&#45;&gt;Node9</title>
<path fill="none" stroke="midnightblue" d="M193.835,-112.083C193.704,-105.006 193.516,-94.8611 193.352,-85.9865"/>
<polygon fill="midnightblue" stroke="midnightblue" points="196.847,-85.6845 193.162,-75.7511 189.848,-85.8142 196.847,-85.6845"/>
</g>
<!-- Node5&#45;&gt;Node10 -->
<g id="edge9" class="edge"><title>Node5&#45;&gt;Node10</title>
<path fill="none" stroke="midnightblue" d="M206.853,-112.324C219.216,-103.979 238.13,-91.2122 252.737,-81.3524"/>
<polygon fill="midnightblue" stroke="midnightblue" points="254.848,-84.1503 261.179,-75.6545 250.932,-78.3483 254.848,-84.1503"/>
</g>
<!-- Node7 -->
<g id="node7" class="node"><title>Node7</title>
<polygon fill="white" stroke="#bfbfbf" points="20.5,-0.5 20.5,-19.5 71.5,-19.5 71.5,-0.5 20.5,-0.5"/>
<text text-anchor="middle" x="46" y="-7.5" font-family="Helvetica,sans-Serif" font-size="10.00">stddef.h</text>
</g>
<!-- Node6&#45;&gt;Node7 -->
<g id="edge6" class="edge"><title>Node6&#45;&gt;Node7</title>
<path fill="none" stroke="midnightblue" d="M81.8994,-56.083C75.763,-48.3768 66.7303,-37.0333 59.2608,-27.6531"/>
<polygon fill="midnightblue" stroke="midnightblue" points="61.9357,-25.3936 52.9685,-19.7511 56.4598,-29.7542 61.9357,-25.3936"/>
</g>
<!-- Node8 -->
<g id="node8" class="node"><title>Node8</title>
<polygon fill="white" stroke="#bfbfbf" points="90,-0.5 90,-19.5 174,-19.5 174,-0.5 90,-0.5"/>
<text text-anchor="middle" x="132" y="-7.5" font-family="Helvetica,sans-Serif" font-size="10.00">colony_config.h</text>
</g>
<!-- Node6&#45;&gt;Node8 -->
<g id="edge7" class="edge"><title>Node6&#45;&gt;Node8</title>
<path fill="none" stroke="midnightblue" d="M96.1006,-56.083C102.237,-48.3768 111.27,-37.0333 118.739,-27.6531"/>
<polygon fill="midnightblue" stroke="midnightblue" points="121.54,-29.7542 125.032,-19.7511 116.064,-25.3936 121.54,-29.7542"/>
</g>
</g>
</svg>
