<?xml version="1.0" encoding="UTF-8" standalone="no"?>
<!DOCTYPE svg PUBLIC "-//W3C//DTD SVG 1.1//EN"
 "http://www.w3.org/Graphics/SVG/1.1/DTD/svg11.dtd">
<!-- Generated by graphviz version 2.38.0 (20140413.2041)
 -->
<!-- Title: ListenerClientSync.h Pages: 1 -->
<svg width="491pt" height="375pt"
 viewBox="0.00 0.00 490.50 375.00" xmlns="http://www.w3.org/2000/svg" xmlns:xlink="http://www.w3.org/1999/xlink">
<g id="graph0" class="graph" transform="scale(1 1) rotate(0) translate(4 371)">
<title>ListenerClientSync.h</title>
<polygon fill="white" stroke="none" points="-4,4 -4,-371 486.5,-371 486.5,4 -4,4"/>
<!-- Node1 -->
<g id="node1" class="node"><title>Node1</title>
<polygon fill="#bfbfbf" stroke="black" points="198,-347.5 198,-366.5 305,-366.5 305,-347.5 198,-347.5"/>
<text text-anchor="middle" x="251.5" y="-354.5" font-family="Helvetica,sans-Serif" font-size="10.00">ListenerClientSync.h</text>
</g>
<!-- Node2 -->
<g id="node2" class="node"><title>Node2</title>
<g id="a_node2"><a xlink:href="_listener_8h.html" target="_top" xlink:title="Cpl/Io/Socket/Listener.h">
<polygon fill="white" stroke="black" points="114,-224.5 114,-243.5 235,-243.5 235,-224.5 114,-224.5"/>
<text text-anchor="middle" x="174.5" y="-231.5" font-family="Helvetica,sans-Serif" font-size="10.00">Cpl/Io/Socket/Listener.h</text>
</a>
</g>
</g>
<!-- Node1&#45;&gt;Node2 -->
<g id="edge1" class="edge"><title>Node1&#45;&gt;Node2</title>
<path fill="none" stroke="midnightblue" d="M245.962,-347.298C233.309,-327.414 202.088,-278.352 185.412,-252.147"/>
<polygon fill="midnightblue" stroke="midnightblue" points="188.309,-250.181 179.987,-243.623 182.403,-253.939 188.309,-250.181"/>
</g>
<!-- Node5 -->
<g id="node5" class="node"><title>Node5</title>
<g id="a_node5"><a xlink:href="_listener_client_request_8h.html" target="_top" xlink:title="Cpl/Io/Socket/ListenerClient\lRequest.h">
<polygon fill="white" stroke="black" points="238,-280.5 238,-310.5 375,-310.5 375,-280.5 238,-280.5"/>
<text text-anchor="start" x="246" y="-298.5" font-family="Helvetica,sans-Serif" font-size="10.00">Cpl/Io/Socket/ListenerClient</text>
<text text-anchor="middle" x="306.5" y="-287.5" font-family="Helvetica,sans-Serif" font-size="10.00">Request.h</text>
</a>
</g>
</g>
<!-- Node1&#45;&gt;Node5 -->
<g id="edge4" class="edge"><title>Node1&#45;&gt;Node5</title>
<path fill="none" stroke="midnightblue" d="M259.38,-347.475C266.481,-339.793 277.224,-328.172 286.659,-317.964"/>
<polygon fill="midnightblue" stroke="midnightblue" points="289.32,-320.242 293.538,-310.523 284.179,-315.491 289.32,-320.242"/>
</g>
<!-- Node3 -->
<g id="node3" class="node"><title>Node3</title>
<g id="a_node3"><a xlink:href="_descriptor_8h.html" target="_top" xlink:title="Cpl/Io/Descriptor.h">
<polygon fill="white" stroke="black" points="0,-168.5 0,-187.5 97,-187.5 97,-168.5 0,-168.5"/>
<text text-anchor="middle" x="48.5" y="-175.5" font-family="Helvetica,sans-Serif" font-size="10.00">Cpl/Io/Descriptor.h</text>
</a>
</g>
</g>
<!-- Node2&#45;&gt;Node3 -->
<g id="edge2" class="edge"><title>Node2&#45;&gt;Node3</title>
<path fill="none" stroke="midnightblue" d="M154.535,-224.444C133.891,-215.596 101.437,-201.687 77.8684,-191.586"/>
<polygon fill="midnightblue" stroke="midnightblue" points="78.9419,-188.239 68.3717,-187.516 76.1844,-194.673 78.9419,-188.239"/>
</g>
<!-- Node4 -->
<g id="node4" class="node"><title>Node4</title>
<g id="a_node4"><a xlink:href="_runnable_8h.html" target="_top" xlink:title="Cpl/System/Runnable.h">
<polygon fill="white" stroke="black" points="115,-168.5 115,-187.5 234,-187.5 234,-168.5 115,-168.5"/>
<text text-anchor="middle" x="174.5" y="-175.5" font-family="Helvetica,sans-Serif" font-size="10.00">Cpl/System/Runnable.h</text>
</a>
</g>
</g>
<!-- Node2&#45;&gt;Node4 -->
<g id="edge3" class="edge"><title>Node2&#45;&gt;Node4</title>
<path fill="none" stroke="midnightblue" d="M174.5,-224.083C174.5,-217.006 174.5,-206.861 174.5,-197.986"/>
<polygon fill="midnightblue" stroke="midnightblue" points="178,-197.751 174.5,-187.751 171,-197.751 178,-197.751"/>
</g>
<!-- Node5&#45;&gt;Node2 -->
<g id="edge5" class="edge"><title>Node5&#45;&gt;Node2</title>
<path fill="none" stroke="midnightblue" d="M275.218,-280.399C253.268,-270.505 224.157,-257.383 202.879,-247.792"/>
<polygon fill="midnightblue" stroke="midnightblue" points="204.262,-244.576 193.707,-243.658 201.386,-250.958 204.262,-244.576"/>
</g>
<!-- Node6 -->
<g id="node6" class="node"><title>Node6</title>
<g id="a_node6"><a xlink:href="_request_message_8h.html" target="_top" xlink:title="Cpl/Itc/RequestMessage.h">
<polygon fill="white" stroke="black" points="253,-224.5 253,-243.5 384,-243.5 384,-224.5 253,-224.5"/>
<text text-anchor="middle" x="318.5" y="-231.5" font-family="Helvetica,sans-Serif" font-size="10.00">Cpl/Itc/RequestMessage.h</text>
</a>
</g>
</g>
<!-- Node5&#45;&gt;Node6 -->
<g id="edge6" class="edge"><title>Node5&#45;&gt;Node6</title>
<path fill="none" stroke="midnightblue" d="M309.344,-280.399C310.962,-272.377 313.008,-262.233 314.755,-253.569"/>
<polygon fill="midnightblue" stroke="midnightblue" points="318.208,-254.152 316.754,-243.658 311.346,-252.768 318.208,-254.152"/>
</g>
<!-- Node11 -->
<g id="node11" class="node"><title>Node11</title>
<g id="a_node11"><a xlink:href="_s_a_p_8h.html" target="_top" xlink:title="Cpl/Itc/SAP.h">
<polygon fill="white" stroke="black" points="397.5,-168.5 397.5,-187.5 473.5,-187.5 473.5,-168.5 397.5,-168.5"/>
<text text-anchor="middle" x="435.5" y="-175.5" font-family="Helvetica,sans-Serif" font-size="10.00">Cpl/Itc/SAP.h</text>
</a>
</g>
</g>
<!-- Node5&#45;&gt;Node11 -->
<g id="edge14" class="edge"><title>Node5&#45;&gt;Node11</title>
<path fill="none" stroke="midnightblue" d="M337.847,-280.478C355.251,-271.674 376.541,-259.127 392.5,-244 406.882,-230.368 418.881,-211.06 426.517,-197.032"/>
<polygon fill="midnightblue" stroke="midnightblue" points="429.756,-198.392 431.278,-187.907 423.55,-195.154 429.756,-198.392"/>
</g>
<!-- Node7 -->
<g id="node7" class="node"><title>Node7</title>
<g id="a_node7"><a xlink:href="_service_message_8h.html" target="_top" xlink:title="Cpl/Itc/ServiceMessage.h">
<polygon fill="white" stroke="black" points="252,-168.5 252,-187.5 379,-187.5 379,-168.5 252,-168.5"/>
<text text-anchor="middle" x="315.5" y="-175.5" font-family="Helvetica,sans-Serif" font-size="10.00">Cpl/Itc/ServiceMessage.h</text>
</a>
</g>
</g>
<!-- Node6&#45;&gt;Node7 -->
<g id="edge7" class="edge"><title>Node6&#45;&gt;Node7</title>
<path fill="none" stroke="midnightblue" d="M318.005,-224.083C317.611,-217.006 317.048,-206.861 316.555,-197.986"/>
<polygon fill="midnightblue" stroke="midnightblue" points="320.036,-197.542 315.986,-187.751 313.046,-197.93 320.036,-197.542"/>
</g>
<!-- Node6&#45;&gt;Node11 -->
<g id="edge11" class="edge"><title>Node6&#45;&gt;Node11</title>
<path fill="none" stroke="midnightblue" d="M337.039,-224.444C356.123,-215.636 386.075,-201.812 407.936,-191.722"/>
<polygon fill="midnightblue" stroke="midnightblue" points="409.435,-194.885 417.048,-187.516 406.501,-188.529 409.435,-194.885"/>
</g>
<!-- Node8 -->
<g id="node8" class="node"><title>Node8</title>
<g id="a_node8"><a xlink:href="_message_8h.html" target="_top" xlink:title="Cpl/Itc/Message.h">
<polygon fill="white" stroke="black" points="285,-56.5 285,-75.5 380,-75.5 380,-56.5 285,-56.5"/>
<text text-anchor="middle" x="332.5" y="-63.5" font-family="Helvetica,sans-Serif" font-size="10.00">Cpl/Itc/Message.h</text>
</a>
</g>
</g>
<!-- Node7&#45;&gt;Node8 -->
<g id="edge8" class="edge"><title>Node7&#45;&gt;Node8</title>
<path fill="none" stroke="midnightblue" d="M293.661,-168.371C268.688,-157.135 233.011,-136.065 247.5,-112 256.787,-96.5744 273.333,-86.1596 289.374,-79.2713"/>
<polygon fill="midnightblue" stroke="midnightblue" points="290.67,-82.5224 298.701,-75.6119 288.114,-76.006 290.67,-82.5224"/>
</g>
<!-- Node10 -->
<g id="node10" class="node"><title>Node10</title>
<g id="a_node10"><a xlink:href="_return_handler_8h.html" target="_top" xlink:title="Cpl/Itc/ReturnHandler.h">
<polygon fill="white" stroke="black" points="257,-112.5 257,-131.5 374,-131.5 374,-112.5 257,-112.5"/>
<text text-anchor="middle" x="315.5" y="-119.5" font-family="Helvetica,sans-Serif" font-size="10.00">Cpl/Itc/ReturnHandler.h</text>
</a>
</g>
</g>
<!-- Node7&#45;&gt;Node10 -->
<g id="edge10" class="edge"><title>Node7&#45;&gt;Node10</title>
<path fill="none" stroke="midnightblue" d="M315.5,-168.083C315.5,-161.006 315.5,-150.861 315.5,-141.986"/>
<polygon fill="midnightblue" stroke="midnightblue" points="319,-141.751 315.5,-131.751 312,-141.751 319,-141.751"/>
</g>
<!-- Node9 -->
<g id="node9" class="node"><title>Node9</title>
<g id="a_node9"><a xlink:href="_item_8h.html" target="_top" xlink:title="Cpl/Container/Item.h">
<polygon fill="white" stroke="black" points="280,-0.5 280,-19.5 385,-19.5 385,-0.5 280,-0.5"/>
<text text-anchor="middle" x="332.5" y="-7.5" font-family="Helvetica,sans-Serif" font-size="10.00">Cpl/Container/Item.h</text>
</a>
</g>
</g>
<!-- Node8&#45;&gt;Node9 -->
<g id="edge9" class="edge"><title>Node8&#45;&gt;Node9</title>
<path fill="none" stroke="midnightblue" d="M332.5,-56.083C332.5,-49.0059 332.5,-38.8611 332.5,-29.9865"/>
<polygon fill="midnightblue" stroke="midnightblue" points="336,-29.751 332.5,-19.7511 329,-29.7511 336,-29.751"/>
</g>
<!-- Node12 -->
<g id="node12" class="node"><title>Node12</title>
<g id="a_node12"><a xlink:href="_post_api_8h.html" target="_top" xlink:title="Cpl/Itc/PostApi.h">
<polygon fill="white" stroke="black" points="392.5,-112.5 392.5,-131.5 482.5,-131.5 482.5,-112.5 392.5,-112.5"/>
<text text-anchor="middle" x="437.5" y="-119.5" font-family="Helvetica,sans-Serif" font-size="10.00">Cpl/Itc/PostApi.h</text>
</a>
</g>
</g>
<!-- Node11&#45;&gt;Node12 -->
<g id="edge12" class="edge"><title>Node11&#45;&gt;Node12</title>
<path fill="none" stroke="midnightblue" d="M435.83,-168.083C436.092,-161.006 436.468,-150.861 436.797,-141.986"/>
<polygon fill="midnightblue" stroke="midnightblue" points="440.303,-141.874 437.176,-131.751 433.308,-141.615 440.303,-141.874"/>
</g>
<!-- Node12&#45;&gt;Node8 -->
<g id="edge13" class="edge"><title>Node12&#45;&gt;Node8</title>
<path fill="none" stroke="midnightblue" d="M420.63,-112.324C403.791,-103.664 377.693,-90.2424 358.262,-80.249"/>
<polygon fill="midnightblue" stroke="midnightblue" points="359.822,-77.1155 349.328,-75.6545 356.62,-83.3405 359.822,-77.1155"/>
</g>
</g>
</svg>
