<?xml version="1.0" encoding="UTF-8" standalone="no"?>
<!DOCTYPE svg PUBLIC "-//W3C//DTD SVG 1.1//EN"
 "http://www.w3.org/Graphics/SVG/1.1/DTD/svg11.dtd">
<!-- Generated by graphviz version 2.38.0 (20140413.2041)
 -->
<!-- Title: Listener.h Pages: 1 -->
<svg width="166pt" height="140pt"
 viewBox="0.00 0.00 165.50 140.00" xmlns="http://www.w3.org/2000/svg" xmlns:xlink="http://www.w3.org/1999/xlink">
<g id="graph0" class="graph" transform="scale(1 1) rotate(0) translate(4 136)">
<title>Listener.h</title>
<polygon fill="white" stroke="none" points="-4,4 -4,-136 161.5,-136 161.5,4 -4,4"/>
<!-- Node1 -->
<g id="node1" class="node"><title>Node1</title>
<polygon fill="#bfbfbf" stroke="black" points="74.5,-112.5 74.5,-131.5 133.5,-131.5 133.5,-112.5 74.5,-112.5"/>
<text text-anchor="middle" x="104" y="-119.5" font-family="Helvetica,sans-Serif" font-size="10.00">Listener.h</text>
</g>
<!-- Node2 -->
<g id="node2" class="node"><title>Node2</title>
<g id="a_node2"><a xlink:href="_listener_client_request_8h.html" target="_top" xlink:title="ListenerClientRequest.h">
<polygon fill="white" stroke="black" points="0,-56.5 0,-75.5 120,-75.5 120,-56.5 0,-56.5"/>
<text text-anchor="middle" x="60" y="-63.5" font-family="Helvetica,sans-Serif" font-size="10.00">ListenerClientRequest.h</text>
</a>
</g>
</g>
<!-- Node1&#45;&gt;Node2 -->
<g id="edge1" class="edge"><title>Node1&#45;&gt;Node2</title>
<path fill="none" stroke="midnightblue" d="M90.2655,-104.144C82.5995,-94.7357 73.3667,-83.4046 67.1305,-75.7511"/>
<polygon fill="midnightblue" stroke="midnightblue" points="87.7042,-106.541 96.7343,-112.083 93.1309,-102.12 87.7042,-106.541"/>
</g>
<!-- Node3 -->
<g id="node3" class="node"><title>Node3</title>
<g id="a_node3"><a xlink:href="_listener_client_sync_8h.html" target="_top" xlink:title="ListenerClientSync.h">
<polygon fill="white" stroke="black" points="50.5,-0.5 50.5,-19.5 157.5,-19.5 157.5,-0.5 50.5,-0.5"/>
<text text-anchor="middle" x="104" y="-7.5" font-family="Helvetica,sans-Serif" font-size="10.00">ListenerClientSync.h</text>
</a>
</g>
</g>
<!-- Node1&#45;&gt;Node3 -->
<g id="edge3" class="edge"><title>Node1&#45;&gt;Node3</title>
<path fill="none" stroke="midnightblue" d="M116.241,-103.834C121.247,-95.7882 126.454,-85.8248 129,-76 134.398,-55.1668 120.203,-31.8799 111.052,-19.6235"/>
<polygon fill="midnightblue" stroke="midnightblue" points="113.251,-102.01 110.629,-112.275 119.08,-105.886 113.251,-102.01"/>
</g>
<!-- Node2&#45;&gt;Node3 -->
<g id="edge2" class="edge"><title>Node2&#45;&gt;Node3</title>
<path fill="none" stroke="midnightblue" d="M73.7345,-48.144C81.4005,-38.7357 90.6333,-27.4046 96.8695,-19.7511"/>
<polygon fill="midnightblue" stroke="midnightblue" points="70.8691,-46.1198 67.2657,-56.083 76.2958,-50.5415 70.8691,-46.1198"/>
</g>
</g>
</svg>
