<?xml version="1.0" encoding="UTF-8" standalone="no"?>
<!DOCTYPE svg PUBLIC "-//W3C//DTD SVG 1.1//EN"
 "http://www.w3.org/Graphics/SVG/1.1/DTD/svg11.dtd">
<!-- Generated by graphviz version 2.38.0 (20140413.2041)
 -->
<!-- Title: Mailbox.h Pages: 1 -->
<svg width="503pt" height="196pt"
 viewBox="0.00 0.00 502.50 196.00" xmlns="http://www.w3.org/2000/svg" xmlns:xlink="http://www.w3.org/1999/xlink">
<g id="graph0" class="graph" transform="scale(1 1) rotate(0) translate(4 192)">
<title>Mailbox.h</title>
<polygon fill="white" stroke="none" points="-4,4 -4,-192 498.5,-192 498.5,4 -4,4"/>
<!-- Node1 -->
<g id="node1" class="node"><title>Node1</title>
<polygon fill="#bfbfbf" stroke="black" points="190.5,-168.5 190.5,-187.5 249.5,-187.5 249.5,-168.5 190.5,-168.5"/>
<text text-anchor="middle" x="220" y="-175.5" font-family="Helvetica,sans-Serif" font-size="10.00">Mailbox.h</text>
</g>
<!-- Node2 -->
<g id="node2" class="node"><title>Node2</title>
<polygon fill="white" stroke="#bfbfbf" points="0,-112.5 0,-131.5 84,-131.5 84,-112.5 0,-112.5"/>
<text text-anchor="middle" x="42" y="-119.5" font-family="Helvetica,sans-Serif" font-size="10.00">colony_config.h</text>
</g>
<!-- Node1&#45;&gt;Node2 -->
<g id="edge1" class="edge"><title>Node1&#45;&gt;Node2</title>
<path fill="none" stroke="midnightblue" d="M191.795,-168.444C161.59,-159.28 113.489,-144.688 79.9707,-134.519"/>
<polygon fill="midnightblue" stroke="midnightblue" points="80.6581,-131.07 70.0727,-131.516 78.6259,-137.769 80.6581,-131.07"/>
</g>
<!-- Node3 -->
<g id="node3" class="node"><title>Node3</title>
<g id="a_node3"><a xlink:href="_post_api_8h.html" target="_top" xlink:title="Cpl/Itc/PostApi.h">
<polygon fill="white" stroke="black" points="102,-112.5 102,-131.5 192,-131.5 192,-112.5 102,-112.5"/>
<text text-anchor="middle" x="147" y="-119.5" font-family="Helvetica,sans-Serif" font-size="10.00">Cpl/Itc/PostApi.h</text>
</a>
</g>
</g>
<!-- Node1&#45;&gt;Node3 -->
<g id="edge2" class="edge"><title>Node1&#45;&gt;Node3</title>
<path fill="none" stroke="midnightblue" d="M208.271,-168.324C197.163,-160.107 180.258,-147.602 167.017,-137.807"/>
<polygon fill="midnightblue" stroke="midnightblue" points="169.063,-134.967 158.942,-131.834 164.9,-140.595 169.063,-134.967"/>
</g>
<!-- Node6 -->
<g id="node6" class="node"><title>Node6</title>
<g id="a_node6"><a xlink:href="_signable_8h.html" target="_top" xlink:title="Cpl/System/Signable.h">
<polygon fill="white" stroke="black" points="156,-56.5 156,-75.5 272,-75.5 272,-56.5 156,-56.5"/>
<text text-anchor="middle" x="214" y="-63.5" font-family="Helvetica,sans-Serif" font-size="10.00">Cpl/System/Signable.h</text>
</a>
</g>
</g>
<!-- Node1&#45;&gt;Node6 -->
<g id="edge5" class="edge"><title>Node1&#45;&gt;Node6</title>
<path fill="none" stroke="midnightblue" d="M219.529,-168.368C218.561,-150.617 216.327,-109.666 215.014,-85.5974"/>
<polygon fill="midnightblue" stroke="midnightblue" points="218.508,-85.3859 214.469,-75.5914 211.519,-85.7672 218.508,-85.3859"/>
</g>
<!-- Node7 -->
<g id="node7" class="node"><title>Node7</title>
<g id="a_node7"><a xlink:href="_fast_lock_8h.html" target="_top" xlink:title="Cpl/System/FastLock.h">
<polygon fill="white" stroke="black" points="260.5,-112.5 260.5,-131.5 379.5,-131.5 379.5,-112.5 260.5,-112.5"/>
<text text-anchor="middle" x="320" y="-119.5" font-family="Helvetica,sans-Serif" font-size="10.00">Cpl/System/FastLock.h</text>
</a>
</g>
</g>
<!-- Node1&#45;&gt;Node7 -->
<g id="edge7" class="edge"><title>Node1&#45;&gt;Node7</title>
<path fill="none" stroke="midnightblue" d="M236.067,-168.324C251.958,-159.743 276.507,-146.486 294.958,-136.522"/>
<polygon fill="midnightblue" stroke="midnightblue" points="296.837,-139.486 303.973,-131.655 293.511,-133.326 296.837,-139.486"/>
</g>
<!-- Node9 -->
<g id="node9" class="node"><title>Node9</title>
<g id="a_node9"><a xlink:href="_s_list_8h.html" target="_top" xlink:title="Cpl/Container/SList.h">
<polygon fill="white" stroke="black" points="385.5,-56.5 385.5,-75.5 494.5,-75.5 494.5,-56.5 385.5,-56.5"/>
<text text-anchor="middle" x="440" y="-63.5" font-family="Helvetica,sans-Serif" font-size="10.00">Cpl/Container/SList.h</text>
</a>
</g>
</g>
<!-- Node1&#45;&gt;Node9 -->
<g id="edge9" class="edge"><title>Node1&#45;&gt;Node9</title>
<path fill="none" stroke="midnightblue" d="M249.593,-174.685C285.046,-170.712 345.032,-160.083 388,-132 406.457,-119.937 421.385,-99.1634 430.434,-84.3477"/>
<polygon fill="midnightblue" stroke="midnightblue" points="433.506,-86.0272 435.509,-75.6235 427.455,-82.5071 433.506,-86.0272"/>
</g>
<!-- Node4 -->
<g id="node4" class="node"><title>Node4</title>
<g id="a_node4"><a xlink:href="_message_8h.html" target="_top" xlink:title="Cpl/Itc/Message.h">
<polygon fill="white" stroke="black" points="42.5,-56.5 42.5,-75.5 137.5,-75.5 137.5,-56.5 42.5,-56.5"/>
<text text-anchor="middle" x="90" y="-63.5" font-family="Helvetica,sans-Serif" font-size="10.00">Cpl/Itc/Message.h</text>
</a>
</g>
</g>
<!-- Node3&#45;&gt;Node4 -->
<g id="edge3" class="edge"><title>Node3&#45;&gt;Node4</title>
<path fill="none" stroke="midnightblue" d="M137.842,-112.324C129.499,-104.42 116.968,-92.5482 106.823,-82.9377"/>
<polygon fill="midnightblue" stroke="midnightblue" points="108.991,-80.1705 99.3247,-75.8339 104.177,-85.2522 108.991,-80.1705"/>
</g>
<!-- Node5 -->
<g id="node5" class="node"><title>Node5</title>
<g id="a_node5"><a xlink:href="_item_8h.html" target="_top" xlink:title="Cpl/Container/Item.h">
<polygon fill="white" stroke="black" points="161.5,-0.5 161.5,-19.5 266.5,-19.5 266.5,-0.5 161.5,-0.5"/>
<text text-anchor="middle" x="214" y="-7.5" font-family="Helvetica,sans-Serif" font-size="10.00">Cpl/Container/Item.h</text>
</a>
</g>
</g>
<!-- Node4&#45;&gt;Node5 -->
<g id="edge4" class="edge"><title>Node4&#45;&gt;Node5</title>
<path fill="none" stroke="midnightblue" d="M109.648,-56.4435C129.965,-47.5961 161.903,-33.6875 185.098,-23.5865"/>
<polygon fill="midnightblue" stroke="midnightblue" points="186.673,-26.7181 194.444,-19.5164 183.878,-20.3002 186.673,-26.7181"/>
</g>
<!-- Node6&#45;&gt;Node5 -->
<g id="edge6" class="edge"><title>Node6&#45;&gt;Node5</title>
<path fill="none" stroke="midnightblue" d="M214,-56.083C214,-49.0059 214,-38.8611 214,-29.9865"/>
<polygon fill="midnightblue" stroke="midnightblue" points="217.5,-29.751 214,-19.7511 210.5,-29.7511 217.5,-29.751"/>
</g>
<!-- Node8 -->
<g id="node8" class="node"><title>Node8</title>
<polygon fill="white" stroke="#bfbfbf" points="290.5,-56.5 290.5,-75.5 367.5,-75.5 367.5,-56.5 290.5,-56.5"/>
<text text-anchor="middle" x="329" y="-63.5" font-family="Helvetica,sans-Serif" font-size="10.00">colony_map.h</text>
</g>
<!-- Node7&#45;&gt;Node8 -->
<g id="edge8" class="edge"><title>Node7&#45;&gt;Node8</title>
<path fill="none" stroke="midnightblue" d="M321.486,-112.083C322.679,-104.927 324.394,-94.6353 325.885,-85.6911"/>
<polygon fill="midnightblue" stroke="midnightblue" points="329.35,-86.1904 327.541,-75.7511 322.445,-85.0396 329.35,-86.1904"/>
</g>
<!-- Node9&#45;&gt;Node5 -->
<g id="edge10" class="edge"><title>Node9&#45;&gt;Node5</title>
<path fill="none" stroke="midnightblue" d="M404.19,-56.4435C365.012,-47.0826 302.123,-32.0561 259.485,-21.868"/>
<polygon fill="midnightblue" stroke="midnightblue" points="260.182,-18.4363 249.643,-19.5164 258.556,-25.2446 260.182,-18.4363"/>
</g>
</g>
</svg>
