<?xml version="1.0" encoding="UTF-8" standalone="no"?>
<!DOCTYPE svg PUBLIC "-//W3C//DTD SVG 1.1//EN"
 "http://www.w3.org/Graphics/SVG/1.1/DTD/svg11.dtd">
<!-- Generated by graphviz version 2.38.0 (20140413.2041)
 -->
<!-- Title: MapItem.h Pages: 1 -->
<svg width="303pt" height="252pt"
 viewBox="0.00 0.00 303.00 252.00" xmlns="http://www.w3.org/2000/svg" xmlns:xlink="http://www.w3.org/1999/xlink">
<g id="graph0" class="graph" transform="scale(1 1) rotate(0) translate(4 248)">
<title>MapItem.h</title>
<polygon fill="white" stroke="none" points="-4,4 -4,-248 299,-248 299,4 -4,4"/>
<!-- Node1 -->
<g id="node1" class="node"><title>Node1</title>
<polygon fill="#bfbfbf" stroke="black" points="82.5,-224.5 82.5,-243.5 144.5,-243.5 144.5,-224.5 82.5,-224.5"/>
<text text-anchor="middle" x="113.5" y="-231.5" font-family="Helvetica,sans-Serif" font-size="10.00">MapItem.h</text>
</g>
<!-- Node2 -->
<g id="node2" class="node"><title>Node2</title>
<g id="a_node2"><a xlink:href="_dict_item_8h.html" target="_top" xlink:title="Cpl/Container/DictItem.h">
<polygon fill="white" stroke="black" points="52.5,-168.5 52.5,-187.5 174.5,-187.5 174.5,-168.5 52.5,-168.5"/>
<text text-anchor="middle" x="113.5" y="-175.5" font-family="Helvetica,sans-Serif" font-size="10.00">Cpl/Container/DictItem.h</text>
</a>
</g>
</g>
<!-- Node1&#45;&gt;Node2 -->
<g id="edge1" class="edge"><title>Node1&#45;&gt;Node2</title>
<path fill="none" stroke="midnightblue" d="M113.5,-224.083C113.5,-217.006 113.5,-206.861 113.5,-197.986"/>
<polygon fill="midnightblue" stroke="midnightblue" points="117,-197.751 113.5,-187.751 110,-197.751 117,-197.751"/>
</g>
<!-- Node3 -->
<g id="node3" class="node"><title>Node3</title>
<g id="a_node3"><a xlink:href="_item_8h.html" target="_top" xlink:title="Cpl/Container/Item.h">
<polygon fill="white" stroke="black" points="0,-112.5 0,-131.5 105,-131.5 105,-112.5 0,-112.5"/>
<text text-anchor="middle" x="52.5" y="-119.5" font-family="Helvetica,sans-Serif" font-size="10.00">Cpl/Container/Item.h</text>
</a>
</g>
</g>
<!-- Node2&#45;&gt;Node3 -->
<g id="edge2" class="edge"><title>Node2&#45;&gt;Node3</title>
<path fill="none" stroke="midnightblue" d="M103.699,-168.324C94.6819,-160.341 81.094,-148.313 70.182,-138.653"/>
<polygon fill="midnightblue" stroke="midnightblue" points="72.2866,-135.842 62.479,-131.834 67.6467,-141.083 72.2866,-135.842"/>
</g>
<!-- Node4 -->
<g id="node4" class="node"><title>Node4</title>
<g id="a_node4"><a xlink:href="_key_8h.html" target="_top" xlink:title="Cpl/Container/Key.h">
<polygon fill="white" stroke="black" points="123.5,-112.5 123.5,-131.5 227.5,-131.5 227.5,-112.5 123.5,-112.5"/>
<text text-anchor="middle" x="175.5" y="-119.5" font-family="Helvetica,sans-Serif" font-size="10.00">Cpl/Container/Key.h</text>
</a>
</g>
</g>
<!-- Node2&#45;&gt;Node4 -->
<g id="edge3" class="edge"><title>Node2&#45;&gt;Node4</title>
<path fill="none" stroke="midnightblue" d="M123.461,-168.324C132.627,-160.341 146.437,-148.313 157.528,-138.653"/>
<polygon fill="midnightblue" stroke="midnightblue" points="160.115,-141.041 165.357,-131.834 155.518,-135.762 160.115,-141.041"/>
</g>
<!-- Node5 -->
<g id="node5" class="node"><title>Node5</title>
<g id="a_node5"><a xlink:href="_fatal_error_8h.html" target="_top" xlink:title="Cpl/System/FatalError.h">
<polygon fill="white" stroke="black" points="10.5,-56.5 10.5,-75.5 132.5,-75.5 132.5,-56.5 10.5,-56.5"/>
<text text-anchor="middle" x="71.5" y="-63.5" font-family="Helvetica,sans-Serif" font-size="10.00">Cpl/System/FatalError.h</text>
</a>
</g>
</g>
<!-- Node4&#45;&gt;Node5 -->
<g id="edge4" class="edge"><title>Node4&#45;&gt;Node5</title>
<path fill="none" stroke="midnightblue" d="M158.791,-112.324C142.188,-103.703 116.498,-90.3643 97.2795,-80.3855"/>
<polygon fill="midnightblue" stroke="midnightblue" points="98.6558,-77.1565 88.1679,-75.6545 95.43,-83.3689 98.6558,-77.1565"/>
</g>
<!-- Node8 -->
<g id="node8" class="node"><title>Node8</title>
<polygon fill="white" stroke="#bfbfbf" points="151,-56.5 151,-75.5 200,-75.5 200,-56.5 151,-56.5"/>
<text text-anchor="middle" x="175.5" y="-63.5" font-family="Helvetica,sans-Serif" font-size="10.00">stdint.h</text>
</g>
<!-- Node4&#45;&gt;Node8 -->
<g id="edge7" class="edge"><title>Node4&#45;&gt;Node8</title>
<path fill="none" stroke="midnightblue" d="M175.5,-112.083C175.5,-105.006 175.5,-94.8611 175.5,-85.9865"/>
<polygon fill="midnightblue" stroke="midnightblue" points="179,-85.751 175.5,-75.7511 172,-85.7511 179,-85.751"/>
</g>
<!-- Node9 -->
<g id="node9" class="node"><title>Node9</title>
<polygon fill="white" stroke="#bfbfbf" points="218,-56.5 218,-75.5 295,-75.5 295,-56.5 218,-56.5"/>
<text text-anchor="middle" x="256.5" y="-63.5" font-family="Helvetica,sans-Serif" font-size="10.00">colony_map.h</text>
</g>
<!-- Node4&#45;&gt;Node9 -->
<g id="edge8" class="edge"><title>Node4&#45;&gt;Node9</title>
<path fill="none" stroke="midnightblue" d="M188.514,-112.324C201.032,-103.979 220.182,-91.2122 234.971,-81.3524"/>
<polygon fill="midnightblue" stroke="midnightblue" points="237.139,-84.1137 243.518,-75.6545 233.256,-78.2894 237.139,-84.1137"/>
</g>
<!-- Node6 -->
<g id="node6" class="node"><title>Node6</title>
<polygon fill="white" stroke="#bfbfbf" points="3,-0.5 3,-19.5 54,-19.5 54,-0.5 3,-0.5"/>
<text text-anchor="middle" x="28.5" y="-7.5" font-family="Helvetica,sans-Serif" font-size="10.00">stddef.h</text>
</g>
<!-- Node5&#45;&gt;Node6 -->
<g id="edge5" class="edge"><title>Node5&#45;&gt;Node6</title>
<path fill="none" stroke="midnightblue" d="M64.3994,-56.083C58.263,-48.3768 49.2303,-37.0333 41.7608,-27.6531"/>
<polygon fill="midnightblue" stroke="midnightblue" points="44.4357,-25.3936 35.4685,-19.7511 38.9598,-29.7542 44.4357,-25.3936"/>
</g>
<!-- Node7 -->
<g id="node7" class="node"><title>Node7</title>
<polygon fill="white" stroke="#bfbfbf" points="72.5,-0.5 72.5,-19.5 156.5,-19.5 156.5,-0.5 72.5,-0.5"/>
<text text-anchor="middle" x="114.5" y="-7.5" font-family="Helvetica,sans-Serif" font-size="10.00">colony_config.h</text>
</g>
<!-- Node5&#45;&gt;Node7 -->
<g id="edge6" class="edge"><title>Node5&#45;&gt;Node7</title>
<path fill="none" stroke="midnightblue" d="M78.6006,-56.083C84.737,-48.3768 93.7697,-37.0333 101.239,-27.6531"/>
<polygon fill="midnightblue" stroke="midnightblue" points="104.04,-29.7542 107.532,-19.7511 98.5643,-25.3936 104.04,-29.7542"/>
</g>
</g>
</svg>
