<?xml version="1.0" encoding="UTF-8" standalone="no"?>
<!DOCTYPE svg PUBLIC "-//W3C//DTD SVG 1.1//EN"
 "http://www.w3.org/Graphics/SVG/1.1/DTD/svg11.dtd">
<!-- Generated by graphviz version 2.38.0 (20140413.2041)
 -->
<!-- Title: Message.h Pages: 1 -->
<svg width="479pt" height="420pt"
 viewBox="0.00 0.00 479.06 420.00" xmlns="http://www.w3.org/2000/svg" xmlns:xlink="http://www.w3.org/1999/xlink">
<g id="graph0" class="graph" transform="scale(1 1) rotate(0) translate(4 416)">
<title>Message.h</title>
<polygon fill="white" stroke="none" points="-4,4 -4,-416 475.06,-416 475.06,4 -4,4"/>
<!-- Node1 -->
<g id="node1" class="node"><title>Node1</title>
<polygon fill="#bfbfbf" stroke="black" points="206.56,-392.5 206.56,-411.5 271.56,-411.5 271.56,-392.5 206.56,-392.5"/>
<text text-anchor="middle" x="239.06" y="-399.5" font-family="Helvetica,sans-Serif" font-size="10.00">Message.h</text>
</g>
<!-- Node2 -->
<g id="node2" class="node"><title>Node2</title>
<g id="a_node2"><a xlink:href="_post_api_8h.html" target="_top" xlink:title="PostApi.h">
<polygon fill="white" stroke="black" points="257.56,-336.5 257.56,-355.5 316.56,-355.5 316.56,-336.5 257.56,-336.5"/>
<text text-anchor="middle" x="287.06" y="-343.5" font-family="Helvetica,sans-Serif" font-size="10.00">PostApi.h</text>
</a>
</g>
</g>
<!-- Node1&#45;&gt;Node2 -->
<g id="edge1" class="edge"><title>Node1&#45;&gt;Node2</title>
<path fill="none" stroke="midnightblue" d="M253.787,-384.431C262.2,-374.967 272.408,-363.483 279.281,-355.751"/>
<polygon fill="midnightblue" stroke="midnightblue" points="251.014,-382.284 246.986,-392.083 256.246,-386.934 251.014,-382.284"/>
</g>
<!-- Node17 -->
<g id="node17" class="node"><title>Node17</title>
<g id="a_node17"><a xlink:href="_service_message_8h.html" target="_top" xlink:title="ServiceMessage.h">
<polygon fill="white" stroke="black" points="143.06,-336.5 143.06,-355.5 239.06,-355.5 239.06,-336.5 143.06,-336.5"/>
<text text-anchor="middle" x="191.06" y="-343.5" font-family="Helvetica,sans-Serif" font-size="10.00">ServiceMessage.h</text>
</a>
</g>
</g>
<!-- Node1&#45;&gt;Node17 -->
<g id="edge25" class="edge"><title>Node1&#45;&gt;Node17</title>
<path fill="none" stroke="midnightblue" d="M224.332,-384.431C215.92,-374.967 205.711,-363.483 198.838,-355.751"/>
<polygon fill="midnightblue" stroke="midnightblue" points="221.874,-386.934 231.133,-392.083 227.106,-382.284 221.874,-386.934"/>
</g>
<!-- Node3 -->
<g id="node3" class="node"><title>Node3</title>
<g id="a_node3"><a xlink:href="_async_return_handler_8h.html" target="_top" xlink:title="AsyncReturnHandler.h">
<polygon fill="white" stroke="black" points="19.0597,-224.5 19.0597,-243.5 133.06,-243.5 133.06,-224.5 19.0597,-224.5"/>
<text text-anchor="middle" x="76.0597" y="-231.5" font-family="Helvetica,sans-Serif" font-size="10.00">AsyncReturnHandler.h</text>
</a>
</g>
</g>
<!-- Node2&#45;&gt;Node3 -->
<g id="edge2" class="edge"><title>Node2&#45;&gt;Node3</title>
<path fill="none" stroke="midnightblue" d="M261.615,-331.735C217.783,-308.884 129.214,-262.711 92.5396,-243.591"/>
<polygon fill="midnightblue" stroke="midnightblue" points="260.018,-334.849 270.503,-336.368 263.254,-328.642 260.018,-334.849"/>
</g>
<!-- Node11 -->
<g id="node11" class="node"><title>Node11</title>
<g id="a_node11"><a xlink:href="_mailbox_8h.html" target="_top" xlink:title="Mailbox.h">
<polygon fill="white" stroke="black" points="363.56,-280.5 363.56,-299.5 422.56,-299.5 422.56,-280.5 363.56,-280.5"/>
<text text-anchor="middle" x="393.06" y="-287.5" font-family="Helvetica,sans-Serif" font-size="10.00">Mailbox.h</text>
</a>
</g>
</g>
<!-- Node2&#45;&gt;Node11 -->
<g id="edge11" class="edge"><title>Node2&#45;&gt;Node11</title>
<path fill="none" stroke="midnightblue" d="M313.116,-331.726C332.744,-321.727 359.088,-308.307 376.071,-299.655"/>
<polygon fill="midnightblue" stroke="midnightblue" points="311.412,-328.666 304.09,-336.324 314.59,-334.903 311.412,-328.666"/>
</g>
<!-- Node13 -->
<g id="node13" class="node"><title>Node13</title>
<g id="a_node13"><a xlink:href="_s_a_p_8h.html" target="_top" xlink:title="SAP.h">
<polygon fill="white" stroke="black" points="262.56,-280.5 262.56,-299.5 307.56,-299.5 307.56,-280.5 262.56,-280.5"/>
<text text-anchor="middle" x="285.06" y="-287.5" font-family="Helvetica,sans-Serif" font-size="10.00">SAP.h</text>
</a>
</g>
</g>
<!-- Node2&#45;&gt;Node13 -->
<g id="edge13" class="edge"><title>Node2&#45;&gt;Node13</title>
<path fill="none" stroke="midnightblue" d="M286.349,-325.805C286.019,-316.91 285.644,-306.78 285.384,-299.751"/>
<polygon fill="midnightblue" stroke="midnightblue" points="282.862,-326.219 286.729,-336.083 289.857,-325.96 282.862,-326.219"/>
</g>
<!-- Node4 -->
<g id="node4" class="node"><title>Node4</title>
<g id="a_node4"><a xlink:href="_response_message_8h.html" target="_top" xlink:title="ResponseMessage.h">
<polygon fill="white" stroke="black" points="69.0597,-168.5 69.0597,-187.5 177.06,-187.5 177.06,-168.5 69.0597,-168.5"/>
<text text-anchor="middle" x="123.06" y="-175.5" font-family="Helvetica,sans-Serif" font-size="10.00">ResponseMessage.h</text>
</a>
</g>
</g>
<!-- Node3&#45;&gt;Node4 -->
<g id="edge3" class="edge"><title>Node3&#45;&gt;Node4</title>
<path fill="none" stroke="midnightblue" d="M90.4805,-216.431C98.7178,-206.967 108.714,-195.483 115.443,-187.751"/>
<polygon fill="midnightblue" stroke="midnightblue" points="87.746,-214.242 83.8208,-224.083 93.0262,-218.838 87.746,-214.242"/>
</g>
<!-- Node5 -->
<g id="node5" class="node"><title>Node5</title>
<g id="a_node5"><a xlink:href="_atomic_request_8h.html" target="_top" xlink:title="AtomicRequest.h">
<polygon fill="white" stroke="black" points="235.06,-112.5 235.06,-131.5 327.06,-131.5 327.06,-112.5 235.06,-112.5"/>
<text text-anchor="middle" x="281.06" y="-119.5" font-family="Helvetica,sans-Serif" font-size="10.00">AtomicRequest.h</text>
</a>
</g>
</g>
<!-- Node4&#45;&gt;Node5 -->
<g id="edge4" class="edge"><title>Node4&#45;&gt;Node5</title>
<path fill="none" stroke="midnightblue" d="M157.667,-165.172C187.419,-155.004 229.607,-140.585 256.141,-131.516"/>
<polygon fill="midnightblue" stroke="midnightblue" points="156.426,-161.898 148.095,-168.444 158.69,-168.521 156.426,-161.898"/>
</g>
<!-- Node7 -->
<g id="node7" class="node"><title>Node7</title>
<g id="a_node7"><a xlink:href="_close_request_8h.html" target="_top" xlink:title="CloseRequest.h">
<polygon fill="white" stroke="black" points="6.05971,-112.5 6.05971,-131.5 92.0597,-131.5 92.0597,-112.5 6.05971,-112.5"/>
<text text-anchor="middle" x="49.0597" y="-119.5" font-family="Helvetica,sans-Serif" font-size="10.00">CloseRequest.h</text>
</a>
</g>
</g>
<!-- Node4&#45;&gt;Node7 -->
<g id="edge6" class="edge"><title>Node4&#45;&gt;Node7</title>
<path fill="none" stroke="midnightblue" d="M103.025,-162.38C89.6506,-152.62 72.5009,-140.106 61.1654,-131.834"/>
<polygon fill="midnightblue" stroke="midnightblue" points="101.029,-165.257 111.17,-168.324 105.156,-159.602 101.029,-165.257"/>
</g>
<!-- Node9 -->
<g id="node9" class="node"><title>Node9</title>
<g id="a_node9"><a xlink:href="_open_request_8h.html" target="_top" xlink:title="OpenRequest.h">
<polygon fill="white" stroke="black" points="125.06,-112.5 125.06,-131.5 209.06,-131.5 209.06,-112.5 125.06,-112.5"/>
<text text-anchor="middle" x="167.06" y="-119.5" font-family="Helvetica,sans-Serif" font-size="10.00">OpenRequest.h</text>
</a>
</g>
</g>
<!-- Node4&#45;&gt;Node9 -->
<g id="edge8" class="edge"><title>Node4&#45;&gt;Node9</title>
<path fill="none" stroke="midnightblue" d="M136.794,-160.144C144.46,-150.736 153.693,-139.405 159.929,-131.751"/>
<polygon fill="midnightblue" stroke="midnightblue" points="133.929,-158.12 130.325,-168.083 139.356,-162.541 133.929,-158.12"/>
</g>
<!-- Node6 -->
<g id="node6" class="node"><title>Node6</title>
<g id="a_node6"><a xlink:href="_atomic_sync_8h.html" target="_top" xlink:title="AtomicSync.h">
<polygon fill="white" stroke="black" points="242.06,-56.5 242.06,-75.5 320.06,-75.5 320.06,-56.5 242.06,-56.5"/>
<text text-anchor="middle" x="281.06" y="-63.5" font-family="Helvetica,sans-Serif" font-size="10.00">AtomicSync.h</text>
</a>
</g>
</g>
<!-- Node5&#45;&gt;Node6 -->
<g id="edge5" class="edge"><title>Node5&#45;&gt;Node6</title>
<path fill="none" stroke="midnightblue" d="M281.06,-101.805C281.06,-92.9102 281.06,-82.7798 281.06,-75.7511"/>
<polygon fill="midnightblue" stroke="midnightblue" points="277.56,-102.083 281.06,-112.083 284.56,-102.083 277.56,-102.083"/>
</g>
<!-- Node8 -->
<g id="node8" class="node"><title>Node8</title>
<g id="a_node8"><a xlink:href="_close_sync_8h.html" target="_top" xlink:title="CloseSync.h">
<polygon fill="white" stroke="black" points="65.0597,-0.5 65.0597,-19.5 137.06,-19.5 137.06,-0.5 65.0597,-0.5"/>
<text text-anchor="middle" x="101.06" y="-7.5" font-family="Helvetica,sans-Serif" font-size="10.00">CloseSync.h</text>
</a>
</g>
</g>
<!-- Node7&#45;&gt;Node8 -->
<g id="edge7" class="edge"><title>Node7&#45;&gt;Node8</title>
<path fill="none" stroke="midnightblue" d="M57.4176,-103.32C68.7395,-79.3697 88.5095,-37.5484 96.9983,-19.5914"/>
<polygon fill="midnightblue" stroke="midnightblue" points="54.2497,-101.832 53.1401,-112.368 60.5782,-104.824 54.2497,-101.832"/>
</g>
<!-- Node10 -->
<g id="node10" class="node"><title>Node10</title>
<g id="a_node10"><a xlink:href="_open_sync_8h.html" target="_top" xlink:title="OpenSync.h">
<polygon fill="white" stroke="black" points="104.56,-56.5 104.56,-75.5 175.56,-75.5 175.56,-56.5 104.56,-56.5"/>
<text text-anchor="middle" x="140.06" y="-63.5" font-family="Helvetica,sans-Serif" font-size="10.00">OpenSync.h</text>
</a>
</g>
</g>
<!-- Node9&#45;&gt;Node10 -->
<g id="edge9" class="edge"><title>Node9&#45;&gt;Node10</title>
<path fill="none" stroke="midnightblue" d="M158.051,-102.983C153.468,-93.8168 148.106,-83.0922 144.435,-75.7511"/>
<polygon fill="midnightblue" stroke="midnightblue" points="154.999,-104.704 162.601,-112.083 161.26,-101.573 154.999,-104.704"/>
</g>
<!-- Node10&#45;&gt;Node8 -->
<g id="edge10" class="edge"><title>Node10&#45;&gt;Node8</title>
<path fill="none" stroke="midnightblue" d="M127.677,-47.8554C120.924,-38.5048 112.851,-27.3265 107.38,-19.7511"/>
<polygon fill="midnightblue" stroke="midnightblue" points="124.927,-50.0254 133.62,-56.083 130.602,-45.927 124.927,-50.0254"/>
</g>
<!-- Node12 -->
<g id="node12" class="node"><title>Node12</title>
<g id="a_node12"><a xlink:href="_mailbox_server_8h.html" target="_top" xlink:title="MailboxServer.h">
<polygon fill="white" stroke="black" points="385.06,-224.5 385.06,-243.5 471.06,-243.5 471.06,-224.5 385.06,-224.5"/>
<text text-anchor="middle" x="428.06" y="-231.5" font-family="Helvetica,sans-Serif" font-size="10.00">MailboxServer.h</text>
</a>
</g>
</g>
<!-- Node11&#45;&gt;Node12 -->
<g id="edge12" class="edge"><title>Node11&#45;&gt;Node12</title>
<path fill="none" stroke="midnightblue" d="M404.36,-271.566C410.382,-262.275 417.528,-251.248 422.388,-243.751"/>
<polygon fill="midnightblue" stroke="midnightblue" points="401.341,-269.788 398.839,-280.083 407.215,-273.595 401.341,-269.788"/>
</g>
<!-- Node13&#45;&gt;Node5 -->
<g id="edge16" class="edge"><title>Node13&#45;&gt;Node5</title>
<path fill="none" stroke="midnightblue" d="M290.097,-270.625C292.068,-262.528 294.087,-252.86 295.06,-244 299.698,-201.748 288.422,-151.252 283.363,-131.505"/>
<polygon fill="midnightblue" stroke="midnightblue" points="286.667,-269.908 287.542,-280.467 293.443,-271.667 286.667,-269.908"/>
</g>
<!-- Node13&#45;&gt;Node7 -->
<g id="edge17" class="edge"><title>Node13&#45;&gt;Node7</title>
<path fill="none" stroke="midnightblue" d="M251.966,-288.699C185.774,-287.32 40.7711,-280.145 10.0597,-244 -19.0941,-209.688 22.9814,-153.225 41.2774,-131.702"/>
<polygon fill="midnightblue" stroke="midnightblue" points="252.195,-292.203 262.255,-288.879 252.318,-285.204 252.195,-292.203"/>
</g>
<!-- Node13&#45;&gt;Node9 -->
<g id="edge18" class="edge"><title>Node13&#45;&gt;Node9</title>
<path fill="none" stroke="midnightblue" d="M280.231,-270.072C276.292,-256.6 269.925,-238.407 261.06,-224 237.083,-185.034 196.558,-147.99 177.525,-131.691"/>
<polygon fill="midnightblue" stroke="midnightblue" points="276.957,-271.368 282.97,-280.091 283.709,-269.522 276.957,-271.368"/>
</g>
<!-- Node14 -->
<g id="node14" class="node"><title>Node14</title>
<g id="a_node14"><a xlink:href="_listener_client_request_8h.html" target="_top" xlink:title="ListenerClientRequest.h">
<polygon fill="white" stroke="black" points="347.06,-168.5 347.06,-187.5 467.06,-187.5 467.06,-168.5 347.06,-168.5"/>
<text text-anchor="middle" x="407.06" y="-175.5" font-family="Helvetica,sans-Serif" font-size="10.00">ListenerClientRequest.h</text>
</a>
</g>
</g>
<!-- Node13&#45;&gt;Node14 -->
<g id="edge14" class="edge"><title>Node13&#45;&gt;Node14</title>
<path fill="none" stroke="midnightblue" d="M302.238,-273.512C328.307,-250.007 376.993,-206.11 397.531,-187.591"/>
<polygon fill="midnightblue" stroke="midnightblue" points="299.716,-271.073 294.633,-280.368 304.403,-276.271 299.716,-271.073"/>
</g>
<!-- Node16 -->
<g id="node16" class="node"><title>Node16</title>
<g id="a_node16"><a xlink:href="_request_message_8h.html" target="_top" xlink:title="RequestMessage.h">
<polygon fill="white" stroke="black" points="151.56,-224.5 151.56,-243.5 252.56,-243.5 252.56,-224.5 151.56,-224.5"/>
<text text-anchor="middle" x="202.06" y="-231.5" font-family="Helvetica,sans-Serif" font-size="10.00">RequestMessage.h</text>
</a>
</g>
</g>
<!-- Node13&#45;&gt;Node16 -->
<g id="edge19" class="edge"><title>Node13&#45;&gt;Node16</title>
<path fill="none" stroke="midnightblue" d="M262.96,-274.622C247.798,-264.757 228.177,-251.992 215.362,-243.655"/>
<polygon fill="midnightblue" stroke="midnightblue" points="261.433,-277.804 271.724,-280.324 265.251,-271.937 261.433,-277.804"/>
</g>
<!-- Node15 -->
<g id="node15" class="node"><title>Node15</title>
<g id="a_node15"><a xlink:href="_listener_client_sync_8h.html" target="_top" xlink:title="ListenerClientSync.h">
<polygon fill="white" stroke="black" points="353.56,-112.5 353.56,-131.5 460.56,-131.5 460.56,-112.5 353.56,-112.5"/>
<text text-anchor="middle" x="407.06" y="-119.5" font-family="Helvetica,sans-Serif" font-size="10.00">ListenerClientSync.h</text>
</a>
</g>
</g>
<!-- Node14&#45;&gt;Node15 -->
<g id="edge15" class="edge"><title>Node14&#45;&gt;Node15</title>
<path fill="none" stroke="midnightblue" d="M407.06,-157.805C407.06,-148.91 407.06,-138.78 407.06,-131.751"/>
<polygon fill="midnightblue" stroke="midnightblue" points="403.56,-158.083 407.06,-168.083 410.56,-158.083 403.56,-158.083"/>
</g>
<!-- Node16&#45;&gt;Node4 -->
<g id="edge24" class="edge"><title>Node16&#45;&gt;Node4</title>
<path fill="none" stroke="midnightblue" d="M181.025,-218.622C166.594,-208.757 147.918,-195.992 135.721,-187.655"/>
<polygon fill="midnightblue" stroke="midnightblue" points="179.136,-221.57 189.367,-224.324 183.086,-215.791 179.136,-221.57"/>
</g>
<!-- Node16&#45;&gt;Node5 -->
<g id="edge21" class="edge"><title>Node16&#45;&gt;Node5</title>
<path fill="none" stroke="midnightblue" d="M214.3,-215.957C231.42,-192.118 261.878,-149.709 274.89,-131.591"/>
<polygon fill="midnightblue" stroke="midnightblue" points="211.249,-214.204 208.259,-224.368 216.935,-218.288 211.249,-214.204"/>
</g>
<!-- Node16&#45;&gt;Node7 -->
<g id="edge22" class="edge"><title>Node16&#45;&gt;Node7</title>
<path fill="none" stroke="midnightblue" d="M148.796,-222.178C113.66,-213.945 71.9913,-201.72 60.0597,-188 46.2407,-172.109 46.6039,-145.482 47.9013,-131.762"/>
<polygon fill="midnightblue" stroke="midnightblue" points="148.448,-225.688 158.976,-224.497 150.003,-218.863 148.448,-225.688"/>
</g>
<!-- Node16&#45;&gt;Node9 -->
<g id="edge23" class="edge"><title>Node16&#45;&gt;Node9</title>
<path fill="none" stroke="midnightblue" d="M198.29,-214.348C195.441,-201.233 191.156,-183.356 186.06,-168 181.786,-155.122 175.432,-140.763 171.268,-131.805"/>
<polygon fill="midnightblue" stroke="midnightblue" points="194.933,-215.394 200.409,-224.465 201.785,-213.96 194.933,-215.394"/>
</g>
<!-- Node16&#45;&gt;Node14 -->
<g id="edge20" class="edge"><title>Node16&#45;&gt;Node14</title>
<path fill="none" stroke="midnightblue" d="M244.468,-221.829C283.174,-211.633 339.553,-196.782 374.729,-187.516"/>
<polygon fill="midnightblue" stroke="midnightblue" points="243.321,-218.512 234.543,-224.444 245.104,-225.281 243.321,-218.512"/>
</g>
<!-- Node17&#45;&gt;Node16 -->
<g id="edge26" class="edge"><title>Node17&#45;&gt;Node16</title>
<path fill="none" stroke="midnightblue" d="M192.925,-326.348C195.334,-302.254 199.429,-261.308 201.201,-243.591"/>
<polygon fill="midnightblue" stroke="midnightblue" points="189.435,-326.07 191.923,-336.368 196.401,-326.766 189.435,-326.07"/>
</g>
</g>
</svg>
