<?xml version="1.0" encoding="UTF-8" standalone="no"?>
<!DOCTYPE svg PUBLIC "-//W3C//DTD SVG 1.1//EN"
 "http://www.w3.org/Graphics/SVG/1.1/DTD/svg11.dtd">
<!-- Generated by graphviz version 2.38.0 (20140413.2041)
 -->
<!-- Title: OpenSync.h Pages: 1 -->
<svg width="393pt" height="420pt"
 viewBox="0.00 0.00 392.50 420.00" xmlns="http://www.w3.org/2000/svg" xmlns:xlink="http://www.w3.org/1999/xlink">
<g id="graph0" class="graph" transform="scale(1 1) rotate(0) translate(4 416)">
<title>OpenSync.h</title>
<polygon fill="white" stroke="none" points="-4,4 -4,-416 388.5,-416 388.5,4 -4,4"/>
<!-- Node1 -->
<g id="node1" class="node"><title>Node1</title>
<polygon fill="#bfbfbf" stroke="black" points="130,-392.5 130,-411.5 201,-411.5 201,-392.5 130,-392.5"/>
<text text-anchor="middle" x="165.5" y="-399.5" font-family="Helvetica,sans-Serif" font-size="10.00">OpenSync.h</text>
</g>
<!-- Node2 -->
<g id="node2" class="node"><title>Node2</title>
<g id="a_node2"><a xlink:href="_open_api_8h.html" target="_top" xlink:title="Cpl/Itc/OpenApi.h">
<polygon fill="white" stroke="black" points="58,-336.5 58,-355.5 151,-355.5 151,-336.5 58,-336.5"/>
<text text-anchor="middle" x="104.5" y="-343.5" font-family="Helvetica,sans-Serif" font-size="10.00">Cpl/Itc/OpenApi.h</text>
</a>
</g>
</g>
<!-- Node1&#45;&gt;Node2 -->
<g id="edge1" class="edge"><title>Node1&#45;&gt;Node2</title>
<path fill="none" stroke="midnightblue" d="M155.699,-392.324C146.682,-384.341 133.094,-372.313 122.182,-362.653"/>
<polygon fill="midnightblue" stroke="midnightblue" points="124.287,-359.842 114.479,-355.834 119.647,-365.083 124.287,-359.842"/>
</g>
<!-- Node3 -->
<g id="node3" class="node"><title>Node3</title>
<g id="a_node3"><a xlink:href="_open_request_8h.html" target="_top" xlink:title="Cpl/Itc/OpenRequest.h">
<polygon fill="white" stroke="black" points="169,-336.5 169,-355.5 284,-355.5 284,-336.5 169,-336.5"/>
<text text-anchor="middle" x="226.5" y="-343.5" font-family="Helvetica,sans-Serif" font-size="10.00">Cpl/Itc/OpenRequest.h</text>
</a>
</g>
</g>
<!-- Node1&#45;&gt;Node3 -->
<g id="edge2" class="edge"><title>Node1&#45;&gt;Node3</title>
<path fill="none" stroke="midnightblue" d="M175.301,-392.324C184.318,-384.341 197.906,-372.313 208.818,-362.653"/>
<polygon fill="midnightblue" stroke="midnightblue" points="211.353,-365.083 216.521,-355.834 206.713,-359.842 211.353,-365.083"/>
</g>
<!-- Node4 -->
<g id="node4" class="node"><title>Node4</title>
<g id="a_node4"><a xlink:href="_request_message_8h.html" target="_top" xlink:title="Cpl/Itc/RequestMessage.h">
<polygon fill="white" stroke="black" points="64,-224.5 64,-243.5 195,-243.5 195,-224.5 64,-224.5"/>
<text text-anchor="middle" x="129.5" y="-231.5" font-family="Helvetica,sans-Serif" font-size="10.00">Cpl/Itc/RequestMessage.h</text>
</a>
</g>
</g>
<!-- Node3&#45;&gt;Node4 -->
<g id="edge3" class="edge"><title>Node3&#45;&gt;Node4</title>
<path fill="none" stroke="midnightblue" d="M200.901,-336.395C183.43,-329.259 161.076,-317.436 147.5,-300 137.169,-286.732 132.764,-267.895 130.888,-253.913"/>
<polygon fill="midnightblue" stroke="midnightblue" points="134.367,-253.527 129.861,-243.939 127.404,-254.245 134.367,-253.527"/>
</g>
<!-- Node9 -->
<g id="node9" class="node"><title>Node9</title>
<g id="a_node9"><a xlink:href="_s_a_p_8h.html" target="_top" xlink:title="Cpl/Itc/SAP.h">
<polygon fill="white" stroke="black" points="308.5,-168.5 308.5,-187.5 384.5,-187.5 384.5,-168.5 308.5,-168.5"/>
<text text-anchor="middle" x="346.5" y="-175.5" font-family="Helvetica,sans-Serif" font-size="10.00">Cpl/Itc/SAP.h</text>
</a>
</g>
</g>
<!-- Node3&#45;&gt;Node9 -->
<g id="edge16" class="edge"><title>Node3&#45;&gt;Node9</title>
<path fill="none" stroke="midnightblue" d="M251.059,-336.462C268.489,-329.243 291.235,-317.289 305.5,-300 330.472,-269.734 340.51,-223.516 344.328,-197.846"/>
<polygon fill="midnightblue" stroke="midnightblue" points="347.838,-198.001 345.677,-187.629 340.898,-197.085 347.838,-198.001"/>
</g>
<!-- Node11 -->
<g id="node11" class="node"><title>Node11</title>
<g id="a_node11"><a xlink:href="_response_message_8h.html" target="_top" xlink:title="Cpl/Itc/ResponseMessage.h">
<polygon fill="white" stroke="black" points="157,-280.5 157,-299.5 296,-299.5 296,-280.5 157,-280.5"/>
<text text-anchor="middle" x="226.5" y="-287.5" font-family="Helvetica,sans-Serif" font-size="10.00">Cpl/Itc/ResponseMessage.h</text>
</a>
</g>
</g>
<!-- Node3&#45;&gt;Node11 -->
<g id="edge11" class="edge"><title>Node3&#45;&gt;Node11</title>
<path fill="none" stroke="midnightblue" d="M226.5,-336.083C226.5,-329.006 226.5,-318.861 226.5,-309.986"/>
<polygon fill="midnightblue" stroke="midnightblue" points="230,-309.751 226.5,-299.751 223,-309.751 230,-309.751"/>
</g>
<!-- Node5 -->
<g id="node5" class="node"><title>Node5</title>
<g id="a_node5"><a xlink:href="_service_message_8h.html" target="_top" xlink:title="Cpl/Itc/ServiceMessage.h">
<polygon fill="white" stroke="black" points="0,-168.5 0,-187.5 127,-187.5 127,-168.5 0,-168.5"/>
<text text-anchor="middle" x="63.5" y="-175.5" font-family="Helvetica,sans-Serif" font-size="10.00">Cpl/Itc/ServiceMessage.h</text>
</a>
</g>
</g>
<!-- Node4&#45;&gt;Node5 -->
<g id="edge4" class="edge"><title>Node4&#45;&gt;Node5</title>
<path fill="none" stroke="midnightblue" d="M118.896,-224.324C109.044,-216.263 94.1491,-204.077 82.2849,-194.369"/>
<polygon fill="midnightblue" stroke="midnightblue" points="84.2529,-191.457 74.297,-187.834 79.8202,-196.875 84.2529,-191.457"/>
</g>
<!-- Node4&#45;&gt;Node9 -->
<g id="edge8" class="edge"><title>Node4&#45;&gt;Node9</title>
<path fill="none" stroke="midnightblue" d="M163.884,-224.444C201.422,-215.102 261.631,-200.119 302.567,-189.933"/>
<polygon fill="midnightblue" stroke="midnightblue" points="303.418,-193.328 312.277,-187.516 301.727,-186.535 303.418,-193.328"/>
</g>
<!-- Node6 -->
<g id="node6" class="node"><title>Node6</title>
<g id="a_node6"><a xlink:href="_message_8h.html" target="_top" xlink:title="Cpl/Itc/Message.h">
<polygon fill="white" stroke="black" points="120,-56.5 120,-75.5 215,-75.5 215,-56.5 120,-56.5"/>
<text text-anchor="middle" x="167.5" y="-63.5" font-family="Helvetica,sans-Serif" font-size="10.00">Cpl/Itc/Message.h</text>
</a>
</g>
</g>
<!-- Node5&#45;&gt;Node6 -->
<g id="edge5" class="edge"><title>Node5&#45;&gt;Node6</title>
<path fill="none" stroke="midnightblue" d="M63.9189,-168.446C64.994,-155.009 68.8279,-128.765 82.5,-112 94.5855,-97.1808 112.869,-86.6148 129.386,-79.4623"/>
<polygon fill="midnightblue" stroke="midnightblue" points="130.887,-82.631 138.847,-75.6392 128.264,-76.1409 130.887,-82.631"/>
</g>
<!-- Node8 -->
<g id="node8" class="node"><title>Node8</title>
<g id="a_node8"><a xlink:href="_return_handler_8h.html" target="_top" xlink:title="Cpl/Itc/ReturnHandler.h">
<polygon fill="white" stroke="black" points="92,-112.5 92,-131.5 209,-131.5 209,-112.5 92,-112.5"/>
<text text-anchor="middle" x="150.5" y="-119.5" font-family="Helvetica,sans-Serif" font-size="10.00">Cpl/Itc/ReturnHandler.h</text>
</a>
</g>
</g>
<!-- Node5&#45;&gt;Node8 -->
<g id="edge7" class="edge"><title>Node5&#45;&gt;Node8</title>
<path fill="none" stroke="midnightblue" d="M77.4781,-168.324C91.0496,-159.9 111.88,-146.971 127.825,-137.074"/>
<polygon fill="midnightblue" stroke="midnightblue" points="129.906,-139.902 136.557,-131.655 126.214,-133.954 129.906,-139.902"/>
</g>
<!-- Node7 -->
<g id="node7" class="node"><title>Node7</title>
<g id="a_node7"><a xlink:href="_item_8h.html" target="_top" xlink:title="Cpl/Container/Item.h">
<polygon fill="white" stroke="black" points="115,-0.5 115,-19.5 220,-19.5 220,-0.5 115,-0.5"/>
<text text-anchor="middle" x="167.5" y="-7.5" font-family="Helvetica,sans-Serif" font-size="10.00">Cpl/Container/Item.h</text>
</a>
</g>
</g>
<!-- Node6&#45;&gt;Node7 -->
<g id="edge6" class="edge"><title>Node6&#45;&gt;Node7</title>
<path fill="none" stroke="midnightblue" d="M167.5,-56.083C167.5,-49.0059 167.5,-38.8611 167.5,-29.9865"/>
<polygon fill="midnightblue" stroke="midnightblue" points="171,-29.751 167.5,-19.7511 164,-29.7511 171,-29.751"/>
</g>
<!-- Node10 -->
<g id="node10" class="node"><title>Node10</title>
<g id="a_node10"><a xlink:href="_post_api_8h.html" target="_top" xlink:title="Cpl/Itc/PostApi.h">
<polygon fill="white" stroke="black" points="227.5,-112.5 227.5,-131.5 317.5,-131.5 317.5,-112.5 227.5,-112.5"/>
<text text-anchor="middle" x="272.5" y="-119.5" font-family="Helvetica,sans-Serif" font-size="10.00">Cpl/Itc/PostApi.h</text>
</a>
</g>
</g>
<!-- Node9&#45;&gt;Node10 -->
<g id="edge9" class="edge"><title>Node9&#45;&gt;Node10</title>
<path fill="none" stroke="midnightblue" d="M334.611,-168.324C323.35,-160.107 306.213,-147.602 292.791,-137.807"/>
<polygon fill="midnightblue" stroke="midnightblue" points="294.747,-134.901 284.606,-131.834 290.62,-140.556 294.747,-134.901"/>
</g>
<!-- Node10&#45;&gt;Node6 -->
<g id="edge10" class="edge"><title>Node10&#45;&gt;Node6</title>
<path fill="none" stroke="midnightblue" d="M255.63,-112.324C238.791,-103.664 212.693,-90.2424 193.262,-80.249"/>
<polygon fill="midnightblue" stroke="midnightblue" points="194.822,-77.1155 184.328,-75.6545 191.62,-83.3405 194.822,-77.1155"/>
</g>
<!-- Node11&#45;&gt;Node4 -->
<g id="edge15" class="edge"><title>Node11&#45;&gt;Node4</title>
<path fill="none" stroke="midnightblue" d="M210.915,-280.324C195.501,-271.743 171.688,-258.486 153.79,-248.522"/>
<polygon fill="midnightblue" stroke="midnightblue" points="155.486,-245.461 145.046,-243.655 152.081,-251.577 155.486,-245.461"/>
</g>
<!-- Node12 -->
<g id="node12" class="node"><title>Node12</title>
<g id="a_node12"><a xlink:href="_async_return_handler_8h.html" target="_top" xlink:title="Cpl/Itc/AsyncReturnHandler.h">
<polygon fill="white" stroke="black" points="145,-168.5 145,-187.5 290,-187.5 290,-168.5 145,-168.5"/>
<text text-anchor="middle" x="217.5" y="-175.5" font-family="Helvetica,sans-Serif" font-size="10.00">Cpl/Itc/AsyncReturnHandler.h</text>
</a>
</g>
</g>
<!-- Node11&#45;&gt;Node12 -->
<g id="edge12" class="edge"><title>Node11&#45;&gt;Node12</title>
<path fill="none" stroke="midnightblue" d="M225.794,-280.368C224.341,-262.617 220.991,-221.666 219.022,-197.597"/>
<polygon fill="midnightblue" stroke="midnightblue" points="222.507,-197.273 218.203,-187.591 215.53,-197.844 222.507,-197.273"/>
</g>
<!-- Node12&#45;&gt;Node8 -->
<g id="edge13" class="edge"><title>Node12&#45;&gt;Node8</title>
<path fill="none" stroke="midnightblue" d="M206.735,-168.324C196.734,-160.263 181.613,-148.077 169.57,-138.369"/>
<polygon fill="midnightblue" stroke="midnightblue" points="171.443,-135.384 161.461,-131.834 167.05,-140.834 171.443,-135.384"/>
</g>
<!-- Node12&#45;&gt;Node10 -->
<g id="edge14" class="edge"><title>Node12&#45;&gt;Node10</title>
<path fill="none" stroke="midnightblue" d="M226.582,-168.083C234.671,-160.141 246.695,-148.335 256.41,-138.797"/>
<polygon fill="midnightblue" stroke="midnightblue" points="258.903,-141.254 263.587,-131.751 253.999,-136.26 258.903,-141.254"/>
</g>
</g>
</svg>
