<?xml version="1.0" encoding="UTF-8" standalone="no"?>
<!DOCTYPE svg PUBLIC "-//W3C//DTD SVG 1.1//EN"
 "http://www.w3.org/Graphics/SVG/1.1/DTD/svg11.dtd">
<!-- Generated by graphviz version 2.38.0 (20140413.2041)
 -->
<!-- Title: Output.h Pages: 1 -->
<svg width="592pt" height="252pt"
 viewBox="0.00 0.00 592.00 252.00" xmlns="http://www.w3.org/2000/svg" xmlns:xlink="http://www.w3.org/1999/xlink">
<g id="graph0" class="graph" transform="scale(1 1) rotate(0) translate(4 248)">
<title>Output.h</title>
<polygon fill="white" stroke="none" points="-4,4 -4,-248 588,-248 588,4 -4,4"/>
<!-- Node1 -->
<g id="node1" class="node"><title>Node1</title>
<polygon fill="#bfbfbf" stroke="black" points="321.5,-224.5 321.5,-243.5 375.5,-243.5 375.5,-224.5 321.5,-224.5"/>
<text text-anchor="middle" x="348.5" y="-231.5" font-family="Helvetica,sans-Serif" font-size="10.00">Output.h</text>
</g>
<!-- Node2 -->
<g id="node2" class="node"><title>Node2</title>
<g id="a_node2"><a xlink:href="_atomic_output_api_8h.html" target="_top" xlink:title="AtomicOutputApi.h">
<polygon fill="white" stroke="black" points="28,-168.5 28,-187.5 127,-187.5 127,-168.5 28,-168.5"/>
<text text-anchor="middle" x="77.5" y="-175.5" font-family="Helvetica,sans-Serif" font-size="10.00">AtomicOutputApi.h</text>
</a>
</g>
</g>
<!-- Node1&#45;&gt;Node2 -->
<g id="edge1" class="edge"><title>Node1&#45;&gt;Node2</title>
<path fill="none" stroke="midnightblue" d="M311.224,-225.572C261.26,-215.616 172.784,-197.986 120.198,-187.508"/>
<polygon fill="midnightblue" stroke="midnightblue" points="310.783,-229.053 321.275,-227.575 312.151,-222.188 310.783,-229.053"/>
</g>
<!-- Node4 -->
<g id="node4" class="node"><title>Node4</title>
<g id="a_node4"><a xlink:href="_output_api_8h.html" target="_top" xlink:title="OutputApi.h">
<polygon fill="white" stroke="black" points="179.5,-168.5 179.5,-187.5 247.5,-187.5 247.5,-168.5 179.5,-168.5"/>
<text text-anchor="middle" x="213.5" y="-175.5" font-family="Helvetica,sans-Serif" font-size="10.00">OutputApi.h</text>
</a>
</g>
</g>
<!-- Node1&#45;&gt;Node4 -->
<g id="edge3" class="edge"><title>Node1&#45;&gt;Node4</title>
<path fill="none" stroke="midnightblue" d="M317.594,-220.638C292.26,-210.504 257.069,-196.427 234.791,-187.516"/>
<polygon fill="midnightblue" stroke="midnightblue" points="316.524,-223.979 327.109,-224.444 319.124,-217.48 316.524,-223.979"/>
</g>
<!-- Node8 -->
<g id="node8" class="node"><title>Node8</title>
<g id="a_node8"><a xlink:href="_input_output_8h.html" target="_top" xlink:title="InputOutput.h">
<polygon fill="white" stroke="black" points="266,-168.5 266,-187.5 341,-187.5 341,-168.5 266,-168.5"/>
<text text-anchor="middle" x="303.5" y="-175.5" font-family="Helvetica,sans-Serif" font-size="10.00">InputOutput.h</text>
</a>
</g>
</g>
<!-- Node1&#45;&gt;Node8 -->
<g id="edge7" class="edge"><title>Node1&#45;&gt;Node8</title>
<path fill="none" stroke="midnightblue" d="M334.453,-216.144C326.613,-206.736 317.171,-195.405 310.793,-187.751"/>
<polygon fill="midnightblue" stroke="midnightblue" points="331.979,-218.641 341.069,-224.083 337.356,-214.16 331.979,-218.641"/>
</g>
<!-- Node13 -->
<g id="node13" class="node"><title>Node13</title>
<g id="a_node13"><a xlink:href="_line_writer_8h.html" target="_top" xlink:title="LineWriter.h">
<polygon fill="white" stroke="black" points="359,-168.5 359,-187.5 428,-187.5 428,-168.5 359,-168.5"/>
<text text-anchor="middle" x="393.5" y="-175.5" font-family="Helvetica,sans-Serif" font-size="10.00">LineWriter.h</text>
</a>
</g>
</g>
<!-- Node1&#45;&gt;Node13 -->
<g id="edge13" class="edge"><title>Node1&#45;&gt;Node13</title>
<path fill="none" stroke="midnightblue" d="M362.547,-216.144C370.387,-206.736 379.829,-195.405 386.207,-187.751"/>
<polygon fill="midnightblue" stroke="midnightblue" points="359.644,-214.16 355.931,-224.083 365.021,-218.641 359.644,-214.16"/>
</g>
<!-- Node14 -->
<g id="node14" class="node"><title>Node14</title>
<g id="a_node14"><a xlink:href="_tee_output_8h.html" target="_top" xlink:title="TeeOutput.h">
<polygon fill="white" stroke="black" points="446.5,-168.5 446.5,-187.5 516.5,-187.5 516.5,-168.5 446.5,-168.5"/>
<text text-anchor="middle" x="481.5" y="-175.5" font-family="Helvetica,sans-Serif" font-size="10.00">TeeOutput.h</text>
</a>
</g>
</g>
<!-- Node1&#45;&gt;Node14 -->
<g id="edge14" class="edge"><title>Node1&#45;&gt;Node14</title>
<path fill="none" stroke="midnightblue" d="M378.948,-220.638C403.907,-210.504 438.577,-196.427 460.524,-187.516"/>
<polygon fill="midnightblue" stroke="midnightblue" points="377.523,-217.439 369.574,-224.444 380.156,-223.924 377.523,-217.439"/>
</g>
<!-- Node15 -->
<g id="node15" class="node"><title>Node15</title>
<g id="a_node15"><a xlink:href="_trace_8h.html" target="_top" xlink:title="Trace.h">
<polygon fill="white" stroke="black" points="535,-168.5 535,-187.5 584,-187.5 584,-168.5 535,-168.5"/>
<text text-anchor="middle" x="559.5" y="-175.5" font-family="Helvetica,sans-Serif" font-size="10.00">Trace.h</text>
</a>
</g>
</g>
<!-- Node1&#45;&gt;Node15 -->
<g id="edge15" class="edge"><title>Node1&#45;&gt;Node15</title>
<path fill="none" stroke="midnightblue" d="M385.508,-223.703C421.336,-214.677 477.176,-200.538 525.5,-188 528.573,-187.203 531.801,-186.358 534.993,-185.518"/>
<polygon fill="midnightblue" stroke="midnightblue" points="384.352,-220.385 375.509,-226.221 386.061,-227.173 384.352,-220.385"/>
</g>
<!-- Node3 -->
<g id="node3" class="node"><title>Node3</title>
<g id="a_node3"><a xlink:href="_atomic_output_8h.html" target="_top" xlink:title="AtomicOutput.h">
<polygon fill="white" stroke="black" points="0,-112.5 0,-131.5 85,-131.5 85,-112.5 0,-112.5"/>
<text text-anchor="middle" x="42.5" y="-119.5" font-family="Helvetica,sans-Serif" font-size="10.00">AtomicOutput.h</text>
</a>
</g>
</g>
<!-- Node2&#45;&gt;Node3 -->
<g id="edge2" class="edge"><title>Node2&#45;&gt;Node3</title>
<path fill="none" stroke="midnightblue" d="M66.1999,-159.566C60.1781,-150.275 53.0314,-139.248 48.172,-131.751"/>
<polygon fill="midnightblue" stroke="midnightblue" points="63.3444,-161.595 71.7205,-168.083 69.2185,-157.788 63.3444,-161.595"/>
</g>
<!-- Node5 -->
<g id="node5" class="node"><title>Node5</title>
<g id="a_node5"><a xlink:href="_input_output_api_8h.html" target="_top" xlink:title="InputOutputApi.h">
<polygon fill="white" stroke="black" points="103,-112.5 103,-131.5 192,-131.5 192,-112.5 103,-112.5"/>
<text text-anchor="middle" x="147.5" y="-119.5" font-family="Helvetica,sans-Serif" font-size="10.00">InputOutputApi.h</text>
</a>
</g>
</g>
<!-- Node4&#45;&gt;Node5 -->
<g id="edge4" class="edge"><title>Node4&#45;&gt;Node5</title>
<path fill="none" stroke="midnightblue" d="M194.946,-161.82C183.122,-152.145 168.214,-139.948 158.297,-131.834"/>
<polygon fill="midnightblue" stroke="midnightblue" points="192.94,-164.7 202.896,-168.324 197.373,-159.283 192.94,-164.7"/>
</g>
<!-- Node7 -->
<g id="node7" class="node"><title>Node7</title>
<g id="a_node7"><a xlink:href="_file_2_output_8h.html" target="_top" xlink:title="Output.h">
<polygon fill="white" stroke="black" points="210.5,-112.5 210.5,-131.5 264.5,-131.5 264.5,-112.5 210.5,-112.5"/>
<text text-anchor="middle" x="237.5" y="-119.5" font-family="Helvetica,sans-Serif" font-size="10.00">Output.h</text>
</a>
</g>
</g>
<!-- Node4&#45;&gt;Node7 -->
<g id="edge6" class="edge"><title>Node4&#45;&gt;Node7</title>
<path fill="none" stroke="midnightblue" d="M221.638,-158.69C225.683,-149.589 230.383,-139.014 233.611,-131.751"/>
<polygon fill="midnightblue" stroke="midnightblue" points="218.326,-157.523 217.463,-168.083 224.723,-160.366 218.326,-157.523"/>
</g>
<!-- Node6 -->
<g id="node6" class="node"><title>Node6</title>
<g id="a_node6"><a xlink:href="_file_2_input_output_8h.html" target="_top" xlink:title="InputOutput.h">
<polygon fill="white" stroke="black" points="110,-56.5 110,-75.5 185,-75.5 185,-56.5 110,-56.5"/>
<text text-anchor="middle" x="147.5" y="-63.5" font-family="Helvetica,sans-Serif" font-size="10.00">InputOutput.h</text>
</a>
</g>
</g>
<!-- Node5&#45;&gt;Node6 -->
<g id="edge5" class="edge"><title>Node5&#45;&gt;Node6</title>
<path fill="none" stroke="midnightblue" d="M147.5,-101.805C147.5,-92.9102 147.5,-82.7798 147.5,-75.7511"/>
<polygon fill="midnightblue" stroke="midnightblue" points="144,-102.083 147.5,-112.083 151,-102.083 144,-102.083"/>
</g>
<!-- Node9 -->
<g id="node9" class="node"><title>Node9</title>
<g id="a_node9"><a xlink:href="_io_2_null_8h.html" target="_top" xlink:title="Null.h">
<polygon fill="white" stroke="black" points="283,-112.5 283,-131.5 324,-131.5 324,-112.5 283,-112.5"/>
<text text-anchor="middle" x="303.5" y="-119.5" font-family="Helvetica,sans-Serif" font-size="10.00">Null.h</text>
</a>
</g>
</g>
<!-- Node8&#45;&gt;Node9 -->
<g id="edge8" class="edge"><title>Node8&#45;&gt;Node9</title>
<path fill="none" stroke="midnightblue" d="M303.5,-157.805C303.5,-148.91 303.5,-138.78 303.5,-131.751"/>
<polygon fill="midnightblue" stroke="midnightblue" points="300,-158.083 303.5,-168.083 307,-158.083 300,-158.083"/>
</g>
<!-- Node10 -->
<g id="node10" class="node"><title>Node10</title>
<g id="a_node10"><a xlink:href="_socket_2_input_output_8h.html" target="_top" xlink:title="InputOutput.h">
<polygon fill="white" stroke="black" points="342,-112.5 342,-131.5 417,-131.5 417,-112.5 342,-112.5"/>
<text text-anchor="middle" x="379.5" y="-119.5" font-family="Helvetica,sans-Serif" font-size="10.00">InputOutput.h</text>
</a>
</g>
</g>
<!-- Node8&#45;&gt;Node10 -->
<g id="edge9" class="edge"><title>Node8&#45;&gt;Node10</title>
<path fill="none" stroke="midnightblue" d="M324.076,-162.38C337.812,-152.62 355.425,-140.106 367.067,-131.834"/>
<polygon fill="midnightblue" stroke="midnightblue" points="321.835,-159.679 315.711,-168.324 325.89,-165.385 321.835,-159.679"/>
</g>
<!-- Node11 -->
<g id="node11" class="node"><title>Node11</title>
<g id="a_node11"><a xlink:href="_factory_8h.html" target="_top" xlink:title="Factory.h">
<polygon fill="white" stroke="black" points="321.5,-56.5 321.5,-75.5 379.5,-75.5 379.5,-56.5 321.5,-56.5"/>
<text text-anchor="middle" x="350.5" y="-63.5" font-family="Helvetica,sans-Serif" font-size="10.00">Factory.h</text>
</a>
</g>
</g>
<!-- Node10&#45;&gt;Node11 -->
<g id="edge10" class="edge"><title>Node10&#45;&gt;Node11</title>
<path fill="none" stroke="midnightblue" d="M369.824,-102.983C364.902,-93.8168 359.142,-83.0922 355.2,-75.7511"/>
<polygon fill="midnightblue" stroke="midnightblue" points="366.896,-104.929 374.711,-112.083 373.063,-101.617 366.896,-104.929"/>
</g>
<!-- Node12 -->
<g id="node12" class="node"><title>Node12</title>
<g id="a_node12"><a xlink:href="_stream_pool_8h.html" target="_top" xlink:title="StreamPool.h">
<polygon fill="white" stroke="black" points="340.5,-0.5 340.5,-19.5 416.5,-19.5 416.5,-0.5 340.5,-0.5"/>
<text text-anchor="middle" x="378.5" y="-7.5" font-family="Helvetica,sans-Serif" font-size="10.00">StreamPool.h</text>
</a>
</g>
</g>
<!-- Node10&#45;&gt;Node12 -->
<g id="edge12" class="edge"><title>Node10&#45;&gt;Node12</title>
<path fill="none" stroke="midnightblue" d="M384.588,-102.169C387.479,-89.2109 390.211,-71.5905 388.5,-56 387.085,-43.1124 383.457,-28.5154 380.982,-19.5332"/>
<polygon fill="midnightblue" stroke="midnightblue" points="381.113,-101.641 382.114,-112.188 387.909,-103.319 381.113,-101.641"/>
</g>
<!-- Node11&#45;&gt;Node12 -->
<g id="edge11" class="edge"><title>Node11&#45;&gt;Node12</title>
<path fill="none" stroke="midnightblue" d="M359.842,-46.9827C364.595,-37.8168 370.156,-27.0922 373.962,-19.7511"/>
<polygon fill="midnightblue" stroke="midnightblue" points="356.62,-45.5943 355.124,-56.083 362.834,-48.8166 356.62,-45.5943"/>
</g>
<!-- Node16 -->
<g id="node16" class="node"><title>Node16</title>
<g id="a_node16"><a xlink:href="_local_8h.html" target="_top" xlink:title="Local.h">
<polygon fill="white" stroke="black" points="535.5,-112.5 535.5,-131.5 583.5,-131.5 583.5,-112.5 535.5,-112.5"/>
<text text-anchor="middle" x="559.5" y="-119.5" font-family="Helvetica,sans-Serif" font-size="10.00">Local.h</text>
</a>
</g>
</g>
<!-- Node15&#45;&gt;Node16 -->
<g id="edge16" class="edge"><title>Node15&#45;&gt;Node16</title>
<path fill="none" stroke="midnightblue" d="M559.5,-157.805C559.5,-148.91 559.5,-138.78 559.5,-131.751"/>
<polygon fill="midnightblue" stroke="midnightblue" points="556,-158.083 559.5,-168.083 563,-158.083 556,-158.083"/>
</g>
</g>
</svg>
