<?xml version="1.0" encoding="UTF-8" standalone="no"?>
<!DOCTYPE svg PUBLIC "-//W3C//DTD SVG 1.1//EN"
 "http://www.w3.org/Graphics/SVG/1.1/DTD/svg11.dtd">
<!-- Generated by graphviz version 2.38.0 (20140413.2041)
 -->
<!-- Title: PostApi.h Pages: 1 -->
<svg width="721pt" height="364pt"
 viewBox="0.00 0.00 721.00 364.00" xmlns="http://www.w3.org/2000/svg" xmlns:xlink="http://www.w3.org/1999/xlink">
<g id="graph0" class="graph" transform="scale(1 1) rotate(0) translate(4 360)">
<title>PostApi.h</title>
<polygon fill="white" stroke="none" points="-4,4 -4,-360 717,-360 717,4 -4,4"/>
<!-- Node1 -->
<g id="node1" class="node"><title>Node1</title>
<polygon fill="#bfbfbf" stroke="black" points="522.5,-336.5 522.5,-355.5 581.5,-355.5 581.5,-336.5 522.5,-336.5"/>
<text text-anchor="middle" x="552" y="-343.5" font-family="Helvetica,sans-Serif" font-size="10.00">PostApi.h</text>
</g>
<!-- Node2 -->
<g id="node2" class="node"><title>Node2</title>
<g id="a_node2"><a xlink:href="_async_return_handler_8h.html" target="_top" xlink:title="AsyncReturnHandler.h">
<polygon fill="white" stroke="black" points="495,-224.5 495,-243.5 609,-243.5 609,-224.5 495,-224.5"/>
<text text-anchor="middle" x="552" y="-231.5" font-family="Helvetica,sans-Serif" font-size="10.00">AsyncReturnHandler.h</text>
</a>
</g>
</g>
<!-- Node1&#45;&gt;Node2 -->
<g id="edge1" class="edge"><title>Node1&#45;&gt;Node2</title>
<path fill="none" stroke="midnightblue" d="M552,-326.348C552,-302.254 552,-261.308 552,-243.591"/>
<polygon fill="midnightblue" stroke="midnightblue" points="548.5,-326.368 552,-336.368 555.5,-326.369 548.5,-326.368"/>
</g>
<!-- Node10 -->
<g id="node10" class="node"><title>Node10</title>
<g id="a_node10"><a xlink:href="_mailbox_8h.html" target="_top" xlink:title="Mailbox.h">
<polygon fill="white" stroke="black" points="610.5,-280.5 610.5,-299.5 669.5,-299.5 669.5,-280.5 610.5,-280.5"/>
<text text-anchor="middle" x="640" y="-287.5" font-family="Helvetica,sans-Serif" font-size="10.00">Mailbox.h</text>
</a>
</g>
</g>
<!-- Node1&#45;&gt;Node10 -->
<g id="edge10" class="edge"><title>Node1&#45;&gt;Node10</title>
<path fill="none" stroke="midnightblue" d="M574.977,-330.901C591.113,-320.999 612.181,-308.071 625.896,-299.655"/>
<polygon fill="midnightblue" stroke="midnightblue" points="572.831,-328.111 566.139,-336.324 576.493,-334.077 572.831,-328.111"/>
</g>
<!-- Node12 -->
<g id="node12" class="node"><title>Node12</title>
<g id="a_node12"><a xlink:href="_s_a_p_8h.html" target="_top" xlink:title="SAP.h">
<polygon fill="white" stroke="black" points="243.5,-280.5 243.5,-299.5 288.5,-299.5 288.5,-280.5 243.5,-280.5"/>
<text text-anchor="middle" x="266" y="-287.5" font-family="Helvetica,sans-Serif" font-size="10.00">SAP.h</text>
</a>
</g>
</g>
<!-- Node1&#45;&gt;Node12 -->
<g id="edge12" class="edge"><title>Node1&#45;&gt;Node12</title>
<path fill="none" stroke="midnightblue" d="M512.497,-337.541C451.798,-326.081 337.52,-304.504 288.867,-295.317"/>
<polygon fill="midnightblue" stroke="midnightblue" points="511.994,-341.008 522.47,-339.424 513.293,-334.13 511.994,-341.008"/>
</g>
<!-- Node3 -->
<g id="node3" class="node"><title>Node3</title>
<g id="a_node3"><a xlink:href="_response_message_8h.html" target="_top" xlink:title="ResponseMessage.h">
<polygon fill="white" stroke="black" points="293,-168.5 293,-187.5 401,-187.5 401,-168.5 293,-168.5"/>
<text text-anchor="middle" x="347" y="-175.5" font-family="Helvetica,sans-Serif" font-size="10.00">ResponseMessage.h</text>
</a>
</g>
</g>
<!-- Node2&#45;&gt;Node3 -->
<g id="edge2" class="edge"><title>Node2&#45;&gt;Node3</title>
<path fill="none" stroke="midnightblue" d="M509.592,-221.829C470.886,-211.633 414.507,-196.782 379.331,-187.516"/>
<polygon fill="midnightblue" stroke="midnightblue" points="508.955,-225.281 519.517,-224.444 510.739,-218.512 508.955,-225.281"/>
</g>
<!-- Node4 -->
<g id="node4" class="node"><title>Node4</title>
<g id="a_node4"><a xlink:href="_atomic_request_8h.html" target="_top" xlink:title="AtomicRequest.h">
<polygon fill="white" stroke="black" points="249,-112.5 249,-131.5 341,-131.5 341,-112.5 249,-112.5"/>
<text text-anchor="middle" x="295" y="-119.5" font-family="Helvetica,sans-Serif" font-size="10.00">AtomicRequest.h</text>
</a>
</g>
</g>
<!-- Node3&#45;&gt;Node4 -->
<g id="edge3" class="edge"><title>Node3&#45;&gt;Node4</title>
<path fill="none" stroke="midnightblue" d="M331.321,-160.718C322.155,-151.2 310.947,-139.561 303.427,-131.751"/>
<polygon fill="midnightblue" stroke="midnightblue" points="328.956,-163.308 338.413,-168.083 333.998,-158.452 328.956,-163.308"/>
</g>
<!-- Node6 -->
<g id="node6" class="node"><title>Node6</title>
<g id="a_node6"><a xlink:href="_close_request_8h.html" target="_top" xlink:title="CloseRequest.h">
<polygon fill="white" stroke="black" points="372,-112.5 372,-131.5 458,-131.5 458,-112.5 372,-112.5"/>
<text text-anchor="middle" x="415" y="-119.5" font-family="Helvetica,sans-Serif" font-size="10.00">CloseRequest.h</text>
</a>
</g>
</g>
<!-- Node3&#45;&gt;Node6 -->
<g id="edge5" class="edge"><title>Node3&#45;&gt;Node6</title>
<path fill="none" stroke="midnightblue" d="M365.762,-162.101C378,-152.382 393.559,-140.027 403.876,-131.834"/>
<polygon fill="midnightblue" stroke="midnightblue" points="363.58,-159.364 357.925,-168.324 367.933,-164.846 363.58,-159.364"/>
</g>
<!-- Node8 -->
<g id="node8" class="node"><title>Node8</title>
<g id="a_node8"><a xlink:href="_open_request_8h.html" target="_top" xlink:title="OpenRequest.h">
<polygon fill="white" stroke="black" points="147,-112.5 147,-131.5 231,-131.5 231,-112.5 147,-112.5"/>
<text text-anchor="middle" x="189" y="-119.5" font-family="Helvetica,sans-Serif" font-size="10.00">OpenRequest.h</text>
</a>
</g>
</g>
<!-- Node3&#45;&gt;Node8 -->
<g id="edge7" class="edge"><title>Node3&#45;&gt;Node8</title>
<path fill="none" stroke="midnightblue" d="M312.392,-165.172C282.641,-155.004 240.453,-140.585 213.918,-131.516"/>
<polygon fill="midnightblue" stroke="midnightblue" points="311.37,-168.521 321.964,-168.444 313.634,-161.898 311.37,-168.521"/>
</g>
<!-- Node5 -->
<g id="node5" class="node"><title>Node5</title>
<g id="a_node5"><a xlink:href="_atomic_sync_8h.html" target="_top" xlink:title="AtomicSync.h">
<polygon fill="white" stroke="black" points="256,-56.5 256,-75.5 334,-75.5 334,-56.5 256,-56.5"/>
<text text-anchor="middle" x="295" y="-63.5" font-family="Helvetica,sans-Serif" font-size="10.00">AtomicSync.h</text>
</a>
</g>
</g>
<!-- Node4&#45;&gt;Node5 -->
<g id="edge4" class="edge"><title>Node4&#45;&gt;Node5</title>
<path fill="none" stroke="midnightblue" d="M295,-101.805C295,-92.9102 295,-82.7798 295,-75.7511"/>
<polygon fill="midnightblue" stroke="midnightblue" points="291.5,-102.083 295,-112.083 298.5,-102.083 291.5,-102.083"/>
</g>
<!-- Node7 -->
<g id="node7" class="node"><title>Node7</title>
<g id="a_node7"><a xlink:href="_close_sync_8h.html" target="_top" xlink:title="CloseSync.h">
<polygon fill="white" stroke="black" points="256,-0.5 256,-19.5 328,-19.5 328,-0.5 256,-0.5"/>
<text text-anchor="middle" x="292" y="-7.5" font-family="Helvetica,sans-Serif" font-size="10.00">CloseSync.h</text>
</a>
</g>
</g>
<!-- Node6&#45;&gt;Node7 -->
<g id="edge6" class="edge"><title>Node6&#45;&gt;Node7</title>
<path fill="none" stroke="midnightblue" d="M397.532,-105.129C382.982,-91.9338 361.695,-72.6853 343,-56 328.728,-43.2624 312.096,-28.6255 301.806,-19.5939"/>
<polygon fill="midnightblue" stroke="midnightblue" points="395.492,-108.004 405.249,-112.133 400.196,-102.821 395.492,-108.004"/>
</g>
<!-- Node9 -->
<g id="node9" class="node"><title>Node9</title>
<g id="a_node9"><a xlink:href="_open_sync_8h.html" target="_top" xlink:title="OpenSync.h">
<polygon fill="white" stroke="black" points="160.5,-56.5 160.5,-75.5 231.5,-75.5 231.5,-56.5 160.5,-56.5"/>
<text text-anchor="middle" x="196" y="-63.5" font-family="Helvetica,sans-Serif" font-size="10.00">OpenSync.h</text>
</a>
</g>
</g>
<!-- Node8&#45;&gt;Node9 -->
<g id="edge8" class="edge"><title>Node8&#45;&gt;Node9</title>
<path fill="none" stroke="midnightblue" d="M191.45,-102.101C192.612,-93.1357 193.944,-82.8579 194.866,-75.7511"/>
<polygon fill="midnightblue" stroke="midnightblue" points="187.971,-101.716 190.156,-112.083 194.912,-102.616 187.971,-101.716"/>
</g>
<!-- Node9&#45;&gt;Node7 -->
<g id="edge9" class="edge"><title>Node9&#45;&gt;Node7</title>
<path fill="none" stroke="midnightblue" d="M220.574,-51.1774C238.239,-41.2407 261.513,-28.1492 276.614,-19.6545"/>
<polygon fill="midnightblue" stroke="midnightblue" points="218.424,-48.3708 211.424,-56.324 221.856,-54.4718 218.424,-48.3708"/>
</g>
<!-- Node11 -->
<g id="node11" class="node"><title>Node11</title>
<g id="a_node11"><a xlink:href="_mailbox_server_8h.html" target="_top" xlink:title="MailboxServer.h">
<polygon fill="white" stroke="black" points="627,-224.5 627,-243.5 713,-243.5 713,-224.5 627,-224.5"/>
<text text-anchor="middle" x="670" y="-231.5" font-family="Helvetica,sans-Serif" font-size="10.00">MailboxServer.h</text>
</a>
</g>
</g>
<!-- Node10&#45;&gt;Node11 -->
<g id="edge11" class="edge"><title>Node10&#45;&gt;Node11</title>
<path fill="none" stroke="midnightblue" d="M649.847,-271.275C654.975,-262.045 661.016,-251.17 665.138,-243.751"/>
<polygon fill="midnightblue" stroke="midnightblue" points="646.751,-269.642 644.954,-280.083 652.87,-273.041 646.751,-269.642"/>
</g>
<!-- Node12&#45;&gt;Node4 -->
<g id="edge15" class="edge"><title>Node12&#45;&gt;Node4</title>
<path fill="none" stroke="midnightblue" d="M275.925,-271.302C279.899,-263.238 284.003,-253.409 286,-244 293.014,-210.947 279.959,-201.547 284,-168 285.558,-155.065 289.549,-140.48 292.27,-131.514"/>
<polygon fill="midnightblue" stroke="midnightblue" points="272.693,-269.928 271.13,-280.407 278.887,-273.19 272.693,-269.928"/>
</g>
<!-- Node12&#45;&gt;Node6 -->
<g id="edge16" class="edge"><title>Node12&#45;&gt;Node6</title>
<path fill="none" stroke="midnightblue" d="M298.366,-279.594C337.392,-266.312 401.2,-237.93 429,-188 439.22,-169.644 427.832,-144.535 420.395,-131.552"/>
<polygon fill="midnightblue" stroke="midnightblue" points="296.963,-276.37 288.541,-282.797 299.133,-283.025 296.963,-276.37"/>
</g>
<!-- Node12&#45;&gt;Node8 -->
<g id="edge17" class="edge"><title>Node12&#45;&gt;Node8</title>
<path fill="none" stroke="midnightblue" d="M233.329,-283.612C210.476,-277.956 181.537,-266.575 167,-244 143.535,-207.558 171.117,-152.826 183.544,-131.726"/>
<polygon fill="midnightblue" stroke="midnightblue" points="232.807,-287.082 243.327,-285.828 234.321,-280.247 232.807,-287.082"/>
</g>
<!-- Node13 -->
<g id="node13" class="node"><title>Node13</title>
<g id="a_node13"><a xlink:href="_listener_client_request_8h.html" target="_top" xlink:title="ListenerClientRequest.h">
<polygon fill="white" stroke="black" points="0,-168.5 0,-187.5 120,-187.5 120,-168.5 0,-168.5"/>
<text text-anchor="middle" x="60" y="-175.5" font-family="Helvetica,sans-Serif" font-size="10.00">ListenerClientRequest.h</text>
</a>
</g>
</g>
<!-- Node12&#45;&gt;Node13 -->
<g id="edge13" class="edge"><title>Node12&#45;&gt;Node13</title>
<path fill="none" stroke="midnightblue" d="M233.425,-281.705C205.744,-274.636 165.588,-262.282 134,-244 106.769,-228.24 80.4538,-201.556 67.8058,-187.793"/>
<polygon fill="midnightblue" stroke="midnightblue" points="232.833,-285.164 243.379,-284.157 234.507,-278.367 232.833,-285.164"/>
</g>
<!-- Node15 -->
<g id="node15" class="node"><title>Node15</title>
<g id="a_node15"><a xlink:href="_request_message_8h.html" target="_top" xlink:title="RequestMessage.h">
<polygon fill="white" stroke="black" points="176.5,-224.5 176.5,-243.5 277.5,-243.5 277.5,-224.5 176.5,-224.5"/>
<text text-anchor="middle" x="227" y="-231.5" font-family="Helvetica,sans-Serif" font-size="10.00">RequestMessage.h</text>
</a>
</g>
</g>
<!-- Node12&#45;&gt;Node15 -->
<g id="edge18" class="edge"><title>Node12&#45;&gt;Node15</title>
<path fill="none" stroke="midnightblue" d="M253.618,-271.855C246.865,-262.505 238.791,-251.327 233.32,-243.751"/>
<polygon fill="midnightblue" stroke="midnightblue" points="250.868,-274.025 259.56,-280.083 256.542,-269.927 250.868,-274.025"/>
</g>
<!-- Node14 -->
<g id="node14" class="node"><title>Node14</title>
<g id="a_node14"><a xlink:href="_listener_client_sync_8h.html" target="_top" xlink:title="ListenerClientSync.h">
<polygon fill="white" stroke="black" points="6.5,-112.5 6.5,-131.5 113.5,-131.5 113.5,-112.5 6.5,-112.5"/>
<text text-anchor="middle" x="60" y="-119.5" font-family="Helvetica,sans-Serif" font-size="10.00">ListenerClientSync.h</text>
</a>
</g>
</g>
<!-- Node13&#45;&gt;Node14 -->
<g id="edge14" class="edge"><title>Node13&#45;&gt;Node14</title>
<path fill="none" stroke="midnightblue" d="M60,-157.805C60,-148.91 60,-138.78 60,-131.751"/>
<polygon fill="midnightblue" stroke="midnightblue" points="56.5001,-158.083 60,-168.083 63.5001,-158.083 56.5001,-158.083"/>
</g>
<!-- Node15&#45;&gt;Node3 -->
<g id="edge23" class="edge"><title>Node15&#45;&gt;Node3</title>
<path fill="none" stroke="midnightblue" d="M255.373,-220.232C277.82,-210.131 308.535,-196.309 328.075,-187.516"/>
<polygon fill="midnightblue" stroke="midnightblue" points="253.697,-217.148 246.014,-224.444 256.57,-223.532 253.697,-217.148"/>
</g>
<!-- Node15&#45;&gt;Node4 -->
<g id="edge20" class="edge"><title>Node15&#45;&gt;Node4</title>
<path fill="none" stroke="midnightblue" d="M231.592,-214.453C235.467,-200.905 241.858,-182.456 251,-168 260.111,-153.594 274.457,-140.035 284.274,-131.64"/>
<polygon fill="midnightblue" stroke="midnightblue" points="228.112,-213.921 228.923,-224.485 234.877,-215.721 228.112,-213.921"/>
</g>
<!-- Node15&#45;&gt;Node6 -->
<g id="edge21" class="edge"><title>Node15&#45;&gt;Node6</title>
<path fill="none" stroke="midnightblue" d="M287.864,-225.74C334.781,-218.796 394.231,-206.6 410,-188 423.467,-172.115 420.158,-145.486 417.232,-131.763"/>
<polygon fill="midnightblue" stroke="midnightblue" points="287.166,-222.304 277.762,-227.184 288.156,-229.234 287.166,-222.304"/>
</g>
<!-- Node15&#45;&gt;Node8 -->
<g id="edge22" class="edge"><title>Node15&#45;&gt;Node8</title>
<path fill="none" stroke="midnightblue" d="M220.669,-214.674C212.361,-190.625 198.116,-149.388 191.968,-131.591"/>
<polygon fill="midnightblue" stroke="midnightblue" points="217.445,-216.059 224.018,-224.368 224.061,-213.774 217.445,-216.059"/>
</g>
<!-- Node15&#45;&gt;Node13 -->
<g id="edge19" class="edge"><title>Node15&#45;&gt;Node13</title>
<path fill="none" stroke="midnightblue" d="M190.83,-221.304C159.363,-211.129 114.506,-196.625 86.3378,-187.516"/>
<polygon fill="midnightblue" stroke="midnightblue" points="189.947,-224.697 200.538,-224.444 192.1,-218.037 189.947,-224.697"/>
</g>
</g>
</svg>
