<?xml version="1.0" encoding="UTF-8" standalone="no"?>
<!DOCTYPE svg PUBLIC "-//W3C//DTD SVG 1.1//EN"
 "http://www.w3.org/Graphics/SVG/1.1/DTD/svg11.dtd">
<!-- Generated by graphviz version 2.38.0 (20140413.2041)
 -->
<!-- Title: Receiver.h Pages: 1 -->
<svg width="696pt" height="196pt"
 viewBox="0.00 0.00 695.50 196.00" xmlns="http://www.w3.org/2000/svg" xmlns:xlink="http://www.w3.org/1999/xlink">
<g id="graph0" class="graph" transform="scale(1 1) rotate(0) translate(4 192)">
<title>Receiver.h</title>
<polygon fill="white" stroke="none" points="-4,4 -4,-192 691.5,-192 691.5,4 -4,4"/>
<!-- Node1 -->
<g id="node1" class="node"><title>Node1</title>
<polygon fill="#bfbfbf" stroke="black" points="170.5,-168.5 170.5,-187.5 232.5,-187.5 232.5,-168.5 170.5,-168.5"/>
<text text-anchor="middle" x="201.5" y="-175.5" font-family="Helvetica,sans-Serif" font-size="10.00">Receiver.h</text>
</g>
<!-- Node2 -->
<g id="node2" class="node"><title>Node2</title>
<g id="a_node2"><a xlink:href="_driver_2_uart_2_hal_8h.html" target="_top" xlink:title="Cpl/Driver/Uart/Hal.h">
<polygon fill="white" stroke="black" points="149.5,-112.5 149.5,-131.5 253.5,-131.5 253.5,-112.5 149.5,-112.5"/>
<text text-anchor="middle" x="201.5" y="-119.5" font-family="Helvetica,sans-Serif" font-size="10.00">Cpl/Driver/Uart/Hal.h</text>
</a>
</g>
</g>
<!-- Node1&#45;&gt;Node2 -->
<g id="edge1" class="edge"><title>Node1&#45;&gt;Node2</title>
<path fill="none" stroke="midnightblue" d="M201.5,-168.083C201.5,-161.006 201.5,-150.861 201.5,-141.986"/>
<polygon fill="midnightblue" stroke="midnightblue" points="205,-141.751 201.5,-131.751 198,-141.751 205,-141.751"/>
</g>
<!-- Node5 -->
<g id="node5" class="node"><title>Node5</title>
<g id="a_node5"><a xlink:href="_ring_buffer_8h.html" target="_top" xlink:title="Cpl/Container/RingBuffer.h">
<polygon fill="white" stroke="black" points="0,-112.5 0,-131.5 131,-131.5 131,-112.5 0,-112.5"/>
<text text-anchor="middle" x="65.5" y="-119.5" font-family="Helvetica,sans-Serif" font-size="10.00">Cpl/Container/RingBuffer.h</text>
</a>
</g>
</g>
<!-- Node1&#45;&gt;Node5 -->
<g id="edge4" class="edge"><title>Node1&#45;&gt;Node5</title>
<path fill="none" stroke="midnightblue" d="M179.95,-168.444C157.469,-159.517 122.012,-145.439 96.5201,-135.317"/>
<polygon fill="midnightblue" stroke="midnightblue" points="97.5346,-131.954 86.9488,-131.516 94.9513,-138.46 97.5346,-131.954"/>
</g>
<!-- Node6 -->
<g id="node6" class="node"><title>Node6</title>
<g id="a_node6"><a xlink:href="_thread_8h.html" target="_top" xlink:title="Cpl/System/Thread.h">
<polygon fill="white" stroke="black" points="328.5,-112.5 328.5,-131.5 436.5,-131.5 436.5,-112.5 328.5,-112.5"/>
<text text-anchor="middle" x="382.5" y="-119.5" font-family="Helvetica,sans-Serif" font-size="10.00">Cpl/System/Thread.h</text>
</a>
</g>
</g>
<!-- Node1&#45;&gt;Node6 -->
<g id="edge6" class="edge"><title>Node1&#45;&gt;Node6</title>
<path fill="none" stroke="midnightblue" d="M230.18,-168.444C261.027,-159.241 310.228,-144.562 344.329,-134.388"/>
<polygon fill="midnightblue" stroke="midnightblue" points="345.372,-137.729 353.954,-131.516 343.371,-131.021 345.372,-137.729"/>
</g>
<!-- Node3 -->
<g id="node3" class="node"><title>Node3</title>
<polygon fill="white" stroke="#bfbfbf" points="55,-56.5 55,-75.5 104,-75.5 104,-56.5 55,-56.5"/>
<text text-anchor="middle" x="79.5" y="-63.5" font-family="Helvetica,sans-Serif" font-size="10.00">stdint.h</text>
</g>
<!-- Node2&#45;&gt;Node3 -->
<g id="edge2" class="edge"><title>Node2&#45;&gt;Node3</title>
<path fill="none" stroke="midnightblue" d="M182.169,-112.444C162.18,-103.596 130.757,-89.6875 107.936,-79.5865"/>
<polygon fill="midnightblue" stroke="midnightblue" points="109.302,-76.3635 98.7408,-75.5164 106.468,-82.7645 109.302,-76.3635"/>
</g>
<!-- Node4 -->
<g id="node4" class="node"><title>Node4</title>
<polygon fill="white" stroke="#bfbfbf" points="149,-56.5 149,-75.5 226,-75.5 226,-56.5 149,-56.5"/>
<text text-anchor="middle" x="187.5" y="-63.5" font-family="Helvetica,sans-Serif" font-size="10.00">colony_map.h</text>
</g>
<!-- Node2&#45;&gt;Node4 -->
<g id="edge3" class="edge"><title>Node2&#45;&gt;Node4</title>
<path fill="none" stroke="midnightblue" d="M199.188,-112.083C197.333,-104.927 194.665,-94.6353 192.346,-85.6911"/>
<polygon fill="midnightblue" stroke="midnightblue" points="195.666,-84.5527 189.769,-75.7511 188.891,-86.3094 195.666,-84.5527"/>
</g>
<!-- Node5&#45;&gt;Node3 -->
<g id="edge5" class="edge"><title>Node5&#45;&gt;Node3</title>
<path fill="none" stroke="midnightblue" d="M67.8118,-112.083C69.667,-104.927 72.3353,-94.6353 74.6542,-85.6911"/>
<polygon fill="midnightblue" stroke="midnightblue" points="78.1095,-86.3094 77.2312,-75.7511 71.3335,-84.5527 78.1095,-86.3094"/>
</g>
<!-- Node6&#45;&gt;Node4 -->
<g id="edge7" class="edge"><title>Node6&#45;&gt;Node4</title>
<path fill="none" stroke="midnightblue" d="M351.602,-112.444C318.226,-103.201 264.906,-88.4356 228.151,-78.2572"/>
<polygon fill="midnightblue" stroke="midnightblue" points="228.825,-74.8122 218.254,-75.5164 226.957,-81.5583 228.825,-74.8122"/>
</g>
<!-- Node7 -->
<g id="node7" class="node"><title>Node7</title>
<g id="a_node7"><a xlink:href="_runnable_8h.html" target="_top" xlink:title="Cpl/System/Runnable.h">
<polygon fill="white" stroke="black" points="244,-56.5 244,-75.5 363,-75.5 363,-56.5 244,-56.5"/>
<text text-anchor="middle" x="303.5" y="-63.5" font-family="Helvetica,sans-Serif" font-size="10.00">Cpl/System/Runnable.h</text>
</a>
</g>
</g>
<!-- Node6&#45;&gt;Node7 -->
<g id="edge8" class="edge"><title>Node6&#45;&gt;Node7</title>
<path fill="none" stroke="midnightblue" d="M369.807,-112.324C357.599,-103.979 338.922,-91.2122 324.497,-81.3524"/>
<polygon fill="midnightblue" stroke="midnightblue" points="326.392,-78.4082 316.161,-75.6545 322.442,-84.1871 326.392,-78.4082"/>
</g>
<!-- Node8 -->
<g id="node8" class="node"><title>Node8</title>
<g id="a_node8"><a xlink:href="_signable_8h.html" target="_top" xlink:title="Cpl/System/Signable.h">
<polygon fill="white" stroke="black" points="381.5,-56.5 381.5,-75.5 497.5,-75.5 497.5,-56.5 381.5,-56.5"/>
<text text-anchor="middle" x="439.5" y="-63.5" font-family="Helvetica,sans-Serif" font-size="10.00">Cpl/System/Signable.h</text>
</a>
</g>
</g>
<!-- Node6&#45;&gt;Node8 -->
<g id="edge9" class="edge"><title>Node6&#45;&gt;Node8</title>
<path fill="none" stroke="midnightblue" d="M391.658,-112.324C400.001,-104.42 412.532,-92.5482 422.677,-82.9377"/>
<polygon fill="midnightblue" stroke="midnightblue" points="425.323,-85.2522 430.175,-75.8339 420.509,-80.1705 425.323,-85.2522"/>
</g>
<!-- Node10 -->
<g id="node10" class="node"><title>Node10</title>
<g id="a_node10"><a xlink:href="_traverser_8h.html" target="_top" xlink:title="Cpl/Type/Traverser.h">
<polygon fill="white" stroke="black" points="516,-56.5 516,-75.5 621,-75.5 621,-56.5 516,-56.5"/>
<text text-anchor="middle" x="568.5" y="-63.5" font-family="Helvetica,sans-Serif" font-size="10.00">Cpl/Type/Traverser.h</text>
</a>
</g>
</g>
<!-- Node6&#45;&gt;Node10 -->
<g id="edge11" class="edge"><title>Node6&#45;&gt;Node10</title>
<path fill="none" stroke="midnightblue" d="M411.972,-112.444C443.671,-103.241 494.232,-88.5617 529.275,-78.3879"/>
<polygon fill="midnightblue" stroke="midnightblue" points="530.538,-81.6658 539.166,-75.5164 528.586,-74.9434 530.538,-81.6658"/>
</g>
<!-- Node11 -->
<g id="node11" class="node"><title>Node11</title>
<polygon fill="white" stroke="#bfbfbf" points="639.5,-56.5 639.5,-75.5 687.5,-75.5 687.5,-56.5 639.5,-56.5"/>
<text text-anchor="middle" x="663.5" y="-63.5" font-family="Helvetica,sans-Serif" font-size="10.00">stdlib.h</text>
</g>
<!-- Node6&#45;&gt;Node11 -->
<g id="edge12" class="edge"><title>Node6&#45;&gt;Node11</title>
<path fill="none" stroke="midnightblue" d="M436.959,-112.514C485.125,-104.694 557.491,-92.1795 629.286,-76.1189"/>
<polygon fill="midnightblue" stroke="midnightblue" points="630.428,-79.4489 639.41,-73.8292 628.884,-72.6214 630.428,-79.4489"/>
</g>
<!-- Node9 -->
<g id="node9" class="node"><title>Node9</title>
<g id="a_node9"><a xlink:href="_item_8h.html" target="_top" xlink:title="Cpl/Container/Item.h">
<polygon fill="white" stroke="black" points="387,-0.5 387,-19.5 492,-19.5 492,-0.5 387,-0.5"/>
<text text-anchor="middle" x="439.5" y="-7.5" font-family="Helvetica,sans-Serif" font-size="10.00">Cpl/Container/Item.h</text>
</a>
</g>
</g>
<!-- Node8&#45;&gt;Node9 -->
<g id="edge10" class="edge"><title>Node8&#45;&gt;Node9</title>
<path fill="none" stroke="midnightblue" d="M439.5,-56.083C439.5,-49.0059 439.5,-38.8611 439.5,-29.9865"/>
<polygon fill="midnightblue" stroke="midnightblue" points="443,-29.751 439.5,-19.7511 436,-29.7511 443,-29.751"/>
</g>
</g>
</svg>
