<?xml version="1.0" encoding="UTF-8" standalone="no"?>
<!DOCTYPE svg PUBLIC "-//W3C//DTD SVG 1.1//EN"
 "http://www.w3.org/Graphics/SVG/1.1/DTD/svg11.dtd">
<!-- Generated by graphviz version 2.38.0 (20140413.2041)
 -->
<!-- Title: RequestMessage.h Pages: 1 -->
<svg width="247pt" height="252pt"
 viewBox="0.00 0.00 246.56 252.00" xmlns="http://www.w3.org/2000/svg" xmlns:xlink="http://www.w3.org/1999/xlink">
<g id="graph0" class="graph" transform="scale(1 1) rotate(0) translate(4 248)">
<title>RequestMessage.h</title>
<polygon fill="white" stroke="none" points="-4,4 -4,-248 242.563,-248 242.563,4 -4,4"/>
<!-- Node1 -->
<g id="node1" class="node"><title>Node1</title>
<polygon fill="#bfbfbf" stroke="black" points="81.0631,-224.5 81.0631,-243.5 182.063,-243.5 182.063,-224.5 81.0631,-224.5"/>
<text text-anchor="middle" x="131.563" y="-231.5" font-family="Helvetica,sans-Serif" font-size="10.00">RequestMessage.h</text>
</g>
<!-- Node2 -->
<g id="node2" class="node"><title>Node2</title>
<g id="a_node2"><a xlink:href="_service_message_8h.html" target="_top" xlink:title="Cpl/Itc/ServiceMessage.h">
<polygon fill="white" stroke="black" points="8.06308,-168.5 8.06308,-187.5 135.063,-187.5 135.063,-168.5 8.06308,-168.5"/>
<text text-anchor="middle" x="71.5631" y="-175.5" font-family="Helvetica,sans-Serif" font-size="10.00">Cpl/Itc/ServiceMessage.h</text>
</a>
</g>
</g>
<!-- Node1&#45;&gt;Node2 -->
<g id="edge1" class="edge"><title>Node1&#45;&gt;Node2</title>
<path fill="none" stroke="midnightblue" d="M121.923,-224.324C113.054,-216.341 99.6884,-204.313 88.9552,-194.653"/>
<polygon fill="midnightblue" stroke="midnightblue" points="91.1529,-191.922 81.3785,-187.834 86.4701,-197.125 91.1529,-191.922"/>
</g>
<!-- Node6 -->
<g id="node6" class="node"><title>Node6</title>
<g id="a_node6"><a xlink:href="_s_a_p_8h.html" target="_top" xlink:title="Cpl/Itc/SAP.h">
<polygon fill="white" stroke="black" points="154.563,-168.5 154.563,-187.5 230.563,-187.5 230.563,-168.5 154.563,-168.5"/>
<text text-anchor="middle" x="192.563" y="-175.5" font-family="Helvetica,sans-Serif" font-size="10.00">Cpl/Itc/SAP.h</text>
</a>
</g>
</g>
<!-- Node1&#45;&gt;Node6 -->
<g id="edge5" class="edge"><title>Node1&#45;&gt;Node6</title>
<path fill="none" stroke="midnightblue" d="M141.364,-224.324C150.381,-216.341 163.969,-204.313 174.881,-194.653"/>
<polygon fill="midnightblue" stroke="midnightblue" points="177.416,-197.083 182.584,-187.834 172.776,-191.842 177.416,-197.083"/>
</g>
<!-- Node3 -->
<g id="node3" class="node"><title>Node3</title>
<g id="a_node3"><a xlink:href="_message_8h.html" target="_top" xlink:title="Cpl/Itc/Message.h">
<polygon fill="white" stroke="black" points="41.0631,-56.5 41.0631,-75.5 136.063,-75.5 136.063,-56.5 41.0631,-56.5"/>
<text text-anchor="middle" x="88.5631" y="-63.5" font-family="Helvetica,sans-Serif" font-size="10.00">Cpl/Itc/Message.h</text>
</a>
</g>
</g>
<!-- Node2&#45;&gt;Node3 -->
<g id="edge2" class="edge"><title>Node2&#45;&gt;Node3</title>
<path fill="none" stroke="midnightblue" d="M49.7239,-168.371C24.7509,-157.135 -10.926,-136.065 3.56308,-112 12.8506,-96.5744 29.3959,-86.1596 45.4366,-79.2713"/>
<polygon fill="midnightblue" stroke="midnightblue" points="46.7332,-82.5224 54.7641,-75.6119 44.1766,-76.006 46.7332,-82.5224"/>
</g>
<!-- Node5 -->
<g id="node5" class="node"><title>Node5</title>
<g id="a_node5"><a xlink:href="_return_handler_8h.html" target="_top" xlink:title="Cpl/Itc/ReturnHandler.h">
<polygon fill="white" stroke="black" points="13.0631,-112.5 13.0631,-131.5 130.063,-131.5 130.063,-112.5 13.0631,-112.5"/>
<text text-anchor="middle" x="71.5631" y="-119.5" font-family="Helvetica,sans-Serif" font-size="10.00">Cpl/Itc/ReturnHandler.h</text>
</a>
</g>
</g>
<!-- Node2&#45;&gt;Node5 -->
<g id="edge4" class="edge"><title>Node2&#45;&gt;Node5</title>
<path fill="none" stroke="midnightblue" d="M71.5631,-168.083C71.5631,-161.006 71.5631,-150.861 71.5631,-141.986"/>
<polygon fill="midnightblue" stroke="midnightblue" points="75.0632,-141.751 71.5631,-131.751 68.0632,-141.751 75.0632,-141.751"/>
</g>
<!-- Node4 -->
<g id="node4" class="node"><title>Node4</title>
<g id="a_node4"><a xlink:href="_item_8h.html" target="_top" xlink:title="Cpl/Container/Item.h">
<polygon fill="white" stroke="black" points="36.0631,-0.5 36.0631,-19.5 141.063,-19.5 141.063,-0.5 36.0631,-0.5"/>
<text text-anchor="middle" x="88.5631" y="-7.5" font-family="Helvetica,sans-Serif" font-size="10.00">Cpl/Container/Item.h</text>
</a>
</g>
</g>
<!-- Node3&#45;&gt;Node4 -->
<g id="edge3" class="edge"><title>Node3&#45;&gt;Node4</title>
<path fill="none" stroke="midnightblue" d="M88.5631,-56.083C88.5631,-49.0059 88.5631,-38.8611 88.5631,-29.9865"/>
<polygon fill="midnightblue" stroke="midnightblue" points="92.0632,-29.751 88.5631,-19.7511 85.0632,-29.7511 92.0632,-29.751"/>
</g>
<!-- Node7 -->
<g id="node7" class="node"><title>Node7</title>
<g id="a_node7"><a xlink:href="_post_api_8h.html" target="_top" xlink:title="Cpl/Itc/PostApi.h">
<polygon fill="white" stroke="black" points="148.563,-112.5 148.563,-131.5 238.563,-131.5 238.563,-112.5 148.563,-112.5"/>
<text text-anchor="middle" x="193.563" y="-119.5" font-family="Helvetica,sans-Serif" font-size="10.00">Cpl/Itc/PostApi.h</text>
</a>
</g>
</g>
<!-- Node6&#45;&gt;Node7 -->
<g id="edge6" class="edge"><title>Node6&#45;&gt;Node7</title>
<path fill="none" stroke="midnightblue" d="M192.728,-168.083C192.859,-161.006 193.047,-150.861 193.211,-141.986"/>
<polygon fill="midnightblue" stroke="midnightblue" points="196.715,-141.814 193.401,-131.751 189.716,-141.685 196.715,-141.814"/>
</g>
<!-- Node7&#45;&gt;Node3 -->
<g id="edge7" class="edge"><title>Node7&#45;&gt;Node3</title>
<path fill="none" stroke="midnightblue" d="M176.693,-112.324C159.854,-103.664 133.757,-90.2424 114.325,-80.249"/>
<polygon fill="midnightblue" stroke="midnightblue" points="115.885,-77.1155 105.391,-75.6545 112.683,-83.3405 115.885,-77.1155"/>
</g>
</g>
</svg>
