<?xml version="1.0" encoding="UTF-8" standalone="no"?>
<!DOCTYPE svg PUBLIC "-//W3C//DTD SVG 1.1//EN"
 "http://www.w3.org/Graphics/SVG/1.1/DTD/svg11.dtd">
<!-- Generated by graphviz version 2.38.0 (20140413.2041)
 -->
<!-- Title: ResponseMessage.h Pages: 1 -->
<svg width="393pt" height="308pt"
 viewBox="0.00 0.00 392.50 308.00" xmlns="http://www.w3.org/2000/svg" xmlns:xlink="http://www.w3.org/1999/xlink">
<g id="graph0" class="graph" transform="scale(1 1) rotate(0) translate(4 304)">
<title>ResponseMessage.h</title>
<polygon fill="white" stroke="none" points="-4,4 -4,-304 388.5,-304 388.5,4 -4,4"/>
<!-- Node1 -->
<g id="node1" class="node"><title>Node1</title>
<polygon fill="#bfbfbf" stroke="black" points="210.5,-280.5 210.5,-299.5 318.5,-299.5 318.5,-280.5 210.5,-280.5"/>
<text text-anchor="middle" x="264.5" y="-287.5" font-family="Helvetica,sans-Serif" font-size="10.00">ResponseMessage.h</text>
</g>
<!-- Node2 -->
<g id="node2" class="node"><title>Node2</title>
<g id="a_node2"><a xlink:href="_async_return_handler_8h.html" target="_top" xlink:title="Cpl/Itc/AsyncReturnHandler.h">
<polygon fill="white" stroke="black" points="145,-168.5 145,-187.5 290,-187.5 290,-168.5 145,-168.5"/>
<text text-anchor="middle" x="217.5" y="-175.5" font-family="Helvetica,sans-Serif" font-size="10.00">Cpl/Itc/AsyncReturnHandler.h</text>
</a>
</g>
</g>
<!-- Node1&#45;&gt;Node2 -->
<g id="edge1" class="edge"><title>Node1&#45;&gt;Node2</title>
<path fill="none" stroke="midnightblue" d="M258.176,-280.432C251.945,-271.658 242.51,-257.44 236.5,-244 229.751,-228.907 224.683,-210.782 221.487,-197.51"/>
<polygon fill="midnightblue" stroke="midnightblue" points="224.88,-196.649 219.245,-187.677 218.055,-198.205 224.88,-196.649"/>
</g>
<!-- Node7 -->
<g id="node7" class="node"><title>Node7</title>
<g id="a_node7"><a xlink:href="_request_message_8h.html" target="_top" xlink:title="Cpl/Itc/RequestMessage.h">
<polygon fill="white" stroke="black" points="246,-224.5 246,-243.5 377,-243.5 377,-224.5 246,-224.5"/>
<text text-anchor="middle" x="311.5" y="-231.5" font-family="Helvetica,sans-Serif" font-size="10.00">Cpl/Itc/RequestMessage.h</text>
</a>
</g>
</g>
<!-- Node1&#45;&gt;Node7 -->
<g id="edge6" class="edge"><title>Node1&#45;&gt;Node7</title>
<path fill="none" stroke="midnightblue" d="M272.261,-280.083C279.037,-272.298 289.043,-260.801 297.255,-251.367"/>
<polygon fill="midnightblue" stroke="midnightblue" points="299.958,-253.592 303.883,-243.751 294.678,-248.996 299.958,-253.592"/>
</g>
<!-- Node3 -->
<g id="node3" class="node"><title>Node3</title>
<g id="a_node3"><a xlink:href="_return_handler_8h.html" target="_top" xlink:title="Cpl/Itc/ReturnHandler.h">
<polygon fill="white" stroke="black" points="92,-112.5 92,-131.5 209,-131.5 209,-112.5 92,-112.5"/>
<text text-anchor="middle" x="150.5" y="-119.5" font-family="Helvetica,sans-Serif" font-size="10.00">Cpl/Itc/ReturnHandler.h</text>
</a>
</g>
</g>
<!-- Node2&#45;&gt;Node3 -->
<g id="edge2" class="edge"><title>Node2&#45;&gt;Node3</title>
<path fill="none" stroke="midnightblue" d="M206.735,-168.324C196.734,-160.263 181.613,-148.077 169.57,-138.369"/>
<polygon fill="midnightblue" stroke="midnightblue" points="171.443,-135.384 161.461,-131.834 167.05,-140.834 171.443,-135.384"/>
</g>
<!-- Node4 -->
<g id="node4" class="node"><title>Node4</title>
<g id="a_node4"><a xlink:href="_post_api_8h.html" target="_top" xlink:title="Cpl/Itc/PostApi.h">
<polygon fill="white" stroke="black" points="227.5,-112.5 227.5,-131.5 317.5,-131.5 317.5,-112.5 227.5,-112.5"/>
<text text-anchor="middle" x="272.5" y="-119.5" font-family="Helvetica,sans-Serif" font-size="10.00">Cpl/Itc/PostApi.h</text>
</a>
</g>
</g>
<!-- Node2&#45;&gt;Node4 -->
<g id="edge3" class="edge"><title>Node2&#45;&gt;Node4</title>
<path fill="none" stroke="midnightblue" d="M226.582,-168.083C234.671,-160.141 246.695,-148.335 256.41,-138.797"/>
<polygon fill="midnightblue" stroke="midnightblue" points="258.903,-141.254 263.587,-131.751 253.999,-136.26 258.903,-141.254"/>
</g>
<!-- Node5 -->
<g id="node5" class="node"><title>Node5</title>
<g id="a_node5"><a xlink:href="_message_8h.html" target="_top" xlink:title="Cpl/Itc/Message.h">
<polygon fill="white" stroke="black" points="120,-56.5 120,-75.5 215,-75.5 215,-56.5 120,-56.5"/>
<text text-anchor="middle" x="167.5" y="-63.5" font-family="Helvetica,sans-Serif" font-size="10.00">Cpl/Itc/Message.h</text>
</a>
</g>
</g>
<!-- Node4&#45;&gt;Node5 -->
<g id="edge4" class="edge"><title>Node4&#45;&gt;Node5</title>
<path fill="none" stroke="midnightblue" d="M255.63,-112.324C238.791,-103.664 212.693,-90.2424 193.262,-80.249"/>
<polygon fill="midnightblue" stroke="midnightblue" points="194.822,-77.1155 184.328,-75.6545 191.62,-83.3405 194.822,-77.1155"/>
</g>
<!-- Node6 -->
<g id="node6" class="node"><title>Node6</title>
<g id="a_node6"><a xlink:href="_item_8h.html" target="_top" xlink:title="Cpl/Container/Item.h">
<polygon fill="white" stroke="black" points="115,-0.5 115,-19.5 220,-19.5 220,-0.5 115,-0.5"/>
<text text-anchor="middle" x="167.5" y="-7.5" font-family="Helvetica,sans-Serif" font-size="10.00">Cpl/Container/Item.h</text>
</a>
</g>
</g>
<!-- Node5&#45;&gt;Node6 -->
<g id="edge5" class="edge"><title>Node5&#45;&gt;Node6</title>
<path fill="none" stroke="midnightblue" d="M167.5,-56.083C167.5,-49.0059 167.5,-38.8611 167.5,-29.9865"/>
<polygon fill="midnightblue" stroke="midnightblue" points="171,-29.751 167.5,-19.7511 164,-29.7511 171,-29.751"/>
</g>
<!-- Node8 -->
<g id="node8" class="node"><title>Node8</title>
<g id="a_node8"><a xlink:href="_service_message_8h.html" target="_top" xlink:title="Cpl/Itc/ServiceMessage.h">
<polygon fill="white" stroke="black" points="0,-168.5 0,-187.5 127,-187.5 127,-168.5 0,-168.5"/>
<text text-anchor="middle" x="63.5" y="-175.5" font-family="Helvetica,sans-Serif" font-size="10.00">Cpl/Itc/ServiceMessage.h</text>
</a>
</g>
</g>
<!-- Node7&#45;&gt;Node8 -->
<g id="edge7" class="edge"><title>Node7&#45;&gt;Node8</title>
<path fill="none" stroke="midnightblue" d="M272.204,-224.444C228.941,-215.023 159.327,-199.866 112.527,-189.675"/>
<polygon fill="midnightblue" stroke="midnightblue" points="113.128,-186.224 102.612,-187.516 111.639,-193.064 113.128,-186.224"/>
</g>
<!-- Node9 -->
<g id="node9" class="node"><title>Node9</title>
<g id="a_node9"><a xlink:href="_s_a_p_8h.html" target="_top" xlink:title="Cpl/Itc/SAP.h">
<polygon fill="white" stroke="black" points="308.5,-168.5 308.5,-187.5 384.5,-187.5 384.5,-168.5 308.5,-168.5"/>
<text text-anchor="middle" x="346.5" y="-175.5" font-family="Helvetica,sans-Serif" font-size="10.00">Cpl/Itc/SAP.h</text>
</a>
</g>
</g>
<!-- Node7&#45;&gt;Node9 -->
<g id="edge10" class="edge"><title>Node7&#45;&gt;Node9</title>
<path fill="none" stroke="midnightblue" d="M317.28,-224.083C322.172,-216.534 329.327,-205.495 335.333,-196.23"/>
<polygon fill="midnightblue" stroke="midnightblue" points="338.326,-198.046 340.828,-187.751 332.452,-194.239 338.326,-198.046"/>
</g>
<!-- Node8&#45;&gt;Node3 -->
<g id="edge9" class="edge"><title>Node8&#45;&gt;Node3</title>
<path fill="none" stroke="midnightblue" d="M77.4781,-168.324C91.0496,-159.9 111.88,-146.971 127.825,-137.074"/>
<polygon fill="midnightblue" stroke="midnightblue" points="129.906,-139.902 136.557,-131.655 126.214,-133.954 129.906,-139.902"/>
</g>
<!-- Node8&#45;&gt;Node5 -->
<g id="edge8" class="edge"><title>Node8&#45;&gt;Node5</title>
<path fill="none" stroke="midnightblue" d="M63.9189,-168.446C64.994,-155.009 68.8279,-128.765 82.5,-112 94.5855,-97.1808 112.869,-86.6148 129.386,-79.4623"/>
<polygon fill="midnightblue" stroke="midnightblue" points="130.887,-82.631 138.847,-75.6392 128.264,-76.1409 130.887,-82.631"/>
</g>
<!-- Node9&#45;&gt;Node4 -->
<g id="edge11" class="edge"><title>Node9&#45;&gt;Node4</title>
<path fill="none" stroke="midnightblue" d="M334.611,-168.324C323.35,-160.107 306.213,-147.602 292.791,-137.807"/>
<polygon fill="midnightblue" stroke="midnightblue" points="294.747,-134.901 284.606,-131.834 290.62,-140.556 294.747,-134.901"/>
</g>
</g>
</svg>
