<?xml version="1.0" encoding="UTF-8" standalone="no"?>
<!DOCTYPE svg PUBLIC "-//W3C//DTD SVG 1.1//EN"
 "http://www.w3.org/Graphics/SVG/1.1/DTD/svg11.dtd">
<!-- Generated by graphviz version 2.38.0 (20140413.2041)
 -->
<!-- Title: ReturnHandler.h Pages: 1 -->
<svg width="514pt" height="364pt"
 viewBox="0.00 0.00 514.00 364.00" xmlns="http://www.w3.org/2000/svg" xmlns:xlink="http://www.w3.org/1999/xlink">
<g id="graph0" class="graph" transform="scale(1 1) rotate(0) translate(4 360)">
<title>ReturnHandler.h</title>
<polygon fill="white" stroke="none" points="-4,4 -4,-360 510,-360 510,4 -4,4"/>
<!-- Node1 -->
<g id="node1" class="node"><title>Node1</title>
<polygon fill="#bfbfbf" stroke="black" points="319.5,-336.5 319.5,-355.5 405.5,-355.5 405.5,-336.5 319.5,-336.5"/>
<text text-anchor="middle" x="362.5" y="-343.5" font-family="Helvetica,sans-Serif" font-size="10.00">ReturnHandler.h</text>
</g>
<!-- Node2 -->
<g id="node2" class="node"><title>Node2</title>
<g id="a_node2"><a xlink:href="_async_return_handler_8h.html" target="_top" xlink:title="AsyncReturnHandler.h">
<polygon fill="white" stroke="black" points="288.5,-224.5 288.5,-243.5 402.5,-243.5 402.5,-224.5 288.5,-224.5"/>
<text text-anchor="middle" x="345.5" y="-231.5" font-family="Helvetica,sans-Serif" font-size="10.00">AsyncReturnHandler.h</text>
</a>
</g>
</g>
<!-- Node1&#45;&gt;Node2 -->
<g id="edge1" class="edge"><title>Node1&#45;&gt;Node2</title>
<path fill="none" stroke="midnightblue" d="M374.254,-327.157C381.398,-314.016 388.149,-295.766 382.5,-280 377.246,-265.337 364.924,-252.031 355.938,-243.755"/>
<polygon fill="midnightblue" stroke="midnightblue" points="371.044,-325.706 368.913,-336.084 377.051,-329.3 371.044,-325.706"/>
</g>
<!-- Node10 -->
<g id="node10" class="node"><title>Node10</title>
<g id="a_node10"><a xlink:href="_null_return_handler_8h.html" target="_top" xlink:title="NullReturnHandler.h">
<polygon fill="white" stroke="black" points="271,-280.5 271,-299.5 374,-299.5 374,-280.5 271,-280.5"/>
<text text-anchor="middle" x="322.5" y="-287.5" font-family="Helvetica,sans-Serif" font-size="10.00">NullReturnHandler.h</text>
</a>
</g>
</g>
<!-- Node1&#45;&gt;Node10 -->
<g id="edge10" class="edge"><title>Node1&#45;&gt;Node10</title>
<path fill="none" stroke="midnightblue" d="M349.8,-327.855C342.874,-318.505 334.594,-307.327 328.982,-299.751"/>
<polygon fill="midnightblue" stroke="midnightblue" points="347.13,-330.131 355.895,-336.083 352.755,-325.964 347.13,-330.131"/>
</g>
<!-- Node11 -->
<g id="node11" class="node"><title>Node11</title>
<g id="a_node11"><a xlink:href="_service_message_8h.html" target="_top" xlink:title="ServiceMessage.h">
<polygon fill="white" stroke="black" points="156.5,-280.5 156.5,-299.5 252.5,-299.5 252.5,-280.5 156.5,-280.5"/>
<text text-anchor="middle" x="204.5" y="-287.5" font-family="Helvetica,sans-Serif" font-size="10.00">ServiceMessage.h</text>
</a>
</g>
</g>
<!-- Node1&#45;&gt;Node11 -->
<g id="edge11" class="edge"><title>Node1&#45;&gt;Node11</title>
<path fill="none" stroke="midnightblue" d="M327.892,-333.172C298.141,-323.004 255.953,-308.585 229.418,-299.516"/>
<polygon fill="midnightblue" stroke="midnightblue" points="326.87,-336.521 337.464,-336.444 329.134,-329.898 326.87,-336.521"/>
</g>
<!-- Node15 -->
<g id="node15" class="node"><title>Node15</title>
<g id="a_node15"><a xlink:href="_sync_return_handler_8h.html" target="_top" xlink:title="SyncReturnHandler.h">
<polygon fill="white" stroke="black" points="397,-168.5 397,-187.5 506,-187.5 506,-168.5 397,-168.5"/>
<text text-anchor="middle" x="451.5" y="-175.5" font-family="Helvetica,sans-Serif" font-size="10.00">SyncReturnHandler.h</text>
</a>
</g>
</g>
<!-- Node1&#45;&gt;Node15 -->
<g id="edge19" class="edge"><title>Node1&#45;&gt;Node15</title>
<path fill="none" stroke="midnightblue" d="M377.411,-328.522C384.367,-320.324 392.43,-310.04 398.5,-300 422.468,-260.356 441.611,-207.938 448.62,-187.588"/>
<polygon fill="midnightblue" stroke="midnightblue" points="374.636,-326.379 370.692,-336.212 379.907,-330.984 374.636,-326.379"/>
</g>
<!-- Node3 -->
<g id="node3" class="node"><title>Node3</title>
<g id="a_node3"><a xlink:href="_response_message_8h.html" target="_top" xlink:title="ResponseMessage.h">
<polygon fill="white" stroke="black" points="232.5,-168.5 232.5,-187.5 340.5,-187.5 340.5,-168.5 232.5,-168.5"/>
<text text-anchor="middle" x="286.5" y="-175.5" font-family="Helvetica,sans-Serif" font-size="10.00">ResponseMessage.h</text>
</a>
</g>
</g>
<!-- Node2&#45;&gt;Node3 -->
<g id="edge2" class="edge"><title>Node2&#45;&gt;Node3</title>
<path fill="none" stroke="midnightblue" d="M328.605,-217.537C318.085,-207.909 304.931,-195.869 296.152,-187.834"/>
<polygon fill="midnightblue" stroke="midnightblue" points="326.281,-220.154 336.021,-224.324 331.007,-214.99 326.281,-220.154"/>
</g>
<!-- Node4 -->
<g id="node4" class="node"><title>Node4</title>
<g id="a_node4"><a xlink:href="_atomic_request_8h.html" target="_top" xlink:title="AtomicRequest.h">
<polygon fill="white" stroke="black" points="331.5,-112.5 331.5,-131.5 423.5,-131.5 423.5,-112.5 331.5,-112.5"/>
<text text-anchor="middle" x="377.5" y="-119.5" font-family="Helvetica,sans-Serif" font-size="10.00">AtomicRequest.h</text>
</a>
</g>
</g>
<!-- Node3&#45;&gt;Node4 -->
<g id="edge3" class="edge"><title>Node3&#45;&gt;Node4</title>
<path fill="none" stroke="midnightblue" d="M309.794,-163.177C326.539,-153.241 348.6,-140.149 362.916,-131.655"/>
<polygon fill="midnightblue" stroke="midnightblue" points="307.934,-160.211 301.121,-168.324 311.507,-166.231 307.934,-160.211"/>
</g>
<!-- Node6 -->
<g id="node6" class="node"><title>Node6</title>
<g id="a_node6"><a xlink:href="_close_request_8h.html" target="_top" xlink:title="CloseRequest.h">
<polygon fill="white" stroke="black" points="125.5,-112.5 125.5,-131.5 211.5,-131.5 211.5,-112.5 125.5,-112.5"/>
<text text-anchor="middle" x="168.5" y="-119.5" font-family="Helvetica,sans-Serif" font-size="10.00">CloseRequest.h</text>
</a>
</g>
</g>
<!-- Node3&#45;&gt;Node6 -->
<g id="edge5" class="edge"><title>Node3&#45;&gt;Node6</title>
<path fill="none" stroke="midnightblue" d="M258.6,-164.232C236.527,-154.131 206.324,-140.309 187.11,-131.516"/>
<polygon fill="midnightblue" stroke="midnightblue" points="257.253,-167.465 267.803,-168.444 260.166,-161.1 257.253,-167.465"/>
</g>
<!-- Node8 -->
<g id="node8" class="node"><title>Node8</title>
<g id="a_node8"><a xlink:href="_open_request_8h.html" target="_top" xlink:title="OpenRequest.h">
<polygon fill="white" stroke="black" points="229.5,-112.5 229.5,-131.5 313.5,-131.5 313.5,-112.5 229.5,-112.5"/>
<text text-anchor="middle" x="271.5" y="-119.5" font-family="Helvetica,sans-Serif" font-size="10.00">OpenRequest.h</text>
</a>
</g>
</g>
<!-- Node3&#45;&gt;Node8 -->
<g id="edge7" class="edge"><title>Node3&#45;&gt;Node8</title>
<path fill="none" stroke="midnightblue" d="M281.332,-158.396C278.823,-149.362 275.927,-138.936 273.931,-131.751"/>
<polygon fill="midnightblue" stroke="midnightblue" points="277.974,-159.385 284.023,-168.083 284.719,-157.511 277.974,-159.385"/>
</g>
<!-- Node5 -->
<g id="node5" class="node"><title>Node5</title>
<g id="a_node5"><a xlink:href="_atomic_sync_8h.html" target="_top" xlink:title="AtomicSync.h">
<polygon fill="white" stroke="black" points="375.5,-56.5 375.5,-75.5 453.5,-75.5 453.5,-56.5 375.5,-56.5"/>
<text text-anchor="middle" x="414.5" y="-63.5" font-family="Helvetica,sans-Serif" font-size="10.00">AtomicSync.h</text>
</a>
</g>
</g>
<!-- Node4&#45;&gt;Node5 -->
<g id="edge4" class="edge"><title>Node4&#45;&gt;Node5</title>
<path fill="none" stroke="midnightblue" d="M389.446,-103.566C395.812,-94.2747 403.367,-83.2484 408.504,-75.7511"/>
<polygon fill="midnightblue" stroke="midnightblue" points="386.375,-101.855 383.61,-112.083 392.149,-105.812 386.375,-101.855"/>
</g>
<!-- Node7 -->
<g id="node7" class="node"><title>Node7</title>
<g id="a_node7"><a xlink:href="_close_sync_8h.html" target="_top" xlink:title="CloseSync.h">
<polygon fill="white" stroke="black" points="179.5,-0.5 179.5,-19.5 251.5,-19.5 251.5,-0.5 179.5,-0.5"/>
<text text-anchor="middle" x="215.5" y="-7.5" font-family="Helvetica,sans-Serif" font-size="10.00">CloseSync.h</text>
</a>
</g>
</g>
<!-- Node6&#45;&gt;Node7 -->
<g id="edge6" class="edge"><title>Node6&#45;&gt;Node7</title>
<path fill="none" stroke="midnightblue" d="M176.192,-102.998C186.447,-78.9968 204.191,-37.4683 211.829,-19.5914"/>
<polygon fill="midnightblue" stroke="midnightblue" points="172.899,-101.798 172.188,-112.368 179.336,-104.548 172.899,-101.798"/>
</g>
<!-- Node9 -->
<g id="node9" class="node"><title>Node9</title>
<g id="a_node9"><a xlink:href="_open_sync_8h.html" target="_top" xlink:title="OpenSync.h">
<polygon fill="white" stroke="black" points="217,-56.5 217,-75.5 288,-75.5 288,-56.5 217,-56.5"/>
<text text-anchor="middle" x="252.5" y="-63.5" font-family="Helvetica,sans-Serif" font-size="10.00">OpenSync.h</text>
</a>
</g>
</g>
<!-- Node8&#45;&gt;Node9 -->
<g id="edge8" class="edge"><title>Node8&#45;&gt;Node9</title>
<path fill="none" stroke="midnightblue" d="M264.954,-102.396C261.776,-93.362 258.107,-82.936 255.579,-75.7511"/>
<polygon fill="midnightblue" stroke="midnightblue" points="261.742,-103.812 268.363,-112.083 268.345,-101.488 261.742,-103.812"/>
</g>
<!-- Node9&#45;&gt;Node7 -->
<g id="edge9" class="edge"><title>Node9&#45;&gt;Node7</title>
<path fill="none" stroke="midnightblue" d="M240.554,-47.5656C234.188,-38.2747 226.633,-27.2484 221.496,-19.7511"/>
<polygon fill="midnightblue" stroke="midnightblue" points="237.851,-49.812 246.39,-56.083 243.625,-45.8553 237.851,-49.812"/>
</g>
<!-- Node12 -->
<g id="node12" class="node"><title>Node12</title>
<g id="a_node12"><a xlink:href="_request_message_8h.html" target="_top" xlink:title="RequestMessage.h">
<polygon fill="white" stroke="black" points="154,-224.5 154,-243.5 255,-243.5 255,-224.5 154,-224.5"/>
<text text-anchor="middle" x="204.5" y="-231.5" font-family="Helvetica,sans-Serif" font-size="10.00">RequestMessage.h</text>
</a>
</g>
</g>
<!-- Node11&#45;&gt;Node12 -->
<g id="edge12" class="edge"><title>Node11&#45;&gt;Node12</title>
<path fill="none" stroke="midnightblue" d="M204.5,-269.805C204.5,-260.91 204.5,-250.78 204.5,-243.751"/>
<polygon fill="midnightblue" stroke="midnightblue" points="201,-270.083 204.5,-280.083 208,-270.083 201,-270.083"/>
</g>
<!-- Node12&#45;&gt;Node3 -->
<g id="edge18" class="edge"><title>Node12&#45;&gt;Node3</title>
<path fill="none" stroke="midnightblue" d="M226.333,-218.622C241.313,-208.757 260.697,-195.992 273.358,-187.655"/>
<polygon fill="midnightblue" stroke="midnightblue" points="224.101,-215.901 217.675,-224.324 227.951,-221.747 224.101,-215.901"/>
</g>
<!-- Node12&#45;&gt;Node4 -->
<g id="edge15" class="edge"><title>Node12&#45;&gt;Node4</title>
<path fill="none" stroke="midnightblue" d="M264.939,-226.08C293.47,-220.084 326.272,-208.891 349.5,-188 366.31,-172.881 373.42,-145.917 376.09,-131.945"/>
<polygon fill="midnightblue" stroke="midnightblue" points="264.203,-222.658 255.048,-227.992 265.531,-229.531 264.203,-222.658"/>
</g>
<!-- Node12&#45;&gt;Node6 -->
<g id="edge16" class="edge"><title>Node12&#45;&gt;Node6</title>
<path fill="none" stroke="midnightblue" d="M198.502,-214.674C190.632,-190.625 177.136,-149.388 171.312,-131.591"/>
<polygon fill="midnightblue" stroke="midnightblue" points="195.238,-215.953 201.675,-224.368 201.891,-213.776 195.238,-215.953"/>
</g>
<!-- Node12&#45;&gt;Node8 -->
<g id="edge17" class="edge"><title>Node12&#45;&gt;Node8</title>
<path fill="none" stroke="midnightblue" d="M207.237,-214.327C209.857,-200.716 214.748,-182.243 223.5,-168 232.71,-153.013 248.209,-139.772 259.098,-131.601"/>
<polygon fill="midnightblue" stroke="midnightblue" points="203.748,-213.974 205.537,-224.416 210.65,-215.137 203.748,-213.974"/>
</g>
<!-- Node13 -->
<g id="node13" class="node"><title>Node13</title>
<g id="a_node13"><a xlink:href="_listener_client_request_8h.html" target="_top" xlink:title="ListenerClientRequest.h">
<polygon fill="white" stroke="black" points="5.5,-168.5 5.5,-187.5 125.5,-187.5 125.5,-168.5 5.5,-168.5"/>
<text text-anchor="middle" x="65.5" y="-175.5" font-family="Helvetica,sans-Serif" font-size="10.00">ListenerClientRequest.h</text>
</a>
</g>
</g>
<!-- Node12&#45;&gt;Node13 -->
<g id="edge13" class="edge"><title>Node12&#45;&gt;Node13</title>
<path fill="none" stroke="midnightblue" d="M173.024,-220.772C146.915,-210.629 110.461,-196.467 87.4219,-187.516"/>
<polygon fill="midnightblue" stroke="midnightblue" points="171.886,-224.085 182.475,-224.444 174.421,-217.56 171.886,-224.085"/>
</g>
<!-- Node14 -->
<g id="node14" class="node"><title>Node14</title>
<g id="a_node14"><a xlink:href="_listener_client_sync_8h.html" target="_top" xlink:title="ListenerClientSync.h">
<polygon fill="white" stroke="black" points="0,-112.5 0,-131.5 107,-131.5 107,-112.5 0,-112.5"/>
<text text-anchor="middle" x="53.5" y="-119.5" font-family="Helvetica,sans-Serif" font-size="10.00">ListenerClientSync.h</text>
</a>
</g>
</g>
<!-- Node13&#45;&gt;Node14 -->
<g id="edge14" class="edge"><title>Node13&#45;&gt;Node14</title>
<path fill="none" stroke="midnightblue" d="M61.3001,-158.101C59.3079,-149.136 57.024,-138.858 55.4447,-131.751"/>
<polygon fill="midnightblue" stroke="midnightblue" points="57.9324,-159.08 63.5184,-168.083 64.7657,-157.562 57.9324,-159.08"/>
</g>
<!-- Node15&#45;&gt;Node4 -->
<g id="edge20" class="edge"><title>Node15&#45;&gt;Node4</title>
<path fill="none" stroke="midnightblue" d="M431.466,-162.38C418.091,-152.62 400.941,-140.106 389.606,-131.834"/>
<polygon fill="midnightblue" stroke="midnightblue" points="429.47,-165.257 439.611,-168.324 433.596,-159.602 429.47,-165.257"/>
</g>
<!-- Node15&#45;&gt;Node5 -->
<g id="edge21" class="edge"><title>Node15&#45;&gt;Node5</title>
<path fill="none" stroke="midnightblue" d="M446.568,-158.377C442.981,-145.299 437.836,-127.454 432.5,-112 428.051,-99.1152 422.025,-84.5174 418.199,-75.5343"/>
<polygon fill="midnightblue" stroke="midnightblue" points="443.203,-159.339 449.185,-168.084 449.962,-157.517 443.203,-159.339"/>
</g>
</g>
</svg>
