<?xml version="1.0" encoding="UTF-8" standalone="no"?>
<!DOCTYPE svg PUBLIC "-//W3C//DTD SVG 1.1//EN"
 "http://www.w3.org/Graphics/SVG/1.1/DTD/svg11.dtd">
<!-- Generated by graphviz version 2.38.0 (20140413.2041)
 -->
<!-- Title: Runnable.h Pages: 1 -->
<svg width="550pt" height="196pt"
 viewBox="0.00 0.00 550.00 196.00" xmlns="http://www.w3.org/2000/svg" xmlns:xlink="http://www.w3.org/1999/xlink">
<g id="graph0" class="graph" transform="scale(1 1) rotate(0) translate(4 192)">
<title>Runnable.h</title>
<polygon fill="white" stroke="none" points="-4,4 -4,-192 546,-192 546,4 -4,4"/>
<!-- Node1 -->
<g id="node1" class="node"><title>Node1</title>
<polygon fill="#bfbfbf" stroke="black" points="230.5,-168.5 230.5,-187.5 295.5,-187.5 295.5,-168.5 230.5,-168.5"/>
<text text-anchor="middle" x="263" y="-175.5" font-family="Helvetica,sans-Serif" font-size="10.00">Runnable.h</text>
</g>
<!-- Node2 -->
<g id="node2" class="node"><title>Node2</title>
<g id="a_node2"><a xlink:href="_listener_8h.html" target="_top" xlink:title="Listener.h">
<polygon fill="white" stroke="black" points="118.5,-112.5 118.5,-131.5 177.5,-131.5 177.5,-112.5 118.5,-112.5"/>
<text text-anchor="middle" x="148" y="-119.5" font-family="Helvetica,sans-Serif" font-size="10.00">Listener.h</text>
</a>
</g>
</g>
<!-- Node1&#45;&gt;Node2 -->
<g id="edge1" class="edge"><title>Node1&#45;&gt;Node2</title>
<path fill="none" stroke="midnightblue" d="M235.519,-164.096C214.034,-154.007 184.778,-140.27 166.137,-131.516"/>
<polygon fill="midnightblue" stroke="midnightblue" points="234.238,-167.361 244.778,-168.444 237.214,-161.025 234.238,-167.361"/>
</g>
<!-- Node5 -->
<g id="node5" class="node"><title>Node5</title>
<g id="a_node5"><a xlink:href="_mailbox_server_8h.html" target="_top" xlink:title="MailboxServer.h">
<polygon fill="white" stroke="black" points="220,-112.5 220,-131.5 306,-131.5 306,-112.5 220,-112.5"/>
<text text-anchor="middle" x="263" y="-119.5" font-family="Helvetica,sans-Serif" font-size="10.00">MailboxServer.h</text>
</a>
</g>
</g>
<!-- Node1&#45;&gt;Node5 -->
<g id="edge5" class="edge"><title>Node1&#45;&gt;Node5</title>
<path fill="none" stroke="midnightblue" d="M263,-157.805C263,-148.91 263,-138.78 263,-131.751"/>
<polygon fill="midnightblue" stroke="midnightblue" points="259.5,-158.083 263,-168.083 266.5,-158.083 259.5,-158.083"/>
</g>
<!-- Node6 -->
<g id="node6" class="node"><title>Node6</title>
<g id="a_node6"><a xlink:href="_thread_8h.html" target="_top" xlink:title="Thread.h">
<polygon fill="white" stroke="black" points="336,-112.5 336,-131.5 390,-131.5 390,-112.5 336,-112.5"/>
<text text-anchor="middle" x="363" y="-119.5" font-family="Helvetica,sans-Serif" font-size="10.00">Thread.h</text>
</a>
</g>
</g>
<!-- Node1&#45;&gt;Node6 -->
<g id="edge6" class="edge"><title>Node1&#45;&gt;Node6</title>
<path fill="none" stroke="midnightblue" d="M288.088,-163.453C306.549,-153.483 331.097,-140.228 346.973,-131.655"/>
<polygon fill="midnightblue" stroke="midnightblue" points="286.203,-160.493 279.067,-168.324 289.529,-166.652 286.203,-160.493"/>
</g>
<!-- Node3 -->
<g id="node3" class="node"><title>Node3</title>
<g id="a_node3"><a xlink:href="_listener_client_request_8h.html" target="_top" xlink:title="ListenerClientRequest.h">
<polygon fill="white" stroke="black" points="0,-56.5 0,-75.5 120,-75.5 120,-56.5 0,-56.5"/>
<text text-anchor="middle" x="60" y="-63.5" font-family="Helvetica,sans-Serif" font-size="10.00">ListenerClientRequest.h</text>
</a>
</g>
</g>
<!-- Node2&#45;&gt;Node3 -->
<g id="edge2" class="edge"><title>Node2&#45;&gt;Node3</title>
<path fill="none" stroke="midnightblue" d="M125.023,-106.901C108.887,-96.9986 87.8187,-84.0705 74.1036,-75.6545"/>
<polygon fill="midnightblue" stroke="midnightblue" points="123.507,-110.077 133.861,-112.324 127.169,-104.111 123.507,-110.077"/>
</g>
<!-- Node4 -->
<g id="node4" class="node"><title>Node4</title>
<g id="a_node4"><a xlink:href="_listener_client_sync_8h.html" target="_top" xlink:title="ListenerClientSync.h">
<polygon fill="white" stroke="black" points="50.5,-0.5 50.5,-19.5 157.5,-19.5 157.5,-0.5 50.5,-0.5"/>
<text text-anchor="middle" x="104" y="-7.5" font-family="Helvetica,sans-Serif" font-size="10.00">ListenerClientSync.h</text>
</a>
</g>
</g>
<!-- Node2&#45;&gt;Node4 -->
<g id="edge4" class="edge"><title>Node2&#45;&gt;Node4</title>
<path fill="none" stroke="midnightblue" d="M143.785,-102.589C140.478,-89.3643 135.373,-71.2554 129,-56 123.488,-42.8057 115.1,-28.5262 109.585,-19.6719"/>
<polygon fill="midnightblue" stroke="midnightblue" points="140.396,-103.468 146.128,-112.378 147.204,-101.838 140.396,-103.468"/>
</g>
<!-- Node3&#45;&gt;Node4 -->
<g id="edge3" class="edge"><title>Node3&#45;&gt;Node4</title>
<path fill="none" stroke="midnightblue" d="M73.7345,-48.144C81.4005,-38.7357 90.6333,-27.4046 96.8695,-19.7511"/>
<polygon fill="midnightblue" stroke="midnightblue" points="70.8691,-46.1198 67.2657,-56.083 76.2958,-50.5415 70.8691,-46.1198"/>
</g>
<!-- Node7 -->
<g id="node7" class="node"><title>Node7</title>
<g id="a_node7"><a xlink:href="_receiver_8h.html" target="_top" xlink:title="Receiver.h">
<polygon fill="white" stroke="black" points="176,-56.5 176,-75.5 238,-75.5 238,-56.5 176,-56.5"/>
<text text-anchor="middle" x="207" y="-63.5" font-family="Helvetica,sans-Serif" font-size="10.00">Receiver.h</text>
</a>
</g>
</g>
<!-- Node6&#45;&gt;Node7 -->
<g id="edge7" class="edge"><title>Node6&#45;&gt;Node7</title>
<path fill="none" stroke="midnightblue" d="M328.83,-109.172C299.456,-99.0039 257.802,-84.5852 231.603,-75.5164"/>
<polygon fill="midnightblue" stroke="midnightblue" points="327.687,-112.48 338.281,-112.444 329.976,-105.865 327.687,-112.48"/>
</g>
<!-- Node8 -->
<g id="node8" class="node"><title>Node8</title>
<g id="a_node8"><a xlink:href="_transmitter_8h.html" target="_top" xlink:title="Transmitter.h">
<polygon fill="white" stroke="black" points="256,-56.5 256,-75.5 330,-75.5 330,-56.5 256,-56.5"/>
<text text-anchor="middle" x="293" y="-63.5" font-family="Helvetica,sans-Serif" font-size="10.00">Transmitter.h</text>
</a>
</g>
</g>
<!-- Node6&#45;&gt;Node8 -->
<g id="edge8" class="edge"><title>Node6&#45;&gt;Node8</title>
<path fill="none" stroke="midnightblue" d="M343.686,-106.101C331.088,-96.3824 315.072,-84.0269 304.451,-75.8339"/>
<polygon fill="midnightblue" stroke="midnightblue" points="341.698,-108.987 351.753,-112.324 345.973,-103.445 341.698,-108.987"/>
</g>
<!-- Node9 -->
<g id="node9" class="node"><title>Node9</title>
<g id="a_node9"><a xlink:href="_cpp11_2_thread_8h.html" target="_top" xlink:title="Thread.h">
<polygon fill="white" stroke="black" points="348,-56.5 348,-75.5 402,-75.5 402,-56.5 348,-56.5"/>
<text text-anchor="middle" x="375" y="-63.5" font-family="Helvetica,sans-Serif" font-size="10.00">Thread.h</text>
</a>
</g>
</g>
<!-- Node6&#45;&gt;Node9 -->
<g id="edge9" class="edge"><title>Node6&#45;&gt;Node9</title>
<path fill="none" stroke="midnightblue" d="M367.2,-102.101C369.192,-93.1357 371.476,-82.8579 373.055,-75.7511"/>
<polygon fill="midnightblue" stroke="midnightblue" points="363.734,-101.562 364.982,-112.083 370.568,-103.08 363.734,-101.562"/>
</g>
<!-- Node10 -->
<g id="node10" class="node"><title>Node10</title>
<g id="a_node10"><a xlink:href="_trace_8h.html" target="_top" xlink:title="Trace.h">
<polygon fill="white" stroke="black" points="420.5,-56.5 420.5,-75.5 469.5,-75.5 469.5,-56.5 420.5,-56.5"/>
<text text-anchor="middle" x="445" y="-63.5" font-family="Helvetica,sans-Serif" font-size="10.00">Trace.h</text>
</a>
</g>
</g>
<!-- Node6&#45;&gt;Node10 -->
<g id="edge10" class="edge"><title>Node6&#45;&gt;Node10</title>
<path fill="none" stroke="midnightblue" d="M384.833,-106.622C399.813,-96.7574 419.197,-83.9919 431.858,-75.6545"/>
<polygon fill="midnightblue" stroke="midnightblue" points="382.601,-103.901 376.175,-112.324 386.451,-109.747 382.601,-103.901"/>
</g>
<!-- Node12 -->
<g id="node12" class="node"><title>Node12</title>
<g id="a_node12"><a xlink:href="_win32_2_thread_8h.html" target="_top" xlink:title="Thread.h">
<polygon fill="white" stroke="black" points="488,-56.5 488,-75.5 542,-75.5 542,-56.5 488,-56.5"/>
<text text-anchor="middle" x="515" y="-63.5" font-family="Helvetica,sans-Serif" font-size="10.00">Thread.h</text>
</a>
</g>
</g>
<!-- Node6&#45;&gt;Node12 -->
<g id="edge12" class="edge"><title>Node6&#45;&gt;Node12</title>
<path fill="none" stroke="midnightblue" d="M396.668,-109.039C425.268,-98.8786 465.612,-84.5457 491.028,-75.5164"/>
<polygon fill="midnightblue" stroke="midnightblue" points="395.336,-105.798 387.085,-112.444 397.68,-112.394 395.336,-105.798"/>
</g>
<!-- Node11 -->
<g id="node11" class="node"><title>Node11</title>
<g id="a_node11"><a xlink:href="_local_8h.html" target="_top" xlink:title="Local.h">
<polygon fill="white" stroke="black" points="421,-0.5 421,-19.5 469,-19.5 469,-0.5 421,-0.5"/>
<text text-anchor="middle" x="445" y="-7.5" font-family="Helvetica,sans-Serif" font-size="10.00">Local.h</text>
</a>
</g>
</g>
<!-- Node10&#45;&gt;Node11 -->
<g id="edge11" class="edge"><title>Node10&#45;&gt;Node11</title>
<path fill="none" stroke="midnightblue" d="M445,-45.8045C445,-36.9102 445,-26.7798 445,-19.7511"/>
<polygon fill="midnightblue" stroke="midnightblue" points="441.5,-46.083 445,-56.083 448.5,-46.083 441.5,-46.083"/>
</g>
</g>
</svg>
