<?xml version="1.0" encoding="UTF-8" standalone="no"?>
<!DOCTYPE svg PUBLIC "-//W3C//DTD SVG 1.1//EN"
 "http://www.w3.org/Graphics/SVG/1.1/DTD/svg11.dtd">
<!-- Generated by graphviz version 2.38.0 (20140413.2041)
 -->
<!-- Title: SAP.h Pages: 1 -->
<svg width="452pt" height="308pt"
 viewBox="0.00 0.00 452.00 308.00" xmlns="http://www.w3.org/2000/svg" xmlns:xlink="http://www.w3.org/1999/xlink">
<g id="graph0" class="graph" transform="scale(1 1) rotate(0) translate(4 304)">
<title>SAP.h</title>
<polygon fill="white" stroke="none" points="-4,4 -4,-304 448,-304 448,4 -4,4"/>
<!-- Node1 -->
<g id="node1" class="node"><title>Node1</title>
<polygon fill="#bfbfbf" stroke="black" points="204.5,-280.5 204.5,-299.5 249.5,-299.5 249.5,-280.5 204.5,-280.5"/>
<text text-anchor="middle" x="227" y="-287.5" font-family="Helvetica,sans-Serif" font-size="10.00">SAP.h</text>
</g>
<!-- Node2 -->
<g id="node2" class="node"><title>Node2</title>
<g id="a_node2"><a xlink:href="_listener_client_request_8h.html" target="_top" xlink:title="ListenerClientRequest.h">
<polygon fill="white" stroke="black" points="0,-168.5 0,-187.5 120,-187.5 120,-168.5 0,-168.5"/>
<text text-anchor="middle" x="60" y="-175.5" font-family="Helvetica,sans-Serif" font-size="10.00">ListenerClientRequest.h</text>
</a>
</g>
</g>
<!-- Node1&#45;&gt;Node2 -->
<g id="edge1" class="edge"><title>Node1&#45;&gt;Node2</title>
<path fill="none" stroke="midnightblue" d="M195.835,-276.449C177.215,-268.343 153.474,-256.918 134,-244 108.066,-226.797 81.6049,-201.201 68.4741,-187.841"/>
<polygon fill="midnightblue" stroke="midnightblue" points="194.484,-279.677 205.056,-280.375 197.227,-273.237 194.484,-279.677"/>
</g>
<!-- Node4 -->
<g id="node4" class="node"><title>Node4</title>
<g id="a_node4"><a xlink:href="_atomic_request_8h.html" target="_top" xlink:title="AtomicRequest.h">
<polygon fill="white" stroke="black" points="140,-112.5 140,-131.5 232,-131.5 232,-112.5 140,-112.5"/>
<text text-anchor="middle" x="186" y="-119.5" font-family="Helvetica,sans-Serif" font-size="10.00">AtomicRequest.h</text>
</a>
</g>
</g>
<!-- Node1&#45;&gt;Node4 -->
<g id="edge3" class="edge"><title>Node1&#45;&gt;Node4</title>
<path fill="none" stroke="midnightblue" d="M198.712,-275.379C186.606,-267.933 173.728,-257.457 167,-244 147.79,-205.581 170.726,-152.455 181.256,-131.752"/>
<polygon fill="midnightblue" stroke="midnightblue" points="197.279,-278.59 207.704,-280.48 200.733,-272.502 197.279,-278.59"/>
</g>
<!-- Node6 -->
<g id="node6" class="node"><title>Node6</title>
<g id="a_node6"><a xlink:href="_close_request_8h.html" target="_top" xlink:title="CloseRequest.h">
<polygon fill="white" stroke="black" points="256,-112.5 256,-131.5 342,-131.5 342,-112.5 256,-112.5"/>
<text text-anchor="middle" x="299" y="-119.5" font-family="Helvetica,sans-Serif" font-size="10.00">CloseRequest.h</text>
</a>
</g>
</g>
<!-- Node1&#45;&gt;Node6 -->
<g id="edge5" class="edge"><title>Node1&#45;&gt;Node6</title>
<path fill="none" stroke="midnightblue" d="M259.276,-276.656C293.617,-261.564 346.088,-232.414 369,-188 381.926,-162.945 346.816,-142.502 321.768,-131.595"/>
<polygon fill="midnightblue" stroke="midnightblue" points="257.528,-273.595 249.683,-280.716 260.256,-280.042 257.528,-273.595"/>
</g>
<!-- Node8 -->
<g id="node8" class="node"><title>Node8</title>
<g id="a_node8"><a xlink:href="_open_request_8h.html" target="_top" xlink:title="OpenRequest.h">
<polygon fill="white" stroke="black" points="360,-112.5 360,-131.5 444,-131.5 444,-112.5 360,-112.5"/>
<text text-anchor="middle" x="402" y="-119.5" font-family="Helvetica,sans-Serif" font-size="10.00">OpenRequest.h</text>
</a>
</g>
</g>
<!-- Node1&#45;&gt;Node8 -->
<g id="edge7" class="edge"><title>Node1&#45;&gt;Node8</title>
<path fill="none" stroke="midnightblue" d="M259.655,-282.036C284.893,-275.431 319.679,-263.548 345,-244 369.211,-225.309 372.027,-215.698 385,-188 393.905,-168.986 398.692,-144.576 400.749,-131.758"/>
<polygon fill="midnightblue" stroke="midnightblue" points="258.682,-278.671 249.816,-284.472 260.364,-285.466 258.682,-278.671"/>
</g>
<!-- Node10 -->
<g id="node10" class="node"><title>Node10</title>
<g id="a_node10"><a xlink:href="_request_message_8h.html" target="_top" xlink:title="RequestMessage.h">
<polygon fill="white" stroke="black" points="176.5,-224.5 176.5,-243.5 277.5,-243.5 277.5,-224.5 176.5,-224.5"/>
<text text-anchor="middle" x="227" y="-231.5" font-family="Helvetica,sans-Serif" font-size="10.00">RequestMessage.h</text>
</a>
</g>
</g>
<!-- Node1&#45;&gt;Node10 -->
<g id="edge10" class="edge"><title>Node1&#45;&gt;Node10</title>
<path fill="none" stroke="midnightblue" d="M227,-269.805C227,-260.91 227,-250.78 227,-243.751"/>
<polygon fill="midnightblue" stroke="midnightblue" points="223.5,-270.083 227,-280.083 230.5,-270.083 223.5,-270.083"/>
</g>
<!-- Node3 -->
<g id="node3" class="node"><title>Node3</title>
<g id="a_node3"><a xlink:href="_listener_client_sync_8h.html" target="_top" xlink:title="ListenerClientSync.h">
<polygon fill="white" stroke="black" points="6.5,-112.5 6.5,-131.5 113.5,-131.5 113.5,-112.5 6.5,-112.5"/>
<text text-anchor="middle" x="60" y="-119.5" font-family="Helvetica,sans-Serif" font-size="10.00">ListenerClientSync.h</text>
</a>
</g>
</g>
<!-- Node2&#45;&gt;Node3 -->
<g id="edge2" class="edge"><title>Node2&#45;&gt;Node3</title>
<path fill="none" stroke="midnightblue" d="M60,-157.805C60,-148.91 60,-138.78 60,-131.751"/>
<polygon fill="midnightblue" stroke="midnightblue" points="56.5001,-158.083 60,-168.083 63.5001,-158.083 56.5001,-158.083"/>
</g>
<!-- Node5 -->
<g id="node5" class="node"><title>Node5</title>
<g id="a_node5"><a xlink:href="_atomic_sync_8h.html" target="_top" xlink:title="AtomicSync.h">
<polygon fill="white" stroke="black" points="147,-56.5 147,-75.5 225,-75.5 225,-56.5 147,-56.5"/>
<text text-anchor="middle" x="186" y="-63.5" font-family="Helvetica,sans-Serif" font-size="10.00">AtomicSync.h</text>
</a>
</g>
</g>
<!-- Node4&#45;&gt;Node5 -->
<g id="edge4" class="edge"><title>Node4&#45;&gt;Node5</title>
<path fill="none" stroke="midnightblue" d="M186,-101.805C186,-92.9102 186,-82.7798 186,-75.7511"/>
<polygon fill="midnightblue" stroke="midnightblue" points="182.5,-102.083 186,-112.083 189.5,-102.083 182.5,-102.083"/>
</g>
<!-- Node7 -->
<g id="node7" class="node"><title>Node7</title>
<g id="a_node7"><a xlink:href="_close_sync_8h.html" target="_top" xlink:title="CloseSync.h">
<polygon fill="white" stroke="black" points="314,-0.5 314,-19.5 386,-19.5 386,-0.5 314,-0.5"/>
<text text-anchor="middle" x="350" y="-7.5" font-family="Helvetica,sans-Serif" font-size="10.00">CloseSync.h</text>
</a>
</g>
</g>
<!-- Node6&#45;&gt;Node7 -->
<g id="edge6" class="edge"><title>Node6&#45;&gt;Node7</title>
<path fill="none" stroke="midnightblue" d="M307.346,-102.998C318.474,-78.9968 337.728,-37.4683 346.017,-19.5914"/>
<polygon fill="midnightblue" stroke="midnightblue" points="304.033,-101.824 303.002,-112.368 310.384,-104.768 304.033,-101.824"/>
</g>
<!-- Node9 -->
<g id="node9" class="node"><title>Node9</title>
<g id="a_node9"><a xlink:href="_open_sync_8h.html" target="_top" xlink:title="OpenSync.h">
<polygon fill="white" stroke="black" points="356.5,-56.5 356.5,-75.5 427.5,-75.5 427.5,-56.5 356.5,-56.5"/>
<text text-anchor="middle" x="392" y="-63.5" font-family="Helvetica,sans-Serif" font-size="10.00">OpenSync.h</text>
</a>
</g>
</g>
<!-- Node8&#45;&gt;Node9 -->
<g id="edge8" class="edge"><title>Node8&#45;&gt;Node9</title>
<path fill="none" stroke="midnightblue" d="M398.5,-102.101C396.84,-93.1357 394.937,-82.8579 393.621,-75.7511"/>
<polygon fill="midnightblue" stroke="midnightblue" points="395.086,-102.888 400.349,-112.083 401.969,-101.613 395.086,-102.888"/>
</g>
<!-- Node9&#45;&gt;Node7 -->
<g id="edge9" class="edge"><title>Node9&#45;&gt;Node7</title>
<path fill="none" stroke="midnightblue" d="M378.89,-48.144C371.572,-38.7357 362.759,-27.4046 356.806,-19.7511"/>
<polygon fill="midnightblue" stroke="midnightblue" points="376.162,-50.3383 385.065,-56.083 381.688,-46.0406 376.162,-50.3383"/>
</g>
<!-- Node10&#45;&gt;Node2 -->
<g id="edge11" class="edge"><title>Node10&#45;&gt;Node2</title>
<path fill="none" stroke="midnightblue" d="M190.83,-221.304C159.363,-211.129 114.506,-196.625 86.3378,-187.516"/>
<polygon fill="midnightblue" stroke="midnightblue" points="189.947,-224.697 200.538,-224.444 192.1,-218.037 189.947,-224.697"/>
</g>
<!-- Node10&#45;&gt;Node4 -->
<g id="edge12" class="edge"><title>Node10&#45;&gt;Node4</title>
<path fill="none" stroke="midnightblue" d="M220.074,-214.76C216.978,-206.582 213.291,-196.812 210,-188 202.508,-167.941 193.832,-144.352 189.24,-131.839"/>
<polygon fill="midnightblue" stroke="midnightblue" points="216.904,-216.271 223.722,-224.38 223.449,-213.789 216.904,-216.271"/>
</g>
<!-- Node10&#45;&gt;Node6 -->
<g id="edge13" class="edge"><title>Node10&#45;&gt;Node6</title>
<path fill="none" stroke="midnightblue" d="M228.408,-214.143C230.165,-200.441 234.116,-181.933 243,-168 253.058,-152.225 270.555,-139.487 283.321,-131.643"/>
<polygon fill="midnightblue" stroke="midnightblue" points="224.903,-214.017 227.387,-224.317 231.868,-214.716 224.903,-214.017"/>
</g>
<!-- Node10&#45;&gt;Node8 -->
<g id="edge14" class="edge"><title>Node10&#45;&gt;Node8</title>
<path fill="none" stroke="midnightblue" d="M287.593,-224.73C314.951,-218.434 346.175,-207.38 369,-188 386.944,-172.764 396.234,-145.355 399.972,-131.505"/>
<polygon fill="midnightblue" stroke="midnightblue" points="286.759,-221.329 277.711,-226.841 288.222,-228.175 286.759,-221.329"/>
</g>
<!-- Node11 -->
<g id="node11" class="node"><title>Node11</title>
<g id="a_node11"><a xlink:href="_response_message_8h.html" target="_top" xlink:title="ResponseMessage.h">
<polygon fill="white" stroke="black" points="252,-168.5 252,-187.5 360,-187.5 360,-168.5 252,-168.5"/>
<text text-anchor="middle" x="306" y="-175.5" font-family="Helvetica,sans-Serif" font-size="10.00">ResponseMessage.h</text>
</a>
</g>
</g>
<!-- Node10&#45;&gt;Node11 -->
<g id="edge15" class="edge"><title>Node10&#45;&gt;Node11</title>
<path fill="none" stroke="midnightblue" d="M248.034,-218.622C262.466,-208.757 281.141,-195.992 293.339,-187.655"/>
<polygon fill="midnightblue" stroke="midnightblue" points="245.973,-215.791 239.693,-224.324 249.923,-221.57 245.973,-215.791"/>
</g>
<!-- Node11&#45;&gt;Node4 -->
<g id="edge16" class="edge"><title>Node11&#45;&gt;Node4</title>
<path fill="none" stroke="midnightblue" d="M277.627,-164.232C255.18,-154.131 224.465,-140.309 204.925,-131.516"/>
<polygon fill="midnightblue" stroke="midnightblue" points="276.43,-167.532 286.986,-168.444 279.303,-161.148 276.43,-167.532"/>
</g>
<!-- Node11&#45;&gt;Node6 -->
<g id="edge17" class="edge"><title>Node11&#45;&gt;Node6</title>
<path fill="none" stroke="midnightblue" d="M303.55,-158.101C302.388,-149.136 301.056,-138.858 300.134,-131.751"/>
<polygon fill="midnightblue" stroke="midnightblue" points="300.088,-158.616 304.844,-168.083 307.029,-157.716 300.088,-158.616"/>
</g>
<!-- Node11&#45;&gt;Node8 -->
<g id="edge18" class="edge"><title>Node11&#45;&gt;Node8</title>
<path fill="none" stroke="midnightblue" d="M330.574,-163.177C348.239,-153.241 371.513,-140.149 386.614,-131.655"/>
<polygon fill="midnightblue" stroke="midnightblue" points="328.424,-160.371 321.424,-168.324 331.856,-166.472 328.424,-160.371"/>
</g>
</g>
</svg>
