<?xml version="1.0" encoding="UTF-8" standalone="no"?>
<!DOCTYPE svg PUBLIC "-//W3C//DTD SVG 1.1//EN"
 "http://www.w3.org/Graphics/SVG/1.1/DTD/svg11.dtd">
<!-- Generated by graphviz version 2.38.0 (20140413.2041)
 -->
<!-- Title: SPool.h Pages: 1 -->
<svg width="244pt" height="140pt"
 viewBox="0.00 0.00 244.00 140.00" xmlns="http://www.w3.org/2000/svg" xmlns:xlink="http://www.w3.org/1999/xlink">
<g id="graph0" class="graph" transform="scale(1 1) rotate(0) translate(4 136)">
<title>SPool.h</title>
<polygon fill="white" stroke="none" points="-4,4 -4,-136 240,-136 240,4 -4,4"/>
<!-- Node1 -->
<g id="node1" class="node"><title>Node1</title>
<polygon fill="#bfbfbf" stroke="black" points="90,-112.5 90,-131.5 141,-131.5 141,-112.5 90,-112.5"/>
<text text-anchor="middle" x="115.5" y="-119.5" font-family="Helvetica,sans-Serif" font-size="10.00">SPool.h</text>
</g>
<!-- Node2 -->
<g id="node2" class="node"><title>Node2</title>
<polygon fill="white" stroke="#bfbfbf" points="0,-56.5 0,-75.5 105,-75.5 105,-56.5 0,-56.5"/>
<text text-anchor="middle" x="52.5" y="-63.5" font-family="Helvetica,sans-Serif" font-size="10.00">Cpl/Memory/Pool_.h</text>
</g>
<!-- Node1&#45;&gt;Node2 -->
<g id="edge1" class="edge"><title>Node1&#45;&gt;Node2</title>
<path fill="none" stroke="midnightblue" d="M105.378,-112.324C95.9736,-104.263 81.7559,-92.0765 70.431,-82.3695"/>
<polygon fill="midnightblue" stroke="midnightblue" points="72.6766,-79.6844 62.8062,-75.8339 68.121,-84.9993 72.6766,-79.6844"/>
</g>
<!-- Node3 -->
<g id="node3" class="node"><title>Node3</title>
<g id="a_node3"><a xlink:href="_aligned_8h.html" target="_top" xlink:title="Cpl/Memory/Aligned.h">
<polygon fill="white" stroke="black" points="123,-56.5 123,-75.5 236,-75.5 236,-56.5 123,-56.5"/>
<text text-anchor="middle" x="179.5" y="-63.5" font-family="Helvetica,sans-Serif" font-size="10.00">Cpl/Memory/Aligned.h</text>
</a>
</g>
</g>
<!-- Node1&#45;&gt;Node3 -->
<g id="edge2" class="edge"><title>Node1&#45;&gt;Node3</title>
<path fill="none" stroke="midnightblue" d="M125.783,-112.324C135.336,-104.263 149.78,-92.0765 161.284,-82.3695"/>
<polygon fill="midnightblue" stroke="midnightblue" points="163.644,-84.9577 169.03,-75.8339 159.13,-79.6076 163.644,-84.9577"/>
</g>
<!-- Node4 -->
<g id="node4" class="node"><title>Node4</title>
<polygon fill="white" stroke="#bfbfbf" points="155.5,-0.5 155.5,-19.5 203.5,-19.5 203.5,-0.5 155.5,-0.5"/>
<text text-anchor="middle" x="179.5" y="-7.5" font-family="Helvetica,sans-Serif" font-size="10.00">stdlib.h</text>
</g>
<!-- Node3&#45;&gt;Node4 -->
<g id="edge3" class="edge"><title>Node3&#45;&gt;Node4</title>
<path fill="none" stroke="midnightblue" d="M179.5,-56.083C179.5,-49.0059 179.5,-38.8611 179.5,-29.9865"/>
<polygon fill="midnightblue" stroke="midnightblue" points="183,-29.751 179.5,-19.7511 176,-29.7511 183,-29.751"/>
</g>
</g>
</svg>
