<?xml version="1.0" encoding="UTF-8" standalone="no"?>
<!DOCTYPE svg PUBLIC "-//W3C//DTD SVG 1.1//EN"
 "http://www.w3.org/Graphics/SVG/1.1/DTD/svg11.dtd">
<!-- Generated by graphviz version 2.38.0 (20140413.2041)
 -->
<!-- Title: InputOutput.h Pages: 1 -->
<svg width="274pt" height="207pt"
 viewBox="0.00 0.00 274.00 207.00" xmlns="http://www.w3.org/2000/svg" xmlns:xlink="http://www.w3.org/1999/xlink">
<g id="graph0" class="graph" transform="scale(1 1) rotate(0) translate(4 203)">
<title>InputOutput.h</title>
<polygon fill="white" stroke="none" points="-4,4 -4,-203 270,-203 270,4 -4,4"/>
<!-- Node1 -->
<g id="node1" class="node"><title>Node1</title>
<polygon fill="#bfbfbf" stroke="black" points="84,-179.5 84,-198.5 159,-198.5 159,-179.5 84,-179.5"/>
<text text-anchor="middle" x="121.5" y="-186.5" font-family="Helvetica,sans-Serif" font-size="10.00">InputOutput.h</text>
</g>
<!-- Node2 -->
<g id="node2" class="node"><title>Node2</title>
<polygon fill="white" stroke="#bfbfbf" points="0,-112.5 0,-142.5 113,-142.5 113,-112.5 0,-112.5"/>
<text text-anchor="start" x="8" y="-130.5" font-family="Helvetica,sans-Serif" font-size="10.00">Cpl/Driver/Uart/Stream</text>
<text text-anchor="middle" x="56.5" y="-119.5" font-family="Helvetica,sans-Serif" font-size="10.00">/InputOutput_.h</text>
</g>
<!-- Node1&#45;&gt;Node2 -->
<g id="edge1" class="edge"><title>Node1&#45;&gt;Node2</title>
<path fill="none" stroke="midnightblue" d="M112.187,-179.475C103.631,-171.643 90.5998,-159.714 79.2943,-149.366"/>
<polygon fill="midnightblue" stroke="midnightblue" points="81.5587,-146.693 71.8192,-142.523 76.8322,-151.857 81.5587,-146.693"/>
</g>
<!-- Node3 -->
<g id="node3" class="node"><title>Node3</title>
<g id="a_node3"><a xlink:href="_io_2_serial_2_renesas_2_rx62n_2_hal_8h.html" target="_top" xlink:title="Cpl/Io/Serial/Renesas\l/Rx62n/Hal.h">
<polygon fill="white" stroke="black" points="131.5,-112.5 131.5,-142.5 241.5,-142.5 241.5,-112.5 131.5,-112.5"/>
<text text-anchor="start" x="139.5" y="-130.5" font-family="Helvetica,sans-Serif" font-size="10.00">Cpl/Io/Serial/Renesas</text>
<text text-anchor="middle" x="186.5" y="-119.5" font-family="Helvetica,sans-Serif" font-size="10.00">/Rx62n/Hal.h</text>
</a>
</g>
</g>
<!-- Node1&#45;&gt;Node3 -->
<g id="edge2" class="edge"><title>Node1&#45;&gt;Node3</title>
<path fill="none" stroke="midnightblue" d="M130.813,-179.475C139.369,-171.643 152.4,-159.714 163.706,-149.366"/>
<polygon fill="midnightblue" stroke="midnightblue" points="166.168,-151.857 171.181,-142.523 161.441,-146.693 166.168,-151.857"/>
</g>
<!-- Node4 -->
<g id="node4" class="node"><title>Node4</title>
<g id="a_node4"><a xlink:href="_driver_2_uart_2_hal_8h.html" target="_top" xlink:title="Cpl/Driver/Uart/Hal.h">
<polygon fill="white" stroke="black" points="134.5,-56.5 134.5,-75.5 238.5,-75.5 238.5,-56.5 134.5,-56.5"/>
<text text-anchor="middle" x="186.5" y="-63.5" font-family="Helvetica,sans-Serif" font-size="10.00">Cpl/Driver/Uart/Hal.h</text>
</a>
</g>
</g>
<!-- Node3&#45;&gt;Node4 -->
<g id="edge3" class="edge"><title>Node3&#45;&gt;Node4</title>
<path fill="none" stroke="midnightblue" d="M186.5,-112.399C186.5,-104.466 186.5,-94.458 186.5,-85.8583"/>
<polygon fill="midnightblue" stroke="midnightblue" points="190,-85.6577 186.5,-75.6578 183,-85.6578 190,-85.6577"/>
</g>
<!-- Node5 -->
<g id="node5" class="node"><title>Node5</title>
<polygon fill="white" stroke="#bfbfbf" points="122,-0.5 122,-19.5 171,-19.5 171,-0.5 122,-0.5"/>
<text text-anchor="middle" x="146.5" y="-7.5" font-family="Helvetica,sans-Serif" font-size="10.00">stdint.h</text>
</g>
<!-- Node4&#45;&gt;Node5 -->
<g id="edge4" class="edge"><title>Node4&#45;&gt;Node5</title>
<path fill="none" stroke="midnightblue" d="M179.895,-56.083C174.245,-48.4554 165.955,-37.2645 159.049,-27.9408"/>
<polygon fill="midnightblue" stroke="midnightblue" points="161.747,-25.7034 152.982,-19.7511 156.122,-29.87 161.747,-25.7034"/>
</g>
<!-- Node6 -->
<g id="node6" class="node"><title>Node6</title>
<polygon fill="white" stroke="#bfbfbf" points="189,-0.5 189,-19.5 266,-19.5 266,-0.5 189,-0.5"/>
<text text-anchor="middle" x="227.5" y="-7.5" font-family="Helvetica,sans-Serif" font-size="10.00">colony_map.h</text>
</g>
<!-- Node4&#45;&gt;Node6 -->
<g id="edge5" class="edge"><title>Node4&#45;&gt;Node6</title>
<path fill="none" stroke="midnightblue" d="M193.27,-56.083C199.062,-48.4554 207.558,-37.2645 214.638,-27.9408"/>
<polygon fill="midnightblue" stroke="midnightblue" points="217.596,-29.8321 220.856,-19.7511 212.021,-25.5991 217.596,-29.8321"/>
</g>
</g>
</svg>
