<?xml version="1.0" encoding="UTF-8" standalone="no"?>
<!DOCTYPE svg PUBLIC "-//W3C//DTD SVG 1.1//EN"
 "http://www.w3.org/Graphics/SVG/1.1/DTD/svg11.dtd">
<!-- Generated by graphviz version 2.38.0 (20140413.2041)
 -->
<!-- Title: Shutdown.h Pages: 1 -->
<svg width="216pt" height="84pt"
 viewBox="0.00 0.00 215.50 84.00" xmlns="http://www.w3.org/2000/svg" xmlns:xlink="http://www.w3.org/1999/xlink">
<g id="graph0" class="graph" transform="scale(1 1) rotate(0) translate(4 80)">
<title>Shutdown.h</title>
<polygon fill="white" stroke="none" points="-4,4 -4,-80 211.5,-80 211.5,4 -4,4"/>
<!-- Node1 -->
<g id="node1" class="node"><title>Node1</title>
<polygon fill="#bfbfbf" stroke="black" points="64,-56.5 64,-75.5 132,-75.5 132,-56.5 64,-56.5"/>
<text text-anchor="middle" x="98" y="-63.5" font-family="Helvetica,sans-Serif" font-size="10.00">Shutdown.h</text>
</g>
<!-- Node2 -->
<g id="node2" class="node"><title>Node2</title>
<polygon fill="white" stroke="#bfbfbf" points="0,-0.5 0,-19.5 84,-19.5 84,-0.5 0,-0.5"/>
<text text-anchor="middle" x="42" y="-7.5" font-family="Helvetica,sans-Serif" font-size="10.00">colony_config.h</text>
</g>
<!-- Node1&#45;&gt;Node2 -->
<g id="edge1" class="edge"><title>Node1&#45;&gt;Node2</title>
<path fill="none" stroke="midnightblue" d="M89.0026,-56.324C80.8056,-48.4196 68.4945,-36.5482 58.528,-26.9377"/>
<polygon fill="midnightblue" stroke="midnightblue" points="60.789,-24.2558 51.1611,-19.8339 55.9301,-29.2947 60.789,-24.2558"/>
</g>
<!-- Node3 -->
<g id="node3" class="node"><title>Node3</title>
<g id="a_node3"><a xlink:href="_item_8h.html" target="_top" xlink:title="Cpl/Container/Item.h">
<polygon fill="white" stroke="black" points="102.5,-0.5 102.5,-19.5 207.5,-19.5 207.5,-0.5 102.5,-0.5"/>
<text text-anchor="middle" x="155" y="-7.5" font-family="Helvetica,sans-Serif" font-size="10.00">Cpl/Container/Item.h</text>
</a>
</g>
</g>
<!-- Node1&#45;&gt;Node3 -->
<g id="edge2" class="edge"><title>Node1&#45;&gt;Node3</title>
<path fill="none" stroke="midnightblue" d="M107.158,-56.324C115.501,-48.4196 128.032,-36.5482 138.177,-26.9377"/>
<polygon fill="midnightblue" stroke="midnightblue" points="140.823,-29.2522 145.675,-19.8339 136.009,-24.1705 140.823,-29.2522"/>
</g>
</g>
</svg>
