<?xml version="1.0" encoding="UTF-8" standalone="no"?>
<!DOCTYPE svg PUBLIC "-//W3C//DTD SVG 1.1//EN"
 "http://www.w3.org/Graphics/SVG/1.1/DTD/svg11.dtd">
<!-- Generated by graphviz version 2.38.0 (20140413.2041)
 -->
<!-- Title: InputOutput.h Pages: 1 -->
<svg width="103pt" height="140pt"
 viewBox="0.00 0.00 103.00 140.00" xmlns="http://www.w3.org/2000/svg" xmlns:xlink="http://www.w3.org/1999/xlink">
<g id="graph0" class="graph" transform="scale(1 1) rotate(0) translate(4 136)">
<title>InputOutput.h</title>
<polygon fill="white" stroke="none" points="-4,4 -4,-136 99,-136 99,4 -4,4"/>
<!-- Node1 -->
<g id="node1" class="node"><title>Node1</title>
<polygon fill="#bfbfbf" stroke="black" points="19.5,-112.5 19.5,-131.5 94.5,-131.5 94.5,-112.5 19.5,-112.5"/>
<text text-anchor="middle" x="57" y="-119.5" font-family="Helvetica,sans-Serif" font-size="10.00">InputOutput.h</text>
</g>
<!-- Node2 -->
<g id="node2" class="node"><title>Node2</title>
<g id="a_node2"><a xlink:href="_factory_8h.html" target="_top" xlink:title="Factory.h">
<polygon fill="white" stroke="black" points="0,-56.5 0,-75.5 58,-75.5 58,-56.5 0,-56.5"/>
<text text-anchor="middle" x="29" y="-63.5" font-family="Helvetica,sans-Serif" font-size="10.00">Factory.h</text>
</a>
</g>
</g>
<!-- Node1&#45;&gt;Node2 -->
<g id="edge1" class="edge"><title>Node1&#45;&gt;Node2</title>
<path fill="none" stroke="midnightblue" d="M47.6577,-102.983C42.905,-93.8168 37.3441,-83.0922 33.5376,-75.7511"/>
<polygon fill="midnightblue" stroke="midnightblue" points="44.666,-104.817 52.3764,-112.083 50.8803,-101.594 44.666,-104.817"/>
</g>
<!-- Node3 -->
<g id="node3" class="node"><title>Node3</title>
<g id="a_node3"><a xlink:href="_stream_pool_8h.html" target="_top" xlink:title="StreamPool.h">
<polygon fill="white" stroke="black" points="19,-0.5 19,-19.5 95,-19.5 95,-0.5 19,-0.5"/>
<text text-anchor="middle" x="57" y="-7.5" font-family="Helvetica,sans-Serif" font-size="10.00">StreamPool.h</text>
</a>
</g>
</g>
<!-- Node1&#45;&gt;Node3 -->
<g id="edge3" class="edge"><title>Node1&#45;&gt;Node3</title>
<path fill="none" stroke="midnightblue" d="M62.5337,-102.191C65.6935,-89.2427 68.7152,-71.6248 67,-56 65.5853,-43.1124 61.9566,-28.5154 59.4824,-19.5332"/>
<polygon fill="midnightblue" stroke="midnightblue" points="59.0589,-101.634 59.8369,-112.201 65.8179,-103.455 59.0589,-101.634"/>
</g>
<!-- Node2&#45;&gt;Node3 -->
<g id="edge2" class="edge"><title>Node2&#45;&gt;Node3</title>
<path fill="none" stroke="midnightblue" d="M38.3423,-46.9827C43.095,-37.8168 48.6559,-27.0922 52.4624,-19.7511"/>
<polygon fill="midnightblue" stroke="midnightblue" points="35.1197,-45.5943 33.6236,-56.083 41.334,-48.8166 35.1197,-45.5943"/>
</g>
</g>
</svg>
