<?xml version="1.0" encoding="UTF-8" standalone="no"?>
<!DOCTYPE svg PUBLIC "-//W3C//DTD SVG 1.1//EN"
 "http://www.w3.org/Graphics/SVG/1.1/DTD/svg11.dtd">
<!-- Generated by graphviz version 2.38.0 (20140413.2041)
 -->
<!-- Title: String.h Pages: 1 -->
<svg width="1242pt" height="308pt"
 viewBox="0.00 0.00 1242.00 308.00" xmlns="http://www.w3.org/2000/svg" xmlns:xlink="http://www.w3.org/1999/xlink">
<g id="graph0" class="graph" transform="scale(1 1) rotate(0) translate(4 304)">
<title>String.h</title>
<polygon fill="white" stroke="none" points="-4,4 -4,-304 1238,-304 1238,4 -4,4"/>
<!-- Node1 -->
<g id="node1" class="node"><title>Node1</title>
<polygon fill="#bfbfbf" stroke="black" points="642,-280.5 642,-299.5 692,-299.5 692,-280.5 642,-280.5"/>
<text text-anchor="middle" x="667" y="-287.5" font-family="Helvetica,sans-Serif" font-size="10.00">String.h</text>
</g>
<!-- Node2 -->
<g id="node2" class="node"><title>Node2</title>
<g id="a_node2"><a xlink:href="_input_8h.html" target="_top" xlink:title="Input.h">
<polygon fill="white" stroke="black" points="173,-224.5 173,-243.5 219,-243.5 219,-224.5 173,-224.5"/>
<text text-anchor="middle" x="196" y="-231.5" font-family="Helvetica,sans-Serif" font-size="10.00">Input.h</text>
</a>
</g>
</g>
<!-- Node1&#45;&gt;Node2 -->
<g id="edge1" class="edge"><title>Node1&#45;&gt;Node2</title>
<path fill="none" stroke="midnightblue" d="M631.316,-285.534C560.067,-278.514 395.15,-261.767 257,-244 244.471,-242.389 230.532,-240.351 219.145,-238.622"/>
<polygon fill="midnightblue" stroke="midnightblue" points="631.237,-289.043 641.532,-286.537 631.922,-282.077 631.237,-289.043"/>
</g>
<!-- Node13 -->
<g id="node13" class="node"><title>Node13</title>
<g id="a_node13"><a xlink:href="_line_reader_api_8h.html" target="_top" xlink:title="LineReaderApi.h">
<polygon fill="white" stroke="black" points="661,-224.5 661,-243.5 749,-243.5 749,-224.5 661,-224.5"/>
<text text-anchor="middle" x="705" y="-231.5" font-family="Helvetica,sans-Serif" font-size="10.00">LineReaderApi.h</text>
</a>
</g>
</g>
<!-- Node1&#45;&gt;Node13 -->
<g id="edge13" class="edge"><title>Node1&#45;&gt;Node13</title>
<path fill="none" stroke="midnightblue" d="M679.065,-271.855C685.645,-262.505 693.511,-251.327 698.842,-243.751"/>
<polygon fill="midnightblue" stroke="midnightblue" points="676.168,-269.891 673.275,-280.083 681.892,-273.919 676.168,-269.891"/>
</g>
<!-- Node14 -->
<g id="node14" class="node"><title>Node14</title>
<g id="a_node14"><a xlink:href="_line_writer_api_8h.html" target="_top" xlink:title="LineWriterApi.h">
<polygon fill="white" stroke="black" points="266.5,-224.5 266.5,-243.5 349.5,-243.5 349.5,-224.5 266.5,-224.5"/>
<text text-anchor="middle" x="308" y="-231.5" font-family="Helvetica,sans-Serif" font-size="10.00">LineWriterApi.h</text>
</a>
</g>
</g>
<!-- Node1&#45;&gt;Node14 -->
<g id="edge15" class="edge"><title>Node1&#45;&gt;Node14</title>
<path fill="none" stroke="midnightblue" d="M631.743,-283.697C565.063,-273.667 420.789,-251.965 349.537,-241.248"/>
<polygon fill="midnightblue" stroke="midnightblue" points="631.346,-287.176 641.756,-285.203 632.388,-280.254 631.346,-287.176"/>
</g>
<!-- Node16 -->
<g id="node16" class="node"><title>Node16</title>
<g id="a_node16"><a xlink:href="_output_8h.html" target="_top" xlink:title="Output.h">
<polygon fill="white" stroke="black" points="419,-224.5 419,-243.5 473,-243.5 473,-224.5 419,-224.5"/>
<text text-anchor="middle" x="446" y="-231.5" font-family="Helvetica,sans-Serif" font-size="10.00">Output.h</text>
</a>
</g>
</g>
<!-- Node1&#45;&gt;Node16 -->
<g id="edge17" class="edge"><title>Node1&#45;&gt;Node16</title>
<path fill="none" stroke="midnightblue" d="M631.934,-280.432C587.842,-269.658 513.092,-251.393 473.12,-241.627"/>
<polygon fill="midnightblue" stroke="midnightblue" points="631.103,-283.832 641.648,-282.806 632.765,-277.032 631.103,-283.832"/>
</g>
<!-- Node22 -->
<g id="node22" class="node"><title>Node22</title>
<g id="a_node22"><a xlink:href="_trace_8h.html" target="_top" xlink:title="Trace.h">
<polygon fill="white" stroke="black" points="602.5,-168.5 602.5,-187.5 651.5,-187.5 651.5,-168.5 602.5,-168.5"/>
<text text-anchor="middle" x="627" y="-175.5" font-family="Helvetica,sans-Serif" font-size="10.00">Trace.h</text>
</a>
</g>
</g>
<!-- Node1&#45;&gt;Node22 -->
<g id="edge28" class="edge"><title>Node1&#45;&gt;Node22</title>
<path fill="none" stroke="midnightblue" d="M660.336,-270.674C651.591,-246.625 636.596,-205.388 630.124,-187.591"/>
<polygon fill="midnightblue" stroke="midnightblue" points="657.154,-272.167 663.861,-280.368 663.733,-269.774 657.154,-272.167"/>
</g>
<!-- Node24 -->
<g id="node24" class="node"><title>Node24</title>
<g id="a_node24"><a xlink:href="format_8h.html" target="_top" xlink:title="format.h">
<polygon fill="white" stroke="black" points="1055,-224.5 1055,-243.5 1107,-243.5 1107,-224.5 1055,-224.5"/>
<text text-anchor="middle" x="1081" y="-231.5" font-family="Helvetica,sans-Serif" font-size="10.00">format.h</text>
</a>
</g>
</g>
<!-- Node1&#45;&gt;Node24 -->
<g id="edge29" class="edge"><title>Node1&#45;&gt;Node24</title>
<path fill="none" stroke="midnightblue" d="M702.045,-286.412C769.201,-281.107 920.498,-267.478 1046,-244 1048.84,-243.469 1051.78,-242.839 1054.71,-242.161"/>
<polygon fill="midnightblue" stroke="midnightblue" points="701.705,-282.928 692.007,-287.193 702.248,-289.907 701.705,-282.928"/>
</g>
<!-- Node25 -->
<g id="node25" class="node"><title>Node25</title>
<g id="a_node25"><a xlink:href="_f_string_8h.html" target="_top" xlink:title="FString.h">
<polygon fill="white" stroke="black" points="794,-224.5 794,-243.5 850,-243.5 850,-224.5 794,-224.5"/>
<text text-anchor="middle" x="822" y="-231.5" font-family="Helvetica,sans-Serif" font-size="10.00">FString.h</text>
</a>
</g>
</g>
<!-- Node1&#45;&gt;Node25 -->
<g id="edge30" class="edge"><title>Node1&#45;&gt;Node25</title>
<path fill="none" stroke="midnightblue" d="M701.332,-277.039C730.497,-266.879 771.637,-252.546 797.555,-243.516"/>
<polygon fill="midnightblue" stroke="midnightblue" points="699.852,-273.848 691.56,-280.444 702.155,-280.459 699.852,-273.848"/>
</g>
<!-- Node30 -->
<g id="node30" class="node"><title>Node30</title>
<g id="a_node30"><a xlink:href="_string_item_8h.html" target="_top" xlink:title="StringItem.h">
<polygon fill="white" stroke="black" points="967.5,-224.5 967.5,-243.5 1036.5,-243.5 1036.5,-224.5 967.5,-224.5"/>
<text text-anchor="middle" x="1002" y="-231.5" font-family="Helvetica,sans-Serif" font-size="10.00">StringItem.h</text>
</a>
</g>
</g>
<!-- Node1&#45;&gt;Node30 -->
<g id="edge36" class="edge"><title>Node1&#45;&gt;Node30</title>
<path fill="none" stroke="midnightblue" d="M702.274,-283.314C766.874,-272.901 903.408,-250.892 967.459,-240.568"/>
<polygon fill="midnightblue" stroke="midnightblue" points="701.495,-279.894 692.179,-284.941 702.609,-286.805 701.495,-279.894"/>
</g>
<!-- Node3 -->
<g id="node3" class="node"><title>Node3</title>
<g id="a_node3"><a xlink:href="_input_api_8h.html" target="_top" xlink:title="InputApi.h">
<polygon fill="white" stroke="black" points="51,-168.5 51,-187.5 111,-187.5 111,-168.5 51,-168.5"/>
<text text-anchor="middle" x="81" y="-175.5" font-family="Helvetica,sans-Serif" font-size="10.00">InputApi.h</text>
</a>
</g>
</g>
<!-- Node2&#45;&gt;Node3 -->
<g id="edge2" class="edge"><title>Node2&#45;&gt;Node3</title>
<path fill="none" stroke="midnightblue" d="M168.519,-220.096C147.034,-210.007 117.778,-196.27 99.1368,-187.516"/>
<polygon fill="midnightblue" stroke="midnightblue" points="167.238,-223.361 177.778,-224.444 170.214,-217.025 167.238,-223.361"/>
</g>
<!-- Node7 -->
<g id="node7" class="node"><title>Node7</title>
<g id="a_node7"><a xlink:href="_input_output_8h.html" target="_top" xlink:title="InputOutput.h">
<polygon fill="white" stroke="black" points="129.5,-168.5 129.5,-187.5 204.5,-187.5 204.5,-168.5 129.5,-168.5"/>
<text text-anchor="middle" x="167" y="-175.5" font-family="Helvetica,sans-Serif" font-size="10.00">InputOutput.h</text>
</a>
</g>
</g>
<!-- Node2&#45;&gt;Node7 -->
<g id="edge6" class="edge"><title>Node2&#45;&gt;Node7</title>
<path fill="none" stroke="midnightblue" d="M186.324,-214.983C181.402,-205.817 175.642,-195.092 171.7,-187.751"/>
<polygon fill="midnightblue" stroke="midnightblue" points="183.396,-216.929 191.211,-224.083 189.563,-213.617 183.396,-216.929"/>
</g>
<!-- Node12 -->
<g id="node12" class="node"><title>Node12</title>
<g id="a_node12"><a xlink:href="_line_reader_8h.html" target="_top" xlink:title="LineReader.h">
<polygon fill="white" stroke="black" points="670,-168.5 670,-187.5 744,-187.5 744,-168.5 670,-168.5"/>
<text text-anchor="middle" x="707" y="-175.5" font-family="Helvetica,sans-Serif" font-size="10.00">LineReader.h</text>
</a>
</g>
</g>
<!-- Node2&#45;&gt;Node12 -->
<g id="edge12" class="edge"><title>Node2&#45;&gt;Node12</title>
<path fill="none" stroke="midnightblue" d="M229.255,-227.74C238.246,-226.415 247.984,-225.067 257,-224 435.578,-202.868 481.914,-212.941 660,-188 663.209,-187.551 666.531,-187.029 669.857,-186.468"/>
<polygon fill="midnightblue" stroke="midnightblue" points="228.497,-224.315 219.131,-229.268 229.542,-231.237 228.497,-224.315"/>
</g>
<!-- Node4 -->
<g id="node4" class="node"><title>Node4</title>
<g id="a_node4"><a xlink:href="_file_2_input_8h.html" target="_top" xlink:title="Input.h">
<polygon fill="white" stroke="black" points="0,-112.5 0,-131.5 46,-131.5 46,-112.5 0,-112.5"/>
<text text-anchor="middle" x="23" y="-119.5" font-family="Helvetica,sans-Serif" font-size="10.00">Input.h</text>
</a>
</g>
</g>
<!-- Node3&#45;&gt;Node4 -->
<g id="edge3" class="edge"><title>Node3&#45;&gt;Node4</title>
<path fill="none" stroke="midnightblue" d="M64.0869,-161.253C53.797,-151.673 41.0343,-139.791 32.4883,-131.834"/>
<polygon fill="midnightblue" stroke="midnightblue" points="61.9774,-164.071 71.6813,-168.324 66.7473,-158.948 61.9774,-164.071"/>
</g>
<!-- Node5 -->
<g id="node5" class="node"><title>Node5</title>
<g id="a_node5"><a xlink:href="_input_output_api_8h.html" target="_top" xlink:title="InputOutputApi.h">
<polygon fill="white" stroke="black" points="216.5,-112.5 216.5,-131.5 305.5,-131.5 305.5,-112.5 216.5,-112.5"/>
<text text-anchor="middle" x="261" y="-119.5" font-family="Helvetica,sans-Serif" font-size="10.00">InputOutputApi.h</text>
</a>
</g>
</g>
<!-- Node3&#45;&gt;Node5 -->
<g id="edge4" class="edge"><title>Node3&#45;&gt;Node5</title>
<path fill="none" stroke="midnightblue" d="M119.108,-165.568C153.063,-155.381 201.989,-140.703 232.612,-131.516"/>
<polygon fill="midnightblue" stroke="midnightblue" points="118.094,-162.218 109.522,-168.444 120.106,-168.922 118.094,-162.218"/>
</g>
<!-- Node6 -->
<g id="node6" class="node"><title>Node6</title>
<g id="a_node6"><a xlink:href="_file_2_input_output_8h.html" target="_top" xlink:title="InputOutput.h">
<polygon fill="white" stroke="black" points="223.5,-56.5 223.5,-75.5 298.5,-75.5 298.5,-56.5 223.5,-56.5"/>
<text text-anchor="middle" x="261" y="-63.5" font-family="Helvetica,sans-Serif" font-size="10.00">InputOutput.h</text>
</a>
</g>
</g>
<!-- Node5&#45;&gt;Node6 -->
<g id="edge5" class="edge"><title>Node5&#45;&gt;Node6</title>
<path fill="none" stroke="midnightblue" d="M261,-101.805C261,-92.9102 261,-82.7798 261,-75.7511"/>
<polygon fill="midnightblue" stroke="midnightblue" points="257.5,-102.083 261,-112.083 264.5,-102.083 257.5,-102.083"/>
</g>
<!-- Node8 -->
<g id="node8" class="node"><title>Node8</title>
<g id="a_node8"><a xlink:href="_io_2_null_8h.html" target="_top" xlink:title="Null.h">
<polygon fill="white" stroke="black" points="157.5,-112.5 157.5,-131.5 198.5,-131.5 198.5,-112.5 157.5,-112.5"/>
<text text-anchor="middle" x="178" y="-119.5" font-family="Helvetica,sans-Serif" font-size="10.00">Null.h</text>
</a>
</g>
</g>
<!-- Node7&#45;&gt;Node8 -->
<g id="edge7" class="edge"><title>Node7&#45;&gt;Node8</title>
<path fill="none" stroke="midnightblue" d="M170.85,-158.101C172.676,-149.136 174.77,-138.858 176.217,-131.751"/>
<polygon fill="midnightblue" stroke="midnightblue" points="167.383,-157.586 168.816,-168.083 174.242,-158.983 167.383,-157.586"/>
</g>
<!-- Node9 -->
<g id="node9" class="node"><title>Node9</title>
<g id="a_node9"><a xlink:href="_socket_2_input_output_8h.html" target="_top" xlink:title="InputOutput.h">
<polygon fill="white" stroke="black" points="64.5,-112.5 64.5,-131.5 139.5,-131.5 139.5,-112.5 64.5,-112.5"/>
<text text-anchor="middle" x="102" y="-119.5" font-family="Helvetica,sans-Serif" font-size="10.00">InputOutput.h</text>
</a>
</g>
</g>
<!-- Node7&#45;&gt;Node9 -->
<g id="edge8" class="edge"><title>Node7&#45;&gt;Node9</title>
<path fill="none" stroke="midnightblue" d="M148.727,-161.82C137.082,-152.145 122.401,-139.948 112.633,-131.834"/>
<polygon fill="midnightblue" stroke="midnightblue" points="146.628,-164.626 156.557,-168.324 151.101,-159.242 146.628,-164.626"/>
</g>
<!-- Node10 -->
<g id="node10" class="node"><title>Node10</title>
<g id="a_node10"><a xlink:href="_factory_8h.html" target="_top" xlink:title="Factory.h">
<polygon fill="white" stroke="black" points="45,-56.5 45,-75.5 103,-75.5 103,-56.5 45,-56.5"/>
<text text-anchor="middle" x="74" y="-63.5" font-family="Helvetica,sans-Serif" font-size="10.00">Factory.h</text>
</a>
</g>
</g>
<!-- Node9&#45;&gt;Node10 -->
<g id="edge9" class="edge"><title>Node9&#45;&gt;Node10</title>
<path fill="none" stroke="midnightblue" d="M92.6577,-102.983C87.905,-93.8168 82.3441,-83.0922 78.5376,-75.7511"/>
<polygon fill="midnightblue" stroke="midnightblue" points="89.666,-104.817 97.3764,-112.083 95.8803,-101.594 89.666,-104.817"/>
</g>
<!-- Node11 -->
<g id="node11" class="node"><title>Node11</title>
<g id="a_node11"><a xlink:href="_stream_pool_8h.html" target="_top" xlink:title="StreamPool.h">
<polygon fill="white" stroke="black" points="64,-0.5 64,-19.5 140,-19.5 140,-0.5 64,-0.5"/>
<text text-anchor="middle" x="102" y="-7.5" font-family="Helvetica,sans-Serif" font-size="10.00">StreamPool.h</text>
</a>
</g>
</g>
<!-- Node9&#45;&gt;Node11 -->
<g id="edge11" class="edge"><title>Node9&#45;&gt;Node11</title>
<path fill="none" stroke="midnightblue" d="M107.534,-102.191C110.693,-89.2427 113.715,-71.6248 112,-56 110.585,-43.1124 106.957,-28.5154 104.482,-19.5332"/>
<polygon fill="midnightblue" stroke="midnightblue" points="104.059,-101.634 104.837,-112.201 110.818,-103.455 104.059,-101.634"/>
</g>
<!-- Node10&#45;&gt;Node11 -->
<g id="edge10" class="edge"><title>Node10&#45;&gt;Node11</title>
<path fill="none" stroke="midnightblue" d="M83.3423,-46.9827C88.095,-37.8168 93.6559,-27.0922 97.4624,-19.7511"/>
<polygon fill="midnightblue" stroke="midnightblue" points="80.1197,-45.5943 78.6236,-56.083 86.334,-48.8166 80.1197,-45.5943"/>
</g>
<!-- Node13&#45;&gt;Node12 -->
<g id="edge14" class="edge"><title>Node13&#45;&gt;Node12</title>
<path fill="none" stroke="midnightblue" d="M705.711,-213.805C706.04,-204.91 706.416,-194.78 706.676,-187.751"/>
<polygon fill="midnightblue" stroke="midnightblue" points="702.203,-213.96 705.33,-224.083 709.198,-214.219 702.203,-213.96"/>
</g>
<!-- Node15 -->
<g id="node15" class="node"><title>Node15</title>
<g id="a_node15"><a xlink:href="_line_writer_8h.html" target="_top" xlink:title="LineWriter.h">
<polygon fill="white" stroke="black" points="222.5,-168.5 222.5,-187.5 291.5,-187.5 291.5,-168.5 222.5,-168.5"/>
<text text-anchor="middle" x="257" y="-175.5" font-family="Helvetica,sans-Serif" font-size="10.00">LineWriter.h</text>
</a>
</g>
</g>
<!-- Node14&#45;&gt;Node15 -->
<g id="edge16" class="edge"><title>Node14&#45;&gt;Node15</title>
<path fill="none" stroke="midnightblue" d="M292.622,-216.718C283.633,-207.2 272.641,-195.561 265.265,-187.751"/>
<polygon fill="midnightblue" stroke="midnightblue" points="290.168,-219.216 299.578,-224.083 295.257,-214.41 290.168,-219.216"/>
</g>
<!-- Node16&#45;&gt;Node7 -->
<g id="edge23" class="edge"><title>Node16&#45;&gt;Node7</title>
<path fill="none" stroke="midnightblue" d="M408.629,-225.811C362.604,-216.951 282.036,-201.42 213,-188 210.284,-187.472 207.478,-186.926 204.654,-186.375"/>
<polygon fill="midnightblue" stroke="midnightblue" points="408.253,-229.303 418.734,-227.756 409.576,-222.429 408.253,-229.303"/>
</g>
<!-- Node16&#45;&gt;Node15 -->
<g id="edge24" class="edge"><title>Node16&#45;&gt;Node15</title>
<path fill="none" stroke="midnightblue" d="M408.897,-222.399C373.188,-212.197 319.878,-196.965 286.835,-187.524"/>
<polygon fill="midnightblue" stroke="midnightblue" points="408.344,-225.881 418.921,-225.263 410.267,-219.151 408.344,-225.881"/>
</g>
<!-- Node17 -->
<g id="node17" class="node"><title>Node17</title>
<g id="a_node17"><a xlink:href="_atomic_output_api_8h.html" target="_top" xlink:title="AtomicOutputApi.h">
<polygon fill="white" stroke="black" points="396.5,-168.5 396.5,-187.5 495.5,-187.5 495.5,-168.5 396.5,-168.5"/>
<text text-anchor="middle" x="446" y="-175.5" font-family="Helvetica,sans-Serif" font-size="10.00">AtomicOutputApi.h</text>
</a>
</g>
</g>
<!-- Node16&#45;&gt;Node17 -->
<g id="edge18" class="edge"><title>Node16&#45;&gt;Node17</title>
<path fill="none" stroke="midnightblue" d="M446,-213.805C446,-204.91 446,-194.78 446,-187.751"/>
<polygon fill="midnightblue" stroke="midnightblue" points="442.5,-214.083 446,-224.083 449.5,-214.083 442.5,-214.083"/>
</g>
<!-- Node19 -->
<g id="node19" class="node"><title>Node19</title>
<g id="a_node19"><a xlink:href="_output_api_8h.html" target="_top" xlink:title="OutputApi.h">
<polygon fill="white" stroke="black" points="310,-168.5 310,-187.5 378,-187.5 378,-168.5 310,-168.5"/>
<text text-anchor="middle" x="344" y="-175.5" font-family="Helvetica,sans-Serif" font-size="10.00">OutputApi.h</text>
</a>
</g>
</g>
<!-- Node16&#45;&gt;Node19 -->
<g id="edge20" class="edge"><title>Node16&#45;&gt;Node19</title>
<path fill="none" stroke="midnightblue" d="M420.669,-219.59C401.81,-209.605 376.616,-196.267 360.347,-187.655"/>
<polygon fill="midnightblue" stroke="midnightblue" points="419.136,-222.738 429.612,-224.324 422.412,-216.552 419.136,-222.738"/>
</g>
<!-- Node21 -->
<g id="node21" class="node"><title>Node21</title>
<g id="a_node21"><a xlink:href="_tee_output_8h.html" target="_top" xlink:title="TeeOutput.h">
<polygon fill="white" stroke="black" points="514,-168.5 514,-187.5 584,-187.5 584,-168.5 514,-168.5"/>
<text text-anchor="middle" x="549" y="-175.5" font-family="Helvetica,sans-Serif" font-size="10.00">TeeOutput.h</text>
</a>
</g>
</g>
<!-- Node16&#45;&gt;Node21 -->
<g id="edge25" class="edge"><title>Node16&#45;&gt;Node21</title>
<path fill="none" stroke="midnightblue" d="M471.579,-219.59C490.623,-209.605 516.064,-196.267 532.492,-187.655"/>
<polygon fill="midnightblue" stroke="midnightblue" points="469.78,-216.581 462.549,-224.324 473.031,-222.78 469.78,-216.581"/>
</g>
<!-- Node16&#45;&gt;Node22 -->
<g id="edge26" class="edge"><title>Node16&#45;&gt;Node22</title>
<path fill="none" stroke="midnightblue" d="M483.112,-221.928C518.754,-211.294 571.592,-195.531 602.337,-186.358"/>
<polygon fill="midnightblue" stroke="midnightblue" points="481.68,-218.703 473.098,-224.916 483.681,-225.411 481.68,-218.703"/>
</g>
<!-- Node18 -->
<g id="node18" class="node"><title>Node18</title>
<g id="a_node18"><a xlink:href="_atomic_output_8h.html" target="_top" xlink:title="AtomicOutput.h">
<polygon fill="white" stroke="black" points="403.5,-112.5 403.5,-131.5 488.5,-131.5 488.5,-112.5 403.5,-112.5"/>
<text text-anchor="middle" x="446" y="-119.5" font-family="Helvetica,sans-Serif" font-size="10.00">AtomicOutput.h</text>
</a>
</g>
</g>
<!-- Node17&#45;&gt;Node18 -->
<g id="edge19" class="edge"><title>Node17&#45;&gt;Node18</title>
<path fill="none" stroke="midnightblue" d="M446,-157.805C446,-148.91 446,-138.78 446,-131.751"/>
<polygon fill="midnightblue" stroke="midnightblue" points="442.5,-158.083 446,-168.083 449.5,-158.083 442.5,-158.083"/>
</g>
<!-- Node19&#45;&gt;Node5 -->
<g id="edge21" class="edge"><title>Node19&#45;&gt;Node5</title>
<path fill="none" stroke="midnightblue" d="M321.901,-162.622C306.738,-152.757 287.117,-139.992 274.302,-131.655"/>
<polygon fill="midnightblue" stroke="midnightblue" points="320.374,-165.804 330.665,-168.324 324.191,-159.937 320.374,-165.804"/>
</g>
<!-- Node20 -->
<g id="node20" class="node"><title>Node20</title>
<g id="a_node20"><a xlink:href="_file_2_output_8h.html" target="_top" xlink:title="Output.h">
<polygon fill="white" stroke="black" points="324,-112.5 324,-131.5 378,-131.5 378,-112.5 324,-112.5"/>
<text text-anchor="middle" x="351" y="-119.5" font-family="Helvetica,sans-Serif" font-size="10.00">Output.h</text>
</a>
</g>
</g>
<!-- Node19&#45;&gt;Node20 -->
<g id="edge22" class="edge"><title>Node19&#45;&gt;Node20</title>
<path fill="none" stroke="midnightblue" d="M346.45,-158.101C347.612,-149.136 348.944,-138.858 349.866,-131.751"/>
<polygon fill="midnightblue" stroke="midnightblue" points="342.971,-157.716 345.156,-168.083 349.912,-158.616 342.971,-157.716"/>
</g>
<!-- Node23 -->
<g id="node23" class="node"><title>Node23</title>
<g id="a_node23"><a xlink:href="_local_8h.html" target="_top" xlink:title="Local.h">
<polygon fill="white" stroke="black" points="603,-112.5 603,-131.5 651,-131.5 651,-112.5 603,-112.5"/>
<text text-anchor="middle" x="627" y="-119.5" font-family="Helvetica,sans-Serif" font-size="10.00">Local.h</text>
</a>
</g>
</g>
<!-- Node22&#45;&gt;Node23 -->
<g id="edge27" class="edge"><title>Node22&#45;&gt;Node23</title>
<path fill="none" stroke="midnightblue" d="M627,-157.805C627,-148.91 627,-138.78 627,-131.751"/>
<polygon fill="midnightblue" stroke="midnightblue" points="623.5,-158.083 627,-168.083 630.5,-158.083 623.5,-158.083"/>
</g>
<!-- Node25&#45;&gt;Node12 -->
<g id="edge32" class="edge"><title>Node25&#45;&gt;Node12</title>
<path fill="none" stroke="midnightblue" d="M794.519,-220.096C773.034,-210.007 743.778,-196.27 725.137,-187.516"/>
<polygon fill="midnightblue" stroke="midnightblue" points="793.238,-223.361 803.778,-224.444 796.214,-217.025 793.238,-223.361"/>
</g>
<!-- Node26 -->
<g id="node26" class="node"><title>Node26</title>
<g id="a_node26"><a xlink:href="_cpl_2_io_2_file_2_api_8h.html" target="_top" xlink:title="Api.h">
<polygon fill="white" stroke="black" points="762.5,-168.5 762.5,-187.5 801.5,-187.5 801.5,-168.5 762.5,-168.5"/>
<text text-anchor="middle" x="782" y="-175.5" font-family="Helvetica,sans-Serif" font-size="10.00">Api.h</text>
</a>
</g>
</g>
<!-- Node25&#45;&gt;Node26 -->
<g id="edge31" class="edge"><title>Node25&#45;&gt;Node26</title>
<path fill="none" stroke="midnightblue" d="M809.3,-215.855C802.374,-206.505 794.094,-195.327 788.482,-187.751"/>
<polygon fill="midnightblue" stroke="midnightblue" points="806.63,-218.131 815.395,-224.083 812.255,-213.964 806.63,-218.131"/>
</g>
<!-- Node27 -->
<g id="node27" class="node"><title>Node27</title>
<g id="a_node27"><a xlink:href="_cpp11_2_thread_8h.html" target="_top" xlink:title="Thread.h">
<polygon fill="white" stroke="black" points="820,-168.5 820,-187.5 874,-187.5 874,-168.5 820,-168.5"/>
<text text-anchor="middle" x="847" y="-175.5" font-family="Helvetica,sans-Serif" font-size="10.00">Thread.h</text>
</a>
</g>
</g>
<!-- Node25&#45;&gt;Node27 -->
<g id="edge33" class="edge"><title>Node25&#45;&gt;Node27</title>
<path fill="none" stroke="midnightblue" d="M830.341,-214.983C834.585,-205.817 839.55,-195.092 842.949,-187.751"/>
<polygon fill="midnightblue" stroke="midnightblue" points="827.153,-213.538 826.128,-224.083 833.506,-216.479 827.153,-213.538"/>
</g>
<!-- Node28 -->
<g id="node28" class="node"><title>Node28</title>
<g id="a_node28"><a xlink:href="_win32_2_thread_8h.html" target="_top" xlink:title="Thread.h">
<polygon fill="white" stroke="black" points="892,-168.5 892,-187.5 946,-187.5 946,-168.5 892,-168.5"/>
<text text-anchor="middle" x="919" y="-175.5" font-family="Helvetica,sans-Serif" font-size="10.00">Thread.h</text>
</a>
</g>
</g>
<!-- Node25&#45;&gt;Node28 -->
<g id="edge34" class="edge"><title>Node25&#45;&gt;Node28</title>
<path fill="none" stroke="midnightblue" d="M846.335,-219.453C864.243,-209.483 888.054,-196.228 903.454,-187.655"/>
<polygon fill="midnightblue" stroke="midnightblue" points="844.62,-216.402 837.585,-224.324 848.025,-222.518 844.62,-216.402"/>
</g>
<!-- Node29 -->
<g id="node29" class="node"><title>Node29</title>
<g id="a_node29"><a xlink:href="_f_string_item_8h.html" target="_top" xlink:title="FStringItem.h">
<polygon fill="white" stroke="black" points="964.5,-168.5 964.5,-187.5 1039.5,-187.5 1039.5,-168.5 964.5,-168.5"/>
<text text-anchor="middle" x="1002" y="-175.5" font-family="Helvetica,sans-Serif" font-size="10.00">FStringItem.h</text>
</a>
</g>
</g>
<!-- Node25&#45;&gt;Node29 -->
<g id="edge35" class="edge"><title>Node25&#45;&gt;Node29</title>
<path fill="none" stroke="midnightblue" d="M860.132,-221.56C894.038,-211.389 942.854,-196.744 973.478,-187.556"/>
<polygon fill="midnightblue" stroke="midnightblue" points="858.698,-218.337 850.125,-224.563 860.709,-225.041 858.698,-218.337"/>
</g>
<!-- Node30&#45;&gt;Node29 -->
<g id="edge39" class="edge"><title>Node30&#45;&gt;Node29</title>
<path fill="none" stroke="midnightblue" d="M1002,-213.805C1002,-204.91 1002,-194.78 1002,-187.751"/>
<polygon fill="midnightblue" stroke="midnightblue" points="998.5,-214.083 1002,-224.083 1005.5,-214.083 998.5,-214.083"/>
</g>
<!-- Node31 -->
<g id="node31" class="node"><title>Node31</title>
<g id="a_node31"><a xlink:href="_d_f_string_item_8h.html" target="_top" xlink:title="DFStringItem.h">
<polygon fill="white" stroke="black" points="1058,-168.5 1058,-187.5 1140,-187.5 1140,-168.5 1058,-168.5"/>
<text text-anchor="middle" x="1099" y="-175.5" font-family="Helvetica,sans-Serif" font-size="10.00">DFStringItem.h</text>
</a>
</g>
</g>
<!-- Node30&#45;&gt;Node31 -->
<g id="edge37" class="edge"><title>Node30&#45;&gt;Node31</title>
<path fill="none" stroke="midnightblue" d="M1026.34,-219.453C1044.24,-209.483 1068.05,-196.228 1083.45,-187.655"/>
<polygon fill="midnightblue" stroke="midnightblue" points="1024.62,-216.402 1017.58,-224.324 1028.02,-222.518 1024.62,-216.402"/>
</g>
<!-- Node32 -->
<g id="node32" class="node"><title>Node32</title>
<g id="a_node32"><a xlink:href="_d_string_item_8h.html" target="_top" xlink:title="DStringItem.h">
<polygon fill="white" stroke="black" points="1158,-168.5 1158,-187.5 1234,-187.5 1234,-168.5 1158,-168.5"/>
<text text-anchor="middle" x="1196" y="-175.5" font-family="Helvetica,sans-Serif" font-size="10.00">DStringItem.h</text>
</a>
</g>
</g>
<!-- Node30&#45;&gt;Node32 -->
<g id="edge38" class="edge"><title>Node30&#45;&gt;Node32</title>
<path fill="none" stroke="midnightblue" d="M1042.6,-221.699C1079.22,-211.507 1132.26,-196.743 1165.4,-187.516"/>
<polygon fill="midnightblue" stroke="midnightblue" points="1041.44,-218.39 1032.74,-224.444 1043.31,-225.134 1041.44,-218.39"/>
</g>
</g>
</svg>
