<?xml version="1.0" encoding="UTF-8" standalone="no"?>
<!DOCTYPE svg PUBLIC "-//W3C//DTD SVG 1.1//EN"
 "http://www.w3.org/Graphics/SVG/1.1/DTD/svg11.dtd">
<!-- Generated by graphviz version 2.38.0 (20140413.2041)
 -->
<!-- Title: String.h Pages: 1 -->
<svg width="321pt" height="196pt"
 viewBox="0.00 0.00 320.50 196.00" xmlns="http://www.w3.org/2000/svg" xmlns:xlink="http://www.w3.org/1999/xlink">
<g id="graph0" class="graph" transform="scale(1 1) rotate(0) translate(4 192)">
<title>String.h</title>
<polygon fill="white" stroke="none" points="-4,4 -4,-192 316.5,-192 316.5,4 -4,4"/>
<!-- Node1 -->
<g id="node1" class="node"><title>Node1</title>
<polygon fill="#bfbfbf" stroke="black" points="120,-168.5 120,-187.5 170,-187.5 170,-168.5 120,-168.5"/>
<text text-anchor="middle" x="145" y="-175.5" font-family="Helvetica,sans-Serif" font-size="10.00">String.h</text>
</g>
<!-- Node2 -->
<g id="node2" class="node"><title>Node2</title>
<polygon fill="white" stroke="#bfbfbf" points="0,-112.5 0,-131.5 52,-131.5 52,-112.5 0,-112.5"/>
<text text-anchor="middle" x="26" y="-119.5" font-family="Helvetica,sans-Serif" font-size="10.00">stdarg.h</text>
</g>
<!-- Node1&#45;&gt;Node2 -->
<g id="edge1" class="edge"><title>Node1&#45;&gt;Node2</title>
<path fill="none" stroke="midnightblue" d="M126.144,-168.444C106.734,-159.636 76.2699,-145.812 54.0355,-135.722"/>
<polygon fill="midnightblue" stroke="midnightblue" points="55.3203,-132.462 44.7677,-131.516 52.4277,-138.836 55.3203,-132.462"/>
</g>
<!-- Node3 -->
<g id="node3" class="node"><title>Node3</title>
<polygon fill="white" stroke="#bfbfbf" points="70,-112.5 70,-131.5 124,-131.5 124,-112.5 70,-112.5"/>
<text text-anchor="middle" x="97" y="-119.5" font-family="Helvetica,sans-Serif" font-size="10.00">iostream</text>
</g>
<!-- Node1&#45;&gt;Node3 -->
<g id="edge2" class="edge"><title>Node1&#45;&gt;Node3</title>
<path fill="none" stroke="midnightblue" d="M137.074,-168.083C130.154,-160.298 119.935,-148.801 111.548,-139.367"/>
<polygon fill="midnightblue" stroke="midnightblue" points="114.038,-136.9 104.779,-131.751 108.806,-141.55 114.038,-136.9"/>
</g>
<!-- Node4 -->
<g id="node4" class="node"><title>Node4</title>
<g id="a_node4"><a xlink:href="_key_8h.html" target="_top" xlink:title="Cpl/Container/Key.h">
<polygon fill="white" stroke="black" points="142,-112.5 142,-131.5 246,-131.5 246,-112.5 142,-112.5"/>
<text text-anchor="middle" x="194" y="-119.5" font-family="Helvetica,sans-Serif" font-size="10.00">Cpl/Container/Key.h</text>
</a>
</g>
</g>
<!-- Node1&#45;&gt;Node4 -->
<g id="edge3" class="edge"><title>Node1&#45;&gt;Node4</title>
<path fill="none" stroke="midnightblue" d="M153.091,-168.083C160.155,-160.298 170.588,-148.801 179.149,-139.367"/>
<polygon fill="midnightblue" stroke="midnightblue" points="181.931,-141.509 186.059,-131.751 176.747,-136.805 181.931,-141.509"/>
</g>
<!-- Node9 -->
<g id="node9" class="node"><title>Node9</title>
<polygon fill="white" stroke="#bfbfbf" points="235.5,-56.5 235.5,-75.5 312.5,-75.5 312.5,-56.5 235.5,-56.5"/>
<text text-anchor="middle" x="274" y="-63.5" font-family="Helvetica,sans-Serif" font-size="10.00">colony_map.h</text>
</g>
<!-- Node1&#45;&gt;Node9 -->
<g id="edge9" class="edge"><title>Node1&#45;&gt;Node9</title>
<path fill="none" stroke="midnightblue" d="M170.014,-173.204C194.988,-168.115 232.762,-156.678 255,-132 266.427,-119.319 271.004,-100.115 272.825,-85.8654"/>
<polygon fill="midnightblue" stroke="midnightblue" points="276.327,-86.0013 273.773,-75.719 269.358,-85.35 276.327,-86.0013"/>
</g>
<!-- Node5 -->
<g id="node5" class="node"><title>Node5</title>
<g id="a_node5"><a xlink:href="_fatal_error_8h.html" target="_top" xlink:title="Cpl/System/FatalError.h">
<polygon fill="white" stroke="black" points="28,-56.5 28,-75.5 150,-75.5 150,-56.5 28,-56.5"/>
<text text-anchor="middle" x="89" y="-63.5" font-family="Helvetica,sans-Serif" font-size="10.00">Cpl/System/FatalError.h</text>
</a>
</g>
</g>
<!-- Node4&#45;&gt;Node5 -->
<g id="edge4" class="edge"><title>Node4&#45;&gt;Node5</title>
<path fill="none" stroke="midnightblue" d="M177.13,-112.324C160.291,-103.664 134.193,-90.2424 114.762,-80.249"/>
<polygon fill="midnightblue" stroke="midnightblue" points="116.322,-77.1155 105.828,-75.6545 113.12,-83.3405 116.322,-77.1155"/>
</g>
<!-- Node8 -->
<g id="node8" class="node"><title>Node8</title>
<polygon fill="white" stroke="#bfbfbf" points="168.5,-56.5 168.5,-75.5 217.5,-75.5 217.5,-56.5 168.5,-56.5"/>
<text text-anchor="middle" x="193" y="-63.5" font-family="Helvetica,sans-Serif" font-size="10.00">stdint.h</text>
</g>
<!-- Node4&#45;&gt;Node8 -->
<g id="edge7" class="edge"><title>Node4&#45;&gt;Node8</title>
<path fill="none" stroke="midnightblue" d="M193.835,-112.083C193.704,-105.006 193.516,-94.8611 193.352,-85.9865"/>
<polygon fill="midnightblue" stroke="midnightblue" points="196.847,-85.6845 193.162,-75.7511 189.848,-85.8142 196.847,-85.6845"/>
</g>
<!-- Node4&#45;&gt;Node9 -->
<g id="edge8" class="edge"><title>Node4&#45;&gt;Node9</title>
<path fill="none" stroke="midnightblue" d="M206.853,-112.324C219.216,-103.979 238.13,-91.2122 252.737,-81.3524"/>
<polygon fill="midnightblue" stroke="midnightblue" points="254.848,-84.1503 261.179,-75.6545 250.932,-78.3483 254.848,-84.1503"/>
</g>
<!-- Node6 -->
<g id="node6" class="node"><title>Node6</title>
<polygon fill="white" stroke="#bfbfbf" points="20.5,-0.5 20.5,-19.5 71.5,-19.5 71.5,-0.5 20.5,-0.5"/>
<text text-anchor="middle" x="46" y="-7.5" font-family="Helvetica,sans-Serif" font-size="10.00">stddef.h</text>
</g>
<!-- Node5&#45;&gt;Node6 -->
<g id="edge5" class="edge"><title>Node5&#45;&gt;Node6</title>
<path fill="none" stroke="midnightblue" d="M81.8994,-56.083C75.763,-48.3768 66.7303,-37.0333 59.2608,-27.6531"/>
<polygon fill="midnightblue" stroke="midnightblue" points="61.9357,-25.3936 52.9685,-19.7511 56.4598,-29.7542 61.9357,-25.3936"/>
</g>
<!-- Node7 -->
<g id="node7" class="node"><title>Node7</title>
<polygon fill="white" stroke="#bfbfbf" points="90,-0.5 90,-19.5 174,-19.5 174,-0.5 90,-0.5"/>
<text text-anchor="middle" x="132" y="-7.5" font-family="Helvetica,sans-Serif" font-size="10.00">colony_config.h</text>
</g>
<!-- Node5&#45;&gt;Node7 -->
<g id="edge6" class="edge"><title>Node5&#45;&gt;Node7</title>
<path fill="none" stroke="midnightblue" d="M96.1006,-56.083C102.237,-48.3768 111.27,-37.0333 118.739,-27.6531"/>
<polygon fill="midnightblue" stroke="midnightblue" points="121.54,-29.7542 125.032,-19.7511 116.064,-25.3936 121.54,-29.7542"/>
</g>
</g>
</svg>
