<?xml version="1.0" encoding="UTF-8" standalone="no"?>
<!DOCTYPE svg PUBLIC "-//W3C//DTD SVG 1.1//EN"
 "http://www.w3.org/Graphics/SVG/1.1/DTD/svg11.dtd">
<!-- Generated by graphviz version 2.38.0 (20140413.2041)
 -->
<!-- Title: StringItem.h Pages: 1 -->
<svg width="278pt" height="84pt"
 viewBox="0.00 0.00 277.50 84.00" xmlns="http://www.w3.org/2000/svg" xmlns:xlink="http://www.w3.org/1999/xlink">
<g id="graph0" class="graph" transform="scale(1 1) rotate(0) translate(4 80)">
<title>StringItem.h</title>
<polygon fill="white" stroke="none" points="-4,4 -4,-80 273.5,-80 273.5,4 -4,4"/>
<!-- Node1 -->
<g id="node1" class="node"><title>Node1</title>
<polygon fill="#bfbfbf" stroke="black" points="103.5,-56.5 103.5,-75.5 172.5,-75.5 172.5,-56.5 103.5,-56.5"/>
<text text-anchor="middle" x="138" y="-63.5" font-family="Helvetica,sans-Serif" font-size="10.00">StringItem.h</text>
</g>
<!-- Node2 -->
<g id="node2" class="node"><title>Node2</title>
<g id="a_node2"><a xlink:href="_d_f_string_item_8h.html" target="_top" xlink:title="DFStringItem.h">
<polygon fill="white" stroke="black" points="0,-0.5 0,-19.5 82,-19.5 82,-0.5 0,-0.5"/>
<text text-anchor="middle" x="41" y="-7.5" font-family="Helvetica,sans-Serif" font-size="10.00">DFStringItem.h</text>
</a>
</g>
</g>
<!-- Node1&#45;&gt;Node2 -->
<g id="edge1" class="edge"><title>Node1&#45;&gt;Node2</title>
<path fill="none" stroke="midnightblue" d="M113.665,-51.4526C95.7574,-41.4835 71.9463,-28.2279 56.5461,-19.6545"/>
<polygon fill="midnightblue" stroke="midnightblue" points="111.975,-54.5179 122.415,-56.324 115.38,-48.4018 111.975,-54.5179"/>
</g>
<!-- Node3 -->
<g id="node3" class="node"><title>Node3</title>
<g id="a_node3"><a xlink:href="_d_string_item_8h.html" target="_top" xlink:title="DStringItem.h">
<polygon fill="white" stroke="black" points="100,-0.5 100,-19.5 176,-19.5 176,-0.5 100,-0.5"/>
<text text-anchor="middle" x="138" y="-7.5" font-family="Helvetica,sans-Serif" font-size="10.00">DStringItem.h</text>
</a>
</g>
</g>
<!-- Node1&#45;&gt;Node3 -->
<g id="edge2" class="edge"><title>Node1&#45;&gt;Node3</title>
<path fill="none" stroke="midnightblue" d="M138,-45.8045C138,-36.9102 138,-26.7798 138,-19.7511"/>
<polygon fill="midnightblue" stroke="midnightblue" points="134.5,-46.083 138,-56.083 141.5,-46.083 134.5,-46.083"/>
</g>
<!-- Node4 -->
<g id="node4" class="node"><title>Node4</title>
<g id="a_node4"><a xlink:href="_f_string_item_8h.html" target="_top" xlink:title="FStringItem.h">
<polygon fill="white" stroke="black" points="194.5,-0.5 194.5,-19.5 269.5,-19.5 269.5,-0.5 194.5,-0.5"/>
<text text-anchor="middle" x="232" y="-7.5" font-family="Helvetica,sans-Serif" font-size="10.00">FStringItem.h</text>
</a>
</g>
</g>
<!-- Node1&#45;&gt;Node4 -->
<g id="edge3" class="edge"><title>Node1&#45;&gt;Node4</title>
<path fill="none" stroke="midnightblue" d="M162.062,-51.1774C179.359,-41.2407 202.148,-28.1492 216.935,-19.6545"/>
<polygon fill="midnightblue" stroke="midnightblue" points="160.03,-48.3078 153.103,-56.324 163.517,-54.3775 160.03,-48.3078"/>
</g>
</g>
</svg>
