<?xml version="1.0" encoding="UTF-8" standalone="no"?>
<!DOCTYPE svg PUBLIC "-//W3C//DTD SVG 1.1//EN"
 "http://www.w3.org/Graphics/SVG/1.1/DTD/svg11.dtd">
<!-- Generated by graphviz version 2.38.0 (20140413.2041)
 -->
<!-- Title: SyncReturnHandler.h Pages: 1 -->
<svg width="146pt" height="140pt"
 viewBox="0.00 0.00 145.50 140.00" xmlns="http://www.w3.org/2000/svg" xmlns:xlink="http://www.w3.org/1999/xlink">
<g id="graph0" class="graph" transform="scale(1 1) rotate(0) translate(4 136)">
<title>SyncReturnHandler.h</title>
<polygon fill="white" stroke="none" points="-4,4 -4,-136 141.5,-136 141.5,4 -4,4"/>
<!-- Node1 -->
<g id="node1" class="node"><title>Node1</title>
<polygon fill="#bfbfbf" stroke="black" points="28.5,-112.5 28.5,-131.5 137.5,-131.5 137.5,-112.5 28.5,-112.5"/>
<text text-anchor="middle" x="83" y="-119.5" font-family="Helvetica,sans-Serif" font-size="10.00">SyncReturnHandler.h</text>
</g>
<!-- Node2 -->
<g id="node2" class="node"><title>Node2</title>
<g id="a_node2"><a xlink:href="_atomic_request_8h.html" target="_top" xlink:title="AtomicRequest.h">
<polygon fill="white" stroke="black" points="0,-56.5 0,-75.5 92,-75.5 92,-56.5 0,-56.5"/>
<text text-anchor="middle" x="46" y="-63.5" font-family="Helvetica,sans-Serif" font-size="10.00">AtomicRequest.h</text>
</a>
</g>
</g>
<!-- Node1&#45;&gt;Node2 -->
<g id="edge1" class="edge"><title>Node1&#45;&gt;Node2</title>
<path fill="none" stroke="midnightblue" d="M71.0542,-103.566C64.6883,-94.2747 57.1332,-83.2484 51.9961,-75.7511"/>
<polygon fill="midnightblue" stroke="midnightblue" points="68.3506,-105.812 76.8902,-112.083 74.1251,-101.855 68.3506,-105.812"/>
</g>
<!-- Node3 -->
<g id="node3" class="node"><title>Node3</title>
<g id="a_node3"><a xlink:href="_atomic_sync_8h.html" target="_top" xlink:title="AtomicSync.h">
<polygon fill="white" stroke="black" points="44,-0.5 44,-19.5 122,-19.5 122,-0.5 44,-0.5"/>
<text text-anchor="middle" x="83" y="-7.5" font-family="Helvetica,sans-Serif" font-size="10.00">AtomicSync.h</text>
</a>
</g>
</g>
<!-- Node1&#45;&gt;Node3 -->
<g id="edge3" class="edge"><title>Node1&#45;&gt;Node3</title>
<path fill="none" stroke="midnightblue" d="M91.9393,-103.195C95.517,-95.1113 99.2099,-85.2953 101,-76 104.942,-55.5333 94.6996,-32.1032 88.0925,-19.7256"/>
<polygon fill="midnightblue" stroke="midnightblue" points="88.7267,-101.802 87.6212,-112.339 95.0564,-104.791 88.7267,-101.802"/>
</g>
<!-- Node2&#45;&gt;Node3 -->
<g id="edge2" class="edge"><title>Node2&#45;&gt;Node3</title>
<path fill="none" stroke="midnightblue" d="M57.9458,-47.5656C64.3117,-38.2747 71.8668,-27.2484 77.0039,-19.7511"/>
<polygon fill="midnightblue" stroke="midnightblue" points="54.8749,-45.8553 52.1098,-56.083 60.6494,-49.812 54.8749,-45.8553"/>
</g>
</g>
</svg>
