<?xml version="1.0" encoding="UTF-8" standalone="no"?>
<!DOCTYPE svg PUBLIC "-//W3C//DTD SVG 1.1//EN"
 "http://www.w3.org/Graphics/SVG/1.1/DTD/svg11.dtd">
<!-- Generated by graphviz version 2.38.0 (20140413.2041)
 -->
<!-- Title: TeeOutput.h Pages: 1 -->
<svg width="416pt" height="308pt"
 viewBox="0.00 0.00 415.50 308.00" xmlns="http://www.w3.org/2000/svg" xmlns:xlink="http://www.w3.org/1999/xlink">
<g id="graph0" class="graph" transform="scale(1 1) rotate(0) translate(4 304)">
<title>TeeOutput.h</title>
<polygon fill="white" stroke="none" points="-4,4 -4,-304 411.5,-304 411.5,4 -4,4"/>
<!-- Node1 -->
<g id="node1" class="node"><title>Node1</title>
<polygon fill="#bfbfbf" stroke="black" points="235,-280.5 235,-299.5 305,-299.5 305,-280.5 235,-280.5"/>
<text text-anchor="middle" x="270" y="-287.5" font-family="Helvetica,sans-Serif" font-size="10.00">TeeOutput.h</text>
</g>
<!-- Node2 -->
<g id="node2" class="node"><title>Node2</title>
<g id="a_node2"><a xlink:href="_output_8h.html" target="_top" xlink:title="Cpl/Io/Output.h">
<polygon fill="white" stroke="black" points="159,-224.5 159,-243.5 241,-243.5 241,-224.5 159,-224.5"/>
<text text-anchor="middle" x="200" y="-231.5" font-family="Helvetica,sans-Serif" font-size="10.00">Cpl/Io/Output.h</text>
</a>
</g>
</g>
<!-- Node1&#45;&gt;Node2 -->
<g id="edge1" class="edge"><title>Node1&#45;&gt;Node2</title>
<path fill="none" stroke="midnightblue" d="M258.753,-280.324C248.203,-272.185 232.199,-259.839 219.558,-250.087"/>
<polygon fill="midnightblue" stroke="midnightblue" points="221.507,-247.171 211.451,-243.834 217.231,-252.713 221.507,-247.171"/>
</g>
<!-- Node14 -->
<g id="node14" class="node"><title>Node14</title>
<g id="a_node14"><a xlink:href="_s_list_8h.html" target="_top" xlink:title="Cpl/Container/SList.h">
<polygon fill="white" stroke="black" points="286.5,-224.5 286.5,-243.5 395.5,-243.5 395.5,-224.5 286.5,-224.5"/>
<text text-anchor="middle" x="341" y="-231.5" font-family="Helvetica,sans-Serif" font-size="10.00">Cpl/Container/SList.h</text>
</a>
</g>
</g>
<!-- Node1&#45;&gt;Node14 -->
<g id="edge15" class="edge"><title>Node1&#45;&gt;Node14</title>
<path fill="none" stroke="midnightblue" d="M281.407,-280.324C292.109,-272.185 308.341,-259.839 321.163,-250.087"/>
<polygon fill="midnightblue" stroke="midnightblue" points="323.544,-252.673 329.385,-243.834 319.307,-247.102 323.544,-252.673"/>
</g>
<!-- Node3 -->
<g id="node3" class="node"><title>Node3</title>
<g id="a_node3"><a xlink:href="_string_8h.html" target="_top" xlink:title="Cpl/Text/String.h">
<polygon fill="white" stroke="black" points="142.5,-168.5 142.5,-187.5 231.5,-187.5 231.5,-168.5 142.5,-168.5"/>
<text text-anchor="middle" x="187" y="-175.5" font-family="Helvetica,sans-Serif" font-size="10.00">Cpl/Text/String.h</text>
</a>
</g>
</g>
<!-- Node2&#45;&gt;Node3 -->
<g id="edge2" class="edge"><title>Node2&#45;&gt;Node3</title>
<path fill="none" stroke="midnightblue" d="M197.853,-224.083C196.131,-216.927 193.653,-206.635 191.5,-197.691"/>
<polygon fill="midnightblue" stroke="midnightblue" points="194.85,-196.654 189.107,-187.751 188.045,-198.293 194.85,-196.654"/>
</g>
<!-- Node4 -->
<g id="node4" class="node"><title>Node4</title>
<polygon fill="white" stroke="#bfbfbf" points="0,-112.5 0,-131.5 52,-131.5 52,-112.5 0,-112.5"/>
<text text-anchor="middle" x="26" y="-119.5" font-family="Helvetica,sans-Serif" font-size="10.00">stdarg.h</text>
</g>
<!-- Node2&#45;&gt;Node4 -->
<g id="edge14" class="edge"><title>Node2&#45;&gt;Node4</title>
<path fill="none" stroke="midnightblue" d="M186.347,-224.368C156.361,-205.412 84.5282,-160.001 48.0543,-136.942"/>
<polygon fill="midnightblue" stroke="midnightblue" points="49.9129,-133.977 39.5901,-131.591 46.1724,-139.893 49.9129,-133.977"/>
</g>
<!-- Node12 -->
<g id="node12" class="node"><title>Node12</title>
<g id="a_node12"><a xlink:href="_close_8h.html" target="_top" xlink:title="Cpl/Io/Close.h">
<polygon fill="white" stroke="black" points="249.5,-168.5 249.5,-187.5 326.5,-187.5 326.5,-168.5 249.5,-168.5"/>
<text text-anchor="middle" x="288" y="-175.5" font-family="Helvetica,sans-Serif" font-size="10.00">Cpl/Io/Close.h</text>
</a>
</g>
</g>
<!-- Node2&#45;&gt;Node12 -->
<g id="edge12" class="edge"><title>Node2&#45;&gt;Node12</title>
<path fill="none" stroke="midnightblue" d="M214.139,-224.324C227.866,-215.9 248.936,-202.971 265.064,-193.074"/>
<polygon fill="midnightblue" stroke="midnightblue" points="267.204,-195.868 273.896,-187.655 263.543,-189.902 267.204,-195.868"/>
</g>
<!-- Node3&#45;&gt;Node4 -->
<g id="edge3" class="edge"><title>Node3&#45;&gt;Node4</title>
<path fill="none" stroke="midnightblue" d="M161.489,-168.444C134.404,-159.359 91.41,-144.939 61.1312,-134.783"/>
<polygon fill="midnightblue" stroke="midnightblue" points="61.9855,-131.378 51.3916,-131.516 59.7595,-138.015 61.9855,-131.378"/>
</g>
<!-- Node5 -->
<g id="node5" class="node"><title>Node5</title>
<polygon fill="white" stroke="#bfbfbf" points="70,-112.5 70,-131.5 124,-131.5 124,-112.5 70,-112.5"/>
<text text-anchor="middle" x="97" y="-119.5" font-family="Helvetica,sans-Serif" font-size="10.00">iostream</text>
</g>
<!-- Node3&#45;&gt;Node5 -->
<g id="edge4" class="edge"><title>Node3&#45;&gt;Node5</title>
<path fill="none" stroke="midnightblue" d="M172.54,-168.324C158.5,-159.9 136.952,-146.971 120.457,-137.074"/>
<polygon fill="midnightblue" stroke="midnightblue" points="121.8,-133.798 111.424,-131.655 118.198,-139.801 121.8,-133.798"/>
</g>
<!-- Node6 -->
<g id="node6" class="node"><title>Node6</title>
<g id="a_node6"><a xlink:href="_key_8h.html" target="_top" xlink:title="Cpl/Container/Key.h">
<polygon fill="white" stroke="black" points="142,-112.5 142,-131.5 246,-131.5 246,-112.5 142,-112.5"/>
<text text-anchor="middle" x="194" y="-119.5" font-family="Helvetica,sans-Serif" font-size="10.00">Cpl/Container/Key.h</text>
</a>
</g>
</g>
<!-- Node3&#45;&gt;Node6 -->
<g id="edge5" class="edge"><title>Node3&#45;&gt;Node6</title>
<path fill="none" stroke="midnightblue" d="M188.156,-168.083C189.084,-160.927 190.418,-150.635 191.577,-141.691"/>
<polygon fill="midnightblue" stroke="midnightblue" points="195.051,-142.118 192.866,-131.751 188.109,-141.218 195.051,-142.118"/>
</g>
<!-- Node11 -->
<g id="node11" class="node"><title>Node11</title>
<polygon fill="white" stroke="#bfbfbf" points="235.5,-56.5 235.5,-75.5 312.5,-75.5 312.5,-56.5 235.5,-56.5"/>
<text text-anchor="middle" x="274" y="-63.5" font-family="Helvetica,sans-Serif" font-size="10.00">colony_map.h</text>
</g>
<!-- Node3&#45;&gt;Node11 -->
<g id="edge11" class="edge"><title>Node3&#45;&gt;Node11</title>
<path fill="none" stroke="midnightblue" d="M207.082,-168.429C222.342,-160.933 242.735,-148.636 255,-132 264.92,-118.545 269.682,-99.984 271.955,-86.1402"/>
<polygon fill="midnightblue" stroke="midnightblue" points="275.477,-86.2131 273.338,-75.8364 268.539,-85.282 275.477,-86.2131"/>
</g>
<!-- Node7 -->
<g id="node7" class="node"><title>Node7</title>
<g id="a_node7"><a xlink:href="_fatal_error_8h.html" target="_top" xlink:title="Cpl/System/FatalError.h">
<polygon fill="white" stroke="black" points="28,-56.5 28,-75.5 150,-75.5 150,-56.5 28,-56.5"/>
<text text-anchor="middle" x="89" y="-63.5" font-family="Helvetica,sans-Serif" font-size="10.00">Cpl/System/FatalError.h</text>
</a>
</g>
</g>
<!-- Node6&#45;&gt;Node7 -->
<g id="edge6" class="edge"><title>Node6&#45;&gt;Node7</title>
<path fill="none" stroke="midnightblue" d="M177.13,-112.324C160.291,-103.664 134.193,-90.2424 114.762,-80.249"/>
<polygon fill="midnightblue" stroke="midnightblue" points="116.322,-77.1155 105.828,-75.6545 113.12,-83.3405 116.322,-77.1155"/>
</g>
<!-- Node10 -->
<g id="node10" class="node"><title>Node10</title>
<polygon fill="white" stroke="#bfbfbf" points="168.5,-56.5 168.5,-75.5 217.5,-75.5 217.5,-56.5 168.5,-56.5"/>
<text text-anchor="middle" x="193" y="-63.5" font-family="Helvetica,sans-Serif" font-size="10.00">stdint.h</text>
</g>
<!-- Node6&#45;&gt;Node10 -->
<g id="edge9" class="edge"><title>Node6&#45;&gt;Node10</title>
<path fill="none" stroke="midnightblue" d="M193.835,-112.083C193.704,-105.006 193.516,-94.8611 193.352,-85.9865"/>
<polygon fill="midnightblue" stroke="midnightblue" points="196.847,-85.6845 193.162,-75.7511 189.848,-85.8142 196.847,-85.6845"/>
</g>
<!-- Node6&#45;&gt;Node11 -->
<g id="edge10" class="edge"><title>Node6&#45;&gt;Node11</title>
<path fill="none" stroke="midnightblue" d="M206.853,-112.324C219.216,-103.979 238.13,-91.2122 252.737,-81.3524"/>
<polygon fill="midnightblue" stroke="midnightblue" points="254.848,-84.1503 261.179,-75.6545 250.932,-78.3483 254.848,-84.1503"/>
</g>
<!-- Node8 -->
<g id="node8" class="node"><title>Node8</title>
<polygon fill="white" stroke="#bfbfbf" points="20.5,-0.5 20.5,-19.5 71.5,-19.5 71.5,-0.5 20.5,-0.5"/>
<text text-anchor="middle" x="46" y="-7.5" font-family="Helvetica,sans-Serif" font-size="10.00">stddef.h</text>
</g>
<!-- Node7&#45;&gt;Node8 -->
<g id="edge7" class="edge"><title>Node7&#45;&gt;Node8</title>
<path fill="none" stroke="midnightblue" d="M81.8994,-56.083C75.763,-48.3768 66.7303,-37.0333 59.2608,-27.6531"/>
<polygon fill="midnightblue" stroke="midnightblue" points="61.9357,-25.3936 52.9685,-19.7511 56.4598,-29.7542 61.9357,-25.3936"/>
</g>
<!-- Node9 -->
<g id="node9" class="node"><title>Node9</title>
<polygon fill="white" stroke="#bfbfbf" points="90,-0.5 90,-19.5 174,-19.5 174,-0.5 90,-0.5"/>
<text text-anchor="middle" x="132" y="-7.5" font-family="Helvetica,sans-Serif" font-size="10.00">colony_config.h</text>
</g>
<!-- Node7&#45;&gt;Node9 -->
<g id="edge8" class="edge"><title>Node7&#45;&gt;Node9</title>
<path fill="none" stroke="midnightblue" d="M96.1006,-56.083C102.237,-48.3768 111.27,-37.0333 118.739,-27.6531"/>
<polygon fill="midnightblue" stroke="midnightblue" points="121.54,-29.7542 125.032,-19.7511 116.064,-25.3936 121.54,-29.7542"/>
</g>
<!-- Node13 -->
<g id="node13" class="node"><title>Node13</title>
<g id="a_node13"><a xlink:href="_item_8h.html" target="_top" xlink:title="Cpl/Container/Item.h">
<polygon fill="white" stroke="black" points="302.5,-112.5 302.5,-131.5 407.5,-131.5 407.5,-112.5 302.5,-112.5"/>
<text text-anchor="middle" x="355" y="-119.5" font-family="Helvetica,sans-Serif" font-size="10.00">Cpl/Container/Item.h</text>
</a>
</g>
</g>
<!-- Node12&#45;&gt;Node13 -->
<g id="edge13" class="edge"><title>Node12&#45;&gt;Node13</title>
<path fill="none" stroke="midnightblue" d="M298.765,-168.324C308.766,-160.263 323.887,-148.077 335.93,-138.369"/>
<polygon fill="midnightblue" stroke="midnightblue" points="338.45,-140.834 344.039,-131.834 334.057,-135.384 338.45,-140.834"/>
</g>
<!-- Node14&#45;&gt;Node13 -->
<g id="edge16" class="edge"><title>Node14&#45;&gt;Node13</title>
<path fill="none" stroke="midnightblue" d="M342.099,-224.368C344.358,-206.617 349.57,-165.666 352.633,-141.597"/>
<polygon fill="midnightblue" stroke="midnightblue" points="356.116,-141.953 353.907,-131.591 349.172,-141.069 356.116,-141.953"/>
</g>
</g>
</svg>
