<?xml version="1.0" encoding="UTF-8" standalone="no"?>
<!DOCTYPE svg PUBLIC "-//W3C//DTD SVG 1.1//EN"
 "http://www.w3.org/Graphics/SVG/1.1/DTD/svg11.dtd">
<!-- Generated by graphviz version 2.38.0 (20140413.2041)
 -->
<!-- Title: Trace.h Pages: 1 -->
<svg width="1009pt" height="308pt"
 viewBox="0.00 0.00 1009.00 308.00" xmlns="http://www.w3.org/2000/svg" xmlns:xlink="http://www.w3.org/1999/xlink">
<g id="graph0" class="graph" transform="scale(1 1) rotate(0) translate(4 304)">
<title>Trace.h</title>
<polygon fill="white" stroke="none" points="-4,4 -4,-304 1005,-304 1005,4 -4,4"/>
<!-- Node1 -->
<g id="node1" class="node"><title>Node1</title>
<polygon fill="#bfbfbf" stroke="black" points="297.5,-280.5 297.5,-299.5 346.5,-299.5 346.5,-280.5 297.5,-280.5"/>
<text text-anchor="middle" x="322" y="-287.5" font-family="Helvetica,sans-Serif" font-size="10.00">Trace.h</text>
</g>
<!-- Node2 -->
<g id="node2" class="node"><title>Node2</title>
<polygon fill="white" stroke="#bfbfbf" points="0,-0.5 0,-19.5 84,-19.5 84,-0.5 0,-0.5"/>
<text text-anchor="middle" x="42" y="-7.5" font-family="Helvetica,sans-Serif" font-size="10.00">colony_config.h</text>
</g>
<!-- Node1&#45;&gt;Node2 -->
<g id="edge1" class="edge"><title>Node1&#45;&gt;Node2</title>
<path fill="none" stroke="midnightblue" d="M297.468,-284.879C228.859,-272.666 40,-234.047 40,-179 40,-179 40,-179 40,-121 40,-88.9427 40.8596,-51.639 41.4518,-29.747"/>
<polygon fill="midnightblue" stroke="midnightblue" points="44.9557,-29.6513 41.7385,-19.5568 37.9585,-29.4544 44.9557,-29.6513"/>
</g>
<!-- Node3 -->
<g id="node3" class="node"><title>Node3</title>
<g id="a_node3"><a xlink:href="_string_8h.html" target="_top" xlink:title="Cpl/Text/String.h">
<polygon fill="white" stroke="black" points="240.5,-168.5 240.5,-187.5 329.5,-187.5 329.5,-168.5 240.5,-168.5"/>
<text text-anchor="middle" x="285" y="-175.5" font-family="Helvetica,sans-Serif" font-size="10.00">Cpl/Text/String.h</text>
</a>
</g>
</g>
<!-- Node1&#45;&gt;Node3 -->
<g id="edge2" class="edge"><title>Node1&#45;&gt;Node3</title>
<path fill="none" stroke="midnightblue" d="M319.097,-280.368C313.099,-262.537 299.227,-221.295 291.146,-197.272"/>
<polygon fill="midnightblue" stroke="midnightblue" points="294.395,-195.954 287.89,-187.591 287.761,-198.185 294.395,-195.954"/>
</g>
<!-- Node11 -->
<g id="node11" class="node"><title>Node11</title>
<g id="a_node11"><a xlink:href="_thread_8h.html" target="_top" xlink:title="Cpl/System/Thread.h">
<polygon fill="white" stroke="black" points="631,-224.5 631,-243.5 739,-243.5 739,-224.5 631,-224.5"/>
<text text-anchor="middle" x="685" y="-231.5" font-family="Helvetica,sans-Serif" font-size="10.00">Cpl/System/Thread.h</text>
</a>
</g>
</g>
<!-- Node1&#45;&gt;Node11 -->
<g id="edge12" class="edge"><title>Node1&#45;&gt;Node11</title>
<path fill="none" stroke="midnightblue" d="M346.665,-285.331C402.291,-277.056 539.005,-256.718 620.607,-244.579"/>
<polygon fill="midnightblue" stroke="midnightblue" points="621.388,-248.002 630.764,-243.068 620.357,-241.078 621.388,-248.002"/>
</g>
<!-- Node17 -->
<g id="node17" class="node"><title>Node17</title>
<g id="a_node17"><a xlink:href="_output_8h.html" target="_top" xlink:title="Cpl/Io/Output.h">
<polygon fill="white" stroke="black" points="316,-224.5 316,-243.5 398,-243.5 398,-224.5 316,-224.5"/>
<text text-anchor="middle" x="357" y="-231.5" font-family="Helvetica,sans-Serif" font-size="10.00">Cpl/Io/Output.h</text>
</a>
</g>
</g>
<!-- Node1&#45;&gt;Node17 -->
<g id="edge19" class="edge"><title>Node1&#45;&gt;Node17</title>
<path fill="none" stroke="midnightblue" d="M327.78,-280.083C332.672,-272.534 339.827,-261.495 345.833,-252.23"/>
<polygon fill="midnightblue" stroke="midnightblue" points="348.826,-254.046 351.328,-243.751 342.952,-250.239 348.826,-254.046"/>
</g>
<!-- Node4 -->
<g id="node4" class="node"><title>Node4</title>
<polygon fill="white" stroke="#bfbfbf" points="325,-112.5 325,-131.5 377,-131.5 377,-112.5 325,-112.5"/>
<text text-anchor="middle" x="351" y="-119.5" font-family="Helvetica,sans-Serif" font-size="10.00">stdarg.h</text>
</g>
<!-- Node3&#45;&gt;Node4 -->
<g id="edge3" class="edge"><title>Node3&#45;&gt;Node4</title>
<path fill="none" stroke="midnightblue" d="M295.604,-168.324C305.456,-160.263 320.351,-148.077 332.215,-138.369"/>
<polygon fill="midnightblue" stroke="midnightblue" points="334.68,-140.875 340.203,-131.834 330.247,-135.457 334.68,-140.875"/>
</g>
<!-- Node5 -->
<g id="node5" class="node"><title>Node5</title>
<polygon fill="white" stroke="#bfbfbf" points="215,-112.5 215,-131.5 269,-131.5 269,-112.5 215,-112.5"/>
<text text-anchor="middle" x="242" y="-119.5" font-family="Helvetica,sans-Serif" font-size="10.00">iostream</text>
</g>
<!-- Node3&#45;&gt;Node5 -->
<g id="edge4" class="edge"><title>Node3&#45;&gt;Node5</title>
<path fill="none" stroke="midnightblue" d="M277.899,-168.083C271.763,-160.377 262.73,-149.033 255.261,-139.653"/>
<polygon fill="midnightblue" stroke="midnightblue" points="257.936,-137.394 248.968,-131.751 252.46,-141.754 257.936,-137.394"/>
</g>
<!-- Node6 -->
<g id="node6" class="node"><title>Node6</title>
<g id="a_node6"><a xlink:href="_key_8h.html" target="_top" xlink:title="Cpl/Container/Key.h">
<polygon fill="white" stroke="black" points="93,-112.5 93,-131.5 197,-131.5 197,-112.5 93,-112.5"/>
<text text-anchor="middle" x="145" y="-119.5" font-family="Helvetica,sans-Serif" font-size="10.00">Cpl/Container/Key.h</text>
</a>
</g>
</g>
<!-- Node3&#45;&gt;Node6 -->
<g id="edge5" class="edge"><title>Node3&#45;&gt;Node6</title>
<path fill="none" stroke="midnightblue" d="M262.817,-168.444C239.572,-159.478 202.851,-145.314 176.585,-135.183"/>
<polygon fill="midnightblue" stroke="midnightblue" points="177.669,-131.85 167.08,-131.516 175.15,-138.381 177.669,-131.85"/>
</g>
<!-- Node10 -->
<g id="node10" class="node"><title>Node10</title>
<polygon fill="white" stroke="#bfbfbf" points="275.5,-56.5 275.5,-75.5 352.5,-75.5 352.5,-56.5 275.5,-56.5"/>
<text text-anchor="middle" x="314" y="-63.5" font-family="Helvetica,sans-Serif" font-size="10.00">colony_map.h</text>
</g>
<!-- Node3&#45;&gt;Node10 -->
<g id="edge11" class="edge"><title>Node3&#45;&gt;Node10</title>
<path fill="none" stroke="midnightblue" d="M287.276,-168.368C291.977,-150.537 302.849,-109.295 309.183,-85.2717"/>
<polygon fill="midnightblue" stroke="midnightblue" points="312.57,-86.1533 311.735,-75.5914 305.801,-84.3688 312.57,-86.1533"/>
</g>
<!-- Node7 -->
<g id="node7" class="node"><title>Node7</title>
<g id="a_node7"><a xlink:href="_fatal_error_8h.html" target="_top" xlink:title="Cpl/System/FatalError.h">
<polygon fill="white" stroke="black" points="68,-56.5 68,-75.5 190,-75.5 190,-56.5 68,-56.5"/>
<text text-anchor="middle" x="129" y="-63.5" font-family="Helvetica,sans-Serif" font-size="10.00">Cpl/System/FatalError.h</text>
</a>
</g>
</g>
<!-- Node6&#45;&gt;Node7 -->
<g id="edge6" class="edge"><title>Node6&#45;&gt;Node7</title>
<path fill="none" stroke="midnightblue" d="M142.358,-112.083C140.214,-104.849 137.121,-94.4087 134.451,-85.3968"/>
<polygon fill="midnightblue" stroke="midnightblue" points="137.79,-84.3447 131.593,-75.7511 131.078,-86.3334 137.79,-84.3447"/>
</g>
<!-- Node9 -->
<g id="node9" class="node"><title>Node9</title>
<polygon fill="white" stroke="#bfbfbf" points="208.5,-56.5 208.5,-75.5 257.5,-75.5 257.5,-56.5 208.5,-56.5"/>
<text text-anchor="middle" x="233" y="-63.5" font-family="Helvetica,sans-Serif" font-size="10.00">stdint.h</text>
</g>
<!-- Node6&#45;&gt;Node9 -->
<g id="edge9" class="edge"><title>Node6&#45;&gt;Node9</title>
<path fill="none" stroke="midnightblue" d="M159.139,-112.324C172.866,-103.9 193.936,-90.9709 210.064,-81.0741"/>
<polygon fill="midnightblue" stroke="midnightblue" points="212.204,-83.8678 218.896,-75.6545 208.543,-77.9016 212.204,-83.8678"/>
</g>
<!-- Node6&#45;&gt;Node10 -->
<g id="edge10" class="edge"><title>Node6&#45;&gt;Node10</title>
<path fill="none" stroke="midnightblue" d="M171.779,-112.444C200.333,-103.32 245.733,-88.8133 277.537,-78.6509"/>
<polygon fill="midnightblue" stroke="midnightblue" points="278.886,-81.8941 287.347,-75.5164 276.756,-75.2262 278.886,-81.8941"/>
</g>
<!-- Node7&#45;&gt;Node2 -->
<g id="edge8" class="edge"><title>Node7&#45;&gt;Node2</title>
<path fill="none" stroke="midnightblue" d="M115.022,-56.324C101.45,-47.9002 80.6198,-34.9709 64.675,-25.0741"/>
<polygon fill="midnightblue" stroke="midnightblue" points="66.2856,-21.9544 55.9434,-19.6545 62.594,-27.9019 66.2856,-21.9544"/>
</g>
<!-- Node8 -->
<g id="node8" class="node"><title>Node8</title>
<polygon fill="white" stroke="#bfbfbf" points="103.5,-0.5 103.5,-19.5 154.5,-19.5 154.5,-0.5 103.5,-0.5"/>
<text text-anchor="middle" x="129" y="-7.5" font-family="Helvetica,sans-Serif" font-size="10.00">stddef.h</text>
</g>
<!-- Node7&#45;&gt;Node8 -->
<g id="edge7" class="edge"><title>Node7&#45;&gt;Node8</title>
<path fill="none" stroke="midnightblue" d="M129,-56.083C129,-49.0059 129,-38.8611 129,-29.9865"/>
<polygon fill="midnightblue" stroke="midnightblue" points="132.5,-29.751 129,-19.7511 125.5,-29.7511 132.5,-29.751"/>
</g>
<!-- Node11&#45;&gt;Node10 -->
<g id="edge13" class="edge"><title>Node11&#45;&gt;Node10</title>
<path fill="none" stroke="midnightblue" d="M630.774,-225.227C603.424,-218.99 571.222,-207.84 548,-188 519.135,-163.339 538.952,-135.329 509,-112 467.091,-79.3576 405.686,-69.6546 363.021,-67.1337"/>
<polygon fill="midnightblue" stroke="midnightblue" points="363.027,-63.6301 352.871,-66.6478 362.692,-70.6221 363.027,-63.6301"/>
</g>
<!-- Node12 -->
<g id="node12" class="node"><title>Node12</title>
<g id="a_node12"><a xlink:href="_runnable_8h.html" target="_top" xlink:title="Cpl/System/Runnable.h">
<polygon fill="white" stroke="black" points="557.5,-168.5 557.5,-187.5 676.5,-187.5 676.5,-168.5 557.5,-168.5"/>
<text text-anchor="middle" x="617" y="-175.5" font-family="Helvetica,sans-Serif" font-size="10.00">Cpl/System/Runnable.h</text>
</a>
</g>
</g>
<!-- Node11&#45;&gt;Node12 -->
<g id="edge14" class="edge"><title>Node11&#45;&gt;Node12</title>
<path fill="none" stroke="midnightblue" d="M674.075,-224.324C663.825,-216.185 648.279,-203.839 635.999,-194.087"/>
<polygon fill="midnightblue" stroke="midnightblue" points="638.132,-191.312 628.124,-187.834 633.779,-196.794 638.132,-191.312"/>
</g>
<!-- Node13 -->
<g id="node13" class="node"><title>Node13</title>
<g id="a_node13"><a xlink:href="_signable_8h.html" target="_top" xlink:title="Cpl/System/Signable.h">
<polygon fill="white" stroke="black" points="695,-168.5 695,-187.5 811,-187.5 811,-168.5 695,-168.5"/>
<text text-anchor="middle" x="753" y="-175.5" font-family="Helvetica,sans-Serif" font-size="10.00">Cpl/System/Signable.h</text>
</a>
</g>
</g>
<!-- Node11&#45;&gt;Node13 -->
<g id="edge15" class="edge"><title>Node11&#45;&gt;Node13</title>
<path fill="none" stroke="midnightblue" d="M695.925,-224.324C706.175,-216.185 721.721,-203.839 734.001,-194.087"/>
<polygon fill="midnightblue" stroke="midnightblue" points="736.221,-196.794 741.876,-187.834 731.868,-191.312 736.221,-196.794"/>
</g>
<!-- Node15 -->
<g id="node15" class="node"><title>Node15</title>
<g id="a_node15"><a xlink:href="_traverser_8h.html" target="_top" xlink:title="Cpl/Type/Traverser.h">
<polygon fill="white" stroke="black" points="829.5,-168.5 829.5,-187.5 934.5,-187.5 934.5,-168.5 829.5,-168.5"/>
<text text-anchor="middle" x="882" y="-175.5" font-family="Helvetica,sans-Serif" font-size="10.00">Cpl/Type/Traverser.h</text>
</a>
</g>
</g>
<!-- Node11&#45;&gt;Node15 -->
<g id="edge17" class="edge"><title>Node11&#45;&gt;Node15</title>
<path fill="none" stroke="midnightblue" d="M716.215,-224.444C749.933,-215.201 803.8,-200.436 840.932,-190.257"/>
<polygon fill="midnightblue" stroke="midnightblue" points="842.212,-193.536 850.931,-187.516 840.361,-186.785 842.212,-193.536"/>
</g>
<!-- Node16 -->
<g id="node16" class="node"><title>Node16</title>
<polygon fill="white" stroke="#bfbfbf" points="953,-168.5 953,-187.5 1001,-187.5 1001,-168.5 953,-168.5"/>
<text text-anchor="middle" x="977" y="-175.5" font-family="Helvetica,sans-Serif" font-size="10.00">stdlib.h</text>
</g>
<!-- Node11&#45;&gt;Node16 -->
<g id="edge18" class="edge"><title>Node11&#45;&gt;Node16</title>
<path fill="none" stroke="midnightblue" d="M739.112,-225.119C789.453,-217.445 866.733,-204.797 942.694,-188.121"/>
<polygon fill="midnightblue" stroke="midnightblue" points="943.912,-191.436 952.915,-185.85 942.394,-184.602 943.912,-191.436"/>
</g>
<!-- Node14 -->
<g id="node14" class="node"><title>Node14</title>
<g id="a_node14"><a xlink:href="_item_8h.html" target="_top" xlink:title="Cpl/Container/Item.h">
<polygon fill="white" stroke="black" points="395.5,-112.5 395.5,-131.5 500.5,-131.5 500.5,-112.5 395.5,-112.5"/>
<text text-anchor="middle" x="448" y="-119.5" font-family="Helvetica,sans-Serif" font-size="10.00">Cpl/Container/Item.h</text>
</a>
</g>
</g>
<!-- Node13&#45;&gt;Node14 -->
<g id="edge16" class="edge"><title>Node13&#45;&gt;Node14</title>
<path fill="none" stroke="midnightblue" d="M704.672,-168.444C650.796,-158.905 563.693,-143.483 506.136,-133.293"/>
<polygon fill="midnightblue" stroke="midnightblue" points="506.559,-129.813 496.102,-131.516 505.339,-136.706 506.559,-129.813"/>
</g>
<!-- Node17&#45;&gt;Node3 -->
<g id="edge20" class="edge"><title>Node17&#45;&gt;Node3</title>
<path fill="none" stroke="midnightblue" d="M345.432,-224.324C334.58,-216.185 318.119,-203.839 305.117,-194.087"/>
<polygon fill="midnightblue" stroke="midnightblue" points="306.879,-191.034 296.779,-187.834 302.679,-196.634 306.879,-191.034"/>
</g>
<!-- Node17&#45;&gt;Node4 -->
<g id="edge23" class="edge"><title>Node17&#45;&gt;Node4</title>
<path fill="none" stroke="midnightblue" d="M356.529,-224.368C355.561,-206.617 353.327,-165.666 352.014,-141.597"/>
<polygon fill="midnightblue" stroke="midnightblue" points="355.508,-141.386 351.469,-131.591 348.519,-141.767 355.508,-141.386"/>
</g>
<!-- Node18 -->
<g id="node18" class="node"><title>Node18</title>
<g id="a_node18"><a xlink:href="_close_8h.html" target="_top" xlink:title="Cpl/Io/Close.h">
<polygon fill="white" stroke="black" points="394.5,-168.5 394.5,-187.5 471.5,-187.5 471.5,-168.5 394.5,-168.5"/>
<text text-anchor="middle" x="433" y="-175.5" font-family="Helvetica,sans-Serif" font-size="10.00">Cpl/Io/Close.h</text>
</a>
</g>
</g>
<!-- Node17&#45;&gt;Node18 -->
<g id="edge21" class="edge"><title>Node17&#45;&gt;Node18</title>
<path fill="none" stroke="midnightblue" d="M369.211,-224.324C380.776,-216.107 398.375,-203.602 412.161,-193.807"/>
<polygon fill="midnightblue" stroke="midnightblue" points="414.443,-196.479 420.567,-187.834 410.388,-190.773 414.443,-196.479"/>
</g>
<!-- Node18&#45;&gt;Node14 -->
<g id="edge22" class="edge"><title>Node18&#45;&gt;Node14</title>
<path fill="none" stroke="midnightblue" d="M435.477,-168.083C437.486,-160.849 440.386,-150.409 442.89,-141.397"/>
<polygon fill="midnightblue" stroke="midnightblue" points="446.265,-142.323 445.569,-131.751 439.52,-140.449 446.265,-142.323"/>
</g>
</g>
</svg>
