<?xml version="1.0" encoding="UTF-8" standalone="no"?>
<!DOCTYPE svg PUBLIC "-//W3C//DTD SVG 1.1//EN"
 "http://www.w3.org/Graphics/SVG/1.1/DTD/svg11.dtd">
<!-- Generated by graphviz version 2.38.0 (20140413.2041)
 -->
<!-- Title: Traverser.h Pages: 1 -->
<svg width="374pt" height="196pt"
 viewBox="0.00 0.00 374.00 196.00" xmlns="http://www.w3.org/2000/svg" xmlns:xlink="http://www.w3.org/1999/xlink">
<g id="graph0" class="graph" transform="scale(1 1) rotate(0) translate(4 192)">
<title>Traverser.h</title>
<polygon fill="white" stroke="none" points="-4,4 -4,-192 370,-192 370,4 -4,4"/>
<!-- Node1 -->
<g id="node1" class="node"><title>Node1</title>
<polygon fill="#bfbfbf" stroke="black" points="134,-168.5 134,-187.5 198,-187.5 198,-168.5 134,-168.5"/>
<text text-anchor="middle" x="166" y="-175.5" font-family="Helvetica,sans-Serif" font-size="10.00">Traverser.h</text>
</g>
<!-- Node2 -->
<g id="node2" class="node"><title>Node2</title>
<g id="a_node2"><a xlink:href="_cpl_2_io_2_file_2_api_8h.html" target="_top" xlink:title="Api.h">
<polygon fill="white" stroke="black" points="114.5,-112.5 114.5,-131.5 153.5,-131.5 153.5,-112.5 114.5,-112.5"/>
<text text-anchor="middle" x="134" y="-119.5" font-family="Helvetica,sans-Serif" font-size="10.00">Api.h</text>
</a>
</g>
</g>
<!-- Node1&#45;&gt;Node2 -->
<g id="edge1" class="edge"><title>Node1&#45;&gt;Node2</title>
<path fill="none" stroke="midnightblue" d="M155.496,-159.275C150.027,-150.045 143.582,-139.17 139.186,-131.751"/>
<polygon fill="midnightblue" stroke="midnightblue" points="152.607,-161.264 160.716,-168.083 158.629,-157.696 152.607,-161.264"/>
</g>
<!-- Node3 -->
<g id="node3" class="node"><title>Node3</title>
<g id="a_node3"><a xlink:href="_thread_8h.html" target="_top" xlink:title="Thread.h">
<polygon fill="white" stroke="black" points="172,-112.5 172,-131.5 226,-131.5 226,-112.5 172,-112.5"/>
<text text-anchor="middle" x="199" y="-119.5" font-family="Helvetica,sans-Serif" font-size="10.00">Thread.h</text>
</a>
</g>
</g>
<!-- Node1&#45;&gt;Node3 -->
<g id="edge2" class="edge"><title>Node1&#45;&gt;Node3</title>
<path fill="none" stroke="midnightblue" d="M176.832,-159.275C182.472,-150.045 189.118,-139.17 193.652,-131.751"/>
<polygon fill="midnightblue" stroke="midnightblue" points="173.677,-157.725 171.449,-168.083 179.65,-161.375 173.677,-157.725"/>
</g>
<!-- Node4 -->
<g id="node4" class="node"><title>Node4</title>
<g id="a_node4"><a xlink:href="_receiver_8h.html" target="_top" xlink:title="Receiver.h">
<polygon fill="white" stroke="black" points="0,-56.5 0,-75.5 62,-75.5 62,-56.5 0,-56.5"/>
<text text-anchor="middle" x="31" y="-63.5" font-family="Helvetica,sans-Serif" font-size="10.00">Receiver.h</text>
</a>
</g>
</g>
<!-- Node3&#45;&gt;Node4 -->
<g id="edge3" class="edge"><title>Node3&#45;&gt;Node4</title>
<path fill="none" stroke="midnightblue" d="M162.614,-109.304C130.958,-99.1294 85.832,-84.6246 57.4956,-75.5164"/>
<polygon fill="midnightblue" stroke="midnightblue" points="161.789,-112.715 172.38,-112.444 163.931,-106.051 161.789,-112.715"/>
</g>
<!-- Node5 -->
<g id="node5" class="node"><title>Node5</title>
<g id="a_node5"><a xlink:href="_transmitter_8h.html" target="_top" xlink:title="Transmitter.h">
<polygon fill="white" stroke="black" points="80,-56.5 80,-75.5 154,-75.5 154,-56.5 80,-56.5"/>
<text text-anchor="middle" x="117" y="-63.5" font-family="Helvetica,sans-Serif" font-size="10.00">Transmitter.h</text>
</a>
</g>
</g>
<!-- Node3&#45;&gt;Node5 -->
<g id="edge4" class="edge"><title>Node3&#45;&gt;Node5</title>
<path fill="none" stroke="midnightblue" d="M177.167,-106.622C162.187,-96.7574 142.803,-83.9919 130.142,-75.6545"/>
<polygon fill="midnightblue" stroke="midnightblue" points="175.549,-109.747 185.825,-112.324 179.399,-103.901 175.549,-109.747"/>
</g>
<!-- Node6 -->
<g id="node6" class="node"><title>Node6</title>
<g id="a_node6"><a xlink:href="_cpp11_2_thread_8h.html" target="_top" xlink:title="Thread.h">
<polygon fill="white" stroke="black" points="172,-56.5 172,-75.5 226,-75.5 226,-56.5 172,-56.5"/>
<text text-anchor="middle" x="199" y="-63.5" font-family="Helvetica,sans-Serif" font-size="10.00">Thread.h</text>
</a>
</g>
</g>
<!-- Node3&#45;&gt;Node6 -->
<g id="edge5" class="edge"><title>Node3&#45;&gt;Node6</title>
<path fill="none" stroke="midnightblue" d="M199,-101.805C199,-92.9102 199,-82.7798 199,-75.7511"/>
<polygon fill="midnightblue" stroke="midnightblue" points="195.5,-102.083 199,-112.083 202.5,-102.083 195.5,-102.083"/>
</g>
<!-- Node7 -->
<g id="node7" class="node"><title>Node7</title>
<g id="a_node7"><a xlink:href="_trace_8h.html" target="_top" xlink:title="Trace.h">
<polygon fill="white" stroke="black" points="244.5,-56.5 244.5,-75.5 293.5,-75.5 293.5,-56.5 244.5,-56.5"/>
<text text-anchor="middle" x="269" y="-63.5" font-family="Helvetica,sans-Serif" font-size="10.00">Trace.h</text>
</a>
</g>
</g>
<!-- Node3&#45;&gt;Node7 -->
<g id="edge6" class="edge"><title>Node3&#45;&gt;Node7</title>
<path fill="none" stroke="midnightblue" d="M218.314,-106.101C230.912,-96.3824 246.928,-84.0269 257.549,-75.8339"/>
<polygon fill="midnightblue" stroke="midnightblue" points="216.027,-103.445 210.247,-112.324 220.302,-108.987 216.027,-103.445"/>
</g>
<!-- Node9 -->
<g id="node9" class="node"><title>Node9</title>
<g id="a_node9"><a xlink:href="_win32_2_thread_8h.html" target="_top" xlink:title="Thread.h">
<polygon fill="white" stroke="black" points="312,-56.5 312,-75.5 366,-75.5 366,-56.5 312,-56.5"/>
<text text-anchor="middle" x="339" y="-63.5" font-family="Helvetica,sans-Serif" font-size="10.00">Thread.h</text>
</a>
</g>
</g>
<!-- Node3&#45;&gt;Node9 -->
<g id="edge8" class="edge"><title>Node3&#45;&gt;Node9</title>
<path fill="none" stroke="midnightblue" d="M230.702,-108.772C257,-98.6287 293.716,-84.4669 316.92,-75.5164"/>
<polygon fill="midnightblue" stroke="midnightblue" points="229.254,-105.579 221.183,-112.444 231.773,-112.11 229.254,-105.579"/>
</g>
<!-- Node8 -->
<g id="node8" class="node"><title>Node8</title>
<g id="a_node8"><a xlink:href="_local_8h.html" target="_top" xlink:title="Local.h">
<polygon fill="white" stroke="black" points="245,-0.5 245,-19.5 293,-19.5 293,-0.5 245,-0.5"/>
<text text-anchor="middle" x="269" y="-7.5" font-family="Helvetica,sans-Serif" font-size="10.00">Local.h</text>
</a>
</g>
</g>
<!-- Node7&#45;&gt;Node8 -->
<g id="edge7" class="edge"><title>Node7&#45;&gt;Node8</title>
<path fill="none" stroke="midnightblue" d="M269,-45.8045C269,-36.9102 269,-26.7798 269,-19.7511"/>
<polygon fill="midnightblue" stroke="midnightblue" points="265.5,-46.083 269,-56.083 272.5,-46.083 265.5,-46.083"/>
</g>
</g>
</svg>
