<?xml version="1.0" encoding="UTF-8" standalone="no"?>
<!DOCTYPE svg PUBLIC "-//W3C//DTD SVG 1.1//EN"
 "http://www.w3.org/Graphics/SVG/1.1/DTD/svg11.dtd">
<!-- Generated by graphviz version 2.38.0 (20140413.2041)
 -->
<!-- Title: Listener.h Pages: 1 -->
<svg width="434pt" height="140pt"
 viewBox="0.00 0.00 433.50 140.00" xmlns="http://www.w3.org/2000/svg" xmlns:xlink="http://www.w3.org/1999/xlink">
<g id="graph0" class="graph" transform="scale(1 1) rotate(0) translate(4 136)">
<title>Listener.h</title>
<polygon fill="white" stroke="none" points="-4,4 -4,-136 429.5,-136 429.5,4 -4,4"/>
<!-- Node1 -->
<g id="node1" class="node"><title>Node1</title>
<polygon fill="#bfbfbf" stroke="black" points="150,-112.5 150,-131.5 209,-131.5 209,-112.5 150,-112.5"/>
<text text-anchor="middle" x="179.5" y="-119.5" font-family="Helvetica,sans-Serif" font-size="10.00">Listener.h</text>
</g>
<!-- Node2 -->
<g id="node2" class="node"><title>Node2</title>
<polygon fill="white" stroke="#bfbfbf" points="0,-56.5 0,-75.5 65,-75.5 65,-56.5 0,-56.5"/>
<text text-anchor="middle" x="32.5" y="-63.5" font-family="Helvetica,sans-Serif" font-size="10.00">winsock2.h</text>
</g>
<!-- Node1&#45;&gt;Node2 -->
<g id="edge1" class="edge"><title>Node1&#45;&gt;Node2</title>
<path fill="none" stroke="midnightblue" d="M156.207,-112.444C131.693,-103.438 92.9038,-89.1891 65.3001,-79.049"/>
<polygon fill="midnightblue" stroke="midnightblue" points="66.2772,-75.6793 55.6836,-75.5164 63.8634,-82.25 66.2772,-75.6793"/>
</g>
<!-- Node3 -->
<g id="node3" class="node"><title>Node3</title>
<polygon fill="white" stroke="#bfbfbf" points="83.5,-56.5 83.5,-75.5 167.5,-75.5 167.5,-56.5 83.5,-56.5"/>
<text text-anchor="middle" x="125.5" y="-63.5" font-family="Helvetica,sans-Serif" font-size="10.00">colony_config.h</text>
</g>
<!-- Node1&#45;&gt;Node3 -->
<g id="edge2" class="edge"><title>Node1&#45;&gt;Node3</title>
<path fill="none" stroke="midnightblue" d="M170.583,-112.083C162.72,-104.22 151.069,-92.5688 141.581,-83.0813"/>
<polygon fill="midnightblue" stroke="midnightblue" points="143.797,-80.3473 134.251,-75.7511 138.847,-85.2971 143.797,-80.3473"/>
</g>
<!-- Node4 -->
<g id="node4" class="node"><title>Node4</title>
<g id="a_node4"><a xlink:href="_loggers_8h.html" target="_top" xlink:title="Cpl/Log/Loggers.h">
<polygon fill="white" stroke="black" points="186,-56.5 186,-75.5 281,-75.5 281,-56.5 186,-56.5"/>
<text text-anchor="middle" x="233.5" y="-63.5" font-family="Helvetica,sans-Serif" font-size="10.00">Cpl/Log/Loggers.h</text>
</a>
</g>
</g>
<!-- Node1&#45;&gt;Node4 -->
<g id="edge3" class="edge"><title>Node1&#45;&gt;Node4</title>
<path fill="none" stroke="midnightblue" d="M188.417,-112.083C196.28,-104.22 207.931,-92.5688 217.419,-83.0813"/>
<polygon fill="midnightblue" stroke="midnightblue" points="220.153,-85.2971 224.749,-75.7511 215.203,-80.3473 220.153,-85.2971"/>
</g>
<!-- Node6 -->
<g id="node6" class="node"><title>Node6</title>
<polygon fill="white" stroke="#bfbfbf" points="299.5,-56.5 299.5,-75.5 425.5,-75.5 425.5,-56.5 299.5,-56.5"/>
<text text-anchor="middle" x="362.5" y="-63.5" font-family="Helvetica,sans-Serif" font-size="10.00">Cpl/Io/Socket/Listener_.h</text>
</g>
<!-- Node1&#45;&gt;Node6 -->
<g id="edge5" class="edge"><title>Node1&#45;&gt;Node6</title>
<path fill="none" stroke="midnightblue" d="M208.497,-112.444C239.685,-103.241 289.43,-88.5617 323.908,-78.3879"/>
<polygon fill="midnightblue" stroke="midnightblue" points="325.038,-81.7036 333.639,-75.5164 323.057,-74.9898 325.038,-81.7036"/>
</g>
<!-- Node5 -->
<g id="node5" class="node"><title>Node5</title>
<g id="a_node5"><a xlink:href="_cpl_2_log_2_api_8h.html" target="_top" xlink:title="Cpl/Log/Api.h">
<polygon fill="white" stroke="black" points="196,-0.5 196,-19.5 271,-19.5 271,-0.5 196,-0.5"/>
<text text-anchor="middle" x="233.5" y="-7.5" font-family="Helvetica,sans-Serif" font-size="10.00">Cpl/Log/Api.h</text>
</a>
</g>
</g>
<!-- Node4&#45;&gt;Node5 -->
<g id="edge4" class="edge"><title>Node4&#45;&gt;Node5</title>
<path fill="none" stroke="midnightblue" d="M233.5,-56.083C233.5,-49.0059 233.5,-38.8611 233.5,-29.9865"/>
<polygon fill="midnightblue" stroke="midnightblue" points="237,-29.751 233.5,-19.7511 230,-29.7511 237,-29.751"/>
</g>
</g>
</svg>
