<?xml version="1.0" encoding="UTF-8" standalone="no"?>
<!DOCTYPE svg PUBLIC "-//W3C//DTD SVG 1.1//EN"
 "http://www.w3.org/Graphics/SVG/1.1/DTD/svg11.dtd">
<!-- Generated by graphviz version 2.38.0 (20140413.2041)
 -->
<!-- Title: atob.h Pages: 1 -->
<svg width="152pt" height="84pt"
 viewBox="0.00 0.00 151.50 84.00" xmlns="http://www.w3.org/2000/svg" xmlns:xlink="http://www.w3.org/1999/xlink">
<g id="graph0" class="graph" transform="scale(1 1) rotate(0) translate(4 80)">
<title>atob.h</title>
<polygon fill="white" stroke="none" points="-4,4 -4,-80 147.5,-80 147.5,4 -4,4"/>
<!-- Node1 -->
<g id="node1" class="node"><title>Node1</title>
<polygon fill="#bfbfbf" stroke="black" points="42,-56.5 42,-75.5 86,-75.5 86,-56.5 42,-56.5"/>
<text text-anchor="middle" x="64" y="-63.5" font-family="Helvetica,sans-Serif" font-size="10.00">atob.h</text>
</g>
<!-- Node2 -->
<g id="node2" class="node"><title>Node2</title>
<polygon fill="white" stroke="#bfbfbf" points="0,-0.5 0,-19.5 48,-19.5 48,-0.5 0,-0.5"/>
<text text-anchor="middle" x="24" y="-7.5" font-family="Helvetica,sans-Serif" font-size="10.00">stdlib.h</text>
</g>
<!-- Node1&#45;&gt;Node2 -->
<g id="edge1" class="edge"><title>Node1&#45;&gt;Node2</title>
<path fill="none" stroke="midnightblue" d="M57.3948,-56.083C51.7448,-48.4554 43.4552,-37.2645 36.5488,-27.9408"/>
<polygon fill="midnightblue" stroke="midnightblue" points="39.2471,-25.7034 30.4823,-19.7511 33.6221,-29.87 39.2471,-25.7034"/>
</g>
<!-- Node3 -->
<g id="node3" class="node"><title>Node3</title>
<polygon fill="white" stroke="#bfbfbf" points="66.5,-0.5 66.5,-19.5 143.5,-19.5 143.5,-0.5 66.5,-0.5"/>
<text text-anchor="middle" x="105" y="-7.5" font-family="Helvetica,sans-Serif" font-size="10.00">colony_map.h</text>
</g>
<!-- Node1&#45;&gt;Node3 -->
<g id="edge2" class="edge"><title>Node1&#45;&gt;Node3</title>
<path fill="none" stroke="midnightblue" d="M70.7703,-56.083C76.5616,-48.4554 85.0585,-37.2645 92.1375,-27.9408"/>
<polygon fill="midnightblue" stroke="midnightblue" points="95.0961,-29.8321 98.3557,-19.7511 89.521,-25.5991 95.0961,-29.8321"/>
</g>
</g>
</svg>
