<?xml version="1.0" encoding="UTF-8" standalone="no"?>
<!DOCTYPE svg PUBLIC "-//W3C//DTD SVG 1.1//EN"
 "http://www.w3.org/Graphics/SVG/1.1/DTD/svg11.dtd">
<!-- Generated by graphviz version 2.38.0 (20140413.2041)
 -->
<!-- Title: Cpl::Container::ExtendedItem Pages: 1 -->
<svg width="1006pt" height="204pt"
 viewBox="0.00 0.00 1006.00 203.50" xmlns="http://www.w3.org/2000/svg" xmlns:xlink="http://www.w3.org/1999/xlink">
<g id="graph0" class="graph" transform="scale(1 1) rotate(0) translate(4 199.5)">
<title>Cpl::Container::ExtendedItem</title>
<polygon fill="white" stroke="none" points="-4,4 -4,-199.5 1002,-199.5 1002,4 -4,4"/>
<!-- Node1 -->
<g id="node1" class="node"><title>Node1</title>
<polygon fill="#bfbfbf" stroke="black" points="139,-62 139,-81 283,-81 283,-62 139,-62"/>
<text text-anchor="middle" x="211" y="-69" font-family="Helvetica,sans-Serif" font-size="10.00">Cpl::Container::ExtendedItem</text>
</g>
<!-- Node3 -->
<g id="node3" class="node"><title>Node3</title>
<g id="a_node3"><a xlink:href="class_cpl_1_1_container_1_1_dict_item.html" target="_top" xlink:title="Cpl::Container::DictItem">
<polygon fill="white" stroke="black" points="328,-125 328,-144 448,-144 448,-125 328,-125"/>
<text text-anchor="middle" x="388" y="-132" font-family="Helvetica,sans-Serif" font-size="10.00">Cpl::Container::DictItem</text>
</a>
</g>
</g>
<!-- Node1&#45;&gt;Node3 -->
<g id="edge2" class="edge"><title>Node1&#45;&gt;Node3</title>
<path fill="none" stroke="midnightblue" d="M247.992,-84.4571C281.43,-96.4947 330.45,-114.142 360.458,-124.945"/>
<polygon fill="midnightblue" stroke="midnightblue" points="249.173,-81.1625 238.579,-81.0683 246.802,-87.7487 249.173,-81.1625"/>
</g>
<!-- Node9 -->
<g id="node9" class="node"><title>Node9</title>
<g id="a_node9"><a xlink:href="class_cpl_1_1_itc_1_1_message.html" target="_top" xlink:title="Cpl::Itc::Message">
<polygon fill="white" stroke="black" points="341.5,-62 341.5,-81 434.5,-81 434.5,-62 341.5,-62"/>
<text text-anchor="middle" x="388" y="-69" font-family="Helvetica,sans-Serif" font-size="10.00">Cpl::Itc::Message</text>
</a>
</g>
</g>
<!-- Node1&#45;&gt;Node9 -->
<g id="edge8" class="edge"><title>Node1&#45;&gt;Node9</title>
<path fill="none" stroke="midnightblue" d="M293.408,-71.5C309.931,-71.5 326.745,-71.5 341.478,-71.5"/>
<polygon fill="midnightblue" stroke="midnightblue" points="293.179,-68.0001 283.179,-71.5 293.179,-75.0001 293.179,-68.0001"/>
</g>
<!-- Node13 -->
<g id="node13" class="node"><title>Node13</title>
<g id="a_node13"><a xlink:href="class_cpl_1_1_timer_1_1_counter_callback.html" target="_top" xlink:title="Cpl::Timer::CounterCallback">
<polygon fill="white" stroke="black" points="319,-21 319,-40 457,-40 457,-21 319,-21"/>
<text text-anchor="middle" x="388" y="-28" font-family="Helvetica,sans-Serif" font-size="10.00">Cpl::Timer::CounterCallback</text>
</a>
</g>
</g>
<!-- Node1&#45;&gt;Node13 -->
<g id="edge12" class="edge"><title>Node1&#45;&gt;Node13</title>
<path fill="none" stroke="midnightblue" d="M262.49,-59.6709C289.11,-53.4342 321.334,-45.8847 346.329,-40.0286"/>
<polygon fill="midnightblue" stroke="midnightblue" points="261.526,-56.3018 252.588,-61.9907 263.123,-63.1173 261.526,-56.3018"/>
</g>
<!-- Node2 -->
<g id="node2" class="node"><title>Node2</title>
<g id="a_node2"><a xlink:href="class_cpl_1_1_container_1_1_item.html" target="_top" xlink:title="Cpl::Container::Item">
<polygon fill="white" stroke="black" points="0,-62 0,-81 103,-81 103,-62 0,-62"/>
<text text-anchor="middle" x="51.5" y="-69" font-family="Helvetica,sans-Serif" font-size="10.00">Cpl::Container::Item</text>
</a>
</g>
</g>
<!-- Node2&#45;&gt;Node1 -->
<g id="edge1" class="edge"><title>Node2&#45;&gt;Node1</title>
<path fill="none" stroke="midnightblue" d="M113.223,-71.5C121.578,-71.5 130.219,-71.5 138.742,-71.5"/>
<polygon fill="midnightblue" stroke="midnightblue" points="113.201,-68.0001 103.201,-71.5 113.201,-75.0001 113.201,-68.0001"/>
</g>
<!-- Node4 -->
<g id="node4" class="node"><title>Node4</title>
<g id="a_node4"><a xlink:href="class_cpl_1_1_container_1_1_map_item.html" target="_top" xlink:title="Cpl::Container::MapItem">
<polygon fill="white" stroke="black" points="515.5,-138 515.5,-157 637.5,-157 637.5,-138 515.5,-138"/>
<text text-anchor="middle" x="576.5" y="-145" font-family="Helvetica,sans-Serif" font-size="10.00">Cpl::Container::MapItem</text>
</a>
</g>
</g>
<!-- Node3&#45;&gt;Node4 -->
<g id="edge3" class="edge"><title>Node3&#45;&gt;Node4</title>
<path fill="none" stroke="midnightblue" d="M457.989,-139.309C476.788,-140.619 497,-142.028 515.271,-143.302"/>
<polygon fill="midnightblue" stroke="midnightblue" points="458.229,-135.817 448.01,-138.613 457.742,-142.8 458.229,-135.817"/>
</g>
<!-- Node5 -->
<g id="node5" class="node"><title>Node5</title>
<g id="a_node5"><a xlink:href="class_cpl_1_1_text_1_1_string_item.html" target="_top" xlink:title="Cpl::Text::StringItem">
<polygon fill="white" stroke="black" points="707.5,-138 707.5,-157 813.5,-157 813.5,-138 707.5,-138"/>
<text text-anchor="middle" x="760.5" y="-145" font-family="Helvetica,sans-Serif" font-size="10.00">Cpl::Text::StringItem</text>
</a>
</g>
</g>
<!-- Node4&#45;&gt;Node5 -->
<g id="edge4" class="edge"><title>Node4&#45;&gt;Node5</title>
<path fill="none" stroke="midnightblue" d="M647.818,-147.5C667.645,-147.5 688.854,-147.5 707.405,-147.5"/>
<polygon fill="midnightblue" stroke="midnightblue" points="647.598,-144 637.598,-147.5 647.598,-151 647.598,-144"/>
</g>
<!-- Node6 -->
<g id="node6" class="node"><title>Node6</title>
<g id="a_node6"><a xlink:href="class_cpl_1_1_text_1_1_d_f_string_item.html" target="_top" xlink:title="Cpl::Text::DFStringItem">
<polygon fill="white" stroke="black" points="870,-176 870,-195 989,-195 989,-176 870,-176"/>
<text text-anchor="middle" x="929.5" y="-183" font-family="Helvetica,sans-Serif" font-size="10.00">Cpl::Text::DFStringItem</text>
</a>
</g>
</g>
<!-- Node5&#45;&gt;Node6 -->
<g id="edge5" class="edge"><title>Node5&#45;&gt;Node6</title>
<path fill="none" stroke="midnightblue" d="M813.465,-159.324C837.009,-164.682 864.474,-170.931 886.662,-175.98"/>
<polygon fill="midnightblue" stroke="midnightblue" points="814.168,-155.895 803.641,-157.089 812.615,-162.721 814.168,-155.895"/>
</g>
<!-- Node7 -->
<g id="node7" class="node"><title>Node7</title>
<g id="a_node7"><a xlink:href="class_cpl_1_1_text_1_1_d_string_item.html" target="_top" xlink:title="Cpl::Text::DStringItem">
<polygon fill="white" stroke="black" points="873,-138 873,-157 986,-157 986,-138 873,-138"/>
<text text-anchor="middle" x="929.5" y="-145" font-family="Helvetica,sans-Serif" font-size="10.00">Cpl::Text::DStringItem</text>
</a>
</g>
</g>
<!-- Node5&#45;&gt;Node7 -->
<g id="edge6" class="edge"><title>Node5&#45;&gt;Node7</title>
<path fill="none" stroke="midnightblue" d="M824.198,-147.5C840.175,-147.5 857.238,-147.5 872.837,-147.5"/>
<polygon fill="midnightblue" stroke="midnightblue" points="823.882,-144 813.882,-147.5 823.882,-151 823.882,-144"/>
</g>
<!-- Node8 -->
<g id="node8" class="node"><title>Node8</title>
<g id="a_node8"><a xlink:href="class_cpl_1_1_text_1_1_f_string_item.html" target="_top" xlink:title="Cpl::Text::FStringItem\&lt; S \&gt;">
<polygon fill="white" stroke="black" points="861,-100 861,-119 998,-119 998,-100 861,-100"/>
<text text-anchor="middle" x="929.5" y="-107" font-family="Helvetica,sans-Serif" font-size="10.00">Cpl::Text::FStringItem&lt; S &gt;</text>
</a>
</g>
</g>
<!-- Node5&#45;&gt;Node8 -->
<g id="edge7" class="edge"><title>Node5&#45;&gt;Node8</title>
<path fill="none" stroke="midnightblue" d="M813.465,-135.676C837.009,-130.318 864.474,-124.069 886.662,-119.02"/>
<polygon fill="midnightblue" stroke="midnightblue" points="812.615,-132.279 803.641,-137.911 814.168,-139.105 812.615,-132.279"/>
</g>
<!-- Node10 -->
<g id="node10" class="node"><title>Node10</title>
<g id="a_node10"><a xlink:href="class_cpl_1_1_itc_1_1_response_message.html" target="_top" xlink:title="Cpl::Itc::ResponseMessage\l\&lt; CLIENT, SERVER, PAYLOAD \&gt;">
<polygon fill="white" stroke="black" points="493,-88.5 493,-118.5 660,-118.5 660,-88.5 493,-88.5"/>
<text text-anchor="start" x="501" y="-106.5" font-family="Helvetica,sans-Serif" font-size="10.00">Cpl::Itc::ResponseMessage</text>
<text text-anchor="middle" x="576.5" y="-95.5" font-family="Helvetica,sans-Serif" font-size="10.00">&lt; CLIENT, SERVER, PAYLOAD &gt;</text>
</a>
</g>
</g>
<!-- Node9&#45;&gt;Node10 -->
<g id="edge9" class="edge"><title>Node9&#45;&gt;Node10</title>
<path fill="none" stroke="midnightblue" d="M444.811,-81.0762C459.926,-83.6697 476.615,-86.5332 492.868,-89.3219"/>
<polygon fill="midnightblue" stroke="midnightblue" points="445.071,-77.5697 434.623,-79.3281 443.887,-84.4689 445.071,-77.5697"/>
</g>
<!-- Node11 -->
<g id="node11" class="node"><title>Node11</title>
<g id="a_node11"><a xlink:href="class_cpl_1_1_itc_1_1_service_message.html" target="_top" xlink:title="Cpl::Itc::ServiceMessage">
<polygon fill="white" stroke="black" points="514,-50 514,-69 639,-69 639,-50 514,-50"/>
<text text-anchor="middle" x="576.5" y="-57" font-family="Helvetica,sans-Serif" font-size="10.00">Cpl::Itc::ServiceMessage</text>
</a>
</g>
</g>
<!-- Node9&#45;&gt;Node11 -->
<g id="edge10" class="edge"><title>Node9&#45;&gt;Node11</title>
<path fill="none" stroke="midnightblue" d="M444.692,-67.9166C466.455,-66.5163 491.494,-64.9052 513.802,-63.4699"/>
<polygon fill="midnightblue" stroke="midnightblue" points="444.378,-64.4295 434.623,-68.5645 444.827,-71.4151 444.378,-64.4295"/>
</g>
<!-- Node12 -->
<g id="node12" class="node"><title>Node12</title>
<g id="a_node12"><a xlink:href="class_cpl_1_1_itc_1_1_request_message.html" target="_top" xlink:title="Cpl::Itc::RequestMessage\l\&lt; SERVER, PAYLOAD \&gt;">
<polygon fill="white" stroke="black" points="696,-44.5 696,-74.5 825,-74.5 825,-44.5 696,-44.5"/>
<text text-anchor="start" x="704" y="-62.5" font-family="Helvetica,sans-Serif" font-size="10.00">Cpl::Itc::RequestMessage</text>
<text text-anchor="middle" x="760.5" y="-51.5" font-family="Helvetica,sans-Serif" font-size="10.00">&lt; SERVER, PAYLOAD &gt;</text>
</a>
</g>
</g>
<!-- Node11&#45;&gt;Node12 -->
<g id="edge11" class="edge"><title>Node11&#45;&gt;Node12</title>
<path fill="none" stroke="midnightblue" d="M649.548,-59.5C664.82,-59.5 680.837,-59.5 695.773,-59.5"/>
<polygon fill="midnightblue" stroke="midnightblue" points="649.117,-56.0001 639.117,-59.5 649.117,-63.0001 649.117,-56.0001"/>
</g>
<!-- Node14 -->
<g id="node14" class="node"><title>Node14</title>
<g id="a_node14"><a xlink:href="class_cpl_1_1_timer_1_1_local.html" target="_top" xlink:title="Cpl::Timer::Local\&lt;\l CONTEXT \&gt;">
<polygon fill="white" stroke="black" points="528.5,-0.5 528.5,-30.5 624.5,-30.5 624.5,-0.5 528.5,-0.5"/>
<text text-anchor="start" x="536.5" y="-18.5" font-family="Helvetica,sans-Serif" font-size="10.00">Cpl::Timer::Local&lt;</text>
<text text-anchor="middle" x="576.5" y="-7.5" font-family="Helvetica,sans-Serif" font-size="10.00"> CONTEXT &gt;</text>
</a>
</g>
</g>
<!-- Node13&#45;&gt;Node14 -->
<g id="edge13" class="edge"><title>Node13&#45;&gt;Node14</title>
<path fill="none" stroke="midnightblue" d="M467.207,-24.2099C487.953,-22.5413 509.721,-20.7906 528.253,-19.3"/>
<polygon fill="midnightblue" stroke="midnightblue" points="466.81,-20.7305 457.122,-25.021 467.371,-27.7079 466.81,-20.7305"/>
</g>
</g>
</svg>
