<?xml version="1.0" encoding="UTF-8" standalone="no"?>
<!DOCTYPE svg PUBLIC "-//W3C//DTD SVG 1.1//EN"
 "http://www.w3.org/Graphics/SVG/1.1/DTD/svg11.dtd">
<!-- Generated by graphviz version 2.38.0 (20140413.2041)
 -->
<!-- Title: Cpl::Memory::SPool&lt; T, N &gt; Pages: 1 -->
<svg width="176pt" height="299pt"
 viewBox="0.00 0.00 176.00 299.00" xmlns="http://www.w3.org/2000/svg" xmlns:xlink="http://www.w3.org/1999/xlink">
<g id="graph0" class="graph" transform="scale(1 1) rotate(0) translate(4 295)">
<title>Cpl::Memory::SPool&lt; T, N &gt;</title>
<polygon fill="white" stroke="none" points="-4,4 -4,-295 172,-295 172,4 -4,4"/>
<!-- Node1 -->
<g id="node1" class="node"><title>Node1</title>
<polygon fill="#bfbfbf" stroke="black" points="32,-146.5 32,-176.5 136,-176.5 136,-146.5 32,-146.5"/>
<text text-anchor="start" x="40" y="-164.5" font-family="Helvetica,sans-Serif" font-size="10.00">Cpl::Memory::SPool</text>
<text text-anchor="middle" x="84" y="-153.5" font-family="Helvetica,sans-Serif" font-size="10.00">&lt; T, N &gt;</text>
</g>
<!-- Node4 -->
<g id="node4" class="node"><title>Node4</title>
<g id="a_node4"><a xlink:href="class_cpl_1_1_memory_1_1_s_pool.html" target="_top" xlink:title="Cpl::Memory::SPool\l\&lt; Cpl::Io::Socket::InputOutput, N \&gt;">
<polygon fill="white" stroke="black" points="0,-57.5 0,-87.5 168,-87.5 168,-57.5 0,-57.5"/>
<text text-anchor="start" x="8" y="-75.5" font-family="Helvetica,sans-Serif" font-size="10.00">Cpl::Memory::SPool</text>
<text text-anchor="middle" x="84" y="-64.5" font-family="Helvetica,sans-Serif" font-size="10.00">&lt; Cpl::Io::Socket::InputOutput, N &gt;</text>
</a>
</g>
</g>
<!-- Node1&#45;&gt;Node4 -->
<g id="edge3" class="edge"><title>Node1&#45;&gt;Node4</title>
<path fill="none" stroke="orange" stroke-dasharray="5,2" d="M84,-136.09C84,-120.443 84,-100.685 84,-87.599"/>
<polygon fill="orange" stroke="orange" points="80.5001,-136.134 84,-146.134 87.5001,-136.134 80.5001,-136.134"/>
<text text-anchor="start" x="84" y="-120" font-family="Helvetica,sans-Serif" font-size="10.00"> &lt; Cpl::Io::Socket::</text>
<text text-anchor="middle" x="125.5" y="-109" font-family="Helvetica,sans-Serif" font-size="10.00">InputOutput, N &gt;</text>
</g>
<!-- Node2 -->
<g id="node2" class="node"><title>Node2</title>
<g id="a_node2"><a xlink:href="class_cpl_1_1_memory_1_1_allocator.html" target="_top" xlink:title="Cpl::Memory::Allocator">
<polygon fill="white" stroke="black" points="26,-214.5 26,-233.5 142,-233.5 142,-214.5 26,-214.5"/>
<text text-anchor="middle" x="84" y="-221.5" font-family="Helvetica,sans-Serif" font-size="10.00">Cpl::Memory::Allocator</text>
</a>
</g>
</g>
<!-- Node2&#45;&gt;Node1 -->
<g id="edge1" class="edge"><title>Node2&#45;&gt;Node1</title>
<path fill="none" stroke="midnightblue" d="M84,-204.215C84,-195.356 84,-184.958 84,-176.759"/>
<polygon fill="midnightblue" stroke="midnightblue" points="80.5001,-204.332 84,-214.332 87.5001,-204.332 80.5001,-204.332"/>
</g>
<!-- Node3 -->
<g id="node3" class="node"><title>Node3</title>
<g id="a_node3"><a xlink:href="class_cpl_1_1_container_1_1_item.html" target="_top" xlink:title="Cpl::Container::Item">
<polygon fill="white" stroke="black" points="32.5,-271.5 32.5,-290.5 135.5,-290.5 135.5,-271.5 32.5,-271.5"/>
<text text-anchor="middle" x="84" y="-278.5" font-family="Helvetica,sans-Serif" font-size="10.00">Cpl::Container::Item</text>
</a>
</g>
</g>
<!-- Node3&#45;&gt;Node2 -->
<g id="edge2" class="edge"><title>Node3&#45;&gt;Node2</title>
<path fill="none" stroke="midnightblue" d="M84,-261.117C84,-251.817 84,-241.056 84,-233.715"/>
<polygon fill="midnightblue" stroke="midnightblue" points="80.5001,-261.406 84,-271.406 87.5001,-261.406 80.5001,-261.406"/>
</g>
<!-- Node5 -->
<g id="node5" class="node"><title>Node5</title>
<g id="a_node5"><a xlink:href="class_cpl_1_1_io_1_1_socket_1_1_stream_pool.html" target="_top" xlink:title="Cpl::Io::Socket::StreamPool\&lt; N \&gt;">
<polygon fill="white" stroke="black" points="2.5,-0.5 2.5,-19.5 165.5,-19.5 165.5,-0.5 2.5,-0.5"/>
<text text-anchor="middle" x="84" y="-7.5" font-family="Helvetica,sans-Serif" font-size="10.00">Cpl::Io::Socket::StreamPool&lt; N &gt;</text>
</a>
</g>
</g>
<!-- Node4&#45;&gt;Node5 -->
<g id="edge4" class="edge"><title>Node4&#45;&gt;Node5</title>
<path fill="none" stroke="midnightblue" d="M84,-47.3524C84,-37.5132 84,-26.7753 84,-19.5399"/>
<polygon fill="midnightblue" stroke="midnightblue" points="80.5001,-47.468 84,-57.468 87.5001,-47.4681 80.5001,-47.468"/>
</g>
</g>
</svg>
