<?xml version="1.0" encoding="UTF-8" standalone="no"?>
<!DOCTYPE svg PUBLIC "-//W3C//DTD SVG 1.1//EN"
 "http://www.w3.org/Graphics/SVG/1.1/DTD/svg11.dtd">
<!-- Generated by graphviz version 2.38.0 (20140413.2041)
 -->
<!-- Title: Cpl::Text::FString&lt; S &gt; Pages: 1 -->
<svg width="126pt" height="163pt"
 viewBox="0.00 0.00 126.00 163.00" xmlns="http://www.w3.org/2000/svg" xmlns:xlink="http://www.w3.org/1999/xlink">
<g id="graph0" class="graph" transform="scale(1 1) rotate(0) translate(4 159)">
<title>Cpl::Text::FString&lt; S &gt;</title>
<polygon fill="white" stroke="none" points="-4,4 -4,-159 122,-159 122,4 -4,4"/>
<!-- Node1 -->
<g id="node1" class="node"><title>Node1</title>
<polygon fill="#bfbfbf" stroke="black" points="0,-78.5 0,-97.5 118,-97.5 118,-78.5 0,-78.5"/>
<text text-anchor="middle" x="59" y="-85.5" font-family="Helvetica,sans-Serif" font-size="10.00">Cpl::Text::FString&lt; S &gt;</text>
</g>
<!-- Node3 -->
<g id="node3" class="node"><title>Node3</title>
<g id="a_node3"><a xlink:href="class_cpl_1_1_text_1_1_f_string.html" target="_top" xlink:title="Cpl::Text::FString\l\&lt; 64 \&gt;">
<polygon fill="white" stroke="black" points="12.5,-0.5 12.5,-30.5 105.5,-30.5 105.5,-0.5 12.5,-0.5"/>
<text text-anchor="start" x="20.5" y="-18.5" font-family="Helvetica,sans-Serif" font-size="10.00">Cpl::Text::FString</text>
<text text-anchor="middle" x="59" y="-7.5" font-family="Helvetica,sans-Serif" font-size="10.00">&lt; 64 &gt;</text>
</a>
</g>
</g>
<!-- Node1&#45;&gt;Node3 -->
<g id="edge2" class="edge"><title>Node1&#45;&gt;Node3</title>
<path fill="none" stroke="orange" stroke-dasharray="5,2" d="M59,-68.2362C59,-56.4079 59,-41.3829 59,-30.5762"/>
<polygon fill="orange" stroke="orange" points="55.5001,-68.3553 59,-78.3553 62.5001,-68.3554 55.5001,-68.3553"/>
<text text-anchor="middle" x="75" y="-52" font-family="Helvetica,sans-Serif" font-size="10.00"> &lt; 64 &gt;</text>
</g>
<!-- Node2 -->
<g id="node2" class="node"><title>Node2</title>
<polygon fill="white" stroke="#bfbfbf" points="32.5,-135.5 32.5,-154.5 85.5,-154.5 85.5,-135.5 32.5,-135.5"/>
<text text-anchor="middle" x="59" y="-142.5" font-family="Helvetica,sans-Serif" font-size="10.00">FString_</text>
</g>
<!-- Node2&#45;&gt;Node1 -->
<g id="edge1" class="edge"><title>Node2&#45;&gt;Node1</title>
<path fill="none" stroke="midnightblue" d="M59,-125.117C59,-115.817 59,-105.056 59,-97.7149"/>
<polygon fill="midnightblue" stroke="midnightblue" points="55.5001,-125.406 59,-135.406 62.5001,-125.406 55.5001,-125.406"/>
</g>
</g>
</svg>
