<?xml version="1.0" encoding="UTF-8" standalone="no"?>
<!DOCTYPE svg PUBLIC "-//W3C//DTD SVG 1.1//EN"
 "http://www.w3.org/Graphics/SVG/1.1/DTD/svg11.dtd">
<!-- Generated by graphviz version 2.38.0 (20140413.2041)
 -->
<!-- Title: Cpl::Io::Socket::StreamPool&lt; N &gt; Pages: 1 -->
<svg width="345pt" height="299pt"
 viewBox="0.00 0.00 345.00 299.00" xmlns="http://www.w3.org/2000/svg" xmlns:xlink="http://www.w3.org/1999/xlink">
<g id="graph0" class="graph" transform="scale(1 1) rotate(0) translate(4 295)">
<title>Cpl::Io::Socket::StreamPool&lt; N &gt;</title>
<polygon fill="white" stroke="none" points="-4,4 -4,-295 341,-295 341,4 -4,4"/>
<!-- Node1 -->
<g id="node1" class="node"><title>Node1</title>
<polygon fill="#bfbfbf" stroke="black" points="24.5,-0.5 24.5,-19.5 187.5,-19.5 187.5,-0.5 24.5,-0.5"/>
<text text-anchor="middle" x="106" y="-7.5" font-family="Helvetica,sans-Serif" font-size="10.00">Cpl::Io::Socket::StreamPool&lt; N &gt;</text>
</g>
<!-- Node2 -->
<g id="node2" class="node"><title>Node2</title>
<g id="a_node2"><a xlink:href="class_cpl_1_1_io_1_1_socket_1_1_factory.html" target="_top" xlink:title="Cpl::Io::Socket::Factory">
<polygon fill="white" stroke="black" points="0,-63 0,-82 120,-82 120,-63 0,-63"/>
<text text-anchor="middle" x="60" y="-70" font-family="Helvetica,sans-Serif" font-size="10.00">Cpl::Io::Socket::Factory</text>
</a>
</g>
</g>
<!-- Node2&#45;&gt;Node1 -->
<g id="edge1" class="edge"><title>Node2&#45;&gt;Node1</title>
<path fill="none" stroke="midnightblue" d="M72.8818,-54.5577C81.5161,-43.2017 92.5264,-28.7207 99.4215,-19.6521"/>
<polygon fill="midnightblue" stroke="midnightblue" points="69.8571,-52.7531 66.5907,-62.8318 75.4293,-56.9898 69.8571,-52.7531"/>
</g>
<!-- Node3 -->
<g id="node3" class="node"><title>Node3</title>
<g id="a_node3"><a xlink:href="class_cpl_1_1_memory_1_1_s_pool.html" target="_top" xlink:title="Cpl::Memory::SPool\l\&lt; Cpl::Io::Socket::InputOutput, N \&gt;">
<polygon fill="white" stroke="black" points="138,-57.5 138,-87.5 306,-87.5 306,-57.5 138,-57.5"/>
<text text-anchor="start" x="146" y="-75.5" font-family="Helvetica,sans-Serif" font-size="10.00">Cpl::Memory::SPool</text>
<text text-anchor="middle" x="222" y="-64.5" font-family="Helvetica,sans-Serif" font-size="10.00">&lt; Cpl::Io::Socket::InputOutput, N &gt;</text>
</a>
</g>
</g>
<!-- Node3&#45;&gt;Node1 -->
<g id="edge2" class="edge"><title>Node3&#45;&gt;Node1</title>
<path fill="none" stroke="midnightblue" d="M186.003,-52.7259C164.734,-41.6328 138.83,-28.1224 122.374,-19.5399"/>
<polygon fill="midnightblue" stroke="midnightblue" points="184.611,-55.9469 195.096,-57.468 187.848,-49.7403 184.611,-55.9469"/>
</g>
<!-- Node4 -->
<g id="node4" class="node"><title>Node4</title>
<g id="a_node4"><a xlink:href="class_cpl_1_1_memory_1_1_allocator.html" target="_top" xlink:title="Cpl::Memory::Allocator">
<polygon fill="white" stroke="black" points="148,-214.5 148,-233.5 264,-233.5 264,-214.5 148,-214.5"/>
<text text-anchor="middle" x="206" y="-221.5" font-family="Helvetica,sans-Serif" font-size="10.00">Cpl::Memory::Allocator</text>
</a>
</g>
</g>
<!-- Node4&#45;&gt;Node3 -->
<g id="edge3" class="edge"><title>Node4&#45;&gt;Node3</title>
<path fill="none" stroke="midnightblue" d="M207.547,-204.066C208.863,-188.469 210.874,-165.782 213,-146 215.182,-125.697 218.18,-102.256 220.103,-87.6541"/>
<polygon fill="midnightblue" stroke="midnightblue" points="204.025,-204.19 206.685,-214.445 211.001,-204.769 204.025,-204.19"/>
</g>
<!-- Node6 -->
<g id="node6" class="node"><title>Node6</title>
<g id="a_node6"><a xlink:href="class_cpl_1_1_memory_1_1_s_pool.html" target="_top" xlink:title="Cpl::Memory::SPool\l\&lt; T, N \&gt;">
<polygon fill="white" stroke="black" points="222,-146.5 222,-176.5 326,-176.5 326,-146.5 222,-146.5"/>
<text text-anchor="start" x="230" y="-164.5" font-family="Helvetica,sans-Serif" font-size="10.00">Cpl::Memory::SPool</text>
<text text-anchor="middle" x="274" y="-153.5" font-family="Helvetica,sans-Serif" font-size="10.00">&lt; T, N &gt;</text>
</a>
</g>
</g>
<!-- Node4&#45;&gt;Node6 -->
<g id="edge6" class="edge"><title>Node4&#45;&gt;Node6</title>
<path fill="none" stroke="midnightblue" d="M223.287,-207.62C234.045,-198.048 247.775,-185.832 258.235,-176.526"/>
<polygon fill="midnightblue" stroke="midnightblue" points="220.887,-205.07 215.743,-214.332 225.54,-210.3 220.887,-205.07"/>
</g>
<!-- Node5 -->
<g id="node5" class="node"><title>Node5</title>
<g id="a_node5"><a xlink:href="class_cpl_1_1_container_1_1_item.html" target="_top" xlink:title="Cpl::Container::Item">
<polygon fill="white" stroke="black" points="154.5,-271.5 154.5,-290.5 257.5,-290.5 257.5,-271.5 154.5,-271.5"/>
<text text-anchor="middle" x="206" y="-278.5" font-family="Helvetica,sans-Serif" font-size="10.00">Cpl::Container::Item</text>
</a>
</g>
</g>
<!-- Node5&#45;&gt;Node4 -->
<g id="edge4" class="edge"><title>Node5&#45;&gt;Node4</title>
<path fill="none" stroke="midnightblue" d="M206,-261.117C206,-251.817 206,-241.056 206,-233.715"/>
<polygon fill="midnightblue" stroke="midnightblue" points="202.5,-261.406 206,-271.406 209.5,-261.406 202.5,-261.406"/>
</g>
<!-- Node6&#45;&gt;Node3 -->
<g id="edge5" class="edge"><title>Node6&#45;&gt;Node3</title>
<path fill="none" stroke="orange" stroke-dasharray="5,2" d="M260.213,-137.434C250.742,-121.588 238.474,-101.062 230.427,-87.599"/>
<polygon fill="orange" stroke="orange" points="257.278,-139.346 265.413,-146.134 263.287,-135.754 257.278,-139.346"/>
<text text-anchor="start" x="254" y="-120" font-family="Helvetica,sans-Serif" font-size="10.00"> &lt; Cpl::Io::Socket::</text>
<text text-anchor="middle" x="295.5" y="-109" font-family="Helvetica,sans-Serif" font-size="10.00">InputOutput, N &gt;</text>
</g>
</g>
</svg>
