<?xml version="1.0" encoding="UTF-8" standalone="no"?>
<!DOCTYPE svg PUBLIC "-//W3C//DTD SVG 1.1//EN"
 "http://www.w3.org/Graphics/SVG/1.1/DTD/svg11.dtd">
<!-- Generated by graphviz version 2.38.0 (20140413.2041)
 -->
<!-- Title: Cpl::Text::StringItem Pages: 1 -->
<svg width="260pt" height="266pt"
 viewBox="0.00 0.00 259.50 266.00" xmlns="http://www.w3.org/2000/svg" xmlns:xlink="http://www.w3.org/1999/xlink">
<g id="graph0" class="graph" transform="scale(1 1) rotate(0) translate(4 262)">
<title>Cpl::Text::StringItem</title>
<polygon fill="white" stroke="none" points="-4,4 -4,-262 255.5,-262 255.5,4 -4,4"/>
<!-- Node1 -->
<g id="node1" class="node"><title>Node1</title>
<polygon fill="#bfbfbf" stroke="black" points="95,-0.5 95,-19.5 201,-19.5 201,-0.5 95,-0.5"/>
<text text-anchor="middle" x="148" y="-7.5" font-family="Helvetica,sans-Serif" font-size="10.00">Cpl::Text::StringItem</text>
</g>
<!-- Node2 -->
<g id="node2" class="node"><title>Node2</title>
<g id="a_node2"><a xlink:href="class_cpl_1_1_container_1_1_map_item.html" target="_top" xlink:title="Cpl::Container::MapItem">
<polygon fill="white" stroke="black" points="13,-67.5 13,-86.5 135,-86.5 135,-67.5 13,-67.5"/>
<text text-anchor="middle" x="74" y="-74.5" font-family="Helvetica,sans-Serif" font-size="10.00">Cpl::Container::MapItem</text>
</a>
</g>
</g>
<!-- Node2&#45;&gt;Node1 -->
<g id="edge1" class="edge"><title>Node2&#45;&gt;Node1</title>
<path fill="none" stroke="midnightblue" d="M91.8097,-60.3564C106.358,-47.5777 126.379,-29.9915 138.178,-19.6273"/>
<polygon fill="midnightblue" stroke="midnightblue" points="89.1834,-58.0047 83.98,-67.2338 93.803,-63.264 89.1834,-58.0047"/>
</g>
<!-- Node3 -->
<g id="node3" class="node"><title>Node3</title>
<g id="a_node3"><a xlink:href="class_cpl_1_1_container_1_1_dict_item.html" target="_top" xlink:title="Cpl::Container::DictItem">
<polygon fill="white" stroke="black" points="12,-124.5 12,-143.5 132,-143.5 132,-124.5 12,-124.5"/>
<text text-anchor="middle" x="72" y="-131.5" font-family="Helvetica,sans-Serif" font-size="10.00">Cpl::Container::DictItem</text>
</a>
</g>
</g>
<!-- Node3&#45;&gt;Node2 -->
<g id="edge2" class="edge"><title>Node3&#45;&gt;Node2</title>
<path fill="none" stroke="midnightblue" d="M72.6867,-114.117C73.0248,-104.817 73.4162,-94.0557 73.6831,-86.7149"/>
<polygon fill="midnightblue" stroke="midnightblue" points="69.1783,-114.286 72.3125,-124.406 76.1737,-114.54 69.1783,-114.286"/>
</g>
<!-- Node4 -->
<g id="node4" class="node"><title>Node4</title>
<g id="a_node4"><a xlink:href="class_cpl_1_1_container_1_1_extended_item.html" target="_top" xlink:title="Cpl::Container::ExtendedItem">
<polygon fill="white" stroke="black" points="0,-181.5 0,-200.5 144,-200.5 144,-181.5 0,-181.5"/>
<text text-anchor="middle" x="72" y="-188.5" font-family="Helvetica,sans-Serif" font-size="10.00">Cpl::Container::ExtendedItem</text>
</a>
</g>
</g>
<!-- Node4&#45;&gt;Node3 -->
<g id="edge3" class="edge"><title>Node4&#45;&gt;Node3</title>
<path fill="none" stroke="midnightblue" d="M72,-171.117C72,-161.817 72,-151.056 72,-143.715"/>
<polygon fill="midnightblue" stroke="midnightblue" points="68.5001,-171.406 72,-181.406 75.5001,-171.406 68.5001,-171.406"/>
</g>
<!-- Node5 -->
<g id="node5" class="node"><title>Node5</title>
<g id="a_node5"><a xlink:href="class_cpl_1_1_container_1_1_item.html" target="_top" xlink:title="Cpl::Container::Item">
<polygon fill="white" stroke="black" points="20.5,-238.5 20.5,-257.5 123.5,-257.5 123.5,-238.5 20.5,-238.5"/>
<text text-anchor="middle" x="72" y="-245.5" font-family="Helvetica,sans-Serif" font-size="10.00">Cpl::Container::Item</text>
</a>
</g>
</g>
<!-- Node5&#45;&gt;Node4 -->
<g id="edge4" class="edge"><title>Node5&#45;&gt;Node4</title>
<path fill="none" stroke="midnightblue" d="M72,-228.117C72,-218.817 72,-208.056 72,-200.715"/>
<polygon fill="midnightblue" stroke="midnightblue" points="68.5001,-228.406 72,-238.406 75.5001,-228.406 68.5001,-228.406"/>
</g>
<!-- Node6 -->
<g id="node6" class="node"><title>Node6</title>
<g id="a_node6"><a xlink:href="class_cpl_1_1_text_1_1_string.html" target="_top" xlink:title="Cpl::Text::String">
<polygon fill="white" stroke="black" points="156.5,-67.5 156.5,-86.5 243.5,-86.5 243.5,-67.5 156.5,-67.5"/>
<text text-anchor="middle" x="200" y="-74.5" font-family="Helvetica,sans-Serif" font-size="10.00">Cpl::Text::String</text>
</a>
</g>
</g>
<!-- Node6&#45;&gt;Node1 -->
<g id="edge5" class="edge"><title>Node6&#45;&gt;Node1</title>
<path fill="none" stroke="#9a32cd" stroke-dasharray="5,2" d="M186.616,-59.2705C176.478,-46.5972 162.961,-29.701 154.902,-19.6273"/>
<polygon fill="#9a32cd" stroke="#9a32cd" points="184.007,-61.6115 192.987,-67.2338 189.473,-57.2387 184.007,-61.6115"/>
<text text-anchor="middle" x="206" y="-41" font-family="Helvetica,sans-Serif" font-size="10.00"> m_myString</text>
</g>
<!-- Node7 -->
<g id="node7" class="node"><title>Node7</title>
<g id="a_node7"><a xlink:href="class_cpl_1_1_container_1_1_key.html" target="_top" xlink:title="Cpl::Container::Key">
<polygon fill="white" stroke="black" points="150.5,-124.5 150.5,-143.5 251.5,-143.5 251.5,-124.5 150.5,-124.5"/>
<text text-anchor="middle" x="201" y="-131.5" font-family="Helvetica,sans-Serif" font-size="10.00">Cpl::Container::Key</text>
</a>
</g>
</g>
<!-- Node7&#45;&gt;Node6 -->
<g id="edge6" class="edge"><title>Node7&#45;&gt;Node6</title>
<path fill="none" stroke="midnightblue" d="M200.657,-114.117C200.488,-104.817 200.292,-94.0557 200.158,-86.7149"/>
<polygon fill="midnightblue" stroke="midnightblue" points="197.162,-114.472 200.844,-124.406 204.161,-114.344 197.162,-114.472"/>
</g>
</g>
</svg>
