<?xml version="1.0" encoding="UTF-8" standalone="no"?>
<!DOCTYPE svg PUBLIC "-//W3C//DTD SVG 1.1//EN"
 "http://www.w3.org/Graphics/SVG/1.1/DTD/svg11.dtd">
<!-- Generated by graphviz version 2.38.0 (20140413.2041)
 -->
<!-- Title: Cpl::Io::File::InputApi Pages: 1 -->
<svg width="256pt" height="308pt"
 viewBox="0.00 0.00 256.00 308.00" xmlns="http://www.w3.org/2000/svg" xmlns:xlink="http://www.w3.org/1999/xlink">
<g id="graph0" class="graph" transform="scale(1 1) rotate(0) translate(4 304)">
<title>Cpl::Io::File::InputApi</title>
<polygon fill="white" stroke="none" points="-4,4 -4,-304 252,-304 252,4 -4,4"/>
<!-- Node1 -->
<g id="node1" class="node"><title>Node1</title>
<polygon fill="#bfbfbf" stroke="black" points="59,-112.5 59,-131.5 166,-131.5 166,-112.5 59,-112.5"/>
<text text-anchor="middle" x="112.5" y="-119.5" font-family="Helvetica,sans-Serif" font-size="10.00">Cpl::Io::File::InputApi</text>
</g>
<!-- Node6 -->
<g id="node6" class="node"><title>Node6</title>
<g id="a_node6"><a xlink:href="class_cpl_1_1_io_1_1_file_1_1_input.html" target="_top" xlink:title="Cpl::Io::File::Input">
<polygon fill="white" stroke="black" points="0,-56.5 0,-75.5 93,-75.5 93,-56.5 0,-56.5"/>
<text text-anchor="middle" x="46.5" y="-63.5" font-family="Helvetica,sans-Serif" font-size="10.00">Cpl::Io::File::Input</text>
</a>
</g>
</g>
<!-- Node1&#45;&gt;Node6 -->
<g id="edge5" class="edge"><title>Node1&#45;&gt;Node6</title>
<path fill="none" stroke="midnightblue" d="M93.9463,-105.82C82.1219,-96.1452 67.2144,-83.9481 57.297,-75.8339"/>
<polygon fill="midnightblue" stroke="midnightblue" points="91.94,-108.7 101.896,-112.324 96.3727,-103.283 91.94,-108.7"/>
</g>
<!-- Node7 -->
<g id="node7" class="node"><title>Node7</title>
<g id="a_node7"><a xlink:href="class_cpl_1_1_io_1_1_file_1_1_input_output_api.html" target="_top" xlink:title="Cpl::Io::File::InputOutputApi">
<polygon fill="white" stroke="black" points="111,-56.5 111,-75.5 248,-75.5 248,-56.5 111,-56.5"/>
<text text-anchor="middle" x="179.5" y="-63.5" font-family="Helvetica,sans-Serif" font-size="10.00">Cpl::Io::File::InputOutputApi</text>
</a>
</g>
</g>
<!-- Node1&#45;&gt;Node7 -->
<g id="edge6" class="edge"><title>Node1&#45;&gt;Node7</title>
<path fill="none" stroke="midnightblue" d="M131.335,-105.82C143.338,-96.1452 158.472,-83.9481 168.539,-75.8339"/>
<polygon fill="midnightblue" stroke="midnightblue" points="128.854,-103.324 123.265,-112.324 133.247,-108.774 128.854,-103.324"/>
</g>
<!-- Node2 -->
<g id="node2" class="node"><title>Node2</title>
<g id="a_node2"><a xlink:href="class_cpl_1_1_io_1_1_input.html" target="_top" xlink:title="Cpl::Io::Input">
<polygon fill="white" stroke="black" points="22,-168.5 22,-187.5 93,-187.5 93,-168.5 22,-168.5"/>
<text text-anchor="middle" x="57.5" y="-175.5" font-family="Helvetica,sans-Serif" font-size="10.00">Cpl::Io::Input</text>
</a>
</g>
</g>
<!-- Node2&#45;&gt;Node1 -->
<g id="edge1" class="edge"><title>Node2&#45;&gt;Node1</title>
<path fill="none" stroke="midnightblue" d="M73.7938,-161.002C83.5406,-151.433 95.553,-139.639 103.587,-131.751"/>
<polygon fill="midnightblue" stroke="midnightblue" points="71.2657,-158.58 66.5821,-168.083 76.1699,-163.575 71.2657,-158.58"/>
</g>
<!-- Node3 -->
<g id="node3" class="node"><title>Node3</title>
<g id="a_node3"><a xlink:href="class_cpl_1_1_io_1_1_close.html" target="_top" xlink:title="Cpl::Io::Close">
<polygon fill="white" stroke="black" points="20,-224.5 20,-243.5 95,-243.5 95,-224.5 20,-224.5"/>
<text text-anchor="middle" x="57.5" y="-231.5" font-family="Helvetica,sans-Serif" font-size="10.00">Cpl::Io::Close</text>
</a>
</g>
</g>
<!-- Node3&#45;&gt;Node2 -->
<g id="edge2" class="edge"><title>Node3&#45;&gt;Node2</title>
<path fill="none" stroke="midnightblue" d="M57.5,-213.805C57.5,-204.91 57.5,-194.78 57.5,-187.751"/>
<polygon fill="midnightblue" stroke="midnightblue" points="54.0001,-214.083 57.5,-224.083 61.0001,-214.083 54.0001,-214.083"/>
</g>
<!-- Node4 -->
<g id="node4" class="node"><title>Node4</title>
<g id="a_node4"><a xlink:href="class_cpl_1_1_container_1_1_item.html" target="_top" xlink:title="Cpl::Container::Item">
<polygon fill="white" stroke="black" points="6,-280.5 6,-299.5 109,-299.5 109,-280.5 6,-280.5"/>
<text text-anchor="middle" x="57.5" y="-287.5" font-family="Helvetica,sans-Serif" font-size="10.00">Cpl::Container::Item</text>
</a>
</g>
</g>
<!-- Node4&#45;&gt;Node3 -->
<g id="edge3" class="edge"><title>Node4&#45;&gt;Node3</title>
<path fill="none" stroke="midnightblue" d="M57.5,-269.805C57.5,-260.91 57.5,-250.78 57.5,-243.751"/>
<polygon fill="midnightblue" stroke="midnightblue" points="54.0001,-270.083 57.5,-280.083 61.0001,-270.083 54.0001,-270.083"/>
</g>
<!-- Node5 -->
<g id="node5" class="node"><title>Node5</title>
<g id="a_node5"><a xlink:href="class_cpl_1_1_io_1_1_file_1_1_object_api.html" target="_top" xlink:title="Cpl::Io::File::ObjectApi">
<polygon fill="white" stroke="black" points="111,-168.5 111,-187.5 226,-187.5 226,-168.5 111,-168.5"/>
<text text-anchor="middle" x="168.5" y="-175.5" font-family="Helvetica,sans-Serif" font-size="10.00">Cpl::Io::File::ObjectApi</text>
</a>
</g>
</g>
<!-- Node5&#45;&gt;Node1 -->
<g id="edge4" class="edge"><title>Node5&#45;&gt;Node1</title>
<path fill="none" stroke="#8b1a1a" d="M152.17,-161.253C142.235,-151.673 129.912,-139.791 121.661,-131.834"/>
<polygon fill="#8b1a1a" stroke="#8b1a1a" points="149.875,-163.902 159.503,-168.324 154.734,-158.863 149.875,-163.902"/>
</g>
<!-- Node8 -->
<g id="node8" class="node"><title>Node8</title>
<g id="a_node8"><a xlink:href="class_cpl_1_1_io_1_1_file_1_1_input_output.html" target="_top" xlink:title="Cpl::Io::File::InputOutput">
<polygon fill="white" stroke="black" points="118.5,-0.5 118.5,-19.5 240.5,-19.5 240.5,-0.5 118.5,-0.5"/>
<text text-anchor="middle" x="179.5" y="-7.5" font-family="Helvetica,sans-Serif" font-size="10.00">Cpl::Io::File::InputOutput</text>
</a>
</g>
</g>
<!-- Node7&#45;&gt;Node8 -->
<g id="edge7" class="edge"><title>Node7&#45;&gt;Node8</title>
<path fill="none" stroke="midnightblue" d="M179.5,-45.8045C179.5,-36.9102 179.5,-26.7798 179.5,-19.7511"/>
<polygon fill="midnightblue" stroke="midnightblue" points="176,-46.083 179.5,-56.083 183,-46.083 176,-46.083"/>
</g>
</g>
</svg>
