<?xml version="1.0" encoding="UTF-8" standalone="no"?>
<!DOCTYPE svg PUBLIC "-//W3C//DTD SVG 1.1//EN"
 "http://www.w3.org/Graphics/SVG/1.1/DTD/svg11.dtd">
<!-- Generated by graphviz version 2.38.0 (20140413.2041)
 -->
<!-- Title: Cpl::Io::AtomicOutput&lt; CONTEXT &gt; Pages: 1 -->
<svg width="335pt" height="288pt"
 viewBox="0.00 0.00 334.50 288.00" xmlns="http://www.w3.org/2000/svg" xmlns:xlink="http://www.w3.org/1999/xlink">
<g id="graph0" class="graph" transform="scale(1 1) rotate(0) translate(4 284)">
<title>Cpl::Io::AtomicOutput&lt; CONTEXT &gt;</title>
<polygon fill="white" stroke="none" points="-4,4 -4,-284 330.5,-284 330.5,4 -4,4"/>
<!-- Node1 -->
<g id="node1" class="node"><title>Node1</title>
<polygon fill="#bfbfbf" stroke="black" points="86.5,-0.5 86.5,-30.5 196.5,-30.5 196.5,-0.5 86.5,-0.5"/>
<text text-anchor="start" x="94.5" y="-18.5" font-family="Helvetica,sans-Serif" font-size="10.00">Cpl::Io::AtomicOutput</text>
<text text-anchor="middle" x="141.5" y="-7.5" font-family="Helvetica,sans-Serif" font-size="10.00">&lt; CONTEXT &gt;</text>
</g>
<!-- Node2 -->
<g id="node2" class="node"><title>Node2</title>
<g id="a_node2"><a xlink:href="class_cpl_1_1_io_1_1_atomic_output_api.html" target="_top" xlink:title="Cpl::Io::AtomicOutputApi\l\&lt; CONTEXT \&gt;">
<polygon fill="white" stroke="black" points="79,-78.5 79,-108.5 204,-108.5 204,-78.5 79,-78.5"/>
<text text-anchor="start" x="87" y="-96.5" font-family="Helvetica,sans-Serif" font-size="10.00">Cpl::Io::AtomicOutputApi</text>
<text text-anchor="middle" x="141.5" y="-85.5" font-family="Helvetica,sans-Serif" font-size="10.00">&lt; CONTEXT &gt;</text>
</a>
</g>
</g>
<!-- Node2&#45;&gt;Node1 -->
<g id="edge1" class="edge"><title>Node2&#45;&gt;Node1</title>
<path fill="none" stroke="midnightblue" d="M141.5,-68.0898C141.5,-55.7565 141.5,-41.2237 141.5,-30.7309"/>
<polygon fill="midnightblue" stroke="midnightblue" points="138,-68.2049 141.5,-78.205 145,-68.205 138,-68.2049"/>
</g>
<!-- Node3 -->
<g id="node3" class="node"><title>Node3</title>
<g id="a_node3"><a xlink:href="class_cpl_1_1_io_1_1_output.html" target="_top" xlink:title="Cpl::Io::Output">
<polygon fill="white" stroke="black" points="11.5,-146.5 11.5,-165.5 91.5,-165.5 91.5,-146.5 11.5,-146.5"/>
<text text-anchor="middle" x="51.5" y="-153.5" font-family="Helvetica,sans-Serif" font-size="10.00">Cpl::Io::Output</text>
</a>
</g>
</g>
<!-- Node3&#45;&gt;Node1 -->
<g id="edge6" class="edge"><title>Node3&#45;&gt;Node1</title>
<path fill="none" stroke="#9a32cd" stroke-dasharray="5,2" d="M36.9899,-138.454C24.6699,-122.287 10.7164,-97.3541 22.5,-78 36.7103,-54.6603 62.9453,-39.7897 87.1731,-30.5307"/>
<polygon fill="#9a32cd" stroke="#9a32cd" points="34.4652,-140.897 43.4924,-146.443 39.8942,-136.478 34.4652,-140.897"/>
<text text-anchor="middle" x="46" y="-91" font-family="Helvetica,sans-Serif" font-size="10.00"> m_stream</text>
</g>
<!-- Node3&#45;&gt;Node2 -->
<g id="edge2" class="edge"><title>Node3&#45;&gt;Node2</title>
<path fill="none" stroke="midnightblue" d="M72.7234,-140.733C87.187,-131.01 106.248,-118.197 120.635,-108.526"/>
<polygon fill="midnightblue" stroke="midnightblue" points="70.7414,-137.848 64.3948,-146.332 74.6466,-143.658 70.7414,-137.848"/>
</g>
<!-- Node4 -->
<g id="node4" class="node"><title>Node4</title>
<g id="a_node4"><a xlink:href="class_cpl_1_1_io_1_1_close.html" target="_top" xlink:title="Cpl::Io::Close">
<polygon fill="white" stroke="black" points="14,-203.5 14,-222.5 89,-222.5 89,-203.5 14,-203.5"/>
<text text-anchor="middle" x="51.5" y="-210.5" font-family="Helvetica,sans-Serif" font-size="10.00">Cpl::Io::Close</text>
</a>
</g>
</g>
<!-- Node4&#45;&gt;Node3 -->
<g id="edge3" class="edge"><title>Node4&#45;&gt;Node3</title>
<path fill="none" stroke="midnightblue" d="M51.5,-193.117C51.5,-183.817 51.5,-173.056 51.5,-165.715"/>
<polygon fill="midnightblue" stroke="midnightblue" points="48.0001,-193.406 51.5,-203.406 55.0001,-193.406 48.0001,-193.406"/>
</g>
<!-- Node5 -->
<g id="node5" class="node"><title>Node5</title>
<g id="a_node5"><a xlink:href="class_cpl_1_1_container_1_1_item.html" target="_top" xlink:title="Cpl::Container::Item">
<polygon fill="white" stroke="black" points="0,-260.5 0,-279.5 103,-279.5 103,-260.5 0,-260.5"/>
<text text-anchor="middle" x="51.5" y="-267.5" font-family="Helvetica,sans-Serif" font-size="10.00">Cpl::Container::Item</text>
</a>
</g>
</g>
<!-- Node5&#45;&gt;Node4 -->
<g id="edge4" class="edge"><title>Node5&#45;&gt;Node4</title>
<path fill="none" stroke="midnightblue" d="M51.5,-250.117C51.5,-240.817 51.5,-230.056 51.5,-222.715"/>
<polygon fill="midnightblue" stroke="midnightblue" points="48.0001,-250.406 51.5,-260.406 55.0001,-250.406 48.0001,-250.406"/>
</g>
<!-- Node6 -->
<g id="node6" class="node"><title>Node6</title>
<g id="a_node6"><a xlink:href="class_cpl_1_1_system_1_1_mutex.html" target="_top" xlink:title="Cpl::System::Mutex">
<polygon fill="white" stroke="black" points="222.5,-84 222.5,-103 326.5,-103 326.5,-84 222.5,-84"/>
<text text-anchor="middle" x="274.5" y="-91" font-family="Helvetica,sans-Serif" font-size="10.00">Cpl::System::Mutex</text>
</a>
</g>
</g>
<!-- Node6&#45;&gt;Node1 -->
<g id="edge5" class="edge"><title>Node6&#45;&gt;Node1</title>
<path fill="none" stroke="#9a32cd" stroke-dasharray="5,2" d="M250.734,-78.9196C226.881,-65.2893 190.302,-44.3868 166.143,-30.5815"/>
<polygon fill="#9a32cd" stroke="#9a32cd" points="249.083,-82.007 259.502,-83.9296 252.556,-75.9293 249.083,-82.007"/>
<text text-anchor="middle" x="234" y="-52" font-family="Helvetica,sans-Serif" font-size="10.00"> m_lock</text>
</g>
</g>
</svg>
