<?xml version="1.0" encoding="UTF-8" standalone="no"?>
<!DOCTYPE svg PUBLIC "-//W3C//DTD SVG 1.1//EN"
 "http://www.w3.org/Graphics/SVG/1.1/DTD/svg11.dtd">
<!-- Generated by graphviz version 2.38.0 (20140413.2041)
 -->
<!-- Title: Cpl::Text::DStringItem Pages: 1 -->
<svg width="354pt" height="333pt"
 viewBox="0.00 0.00 354.00 333.00" xmlns="http://www.w3.org/2000/svg" xmlns:xlink="http://www.w3.org/1999/xlink">
<g id="graph0" class="graph" transform="scale(1 1) rotate(0) translate(4 329)">
<title>Cpl::Text::DStringItem</title>
<polygon fill="white" stroke="none" points="-4,4 -4,-329 350,-329 350,4 -4,4"/>
<!-- Node1 -->
<g id="node1" class="node"><title>Node1</title>
<polygon fill="#bfbfbf" stroke="black" points="187.5,-0.5 187.5,-19.5 300.5,-19.5 300.5,-0.5 187.5,-0.5"/>
<text text-anchor="middle" x="244" y="-7.5" font-family="Helvetica,sans-Serif" font-size="10.00">Cpl::Text::DStringItem</text>
</g>
<!-- Node2 -->
<g id="node2" class="node"><title>Node2</title>
<g id="a_node2"><a xlink:href="class_cpl_1_1_text_1_1_string_item.html" target="_top" xlink:title="Cpl::Text::StringItem">
<polygon fill="white" stroke="black" points="122,-67.5 122,-86.5 228,-86.5 228,-67.5 122,-67.5"/>
<text text-anchor="middle" x="175" y="-74.5" font-family="Helvetica,sans-Serif" font-size="10.00">Cpl::Text::StringItem</text>
</a>
</g>
</g>
<!-- Node2&#45;&gt;Node1 -->
<g id="edge1" class="edge"><title>Node2&#45;&gt;Node1</title>
<path fill="none" stroke="midnightblue" d="M191.606,-60.3564C205.171,-47.5777 223.84,-29.9915 234.842,-19.6273"/>
<polygon fill="midnightblue" stroke="midnightblue" points="189.185,-57.8292 184.306,-67.2338 193.985,-62.9245 189.185,-57.8292"/>
</g>
<!-- Node3 -->
<g id="node3" class="node"><title>Node3</title>
<g id="a_node3"><a xlink:href="class_cpl_1_1_container_1_1_map_item.html" target="_top" xlink:title="Cpl::Container::MapItem">
<polygon fill="white" stroke="black" points="15,-134.5 15,-153.5 137,-153.5 137,-134.5 15,-134.5"/>
<text text-anchor="middle" x="76" y="-141.5" font-family="Helvetica,sans-Serif" font-size="10.00">Cpl::Container::MapItem</text>
</a>
</g>
</g>
<!-- Node3&#45;&gt;Node2 -->
<g id="edge2" class="edge"><title>Node3&#45;&gt;Node2</title>
<path fill="none" stroke="midnightblue" d="M97.9407,-128.595C117.525,-115.736 145.558,-97.3306 161.86,-86.6273"/>
<polygon fill="midnightblue" stroke="midnightblue" points="95.7899,-125.82 89.3516,-134.234 99.6318,-131.671 95.7899,-125.82"/>
</g>
<!-- Node4 -->
<g id="node4" class="node"><title>Node4</title>
<g id="a_node4"><a xlink:href="class_cpl_1_1_container_1_1_dict_item.html" target="_top" xlink:title="Cpl::Container::DictItem">
<polygon fill="white" stroke="black" points="12,-191.5 12,-210.5 132,-210.5 132,-191.5 12,-191.5"/>
<text text-anchor="middle" x="72" y="-198.5" font-family="Helvetica,sans-Serif" font-size="10.00">Cpl::Container::DictItem</text>
</a>
</g>
</g>
<!-- Node4&#45;&gt;Node3 -->
<g id="edge3" class="edge"><title>Node4&#45;&gt;Node3</title>
<path fill="none" stroke="midnightblue" d="M73.3511,-181.423C74.0324,-172.054 74.8264,-161.136 75.3662,-153.715"/>
<polygon fill="midnightblue" stroke="midnightblue" points="69.8597,-181.179 72.625,-191.406 76.8412,-181.686 69.8597,-181.179"/>
</g>
<!-- Node5 -->
<g id="node5" class="node"><title>Node5</title>
<g id="a_node5"><a xlink:href="class_cpl_1_1_container_1_1_extended_item.html" target="_top" xlink:title="Cpl::Container::ExtendedItem">
<polygon fill="white" stroke="black" points="0,-248.5 0,-267.5 144,-267.5 144,-248.5 0,-248.5"/>
<text text-anchor="middle" x="72" y="-255.5" font-family="Helvetica,sans-Serif" font-size="10.00">Cpl::Container::ExtendedItem</text>
</a>
</g>
</g>
<!-- Node5&#45;&gt;Node4 -->
<g id="edge4" class="edge"><title>Node5&#45;&gt;Node4</title>
<path fill="none" stroke="midnightblue" d="M72,-238.117C72,-228.817 72,-218.056 72,-210.715"/>
<polygon fill="midnightblue" stroke="midnightblue" points="68.5001,-238.406 72,-248.406 75.5001,-238.406 68.5001,-238.406"/>
</g>
<!-- Node6 -->
<g id="node6" class="node"><title>Node6</title>
<g id="a_node6"><a xlink:href="class_cpl_1_1_container_1_1_item.html" target="_top" xlink:title="Cpl::Container::Item">
<polygon fill="white" stroke="black" points="20.5,-305.5 20.5,-324.5 123.5,-324.5 123.5,-305.5 20.5,-305.5"/>
<text text-anchor="middle" x="72" y="-312.5" font-family="Helvetica,sans-Serif" font-size="10.00">Cpl::Container::Item</text>
</a>
</g>
</g>
<!-- Node6&#45;&gt;Node5 -->
<g id="edge5" class="edge"><title>Node6&#45;&gt;Node5</title>
<path fill="none" stroke="midnightblue" d="M72,-295.117C72,-285.817 72,-275.056 72,-267.715"/>
<polygon fill="midnightblue" stroke="midnightblue" points="68.5001,-295.406 72,-305.406 75.5001,-295.406 68.5001,-295.406"/>
</g>
<!-- Node7 -->
<g id="node7" class="node"><title>Node7</title>
<g id="a_node7"><a xlink:href="class_cpl_1_1_text_1_1_string.html" target="_top" xlink:title="Cpl::Text::String">
<polygon fill="white" stroke="black" points="156.5,-134.5 156.5,-153.5 243.5,-153.5 243.5,-134.5 156.5,-134.5"/>
<text text-anchor="middle" x="200" y="-141.5" font-family="Helvetica,sans-Serif" font-size="10.00">Cpl::Text::String</text>
</a>
</g>
</g>
<!-- Node7&#45;&gt;Node2 -->
<g id="edge6" class="edge"><title>Node7&#45;&gt;Node2</title>
<path fill="none" stroke="#9a32cd" stroke-dasharray="5,2" d="M192.996,-124.79C188.195,-112.308 182.044,-96.3135 178.318,-86.6273"/>
<polygon fill="#9a32cd" stroke="#9a32cd" points="189.772,-126.157 196.628,-134.234 196.305,-123.644 189.772,-126.157"/>
<text text-anchor="middle" x="217" y="-108" font-family="Helvetica,sans-Serif" font-size="10.00"> m_myString</text>
</g>
<!-- Node8 -->
<g id="node8" class="node"><title>Node8</title>
<g id="a_node8"><a xlink:href="class_cpl_1_1_container_1_1_key.html" target="_top" xlink:title="Cpl::Container::Key">
<polygon fill="white" stroke="black" points="150.5,-191.5 150.5,-210.5 251.5,-210.5 251.5,-191.5 150.5,-191.5"/>
<text text-anchor="middle" x="201" y="-198.5" font-family="Helvetica,sans-Serif" font-size="10.00">Cpl::Container::Key</text>
</a>
</g>
</g>
<!-- Node8&#45;&gt;Node7 -->
<g id="edge7" class="edge"><title>Node8&#45;&gt;Node7</title>
<path fill="none" stroke="midnightblue" d="M200.657,-181.117C200.488,-171.817 200.292,-161.056 200.158,-153.715"/>
<polygon fill="midnightblue" stroke="midnightblue" points="197.162,-181.472 200.844,-191.406 204.161,-181.344 197.162,-181.472"/>
</g>
<!-- Node9 -->
<g id="node9" class="node"><title>Node9</title>
<g id="a_node9"><a xlink:href="class_cpl_1_1_text_1_1_d_string.html" target="_top" xlink:title="Cpl::Text::DString">
<polygon fill="white" stroke="black" points="246,-67.5 246,-86.5 340,-86.5 340,-67.5 246,-67.5"/>
<text text-anchor="middle" x="293" y="-74.5" font-family="Helvetica,sans-Serif" font-size="10.00">Cpl::Text::DString</text>
</a>
</g>
</g>
<!-- Node9&#45;&gt;Node1 -->
<g id="edge8" class="edge"><title>Node9&#45;&gt;Node1</title>
<path fill="none" stroke="#9a32cd" stroke-dasharray="5,2" d="M280.112,-58.9037C270.59,-46.2729 258.025,-29.6041 250.504,-19.6273"/>
<polygon fill="#9a32cd" stroke="#9a32cd" points="277.577,-61.3554 286.392,-67.2338 283.167,-57.1417 277.577,-61.3554"/>
<text text-anchor="middle" x="309" y="-41" font-family="Helvetica,sans-Serif" font-size="10.00"> m_internalString</text>
</g>
<!-- Node10 -->
<g id="node10" class="node"><title>Node10</title>
<polygon fill="white" stroke="#bfbfbf" points="269.5,-134.5 269.5,-153.5 316.5,-153.5 316.5,-134.5 269.5,-134.5"/>
<text text-anchor="middle" x="293" y="-141.5" font-family="Helvetica,sans-Serif" font-size="10.00">String_</text>
</g>
<!-- Node10&#45;&gt;Node9 -->
<g id="edge9" class="edge"><title>Node10&#45;&gt;Node9</title>
<path fill="none" stroke="midnightblue" d="M293,-124.037C293,-111.67 293,-96.1198 293,-86.6273"/>
<polygon fill="midnightblue" stroke="midnightblue" points="289.5,-124.234 293,-134.234 296.5,-124.234 289.5,-124.234"/>
</g>
</g>
</svg>
