<?xml version="1.0" encoding="UTF-8" standalone="no"?>
<!DOCTYPE svg PUBLIC "-//W3C//DTD SVG 1.1//EN"
 "http://www.w3.org/Graphics/SVG/1.1/DTD/svg11.dtd">
<!-- Generated by graphviz version 2.38.0 (20140413.2041)
 -->
<!-- Title: Cpl::Itc::Mailbox Pages: 1 -->
<svg width="525pt" height="155pt"
 viewBox="0.00 0.00 525.00 155.00" xmlns="http://www.w3.org/2000/svg" xmlns:xlink="http://www.w3.org/1999/xlink">
<g id="graph0" class="graph" transform="scale(1 1) rotate(0) translate(4 151)">
<title>Cpl::Itc::Mailbox</title>
<polygon fill="white" stroke="none" points="-4,4 -4,-151 521,-151 521,4 -4,4"/>
<!-- Node1 -->
<g id="node1" class="node"><title>Node1</title>
<polygon fill="#bfbfbf" stroke="black" points="430,-76.5 430,-95.5 517,-95.5 517,-76.5 430,-76.5"/>
<text text-anchor="middle" x="473.5" y="-83.5" font-family="Helvetica,sans-Serif" font-size="10.00">Cpl::Itc::Mailbox</text>
</g>
<!-- Node2 -->
<g id="node2" class="node"><title>Node2</title>
<g id="a_node2"><a xlink:href="class_cpl_1_1_itc_1_1_post_api.html" target="_top" xlink:title="Cpl::Itc::PostApi">
<polygon fill="white" stroke="black" points="218.5,-127.5 218.5,-146.5 306.5,-146.5 306.5,-127.5 218.5,-127.5"/>
<text text-anchor="middle" x="262.5" y="-134.5" font-family="Helvetica,sans-Serif" font-size="10.00">Cpl::Itc::PostApi</text>
</a>
</g>
</g>
<!-- Node2&#45;&gt;Node1 -->
<g id="edge1" class="edge"><title>Node2&#45;&gt;Node1</title>
<path fill="none" stroke="midnightblue" d="M316.981,-132.374C345.6,-128.99 381.196,-123.312 412,-114 427.178,-109.412 443.437,-101.715 455.274,-95.5517"/>
<polygon fill="midnightblue" stroke="midnightblue" points="316.322,-128.926 306.775,-133.52 317.103,-135.882 316.322,-128.926"/>
</g>
<!-- Node3 -->
<g id="node3" class="node"><title>Node3</title>
<g id="a_node3"><a xlink:href="class_cpl_1_1_system_1_1_signable.html" target="_top" xlink:title="Cpl::System::Signable">
<polygon fill="white" stroke="black" points="205.5,-88.5 205.5,-107.5 319.5,-107.5 319.5,-88.5 205.5,-88.5"/>
<text text-anchor="middle" x="262.5" y="-95.5" font-family="Helvetica,sans-Serif" font-size="10.00">Cpl::System::Signable</text>
</a>
</g>
</g>
<!-- Node3&#45;&gt;Node1 -->
<g id="edge2" class="edge"><title>Node3&#45;&gt;Node1</title>
<path fill="none" stroke="midnightblue" d="M329.713,-100.766C355.456,-101.118 385.159,-100.636 412,-98 417.861,-97.4243 423.997,-96.5421 430.018,-95.5117"/>
<polygon fill="midnightblue" stroke="midnightblue" points="329.749,-97.2659 319.687,-100.584 329.622,-104.265 329.749,-97.2659"/>
</g>
<!-- Node3&#45;&gt;Node1 -->
<g id="edge6" class="edge"><title>Node3&#45;&gt;Node1</title>
<path fill="none" stroke="#9a32cd" stroke-dasharray="5,2" d="M321.953,-86.9251C327.697,-86.1412 333.451,-85.4743 339,-85 371.327,-82.2372 379.557,-84.7319 412,-85 417.778,-85.0477 423.865,-85.1211 429.863,-85.2069"/>
<polygon fill="#9a32cd" stroke="#9a32cd" points="321.054,-83.52 311.674,-88.4461 322.078,-90.4447 321.054,-83.52"/>
<text text-anchor="middle" x="375.5" y="-88" font-family="Helvetica,sans-Serif" font-size="10.00"> m_myThreadPtr</text>
</g>
<!-- Node4 -->
<g id="node4" class="node"><title>Node4</title>
<g id="a_node4"><a xlink:href="class_cpl_1_1_container_1_1_item.html" target="_top" xlink:title="Cpl::Container::Item">
<polygon fill="white" stroke="black" points="2,-88.5 2,-107.5 105,-107.5 105,-88.5 2,-88.5"/>
<text text-anchor="middle" x="53.5" y="-95.5" font-family="Helvetica,sans-Serif" font-size="10.00">Cpl::Container::Item</text>
</a>
</g>
</g>
<!-- Node4&#45;&gt;Node3 -->
<g id="edge3" class="edge"><title>Node4&#45;&gt;Node3</title>
<path fill="none" stroke="midnightblue" d="M115.35,-98C143.762,-98 177.371,-98 205.192,-98"/>
<polygon fill="midnightblue" stroke="midnightblue" points="115.138,-94.5001 105.138,-98 115.138,-101.5 115.138,-94.5001"/>
</g>
<!-- Node5 -->
<g id="node5" class="node"><title>Node5</title>
<g id="a_node5"><a xlink:href="class_cpl_1_1_container_1_1_s_list.html" target="_top" xlink:title="Cpl::Container::SList\l\&lt; Message \&gt;">
<polygon fill="white" stroke="black" points="209,-39 209,-69 316,-69 316,-39 209,-39"/>
<text text-anchor="start" x="217" y="-57" font-family="Helvetica,sans-Serif" font-size="10.00">Cpl::Container::SList</text>
<text text-anchor="middle" x="262.5" y="-46" font-family="Helvetica,sans-Serif" font-size="10.00">&lt; Message &gt;</text>
</a>
</g>
</g>
<!-- Node5&#45;&gt;Node1 -->
<g id="edge4" class="edge"><title>Node5&#45;&gt;Node1</title>
<path fill="none" stroke="midnightblue" d="M326.394,-63.6297C359.879,-68.7566 400.177,-74.9266 429.962,-79.487"/>
<polygon fill="midnightblue" stroke="midnightblue" points="326.654,-60.1288 316.24,-62.075 325.595,-67.0482 326.654,-60.1288"/>
</g>
<!-- Node6 -->
<g id="node6" class="node"><title>Node6</title>
<g id="a_node6"><a xlink:href="class_cpl_1_1_container_1_1_s_list.html" target="_top" xlink:title="Cpl::Container::SList\l\&lt; ITEM \&gt;">
<polygon fill="white" stroke="black" points="0,-39 0,-69 107,-69 107,-39 0,-39"/>
<text text-anchor="start" x="8" y="-57" font-family="Helvetica,sans-Serif" font-size="10.00">Cpl::Container::SList</text>
<text text-anchor="middle" x="53.5" y="-46" font-family="Helvetica,sans-Serif" font-size="10.00">&lt; ITEM &gt;</text>
</a>
</g>
</g>
<!-- Node6&#45;&gt;Node5 -->
<g id="edge5" class="edge"><title>Node6&#45;&gt;Node5</title>
<path fill="none" stroke="orange" stroke-dasharray="5,2" d="M117.111,-54C146.355,-54 180.789,-54 208.694,-54"/>
<polygon fill="orange" stroke="orange" points="117.002,-50.5001 107.002,-54 117.002,-57.5001 117.002,-50.5001"/>
<text text-anchor="middle" x="155.5" y="-57" font-family="Helvetica,sans-Serif" font-size="10.00"> &lt; Message &gt;</text>
</g>
<!-- Node7 -->
<g id="node7" class="node"><title>Node7</title>
<g id="a_node7"><a xlink:href="class_cpl_1_1_system_1_1_fast_lock.html" target="_top" xlink:title="Cpl::System::FastLock">
<polygon fill="white" stroke="black" points="204,-0.5 204,-19.5 321,-19.5 321,-0.5 204,-0.5"/>
<text text-anchor="middle" x="262.5" y="-7.5" font-family="Helvetica,sans-Serif" font-size="10.00">Cpl::System::FastLock</text>
</a>
</g>
</g>
<!-- Node7&#45;&gt;Node1 -->
<g id="edge7" class="edge"><title>Node7&#45;&gt;Node1</title>
<path fill="none" stroke="#9a32cd" stroke-dasharray="5,2" d="M317.145,-21.9127C345.841,-29.0914 381.458,-39.309 412,-52 428.244,-58.7498 445.638,-68.8593 457.586,-76.301"/>
<polygon fill="#9a32cd" stroke="#9a32cd" points="317.849,-18.4818 307.304,-19.5012 316.183,-25.2807 317.849,-18.4818"/>
<text text-anchor="middle" x="375.5" y="-55" font-family="Helvetica,sans-Serif" font-size="10.00"> m_flock</text>
</g>
</g>
</svg>
