<?xml version="1.0" encoding="UTF-8" standalone="no"?>
<!DOCTYPE svg PUBLIC "-//W3C//DTD SVG 1.1//EN"
 "http://www.w3.org/Graphics/SVG/1.1/DTD/svg11.dtd">
<!-- Generated by graphviz version 2.38.0 (20140413.2041)
 -->
<!-- Title: Cpl::Itc::AsyncReturnHandler Pages: 1 -->
<svg width="341pt" height="209pt"
 viewBox="0.00 0.00 340.50 209.00" xmlns="http://www.w3.org/2000/svg" xmlns:xlink="http://www.w3.org/1999/xlink">
<g id="graph0" class="graph" transform="scale(1 1) rotate(0) translate(4 205)">
<title>Cpl::Itc::AsyncReturnHandler</title>
<polygon fill="white" stroke="none" points="-4,4 -4,-205 336.5,-205 336.5,4 -4,4"/>
<!-- Node1 -->
<g id="node1" class="node"><title>Node1</title>
<polygon fill="#bfbfbf" stroke="black" points="108,-0.5 108,-19.5 251,-19.5 251,-0.5 108,-0.5"/>
<text text-anchor="middle" x="179.5" y="-7.5" font-family="Helvetica,sans-Serif" font-size="10.00">Cpl::Itc::AsyncReturnHandler</text>
</g>
<!-- Node2 -->
<g id="node2" class="node"><title>Node2</title>
<g id="a_node2"><a xlink:href="class_cpl_1_1_itc_1_1_return_handler.html" target="_top" xlink:title="Cpl::Itc::ReturnHandler">
<polygon fill="white" stroke="black" points="0,-67.5 0,-86.5 115,-86.5 115,-67.5 0,-67.5"/>
<text text-anchor="middle" x="57.5" y="-74.5" font-family="Helvetica,sans-Serif" font-size="10.00">Cpl::Itc::ReturnHandler</text>
</a>
</g>
</g>
<!-- Node2&#45;&gt;Node1 -->
<g id="edge1" class="edge"><title>Node2&#45;&gt;Node1</title>
<path fill="none" stroke="midnightblue" d="M82.6444,-62.6034C106.805,-49.7309 142.6,-30.66 163.232,-19.6672"/>
<polygon fill="midnightblue" stroke="midnightblue" points="80.8804,-59.5774 73.7007,-67.3685 84.172,-65.7553 80.8804,-59.5774"/>
</g>
<!-- Node3 -->
<g id="node3" class="node"><title>Node3</title>
<g id="a_node3"><a xlink:href="class_cpl_1_1_itc_1_1_message.html" target="_top" xlink:title="Cpl::Itc::Message">
<polygon fill="white" stroke="black" points="133,-67.5 133,-86.5 226,-86.5 226,-67.5 133,-67.5"/>
<text text-anchor="middle" x="179.5" y="-74.5" font-family="Helvetica,sans-Serif" font-size="10.00">Cpl::Itc::Message</text>
</a>
</g>
</g>
<!-- Node3&#45;&gt;Node1 -->
<g id="edge2" class="edge"><title>Node3&#45;&gt;Node1</title>
<path fill="none" stroke="#9a32cd" stroke-dasharray="5,2" d="M179.5,-57.037C179.5,-44.6703 179.5,-29.1198 179.5,-19.6273"/>
<polygon fill="#9a32cd" stroke="#9a32cd" points="176,-57.2338 179.5,-67.2338 183,-57.2338 176,-57.2338"/>
<text text-anchor="middle" x="197.5" y="-41" font-family="Helvetica,sans-Serif" font-size="10.00"> m_msg</text>
</g>
<!-- Node4 -->
<g id="node4" class="node"><title>Node4</title>
<g id="a_node4"><a xlink:href="class_cpl_1_1_container_1_1_extended_item.html" target="_top" xlink:title="Cpl::Container::ExtendedItem">
<polygon fill="white" stroke="black" points="107.5,-124.5 107.5,-143.5 251.5,-143.5 251.5,-124.5 107.5,-124.5"/>
<text text-anchor="middle" x="179.5" y="-131.5" font-family="Helvetica,sans-Serif" font-size="10.00">Cpl::Container::ExtendedItem</text>
</a>
</g>
</g>
<!-- Node4&#45;&gt;Node3 -->
<g id="edge3" class="edge"><title>Node4&#45;&gt;Node3</title>
<path fill="none" stroke="midnightblue" d="M179.5,-114.117C179.5,-104.817 179.5,-94.0557 179.5,-86.7149"/>
<polygon fill="midnightblue" stroke="midnightblue" points="176,-114.406 179.5,-124.406 183,-114.406 176,-114.406"/>
</g>
<!-- Node5 -->
<g id="node5" class="node"><title>Node5</title>
<g id="a_node5"><a xlink:href="class_cpl_1_1_container_1_1_item.html" target="_top" xlink:title="Cpl::Container::Item">
<polygon fill="white" stroke="black" points="128,-181.5 128,-200.5 231,-200.5 231,-181.5 128,-181.5"/>
<text text-anchor="middle" x="179.5" y="-188.5" font-family="Helvetica,sans-Serif" font-size="10.00">Cpl::Container::Item</text>
</a>
</g>
</g>
<!-- Node5&#45;&gt;Node4 -->
<g id="edge4" class="edge"><title>Node5&#45;&gt;Node4</title>
<path fill="none" stroke="midnightblue" d="M179.5,-171.117C179.5,-161.817 179.5,-151.056 179.5,-143.715"/>
<polygon fill="midnightblue" stroke="midnightblue" points="176,-171.406 179.5,-181.406 183,-171.406 176,-171.406"/>
</g>
<!-- Node6 -->
<g id="node6" class="node"><title>Node6</title>
<g id="a_node6"><a xlink:href="class_cpl_1_1_itc_1_1_post_api.html" target="_top" xlink:title="Cpl::Itc::PostApi">
<polygon fill="white" stroke="black" points="244.5,-67.5 244.5,-86.5 332.5,-86.5 332.5,-67.5 244.5,-67.5"/>
<text text-anchor="middle" x="288.5" y="-74.5" font-family="Helvetica,sans-Serif" font-size="10.00">Cpl::Itc::PostApi</text>
</a>
</g>
</g>
<!-- Node6&#45;&gt;Node1 -->
<g id="edge5" class="edge"><title>Node6&#45;&gt;Node1</title>
<path fill="none" stroke="#9a32cd" stroke-dasharray="5,2" d="M264.926,-61.9422C243.34,-49.0696 212.078,-30.4274 193.967,-19.6273"/>
<polygon fill="#9a32cd" stroke="#9a32cd" points="263.418,-65.1181 273.8,-67.2338 267.004,-59.1059 263.418,-65.1181"/>
<text text-anchor="middle" x="262" y="-41" font-family="Helvetica,sans-Serif" font-size="10.00"> m_mbox</text>
</g>
</g>
</svg>
