<?xml version="1.0" encoding="UTF-8" standalone="no"?>
<!DOCTYPE svg PUBLIC "-//W3C//DTD SVG 1.1//EN"
 "http://www.w3.org/Graphics/SVG/1.1/DTD/svg11.dtd">
<!-- Generated by graphviz version 2.38.0 (20140413.2041)
 -->
<!-- Title: Cpl::Timer::CounterList Pages: 1 -->
<svg width="379pt" height="195pt"
 viewBox="0.00 0.00 378.50 195.00" xmlns="http://www.w3.org/2000/svg" xmlns:xlink="http://www.w3.org/1999/xlink">
<g id="graph0" class="graph" transform="scale(1 1) rotate(0) translate(4 191)">
<title>Cpl::Timer::CounterList</title>
<polygon fill="white" stroke="none" points="-4,4 -4,-191 374.5,-191 374.5,4 -4,4"/>
<!-- Node1 -->
<g id="node1" class="node"><title>Node1</title>
<polygon fill="#bfbfbf" stroke="black" points="55.5,-0.5 55.5,-19.5 171.5,-19.5 171.5,-0.5 55.5,-0.5"/>
<text text-anchor="middle" x="113.5" y="-7.5" font-family="Helvetica,sans-Serif" font-size="10.00">Cpl::Timer::CounterList</text>
</g>
<!-- Node2 -->
<g id="node2" class="node"><title>Node2</title>
<g id="a_node2"><a xlink:href="class_cpl_1_1_timer_1_1_counter_source.html" target="_top" xlink:title="Cpl::Timer::CounterSource">
<polygon fill="white" stroke="black" points="0,-84 0,-103 131,-103 131,-84 0,-84"/>
<text text-anchor="middle" x="65.5" y="-91" font-family="Helvetica,sans-Serif" font-size="10.00">Cpl::Timer::CounterSource</text>
</a>
</g>
</g>
<!-- Node2&#45;&gt;Node1 -->
<g id="edge1" class="edge"><title>Node2&#45;&gt;Node1</title>
<path fill="none" stroke="midnightblue" d="M75.9084,-74.8274C85.9406,-57.7935 100.7,-32.7339 108.4,-19.6592"/>
<polygon fill="midnightblue" stroke="midnightblue" points="72.6959,-73.3852 70.6368,-83.7781 78.7275,-76.9376 72.6959,-73.3852"/>
</g>
<!-- Node3 -->
<g id="node3" class="node"><title>Node3</title>
<g id="a_node3"><a xlink:href="class_cpl_1_1_container_1_1_d_list.html" target="_top" xlink:title="Cpl::Container::DList\l\&lt; Cpl::Timer::CounterCallback \&gt;">
<polygon fill="white" stroke="black" points="149.5,-78.5 149.5,-108.5 305.5,-108.5 305.5,-78.5 149.5,-78.5"/>
<text text-anchor="start" x="157.5" y="-96.5" font-family="Helvetica,sans-Serif" font-size="10.00">Cpl::Container::DList</text>
<text text-anchor="middle" x="227.5" y="-85.5" font-family="Helvetica,sans-Serif" font-size="10.00">&lt; Cpl::Timer::CounterCallback &gt;</text>
</a>
</g>
</g>
<!-- Node3&#45;&gt;Node1 -->
<g id="edge2" class="edge"><title>Node3&#45;&gt;Node1</title>
<path fill="none" stroke="#9a32cd" stroke-dasharray="5,2" d="M199.624,-72.5713C175.9,-55.6106 142.972,-32.0698 125.503,-19.5811"/>
<polygon fill="#9a32cd" stroke="#9a32cd" points="197.732,-75.5211 207.903,-78.4897 201.803,-69.8266 197.732,-75.5211"/>
<text text-anchor="middle" x="220" y="-52" font-family="Helvetica,sans-Serif" font-size="10.00"> m_pendingAttach</text>
<text text-anchor="middle" x="220" y="-41" font-family="Helvetica,sans-Serif" font-size="10.00">m_counters</text>
</g>
<!-- Node4 -->
<g id="node4" class="node"><title>Node4</title>
<g id="a_node4"><a xlink:href="class_cpl_1_1_container_1_1_d_list.html" target="_top" xlink:title="Cpl::Container::DList\l\&lt; ITEM \&gt;">
<polygon fill="white" stroke="black" points="174,-156.5 174,-186.5 281,-186.5 281,-156.5 174,-156.5"/>
<text text-anchor="start" x="182" y="-174.5" font-family="Helvetica,sans-Serif" font-size="10.00">Cpl::Container::DList</text>
<text text-anchor="middle" x="227.5" y="-163.5" font-family="Helvetica,sans-Serif" font-size="10.00">&lt; ITEM &gt;</text>
</a>
</g>
</g>
<!-- Node4&#45;&gt;Node3 -->
<g id="edge3" class="edge"><title>Node4&#45;&gt;Node3</title>
<path fill="none" stroke="orange" stroke-dasharray="5,2" d="M227.5,-146.09C227.5,-133.757 227.5,-119.224 227.5,-108.731"/>
<polygon fill="orange" stroke="orange" points="224,-146.205 227.5,-156.205 231,-146.205 224,-146.205"/>
<text text-anchor="middle" x="299" y="-130" font-family="Helvetica,sans-Serif" font-size="10.00"> &lt; Cpl::Timer::CounterCallback &gt;</text>
</g>
</g>
</svg>
