<?xml version="1.0" encoding="UTF-8" standalone="no"?>
<!DOCTYPE svg PUBLIC "-//W3C//DTD SVG 1.1//EN"
 "http://www.w3.org/Graphics/SVG/1.1/DTD/svg11.dtd">
<!-- Generated by graphviz version 2.38.0 (20140413.2041)
 -->
<!-- Title: Cpl::Itc::CloseSync Pages: 1 -->
<svg width="466pt" height="152pt"
 viewBox="0.00 0.00 465.50 152.00" xmlns="http://www.w3.org/2000/svg" xmlns:xlink="http://www.w3.org/1999/xlink">
<g id="graph0" class="graph" transform="scale(1 1) rotate(0) translate(4 148)">
<title>Cpl::Itc::CloseSync</title>
<polygon fill="white" stroke="none" points="-4,4 -4,-148 461.5,-148 461.5,4 -4,4"/>
<!-- Node1 -->
<g id="node1" class="node"><title>Node1</title>
<polygon fill="#bfbfbf" stroke="black" points="229,-0.5 229,-19.5 330,-19.5 330,-0.5 229,-0.5"/>
<text text-anchor="middle" x="279.5" y="-7.5" font-family="Helvetica,sans-Serif" font-size="10.00">Cpl::Itc::CloseSync</text>
</g>
<!-- Node2 -->
<g id="node2" class="node"><title>Node2</title>
<g id="a_node2"><a xlink:href="class_cpl_1_1_itc_1_1_open_sync.html" target="_top" xlink:title="Cpl::Itc::OpenSync">
<polygon fill="white" stroke="black" points="116,-57.5 116,-76.5 215,-76.5 215,-57.5 116,-57.5"/>
<text text-anchor="middle" x="165.5" y="-64.5" font-family="Helvetica,sans-Serif" font-size="10.00">Cpl::Itc::OpenSync</text>
</a>
</g>
</g>
<!-- Node2&#45;&gt;Node1 -->
<g id="edge1" class="edge"><title>Node2&#45;&gt;Node1</title>
<path fill="none" stroke="midnightblue" d="M192.536,-52.9565C213.965,-42.6179 243.289,-28.4704 261.813,-19.5334"/>
<polygon fill="midnightblue" stroke="midnightblue" points="190.798,-49.9086 183.313,-57.4063 193.84,-56.2132 190.798,-49.9086"/>
</g>
<!-- Node3 -->
<g id="node3" class="node"><title>Node3</title>
<g id="a_node3"><a xlink:href="class_cpl_1_1_itc_1_1_open_api.html" target="_top" xlink:title="Cpl::Itc::OpenApi">
<polygon fill="white" stroke="black" points="0,-124.5 0,-143.5 91,-143.5 91,-124.5 0,-124.5"/>
<text text-anchor="middle" x="45.5" y="-131.5" font-family="Helvetica,sans-Serif" font-size="10.00">Cpl::Itc::OpenApi</text>
</a>
</g>
</g>
<!-- Node3&#45;&gt;Node2 -->
<g id="edge2" class="edge"><title>Node3&#45;&gt;Node2</title>
<path fill="none" stroke="midnightblue" d="M70.4995,-119.459C94.2889,-106.573 129.366,-87.5727 149.573,-76.6273"/>
<polygon fill="midnightblue" stroke="midnightblue" points="68.8097,-116.393 61.6837,-124.234 72.1437,-122.548 68.8097,-116.393"/>
</g>
<!-- Node4 -->
<g id="node4" class="node"><title>Node4</title>
<g id="a_node4"><a xlink:href="class_cpl_1_1_itc_1_1_open_request.html" target="_top" xlink:title="Cpl::Itc::OpenRequest">
<polygon fill="white" stroke="black" points="109,-124.5 109,-143.5 222,-143.5 222,-124.5 109,-124.5"/>
<text text-anchor="middle" x="165.5" y="-131.5" font-family="Helvetica,sans-Serif" font-size="10.00">Cpl::Itc::OpenRequest</text>
</a>
</g>
</g>
<!-- Node4&#45;&gt;Node2 -->
<g id="edge3" class="edge"><title>Node4&#45;&gt;Node2</title>
<path fill="none" stroke="midnightblue" d="M165.5,-114.037C165.5,-101.67 165.5,-86.1198 165.5,-76.6273"/>
<polygon fill="midnightblue" stroke="midnightblue" points="162,-114.234 165.5,-124.234 169,-114.234 162,-114.234"/>
</g>
<!-- Node5 -->
<g id="node5" class="node"><title>Node5</title>
<g id="a_node5"><a xlink:href="class_cpl_1_1_itc_1_1_post_api.html" target="_top" xlink:title="Cpl::Itc::PostApi">
<polygon fill="white" stroke="black" points="240.5,-124.5 240.5,-143.5 328.5,-143.5 328.5,-124.5 240.5,-124.5"/>
<text text-anchor="middle" x="284.5" y="-131.5" font-family="Helvetica,sans-Serif" font-size="10.00">Cpl::Itc::PostApi</text>
</a>
</g>
</g>
<!-- Node5&#45;&gt;Node2 -->
<g id="edge4" class="edge"><title>Node5&#45;&gt;Node2</title>
<path fill="none" stroke="#9a32cd" stroke-dasharray="5,2" d="M259.395,-119.287C235.81,-106.405 201.244,-87.5243 181.295,-76.6273"/>
<polygon fill="#9a32cd" stroke="#9a32cd" points="257.997,-122.512 268.451,-124.234 261.353,-116.368 257.997,-122.512"/>
<text text-anchor="middle" x="253" y="-98" font-family="Helvetica,sans-Serif" font-size="10.00"> m_mbox</text>
</g>
<!-- Node6 -->
<g id="node6" class="node"><title>Node6</title>
<g id="a_node6"><a xlink:href="class_cpl_1_1_itc_1_1_close_api.html" target="_top" xlink:title="Cpl::Itc::CloseApi">
<polygon fill="white" stroke="black" points="233.5,-57.5 233.5,-76.5 325.5,-76.5 325.5,-57.5 233.5,-57.5"/>
<text text-anchor="middle" x="279.5" y="-64.5" font-family="Helvetica,sans-Serif" font-size="10.00">Cpl::Itc::CloseApi</text>
</a>
</g>
</g>
<!-- Node6&#45;&gt;Node1 -->
<g id="edge5" class="edge"><title>Node6&#45;&gt;Node1</title>
<path fill="none" stroke="midnightblue" d="M279.5,-47.1166C279.5,-37.8173 279.5,-27.0557 279.5,-19.7149"/>
<polygon fill="midnightblue" stroke="midnightblue" points="276,-47.4062 279.5,-57.4063 283,-47.4063 276,-47.4062"/>
</g>
<!-- Node7 -->
<g id="node7" class="node"><title>Node7</title>
<g id="a_node7"><a xlink:href="class_cpl_1_1_itc_1_1_close_request.html" target="_top" xlink:title="Cpl::Itc::CloseRequest">
<polygon fill="white" stroke="black" points="343.5,-57.5 343.5,-76.5 457.5,-76.5 457.5,-57.5 343.5,-57.5"/>
<text text-anchor="middle" x="400.5" y="-64.5" font-family="Helvetica,sans-Serif" font-size="10.00">Cpl::Itc::CloseRequest</text>
</a>
</g>
</g>
<!-- Node7&#45;&gt;Node1 -->
<g id="edge6" class="edge"><title>Node7&#45;&gt;Node1</title>
<path fill="none" stroke="midnightblue" d="M372.417,-53.235C349.621,-42.8732 318.112,-28.5509 298.273,-19.5334"/>
<polygon fill="midnightblue" stroke="midnightblue" points="371.042,-56.4544 381.594,-57.4063 373.938,-50.0819 371.042,-56.4544"/>
</g>
</g>
</svg>
