<?xml version="1.0" encoding="UTF-8" standalone="no"?>
<!DOCTYPE svg PUBLIC "-//W3C//DTD SVG 1.1//EN"
 "http://www.w3.org/Graphics/SVG/1.1/DTD/svg11.dtd">
<!-- Generated by graphviz version 2.38.0 (20140413.2041)
 -->
<!-- Title: Cpl::Driver::Uart::Stream::Receiver Pages: 1 -->
<svg width="268pt" height="252pt"
 viewBox="0.00 0.00 268.00 252.00" xmlns="http://www.w3.org/2000/svg" xmlns:xlink="http://www.w3.org/1999/xlink">
<g id="graph0" class="graph" transform="scale(1 1) rotate(0) translate(4 248)">
<title>Cpl::Driver::Uart::Stream::Receiver</title>
<polygon fill="white" stroke="none" points="-4,4 -4,-248 264,-248 264,4 -4,4"/>
<!-- Node1 -->
<g id="node1" class="node"><title>Node1</title>
<polygon fill="#bfbfbf" stroke="black" points="88.5,-0.5 88.5,-30.5 179.5,-30.5 179.5,-0.5 88.5,-0.5"/>
<text text-anchor="start" x="96.5" y="-18.5" font-family="Helvetica,sans-Serif" font-size="10.00">Cpl::Driver::Uart::</text>
<text text-anchor="middle" x="134" y="-7.5" font-family="Helvetica,sans-Serif" font-size="10.00">Stream::Receiver</text>
</g>
<!-- Node2 -->
<g id="node2" class="node"><title>Node2</title>
<g id="a_node2"><a xlink:href="class_cpl_1_1_system_1_1_thread.html" target="_top" xlink:title="Cpl::System::Thread">
<polygon fill="white" stroke="black" points="6,-84 6,-103 112,-103 112,-84 6,-84"/>
<text text-anchor="middle" x="59" y="-91" font-family="Helvetica,sans-Serif" font-size="10.00">Cpl::System::Thread</text>
</a>
</g>
</g>
<!-- Node2&#45;&gt;Node1 -->
<g id="edge1" class="edge"><title>Node2&#45;&gt;Node1</title>
<path fill="none" stroke="#9a32cd" stroke-dasharray="5,2" d="M74.766,-76.5238C88.1997,-62.911 107.316,-43.5398 120.165,-30.5198"/>
<polygon fill="#9a32cd" stroke="#9a32cd" points="72.1363,-74.2056 67.6035,-83.7818 77.1188,-79.1225 72.1363,-74.2056"/>
<text text-anchor="middle" x="128.5" y="-52" font-family="Helvetica,sans-Serif" font-size="10.00"> m_waiterPtr</text>
</g>
<!-- Node3 -->
<g id="node3" class="node"><title>Node3</title>
<g id="a_node3"><a xlink:href="class_cpl_1_1_system_1_1_signable.html" target="_top" xlink:title="Cpl::System::Signable">
<polygon fill="white" stroke="black" points="0,-162 0,-181 114,-181 114,-162 0,-162"/>
<text text-anchor="middle" x="57" y="-169" font-family="Helvetica,sans-Serif" font-size="10.00">Cpl::System::Signable</text>
</a>
</g>
</g>
<!-- Node3&#45;&gt;Node2 -->
<g id="edge2" class="edge"><title>Node3&#45;&gt;Node2</title>
<path fill="none" stroke="midnightblue" d="M57.4941,-151.724C57.9027,-136.197 58.4643,-114.858 58.7733,-103.116"/>
<polygon fill="midnightblue" stroke="midnightblue" points="53.9938,-151.693 57.2294,-161.782 60.9914,-151.877 53.9938,-151.693"/>
</g>
<!-- Node4 -->
<g id="node4" class="node"><title>Node4</title>
<g id="a_node4"><a xlink:href="class_cpl_1_1_container_1_1_item.html" target="_top" xlink:title="Cpl::Container::Item">
<polygon fill="white" stroke="black" points="5.5,-224.5 5.5,-243.5 108.5,-243.5 108.5,-224.5 5.5,-224.5"/>
<text text-anchor="middle" x="57" y="-231.5" font-family="Helvetica,sans-Serif" font-size="10.00">Cpl::Container::Item</text>
</a>
</g>
</g>
<!-- Node4&#45;&gt;Node3 -->
<g id="edge3" class="edge"><title>Node4&#45;&gt;Node3</title>
<path fill="none" stroke="midnightblue" d="M57,-214.003C57,-203 57,-189.682 57,-181.152"/>
<polygon fill="midnightblue" stroke="midnightblue" points="53.5001,-214.332 57,-224.332 60.5001,-214.332 53.5001,-214.332"/>
</g>
<!-- Node5 -->
<g id="node5" class="node"><title>Node5</title>
<g id="a_node5"><a xlink:href="class_cpl_1_1_container_1_1_ring_buffer.html" target="_top" xlink:title="Cpl::Container::RingBuffer\l\&lt; uint8_t \&gt;">
<polygon fill="white" stroke="black" points="132,-78.5 132,-108.5 260,-108.5 260,-78.5 132,-78.5"/>
<text text-anchor="start" x="140" y="-96.5" font-family="Helvetica,sans-Serif" font-size="10.00">Cpl::Container::RingBuffer</text>
<text text-anchor="middle" x="196" y="-85.5" font-family="Helvetica,sans-Serif" font-size="10.00">&lt; uint8_t &gt;</text>
</a>
</g>
</g>
<!-- Node5&#45;&gt;Node1 -->
<g id="edge4" class="edge"><title>Node5&#45;&gt;Node1</title>
<path fill="none" stroke="#9a32cd" stroke-dasharray="5,2" d="M177.895,-70.3065C167.474,-57.5329 154.688,-41.8596 145.609,-30.7309"/>
<polygon fill="#9a32cd" stroke="#9a32cd" points="175.305,-72.6688 184.338,-78.205 180.729,-68.2439 175.305,-72.6688"/>
<text text-anchor="middle" x="188" y="-52" font-family="Helvetica,sans-Serif" font-size="10.00"> m_buffer</text>
</g>
<!-- Node6 -->
<g id="node6" class="node"><title>Node6</title>
<g id="a_node6"><a xlink:href="class_cpl_1_1_container_1_1_ring_buffer.html" target="_top" xlink:title="Cpl::Container::RingBuffer\l\&lt; ITEM \&gt;">
<polygon fill="white" stroke="black" points="132,-156.5 132,-186.5 260,-186.5 260,-156.5 132,-156.5"/>
<text text-anchor="start" x="140" y="-174.5" font-family="Helvetica,sans-Serif" font-size="10.00">Cpl::Container::RingBuffer</text>
<text text-anchor="middle" x="196" y="-163.5" font-family="Helvetica,sans-Serif" font-size="10.00">&lt; ITEM &gt;</text>
</a>
</g>
</g>
<!-- Node6&#45;&gt;Node5 -->
<g id="edge5" class="edge"><title>Node6&#45;&gt;Node5</title>
<path fill="none" stroke="orange" stroke-dasharray="5,2" d="M196,-146.09C196,-133.757 196,-119.224 196,-108.731"/>
<polygon fill="orange" stroke="orange" points="192.5,-146.205 196,-156.205 199.5,-146.205 192.5,-146.205"/>
<text text-anchor="middle" x="221.5" y="-130" font-family="Helvetica,sans-Serif" font-size="10.00"> &lt; uint8_t &gt;</text>
</g>
</g>
</svg>
