<?xml version="1.0" encoding="UTF-8" standalone="no"?>
<!DOCTYPE svg PUBLIC "-//W3C//DTD SVG 1.1//EN"
 "http://www.w3.org/Graphics/SVG/1.1/DTD/svg11.dtd">
<!-- Generated by graphviz version 2.38.0 (20140413.2041)
 -->
<!-- Title: Cpl::Timer::Local&lt; CONTEXT &gt; Pages: 1 -->
<svg width="249pt" height="207pt"
 viewBox="0.00 0.00 248.50 207.00" xmlns="http://www.w3.org/2000/svg" xmlns:xlink="http://www.w3.org/1999/xlink">
<g id="graph0" class="graph" transform="scale(1 1) rotate(0) translate(4 203)">
<title>Cpl::Timer::Local&lt; CONTEXT &gt;</title>
<polygon fill="white" stroke="none" points="-4,4 -4,-203 244.5,-203 244.5,4 -4,4"/>
<!-- Node1 -->
<g id="node1" class="node"><title>Node1</title>
<polygon fill="#bfbfbf" stroke="black" points="56.5,-0.5 56.5,-30.5 152.5,-30.5 152.5,-0.5 56.5,-0.5"/>
<text text-anchor="start" x="64.5" y="-18.5" font-family="Helvetica,sans-Serif" font-size="10.00">Cpl::Timer::Local&lt;</text>
<text text-anchor="middle" x="104.5" y="-7.5" font-family="Helvetica,sans-Serif" font-size="10.00"> CONTEXT &gt;</text>
</g>
<!-- Node2 -->
<g id="node2" class="node"><title>Node2</title>
<g id="a_node2"><a xlink:href="class_cpl_1_1_timer_1_1_api.html" target="_top" xlink:title="Cpl::Timer::Api">
<polygon fill="white" stroke="black" points="0,-67.5 0,-86.5 81,-86.5 81,-67.5 0,-67.5"/>
<text text-anchor="middle" x="40.5" y="-74.5" font-family="Helvetica,sans-Serif" font-size="10.00">Cpl::Timer::Api</text>
</a>
</g>
</g>
<!-- Node2&#45;&gt;Node1 -->
<g id="edge1" class="edge"><title>Node2&#45;&gt;Node1</title>
<path fill="none" stroke="midnightblue" d="M57.0153,-60.6459C67.019,-51.3456 79.6831,-39.572 89.4165,-30.523"/>
<polygon fill="midnightblue" stroke="midnightblue" points="54.6104,-58.1028 49.6696,-67.4751 59.3766,-63.2295 54.6104,-58.1028"/>
</g>
<!-- Node3 -->
<g id="node3" class="node"><title>Node3</title>
<g id="a_node3"><a xlink:href="class_cpl_1_1_timer_1_1_counter_callback.html" target="_top" xlink:title="Cpl::Timer::CounterCallback">
<polygon fill="white" stroke="black" points="99.5,-67.5 99.5,-86.5 237.5,-86.5 237.5,-67.5 99.5,-67.5"/>
<text text-anchor="middle" x="168.5" y="-74.5" font-family="Helvetica,sans-Serif" font-size="10.00">Cpl::Timer::CounterCallback</text>
</a>
</g>
</g>
<!-- Node3&#45;&gt;Node1 -->
<g id="edge2" class="edge"><title>Node3&#45;&gt;Node1</title>
<path fill="none" stroke="midnightblue" d="M151.985,-60.6459C141.981,-51.3456 129.317,-39.572 119.584,-30.523"/>
<polygon fill="midnightblue" stroke="midnightblue" points="149.623,-63.2295 159.33,-67.4751 154.39,-58.1028 149.623,-63.2295"/>
</g>
<!-- Node4 -->
<g id="node4" class="node"><title>Node4</title>
<g id="a_node4"><a xlink:href="class_cpl_1_1_container_1_1_extended_item.html" target="_top" xlink:title="Cpl::Container::ExtendedItem">
<polygon fill="white" stroke="black" points="96.5,-123.5 96.5,-142.5 240.5,-142.5 240.5,-123.5 96.5,-123.5"/>
<text text-anchor="middle" x="168.5" y="-130.5" font-family="Helvetica,sans-Serif" font-size="10.00">Cpl::Container::ExtendedItem</text>
</a>
</g>
</g>
<!-- Node4&#45;&gt;Node3 -->
<g id="edge3" class="edge"><title>Node4&#45;&gt;Node3</title>
<path fill="none" stroke="midnightblue" d="M168.5,-112.805C168.5,-103.91 168.5,-93.7798 168.5,-86.7511"/>
<polygon fill="midnightblue" stroke="midnightblue" points="165,-113.083 168.5,-123.083 172,-113.083 165,-113.083"/>
</g>
<!-- Node5 -->
<g id="node5" class="node"><title>Node5</title>
<g id="a_node5"><a xlink:href="class_cpl_1_1_container_1_1_item.html" target="_top" xlink:title="Cpl::Container::Item">
<polygon fill="white" stroke="black" points="117,-179.5 117,-198.5 220,-198.5 220,-179.5 117,-179.5"/>
<text text-anchor="middle" x="168.5" y="-186.5" font-family="Helvetica,sans-Serif" font-size="10.00">Cpl::Container::Item</text>
</a>
</g>
</g>
<!-- Node5&#45;&gt;Node4 -->
<g id="edge4" class="edge"><title>Node5&#45;&gt;Node4</title>
<path fill="none" stroke="midnightblue" d="M168.5,-168.805C168.5,-159.91 168.5,-149.78 168.5,-142.751"/>
<polygon fill="midnightblue" stroke="midnightblue" points="165,-169.083 168.5,-179.083 172,-169.083 165,-169.083"/>
</g>
</g>
</svg>
