<?xml version="1.0" encoding="UTF-8" standalone="no"?>
<!DOCTYPE svg PUBLIC "-//W3C//DTD SVG 1.1//EN"
 "http://www.w3.org/Graphics/SVG/1.1/DTD/svg11.dtd">
<!-- Generated by graphviz version 2.38.0 (20140413.2041)
 -->
<!-- Title: Cpl::Itc::OpenSync Pages: 1 -->
<svg width="337pt" height="95pt"
 viewBox="0.00 0.00 336.50 95.00" xmlns="http://www.w3.org/2000/svg" xmlns:xlink="http://www.w3.org/1999/xlink">
<g id="graph0" class="graph" transform="scale(1 1) rotate(0) translate(4 91)">
<title>Cpl::Itc::OpenSync</title>
<polygon fill="white" stroke="none" points="-4,4 -4,-91 332.5,-91 332.5,4 -4,4"/>
<!-- Node1 -->
<g id="node1" class="node"><title>Node1</title>
<polygon fill="#bfbfbf" stroke="black" points="116,-0.5 116,-19.5 215,-19.5 215,-0.5 116,-0.5"/>
<text text-anchor="middle" x="165.5" y="-7.5" font-family="Helvetica,sans-Serif" font-size="10.00">Cpl::Itc::OpenSync</text>
</g>
<!-- Node2 -->
<g id="node2" class="node"><title>Node2</title>
<g id="a_node2"><a xlink:href="class_cpl_1_1_itc_1_1_open_api.html" target="_top" xlink:title="Cpl::Itc::OpenApi">
<polygon fill="white" stroke="black" points="0,-67.5 0,-86.5 91,-86.5 91,-67.5 0,-67.5"/>
<text text-anchor="middle" x="45.5" y="-74.5" font-family="Helvetica,sans-Serif" font-size="10.00">Cpl::Itc::OpenApi</text>
</a>
</g>
</g>
<!-- Node2&#45;&gt;Node1 -->
<g id="edge1" class="edge"><title>Node2&#45;&gt;Node1</title>
<path fill="none" stroke="midnightblue" d="M70.4995,-62.4586C94.2889,-49.5727 129.366,-30.5727 149.573,-19.6273"/>
<polygon fill="midnightblue" stroke="midnightblue" points="68.8097,-59.3934 61.6837,-67.2338 72.1437,-65.5485 68.8097,-59.3934"/>
</g>
<!-- Node3 -->
<g id="node3" class="node"><title>Node3</title>
<g id="a_node3"><a xlink:href="class_cpl_1_1_itc_1_1_open_request.html" target="_top" xlink:title="Cpl::Itc::OpenRequest">
<polygon fill="white" stroke="black" points="109,-67.5 109,-86.5 222,-86.5 222,-67.5 109,-67.5"/>
<text text-anchor="middle" x="165.5" y="-74.5" font-family="Helvetica,sans-Serif" font-size="10.00">Cpl::Itc::OpenRequest</text>
</a>
</g>
</g>
<!-- Node3&#45;&gt;Node1 -->
<g id="edge2" class="edge"><title>Node3&#45;&gt;Node1</title>
<path fill="none" stroke="midnightblue" d="M165.5,-57.037C165.5,-44.6703 165.5,-29.1198 165.5,-19.6273"/>
<polygon fill="midnightblue" stroke="midnightblue" points="162,-57.2338 165.5,-67.2338 169,-57.2338 162,-57.2338"/>
</g>
<!-- Node4 -->
<g id="node4" class="node"><title>Node4</title>
<g id="a_node4"><a xlink:href="class_cpl_1_1_itc_1_1_post_api.html" target="_top" xlink:title="Cpl::Itc::PostApi">
<polygon fill="white" stroke="black" points="240.5,-67.5 240.5,-86.5 328.5,-86.5 328.5,-67.5 240.5,-67.5"/>
<text text-anchor="middle" x="284.5" y="-74.5" font-family="Helvetica,sans-Serif" font-size="10.00">Cpl::Itc::PostApi</text>
</a>
</g>
</g>
<!-- Node4&#45;&gt;Node1 -->
<g id="edge3" class="edge"><title>Node4&#45;&gt;Node1</title>
<path fill="none" stroke="#9a32cd" stroke-dasharray="5,2" d="M259.395,-62.2872C235.81,-49.4047 201.244,-30.5243 181.295,-19.6273"/>
<polygon fill="#9a32cd" stroke="#9a32cd" points="257.997,-65.5117 268.451,-67.2338 261.353,-59.3684 257.997,-65.5117"/>
<text text-anchor="middle" x="253" y="-41" font-family="Helvetica,sans-Serif" font-size="10.00"> m_mbox</text>
</g>
</g>
</svg>
