<?xml version="1.0" encoding="UTF-8" standalone="no"?>
<!DOCTYPE svg PUBLIC "-//W3C//DTD SVG 1.1//EN"
 "http://www.w3.org/Graphics/SVG/1.1/DTD/svg11.dtd">
<!-- Generated by graphviz version 2.38.0 (20140413.2041)
 -->
<!-- Title: Cpl::Itc::SAP&lt; SERVER &gt; Pages: 1 -->
<svg width="140pt" height="95pt"
 viewBox="0.00 0.00 140.00 95.00" xmlns="http://www.w3.org/2000/svg" xmlns:xlink="http://www.w3.org/1999/xlink">
<g id="graph0" class="graph" transform="scale(1 1) rotate(0) translate(4 91)">
<title>Cpl::Itc::SAP&lt; SERVER &gt;</title>
<polygon fill="white" stroke="none" points="-4,4 -4,-91 136,-91 136,4 -4,4"/>
<!-- Node1 -->
<g id="node1" class="node"><title>Node1</title>
<polygon fill="#bfbfbf" stroke="black" points="0,-0.5 0,-19.5 132,-19.5 132,-0.5 0,-0.5"/>
<text text-anchor="middle" x="66" y="-7.5" font-family="Helvetica,sans-Serif" font-size="10.00">Cpl::Itc::SAP&lt; SERVER &gt;</text>
</g>
<!-- Node2 -->
<g id="node2" class="node"><title>Node2</title>
<g id="a_node2"><a xlink:href="class_cpl_1_1_itc_1_1_post_api.html" target="_top" xlink:title="Cpl::Itc::PostApi">
<polygon fill="white" stroke="black" points="22,-67.5 22,-86.5 110,-86.5 110,-67.5 22,-67.5"/>
<text text-anchor="middle" x="66" y="-74.5" font-family="Helvetica,sans-Serif" font-size="10.00">Cpl::Itc::PostApi</text>
</a>
</g>
</g>
<!-- Node2&#45;&gt;Node1 -->
<g id="edge1" class="edge"><title>Node2&#45;&gt;Node1</title>
<path fill="none" stroke="midnightblue" d="M64.4399,-57.3825C64.2572,-54.5753 64.1003,-51.7126 64,-49 63.6288,-38.9652 64.4035,-27.4502 65.0942,-19.7505"/>
<polygon fill="midnightblue" stroke="midnightblue" points="60.9607,-57.7906 65.2083,-67.4967 67.9406,-57.2602 60.9607,-57.7906"/>
</g>
<!-- Node2&#45;&gt;Node1 -->
<g id="edge2" class="edge"><title>Node2&#45;&gt;Node1</title>
<path fill="none" stroke="#9a32cd" stroke-dasharray="5,2" d="M66,-57.037C66,-44.6703 66,-29.1198 66,-19.6273"/>
<polygon fill="#9a32cd" stroke="#9a32cd" points="62.5001,-57.2338 66,-67.2338 69.5001,-57.2338 62.5001,-57.2338"/>
<text text-anchor="middle" x="86.5" y="-41" font-family="Helvetica,sans-Serif" font-size="10.00"> m_mbox</text>
</g>
</g>
</svg>
