<?xml version="1.0" encoding="UTF-8" standalone="no"?>
<!DOCTYPE svg PUBLIC "-//W3C//DTD SVG 1.1//EN"
 "http://www.w3.org/Graphics/SVG/1.1/DTD/svg11.dtd">
<!-- Generated by graphviz version 2.38.0 (20140413.2041)
 -->
<!-- Title: Cpl::Itc::ReturnHandler Pages: 1 -->
<svg width="302pt" height="104pt"
 viewBox="0.00 0.00 302.00 104.00" xmlns="http://www.w3.org/2000/svg" xmlns:xlink="http://www.w3.org/1999/xlink">
<g id="graph0" class="graph" transform="scale(1 1) rotate(0) translate(4 100)">
<title>Cpl::Itc::ReturnHandler</title>
<polygon fill="white" stroke="none" points="-4,4 -4,-100 298,-100 298,4 -4,4"/>
<!-- Node1 -->
<g id="node1" class="node"><title>Node1</title>
<polygon fill="#bfbfbf" stroke="black" points="0,-38.5 0,-57.5 115,-57.5 115,-38.5 0,-38.5"/>
<text text-anchor="middle" x="57.5" y="-45.5" font-family="Helvetica,sans-Serif" font-size="10.00">Cpl::Itc::ReturnHandler</text>
</g>
<!-- Node2 -->
<g id="node2" class="node"><title>Node2</title>
<g id="a_node2"><a xlink:href="class_cpl_1_1_itc_1_1_async_return_handler.html" target="_top" xlink:title="Cpl::Itc::AsyncReturnHandler">
<polygon fill="white" stroke="black" points="151,-76.5 151,-95.5 294,-95.5 294,-76.5 151,-76.5"/>
<text text-anchor="middle" x="222.5" y="-83.5" font-family="Helvetica,sans-Serif" font-size="10.00">Cpl::Itc::AsyncReturnHandler</text>
</a>
</g>
</g>
<!-- Node1&#45;&gt;Node2 -->
<g id="edge1" class="edge"><title>Node1&#45;&gt;Node2</title>
<path fill="none" stroke="midnightblue" d="M109.528,-59.8961C132.439,-65.2374 159.104,-71.4537 180.664,-76.4799"/>
<polygon fill="midnightblue" stroke="midnightblue" points="110.165,-56.4509 99.6318,-57.589 108.576,-63.2681 110.165,-56.4509"/>
</g>
<!-- Node3 -->
<g id="node3" class="node"><title>Node3</title>
<g id="a_node3"><a xlink:href="class_cpl_1_1_itc_1_1_null_return_handler.html" target="_top" xlink:title="Cpl::Itc::NullReturnHandler">
<polygon fill="white" stroke="black" points="157,-38.5 157,-57.5 288,-57.5 288,-38.5 157,-38.5"/>
<text text-anchor="middle" x="222.5" y="-45.5" font-family="Helvetica,sans-Serif" font-size="10.00">Cpl::Itc::NullReturnHandler</text>
</a>
</g>
</g>
<!-- Node1&#45;&gt;Node3 -->
<g id="edge2" class="edge"><title>Node1&#45;&gt;Node3</title>
<path fill="none" stroke="midnightblue" d="M125.353,-48C135.791,-48 146.56,-48 156.945,-48"/>
<polygon fill="midnightblue" stroke="midnightblue" points="125.052,-44.5001 115.052,-48 125.052,-51.5001 125.052,-44.5001"/>
</g>
<!-- Node4 -->
<g id="node4" class="node"><title>Node4</title>
<g id="a_node4"><a xlink:href="class_cpl_1_1_itc_1_1_sync_return_handler.html" target="_top" xlink:title="Cpl::Itc::SyncReturnHandler">
<polygon fill="white" stroke="black" points="154,-0.5 154,-19.5 291,-19.5 291,-0.5 154,-0.5"/>
<text text-anchor="middle" x="222.5" y="-7.5" font-family="Helvetica,sans-Serif" font-size="10.00">Cpl::Itc::SyncReturnHandler</text>
</a>
</g>
</g>
<!-- Node1&#45;&gt;Node4 -->
<g id="edge3" class="edge"><title>Node1&#45;&gt;Node4</title>
<path fill="none" stroke="midnightblue" d="M109.528,-36.1039C132.439,-30.7626 159.104,-24.5463 180.664,-19.5201"/>
<polygon fill="midnightblue" stroke="midnightblue" points="108.576,-32.7319 99.6318,-38.411 110.165,-39.5491 108.576,-32.7319"/>
</g>
</g>
</svg>
