<?xml version="1.0" encoding="UTF-8" standalone="no"?>
<!DOCTYPE svg PUBLIC "-//W3C//DTD SVG 1.1//EN"
 "http://www.w3.org/Graphics/SVG/1.1/DTD/svg11.dtd">
<!-- Generated by graphviz version 2.38.0 (20140413.2041)
 -->
<!-- Title: Cpl::Memory::Allocator Pages: 1 -->
<svg width="916pt" height="103pt"
 viewBox="0.00 0.00 916.00 102.50" xmlns="http://www.w3.org/2000/svg" xmlns:xlink="http://www.w3.org/1999/xlink">
<g id="graph0" class="graph" transform="scale(1 1) rotate(0) translate(4 98.5)">
<title>Cpl::Memory::Allocator</title>
<polygon fill="white" stroke="none" points="-4,4 -4,-98.5 912,-98.5 912,4 -4,4"/>
<!-- Node1 -->
<g id="node1" class="node"><title>Node1</title>
<polygon fill="#bfbfbf" stroke="black" points="140,-31 140,-50 256,-50 256,-31 140,-31"/>
<text text-anchor="middle" x="198" y="-38" font-family="Helvetica,sans-Serif" font-size="10.00">Cpl::Memory::Allocator</text>
</g>
<!-- Node3 -->
<g id="node3" class="node"><title>Node3</title>
<g id="a_node3"><a xlink:href="class_cpl_1_1_memory_1_1_h_pool.html" target="_top" xlink:title="Cpl::Memory::HPool\&lt; T \&gt;">
<polygon fill="white" stroke="black" points="293,-75 293,-94 421,-94 421,-75 293,-75"/>
<text text-anchor="middle" x="357" y="-82" font-family="Helvetica,sans-Serif" font-size="10.00">Cpl::Memory::HPool&lt; T &gt;</text>
</a>
</g>
</g>
<!-- Node1&#45;&gt;Node3 -->
<g id="edge2" class="edge"><title>Node1&#45;&gt;Node3</title>
<path fill="none" stroke="midnightblue" d="M242.703,-52.7478C267.767,-59.7724 298.766,-68.46 322,-74.9713"/>
<polygon fill="midnightblue" stroke="midnightblue" points="243.64,-49.3758 233.067,-50.0473 241.751,-56.1161 243.64,-49.3758"/>
</g>
<!-- Node4 -->
<g id="node4" class="node"><title>Node4</title>
<g id="a_node4"><a xlink:href="class_cpl_1_1_memory_1_1_s_pool.html" target="_top" xlink:title="Cpl::Memory::SPool\l\&lt; T, N \&gt;">
<polygon fill="white" stroke="black" points="305,-25.5 305,-55.5 409,-55.5 409,-25.5 305,-25.5"/>
<text text-anchor="start" x="313" y="-43.5" font-family="Helvetica,sans-Serif" font-size="10.00">Cpl::Memory::SPool</text>
<text text-anchor="middle" x="357" y="-32.5" font-family="Helvetica,sans-Serif" font-size="10.00">&lt; T, N &gt;</text>
</a>
</g>
</g>
<!-- Node1&#45;&gt;Node4 -->
<g id="edge3" class="edge"><title>Node1&#45;&gt;Node4</title>
<path fill="none" stroke="midnightblue" d="M266.365,-40.5C279.278,-40.5 292.602,-40.5 304.899,-40.5"/>
<polygon fill="midnightblue" stroke="midnightblue" points="266.125,-37.0001 256.125,-40.5 266.125,-44.0001 266.125,-37.0001"/>
</g>
<!-- Node5 -->
<g id="node5" class="node"><title>Node5</title>
<g id="a_node5"><a xlink:href="class_cpl_1_1_memory_1_1_s_pool.html" target="_top" xlink:title="Cpl::Memory::SPool\l\&lt; Cpl::Io::Socket::InputOutput, N \&gt;">
<polygon fill="white" stroke="black" points="540,-0.5 540,-30.5 708,-30.5 708,-0.5 540,-0.5"/>
<text text-anchor="start" x="548" y="-18.5" font-family="Helvetica,sans-Serif" font-size="10.00">Cpl::Memory::SPool</text>
<text text-anchor="middle" x="624" y="-7.5" font-family="Helvetica,sans-Serif" font-size="10.00">&lt; Cpl::Io::Socket::InputOutput, N &gt;</text>
</a>
</g>
</g>
<!-- Node1&#45;&gt;Node5 -->
<g id="edge6" class="edge"><title>Node1&#45;&gt;Node5</title>
<path fill="none" stroke="midnightblue" d="M237.434,-27.8584C254.284,-22.9493 274.419,-17.9287 293,-15.5 376.508,-4.58487 472.923,-6.20509 539.886,-9.5636"/>
<polygon fill="midnightblue" stroke="midnightblue" points="235.977,-24.6419 227.41,-30.8764 237.995,-31.3447 235.977,-24.6419"/>
</g>
<!-- Node2 -->
<g id="node2" class="node"><title>Node2</title>
<g id="a_node2"><a xlink:href="class_cpl_1_1_container_1_1_item.html" target="_top" xlink:title="Cpl::Container::Item">
<polygon fill="white" stroke="black" points="0,-31 0,-50 103,-50 103,-31 0,-31"/>
<text text-anchor="middle" x="51.5" y="-38" font-family="Helvetica,sans-Serif" font-size="10.00">Cpl::Container::Item</text>
</a>
</g>
</g>
<!-- Node2&#45;&gt;Node1 -->
<g id="edge1" class="edge"><title>Node2&#45;&gt;Node1</title>
<path fill="none" stroke="midnightblue" d="M113.237,-40.5C122.044,-40.5 131.085,-40.5 139.818,-40.5"/>
<polygon fill="midnightblue" stroke="midnightblue" points="113.039,-37.0001 103.039,-40.5 113.039,-44.0001 113.039,-37.0001"/>
</g>
<!-- Node4&#45;&gt;Node5 -->
<g id="edge4" class="edge"><title>Node4&#45;&gt;Node5</title>
<path fill="none" stroke="orange" stroke-dasharray="5,2" d="M419.386,-34.7089C455.162,-31.3338 500.766,-27.0315 539.743,-23.3544"/>
<polygon fill="orange" stroke="orange" points="418.722,-31.2559 409.095,-35.6797 419.379,-38.225 418.722,-31.2559"/>
<text text-anchor="start" x="439" y="-46.5" font-family="Helvetica,sans-Serif" font-size="10.00"> &lt; Cpl::Io::Socket::</text>
<text text-anchor="middle" x="480.5" y="-35.5" font-family="Helvetica,sans-Serif" font-size="10.00">InputOutput, N &gt;</text>
</g>
<!-- Node6 -->
<g id="node6" class="node"><title>Node6</title>
<g id="a_node6"><a xlink:href="class_cpl_1_1_io_1_1_socket_1_1_stream_pool.html" target="_top" xlink:title="Cpl::Io::Socket::StreamPool\&lt; N \&gt;">
<polygon fill="white" stroke="black" points="745,-6 745,-25 908,-25 908,-6 745,-6"/>
<text text-anchor="middle" x="826.5" y="-13" font-family="Helvetica,sans-Serif" font-size="10.00">Cpl::Io::Socket::StreamPool&lt; N &gt;</text>
</a>
</g>
</g>
<!-- Node5&#45;&gt;Node6 -->
<g id="edge5" class="edge"><title>Node5&#45;&gt;Node6</title>
<path fill="none" stroke="midnightblue" d="M718.519,-15.5C727.276,-15.5 736.101,-15.5 744.725,-15.5"/>
<polygon fill="midnightblue" stroke="midnightblue" points="718.288,-12.0001 708.288,-15.5 718.288,-19.0001 718.288,-12.0001"/>
</g>
</g>
</svg>
