<?xml version="1.0" encoding="UTF-8" standalone="no"?>
<!DOCTYPE svg PUBLIC "-//W3C//DTD SVG 1.1//EN"
 "http://www.w3.org/Graphics/SVG/1.1/DTD/svg11.dtd">
<!-- Generated by graphviz version 2.38.0 (20140413.2041)
 -->
<!-- Title: Cpl::Io::Socket::Win32::Listener Pages: 1 -->
<svg width="226pt" height="106pt"
 viewBox="0.00 0.00 226.00 106.00" xmlns="http://www.w3.org/2000/svg" xmlns:xlink="http://www.w3.org/1999/xlink">
<g id="graph0" class="graph" transform="scale(1 1) rotate(0) translate(4 102)">
<title>Cpl::Io::Socket::Win32::Listener</title>
<polygon fill="white" stroke="none" points="-4,4 -4,-102 222,-102 222,4 -4,4"/>
<!-- Node1 -->
<g id="node1" class="node"><title>Node1</title>
<polygon fill="#bfbfbf" stroke="black" points="65,-0.5 65,-30.5 180,-30.5 180,-0.5 65,-0.5"/>
<text text-anchor="start" x="73" y="-18.5" font-family="Helvetica,sans-Serif" font-size="10.00">Cpl::Io::Socket::Win32</text>
<text text-anchor="middle" x="122.5" y="-7.5" font-family="Helvetica,sans-Serif" font-size="10.00">::Listener</text>
</g>
<!-- Node2 -->
<g id="node2" class="node"><title>Node2</title>
<polygon fill="white" stroke="#bfbfbf" points="0,-78.5 0,-97.5 127,-97.5 127,-78.5 0,-78.5"/>
<text text-anchor="middle" x="63.5" y="-85.5" font-family="Helvetica,sans-Serif" font-size="10.00">Cpl::Io::Socket::Listener_</text>
</g>
<!-- Node2&#45;&gt;Node1 -->
<g id="edge1" class="edge"><title>Node2&#45;&gt;Node1</title>
<path fill="none" stroke="midnightblue" d="M77.3983,-70.3927C87.5329,-58.2828 101.117,-42.0514 110.72,-30.5762"/>
<polygon fill="midnightblue" stroke="midnightblue" points="74.4684,-68.4402 70.7346,-78.3553 79.8366,-72.9327 74.4684,-68.4402"/>
</g>
<!-- Node3 -->
<g id="node3" class="node"><title>Node3</title>
<g id="a_node3"><a xlink:href="class_cpl_1_1_log_1_1_api.html" target="_top" xlink:title="Cpl::Log::Api">
<polygon fill="white" stroke="black" points="145,-78.5 145,-97.5 218,-97.5 218,-78.5 145,-78.5"/>
<text text-anchor="middle" x="181.5" y="-85.5" font-family="Helvetica,sans-Serif" font-size="10.00">Cpl::Log::Api</text>
</a>
</g>
</g>
<!-- Node3&#45;&gt;Node1 -->
<g id="edge2" class="edge"><title>Node3&#45;&gt;Node1</title>
<path fill="none" stroke="#9a32cd" stroke-dasharray="5,2" d="M167.602,-70.3927C157.467,-58.2828 143.883,-42.0514 134.28,-30.5762"/>
<polygon fill="#9a32cd" stroke="#9a32cd" points="165.163,-72.9327 174.265,-78.3553 170.532,-68.4402 165.163,-72.9327"/>
<text text-anchor="middle" x="178" y="-52" font-family="Helvetica,sans-Serif" font-size="10.00"> m_logger</text>
</g>
</g>
</svg>
