<?xml version="1.0" encoding="UTF-8" standalone="no"?>
<!DOCTYPE svg PUBLIC "-//W3C//DTD SVG 1.1//EN"
 "http://www.w3.org/Graphics/SVG/1.1/DTD/svg11.dtd">
<!-- Generated by graphviz version 2.38.0 (20140413.2041)
 -->
<!-- Title: Cpl::Io::InputOutput Pages: 1 -->
<svg width="178pt" height="196pt"
 viewBox="0.00 0.00 177.50 196.00" xmlns="http://www.w3.org/2000/svg" xmlns:xlink="http://www.w3.org/1999/xlink">
<g id="graph0" class="graph" transform="scale(1 1) rotate(0) translate(4 192)">
<title>Cpl::Io::InputOutput</title>
<polygon fill="white" stroke="none" points="-4,4 -4,-192 173.5,-192 173.5,4 -4,4"/>
<!-- Node1 -->
<g id="node1" class="node"><title>Node1</title>
<polygon fill="#bfbfbf" stroke="black" points="32,-0.5 32,-19.5 133,-19.5 133,-0.5 32,-0.5"/>
<text text-anchor="middle" x="82.5" y="-7.5" font-family="Helvetica,sans-Serif" font-size="10.00">Cpl::Io::InputOutput</text>
</g>
<!-- Node2 -->
<g id="node2" class="node"><title>Node2</title>
<g id="a_node2"><a xlink:href="class_cpl_1_1_io_1_1_input.html" target="_top" xlink:title="Cpl::Io::Input">
<polygon fill="white" stroke="black" points="0,-56.5 0,-75.5 71,-75.5 71,-56.5 0,-56.5"/>
<text text-anchor="middle" x="35.5" y="-63.5" font-family="Helvetica,sans-Serif" font-size="10.00">Cpl::Io::Input</text>
</a>
</g>
</g>
<!-- Node2&#45;&gt;Node1 -->
<g id="edge1" class="edge"><title>Node2&#45;&gt;Node1</title>
<path fill="none" stroke="midnightblue" d="M49.9208,-48.4314C58.1581,-38.9673 68.1539,-27.4827 74.8833,-19.7511"/>
<polygon fill="midnightblue" stroke="midnightblue" points="47.1863,-46.2421 43.2611,-56.083 52.4664,-50.8378 47.1863,-46.2421"/>
</g>
<!-- Node3 -->
<g id="node3" class="node"><title>Node3</title>
<g id="a_node3"><a xlink:href="class_cpl_1_1_io_1_1_close.html" target="_top" xlink:title="Cpl::Io::Close">
<polygon fill="white" stroke="black" points="45,-112.5 45,-131.5 120,-131.5 120,-112.5 45,-112.5"/>
<text text-anchor="middle" x="82.5" y="-119.5" font-family="Helvetica,sans-Serif" font-size="10.00">Cpl::Io::Close</text>
</a>
</g>
</g>
<!-- Node3&#45;&gt;Node2 -->
<g id="edge2" class="edge"><title>Node3&#45;&gt;Node2</title>
<path fill="none" stroke="midnightblue" d="M68.0792,-104.431C59.8419,-94.9673 49.8461,-83.4827 43.1167,-75.7511"/>
<polygon fill="midnightblue" stroke="midnightblue" points="65.5336,-106.838 74.7389,-112.083 70.8137,-102.242 65.5336,-106.838"/>
</g>
<!-- Node5 -->
<g id="node5" class="node"><title>Node5</title>
<g id="a_node5"><a xlink:href="class_cpl_1_1_io_1_1_output.html" target="_top" xlink:title="Cpl::Io::Output">
<polygon fill="white" stroke="black" points="89.5,-56.5 89.5,-75.5 169.5,-75.5 169.5,-56.5 89.5,-56.5"/>
<text text-anchor="middle" x="129.5" y="-63.5" font-family="Helvetica,sans-Serif" font-size="10.00">Cpl::Io::Output</text>
</a>
</g>
</g>
<!-- Node3&#45;&gt;Node5 -->
<g id="edge5" class="edge"><title>Node3&#45;&gt;Node5</title>
<path fill="none" stroke="midnightblue" d="M96.9208,-104.431C105.158,-94.9673 115.154,-83.4827 121.883,-75.7511"/>
<polygon fill="midnightblue" stroke="midnightblue" points="94.1863,-102.242 90.2611,-112.083 99.4664,-106.838 94.1863,-102.242"/>
</g>
<!-- Node4 -->
<g id="node4" class="node"><title>Node4</title>
<g id="a_node4"><a xlink:href="class_cpl_1_1_container_1_1_item.html" target="_top" xlink:title="Cpl::Container::Item">
<polygon fill="white" stroke="black" points="31,-168.5 31,-187.5 134,-187.5 134,-168.5 31,-168.5"/>
<text text-anchor="middle" x="82.5" y="-175.5" font-family="Helvetica,sans-Serif" font-size="10.00">Cpl::Container::Item</text>
</a>
</g>
</g>
<!-- Node4&#45;&gt;Node3 -->
<g id="edge3" class="edge"><title>Node4&#45;&gt;Node3</title>
<path fill="none" stroke="midnightblue" d="M82.5,-157.805C82.5,-148.91 82.5,-138.78 82.5,-131.751"/>
<polygon fill="midnightblue" stroke="midnightblue" points="79.0001,-158.083 82.5,-168.083 86.0001,-158.083 79.0001,-158.083"/>
</g>
<!-- Node5&#45;&gt;Node1 -->
<g id="edge4" class="edge"><title>Node5&#45;&gt;Node1</title>
<path fill="none" stroke="midnightblue" d="M115.079,-48.4314C106.842,-38.9673 96.8461,-27.4827 90.1167,-19.7511"/>
<polygon fill="midnightblue" stroke="midnightblue" points="112.534,-50.8378 121.739,-56.083 117.814,-46.2421 112.534,-50.8378"/>
</g>
</g>
</svg>
