<?xml version="1.0" encoding="UTF-8" standalone="no"?>
<!DOCTYPE svg PUBLIC "-//W3C//DTD SVG 1.1//EN"
 "http://www.w3.org/Graphics/SVG/1.1/DTD/svg11.dtd">
<!-- Generated by graphviz version 2.38.0 (20140413.2041)
 -->
<!-- Title: Cpl::Itc::Mailbox Pages: 1 -->
<svg width="361pt" height="231pt"
 viewBox="0.00 0.00 361.00 231.00" xmlns="http://www.w3.org/2000/svg" xmlns:xlink="http://www.w3.org/1999/xlink">
<g id="graph0" class="graph" transform="scale(1 1) rotate(0) translate(4 227)">
<title>Cpl::Itc::Mailbox</title>
<polygon fill="white" stroke="none" points="-4,4 -4,-227 357,-227 357,4 -4,4"/>
<!-- Node1 -->
<g id="node1" class="node"><title>Node1</title>
<polygon fill="#bfbfbf" stroke="black" points="119.5,-57.5 119.5,-76.5 206.5,-76.5 206.5,-57.5 119.5,-57.5"/>
<text text-anchor="middle" x="163" y="-64.5" font-family="Helvetica,sans-Serif" font-size="10.00">Cpl::Itc::Mailbox</text>
</g>
<!-- Node7 -->
<g id="node7" class="node"><title>Node7</title>
<g id="a_node7"><a xlink:href="class_cpl_1_1_itc_1_1_mailbox_server.html" target="_top" xlink:title="Cpl::Itc::MailboxServer">
<polygon fill="white" stroke="black" points="106,-0.5 106,-19.5 220,-19.5 220,-0.5 106,-0.5"/>
<text text-anchor="middle" x="163" y="-7.5" font-family="Helvetica,sans-Serif" font-size="10.00">Cpl::Itc::MailboxServer</text>
</a>
</g>
</g>
<!-- Node1&#45;&gt;Node7 -->
<g id="edge6" class="edge"><title>Node1&#45;&gt;Node7</title>
<path fill="none" stroke="midnightblue" d="M163,-47.1166C163,-37.8173 163,-27.0557 163,-19.7149"/>
<polygon fill="midnightblue" stroke="midnightblue" points="159.5,-47.4062 163,-57.4063 166.5,-47.4063 159.5,-47.4062"/>
</g>
<!-- Node2 -->
<g id="node2" class="node"><title>Node2</title>
<g id="a_node2"><a xlink:href="class_cpl_1_1_itc_1_1_post_api.html" target="_top" xlink:title="Cpl::Itc::PostApi">
<polygon fill="white" stroke="black" points="0,-120 0,-139 88,-139 88,-120 0,-120"/>
<text text-anchor="middle" x="44" y="-127" font-family="Helvetica,sans-Serif" font-size="10.00">Cpl::Itc::PostApi</text>
</a>
</g>
</g>
<!-- Node2&#45;&gt;Node1 -->
<g id="edge1" class="edge"><title>Node2&#45;&gt;Node1</title>
<path fill="none" stroke="midnightblue" d="M69.9979,-115.283C93.0436,-103.566 126.037,-86.7922 145.903,-76.6923"/>
<polygon fill="midnightblue" stroke="midnightblue" points="68.1253,-112.308 60.7974,-119.96 71.2977,-118.548 68.1253,-112.308"/>
</g>
<!-- Node3 -->
<g id="node3" class="node"><title>Node3</title>
<g id="a_node3"><a xlink:href="class_cpl_1_1_system_1_1_signable.html" target="_top" xlink:title="Cpl::System::Signable">
<polygon fill="white" stroke="black" points="106,-120 106,-139 220,-139 220,-120 106,-120"/>
<text text-anchor="middle" x="163" y="-127" font-family="Helvetica,sans-Serif" font-size="10.00">Cpl::System::Signable</text>
</a>
</g>
</g>
<!-- Node3&#45;&gt;Node1 -->
<g id="edge2" class="edge"><title>Node3&#45;&gt;Node1</title>
<path fill="none" stroke="midnightblue" d="M163,-109.503C163,-98.5003 163,-85.182 163,-76.6521"/>
<polygon fill="midnightblue" stroke="midnightblue" points="159.5,-109.832 163,-119.832 166.5,-109.832 159.5,-109.832"/>
</g>
<!-- Node4 -->
<g id="node4" class="node"><title>Node4</title>
<g id="a_node4"><a xlink:href="class_cpl_1_1_container_1_1_item.html" target="_top" xlink:title="Cpl::Container::Item">
<polygon fill="white" stroke="black" points="111.5,-198 111.5,-217 214.5,-217 214.5,-198 111.5,-198"/>
<text text-anchor="middle" x="163" y="-205" font-family="Helvetica,sans-Serif" font-size="10.00">Cpl::Container::Item</text>
</a>
</g>
</g>
<!-- Node4&#45;&gt;Node3 -->
<g id="edge3" class="edge"><title>Node4&#45;&gt;Node3</title>
<path fill="none" stroke="midnightblue" d="M163,-187.724C163,-172.197 163,-150.858 163,-139.116"/>
<polygon fill="midnightblue" stroke="midnightblue" points="159.5,-187.782 163,-197.782 166.5,-187.782 159.5,-187.782"/>
</g>
<!-- Node5 -->
<g id="node5" class="node"><title>Node5</title>
<g id="a_node5"><a xlink:href="class_cpl_1_1_container_1_1_s_list.html" target="_top" xlink:title="Cpl::Container::SList\l\&lt; Message \&gt;">
<polygon fill="white" stroke="black" points="238.5,-114.5 238.5,-144.5 345.5,-144.5 345.5,-114.5 238.5,-114.5"/>
<text text-anchor="start" x="246.5" y="-132.5" font-family="Helvetica,sans-Serif" font-size="10.00">Cpl::Container::SList</text>
<text text-anchor="middle" x="292" y="-121.5" font-family="Helvetica,sans-Serif" font-size="10.00">&lt; Message &gt;</text>
</a>
</g>
</g>
<!-- Node5&#45;&gt;Node1 -->
<g id="edge4" class="edge"><title>Node5&#45;&gt;Node1</title>
<path fill="none" stroke="midnightblue" d="M252.921,-110.172C229.093,-98.9972 199.755,-85.2378 181.209,-76.5399"/>
<polygon fill="midnightblue" stroke="midnightblue" points="251.541,-113.391 262.081,-114.468 254.513,-107.053 251.541,-113.391"/>
</g>
<!-- Node6 -->
<g id="node6" class="node"><title>Node6</title>
<g id="a_node6"><a xlink:href="class_cpl_1_1_container_1_1_s_list.html" target="_top" xlink:title="Cpl::Container::SList\l\&lt; ITEM \&gt;">
<polygon fill="white" stroke="black" points="238.5,-192.5 238.5,-222.5 345.5,-222.5 345.5,-192.5 238.5,-192.5"/>
<text text-anchor="start" x="246.5" y="-210.5" font-family="Helvetica,sans-Serif" font-size="10.00">Cpl::Container::SList</text>
<text text-anchor="middle" x="292" y="-199.5" font-family="Helvetica,sans-Serif" font-size="10.00">&lt; ITEM &gt;</text>
</a>
</g>
</g>
<!-- Node6&#45;&gt;Node5 -->
<g id="edge5" class="edge"><title>Node6&#45;&gt;Node5</title>
<path fill="none" stroke="orange" stroke-dasharray="5,2" d="M292,-182.09C292,-169.757 292,-155.224 292,-144.731"/>
<polygon fill="orange" stroke="orange" points="288.5,-182.205 292,-192.205 295.5,-182.205 288.5,-182.205"/>
<text text-anchor="middle" x="322.5" y="-166" font-family="Helvetica,sans-Serif" font-size="10.00"> &lt; Message &gt;</text>
</g>
</g>
</svg>
