<?xml version="1.0" encoding="UTF-8" standalone="no"?>
<!DOCTYPE svg PUBLIC "-//W3C//DTD SVG 1.1//EN"
 "http://www.w3.org/Graphics/SVG/1.1/DTD/svg11.dtd">
<!-- Generated by graphviz version 2.38.0 (20140413.2041)
 -->
<!-- Title: Cpl::Io::Output Pages: 1 -->
<svg width="830pt" height="192pt"
 viewBox="0.00 0.00 830.00 191.50" xmlns="http://www.w3.org/2000/svg" xmlns:xlink="http://www.w3.org/1999/xlink">
<g id="graph0" class="graph" transform="scale(1 1) rotate(0) translate(4 187.5)">
<title>Cpl::Io::Output</title>
<polygon fill="white" stroke="none" points="-4,4 -4,-187.5 826,-187.5 826,4 -4,4"/>
<!-- Node1 -->
<g id="node1" class="node"><title>Node1</title>
<polygon fill="#bfbfbf" stroke="black" points="250,-57.5 250,-76.5 330,-76.5 330,-57.5 250,-57.5"/>
<text text-anchor="middle" x="290" y="-64.5" font-family="Helvetica,sans-Serif" font-size="10.00">Cpl::Io::Output</text>
</g>
<!-- Node4 -->
<g id="node4" class="node"><title>Node4</title>
<g id="a_node4"><a xlink:href="class_cpl_1_1_io_1_1_atomic_output_api.html" target="_top" xlink:title="Cpl::Io::AtomicOutputApi\l\&lt; CONTEXT \&gt;">
<polygon fill="white" stroke="black" points="366,-134 366,-164 491,-164 491,-134 366,-134"/>
<text text-anchor="start" x="374" y="-152" font-family="Helvetica,sans-Serif" font-size="10.00">Cpl::Io::AtomicOutputApi</text>
<text text-anchor="middle" x="428.5" y="-141" font-family="Helvetica,sans-Serif" font-size="10.00">&lt; CONTEXT &gt;</text>
</a>
</g>
</g>
<!-- Node1&#45;&gt;Node4 -->
<g id="edge3" class="edge"><title>Node1&#45;&gt;Node4</title>
<path fill="none" stroke="midnightblue" d="M315.65,-81.808C340.209,-96.5615 377.725,-119.098 402.43,-133.94"/>
<polygon fill="midnightblue" stroke="midnightblue" points="317.3,-78.7163 306.925,-76.5669 313.695,-84.7168 317.3,-78.7163"/>
</g>
<!-- Node6 -->
<g id="node6" class="node"><title>Node6</title>
<g id="a_node6"><a xlink:href="class_cpl_1_1_io_1_1_file_1_1_output_api.html" target="_top" xlink:title="Cpl::Io::File::OutputApi">
<polygon fill="white" stroke="black" points="370.5,-76.5 370.5,-95.5 486.5,-95.5 486.5,-76.5 370.5,-76.5"/>
<text text-anchor="middle" x="428.5" y="-83.5" font-family="Helvetica,sans-Serif" font-size="10.00">Cpl::Io::File::OutputApi</text>
</a>
</g>
</g>
<!-- Node1&#45;&gt;Node6 -->
<g id="edge5" class="edge"><title>Node1&#45;&gt;Node6</title>
<path fill="none" stroke="midnightblue" d="M340.087,-73.8326C349.892,-75.1974 360.27,-76.642 370.32,-78.0409"/>
<polygon fill="midnightblue" stroke="midnightblue" points="340.502,-70.3568 330.115,-72.4446 339.537,-77.29 340.502,-70.3568"/>
</g>
<!-- Node10 -->
<g id="node10" class="node"><title>Node10</title>
<g id="a_node10"><a xlink:href="class_cpl_1_1_io_1_1_input_output.html" target="_top" xlink:title="Cpl::Io::InputOutput">
<polygon fill="white" stroke="black" points="378,-38.5 378,-57.5 479,-57.5 479,-38.5 378,-38.5"/>
<text text-anchor="middle" x="428.5" y="-45.5" font-family="Helvetica,sans-Serif" font-size="10.00">Cpl::Io::InputOutput</text>
</a>
</g>
</g>
<!-- Node1&#45;&gt;Node10 -->
<g id="edge9" class="edge"><title>Node1&#45;&gt;Node10</title>
<path fill="none" stroke="midnightblue" d="M340.12,-60.1628C352.325,-58.464 365.417,-56.6416 377.656,-54.938"/>
<polygon fill="midnightblue" stroke="midnightblue" points="339.537,-56.71 330.115,-61.5554 340.502,-63.6432 339.537,-56.71"/>
</g>
<!-- Node13 -->
<g id="node13" class="node"><title>Node13</title>
<g id="a_node13"><a xlink:href="class_cpl_1_1_io_1_1_tee_output.html" target="_top" xlink:title="Cpl::Io::TeeOutput">
<polygon fill="white" stroke="black" points="381,-0.5 381,-19.5 476,-19.5 476,-0.5 381,-0.5"/>
<text text-anchor="middle" x="428.5" y="-7.5" font-family="Helvetica,sans-Serif" font-size="10.00">Cpl::Io::TeeOutput</text>
</a>
</g>
</g>
<!-- Node1&#45;&gt;Node13 -->
<g id="edge12" class="edge"><title>Node1&#45;&gt;Node13</title>
<path fill="none" stroke="midnightblue" d="M317.046,-52.4301C331.246,-44.84 349.288,-35.7586 366,-29 374.599,-25.5226 384.086,-22.3028 392.983,-19.5392"/>
<polygon fill="midnightblue" stroke="midnightblue" points="315.011,-49.5522 307.893,-57.3996 318.351,-55.704 315.011,-49.5522"/>
</g>
<!-- Node2 -->
<g id="node2" class="node"><title>Node2</title>
<g id="a_node2"><a xlink:href="class_cpl_1_1_io_1_1_close.html" target="_top" xlink:title="Cpl::Io::Close">
<polygon fill="white" stroke="black" points="139,-57.5 139,-76.5 214,-76.5 214,-57.5 139,-57.5"/>
<text text-anchor="middle" x="176.5" y="-64.5" font-family="Helvetica,sans-Serif" font-size="10.00">Cpl::Io::Close</text>
</a>
</g>
</g>
<!-- Node2&#45;&gt;Node1 -->
<g id="edge1" class="edge"><title>Node2&#45;&gt;Node1</title>
<path fill="none" stroke="midnightblue" d="M224.176,-67C232.674,-67 241.461,-67 249.719,-67"/>
<polygon fill="midnightblue" stroke="midnightblue" points="224.009,-63.5001 214.009,-67 224.009,-70.5001 224.009,-63.5001"/>
</g>
<!-- Node3 -->
<g id="node3" class="node"><title>Node3</title>
<g id="a_node3"><a xlink:href="class_cpl_1_1_container_1_1_item.html" target="_top" xlink:title="Cpl::Container::Item">
<polygon fill="white" stroke="black" points="0,-57.5 0,-76.5 103,-76.5 103,-57.5 0,-57.5"/>
<text text-anchor="middle" x="51.5" y="-64.5" font-family="Helvetica,sans-Serif" font-size="10.00">Cpl::Container::Item</text>
</a>
</g>
</g>
<!-- Node3&#45;&gt;Node2 -->
<g id="edge2" class="edge"><title>Node3&#45;&gt;Node2</title>
<path fill="none" stroke="midnightblue" d="M113.38,-67C122.06,-67 130.757,-67 138.778,-67"/>
<polygon fill="midnightblue" stroke="midnightblue" points="113.239,-63.5001 103.239,-67 113.239,-70.5001 113.239,-63.5001"/>
</g>
<!-- Node5 -->
<g id="node5" class="node"><title>Node5</title>
<g id="a_node5"><a xlink:href="class_cpl_1_1_io_1_1_atomic_output.html" target="_top" xlink:title="Cpl::Io::AtomicOutput\l\&lt; CONTEXT \&gt;">
<polygon fill="white" stroke="black" points="540.5,-153 540.5,-183 650.5,-183 650.5,-153 540.5,-153"/>
<text text-anchor="start" x="548.5" y="-171" font-family="Helvetica,sans-Serif" font-size="10.00">Cpl::Io::AtomicOutput</text>
<text text-anchor="middle" x="595.5" y="-160" font-family="Helvetica,sans-Serif" font-size="10.00">&lt; CONTEXT &gt;</text>
</a>
</g>
</g>
<!-- Node4&#45;&gt;Node5 -->
<g id="edge4" class="edge"><title>Node4&#45;&gt;Node5</title>
<path fill="none" stroke="midnightblue" d="M501.718,-157.316C514.695,-158.81 528.017,-160.344 540.373,-161.767"/>
<polygon fill="midnightblue" stroke="midnightblue" points="501.744,-153.796 491.409,-156.129 500.943,-160.75 501.744,-153.796"/>
</g>
<!-- Node7 -->
<g id="node7" class="node"><title>Node7</title>
<g id="a_node7"><a xlink:href="class_cpl_1_1_io_1_1_file_1_1_input_output_api.html" target="_top" xlink:title="Cpl::Io::File::InputOutputApi">
<polygon fill="white" stroke="black" points="527,-114.5 527,-133.5 664,-133.5 664,-114.5 527,-114.5"/>
<text text-anchor="middle" x="595.5" y="-121.5" font-family="Helvetica,sans-Serif" font-size="10.00">Cpl::Io::File::InputOutputApi</text>
</a>
</g>
</g>
<!-- Node6&#45;&gt;Node7 -->
<g id="edge6" class="edge"><title>Node6&#45;&gt;Node7</title>
<path fill="none" stroke="midnightblue" d="M481.154,-97.8961C504.346,-103.237 531.338,-109.454 553.163,-114.48"/>
<polygon fill="midnightblue" stroke="midnightblue" points="481.667,-94.4226 471.136,-95.589 480.096,-101.244 481.667,-94.4226"/>
</g>
<!-- Node9 -->
<g id="node9" class="node"><title>Node9</title>
<g id="a_node9"><a xlink:href="class_cpl_1_1_io_1_1_file_1_1_output.html" target="_top" xlink:title="Cpl::Io::File::Output">
<polygon fill="white" stroke="black" points="545,-76.5 545,-95.5 646,-95.5 646,-76.5 545,-76.5"/>
<text text-anchor="middle" x="595.5" y="-83.5" font-family="Helvetica,sans-Serif" font-size="10.00">Cpl::Io::File::Output</text>
</a>
</g>
</g>
<!-- Node6&#45;&gt;Node9 -->
<g id="edge8" class="edge"><title>Node6&#45;&gt;Node9</title>
<path fill="none" stroke="midnightblue" d="M497.095,-86C513.051,-86 529.777,-86 544.777,-86"/>
<polygon fill="midnightblue" stroke="midnightblue" points="496.746,-82.5001 486.746,-86 496.746,-89.5001 496.746,-82.5001"/>
</g>
<!-- Node8 -->
<g id="node8" class="node"><title>Node8</title>
<g id="a_node8"><a xlink:href="class_cpl_1_1_io_1_1_file_1_1_input_output.html" target="_top" xlink:title="Cpl::Io::File::InputOutput">
<polygon fill="white" stroke="black" points="700,-114.5 700,-133.5 822,-133.5 822,-114.5 700,-114.5"/>
<text text-anchor="middle" x="761" y="-121.5" font-family="Helvetica,sans-Serif" font-size="10.00">Cpl::Io::File::InputOutput</text>
</a>
</g>
</g>
<!-- Node7&#45;&gt;Node8 -->
<g id="edge7" class="edge"><title>Node7&#45;&gt;Node8</title>
<path fill="none" stroke="midnightblue" d="M674.688,-124C683.148,-124 691.658,-124 699.857,-124"/>
<polygon fill="midnightblue" stroke="midnightblue" points="674.418,-120.5 664.418,-124 674.418,-127.5 674.418,-120.5"/>
</g>
<!-- Node11 -->
<g id="node11" class="node"><title>Node11</title>
<g id="a_node11"><a xlink:href="class_cpl_1_1_io_1_1_null.html" target="_top" xlink:title="Cpl::Io::Null">
<polygon fill="white" stroke="black" points="562,-38.5 562,-57.5 629,-57.5 629,-38.5 562,-38.5"/>
<text text-anchor="middle" x="595.5" y="-45.5" font-family="Helvetica,sans-Serif" font-size="10.00">Cpl::Io::Null</text>
</a>
</g>
</g>
<!-- Node10&#45;&gt;Node11 -->
<g id="edge10" class="edge"><title>Node10&#45;&gt;Node11</title>
<path fill="none" stroke="midnightblue" d="M489.313,-48C513.845,-48 541.278,-48 561.977,-48"/>
<polygon fill="midnightblue" stroke="midnightblue" points="489.005,-44.5001 479.005,-48 489.005,-51.5001 489.005,-44.5001"/>
</g>
<!-- Node12 -->
<g id="node12" class="node"><title>Node12</title>
<g id="a_node12"><a xlink:href="class_cpl_1_1_io_1_1_socket_1_1_input_output.html" target="_top" xlink:title="Cpl::Io::Socket::InputOutput">
<polygon fill="white" stroke="black" points="527,-0.5 527,-19.5 664,-19.5 664,-0.5 527,-0.5"/>
<text text-anchor="middle" x="595.5" y="-7.5" font-family="Helvetica,sans-Serif" font-size="10.00">Cpl::Io::Socket::InputOutput</text>
</a>
</g>
</g>
<!-- Node10&#45;&gt;Node12 -->
<g id="edge11" class="edge"><title>Node10&#45;&gt;Node12</title>
<path fill="none" stroke="midnightblue" d="M481.154,-36.1039C504.346,-30.7626 531.338,-24.5463 553.163,-19.5201"/>
<polygon fill="midnightblue" stroke="midnightblue" points="480.096,-32.7559 471.136,-38.411 481.667,-39.5774 480.096,-32.7559"/>
</g>
</g>
</svg>
