<?xml version="1.0" encoding="UTF-8" standalone="no"?>
<!DOCTYPE svg PUBLIC "-//W3C//DTD SVG 1.1//EN"
 "http://www.w3.org/Graphics/SVG/1.1/DTD/svg11.dtd">
<!-- Generated by graphviz version 2.38.0 (20140413.2041)
 -->
<!-- Title: Cpl::Io::File::InputOutputApi Pages: 1 -->
<svg width="311pt" height="252pt"
 viewBox="0.00 0.00 310.50 252.00" xmlns="http://www.w3.org/2000/svg" xmlns:xlink="http://www.w3.org/1999/xlink">
<g id="graph0" class="graph" transform="scale(1 1) rotate(0) translate(4 248)">
<title>Cpl::Io::File::InputOutputApi</title>
<polygon fill="white" stroke="none" points="-4,4 -4,-248 306.5,-248 306.5,4 -4,4"/>
<!-- Node1 -->
<g id="node1" class="node"><title>Node1</title>
<polygon fill="#bfbfbf" stroke="black" points="80,-0.5 80,-19.5 217,-19.5 217,-0.5 80,-0.5"/>
<text text-anchor="middle" x="148.5" y="-7.5" font-family="Helvetica,sans-Serif" font-size="10.00">Cpl::Io::File::InputOutputApi</text>
</g>
<!-- Node2 -->
<g id="node2" class="node"><title>Node2</title>
<g id="a_node2"><a xlink:href="class_cpl_1_1_io_1_1_file_1_1_input_api.html" target="_top" xlink:title="Cpl::Io::File::InputApi">
<polygon fill="white" stroke="black" points="30,-56.5 30,-75.5 137,-75.5 137,-56.5 30,-56.5"/>
<text text-anchor="middle" x="83.5" y="-63.5" font-family="Helvetica,sans-Serif" font-size="10.00">Cpl::Io::File::InputApi</text>
</a>
</g>
</g>
<!-- Node2&#45;&gt;Node1 -->
<g id="edge1" class="edge"><title>Node2&#45;&gt;Node1</title>
<path fill="none" stroke="midnightblue" d="M101.773,-49.8197C113.418,-40.1452 128.099,-27.9481 137.867,-19.8339"/>
<polygon fill="midnightblue" stroke="midnightblue" points="99.3987,-47.2416 93.9434,-56.324 103.872,-52.6259 99.3987,-47.2416"/>
</g>
<!-- Node3 -->
<g id="node3" class="node"><title>Node3</title>
<g id="a_node3"><a xlink:href="class_cpl_1_1_io_1_1_input.html" target="_top" xlink:title="Cpl::Io::Input">
<polygon fill="white" stroke="black" points="0,-112.5 0,-131.5 71,-131.5 71,-112.5 0,-112.5"/>
<text text-anchor="middle" x="35.5" y="-119.5" font-family="Helvetica,sans-Serif" font-size="10.00">Cpl::Io::Input</text>
</a>
</g>
</g>
<!-- Node3&#45;&gt;Node2 -->
<g id="edge2" class="edge"><title>Node3&#45;&gt;Node2</title>
<path fill="none" stroke="midnightblue" d="M50.2277,-104.431C58.6401,-94.9673 68.8487,-83.4827 75.7213,-75.7511"/>
<polygon fill="midnightblue" stroke="midnightblue" points="47.454,-102.284 43.4262,-112.083 52.6858,-106.934 47.454,-102.284"/>
</g>
<!-- Node4 -->
<g id="node4" class="node"><title>Node4</title>
<g id="a_node4"><a xlink:href="class_cpl_1_1_io_1_1_close.html" target="_top" xlink:title="Cpl::Io::Close">
<polygon fill="white" stroke="black" points="111,-168.5 111,-187.5 186,-187.5 186,-168.5 111,-168.5"/>
<text text-anchor="middle" x="148.5" y="-175.5" font-family="Helvetica,sans-Serif" font-size="10.00">Cpl::Io::Close</text>
</a>
</g>
</g>
<!-- Node4&#45;&gt;Node3 -->
<g id="edge3" class="edge"><title>Node4&#45;&gt;Node3</title>
<path fill="none" stroke="midnightblue" d="M121.497,-164.096C100.386,-154.007 71.6385,-140.27 53.3214,-131.516"/>
<polygon fill="midnightblue" stroke="midnightblue" points="120.063,-167.29 130.595,-168.444 123.081,-160.974 120.063,-167.29"/>
</g>
<!-- Node8 -->
<g id="node8" class="node"><title>Node8</title>
<g id="a_node8"><a xlink:href="class_cpl_1_1_io_1_1_output.html" target="_top" xlink:title="Cpl::Io::Output">
<polygon fill="white" stroke="black" points="222.5,-112.5 222.5,-131.5 302.5,-131.5 302.5,-112.5 222.5,-112.5"/>
<text text-anchor="middle" x="262.5" y="-119.5" font-family="Helvetica,sans-Serif" font-size="10.00">Cpl::Io::Output</text>
</a>
</g>
</g>
<!-- Node4&#45;&gt;Node8 -->
<g id="edge8" class="edge"><title>Node4&#45;&gt;Node8</title>
<path fill="none" stroke="midnightblue" d="M175.742,-164.096C197.04,-154.007 226.042,-140.27 244.521,-131.516"/>
<polygon fill="midnightblue" stroke="midnightblue" points="174.103,-161 166.564,-168.444 177.099,-167.326 174.103,-161"/>
</g>
<!-- Node5 -->
<g id="node5" class="node"><title>Node5</title>
<g id="a_node5"><a xlink:href="class_cpl_1_1_container_1_1_item.html" target="_top" xlink:title="Cpl::Container::Item">
<polygon fill="white" stroke="black" points="97,-224.5 97,-243.5 200,-243.5 200,-224.5 97,-224.5"/>
<text text-anchor="middle" x="148.5" y="-231.5" font-family="Helvetica,sans-Serif" font-size="10.00">Cpl::Container::Item</text>
</a>
</g>
</g>
<!-- Node5&#45;&gt;Node4 -->
<g id="edge4" class="edge"><title>Node5&#45;&gt;Node4</title>
<path fill="none" stroke="midnightblue" d="M148.5,-213.805C148.5,-204.91 148.5,-194.78 148.5,-187.751"/>
<polygon fill="midnightblue" stroke="midnightblue" points="145,-214.083 148.5,-224.083 152,-214.083 145,-214.083"/>
</g>
<!-- Node6 -->
<g id="node6" class="node"><title>Node6</title>
<g id="a_node6"><a xlink:href="class_cpl_1_1_io_1_1_file_1_1_object_api.html" target="_top" xlink:title="Cpl::Io::File::ObjectApi">
<polygon fill="white" stroke="black" points="89,-112.5 89,-131.5 204,-131.5 204,-112.5 89,-112.5"/>
<text text-anchor="middle" x="146.5" y="-119.5" font-family="Helvetica,sans-Serif" font-size="10.00">Cpl::Io::File::ObjectApi</text>
</a>
</g>
</g>
<!-- Node6&#45;&gt;Node2 -->
<g id="edge5" class="edge"><title>Node6&#45;&gt;Node2</title>
<path fill="none" stroke="#8b1a1a" d="M128.46,-105.537C117.227,-95.9087 103.181,-83.8694 93.8062,-75.8339"/>
<polygon fill="#8b1a1a" stroke="#8b1a1a" points="126.508,-108.473 136.378,-112.324 131.063,-103.159 126.508,-108.473"/>
</g>
<!-- Node7 -->
<g id="node7" class="node"><title>Node7</title>
<g id="a_node7"><a xlink:href="class_cpl_1_1_io_1_1_file_1_1_output_api.html" target="_top" xlink:title="Cpl::Io::File::OutputApi">
<polygon fill="white" stroke="black" points="155.5,-56.5 155.5,-75.5 271.5,-75.5 271.5,-56.5 155.5,-56.5"/>
<text text-anchor="middle" x="213.5" y="-63.5" font-family="Helvetica,sans-Serif" font-size="10.00">Cpl::Io::File::OutputApi</text>
</a>
</g>
</g>
<!-- Node6&#45;&gt;Node7 -->
<g id="edge9" class="edge"><title>Node6&#45;&gt;Node7</title>
<path fill="none" stroke="#8b1a1a" d="M165.335,-105.82C177.338,-96.1452 192.472,-83.9481 202.539,-75.8339"/>
<polygon fill="#8b1a1a" stroke="#8b1a1a" points="162.854,-103.324 157.265,-112.324 167.247,-108.774 162.854,-103.324"/>
</g>
<!-- Node7&#45;&gt;Node1 -->
<g id="edge6" class="edge"><title>Node7&#45;&gt;Node1</title>
<path fill="none" stroke="midnightblue" d="M195.227,-49.8197C183.582,-40.1452 168.901,-27.9481 159.133,-19.8339"/>
<polygon fill="midnightblue" stroke="midnightblue" points="193.128,-52.6259 203.057,-56.324 197.601,-47.2416 193.128,-52.6259"/>
</g>
<!-- Node8&#45;&gt;Node7 -->
<g id="edge7" class="edge"><title>Node8&#45;&gt;Node7</title>
<path fill="none" stroke="midnightblue" d="M247.466,-104.431C238.878,-94.9673 228.457,-83.4827 221.441,-75.7511"/>
<polygon fill="midnightblue" stroke="midnightblue" points="245.097,-107.029 254.409,-112.083 250.281,-102.325 245.097,-107.029"/>
</g>
</g>
</svg>
