<?xml version="1.0" encoding="UTF-8" standalone="no"?>
<!DOCTYPE svg PUBLIC "-//W3C//DTD SVG 1.1//EN"
 "http://www.w3.org/Graphics/SVG/1.1/DTD/svg11.dtd">
<!-- Generated by graphviz version 2.38.0 (20140413.2041)
 -->
<!-- Title: Cpl::Itc::MailboxServer Pages: 1 -->
<svg width="833pt" height="242pt"
 viewBox="0.00 0.00 833.00 241.50" xmlns="http://www.w3.org/2000/svg" xmlns:xlink="http://www.w3.org/1999/xlink">
<g id="graph0" class="graph" transform="scale(1 1) rotate(0) translate(4 237.5)">
<title>Cpl::Itc::MailboxServer</title>
<polygon fill="white" stroke="none" points="-4,4 -4,-237.5 829,-237.5 829,4 -4,4"/>
<!-- Node1 -->
<g id="node1" class="node"><title>Node1</title>
<polygon fill="#bfbfbf" stroke="black" points="711,-90 711,-109 825,-109 825,-90 711,-90"/>
<text text-anchor="middle" x="768" y="-97" font-family="Helvetica,sans-Serif" font-size="10.00">Cpl::Itc::MailboxServer</text>
</g>
<!-- Node2 -->
<g id="node2" class="node"><title>Node2</title>
<g id="a_node2"><a xlink:href="class_cpl_1_1_itc_1_1_mailbox.html" target="_top" xlink:title="Cpl::Itc::Mailbox">
<polygon fill="white" stroke="black" points="572,-129 572,-148 659,-148 659,-129 572,-129"/>
<text text-anchor="middle" x="615.5" y="-136" font-family="Helvetica,sans-Serif" font-size="10.00">Cpl::Itc::Mailbox</text>
</a>
</g>
</g>
<!-- Node2&#45;&gt;Node1 -->
<g id="edge1" class="edge"><title>Node2&#45;&gt;Node1</title>
<path fill="none" stroke="midnightblue" d="M663.263,-126.382C684.854,-120.787 710.115,-114.241 730.303,-109.009"/>
<polygon fill="midnightblue" stroke="midnightblue" points="662.119,-123.063 653.316,-128.96 663.875,-129.839 662.119,-123.063"/>
</g>
<!-- Node3 -->
<g id="node3" class="node"><title>Node3</title>
<g id="a_node3"><a xlink:href="class_cpl_1_1_itc_1_1_post_api.html" target="_top" xlink:title="Cpl::Itc::PostApi">
<polygon fill="white" stroke="black" points="320,-214 320,-233 408,-233 408,-214 320,-214"/>
<text text-anchor="middle" x="364" y="-221" font-family="Helvetica,sans-Serif" font-size="10.00">Cpl::Itc::PostApi</text>
</a>
</g>
</g>
<!-- Node3&#45;&gt;Node2 -->
<g id="edge2" class="edge"><title>Node3&#45;&gt;Node2</title>
<path fill="none" stroke="midnightblue" d="M418.288,-222.554C453.753,-220.26 500.688,-213.962 539,-197.5 566.206,-185.81 592.08,-161.852 605.321,-148.338"/>
<polygon fill="midnightblue" stroke="midnightblue" points="417.929,-219.068 408.14,-223.122 418.32,-226.057 417.929,-219.068"/>
</g>
<!-- Node4 -->
<g id="node4" class="node"><title>Node4</title>
<g id="a_node4"><a xlink:href="class_cpl_1_1_system_1_1_signable.html" target="_top" xlink:title="Cpl::System::Signable">
<polygon fill="white" stroke="black" points="307,-176 307,-195 421,-195 421,-176 307,-176"/>
<text text-anchor="middle" x="364" y="-183" font-family="Helvetica,sans-Serif" font-size="10.00">Cpl::System::Signable</text>
</a>
</g>
</g>
<!-- Node4&#45;&gt;Node2 -->
<g id="edge3" class="edge"><title>Node4&#45;&gt;Node2</title>
<path fill="none" stroke="midnightblue" d="M431.576,-189.069C464.424,-189.168 504.336,-186.772 539,-177.5 561.946,-171.362 585.892,-157.519 600.505,-148.09"/>
<polygon fill="midnightblue" stroke="midnightblue" points="431.213,-185.565 421.175,-188.955 431.136,-192.565 431.213,-185.565"/>
</g>
<!-- Node4&#45;&gt;Node2 -->
<g id="edge7" class="edge"><title>Node4&#45;&gt;Node2</title>
<path fill="none" stroke="#9a32cd" stroke-dasharray="5,2" d="M416.126,-173.698C430.305,-170.562 445.724,-167.277 460,-164.5 497.646,-157.176 540.692,-150.033 571.769,-145.093"/>
<polygon fill="#9a32cd" stroke="#9a32cd" points="415.052,-170.352 406.055,-175.947 416.577,-177.184 415.052,-170.352"/>
<text text-anchor="middle" x="499.5" y="-167.5" font-family="Helvetica,sans-Serif" font-size="10.00"> m_myThreadPtr</text>
</g>
<!-- Node5 -->
<g id="node5" class="node"><title>Node5</title>
<g id="a_node5"><a xlink:href="class_cpl_1_1_container_1_1_item.html" target="_top" xlink:title="Cpl::Container::Item">
<polygon fill="white" stroke="black" points="2,-176 2,-195 105,-195 105,-176 2,-176"/>
<text text-anchor="middle" x="53.5" y="-183" font-family="Helvetica,sans-Serif" font-size="10.00">Cpl::Container::Item</text>
</a>
</g>
</g>
<!-- Node5&#45;&gt;Node4 -->
<g id="edge4" class="edge"><title>Node5&#45;&gt;Node4</title>
<path fill="none" stroke="midnightblue" d="M115.177,-185.5C170.86,-185.5 252.694,-185.5 306.887,-185.5"/>
<polygon fill="midnightblue" stroke="midnightblue" points="115.097,-182 105.097,-185.5 115.097,-189 115.097,-182"/>
</g>
<!-- Node6 -->
<g id="node6" class="node"><title>Node6</title>
<g id="a_node6"><a xlink:href="class_cpl_1_1_container_1_1_s_list.html" target="_top" xlink:title="Cpl::Container::SList\l\&lt; Message \&gt;">
<polygon fill="white" stroke="black" points="310.5,-126.5 310.5,-156.5 417.5,-156.5 417.5,-126.5 310.5,-126.5"/>
<text text-anchor="start" x="318.5" y="-144.5" font-family="Helvetica,sans-Serif" font-size="10.00">Cpl::Container::SList</text>
<text text-anchor="middle" x="364" y="-133.5" font-family="Helvetica,sans-Serif" font-size="10.00">&lt; Message &gt;</text>
</a>
</g>
</g>
<!-- Node6&#45;&gt;Node2 -->
<g id="edge5" class="edge"><title>Node6&#45;&gt;Node2</title>
<path fill="none" stroke="midnightblue" d="M427.852,-140.744C472.882,-140.203 532.324,-139.488 571.902,-139.012"/>
<polygon fill="midnightblue" stroke="midnightblue" points="427.565,-137.247 417.608,-140.867 427.649,-144.247 427.565,-137.247"/>
</g>
<!-- Node7 -->
<g id="node7" class="node"><title>Node7</title>
<g id="a_node7"><a xlink:href="class_cpl_1_1_container_1_1_s_list.html" target="_top" xlink:title="Cpl::Container::SList\l\&lt; ITEM \&gt;">
<polygon fill="white" stroke="black" points="0,-126.5 0,-156.5 107,-156.5 107,-126.5 0,-126.5"/>
<text text-anchor="start" x="8" y="-144.5" font-family="Helvetica,sans-Serif" font-size="10.00">Cpl::Container::SList</text>
<text text-anchor="middle" x="53.5" y="-133.5" font-family="Helvetica,sans-Serif" font-size="10.00">&lt; ITEM &gt;</text>
</a>
</g>
</g>
<!-- Node7&#45;&gt;Node6 -->
<g id="edge6" class="edge"><title>Node7&#45;&gt;Node6</title>
<path fill="none" stroke="orange" stroke-dasharray="5,2" d="M117.476,-141.5C174.282,-141.5 256.88,-141.5 310.277,-141.5"/>
<polygon fill="orange" stroke="orange" points="117.183,-138 107.183,-141.5 117.182,-145 117.183,-138"/>
<text text-anchor="middle" x="196.5" y="-144.5" font-family="Helvetica,sans-Serif" font-size="10.00"> &lt; Message &gt;</text>
</g>
<!-- Node8 -->
<g id="node8" class="node"><title>Node8</title>
<g id="a_node8"><a xlink:href="class_cpl_1_1_system_1_1_fast_lock.html" target="_top" xlink:title="Cpl::System::FastLock">
<polygon fill="white" stroke="black" points="305.5,-88 305.5,-107 422.5,-107 422.5,-88 305.5,-88"/>
<text text-anchor="middle" x="364" y="-95" font-family="Helvetica,sans-Serif" font-size="10.00">Cpl::System::FastLock</text>
</a>
</g>
</g>
<!-- Node8&#45;&gt;Node2 -->
<g id="edge8" class="edge"><title>Node8&#45;&gt;Node2</title>
<path fill="none" stroke="#9a32cd" stroke-dasharray="5,2" d="M432.874,-107.559C465.072,-112.451 504.057,-118.55 539,-124.5 549.645,-126.312 561.112,-128.38 571.816,-130.359"/>
<polygon fill="#9a32cd" stroke="#9a32cd" points="433.084,-104.051 422.673,-106.014 432.036,-110.972 433.084,-104.051"/>
<text text-anchor="middle" x="499.5" y="-127.5" font-family="Helvetica,sans-Serif" font-size="10.00"> m_flock</text>
</g>
<!-- Node9 -->
<g id="node9" class="node"><title>Node9</title>
<g id="a_node9"><a xlink:href="class_cpl_1_1_system_1_1_runnable.html" target="_top" xlink:title="Cpl::System::Runnable">
<polygon fill="white" stroke="black" points="557,-90 557,-109 674,-109 674,-90 557,-90"/>
<text text-anchor="middle" x="615.5" y="-97" font-family="Helvetica,sans-Serif" font-size="10.00">Cpl::System::Runnable</text>
</a>
</g>
</g>
<!-- Node9&#45;&gt;Node1 -->
<g id="edge9" class="edge"><title>Node9&#45;&gt;Node1</title>
<path fill="none" stroke="midnightblue" d="M684.447,-99.5C693.205,-99.5 702.095,-99.5 710.638,-99.5"/>
<polygon fill="midnightblue" stroke="midnightblue" points="684.257,-96.0001 674.257,-99.5 684.257,-103 684.257,-96.0001"/>
</g>
<!-- Node10 -->
<g id="node10" class="node"><title>Node10</title>
<g id="a_node10"><a xlink:href="class_cpl_1_1_timer_1_1_counter_list.html" target="_top" xlink:title="Cpl::Timer::CounterList">
<polygon fill="white" stroke="black" points="557.5,-50 557.5,-69 673.5,-69 673.5,-50 557.5,-50"/>
<text text-anchor="middle" x="615.5" y="-57" font-family="Helvetica,sans-Serif" font-size="10.00">Cpl::Timer::CounterList</text>
</a>
</g>
</g>
<!-- Node10&#45;&gt;Node1 -->
<g id="edge10" class="edge"><title>Node10&#45;&gt;Node1</title>
<path fill="none" stroke="midnightblue" d="M662.393,-71.6975C684.508,-77.5752 710.635,-84.5193 731.246,-89.9972"/>
<polygon fill="midnightblue" stroke="midnightblue" points="663.112,-68.2671 652.548,-69.081 661.314,-75.0323 663.112,-68.2671"/>
</g>
<!-- Node11 -->
<g id="node11" class="node"><title>Node11</title>
<g id="a_node11"><a xlink:href="class_cpl_1_1_timer_1_1_counter_source.html" target="_top" xlink:title="Cpl::Timer::CounterSource">
<polygon fill="white" stroke="black" points="298.5,-50 298.5,-69 429.5,-69 429.5,-50 298.5,-50"/>
<text text-anchor="middle" x="364" y="-57" font-family="Helvetica,sans-Serif" font-size="10.00">Cpl::Timer::CounterSource</text>
</a>
</g>
</g>
<!-- Node11&#45;&gt;Node10 -->
<g id="edge11" class="edge"><title>Node11&#45;&gt;Node10</title>
<path fill="none" stroke="midnightblue" d="M439.997,-59.5C477.674,-59.5 522.592,-59.5 557.42,-59.5"/>
<polygon fill="midnightblue" stroke="midnightblue" points="439.577,-56.0001 429.577,-59.5 439.577,-63.0001 439.577,-56.0001"/>
</g>
<!-- Node12 -->
<g id="node12" class="node"><title>Node12</title>
<g id="a_node12"><a xlink:href="class_cpl_1_1_container_1_1_d_list.html" target="_top" xlink:title="Cpl::Container::DList\l\&lt; Cpl::Timer::CounterCallback \&gt;">
<polygon fill="white" stroke="black" points="286,-0.5 286,-30.5 442,-30.5 442,-0.5 286,-0.5"/>
<text text-anchor="start" x="294" y="-18.5" font-family="Helvetica,sans-Serif" font-size="10.00">Cpl::Container::DList</text>
<text text-anchor="middle" x="364" y="-7.5" font-family="Helvetica,sans-Serif" font-size="10.00">&lt; Cpl::Timer::CounterCallback &gt;</text>
</a>
</g>
</g>
<!-- Node12&#45;&gt;Node10 -->
<g id="edge12" class="edge"><title>Node12&#45;&gt;Node10</title>
<path fill="none" stroke="#9a32cd" stroke-dasharray="5,2" d="M452.395,-20.6088C480.286,-23.2847 511.136,-27.3461 539,-33.5 556.869,-37.4464 576.383,-44.2357 591.096,-49.8869"/>
<polygon fill="#9a32cd" stroke="#9a32cd" points="452.541,-17.1077 442.264,-19.6843 451.905,-24.0787 452.541,-17.1077"/>
<text text-anchor="middle" x="499.5" y="-47.5" font-family="Helvetica,sans-Serif" font-size="10.00"> m_pendingAttach</text>
<text text-anchor="middle" x="499.5" y="-36.5" font-family="Helvetica,sans-Serif" font-size="10.00">m_counters</text>
</g>
<!-- Node13 -->
<g id="node13" class="node"><title>Node13</title>
<g id="a_node13"><a xlink:href="class_cpl_1_1_container_1_1_d_list.html" target="_top" xlink:title="Cpl::Container::DList\l\&lt; ITEM \&gt;">
<polygon fill="white" stroke="black" points="0,-0.5 0,-30.5 107,-30.5 107,-0.5 0,-0.5"/>
<text text-anchor="start" x="8" y="-18.5" font-family="Helvetica,sans-Serif" font-size="10.00">Cpl::Container::DList</text>
<text text-anchor="middle" x="53.5" y="-7.5" font-family="Helvetica,sans-Serif" font-size="10.00">&lt; ITEM &gt;</text>
</a>
</g>
</g>
<!-- Node13&#45;&gt;Node12 -->
<g id="edge13" class="edge"><title>Node13&#45;&gt;Node12</title>
<path fill="none" stroke="orange" stroke-dasharray="5,2" d="M117.285,-15.5C166.047,-15.5 233.899,-15.5 285.949,-15.5"/>
<polygon fill="orange" stroke="orange" points="117.183,-12.0001 107.183,-15.5 117.182,-19.0001 117.183,-12.0001"/>
<text text-anchor="middle" x="196.5" y="-18.5" font-family="Helvetica,sans-Serif" font-size="10.00"> &lt; Cpl::Timer::CounterCallback &gt;</text>
</g>
</g>
</svg>
