<?xml version="1.0" encoding="UTF-8" standalone="no"?>
<!DOCTYPE svg PUBLIC "-//W3C//DTD SVG 1.1//EN"
 "http://www.w3.org/Graphics/SVG/1.1/DTD/svg11.dtd">
<!-- Generated by graphviz version 2.38.0 (20140413.2041)
 -->
<!-- Title: Cpl::Itc::CloseSync Pages: 1 -->
<svg width="406pt" height="140pt"
 viewBox="0.00 0.00 405.50 140.00" xmlns="http://www.w3.org/2000/svg" xmlns:xlink="http://www.w3.org/1999/xlink">
<g id="graph0" class="graph" transform="scale(1 1) rotate(0) translate(4 136)">
<title>Cpl::Itc::CloseSync</title>
<polygon fill="white" stroke="none" points="-4,4 -4,-136 401.5,-136 401.5,4 -4,4"/>
<!-- Node1 -->
<g id="node1" class="node"><title>Node1</title>
<polygon fill="#bfbfbf" stroke="black" points="169,-0.5 169,-19.5 270,-19.5 270,-0.5 169,-0.5"/>
<text text-anchor="middle" x="219.5" y="-7.5" font-family="Helvetica,sans-Serif" font-size="10.00">Cpl::Itc::CloseSync</text>
</g>
<!-- Node2 -->
<g id="node2" class="node"><title>Node2</title>
<g id="a_node2"><a xlink:href="class_cpl_1_1_itc_1_1_open_sync.html" target="_top" xlink:title="Cpl::Itc::OpenSync">
<polygon fill="white" stroke="black" points="56,-56.5 56,-75.5 155,-75.5 155,-56.5 56,-56.5"/>
<text text-anchor="middle" x="105.5" y="-63.5" font-family="Helvetica,sans-Serif" font-size="10.00">Cpl::Itc::OpenSync</text>
</a>
</g>
</g>
<!-- Node2&#45;&gt;Node1 -->
<g id="edge1" class="edge"><title>Node2&#45;&gt;Node1</title>
<path fill="none" stroke="midnightblue" d="M132.742,-52.096C154.04,-42.0073 183.042,-28.2697 201.521,-19.5164"/>
<polygon fill="midnightblue" stroke="midnightblue" points="131.103,-48.9995 123.564,-56.4435 134.099,-55.3257 131.103,-48.9995"/>
</g>
<!-- Node3 -->
<g id="node3" class="node"><title>Node3</title>
<g id="a_node3"><a xlink:href="class_cpl_1_1_itc_1_1_open_api.html" target="_top" xlink:title="Cpl::Itc::OpenApi">
<polygon fill="white" stroke="black" points="0,-112.5 0,-131.5 91,-131.5 91,-112.5 0,-112.5"/>
<text text-anchor="middle" x="45.5" y="-119.5" font-family="Helvetica,sans-Serif" font-size="10.00">Cpl::Itc::OpenApi</text>
</a>
</g>
</g>
<!-- Node3&#45;&gt;Node2 -->
<g id="edge2" class="edge"><title>Node3&#45;&gt;Node2</title>
<path fill="none" stroke="midnightblue" d="M62.6809,-105.537C73.3792,-95.9087 86.7563,-83.8694 95.6846,-75.8339"/>
<polygon fill="midnightblue" stroke="midnightblue" points="60.2316,-103.033 55.14,-112.324 64.9144,-108.236 60.2316,-103.033"/>
</g>
<!-- Node4 -->
<g id="node4" class="node"><title>Node4</title>
<g id="a_node4"><a xlink:href="class_cpl_1_1_itc_1_1_open_request.html" target="_top" xlink:title="Cpl::Itc::OpenRequest">
<polygon fill="white" stroke="black" points="109,-112.5 109,-131.5 222,-131.5 222,-112.5 109,-112.5"/>
<text text-anchor="middle" x="165.5" y="-119.5" font-family="Helvetica,sans-Serif" font-size="10.00">Cpl::Itc::OpenRequest</text>
</a>
</g>
</g>
<!-- Node4&#45;&gt;Node2 -->
<g id="edge3" class="edge"><title>Node4&#45;&gt;Node2</title>
<path fill="none" stroke="midnightblue" d="M148.319,-105.537C137.621,-95.9087 124.244,-83.8694 115.315,-75.8339"/>
<polygon fill="midnightblue" stroke="midnightblue" points="146.086,-108.236 155.86,-112.324 150.768,-103.033 146.086,-108.236"/>
</g>
<!-- Node5 -->
<g id="node5" class="node"><title>Node5</title>
<g id="a_node5"><a xlink:href="class_cpl_1_1_itc_1_1_close_api.html" target="_top" xlink:title="Cpl::Itc::CloseApi">
<polygon fill="white" stroke="black" points="173.5,-56.5 173.5,-75.5 265.5,-75.5 265.5,-56.5 173.5,-56.5"/>
<text text-anchor="middle" x="219.5" y="-63.5" font-family="Helvetica,sans-Serif" font-size="10.00">Cpl::Itc::CloseApi</text>
</a>
</g>
</g>
<!-- Node5&#45;&gt;Node1 -->
<g id="edge4" class="edge"><title>Node5&#45;&gt;Node1</title>
<path fill="none" stroke="midnightblue" d="M219.5,-45.8045C219.5,-36.9102 219.5,-26.7798 219.5,-19.7511"/>
<polygon fill="midnightblue" stroke="midnightblue" points="216,-46.083 219.5,-56.083 223,-46.083 216,-46.083"/>
</g>
<!-- Node6 -->
<g id="node6" class="node"><title>Node6</title>
<g id="a_node6"><a xlink:href="class_cpl_1_1_itc_1_1_close_request.html" target="_top" xlink:title="Cpl::Itc::CloseRequest">
<polygon fill="white" stroke="black" points="283.5,-56.5 283.5,-75.5 397.5,-75.5 397.5,-56.5 283.5,-56.5"/>
<text text-anchor="middle" x="340.5" y="-63.5" font-family="Helvetica,sans-Serif" font-size="10.00">Cpl::Itc::CloseRequest</text>
</a>
</g>
</g>
<!-- Node6&#45;&gt;Node1 -->
<g id="edge5" class="edge"><title>Node6&#45;&gt;Node1</title>
<path fill="none" stroke="midnightblue" d="M312.194,-52.3678C289.535,-42.2553 258.374,-28.3486 238.583,-19.5164"/>
<polygon fill="midnightblue" stroke="midnightblue" points="310.769,-55.5643 321.327,-56.4435 313.622,-49.1719 310.769,-55.5643"/>
</g>
</g>
</svg>
