<?xml version="1.0" encoding="UTF-8" standalone="no"?>
<!DOCTYPE svg PUBLIC "-//W3C//DTD SVG 1.1//EN"
 "http://www.w3.org/Graphics/SVG/1.1/DTD/svg11.dtd">
<!-- Generated by graphviz version 2.38.0 (20140413.2041)
 -->
<!-- Title: Cpl::Timer::CounterCallback Pages: 1 -->
<svg width="152pt" height="207pt"
 viewBox="0.00 0.00 152.00 207.00" xmlns="http://www.w3.org/2000/svg" xmlns:xlink="http://www.w3.org/1999/xlink">
<g id="graph0" class="graph" transform="scale(1 1) rotate(0) translate(4 203)">
<title>Cpl::Timer::CounterCallback</title>
<polygon fill="white" stroke="none" points="-4,4 -4,-203 148,-203 148,4 -4,4"/>
<!-- Node1 -->
<g id="node1" class="node"><title>Node1</title>
<polygon fill="#bfbfbf" stroke="black" points="3,-67.5 3,-86.5 141,-86.5 141,-67.5 3,-67.5"/>
<text text-anchor="middle" x="72" y="-74.5" font-family="Helvetica,sans-Serif" font-size="10.00">Cpl::Timer::CounterCallback</text>
</g>
<!-- Node4 -->
<g id="node4" class="node"><title>Node4</title>
<g id="a_node4"><a xlink:href="class_cpl_1_1_timer_1_1_local.html" target="_top" xlink:title="Cpl::Timer::Local\&lt;\l CONTEXT \&gt;">
<polygon fill="white" stroke="black" points="24,-0.5 24,-30.5 120,-30.5 120,-0.5 24,-0.5"/>
<text text-anchor="start" x="32" y="-18.5" font-family="Helvetica,sans-Serif" font-size="10.00">Cpl::Timer::Local&lt;</text>
<text text-anchor="middle" x="72" y="-7.5" font-family="Helvetica,sans-Serif" font-size="10.00"> CONTEXT &gt;</text>
</a>
</g>
</g>
<!-- Node1&#45;&gt;Node4 -->
<g id="edge3" class="edge"><title>Node1&#45;&gt;Node4</title>
<path fill="none" stroke="midnightblue" d="M72,-57.2349C72,-48.5864 72,-38.4969 72,-30.523"/>
<polygon fill="midnightblue" stroke="midnightblue" points="68.5001,-57.4751 72,-67.4751 75.5001,-57.4751 68.5001,-57.4751"/>
</g>
<!-- Node2 -->
<g id="node2" class="node"><title>Node2</title>
<g id="a_node2"><a xlink:href="class_cpl_1_1_container_1_1_extended_item.html" target="_top" xlink:title="Cpl::Container::ExtendedItem">
<polygon fill="white" stroke="black" points="0,-123.5 0,-142.5 144,-142.5 144,-123.5 0,-123.5"/>
<text text-anchor="middle" x="72" y="-130.5" font-family="Helvetica,sans-Serif" font-size="10.00">Cpl::Container::ExtendedItem</text>
</a>
</g>
</g>
<!-- Node2&#45;&gt;Node1 -->
<g id="edge1" class="edge"><title>Node2&#45;&gt;Node1</title>
<path fill="none" stroke="midnightblue" d="M72,-112.805C72,-103.91 72,-93.7798 72,-86.7511"/>
<polygon fill="midnightblue" stroke="midnightblue" points="68.5001,-113.083 72,-123.083 75.5001,-113.083 68.5001,-113.083"/>
</g>
<!-- Node3 -->
<g id="node3" class="node"><title>Node3</title>
<g id="a_node3"><a xlink:href="class_cpl_1_1_container_1_1_item.html" target="_top" xlink:title="Cpl::Container::Item">
<polygon fill="white" stroke="black" points="20.5,-179.5 20.5,-198.5 123.5,-198.5 123.5,-179.5 20.5,-179.5"/>
<text text-anchor="middle" x="72" y="-186.5" font-family="Helvetica,sans-Serif" font-size="10.00">Cpl::Container::Item</text>
</a>
</g>
</g>
<!-- Node3&#45;&gt;Node2 -->
<g id="edge2" class="edge"><title>Node3&#45;&gt;Node2</title>
<path fill="none" stroke="midnightblue" d="M72,-168.805C72,-159.91 72,-149.78 72,-142.751"/>
<polygon fill="midnightblue" stroke="midnightblue" points="68.5001,-169.083 72,-179.083 75.5001,-169.083 68.5001,-169.083"/>
</g>
</g>
</svg>
