<?xml version="1.0" encoding="UTF-8" standalone="no"?>
<!DOCTYPE svg PUBLIC "-//W3C//DTD SVG 1.1//EN"
 "http://www.w3.org/Graphics/SVG/1.1/DTD/svg11.dtd">
<!-- Generated by graphviz version 2.38.0 (20140413.2041)
 -->
<!-- Title: Cpl::Io::Input Pages: 1 -->
<svg width="803pt" height="142pt"
 viewBox="0.00 0.00 803.00 142.00" xmlns="http://www.w3.org/2000/svg" xmlns:xlink="http://www.w3.org/1999/xlink">
<g id="graph0" class="graph" transform="scale(1 1) rotate(0) translate(4 138)">
<title>Cpl::Io::Input</title>
<polygon fill="white" stroke="none" points="-4,4 -4,-138 799,-138 799,4 -4,4"/>
<!-- Node1 -->
<g id="node1" class="node"><title>Node1</title>
<polygon fill="#bfbfbf" stroke="black" points="250,-57.5 250,-76.5 321,-76.5 321,-57.5 250,-57.5"/>
<text text-anchor="middle" x="285.5" y="-64.5" font-family="Helvetica,sans-Serif" font-size="10.00">Cpl::Io::Input</text>
</g>
<!-- Node4 -->
<g id="node4" class="node"><title>Node4</title>
<g id="a_node4"><a xlink:href="class_cpl_1_1_io_1_1_file_1_1_input_api.html" target="_top" xlink:title="Cpl::Io::File::InputApi">
<polygon fill="white" stroke="black" points="357,-76.5 357,-95.5 464,-95.5 464,-76.5 357,-76.5"/>
<text text-anchor="middle" x="410.5" y="-83.5" font-family="Helvetica,sans-Serif" font-size="10.00">Cpl::Io::File::InputApi</text>
</a>
</g>
</g>
<!-- Node1&#45;&gt;Node4 -->
<g id="edge3" class="edge"><title>Node1&#45;&gt;Node4</title>
<path fill="none" stroke="midnightblue" d="M331.02,-73.8771C339.384,-75.1691 348.202,-76.5313 356.788,-77.8575"/>
<polygon fill="midnightblue" stroke="midnightblue" points="331.507,-70.4108 321.09,-72.3431 330.438,-77.3288 331.507,-70.4108"/>
</g>
<!-- Node8 -->
<g id="node8" class="node"><title>Node8</title>
<g id="a_node8"><a xlink:href="class_cpl_1_1_io_1_1_input_output.html" target="_top" xlink:title="Cpl::Io::InputOutput">
<polygon fill="white" stroke="black" points="360,-38.5 360,-57.5 461,-57.5 461,-38.5 360,-38.5"/>
<text text-anchor="middle" x="410.5" y="-45.5" font-family="Helvetica,sans-Serif" font-size="10.00">Cpl::Io::InputOutput</text>
</a>
</g>
</g>
<!-- Node1&#45;&gt;Node8 -->
<g id="edge7" class="edge"><title>Node1&#45;&gt;Node8</title>
<path fill="none" stroke="midnightblue" d="M331.211,-60.0934C340.424,-58.6703 350.181,-57.1631 359.565,-55.7135"/>
<polygon fill="midnightblue" stroke="midnightblue" points="330.438,-56.6712 321.09,-61.6569 331.507,-63.5892 330.438,-56.6712"/>
</g>
<!-- Node2 -->
<g id="node2" class="node"><title>Node2</title>
<g id="a_node2"><a xlink:href="class_cpl_1_1_io_1_1_close.html" target="_top" xlink:title="Cpl::Io::Close">
<polygon fill="white" stroke="black" points="139,-57.5 139,-76.5 214,-76.5 214,-57.5 139,-57.5"/>
<text text-anchor="middle" x="176.5" y="-64.5" font-family="Helvetica,sans-Serif" font-size="10.00">Cpl::Io::Close</text>
</a>
</g>
</g>
<!-- Node2&#45;&gt;Node1 -->
<g id="edge1" class="edge"><title>Node2&#45;&gt;Node1</title>
<path fill="none" stroke="midnightblue" d="M224.059,-67C232.752,-67 241.693,-67 249.945,-67"/>
<polygon fill="midnightblue" stroke="midnightblue" points="224.024,-63.5001 214.024,-67 224.024,-70.5001 224.024,-63.5001"/>
</g>
<!-- Node3 -->
<g id="node3" class="node"><title>Node3</title>
<g id="a_node3"><a xlink:href="class_cpl_1_1_container_1_1_item.html" target="_top" xlink:title="Cpl::Container::Item">
<polygon fill="white" stroke="black" points="0,-57.5 0,-76.5 103,-76.5 103,-57.5 0,-57.5"/>
<text text-anchor="middle" x="51.5" y="-64.5" font-family="Helvetica,sans-Serif" font-size="10.00">Cpl::Container::Item</text>
</a>
</g>
</g>
<!-- Node3&#45;&gt;Node2 -->
<g id="edge2" class="edge"><title>Node3&#45;&gt;Node2</title>
<path fill="none" stroke="midnightblue" d="M113.38,-67C122.06,-67 130.757,-67 138.778,-67"/>
<polygon fill="midnightblue" stroke="midnightblue" points="113.239,-63.5001 103.239,-67 113.239,-70.5001 113.239,-63.5001"/>
</g>
<!-- Node5 -->
<g id="node5" class="node"><title>Node5</title>
<g id="a_node5"><a xlink:href="class_cpl_1_1_io_1_1_file_1_1_input.html" target="_top" xlink:title="Cpl::Io::File::Input">
<polygon fill="white" stroke="black" points="522,-114.5 522,-133.5 615,-133.5 615,-114.5 522,-114.5"/>
<text text-anchor="middle" x="568.5" y="-121.5" font-family="Helvetica,sans-Serif" font-size="10.00">Cpl::Io::File::Input</text>
</a>
</g>
</g>
<!-- Node4&#45;&gt;Node5 -->
<g id="edge4" class="edge"><title>Node4&#45;&gt;Node5</title>
<path fill="none" stroke="midnightblue" d="M460.632,-97.968C482.493,-103.293 507.876,-109.476 528.418,-114.48"/>
<polygon fill="midnightblue" stroke="midnightblue" points="461.41,-94.5552 450.865,-95.589 459.753,-101.356 461.41,-94.5552"/>
</g>
<!-- Node6 -->
<g id="node6" class="node"><title>Node6</title>
<g id="a_node6"><a xlink:href="class_cpl_1_1_io_1_1_file_1_1_input_output_api.html" target="_top" xlink:title="Cpl::Io::File::InputOutputApi">
<polygon fill="white" stroke="black" points="500,-76.5 500,-95.5 637,-95.5 637,-76.5 500,-76.5"/>
<text text-anchor="middle" x="568.5" y="-83.5" font-family="Helvetica,sans-Serif" font-size="10.00">Cpl::Io::File::InputOutputApi</text>
</a>
</g>
</g>
<!-- Node4&#45;&gt;Node6 -->
<g id="edge5" class="edge"><title>Node4&#45;&gt;Node6</title>
<path fill="none" stroke="midnightblue" d="M474.377,-86C482.747,-86 491.359,-86 499.806,-86"/>
<polygon fill="midnightblue" stroke="midnightblue" points="474.315,-82.5001 464.314,-86 474.314,-89.5001 474.315,-82.5001"/>
</g>
<!-- Node7 -->
<g id="node7" class="node"><title>Node7</title>
<g id="a_node7"><a xlink:href="class_cpl_1_1_io_1_1_file_1_1_input_output.html" target="_top" xlink:title="Cpl::Io::File::InputOutput">
<polygon fill="white" stroke="black" points="673,-76.5 673,-95.5 795,-95.5 795,-76.5 673,-76.5"/>
<text text-anchor="middle" x="734" y="-83.5" font-family="Helvetica,sans-Serif" font-size="10.00">Cpl::Io::File::InputOutput</text>
</a>
</g>
</g>
<!-- Node6&#45;&gt;Node7 -->
<g id="edge6" class="edge"><title>Node6&#45;&gt;Node7</title>
<path fill="none" stroke="midnightblue" d="M647.688,-86C656.148,-86 664.658,-86 672.857,-86"/>
<polygon fill="midnightblue" stroke="midnightblue" points="647.418,-82.5001 637.418,-86 647.418,-89.5001 647.418,-82.5001"/>
</g>
<!-- Node9 -->
<g id="node9" class="node"><title>Node9</title>
<g id="a_node9"><a xlink:href="class_cpl_1_1_io_1_1_null.html" target="_top" xlink:title="Cpl::Io::Null">
<polygon fill="white" stroke="black" points="535,-38.5 535,-57.5 602,-57.5 602,-38.5 535,-38.5"/>
<text text-anchor="middle" x="568.5" y="-45.5" font-family="Helvetica,sans-Serif" font-size="10.00">Cpl::Io::Null</text>
</a>
</g>
</g>
<!-- Node8&#45;&gt;Node9 -->
<g id="edge8" class="edge"><title>Node8&#45;&gt;Node9</title>
<path fill="none" stroke="midnightblue" d="M471.367,-48C492.951,-48 516.496,-48 534.882,-48"/>
<polygon fill="midnightblue" stroke="midnightblue" points="471.288,-44.5001 461.288,-48 471.288,-51.5001 471.288,-44.5001"/>
</g>
<!-- Node10 -->
<g id="node10" class="node"><title>Node10</title>
<g id="a_node10"><a xlink:href="class_cpl_1_1_io_1_1_socket_1_1_input_output.html" target="_top" xlink:title="Cpl::Io::Socket::InputOutput">
<polygon fill="white" stroke="black" points="500,-0.5 500,-19.5 637,-19.5 637,-0.5 500,-0.5"/>
<text text-anchor="middle" x="568.5" y="-7.5" font-family="Helvetica,sans-Serif" font-size="10.00">Cpl::Io::Socket::InputOutput</text>
</a>
</g>
</g>
<!-- Node8&#45;&gt;Node10 -->
<g id="edge9" class="edge"><title>Node8&#45;&gt;Node10</title>
<path fill="none" stroke="midnightblue" d="M460.632,-36.032C482.493,-30.7069 507.876,-24.5238 528.418,-19.5201"/>
<polygon fill="midnightblue" stroke="midnightblue" points="459.753,-32.6437 450.865,-38.411 461.41,-39.4448 459.753,-32.6437"/>
</g>
</g>
</svg>
