<?xml version="1.0" encoding="UTF-8" standalone="no"?>
<!DOCTYPE svg PUBLIC "-//W3C//DTD SVG 1.1//EN"
 "http://www.w3.org/Graphics/SVG/1.1/DTD/svg11.dtd">
<!-- Generated by graphviz version 2.38.0 (20140413.2041)
 -->
<!-- Title: Cpl::Io::File::InputOutput Pages: 1 -->
<svg width="311pt" height="308pt"
 viewBox="0.00 0.00 310.50 308.00" xmlns="http://www.w3.org/2000/svg" xmlns:xlink="http://www.w3.org/1999/xlink">
<g id="graph0" class="graph" transform="scale(1 1) rotate(0) translate(4 304)">
<title>Cpl::Io::File::InputOutput</title>
<polygon fill="white" stroke="none" points="-4,4 -4,-304 306.5,-304 306.5,4 -4,4"/>
<!-- Node1 -->
<g id="node1" class="node"><title>Node1</title>
<polygon fill="#bfbfbf" stroke="black" points="87.5,-0.5 87.5,-19.5 209.5,-19.5 209.5,-0.5 87.5,-0.5"/>
<text text-anchor="middle" x="148.5" y="-7.5" font-family="Helvetica,sans-Serif" font-size="10.00">Cpl::Io::File::InputOutput</text>
</g>
<!-- Node2 -->
<g id="node2" class="node"><title>Node2</title>
<g id="a_node2"><a xlink:href="class_cpl_1_1_io_1_1_file_1_1_input_output_api.html" target="_top" xlink:title="Cpl::Io::File::InputOutputApi">
<polygon fill="white" stroke="black" points="80,-56.5 80,-75.5 217,-75.5 217,-56.5 80,-56.5"/>
<text text-anchor="middle" x="148.5" y="-63.5" font-family="Helvetica,sans-Serif" font-size="10.00">Cpl::Io::File::InputOutputApi</text>
</a>
</g>
</g>
<!-- Node2&#45;&gt;Node1 -->
<g id="edge1" class="edge"><title>Node2&#45;&gt;Node1</title>
<path fill="none" stroke="midnightblue" d="M148.5,-45.8045C148.5,-36.9102 148.5,-26.7798 148.5,-19.7511"/>
<polygon fill="midnightblue" stroke="midnightblue" points="145,-46.083 148.5,-56.083 152,-46.083 145,-46.083"/>
</g>
<!-- Node3 -->
<g id="node3" class="node"><title>Node3</title>
<g id="a_node3"><a xlink:href="class_cpl_1_1_io_1_1_file_1_1_input_api.html" target="_top" xlink:title="Cpl::Io::File::InputApi">
<polygon fill="white" stroke="black" points="30,-112.5 30,-131.5 137,-131.5 137,-112.5 30,-112.5"/>
<text text-anchor="middle" x="83.5" y="-119.5" font-family="Helvetica,sans-Serif" font-size="10.00">Cpl::Io::File::InputApi</text>
</a>
</g>
</g>
<!-- Node3&#45;&gt;Node2 -->
<g id="edge2" class="edge"><title>Node3&#45;&gt;Node2</title>
<path fill="none" stroke="midnightblue" d="M101.773,-105.82C113.418,-96.1452 128.099,-83.9481 137.867,-75.8339"/>
<polygon fill="midnightblue" stroke="midnightblue" points="99.3987,-103.242 93.9434,-112.324 103.872,-108.626 99.3987,-103.242"/>
</g>
<!-- Node4 -->
<g id="node4" class="node"><title>Node4</title>
<g id="a_node4"><a xlink:href="class_cpl_1_1_io_1_1_input.html" target="_top" xlink:title="Cpl::Io::Input">
<polygon fill="white" stroke="black" points="0,-168.5 0,-187.5 71,-187.5 71,-168.5 0,-168.5"/>
<text text-anchor="middle" x="35.5" y="-175.5" font-family="Helvetica,sans-Serif" font-size="10.00">Cpl::Io::Input</text>
</a>
</g>
</g>
<!-- Node4&#45;&gt;Node3 -->
<g id="edge3" class="edge"><title>Node4&#45;&gt;Node3</title>
<path fill="none" stroke="midnightblue" d="M50.2277,-160.431C58.6401,-150.967 68.8487,-139.483 75.7213,-131.751"/>
<polygon fill="midnightblue" stroke="midnightblue" points="47.454,-158.284 43.4262,-168.083 52.6858,-162.934 47.454,-158.284"/>
</g>
<!-- Node5 -->
<g id="node5" class="node"><title>Node5</title>
<g id="a_node5"><a xlink:href="class_cpl_1_1_io_1_1_close.html" target="_top" xlink:title="Cpl::Io::Close">
<polygon fill="white" stroke="black" points="111,-224.5 111,-243.5 186,-243.5 186,-224.5 111,-224.5"/>
<text text-anchor="middle" x="148.5" y="-231.5" font-family="Helvetica,sans-Serif" font-size="10.00">Cpl::Io::Close</text>
</a>
</g>
</g>
<!-- Node5&#45;&gt;Node4 -->
<g id="edge4" class="edge"><title>Node5&#45;&gt;Node4</title>
<path fill="none" stroke="midnightblue" d="M121.497,-220.096C100.386,-210.007 71.6385,-196.27 53.3214,-187.516"/>
<polygon fill="midnightblue" stroke="midnightblue" points="120.063,-223.29 130.595,-224.444 123.081,-216.974 120.063,-223.29"/>
</g>
<!-- Node9 -->
<g id="node9" class="node"><title>Node9</title>
<g id="a_node9"><a xlink:href="class_cpl_1_1_io_1_1_output.html" target="_top" xlink:title="Cpl::Io::Output">
<polygon fill="white" stroke="black" points="222.5,-168.5 222.5,-187.5 302.5,-187.5 302.5,-168.5 222.5,-168.5"/>
<text text-anchor="middle" x="262.5" y="-175.5" font-family="Helvetica,sans-Serif" font-size="10.00">Cpl::Io::Output</text>
</a>
</g>
</g>
<!-- Node5&#45;&gt;Node9 -->
<g id="edge9" class="edge"><title>Node5&#45;&gt;Node9</title>
<path fill="none" stroke="midnightblue" d="M175.742,-220.096C197.04,-210.007 226.042,-196.27 244.521,-187.516"/>
<polygon fill="midnightblue" stroke="midnightblue" points="174.103,-217 166.564,-224.444 177.099,-223.326 174.103,-217"/>
</g>
<!-- Node6 -->
<g id="node6" class="node"><title>Node6</title>
<g id="a_node6"><a xlink:href="class_cpl_1_1_container_1_1_item.html" target="_top" xlink:title="Cpl::Container::Item">
<polygon fill="white" stroke="black" points="97,-280.5 97,-299.5 200,-299.5 200,-280.5 97,-280.5"/>
<text text-anchor="middle" x="148.5" y="-287.5" font-family="Helvetica,sans-Serif" font-size="10.00">Cpl::Container::Item</text>
</a>
</g>
</g>
<!-- Node6&#45;&gt;Node5 -->
<g id="edge5" class="edge"><title>Node6&#45;&gt;Node5</title>
<path fill="none" stroke="midnightblue" d="M148.5,-269.805C148.5,-260.91 148.5,-250.78 148.5,-243.751"/>
<polygon fill="midnightblue" stroke="midnightblue" points="145,-270.083 148.5,-280.083 152,-270.083 145,-270.083"/>
</g>
<!-- Node7 -->
<g id="node7" class="node"><title>Node7</title>
<g id="a_node7"><a xlink:href="class_cpl_1_1_io_1_1_file_1_1_object_api.html" target="_top" xlink:title="Cpl::Io::File::ObjectApi">
<polygon fill="white" stroke="black" points="89,-168.5 89,-187.5 204,-187.5 204,-168.5 89,-168.5"/>
<text text-anchor="middle" x="146.5" y="-175.5" font-family="Helvetica,sans-Serif" font-size="10.00">Cpl::Io::File::ObjectApi</text>
</a>
</g>
</g>
<!-- Node7&#45;&gt;Node3 -->
<g id="edge6" class="edge"><title>Node7&#45;&gt;Node3</title>
<path fill="none" stroke="#8b1a1a" d="M128.46,-161.537C117.227,-151.909 103.181,-139.869 93.8062,-131.834"/>
<polygon fill="#8b1a1a" stroke="#8b1a1a" points="126.508,-164.473 136.378,-168.324 131.063,-159.159 126.508,-164.473"/>
</g>
<!-- Node8 -->
<g id="node8" class="node"><title>Node8</title>
<g id="a_node8"><a xlink:href="class_cpl_1_1_io_1_1_file_1_1_output_api.html" target="_top" xlink:title="Cpl::Io::File::OutputApi">
<polygon fill="white" stroke="black" points="155.5,-112.5 155.5,-131.5 271.5,-131.5 271.5,-112.5 155.5,-112.5"/>
<text text-anchor="middle" x="213.5" y="-119.5" font-family="Helvetica,sans-Serif" font-size="10.00">Cpl::Io::File::OutputApi</text>
</a>
</g>
</g>
<!-- Node7&#45;&gt;Node8 -->
<g id="edge10" class="edge"><title>Node7&#45;&gt;Node8</title>
<path fill="none" stroke="#8b1a1a" d="M165.335,-161.82C177.338,-152.145 192.472,-139.948 202.539,-131.834"/>
<polygon fill="#8b1a1a" stroke="#8b1a1a" points="162.854,-159.324 157.265,-168.324 167.247,-164.774 162.854,-159.324"/>
</g>
<!-- Node8&#45;&gt;Node2 -->
<g id="edge7" class="edge"><title>Node8&#45;&gt;Node2</title>
<path fill="none" stroke="midnightblue" d="M195.227,-105.82C183.582,-96.1452 168.901,-83.9481 159.133,-75.8339"/>
<polygon fill="midnightblue" stroke="midnightblue" points="193.128,-108.626 203.057,-112.324 197.601,-103.242 193.128,-108.626"/>
</g>
<!-- Node9&#45;&gt;Node8 -->
<g id="edge8" class="edge"><title>Node9&#45;&gt;Node8</title>
<path fill="none" stroke="midnightblue" d="M247.466,-160.431C238.878,-150.967 228.457,-139.483 221.441,-131.751"/>
<polygon fill="midnightblue" stroke="midnightblue" points="245.097,-163.029 254.409,-168.083 250.281,-158.325 245.097,-163.029"/>
</g>
</g>
</svg>
