<?xml version="1.0" encoding="UTF-8" standalone="no"?>
<!DOCTYPE svg PUBLIC "-//W3C//DTD SVG 1.1//EN"
 "http://www.w3.org/Graphics/SVG/1.1/DTD/svg11.dtd">
<!-- Generated by graphviz version 2.38.0 (20140413.2041)
 -->
<!-- Title: Cpl::System::SimTick Pages: 1 -->
<svg width="202pt" height="209pt"
 viewBox="0.00 0.00 202.00 209.00" xmlns="http://www.w3.org/2000/svg" xmlns:xlink="http://www.w3.org/1999/xlink">
<g id="graph0" class="graph" transform="scale(1 1) rotate(0) translate(4 205)">
<title>Cpl::System::SimTick</title>
<polygon fill="white" stroke="none" points="-4,4 -4,-205 198,-205 198,4 -4,4"/>
<!-- Node1 -->
<g id="node1" class="node"><title>Node1</title>
<polygon fill="#bfbfbf" stroke="black" points="0,-0.5 0,-19.5 112,-19.5 112,-0.5 0,-0.5"/>
<text text-anchor="middle" x="56" y="-7.5" font-family="Helvetica,sans-Serif" font-size="10.00">Cpl::System::SimTick</text>
</g>
<!-- Node2 -->
<g id="node2" class="node"><title>Node2</title>
<g id="a_node2"><a xlink:href="class_cpl_1_1_container_1_1_item.html" target="_top" xlink:title="Cpl::Container::Item">
<polygon fill="white" stroke="black" points="15.5,-181.5 15.5,-200.5 118.5,-200.5 118.5,-181.5 15.5,-181.5"/>
<text text-anchor="middle" x="67" y="-188.5" font-family="Helvetica,sans-Serif" font-size="10.00">Cpl::Container::Item</text>
</a>
</g>
</g>
<!-- Node2&#45;&gt;Node1 -->
<g id="edge1" class="edge"><title>Node2&#45;&gt;Node1</title>
<path fill="none" stroke="midnightblue" d="M63.6008,-171.123C62.2441,-162.831 60.8135,-152.96 60,-144 55.7599,-97.2976 55.7292,-41.032 55.8981,-19.7362"/>
<polygon fill="midnightblue" stroke="midnightblue" points="60.1932,-171.96 65.3403,-181.22 67.0916,-170.771 60.1932,-171.96"/>
</g>
<!-- Node4 -->
<g id="node4" class="node"><title>Node4</title>
<g id="a_node4"><a xlink:href="class_cpl_1_1_system_1_1_signable.html" target="_top" xlink:title="Cpl::System::Signable">
<polygon fill="white" stroke="black" points="69,-124.5 69,-143.5 183,-143.5 183,-124.5 69,-124.5"/>
<text text-anchor="middle" x="126" y="-131.5" font-family="Helvetica,sans-Serif" font-size="10.00">Cpl::System::Signable</text>
</a>
</g>
</g>
<!-- Node2&#45;&gt;Node4 -->
<g id="edge4" class="edge"><title>Node2&#45;&gt;Node4</title>
<path fill="none" stroke="midnightblue" d="M83.7172,-174.416C94.3878,-164.469 107.825,-151.943 116.651,-143.715"/>
<polygon fill="midnightblue" stroke="midnightblue" points="81.1469,-172.027 76.2188,-181.406 85.92,-177.148 81.1469,-172.027"/>
</g>
<!-- Node3 -->
<g id="node3" class="node"><title>Node3</title>
<g id="a_node3"><a xlink:href="class_cpl_1_1_system_1_1_semaphore.html" target="_top" xlink:title="Cpl::System::Semaphore">
<polygon fill="white" stroke="black" points="68,-67.5 68,-86.5 194,-86.5 194,-67.5 68,-67.5"/>
<text text-anchor="middle" x="131" y="-74.5" font-family="Helvetica,sans-Serif" font-size="10.00">Cpl::System::Semaphore</text>
</a>
</g>
</g>
<!-- Node3&#45;&gt;Node1 -->
<g id="edge2" class="edge"><title>Node3&#45;&gt;Node1</title>
<path fill="none" stroke="#9a32cd" stroke-dasharray="5,2" d="M112.95,-60.3564C98.205,-47.5777 77.9133,-29.9915 65.9546,-19.6273"/>
<polygon fill="#9a32cd" stroke="#9a32cd" points="111.036,-63.3294 120.885,-67.2338 115.621,-58.0396 111.036,-63.3294"/>
<text text-anchor="middle" x="118.5" y="-41" font-family="Helvetica,sans-Serif" font-size="10.00"> m_waiter</text>
</g>
<!-- Node4&#45;&gt;Node3 -->
<g id="edge3" class="edge"><title>Node4&#45;&gt;Node3</title>
<path fill="none" stroke="midnightblue" d="M127.689,-114.423C128.541,-105.054 129.533,-94.1364 130.208,-86.7149"/>
<polygon fill="midnightblue" stroke="midnightblue" points="124.201,-114.13 126.781,-124.406 131.172,-114.764 124.201,-114.13"/>
</g>
</g>
</svg>
