<?xml version="1.0" encoding="UTF-8" standalone="no"?>
<!DOCTYPE svg PUBLIC "-//W3C//DTD SVG 1.1//EN"
 "http://www.w3.org/Graphics/SVG/1.1/DTD/svg11.dtd">
<!-- Generated by graphviz version 2.38.0 (20140413.2041)
 -->
<!-- Title: Cpl::Io::AtomicOutput&lt; CONTEXT &gt; Pages: 1 -->
<svg width="133pt" height="274pt"
 viewBox="0.00 0.00 133.00 274.00" xmlns="http://www.w3.org/2000/svg" xmlns:xlink="http://www.w3.org/1999/xlink">
<g id="graph0" class="graph" transform="scale(1 1) rotate(0) translate(4 270)">
<title>Cpl::Io::AtomicOutput&lt; CONTEXT &gt;</title>
<polygon fill="white" stroke="none" points="-4,4 -4,-270 129,-270 129,4 -4,4"/>
<!-- Node1 -->
<g id="node1" class="node"><title>Node1</title>
<polygon fill="#bfbfbf" stroke="black" points="7.5,-0.5 7.5,-30.5 117.5,-30.5 117.5,-0.5 7.5,-0.5"/>
<text text-anchor="start" x="15.5" y="-18.5" font-family="Helvetica,sans-Serif" font-size="10.00">Cpl::Io::AtomicOutput</text>
<text text-anchor="middle" x="62.5" y="-7.5" font-family="Helvetica,sans-Serif" font-size="10.00">&lt; CONTEXT &gt;</text>
</g>
<!-- Node2 -->
<g id="node2" class="node"><title>Node2</title>
<g id="a_node2"><a xlink:href="class_cpl_1_1_io_1_1_atomic_output_api.html" target="_top" xlink:title="Cpl::Io::AtomicOutputApi\l\&lt; CONTEXT \&gt;">
<polygon fill="white" stroke="black" points="0,-67.5 0,-97.5 125,-97.5 125,-67.5 0,-67.5"/>
<text text-anchor="start" x="8" y="-85.5" font-family="Helvetica,sans-Serif" font-size="10.00">Cpl::Io::AtomicOutputApi</text>
<text text-anchor="middle" x="62.5" y="-74.5" font-family="Helvetica,sans-Serif" font-size="10.00">&lt; CONTEXT &gt;</text>
</a>
</g>
</g>
<!-- Node2&#45;&gt;Node1 -->
<g id="edge1" class="edge"><title>Node2&#45;&gt;Node1</title>
<path fill="none" stroke="midnightblue" d="M62.5,-57.1081C62.5,-48.1539 62.5,-38.3227 62.5,-30.5765"/>
<polygon fill="midnightblue" stroke="midnightblue" points="59.0001,-57.3959 62.5,-67.396 66.0001,-57.396 59.0001,-57.3959"/>
</g>
<!-- Node3 -->
<g id="node3" class="node"><title>Node3</title>
<g id="a_node3"><a xlink:href="class_cpl_1_1_io_1_1_output.html" target="_top" xlink:title="Cpl::Io::Output">
<polygon fill="white" stroke="black" points="22.5,-134.5 22.5,-153.5 102.5,-153.5 102.5,-134.5 22.5,-134.5"/>
<text text-anchor="middle" x="62.5" y="-141.5" font-family="Helvetica,sans-Serif" font-size="10.00">Cpl::Io::Output</text>
</a>
</g>
</g>
<!-- Node3&#45;&gt;Node2 -->
<g id="edge2" class="edge"><title>Node3&#45;&gt;Node2</title>
<path fill="none" stroke="midnightblue" d="M62.5,-124.235C62.5,-115.586 62.5,-105.497 62.5,-97.523"/>
<polygon fill="midnightblue" stroke="midnightblue" points="59.0001,-124.475 62.5,-134.475 66.0001,-124.475 59.0001,-124.475"/>
</g>
<!-- Node4 -->
<g id="node4" class="node"><title>Node4</title>
<g id="a_node4"><a xlink:href="class_cpl_1_1_io_1_1_close.html" target="_top" xlink:title="Cpl::Io::Close">
<polygon fill="white" stroke="black" points="25,-190.5 25,-209.5 100,-209.5 100,-190.5 25,-190.5"/>
<text text-anchor="middle" x="62.5" y="-197.5" font-family="Helvetica,sans-Serif" font-size="10.00">Cpl::Io::Close</text>
</a>
</g>
</g>
<!-- Node4&#45;&gt;Node3 -->
<g id="edge3" class="edge"><title>Node4&#45;&gt;Node3</title>
<path fill="none" stroke="midnightblue" d="M62.5,-179.805C62.5,-170.91 62.5,-160.78 62.5,-153.751"/>
<polygon fill="midnightblue" stroke="midnightblue" points="59.0001,-180.083 62.5,-190.083 66.0001,-180.083 59.0001,-180.083"/>
</g>
<!-- Node5 -->
<g id="node5" class="node"><title>Node5</title>
<g id="a_node5"><a xlink:href="class_cpl_1_1_container_1_1_item.html" target="_top" xlink:title="Cpl::Container::Item">
<polygon fill="white" stroke="black" points="11,-246.5 11,-265.5 114,-265.5 114,-246.5 11,-246.5"/>
<text text-anchor="middle" x="62.5" y="-253.5" font-family="Helvetica,sans-Serif" font-size="10.00">Cpl::Container::Item</text>
</a>
</g>
</g>
<!-- Node5&#45;&gt;Node4 -->
<g id="edge4" class="edge"><title>Node5&#45;&gt;Node4</title>
<path fill="none" stroke="midnightblue" d="M62.5,-235.805C62.5,-226.91 62.5,-216.78 62.5,-209.751"/>
<polygon fill="midnightblue" stroke="midnightblue" points="59.0001,-236.083 62.5,-246.083 66.0001,-236.083 59.0001,-236.083"/>
</g>
</g>
</svg>
