<?xml version="1.0" encoding="UTF-8" standalone="no"?>
<!DOCTYPE svg PUBLIC "-//W3C//DTD SVG 1.1//EN"
 "http://www.w3.org/Graphics/SVG/1.1/DTD/svg11.dtd">
<!-- Generated by graphviz version 2.38.0 (20140413.2041)
 -->
<!-- Title: Cpl::System::Win32::Thread Pages: 1 -->
<svg width="664pt" height="154pt"
 viewBox="0.00 0.00 664.00 154.00" xmlns="http://www.w3.org/2000/svg" xmlns:xlink="http://www.w3.org/1999/xlink">
<g id="graph0" class="graph" transform="scale(1 1) rotate(0) translate(4 150)">
<title>Cpl::System::Win32::Thread</title>
<polygon fill="white" stroke="none" points="-4,4 -4,-150 660,-150 660,4 -4,4"/>
<!-- Node1 -->
<g id="node1" class="node"><title>Node1</title>
<polygon fill="#bfbfbf" stroke="black" points="552,-60 552,-90 656,-90 656,-60 552,-60"/>
<text text-anchor="start" x="560" y="-78" font-family="Helvetica,sans-Serif" font-size="10.00">Cpl::System::Win32</text>
<text text-anchor="middle" x="604" y="-67" font-family="Helvetica,sans-Serif" font-size="10.00">::Thread</text>
</g>
<!-- Node2 -->
<g id="node2" class="node"><title>Node2</title>
<g id="a_node2"><a xlink:href="class_cpl_1_1_system_1_1_thread.html" target="_top" xlink:title="Cpl::System::Thread">
<polygon fill="white" stroke="black" points="336,-126.5 336,-145.5 442,-145.5 442,-126.5 336,-126.5"/>
<text text-anchor="middle" x="389" y="-133.5" font-family="Helvetica,sans-Serif" font-size="10.00">Cpl::System::Thread</text>
</a>
</g>
</g>
<!-- Node2&#45;&gt;Node1 -->
<g id="edge1" class="edge"><title>Node2&#45;&gt;Node1</title>
<path fill="none" stroke="midnightblue" d="M452.271,-125.394C477.89,-120.31 507.672,-113.465 534,-105 546.684,-100.922 560.215,-95.3308 571.903,-90.08"/>
<polygon fill="midnightblue" stroke="midnightblue" points="451.459,-121.986 442.307,-127.324 452.79,-128.858 451.459,-121.986"/>
</g>
<!-- Node3 -->
<g id="node3" class="node"><title>Node3</title>
<g id="a_node3"><a xlink:href="class_cpl_1_1_system_1_1_signable.html" target="_top" xlink:title="Cpl::System::Signable">
<polygon fill="white" stroke="black" points="142,-109.5 142,-128.5 256,-128.5 256,-109.5 142,-109.5"/>
<text text-anchor="middle" x="199" y="-116.5" font-family="Helvetica,sans-Serif" font-size="10.00">Cpl::System::Signable</text>
</a>
</g>
</g>
<!-- Node3&#45;&gt;Node2 -->
<g id="edge2" class="edge"><title>Node3&#45;&gt;Node2</title>
<path fill="none" stroke="midnightblue" d="M266.142,-124.981C289.049,-127.052 314.383,-129.343 335.991,-131.297"/>
<polygon fill="midnightblue" stroke="midnightblue" points="266.426,-121.492 256.152,-124.078 265.796,-128.464 266.426,-121.492"/>
</g>
<!-- Node8 -->
<g id="node8" class="node"><title>Node8</title>
<g id="a_node8"><a xlink:href="class_cpl_1_1_system_1_1_semaphore.html" target="_top" xlink:title="Cpl::System::Semaphore">
<polygon fill="white" stroke="black" points="326,-88.5 326,-107.5 452,-107.5 452,-88.5 326,-88.5"/>
<text text-anchor="middle" x="389" y="-95.5" font-family="Helvetica,sans-Serif" font-size="10.00">Cpl::System::Semaphore</text>
</a>
</g>
</g>
<!-- Node3&#45;&gt;Node8 -->
<g id="edge9" class="edge"><title>Node3&#45;&gt;Node8</title>
<path fill="none" stroke="midnightblue" d="M266.131,-111.613C285.558,-109.443 306.73,-107.078 325.896,-104.937"/>
<polygon fill="midnightblue" stroke="midnightblue" points="265.701,-108.139 256.152,-112.728 266.478,-115.096 265.701,-108.139"/>
</g>
<!-- Node4 -->
<g id="node4" class="node"><title>Node4</title>
<g id="a_node4"><a xlink:href="class_cpl_1_1_container_1_1_item.html" target="_top" xlink:title="Cpl::Container::Item">
<polygon fill="white" stroke="black" points="0,-109.5 0,-128.5 103,-128.5 103,-109.5 0,-109.5"/>
<text text-anchor="middle" x="51.5" y="-116.5" font-family="Helvetica,sans-Serif" font-size="10.00">Cpl::Container::Item</text>
</a>
</g>
</g>
<!-- Node4&#45;&gt;Node3 -->
<g id="edge3" class="edge"><title>Node4&#45;&gt;Node3</title>
<path fill="none" stroke="midnightblue" d="M113.483,-119C122.913,-119 132.613,-119 141.928,-119"/>
<polygon fill="midnightblue" stroke="midnightblue" points="113.389,-115.5 103.389,-119 113.389,-122.5 113.389,-115.5"/>
</g>
<!-- Node5 -->
<g id="node5" class="node"><title>Node5</title>
<g id="a_node5"><a xlink:href="class_cpl_1_1_text_1_1_f_string.html" target="_top" xlink:title="Cpl::Text::FString\l\&lt; 64 \&gt;">
<polygon fill="white" stroke="black" points="342.5,-39 342.5,-69 435.5,-69 435.5,-39 342.5,-39"/>
<text text-anchor="start" x="350.5" y="-57" font-family="Helvetica,sans-Serif" font-size="10.00">Cpl::Text::FString</text>
<text text-anchor="middle" x="389" y="-46" font-family="Helvetica,sans-Serif" font-size="10.00">&lt; 64 &gt;</text>
</a>
</g>
</g>
<!-- Node5&#45;&gt;Node1 -->
<g id="edge4" class="edge"><title>Node5&#45;&gt;Node1</title>
<path fill="none" stroke="#9a32cd" stroke-dasharray="5,2" d="M445.86,-55.4038C472.602,-56.5093 505.035,-58.4821 534,-62 539.808,-62.7055 545.865,-63.6034 551.871,-64.5968"/>
<polygon fill="#9a32cd" stroke="#9a32cd" points="445.659,-51.8936 435.533,-55.0078 445.391,-58.8885 445.659,-51.8936"/>
<text text-anchor="middle" x="502" y="-65" font-family="Helvetica,sans-Serif" font-size="10.00"> m_name</text>
</g>
<!-- Node6 -->
<g id="node6" class="node"><title>Node6</title>
<polygon fill="white" stroke="#bfbfbf" points="25,-56.5 25,-75.5 78,-75.5 78,-56.5 25,-56.5"/>
<text text-anchor="middle" x="51.5" y="-63.5" font-family="Helvetica,sans-Serif" font-size="10.00">FString_</text>
</g>
<!-- Node6&#45;&gt;Node5 -->
<g id="edge5" class="edge"><title>Node6&#45;&gt;Node5</title>
<path fill="none" stroke="midnightblue" d="M88.4885,-67.4372C138.007,-69.0549 229.9,-70.7662 308,-65 319.185,-64.1742 331.192,-62.7903 342.415,-61.2777"/>
<polygon fill="midnightblue" stroke="midnightblue" points="88.4096,-63.9324 78.2948,-67.0856 88.1682,-70.9283 88.4096,-63.9324"/>
</g>
<!-- Node7 -->
<g id="node7" class="node"><title>Node7</title>
<g id="a_node7"><a xlink:href="class_cpl_1_1_text_1_1_f_string.html" target="_top" xlink:title="Cpl::Text::FString\&lt; S \&gt;">
<polygon fill="white" stroke="black" points="140,-33.5 140,-52.5 258,-52.5 258,-33.5 140,-33.5"/>
<text text-anchor="middle" x="199" y="-40.5" font-family="Helvetica,sans-Serif" font-size="10.00">Cpl::Text::FString&lt; S &gt;</text>
</a>
</g>
</g>
<!-- Node6&#45;&gt;Node7 -->
<g id="edge7" class="edge"><title>Node6&#45;&gt;Node7</title>
<path fill="none" stroke="midnightblue" d="M88.4062,-60.3241C103.961,-57.8653 122.568,-54.924 139.996,-52.169"/>
<polygon fill="midnightblue" stroke="midnightblue" points="87.5084,-56.9225 78.1776,-61.941 88.6014,-63.8366 87.5084,-56.9225"/>
</g>
<!-- Node7&#45;&gt;Node5 -->
<g id="edge6" class="edge"><title>Node7&#45;&gt;Node5</title>
<path fill="none" stroke="orange" stroke-dasharray="5,2" d="M268.215,-46.9913C292.854,-48.4329 320.054,-50.0244 342.299,-51.326"/>
<polygon fill="orange" stroke="orange" points="268.384,-43.4953 258.197,-46.4051 267.975,-50.4834 268.384,-43.4953"/>
<text text-anchor="middle" x="292" y="-53" font-family="Helvetica,sans-Serif" font-size="10.00"> &lt; 64 &gt;</text>
</g>
<!-- Node8&#45;&gt;Node1 -->
<g id="edge8" class="edge"><title>Node8&#45;&gt;Node1</title>
<path fill="none" stroke="#9a32cd" stroke-dasharray="5,2" d="M462.4,-90.1821C491.797,-87.0078 525.069,-83.415 551.865,-80.5216"/>
<polygon fill="#9a32cd" stroke="#9a32cd" points="461.747,-86.7322 452.181,-91.2856 462.499,-93.6917 461.747,-86.7322"/>
<text text-anchor="middle" x="502" y="-93" font-family="Helvetica,sans-Serif" font-size="10.00"> m_syncSema</text>
</g>
<!-- Node9 -->
<g id="node9" class="node"><title>Node9</title>
<g id="a_node9"><a xlink:href="class_cpl_1_1_system_1_1_runnable.html" target="_top" xlink:title="Cpl::System::Runnable">
<polygon fill="white" stroke="black" points="330.5,-0.5 330.5,-19.5 447.5,-19.5 447.5,-0.5 330.5,-0.5"/>
<text text-anchor="middle" x="389" y="-7.5" font-family="Helvetica,sans-Serif" font-size="10.00">Cpl::System::Runnable</text>
</a>
</g>
</g>
<!-- Node9&#45;&gt;Node1 -->
<g id="edge10" class="edge"><title>Node9&#45;&gt;Node1</title>
<path fill="none" stroke="#9a32cd" stroke-dasharray="5,2" d="M456.863,-21.5615C481.457,-26.6712 509.319,-33.4803 534,-42 547.933,-46.8095 562.755,-53.6523 575.077,-59.8611"/>
<polygon fill="#9a32cd" stroke="#9a32cd" points="457.396,-18.0984 446.9,-19.5462 456.008,-24.9594 457.396,-18.0984"/>
<text text-anchor="middle" x="502" y="-45" font-family="Helvetica,sans-Serif" font-size="10.00"> m_runnable</text>
</g>
</g>
</svg>
