<?xml version="1.0" encoding="UTF-8" standalone="no"?>
<!DOCTYPE svg PUBLIC "-//W3C//DTD SVG 1.1//EN"
 "http://www.w3.org/Graphics/SVG/1.1/DTD/svg11.dtd">
<!-- Generated by graphviz version 2.38.0 (20140413.2041)
 -->
<!-- Title: Cpl::Itc::ServiceMessage Pages: 1 -->
<svg width="152pt" height="263pt"
 viewBox="0.00 0.00 152.00 263.00" xmlns="http://www.w3.org/2000/svg" xmlns:xlink="http://www.w3.org/1999/xlink">
<g id="graph0" class="graph" transform="scale(1 1) rotate(0) translate(4 259)">
<title>Cpl::Itc::ServiceMessage</title>
<polygon fill="white" stroke="none" points="-4,4 -4,-259 148,-259 148,4 -4,4"/>
<!-- Node1 -->
<g id="node1" class="node"><title>Node1</title>
<polygon fill="#bfbfbf" stroke="black" points="9.5,-67.5 9.5,-86.5 134.5,-86.5 134.5,-67.5 9.5,-67.5"/>
<text text-anchor="middle" x="72" y="-74.5" font-family="Helvetica,sans-Serif" font-size="10.00">Cpl::Itc::ServiceMessage</text>
</g>
<!-- Node5 -->
<g id="node5" class="node"><title>Node5</title>
<g id="a_node5"><a xlink:href="class_cpl_1_1_itc_1_1_request_message.html" target="_top" xlink:title="Cpl::Itc::RequestMessage\l\&lt; SERVER, PAYLOAD \&gt;">
<polygon fill="white" stroke="black" points="7.5,-0.5 7.5,-30.5 136.5,-30.5 136.5,-0.5 7.5,-0.5"/>
<text text-anchor="start" x="15.5" y="-18.5" font-family="Helvetica,sans-Serif" font-size="10.00">Cpl::Itc::RequestMessage</text>
<text text-anchor="middle" x="72" y="-7.5" font-family="Helvetica,sans-Serif" font-size="10.00">&lt; SERVER, PAYLOAD &gt;</text>
</a>
</g>
</g>
<!-- Node1&#45;&gt;Node5 -->
<g id="edge4" class="edge"><title>Node1&#45;&gt;Node5</title>
<path fill="none" stroke="midnightblue" d="M72,-57.2349C72,-48.5864 72,-38.4969 72,-30.523"/>
<polygon fill="midnightblue" stroke="midnightblue" points="68.5001,-57.4751 72,-67.4751 75.5001,-57.4751 68.5001,-57.4751"/>
</g>
<!-- Node2 -->
<g id="node2" class="node"><title>Node2</title>
<g id="a_node2"><a xlink:href="class_cpl_1_1_itc_1_1_message.html" target="_top" xlink:title="Cpl::Itc::Message">
<polygon fill="white" stroke="black" points="25.5,-123.5 25.5,-142.5 118.5,-142.5 118.5,-123.5 25.5,-123.5"/>
<text text-anchor="middle" x="72" y="-130.5" font-family="Helvetica,sans-Serif" font-size="10.00">Cpl::Itc::Message</text>
</a>
</g>
</g>
<!-- Node2&#45;&gt;Node1 -->
<g id="edge1" class="edge"><title>Node2&#45;&gt;Node1</title>
<path fill="none" stroke="midnightblue" d="M72,-112.805C72,-103.91 72,-93.7798 72,-86.7511"/>
<polygon fill="midnightblue" stroke="midnightblue" points="68.5001,-113.083 72,-123.083 75.5001,-113.083 68.5001,-113.083"/>
</g>
<!-- Node3 -->
<g id="node3" class="node"><title>Node3</title>
<g id="a_node3"><a xlink:href="class_cpl_1_1_container_1_1_extended_item.html" target="_top" xlink:title="Cpl::Container::ExtendedItem">
<polygon fill="white" stroke="black" points="0,-179.5 0,-198.5 144,-198.5 144,-179.5 0,-179.5"/>
<text text-anchor="middle" x="72" y="-186.5" font-family="Helvetica,sans-Serif" font-size="10.00">Cpl::Container::ExtendedItem</text>
</a>
</g>
</g>
<!-- Node3&#45;&gt;Node2 -->
<g id="edge2" class="edge"><title>Node3&#45;&gt;Node2</title>
<path fill="none" stroke="midnightblue" d="M72,-168.805C72,-159.91 72,-149.78 72,-142.751"/>
<polygon fill="midnightblue" stroke="midnightblue" points="68.5001,-169.083 72,-179.083 75.5001,-169.083 68.5001,-169.083"/>
</g>
<!-- Node4 -->
<g id="node4" class="node"><title>Node4</title>
<g id="a_node4"><a xlink:href="class_cpl_1_1_container_1_1_item.html" target="_top" xlink:title="Cpl::Container::Item">
<polygon fill="white" stroke="black" points="20.5,-235.5 20.5,-254.5 123.5,-254.5 123.5,-235.5 20.5,-235.5"/>
<text text-anchor="middle" x="72" y="-242.5" font-family="Helvetica,sans-Serif" font-size="10.00">Cpl::Container::Item</text>
</a>
</g>
</g>
<!-- Node4&#45;&gt;Node3 -->
<g id="edge3" class="edge"><title>Node4&#45;&gt;Node3</title>
<path fill="none" stroke="midnightblue" d="M72,-224.805C72,-215.91 72,-205.78 72,-198.751"/>
<polygon fill="midnightblue" stroke="midnightblue" points="68.5001,-225.083 72,-235.083 75.5001,-225.083 68.5001,-225.083"/>
</g>
</g>
</svg>
