<?xml version="1.0" encoding="UTF-8" standalone="no"?>
<!DOCTYPE svg PUBLIC "-//W3C//DTD SVG 1.1//EN"
 "http://www.w3.org/Graphics/SVG/1.1/DTD/svg11.dtd">
<!-- Generated by graphviz version 2.38.0 (20140413.2041)
 -->
<!-- Title: format.h Pages: 1 -->
<svg width="444pt" height="252pt"
 viewBox="0.00 0.00 444.00 252.00" xmlns="http://www.w3.org/2000/svg" xmlns:xlink="http://www.w3.org/1999/xlink">
<g id="graph0" class="graph" transform="scale(1 1) rotate(0) translate(4 248)">
<title>format.h</title>
<polygon fill="white" stroke="none" points="-4,4 -4,-248 440,-248 440,4 -4,4"/>
<!-- Node1 -->
<g id="node1" class="node"><title>Node1</title>
<polygon fill="#bfbfbf" stroke="black" points="276,-224.5 276,-243.5 328,-243.5 328,-224.5 276,-224.5"/>
<text text-anchor="middle" x="302" y="-231.5" font-family="Helvetica,sans-Serif" font-size="10.00">format.h</text>
</g>
<!-- Node2 -->
<g id="node2" class="node"><title>Node2</title>
<g id="a_node2"><a xlink:href="_string_8h.html" target="_top" xlink:title="Cpl/Text/String.h">
<polygon fill="white" stroke="black" points="117.5,-168.5 117.5,-187.5 206.5,-187.5 206.5,-168.5 117.5,-168.5"/>
<text text-anchor="middle" x="162" y="-175.5" font-family="Helvetica,sans-Serif" font-size="10.00">Cpl/Text/String.h</text>
</a>
</g>
</g>
<!-- Node1&#45;&gt;Node2 -->
<g id="edge1" class="edge"><title>Node1&#45;&gt;Node2</title>
<path fill="none" stroke="midnightblue" d="M279.817,-224.444C256.572,-215.478 219.851,-201.314 193.585,-191.183"/>
<polygon fill="midnightblue" stroke="midnightblue" points="194.669,-187.85 184.08,-187.516 192.15,-194.381 194.669,-187.85"/>
</g>
<!-- Node11 -->
<g id="node11" class="node"><title>Node11</title>
<g id="a_node11"><a xlink:href="_elasped_time_8h.html" target="_top" xlink:title="Cpl/System/ElaspedTime.h">
<polygon fill="white" stroke="black" points="234.5,-168.5 234.5,-187.5 369.5,-187.5 369.5,-168.5 234.5,-168.5"/>
<text text-anchor="middle" x="302" y="-175.5" font-family="Helvetica,sans-Serif" font-size="10.00">Cpl/System/ElaspedTime.h</text>
</a>
</g>
</g>
<!-- Node1&#45;&gt;Node11 -->
<g id="edge11" class="edge"><title>Node1&#45;&gt;Node11</title>
<path fill="none" stroke="midnightblue" d="M302,-224.083C302,-217.006 302,-206.861 302,-197.986"/>
<polygon fill="midnightblue" stroke="midnightblue" points="305.5,-197.751 302,-187.751 298.5,-197.751 305.5,-197.751"/>
</g>
<!-- Node12 -->
<g id="node12" class="node"><title>Node12</title>
<polygon fill="white" stroke="#bfbfbf" points="388,-168.5 388,-187.5 436,-187.5 436,-168.5 388,-168.5"/>
<text text-anchor="middle" x="412" y="-175.5" font-family="Helvetica,sans-Serif" font-size="10.00">stdlib.h</text>
</g>
<!-- Node1&#45;&gt;Node12 -->
<g id="edge13" class="edge"><title>Node1&#45;&gt;Node12</title>
<path fill="none" stroke="midnightblue" d="M319.673,-224.324C337.394,-215.625 364.903,-202.12 385.288,-192.113"/>
<polygon fill="midnightblue" stroke="midnightblue" points="386.936,-195.203 394.37,-187.655 383.851,-188.919 386.936,-195.203"/>
</g>
<!-- Node3 -->
<g id="node3" class="node"><title>Node3</title>
<polygon fill="white" stroke="#bfbfbf" points="232,-112.5 232,-131.5 284,-131.5 284,-112.5 232,-112.5"/>
<text text-anchor="middle" x="258" y="-119.5" font-family="Helvetica,sans-Serif" font-size="10.00">stdarg.h</text>
</g>
<!-- Node2&#45;&gt;Node3 -->
<g id="edge2" class="edge"><title>Node2&#45;&gt;Node3</title>
<path fill="none" stroke="midnightblue" d="M177.424,-168.324C192.54,-159.822 215.815,-146.729 233.471,-136.797"/>
<polygon fill="midnightblue" stroke="midnightblue" points="235.614,-139.608 242.614,-131.655 232.183,-133.507 235.614,-139.608"/>
</g>
<!-- Node4 -->
<g id="node4" class="node"><title>Node4</title>
<polygon fill="white" stroke="#bfbfbf" points="0,-112.5 0,-131.5 54,-131.5 54,-112.5 0,-112.5"/>
<text text-anchor="middle" x="27" y="-119.5" font-family="Helvetica,sans-Serif" font-size="10.00">iostream</text>
</g>
<!-- Node2&#45;&gt;Node4 -->
<g id="edge3" class="edge"><title>Node2&#45;&gt;Node4</title>
<path fill="none" stroke="midnightblue" d="M140.609,-168.444C118.293,-159.517 83.0968,-145.439 57.792,-135.317"/>
<polygon fill="midnightblue" stroke="midnightblue" points="58.8757,-131.981 48.2911,-131.516 56.276,-138.48 58.8757,-131.981"/>
</g>
<!-- Node5 -->
<g id="node5" class="node"><title>Node5</title>
<g id="a_node5"><a xlink:href="_key_8h.html" target="_top" xlink:title="Cpl/Container/Key.h">
<polygon fill="white" stroke="black" points="110,-112.5 110,-131.5 214,-131.5 214,-112.5 110,-112.5"/>
<text text-anchor="middle" x="162" y="-119.5" font-family="Helvetica,sans-Serif" font-size="10.00">Cpl/Container/Key.h</text>
</a>
</g>
</g>
<!-- Node2&#45;&gt;Node5 -->
<g id="edge4" class="edge"><title>Node2&#45;&gt;Node5</title>
<path fill="none" stroke="midnightblue" d="M162,-168.083C162,-161.006 162,-150.861 162,-141.986"/>
<polygon fill="midnightblue" stroke="midnightblue" points="165.5,-141.751 162,-131.751 158.5,-141.751 165.5,-141.751"/>
</g>
<!-- Node10 -->
<g id="node10" class="node"><title>Node10</title>
<polygon fill="white" stroke="#bfbfbf" points="43.5,-56.5 43.5,-75.5 120.5,-75.5 120.5,-56.5 43.5,-56.5"/>
<text text-anchor="middle" x="82" y="-63.5" font-family="Helvetica,sans-Serif" font-size="10.00">colony_map.h</text>
</g>
<!-- Node2&#45;&gt;Node10 -->
<g id="edge10" class="edge"><title>Node2&#45;&gt;Node10</title>
<path fill="none" stroke="midnightblue" d="M144.824,-168.412C131.052,-160.681 112.23,-148.074 101,-132 91.4262,-118.296 86.626,-99.7631 84.2502,-85.9929"/>
<polygon fill="midnightblue" stroke="midnightblue" points="87.6655,-85.1543 82.7731,-75.7567 80.7373,-86.1541 87.6655,-85.1543"/>
</g>
<!-- Node6 -->
<g id="node6" class="node"><title>Node6</title>
<g id="a_node6"><a xlink:href="_fatal_error_8h.html" target="_top" xlink:title="Cpl/System/FatalError.h">
<polygon fill="white" stroke="black" points="139,-56.5 139,-75.5 261,-75.5 261,-56.5 139,-56.5"/>
<text text-anchor="middle" x="200" y="-63.5" font-family="Helvetica,sans-Serif" font-size="10.00">Cpl/System/FatalError.h</text>
</a>
</g>
</g>
<!-- Node5&#45;&gt;Node6 -->
<g id="edge5" class="edge"><title>Node5&#45;&gt;Node6</title>
<path fill="none" stroke="midnightblue" d="M168.275,-112.083C173.642,-104.455 181.518,-93.2645 188.079,-83.9408"/>
<polygon fill="midnightblue" stroke="midnightblue" points="190.949,-85.9434 193.842,-75.7511 185.225,-81.9149 190.949,-85.9434"/>
</g>
<!-- Node9 -->
<g id="node9" class="node"><title>Node9</title>
<polygon fill="white" stroke="#bfbfbf" points="283.5,-56.5 283.5,-75.5 332.5,-75.5 332.5,-56.5 283.5,-56.5"/>
<text text-anchor="middle" x="308" y="-63.5" font-family="Helvetica,sans-Serif" font-size="10.00">stdint.h</text>
</g>
<!-- Node5&#45;&gt;Node9 -->
<g id="edge8" class="edge"><title>Node5&#45;&gt;Node9</title>
<path fill="none" stroke="midnightblue" d="M185.134,-112.444C209.482,-103.438 248.007,-89.1891 275.423,-79.049"/>
<polygon fill="midnightblue" stroke="midnightblue" points="276.809,-82.2681 284.974,-75.5164 274.381,-75.7028 276.809,-82.2681"/>
</g>
<!-- Node5&#45;&gt;Node10 -->
<g id="edge9" class="edge"><title>Node5&#45;&gt;Node10</title>
<path fill="none" stroke="midnightblue" d="M149.147,-112.324C136.784,-103.979 117.87,-91.2122 103.263,-81.3524"/>
<polygon fill="midnightblue" stroke="midnightblue" points="105.068,-78.3483 94.8215,-75.6545 101.152,-84.1503 105.068,-78.3483"/>
</g>
<!-- Node7 -->
<g id="node7" class="node"><title>Node7</title>
<polygon fill="white" stroke="#bfbfbf" points="131.5,-0.5 131.5,-19.5 182.5,-19.5 182.5,-0.5 131.5,-0.5"/>
<text text-anchor="middle" x="157" y="-7.5" font-family="Helvetica,sans-Serif" font-size="10.00">stddef.h</text>
</g>
<!-- Node6&#45;&gt;Node7 -->
<g id="edge6" class="edge"><title>Node6&#45;&gt;Node7</title>
<path fill="none" stroke="midnightblue" d="M192.899,-56.083C186.763,-48.3768 177.73,-37.0333 170.261,-27.6531"/>
<polygon fill="midnightblue" stroke="midnightblue" points="172.936,-25.3936 163.968,-19.7511 167.46,-29.7542 172.936,-25.3936"/>
</g>
<!-- Node8 -->
<g id="node8" class="node"><title>Node8</title>
<polygon fill="white" stroke="#bfbfbf" points="201,-0.5 201,-19.5 285,-19.5 285,-0.5 201,-0.5"/>
<text text-anchor="middle" x="243" y="-7.5" font-family="Helvetica,sans-Serif" font-size="10.00">colony_config.h</text>
</g>
<!-- Node6&#45;&gt;Node8 -->
<g id="edge7" class="edge"><title>Node6&#45;&gt;Node8</title>
<path fill="none" stroke="midnightblue" d="M207.101,-56.083C213.237,-48.3768 222.27,-37.0333 229.739,-27.6531"/>
<polygon fill="midnightblue" stroke="midnightblue" points="232.54,-29.7542 236.032,-19.7511 227.064,-25.3936 232.54,-29.7542"/>
</g>
<!-- Node11&#45;&gt;Node9 -->
<g id="edge12" class="edge"><title>Node11&#45;&gt;Node9</title>
<path fill="none" stroke="midnightblue" d="M302.471,-168.368C303.439,-150.617 305.673,-109.666 306.986,-85.5974"/>
<polygon fill="midnightblue" stroke="midnightblue" points="310.481,-85.7672 307.531,-75.5914 303.492,-85.3859 310.481,-85.7672"/>
</g>
</g>
</svg>
