<?xml version="1.0" encoding="UTF-8" standalone="no"?>
<!DOCTYPE svg PUBLIC "-//W3C//DTD SVG 1.1//EN"
 "http://www.w3.org/Graphics/SVG/1.1/DTD/svg11.dtd">
<!-- Generated by graphviz version 2.38.0 (20140413.2041)
 -->
<!-- Title: Graphical Class Hierarchy Pages: 1 -->
<svg width="1044pt" height="825pt"
 viewBox="0.00 0.00 1044.00 824.50" xmlns="http://www.w3.org/2000/svg" xmlns:xlink="http://www.w3.org/1999/xlink">
<g id="graph0" class="graph" transform="scale(1 1) rotate(0) translate(4 820.5)">
<title>Graphical Class Hierarchy</title>
<polygon fill="white" stroke="none" points="-4,4 -4,-820.5 1040,-820.5 1040,4 -4,4"/>
<!-- Node1 -->
<g id="node1" class="node"><title>Node1</title>
<g id="a_node1"><a xlink:href="class_cpl_1_1_timer_1_1_api.html" target="_top" xlink:title="Cpl::Timer::Api">
<polygon fill="white" stroke="black" points="362.5,-797 362.5,-816 443.5,-816 443.5,-797 362.5,-797"/>
<text text-anchor="middle" x="403" y="-804" font-family="Helvetica,sans-Serif" font-size="10.00">Cpl::Timer::Api</text>
</a>
</g>
</g>
<!-- Node2 -->
<g id="node2" class="node"><title>Node2</title>
<g id="a_node2"><a xlink:href="class_cpl_1_1_timer_1_1_local.html" target="_top" xlink:title="Cpl::Timer::Local\&lt;\l CONTEXT \&gt;">
<polygon fill="white" stroke="black" points="558.5,-785.5 558.5,-815.5 654.5,-815.5 654.5,-785.5 558.5,-785.5"/>
<text text-anchor="start" x="566.5" y="-803.5" font-family="Helvetica,sans-Serif" font-size="10.00">Cpl::Timer::Local&lt;</text>
<text text-anchor="middle" x="606.5" y="-792.5" font-family="Helvetica,sans-Serif" font-size="10.00"> CONTEXT &gt;</text>
</a>
</g>
</g>
<!-- Node1&#45;&gt;Node2 -->
<g id="edge1" class="edge"><title>Node1&#45;&gt;Node2</title>
<path fill="none" stroke="midnightblue" d="M453.827,-805.016C485.757,-804.066 526.944,-802.839 558.339,-801.904"/>
<polygon fill="midnightblue" stroke="midnightblue" points="453.701,-801.518 443.81,-805.315 453.91,-808.515 453.701,-801.518"/>
</g>
<!-- Node3 -->
<g id="node3" class="node"><title>Node3</title>
<g id="a_node3"><a xlink:href="class_cpl_1_1_timer_1_1_counter_source.html" target="_top" xlink:title="Cpl::Timer::CounterSource">
<polygon fill="white" stroke="black" points="145.5,-226 145.5,-245 276.5,-245 276.5,-226 145.5,-226"/>
<text text-anchor="middle" x="211" y="-233" font-family="Helvetica,sans-Serif" font-size="10.00">Cpl::Timer::CounterSource</text>
</a>
</g>
</g>
<!-- Node4 -->
<g id="node4" class="node"><title>Node4</title>
<g id="a_node4"><a xlink:href="class_cpl_1_1_timer_1_1_counter_list.html" target="_top" xlink:title="Cpl::Timer::CounterList">
<polygon fill="white" stroke="black" points="345,-220 345,-239 461,-239 461,-220 345,-220"/>
<text text-anchor="middle" x="403" y="-227" font-family="Helvetica,sans-Serif" font-size="10.00">Cpl::Timer::CounterList</text>
</a>
</g>
</g>
<!-- Node3&#45;&gt;Node4 -->
<g id="edge2" class="edge"><title>Node3&#45;&gt;Node4</title>
<path fill="none" stroke="midnightblue" d="M286.604,-233.144C305.996,-232.532 326.577,-231.882 344.906,-231.303"/>
<polygon fill="midnightblue" stroke="midnightblue" points="286.475,-229.646 276.59,-233.46 286.696,-236.643 286.475,-229.646"/>
</g>
<!-- Node5 -->
<g id="node5" class="node"><title>Node5</title>
<g id="a_node5"><a xlink:href="class_cpl_1_1_itc_1_1_mailbox_server.html" target="_top" xlink:title="Cpl::Itc::MailboxServer">
<polygon fill="white" stroke="black" points="549.5,-182 549.5,-201 663.5,-201 663.5,-182 549.5,-182"/>
<text text-anchor="middle" x="606.5" y="-189" font-family="Helvetica,sans-Serif" font-size="10.00">Cpl::Itc::MailboxServer</text>
</a>
</g>
</g>
<!-- Node4&#45;&gt;Node5 -->
<g id="edge3" class="edge"><title>Node4&#45;&gt;Node5</title>
<path fill="none" stroke="midnightblue" d="M464.546,-218.082C493.377,-212.645 527.462,-206.217 554.892,-201.044"/>
<polygon fill="midnightblue" stroke="midnightblue" points="463.765,-214.667 454.587,-219.96 465.062,-221.546 463.765,-214.667"/>
</g>
<!-- Node6 -->
<g id="node6" class="node"><title>Node6</title>
<g id="a_node6"><a xlink:href="class_cpl_1_1_io_1_1_socket_1_1_factory.html" target="_top" xlink:title="Cpl::Io::Socket::Factory">
<polygon fill="white" stroke="black" points="343,-308 343,-327 463,-327 463,-308 343,-308"/>
<text text-anchor="middle" x="403" y="-315" font-family="Helvetica,sans-Serif" font-size="10.00">Cpl::Io::Socket::Factory</text>
</a>
</g>
</g>
<!-- Node7 -->
<g id="node7" class="node"><title>Node7</title>
<g id="a_node7"><a xlink:href="class_cpl_1_1_io_1_1_socket_1_1_stream_pool.html" target="_top" xlink:title="Cpl::Io::Socket::StreamPool\&lt; N \&gt;">
<polygon fill="white" stroke="black" points="525,-286 525,-305 688,-305 688,-286 525,-286"/>
<text text-anchor="middle" x="606.5" y="-293" font-family="Helvetica,sans-Serif" font-size="10.00">Cpl::Io::Socket::StreamPool&lt; N &gt;</text>
</a>
</g>
</g>
<!-- Node6&#45;&gt;Node7 -->
<g id="edge4" class="edge"><title>Node6&#45;&gt;Node7</title>
<path fill="none" stroke="midnightblue" d="M473.235,-309.941C489.813,-308.131 507.657,-306.183 524.707,-304.321"/>
<polygon fill="midnightblue" stroke="midnightblue" points="472.656,-306.483 463.095,-311.048 473.416,-313.442 472.656,-306.483"/>
</g>
<!-- Node8 -->
<g id="node8" class="node"><title>Node8</title>
<g id="a_node8"><a xlink:href="class_cpl_1_1_container_1_1_item.html" target="_top" xlink:title="Cpl::Container::Item">
<polygon fill="white" stroke="black" points="0,-415 0,-434 103,-434 103,-415 0,-415"/>
<text text-anchor="middle" x="51.5" y="-422" font-family="Helvetica,sans-Serif" font-size="10.00">Cpl::Container::Item</text>
</a>
</g>
</g>
<!-- Node9 -->
<g id="node9" class="node"><title>Node9</title>
<g id="a_node9"><a xlink:href="class_cpl_1_1_container_1_1_extended_item.html" target="_top" xlink:title="Cpl::Container::ExtendedItem">
<polygon fill="white" stroke="black" points="139,-702 139,-721 283,-721 283,-702 139,-702"/>
<text text-anchor="middle" x="211" y="-709" font-family="Helvetica,sans-Serif" font-size="10.00">Cpl::Container::ExtendedItem</text>
</a>
</g>
</g>
<!-- Node8&#45;&gt;Node9 -->
<g id="edge5" class="edge"><title>Node8&#45;&gt;Node9</title>
<path fill="none" stroke="midnightblue" d="M62.696,-443.079C93.0534,-498.397 182.14,-660.732 204.74,-701.915"/>
<polygon fill="midnightblue" stroke="midnightblue" points="65.6197,-441.132 57.7403,-434.049 59.483,-444.5 65.6197,-441.132"/>
</g>
<!-- Node21 -->
<g id="node21" class="node"><title>Node21</title>
<g id="a_node21"><a xlink:href="class_cpl_1_1_io_1_1_close.html" target="_top" xlink:title="Cpl::Io::Close">
<polygon fill="white" stroke="black" points="173.5,-510 173.5,-529 248.5,-529 248.5,-510 173.5,-510"/>
<text text-anchor="middle" x="211" y="-517" font-family="Helvetica,sans-Serif" font-size="10.00">Cpl::Io::Close</text>
</a>
</g>
</g>
<!-- Node8&#45;&gt;Node21 -->
<g id="edge18" class="edge"><title>Node8&#45;&gt;Node21</title>
<path fill="none" stroke="midnightblue" d="M67.7594,-441.955C83.8235,-459.27 110.673,-485.348 139,-500.5 149.577,-506.157 161.959,-510.222 173.394,-513.1"/>
<polygon fill="midnightblue" stroke="midnightblue" points="70.0862,-439.31 60.7805,-434.245 64.8964,-444.007 70.0862,-439.31"/>
</g>
<!-- Node36 -->
<g id="node36" class="node"><title>Node36</title>
<g id="a_node36"><a xlink:href="class_cpl_1_1_io_1_1_line_reader_api.html" target="_top" xlink:title="Cpl::Io::LineReaderApi">
<polygon fill="white" stroke="black" points="154.5,-472 154.5,-491 267.5,-491 267.5,-472 154.5,-472"/>
<text text-anchor="middle" x="211" y="-479" font-family="Helvetica,sans-Serif" font-size="10.00">Cpl::Io::LineReaderApi</text>
</a>
</g>
</g>
<!-- Node8&#45;&gt;Node36 -->
<g id="edge35" class="edge"><title>Node8&#45;&gt;Node36</title>
<path fill="none" stroke="midnightblue" d="M81.26,-438.454C97.8822,-446.183 119.336,-455.595 139,-462.5 148.872,-465.967 159.705,-469.162 169.869,-471.904"/>
<polygon fill="midnightblue" stroke="midnightblue" points="82.6195,-435.225 72.0815,-434.129 79.6358,-441.558 82.6195,-435.225"/>
</g>
<!-- Node38 -->
<g id="node38" class="node"><title>Node38</title>
<g id="a_node38"><a xlink:href="class_cpl_1_1_io_1_1_line_writer_api.html" target="_top" xlink:title="Cpl::Io::LineWriterApi">
<polygon fill="white" stroke="black" points="156.5,-434 156.5,-453 265.5,-453 265.5,-434 156.5,-434"/>
<text text-anchor="middle" x="211" y="-441" font-family="Helvetica,sans-Serif" font-size="10.00">Cpl::Io::LineWriterApi</text>
</a>
</g>
</g>
<!-- Node8&#45;&gt;Node38 -->
<g id="edge37" class="edge"><title>Node8&#45;&gt;Node38</title>
<path fill="none" stroke="midnightblue" d="M113.361,-431.842C127.551,-433.554 142.559,-435.364 156.408,-437.035"/>
<polygon fill="midnightblue" stroke="midnightblue" points="113.548,-428.339 103.201,-430.616 112.71,-435.289 113.548,-428.339"/>
</g>
<!-- Node40 -->
<g id="node40" class="node"><title>Node40</title>
<g id="a_node40"><a xlink:href="class_cpl_1_1_memory_1_1_allocator.html" target="_top" xlink:title="Cpl::Memory::Allocator">
<polygon fill="white" stroke="black" points="153,-396 153,-415 269,-415 269,-396 153,-396"/>
<text text-anchor="middle" x="211" y="-403" font-family="Helvetica,sans-Serif" font-size="10.00">Cpl::Memory::Allocator</text>
</a>
</g>
</g>
<!-- Node8&#45;&gt;Node40 -->
<g id="edge39" class="edge"><title>Node8&#45;&gt;Node40</title>
<path fill="none" stroke="midnightblue" d="M113.42,-417.151C126.379,-415.588 140.019,-413.942 152.833,-412.396"/>
<polygon fill="midnightblue" stroke="midnightblue" points="112.71,-413.711 103.201,-418.384 113.548,-420.661 112.71,-413.711"/>
</g>
<!-- Node44 -->
<g id="node44" class="node"><title>Node44</title>
<g id="a_node44"><a xlink:href="class_cpl_1_1_system_1_1_shutdown_1_1_handler.html" target="_top" xlink:title="Cpl::System::Shutdown\l::Handler">
<polygon fill="white" stroke="black" points="151.5,-346.5 151.5,-376.5 270.5,-376.5 270.5,-346.5 151.5,-346.5"/>
<text text-anchor="start" x="159.5" y="-364.5" font-family="Helvetica,sans-Serif" font-size="10.00">Cpl::System::Shutdown</text>
<text text-anchor="middle" x="211" y="-353.5" font-family="Helvetica,sans-Serif" font-size="10.00">::Handler</text>
</a>
</g>
</g>
<!-- Node8&#45;&gt;Node44 -->
<g id="edge44" class="edge"><title>Node8&#45;&gt;Node44</title>
<path fill="none" stroke="midnightblue" d="M82.135,-410.82C98.7291,-403.328 119.871,-394.057 139,-386.5 147.508,-383.139 156.672,-379.747 165.496,-376.592"/>
<polygon fill="midnightblue" stroke="midnightblue" points="80.5951,-407.676 72.9398,-415 83.4918,-414.048 80.5951,-407.676"/>
</g>
<!-- Node45 -->
<g id="node45" class="node"><title>Node45</title>
<g id="a_node45"><a xlink:href="class_cpl_1_1_system_1_1_signable.html" target="_top" xlink:title="Cpl::System::Signable">
<polygon fill="white" stroke="black" points="154,-100 154,-119 268,-119 268,-100 154,-100"/>
<text text-anchor="middle" x="211" y="-107" font-family="Helvetica,sans-Serif" font-size="10.00">Cpl::System::Signable</text>
</a>
</g>
</g>
<!-- Node8&#45;&gt;Node45 -->
<g id="edge45" class="edge"><title>Node8&#45;&gt;Node45</title>
<path fill="none" stroke="midnightblue" d="M52.0832,-404.854C52.0835,-352.095 59.6349,-206.073 139,-128.5 143.289,-124.308 148.396,-121.015 153.877,-118.432"/>
<polygon fill="midnightblue" stroke="midnightblue" points="48.5837,-404.932 52.1797,-414.898 55.5834,-404.865 48.5837,-404.932"/>
</g>
<!-- Node51 -->
<g id="node51" class="node"><title>Node51</title>
<g id="a_node51"><a xlink:href="class_cpl_1_1_system_1_1_sim_tick.html" target="_top" xlink:title="Cpl::System::SimTick">
<polygon fill="white" stroke="black" points="155,-62 155,-81 267,-81 267,-62 155,-62"/>
<text text-anchor="middle" x="211" y="-69" font-family="Helvetica,sans-Serif" font-size="10.00">Cpl::System::SimTick</text>
</a>
</g>
</g>
<!-- Node8&#45;&gt;Node51 -->
<g id="edge52" class="edge"><title>Node8&#45;&gt;Node51</title>
<path fill="none" stroke="midnightblue" d="M55.002,-404.713C63.5712,-339.992 93.7336,-136.133 139,-90.5 143.493,-85.9705 148.94,-82.4855 154.796,-79.8098"/>
<polygon fill="midnightblue" stroke="midnightblue" points="51.5089,-404.434 53.6934,-414.802 58.4507,-405.335 51.5089,-404.434"/>
</g>
<!-- Node10 -->
<g id="node10" class="node"><title>Node10</title>
<g id="a_node10"><a xlink:href="class_cpl_1_1_container_1_1_dict_item.html" target="_top" xlink:title="Cpl::Container::DictItem">
<polygon fill="white" stroke="black" points="343,-721 343,-740 463,-740 463,-721 343,-721"/>
<text text-anchor="middle" x="403" y="-728" font-family="Helvetica,sans-Serif" font-size="10.00">Cpl::Container::DictItem</text>
</a>
</g>
</g>
<!-- Node9&#45;&gt;Node10 -->
<g id="edge6" class="edge"><title>Node9&#45;&gt;Node10</title>
<path fill="none" stroke="midnightblue" d="M293.294,-719.629C309.946,-721.295 327.171,-723.017 342.866,-724.587"/>
<polygon fill="midnightblue" stroke="midnightblue" points="293.318,-716.114 283.019,-718.602 292.621,-723.08 293.318,-716.114"/>
</g>
<!-- Node16 -->
<g id="node16" class="node"><title>Node16</title>
<g id="a_node16"><a xlink:href="class_cpl_1_1_itc_1_1_message.html" target="_top" xlink:title="Cpl::Itc::Message">
<polygon fill="white" stroke="black" points="356.5,-683 356.5,-702 449.5,-702 449.5,-683 356.5,-683"/>
<text text-anchor="middle" x="403" y="-690" font-family="Helvetica,sans-Serif" font-size="10.00">Cpl::Itc::Message</text>
</a>
</g>
</g>
<!-- Node9&#45;&gt;Node16 -->
<g id="edge12" class="edge"><title>Node9&#45;&gt;Node16</title>
<path fill="none" stroke="midnightblue" d="M293.202,-703.38C314.828,-701.217 337.428,-698.957 356.392,-697.061"/>
<polygon fill="midnightblue" stroke="midnightblue" points="292.621,-699.92 283.019,-704.398 293.318,-706.886 292.621,-699.92"/>
</g>
<!-- Node20 -->
<g id="node20" class="node"><title>Node20</title>
<g id="a_node20"><a xlink:href="class_cpl_1_1_timer_1_1_counter_callback.html" target="_top" xlink:title="Cpl::Timer::CounterCallback">
<polygon fill="white" stroke="black" points="334,-759 334,-778 472,-778 472,-759 334,-759"/>
<text text-anchor="middle" x="403" y="-766" font-family="Helvetica,sans-Serif" font-size="10.00">Cpl::Timer::CounterCallback</text>
</a>
</g>
</g>
<!-- Node9&#45;&gt;Node20 -->
<g id="edge16" class="edge"><title>Node9&#45;&gt;Node20</title>
<path fill="none" stroke="midnightblue" d="M245.78,-724.633C266.675,-732.471 294.163,-742.273 319,-749.5 330.923,-752.969 343.958,-756.207 356.091,-758.992"/>
<polygon fill="midnightblue" stroke="midnightblue" points="246.976,-721.343 236.385,-721.074 244.496,-727.889 246.976,-721.343"/>
</g>
<!-- Node11 -->
<g id="node11" class="node"><title>Node11</title>
<g id="a_node11"><a xlink:href="class_cpl_1_1_container_1_1_map_item.html" target="_top" xlink:title="Cpl::Container::MapItem">
<polygon fill="white" stroke="black" points="545.5,-734 545.5,-753 667.5,-753 667.5,-734 545.5,-734"/>
<text text-anchor="middle" x="606.5" y="-741" font-family="Helvetica,sans-Serif" font-size="10.00">Cpl::Container::MapItem</text>
</a>
</g>
</g>
<!-- Node10&#45;&gt;Node11 -->
<g id="edge7" class="edge"><title>Node10&#45;&gt;Node11</title>
<path fill="none" stroke="midnightblue" d="M473.313,-734.972C496.745,-736.484 522.697,-738.158 545.358,-739.62"/>
<polygon fill="midnightblue" stroke="midnightblue" points="473.3,-731.464 463.095,-734.313 472.849,-738.449 473.3,-731.464"/>
</g>
<!-- Node12 -->
<g id="node12" class="node"><title>Node12</title>
<g id="a_node12"><a xlink:href="class_cpl_1_1_text_1_1_string_item.html" target="_top" xlink:title="Cpl::Text::StringItem">
<polygon fill="white" stroke="black" points="741.5,-734 741.5,-753 847.5,-753 847.5,-734 741.5,-734"/>
<text text-anchor="middle" x="794.5" y="-741" font-family="Helvetica,sans-Serif" font-size="10.00">Cpl::Text::StringItem</text>
</a>
</g>
</g>
<!-- Node11&#45;&gt;Node12 -->
<g id="edge8" class="edge"><title>Node11&#45;&gt;Node12</title>
<path fill="none" stroke="midnightblue" d="M677.836,-743.5C698.937,-743.5 721.694,-743.5 741.395,-743.5"/>
<polygon fill="midnightblue" stroke="midnightblue" points="677.632,-740 667.632,-743.5 677.632,-747 677.632,-740"/>
</g>
<!-- Node13 -->
<g id="node13" class="node"><title>Node13</title>
<g id="a_node13"><a xlink:href="class_cpl_1_1_text_1_1_d_f_string_item.html" target="_top" xlink:title="Cpl::Text::DFStringItem">
<polygon fill="white" stroke="black" points="908,-772 908,-791 1027,-791 1027,-772 908,-772"/>
<text text-anchor="middle" x="967.5" y="-779" font-family="Helvetica,sans-Serif" font-size="10.00">Cpl::Text::DFStringItem</text>
</a>
</g>
</g>
<!-- Node12&#45;&gt;Node13 -->
<g id="edge9" class="edge"><title>Node12&#45;&gt;Node13</title>
<path fill="none" stroke="midnightblue" d="M848.709,-755.324C872.817,-760.682 900.94,-766.931 923.66,-771.98"/>
<polygon fill="midnightblue" stroke="midnightblue" points="849.172,-751.842 838.651,-753.089 847.653,-758.675 849.172,-751.842"/>
</g>
<!-- Node14 -->
<g id="node14" class="node"><title>Node14</title>
<g id="a_node14"><a xlink:href="class_cpl_1_1_text_1_1_d_string_item.html" target="_top" xlink:title="Cpl::Text::DStringItem">
<polygon fill="white" stroke="black" points="911,-734 911,-753 1024,-753 1024,-734 911,-734"/>
<text text-anchor="middle" x="967.5" y="-741" font-family="Helvetica,sans-Serif" font-size="10.00">Cpl::Text::DStringItem</text>
</a>
</g>
</g>
<!-- Node12&#45;&gt;Node14 -->
<g id="edge10" class="edge"><title>Node12&#45;&gt;Node14</title>
<path fill="none" stroke="midnightblue" d="M857.755,-743.5C875.085,-743.5 893.794,-743.5 910.726,-743.5"/>
<polygon fill="midnightblue" stroke="midnightblue" points="857.735,-740 847.735,-743.5 857.735,-747 857.735,-740"/>
</g>
<!-- Node15 -->
<g id="node15" class="node"><title>Node15</title>
<g id="a_node15"><a xlink:href="class_cpl_1_1_text_1_1_f_string_item.html" target="_top" xlink:title="Cpl::Text::FStringItem\&lt; S \&gt;">
<polygon fill="white" stroke="black" points="899,-696 899,-715 1036,-715 1036,-696 899,-696"/>
<text text-anchor="middle" x="967.5" y="-703" font-family="Helvetica,sans-Serif" font-size="10.00">Cpl::Text::FStringItem&lt; S &gt;</text>
</a>
</g>
</g>
<!-- Node12&#45;&gt;Node15 -->
<g id="edge11" class="edge"><title>Node12&#45;&gt;Node15</title>
<path fill="none" stroke="midnightblue" d="M848.709,-731.676C872.817,-726.318 900.94,-720.069 923.66,-715.02"/>
<polygon fill="midnightblue" stroke="midnightblue" points="847.653,-728.325 838.651,-733.911 849.172,-735.158 847.653,-728.325"/>
</g>
<!-- Node17 -->
<g id="node17" class="node"><title>Node17</title>
<g id="a_node17"><a xlink:href="class_cpl_1_1_itc_1_1_response_message.html" target="_top" xlink:title="Cpl::Itc::ResponseMessage\l\&lt; CLIENT, SERVER, PAYLOAD \&gt;">
<polygon fill="white" stroke="black" points="523,-684.5 523,-714.5 690,-714.5 690,-684.5 523,-684.5"/>
<text text-anchor="start" x="531" y="-702.5" font-family="Helvetica,sans-Serif" font-size="10.00">Cpl::Itc::ResponseMessage</text>
<text text-anchor="middle" x="606.5" y="-691.5" font-family="Helvetica,sans-Serif" font-size="10.00">&lt; CLIENT, SERVER, PAYLOAD &gt;</text>
</a>
</g>
</g>
<!-- Node16&#45;&gt;Node17 -->
<g id="edge13" class="edge"><title>Node16&#45;&gt;Node17</title>
<path fill="none" stroke="midnightblue" d="M459.91,-694.442C479.349,-695.118 501.585,-695.89 522.729,-696.625"/>
<polygon fill="midnightblue" stroke="midnightblue" points="459.839,-690.938 449.723,-694.088 459.596,-697.934 459.839,-690.938"/>
</g>
<!-- Node18 -->
<g id="node18" class="node"><title>Node18</title>
<g id="a_node18"><a xlink:href="class_cpl_1_1_itc_1_1_service_message.html" target="_top" xlink:title="Cpl::Itc::ServiceMessage">
<polygon fill="white" stroke="black" points="544,-646 544,-665 669,-665 669,-646 544,-646"/>
<text text-anchor="middle" x="606.5" y="-653" font-family="Helvetica,sans-Serif" font-size="10.00">Cpl::Itc::ServiceMessage</text>
</a>
</g>
</g>
<!-- Node16&#45;&gt;Node18 -->
<g id="edge14" class="edge"><title>Node16&#45;&gt;Node18</title>
<path fill="none" stroke="midnightblue" d="M459.806,-682.253C489.128,-676.869 524.837,-670.312 553.564,-665.037"/>
<polygon fill="midnightblue" stroke="midnightblue" points="458.927,-678.856 449.723,-684.104 460.191,-685.74 458.927,-678.856"/>
</g>
<!-- Node19 -->
<g id="node19" class="node"><title>Node19</title>
<g id="a_node19"><a xlink:href="class_cpl_1_1_itc_1_1_request_message.html" target="_top" xlink:title="Cpl::Itc::RequestMessage\l\&lt; SERVER, PAYLOAD \&gt;">
<polygon fill="white" stroke="black" points="730,-662.5 730,-692.5 859,-692.5 859,-662.5 730,-662.5"/>
<text text-anchor="start" x="738" y="-680.5" font-family="Helvetica,sans-Serif" font-size="10.00">Cpl::Itc::RequestMessage</text>
<text text-anchor="middle" x="794.5" y="-669.5" font-family="Helvetica,sans-Serif" font-size="10.00">&lt; SERVER, PAYLOAD &gt;</text>
</a>
</g>
</g>
<!-- Node18&#45;&gt;Node19 -->
<g id="edge15" class="edge"><title>Node18&#45;&gt;Node19</title>
<path fill="none" stroke="midnightblue" d="M679.373,-664.001C695.978,-665.965 713.532,-668.041 729.762,-669.961"/>
<polygon fill="midnightblue" stroke="midnightblue" points="679.519,-660.494 669.177,-662.795 678.697,-667.446 679.519,-660.494"/>
</g>
<!-- Node20&#45;&gt;Node2 -->
<g id="edge17" class="edge"><title>Node20&#45;&gt;Node2</title>
<path fill="none" stroke="midnightblue" d="M474.001,-779.617C501.863,-784.042 533.195,-789.017 558.285,-793.002"/>
<polygon fill="midnightblue" stroke="midnightblue" points="474.336,-776.126 463.911,-778.014 473.238,-783.04 474.336,-776.126"/>
</g>
<!-- Node22 -->
<g id="node22" class="node"><title>Node22</title>
<g id="a_node22"><a xlink:href="class_cpl_1_1_io_1_1_input.html" target="_top" xlink:title="Cpl::Io::Input">
<polygon fill="white" stroke="black" points="367.5,-548 367.5,-567 438.5,-567 438.5,-548 367.5,-548"/>
<text text-anchor="middle" x="403" y="-555" font-family="Helvetica,sans-Serif" font-size="10.00">Cpl::Io::Input</text>
</a>
</g>
</g>
<!-- Node21&#45;&gt;Node22 -->
<g id="edge19" class="edge"><title>Node21&#45;&gt;Node22</title>
<path fill="none" stroke="midnightblue" d="M258.687,-528.837C292.31,-535.562 336.934,-544.487 367.4,-550.58"/>
<polygon fill="midnightblue" stroke="midnightblue" points="259.126,-525.356 248.634,-526.827 257.753,-532.22 259.126,-525.356"/>
</g>
<!-- Node30 -->
<g id="node30" class="node"><title>Node30</title>
<g id="a_node30"><a xlink:href="class_cpl_1_1_io_1_1_output.html" target="_top" xlink:title="Cpl::Io::Output">
<polygon fill="white" stroke="black" points="363,-510 363,-529 443,-529 443,-510 363,-510"/>
<text text-anchor="middle" x="403" y="-517" font-family="Helvetica,sans-Serif" font-size="10.00">Cpl::Io::Output</text>
</a>
</g>
</g>
<!-- Node21&#45;&gt;Node30 -->
<g id="edge27" class="edge"><title>Node21&#45;&gt;Node30</title>
<path fill="none" stroke="midnightblue" d="M258.644,-519.5C290.638,-519.5 332.611,-519.5 362.862,-519.5"/>
<polygon fill="midnightblue" stroke="midnightblue" points="258.634,-516 248.634,-519.5 258.634,-523 258.634,-516"/>
</g>
<!-- Node23 -->
<g id="node23" class="node"><title>Node23</title>
<g id="a_node23"><a xlink:href="class_cpl_1_1_io_1_1_file_1_1_input_api.html" target="_top" xlink:title="Cpl::Io::File::InputApi">
<polygon fill="white" stroke="black" points="553,-586 553,-605 660,-605 660,-586 553,-586"/>
<text text-anchor="middle" x="606.5" y="-593" font-family="Helvetica,sans-Serif" font-size="10.00">Cpl::Io::File::InputApi</text>
</a>
</g>
</g>
<!-- Node22&#45;&gt;Node23 -->
<g id="edge20" class="edge"><title>Node22&#45;&gt;Node23</title>
<path fill="none" stroke="midnightblue" d="M448.466,-565.886C479.985,-571.83 522.324,-579.814 555.097,-585.995"/>
<polygon fill="midnightblue" stroke="midnightblue" points="449.115,-562.446 438.639,-564.032 447.817,-569.325 449.115,-562.446"/>
</g>
<!-- Node27 -->
<g id="node27" class="node"><title>Node27</title>
<g id="a_node27"><a xlink:href="class_cpl_1_1_io_1_1_input_output.html" target="_top" xlink:title="Cpl::Io::InputOutput">
<polygon fill="white" stroke="black" points="556,-510 556,-529 657,-529 657,-510 556,-510"/>
<text text-anchor="middle" x="606.5" y="-517" font-family="Helvetica,sans-Serif" font-size="10.00">Cpl::Io::InputOutput</text>
</a>
</g>
</g>
<!-- Node22&#45;&gt;Node27 -->
<g id="edge24" class="edge"><title>Node22&#45;&gt;Node27</title>
<path fill="none" stroke="midnightblue" d="M448.538,-549.101C480.294,-543.112 523.008,-535.057 555.86,-528.861"/>
<polygon fill="midnightblue" stroke="midnightblue" points="447.817,-545.675 438.639,-550.968 449.115,-552.554 447.817,-545.675"/>
</g>
<!-- Node24 -->
<g id="node24" class="node"><title>Node24</title>
<g id="a_node24"><a xlink:href="class_cpl_1_1_io_1_1_file_1_1_input.html" target="_top" xlink:title="Cpl::Io::File::Input">
<polygon fill="white" stroke="black" points="748,-624 748,-643 841,-643 841,-624 748,-624"/>
<text text-anchor="middle" x="794.5" y="-631" font-family="Helvetica,sans-Serif" font-size="10.00">Cpl::Io::File::Input</text>
</a>
</g>
</g>
<!-- Node23&#45;&gt;Node24 -->
<g id="edge21" class="edge"><title>Node23&#45;&gt;Node24</title>
<path fill="none" stroke="midnightblue" d="M664.441,-607.133C691.21,-612.602 722.695,-619.034 747.865,-624.177"/>
<polygon fill="midnightblue" stroke="midnightblue" points="664.934,-603.662 654.436,-605.089 663.533,-610.52 664.934,-603.662"/>
</g>
<!-- Node25 -->
<g id="node25" class="node"><title>Node25</title>
<g id="a_node25"><a xlink:href="class_cpl_1_1_io_1_1_file_1_1_input_output_api.html" target="_top" xlink:title="Cpl::Io::File::InputOutputApi">
<polygon fill="white" stroke="black" points="726,-586 726,-605 863,-605 863,-586 726,-586"/>
<text text-anchor="middle" x="794.5" y="-593" font-family="Helvetica,sans-Serif" font-size="10.00">Cpl::Io::File::InputOutputApi</text>
</a>
</g>
</g>
<!-- Node23&#45;&gt;Node25 -->
<g id="edge22" class="edge"><title>Node23&#45;&gt;Node25</title>
<path fill="none" stroke="midnightblue" d="M670.332,-595.5C688.219,-595.5 707.775,-595.5 725.931,-595.5"/>
<polygon fill="midnightblue" stroke="midnightblue" points="670.303,-592 660.303,-595.5 670.303,-599 670.303,-592"/>
</g>
<!-- Node26 -->
<g id="node26" class="node"><title>Node26</title>
<g id="a_node26"><a xlink:href="class_cpl_1_1_io_1_1_file_1_1_input_output.html" target="_top" xlink:title="Cpl::Io::File::InputOutput">
<polygon fill="white" stroke="black" points="906.5,-586 906.5,-605 1028.5,-605 1028.5,-586 906.5,-586"/>
<text text-anchor="middle" x="967.5" y="-593" font-family="Helvetica,sans-Serif" font-size="10.00">Cpl::Io::File::InputOutput</text>
</a>
</g>
</g>
<!-- Node25&#45;&gt;Node26 -->
<g id="edge23" class="edge"><title>Node25&#45;&gt;Node26</title>
<path fill="none" stroke="midnightblue" d="M873.22,-595.5C884.335,-595.5 895.627,-595.5 906.336,-595.5"/>
<polygon fill="midnightblue" stroke="midnightblue" points="873.084,-592 863.084,-595.5 873.084,-599 873.084,-592"/>
</g>
<!-- Node28 -->
<g id="node28" class="node"><title>Node28</title>
<g id="a_node28"><a xlink:href="class_cpl_1_1_io_1_1_null.html" target="_top" xlink:title="Cpl::Io::Null">
<polygon fill="white" stroke="black" points="761,-510 761,-529 828,-529 828,-510 761,-510"/>
<text text-anchor="middle" x="794.5" y="-517" font-family="Helvetica,sans-Serif" font-size="10.00">Cpl::Io::Null</text>
</a>
</g>
</g>
<!-- Node27&#45;&gt;Node28 -->
<g id="edge25" class="edge"><title>Node27&#45;&gt;Node28</title>
<path fill="none" stroke="midnightblue" d="M667.606,-519.5C698.565,-519.5 735.107,-519.5 760.823,-519.5"/>
<polygon fill="midnightblue" stroke="midnightblue" points="667.345,-516 657.345,-519.5 667.345,-523 667.345,-516"/>
</g>
<!-- Node29 -->
<g id="node29" class="node"><title>Node29</title>
<g id="a_node29"><a xlink:href="class_cpl_1_1_io_1_1_socket_1_1_input_output.html" target="_top" xlink:title="Cpl::Io::Socket::InputOutput">
<polygon fill="white" stroke="black" points="726,-472 726,-491 863,-491 863,-472 726,-472"/>
<text text-anchor="middle" x="794.5" y="-479" font-family="Helvetica,sans-Serif" font-size="10.00">Cpl::Io::Socket::InputOutput</text>
</a>
</g>
</g>
<!-- Node27&#45;&gt;Node29 -->
<g id="edge26" class="edge"><title>Node27&#45;&gt;Node29</title>
<path fill="none" stroke="midnightblue" d="M664.325,-507.89C690.779,-502.486 721.858,-496.136 746.902,-491.02"/>
<polygon fill="midnightblue" stroke="midnightblue" points="663.533,-504.48 654.436,-509.911 664.934,-511.338 663.533,-504.48"/>
</g>
<!-- Node30&#45;&gt;Node27 -->
<g id="edge33" class="edge"><title>Node30&#45;&gt;Node27</title>
<path fill="none" stroke="midnightblue" d="M453.528,-519.5C484.683,-519.5 524.741,-519.5 555.908,-519.5"/>
<polygon fill="midnightblue" stroke="midnightblue" points="453.33,-516 443.33,-519.5 453.33,-523 453.33,-516"/>
</g>
<!-- Node31 -->
<g id="node31" class="node"><title>Node31</title>
<g id="a_node31"><a xlink:href="class_cpl_1_1_io_1_1_atomic_output_api.html" target="_top" xlink:title="Cpl::Io::AtomicOutputApi\l\&lt; CONTEXT \&gt;">
<polygon fill="white" stroke="black" points="544,-460.5 544,-490.5 669,-490.5 669,-460.5 544,-460.5"/>
<text text-anchor="start" x="552" y="-478.5" font-family="Helvetica,sans-Serif" font-size="10.00">Cpl::Io::AtomicOutputApi</text>
<text text-anchor="middle" x="606.5" y="-467.5" font-family="Helvetica,sans-Serif" font-size="10.00">&lt; CONTEXT &gt;</text>
</a>
</g>
</g>
<!-- Node30&#45;&gt;Node31 -->
<g id="edge28" class="edge"><title>Node30&#45;&gt;Node31</title>
<path fill="none" stroke="midnightblue" d="M453.405,-508.712C480.632,-502.767 514.686,-495.33 543.664,-489.003"/>
<polygon fill="midnightblue" stroke="midnightblue" points="452.353,-505.359 443.33,-510.912 453.846,-512.198 452.353,-505.359"/>
</g>
<!-- Node33 -->
<g id="node33" class="node"><title>Node33</title>
<g id="a_node33"><a xlink:href="class_cpl_1_1_io_1_1_file_1_1_output_api.html" target="_top" xlink:title="Cpl::Io::File::OutputApi">
<polygon fill="white" stroke="black" points="548.5,-548 548.5,-567 664.5,-567 664.5,-548 548.5,-548"/>
<text text-anchor="middle" x="606.5" y="-555" font-family="Helvetica,sans-Serif" font-size="10.00">Cpl::Io::File::OutputApi</text>
</a>
</g>
</g>
<!-- Node30&#45;&gt;Node33 -->
<g id="edge30" class="edge"><title>Node30&#45;&gt;Node33</title>
<path fill="none" stroke="midnightblue" d="M453.415,-528.819C484.216,-534.628 523.752,-542.084 554.793,-547.937"/>
<polygon fill="midnightblue" stroke="midnightblue" points="453.805,-525.331 443.33,-526.917 452.508,-532.21 453.805,-525.331"/>
</g>
<!-- Node35 -->
<g id="node35" class="node"><title>Node35</title>
<g id="a_node35"><a xlink:href="class_cpl_1_1_io_1_1_tee_output.html" target="_top" xlink:title="Cpl::Io::TeeOutput">
<polygon fill="white" stroke="black" points="559,-422 559,-441 654,-441 654,-422 559,-422"/>
<text text-anchor="middle" x="606.5" y="-429" font-family="Helvetica,sans-Serif" font-size="10.00">Cpl::Io::TeeOutput</text>
</a>
</g>
</g>
<!-- Node30&#45;&gt;Node35 -->
<g id="edge34" class="edge"><title>Node30&#45;&gt;Node35</title>
<path fill="none" stroke="midnightblue" d="M452.897,-514.392C464.745,-511.564 476.896,-507.205 487,-500.5 509.816,-485.358 500.194,-465.657 523,-450.5 533.527,-443.504 546.292,-439.064 558.603,-436.252"/>
<polygon fill="midnightblue" stroke="midnightblue" points="452.15,-510.972 443.067,-516.425 453.568,-517.827 452.15,-510.972"/>
</g>
<!-- Node32 -->
<g id="node32" class="node"><title>Node32</title>
<g id="a_node32"><a xlink:href="class_cpl_1_1_io_1_1_atomic_output.html" target="_top" xlink:title="Cpl::Io::AtomicOutput\l\&lt; CONTEXT \&gt;">
<polygon fill="white" stroke="black" points="739.5,-422.5 739.5,-452.5 849.5,-452.5 849.5,-422.5 739.5,-422.5"/>
<text text-anchor="start" x="747.5" y="-440.5" font-family="Helvetica,sans-Serif" font-size="10.00">Cpl::Io::AtomicOutput</text>
<text text-anchor="middle" x="794.5" y="-429.5" font-family="Helvetica,sans-Serif" font-size="10.00">&lt; CONTEXT &gt;</text>
</a>
</g>
</g>
<!-- Node31&#45;&gt;Node32 -->
<g id="edge29" class="edge"><title>Node31&#45;&gt;Node32</title>
<path fill="none" stroke="midnightblue" d="M679.193,-460.853C699.228,-456.76 720.657,-452.382 739.484,-448.536"/>
<polygon fill="midnightblue" stroke="midnightblue" points="678.274,-457.468 669.177,-462.899 679.675,-464.327 678.274,-457.468"/>
</g>
<!-- Node33&#45;&gt;Node25 -->
<g id="edge31" class="edge"><title>Node33&#45;&gt;Node25</title>
<path fill="none" stroke="midnightblue" d="M664.325,-569.11C690.779,-574.514 721.858,-580.864 746.902,-585.98"/>
<polygon fill="midnightblue" stroke="midnightblue" points="664.934,-565.662 654.436,-567.089 663.533,-572.52 664.934,-565.662"/>
</g>
<!-- Node34 -->
<g id="node34" class="node"><title>Node34</title>
<g id="a_node34"><a xlink:href="class_cpl_1_1_io_1_1_file_1_1_output.html" target="_top" xlink:title="Cpl::Io::File::Output">
<polygon fill="white" stroke="black" points="744,-548 744,-567 845,-567 845,-548 744,-548"/>
<text text-anchor="middle" x="794.5" y="-555" font-family="Helvetica,sans-Serif" font-size="10.00">Cpl::Io::File::Output</text>
</a>
</g>
</g>
<!-- Node33&#45;&gt;Node34 -->
<g id="edge32" class="edge"><title>Node33&#45;&gt;Node34</title>
<path fill="none" stroke="midnightblue" d="M674.854,-557.5C697.626,-557.5 722.622,-557.5 743.775,-557.5"/>
<polygon fill="midnightblue" stroke="midnightblue" points="674.57,-554 664.57,-557.5 674.57,-561 674.57,-554"/>
</g>
<!-- Node37 -->
<g id="node37" class="node"><title>Node37</title>
<g id="a_node37"><a xlink:href="class_cpl_1_1_io_1_1_line_reader.html" target="_top" xlink:title="Cpl::Io::LineReader">
<polygon fill="white" stroke="black" points="353.5,-472 353.5,-491 452.5,-491 452.5,-472 353.5,-472"/>
<text text-anchor="middle" x="403" y="-479" font-family="Helvetica,sans-Serif" font-size="10.00">Cpl::Io::LineReader</text>
</a>
</g>
</g>
<!-- Node36&#45;&gt;Node37 -->
<g id="edge36" class="edge"><title>Node36&#45;&gt;Node37</title>
<path fill="none" stroke="midnightblue" d="M277.796,-481.5C302.623,-481.5 330.397,-481.5 353.375,-481.5"/>
<polygon fill="midnightblue" stroke="midnightblue" points="277.723,-478 267.722,-481.5 277.722,-485 277.723,-478"/>
</g>
<!-- Node39 -->
<g id="node39" class="node"><title>Node39</title>
<g id="a_node39"><a xlink:href="class_cpl_1_1_io_1_1_line_writer.html" target="_top" xlink:title="Cpl::Io::LineWriter">
<polygon fill="white" stroke="black" points="355.5,-434 355.5,-453 450.5,-453 450.5,-434 355.5,-434"/>
<text text-anchor="middle" x="403" y="-441" font-family="Helvetica,sans-Serif" font-size="10.00">Cpl::Io::LineWriter</text>
</a>
</g>
</g>
<!-- Node38&#45;&gt;Node39 -->
<g id="edge38" class="edge"><title>Node38&#45;&gt;Node39</title>
<path fill="none" stroke="midnightblue" d="M275.827,-443.5C301.813,-443.5 331.299,-443.5 355.228,-443.5"/>
<polygon fill="midnightblue" stroke="midnightblue" points="275.685,-440 265.685,-443.5 275.684,-447 275.685,-440"/>
</g>
<!-- Node41 -->
<g id="node41" class="node"><title>Node41</title>
<g id="a_node41"><a xlink:href="class_cpl_1_1_memory_1_1_h_pool.html" target="_top" xlink:title="Cpl::Memory::HPool\&lt; T \&gt;">
<polygon fill="white" stroke="black" points="339,-396 339,-415 467,-415 467,-396 339,-396"/>
<text text-anchor="middle" x="403" y="-403" font-family="Helvetica,sans-Serif" font-size="10.00">Cpl::Memory::HPool&lt; T &gt;</text>
</a>
</g>
</g>
<!-- Node40&#45;&gt;Node41 -->
<g id="edge40" class="edge"><title>Node40&#45;&gt;Node41</title>
<path fill="none" stroke="midnightblue" d="M279.253,-405.5C298.598,-405.5 319.626,-405.5 338.722,-405.5"/>
<polygon fill="midnightblue" stroke="midnightblue" points="279.006,-402 269.006,-405.5 279.006,-409 279.006,-402"/>
</g>
<!-- Node42 -->
<g id="node42" class="node"><title>Node42</title>
<g id="a_node42"><a xlink:href="class_cpl_1_1_memory_1_1_s_pool.html" target="_top" xlink:title="Cpl::Memory::SPool\l\&lt; T, N \&gt;">
<polygon fill="white" stroke="black" points="351,-346.5 351,-376.5 455,-376.5 455,-346.5 351,-346.5"/>
<text text-anchor="start" x="359" y="-364.5" font-family="Helvetica,sans-Serif" font-size="10.00">Cpl::Memory::SPool</text>
<text text-anchor="middle" x="403" y="-353.5" font-family="Helvetica,sans-Serif" font-size="10.00">&lt; T, N &gt;</text>
</a>
</g>
</g>
<!-- Node40&#45;&gt;Node42 -->
<g id="edge41" class="edge"><title>Node40&#45;&gt;Node42</title>
<path fill="none" stroke="midnightblue" d="M263.293,-393.622C290.398,-387.345 323.572,-379.662 350.681,-373.384"/>
<polygon fill="midnightblue" stroke="midnightblue" points="262.18,-390.287 253.227,-395.953 263.759,-397.106 262.18,-390.287"/>
</g>
<!-- Node43 -->
<g id="node43" class="node"><title>Node43</title>
<g id="a_node43"><a xlink:href="class_cpl_1_1_memory_1_1_s_pool.html" target="_top" xlink:title="Cpl::Memory::SPool\l\&lt; Cpl::Io::Socket::InputOutput, N \&gt;">
<polygon fill="white" stroke="black" points="319,-258.5 319,-288.5 487,-288.5 487,-258.5 319,-258.5"/>
<text text-anchor="start" x="327" y="-276.5" font-family="Helvetica,sans-Serif" font-size="10.00">Cpl::Memory::SPool</text>
<text text-anchor="middle" x="403" y="-265.5" font-family="Helvetica,sans-Serif" font-size="10.00">&lt; Cpl::Io::Socket::InputOutput, N &gt;</text>
</a>
</g>
</g>
<!-- Node40&#45;&gt;Node43 -->
<g id="edge42" class="edge"><title>Node40&#45;&gt;Node43</title>
<path fill="none" stroke="midnightblue" d="M275.353,-391.169C278.066,-389.484 280.635,-387.601 283,-385.5 314.28,-357.703 287.971,-326.577 319,-298.5 323.24,-294.663 328.051,-291.414 333.168,-288.664"/>
<polygon fill="midnightblue" stroke="midnightblue" points="273.52,-388.178 266.277,-395.911 276.761,-394.382 273.52,-388.178"/>
</g>
<!-- Node43&#45;&gt;Node7 -->
<g id="edge43" class="edge"><title>Node43&#45;&gt;Node7</title>
<path fill="none" stroke="midnightblue" d="M497.12,-283.667C506.379,-284.678 515.725,-285.698 524.841,-286.694"/>
<polygon fill="midnightblue" stroke="midnightblue" points="497.442,-280.181 487.121,-282.575 496.682,-287.14 497.442,-280.181"/>
</g>
<!-- Node46 -->
<g id="node46" class="node"><title>Node46</title>
<g id="a_node46"><a xlink:href="class_cpl_1_1_itc_1_1_mailbox.html" target="_top" xlink:title="Cpl::Itc::Mailbox">
<polygon fill="white" stroke="black" points="359.5,-182 359.5,-201 446.5,-201 446.5,-182 359.5,-182"/>
<text text-anchor="middle" x="403" y="-189" font-family="Helvetica,sans-Serif" font-size="10.00">Cpl::Itc::Mailbox</text>
</a>
</g>
</g>
<!-- Node45&#45;&gt;Node46 -->
<g id="edge46" class="edge"><title>Node45&#45;&gt;Node46</title>
<path fill="none" stroke="midnightblue" d="M272.873,-122.965C276.404,-124.604 279.811,-126.441 283,-128.5 304.228,-142.204 297.526,-159.185 319,-172.5 331.061,-179.979 345.748,-184.52 359.395,-187.276"/>
<polygon fill="midnightblue" stroke="midnightblue" points="273.884,-119.598 263.302,-119.074 271.247,-126.082 273.884,-119.598"/>
</g>
<!-- Node47 -->
<g id="node47" class="node"><title>Node47</title>
<g id="a_node47"><a xlink:href="class_cpl_1_1_system_1_1_semaphore.html" target="_top" xlink:title="Cpl::System::Semaphore">
<polygon fill="white" stroke="black" points="340,-68 340,-87 466,-87 466,-68 340,-68"/>
<text text-anchor="middle" x="403" y="-75" font-family="Helvetica,sans-Serif" font-size="10.00">Cpl::System::Semaphore</text>
</a>
</g>
</g>
<!-- Node45&#45;&gt;Node47 -->
<g id="edge48" class="edge"><title>Node45&#45;&gt;Node47</title>
<path fill="none" stroke="midnightblue" d="M278.157,-98.3579C300.141,-94.6552 324.402,-90.5692 345.581,-87.0022"/>
<polygon fill="midnightblue" stroke="midnightblue" points="277.515,-94.9165 268.235,-100.029 278.678,-101.819 277.515,-94.9165"/>
</g>
<!-- Node48 -->
<g id="node48" class="node"><title>Node48</title>
<g id="a_node48"><a xlink:href="class_cpl_1_1_system_1_1_thread.html" target="_top" xlink:title="Cpl::System::Thread">
<polygon fill="white" stroke="black" points="350,-30 350,-49 456,-49 456,-30 350,-30"/>
<text text-anchor="middle" x="403" y="-37" font-family="Helvetica,sans-Serif" font-size="10.00">Cpl::System::Thread</text>
</a>
</g>
</g>
<!-- Node45&#45;&gt;Node48 -->
<g id="edge49" class="edge"><title>Node45&#45;&gt;Node48</title>
<path fill="none" stroke="midnightblue" d="M269.703,-96.5493C274.308,-94.771 278.798,-92.7634 283,-90.5 301.847,-80.3486 299.971,-68.3064 319,-58.5 328.461,-53.6244 339.166,-49.9884 349.666,-47.2804"/>
<polygon fill="midnightblue" stroke="midnightblue" points="268.436,-93.2847 260.149,-99.8857 270.743,-99.8934 268.436,-93.2847"/>
</g>
<!-- Node46&#45;&gt;Node5 -->
<g id="edge47" class="edge"><title>Node46&#45;&gt;Node5</title>
<path fill="none" stroke="midnightblue" d="M456.899,-191.5C485.371,-191.5 520.485,-191.5 549.43,-191.5"/>
<polygon fill="midnightblue" stroke="midnightblue" points="456.733,-188 446.733,-191.5 456.733,-195 456.733,-188"/>
</g>
<!-- Node49 -->
<g id="node49" class="node"><title>Node49</title>
<g id="a_node49"><a xlink:href="class_cpl_1_1_system_1_1_cpp11_1_1_thread.html" target="_top" xlink:title="Cpl::System::Cpp11\l::Thread">
<polygon fill="white" stroke="black" points="554.5,-49.5 554.5,-79.5 658.5,-79.5 658.5,-49.5 554.5,-49.5"/>
<text text-anchor="start" x="562.5" y="-67.5" font-family="Helvetica,sans-Serif" font-size="10.00">Cpl::System::Cpp11</text>
<text text-anchor="middle" x="606.5" y="-56.5" font-family="Helvetica,sans-Serif" font-size="10.00">::Thread</text>
</a>
</g>
</g>
<!-- Node48&#45;&gt;Node49 -->
<g id="edge50" class="edge"><title>Node48&#45;&gt;Node49</title>
<path fill="none" stroke="midnightblue" d="M466.318,-47.2318C494.544,-50.7337 527.504,-54.8231 554.263,-58.143"/>
<polygon fill="midnightblue" stroke="midnightblue" points="466.508,-43.7286 456.153,-45.9706 465.646,-50.6753 466.508,-43.7286"/>
</g>
<!-- Node50 -->
<g id="node50" class="node"><title>Node50</title>
<g id="a_node50"><a xlink:href="class_cpl_1_1_system_1_1_win32_1_1_thread.html" target="_top" xlink:title="Cpl::System::Win32\l::Thread">
<polygon fill="white" stroke="black" points="554.5,-0.5 554.5,-30.5 658.5,-30.5 658.5,-0.5 554.5,-0.5"/>
<text text-anchor="start" x="562.5" y="-18.5" font-family="Helvetica,sans-Serif" font-size="10.00">Cpl::System::Win32</text>
<text text-anchor="middle" x="606.5" y="-7.5" font-family="Helvetica,sans-Serif" font-size="10.00">::Thread</text>
</a>
</g>
</g>
<!-- Node48&#45;&gt;Node50 -->
<g id="edge51" class="edge"><title>Node48&#45;&gt;Node50</title>
<path fill="none" stroke="midnightblue" d="M466.318,-32.0775C494.544,-28.7156 527.504,-24.7898 554.263,-21.6027"/>
<polygon fill="midnightblue" stroke="midnightblue" points="465.669,-28.63 456.153,-33.2882 466.497,-35.5808 465.669,-28.63"/>
</g>
<!-- Node52 -->
<g id="node52" class="node"><title>Node52</title>
<g id="a_node52"><a xlink:href="class_cpl_1_1_io_1_1_file_1_1_object_api.html" target="_top" xlink:title="Cpl::Io::File::ObjectApi">
<polygon fill="white" stroke="black" points="345.5,-586 345.5,-605 460.5,-605 460.5,-586 345.5,-586"/>
<text text-anchor="middle" x="403" y="-593" font-family="Helvetica,sans-Serif" font-size="10.00">Cpl::Io::File::ObjectApi</text>
</a>
</g>
</g>
<!-- Node52&#45;&gt;Node23 -->
<g id="edge53" class="edge"><title>Node52&#45;&gt;Node23</title>
<path fill="none" stroke="#8b1a1a" d="M470.689,-595.5C497.352,-595.5 527.622,-595.5 552.715,-595.5"/>
<polygon fill="#8b1a1a" stroke="#8b1a1a" points="470.665,-592 460.665,-595.5 470.665,-599 470.665,-592"/>
</g>
<!-- Node52&#45;&gt;Node33 -->
<g id="edge54" class="edge"><title>Node52&#45;&gt;Node33</title>
<path fill="none" stroke="#8b1a1a" d="M464.546,-584.082C493.377,-578.645 527.462,-572.217 554.892,-567.044"/>
<polygon fill="#8b1a1a" stroke="#8b1a1a" points="463.765,-580.667 454.587,-585.96 465.062,-587.546 463.765,-580.667"/>
</g>
<!-- Node53 -->
<g id="node53" class="node"><title>Node53</title>
<g id="a_node53"><a xlink:href="class_cpl_1_1_itc_1_1_post_api.html" target="_top" xlink:title="Cpl::Itc::PostApi">
<polygon fill="white" stroke="black" points="167,-138 167,-157 255,-157 255,-138 167,-138"/>
<text text-anchor="middle" x="211" y="-145" font-family="Helvetica,sans-Serif" font-size="10.00">Cpl::Itc::PostApi</text>
</a>
</g>
</g>
<!-- Node53&#45;&gt;Node46 -->
<g id="edge55" class="edge"><title>Node53&#45;&gt;Node46</title>
<path fill="none" stroke="midnightblue" d="M262.803,-159.419C280.575,-163.576 300.667,-168.26 319,-172.5 332.394,-175.598 347.01,-178.952 360.193,-181.968"/>
<polygon fill="midnightblue" stroke="midnightblue" points="263.172,-155.911 252.638,-157.04 261.577,-162.727 263.172,-155.911"/>
</g>
<!-- Node54 -->
<g id="node54" class="node"><title>Node54</title>
<g id="a_node54"><a xlink:href="class_cpl_1_1_itc_1_1_s_a_p.html" target="_top" xlink:title="Cpl::Itc::SAP\&lt; SERVER \&gt;">
<polygon fill="white" stroke="black" points="337,-106 337,-125 469,-125 469,-106 337,-106"/>
<text text-anchor="middle" x="403" y="-113" font-family="Helvetica,sans-Serif" font-size="10.00">Cpl::Itc::SAP&lt; SERVER &gt;</text>
</a>
</g>
</g>
<!-- Node53&#45;&gt;Node54 -->
<g id="edge56" class="edge"><title>Node53&#45;&gt;Node54</title>
<path fill="none" stroke="midnightblue" d="M265.142,-138.55C290.128,-134.342 319.942,-129.32 345.356,-125.04"/>
<polygon fill="midnightblue" stroke="midnightblue" points="264.394,-135.126 255.114,-140.239 265.556,-142.029 264.394,-135.126"/>
</g>
<!-- Node55 -->
<g id="node55" class="node"><title>Node55</title>
<g id="a_node55"><a xlink:href="class_cpl_1_1_system_1_1_runnable.html" target="_top" xlink:title="Cpl::System::Runnable">
<polygon fill="white" stroke="black" points="344.5,-144 344.5,-163 461.5,-163 461.5,-144 344.5,-144"/>
<text text-anchor="middle" x="403" y="-151" font-family="Helvetica,sans-Serif" font-size="10.00">Cpl::System::Runnable</text>
</a>
</g>
</g>
<!-- Node55&#45;&gt;Node5 -->
<g id="edge58" class="edge"><title>Node55&#45;&gt;Node5</title>
<path fill="none" stroke="midnightblue" d="M464.546,-164.918C493.377,-170.355 527.462,-176.783 554.892,-181.956"/>
<polygon fill="midnightblue" stroke="midnightblue" points="465.062,-161.454 454.587,-163.04 463.765,-168.333 465.062,-161.454"/>
</g>
<!-- Node56 -->
<g id="node56" class="node"><title>Node56</title>
<g id="a_node56"><a xlink:href="class_cpl_1_1_io_1_1_socket_1_1_listener.html" target="_top" xlink:title="Cpl::Io::Socket::Listener">
<polygon fill="white" stroke="black" points="545.5,-144 545.5,-163 667.5,-163 667.5,-144 545.5,-144"/>
<text text-anchor="middle" x="606.5" y="-151" font-family="Helvetica,sans-Serif" font-size="10.00">Cpl::Io::Socket::Listener</text>
</a>
</g>
</g>
<!-- Node55&#45;&gt;Node56 -->
<g id="edge57" class="edge"><title>Node55&#45;&gt;Node56</title>
<path fill="none" stroke="midnightblue" d="M471.759,-153.5C495.571,-153.5 522.146,-153.5 545.294,-153.5"/>
<polygon fill="midnightblue" stroke="midnightblue" points="471.742,-150 461.742,-153.5 471.742,-157 471.742,-150"/>
</g>
<!-- Node57 -->
<g id="node57" class="node"><title>Node57</title>
<g id="a_node57"><a xlink:href="class_cpl_1_1_container_1_1_s_list.html" target="_top" xlink:title="Cpl::Container::SList\l\&lt; Message \&gt;">
<polygon fill="white" stroke="black" points="157.5,-176.5 157.5,-206.5 264.5,-206.5 264.5,-176.5 157.5,-176.5"/>
<text text-anchor="start" x="165.5" y="-194.5" font-family="Helvetica,sans-Serif" font-size="10.00">Cpl::Container::SList</text>
<text text-anchor="middle" x="211" y="-183.5" font-family="Helvetica,sans-Serif" font-size="10.00">&lt; Message &gt;</text>
</a>
</g>
</g>
<!-- Node57&#45;&gt;Node46 -->
<g id="edge59" class="edge"><title>Node57&#45;&gt;Node46</title>
<path fill="none" stroke="midnightblue" d="M274.706,-191.5C302.509,-191.5 334.5,-191.5 359.456,-191.5"/>
<polygon fill="midnightblue" stroke="midnightblue" points="274.673,-188 264.673,-191.5 274.673,-195 274.673,-188"/>
</g>
</g>
</svg>
