<?xml version="1.0" encoding="UTF-8" standalone="no"?>
<!DOCTYPE svg PUBLIC "-//W3C//DTD SVG 1.1//EN"
 "http://www.w3.org/Graphics/SVG/1.1/DTD/svg11.dtd">
<!-- Generated by graphviz version 2.38.0 (20140413.2041)
 -->
<!-- Title: Graphical Class Hierarchy Pages: 1 -->
<svg width="385pt" height="88pt"
 viewBox="0.00 0.00 385.00 88.00" xmlns="http://www.w3.org/2000/svg" xmlns:xlink="http://www.w3.org/1999/xlink">
<g id="graph0" class="graph" transform="scale(1 1) rotate(0) translate(4 84)">
<title>Graphical Class Hierarchy</title>
<polygon fill="white" stroke="none" points="-4,4 -4,-84 381,-84 381,4 -4,4"/>
<!-- Node1 -->
<g id="node1" class="node"><title>Node1</title>
<polygon fill="white" stroke="#bfbfbf" points="0,-55 0,-74 78,-74 78,-55 0,-55"/>
<text text-anchor="middle" x="39" y="-62" font-family="Helvetica,sans-Serif" font-size="10.00">ACCESS_API</text>
</g>
<!-- Node2 -->
<g id="node2" class="node"><title>Node2</title>
<g id="a_node2"><a xlink:href="class_cpl_1_1_itc_1_1_atomic_request.html" target="_top" xlink:title="Cpl::Itc::AtomicRequest\l\&lt; ACCESS_API \&gt;">
<polygon fill="white" stroke="black" points="114,-49.5 114,-79.5 234,-79.5 234,-49.5 114,-49.5"/>
<text text-anchor="start" x="122" y="-67.5" font-family="Helvetica,sans-Serif" font-size="10.00">Cpl::Itc::AtomicRequest</text>
<text text-anchor="middle" x="174" y="-56.5" font-family="Helvetica,sans-Serif" font-size="10.00">&lt; ACCESS_API &gt;</text>
</a>
</g>
</g>
<!-- Node1&#45;&gt;Node2 -->
<g id="edge1" class="edge"><title>Node1&#45;&gt;Node2</title>
<path fill="none" stroke="midnightblue" d="M88.328,-64.5C96.598,-64.5 105.274,-64.5 113.789,-64.5"/>
<polygon fill="midnightblue" stroke="midnightblue" points="88.1125,-61.0001 78.1125,-64.5 88.1124,-68.0001 88.1125,-61.0001"/>
</g>
<!-- Node3 -->
<g id="node3" class="node"><title>Node3</title>
<g id="a_node3"><a xlink:href="class_cpl_1_1_itc_1_1_atomic_sync.html" target="_top" xlink:title="Cpl::Itc::AtomicSync\l\&lt; ACCESS_API \&gt;">
<polygon fill="white" stroke="black" points="270,-24.5 270,-54.5 377,-54.5 377,-24.5 270,-24.5"/>
<text text-anchor="start" x="278" y="-42.5" font-family="Helvetica,sans-Serif" font-size="10.00">Cpl::Itc::AtomicSync</text>
<text text-anchor="middle" x="323.5" y="-31.5" font-family="Helvetica,sans-Serif" font-size="10.00">&lt; ACCESS_API &gt;</text>
</a>
</g>
</g>
<!-- Node2&#45;&gt;Node3 -->
<g id="edge2" class="edge"><title>Node2&#45;&gt;Node3</title>
<path fill="none" stroke="midnightblue" d="M244.111,-52.7863C252.657,-51.3378 261.287,-49.8751 269.539,-48.4765"/>
<polygon fill="midnightblue" stroke="midnightblue" points="243.418,-49.3536 234.144,-54.4756 244.588,-56.2552 243.418,-49.3536"/>
</g>
<!-- Node4 -->
<g id="node4" class="node"><title>Node4</title>
<g id="a_node4"><a xlink:href="class_cpl_1_1_itc_1_1_atomic_api.html" target="_top" xlink:title="Cpl::Itc::AtomicApi\l\&lt; ACCESS_API \&gt;">
<polygon fill="white" stroke="black" points="125,-0.5 125,-30.5 223,-30.5 223,-0.5 125,-0.5"/>
<text text-anchor="start" x="133" y="-18.5" font-family="Helvetica,sans-Serif" font-size="10.00">Cpl::Itc::AtomicApi</text>
<text text-anchor="middle" x="174" y="-7.5" font-family="Helvetica,sans-Serif" font-size="10.00">&lt; ACCESS_API &gt;</text>
</a>
</g>
</g>
<!-- Node4&#45;&gt;Node3 -->
<g id="edge3" class="edge"><title>Node4&#45;&gt;Node3</title>
<path fill="none" stroke="midnightblue" d="M233.252,-24.9783C245.301,-26.9388 257.928,-28.9934 269.767,-30.9196"/>
<polygon fill="midnightblue" stroke="midnightblue" points="233.729,-21.51 223.297,-23.3585 232.605,-28.4191 233.729,-21.51"/>
</g>
</g>
</svg>
