<?xml version="1.0" encoding="UTF-8" standalone="no"?>
<!DOCTYPE svg PUBLIC "-//W3C//DTD SVG 1.1//EN"
 "http://www.w3.org/Graphics/SVG/1.1/DTD/svg11.dtd">
<!-- Generated by graphviz version 2.38.0 (20140413.2041)
 -->
<!-- Title: Graphical Class Hierarchy Pages: 1 -->
<svg width="408pt" height="123pt"
 viewBox="0.00 0.00 408.00 123.00" xmlns="http://www.w3.org/2000/svg" xmlns:xlink="http://www.w3.org/1999/xlink">
<g id="graph0" class="graph" transform="scale(1 1) rotate(0) translate(4 119)">
<title>Graphical Class Hierarchy</title>
<polygon fill="white" stroke="none" points="-4,4 -4,-119 404,-119 404,4 -4,4"/>
<!-- Node1 -->
<g id="node1" class="node"><title>Node1</title>
<g id="a_node1"><a xlink:href="class_cpl_1_1_itc_1_1_close_api.html" target="_top" xlink:title="Cpl::Itc::CloseApi">
<polygon fill="white" stroke="black" points="160,-95.5 160,-114.5 252,-114.5 252,-95.5 160,-95.5"/>
<text text-anchor="middle" x="206" y="-102.5" font-family="Helvetica,sans-Serif" font-size="10.00">Cpl::Itc::CloseApi</text>
</a>
</g>
</g>
<!-- Node2 -->
<g id="node2" class="node"><title>Node2</title>
<g id="a_node2"><a xlink:href="class_cpl_1_1_itc_1_1_close_sync.html" target="_top" xlink:title="Cpl::Itc::CloseSync">
<polygon fill="white" stroke="black" points="299,-57.5 299,-76.5 400,-76.5 400,-57.5 299,-57.5"/>
<text text-anchor="middle" x="349.5" y="-64.5" font-family="Helvetica,sans-Serif" font-size="10.00">Cpl::Itc::CloseSync</text>
</a>
</g>
</g>
<!-- Node1&#45;&gt;Node2 -->
<g id="edge1" class="edge"><title>Node1&#45;&gt;Node2</title>
<path fill="none" stroke="midnightblue" d="M252.601,-92.7538C272.105,-87.516 294.54,-81.4909 312.805,-76.5859"/>
<polygon fill="midnightblue" stroke="midnightblue" points="251.456,-89.4371 242.706,-95.411 253.272,-96.1975 251.456,-89.4371"/>
</g>
<!-- Node3 -->
<g id="node3" class="node"><title>Node3</title>
<g id="a_node3"><a xlink:href="class_cpl_1_1_itc_1_1_close_request.html" target="_top" xlink:title="Cpl::Itc::CloseRequest">
<polygon fill="white" stroke="black" points="149,-57.5 149,-76.5 263,-76.5 263,-57.5 149,-57.5"/>
<text text-anchor="middle" x="206" y="-64.5" font-family="Helvetica,sans-Serif" font-size="10.00">Cpl::Itc::CloseRequest</text>
</a>
</g>
</g>
<!-- Node3&#45;&gt;Node2 -->
<g id="edge2" class="edge"><title>Node3&#45;&gt;Node2</title>
<path fill="none" stroke="midnightblue" d="M273.595,-67C282.069,-67 290.623,-67 298.768,-67"/>
<polygon fill="midnightblue" stroke="midnightblue" points="273.331,-63.5001 263.331,-67 273.331,-70.5001 273.331,-63.5001"/>
</g>
<!-- Node4 -->
<g id="node4" class="node"><title>Node4</title>
<g id="a_node4"><a xlink:href="class_cpl_1_1_itc_1_1_open_api.html" target="_top" xlink:title="Cpl::Itc::OpenApi">
<polygon fill="white" stroke="black" points="11,-38.5 11,-57.5 102,-57.5 102,-38.5 11,-38.5"/>
<text text-anchor="middle" x="56.5" y="-45.5" font-family="Helvetica,sans-Serif" font-size="10.00">Cpl::Itc::OpenApi</text>
</a>
</g>
</g>
<!-- Node5 -->
<g id="node5" class="node"><title>Node5</title>
<g id="a_node5"><a xlink:href="class_cpl_1_1_itc_1_1_open_sync.html" target="_top" xlink:title="Cpl::Itc::OpenSync">
<polygon fill="white" stroke="black" points="156.5,-19.5 156.5,-38.5 255.5,-38.5 255.5,-19.5 156.5,-19.5"/>
<text text-anchor="middle" x="206" y="-26.5" font-family="Helvetica,sans-Serif" font-size="10.00">Cpl::Itc::OpenSync</text>
</a>
</g>
</g>
<!-- Node4&#45;&gt;Node5 -->
<g id="edge3" class="edge"><title>Node4&#45;&gt;Node5</title>
<path fill="none" stroke="midnightblue" d="M112.442,-40.9228C126.866,-39.0647 142.318,-37.0742 156.385,-35.2622"/>
<polygon fill="midnightblue" stroke="midnightblue" points="111.626,-37.4988 102.155,-42.2478 112.52,-44.4415 111.626,-37.4988"/>
</g>
<!-- Node5&#45;&gt;Node2 -->
<g id="edge4" class="edge"><title>Node5&#45;&gt;Node2</title>
<path fill="none" stroke="midnightblue" d="M252.601,-41.2462C272.105,-46.484 294.54,-52.5091 312.805,-57.4141"/>
<polygon fill="midnightblue" stroke="midnightblue" points="253.272,-37.8025 242.706,-38.589 251.456,-44.5629 253.272,-37.8025"/>
</g>
<!-- Node6 -->
<g id="node6" class="node"><title>Node6</title>
<g id="a_node6"><a xlink:href="class_cpl_1_1_itc_1_1_open_request.html" target="_top" xlink:title="Cpl::Itc::OpenRequest">
<polygon fill="white" stroke="black" points="0,-0.5 0,-19.5 113,-19.5 113,-0.5 0,-0.5"/>
<text text-anchor="middle" x="56.5" y="-7.5" font-family="Helvetica,sans-Serif" font-size="10.00">Cpl::Itc::OpenRequest</text>
</a>
</g>
</g>
<!-- Node6&#45;&gt;Node5 -->
<g id="edge5" class="edge"><title>Node6&#45;&gt;Node5</title>
<path fill="none" stroke="midnightblue" d="M123.371,-18.4851C134.483,-19.9164 145.836,-21.3789 156.406,-22.7404"/>
<polygon fill="midnightblue" stroke="midnightblue" points="123.629,-14.9894 113.263,-17.1831 122.734,-21.9321 123.629,-14.9894"/>
</g>
</g>
</svg>
