<?xml version="1.0" encoding="UTF-8" standalone="no"?>
<!DOCTYPE svg PUBLIC "-//W3C//DTD SVG 1.1//EN"
 "http://www.w3.org/Graphics/SVG/1.1/DTD/svg11.dtd">
<!-- Generated by graphviz version 2.38.0 (20140413.2041)
 -->
<!-- Title: Graphical Class Hierarchy Pages: 1 -->
<svg width="205pt" height="66pt"
 viewBox="0.00 0.00 205.00 66.00" xmlns="http://www.w3.org/2000/svg" xmlns:xlink="http://www.w3.org/1999/xlink">
<g id="graph0" class="graph" transform="scale(1 1) rotate(0) translate(4 62)">
<title>Graphical Class Hierarchy</title>
<polygon fill="white" stroke="none" points="-4,4 -4,-62 201,-62 201,4 -4,4"/>
<!-- Node1 -->
<g id="node1" class="node"><title>Node1</title>
<polygon fill="white" stroke="#bfbfbf" points="0,-19.5 0,-38.5 51,-38.5 51,-19.5 0,-19.5"/>
<text text-anchor="middle" x="25.5" y="-26.5" font-family="Helvetica,sans-Serif" font-size="10.00">Output_</text>
</g>
<!-- Node2 -->
<g id="node2" class="node"><title>Node2</title>
<g id="a_node2"><a xlink:href="class_cpl_1_1_io_1_1_stdio_1_1_std_err.html" target="_top" xlink:title="Cpl::Io::Stdio::StdErr">
<polygon fill="white" stroke="black" points="88.5,-38.5 88.5,-57.5 195.5,-57.5 195.5,-38.5 88.5,-38.5"/>
<text text-anchor="middle" x="142" y="-45.5" font-family="Helvetica,sans-Serif" font-size="10.00">Cpl::Io::Stdio::StdErr</text>
</a>
</g>
</g>
<!-- Node1&#45;&gt;Node2 -->
<g id="edge1" class="edge"><title>Node1&#45;&gt;Node2</title>
<path fill="none" stroke="midnightblue" d="M61.0542,-34.7339C69.6278,-36.1566 79.0117,-37.7137 88.2391,-39.2449"/>
<polygon fill="midnightblue" stroke="midnightblue" points="61.5012,-31.2603 51.0631,-33.076 60.3552,-38.1658 61.5012,-31.2603"/>
</g>
<!-- Node3 -->
<g id="node3" class="node"><title>Node3</title>
<g id="a_node3"><a xlink:href="class_cpl_1_1_io_1_1_stdio_1_1_std_out.html" target="_top" xlink:title="Cpl::Io::Stdio::StdOut">
<polygon fill="white" stroke="black" points="87,-0.5 87,-19.5 197,-19.5 197,-0.5 87,-0.5"/>
<text text-anchor="middle" x="142" y="-7.5" font-family="Helvetica,sans-Serif" font-size="10.00">Cpl::Io::Stdio::StdOut</text>
</a>
</g>
</g>
<!-- Node1&#45;&gt;Node3 -->
<g id="edge2" class="edge"><title>Node1&#45;&gt;Node3</title>
<path fill="none" stroke="midnightblue" d="M60.9487,-23.2836C69.1152,-21.9285 78.0217,-20.4505 86.8306,-18.9888"/>
<polygon fill="midnightblue" stroke="midnightblue" points="60.3552,-19.8342 51.0631,-24.924 61.5012,-26.7397 60.3552,-19.8342"/>
</g>
</g>
</svg>
