<?xml version="1.0" encoding="UTF-8" standalone="no"?>
<!DOCTYPE svg PUBLIC "-//W3C//DTD SVG 1.1//EN"
 "http://www.w3.org/Graphics/SVG/1.1/DTD/svg11.dtd">
<!-- Generated by graphviz version 2.38.0 (20140413.2041)
 -->
<!-- Title: %3 Pages: 1 -->
<svg width="300pt" height="1036pt"
 viewBox="0.00 0.00 299.84 1036.00" xmlns="http://www.w3.org/2000/svg" xmlns:xlink="http://www.w3.org/1999/xlink">
<g id="graph0" class="graph" transform="scale(1 1) rotate(0) translate(4 1032)">
<title>%3</title>
<polygon fill="white" stroke="none" points="-4,4 -4,-1032 295.841,-1032 295.841,4 -4,4"/>
<!-- main/1.0.0 -->
<g id="node1" class="node"><title>main/1.0.0</title>
<ellipse fill="none" stroke="black" cx="120.945" cy="-1010" rx="48.1917" ry="18"/>
<text text-anchor="middle" x="120.945" y="-1006.3" font-family="Times New Roman,serif" font-size="14.00">main/1.0.0</text>
</g>
<!-- main/1.0.1 -->
<g id="node2" class="node"><title>main/1.0.1</title>
<ellipse fill="none" stroke="black" cx="147.945" cy="-850" rx="48.1917" ry="18"/>
<text text-anchor="middle" x="147.945" y="-846.3" font-family="Times New Roman,serif" font-size="14.00">main/1.0.1</text>
</g>
<!-- main/1.0.0&#45;&gt;main/1.0.1 -->
<g id="edge1" class="edge"><title>main/1.0.0&#45;&gt;main/1.0.1</title>
<path fill="none" stroke="black" stroke-width="2" d="M123.886,-991.79C128.552,-964.485 137.693,-910.994 143.266,-878.38"/>
<polygon fill="black" stroke="black" stroke-width="2" points="146.773,-878.635 145.008,-868.188 139.873,-877.456 146.773,-878.635"/>
<text text-anchor="middle" x="149.445" y="-933.3" font-family="Times New Roman,serif" font-size="14.00">zero</text>
</g>
<!-- blue/1.0.1 -->
<g id="node3" class="node"><title>blue/1.0.1</title>
<ellipse fill="none" stroke="black" cx="65.9452" cy="-937" rx="46.2923" ry="18"/>
<text text-anchor="middle" x="65.9452" y="-933.3" font-family="Times New Roman,serif" font-size="14.00">blue/1.0.1</text>
</g>
<!-- main/1.0.0&#45;&gt;blue/1.0.1 -->
<g id="edge2" class="edge"><title>main/1.0.0&#45;&gt;blue/1.0.1</title>
<path fill="none" stroke="black" d="M108.189,-992.533C101.247,-983.572 92.526,-972.313 84.813,-962.357"/>
<polygon fill="none" stroke="black" points="87.5233,-960.14 78.6324,-954.378 81.9895,-964.427 87.5233,-960.14"/>
</g>
<!-- main/1.1.0 -->
<g id="node4" class="node"><title>main/1.1.0</title>
<ellipse fill="none" stroke="black" cx="148.945" cy="-742" rx="48.1917" ry="18"/>
<text text-anchor="middle" x="148.945" y="-738.3" font-family="Times New Roman,serif" font-size="14.00">main/1.1.0</text>
</g>
<!-- main/1.0.1&#45;&gt;main/1.1.0 -->
<g id="edge3" class="edge"><title>main/1.0.1&#45;&gt;main/1.1.0</title>
<path fill="none" stroke="black" stroke-width="2" d="M148.106,-831.969C148.262,-815.378 148.503,-789.883 148.686,-770.431"/>
<polygon fill="black" stroke="black" stroke-width="2" points="152.187,-770.373 148.782,-760.341 145.187,-770.307 152.187,-770.373"/>
</g>
<!-- blue/1.0.1&#45;&gt;main/1.0.1 -->
<g id="edge15" class="edge"><title>blue/1.0.1&#45;&gt;main/1.0.1</title>
<path fill="none" stroke="black" stroke-dasharray="5,2" d="M76.5694,-919.35C83.4614,-909.174 92.9873,-896.2 102.945,-886 107.483,-881.353 112.651,-876.788 117.828,-872.569"/>
<polygon fill="none" stroke="black" points="120.167,-875.183 125.883,-866.261 115.851,-869.671 120.167,-875.183"/>
<text text-anchor="middle" x="118.445" y="-889.8" font-family="Times New Roman,serif" font-size="14.00">patch</text>
</g>
<!-- purple/1.0.2 -->
<g id="node15" class="node"><title>purple/1.0.2</title>
<ellipse fill="none" stroke="black" cx="62.9452" cy="-796" rx="53.8905" ry="18"/>
<text text-anchor="middle" x="62.9452" y="-792.3" font-family="Times New Roman,serif" font-size="14.00">purple/1.0.2</text>
</g>
<!-- blue/1.0.1&#45;&gt;purple/1.0.2 -->
<g id="edge14" class="edge"><title>blue/1.0.1&#45;&gt;purple/1.0.2</title>
<path fill="none" stroke="black" d="M65.5774,-918.956C65.069,-895.404 64.1461,-852.639 63.5393,-824.526"/>
<polygon fill="none" stroke="black" points="67.0311,-824.106 63.3161,-814.184 60.0328,-824.257 67.0311,-824.106"/>
</g>
<!-- main/1.2.1 -->
<g id="node5" class="node"><title>main/1.2.1</title>
<ellipse fill="none" stroke="black" cx="148.945" cy="-615" rx="48.1917" ry="18"/>
<text text-anchor="middle" x="148.945" y="-611.3" font-family="Times New Roman,serif" font-size="14.00">main/1.2.1</text>
</g>
<!-- main/1.1.0&#45;&gt;main/1.2.1 -->
<g id="edge4" class="edge"><title>main/1.1.0&#45;&gt;main/1.2.1</title>
<path fill="none" stroke="black" stroke-width="2" d="M148.945,-723.881C148.945,-703.146 148.945,-667.953 148.945,-643.422"/>
<polygon fill="black" stroke="black" stroke-width="2" points="152.445,-643.313 148.945,-633.313 145.445,-643.313 152.445,-643.313"/>
</g>
<!-- red/1.1.1 -->
<g id="node6" class="node"><title>red/1.1.1</title>
<ellipse fill="none" stroke="black" cx="225.945" cy="-669" rx="42.7926" ry="18"/>
<text text-anchor="middle" x="225.945" y="-665.3" font-family="Times New Roman,serif" font-size="14.00">red/1.1.1</text>
</g>
<!-- main/1.1.0&#45;&gt;red/1.1.1 -->
<g id="edge5" class="edge"><title>main/1.1.0&#45;&gt;red/1.1.1</title>
<path fill="none" stroke="black" d="M166.418,-724.889C176.801,-715.315 190.127,-703.027 201.537,-692.506"/>
<polygon fill="none" stroke="black" points="204.092,-694.911 209.071,-685.559 199.347,-689.765 204.092,-694.911"/>
</g>
<!-- main/1.3.0 -->
<g id="node7" class="node"><title>main/1.3.0</title>
<ellipse fill="none" stroke="black" cx="173.945" cy="-474" rx="48.1917" ry="18"/>
<text text-anchor="middle" x="173.945" y="-470.3" font-family="Times New Roman,serif" font-size="14.00">main/1.3.0</text>
</g>
<!-- main/1.2.1&#45;&gt;main/1.3.0 -->
<g id="edge6" class="edge"><title>main/1.2.1&#45;&gt;main/1.3.0</title>
<path fill="none" stroke="black" stroke-width="2" d="M150.594,-596.996C152.114,-582.565 154.634,-561.341 157.945,-543 160.419,-529.293 163.894,-514.2 166.973,-501.722"/>
<polygon fill="black" stroke="black" stroke-width="2" points="170.387,-502.495 169.436,-491.943 163.599,-500.786 170.387,-502.495"/>
<text text-anchor="middle" x="174.445" y="-557.3" font-family="Times New Roman,serif" font-size="14.00">minor</text>
</g>
<!-- red/1.2.0 -->
<g id="node18" class="node"><title>red/1.2.0</title>
<ellipse fill="none" stroke="black" cx="242.945" cy="-561" rx="42.7926" ry="18"/>
<text text-anchor="middle" x="242.945" y="-557.3" font-family="Times New Roman,serif" font-size="14.00">red/1.2.0</text>
</g>
<!-- red/1.1.1&#45;&gt;red/1.2.0 -->
<g id="edge21" class="edge"><title>red/1.1.1&#45;&gt;red/1.2.0</title>
<path fill="none" stroke="black" stroke-width="2" d="M228.677,-650.969C231.353,-634.279 235.475,-608.579 238.602,-589.084"/>
<polygon fill="black" stroke="black" stroke-width="2" points="242.093,-589.417 240.221,-578.988 235.181,-588.308 242.093,-589.417"/>
</g>
<!-- main/2.0.0 -->
<g id="node8" class="node"><title>main/2.0.0</title>
<ellipse fill="none" stroke="black" cx="139.945" cy="-387" rx="48.1917" ry="18"/>
<text text-anchor="middle" x="139.945" y="-383.3" font-family="Times New Roman,serif" font-size="14.00">main/2.0.0</text>
</g>
<!-- main/1.3.0&#45;&gt;main/2.0.0 -->
<g id="edge7" class="edge"><title>main/1.3.0&#45;&gt;main/2.0.0</title>
<path fill="none" stroke="black" stroke-width="2" d="M163.311,-456.338C159.998,-450.67 156.537,-444.198 153.945,-438 150.885,-430.681 148.274,-422.486 146.166,-414.882"/>
<polygon fill="black" stroke="black" stroke-width="2" points="149.505,-413.817 143.607,-405.016 142.73,-415.575 149.505,-413.817"/>
<text text-anchor="middle" x="170.445" y="-426.8" font-family="Times New Roman,serif" font-size="14.00">minor</text>
</g>
<!-- red/1.3.0 -->
<g id="node9" class="node"><title>red/1.3.0</title>
<ellipse fill="none" stroke="black" cx="248.945" cy="-387" rx="42.7926" ry="18"/>
<text text-anchor="middle" x="248.945" y="-383.3" font-family="Times New Roman,serif" font-size="14.00">red/1.3.0</text>
</g>
<!-- main/1.3.0&#45;&gt;red/1.3.0 -->
<g id="edge8" class="edge"><title>main/1.3.0&#45;&gt;red/1.3.0</title>
<path fill="none" stroke="black" stroke-dasharray="5,2" d="M185.195,-456.176C192.17,-446.175 201.565,-433.445 210.945,-423 214.766,-418.746 219.04,-414.44 223.305,-410.372"/>
<polygon fill="none" stroke="black" points="225.91,-412.73 230.872,-403.369 221.155,-407.593 225.91,-412.73"/>
<text text-anchor="middle" x="227.445" y="-426.8" font-family="Times New Roman,serif" font-size="14.00">minor</text>
</g>
<!-- main/2.3.3 -->
<g id="node10" class="node"><title>main/2.3.3</title>
<ellipse fill="none" stroke="black" cx="152.945" cy="-279" rx="48.1917" ry="18"/>
<text text-anchor="middle" x="152.945" y="-275.3" font-family="Times New Roman,serif" font-size="14.00">main/2.3.3</text>
</g>
<!-- main/2.0.0&#45;&gt;main/2.3.3 -->
<g id="edge9" class="edge"><title>main/2.0.0&#45;&gt;main/2.3.3</title>
<path fill="none" stroke="black" stroke-width="2" d="M142.034,-368.969C144.081,-352.279 147.233,-326.579 149.624,-307.084"/>
<polygon fill="black" stroke="black" stroke-width="2" points="153.118,-307.34 150.862,-296.988 146.17,-306.488 153.118,-307.34"/>
</g>
<!-- red/2.0.0 -->
<g id="node12" class="node"><title>red/2.0.0</title>
<ellipse fill="none" stroke="black" cx="240.945" cy="-192" rx="42.7926" ry="18"/>
<text text-anchor="middle" x="240.945" y="-188.3" font-family="Times New Roman,serif" font-size="14.00">red/2.0.0</text>
</g>
<!-- red/1.3.0&#45;&gt;red/2.0.0 -->
<g id="edge24" class="edge"><title>red/1.3.0&#45;&gt;red/2.0.0</title>
<path fill="none" stroke="black" stroke-width="2" d="M248.235,-368.873C246.845,-335.323 243.752,-260.707 242.076,-220.287"/>
<polygon fill="black" stroke="black" stroke-width="2" points="245.565,-219.936 241.654,-210.089 238.571,-220.225 245.565,-219.936"/>
<text text-anchor="middle" x="258.445" y="-275.3" font-family="Times New Roman,serif" font-size="14.00">zero</text>
</g>
<!-- main/2.4.0 -->
<g id="node11" class="node"><title>main/2.4.0</title>
<ellipse fill="none" stroke="black" cx="131.945" cy="-105" rx="48.1917" ry="18"/>
<text text-anchor="middle" x="131.945" y="-101.3" font-family="Times New Roman,serif" font-size="14.00">main/2.4.0</text>
</g>
<!-- main/2.3.3&#45;&gt;main/2.4.0 -->
<g id="edge10" class="edge"><title>main/2.3.3&#45;&gt;main/2.4.0</title>
<path fill="none" stroke="black" stroke-width="2" d="M151.705,-260.632C149.723,-234.558 145.396,-183.791 138.945,-141 138.557,-138.426 138.108,-135.755 137.629,-133.088"/>
<polygon fill="black" stroke="black" stroke-width="2" points="141.02,-132.19 135.691,-123.032 134.146,-133.514 141.02,-132.19"/>
<text text-anchor="middle" x="160.445" y="-188.3" font-family="Times New Roman,serif" font-size="14.00">zero</text>
</g>
<!-- main/2.3.3&#45;&gt;red/2.0.0 -->
<g id="edge11" class="edge"><title>main/2.3.3&#45;&gt;red/2.0.0</title>
<path fill="none" stroke="black" stroke-dasharray="5,2" d="M167.332,-261.809C176.422,-251.805 188.562,-238.851 199.945,-228 204.459,-223.698 209.4,-219.264 214.24,-215.059"/>
<polygon fill="none" stroke="black" points="216.868,-217.418 222.198,-208.261 212.321,-212.095 216.868,-217.418"/>
<text text-anchor="middle" x="215.945" y="-231.8" font-family="Times New Roman,serif" font-size="14.00">major</text>
</g>
<!-- purple/4.9.0 -->
<g id="node13" class="node"><title>purple/4.9.0</title>
<ellipse fill="none" stroke="black" cx="62.9452" cy="-192" rx="53.8905" ry="18"/>
<text text-anchor="middle" x="62.9452" y="-188.3" font-family="Times New Roman,serif" font-size="14.00">purple/4.9.0</text>
</g>
<!-- main/2.3.3&#45;&gt;purple/4.9.0 -->
<g id="edge12" class="edge"><title>main/2.3.3&#45;&gt;purple/4.9.0</title>
<path fill="none" stroke="black" stroke-dasharray="5,2" d="M130.624,-262.923C122.539,-257.069 113.536,-250.076 105.945,-243 97.5678,-235.191 89.1719,-225.85 82.0511,-217.368"/>
<polygon fill="none" stroke="black" points="84.706,-215.085 75.6568,-209.575 79.2947,-219.526 84.706,-215.085"/>
<text text-anchor="middle" x="122.445" y="-231.8" font-family="Times New Roman,serif" font-size="14.00">minor</text>
</g>
<!-- main/2.5.0 -->
<g id="node14" class="node"><title>main/2.5.0</title>
<ellipse fill="none" stroke="black" cx="191.945" cy="-18" rx="48.1917" ry="18"/>
<text text-anchor="middle" x="191.945" y="-14.3" font-family="Times New Roman,serif" font-size="14.00">main/2.5.0</text>
</g>
<!-- main/2.4.0&#45;&gt;main/2.5.0 -->
<g id="edge13" class="edge"><title>main/2.4.0&#45;&gt;main/2.5.0</title>
<path fill="none" stroke="black" stroke-width="2" d="M143.799,-87.2067C152.567,-74.7862 164.646,-57.6735 174.512,-43.6965"/>
<polygon fill="black" stroke="black" stroke-width="2" points="177.412,-45.6573 180.32,-35.4692 171.694,-41.6204 177.412,-45.6573"/>
<text text-anchor="middle" x="182.445" y="-57.8" font-family="Times New Roman,serif" font-size="14.00">minor</text>
</g>
<!-- red/2.7.5 -->
<g id="node19" class="node"><title>red/2.7.5</title>
<ellipse fill="none" stroke="black" cx="240.945" cy="-105" rx="42.7926" ry="18"/>
<text text-anchor="middle" x="240.945" y="-101.3" font-family="Times New Roman,serif" font-size="14.00">red/2.7.5</text>
</g>
<!-- red/2.0.0&#45;&gt;red/2.7.5 -->
<g id="edge25" class="edge"><title>red/2.0.0&#45;&gt;red/2.7.5</title>
<path fill="none" stroke="black" stroke-width="2" d="M240.945,-173.799C240.945,-162.163 240.945,-146.548 240.945,-133.237"/>
<polygon fill="black" stroke="black" stroke-width="2" points="244.445,-133.175 240.945,-123.175 237.445,-133.175 244.445,-133.175"/>
</g>
<!-- purple/4.9.0&#45;&gt;main/2.4.0 -->
<g id="edge20" class="edge"><title>purple/4.9.0&#45;&gt;main/2.4.0</title>
<path fill="none" stroke="black" stroke-dasharray="5,2" d="M76.5774,-174.207C86.7551,-161.669 100.814,-144.35 112.218,-130.302"/>
<polygon fill="none" stroke="black" points="114.991,-132.439 118.576,-122.469 109.556,-128.027 114.991,-132.439"/>
<text text-anchor="middle" x="118.445" y="-144.8" font-family="Times New Roman,serif" font-size="14.00">minor</text>
</g>
<!-- purple/4.7.5 -->
<g id="node16" class="node"><title>purple/4.7.5</title>
<ellipse fill="none" stroke="black" cx="53.9452" cy="-474" rx="53.8905" ry="18"/>
<text text-anchor="middle" x="53.9452" y="-470.3" font-family="Times New Roman,serif" font-size="14.00">purple/4.7.5</text>
</g>
<!-- purple/1.0.2&#45;&gt;purple/4.7.5 -->
<g id="edge16" class="edge"><title>purple/1.0.2&#45;&gt;purple/4.7.5</title>
<path fill="none" stroke="black" stroke-width="2" d="M62.9452,-777.938C62.9452,-760.023 62.9452,-731.031 62.9452,-706 62.9452,-706 62.9452,-706 62.9452,-560 62.9452,-540.645 60.609,-518.948 58.3171,-502.32"/>
<polygon fill="black" stroke="black" stroke-width="2" points="61.7479,-501.591 56.8424,-492.2 54.8211,-502.6 61.7479,-501.591"/>
</g>
<!-- purple/4.7.5&#45;&gt;main/2.0.0 -->
<g id="edge18" class="edge"><title>purple/4.7.5&#45;&gt;main/2.0.0</title>
<path fill="none" stroke="black" stroke-dasharray="5,2" d="M70.5269,-456.611C83.5782,-443.712 101.931,-425.572 116.488,-411.185"/>
<polygon fill="none" stroke="black" points="119.054,-413.569 123.706,-404.05 114.133,-408.591 119.054,-413.569"/>
<text text-anchor="middle" x="118.945" y="-426.8" font-family="Times New Roman,serif" font-size="14.00">major</text>
</g>
<!-- purple/4.8.9 -->
<g id="node17" class="node"><title>purple/4.8.9</title>
<ellipse fill="none" stroke="black" cx="53.9452" cy="-333" rx="53.8905" ry="18"/>
<text text-anchor="middle" x="53.9452" y="-329.3" font-family="Times New Roman,serif" font-size="14.00">purple/4.8.9</text>
</g>
<!-- purple/4.7.5&#45;&gt;purple/4.8.9 -->
<g id="edge17" class="edge"><title>purple/4.7.5&#45;&gt;purple/4.8.9</title>
<path fill="none" stroke="black" stroke-width="2" d="M53.9452,-455.956C53.9452,-432.404 53.9452,-389.639 53.9452,-361.526"/>
<polygon fill="black" stroke="black" stroke-width="2" points="57.4453,-361.184 53.9452,-351.184 50.4453,-361.184 57.4453,-361.184"/>
</g>
<!-- purple/4.8.9&#45;&gt;purple/4.9.0 -->
<g id="edge19" class="edge"><title>purple/4.8.9&#45;&gt;purple/4.9.0</title>
<path fill="none" stroke="black" stroke-width="2" d="M55.0488,-314.956C56.5737,-291.404 59.3427,-248.639 61.163,-220.526"/>
<polygon fill="black" stroke="black" stroke-width="2" points="64.6791,-220.389 61.8326,-210.184 57.6937,-219.936 64.6791,-220.389"/>
<text text-anchor="middle" x="75.4452" y="-275.3" font-family="Times New Roman,serif" font-size="14.00">minor</text>
</g>
<!-- red/1.2.0&#45;&gt;main/1.3.0 -->
<g id="edge23" class="edge"><title>red/1.2.0&#45;&gt;main/1.3.0</title>
<path fill="none" stroke="black" stroke-dasharray="5,2" d="M227.609,-543.93C222.206,-538.087 216.179,-531.356 210.945,-525 204.322,-516.957 197.436,-507.874 191.425,-499.678"/>
<polygon fill="none" stroke="black" points="194.229,-497.582 185.526,-491.538 188.56,-501.689 194.229,-497.582"/>
<text text-anchor="middle" x="227.445" y="-513.8" font-family="Times New Roman,serif" font-size="14.00">minor</text>
</g>
<!-- red/1.2.0&#45;&gt;red/1.3.0 -->
<g id="edge22" class="edge"><title>red/1.2.0&#45;&gt;red/1.3.0</title>
<path fill="none" stroke="black" stroke-width="2" d="M243.542,-542.879C244.585,-513.001 246.744,-451.113 247.994,-415.274"/>
<polygon fill="black" stroke="black" stroke-width="2" points="251.5,-415.168 248.35,-405.052 244.504,-414.923 251.5,-415.168"/>
<text text-anchor="middle" x="259.445" y="-470.3" font-family="Times New Roman,serif" font-size="14.00">zero</text>
</g>
<!-- red/2.7.5&#45;&gt;main/2.5.0 -->
<g id="edge26" class="edge"><title>red/2.7.5&#45;&gt;main/2.5.0</title>
<path fill="none" stroke="black" stroke-dasharray="5,2" d="M231.264,-87.2067C224.285,-75.0991 214.735,-58.5329 206.794,-44.759"/>
<polygon fill="none" stroke="black" points="209.633,-42.6739 201.606,-35.7584 203.568,-46.17 209.633,-42.6739"/>
<text text-anchor="middle" x="236.445" y="-57.8" font-family="Times New Roman,serif" font-size="14.00">minor</text>
</g>
</g>
</svg>
