<?xml version="1.0" encoding="UTF-8" standalone="no"?>
<!DOCTYPE svg PUBLIC "-//W3C//DTD SVG 1.1//EN"
 "http://www.w3.org/Graphics/SVG/1.1/DTD/svg11.dtd">
<!-- Generated by graphviz version 2.38.0 (20140413.2041)
 -->
<!-- Title: %3 Pages: 1 -->
<svg width="163pt" height="204pt"
 viewBox="0.00 0.00 163.24 204.00" xmlns="http://www.w3.org/2000/svg" xmlns:xlink="http://www.w3.org/1999/xlink">
<g id="graph0" class="graph" transform="scale(1 1) rotate(0) translate(4 200)">
<title>%3</title>
<polygon fill="white" stroke="none" points="-4,4 -4,-200 159.242,-200 159.242,4 -4,4"/>
<!-- main/1.0.0 -->
<g id="node1" class="node"><title>main/1.0.0</title>
<ellipse fill="none" stroke="black" cx="48.0957" cy="-178" rx="48.1917" ry="18"/>
<text text-anchor="middle" x="48.0957" y="-174.3" font-family="Times New Roman,serif" font-size="14.00">main/1.0.0</text>
</g>
<!-- main/1.0.2 -->
<g id="node2" class="node"><title>main/1.0.2</title>
<ellipse fill="none" stroke="black" cx="50.0957" cy="-18" rx="48.1917" ry="18"/>
<text text-anchor="middle" x="50.0957" y="-14.3" font-family="Times New Roman,serif" font-size="14.00">main/1.0.2</text>
</g>
<!-- main/1.0.0&#45;&gt;main/1.0.2 -->
<g id="edge1" class="edge"><title>main/1.0.0&#45;&gt;main/1.0.2</title>
<path fill="none" stroke="black" stroke-width="2" d="M40.3991,-159.888C36.1365,-149.462 31.2709,-135.735 29.0957,-123 24.5652,-96.4737 32.0448,-66.3533 39.3021,-45.3798"/>
<polygon fill="black" stroke="black" stroke-width="2" points="42.631,-46.468 42.7934,-35.8744 36.0602,-44.0546 42.631,-46.468"/>
<text text-anchor="middle" x="41.5957" y="-101.3" font-family="Times New Roman,serif" font-size="14.00">zero</text>
</g>
<!-- blue/1.0.1 -->
<g id="node3" class="node"><title>blue/1.0.1</title>
<ellipse fill="none" stroke="black" cx="109.096" cy="-105" rx="46.2923" ry="18"/>
<text text-anchor="middle" x="109.096" y="-101.3" font-family="Times New Roman,serif" font-size="14.00">blue/1.0.1</text>
</g>
<!-- main/1.0.0&#45;&gt;blue/1.0.1 -->
<g id="edge2" class="edge"><title>main/1.0.0&#45;&gt;blue/1.0.1</title>
<path fill="none" stroke="black" d="M62.2437,-160.533C70.0197,-151.482 79.8089,-140.088 88.426,-130.058"/>
<polygon fill="none" stroke="black" points="91.1625,-132.244 95.0245,-122.378 85.853,-127.682 91.1625,-132.244"/>
</g>
<!-- blue/1.0.1&#45;&gt;main/1.0.2 -->
<g id="edge3" class="edge"><title>blue/1.0.1&#45;&gt;main/1.0.2</title>
<path fill="none" stroke="black" stroke-dasharray="5,2" d="M97.4392,-87.2067C88.9543,-74.9827 77.3148,-58.2139 67.7002,-44.3624"/>
<polygon fill="none" stroke="black" points="70.3054,-41.9776 61.728,-35.7584 64.555,-45.9691 70.3054,-41.9776"/>
<text text-anchor="middle" x="98.5957" y="-57.8" font-family="Times New Roman,serif" font-size="14.00">patch</text>
</g>
</g>
</svg>
