<?xml version="1.0" encoding="UTF-8" standalone="no"?>
<!DOCTYPE svg PUBLIC "-//W3C//DTD SVG 1.1//EN"
 "http://www.w3.org/Graphics/SVG/1.1/DTD/svg11.dtd">
<!-- Generated by graphviz version 2.38.0 (20140413.2041)
 -->
<!-- Title: %3 Pages: 1 -->
<svg width="170pt" height="378pt"
 viewBox="0.00 0.00 169.99 378.00" xmlns="http://www.w3.org/2000/svg" xmlns:xlink="http://www.w3.org/1999/xlink">
<g id="graph0" class="graph" transform="scale(1 1) rotate(0) translate(4 374)">
<title>%3</title>
<polygon fill="white" stroke="none" points="-4,4 -4,-374 165.992,-374 165.992,4 -4,4"/>
<!-- main/1.0.0 -->
<g id="node1" class="node"><title>main/1.0.0</title>
<ellipse fill="none" stroke="black" cx="72.0957" cy="-352" rx="48.1917" ry="18"/>
<text text-anchor="middle" x="72.0957" y="-348.3" font-family="Times New Roman,serif" font-size="14.00">main/1.0.0</text>
</g>
<!-- main/5.3.2 -->
<g id="node2" class="node"><title>main/5.3.2</title>
<ellipse fill="none" stroke="black" cx="48.0957" cy="-105" rx="48.1917" ry="18"/>
<text text-anchor="middle" x="48.0957" y="-101.3" font-family="Times New Roman,serif" font-size="14.00">main/5.3.2</text>
</g>
<!-- main/1.0.0&#45;&gt;main/5.3.2 -->
<g id="edge1" class="edge"><title>main/1.0.0&#45;&gt;main/5.3.2</title>
<path fill="none" stroke="black" stroke-width="2" d="M70.4081,-333.772C66.3027,-291.863 55.7668,-184.309 50.7839,-133.442"/>
<polygon fill="black" stroke="black" stroke-width="2" points="54.2398,-132.82 49.7815,-123.209 47.2732,-133.503 54.2398,-132.82"/>
<text text-anchor="middle" x="74.5957" y="-231.8" font-family="Times New Roman,serif" font-size="14.00">zero</text>
</g>
<!-- red/1.0.1 -->
<g id="node3" class="node"><title>red/1.0.1</title>
<ellipse fill="none" stroke="black" cx="119.096" cy="-279" rx="42.7926" ry="18"/>
<text text-anchor="middle" x="119.096" y="-275.3" font-family="Times New Roman,serif" font-size="14.00">red/1.0.1</text>
</g>
<!-- main/1.0.0&#45;&gt;red/1.0.1 -->
<g id="edge2" class="edge"><title>main/1.0.0&#45;&gt;red/1.0.1</title>
<path fill="none" stroke="black" d="M83.2341,-334.174C88.9703,-325.509 96.0802,-314.768 102.453,-305.141"/>
<polygon fill="none" stroke="black" points="105.436,-306.976 108.037,-296.705 99.5989,-303.112 105.436,-306.976"/>
</g>
<!-- red/6.0.0 -->
<g id="node4" class="node"><title>red/6.0.0</title>
<ellipse fill="none" stroke="black" cx="99.0957" cy="-18" rx="42.7926" ry="18"/>
<text text-anchor="middle" x="99.0957" y="-14.3" font-family="Times New Roman,serif" font-size="14.00">red/6.0.0</text>
</g>
<!-- main/5.3.2&#45;&gt;red/6.0.0 -->
<g id="edge3" class="edge"><title>main/5.3.2&#45;&gt;red/6.0.0</title>
<path fill="none" stroke="black" stroke-dasharray="5,2" d="M58.1717,-87.2067C65.5061,-74.9827 75.5674,-58.2139 83.8783,-44.3624"/>
<polygon fill="none" stroke="black" points="86.8969,-46.1341 89.0407,-35.7584 80.8945,-42.5326 86.8969,-46.1341"/>
<text text-anchor="middle" x="93.0957" y="-57.8" font-family="Times New Roman,serif" font-size="14.00">major</text>
</g>
<!-- red/5.3.1 -->
<g id="node5" class="node"><title>red/5.3.1</title>
<ellipse fill="none" stroke="black" cx="119.096" cy="-192" rx="42.7926" ry="18"/>
<text text-anchor="middle" x="119.096" y="-188.3" font-family="Times New Roman,serif" font-size="14.00">red/5.3.1</text>
</g>
<!-- red/1.0.1&#45;&gt;red/5.3.1 -->
<g id="edge4" class="edge"><title>red/1.0.1&#45;&gt;red/5.3.1</title>
<path fill="none" stroke="black" stroke-width="2" d="M119.096,-260.799C119.096,-249.163 119.096,-233.548 119.096,-220.237"/>
<polygon fill="black" stroke="black" stroke-width="2" points="122.596,-220.175 119.096,-210.175 115.596,-220.175 122.596,-220.175"/>
</g>
<!-- red/5.3.1&#45;&gt;main/5.3.2 -->
<g id="edge6" class="edge"><title>red/5.3.1&#45;&gt;main/5.3.2</title>
<path fill="none" stroke="black" stroke-dasharray="5,2" d="M103.282,-174.948C97.711,-169.106 91.4946,-162.372 86.0957,-156 79.2952,-147.974 72.223,-138.895 66.0499,-130.698"/>
<polygon fill="none" stroke="black" points="68.7688,-128.489 59.9914,-122.555 63.1527,-132.667 68.7688,-128.489"/>
<text text-anchor="middle" x="102.096" y="-144.8" font-family="Times New Roman,serif" font-size="14.00">major</text>
</g>
<!-- red/5.3.1&#45;&gt;red/6.0.0 -->
<g id="edge5" class="edge"><title>red/5.3.1&#45;&gt;red/6.0.0</title>
<path fill="none" stroke="black" stroke-width="2" d="M120.241,-173.878C121.569,-147.696 122.507,-96.2952 113.096,-54 112.456,-51.1253 111.609,-48.1798 110.646,-45.2771"/>
<polygon fill="black" stroke="black" stroke-width="2" points="113.857,-43.8717 107.067,-35.739 107.304,-46.3312 113.857,-43.8717"/>
<text text-anchor="middle" x="137.096" y="-101.3" font-family="Times New Roman,serif" font-size="14.00">major</text>
</g>
</g>
</svg>
